<svg id="det_fam_tree" width="568.8070068359375" height="86.91666412353516" version="1.1" baseprofile="full" xmlns="http://www.w3.org/2000/svg" xmlns:xlink="http://www.w3.org/1999/xlink" xmlns:ev="http://www.w3.org/2001/xml-events"><g transform="translate(5,25) scale(0.5)"><path vector-effect="non-scaling-stroke" stroke-linecap="square" style="stroke:black;stroke-width:1;" d="M 400 0 400 40"></path><path vector-effect="non-scaling-stroke" stroke-linecap="square" style="stroke:black;stroke-width:1;" stroke-dasharray="1,10" d="M 400 0 500 0"></path><g id="SvgjsG1287" class="arrower-bgc" transform="translate(510,-10) scale(0.5)" idx="5"><line id="SvgjsLine1288" x1="0" y1="20" x2="875" y2="20" stroke="#000000" stroke-width="1" class="arrower-line"></line><text id="SvgjsText1289" font-family="Helvetica, Arial, sans-serif" class="arrower-label" font-size="20" size="20" y="-34.380952517191574" font-weight="bold" fill="red"><tspan id="SvgjsTspan1290" dy="26" x="0">Halobacillus_andaensis_OCO35-Chr1.prokka-c00001_gnl_CIA...region006: Halobacillus andaensis strain strain</tspan></text><polygon id="SvgjsPolygon1295" points="41,6, 41,6, 41,-1, 25,20, 41,41, 41,33, 41,33" fill="white" stroke="#000000" stroke-width="1" class="arrower-orf" idx="0"></polygon><polygon id="SvgjsPolygon1296" points="41,6, 41,6, 41,-1, 26,18, 26,21, 41,41, 41,33, 41,33" fill="#5db24a" stroke="#000000" stroke-width="1" class="arrower-domain" idx="0"></polygon><polygon id="SvgjsPolygon1297" points="76,6, 57,6, 57,-1, 50,20, 57,41, 57,33, 76,33" fill="white" stroke="#000000" stroke-width="1" class="arrower-orf" idx="1"></polygon><polygon id="SvgjsPolygon1298" points="73,6, 57,6, 57,-1, 52,13, 52,26, 57,41, 57,33, 73,33" fill="#6bc83e" stroke="#000000" stroke-width="1" class="arrower-domain" idx="0"></polygon><polygon id="SvgjsPolygon1299" points="117,6, 87,6, 87,-1, 77,20, 87,41, 87,33, 117,33" fill="white" stroke="#000000" stroke-width="1" class="arrower-orf" idx="2"></polygon><polygon id="SvgjsPolygon1300" points="115,6, 87,6, 87,-1, 78,17, 78,22, 87,41, 87,33, 115,33" fill="#6e67d2" stroke="#000000" stroke-width="1" class="arrower-domain" idx="0"></polygon><polygon id="SvgjsPolygon1301" points="171,6, 133,6, 133,-1, 120,20, 133,41, 133,33, 171,33" fill="white" stroke="#000000" stroke-width="1" class="arrower-orf" idx="3"></polygon><polygon id="SvgjsPolygon1302" points="169,6, 138,6, 138,6, 138,20, 138,20, 138,33, 138,33, 169,33" fill="#c1e04a" stroke="#000000" stroke-width="1" class="arrower-domain" idx="0"></polygon><polygon id="SvgjsPolygon1303" points="191,6, 191,6, 191,-1, 173,20, 191,41, 191,33, 191,33" fill="white" stroke="#000000" stroke-width="1" class="arrower-orf" idx="4"></polygon><polygon id="SvgjsPolygon1304" points="191,6, 191,6, 191,-1, 178,14, 178,25, 191,41, 191,33, 191,33" fill="#516cd7" stroke="#000000" stroke-width="1" class="arrower-domain" idx="0"></polygon><polygon id="SvgjsPolygon1305" points="217,6, 197,6, 197,-1, 190,20, 197,41, 197,33, 217,33" fill="white" stroke="#000000" stroke-width="1" class="arrower-orf" idx="5"></polygon><polygon id="SvgjsPolygon1306" points="212,6, 198,6, 198,6, 198,20, 198,20, 198,33, 198,33, 212,33" fill="#d3418a" stroke="#000000" stroke-width="1" class="arrower-domain" idx="0"></polygon><polygon id="SvgjsPolygon1307" points="230,6, 251,6, 251,-1, 259,20, 251,41, 251,33, 230,33" fill="white" stroke="#000000" stroke-width="1" class="arrower-orf" idx="6"></polygon><polygon id="SvgjsPolygon1308" points="230,6, 235,6, 235,6, 235,20, 235,20, 235,33, 235,33, 230,33" fill="#c2d643" stroke="#000000" stroke-width="1" class="arrower-domain" idx="0"></polygon><polygon id="SvgjsPolygon1309" points="237,6, 251,6, 251,-1, 256,12, 256,28, 251,41, 251,33, 237,33" fill="#b78f53" stroke="#000000" stroke-width="1" class="arrower-domain" idx="1"></polygon><polygon id="SvgjsPolygon1310" points="262,6, 285,6, 285,-1, 292,20, 285,41, 285,33, 262,33" fill="white" stroke="#000000" stroke-width="1" class="arrower-orf" idx="7"></polygon><polygon id="SvgjsPolygon1311" points="264,6, 285,6, 285,-1, 292,20, 292,20, 285,41, 285,33, 264,33" fill="#49cd7f" stroke="#000000" stroke-width="1" class="arrower-domain" idx="0"></polygon><polygon id="SvgjsPolygon1312" points="322,6, 301,6, 301,-1, 294,20, 301,41, 301,33, 322,33" fill="white" stroke="#000000" stroke-width="1" class="arrower-orf" idx="8" style="stroke-width: 1px; stroke: black;"></polygon><polygon id="SvgjsPolygon1313" points="303,6, 301,6, 301,-1, 296,13, 296,26, 301,41, 301,33, 303,33" fill="#bc6a3c" stroke="#000000" stroke-width="1" class="arrower-domain" idx="0" style="stroke-width: 1px; stroke: black;"></polygon><polygon id="SvgjsPolygon1314" points="322,6, 309,6, 309,6, 309,20, 309,20, 309,33, 309,33, 322,33" fill="#646bcb" stroke="#000000" stroke-width="1" class="arrower-domain" idx="1" style="stroke-width: 1px; stroke: black;"></polygon><polygon id="SvgjsPolygon1315" points="386,6, 338,6, 338,-1, 322,20, 338,41, 338,33, 386,33" fill="white" stroke="#000000" stroke-width="1" class="arrower-orf" idx="9" style="stroke-width: 1px; stroke: black;"></polygon><polygon id="SvgjsPolygon1316" points="336,1, 336,1, 336,1, 323,18, 323,21, 336,38, 336,38, 336,38" fill="#505ee1" stroke="#000000" stroke-width="1" class="arrower-domain" idx="0" style="stroke-width: 1px; stroke: black;"></polygon><polygon id="SvgjsPolygon1317" points="348,6, 341,6, 341,6, 341,20, 341,20, 341,33, 341,33, 348,33" fill="#d7d957" stroke="#000000" stroke-width="1" class="arrower-domain" idx="1" style="stroke-width: 1px; stroke: black;"></polygon><polygon id="SvgjsPolygon1318" points="361,6, 349,6, 349,6, 349,20, 349,20, 349,33, 349,33, 361,33" fill="#cddd40" stroke="#000000" stroke-width="1" class="arrower-domain" idx="2" style="stroke-width: 1px; stroke: black;"></polygon><polygon id="SvgjsPolygon1319" points="382,6, 366,6, 366,6, 366,20, 366,20, 366,33, 366,33, 382,33" fill="#d19943" stroke="#000000" stroke-width="1" class="arrower-domain" idx="3" style="stroke-width: 1px; stroke: black;"></polygon><polygon id="SvgjsPolygon1320" points="400,6, 456,6, 456,-1, 475,20, 456,41, 456,33, 400,33" fill="white" stroke="#000000" stroke-width="1" class="arrower-orf" idx="10"></polygon><polygon id="SvgjsPolygon1321" points="401,6, 435,6, 435,6, 435,20, 435,20, 435,33, 435,33, 401,33" fill="#58be59" stroke="#000000" stroke-width="1" class="arrower-domain" idx="0" style="stroke-width: 1px; stroke: black;"></polygon><polygon id="SvgjsPolygon1322" points="436,6, 456,6, 456,-1, 474,18, 474,21, 456,41, 456,33, 436,33" fill="#bf3ac9" stroke="#000000" stroke-width="1" class="arrower-domain" idx="1" style="stroke-width: 1px; stroke: black;"></polygon><polygon id="SvgjsPolygon1323" points="502,6, 485,6, 485,-1, 480,20, 485,41, 485,33, 502,33" fill="white" stroke="#000000" stroke-width="1" class="arrower-orf" idx="11" style="stroke-width: 1px; stroke: black;"></polygon><polygon id="SvgjsPolygon1324" points="541,6, 522,6, 522,-1, 515,20, 522,41, 522,33, 541,33" fill="white" stroke="#000000" stroke-width="1" class="arrower-orf" idx="12"></polygon><polygon id="SvgjsPolygon1325" points="541,6, 522,6, 522,-1, 518,10, 518,29, 522,41, 522,33, 541,33" fill="#bcc94e" stroke="#000000" stroke-width="1" class="arrower-domain" idx="0" style="stroke-width: 1px; stroke: black;"></polygon><polygon id="SvgjsPolygon1326" points="547,6, 547,6, 547,-1, 557,20, 547,41, 547,33, 547,33" fill="white" stroke="#000000" stroke-width="1" class="arrower-orf" idx="13"></polygon><polygon id="SvgjsPolygon1327" points="605,6, 580,6, 580,-1, 572,20, 580,41, 580,33, 605,33" fill="white" stroke="#000000" stroke-width="1" class="arrower-orf" idx="14"></polygon><polygon id="SvgjsPolygon1328" points="603,6, 580,6, 580,-1, 574,14, 574,25, 580,41, 580,33, 603,33" fill="#e1cd3a" stroke="#000000" stroke-width="1" class="arrower-domain" idx="0"></polygon><polygon id="SvgjsPolygon1329" points="618,6, 644,6, 644,-1, 653,20, 644,41, 644,33, 618,33" fill="white" stroke="#000000" stroke-width="1" class="arrower-orf" idx="15"></polygon><polygon id="SvgjsPolygon1330" points="618,6, 644,6, 644,-1, 644,20, 644,20, 644,41, 644,33, 618,33" fill="#ffffff" stroke="#000000" stroke-width="1" class="arrower-domain" idx="0" style="stroke-width: 1px; stroke: black;"></polygon><polygon id="SvgjsPolygon1331" points="688,6, 663,6, 663,-1, 655,20, 663,41, 663,33, 688,33" fill="white" stroke="#000000" stroke-width="1" class="arrower-orf" idx="16"></polygon><polygon id="SvgjsPolygon1332" points="686,6, 663,6, 663,-1, 660,6, 660,33, 663,41, 663,33, 686,33" fill="#45decf" stroke="#000000" stroke-width="1" class="arrower-domain" idx="0"></polygon><polygon id="SvgjsPolygon1333" points="767,6, 713,6, 713,-1, 695,20, 713,41, 713,33, 767,33" fill="white" stroke="#000000" stroke-width="1" class="arrower-orf" idx="17" style="stroke-width: 1px; stroke: black;"></polygon><polygon id="SvgjsPolygon1334" points="778,6, 778,6, 778,-1, 768,20, 778,41, 778,33, 778,33" fill="white" stroke="#000000" stroke-width="1" class="arrower-orf" idx="18" style="stroke-width: 1px; stroke: black;"></polygon><polygon id="SvgjsPolygon1335" points="847,6, 794,6, 794,-1, 777,20, 794,41, 794,33, 847,33" fill="white" stroke="#000000" stroke-width="1" class="arrower-orf" idx="19"></polygon><polygon id="SvgjsPolygon1336" points="804,6, 794,6, 794,-1, 777,20, 777,20, 794,41, 794,33, 804,33" fill="#e46dc1" stroke="#000000" stroke-width="1" class="arrower-domain" idx="0" style="stroke-width: 1px; stroke: black;"></polygon><polygon id="SvgjsPolygon1337" points="844,6, 807,6, 807,6, 807,20, 807,20, 807,33, 807,33, 844,33" fill="#e46dc1" stroke="#000000" stroke-width="1" class="arrower-domain" idx="1" style="stroke-width: 1px; stroke: black;"></polygon></g><path vector-effect="non-scaling-stroke" stroke-linecap="square" style="stroke:black;stroke-width:1;" stroke-dasharray="1,10" d="M 400 40 500 40"></path><g id="SvgjsG5006" class="arrower-bgc" transform="translate(510,30) scale(-1,1) translate(-437,0) scale(0.5)" idx="73"><line id="SvgjsLine5007" x1="0" y1="20" x2="875" y2="20" stroke="#000000" stroke-width="1" class="arrower-line"></line><text id="SvgjsText5008" font-family="Helvetica, Arial, sans-serif" class="arrower-label" font-size="20" size="20" y="-34.380952517191574" transform="scale(-1,1) translate(-874,0)" font-style="italic"><tspan id="SvgjsTspan5009" dy="26" x="0">Halobacillus_sp._GCF_900240285.prokka-NZ_OESS01000003.region001: Halobacillus sp. strain strain</tspan></text><polygon id="SvgjsPolygon5014" points="27,6, 86,6, 86,-1, 106,20, 86,41, 86,33, 27,33" fill="white" stroke="#000000" stroke-width="1" class="arrower-orf" idx="0"></polygon><polygon id="SvgjsPolygon5015" points="29,6, 66,6, 66,6, 66,20, 66,20, 66,33, 66,33, 29,33" fill="#e46dc1" stroke="#000000" stroke-width="1" class="arrower-domain" idx="0"></polygon><polygon id="SvgjsPolygon5016" points="69,6, 86,6, 86,-1, 105,18, 105,21, 86,41, 86,33, 69,33" fill="#e46dc1" stroke="#000000" stroke-width="1" class="arrower-domain" idx="1" style="stroke-width: 1px; stroke: black;"></polygon><polygon id="SvgjsPolygon5017" points="106,6, 160,6, 160,-1, 178,20, 160,41, 160,33, 106,33" fill="white" stroke="#000000" stroke-width="1" class="arrower-orf" idx="1" style="stroke-width: 1px; stroke: black;"></polygon><polygon id="SvgjsPolygon5018" points="185,6, 210,6, 210,-1, 218,20, 210,41, 210,33, 185,33" fill="white" stroke="#000000" stroke-width="1" class="arrower-orf" idx="2"></polygon><polygon id="SvgjsPolygon5019" points="187,6, 210,6, 210,-1, 213,6, 213,33, 210,41, 210,33, 187,33" fill="#45decf" stroke="#000000" stroke-width="1" class="arrower-domain" idx="0" style="stroke-width: 1px; stroke: black;"></polygon><polygon id="SvgjsPolygon5020" points="255,6, 229,6, 229,-1, 220,20, 229,41, 229,33, 255,33" fill="white" stroke="#000000" stroke-width="1" class="arrower-orf" idx="3" style="stroke-width: 1px; stroke: black;"></polygon><polygon id="SvgjsPolygon5021" points="255,6, 229,6, 229,-1, 229,20, 229,20, 229,41, 229,33, 255,33" fill="#ffffff" stroke="#000000" stroke-width="1" class="arrower-domain" idx="0" style="stroke-width: 1px; stroke: black;"></polygon><polygon id="SvgjsPolygon5022" points="268,6, 293,6, 293,-1, 301,20, 293,41, 293,33, 268,33" fill="white" stroke="#000000" stroke-width="1" class="arrower-orf" idx="4"></polygon><polygon id="SvgjsPolygon5023" points="270,6, 293,6, 293,-1, 299,14, 299,25, 293,41, 293,33, 270,33" fill="#e1cd3a" stroke="#000000" stroke-width="1" class="arrower-domain" idx="0" style="stroke-width: 1px; stroke: black;"></polygon><polygon id="SvgjsPolygon5024" points="326,6, 326,6, 326,-1, 316,20, 326,41, 326,33, 326,33" fill="white" stroke="#000000" stroke-width="1" class="arrower-orf" idx="5" style="stroke-width: 1px; stroke: black;"></polygon><polygon id="SvgjsPolygon5025" points="333,6, 352,6, 352,-1, 359,20, 352,41, 352,33, 333,33" fill="white" stroke="#000000" stroke-width="1" class="arrower-orf" idx="6"></polygon><polygon id="SvgjsPolygon5026" points="333,6, 352,6, 352,-1, 356,10, 356,29, 352,41, 352,33, 333,33" fill="#bcc94e" stroke="#000000" stroke-width="1" class="arrower-domain" idx="0" style="stroke-width: 1px; stroke: black;"></polygon><polygon id="SvgjsPolygon5027" points="372,6, 389,6, 389,-1, 394,20, 389,41, 389,33, 372,33" fill="white" stroke="#000000" stroke-width="1" class="arrower-orf" idx="7" style="stroke-width: 1px; stroke: black;"></polygon><polygon id="SvgjsPolygon5028" points="475,6, 419,6, 419,-1, 400,20, 419,41, 419,33, 475,33" fill="white" stroke="#000000" stroke-width="1" class="arrower-orf" idx="8"></polygon><polygon id="SvgjsPolygon5029" points="439,6, 419,6, 419,-1, 401,18, 401,21, 419,41, 419,33, 439,33" fill="#bf3ac9" stroke="#000000" stroke-width="1" class="arrower-domain" idx="0" style="stroke-width: 1px; stroke: black;"></polygon><polygon id="SvgjsPolygon5030" points="474,6, 440,6, 440,6, 440,20, 440,20, 440,33, 440,33, 474,33" fill="#58be59" stroke="#000000" stroke-width="1" class="arrower-domain" idx="1" style="stroke-width: 1px; stroke: black;"></polygon><polygon id="SvgjsPolygon5031" points="488,6, 536,6, 536,-1, 552,20, 536,41, 536,33, 488,33" fill="white" stroke="#000000" stroke-width="1" class="arrower-orf" idx="9" style="stroke-width: 1px; stroke: black;"></polygon><polygon id="SvgjsPolygon5032" points="492,6, 508,6, 508,6, 508,20, 508,20, 508,33, 508,33, 492,33" fill="#d19943" stroke="#000000" stroke-width="1" class="arrower-domain" idx="0" style="stroke-width: 1px; stroke: black;"></polygon><polygon id="SvgjsPolygon5033" points="513,6, 525,6, 525,6, 525,20, 525,20, 525,33, 525,33, 513,33" fill="#cddd40" stroke="#000000" stroke-width="1" class="arrower-domain" idx="1" style="stroke-width: 1px; stroke: black;"></polygon><polygon id="SvgjsPolygon5034" points="526,6, 533,6, 533,6, 533,20, 533,20, 533,33, 533,33, 526,33" fill="#d7d957" stroke="#000000" stroke-width="1" class="arrower-domain" idx="2"></polygon><polygon id="SvgjsPolygon5035" points="538,1, 538,1, 538,1, 551,18, 551,21, 538,38, 538,38, 538,38" fill="#505ee1" stroke="#000000" stroke-width="1" class="arrower-domain" idx="3"></polygon><polygon id="SvgjsPolygon5036" points="552,6, 573,6, 573,-1, 580,20, 573,41, 573,33, 552,33" fill="white" stroke="#000000" stroke-width="1" class="arrower-orf" idx="10"></polygon><polygon id="SvgjsPolygon5037" points="552,6, 565,6, 565,6, 565,20, 565,20, 565,33, 565,33, 552,33" fill="#646bcb" stroke="#000000" stroke-width="1" class="arrower-domain" idx="0" style="stroke-width: 1px; stroke: black;"></polygon><polygon id="SvgjsPolygon5038" points="571,6, 573,6, 573,-1, 578,13, 578,26, 573,41, 573,33, 571,33" fill="#bc6a3c" stroke="#000000" stroke-width="1" class="arrower-domain" idx="1"></polygon><polygon id="SvgjsPolygon5039" points="612,6, 589,6, 589,-1, 582,20, 589,41, 589,33, 612,33" fill="white" stroke="#000000" stroke-width="1" class="arrower-orf" idx="11"></polygon><polygon id="SvgjsPolygon5040" points="610,6, 589,6, 589,-1, 582,20, 582,20, 589,41, 589,33, 610,33" fill="#49cd7f" stroke="#000000" stroke-width="1" class="arrower-domain" idx="0" style="stroke-width: 1px; stroke: black;"></polygon><polygon id="SvgjsPolygon5041" points="646,6, 623,6, 623,-1, 615,20, 623,41, 623,33, 646,33" fill="white" stroke="#000000" stroke-width="1" class="arrower-orf" idx="12"></polygon><polygon id="SvgjsPolygon5042" points="637,6, 623,6, 623,-1, 618,12, 618,28, 623,41, 623,33, 637,33" fill="#b78f53" stroke="#000000" stroke-width="1" class="arrower-domain" idx="0" style="stroke-width: 1px; stroke: black;"></polygon><polygon id="SvgjsPolygon5043" points="646,6, 639,6, 639,6, 639,20, 639,20, 639,33, 639,33, 646,33" fill="#c2d643" stroke="#000000" stroke-width="1" class="arrower-domain" idx="1" style="stroke-width: 1px; stroke: black;"></polygon><polygon id="SvgjsPolygon5044" points="657,6, 690,6, 690,-1, 701,20, 690,41, 690,33, 657,33" fill="white" stroke="#000000" stroke-width="1" class="arrower-orf" idx="13" style="stroke-width: 1px; stroke: black;"></polygon><polygon id="SvgjsPolygon5045" points="662,6, 676,6, 676,6, 676,20, 676,20, 676,33, 676,33, 662,33" fill="#d3418a" stroke="#000000" stroke-width="1" class="arrower-domain" idx="0" style="stroke-width: 1px; stroke: black;"></polygon><polygon id="SvgjsPolygon5046" points="681,6, 690,6, 690,-1, 696,10, 696,29, 690,41, 690,33, 681,33" fill="#516cd7" stroke="#000000" stroke-width="1" class="arrower-domain" idx="1"></polygon><polygon id="SvgjsPolygon5047" points="702,6, 740,6, 740,-1, 753,20, 740,41, 740,33, 702,33" fill="white" stroke="#000000" stroke-width="1" class="arrower-orf" idx="14"></polygon><polygon id="SvgjsPolygon5048" points="704,6, 735,6, 735,6, 735,20, 735,20, 735,33, 735,33, 704,33" fill="#c1e04a" stroke="#000000" stroke-width="1" class="arrower-domain" idx="0"></polygon><polygon id="SvgjsPolygon5049" points="757,6, 787,6, 787,-1, 797,20, 787,41, 787,33, 757,33" fill="white" stroke="#000000" stroke-width="1" class="arrower-orf" idx="15"></polygon><polygon id="SvgjsPolygon5050" points="759,6, 787,6, 787,-1, 796,17, 796,22, 787,41, 787,33, 759,33" fill="#6e67d2" stroke="#000000" stroke-width="1" class="arrower-domain" idx="0"></polygon><polygon id="SvgjsPolygon5051" points="798,6, 817,6, 817,-1, 824,20, 817,41, 817,33, 798,33" fill="white" stroke="#000000" stroke-width="1" class="arrower-orf" idx="16"></polygon><polygon id="SvgjsPolygon5052" points="801,6, 817,6, 817,-1, 822,13, 822,26, 817,41, 817,33, 801,33" fill="#6bc83e" stroke="#000000" stroke-width="1" class="arrower-domain" idx="0"></polygon><polygon id="SvgjsPolygon5053" points="833,6, 833,6, 833,-1, 852,20, 833,41, 833,33, 833,33" fill="white" stroke="#000000" stroke-width="1" class="arrower-orf" idx="17"></polygon><polygon id="SvgjsPolygon5054" points="833,6, 833,6, 833,-1, 849,16, 849,23, 833,41, 833,33, 833,33" fill="#5db24a" stroke="#000000" stroke-width="1" class="arrower-domain" idx="0"></polygon></g></g></svg>