<svg id="det_fam_tree" width="1215.4148552700008" height="186.74231619230943" version="1.1" baseprofile="full" xmlns="http://www.w3.org/2000/svg" xmlns:xlink="http://www.w3.org/1999/xlink" xmlns:ev="http://www.w3.org/2001/xml-events"><g transform="translate(5,25) scale(1.08)"><path vector-effect="non-scaling-stroke" stroke-linecap="square" style="stroke:black;stroke-width:1;" d="M 400 0 400 40"></path><path vector-effect="non-scaling-stroke" stroke-linecap="square" style="stroke:black;stroke-width:1;" stroke-dasharray="1,10" d="M 400 0 500 0"></path><g id="SvgjsG1116" class="arrower-bgc" transform="translate(510,-10) scale(0.5)" idx="2"><line id="SvgjsLine1117" x1="0" y1="20" x2="1048" y2="20" stroke="#000000" stroke-width="1" class="arrower-line"></line><text id="SvgjsText1118" font-family="Helvetica, Arial, sans-serif" class="arrower-label" font-size="20" size="20" y="-34.26666657129924"><tspan id="SvgjsTspan1119" dy="26" x="0">Halobacillus_andaensis_OCO35-Chr1.prokka-c00001_gnl_CIA...region005: Halobacillus andaensis strain strain</tspan></text><polygon id="SvgjsPolygon1124" points="48,6, 26,6, 26,-1, 18,20, 26,41, 26,33, 48,33" fill="white" stroke="#000000" stroke-width="1" class="arrower-orf" idx="0"></polygon><polygon id="SvgjsPolygon1125" points="76,6, 55,6, 55,-1, 48,20, 55,41, 55,33, 76,33" fill="white" stroke="#000000" stroke-width="1" class="arrower-orf" idx="1"></polygon><polygon id="SvgjsPolygon1126" points="88,6, 112,6, 112,-1, 120,20, 112,41, 112,33, 88,33" fill="white" stroke="#000000" stroke-width="1" class="arrower-orf" idx="2"></polygon><polygon id="SvgjsPolygon1127" points="89,6, 104,6, 104,6, 104,20, 104,20, 104,33, 104,33, 89,33" fill="#56b497" stroke="#000000" stroke-width="1" class="arrower-domain" idx="0"></polygon><polygon id="SvgjsPolygon1128" points="121,6, 152,6, 152,-1, 163,20, 152,41, 152,33, 121,33" fill="white" stroke="#000000" stroke-width="1" class="arrower-orf" idx="3"></polygon><polygon id="SvgjsPolygon1129" points="121,6, 150,6, 150,6, 150,20, 150,20, 150,33, 150,33, 121,33" fill="#64d4cc" stroke="#000000" stroke-width="1" class="arrower-domain" idx="0"></polygon><polygon id="SvgjsPolygon1130" points="212,6, 177,6, 177,-1, 165,20, 177,41, 177,33, 212,33" fill="white" stroke="#000000" stroke-width="1" class="arrower-orf" idx="4"></polygon><polygon id="SvgjsPolygon1131" points="211,6, 177,6, 177,-1, 171,9, 171,30, 177,41, 177,33, 211,33" fill="#c1e04a" stroke="#000000" stroke-width="1" class="arrower-domain" idx="0"></polygon><polygon id="SvgjsPolygon1132" points="267,6, 248,6, 248,-1, 241,20, 248,41, 248,33, 267,33" fill="white" stroke="#000000" stroke-width="1" class="arrower-orf" idx="5" style="stroke-width: 1px; stroke: black;"></polygon><polygon id="SvgjsPolygon1133" points="352,6, 299,6, 299,-1, 281,20, 299,41, 299,33, 352,33" fill="white" stroke="#000000" stroke-width="1" class="arrower-orf" idx="6"></polygon><polygon id="SvgjsPolygon1134" points="308,6, 299,6, 299,-1, 290,9, 290,30, 299,41, 299,33, 308,33" fill="#81c93f" stroke="#000000" stroke-width="1" class="arrower-domain" idx="0"></polygon><polygon id="SvgjsPolygon1135" points="350,6, 316,6, 316,6, 316,20, 316,20, 316,33, 316,33, 350,33" fill="#95e249" stroke="#000000" stroke-width="1" class="arrower-domain" idx="1" style="stroke-width: 1px; stroke: black;"></polygon><polygon id="SvgjsPolygon1136" points="400,6, 365,6, 365,-1, 354,20, 365,41, 365,33, 400,33" fill="white" stroke="#000000" stroke-width="1" class="arrower-orf" idx="7" style="stroke-width: 1px; stroke: black;"></polygon><polygon id="SvgjsPolygon1137" points="396,6, 366,6, 366,6, 366,20, 366,20, 366,33, 366,33, 396,33" fill="#bf894a" stroke="#000000" stroke-width="1" class="arrower-domain" idx="0" style="stroke-width: 1px; stroke: black;"></polygon><polygon id="SvgjsPolygon1138" points="418,6, 418,6, 418,-1, 400,20, 418,41, 418,33, 418,33" fill="white" stroke="#000000" stroke-width="1" class="arrower-orf" idx="8"></polygon><polygon id="SvgjsPolygon1139" points="416,1, 416,1, 416,1, 402,17, 402,22, 416,38, 416,38, 416,38" fill="#3f6fb3" stroke="#000000" stroke-width="1" class="arrower-domain" idx="0"></polygon><polygon id="SvgjsPolygon1140" points="467,6, 438,6, 438,-1, 429,20, 438,41, 438,33, 467,33" fill="white" stroke="#000000" stroke-width="1" class="arrower-orf" idx="9" style="stroke-width: 1px; stroke: black;"></polygon><polygon id="SvgjsPolygon1141" points="454,6, 446,6, 446,6, 446,20, 446,20, 446,33, 446,33, 454,33" fill="#5c36cd" stroke="#000000" stroke-width="1" class="arrower-domain" idx="0"></polygon><polygon id="SvgjsPolygon1142" points="477,6, 477,6, 477,-1, 471,20, 477,41, 477,33, 477,33" fill="white" stroke="#000000" stroke-width="1" class="arrower-orf" idx="10"></polygon><polygon id="SvgjsPolygon1143" points="555,6, 497,6, 497,-1, 477,20, 497,41, 497,33, 555,33" fill="white" stroke="#000000" stroke-width="1" class="arrower-orf" idx="11"></polygon><polygon id="SvgjsPolygon1144" points="526,6, 497,6, 497,-1, 488,8, 488,31, 497,41, 497,33, 526,33" fill="#61c9b0" stroke="#000000" stroke-width="1" class="arrower-domain" idx="0" style="stroke-width: 1px; stroke: black;"></polygon><polygon id="SvgjsPolygon1145" points="549,6, 535,6, 535,6, 535,20, 535,20, 535,33, 535,33, 549,33" fill="#c83f39" stroke="#000000" stroke-width="1" class="arrower-domain" idx="1"></polygon><polygon id="SvgjsPolygon1146" points="566,6, 566,6, 566,-1, 561,20, 566,41, 566,33, 566,33" fill="white" stroke="#000000" stroke-width="1" class="arrower-orf" idx="12"></polygon><polygon id="SvgjsPolygon1147" points="647,6, 586,6, 586,-1, 566,20, 586,41, 586,33, 647,33" fill="white" stroke="#000000" stroke-width="1" class="arrower-orf" idx="13"></polygon><polygon id="SvgjsPolygon1148" points="614,6, 586,6, 586,-1, 571,14, 571,25, 586,41, 586,33, 614,33" fill="#61c9b0" stroke="#000000" stroke-width="1" class="arrower-domain" idx="0"></polygon><polygon id="SvgjsPolygon1149" points="638,6, 624,6, 624,6, 624,20, 624,20, 624,33, 624,33, 638,33" fill="#c83f39" stroke="#000000" stroke-width="1" class="arrower-domain" idx="1"></polygon><polygon id="SvgjsPolygon1150" points="689,6, 663,6, 663,-1, 654,20, 663,41, 663,33, 689,33" fill="white" stroke="#000000" stroke-width="1" class="arrower-orf" idx="14"></polygon><polygon id="SvgjsPolygon1151" points="758,6, 706,6, 706,-1, 688,20, 706,41, 706,33, 758,33" fill="white" stroke="#000000" stroke-width="1" class="arrower-orf" idx="15"></polygon><polygon id="SvgjsPolygon1152" points="795,6, 768,6, 768,-1, 759,20, 768,41, 768,33, 795,33" fill="white" stroke="#000000" stroke-width="1" class="arrower-orf" idx="16"></polygon><polygon id="SvgjsPolygon1153" points="787,6, 779,6, 779,6, 779,20, 779,20, 779,33, 779,33, 787,33" fill="#cb4687" stroke="#000000" stroke-width="1" class="arrower-domain" idx="0"></polygon><polygon id="SvgjsPolygon1154" points="853,6, 817,6, 817,-1, 805,20, 817,41, 817,33, 853,33" fill="white" stroke="#000000" stroke-width="1" class="arrower-orf" idx="17"></polygon><polygon id="SvgjsPolygon1155" points="926,6, 873,6, 873,-1, 855,20, 873,41, 873,33, 926,33" fill="white" stroke="#000000" stroke-width="1" class="arrower-orf" idx="18"></polygon><polygon id="SvgjsPolygon1156" points="881,6, 873,6, 873,-1, 863,10, 863,29, 873,41, 873,33, 881,33" fill="#81c93f" stroke="#000000" stroke-width="1" class="arrower-domain" idx="0"></polygon><polygon id="SvgjsPolygon1157" points="920,6, 891,6, 891,6, 891,20, 891,20, 891,33, 891,33, 920,33" fill="#95e249" stroke="#000000" stroke-width="1" class="arrower-domain" idx="1"></polygon><polygon id="SvgjsPolygon1158" points="968,6, 937,6, 937,-1, 927,20, 937,41, 937,33, 968,33" fill="white" stroke="#000000" stroke-width="1" class="arrower-orf" idx="19"></polygon><polygon id="SvgjsPolygon1159" points="968,6, 947,6, 947,6, 947,20, 947,20, 947,33, 947,33, 968,33" fill="#e07a60" stroke="#000000" stroke-width="1" class="arrower-domain" idx="0"></polygon><polygon id="SvgjsPolygon1160" points="1014,6, 981,6, 981,-1, 969,20, 981,41, 981,33, 1014,33" fill="white" stroke="#000000" stroke-width="1" class="arrower-orf" idx="20"></polygon><polygon id="SvgjsPolygon1161" points="1013,6, 981,6, 981,-1, 978,4, 978,36, 981,41, 981,33, 1013,33" fill="#d35dd5" stroke="#000000" stroke-width="1" class="arrower-domain" idx="0"></polygon></g><path vector-effect="non-scaling-stroke" stroke-linecap="square" style="stroke:black;stroke-width:1;" stroke-dasharray="1,10" d="M 400 40 500 40"></path><g id="SvgjsG2751" class="arrower-bgc" transform="translate(510,30) scale(0.5)" idx="35"><line id="SvgjsLine2752" x1="0" y1="20" x2="1042" y2="20" stroke="#000000" stroke-width="1" class="arrower-line"></line><text id="SvgjsText2753" font-family="Helvetica, Arial, sans-serif" class="arrower-label" font-size="20" size="20" y="-34.26666657129924" font-weight="bold" fill="red"><tspan id="SvgjsTspan2754" dy="26" x="0">Halobacillus_sp._GCF_024189315.prokka-c00009_NZ_JAIZ...region002: Halobacillus sp. strain strain</tspan></text><polygon id="SvgjsPolygon2759" points="46,6, 24,6, 24,-1, 16,20, 24,41, 24,33, 46,33" fill="white" stroke="#000000" stroke-width="1" class="arrower-orf" idx="0"></polygon><polygon id="SvgjsPolygon2760" points="74,6, 53,6, 53,-1, 46,20, 53,41, 53,33, 74,33" fill="white" stroke="#000000" stroke-width="1" class="arrower-orf" idx="1"></polygon><polygon id="SvgjsPolygon2761" points="90,6, 90,6, 90,-1, 102,20, 90,41, 90,33, 90,33" fill="white" stroke="#000000" stroke-width="1" class="arrower-orf" idx="2"></polygon><polygon id="SvgjsPolygon2762" points="111,6, 135,6, 135,-1, 143,20, 135,41, 135,33, 111,33" fill="white" stroke="#000000" stroke-width="1" class="arrower-orf" idx="3"></polygon><polygon id="SvgjsPolygon2763" points="112,6, 127,6, 127,6, 127,20, 127,20, 127,33, 127,33, 112,33" fill="#56b497" stroke="#000000" stroke-width="1" class="arrower-domain" idx="0"></polygon><polygon id="SvgjsPolygon2764" points="144,6, 175,6, 175,-1, 186,20, 175,41, 175,33, 144,33" fill="white" stroke="#000000" stroke-width="1" class="arrower-orf" idx="4"></polygon><polygon id="SvgjsPolygon2765" points="144,6, 173,6, 173,6, 173,20, 173,20, 173,33, 173,33, 144,33" fill="#64d4cc" stroke="#000000" stroke-width="1" class="arrower-domain" idx="0"></polygon><polygon id="SvgjsPolygon2766" points="235,6, 200,6, 200,-1, 188,20, 200,41, 200,33, 235,33" fill="white" stroke="#000000" stroke-width="1" class="arrower-orf" idx="5"></polygon><polygon id="SvgjsPolygon2767" points="234,6, 200,6, 200,-1, 194,9, 194,30, 200,41, 200,33, 234,33" fill="#c1e04a" stroke="#000000" stroke-width="1" class="arrower-domain" idx="0"></polygon><polygon id="SvgjsPolygon2768" points="280,6, 251,6, 251,-1, 241,20, 251,41, 251,33, 280,33" fill="white" stroke="#000000" stroke-width="1" class="arrower-orf" idx="6"></polygon><polygon id="SvgjsPolygon2769" points="275,6, 251,6, 251,-1, 250,0, 250,39, 251,41, 251,33, 275,33" fill="#b5c53a" stroke="#000000" stroke-width="1" class="arrower-domain" idx="0"></polygon><polygon id="SvgjsPolygon2770" points="352,6, 299,6, 299,-1, 281,20, 299,41, 299,33, 352,33" fill="white" stroke="#000000" stroke-width="1" class="arrower-orf" idx="7"></polygon><polygon id="SvgjsPolygon2771" points="308,6, 299,6, 299,-1, 290,9, 290,30, 299,41, 299,33, 308,33" fill="#81c93f" stroke="#000000" stroke-width="1" class="arrower-domain" idx="0"></polygon><polygon id="SvgjsPolygon2772" points="350,6, 316,6, 316,6, 316,20, 316,20, 316,33, 316,33, 350,33" fill="#95e249" stroke="#000000" stroke-width="1" class="arrower-domain" idx="1"></polygon><polygon id="SvgjsPolygon2773" points="400,6, 365,6, 365,-1, 354,20, 365,41, 365,33, 400,33" fill="white" stroke="#000000" stroke-width="1" class="arrower-orf" idx="8"></polygon><polygon id="SvgjsPolygon2774" points="396,6, 366,6, 366,6, 366,20, 366,20, 366,33, 366,33, 396,33" fill="#bf894a" stroke="#000000" stroke-width="1" class="arrower-domain" idx="0"></polygon><polygon id="SvgjsPolygon2775" points="418,6, 418,6, 418,-1, 400,20, 418,41, 418,33, 418,33" fill="white" stroke="#000000" stroke-width="1" class="arrower-orf" idx="9"></polygon><polygon id="SvgjsPolygon2776" points="416,1, 416,1, 416,1, 402,17, 402,22, 416,38, 416,38, 416,38" fill="#3f6fb3" stroke="#000000" stroke-width="1" class="arrower-domain" idx="0"></polygon><polygon id="SvgjsPolygon2777" points="467,6, 438,6, 438,-1, 429,20, 438,41, 438,33, 467,33" fill="white" stroke="#000000" stroke-width="1" class="arrower-orf" idx="10"></polygon><polygon id="SvgjsPolygon2778" points="477,6, 477,6, 477,-1, 471,20, 477,41, 477,33, 477,33" fill="white" stroke="#000000" stroke-width="1" class="arrower-orf" idx="11"></polygon><polygon id="SvgjsPolygon2779" points="555,6, 497,6, 497,-1, 477,20, 497,41, 497,33, 555,33" fill="white" stroke="#000000" stroke-width="1" class="arrower-orf" idx="12"></polygon><polygon id="SvgjsPolygon2780" points="526,6, 497,6, 497,-1, 481,15, 481,24, 497,41, 497,33, 526,33" fill="#61c9b0" stroke="#000000" stroke-width="1" class="arrower-domain" idx="0"></polygon><polygon id="SvgjsPolygon2781" points="549,6, 535,6, 535,6, 535,20, 535,20, 535,33, 535,33, 549,33" fill="#c83f39" stroke="#000000" stroke-width="1" class="arrower-domain" idx="1"></polygon><polygon id="SvgjsPolygon2782" points="564,6, 564,6, 564,-1, 559,20, 564,41, 564,33, 564,33" fill="white" stroke="#000000" stroke-width="1" class="arrower-orf" idx="13"></polygon><polygon id="SvgjsPolygon2783" points="641,6, 583,6, 583,-1, 564,20, 583,41, 583,33, 641,33" fill="white" stroke="#000000" stroke-width="1" class="arrower-orf" idx="14" style="stroke-width: 1px; stroke: black;"></polygon><polygon id="SvgjsPolygon2784" points="612,6, 583,6, 583,-1, 567,16, 567,23, 583,41, 583,33, 612,33" fill="#61c9b0" stroke="#000000" stroke-width="1" class="arrower-domain" idx="0" style="stroke-width: 1px; stroke: black;"></polygon><polygon id="SvgjsPolygon2785" points="636,6, 621,6, 621,6, 621,20, 621,20, 621,33, 621,33, 636,33" fill="#c83f39" stroke="#000000" stroke-width="1" class="arrower-domain" idx="1"></polygon><polygon id="SvgjsPolygon2786" points="757,6, 673,6, 673,-1, 653,20, 673,41, 673,33, 757,33" fill="white" stroke="#000000" stroke-width="1" class="arrower-orf" idx="15"></polygon><polygon id="SvgjsPolygon2787" points="793,6, 766,6, 766,-1, 757,20, 766,41, 766,33, 793,33" fill="white" stroke="#000000" stroke-width="1" class="arrower-orf" idx="16"></polygon><polygon id="SvgjsPolygon2788" points="785,6, 777,6, 777,6, 777,20, 777,20, 777,33, 777,33, 785,33" fill="#cb4687" stroke="#000000" stroke-width="1" class="arrower-domain" idx="0"></polygon><polygon id="SvgjsPolygon2789" points="873,6, 820,6, 820,-1, 802,20, 820,41, 820,33, 873,33" fill="white" stroke="#000000" stroke-width="1" class="arrower-orf" idx="17"></polygon><polygon id="SvgjsPolygon2790" points="828,6, 820,6, 820,-1, 810,10, 810,29, 820,41, 820,33, 828,33" fill="#81c93f" stroke="#000000" stroke-width="1" class="arrower-domain" idx="0"></polygon><polygon id="SvgjsPolygon2791" points="869,6, 837,6, 837,6, 837,20, 837,20, 837,33, 837,33, 869,33" fill="#95e249" stroke="#000000" stroke-width="1" class="arrower-domain" idx="1"></polygon><polygon id="SvgjsPolygon2792" points="915,6, 884,6, 884,-1, 874,20, 884,41, 884,33, 915,33" fill="white" stroke="#000000" stroke-width="1" class="arrower-orf" idx="18"></polygon><polygon id="SvgjsPolygon2793" points="915,6, 894,6, 894,6, 894,20, 894,20, 894,33, 894,33, 915,33" fill="#e07a60" stroke="#000000" stroke-width="1" class="arrower-domain" idx="0"></polygon><polygon id="SvgjsPolygon2794" points="964,6, 930,6, 930,-1, 919,20, 930,41, 930,33, 964,33" fill="white" stroke="#000000" stroke-width="1" class="arrower-orf" idx="19"></polygon><polygon id="SvgjsPolygon2795" points="938,6, 930,6, 930,-1, 919,20, 919,20, 930,41, 930,33, 938,33" fill="#e45c96" stroke="#000000" stroke-width="1" class="arrower-domain" idx="0"></polygon><polygon id="SvgjsPolygon2796" points="1007,6, 976,6, 976,-1, 966,20, 976,41, 976,33, 1007,33" fill="white" stroke="#000000" stroke-width="1" class="arrower-orf" idx="20"></polygon><polygon id="SvgjsPolygon2797" points="1007,6, 976,6, 976,-1, 973,5, 973,34, 976,41, 976,33, 1007,33" fill="#d35dd5" stroke="#000000" stroke-width="1" class="arrower-domain" idx="0"></polygon></g></g></svg>