<svg version="1.1" baseProfile="full" xmlns="http://www.w3.org/2000/svg" width="988.6333333333333" height="80">
	<g>
		<line x1="10" y1="40.0" x2="978.6333333333333" y2="40.0" style="stroke:rgb(70,70,70); stroke-width:3 "/>
		<g>
			<title>yocH_1 (OPNKNPOB_00572)
Cell wall-binding protein YocH</title>
			<polygon class="yocH_1 (OPNKNPOB_00572)
Cell wall-binding protein YocH" points="23,10 50,40 23,70" fill="rgb(255,255,255)" fill-opacity="1.0" stroke="rgb(0,0,0)" stroke-width="2"  />
			<g>
				<title>LysM (PF01476)
"LysM domain"</title>
				<rect class="PF01476" x="25" y="28" stroke-linejoin="round" width="4" height="24" fill="rgb(200,86,203)" stroke="rgb(160,68,162)" stroke-width="1" opacity="0.75" />
			</g>
			<g>
				<title>LysM (PF01476)
"LysM domain"</title>
				<rect class="PF01476" x="30" y="28" stroke-linejoin="round" width="4" height="24" fill="rgb(200,86,203)" stroke="rgb(160,68,162)" stroke-width="1" opacity="0.75" />
			</g>
			<g>
				<title>3D (PF06725)
"3D domain"</title>
				<polygon class="PF06725" points="44,37 46,40 44,43" stroke-linejoin="round" width="6" height="24" fill="rgb(78,200,107)" stroke="rgb(62,160,85)" stroke-width="1" opacity="0.75" />
			</g>
		</g>
		<g>
			<title> (OPNKNPOB_00573)
hypothetical protein</title>
			<polygon class=" (OPNKNPOB_00573)
hypothetical protein" points="56,10 74,40 56,70" fill="rgb(255,255,255)" fill-opacity="1.0" stroke="rgb(0,0,0)" stroke-width="2"  />
			<g>
				<title>PRK (PF00485)
"Phosphoribulokinase / Uridine kinase family"</title>
				<polygon class="PF00485" points="60,28 63,28 70,40 63,52 60,52" stroke-linejoin="round" width="11" height="24" fill="rgb(176,220,102)" stroke="rgb(140,176,81)" stroke-width="1" opacity="0.75" />
			</g>
		</g>
		<g>
			<title> (OPNKNPOB_00574)
hypothetical protein</title>
			<polygon class=" (OPNKNPOB_00574)
hypothetical protein" points="78,10 90,40 78,70" fill="rgb(255,255,255)" fill-opacity="1.0" stroke="rgb(0,0,0)" stroke-width="2"  />
			<g>
				<title>RTP (PF02334)
"Replication terminator protein"</title>
				<polygon class="PF02334" points="78,28 82,28 87,40 82,52 78,52" stroke-linejoin="round" width="11" height="24" fill="rgb(170,189,64)" stroke="rgb(136,151,51)" stroke-width="1" opacity="0.75" />
			</g>
		</g>
		<g>
			<title> (OPNKNPOB_00575)
hypothetical protein</title>
			<polygon class=" (OPNKNPOB_00575)
hypothetical protein" points="92,25 95,25 95,10 125,40 95,70 95,55 92,55" fill="rgb(255,255,255)" fill-opacity="1.0" stroke="rgb(0,0,0)" stroke-width="2"  />
			<g>
				<title>Bac_luciferase (PF00296)
"Luciferase-like monooxygenase"</title>
				<polygon class="PF00296" points="92,28 109,28 121,40 109,52 92,52" stroke-linejoin="round" width="30" height="24" fill="rgb(180,112,78)" stroke="rgb(144,89,62)" stroke-width="1" opacity="0.75" />
			</g>
		</g>
		<g>
			<title>cvfB (OPNKNPOB_00576)
Conserved virulence factor B</title>
			<polygon class="cvfB (OPNKNPOB_00576)
Conserved virulence factor B" points="126,10 154,40 126,70" fill="rgb(255,255,255)" fill-opacity="1.0" stroke="rgb(0,0,0)" stroke-width="2"  />
			<g>
				<title>S1_2 (PF13509)
"S1 domain"</title>
				<rect class="PF13509" x="126" y="28" stroke-linejoin="round" width="5" height="24" fill="rgb(62,185,141)" stroke="rgb(49,148,112)" stroke-width="1" opacity="0.75" />
			</g>
			<g>
				<title>CvfB_WH (PF17783)
"CvfB-like winged helix domain"</title>
				<polygon class="PF17783" points="148,38 150,40 148,42" stroke-linejoin="round" width="5" height="24" fill="rgb(199,98,56)" stroke="rgb(159,78,44)" stroke-width="1" opacity="0.75" />
			</g>
		</g>
		<g>
			<title>ymfD (OPNKNPOB_00577)
Bacillibactin exporter</title>
			<polygon class="ymfD (OPNKNPOB_00577)
Bacillibactin exporter" points="159,25 170,25 170,10 200,40 170,70 170,55 159,55" fill="rgb(255,255,255)" fill-opacity="1.0" stroke="rgb(0,0,0)" stroke-width="2"  />
			<g>
				<title>MFS_1 (PF07690)
"Major Facilitator Superfamily"</title>
				<polygon class="PF07690" points="160,28 184,28 189,33 189,47 184,52 160,52" stroke-linejoin="round" width="29" height="24" fill="rgb(193,224,74)" stroke="rgb(154,179,59)" stroke-width="1" opacity="0.75" />
			</g>
		</g>
		<g>
			<title> (OPNKNPOB_00578)
hypothetical protein</title>
			<polygon class=" (OPNKNPOB_00578)
hypothetical protein" points="201,40 219,10 219,70" fill="rgb(255,255,255)" fill-opacity="1.0" stroke="rgb(0,0,0)" stroke-width="2"  />
		</g>
		<g>
			<title>mgtA (OPNKNPOB_00579)
GDP-mannose-dependent alpha-mannosyltransferase</title>
			<polygon class="mgtA (OPNKNPOB_00579)
GDP-mannose-dependent alpha-mannosyltransferase" points="293,25 284,25 284,10 254,40 284,70 284,55 293,55" fill="rgb(255,255,255)" fill-opacity="1.0" stroke="rgb(0,0,0)" stroke-width="2"  />
			<g>
				<title>Glycos_transf_1 (PF00534)
"Glycosyl transferases group 1"</title>
				<polygon class="PF00534" points="258,40 270,28 274,28 274,52 270,52 258,40" stroke-linejoin="round" width="16" height="24" fill="rgb(228,92,150)" stroke="rgb(182,73,119)" stroke-width="1" opacity="0.75" />
			</g>
			<g>
				<title>Glyco_transf_4 (PF13439)
"Glycosyltransferase Family 4"</title>
				<rect class="PF13439" x="275" y="28" stroke-linejoin="round" width="16" height="24" fill="rgb(162,57,186)" stroke="rgb(129,45,148)" stroke-width="1" opacity="0.75" />
			</g>
		</g>
		<g>
			<title> (OPNKNPOB_00580)
hypothetical protein</title>
			<polygon class=" (OPNKNPOB_00580)
hypothetical protein" points="332,25 324,25 324,10 294,40 324,70 324,55 332,55" fill="rgb(255,255,255)" fill-opacity="1.0" stroke="rgb(0,0,0)" stroke-width="2"  />
			<g>
				<title>Epimerase (PF01370)
"NAD dependent epimerase/dehydratase family"</title>
				<polygon class="PF01370" points="303,35 310,28 331,28 331,52 310,52 303,45" stroke-linejoin="round" width="28" height="24" fill="rgb(98,102,214)" stroke="rgb(78,81,171)" stroke-width="1" opacity="0.75" />
			</g>
		</g>
		<g>
			<title>acs_1 (OPNKNPOB_00581)
Acetyl-coenzyme A synthetase</title>
			<polygon class="acs_1 (OPNKNPOB_00581)
Acetyl-coenzyme A synthetase" points="343,25 378,25 378,10 408,40 378,70 378,55 343,55" fill="rgb(255,255,255)" fill-opacity="1.0" stroke="rgb(0,0,0)" stroke-width="2"  />
			<g>
				<title>ACAS_N (PF16177)
"Acetyl-coenzyme A synthetase N-terminus"</title>
				<rect class="PF16177" x="346" y="28" stroke-linejoin="round" width="5" height="24" fill="rgb(54,78,195)" stroke="rgb(43,62,156)" stroke-width="1" opacity="0.75" />
			</g>
			<g>
				<title>AMP-binding (PF00501)
"AMP-binding enzyme"</title>
				<polygon class="PF00501" points="352,28 392,28 395,31 395,49 392,52 352,52" stroke-linejoin="round" width="43" height="24" fill="rgb(60,217,223)" stroke="rgb(48,173,178)" stroke-width="1" opacity="0.75" />
			</g>
			<g>
				<title>AMP-binding_C (PF13193)
"AMP-binding enzyme C-terminal domain"</title>
				<polygon class="PF13193" points="396,32 403,39 403,41 396,48" stroke-linejoin="round" width="7" height="24" fill="rgb(182,50,118)" stroke="rgb(145,39,94)" stroke-width="1" opacity="0.75" />
			</g>
		</g>
		<g>
			<title>accD5 (OPNKNPOB_00582)
putative propionyl-CoA carboxylase beta chain 5</title>
			<polygon class="accD5 (OPNKNPOB_00582)
putative propionyl-CoA carboxylase beta chain 5" points="479,25 459,25 459,10 429,40 459,70 459,55 479,55" fill="rgb(255,255,255)" fill-opacity="1.0" stroke="rgb(0,0,0)" stroke-width="2"  />
			<g>
				<title>Carboxyl_trans (PF01039)
"Carboxyl transferase domain"</title>
				<polygon class="PF01039" points="433,40 445,28 477,28 477,52 445,52" stroke-linejoin="round" width="48" height="24" fill="rgb(180,136,60)" stroke="rgb(144,108,48)" stroke-width="1" opacity="0.75" />
			</g>
		</g>
		<g>
			<title>crt (OPNKNPOB_00583)
Short-chain-enoyl-CoA hydratase</title>
			<polygon class="crt (OPNKNPOB_00583)
Short-chain-enoyl-CoA hydratase" points="480,40 505,10 505,70" fill="rgb(255,255,255)" fill-opacity="1.0" stroke="rgb(0,0,0)" stroke-width="2"  />
			<g>
				<title>ECH_1 (PF00378)
"Enoyl-CoA hydratase/isomerase"</title>
				<polygon class="PF00378" points="484,40 494,28 504,28 504,52 494,52" stroke-linejoin="round" width="24" height="24" fill="rgb(218,72,181)" stroke="rgb(174,57,144)" stroke-width="1" opacity="0.75" />
			</g>
		</g>
		<g>
			<title>yngG_1 (OPNKNPOB_00584)
Hydroxymethylglutaryl-CoA lyase YngG</title>
			<polygon class="yngG_1 (OPNKNPOB_00584)
Hydroxymethylglutaryl-CoA lyase YngG" points="536,25 536,25 536,10 506,40 536,70 536,55 536,55" fill="rgb(255,255,255)" fill-opacity="1.0" stroke="rgb(0,0,0)" stroke-width="2"  />
			<g>
				<title>HMGL-like (PF00682)
"HMGL-like"</title>
				<polygon class="PF00682" points="510,40 522,28 535,28 535,52 522,52" stroke-linejoin="round" width="27" height="24" fill="rgb(84,228,141)" stroke="rgb(67,182,112)" stroke-width="1" opacity="0.75" />
			</g>
		</g>
		<g>
			<title>yngHB (OPNKNPOB_00585)
Biotin/lipoyl attachment protein</title>
			<polygon class="yngHB (OPNKNPOB_00585)
Biotin/lipoyl attachment protein" points="537,40 544,10 544,70" fill="rgb(255,255,255)" fill-opacity="1.0" stroke="rgb(0,0,0)" stroke-width="2"  />
			<g>
				<title>Biotin_lipoyl (PF00364)
"Biotin-requiring enzyme"</title>
				<polygon class="PF00364" points="540,40 543,28 543,28 543,52 543,52" stroke-linejoin="round" width="6" height="24" fill="rgb(67,214,213)" stroke="rgb(53,171,170)" stroke-width="1" opacity="0.75" />
			</g>
		</g>
		<g>
			<title>accC_2 (OPNKNPOB_00586)
Biotin carboxylase</title>
			<polygon class="accC_2 (OPNKNPOB_00586)
Biotin carboxylase" points="589,25 574,25 574,10 544,40 574,70 574,55 589,55" fill="rgb(255,255,255)" fill-opacity="1.0" stroke="rgb(0,0,0)" stroke-width="2"  />
			<g>
				<title>Biotin_carb_C (PF02785)
"Biotin carboxylase C-terminal domain"</title>
				<polygon class="PF02785" points="548,40 555,33 555,47" stroke-linejoin="round" width="10" height="24" fill="rgb(82,186,211)" stroke="rgb(65,148,168)" stroke-width="1" opacity="0.75" />
			</g>
			<g>
				<title>CPSase_L_D2 (PF02786)
"Carbamoyl-phosphate synthase L chain, ATP binding domain"</title>
				<polygon class="PF02786" points="556,32 560,28 576,28 576,52 560,52 556,48" stroke-linejoin="round" width="20" height="24" fill="rgb(190,97,205)" stroke="rgb(151,77,164)" stroke-width="1" opacity="0.75" />
			</g>
			<g>
				<title>Biotin_carb_N (PF00289)
"Biotin carboxylase, N-terminal domain"</title>
				<rect class="PF00289" x="578" y="28" stroke-linejoin="round" width="10" height="24" fill="rgb(59,114,187)" stroke="rgb(47,91,149)" stroke-width="1" opacity="0.75" />
			</g>
		</g>
		<g>
			<title>fadD3 (OPNKNPOB_00587)
3-[(3aS,4S,7aS)-7a-methyl-1, 5-dioxo-octahydro-1H-inden-4-yl]propanoyl:CoA ligase</title>
			<polygon class="fadD3 (OPNKNPOB_00587)
3-[(3aS,4S,7aS)-7a-methyl-1, 5-dioxo-octahydro-1H-inden-4-yl]propanoyl:CoA ligase" points="644,25 620,25 620,10 590,40 620,70 620,55 644,55" fill="rgb(255,255,255)" fill-opacity="1.0" stroke="rgb(0,0,0)" stroke-width="2"  />
			<g>
				<title>AMP-binding_C (PF13193)
"AMP-binding enzyme C-terminal domain"</title>
				<polygon class="PF13193" points="594,40 598,36 598,44" stroke-linejoin="round" width="7" height="24" fill="rgb(182,50,118)" stroke="rgb(145,39,94)" stroke-width="1" opacity="0.75" />
			</g>
			<g>
				<title>AMP-binding (PF00501)
"AMP-binding enzyme"</title>
				<polygon class="PF00501" points="600,34 606,28 643,28 643,52 606,52 600,46" stroke-linejoin="round" width="43" height="24" fill="rgb(60,217,223)" stroke="rgb(48,173,178)" stroke-width="1" opacity="0.75" />
			</g>
		</g>
		<g>
			<title>bcd (OPNKNPOB_00588)
Acyl-CoA dehydrogenase, short-chain specific</title>
			<polygon class="bcd (OPNKNPOB_00588)
Acyl-CoA dehydrogenase, short-chain specific" points="683,25 675,25 675,10 645,40 675,70 675,55 683,55" fill="rgb(255,255,255)" fill-opacity="1.0" stroke="rgb(0,0,0)" stroke-width="2"  />
			<g>
				<title>Acyl-CoA_dh_1 (PF00441)
"Acyl-CoA dehydrogenase, C-terminal domain"</title>
				<polygon class="PF00441" points="649,40 659,30 659,50" stroke-linejoin="round" width="14" height="24" fill="rgb(85,191,117)" stroke="rgb(68,152,93)" stroke-width="1" opacity="0.75" />
			</g>
			<g>
				<title>Acyl-CoA_dh_M (PF02770)
"Acyl-CoA dehydrogenase, middle domain"</title>
				<polygon class="PF02770" points="661,28 661,28 670,28 670,52 661,52 661,52" stroke-linejoin="round" width="9" height="24" fill="rgb(225,186,97)" stroke="rgb(180,148,77)" stroke-width="1" opacity="0.75" />
			</g>
			<g>
				<title>Acyl-CoA_dh_N (PF02771)
"Acyl-CoA dehydrogenase, N-terminal domain"</title>
				<rect class="PF02771" x="671" y="28" stroke-linejoin="round" width="11" height="24" fill="rgb(105,135,218)" stroke="rgb(84,108,174)" stroke-width="1" opacity="0.75" />
			</g>
		</g>
		<g>
			<title>kstR2_1 (OPNKNPOB_00589)
HTH-type transcriptional repressor KstR2</title>
			<polygon class="kstR2_1 (OPNKNPOB_00589)
HTH-type transcriptional repressor KstR2" points="686,40 707,10 707,70" fill="rgb(255,255,255)" fill-opacity="1.0" stroke="rgb(0,0,0)" stroke-width="2"  />
			<g>
				<title>TetR_C_24 (PF17932)
"Tetracyclin repressor-like, C-terminal domain"</title>
				<polygon class="PF17932" points="690,40 698,28 699,28 699,52 698,52" stroke-linejoin="round" width="11" height="24" fill="rgb(165,217,107)" stroke="rgb(132,173,85)" stroke-width="1" opacity="0.75" />
			</g>
			<g>
				<title>TetR_N (PF00440)
"Bacterial regulatory proteins, tetR family"</title>
				<rect class="PF00440" x="701" y="28" stroke-linejoin="round" width="4" height="24" fill="rgb(73,212,190)" stroke="rgb(58,169,152)" stroke-width="1" opacity="0.75" />
			</g>
		</g>
		<g>
			<title>parC (OPNKNPOB_00590)
DNA topoisomerase 4 subunit A</title>
			<polygon class="parC (OPNKNPOB_00590)
DNA topoisomerase 4 subunit A" points="792,25 741,25 741,10 711,40 741,70 741,55 792,55" fill="rgb(255,255,255)" fill-opacity="1.0" stroke="rgb(0,0,0)" stroke-width="2"  />
			<g>
				<title>DNA_gyraseA_C (PF03989)
"DNA gyrase C-terminal domain, beta-propeller"</title>
				<polygon class="PF03989" points="717,38 721,34 721,46 717,42" stroke-linejoin="round" width="4" height="24" fill="rgb(52,134,190)" stroke="rgb(41,107,152)" stroke-width="1" opacity="0.75" />
			</g>
			<g>
				<title>DNA_gyraseA_C (PF03989)
"DNA gyrase C-terminal domain, beta-propeller"</title>
				<polygon class="PF03989" points="722,33 726,29 726,51 722,47" stroke-linejoin="round" width="4" height="24" fill="rgb(52,134,190)" stroke="rgb(41,107,152)" stroke-width="1" opacity="0.75" />
			</g>
			<g>
				<title>DNA_gyraseA_C (PF03989)
"DNA gyrase C-terminal domain, beta-propeller"</title>
				<polygon class="PF03989" points="727,28 727,28 731,28 731,52 727,52 727,52" stroke-linejoin="round" width="4" height="24" fill="rgb(52,134,190)" stroke="rgb(41,107,152)" stroke-width="1" opacity="0.75" />
			</g>
			<g>
				<title>DNA_gyraseA_C (PF03989)
"DNA gyrase C-terminal domain, beta-propeller"</title>
				<rect class="PF03989" x="732" y="28" stroke-linejoin="round" width="5" height="24" fill="rgb(52,134,190)" stroke="rgb(41,107,152)" stroke-width="1" opacity="0.75" />
			</g>
			<g>
				<title>DNA_gyraseA_C (PF03989)
"DNA gyrase C-terminal domain, beta-propeller"</title>
				<rect class="PF03989" x="738" y="28" stroke-linejoin="round" width="3" height="24" fill="rgb(52,134,190)" stroke="rgb(41,107,152)" stroke-width="1" opacity="0.75" />
			</g>
			<g>
				<title>DNA_topoisoIV (PF00521)
"DNA gyrase/topoisomerase IV, subunit A"</title>
				<rect class="PF00521" x="745" y="28" stroke-linejoin="round" width="44" height="24" fill="rgb(196,204,77)" stroke="rgb(156,163,61)" stroke-width="1" opacity="0.75" />
			</g>
		</g>
		<g>
			<title>parE (OPNKNPOB_00591)
DNA topoisomerase 4 subunit B</title>
			<polygon class="parE (OPNKNPOB_00591)
DNA topoisomerase 4 subunit B" points="858,25 823,25 823,10 793,40 823,70 823,55 858,55" fill="rgb(255,255,255)" fill-opacity="1.0" stroke="rgb(0,0,0)" stroke-width="2"  />
			<g>
				<title>DNA_gyraseB_C (PF00986)
"DNA gyrase B subunit, carboxyl terminus"</title>
				<polygon class="PF00986" points="797,40 801,36 801,44" stroke-linejoin="round" width="6" height="24" fill="rgb(184,59,116)" stroke="rgb(147,47,92)" stroke-width="1" opacity="0.75" />
			</g>
			<g>
				<title>Toprim (PF01751)
"Toprim domain"</title>
				<polygon class="PF01751" points="804,33 809,28 815,28 815,52 809,52 804,47" stroke-linejoin="round" width="11" height="24" fill="rgb(95,212,145)" stroke="rgb(76,169,116)" stroke-width="1" opacity="0.75" />
			</g>
			<g>
				<title>DNA_gyraseB (PF00204)
"DNA gyrase B"</title>
				<rect class="PF00204" x="818" y="28" stroke-linejoin="round" width="17" height="24" fill="rgb(66,134,179)" stroke="rgb(52,107,143)" stroke-width="1" opacity="0.75" />
			</g>
			<g>
				<title>HATPase_c (PF02518)
"Histidine kinase-, DNA gyrase B-, and HSP90-like ATPase"</title>
				<rect class="PF02518" x="840" y="28" stroke-linejoin="round" width="14" height="24" fill="rgb(80,94,225)" stroke="rgb(64,75,180)" stroke-width="1" opacity="0.75" />
			</g>
		</g>
		<g>
			<title>yccU (OPNKNPOB_00592)
putative protein YccU</title>
			<polygon class="yccU (OPNKNPOB_00592)
putative protein YccU" points="865,40 878,10 878,70" fill="rgb(255,255,255)" fill-opacity="1.0" stroke="rgb(0,0,0)" stroke-width="2"  />
			<g>
				<title>CoA_binding_2 (PF13380)
"CoA binding domain"</title>
				<polygon class="PF13380" points="868,40 873,28 876,28 876,52 873,52" stroke-linejoin="round" width="11" height="24" fill="rgb(212,69,78)" stroke="rgb(169,55,62)" stroke-width="1" opacity="0.75" />
			</g>
		</g>
		<g>
			<title> (OPNKNPOB_00593)
hypothetical protein</title>
			<polygon class=" (OPNKNPOB_00593)
hypothetical protein" points="929,25 909,25 909,10 879,40 909,70 909,55 929,55" fill="rgb(255,255,255)" fill-opacity="1.0" stroke="rgb(0,0,0)" stroke-width="2"  />
			<g>
				<title>OpuAC (PF04069)
"Substrate binding domain of ABC-type glycine betaine transport system"</title>
				<polygon class="PF04069" points="883,40 895,28 905,28 905,52 895,52" stroke-linejoin="round" width="26" height="24" fill="rgb(81,218,80)" stroke="rgb(64,174,64)" stroke-width="1" opacity="0.75" />
			</g>
			<g>
				<title>BPD_transp_1 (PF00528)
"Binding-protein-dependent transport system inner membrane component"</title>
				<rect class="PF00528" x="909" y="28" stroke-linejoin="round" width="17" height="24" fill="rgb(77,208,225)" stroke="rgb(61,166,180)" stroke-width="1" opacity="0.75" />
			</g>
		</g>
		<g>
			<title>btuD_1 (OPNKNPOB_00594)
Vitamin B12 import ATP-binding protein BtuD</title>
			<polygon class="btuD_1 (OPNKNPOB_00594)
Vitamin B12 import ATP-binding protein BtuD" points="965,25 960,25 960,10 930,40 960,70 960,55 965,55" fill="rgb(255,255,255)" fill-opacity="1.0" stroke="rgb(0,0,0)" stroke-width="2"  />
			<g>
				<title>ABC_tran (PF00005)
"ABC transporter"</title>
				<rect class="PF00005" x="949" y="28" stroke-linejoin="round" width="14" height="24" fill="rgb(129,201,63)" stroke="rgb(103,160,50)" stroke-width="1" opacity="0.75" />
			</g>
		</g>
	</g>
</svg>
