<svg version="1.1" baseProfile="full" xmlns="http://www.w3.org/2000/svg" width="639.4333333333333" height="80">
	<g>
		<line x1="10" y1="40.0" x2="629.4333333333333" y2="40.0" style="stroke:rgb(70,70,70); stroke-width:3 "/>
		<g>
			<title> (PDEEBABA_01461)
hypothetical protein</title>
			<polygon class=" (PDEEBABA_01461)
hypothetical protein" points="10,25 28,25 28,10 58,40 28,70 28,55 10,55" fill="rgb(255,255,255)" fill-opacity="1.0" stroke="rgb(0,0,0)" stroke-width="2"  />
			<g>
				<title>Sulfate_transp (PF00916)
"Sulfate permease family"</title>
				<rect class="PF00916" x="11" y="28" stroke-linejoin="round" width="13" height="24" fill="rgb(189,61,212)" stroke="rgb(151,48,169)" stroke-width="1" opacity="0.75" />
			</g>
			<g>
				<title>Sulfate_transp (PF00916)
"Sulfate permease family"</title>
				<polygon class="PF00916" points="24,28 42,28 45,31 45,49 42,52 24,52" stroke-linejoin="round" width="21" height="24" fill="rgb(189,61,212)" stroke="rgb(151,48,169)" stroke-width="1" opacity="0.75" />
			</g>
		</g>
		<g>
			<title> (PDEEBABA_01462)
hypothetical protein</title>
			<polygon class=" (PDEEBABA_01462)
hypothetical protein" points="62,40 71,10 71,70" fill="rgb(255,255,255)" fill-opacity="1.0" stroke="rgb(0,0,0)" stroke-width="2"  />
		</g>
		<g>
			<title>cntI (PDEEBABA_01463)
Pseudopaline exporter CntI</title>
			<polygon class="cntI (PDEEBABA_01463)
Pseudopaline exporter CntI" points="76,10 104,40 76,70" fill="rgb(255,255,255)" fill-opacity="1.0" stroke="rgb(0,0,0)" stroke-width="2"  />
			<g>
				<title>EamA (PF00892)
"EamA-like transporter family"</title>
				<polygon class="PF00892" points="76,28 88,28 89,28 89,52 88,52 76,52" stroke-linejoin="round" width="13" height="24" fill="rgb(105,217,77)" stroke="rgb(84,173,61)" stroke-width="1" opacity="0.75" />
			</g>
			<g>
				<title>EamA (PF00892)
"EamA-like transporter family"</title>
				<polygon class="PF00892" points="90,29 100,40 90,51" stroke-linejoin="round" width="13" height="24" fill="rgb(105,217,77)" stroke="rgb(84,173,61)" stroke-width="1" opacity="0.75" />
			</g>
		</g>
		<g>
			<title> (PDEEBABA_01464)
hypothetical protein</title>
			<polygon class=" (PDEEBABA_01464)
hypothetical protein" points="150,25 140,25 140,10 110,40 140,70 140,55 150,55" fill="rgb(255,255,255)" fill-opacity="1.0" stroke="rgb(0,0,0)" stroke-width="2"  />
			<g>
				<title>CorC_HlyC (PF03471)
"Transporter associated domain"</title>
				<polygon class="PF03471" points="114,40 117,37 117,43" stroke-linejoin="round" width="7" height="24" fill="rgb(60,114,228)" stroke="rgb(47,91,182)" stroke-width="1" opacity="0.75" />
			</g>
			<g>
				<title>CBS (PF00571)
"CBS domain"</title>
				<polygon class="PF00571" points="119,35 124,30 124,50 119,45" stroke-linejoin="round" width="5" height="24" fill="rgb(220,56,105)" stroke="rgb(176,44,84)" stroke-width="1" opacity="0.75" />
			</g>
			<g>
				<title>DUF21 (PF01595)
"Cyclin M transmembrane N-terminal domain"</title>
				<rect class="PF01595" x="132" y="28" stroke-linejoin="round" width="17" height="24" fill="rgb(76,67,187)" stroke="rgb(60,53,149)" stroke-width="1" opacity="0.75" />
			</g>
		</g>
		<g>
			<title>ybiT_2 (PDEEBABA_01465)
putative ABC transporter ATP-binding protein YbiT</title>
			<polygon class="ybiT_2 (PDEEBABA_01465)
putative ABC transporter ATP-binding protein YbiT" points="164,25 185,25 185,10 215,40 185,70 185,55 164,55" fill="rgb(255,255,255)" fill-opacity="1.0" stroke="rgb(0,0,0)" stroke-width="2"  />
			<g>
				<title>ABC_tran (PF00005)
"ABC transporter"</title>
				<rect class="PF00005" x="165" y="28" stroke-linejoin="round" width="17" height="24" fill="rgb(129,201,63)" stroke="rgb(103,160,50)" stroke-width="1" opacity="0.75" />
			</g>
			<g>
				<title>ABC_tran_Xtn (PF12848)
"ABC transporter"</title>
				<rect class="PF12848" x="187" y="28" stroke-linejoin="round" width="8" height="24" fill="rgb(54,177,199)" stroke="rgb(43,141,159)" stroke-width="1" opacity="0.75" />
			</g>
			<g>
				<title>ABC_tran (PF00005)
"ABC transporter"</title>
				<polygon class="PF00005" points="198,28 199,28 210,39 210,41 199,52 198,52" stroke-linejoin="round" width="12" height="24" fill="rgb(129,201,63)" stroke="rgb(103,160,50)" stroke-width="1" opacity="0.75" />
			</g>
		</g>
		<g>
			<title> (PDEEBABA_01466)
hypothetical protein</title>
			<polygon class=" (PDEEBABA_01466)
hypothetical protein" points="223,25 229,25 229,10 259,40 229,70 229,55 223,55" fill="rgb(255,255,255)" fill-opacity="1.0" stroke="rgb(0,0,0)" stroke-width="2"  />
			<g>
				<title>DUF2515 (PF10720)
"Protein of unknown function (DUF2515)"</title>
				<polygon class="PF10720" points="225,28 243,28 255,40 243,52 225,52" stroke-linejoin="round" width="33" height="24" fill="rgb(66,168,216)" stroke="rgb(52,134,172)" stroke-width="1" opacity="0.75" />
			</g>
		</g>
		<g>
			<title> (PDEEBABA_01467)
hypothetical protein</title>
			<polygon class=" (PDEEBABA_01467)
hypothetical protein" points="273,10 285,40 273,70" fill="rgb(255,255,255)" fill-opacity="1.0" stroke="rgb(0,0,0)" stroke-width="2"  />
			<g>
				<title>SET (PF00856)
"SET domain"</title>
				<polygon class="PF00856" points="278,30 282,40 278,50" stroke-linejoin="round" width="6" height="24" fill="rgb(69,182,89)" stroke="rgb(55,145,71)" stroke-width="1" opacity="0.75" />
			</g>
		</g>
		<g>
			<title> (PDEEBABA_01468)
hypothetical protein</title>
			<polygon class=" (PDEEBABA_01468)
hypothetical protein" points="290,10 317,40 290,70" fill="rgb(255,255,255)" fill-opacity="1.0" stroke="rgb(0,0,0)" stroke-width="2"  />
			<g>
				<title>SQS_PSY (PF00494)
"Squalene/phytoene synthase"</title>
				<polygon class="PF00494" points="291,28 301,28 310,37 310,43 301,52 291,52" stroke-linejoin="round" width="19" height="24" fill="rgb(178,91,49)" stroke="rgb(142,72,39)" stroke-width="1" opacity="0.75" />
			</g>
		</g>
		<g>
			<title>opuD_2 (PDEEBABA_01469)
Glycine betaine transporter OpuD</title>
			<polygon class="opuD_2 (PDEEBABA_01469)
Glycine betaine transporter OpuD" points="372,25 352,25 352,10 322,40 352,70 352,55 372,55" fill="rgb(255,255,255)" fill-opacity="1.0" stroke="rgb(0,0,0)" stroke-width="2"  />
			<g>
				<title>BCCT (PF02028)
"BCCT, betaine/carnitine/choline family transporter"</title>
				<polygon class="PF02028" points="326,40 338,28 371,28 371,52 338,52" stroke-linejoin="round" width="48" height="24" fill="rgb(206,109,74)" stroke="rgb(164,87,59)" stroke-width="1" opacity="0.75" />
			</g>
		</g>
		<g>
			<title> (PDEEBABA_01470)
hypothetical protein</title>
			<polygon class=" (PDEEBABA_01470)
hypothetical protein" points="385,40 400,10 400,70" fill="rgb(255,255,255)" fill-opacity="1.0" stroke="rgb(0,0,0)" stroke-width="2"  />
			<g>
				<title>Acetyltransf_1 (PF00583)
"Acetyltransferase (GNAT) family"</title>
				<polygon class="PF00583" points="388,40 394,28 399,28 399,52 394,52" stroke-linejoin="round" width="12" height="24" fill="rgb(121,183,50)" stroke="rgb(96,146,39)" stroke-width="1" opacity="0.75" />
			</g>
		</g>
		<g>
			<title>ddlA (PDEEBABA_01471)
D-alanine--D-alanine ligase A</title>
			<polygon class="ddlA (PDEEBABA_01471)
D-alanine--D-alanine ligase A" points="441,25 435,25 435,10 405,40 435,70 435,55 441,55" fill="rgb(255,255,255)" fill-opacity="1.0" stroke="rgb(0,0,0)" stroke-width="2"  />
			<g>
				<title>Dala_Dala_lig_C (PF07478)
"D-ala D-ala ligase C-terminus"</title>
				<polygon class="PF07478" points="409,40 421,28 426,28 426,52 421,52" stroke-linejoin="round" width="20" height="24" fill="rgb(202,54,160)" stroke="rgb(161,43,127)" stroke-width="1" opacity="0.75" />
			</g>
			<g>
				<title>Dala_Dala_lig_N (PF01820)
"D-ala D-ala ligase N-terminus"</title>
				<rect class="PF01820" x="428" y="28" stroke-linejoin="round" width="12" height="24" fill="rgb(55,160,179)" stroke="rgb(44,127,143)" stroke-width="1" opacity="0.75" />
			</g>
		</g>
		<g>
			<title>selO (PDEEBABA_01472)
Protein adenylyltransferase SelO</title>
			<polygon class="selO (PDEEBABA_01472)
Protein adenylyltransferase SelO" points="496,25 478,25 478,10 448,40 478,70 478,55 496,55" fill="rgb(255,255,255)" fill-opacity="1.0" stroke="rgb(0,0,0)" stroke-width="2"  />
			<g>
				<title>UPF0061 (PF02696)
"Uncharacterized ACR, YdiU/UPF0061 family"</title>
				<polygon class="PF02696" points="452,40 464,28 496,28 496,52 464,52" stroke-linejoin="round" width="45" height="24" fill="rgb(80,146,212)" stroke="rgb(64,116,169)" stroke-width="1" opacity="0.75" />
			</g>
		</g>
		<g>
			<title> (PDEEBABA_01473)
hypothetical protein</title>
			<polygon class=" (PDEEBABA_01473)
hypothetical protein" points="499,40 504,10 504,70" fill="rgb(255,255,255)" fill-opacity="1.0" stroke="rgb(0,0,0)" stroke-width="2"  />
		</g>
		<g>
			<title> (PDEEBABA_01474)
hypothetical protein</title>
			<polygon class=" (PDEEBABA_01474)
hypothetical protein" points="519,40 535,10 535,70" fill="rgb(255,255,255)" fill-opacity="1.0" stroke="rgb(0,0,0)" stroke-width="2"  />
		</g>
		<g>
			<title> (PDEEBABA_01475)
hypothetical protein</title>
			<polygon class=" (PDEEBABA_01475)
hypothetical protein" points="542,40 548,10 548,70" fill="rgb(255,255,255)" fill-opacity="1.0" stroke="rgb(0,0,0)" stroke-width="2"  />
		</g>
		<g>
			<title> (PDEEBABA_01476)
IS1595 family transposase ISSpgl1</title>
			<polygon class=" (PDEEBABA_01476)
IS1595 family transposase ISSpgl1" points="555,40 574,10 574,70" fill="rgb(255,255,255)" fill-opacity="1.0" stroke="rgb(0,0,0)" stroke-width="2"  />
			<g>
				<title>Acetyltransf_3 (PF13302)
"Acetyltransferase (GNAT) domain"</title>
				<polygon class="PF13302" points="559,40 567,28 572,28 572,52 567,52" stroke-linejoin="round" width="14" height="24" fill="rgb(105,146,215)" stroke="rgb(84,116,172)" stroke-width="1" opacity="0.75" />
			</g>
		</g>
		<g>
			<title>expZ (PDEEBABA_01477)
Nucleotide-binding protein ExpZ</title>
			<polygon class="expZ (PDEEBABA_01477)
Nucleotide-binding protein ExpZ" points="628,25 606,25 606,10 576,40 606,70 606,55 628,55" fill="rgb(255,255,255)" fill-opacity="1.0" stroke="rgb(0,0,0)" stroke-width="2"  />
			<g>
				<title>ABC_tran (PF00005)
"ABC transporter"</title>
				<polygon class="PF00005" points="587,33 592,28 599,28 599,52 592,52 587,47" stroke-linejoin="round" width="12" height="24" fill="rgb(129,201,63)" stroke="rgb(103,160,50)" stroke-width="1" opacity="0.75" />
			</g>
			<g>
				<title>ABC_tran (PF00005)
"ABC transporter"</title>
				<rect class="PF00005" x="620" y="28" stroke-linejoin="round" width="6" height="24" fill="rgb(129,201,63)" stroke="rgb(103,160,50)" stroke-width="1" opacity="0.75" />
			</g>
		</g>
	</g>
</svg>
