<svg version="1.1" baseProfile="full" xmlns="http://www.w3.org/2000/svg" width="750.1666666666666" height="80">
	<g>
		<line x1="10" y1="40.0" x2="740.1666666666666" y2="40.0" style="stroke:rgb(70,70,70); stroke-width:3 "/>
		<g>
			<title>yqfL_2 (LDOKHMPG_03003)
Putative pyruvate, phosphate dikinase regulatory protein</title>
			<polygon class="yqfL_2 (LDOKHMPG_03003)
Putative pyruvate, phosphate dikinase regulatory protein" points="83,10 110,40 83,70" fill="rgb(255,255,255)" fill-opacity="1.0" stroke="rgb(0,0,0)" stroke-width="2"  />
			<g>
				<title>Kinase-PPPase (PF03618)
"Kinase/pyrophosphorylase"</title>
				<polygon class="PF03618" points="83,28 94,28 106,40 94,52 83,52" stroke-linejoin="round" width="25" height="24" fill="rgb(140,226,96)" stroke="rgb(112,180,76)" stroke-width="1" opacity="0.75" />
			</g>
		</g>
		<g>
			<title>ppdK (LDOKHMPG_03004)
Pyruvate, phosphate dikinase</title>
			<polygon class="ppdK (LDOKHMPG_03004)
Pyruvate, phosphate dikinase" points="110,25 169,25 169,10 199,40 169,70 169,55 110,55" fill="rgb(255,255,255)" fill-opacity="1.0" stroke="rgb(0,0,0)" stroke-width="2"  />
			<g>
				<title>PPDK_N (PF01326)
"Pyruvate phosphate dikinase, PEP/pyruvate binding domain"</title>
				<rect class="PF01326" x="111" y="28" stroke-linejoin="round" width="28" height="24" fill="rgb(112,180,78)" stroke="rgb(89,144,62)" stroke-width="1" opacity="0.75" />
			</g>
			<g>
				<title>PEP-utilizers (PF00391)
"PEP-utilising enzyme, mobile domain"</title>
				<rect class="PF00391" x="151" y="28" stroke-linejoin="round" width="8" height="24" fill="rgb(206,59,219)" stroke="rgb(164,47,175)" stroke-width="1" opacity="0.75" />
			</g>
			<g>
				<title>PEP-utilizers_C (PF02896)
"PEP-utilising enzyme, TIM barrel domain"</title>
				<polygon class="PF02896" points="161,28 183,28 195,40 183,52 161,52" stroke-linejoin="round" width="36" height="24" fill="rgb(65,113,188)" stroke="rgb(52,90,150)" stroke-width="1" opacity="0.75" />
			</g>
		</g>
		<g>
			<title> (LDOKHMPG_03005)
hypothetical protein</title>
			<polygon class=" (LDOKHMPG_03005)
hypothetical protein" points="204,40 214,10 214,70" fill="rgb(255,255,255)" fill-opacity="1.0" stroke="rgb(0,0,0)" stroke-width="2"  />
		</g>
		<g>
			<title> (LDOKHMPG_03006)
IS256 family transposase IS654</title>
			<polygon class=" (LDOKHMPG_03006)
IS256 family transposase IS654" points="263,25 254,25 254,10 224,40 254,70 254,55 263,55" fill="rgb(255,255,255)" fill-opacity="1.0" stroke="rgb(0,0,0)" stroke-width="2"  />
			<g>
				<title>Transposase_mut (PF00872)
"Transposase, Mutator family"</title>
				<polygon class="PF00872" points="228,40 240,28 263,28 263,52 240,52" stroke-linejoin="round" width="36" height="24" fill="rgb(137,187,62)" stroke="rgb(109,149,49)" stroke-width="1" opacity="0.75" />
			</g>
		</g>
		<g>
			<title> (LDOKHMPG_03007)
hypothetical protein</title>
			<polygon class=" (LDOKHMPG_03007)
hypothetical protein" points="267,40 287,10 287,70" fill="rgb(255,255,255)" fill-opacity="1.0" stroke="rgb(0,0,0)" stroke-width="2"  />
			<g>
				<title>DUF2254 (PF10011)
"Predicted membrane protein (DUF2254)"</title>
				<polygon class="PF10011" points="271,40 279,28 284,28 284,52 279,52" stroke-linejoin="round" width="17" height="24" fill="rgb(78,184,171)" stroke="rgb(62,147,136)" stroke-width="1" opacity="0.75" />
			</g>
		</g>
		<g>
			<title> (LDOKHMPG_03008)
hypothetical protein</title>
			<polygon class=" (LDOKHMPG_03008)
hypothetical protein" points="295,40 301,10 301,70" fill="rgb(255,255,255)" fill-opacity="1.0" stroke="rgb(0,0,0)" stroke-width="2"  />
			<g>
				<title>YjzC (PF14168)
"YjzC-like protein"</title>
				<polygon class="PF14168" points="298,40 300,28 300,28 300,52 300,52" stroke-linejoin="round" width="5" height="24" fill="rgb(96,141,215)" stroke="rgb(76,112,172)" stroke-width="1" opacity="0.75" />
			</g>
		</g>
		<g>
			<title> (LDOKHMPG_03009)
hypothetical protein</title>
			<polygon class=" (LDOKHMPG_03009)
hypothetical protein" points="303,40 308,10 308,70" fill="rgb(255,255,255)" fill-opacity="1.0" stroke="rgb(0,0,0)" stroke-width="2"  />
		</g>
		<g>
			<title> (LDOKHMPG_03010)
hypothetical protein</title>
			<polygon class=" (LDOKHMPG_03010)
hypothetical protein" points="312,40 334,10 334,70" fill="rgb(255,255,255)" fill-opacity="1.0" stroke="rgb(0,0,0)" stroke-width="2"  />
			<g>
				<title>DUF421 (PF04239)
"Protein of unknown function (DUF421)"</title>
				<polygon class="PF04239" points="316,40 324,29 324,51" stroke-linejoin="round" width="11" height="24" fill="rgb(165,197,85)" stroke="rgb(132,157,68)" stroke-width="1" opacity="0.75" />
			</g>
		</g>
		<g>
			<title>sqhC (LDOKHMPG_03011)
Sporulenol synthase</title>
			<polygon class="sqhC (LDOKHMPG_03011)
Sporulenol synthase" points="406,25 373,25 373,10 343,40 373,70 373,55 406,55" fill="rgb(255,255,255)" fill-opacity="1.0" stroke="rgb(0,0,0)" stroke-width="2"  />
			<g>
				<title>SQHop_cyclase_C (PF13243)
"Squalene-hopene cyclase C-terminal domain"</title>
				<polygon class="PF13243" points="347,40 359,28 374,28 374,52 359,52" stroke-linejoin="round" width="31" height="24" fill="rgb(191,58,201)" stroke="rgb(152,46,160)" stroke-width="1" opacity="0.75" />
			</g>
			<g>
				<title>SQHop_cyclase_N (PF13249)
"Squalene-hopene cyclase N-terminal domain"</title>
				<rect class="PF13249" x="376" y="28" stroke-linejoin="round" width="29" height="24" fill="rgb(88,190,89)" stroke="rgb(70,152,71)" stroke-width="1" opacity="0.75" />
			</g>
		</g>
		<g>
			<title> (LDOKHMPG_03012)
hypothetical protein</title>
			<polygon class=" (LDOKHMPG_03012)
hypothetical protein" points="414,10 424,40 414,70" fill="rgb(255,255,255)" fill-opacity="1.0" stroke="rgb(0,0,0)" stroke-width="2"  />
			<g>
				<title>DUF2515 (PF10720)
"Protein of unknown function (DUF2515)"</title>
				<polygon class="PF10720" points="414,28 416,28 421,40 416,52 414,52" stroke-linejoin="round" width="10" height="24" fill="rgb(66,168,216)" stroke="rgb(52,134,172)" stroke-width="1" opacity="0.75" />
			</g>
		</g>
		<g>
			<title> (LDOKHMPG_03013)
hypothetical protein</title>
			<polygon class=" (LDOKHMPG_03013)
hypothetical protein" points="439,10 443,40 439,70" fill="rgb(255,255,255)" fill-opacity="1.0" stroke="rgb(0,0,0)" stroke-width="2"  />
		</g>
		<g>
			<title> (LDOKHMPG_03014)
hypothetical protein</title>
			<polygon class=" (LDOKHMPG_03014)
hypothetical protein" points="445,10 460,40 445,70" fill="rgb(255,255,255)" fill-opacity="1.0" stroke="rgb(0,0,0)" stroke-width="2"  />
		</g>
		<g>
			<title>betA (LDOKHMPG_03015)
Oxygen-dependent choline dehydrogenase</title>
			<polygon class="betA (LDOKHMPG_03015)
Oxygen-dependent choline dehydrogenase" points="524,25 498,25 498,10 468,40 498,70 498,55 524,55" fill="rgb(255,255,255)" fill-opacity="1.0" stroke="rgb(0,0,0)" stroke-width="2"  />
			<g>
				<title>GMC_oxred_C (PF05199)
"GMC oxidoreductase"</title>
				<polygon class="PF05199" points="472,40 484,28 484,28 484,52 484,52" stroke-linejoin="round" width="13" height="24" fill="rgb(186,52,106)" stroke="rgb(148,41,84)" stroke-width="1" opacity="0.75" />
			</g>
			<g>
				<title>GMC_oxred_N (PF00732)
"GMC oxidoreductase"</title>
				<rect class="PF00732" x="494" y="28" stroke-linejoin="round" width="29" height="24" fill="rgb(180,89,214)" stroke="rgb(143,71,171)" stroke-width="1" opacity="0.75" />
			</g>
		</g>
		<g>
			<title>gbsA_3 (LDOKHMPG_03016)
Betaine aldehyde dehydrogenase</title>
			<polygon class="gbsA_3 (LDOKHMPG_03016)
Betaine aldehyde dehydrogenase" points="578,25 559,25 559,10 529,40 559,70 559,55 578,55" fill="rgb(255,255,255)" fill-opacity="1.0" stroke="rgb(0,0,0)" stroke-width="2"  />
			<g>
				<title>Aldedh (PF00171)
"Aldehyde dehydrogenase family"</title>
				<polygon class="PF00171" points="533,40 545,28 576,28 576,52 545,52" stroke-linejoin="round" width="46" height="24" fill="rgb(105,213,139)" stroke="rgb(84,170,111)" stroke-width="1" opacity="0.75" />
			</g>
		</g>
		<g>
			<title>opcR_1 (LDOKHMPG_03017)
HTH-type transcriptional repressor OpcR</title>
			<polygon class="opcR_1 (LDOKHMPG_03017)
HTH-type transcriptional repressor OpcR" points="588,10 606,40 588,70" fill="rgb(255,255,255)" fill-opacity="1.0" stroke="rgb(0,0,0)" stroke-width="2"  />
		</g>
		<g>
			<title> (LDOKHMPG_03018)
hypothetical protein</title>
			<polygon class=" (LDOKHMPG_03018)
hypothetical protein" points="612,10 641,40 612,70" fill="rgb(255,255,255)" fill-opacity="1.0" stroke="rgb(0,0,0)" stroke-width="2"  />
			<g>
				<title>OpuAC (PF04069)
"Substrate binding domain of ABC-type glycine betaine transport system"</title>
				<polygon class="PF04069" points="616,28 625,28 637,40 625,52 616,52" stroke-linejoin="round" width="24" height="24" fill="rgb(81,218,80)" stroke="rgb(64,174,64)" stroke-width="1" opacity="0.75" />
			</g>
		</g>
		<g>
			<title> (LDOKHMPG_03019)
Cytochrome P450(BM-1)</title>
			<polygon class=" (LDOKHMPG_03019)
Cytochrome P450(BM-1)" points="688,25 677,25 677,10 647,40 677,70 677,55 688,55" fill="rgb(255,255,255)" fill-opacity="1.0" stroke="rgb(0,0,0)" stroke-width="2"  />
			<g>
				<title>p450 (PF00067)
"Cytochrome P450"</title>
				<polygon class="PF00067" points="651,40 663,28 687,28 687,52 663,52" stroke-linejoin="round" width="39" height="24" fill="rgb(85,216,107)" stroke="rgb(68,172,85)" stroke-width="1" opacity="0.75" />
			</g>
		</g>
		<g>
			<title> (LDOKHMPG_03020)
hypothetical protein</title>
			<polygon class=" (LDOKHMPG_03020)
hypothetical protein" points="688,40 692,10 692,70" fill="rgb(255,255,255)" fill-opacity="1.0" stroke="rgb(0,0,0)" stroke-width="2"  />
		</g>
		<g>
			<title>fer (LDOKHMPG_03021)
Ferredoxin</title>
			<polygon class="fer (LDOKHMPG_03021)
Ferredoxin" points="693,40 700,10 700,70" fill="rgb(255,255,255)" fill-opacity="1.0" stroke="rgb(0,0,0)" stroke-width="2"  />
			<g>
				<title>Fer4_13 (PF13370)
"4Fe-4S single cluster domain of Ferredoxin I"</title>
				<polygon class="PF13370" points="696,40 699,28 699,28 699,52 699,52" stroke-linejoin="round" width="6" height="24" fill="rgb(220,216,65)" stroke="rgb(176,172,52)" stroke-width="1" opacity="0.75" />
			</g>
		</g>
		<g>
			<title> (LDOKHMPG_03022)
hypothetical protein</title>
			<polygon class=" (LDOKHMPG_03022)
hypothetical protein" points="704,40 724,10 724,70" fill="rgb(255,255,255)" fill-opacity="1.0" stroke="rgb(0,0,0)" stroke-width="2"  />
			<g>
				<title>TetR_N (PF00440)
"Bacterial regulatory proteins, tetR family"</title>
				<rect class="PF00440" x="718" y="28" stroke-linejoin="round" width="4" height="24" fill="rgb(73,212,190)" stroke="rgb(58,169,152)" stroke-width="1" opacity="0.75" />
			</g>
		</g>
	</g>
</svg>
