<svg version="1.1" baseProfile="full" xmlns="http://www.w3.org/2000/svg" width="710.1333333333333" height="80">
	<g>
		<line x1="10" y1="40.0" x2="700.1333333333333" y2="40.0" style="stroke:rgb(70,70,70); stroke-width:3 "/>
		<g>
			<title>fabG_6 (DBLALLCB_02868)
3-oxoacyl-[acyl-carrier-protein] reductase FabG</title>
			<polygon class="fabG_6 (DBLALLCB_02868)
3-oxoacyl-[acyl-carrier-protein] reductase FabG" points="10,40 34,10 34,70" fill="rgb(255,255,255)" fill-opacity="1.0" stroke="rgb(0,0,0)" stroke-width="2"  />
			<g>
				<title>adh_short_C2 (PF13561)
"Enoyl-(Acyl carrier protein) reductase"</title>
				<polygon class="PF13561" points="14,40 24,28 33,28 33,52 24,52" stroke-linejoin="round" width="23" height="24" fill="rgb(73,205,127)" stroke="rgb(58,164,101)" stroke-width="1" opacity="0.75" />
			</g>
		</g>
		<g>
			<title>fabD (DBLALLCB_02869)
Malonyl CoA-acyl carrier protein transacylase</title>
			<polygon class="fabD (DBLALLCB_02869)
Malonyl CoA-acyl carrier protein transacylase" points="65,25 64,25 64,10 34,40 64,70 64,55 65,55" fill="rgb(255,255,255)" fill-opacity="1.0" stroke="rgb(0,0,0)" stroke-width="2"  />
			<g>
				<title>Acyl_transf_1 (PF00698)
"Acyl transferase domain"</title>
				<polygon class="PF00698" points="38,40 50,28 64,28 64,52 50,52" stroke-linejoin="round" width="30" height="24" fill="rgb(59,176,209)" stroke="rgb(47,140,167)" stroke-width="1" opacity="0.75" />
			</g>
		</g>
		<g>
			<title>plsX (DBLALLCB_02870)
Phosphate acyltransferase</title>
			<polygon class="plsX (DBLALLCB_02870)
Phosphate acyltransferase" points="98,25 95,25 95,10 65,40 95,70 95,55 98,55" fill="rgb(255,255,255)" fill-opacity="1.0" stroke="rgb(0,0,0)" stroke-width="2"  />
			<g>
				<title>FA_synthesis (PF02504)
"Fatty acid synthesis protein"</title>
				<polygon class="PF02504" points="69,40 81,28 97,28 97,52 81,52" stroke-linejoin="round" width="31" height="24" fill="rgb(84,77,187)" stroke="rgb(67,61,149)" stroke-width="1" opacity="0.75" />
			</g>
		</g>
		<g>
			<title>fapR (DBLALLCB_02871)
Transcription factor FapR</title>
			<polygon class="fapR (DBLALLCB_02871)
Transcription factor FapR" points="98,40 117,10 117,70" fill="rgb(255,255,255)" fill-opacity="1.0" stroke="rgb(0,0,0)" stroke-width="2"  />
		</g>
		<g>
			<title>ykfA_3 (DBLALLCB_02872)
putative murein peptide carboxypeptidase</title>
			<polygon class="ykfA_3 (DBLALLCB_02872)
putative murein peptide carboxypeptidase" points="152,25 152,25 152,10 122,40 152,70 152,55 152,55" fill="rgb(255,255,255)" fill-opacity="1.0" stroke="rgb(0,0,0)" stroke-width="2"  />
			<g>
				<title>Peptidase_S66C (PF17676)
"LD-carboxypeptidase C-terminal domain"</title>
				<polygon class="PF17676" points="126,40 134,32 134,48" stroke-linejoin="round" width="11" height="24" fill="rgb(72,81,192)" stroke="rgb(57,64,153)" stroke-width="1" opacity="0.75" />
			</g>
			<g>
				<title>Peptidase_S66 (PF02016)
"LD-carboxypeptidase N-terminal domain"</title>
				<rect class="PF02016" x="139" y="28" stroke-linejoin="round" width="11" height="24" fill="rgb(187,63,139)" stroke="rgb(149,50,111)" stroke-width="1" opacity="0.75" />
			</g>
		</g>
		<g>
			<title>recG (DBLALLCB_02873)
ATP-dependent DNA helicase RecG</title>
			<polygon class="recG (DBLALLCB_02873)
ATP-dependent DNA helicase RecG" points="222,25 185,25 185,10 155,40 185,70 185,55 222,55" fill="rgb(255,255,255)" fill-opacity="1.0" stroke="rgb(0,0,0)" stroke-width="2"  />
			<g>
				<title>Helicase_C (PF00271)
"Helicase conserved C-terminal domain"</title>
				<polygon class="PF00271" points="166,33 171,28 178,28 178,52 171,52 166,47" stroke-linejoin="round" width="12" height="24" fill="rgb(104,224,158)" stroke="rgb(83,179,126)" stroke-width="1" opacity="0.75" />
			</g>
			<g>
				<title>DEAD (PF00270)
"DEAD/DEAH box helicase"</title>
				<rect class="PF00270" x="181" y="28" stroke-linejoin="round" width="16" height="24" fill="rgb(195,100,62)" stroke="rgb(156,80,49)" stroke-width="1" opacity="0.75" />
			</g>
			<g>
				<title>RecG_wedge (PF17191)
"RecG wedge domain"</title>
				<rect class="PF17191" x="206" y="28" stroke-linejoin="round" width="15" height="24" fill="rgb(216,134,69)" stroke="rgb(172,107,55)" stroke-width="1" opacity="0.75" />
			</g>
		</g>
		<g>
			<title>sdhA (DBLALLCB_02874)
L-serine dehydratase, alpha chain</title>
			<polygon class="sdhA (DBLALLCB_02874)
L-serine dehydratase, alpha chain" points="224,40 253,10 253,70" fill="rgb(255,255,255)" fill-opacity="1.0" stroke="rgb(0,0,0)" stroke-width="2"  />
			<g>
				<title>SDH_alpha (PF03313)
"Serine dehydratase alpha chain"</title>
				<polygon class="PF03313" points="228,40 240,28 252,28 252,52 240,52" stroke-linejoin="round" width="26" height="24" fill="rgb(104,203,99)" stroke="rgb(83,162,79)" stroke-width="1" opacity="0.75" />
			</g>
		</g>
		<g>
			<title>sdhB (DBLALLCB_02875)
L-serine dehydratase, beta chain</title>
			<polygon class="sdhB (DBLALLCB_02875)
L-serine dehydratase, beta chain" points="254,40 276,10 276,70" fill="rgb(255,255,255)" fill-opacity="1.0" stroke="rgb(0,0,0)" stroke-width="2"  />
			<g>
				<title>SDH_beta (PF03315)
"Serine dehydratase beta chain"</title>
				<polygon class="PF03315" points="267,28 267,28 275,28 275,52 267,52 267,52" stroke-linejoin="round" width="8" height="24" fill="rgb(68,217,124)" stroke="rgb(54,173,99)" stroke-width="1" opacity="0.75" />
			</g>
		</g>
		<g>
			<title> (DBLALLCB_02876)
Nucleobase transporter PlAzg2</title>
			<polygon class=" (DBLALLCB_02876)
Nucleobase transporter PlAzg2" points="283,25 295,25 295,10 325,40 295,70 295,55 283,55" fill="rgb(255,255,255)" fill-opacity="1.0" stroke="rgb(0,0,0)" stroke-width="2"  />
			<g>
				<title>Xan_ur_permease (PF00860)
"Permease family"</title>
				<polygon class="PF00860" points="284,28 309,28 321,40 321,40 309,52 284,52" stroke-linejoin="round" width="37" height="24" fill="rgb(216,88,217)" stroke="rgb(172,70,173)" stroke-width="1" opacity="0.75" />
			</g>
		</g>
		<g>
			<title>sqhC (DBLALLCB_02877)
Sporulenol synthase</title>
			<polygon class="sqhC (DBLALLCB_02877)
Sporulenol synthase" points="396,25 364,25 364,10 334,40 364,70 364,55 396,55" fill="rgb(255,255,255)" fill-opacity="1.0" stroke="rgb(0,0,0)" stroke-width="2"  />
			<g>
				<title>SQHop_cyclase_C (PF13243)
"Squalene-hopene cyclase C-terminal domain"</title>
				<polygon class="PF13243" points="338,40 350,28 365,28 365,52 350,52" stroke-linejoin="round" width="31" height="24" fill="rgb(191,58,201)" stroke="rgb(152,46,160)" stroke-width="1" opacity="0.75" />
			</g>
			<g>
				<title>SQHop_cyclase_N (PF13249)
"Squalene-hopene cyclase N-terminal domain"</title>
				<rect class="PF13249" x="367" y="28" stroke-linejoin="round" width="28" height="24" fill="rgb(88,190,89)" stroke="rgb(70,152,71)" stroke-width="1" opacity="0.75" />
			</g>
		</g>
		<g>
			<title> (DBLALLCB_02878)
hypothetical protein</title>
			<polygon class=" (DBLALLCB_02878)
hypothetical protein" points="399,25 407,25 407,10 437,40 407,70 407,55 399,55" fill="rgb(255,255,255)" fill-opacity="1.0" stroke="rgb(0,0,0)" stroke-width="2"  />
			<g>
				<title>DUF2515 (PF10720)
"Protein of unknown function (DUF2515)"</title>
				<polygon class="PF10720" points="402,28 421,28 433,40 421,52 402,52" stroke-linejoin="round" width="33" height="24" fill="rgb(66,168,216)" stroke="rgb(52,134,172)" stroke-width="1" opacity="0.75" />
			</g>
		</g>
		<g>
			<title> (DBLALLCB_02879)
hypothetical protein</title>
			<polygon class=" (DBLALLCB_02879)
hypothetical protein" points="497,25 472,25 472,10 442,40 472,70 472,55 497,55" fill="rgb(255,255,255)" fill-opacity="1.0" stroke="rgb(0,0,0)" stroke-width="2"  />
			<g>
				<title>Dak1_2 (PF13684)
"Dihydroxyacetone kinase family"</title>
				<polygon class="PF13684" points="446,40 458,28 473,28 473,52 458,52" stroke-linejoin="round" width="31" height="24" fill="rgb(63,212,71)" stroke="rgb(50,169,56)" stroke-width="1" opacity="0.75" />
			</g>
			<g>
				<title>Dak2 (PF02734)
"DAK2 domain"</title>
				<rect class="PF02734" x="477" y="28" stroke-linejoin="round" width="16" height="24" fill="rgb(107,200,62)" stroke="rgb(85,160,49)" stroke-width="1" opacity="0.75" />
			</g>
		</g>
		<g>
			<title> (DBLALLCB_02880)
hypothetical protein</title>
			<polygon class=" (DBLALLCB_02880)
hypothetical protein" points="499,40 511,10 511,70" fill="rgb(255,255,255)" fill-opacity="1.0" stroke="rgb(0,0,0)" stroke-width="2"  />
			<g>
				<title>Asp23 (PF03780)
"Asp23 family, cell envelope-related function"</title>
				<polygon class="PF03780" points="502,40 507,28 509,28 509,52 507,52" stroke-linejoin="round" width="10" height="24" fill="rgb(195,60,141)" stroke="rgb(156,48,112)" stroke-width="1" opacity="0.75" />
			</g>
		</g>
		<g>
			<title>rpmB (DBLALLCB_02881)
50S ribosomal protein L28</title>
			<polygon class="rpmB (DBLALLCB_02881)
50S ribosomal protein L28" points="519,10 525,40 519,70" fill="rgb(255,255,255)" fill-opacity="1.0" stroke="rgb(0,0,0)" stroke-width="2"  />
			<g>
				<title>Ribosomal_L28 (PF00830)
"Ribosomal L28 family"</title>
				<polygon class="PF00830" points="519,28 519,28 522,40 519,52 519,52" stroke-linejoin="round" width="5" height="24" fill="rgb(191,73,161)" stroke="rgb(152,58,128)" stroke-width="1" opacity="0.75" />
			</g>
		</g>
		<g>
			<title>thiN (DBLALLCB_02882)
Thiamine pyrophosphokinase</title>
			<polygon class="thiN (DBLALLCB_02882)
Thiamine pyrophosphokinase" points="531,40 548,10 548,70" fill="rgb(255,255,255)" fill-opacity="1.0" stroke="rgb(0,0,0)" stroke-width="2"  />
			<g>
				<title>TPK_B1_binding (PF04265)
"Thiamin pyrophosphokinase, vitamin B1 binding domain"</title>
				<polygon class="PF04265" points="534,40 538,33 538,47" stroke-linejoin="round" width="6" height="24" fill="rgb(182,83,211)" stroke="rgb(145,66,168)" stroke-width="1" opacity="0.75" />
			</g>
			<g>
				<title>TPK_catalytic (PF04263)
"Thiamin pyrophosphokinase, catalytic domain"</title>
				<polygon class="PF04263" points="539,31 541,28 547,28 547,52 541,52 539,49" stroke-linejoin="round" width="8" height="24" fill="rgb(78,186,106)" stroke="rgb(62,148,84)" stroke-width="1" opacity="0.75" />
			</g>
		</g>
		<g>
			<title>rpe (DBLALLCB_02883)
Ribulose-phosphate 3-epimerase</title>
			<polygon class="rpe (DBLALLCB_02883)
Ribulose-phosphate 3-epimerase" points="555,40 576,10 576,70" fill="rgb(255,255,255)" fill-opacity="1.0" stroke="rgb(0,0,0)" stroke-width="2"  />
			<g>
				<title>Ribul_P_3_epim (PF00834)
"Ribulose-phosphate 3 epimerase family"</title>
				<polygon class="PF00834" points="559,40 568,28 575,28 575,52 568,52" stroke-linejoin="round" width="19" height="24" fill="rgb(51,162,202)" stroke="rgb(40,129,161)" stroke-width="1" opacity="0.75" />
			</g>
		</g>
		<g>
			<title>rsgA_1 (DBLALLCB_02884)
Small ribosomal subunit biogenesis GTPase RsgA</title>
			<polygon class="rsgA_1 (DBLALLCB_02884)
Small ribosomal subunit biogenesis GTPase RsgA" points="577,40 606,10 606,70" fill="rgb(255,255,255)" fill-opacity="1.0" stroke="rgb(0,0,0)" stroke-width="2"  />
			<g>
				<title>RsgA_GTPase (PF03193)
"RsgA GTPase"</title>
				<polygon class="PF03193" points="583,38 593,28 599,28 599,52 593,52 583,42" stroke-linejoin="round" width="16" height="24" fill="rgb(89,182,98)" stroke="rgb(71,145,78)" stroke-width="1" opacity="0.75" />
			</g>
			<g>
				<title>RsgA_N (PF16745)
"RsgA N-terminal domain"</title>
				<rect class="PF16745" x="600" y="28" stroke-linejoin="round" width="5" height="24" fill="rgb(168,198,79)" stroke="rgb(134,158,63)" stroke-width="1" opacity="0.75" />
			</g>
		</g>
		<g>
			<title>prkC (DBLALLCB_02885)
Serine/threonine-protein kinase PrkC</title>
			<polygon class="prkC (DBLALLCB_02885)
Serine/threonine-protein kinase PrkC" points="672,25 637,25 637,10 607,40 637,70 637,55 672,55" fill="rgb(255,255,255)" fill-opacity="1.0" stroke="rgb(0,0,0)" stroke-width="2"  />
			<g>
				<title>PASTA (PF03793)
"PASTA domain"</title>
				<polygon class="PF03793" points="617,34 623,28 623,28 623,52 623,52 617,46" stroke-linejoin="round" width="6" height="24" fill="rgb(84,217,212)" stroke="rgb(67,173,169)" stroke-width="1" opacity="0.75" />
			</g>
			<g>
				<title>PASTA (PF03793)
"PASTA domain"</title>
				<polygon class="PF03793" points="623,28 623,28 629,28 629,52 623,52 623,52" stroke-linejoin="round" width="6" height="24" fill="rgb(84,217,212)" stroke="rgb(67,173,169)" stroke-width="1" opacity="0.75" />
			</g>
			<g>
				<title>PASTA (PF03793)
"PASTA domain"</title>
				<rect class="PF03793" x="630" y="28" stroke-linejoin="round" width="6" height="24" fill="rgb(84,217,212)" stroke="rgb(67,173,169)" stroke-width="1" opacity="0.75" />
			</g>
			<g>
				<title>Pkinase (PF00069)
"Protein kinase domain"</title>
				<rect class="PF00069" x="647" y="28" stroke-linejoin="round" width="24" height="24" fill="rgb(104,187,65)" stroke="rgb(83,149,51)" stroke-width="1" opacity="0.75" />
			</g>
		</g>
		<g>
			<title>prpC (DBLALLCB_02886)
Protein phosphatase PrpC</title>
			<polygon class="prpC (DBLALLCB_02886)
Protein phosphatase PrpC" points="674,40 699,10 699,70" fill="rgb(255,255,255)" fill-opacity="1.0" stroke="rgb(0,0,0)" stroke-width="2"  />
			<g>
				<title>PP2C_2 (PF13672)
"Protein phosphatase 2C"</title>
				<polygon class="PF13672" points="678,40 688,28 697,28 697,52 688,52" stroke-linejoin="round" width="22" height="24" fill="rgb(211,74,134)" stroke="rgb(168,59,107)" stroke-width="1" opacity="0.75" />
			</g>
		</g>
	</g>
</svg>
