<svg version="1.1" baseProfile="full" xmlns="http://www.w3.org/2000/svg" width="537.1666666666666" height="80">
	<g>
		<line x1="10" y1="40.0" x2="527.1666666666666" y2="40.0" style="stroke:rgb(70,70,70); stroke-width:3 "/>
		<g>
			<title> (BBLDBBGM_04156)
hypothetical protein</title>
			<polygon class=" (BBLDBBGM_04156)
hypothetical protein" points="30,10 42,40 30,70" fill="rgb(255,255,255)" fill-opacity="1.0" stroke="rgb(0,0,0)" stroke-width="2"  />
			<g>
				<title>4HBT (PF03061)
"Thioesterase superfamily"</title>
				<polygon class="PF03061" points="34,28 34,28 39,39 39,41 34,52 34,52" stroke-linejoin="round" width="5" height="24" fill="rgb(143,103,215)" stroke="rgb(114,82,172)" stroke-width="1" opacity="0.75" />
			</g>
		</g>
		<g>
			<title> (BBLDBBGM_04157)
hypothetical protein</title>
			<polygon class=" (BBLDBBGM_04157)
hypothetical protein" points="46,10 59,40 46,70" fill="rgb(255,255,255)" fill-opacity="1.0" stroke="rgb(0,0,0)" stroke-width="2"  />
		</g>
		<g>
			<title>dat_2 (BBLDBBGM_04158)
Diaminobutyrate--2-oxoglutarate aminotransferase</title>
			<polygon class="dat_2 (BBLDBBGM_04158)
Diaminobutyrate--2-oxoglutarate aminotransferase" points="80,25 95,25 95,10 125,40 95,70 95,55 80,55" fill="rgb(255,255,255)" fill-opacity="1.0" stroke="rgb(0,0,0)" stroke-width="2"  />
			<g>
				<title>Aminotran_3 (PF00202)
"Aminotransferase class-III"</title>
				<polygon class="PF00202" points="82,28 108,28 120,40 108,52 82,52" stroke-linejoin="round" width="42" height="24" fill="rgb(49,163,189)" stroke="rgb(39,130,151)" stroke-width="1" opacity="0.75" />
			</g>
		</g>
		<g>
			<title>ddc (BBLDBBGM_04159)
L-2,4-diaminobutyrate decarboxylase</title>
			<polygon class="ddc (BBLDBBGM_04159)
L-2,4-diaminobutyrate decarboxylase" points="125,25 145,25 145,10 175,40 145,70 145,55 125,55" fill="rgb(255,255,255)" fill-opacity="1.0" stroke="rgb(0,0,0)" stroke-width="2"  />
			<g>
				<title>Pyridoxal_deC (PF00282)
"Pyridoxal-dependent decarboxylase conserved domain"</title>
				<polygon class="PF00282" points="130,28 159,28 167,36 167,44 159,52 130,52" stroke-linejoin="round" width="37" height="24" fill="rgb(100,218,166)" stroke="rgb(80,174,132)" stroke-width="1" opacity="0.75" />
			</g>
		</g>
		<g>
			<title>iucA (BBLDBBGM_04160)
N(2)-citryl-N(6)-acetyl-N(6)-hydroxylysine synthase</title>
			<polygon class="iucA (BBLDBBGM_04160)
N(2)-citryl-N(6)-acetyl-N(6)-hydroxylysine synthase" points="176,25 205,25 205,10 235,40 205,70 205,55 176,55" fill="rgb(255,255,255)" fill-opacity="1.0" stroke="rgb(0,0,0)" stroke-width="2"  />
			<g>
				<title>IucA_IucC (PF04183)
"IucA / IucC family"</title>
				<rect class="PF04183" x="190" y="28" stroke-linejoin="round" width="23" height="24" fill="rgb(221,104,121)" stroke="rgb(176,83,96)" stroke-width="1" opacity="0.75" />
			</g>
			<g>
				<title>FhuF (PF06276)
"Ferric iron reductase FhuF-like transporter"</title>
				<polygon class="PF06276" points="216,28 218,28 230,40 218,52 216,52" stroke-linejoin="round" width="15" height="24" fill="rgb(76,151,221)" stroke="rgb(60,120,176)" stroke-width="1" opacity="0.75" />
			</g>
		</g>
		<g>
			<title>iucB (BBLDBBGM_04161)
N(6)-hydroxylysine O-acetyltransferase</title>
			<polygon class="iucB (BBLDBBGM_04161)
N(6)-hydroxylysine O-acetyltransferase" points="235,10 253,40 235,70" fill="rgb(255,255,255)" fill-opacity="1.0" stroke="rgb(0,0,0)" stroke-width="2"  />
			<g>
				<title>Acetyltransf_8 (PF13523)
"Acetyltransferase (GNAT) domain"</title>
				<polygon class="PF13523" points="237,28 242,28 250,40 242,52 237,52" stroke-linejoin="round" width="14" height="24" fill="rgb(106,224,203)" stroke="rgb(84,179,162)" stroke-width="1" opacity="0.75" />
			</g>
		</g>
		<g>
			<title>iucD_3 (BBLDBBGM_04162)
L-lysine N6-monooxygenase</title>
			<polygon class="iucD_3 (BBLDBBGM_04162)
L-lysine N6-monooxygenase" points="254,25 269,25 269,10 299,40 269,70 269,55 254,55" fill="rgb(255,255,255)" fill-opacity="1.0" stroke="rgb(0,0,0)" stroke-width="2"  />
			<g>
				<title>K_oxygenase (PF13434)
"L-lysine 6-monooxygenase (NADPH-requiring)"</title>
				<polygon class="PF13434" points="255,28 282,28 289,35 289,45 282,52 255,52" stroke-linejoin="round" width="34" height="24" fill="rgb(81,213,119)" stroke="rgb(64,170,95)" stroke-width="1" opacity="0.75" />
			</g>
		</g>
		<g>
			<title>iucC (BBLDBBGM_04163)
Aerobactin synthase</title>
			<polygon class="iucC (BBLDBBGM_04163)
Aerobactin synthase" points="300,25 330,25 330,10 360,40 330,70 330,55 300,55" fill="rgb(255,255,255)" fill-opacity="1.0" stroke="rgb(0,0,0)" stroke-width="2"  />
			<g>
				<title>IucA_IucC (PF04183)
"IucA / IucC family"</title>
				<rect class="PF04183" x="314" y="28" stroke-linejoin="round" width="25" height="24" fill="rgb(221,104,121)" stroke="rgb(176,83,96)" stroke-width="1" opacity="0.75" />
			</g>
			<g>
				<title>FhuF (PF06276)
"Ferric iron reductase FhuF-like transporter"</title>
				<polygon class="PF06276" points="341,28 344,28 356,40 344,52 341,52" stroke-linejoin="round" width="16" height="24" fill="rgb(76,151,221)" stroke="rgb(60,120,176)" stroke-width="1" opacity="0.75" />
			</g>
		</g>
		<g>
			<title>lysC_2 (BBLDBBGM_04164)
Aspartokinase</title>
			<polygon class="lysC_2 (BBLDBBGM_04164)
Aspartokinase" points="361,25 371,25 371,10 401,40 371,70 371,55 361,55" fill="rgb(255,255,255)" fill-opacity="1.0" stroke="rgb(0,0,0)" stroke-width="2"  />
			<g>
				<title>AA_kinase (PF00696)
"Amino acid kinase family"</title>
				<rect class="PF00696" x="361" y="28" stroke-linejoin="round" width="22" height="24" fill="rgb(148,78,224)" stroke="rgb(118,62,179)" stroke-width="1" opacity="0.75" />
			</g>
		</g>
		<g>
			<title> (BBLDBBGM_04165)
hypothetical protein</title>
			<polygon class=" (BBLDBBGM_04165)
hypothetical protein" points="422,10 434,40 422,70" fill="rgb(255,255,255)" fill-opacity="1.0" stroke="rgb(0,0,0)" stroke-width="2"  />
			<g>
				<title>RDD (PF06271)
"RDD family"</title>
				<polygon class="PF06271" points="422,28 426,28 431,40 426,52 422,52" stroke-linejoin="round" width="11" height="24" fill="rgb(75,173,207)" stroke="rgb(60,138,165)" stroke-width="1" opacity="0.75" />
			</g>
		</g>
		<g>
			<title> (BBLDBBGM_04166)
hypothetical protein</title>
			<polygon class=" (BBLDBBGM_04166)
hypothetical protein" points="436,40 445,10 445,70" fill="rgb(255,255,255)" fill-opacity="1.0" stroke="rgb(0,0,0)" stroke-width="2"  />
		</g>
		<g>
			<title> (BBLDBBGM_04167)
hypothetical protein</title>
			<polygon class=" (BBLDBBGM_04167)
hypothetical protein" points="445,40 450,10 450,70" fill="rgb(255,255,255)" fill-opacity="1.0" stroke="rgb(0,0,0)" stroke-width="2"  />
		</g>
		<g>
			<title>rlmI (BBLDBBGM_04168)
Ribosomal RNA large subunit methyltransferase I</title>
			<polygon class="rlmI (BBLDBBGM_04168)
Ribosomal RNA large subunit methyltransferase I" points="463,25 472,25 472,10 502,40 472,70 472,55 463,55" fill="rgb(255,255,255)" fill-opacity="1.0" stroke="rgb(0,0,0)" stroke-width="2"  />
			<g>
				<title>PUA_3 (PF17785)
"PUA-like domain"</title>
				<rect class="PF17785" x="463" y="28" stroke-linejoin="round" width="6" height="24" fill="rgb(73,59,189)" stroke="rgb(58,47,151)" stroke-width="1" opacity="0.75" />
			</g>
			<g>
				<title>Methyltrans_SAM (PF10672)
"S-adenosylmethionine-dependent methyltransferase"</title>
				<polygon class="PF10672" points="473,28 486,28 498,40 486,52 473,52" stroke-linejoin="round" width="28" height="24" fill="rgb(206,85,142)" stroke="rgb(164,68,113)" stroke-width="1" opacity="0.75" />
			</g>
		</g>
	</g>
</svg>
