<svg version="1.1" baseProfile="full" xmlns="http://www.w3.org/2000/svg" width="472.7" height="80">
	<g>
		<line x1="10" y1="40.0" x2="462.7" y2="40.0" style="stroke:rgb(70,70,70); stroke-width:3 "/>
		<g>
			<title> (GOKLJMNF_02627)
hypothetical protein</title>
			<polygon class=" (GOKLJMNF_02627)
hypothetical protein" points="61,10 74,40 61,70" fill="rgb(255,255,255)" fill-opacity="1.0" stroke="rgb(0,0,0)" stroke-width="2"  />
		</g>
		<g>
			<title> (GOKLJMNF_02628)
hypothetical protein</title>
			<polygon class=" (GOKLJMNF_02628)
hypothetical protein" points="131,25 105,25 105,10 75,40 105,70 105,55 131,55" fill="rgb(255,255,255)" fill-opacity="1.0" stroke="rgb(0,0,0)" stroke-width="2"  />
			<g>
				<title>Peptidase_M3 (PF01432)
"Peptidase family M3"</title>
				<polygon class="PF01432" points="79,40 91,28 114,28 114,52 91,52" stroke-linejoin="round" width="38" height="24" fill="rgb(56,183,126)" stroke="rgb(44,146,100)" stroke-width="1" opacity="0.75" />
			</g>
		</g>
		<g>
			<title>sbnH (GOKLJMNF_02629)
2-[(L-alanin-3-ylcarbamoyl)methyl]-2- hydroxybutanedioate decarboxylase</title>
			<polygon class="sbnH (GOKLJMNF_02629)
2-[(L-alanin-3-ylcarbamoyl)methyl]-2- hydroxybutanedioate decarboxylase" points="175,25 167,25 167,10 137,40 167,70 167,55 175,55" fill="rgb(255,255,255)" fill-opacity="1.0" stroke="rgb(0,0,0)" stroke-width="2"  />
			<g>
				<title>Orn_Arg_deC_N (PF02784)
"Pyridoxal-dependent decarboxylase, pyridoxal binding domain"</title>
				<polygon class="PF02784" points="149,32 153,28 173,28 173,52 153,52 149,48" stroke-linejoin="round" width="24" height="24" fill="rgb(106,204,212)" stroke="rgb(84,163,169)" stroke-width="1" opacity="0.75" />
			</g>
		</g>
		<g>
			<title> (GOKLJMNF_02630)
hypothetical protein</title>
			<polygon class=" (GOKLJMNF_02630)
hypothetical protein" points="238,25 206,25 206,10 176,40 206,70 206,55 238,55" fill="rgb(255,255,255)" fill-opacity="1.0" stroke="rgb(0,0,0)" stroke-width="2"  />
			<g>
				<title>FhuF (PF06276)
"Ferric iron reductase FhuF-like transporter"</title>
				<polygon class="PF06276" points="180,40 192,28 193,28 193,52 192,52" stroke-linejoin="round" width="16" height="24" fill="rgb(76,151,221)" stroke="rgb(60,120,176)" stroke-width="1" opacity="0.75" />
			</g>
			<g>
				<title>IucA_IucC (PF04183)
"IucA / IucC family"</title>
				<rect class="PF04183" x="195" y="28" stroke-linejoin="round" width="23" height="24" fill="rgb(221,104,121)" stroke="rgb(176,83,96)" stroke-width="1" opacity="0.75" />
			</g>
		</g>
		<g>
			<title> (GOKLJMNF_02631)
hypothetical protein</title>
			<polygon class=" (GOKLJMNF_02631)
hypothetical protein" points="295,25 269,25 269,10 239,40 269,70 269,55 295,55" fill="rgb(255,255,255)" fill-opacity="1.0" stroke="rgb(0,0,0)" stroke-width="2"  />
			<g>
				<title>FhuF (PF06276)
"Ferric iron reductase FhuF-like transporter"</title>
				<polygon class="PF06276" points="243,40 255,28 256,28 256,52 255,52" stroke-linejoin="round" width="16" height="24" fill="rgb(76,151,221)" stroke="rgb(60,120,176)" stroke-width="1" opacity="0.75" />
			</g>
			<g>
				<title>IucA_IucC (PF04183)
"IucA / IucC family"</title>
				<rect class="PF04183" x="259" y="28" stroke-linejoin="round" width="23" height="24" fill="rgb(221,104,121)" stroke="rgb(176,83,96)" stroke-width="1" opacity="0.75" />
			</g>
		</g>
		<g>
			<title> (GOKLJMNF_02632)
hypothetical protein</title>
			<polygon class=" (GOKLJMNF_02632)
hypothetical protein" points="302,10 326,40 302,70" fill="rgb(255,255,255)" fill-opacity="1.0" stroke="rgb(0,0,0)" stroke-width="2"  />
		</g>
		<g>
			<title> (GOKLJMNF_02633)
hypothetical protein</title>
			<polygon class=" (GOKLJMNF_02633)
hypothetical protein" points="376,25 370,25 370,10 340,40 370,70 370,55 376,55" fill="rgb(255,255,255)" fill-opacity="1.0" stroke="rgb(0,0,0)" stroke-width="2"  />
			<g>
				<title>Endonuclease_1 (PF04231)
"Endonuclease I"</title>
				<polygon class="PF04231" points="344,40 356,28 360,28 360,52 356,52" stroke-linejoin="round" width="20" height="24" fill="rgb(200,69,122)" stroke="rgb(160,55,97)" stroke-width="1" opacity="0.75" />
			</g>
		</g>
		<g>
			<title> (GOKLJMNF_02634)
hypothetical protein</title>
			<polygon class=" (GOKLJMNF_02634)
hypothetical protein" points="383,10 389,40 383,70" fill="rgb(255,255,255)" fill-opacity="1.0" stroke="rgb(0,0,0)" stroke-width="2"  />
		</g>
		<g>
			<title>nudL (GOKLJMNF_02635)
putative Nudix hydrolase NudL</title>
			<polygon class="nudL (GOKLJMNF_02635)
putative Nudix hydrolase NudL" points="391,40 411,10 411,70" fill="rgb(255,255,255)" fill-opacity="1.0" stroke="rgb(0,0,0)" stroke-width="2"  />
			<g>
				<title>NUDIX (PF00293)
"NUDIX domain"</title>
				<polygon class="PF00293" points="396,39 403,28 408,28 408,52 403,52 396,41" stroke-linejoin="round" width="12" height="24" fill="rgb(92,56,187)" stroke="rgb(73,44,149)" stroke-width="1" opacity="0.75" />
			</g>
		</g>
		<g>
			<title> (GOKLJMNF_02636)
hypothetical protein</title>
			<polygon class=" (GOKLJMNF_02636)
hypothetical protein" points="416,40 444,10 444,70" fill="rgb(255,255,255)" fill-opacity="1.0" stroke="rgb(0,0,0)" stroke-width="2"  />
		</g>
	</g>
</svg>
