<svg version="1.1" baseProfile="full" xmlns="http://www.w3.org/2000/svg" width="514.3666666666667" height="80">
	<g>
		<line x1="10" y1="40.0" x2="504.3666666666667" y2="40.0" style="stroke:rgb(70,70,70); stroke-width:3 "/>
		<g>
			<title>yflH_2 (FNGGOAEL_02553)
putative protein YflH</title>
			<polygon class="yflH_2 (FNGGOAEL_02553)
putative protein YflH" points="10,40 20,10 20,70" fill="rgb(255,255,255)" fill-opacity="1.0" stroke="rgb(0,0,0)" stroke-width="2"  />
			<g>
				<title>DUF3243 (PF11588)
"Protein of unknown function (DUF3243)"</title>
				<polygon class="PF11588" points="13,40 17,28 17,28 17,52 17,52" stroke-linejoin="round" width="7" height="24" fill="rgb(75,214,128)" stroke="rgb(60,171,102)" stroke-width="1" opacity="0.75" />
			</g>
		</g>
		<g>
			<title> (FNGGOAEL_02554)
hypothetical protein</title>
			<polygon class=" (FNGGOAEL_02554)
hypothetical protein" points="26,10 32,40 26,70" fill="rgb(255,255,255)" fill-opacity="1.0" stroke="rgb(0,0,0)" stroke-width="2"  />
			<g>
				<title>YjzC (PF14168)
"YjzC-like protein"</title>
				<polygon class="PF14168" points="26,28 26,28 29,40 26,52 26,52" stroke-linejoin="round" width="5" height="24" fill="rgb(96,141,215)" stroke="rgb(76,112,172)" stroke-width="1" opacity="0.75" />
			</g>
		</g>
		<g>
			<title> (FNGGOAEL_02555)
hypothetical protein</title>
			<polygon class=" (FNGGOAEL_02555)
hypothetical protein" points="46,25 47,25 47,10 77,40 47,70 47,55 46,55" fill="rgb(255,255,255)" fill-opacity="1.0" stroke="rgb(0,0,0)" stroke-width="2"  />
		</g>
		<g>
			<title> (FNGGOAEL_02556)
hypothetical protein</title>
			<polygon class=" (FNGGOAEL_02556)
hypothetical protein" points="119,25 109,25 109,10 79,40 109,70 109,55 119,55" fill="rgb(255,255,255)" fill-opacity="1.0" stroke="rgb(0,0,0)" stroke-width="2"  />
			<g>
				<title>DUF2817 (PF10994)
"Protein of unknown function (DUF2817)"</title>
				<polygon class="PF10994" points="83,40 95,28 116,28 116,52 95,52" stroke-linejoin="round" width="35" height="24" fill="rgb(64,206,144)" stroke="rgb(51,164,115)" stroke-width="1" opacity="0.75" />
			</g>
		</g>
		<g>
			<title>lysC (FNGGOAEL_02557)
Aspartokinase</title>
			<polygon class="lysC (FNGGOAEL_02557)
Aspartokinase" points="163,25 153,25 153,10 123,40 153,70 153,55 163,55" fill="rgb(255,255,255)" fill-opacity="1.0" stroke="rgb(0,0,0)" stroke-width="2"  />
			<g>
				<title>AA_kinase (PF00696)
"Amino acid kinase family"</title>
				<rect class="PF00696" x="140" y="28" stroke-linejoin="round" width="22" height="24" fill="rgb(148,78,224)" stroke="rgb(118,62,179)" stroke-width="1" opacity="0.75" />
			</g>
		</g>
		<g>
			<title>iucC (FNGGOAEL_02558)
Aerobactin synthase</title>
			<polygon class="iucC (FNGGOAEL_02558)
Aerobactin synthase" points="224,25 194,25 194,10 164,40 194,70 194,55 224,55" fill="rgb(255,255,255)" fill-opacity="1.0" stroke="rgb(0,0,0)" stroke-width="2"  />
			<g>
				<title>FhuF (PF06276)
"Ferric iron reductase FhuF-like transporter"</title>
				<polygon class="PF06276" points="168,40 180,28 182,28 182,52 180,52" stroke-linejoin="round" width="16" height="24" fill="rgb(76,151,221)" stroke="rgb(60,120,176)" stroke-width="1" opacity="0.75" />
			</g>
			<g>
				<title>IucA_IucC (PF04183)
"IucA / IucC family"</title>
				<rect class="PF04183" x="185" y="28" stroke-linejoin="round" width="25" height="24" fill="rgb(221,104,121)" stroke="rgb(176,83,96)" stroke-width="1" opacity="0.75" />
			</g>
		</g>
		<g>
			<title>iucD_2 (FNGGOAEL_02559)
L-lysine N6-monooxygenase</title>
			<polygon class="iucD_2 (FNGGOAEL_02559)
L-lysine N6-monooxygenase" points="269,25 255,25 255,10 225,40 255,70 255,55 269,55" fill="rgb(255,255,255)" fill-opacity="1.0" stroke="rgb(0,0,0)" stroke-width="2"  />
			<g>
				<title>K_oxygenase (PF13434)
"L-lysine 6-monooxygenase (NADPH-requiring)"</title>
				<polygon class="PF13434" points="235,34 241,28 269,28 269,52 241,52 235,46" stroke-linejoin="round" width="34" height="24" fill="rgb(81,213,119)" stroke="rgb(64,170,95)" stroke-width="1" opacity="0.75" />
			</g>
		</g>
		<g>
			<title>iucB (FNGGOAEL_02560)
N(6)-hydroxylysine O-acetyltransferase</title>
			<polygon class="iucB (FNGGOAEL_02560)
N(6)-hydroxylysine O-acetyltransferase" points="269,40 288,10 288,70" fill="rgb(255,255,255)" fill-opacity="1.0" stroke="rgb(0,0,0)" stroke-width="2"  />
			<g>
				<title>Acetyltransf_8 (PF13523)
"Acetyltransferase (GNAT) domain"</title>
				<polygon class="PF13523" points="273,40 281,28 285,28 285,52 281,52" stroke-linejoin="round" width="14" height="24" fill="rgb(106,224,203)" stroke="rgb(84,179,162)" stroke-width="1" opacity="0.75" />
			</g>
		</g>
		<g>
			<title>iucA (FNGGOAEL_02561)
N(2)-citryl-N(6)-acetyl-N(6)-hydroxylysine synthase</title>
			<polygon class="iucA (FNGGOAEL_02561)
N(2)-citryl-N(6)-acetyl-N(6)-hydroxylysine synthase" points="346,25 318,25 318,10 288,40 318,70 318,55 346,55" fill="rgb(255,255,255)" fill-opacity="1.0" stroke="rgb(0,0,0)" stroke-width="2"  />
			<g>
				<title>FhuF (PF06276)
"Ferric iron reductase FhuF-like transporter"</title>
				<polygon class="PF06276" points="292,40 304,28 305,28 305,52 304,52" stroke-linejoin="round" width="15" height="24" fill="rgb(76,151,221)" stroke="rgb(60,120,176)" stroke-width="1" opacity="0.75" />
			</g>
			<g>
				<title>IucA_IucC (PF04183)
"IucA / IucC family"</title>
				<rect class="PF04183" x="309" y="28" stroke-linejoin="round" width="23" height="24" fill="rgb(221,104,121)" stroke="rgb(176,83,96)" stroke-width="1" opacity="0.75" />
			</g>
		</g>
		<g>
			<title>ddc (FNGGOAEL_02562)
L-2,4-diaminobutyrate decarboxylase</title>
			<polygon class="ddc (FNGGOAEL_02562)
L-2,4-diaminobutyrate decarboxylase" points="396,25 376,25 376,10 346,40 376,70 376,55 396,55" fill="rgb(255,255,255)" fill-opacity="1.0" stroke="rgb(0,0,0)" stroke-width="2"  />
			<g>
				<title>Pyridoxal_deC (PF00282)
"Pyridoxal-dependent decarboxylase conserved domain"</title>
				<polygon class="PF00282" points="353,37 362,28 390,28 390,52 362,52 353,43" stroke-linejoin="round" width="37" height="24" fill="rgb(100,218,166)" stroke="rgb(80,174,132)" stroke-width="1" opacity="0.75" />
			</g>
		</g>
		<g>
			<title>dat_1 (FNGGOAEL_02563)
Diaminobutyrate--2-oxoglutarate aminotransferase</title>
			<polygon class="dat_1 (FNGGOAEL_02563)
Diaminobutyrate--2-oxoglutarate aminotransferase" points="442,25 427,25 427,10 397,40 427,70 427,55 442,55" fill="rgb(255,255,255)" fill-opacity="1.0" stroke="rgb(0,0,0)" stroke-width="2"  />
			<g>
				<title>Aminotran_3 (PF00202)
"Aminotransferase class-III"</title>
				<polygon class="PF00202" points="401,40 413,28 439,28 439,52 413,52" stroke-linejoin="round" width="42" height="24" fill="rgb(49,163,189)" stroke="rgb(39,130,151)" stroke-width="1" opacity="0.75" />
			</g>
		</g>
		<g>
			<title>nlhH (FNGGOAEL_02564)
Carboxylesterase NlhH</title>
			<polygon class="nlhH (FNGGOAEL_02564)
Carboxylesterase NlhH" points="482,25 481,25 481,10 451,40 481,70 481,55 482,55" fill="rgb(255,255,255)" fill-opacity="1.0" stroke="rgb(0,0,0)" stroke-width="2"  />
			<g>
				<title>Abhydrolase_3 (PF07859)
"alpha/beta hydrolase fold"</title>
				<polygon class="PF07859" points="455,40 467,28 473,28 473,52 467,52" stroke-linejoin="round" width="20" height="24" fill="rgb(183,51,179)" stroke="rgb(146,40,143)" stroke-width="1" opacity="0.75" />
			</g>
		</g>
		<g>
			<title> (FNGGOAEL_02565)
hypothetical protein</title>
			<polygon class=" (FNGGOAEL_02565)
hypothetical protein" points="483,40 504,10 504,70" fill="rgb(255,255,255)" fill-opacity="1.0" stroke="rgb(0,0,0)" stroke-width="2"  />
			<g>
				<title>Acetyltransf_8 (PF13523)
"Acetyltransferase (GNAT) domain"</title>
				<polygon class="PF13523" points="487,40 495,28 501,28 501,52 495,52 487,40" stroke-linejoin="round" width="14" height="24" fill="rgb(106,224,203)" stroke="rgb(84,179,162)" stroke-width="1" opacity="0.75" />
			</g>
		</g>
	</g>
</svg>
