<svg version="1.1" baseProfile="full" xmlns="http://www.w3.org/2000/svg" width="802.6666666666666" height="80">
	<g>
		<line x1="10" y1="40.0" x2="792.6666666666666" y2="40.0" style="stroke:rgb(70,70,70); stroke-width:3 "/>
		<g>
			<title>ypdA (FCCODOLJ_03652)
Sensor histidine kinase YpdA</title>
			<polygon class="ypdA (FCCODOLJ_03652)
Sensor histidine kinase YpdA" points="75,25 47,25 47,10 17,40 47,70 47,55 75,55" fill="rgb(255,255,255)" fill-opacity="1.0" stroke="rgb(0,0,0)" stroke-width="2"  />
			<g>
				<title>HATPase_c (PF02518)
"Histidine kinase-, DNA gyrase B-, and HSP90-like ATPase"</title>
				<polygon class="PF02518" points="21,40 27,34 27,46" stroke-linejoin="round" width="10" height="24" fill="rgb(80,94,225)" stroke="rgb(64,75,180)" stroke-width="1" opacity="0.75" />
			</g>
			<g>
				<title>His_kinase (PF06580)
"Histidine kinase"</title>
				<polygon class="PF06580" points="29,32 33,28 36,28 36,52 33,52 29,48" stroke-linejoin="round" width="7" height="24" fill="rgb(87,219,195)" stroke="rgb(69,175,156)" stroke-width="1" opacity="0.75" />
			</g>
			<g>
				<title>5TM-5TMR_LYT (PF07694)
"5TMR of 5TMR-LYT"</title>
				<rect class="PF07694" x="54" y="28" stroke-linejoin="round" width="18" height="24" fill="rgb(88,218,224)" stroke="rgb(70,174,179)" stroke-width="1" opacity="0.75" />
			</g>
		</g>
		<g>
			<title>yafV (FCCODOLJ_03653)
Omega-amidase YafV</title>
			<polygon class="yafV (FCCODOLJ_03653)
Omega-amidase YafV" points="80,10 106,40 80,70" fill="rgb(255,255,255)" fill-opacity="1.0" stroke="rgb(0,0,0)" stroke-width="2"  />
			<g>
				<title>CN_hydrolase (PF00795)
"Carbon-nitrogen hydrolase"</title>
				<polygon class="PF00795" points="80,28 92,28 102,40 92,52 80,52" stroke-linejoin="round" width="24" height="24" fill="rgb(213,76,196)" stroke="rgb(170,60,156)" stroke-width="1" opacity="0.75" />
			</g>
		</g>
		<g>
			<title>nos (FCCODOLJ_03654)
Nitric oxide synthase oxygenase</title>
			<polygon class="nos (FCCODOLJ_03654)
Nitric oxide synthase oxygenase" points="143,25 137,25 137,10 107,40 137,70 137,55 143,55" fill="rgb(255,255,255)" fill-opacity="1.0" stroke="rgb(0,0,0)" stroke-width="2"  />
			<g>
				<title>NO_synthase (PF02898)
"Nitric oxide synthase, oxygenase domain"</title>
				<polygon class="PF02898" points="111,40 123,28 142,28 142,52 123,52" stroke-linejoin="round" width="35" height="24" fill="rgb(49,184,163)" stroke="rgb(39,147,130)" stroke-width="1" opacity="0.75" />
			</g>
		</g>
		<g>
			<title>noxE (FCCODOLJ_03655)
NADH oxidase</title>
			<polygon class="noxE (FCCODOLJ_03655)
NADH oxidase" points="190,25 176,25 176,10 146,40 176,70 176,55 190,55" fill="rgb(255,255,255)" fill-opacity="1.0" stroke="rgb(0,0,0)" stroke-width="2"  />
			<g>
				<title>Pyr_redox_dim (PF02852)
"Pyridine nucleotide-disulphide oxidoreductase, dimerisation domain"</title>
				<polygon class="PF02852" points="150,40 157,33 157,47" stroke-linejoin="round" width="10" height="24" fill="rgb(191,148,67)" stroke="rgb(152,118,53)" stroke-width="1" opacity="0.75" />
			</g>
			<g>
				<title>Pyr_redox_2 (PF07992)
"Pyridine nucleotide-disulphide oxidoreductase"</title>
				<polygon class="PF07992" points="159,31 162,28 189,28 189,52 162,52 159,49" stroke-linejoin="round" width="30" height="24" fill="rgb(83,223,167)" stroke="rgb(66,178,133)" stroke-width="1" opacity="0.75" />
			</g>
		</g>
		<g>
			<title>bacF (FCCODOLJ_03656)
Transaminase BacF</title>
			<polygon class="bacF (FCCODOLJ_03656)
Transaminase BacF" points="195,25 204,25 204,10 234,40 204,70 204,55 195,55" fill="rgb(255,255,255)" fill-opacity="1.0" stroke="rgb(0,0,0)" stroke-width="2"  />
			<g>
				<title>Aminotran_1_2 (PF00155)
"Aminotransferase class I and II"</title>
				<polygon class="PF00155" points="198,28 218,28 230,40 218,52 198,52" stroke-linejoin="round" width="35" height="24" fill="rgb(89,113,198)" stroke="rgb(71,90,158)" stroke-width="1" opacity="0.75" />
			</g>
		</g>
		<g>
			<title> (FCCODOLJ_03657)
N(G),N(G)-dimethylarginine dimethylaminohydrolase</title>
			<polygon class=" (FCCODOLJ_03657)
N(G),N(G)-dimethylarginine dimethylaminohydrolase" points="236,40 264,10 264,70" fill="rgb(255,255,255)" fill-opacity="1.0" stroke="rgb(0,0,0)" stroke-width="2"  />
			<g>
				<title>Amidinotransf (PF02274)
"Amidinotransferase"</title>
				<polygon class="PF02274" points="240,40 251,28 256,28 256,52 251,52" stroke-linejoin="round" width="20" height="24" fill="rgb(194,129,75)" stroke="rgb(155,103,60)" stroke-width="1" opacity="0.75" />
			</g>
		</g>
		<g>
			<title> (FCCODOLJ_03658)
hypothetical protein</title>
			<polygon class=" (FCCODOLJ_03658)
hypothetical protein" points="282,25 312,25 312,10 342,40 312,70 312,55 282,55" fill="rgb(255,255,255)" fill-opacity="1.0" stroke="rgb(0,0,0)" stroke-width="2"  />
		</g>
		<g>
			<title> (FCCODOLJ_03659)
hypothetical protein</title>
			<polygon class=" (FCCODOLJ_03659)
hypothetical protein" points="343,25 377,25 377,10 407,40 377,70 377,55 343,55" fill="rgb(255,255,255)" fill-opacity="1.0" stroke="rgb(0,0,0)" stroke-width="2"  />
			<g>
				<title>YcaO (PF02624)
"YcaO cyclodehydratase, ATP-ad Mg2+-binding"</title>
				<polygon class="PF02624" points="369,28 391,28 403,40 403,40 391,52 369,52" stroke-linejoin="round" width="34" height="24" fill="rgb(76,84,185)" stroke="rgb(60,67,148)" stroke-width="1" opacity="0.75" />
			</g>
		</g>
		<g>
			<title> (FCCODOLJ_03660)
hypothetical protein</title>
			<polygon class=" (FCCODOLJ_03660)
hypothetical protein" points="408,25 428,25 428,10 458,40 428,70 428,55 408,55" fill="rgb(255,255,255)" fill-opacity="1.0" stroke="rgb(0,0,0)" stroke-width="2"  />
		</g>
		<g>
			<title>pchA_2 (FCCODOLJ_03661)
4-hydroxybenzaldehyde dehydrogenase (NADP(+))</title>
			<polygon class="pchA_2 (FCCODOLJ_03661)
4-hydroxybenzaldehyde dehydrogenase (NADP(+))" points="508,25 490,25 490,10 460,40 490,70 490,55 508,55" fill="rgb(255,255,255)" fill-opacity="1.0" stroke="rgb(0,0,0)" stroke-width="2"  />
			<g>
				<title>Aldedh (PF00171)
"Aldehyde dehydrogenase family"</title>
				<polygon class="PF00171" points="464,40 476,28 506,28 506,52 476,52" stroke-linejoin="round" width="45" height="24" fill="rgb(105,213,139)" stroke="rgb(84,170,111)" stroke-width="1" opacity="0.75" />
			</g>
		</g>
		<g>
			<title>elaA (FCCODOLJ_03662)
Protein ElaA</title>
			<polygon class="elaA (FCCODOLJ_03662)
Protein ElaA" points="511,40 526,10 526,70" fill="rgb(255,255,255)" fill-opacity="1.0" stroke="rgb(0,0,0)" stroke-width="2"  />
			<g>
				<title>Acetyltransf_10 (PF13673)
"Acetyltransferase (GNAT) domain"</title>
				<polygon class="PF13673" points="514,40 520,28 524,28 524,52 520,52" stroke-linejoin="round" width="13" height="24" fill="rgb(88,180,95)" stroke="rgb(70,144,76)" stroke-width="1" opacity="0.75" />
			</g>
		</g>
		<g>
			<title> (FCCODOLJ_03663)
hypothetical protein</title>
			<polygon class=" (FCCODOLJ_03663)
hypothetical protein" points="531,25 547,25 547,10 577,40 547,70 547,55 531,55" fill="rgb(255,255,255)" fill-opacity="1.0" stroke="rgb(0,0,0)" stroke-width="2"  />
			<g>
				<title>DUF2254 (PF10011)
"Predicted membrane protein (DUF2254)"</title>
				<polygon class="PF10011" points="533,28 560,28 569,37 569,43 560,52 533,52" stroke-linejoin="round" width="36" height="24" fill="rgb(78,184,171)" stroke="rgb(62,147,136)" stroke-width="1" opacity="0.75" />
			</g>
		</g>
		<g>
			<title>ydaG (FCCODOLJ_03664)
General stress protein 26</title>
			<polygon class="ydaG (FCCODOLJ_03664)
General stress protein 26" points="579,40 596,10 596,70" fill="rgb(255,255,255)" fill-opacity="1.0" stroke="rgb(0,0,0)" stroke-width="2"  />
			<g>
				<title>Pyrid_ox_like (PF16242)
"Pyridoxamine 5'-phosphate oxidase like"</title>
				<polygon class="PF16242" points="582,40 589,28 592,28 592,52 589,52" stroke-linejoin="round" width="13" height="24" fill="rgb(192,75,209)" stroke="rgb(153,60,167)" stroke-width="1" opacity="0.75" />
			</g>
		</g>
		<g>
			<title> (FCCODOLJ_03665)
hypothetical protein</title>
			<polygon class=" (FCCODOLJ_03665)
hypothetical protein" points="601,10 630,40 601,70" fill="rgb(255,255,255)" fill-opacity="1.0" stroke="rgb(0,0,0)" stroke-width="2"  />
			<g>
				<title>DUF915 (PF06028)
"Alpha/beta hydrolase of unknown function (DUF915)"</title>
				<polygon class="PF06028" points="604,28 614,28 626,40 614,52 604,52" stroke-linejoin="round" width="25" height="24" fill="rgb(201,186,60)" stroke="rgb(160,148,48)" stroke-width="1" opacity="0.75" />
			</g>
		</g>
		<g>
			<title>COQ5_2 (FCCODOLJ_03666)
2-methoxy-6-polyprenyl-1,4-benzoquinol methylase, mitochondrial</title>
			<polygon class="COQ5_2 (FCCODOLJ_03666)
2-methoxy-6-polyprenyl-1,4-benzoquinol methylase, mitochondrial" points="633,40 655,10 655,70" fill="rgb(255,255,255)" fill-opacity="1.0" stroke="rgb(0,0,0)" stroke-width="2"  />
			<g>
				<title>Methyltransf_11 (PF08241)
"Methyltransferase domain"</title>
				<polygon class="PF08241" points="641,35 646,28 650,28 650,52 646,52 641,45" stroke-linejoin="round" width="9" height="24" fill="rgb(106,219,159)" stroke="rgb(84,175,127)" stroke-width="1" opacity="0.75" />
			</g>
		</g>
		<g>
			<title>nrdE (FCCODOLJ_03667)
Ribonucleoside-diphosphate reductase subunit alpha</title>
			<polygon class="nrdE (FCCODOLJ_03667)
Ribonucleoside-diphosphate reductase subunit alpha" points="673,25 717,25 717,10 747,40 717,70 717,55 673,55" fill="rgb(255,255,255)" fill-opacity="1.0" stroke="rgb(0,0,0)" stroke-width="2"  />
			<g>
				<title>Ribonuc_red_lgN (PF00317)
"Ribonucleotide reductase, all-alpha domain"</title>
				<rect class="PF00317" x="686" y="28" stroke-linejoin="round" width="7" height="24" fill="rgb(210,206,91)" stroke="rgb(168,164,72)" stroke-width="1" opacity="0.75" />
			</g>
			<g>
				<title>Ribonuc_red_lgC (PF02867)
"Ribonucleotide reductase, barrel domain"</title>
				<polygon class="PF02867" points="694,28 731,28 743,40 731,52 694,52" stroke-linejoin="round" width="51" height="24" fill="rgb(53,200,190)" stroke="rgb(42,160,152)" stroke-width="1" opacity="0.75" />
			</g>
		</g>
		<g>
			<title>nrdB (FCCODOLJ_03668)
Ribonucleoside-diphosphate reductase subunit beta</title>
			<polygon class="nrdB (FCCODOLJ_03668)
Ribonucleoside-diphosphate reductase subunit beta" points="748,25 752,25 752,10 782,40 752,70 752,55 748,55" fill="rgb(255,255,255)" fill-opacity="1.0" stroke="rgb(0,0,0)" stroke-width="2"  />
			<g>
				<title>Ribonuc_red_sm (PF00268)
"Ribonucleotide reductase, small chain"</title>
				<polygon class="PF00268" points="750,28 766,28 777,39 777,41 766,52 750,52" stroke-linejoin="round" width="27" height="24" fill="rgb(88,210,197)" stroke="rgb(70,168,157)" stroke-width="1" opacity="0.75" />
			</g>
		</g>
	</g>
</svg>
