<svg version="1.1" baseProfile="full" xmlns="http://www.w3.org/2000/svg" width="629.1" height="80">
	<g>
		<line x1="10" y1="40.0" x2="619.1" y2="40.0" style="stroke:rgb(70,70,70); stroke-width:3 "/>
		<g>
			<title>bacF (AHCFJJOH_01960)
Transaminase BacF</title>
			<polygon class="bacF (AHCFJJOH_01960)
Transaminase BacF" points="21,25 30,25 30,10 60,40 30,70 30,55 21,55" fill="rgb(255,255,255)" fill-opacity="1.0" stroke="rgb(0,0,0)" stroke-width="2"  />
			<g>
				<title>Aminotran_1_2 (PF00155)
"Aminotransferase class I and II"</title>
				<polygon class="PF00155" points="24,28 44,28 56,40 44,52 24,52" stroke-linejoin="round" width="35" height="24" fill="rgb(89,113,198)" stroke="rgb(71,90,158)" stroke-width="1" opacity="0.75" />
			</g>
		</g>
		<g>
			<title> (AHCFJJOH_01961)
N(G),N(G)-dimethylarginine dimethylaminohydrolase</title>
			<polygon class=" (AHCFJJOH_01961)
N(G),N(G)-dimethylarginine dimethylaminohydrolase" points="62,40 90,10 90,70" fill="rgb(255,255,255)" fill-opacity="1.0" stroke="rgb(0,0,0)" stroke-width="2"  />
			<g>
				<title>Amidinotransf (PF02274)
"Amidinotransferase"</title>
				<polygon class="PF02274" points="66,40 77,28 87,28 87,52 77,52" stroke-linejoin="round" width="25" height="24" fill="rgb(194,129,75)" stroke="rgb(155,103,60)" stroke-width="1" opacity="0.75" />
			</g>
		</g>
		<g>
			<title> (AHCFJJOH_01962)
hypothetical protein</title>
			<polygon class=" (AHCFJJOH_01962)
hypothetical protein" points="109,25 139,25 139,10 169,40 139,70 139,55 109,55" fill="rgb(255,255,255)" fill-opacity="1.0" stroke="rgb(0,0,0)" stroke-width="2"  />
		</g>
		<g>
			<title> (AHCFJJOH_01963)
hypothetical protein</title>
			<polygon class=" (AHCFJJOH_01963)
hypothetical protein" points="169,25 203,25 203,10 233,40 203,70 203,55 169,55" fill="rgb(255,255,255)" fill-opacity="1.0" stroke="rgb(0,0,0)" stroke-width="2"  />
			<g>
				<title>YcaO (PF02624)
"YcaO cyclodehydratase, ATP-ad Mg2+-binding"</title>
				<polygon class="PF02624" points="195,28 217,28 229,40 229,40 217,52 195,52" stroke-linejoin="round" width="34" height="24" fill="rgb(76,84,185)" stroke="rgb(60,67,148)" stroke-width="1" opacity="0.75" />
			</g>
		</g>
		<g>
			<title> (AHCFJJOH_01964)
hypothetical protein</title>
			<polygon class=" (AHCFJJOH_01964)
hypothetical protein" points="235,25 255,25 255,10 285,40 255,70 255,55 235,55" fill="rgb(255,255,255)" fill-opacity="1.0" stroke="rgb(0,0,0)" stroke-width="2"  />
		</g>
		<g>
			<title>pchA_1 (AHCFJJOH_01965)
4-hydroxybenzaldehyde dehydrogenase (NADP(+))</title>
			<polygon class="pchA_1 (AHCFJJOH_01965)
4-hydroxybenzaldehyde dehydrogenase (NADP(+))" points="335,25 317,25 317,10 287,40 317,70 317,55 335,55" fill="rgb(255,255,255)" fill-opacity="1.0" stroke="rgb(0,0,0)" stroke-width="2"  />
			<g>
				<title>Aldedh (PF00171)
"Aldehyde dehydrogenase family"</title>
				<polygon class="PF00171" points="291,40 303,28 333,28 333,52 303,52" stroke-linejoin="round" width="45" height="24" fill="rgb(105,213,139)" stroke="rgb(84,170,111)" stroke-width="1" opacity="0.75" />
			</g>
		</g>
		<g>
			<title>elaA (AHCFJJOH_01966)
Protein ElaA</title>
			<polygon class="elaA (AHCFJJOH_01966)
Protein ElaA" points="338,40 353,10 353,70" fill="rgb(255,255,255)" fill-opacity="1.0" stroke="rgb(0,0,0)" stroke-width="2"  />
			<g>
				<title>Acetyltransf_10 (PF13673)
"Acetyltransferase (GNAT) domain"</title>
				<polygon class="PF13673" points="341,40 347,28 351,28 351,52 347,52" stroke-linejoin="round" width="13" height="24" fill="rgb(88,180,95)" stroke="rgb(70,144,76)" stroke-width="1" opacity="0.75" />
			</g>
		</g>
		<g>
			<title> (AHCFJJOH_01967)
hypothetical protein</title>
			<polygon class=" (AHCFJJOH_01967)
hypothetical protein" points="358,25 374,25 374,10 404,40 374,70 374,55 358,55" fill="rgb(255,255,255)" fill-opacity="1.0" stroke="rgb(0,0,0)" stroke-width="2"  />
			<g>
				<title>DUF2254 (PF10011)
"Predicted membrane protein (DUF2254)"</title>
				<polygon class="PF10011" points="360,28 387,28 396,37 396,43 387,52 360,52" stroke-linejoin="round" width="36" height="24" fill="rgb(78,184,171)" stroke="rgb(62,147,136)" stroke-width="1" opacity="0.75" />
			</g>
		</g>
		<g>
			<title>ydaG (AHCFJJOH_01968)
General stress protein 26</title>
			<polygon class="ydaG (AHCFJJOH_01968)
General stress protein 26" points="406,40 423,10 423,70" fill="rgb(255,255,255)" fill-opacity="1.0" stroke="rgb(0,0,0)" stroke-width="2"  />
			<g>
				<title>Pyrid_ox_like (PF16242)
"Pyridoxamine 5'-phosphate oxidase like"</title>
				<polygon class="PF16242" points="409,40 416,28 419,28 419,52 416,52" stroke-linejoin="round" width="13" height="24" fill="rgb(192,75,209)" stroke="rgb(153,60,167)" stroke-width="1" opacity="0.75" />
			</g>
		</g>
		<g>
			<title> (AHCFJJOH_01969)
hypothetical protein</title>
			<polygon class=" (AHCFJJOH_01969)
hypothetical protein" points="428,10 457,40 428,70" fill="rgb(255,255,255)" fill-opacity="1.0" stroke="rgb(0,0,0)" stroke-width="2"  />
			<g>
				<title>DUF915 (PF06028)
"Alpha/beta hydrolase of unknown function (DUF915)"</title>
				<polygon class="PF06028" points="431,28 441,28 453,40 441,52 431,52" stroke-linejoin="round" width="25" height="24" fill="rgb(201,186,60)" stroke="rgb(160,148,48)" stroke-width="1" opacity="0.75" />
			</g>
		</g>
		<g>
			<title>COQ5_1 (AHCFJJOH_01970)
2-methoxy-6-polyprenyl-1,4-benzoquinol methylase, mitochondrial</title>
			<polygon class="COQ5_1 (AHCFJJOH_01970)
2-methoxy-6-polyprenyl-1,4-benzoquinol methylase, mitochondrial" points="460,40 482,10 482,70" fill="rgb(255,255,255)" fill-opacity="1.0" stroke="rgb(0,0,0)" stroke-width="2"  />
			<g>
				<title>Methyltransf_11 (PF08241)
"Methyltransferase domain"</title>
				<polygon class="PF08241" points="468,35 473,28 477,28 477,52 473,52 468,45" stroke-linejoin="round" width="9" height="24" fill="rgb(106,219,159)" stroke="rgb(84,175,127)" stroke-width="1" opacity="0.75" />
			</g>
		</g>
		<g>
			<title>nrdE (AHCFJJOH_01971)
Ribonucleoside-diphosphate reductase subunit alpha</title>
			<polygon class="nrdE (AHCFJJOH_01971)
Ribonucleoside-diphosphate reductase subunit alpha" points="499,25 543,25 543,10 573,40 543,70 543,55 499,55" fill="rgb(255,255,255)" fill-opacity="1.0" stroke="rgb(0,0,0)" stroke-width="2"  />
			<g>
				<title>Ribonuc_red_lgN (PF00317)
"Ribonucleotide reductase, all-alpha domain"</title>
				<rect class="PF00317" x="512" y="28" stroke-linejoin="round" width="7" height="24" fill="rgb(210,206,91)" stroke="rgb(168,164,72)" stroke-width="1" opacity="0.75" />
			</g>
			<g>
				<title>Ribonuc_red_lgC (PF02867)
"Ribonucleotide reductase, barrel domain"</title>
				<polygon class="PF02867" points="520,28 557,28 569,40 557,52 520,52" stroke-linejoin="round" width="51" height="24" fill="rgb(53,200,190)" stroke="rgb(42,160,152)" stroke-width="1" opacity="0.75" />
			</g>
		</g>
		<g>
			<title>nrdB (AHCFJJOH_01972)
Ribonucleoside-diphosphate reductase subunit beta</title>
			<polygon class="nrdB (AHCFJJOH_01972)
Ribonucleoside-diphosphate reductase subunit beta" points="574,25 578,25 578,10 608,40 578,70 578,55 574,55" fill="rgb(255,255,255)" fill-opacity="1.0" stroke="rgb(0,0,0)" stroke-width="2"  />
			<g>
				<title>Ribonuc_red_sm (PF00268)
"Ribonucleotide reductase, small chain"</title>
				<polygon class="PF00268" points="576,28 592,28 603,39 603,41 592,52 576,52" stroke-linejoin="round" width="27" height="24" fill="rgb(88,210,197)" stroke="rgb(70,168,157)" stroke-width="1" opacity="0.75" />
			</g>
		</g>
	</g>
</svg>
