<svg version="1.1" baseProfile="full" xmlns="http://www.w3.org/2000/svg" width="714.5666666666667" height="80">
	<g>
		<line x1="10" y1="40.0" x2="704.5666666666667" y2="40.0" style="stroke:rgb(70,70,70); stroke-width:3 "/>
		<g>
			<title>moaA (IBGHNMIF_00426)
GTP 3',8-cyclase</title>
			<polygon class="moaA (IBGHNMIF_00426)
GTP 3',8-cyclase" points="46,25 50,25 50,10 80,40 50,70 50,55 46,55" fill="rgb(255,255,255)" fill-opacity="1.0" stroke="rgb(0,0,0)" stroke-width="2"  />
			<g>
				<title>Radical_SAM (PF04055)
"Radical SAM superfamily"</title>
				<rect class="PF04055" x="48" y="28" stroke-linejoin="round" width="16" height="24" fill="rgb(149,56,222)" stroke="rgb(119,44,177)" stroke-width="1" opacity="0.75" />
			</g>
			<g>
				<title>Mob_synth_C (PF06463)
"Molybdenum Cofactor Synthesis C"</title>
				<polygon class="PF06463" points="65,29 76,40 65,51" stroke-linejoin="round" width="12" height="24" fill="rgb(149,103,225)" stroke="rgb(119,82,180)" stroke-width="1" opacity="0.75" />
			</g>
		</g>
		<g>
			<title> (IBGHNMIF_00427)
hypothetical protein</title>
			<polygon class=" (IBGHNMIF_00427)
hypothetical protein" points="83,10 97,40 83,70" fill="rgb(255,255,255)" fill-opacity="1.0" stroke="rgb(0,0,0)" stroke-width="2"  />
			<g>
				<title>YwpF (PF14183)
"YwpF-like protein"</title>
				<polygon class="PF14183" points="83,28 88,28 93,40 88,52 83,52" stroke-linejoin="round" width="13" height="24" fill="rgb(199,178,73)" stroke="rgb(159,142,58)" stroke-width="1" opacity="0.75" />
			</g>
		</g>
		<g>
			<title>ktrB_2 (IBGHNMIF_00428)
Ktr system potassium uptake protein B</title>
			<polygon class="ktrB_2 (IBGHNMIF_00428)
Ktr system potassium uptake protein B" points="102,25 117,25 117,10 147,40 117,70 117,55 102,55" fill="rgb(255,255,255)" fill-opacity="1.0" stroke="rgb(0,0,0)" stroke-width="2"  />
			<g>
				<title>TrkH (PF02386)
"Cation transport protein"</title>
				<polygon class="PF02386" points="102,28 131,28 143,40 131,52 102,52" stroke-linejoin="round" width="43" height="24" fill="rgb(67,179,142)" stroke="rgb(53,143,113)" stroke-width="1" opacity="0.75" />
			</g>
		</g>
		<g>
			<title> (IBGHNMIF_00429)
hypothetical protein</title>
			<polygon class=" (IBGHNMIF_00429)
hypothetical protein" points="149,25 184,25 184,10 214,40 184,70 184,55 149,55" fill="rgb(255,255,255)" fill-opacity="1.0" stroke="rgb(0,0,0)" stroke-width="2"  />
			<g>
				<title>PAS_9 (PF13426)
"PAS domain"</title>
				<rect class="PF13426" x="161" y="28" stroke-linejoin="round" width="9" height="24" fill="rgb(182,140,74)" stroke="rgb(145,112,59)" stroke-width="1" opacity="0.75" />
			</g>
			<g>
				<title>GGDEF (PF00990)
"Diguanylate cyclase, GGDEF domain"</title>
				<rect class="PF00990" x="171" y="28" stroke-linejoin="round" width="15" height="24" fill="rgb(62,170,199)" stroke="rgb(49,135,159)" stroke-width="1" opacity="0.75" />
			</g>
			<g>
				<title>EAL (PF00563)
"EAL domain"</title>
				<polygon class="PF00563" points="189,28 198,28 210,40 198,52 189,52" stroke-linejoin="round" width="23" height="24" fill="rgb(204,100,120)" stroke="rgb(163,80,96)" stroke-width="1" opacity="0.75" />
			</g>
		</g>
		<g>
			<title> (IBGHNMIF_00430)
hypothetical protein</title>
			<polygon class=" (IBGHNMIF_00430)
hypothetical protein" points="221,40 225,10 225,70" fill="rgb(255,255,255)" fill-opacity="1.0" stroke="rgb(0,0,0)" stroke-width="2"  />
			<g>
				<title>YjcZ_2 (PF09680)
"Family of unknown function"</title>
				<polygon class="PF09680" points="224,40 223,47 223,33" stroke-linejoin="round" width="2" height="24" fill="rgb(79,203,107)" stroke="rgb(63,162,85)" stroke-width="1" opacity="0.75" />
			</g>
		</g>
		<g>
			<title> (IBGHNMIF_00431)
hypothetical protein</title>
			<polygon class=" (IBGHNMIF_00431)
hypothetical protein" points="228,40 235,10 235,70" fill="rgb(255,255,255)" fill-opacity="1.0" stroke="rgb(0,0,0)" stroke-width="2"  />
		</g>
		<g>
			<title>crtN_1 (IBGHNMIF_00432)
4,4'-diapophytoene desaturase (4,4'-diapolycopene-forming)</title>
			<polygon class="crtN_1 (IBGHNMIF_00432)
4,4'-diapophytoene desaturase (4,4'-diapolycopene-forming)" points="241,25 264,25 264,10 294,40 264,70 264,55 241,55" fill="rgb(255,255,255)" fill-opacity="1.0" stroke="rgb(0,0,0)" stroke-width="2"  />
			<g>
				<title>Amino_oxidase (PF01593)
"Flavin containing amine oxidoreductase"</title>
				<polygon class="PF01593" points="245,28 277,28 289,40 277,52 245,52" stroke-linejoin="round" width="47" height="24" fill="rgb(184,74,52)" stroke="rgb(147,59,41)" stroke-width="1" opacity="0.75" />
			</g>
		</g>
		<g>
			<title>crtNc (IBGHNMIF_00433)
4,4'-diapolycopen-4-al dehydrogenase</title>
			<polygon class="crtNc (IBGHNMIF_00433)
4,4'-diapolycopen-4-al dehydrogenase" points="294,25 313,25 313,10 343,40 313,70 313,55 294,55" fill="rgb(255,255,255)" fill-opacity="1.0" stroke="rgb(0,0,0)" stroke-width="2"  />
			<g>
				<title>Amino_oxidase (PF01593)
"Flavin containing amine oxidoreductase"</title>
				<polygon class="PF01593" points="295,28 326,28 338,40 326,52 295,52" stroke-linejoin="round" width="46" height="24" fill="rgb(184,74,52)" stroke="rgb(147,59,41)" stroke-width="1" opacity="0.75" />
			</g>
		</g>
		<g>
			<title>yisP (IBGHNMIF_00434)
Putative phytoene/squalene synthase YisP</title>
			<polygon class="yisP (IBGHNMIF_00434)
Putative phytoene/squalene synthase YisP" points="343,10 370,40 343,70" fill="rgb(255,255,255)" fill-opacity="1.0" stroke="rgb(0,0,0)" stroke-width="2"  />
			<g>
				<title>SQS_PSY (PF00494)
"Squalene/phytoene synthase"</title>
				<polygon class="PF00494" points="344,28 355,28 366,40 355,52 344,52" stroke-linejoin="round" width="25" height="24" fill="rgb(178,91,49)" stroke="rgb(142,72,39)" stroke-width="1" opacity="0.75" />
			</g>
		</g>
		<g>
			<title> (IBGHNMIF_00435)
hypothetical protein</title>
			<polygon class=" (IBGHNMIF_00435)
hypothetical protein" points="372,40 379,10 379,70" fill="rgb(255,255,255)" fill-opacity="1.0" stroke="rgb(0,0,0)" stroke-width="2"  />
		</g>
		<g>
			<title> (IBGHNMIF_00436)
hypothetical protein</title>
			<polygon class=" (IBGHNMIF_00436)
hypothetical protein" points="381,10 385,40 381,70" fill="rgb(255,255,255)" fill-opacity="1.0" stroke="rgb(0,0,0)" stroke-width="2"  />
		</g>
		<g>
			<title>murE_1 (IBGHNMIF_00437)
UDP-N-acetylmuramoyl-L-alanyl-D-glutamate--2, 6-diaminopimelate ligase</title>
			<polygon class="murE_1 (IBGHNMIF_00437)
UDP-N-acetylmuramoyl-L-alanyl-D-glutamate--2, 6-diaminopimelate ligase" points="392,25 412,25 412,10 442,40 412,70 412,55 392,55" fill="rgb(255,255,255)" fill-opacity="1.0" stroke="rgb(0,0,0)" stroke-width="2"  />
			<g>
				<title>Mur_ligase (PF01225)
"Mur ligase family, catalytic domain"</title>
				<rect class="PF01225" x="394" y="28" stroke-linejoin="round" width="8" height="24" fill="rgb(64,188,155)" stroke="rgb(51,150,124)" stroke-width="1" opacity="0.75" />
			</g>
			<g>
				<title>Mur_ligase_M (PF08245)
"Mur ligase middle domain"</title>
				<rect class="PF08245" x="403" y="28" stroke-linejoin="round" width="20" height="24" fill="rgb(57,133,195)" stroke="rgb(45,106,156)" stroke-width="1" opacity="0.75" />
			</g>
			<g>
				<title>Mur_ligase_C (PF02875)
"Mur ligase family, glutamate ligase domain"</title>
				<polygon class="PF02875" points="425,28 425,28 433,36 433,44 425,52 425,52" stroke-linejoin="round" width="8" height="24" fill="rgb(197,75,168)" stroke="rgb(157,60,134)" stroke-width="1" opacity="0.75" />
			</g>
		</g>
		<g>
			<title>dppA_1 (IBGHNMIF_00438)
D-aminopeptidase</title>
			<polygon class="dppA_1 (IBGHNMIF_00438)
D-aminopeptidase" points="448,10 475,40 448,70" fill="rgb(255,255,255)" fill-opacity="1.0" stroke="rgb(0,0,0)" stroke-width="2"  />
			<g>
				<title>Peptidase_M55 (PF04951)
"D-aminopeptidase"</title>
				<polygon class="PF04951" points="448,28 459,28 471,40 459,52 448,52" stroke-linejoin="round" width="26" height="24" fill="rgb(94,138,195)" stroke="rgb(75,110,156)" stroke-width="1" opacity="0.75" />
			</g>
		</g>
		<g>
			<title>dppB (IBGHNMIF_00439)
Dipeptide transport system permease protein DppB</title>
			<polygon class="dppB (IBGHNMIF_00439)
Dipeptide transport system permease protein DppB" points="476,25 477,25 477,10 507,40 477,70 477,55 476,55" fill="rgb(255,255,255)" fill-opacity="1.0" stroke="rgb(0,0,0)" stroke-width="2"  />
			<g>
				<title>BPD_transp_1 (PF00528)
"Binding-protein-dependent transport system inner membrane component"</title>
				<polygon class="PF00528" points="487,28 490,28 502,40 490,52 487,52" stroke-linejoin="round" width="19" height="24" fill="rgb(77,208,225)" stroke="rgb(61,166,180)" stroke-width="1" opacity="0.75" />
			</g>
		</g>
		<g>
			<title>dppC (IBGHNMIF_00440)
Dipeptide transport system permease protein DppC</title>
			<polygon class="dppC (IBGHNMIF_00440)
Dipeptide transport system permease protein DppC" points="507,25 508,25 508,10 538,40 508,70 508,55 507,55" fill="rgb(255,255,255)" fill-opacity="1.0" stroke="rgb(0,0,0)" stroke-width="2"  />
			<g>
				<title>OppC_N (PF12911)
"N-terminal TM domain of oligopeptide transport permease C"</title>
				<rect class="PF12911" x="511" y="28" stroke-linejoin="round" width="5" height="24" fill="rgb(167,178,88)" stroke="rgb(133,142,70)" stroke-width="1" opacity="0.75" />
			</g>
			<g>
				<title>BPD_transp_1 (PF00528)
"Binding-protein-dependent transport system inner membrane component"</title>
				<polygon class="PF00528" points="520,28 522,28 534,40 522,52 520,52" stroke-linejoin="round" width="18" height="24" fill="rgb(77,208,225)" stroke="rgb(61,166,180)" stroke-width="1" opacity="0.75" />
			</g>
		</g>
		<g>
			<title>oppD_1 (IBGHNMIF_00441)
Oligopeptide transport ATP-binding protein OppD</title>
			<polygon class="oppD_1 (IBGHNMIF_00441)
Oligopeptide transport ATP-binding protein OppD" points="539,25 542,25 542,10 572,40 542,70 542,55 539,55" fill="rgb(255,255,255)" fill-opacity="1.0" stroke="rgb(0,0,0)" stroke-width="2"  />
			<g>
				<title>ABC_tran (PF00005)
"ABC transporter"</title>
				<polygon class="PF00005" points="541,28 556,28 557,29 557,51 556,52 541,52" stroke-linejoin="round" width="16" height="24" fill="rgb(129,201,63)" stroke="rgb(103,160,50)" stroke-width="1" opacity="0.75" />
			</g>
			<g>
				<title>oligo_HPY (PF08352)
"Oligopeptide/dipeptide transporter, C-terminal region"</title>
				<polygon class="PF08352" points="562,34 568,40 568,40 562,46" stroke-linejoin="round" width="6" height="24" fill="rgb(90,183,173)" stroke="rgb(72,146,138)" stroke-width="1" opacity="0.75" />
			</g>
		</g>
		<g>
			<title>dppE_1 (IBGHNMIF_00442)
Dipeptide-binding protein DppE</title>
			<polygon class="dppE_1 (IBGHNMIF_00442)
Dipeptide-binding protein DppE" points="573,25 597,25 597,10 627,40 597,70 597,55 573,55" fill="rgb(255,255,255)" fill-opacity="1.0" stroke="rgb(0,0,0)" stroke-width="2"  />
			<g>
				<title>SBP_bac_5 (PF00496)
"Bacterial extracellular solute-binding proteins, family 5 Middle"</title>
				<polygon class="PF00496" points="581,28 611,28 619,36 619,44 611,52 581,52" stroke-linejoin="round" width="38" height="24" fill="rgb(199,94,116)" stroke="rgb(159,75,92)" stroke-width="1" opacity="0.75" />
			</g>
		</g>
		<g>
			<title>ykfA_1 (IBGHNMIF_00443)
putative murein peptide carboxypeptidase</title>
			<polygon class="ykfA_1 (IBGHNMIF_00443)
putative murein peptide carboxypeptidase" points="630,25 630,25 630,10 660,40 630,70 630,55 630,55" fill="rgb(255,255,255)" fill-opacity="1.0" stroke="rgb(0,0,0)" stroke-width="2"  />
			<g>
				<title>Peptidase_S66 (PF02016)
"LD-carboxypeptidase N-terminal domain"</title>
				<rect class="PF02016" x="631" y="28" stroke-linejoin="round" width="11" height="24" fill="rgb(187,63,139)" stroke="rgb(149,50,111)" stroke-width="1" opacity="0.75" />
			</g>
			<g>
				<title>Peptidase_S66C (PF17676)
"LD-carboxypeptidase C-terminal domain"</title>
				<polygon class="PF17676" points="647,31 656,40 647,49" stroke-linejoin="round" width="11" height="24" fill="rgb(72,81,192)" stroke="rgb(57,64,153)" stroke-width="1" opacity="0.75" />
			</g>
		</g>
		<g>
			<title>ykfB (IBGHNMIF_00444)
L-Ala-D/L-Glu epimerase</title>
			<polygon class="ykfB (IBGHNMIF_00444)
L-Ala-D/L-Glu epimerase" points="661,25 667,25 667,10 697,40 667,70 667,55 661,55" fill="rgb(255,255,255)" fill-opacity="1.0" stroke="rgb(0,0,0)" stroke-width="2"  />
			<g>
				<title>MR_MLE_N (PF02746)
"Mandelate racemase / muconate lactonizing enzyme, N-terminal domain"</title>
				<rect class="PF02746" x="661" y="28" stroke-linejoin="round" width="12" height="24" fill="rgb(63,73,226)" stroke="rgb(50,58,180)" stroke-width="1" opacity="0.75" />
			</g>
			<g>
				<title>MR_MLE_C (PF13378)
"Enolase C-terminal domain-like"</title>
				<polygon class="PF13378" points="675,28 681,28 693,40 681,52 675,52" stroke-linejoin="round" width="21" height="24" fill="rgb(191,184,94)" stroke="rgb(152,147,75)" stroke-width="1" opacity="0.75" />
			</g>
		</g>
	</g>
</svg>
