<svg version="1.1" baseProfile="full" xmlns="http://www.w3.org/2000/svg" width="483.0" height="80">
	<g>
		<line x1="10" y1="40.0" x2="473.0" y2="40.0" style="stroke:rgb(70,70,70); stroke-width:3 "/>
		<g>
			<title> (CJMCAHAL_02069)
hypothetical protein</title>
			<polygon class=" (CJMCAHAL_02069)
hypothetical protein" points="22,40 36,10 36,70" fill="rgb(255,255,255)" fill-opacity="1.0" stroke="rgb(0,0,0)" stroke-width="2"  />
			<g>
				<title>Polyketide_cyc2 (PF10604)
"Polyketide cyclase / dehydrase and lipid transport"</title>
				<polygon class="PF10604" points="25,40 31,28 36,28 36,52 31,52" stroke-linejoin="round" width="14" height="24" fill="rgb(105,204,74)" stroke="rgb(84,163,59)" stroke-width="1" opacity="0.75" />
			</g>
		</g>
		<g>
			<title> (CJMCAHAL_02070)
hypothetical protein</title>
			<polygon class=" (CJMCAHAL_02070)
hypothetical protein" points="40,40 68,10 68,70" fill="rgb(255,255,255)" fill-opacity="1.0" stroke="rgb(0,0,0)" stroke-width="2"  />
			<g>
				<title>STAS (PF01740)
"STAS domain"</title>
				<polygon class="PF01740" points="44,40 51,33 51,47" stroke-linejoin="round" width="10" height="24" fill="rgb(219,58,116)" stroke="rgb(175,46,92)" stroke-width="1" opacity="0.75" />
			</g>
			<g>
				<title>GAF_2 (PF13185)
"GAF domain"</title>
				<polygon class="PF13185" points="53,31 55,28 67,28 67,52 55,52 53,49" stroke-linejoin="round" width="14" height="24" fill="rgb(158,189,90)" stroke="rgb(126,151,72)" stroke-width="1" opacity="0.75" />
			</g>
		</g>
		<g>
			<title> (CJMCAHAL_02071)
hypothetical protein</title>
			<polygon class=" (CJMCAHAL_02071)
hypothetical protein" points="76,25 93,25 93,10 123,40 93,70 93,55 76,55" fill="rgb(255,255,255)" fill-opacity="1.0" stroke="rgb(0,0,0)" stroke-width="2"  />
			<g>
				<title>Na_H_antiporter (PF03553)
"Na+/H+ antiporter family"</title>
				<polygon class="PF03553" points="91,28 106,28 118,40 106,52 91,52" stroke-linejoin="round" width="31" height="24" fill="rgb(115,72,216)" stroke="rgb(91,57,172)" stroke-width="1" opacity="0.75" />
			</g>
		</g>
		<g>
			<title> (CJMCAHAL_02072)
hypothetical protein</title>
			<polygon class=" (CJMCAHAL_02072)
hypothetical protein" points="129,40 133,10 133,70" fill="rgb(255,255,255)" fill-opacity="1.0" stroke="rgb(0,0,0)" stroke-width="2"  />
		</g>
		<g>
			<title>sbnH (CJMCAHAL_02073)
2-[(L-alanin-3-ylcarbamoyl)methyl]-2- hydroxybutanedioate decarboxylase</title>
			<polygon class="sbnH (CJMCAHAL_02073)
2-[(L-alanin-3-ylcarbamoyl)methyl]-2- hydroxybutanedioate decarboxylase" points="175,25 165,25 165,10 135,40 165,70 165,55 175,55" fill="rgb(255,255,255)" fill-opacity="1.0" stroke="rgb(0,0,0)" stroke-width="2"  />
			<g>
				<title>Orn_Arg_deC_N (PF02784)
"Pyridoxal-dependent decarboxylase, pyridoxal binding domain"</title>
				<polygon class="PF02784" points="147,32 151,28 171,28 171,52 151,52 147,48" stroke-linejoin="round" width="24" height="24" fill="rgb(106,204,212)" stroke="rgb(84,163,169)" stroke-width="1" opacity="0.75" />
			</g>
		</g>
		<g>
			<title> (CJMCAHAL_02074)
hypothetical protein</title>
			<polygon class=" (CJMCAHAL_02074)
hypothetical protein" points="242,25 206,25 206,10 176,40 206,70 206,55 242,55" fill="rgb(255,255,255)" fill-opacity="1.0" stroke="rgb(0,0,0)" stroke-width="2"  />
			<g>
				<title>FhuF (PF06276)
"Ferric iron reductase FhuF-like transporter"</title>
				<polygon class="PF06276" points="180,40 192,28 193,28 193,52 192,52" stroke-linejoin="round" width="16" height="24" fill="rgb(76,151,221)" stroke="rgb(60,120,176)" stroke-width="1" opacity="0.75" />
			</g>
			<g>
				<title>IucA_IucC (PF04183)
"IucA / IucC family"</title>
				<rect class="PF04183" x="196" y="28" stroke-linejoin="round" width="23" height="24" fill="rgb(221,104,121)" stroke="rgb(176,83,96)" stroke-width="1" opacity="0.75" />
			</g>
		</g>
		<g>
			<title>sbnF (CJMCAHAL_02075)
2-[(L-alanin-3-ylcarbamoyl)methyl]-3-(2- aminoethylcarbamoyl)-2-hydroxypropanoate synthase</title>
			<polygon class="sbnF (CJMCAHAL_02075)
2-[(L-alanin-3-ylcarbamoyl)methyl]-3-(2- aminoethylcarbamoyl)-2-hydroxypropanoate synthase" points="305,25 272,25 272,10 242,40 272,70 272,55 305,55" fill="rgb(255,255,255)" fill-opacity="1.0" stroke="rgb(0,0,0)" stroke-width="2"  />
			<g>
				<title>FhuF (PF06276)
"Ferric iron reductase FhuF-like transporter"</title>
				<polygon class="PF06276" points="246,40 258,28 259,28 259,52 258,52" stroke-linejoin="round" width="16" height="24" fill="rgb(76,151,221)" stroke="rgb(60,120,176)" stroke-width="1" opacity="0.75" />
			</g>
			<g>
				<title>IucA_IucC (PF04183)
"IucA / IucC family"</title>
				<rect class="PF04183" x="263" y="28" stroke-linejoin="round" width="24" height="24" fill="rgb(221,104,121)" stroke="rgb(176,83,96)" stroke-width="1" opacity="0.75" />
			</g>
		</g>
		<g>
			<title> (CJMCAHAL_02076)
hypothetical protein</title>
			<polygon class=" (CJMCAHAL_02076)
hypothetical protein" points="315,10 339,40 315,70" fill="rgb(255,255,255)" fill-opacity="1.0" stroke="rgb(0,0,0)" stroke-width="2"  />
		</g>
		<g>
			<title> (CJMCAHAL_02077)
hypothetical protein</title>
			<polygon class=" (CJMCAHAL_02077)
hypothetical protein" points="344,40 360,10 360,70" fill="rgb(255,255,255)" fill-opacity="1.0" stroke="rgb(0,0,0)" stroke-width="2"  />
			<g>
				<title>GyrI-like (PF06445)
"GyrI-like small molecule binding domain"</title>
				<polygon class="PF06445" points="347,40 353,28 359,28 359,52 353,52" stroke-linejoin="round" width="15" height="24" fill="rgb(61,183,118)" stroke="rgb(48,146,94)" stroke-width="1" opacity="0.75" />
			</g>
		</g>
		<g>
			<title>argF (CJMCAHAL_02078)
Ornithine carbamoyltransferase</title>
			<polygon class="argF (CJMCAHAL_02078)
Ornithine carbamoyltransferase" points="398,25 397,25 397,10 367,40 397,70 397,55 398,55" fill="rgb(255,255,255)" fill-opacity="1.0" stroke="rgb(0,0,0)" stroke-width="2"  />
			<g>
				<title>OTCace (PF00185)
"Aspartate/ornithine carbamoyltransferase, Asp/Orn binding domain"</title>
				<polygon class="PF00185" points="371,40 382,29 382,51" stroke-linejoin="round" width="15" height="24" fill="rgb(215,107,106)" stroke="rgb(172,85,84)" stroke-width="1" opacity="0.75" />
			</g>
			<g>
				<title>OTCace_N (PF02729)
"Aspartate/ornithine carbamoyltransferase, carbamoyl-P binding domain"</title>
				<polygon class="PF02729" points="383,28 383,28 396,28 396,52 383,52 383,52" stroke-linejoin="round" width="13" height="24" fill="rgb(223,74,58)" stroke="rgb(178,59,46)" stroke-width="1" opacity="0.75" />
			</g>
		</g>
	</g>
</svg>
