<svg version="1.1" baseProfile="full" xmlns="http://www.w3.org/2000/svg" width="366.23333333333335" height="80">
	<g>
		<line x1="10" y1="40.0" x2="356.23333333333335" y2="40.0" style="stroke:rgb(70,70,70); stroke-width:3 "/>
		<g>
			<title> (AOOJJHNM_03546)
hypothetical protein</title>
			<polygon class=" (AOOJJHNM_03546)
hypothetical protein" points="51,10 59,40 51,70" fill="rgb(255,255,255)" fill-opacity="1.0" stroke="rgb(0,0,0)" stroke-width="2"  />
		</g>
		<g>
			<title> (AOOJJHNM_03547)
hypothetical protein</title>
			<polygon class=" (AOOJJHNM_03547)
hypothetical protein" points="61,10 76,40 61,70" fill="rgb(255,255,255)" fill-opacity="1.0" stroke="rgb(0,0,0)" stroke-width="2"  />
			<g>
				<title>Acetyltransf_1 (PF00583)
"Acetyltransferase (GNAT) family"</title>
				<polygon class="PF00583" points="62,28 66,28 73,40 66,52 62,52" stroke-linejoin="round" width="12" height="24" fill="rgb(121,183,50)" stroke="rgb(96,146,39)" stroke-width="1" opacity="0.75" />
			</g>
		</g>
		<g>
			<title>bdlA (AOOJJHNM_03548)
Biofilm dispersion protein BdlA</title>
			<polygon class="bdlA (AOOJJHNM_03548)
Biofilm dispersion protein BdlA" points="82,25 82,25 82,10 112,40 82,70 82,55 82,55" fill="rgb(255,255,255)" fill-opacity="1.0" stroke="rgb(0,0,0)" stroke-width="2"  />
			<g>
				<title>PAS_4 (PF08448)
"PAS fold"</title>
				<rect class="PF08448" x="83" y="28" stroke-linejoin="round" width="11" height="24" fill="rgb(50,90,192)" stroke="rgb(40,71,153)" stroke-width="1" opacity="0.75" />
			</g>
			<g>
				<title>MCPsignal (PF00015)
"Methyl-accepting chemotaxis protein (MCP) signalling domain"</title>
				<polygon class="PF00015" points="96,28 96,28 108,40 96,52 96,52" stroke-linejoin="round" width="15" height="24" fill="rgb(104,174,223)" stroke="rgb(83,139,178)" stroke-width="1" opacity="0.75" />
			</g>
		</g>
		<g>
			<title> (AOOJJHNM_03549)
hypothetical protein</title>
			<polygon class=" (AOOJJHNM_03549)
hypothetical protein" points="116,10 130,40 116,70" fill="rgb(255,255,255)" fill-opacity="1.0" stroke="rgb(0,0,0)" stroke-width="2"  />
		</g>
		<g>
			<title> (AOOJJHNM_03550)
hypothetical protein</title>
			<polygon class=" (AOOJJHNM_03550)
hypothetical protein" points="133,10 143,40 133,70" fill="rgb(255,255,255)" fill-opacity="1.0" stroke="rgb(0,0,0)" stroke-width="2"  />
			<g>
				<title>GGDEF (PF00990)
"Diguanylate cyclase, GGDEF domain"</title>
				<polygon class="PF00990" points="133,28 135,28 140,40 135,52 133,52" stroke-linejoin="round" width="9" height="24" fill="rgb(62,170,199)" stroke="rgb(49,135,159)" stroke-width="1" opacity="0.75" />
			</g>
		</g>
		<g>
			<title> (AOOJJHNM_03551)
hypothetical protein</title>
			<polygon class=" (AOOJJHNM_03551)
hypothetical protein" points="147,40 170,10 170,70" fill="rgb(255,255,255)" fill-opacity="1.0" stroke="rgb(0,0,0)" stroke-width="2"  />
			<g>
				<title>DUF2154 (PF09922)
"Cell wall-active antibiotics response 4TMS YvqF"</title>
				<polygon class="PF09922" points="151,40 157,32 157,48" stroke-linejoin="round" width="10" height="24" fill="rgb(190,73,196)" stroke="rgb(152,58,156)" stroke-width="1" opacity="0.75" />
			</g>
			<g>
				<title>Toast_rack_N (PF17115)
"N-terminal domain of toast_rack, DUF2154"</title>
				<polygon class="PF17115" points="157,32 160,28 165,28 165,52 160,52 157,48" stroke-linejoin="round" width="8" height="24" fill="rgb(194,78,58)" stroke="rgb(155,62,46)" stroke-width="1" opacity="0.75" />
			</g>
		</g>
		<g>
			<title>ectC (AOOJJHNM_03552)
L-ectoine synthase</title>
			<polygon class="ectC (AOOJJHNM_03552)
L-ectoine synthase" points="176,10 188,40 176,70" fill="rgb(255,255,255)" fill-opacity="1.0" stroke="rgb(0,0,0)" stroke-width="2"  />
			<g>
				<title>Ectoine_synth (PF06339)
"Ectoine synthase"</title>
				<polygon class="PF06339" points="176,28 180,28 185,40 180,52 176,52" stroke-linejoin="round" width="12" height="24" fill="rgb(225,176,81)" stroke="rgb(180,140,64)" stroke-width="1" opacity="0.75" />
			</g>
		</g>
		<g>
			<title> (AOOJJHNM_03553)
hypothetical protein</title>
			<polygon class=" (AOOJJHNM_03553)
hypothetical protein" points="192,10 200,40 192,70" fill="rgb(255,255,255)" fill-opacity="1.0" stroke="rgb(0,0,0)" stroke-width="2"  />
		</g>
		<g>
			<title> (AOOJJHNM_03554)
hypothetical protein</title>
			<polygon class=" (AOOJJHNM_03554)
hypothetical protein" points="201,10 216,40 201,70" fill="rgb(255,255,255)" fill-opacity="1.0" stroke="rgb(0,0,0)" stroke-width="2"  />
		</g>
		<g>
			<title> (AOOJJHNM_03555)
hypothetical protein</title>
			<polygon class=" (AOOJJHNM_03555)
hypothetical protein" points="216,10 223,40 216,70" fill="rgb(255,255,255)" fill-opacity="1.0" stroke="rgb(0,0,0)" stroke-width="2"  />
		</g>
		<g>
			<title> (AOOJJHNM_03556)
hypothetical protein</title>
			<polygon class=" (AOOJJHNM_03556)
hypothetical protein" points="224,40 243,10 243,70" fill="rgb(255,255,255)" fill-opacity="1.0" stroke="rgb(0,0,0)" stroke-width="2"  />
		</g>
		<g>
			<title> (AOOJJHNM_03557)
hypothetical protein</title>
			<polygon class=" (AOOJJHNM_03557)
hypothetical protein" points="250,25 250,25 250,10 280,40 250,70 250,55 250,55" fill="rgb(255,255,255)" fill-opacity="1.0" stroke="rgb(0,0,0)" stroke-width="2"  />
		</g>
		<g>
			<title> (AOOJJHNM_03558)
hypothetical protein</title>
			<polygon class=" (AOOJJHNM_03558)
hypothetical protein" points="279,10 297,40 279,70" fill="rgb(255,255,255)" fill-opacity="1.0" stroke="rgb(0,0,0)" stroke-width="2"  />
		</g>
		<g>
			<title> (AOOJJHNM_03559)
hypothetical protein</title>
			<polygon class=" (AOOJJHNM_03559)
hypothetical protein" points="299,40 309,10 309,70" fill="rgb(255,255,255)" fill-opacity="1.0" stroke="rgb(0,0,0)" stroke-width="2"  />
		</g>
	</g>
</svg>
