<svg version="1.1" baseProfile="full" xmlns="http://www.w3.org/2000/svg" width="750.1666666666666" height="80">
	<g>
		<line x1="10" y1="40.0" x2="740.1666666666666" y2="40.0" style="stroke:rgb(70,70,70); stroke-width:3 "/>
		<g>
			<title> (APKJPGIF_01976)
hypothetical protein</title>
			<polygon class=" (APKJPGIF_01976)
hypothetical protein" points="25,10 45,40 25,70" fill="rgb(255,255,255)" fill-opacity="1.0" stroke="rgb(0,0,0)" stroke-width="2"  />
			<g>
				<title>TetR_N (PF00440)
"Bacterial regulatory proteins, tetR family"</title>
				<rect class="PF00440" x="26" y="28" stroke-linejoin="round" width="4" height="24" fill="rgb(73,212,190)" stroke="rgb(58,169,152)" stroke-width="1" opacity="0.75" />
			</g>
		</g>
		<g>
			<title>fer (APKJPGIF_01977)
Ferredoxin</title>
			<polygon class="fer (APKJPGIF_01977)
Ferredoxin" points="49,10 56,40 49,70" fill="rgb(255,255,255)" fill-opacity="1.0" stroke="rgb(0,0,0)" stroke-width="2"  />
			<g>
				<title>Fer4_13 (PF13370)
"4Fe-4S single cluster domain of Ferredoxin I"</title>
				<polygon class="PF13370" points="49,28 50,28 53,40 50,52 49,52" stroke-linejoin="round" width="6" height="24" fill="rgb(220,216,65)" stroke="rgb(176,172,52)" stroke-width="1" opacity="0.75" />
			</g>
		</g>
		<g>
			<title> (APKJPGIF_01978)
hypothetical protein</title>
			<polygon class=" (APKJPGIF_01978)
hypothetical protein" points="57,10 61,40 57,70" fill="rgb(255,255,255)" fill-opacity="1.0" stroke="rgb(0,0,0)" stroke-width="2"  />
		</g>
		<g>
			<title> (APKJPGIF_01979)
Cytochrome P450(BM-1)</title>
			<polygon class=" (APKJPGIF_01979)
Cytochrome P450(BM-1)" points="61,25 72,25 72,10 102,40 72,70 72,55 61,55" fill="rgb(255,255,255)" fill-opacity="1.0" stroke="rgb(0,0,0)" stroke-width="2"  />
			<g>
				<title>p450 (PF00067)
"Cytochrome P450"</title>
				<polygon class="PF00067" points="61,28 85,28 97,40 85,52 61,52" stroke-linejoin="round" width="39" height="24" fill="rgb(85,216,107)" stroke="rgb(68,172,85)" stroke-width="1" opacity="0.75" />
			</g>
		</g>
		<g>
			<title> (APKJPGIF_01980)
hypothetical protein</title>
			<polygon class=" (APKJPGIF_01980)
hypothetical protein" points="108,40 137,10 137,70" fill="rgb(255,255,255)" fill-opacity="1.0" stroke="rgb(0,0,0)" stroke-width="2"  />
			<g>
				<title>OpuAC (PF04069)
"Substrate binding domain of ABC-type glycine betaine transport system"</title>
				<polygon class="PF04069" points="112,40 124,28 133,28 133,52 124,52" stroke-linejoin="round" width="24" height="24" fill="rgb(81,218,80)" stroke="rgb(64,174,64)" stroke-width="1" opacity="0.75" />
			</g>
		</g>
		<g>
			<title>opcR_1 (APKJPGIF_01981)
HTH-type transcriptional repressor OpcR</title>
			<polygon class="opcR_1 (APKJPGIF_01981)
HTH-type transcriptional repressor OpcR" points="143,40 161,10 161,70" fill="rgb(255,255,255)" fill-opacity="1.0" stroke="rgb(0,0,0)" stroke-width="2"  />
		</g>
		<g>
			<title>gbsA_2 (APKJPGIF_01982)
Betaine aldehyde dehydrogenase</title>
			<polygon class="gbsA_2 (APKJPGIF_01982)
Betaine aldehyde dehydrogenase" points="171,25 190,25 190,10 220,40 190,70 190,55 171,55" fill="rgb(255,255,255)" fill-opacity="1.0" stroke="rgb(0,0,0)" stroke-width="2"  />
			<g>
				<title>Aldedh (PF00171)
"Aldehyde dehydrogenase family"</title>
				<polygon class="PF00171" points="172,28 203,28 215,40 203,52 172,52" stroke-linejoin="round" width="46" height="24" fill="rgb(105,213,139)" stroke="rgb(84,170,111)" stroke-width="1" opacity="0.75" />
			</g>
		</g>
		<g>
			<title>betA (APKJPGIF_01983)
Oxygen-dependent choline dehydrogenase</title>
			<polygon class="betA (APKJPGIF_01983)
Oxygen-dependent choline dehydrogenase" points="225,25 251,25 251,10 281,40 251,70 251,55 225,55" fill="rgb(255,255,255)" fill-opacity="1.0" stroke="rgb(0,0,0)" stroke-width="2"  />
			<g>
				<title>GMC_oxred_N (PF00732)
"GMC oxidoreductase"</title>
				<rect class="PF00732" x="225" y="28" stroke-linejoin="round" width="29" height="24" fill="rgb(180,89,214)" stroke="rgb(143,71,171)" stroke-width="1" opacity="0.75" />
			</g>
			<g>
				<title>GMC_oxred_C (PF05199)
"GMC oxidoreductase"</title>
				<polygon class="PF05199" points="263,28 264,28 276,40 276,40 264,52 263,52" stroke-linejoin="round" width="13" height="24" fill="rgb(186,52,106)" stroke="rgb(148,41,84)" stroke-width="1" opacity="0.75" />
			</g>
		</g>
		<g>
			<title> (APKJPGIF_01984)
hypothetical protein</title>
			<polygon class=" (APKJPGIF_01984)
hypothetical protein" points="289,40 304,10 304,70" fill="rgb(255,255,255)" fill-opacity="1.0" stroke="rgb(0,0,0)" stroke-width="2"  />
		</g>
		<g>
			<title> (APKJPGIF_01985)
hypothetical protein</title>
			<polygon class=" (APKJPGIF_01985)
hypothetical protein" points="306,40 310,10 310,70" fill="rgb(255,255,255)" fill-opacity="1.0" stroke="rgb(0,0,0)" stroke-width="2"  />
		</g>
		<g>
			<title> (APKJPGIF_01986)
hypothetical protein</title>
			<polygon class=" (APKJPGIF_01986)
hypothetical protein" points="324,40 334,10 334,70" fill="rgb(255,255,255)" fill-opacity="1.0" stroke="rgb(0,0,0)" stroke-width="2"  />
			<g>
				<title>DUF2515 (PF10720)
"Protein of unknown function (DUF2515)"</title>
				<polygon class="PF10720" points="327,40 331,28 334,28 334,52 331,52" stroke-linejoin="round" width="10" height="24" fill="rgb(66,168,216)" stroke="rgb(52,134,172)" stroke-width="1" opacity="0.75" />
			</g>
		</g>
		<g>
			<title>sqhC (APKJPGIF_01987)
Sporulenol synthase</title>
			<polygon class="sqhC (APKJPGIF_01987)
Sporulenol synthase" points="343,25 376,25 376,10 406,40 376,70 376,55 343,55" fill="rgb(255,255,255)" fill-opacity="1.0" stroke="rgb(0,0,0)" stroke-width="2"  />
			<g>
				<title>SQHop_cyclase_N (PF13249)
"Squalene-hopene cyclase N-terminal domain"</title>
				<rect class="PF13249" x="343" y="28" stroke-linejoin="round" width="29" height="24" fill="rgb(88,190,89)" stroke="rgb(70,152,71)" stroke-width="1" opacity="0.75" />
			</g>
			<g>
				<title>SQHop_cyclase_C (PF13243)
"Squalene-hopene cyclase C-terminal domain"</title>
				<polygon class="PF13243" points="373,28 390,28 402,40 390,52 373,52" stroke-linejoin="round" width="31" height="24" fill="rgb(191,58,201)" stroke="rgb(152,46,160)" stroke-width="1" opacity="0.75" />
			</g>
		</g>
		<g>
			<title> (APKJPGIF_01988)
hypothetical protein</title>
			<polygon class=" (APKJPGIF_01988)
hypothetical protein" points="415,10 437,40 415,70" fill="rgb(255,255,255)" fill-opacity="1.0" stroke="rgb(0,0,0)" stroke-width="2"  />
			<g>
				<title>DUF421 (PF04239)
"Protein of unknown function (DUF421)"</title>
				<polygon class="PF04239" points="423,28 424,28 433,40 424,52 423,52" stroke-linejoin="round" width="11" height="24" fill="rgb(165,197,85)" stroke="rgb(132,157,68)" stroke-width="1" opacity="0.75" />
			</g>
		</g>
		<g>
			<title> (APKJPGIF_01989)
hypothetical protein</title>
			<polygon class=" (APKJPGIF_01989)
hypothetical protein" points="441,10 446,40 441,70" fill="rgb(255,255,255)" fill-opacity="1.0" stroke="rgb(0,0,0)" stroke-width="2"  />
		</g>
		<g>
			<title> (APKJPGIF_01990)
hypothetical protein</title>
			<polygon class=" (APKJPGIF_01990)
hypothetical protein" points="448,10 454,40 448,70" fill="rgb(255,255,255)" fill-opacity="1.0" stroke="rgb(0,0,0)" stroke-width="2"  />
			<g>
				<title>YjzC (PF14168)
"YjzC-like protein"</title>
				<polygon class="PF14168" points="448,28 448,28 451,40 448,52 448,52" stroke-linejoin="round" width="5" height="24" fill="rgb(96,141,215)" stroke="rgb(76,112,172)" stroke-width="1" opacity="0.75" />
			</g>
		</g>
		<g>
			<title> (APKJPGIF_01991)
hypothetical protein</title>
			<polygon class=" (APKJPGIF_01991)
hypothetical protein" points="462,10 482,40 462,70" fill="rgb(255,255,255)" fill-opacity="1.0" stroke="rgb(0,0,0)" stroke-width="2"  />
			<g>
				<title>DUF2254 (PF10011)
"Predicted membrane protein (DUF2254)"</title>
				<polygon class="PF10011" points="464,28 470,28 478,40 470,52 464,52" stroke-linejoin="round" width="17" height="24" fill="rgb(78,184,171)" stroke="rgb(62,147,136)" stroke-width="1" opacity="0.75" />
			</g>
		</g>
		<g>
			<title> (APKJPGIF_01992)
IS256 family transposase IS654</title>
			<polygon class=" (APKJPGIF_01992)
IS256 family transposase IS654" points="486,25 495,25 495,10 525,40 495,70 495,55 486,55" fill="rgb(255,255,255)" fill-opacity="1.0" stroke="rgb(0,0,0)" stroke-width="2"  />
			<g>
				<title>Transposase_mut (PF00872)
"Transposase, Mutator family"</title>
				<polygon class="PF00872" points="486,28 509,28 521,40 509,52 486,52" stroke-linejoin="round" width="36" height="24" fill="rgb(137,187,62)" stroke="rgb(109,149,49)" stroke-width="1" opacity="0.75" />
			</g>
		</g>
		<g>
			<title> (APKJPGIF_01993)
hypothetical protein</title>
			<polygon class=" (APKJPGIF_01993)
hypothetical protein" points="534,10 544,40 534,70" fill="rgb(255,255,255)" fill-opacity="1.0" stroke="rgb(0,0,0)" stroke-width="2"  />
		</g>
		<g>
			<title>ppdK (APKJPGIF_01994)
Pyruvate, phosphate dikinase</title>
			<polygon class="ppdK (APKJPGIF_01994)
Pyruvate, phosphate dikinase" points="639,25 580,25 580,10 550,40 580,70 580,55 639,55" fill="rgb(255,255,255)" fill-opacity="1.0" stroke="rgb(0,0,0)" stroke-width="2"  />
			<g>
				<title>PEP-utilizers_C (PF02896)
"PEP-utilising enzyme, TIM barrel domain"</title>
				<polygon class="PF02896" points="554,40 566,28 587,28 587,52 566,52" stroke-linejoin="round" width="36" height="24" fill="rgb(65,113,188)" stroke="rgb(52,90,150)" stroke-width="1" opacity="0.75" />
			</g>
			<g>
				<title>PEP-utilizers (PF00391)
"PEP-utilising enzyme, mobile domain"</title>
				<rect class="PF00391" x="589" y="28" stroke-linejoin="round" width="8" height="24" fill="rgb(206,59,219)" stroke="rgb(164,47,175)" stroke-width="1" opacity="0.75" />
			</g>
			<g>
				<title>PPDK_N (PF01326)
"Pyruvate phosphate dikinase, PEP/pyruvate binding domain"</title>
				<rect class="PF01326" x="609" y="28" stroke-linejoin="round" width="28" height="24" fill="rgb(112,180,78)" stroke="rgb(89,144,62)" stroke-width="1" opacity="0.75" />
			</g>
		</g>
		<g>
			<title>yqfL_1 (APKJPGIF_01995)
Putative pyruvate, phosphate dikinase regulatory protein</title>
			<polygon class="yqfL_1 (APKJPGIF_01995)
Putative pyruvate, phosphate dikinase regulatory protein" points="639,40 666,10 666,70" fill="rgb(255,255,255)" fill-opacity="1.0" stroke="rgb(0,0,0)" stroke-width="2"  />
			<g>
				<title>Kinase-PPPase (PF03618)
"Kinase/pyrophosphorylase"</title>
				<polygon class="PF03618" points="643,40 654,28 665,28 665,52 654,52" stroke-linejoin="round" width="25" height="24" fill="rgb(140,226,96)" stroke="rgb(112,180,76)" stroke-width="1" opacity="0.75" />
			</g>
		</g>
	</g>
</svg>
