<svg version="1.1" baseProfile="full" xmlns="http://www.w3.org/2000/svg" width="702.8666666666667" height="80">
	<g>
		<line x1="10" y1="40.0" x2="692.8666666666667" y2="40.0" style="stroke:rgb(70,70,70); stroke-width:3 "/>
		<g>
			<title>ydaF_3 (HAMLPNCN_03227)
Putative ribosomal N-acetyltransferase YdaF</title>
			<polygon class="ydaF_3 (HAMLPNCN_03227)
Putative ribosomal N-acetyltransferase YdaF" points="11,40 19,10 19,70" fill="rgb(255,255,255)" fill-opacity="1.0" stroke="rgb(0,0,0)" stroke-width="2"  />
			<g>
				<title>Acetyltransf_3 (PF13302)
"Acetyltransferase (GNAT) domain"</title>
				<polygon class="PF13302" points="14,40 18,28 19,28 19,52 18,52 14,40" stroke-linejoin="round" width="5" height="24" fill="rgb(105,146,215)" stroke="rgb(84,116,172)" stroke-width="1" opacity="0.75" />
			</g>
		</g>
		<g>
			<title> (HAMLPNCN_03228)
hypothetical protein</title>
			<polygon class=" (HAMLPNCN_03228)
hypothetical protein" points="20,40 29,10 29,70" fill="rgb(255,255,255)" fill-opacity="1.0" stroke="rgb(0,0,0)" stroke-width="2"  />
		</g>
		<g>
			<title>guaC (HAMLPNCN_03229)
GMP reductase</title>
			<polygon class="guaC (HAMLPNCN_03229)
GMP reductase" points="62,10 67,40 62,70" fill="rgb(255,255,255)" fill-opacity="1.0" stroke="rgb(0,0,0)" stroke-width="2"  />
		</g>
		<g>
			<title> (HAMLPNCN_03230)
hypothetical protein</title>
			<polygon class=" (HAMLPNCN_03230)
hypothetical protein" points="68,40 84,10 84,70" fill="rgb(255,255,255)" fill-opacity="1.0" stroke="rgb(0,0,0)" stroke-width="2"  />
			<g>
				<title>Cass2 (PF14526)
"Integron-associated effector binding protein"</title>
				<polygon class="PF14526" points="71,40 78,28 83,28 83,52 78,52" stroke-linejoin="round" width="15" height="24" fill="rgb(57,73,185)" stroke="rgb(45,58,148)" stroke-width="1" opacity="0.75" />
			</g>
		</g>
		<g>
			<title> (HAMLPNCN_03231)
hypothetical protein</title>
			<polygon class=" (HAMLPNCN_03231)
hypothetical protein" points="90,40 119,10 119,70" fill="rgb(255,255,255)" fill-opacity="1.0" stroke="rgb(0,0,0)" stroke-width="2"  />
			<g>
				<title>Cupin_2 (PF07883)
"Cupin domain"</title>
				<polygon class="PF07883" points="94,40 99,35 99,45" stroke-linejoin="round" width="7" height="24" fill="rgb(211,192,74)" stroke="rgb(168,153,59)" stroke-width="1" opacity="0.75" />
			</g>
		</g>
		<g>
			<title> (HAMLPNCN_03232)
hypothetical protein</title>
			<polygon class=" (HAMLPNCN_03232)
hypothetical protein" points="123,40 138,10 138,70" fill="rgb(255,255,255)" fill-opacity="1.0" stroke="rgb(0,0,0)" stroke-width="2"  />
			<g>
				<title>Polyketide_cyc2 (PF10604)
"Polyketide cyclase / dehydrase and lipid transport"</title>
				<polygon class="PF10604" points="126,40 132,28 137,28 137,52 132,52" stroke-linejoin="round" width="14" height="24" fill="rgb(105,204,74)" stroke="rgb(84,163,59)" stroke-width="1" opacity="0.75" />
			</g>
		</g>
		<g>
			<title>bmrR (HAMLPNCN_03233)
Multidrug-efflux transporter 1 regulator</title>
			<polygon class="bmrR (HAMLPNCN_03233)
Multidrug-efflux transporter 1 regulator" points="138,40 149,10 149,70" fill="rgb(255,255,255)" fill-opacity="1.0" stroke="rgb(0,0,0)" stroke-width="2"  />
			<g>
				<title>MerR_1 (PF13411)
"MerR HTH family regulatory protein"</title>
				<polygon class="PF13411" points="142,37 146,28 149,28 149,52 146,52 142,43" stroke-linejoin="round" width="7" height="24" fill="rgb(100,202,107)" stroke="rgb(80,161,85)" stroke-width="1" opacity="0.75" />
			</g>
		</g>
		<g>
			<title> (HAMLPNCN_03234)
hypothetical protein</title>
			<polygon class=" (HAMLPNCN_03234)
hypothetical protein" points="151,40 166,10 166,70" fill="rgb(255,255,255)" fill-opacity="1.0" stroke="rgb(0,0,0)" stroke-width="2"  />
			<g>
				<title>Cass2 (PF14526)
"Integron-associated effector binding protein"</title>
				<polygon class="PF14526" points="154,40 160,28 165,28 165,52 160,52" stroke-linejoin="round" width="14" height="24" fill="rgb(57,73,185)" stroke="rgb(45,58,148)" stroke-width="1" opacity="0.75" />
			</g>
		</g>
		<g>
			<title> (HAMLPNCN_03235)
hypothetical protein</title>
			<polygon class=" (HAMLPNCN_03235)
hypothetical protein" points="168,10 180,40 168,70" fill="rgb(255,255,255)" fill-opacity="1.0" stroke="rgb(0,0,0)" stroke-width="2"  />
			<g>
				<title>Glyoxalase (PF00903)
"Glyoxalase/Bleomycin resistance protein/Dioxygenase superfamily"</title>
				<polygon class="PF00903" points="168,28 171,28 176,40 171,52 168,52" stroke-linejoin="round" width="10" height="24" fill="rgb(50,162,189)" stroke="rgb(40,129,151)" stroke-width="1" opacity="0.75" />
			</g>
		</g>
		<g>
			<title> (HAMLPNCN_03236)
hypothetical protein</title>
			<polygon class=" (HAMLPNCN_03236)
hypothetical protein" points="180,40 189,10 189,70" fill="rgb(255,255,255)" fill-opacity="1.0" stroke="rgb(0,0,0)" stroke-width="2"  />
		</g>
		<g>
			<title> (HAMLPNCN_03237)
hypothetical protein</title>
			<polygon class=" (HAMLPNCN_03237)
hypothetical protein" points="190,40 204,10 204,70" fill="rgb(255,255,255)" fill-opacity="1.0" stroke="rgb(0,0,0)" stroke-width="2"  />
			<g>
				<title>Acetyltransf_1 (PF00583)
"Acetyltransferase (GNAT) family"</title>
				<polygon class="PF00583" points="193,40 199,28 203,28 203,52 199,52" stroke-linejoin="round" width="12" height="24" fill="rgb(121,183,50)" stroke="rgb(96,146,39)" stroke-width="1" opacity="0.75" />
			</g>
		</g>
		<g>
			<title> (HAMLPNCN_03238)
hypothetical protein</title>
			<polygon class=" (HAMLPNCN_03238)
hypothetical protein" points="206,40 216,10 216,70" fill="rgb(255,255,255)" fill-opacity="1.0" stroke="rgb(0,0,0)" stroke-width="2"  />
		</g>
		<g>
			<title> (HAMLPNCN_03239)
hypothetical protein</title>
			<polygon class=" (HAMLPNCN_03239)
hypothetical protein" points="217,40 223,10 223,70" fill="rgb(255,255,255)" fill-opacity="1.0" stroke="rgb(0,0,0)" stroke-width="2"  />
		</g>
		<g>
			<title> (HAMLPNCN_03240)
hypothetical protein</title>
			<polygon class=" (HAMLPNCN_03240)
hypothetical protein" points="223,40 237,10 237,70" fill="rgb(255,255,255)" fill-opacity="1.0" stroke="rgb(0,0,0)" stroke-width="2"  />
			<g>
				<title>DUF4871 (PF16167)
"Domain of unknown function (DUF4871)"</title>
				<polygon class="PF16167" points="226,40 232,28 234,28 234,52 232,52" stroke-linejoin="round" width="11" height="24" fill="rgb(198,98,115)" stroke="rgb(158,78,91)" stroke-width="1" opacity="0.75" />
			</g>
		</g>
		<g>
			<title> (HAMLPNCN_03241)
hypothetical protein</title>
			<polygon class=" (HAMLPNCN_03241)
hypothetical protein" points="241,40 261,10 261,70" fill="rgb(255,255,255)" fill-opacity="1.0" stroke="rgb(0,0,0)" stroke-width="2"  />
		</g>
		<g>
			<title>resA_6 (HAMLPNCN_03242)
Thiol-disulfide oxidoreductase ResA</title>
			<polygon class="resA_6 (HAMLPNCN_03242)
Thiol-disulfide oxidoreductase ResA" points="274,10 290,40 274,70" fill="rgb(255,255,255)" fill-opacity="1.0" stroke="rgb(0,0,0)" stroke-width="2"  />
			<g>
				<title>AhpC-TSA (PF00578)
"AhpC/TSA family"</title>
				<polygon class="PF00578" points="274,28 280,28 287,40 287,40 280,52 274,52" stroke-linejoin="round" width="13" height="24" fill="rgb(166,71,190)" stroke="rgb(132,56,152)" stroke-width="1" opacity="0.75" />
			</g>
		</g>
		<g>
			<title>sqhC (HAMLPNCN_03243)
Sporulenol synthase</title>
			<polygon class="sqhC (HAMLPNCN_03243)
Sporulenol synthase" points="343,10 359,40 343,70" fill="rgb(255,255,255)" fill-opacity="1.0" stroke="rgb(0,0,0)" stroke-width="2"  />
			<g>
				<title>SQHop_cyclase_C (PF13243)
"Squalene-hopene cyclase C-terminal domain"</title>
				<polygon class="PF13243" points="343,28 349,28 355,40 349,52 343,52" stroke-linejoin="round" width="15" height="24" fill="rgb(191,58,201)" stroke="rgb(152,46,160)" stroke-width="1" opacity="0.75" />
			</g>
		</g>
		<g>
			<title> (HAMLPNCN_03244)
hypothetical protein</title>
			<polygon class=" (HAMLPNCN_03244)
hypothetical protein" points="368,10 375,40 368,70" fill="rgb(255,255,255)" fill-opacity="1.0" stroke="rgb(0,0,0)" stroke-width="2"  />
			<g>
				<title>DUF2642 (PF10842)
"Protein of unknown function (DUF2642)"</title>
				<polygon class="PF10842" points="368,28 369,28 372,40 369,52 368,52" stroke-linejoin="round" width="6" height="24" fill="rgb(204,85,172)" stroke="rgb(163,68,137)" stroke-width="1" opacity="0.75" />
			</g>
		</g>
		<g>
			<title> (HAMLPNCN_03245)
hypothetical protein</title>
			<polygon class=" (HAMLPNCN_03245)
hypothetical protein" points="376,10 405,40 376,70" fill="rgb(255,255,255)" fill-opacity="1.0" stroke="rgb(0,0,0)" stroke-width="2"  />
			<g>
				<title>Mn_catalase (PF05067)
"Manganese containing catalase"</title>
				<polygon class="PF05067" points="376,28 389,28 401,40 389,52 376,52" stroke-linejoin="round" width="29" height="24" fill="rgb(59,189,89)" stroke="rgb(47,151,71)" stroke-width="1" opacity="0.75" />
			</g>
		</g>
		<g>
			<title> (HAMLPNCN_03246)
hypothetical protein</title>
			<polygon class=" (HAMLPNCN_03246)
hypothetical protein" points="406,40 421,10 421,70" fill="rgb(255,255,255)" fill-opacity="1.0" stroke="rgb(0,0,0)" stroke-width="2"  />
			<g>
				<title>DMT_YdcZ (PF04657)
"Putative inner membrane exporter, YdcZ"</title>
				<polygon class="PF04657" points="409,40 415,28 421,28 421,52 415,52" stroke-linejoin="round" width="13" height="24" fill="rgb(63,139,178)" stroke="rgb(50,111,142)" stroke-width="1" opacity="0.75" />
			</g>
		</g>
		<g>
			<title>yeiL (HAMLPNCN_03247)
Regulatory protein YeiL</title>
			<polygon class="yeiL (HAMLPNCN_03247)
Regulatory protein YeiL" points="423,40 446,10 446,70" fill="rgb(255,255,255)" fill-opacity="1.0" stroke="rgb(0,0,0)" stroke-width="2"  />
			<g>
				<title>HTH_Crp_2 (PF13545)
"Crp-like helix-turn-helix domain"</title>
				<polygon class="PF13545" points="427,40 430,36 430,44" stroke-linejoin="round" width="7" height="24" fill="rgb(87,137,202)" stroke="rgb(69,109,161)" stroke-width="1" opacity="0.75" />
			</g>
			<g>
				<title>cNMP_binding (PF00027)
"Cyclic nucleotide-binding domain"</title>
				<polygon class="PF00027" points="434,31 436,28 442,28 442,52 436,52 434,49" stroke-linejoin="round" width="8" height="24" fill="rgb(138,95,204)" stroke="rgb(110,76,163)" stroke-width="1" opacity="0.75" />
			</g>
		</g>
		<g>
			<title> (HAMLPNCN_03248)
hypothetical protein</title>
			<polygon class=" (HAMLPNCN_03248)
hypothetical protein" points="446,40 460,10 460,70" fill="rgb(255,255,255)" fill-opacity="1.0" stroke="rgb(0,0,0)" stroke-width="2"  />
			<g>
				<title>DMT_YdcZ (PF04657)
"Putative inner membrane exporter, YdcZ"</title>
				<polygon class="PF04657" points="449,40 455,28 459,28 459,52 455,52" stroke-linejoin="round" width="13" height="24" fill="rgb(63,139,178)" stroke="rgb(50,111,142)" stroke-width="1" opacity="0.75" />
			</g>
		</g>
		<g>
			<title>nhaP2_2 (HAMLPNCN_03249)
K(+)/H(+) antiporter NhaP2</title>
			<polygon class="nhaP2_2 (HAMLPNCN_03249)
K(+)/H(+) antiporter NhaP2" points="484,40 504,10 504,70" fill="rgb(255,255,255)" fill-opacity="1.0" stroke="rgb(0,0,0)" stroke-width="2"  />
			<g>
				<title>TrkA_C (PF02080)
"TrkA-C domain"</title>
				<polygon class="PF02080" points="488,40 491,36 491,44" stroke-linejoin="round" width="6" height="24" fill="rgb(76,186,211)" stroke="rgb(60,148,168)" stroke-width="1" opacity="0.75" />
			</g>
			<g>
				<title>Na_H_Exchanger (PF00999)
"Sodium/hydrogen exchanger family"</title>
				<polygon class="PF00999" points="495,30 496,28 503,28 503,52 496,52 495,50" stroke-linejoin="round" width="8" height="24" fill="rgb(229,67,191)" stroke="rgb(183,53,152)" stroke-width="1" opacity="0.75" />
			</g>
		</g>
		<g>
			<title> (HAMLPNCN_03250)
hypothetical protein</title>
			<polygon class=" (HAMLPNCN_03250)
hypothetical protein" points="518,40 527,10 527,70" fill="rgb(255,255,255)" fill-opacity="1.0" stroke="rgb(0,0,0)" stroke-width="2"  />
		</g>
		<g>
			<title>trxB_2 (HAMLPNCN_03251)
Thioredoxin reductase</title>
			<polygon class="trxB_2 (HAMLPNCN_03251)
Thioredoxin reductase" points="541,40 570,10 570,70" fill="rgb(255,255,255)" fill-opacity="1.0" stroke="rgb(0,0,0)" stroke-width="2"  />
			<g>
				<title>Pyr_redox_2 (PF07992)
"Pyridine nucleotide-disulphide oxidoreductase"</title>
				<polygon class="PF07992" points="545,40 557,28 569,28 569,52 557,52" stroke-linejoin="round" width="27" height="24" fill="rgb(83,223,167)" stroke="rgb(66,178,133)" stroke-width="1" opacity="0.75" />
			</g>
		</g>
		<g>
			<title>ybiT_1 (HAMLPNCN_03252)
putative ABC transporter ATP-binding protein YbiT</title>
			<polygon class="ybiT_1 (HAMLPNCN_03252)
putative ABC transporter ATP-binding protein YbiT" points="574,25 595,25 595,10 625,40 595,70 595,55 574,55" fill="rgb(255,255,255)" fill-opacity="1.0" stroke="rgb(0,0,0)" stroke-width="2"  />
			<g>
				<title>ABC_tran (PF00005)
"ABC transporter"</title>
				<rect class="PF00005" x="575" y="28" stroke-linejoin="round" width="17" height="24" fill="rgb(129,201,63)" stroke="rgb(103,160,50)" stroke-width="1" opacity="0.75" />
			</g>
			<g>
				<title>ABC_tran_Xtn (PF12848)
"ABC transporter"</title>
				<rect class="PF12848" x="597" y="28" stroke-linejoin="round" width="8" height="24" fill="rgb(54,177,199)" stroke="rgb(43,141,159)" stroke-width="1" opacity="0.75" />
			</g>
			<g>
				<title>ABC_tran (PF00005)
"ABC transporter"</title>
				<polygon class="PF00005" points="608,28 609,28 620,39 620,41 609,52 608,52" stroke-linejoin="round" width="12" height="24" fill="rgb(129,201,63)" stroke="rgb(103,160,50)" stroke-width="1" opacity="0.75" />
			</g>
		</g>
		<g>
			<title> (HAMLPNCN_03253)
hypothetical protein</title>
			<polygon class=" (HAMLPNCN_03253)
hypothetical protein" points="631,10 652,40 631,70" fill="rgb(255,255,255)" fill-opacity="1.0" stroke="rgb(0,0,0)" stroke-width="2"  />
		</g>
		<g>
			<title>yfkO (HAMLPNCN_03254)
Putative NAD(P)H nitroreductase YfkO</title>
			<polygon class="yfkO (HAMLPNCN_03254)
Putative NAD(P)H nitroreductase YfkO" points="655,10 677,40 655,70" fill="rgb(255,255,255)" fill-opacity="1.0" stroke="rgb(0,0,0)" stroke-width="2"  />
			<g>
				<title>Nitroreductase (PF00881)
"Nitroreductase family"</title>
				<polygon class="PF00881" points="656,28 665,28 673,40 665,52 656,52" stroke-linejoin="round" width="18" height="24" fill="rgb(79,118,187)" stroke="rgb(63,94,149)" stroke-width="1" opacity="0.75" />
			</g>
		</g>
	</g>
</svg>
