<svg version="1.1" baseProfile="full" xmlns="http://www.w3.org/2000/svg" width="804.2" height="80">
	<g>
		<line x1="10" y1="40.0" x2="794.2" y2="40.0" style="stroke:rgb(70,70,70); stroke-width:3 "/>
		<g>
			<title>mshA_1 (DLMDDBDI_00986)
D-inositol-3-phosphate glycosyltransferase</title>
			<polygon class="mshA_1 (DLMDDBDI_00986)
D-inositol-3-phosphate glycosyltransferase" points="59,25 54,25 54,10 24,40 54,70 54,55 59,55" fill="rgb(255,255,255)" fill-opacity="1.0" stroke="rgb(0,0,0)" stroke-width="2"  />
			<g>
				<title>Glycos_transf_1 (PF00534)
"Glycosyl transferases group 1"</title>
				<polygon class="PF00534" points="28,40 40,28 42,28 42,52 40,52" stroke-linejoin="round" width="16" height="24" fill="rgb(228,92,150)" stroke="rgb(182,73,119)" stroke-width="1" opacity="0.75" />
			</g>
			<g>
				<title>Glyco_transf_4 (PF13439)
"Glycosyltransferase Family 4"</title>
				<rect class="PF13439" x="42" y="28" stroke-linejoin="round" width="14" height="24" fill="rgb(162,57,186)" stroke="rgb(129,45,148)" stroke-width="1" opacity="0.75" />
			</g>
		</g>
		<g>
			<title> (DLMDDBDI_00987)
hypothetical protein</title>
			<polygon class=" (DLMDDBDI_00987)
hypothetical protein" points="107,25 90,25 90,10 60,40 90,70 90,55 107,55" fill="rgb(255,255,255)" fill-opacity="1.0" stroke="rgb(0,0,0)" stroke-width="2"  />
			<g>
				<title>O-antigen_lig (PF13425)
"O-antigen ligase like membrane protein"</title>
				<polygon class="PF13425" points="64,40 76,28 106,28 106,52 76,52" stroke-linejoin="round" width="46" height="24" fill="rgb(171,226,58)" stroke="rgb(136,180,46)" stroke-width="1" opacity="0.75" />
			</g>
		</g>
		<g>
			<title> (DLMDDBDI_00988)
Phenylacetate-coenzyme A ligase</title>
			<polygon class=" (DLMDDBDI_00988)
Phenylacetate-coenzyme A ligase" points="115,25 130,25 130,10 160,40 130,70 130,55 115,55" fill="rgb(255,255,255)" fill-opacity="1.0" stroke="rgb(0,0,0)" stroke-width="2"  />
		</g>
		<g>
			<title>wecC_1 (DLMDDBDI_00989)
UDP-N-acetyl-D-mannosamine dehydrogenase</title>
			<polygon class="wecC_1 (DLMDDBDI_00989)
UDP-N-acetyl-D-mannosamine dehydrogenase" points="161,25 173,25 173,10 203,40 173,70 173,55 161,55" fill="rgb(255,255,255)" fill-opacity="1.0" stroke="rgb(0,0,0)" stroke-width="2"  />
			<g>
				<title>UDPG_MGDP_dh_N (PF03721)
"UDP-glucose/GDP-mannose dehydrogenase family, NAD binding domain"</title>
				<rect class="PF03721" x="161" y="28" stroke-linejoin="round" width="18" height="24" fill="rgb(156,194,58)" stroke="rgb(124,155,46)" stroke-width="1" opacity="0.75" />
			</g>
			<g>
				<title>UDPG_MGDP_dh (PF00984)
"UDP-glucose/GDP-mannose dehydrogenase family, central domain"</title>
				<polygon class="PF00984" points="180,28 187,28 188,29 188,51 187,52 180,52" stroke-linejoin="round" width="8" height="24" fill="rgb(69,189,184)" stroke="rgb(55,151,147)" stroke-width="1" opacity="0.75" />
			</g>
			<g>
				<title>UDPG_MGDP_dh_C (PF03720)
"UDP-glucose/GDP-mannose dehydrogenase family, UDP binding domain"</title>
				<polygon class="PF03720" points="192,33 199,40 192,47" stroke-linejoin="round" width="9" height="24" fill="rgb(221,130,74)" stroke="rgb(176,103,59)" stroke-width="1" opacity="0.75" />
			</g>
		</g>
		<g>
			<title>tagA_1 (DLMDDBDI_00990)
N-acetylglucosaminyldiphosphoundecaprenol N-acetyl-beta-D-mannosaminyltransferase</title>
			<polygon class="tagA_1 (DLMDDBDI_00990)
N-acetylglucosaminyldiphosphoundecaprenol N-acetyl-beta-D-mannosaminyltransferase" points="204,10 228,40 204,70" fill="rgb(255,255,255)" fill-opacity="1.0" stroke="rgb(0,0,0)" stroke-width="2"  />
			<g>
				<title>Glyco_tran_WecB (PF03808)
"Glycosyl transferase WecB/TagA/CpsF family"</title>
				<polygon class="PF03808" points="209,28 214,28 224,40 214,52 209,52" stroke-linejoin="round" width="16" height="24" fill="rgb(83,144,229)" stroke="rgb(66,115,183)" stroke-width="1" opacity="0.75" />
			</g>
		</g>
		<g>
			<title> (DLMDDBDI_00991)
hypothetical protein</title>
			<polygon class=" (DLMDDBDI_00991)
hypothetical protein" points="234,10 240,40 234,70" fill="rgb(255,255,255)" fill-opacity="1.0" stroke="rgb(0,0,0)" stroke-width="2"  />
		</g>
		<g>
			<title>nudC_2 (DLMDDBDI_00992)
NADH pyrophosphatase</title>
			<polygon class="nudC_2 (DLMDDBDI_00992)
NADH pyrophosphatase" points="241,10 257,40 241,70" fill="rgb(255,255,255)" fill-opacity="1.0" stroke="rgb(0,0,0)" stroke-width="2"  />
			<g>
				<title>NUDIX (PF00293)
"NUDIX domain"</title>
				<polygon class="PF00293" points="241,28 247,28 253,38 253,42 247,52 241,52" stroke-linejoin="round" width="12" height="24" fill="rgb(92,56,187)" stroke="rgb(73,44,149)" stroke-width="1" opacity="0.75" />
			</g>
		</g>
		<g>
			<title> (DLMDDBDI_00993)
hypothetical protein</title>
			<polygon class=" (DLMDDBDI_00993)
hypothetical protein" points="272,25 276,25 276,10 306,40 276,70 276,55 272,55" fill="rgb(255,255,255)" fill-opacity="1.0" stroke="rgb(0,0,0)" stroke-width="2"  />
		</g>
		<g>
			<title> (DLMDDBDI_00994)
hypothetical protein</title>
			<polygon class=" (DLMDDBDI_00994)
hypothetical protein" points="308,10 314,40 308,70" fill="rgb(255,255,255)" fill-opacity="1.0" stroke="rgb(0,0,0)" stroke-width="2"  />
		</g>
		<g>
			<title> (DLMDDBDI_00995)
hypothetical protein</title>
			<polygon class=" (DLMDDBDI_00995)
hypothetical protein" points="320,10 327,40 320,70" fill="rgb(255,255,255)" fill-opacity="1.0" stroke="rgb(0,0,0)" stroke-width="2"  />
		</g>
		<g>
			<title> (DLMDDBDI_00996)
hypothetical protein</title>
			<polygon class=" (DLMDDBDI_00996)
hypothetical protein" points="395,25 373,25 373,10 343,40 373,70 373,55 395,55" fill="rgb(255,255,255)" fill-opacity="1.0" stroke="rgb(0,0,0)" stroke-width="2"  />
			<g>
				<title>Nitroreductase (PF00881)
"Nitroreductase family"</title>
				<polygon class="PF00881" points="347,40 359,28 361,28 361,52 359,52" stroke-linejoin="round" width="17" height="24" fill="rgb(79,118,187)" stroke="rgb(63,94,149)" stroke-width="1" opacity="0.75" />
			</g>
			<g>
				<title>Nitroreductase (PF00881)
"Nitroreductase family"</title>
				<rect class="PF00881" x="371" y="28" stroke-linejoin="round" width="15" height="24" fill="rgb(79,118,187)" stroke="rgb(63,94,149)" stroke-width="1" opacity="0.75" />
			</g>
		</g>
		<g>
			<title> (DLMDDBDI_00997)
hypothetical protein</title>
			<polygon class=" (DLMDDBDI_00997)
hypothetical protein" points="459,25 425,25 425,10 395,40 425,70 425,55 459,55" fill="rgb(255,255,255)" fill-opacity="1.0" stroke="rgb(0,0,0)" stroke-width="2"  />
			<g>
				<title>YcaO (PF02624)
"YcaO cyclodehydratase, ATP-ad Mg2+-binding"</title>
				<polygon class="PF02624" points="399,40 411,28 433,28 433,52 411,52 399,40" stroke-linejoin="round" width="34" height="24" fill="rgb(76,84,185)" stroke="rgb(60,67,148)" stroke-width="1" opacity="0.75" />
			</g>
		</g>
		<g>
			<title> (DLMDDBDI_00998)
hypothetical protein</title>
			<polygon class=" (DLMDDBDI_00998)
hypothetical protein" points="524,25 490,25 490,10 460,40 490,70 490,55 524,55" fill="rgb(255,255,255)" fill-opacity="1.0" stroke="rgb(0,0,0)" stroke-width="2"  />
		</g>
		<g>
			<title> (DLMDDBDI_00999)
hypothetical protein</title>
			<polygon class=" (DLMDDBDI_00999)
hypothetical protein" points="527,40 535,10 535,70" fill="rgb(255,255,255)" fill-opacity="1.0" stroke="rgb(0,0,0)" stroke-width="2"  />
		</g>
		<g>
			<title> (DLMDDBDI_01000)
hypothetical protein</title>
			<polygon class=" (DLMDDBDI_01000)
hypothetical protein" points="551,10 567,40 551,70" fill="rgb(255,255,255)" fill-opacity="1.0" stroke="rgb(0,0,0)" stroke-width="2"  />
			<g>
				<title>3-dmu-9_3-mt (PF06983)
"3-demethylubiquinone-9 3-methyltransferase"</title>
				<polygon class="PF06983" points="551,28 557,28 563,38 563,42 557,52 551,52" stroke-linejoin="round" width="12" height="24" fill="rgb(64,57,201)" stroke="rgb(51,45,160)" stroke-width="1" opacity="0.75" />
			</g>
		</g>
		<g>
			<title> (DLMDDBDI_01001)
hypothetical protein</title>
			<polygon class=" (DLMDDBDI_01001)
hypothetical protein" points="576,10 590,40 576,70" fill="rgb(255,255,255)" fill-opacity="1.0" stroke="rgb(0,0,0)" stroke-width="2"  />
		</g>
		<g>
			<title> (DLMDDBDI_01002)
hypothetical protein</title>
			<polygon class=" (DLMDDBDI_01002)
hypothetical protein" points="591,40 597,10 597,70" fill="rgb(255,255,255)" fill-opacity="1.0" stroke="rgb(0,0,0)" stroke-width="2"  />
		</g>
		<g>
			<title> (DLMDDBDI_01003)
hypothetical protein</title>
			<polygon class=" (DLMDDBDI_01003)
hypothetical protein" points="638,25 633,25 633,10 603,40 633,70 633,55 638,55" fill="rgb(255,255,255)" fill-opacity="1.0" stroke="rgb(0,0,0)" stroke-width="2"  />
			<g>
				<title>PS_pyruv_trans (PF04230)
"Polysaccharide pyruvyl transferase"</title>
				<polygon class="PF04230" points="609,38 619,28 636,28 636,52 619,52 609,42" stroke-linejoin="round" width="27" height="24" fill="rgb(211,93,213)" stroke="rgb(168,74,170)" stroke-width="1" opacity="0.75" />
			</g>
		</g>
		<g>
			<title> (DLMDDBDI_01004)
hypothetical protein</title>
			<polygon class=" (DLMDDBDI_01004)
hypothetical protein" points="689,25 668,25 668,10 638,40 668,70 668,55 689,55" fill="rgb(255,255,255)" fill-opacity="1.0" stroke="rgb(0,0,0)" stroke-width="2"  />
			<g>
				<title>Polysacc_synt_C (PF14667)
"Polysaccharide biosynthesis C-terminal domain"</title>
				<polygon class="PF14667" points="642,40 653,29 653,51" stroke-linejoin="round" width="14" height="24" fill="rgb(222,92,150)" stroke="rgb(177,73,120)" stroke-width="1" opacity="0.75" />
			</g>
			<g>
				<title>Polysacc_synt (PF01943)
"Polysaccharide biosynthesis protein"</title>
				<rect class="PF01943" x="659" y="28" stroke-linejoin="round" width="30" height="24" fill="rgb(71,213,101)" stroke="rgb(56,170,80)" stroke-width="1" opacity="0.75" />
			</g>
		</g>
		<g>
			<title>tagA_2 (DLMDDBDI_01005)
N-acetylglucosaminyldiphosphoundecaprenol N-acetyl-beta-D-mannosaminyltransferase</title>
			<polygon class="tagA_2 (DLMDDBDI_01005)
N-acetylglucosaminyldiphosphoundecaprenol N-acetyl-beta-D-mannosaminyltransferase" points="690,40 714,10 714,70" fill="rgb(255,255,255)" fill-opacity="1.0" stroke="rgb(0,0,0)" stroke-width="2"  />
			<g>
				<title>Glyco_tran_WecB (PF03808)
"Glycosyl transferase WecB/TagA/CpsF family"</title>
				<polygon class="PF03808" points="694,40 704,28 707,28 707,52 704,52" stroke-linejoin="round" width="16" height="24" fill="rgb(83,144,229)" stroke="rgb(66,115,183)" stroke-width="1" opacity="0.75" />
			</g>
		</g>
		<g>
			<title> (DLMDDBDI_01006)
hypothetical protein</title>
			<polygon class=" (DLMDDBDI_01006)
hypothetical protein" points="782,25 748,25 748,10 718,40 748,70 748,55 782,55" fill="rgb(255,255,255)" fill-opacity="1.0" stroke="rgb(0,0,0)" stroke-width="2"  />
			<g>
				<title>SH3_3 (PF08239)
"Bacterial SH3 domain"</title>
				<polygon class="PF08239" points="722,40 725,37 725,43" stroke-linejoin="round" width="6" height="24" fill="rgb(109,88,194)" stroke="rgb(87,70,155)" stroke-width="1" opacity="0.75" />
			</g>
			<g>
				<title>Glucosaminidase (PF01832)
"Mannosyl-glycoprotein endo-beta-N-acetylglucosaminidase"</title>
				<polygon class="PF01832" points="727,35 734,28 738,28 738,52 734,52 727,45" stroke-linejoin="round" width="11" height="24" fill="rgb(170,195,97)" stroke="rgb(136,156,77)" stroke-width="1" opacity="0.75" />
			</g>
			<g>
				<title>SLH (PF00395)
"S-layer homology domain"</title>
				<rect class="PF00395" x="768" y="28" stroke-linejoin="round" width="4" height="24" fill="rgb(106,215,138)" stroke="rgb(84,172,110)" stroke-width="1" opacity="0.75" />
			</g>
			<g>
				<title>SLH (PF00395)
"S-layer homology domain"</title>
				<rect class="PF00395" x="775" y="28" stroke-linejoin="round" width="4" height="24" fill="rgb(106,215,138)" stroke="rgb(84,172,110)" stroke-width="1" opacity="0.75" />
			</g>
		</g>
	</g>
</svg>
