<svg version="1.1" baseProfile="full" xmlns="http://www.w3.org/2000/svg" width="490.73333333333335" height="80">
	<g>
		<line x1="10" y1="40.0" x2="480.73333333333335" y2="40.0" style="stroke:rgb(70,70,70); stroke-width:3 "/>
		<g>
			<title>dkgB (PPIKFOGO_00852)
2,5-diketo-D-gluconic acid reductase B</title>
			<polygon class="dkgB (PPIKFOGO_00852)
2,5-diketo-D-gluconic acid reductase B" points="10,10 31,40 10,70" fill="rgb(255,255,255)" fill-opacity="1.0" stroke="rgb(0,0,0)" stroke-width="2"  />
			<g>
				<title>Aldo_ket_red (PF00248)
"Aldo/keto reductase family"</title>
				<polygon class="PF00248" points="11,28 19,28 27,40 19,52 11,52" stroke-linejoin="round" width="19" height="24" fill="rgb(225,205,58)" stroke="rgb(180,164,46)" stroke-width="1" opacity="0.75" />
			</g>
		</g>
		<g>
			<title> (PPIKFOGO_00853)
hypothetical protein</title>
			<polygon class=" (PPIKFOGO_00853)
hypothetical protein" points="47,10 71,40 47,70" fill="rgb(255,255,255)" fill-opacity="1.0" stroke="rgb(0,0,0)" stroke-width="2"  />
			<g>
				<title>PAS_4 (PF08448)
"PAS fold"</title>
				<rect class="PF08448" x="47" y="28" stroke-linejoin="round" width="10" height="24" fill="rgb(50,90,192)" stroke="rgb(40,71,153)" stroke-width="1" opacity="0.75" />
			</g>
		</g>
		<g>
			<title>yflH_2 (PPIKFOGO_00854)
putative protein YflH</title>
			<polygon class="yflH_2 (PPIKFOGO_00854)
putative protein YflH" points="74,40 84,10 84,70" fill="rgb(255,255,255)" fill-opacity="1.0" stroke="rgb(0,0,0)" stroke-width="2"  />
			<g>
				<title>DUF3243 (PF11588)
"Protein of unknown function (DUF3243)"</title>
				<polygon class="PF11588" points="77,40 81,28 81,28 81,52 81,52" stroke-linejoin="round" width="7" height="24" fill="rgb(75,214,128)" stroke="rgb(60,171,102)" stroke-width="1" opacity="0.75" />
			</g>
		</g>
		<g>
			<title> (PPIKFOGO_00855)
hypothetical protein</title>
			<polygon class=" (PPIKFOGO_00855)
hypothetical protein" points="91,10 97,40 91,70" fill="rgb(255,255,255)" fill-opacity="1.0" stroke="rgb(0,0,0)" stroke-width="2"  />
			<g>
				<title>YjzC (PF14168)
"YjzC-like protein"</title>
				<polygon class="PF14168" points="91,28 91,28 94,40 91,52 91,52" stroke-linejoin="round" width="5" height="24" fill="rgb(96,141,215)" stroke="rgb(76,112,172)" stroke-width="1" opacity="0.75" />
			</g>
		</g>
		<g>
			<title>lysC (PPIKFOGO_00856)
Aspartokinase</title>
			<polygon class="lysC (PPIKFOGO_00856)
Aspartokinase" points="139,25 129,25 129,10 99,40 129,70 129,55 139,55" fill="rgb(255,255,255)" fill-opacity="1.0" stroke="rgb(0,0,0)" stroke-width="2"  />
			<g>
				<title>AA_kinase (PF00696)
"Amino acid kinase family"</title>
				<rect class="PF00696" x="116" y="28" stroke-linejoin="round" width="22" height="24" fill="rgb(148,78,224)" stroke="rgb(118,62,179)" stroke-width="1" opacity="0.75" />
			</g>
		</g>
		<g>
			<title>iucC (PPIKFOGO_00857)
Aerobactin synthase</title>
			<polygon class="iucC (PPIKFOGO_00857)
Aerobactin synthase" points="200,25 170,25 170,10 140,40 170,70 170,55 200,55" fill="rgb(255,255,255)" fill-opacity="1.0" stroke="rgb(0,0,0)" stroke-width="2"  />
			<g>
				<title>FhuF (PF06276)
"Ferric iron reductase FhuF-like transporter"</title>
				<polygon class="PF06276" points="144,40 156,28 158,28 158,52 156,52" stroke-linejoin="round" width="16" height="24" fill="rgb(76,151,221)" stroke="rgb(60,120,176)" stroke-width="1" opacity="0.75" />
			</g>
			<g>
				<title>IucA_IucC (PF04183)
"IucA / IucC family"</title>
				<rect class="PF04183" x="161" y="28" stroke-linejoin="round" width="25" height="24" fill="rgb(221,104,121)" stroke="rgb(176,83,96)" stroke-width="1" opacity="0.75" />
			</g>
		</g>
		<g>
			<title>iucD_1 (PPIKFOGO_00858)
L-lysine N6-monooxygenase</title>
			<polygon class="iucD_1 (PPIKFOGO_00858)
L-lysine N6-monooxygenase" points="245,25 231,25 231,10 201,40 231,70 231,55 245,55" fill="rgb(255,255,255)" fill-opacity="1.0" stroke="rgb(0,0,0)" stroke-width="2"  />
			<g>
				<title>K_oxygenase (PF13434)
"L-lysine 6-monooxygenase (NADPH-requiring)"</title>
				<polygon class="PF13434" points="211,34 217,28 245,28 245,52 217,52 211,46" stroke-linejoin="round" width="34" height="24" fill="rgb(81,213,119)" stroke="rgb(64,170,95)" stroke-width="1" opacity="0.75" />
			</g>
		</g>
		<g>
			<title>iucB (PPIKFOGO_00859)
N(6)-hydroxylysine O-acetyltransferase</title>
			<polygon class="iucB (PPIKFOGO_00859)
N(6)-hydroxylysine O-acetyltransferase" points="245,40 264,10 264,70" fill="rgb(255,255,255)" fill-opacity="1.0" stroke="rgb(0,0,0)" stroke-width="2"  />
			<g>
				<title>Acetyltransf_8 (PF13523)
"Acetyltransferase (GNAT) domain"</title>
				<polygon class="PF13523" points="249,40 257,28 261,28 261,52 257,52" stroke-linejoin="round" width="14" height="24" fill="rgb(106,224,203)" stroke="rgb(84,179,162)" stroke-width="1" opacity="0.75" />
			</g>
		</g>
		<g>
			<title>iucA (PPIKFOGO_00860)
N(2)-citryl-N(6)-acetyl-N(6)-hydroxylysine synthase</title>
			<polygon class="iucA (PPIKFOGO_00860)
N(2)-citryl-N(6)-acetyl-N(6)-hydroxylysine synthase" points="322,25 294,25 294,10 264,40 294,70 294,55 322,55" fill="rgb(255,255,255)" fill-opacity="1.0" stroke="rgb(0,0,0)" stroke-width="2"  />
			<g>
				<title>FhuF (PF06276)
"Ferric iron reductase FhuF-like transporter"</title>
				<polygon class="PF06276" points="268,40 280,28 281,28 281,52 280,52" stroke-linejoin="round" width="15" height="24" fill="rgb(76,151,221)" stroke="rgb(60,120,176)" stroke-width="1" opacity="0.75" />
			</g>
			<g>
				<title>IucA_IucC (PF04183)
"IucA / IucC family"</title>
				<rect class="PF04183" x="285" y="28" stroke-linejoin="round" width="23" height="24" fill="rgb(221,104,121)" stroke="rgb(176,83,96)" stroke-width="1" opacity="0.75" />
			</g>
		</g>
		<g>
			<title>ddc (PPIKFOGO_00861)
L-2,4-diaminobutyrate decarboxylase</title>
			<polygon class="ddc (PPIKFOGO_00861)
L-2,4-diaminobutyrate decarboxylase" points="372,25 352,25 352,10 322,40 352,70 352,55 372,55" fill="rgb(255,255,255)" fill-opacity="1.0" stroke="rgb(0,0,0)" stroke-width="2"  />
			<g>
				<title>Pyridoxal_deC (PF00282)
"Pyridoxal-dependent decarboxylase conserved domain"</title>
				<polygon class="PF00282" points="329,37 338,28 366,28 366,52 338,52 329,43" stroke-linejoin="round" width="37" height="24" fill="rgb(100,218,166)" stroke="rgb(80,174,132)" stroke-width="1" opacity="0.75" />
			</g>
		</g>
		<g>
			<title>dat_1 (PPIKFOGO_00862)
Diaminobutyrate--2-oxoglutarate aminotransferase</title>
			<polygon class="dat_1 (PPIKFOGO_00862)
Diaminobutyrate--2-oxoglutarate aminotransferase" points="418,25 403,25 403,10 373,40 403,70 403,55 418,55" fill="rgb(255,255,255)" fill-opacity="1.0" stroke="rgb(0,0,0)" stroke-width="2"  />
			<g>
				<title>Aminotran_3 (PF00202)
"Aminotransferase class-III"</title>
				<polygon class="PF00202" points="377,40 389,28 415,28 415,52 389,52" stroke-linejoin="round" width="42" height="24" fill="rgb(49,163,189)" stroke="rgb(39,130,151)" stroke-width="1" opacity="0.75" />
			</g>
		</g>
		<g>
			<title>nlhH (PPIKFOGO_00863)
Carboxylesterase NlhH</title>
			<polygon class="nlhH (PPIKFOGO_00863)
Carboxylesterase NlhH" points="458,25 457,25 457,10 427,40 457,70 457,55 458,55" fill="rgb(255,255,255)" fill-opacity="1.0" stroke="rgb(0,0,0)" stroke-width="2"  />
			<g>
				<title>Abhydrolase_3 (PF07859)
"alpha/beta hydrolase fold"</title>
				<polygon class="PF07859" points="431,40 443,28 449,28 449,52 443,52" stroke-linejoin="round" width="20" height="24" fill="rgb(183,51,179)" stroke="rgb(146,40,143)" stroke-width="1" opacity="0.75" />
			</g>
		</g>
		<g>
			<title> (PPIKFOGO_00864)
hypothetical protein</title>
			<polygon class=" (PPIKFOGO_00864)
hypothetical protein" points="459,40 480,10 480,70" fill="rgb(255,255,255)" fill-opacity="1.0" stroke="rgb(0,0,0)" stroke-width="2"  />
			<g>
				<title>Acetyltransf_8 (PF13523)
"Acetyltransferase (GNAT) domain"</title>
				<polygon class="PF13523" points="463,40 472,28 477,28 477,52 472,52 463,40" stroke-linejoin="round" width="14" height="24" fill="rgb(106,224,203)" stroke="rgb(84,179,162)" stroke-width="1" opacity="0.75" />
			</g>
		</g>
	</g>
</svg>
