<svg version="1.1" baseProfile="full" xmlns="http://www.w3.org/2000/svg" width="748.7666666666667" height="80">
	<g>
		<line x1="10" y1="40.0" x2="738.7666666666667" y2="40.0" style="stroke:rgb(70,70,70); stroke-width:3 "/>
		<g>
			<title> (PPJPJCPL_03747)
hypothetical protein</title>
			<polygon class=" (PPJPJCPL_03747)
hypothetical protein" points="15,10 43,40 15,70" fill="rgb(255,255,255)" fill-opacity="1.0" stroke="rgb(0,0,0)" stroke-width="2"  />
			<g>
				<title>AP_endonuc_2 (PF01261)
"Xylose isomerase-like TIM barrel"</title>
				<polygon class="PF01261" points="17,28 27,28 38,39 38,41 27,52 17,52" stroke-linejoin="round" width="21" height="24" fill="rgb(69,222,207)" stroke="rgb(55,177,165)" stroke-width="1" opacity="0.75" />
			</g>
		</g>
		<g>
			<title> (PPJPJCPL_03748)
hypothetical protein</title>
			<polygon class=" (PPJPJCPL_03748)
hypothetical protein" points="45,25 50,25 50,10 80,40 50,70 50,55 45,55" fill="rgb(255,255,255)" fill-opacity="1.0" stroke="rgb(0,0,0)" stroke-width="2"  />
			<g>
				<title>GFO_IDH_MocA (PF01408)
"Oxidoreductase family, NAD-binding Rossmann fold"</title>
				<rect class="PF01408" x="47" y="28" stroke-linejoin="round" width="11" height="24" fill="rgb(76,117,190)" stroke="rgb(60,93,152)" stroke-width="1" opacity="0.75" />
			</g>
			<g>
				<title>GFO_IDH_MocA_C (PF02894)
"Oxidoreductase family, C-terminal alpha/beta domain"</title>
				<polygon class="PF02894" points="60,28 64,28 71,35 71,45 64,52 60,52" stroke-linejoin="round" width="11" height="24" fill="rgb(195,223,82)" stroke="rgb(155,178,65)" stroke-width="1" opacity="0.75" />
			</g>
		</g>
		<g>
			<title> (PPJPJCPL_03749)
hypothetical protein</title>
			<polygon class=" (PPJPJCPL_03749)
hypothetical protein" points="94,25 104,25 104,10 134,40 104,70 104,55 94,55" fill="rgb(255,255,255)" fill-opacity="1.0" stroke="rgb(0,0,0)" stroke-width="2"  />
			<g>
				<title>HTH_3 (PF01381)
"Helix-turn-helix"</title>
				<rect class="PF01381" x="94" y="28" stroke-linejoin="round" width="5" height="24" fill="rgb(105,79,202)" stroke="rgb(83,63,161)" stroke-width="1" opacity="0.75" />
			</g>
		</g>
		<g>
			<title>nprB (PPJPJCPL_03750)
Neutral protease B</title>
			<polygon class="nprB (PPJPJCPL_03750)
Neutral protease B" points="191,25 166,25 166,10 136,40 166,70 166,55 191,55" fill="rgb(255,255,255)" fill-opacity="1.0" stroke="rgb(0,0,0)" stroke-width="2"  />
			<g>
				<title>Peptidase_M4_C (PF02868)
"Thermolysin metallopeptidase, alpha-helical domain"</title>
				<polygon class="PF02868" points="140,40 152,28 152,28 152,52 152,52" stroke-linejoin="round" width="16" height="24" fill="rgb(184,92,211)" stroke="rgb(147,73,168)" stroke-width="1" opacity="0.75" />
			</g>
			<g>
				<title>Peptidase_M4 (PF01447)
"Thermolysin metallopeptidase, catalytic domain"</title>
				<polygon class="PF01447" points="152,28 152,28 167,28 167,52 152,52 152,52" stroke-linejoin="round" width="15" height="24" fill="rgb(71,102,203)" stroke="rgb(56,81,162)" stroke-width="1" opacity="0.75" />
			</g>
			<g>
				<title>PepSY (PF03413)
"Peptidase propeptide and YPEB domain"</title>
				<rect class="PF03413" x="168" y="28" stroke-linejoin="round" width="7" height="24" fill="rgb(127,66,203)" stroke="rgb(101,52,162)" stroke-width="1" opacity="0.75" />
			</g>
			<g>
				<title>FTP (PF07504)
"Fungalysin/Thermolysin Propeptide Motif"</title>
				<rect class="PF07504" x="177" y="28" stroke-linejoin="round" width="5" height="24" fill="rgb(225,91,194)" stroke="rgb(180,72,155)" stroke-width="1" opacity="0.75" />
			</g>
		</g>
		<g>
			<title> (PPJPJCPL_03751)
hypothetical protein</title>
			<polygon class=" (PPJPJCPL_03751)
hypothetical protein" points="193,40 212,10 212,70" fill="rgb(255,255,255)" fill-opacity="1.0" stroke="rgb(0,0,0)" stroke-width="2"  />
			<g>
				<title>Peptidase_M73 (PF12389)
"Camelysin metallo-endopeptidase"</title>
				<polygon class="PF12389" points="197,40 205,28 212,28 212,52 205,52" stroke-linejoin="round" width="19" height="24" fill="rgb(181,162,76)" stroke="rgb(144,129,60)" stroke-width="1" opacity="0.75" />
			</g>
		</g>
		<g>
			<title>sipW_3 (PPJPJCPL_03752)
Signal peptidase I W</title>
			<polygon class="sipW_3 (PPJPJCPL_03752)
Signal peptidase I W" points="215,40 233,10 233,70" fill="rgb(255,255,255)" fill-opacity="1.0" stroke="rgb(0,0,0)" stroke-width="2"  />
			<g>
				<title>Peptidase_S24 (PF00717)
"Peptidase S24-like"</title>
				<polygon class="PF00717" points="222,35 226,28 228,28 228,52 226,52 222,45" stroke-linejoin="round" width="6" height="24" fill="rgb(180,76,105)" stroke="rgb(144,60,83)" stroke-width="1" opacity="0.75" />
			</g>
		</g>
		<g>
			<title> (PPJPJCPL_03753)
hypothetical protein</title>
			<polygon class=" (PPJPJCPL_03753)
hypothetical protein" points="233,40 262,10 262,70" fill="rgb(255,255,255)" fill-opacity="1.0" stroke="rgb(0,0,0)" stroke-width="2"  />
			<g>
				<title>DUF4047 (PF13256)
"Domain of unknown function (DUF4047)"</title>
				<polygon class="PF13256" points="248,29 249,28 259,28 259,52 249,52 248,51" stroke-linejoin="round" width="11" height="24" fill="rgb(219,128,59)" stroke="rgb(175,102,47)" stroke-width="1" opacity="0.75" />
			</g>
		</g>
		<g>
			<title>pepF1_3 (PPJPJCPL_03754)
Oligoendopeptidase F, plasmid</title>
			<polygon class="pepF1_3 (PPJPJCPL_03754)
Oligoendopeptidase F, plasmid" points="274,25 303,25 303,10 333,40 303,70 303,55 274,55" fill="rgb(255,255,255)" fill-opacity="1.0" stroke="rgb(0,0,0)" stroke-width="2"  />
			<g>
				<title>Peptidase_M3_N (PF08439)
"Oligopeptidase F"</title>
				<rect class="PF08439" x="285" y="28" stroke-linejoin="round" width="6" height="24" fill="rgb(115,69,196)" stroke="rgb(92,55,156)" stroke-width="1" opacity="0.75" />
			</g>
			<g>
				<title>Peptidase_M3 (PF01432)
"Peptidase family M3"</title>
				<polygon class="PF01432" points="294,28 317,28 329,40 317,52 294,52" stroke-linejoin="round" width="38" height="24" fill="rgb(56,183,126)" stroke="rgb(44,146,100)" stroke-width="1" opacity="0.75" />
			</g>
		</g>
		<g>
			<title>sqhC (PPJPJCPL_03755)
Sporulenol synthase</title>
			<polygon class="sqhC (PPJPJCPL_03755)
Sporulenol synthase" points="405,25 373,25 373,10 343,40 373,70 373,55 405,55" fill="rgb(255,255,255)" fill-opacity="1.0" stroke="rgb(0,0,0)" stroke-width="2"  />
			<g>
				<title>SQHop_cyclase_C (PF13243)
"Squalene-hopene cyclase C-terminal domain"</title>
				<polygon class="PF13243" points="347,40 359,28 374,28 374,52 359,52" stroke-linejoin="round" width="31" height="24" fill="rgb(191,58,201)" stroke="rgb(152,46,160)" stroke-width="1" opacity="0.75" />
			</g>
			<g>
				<title>SQHop_cyclase_N (PF13249)
"Squalene-hopene cyclase N-terminal domain"</title>
				<rect class="PF13249" x="376" y="28" stroke-linejoin="round" width="28" height="24" fill="rgb(88,190,89)" stroke="rgb(70,152,71)" stroke-width="1" opacity="0.75" />
			</g>
		</g>
		<g>
			<title> (PPJPJCPL_03756)
hypothetical protein</title>
			<polygon class=" (PPJPJCPL_03756)
hypothetical protein" points="409,25 417,25 417,10 447,40 417,70 417,55 409,55" fill="rgb(255,255,255)" fill-opacity="1.0" stroke="rgb(0,0,0)" stroke-width="2"  />
			<g>
				<title>DUF2515 (PF10720)
"Protein of unknown function (DUF2515)"</title>
				<polygon class="PF10720" points="413,28 430,28 442,40 430,52 413,52" stroke-linejoin="round" width="32" height="24" fill="rgb(66,168,216)" stroke="rgb(52,134,172)" stroke-width="1" opacity="0.75" />
			</g>
		</g>
		<g>
			<title>tetA (PPJPJCPL_03757)
Tetracycline resistance protein, class C</title>
			<polygon class="tetA (PPJPJCPL_03757)
Tetracycline resistance protein, class C" points="470,25 479,25 479,10 509,40 479,70 479,55 470,55" fill="rgb(255,255,255)" fill-opacity="1.0" stroke="rgb(0,0,0)" stroke-width="2"  />
			<g>
				<title>MFS_1 (PF07690)
"Major Facilitator Superfamily"</title>
				<polygon class="PF07690" points="471,28 492,28 502,38 502,42 492,52 471,52" stroke-linejoin="round" width="31" height="24" fill="rgb(193,224,74)" stroke="rgb(154,179,59)" stroke-width="1" opacity="0.75" />
			</g>
		</g>
		<g>
			<title> (PPJPJCPL_03758)
hypothetical protein</title>
			<polygon class=" (PPJPJCPL_03758)
hypothetical protein" points="518,10 525,40 518,70" fill="rgb(255,255,255)" fill-opacity="1.0" stroke="rgb(0,0,0)" stroke-width="2"  />
		</g>
		<g>
			<title> (PPJPJCPL_03759)
hypothetical protein</title>
			<polygon class=" (PPJPJCPL_03759)
hypothetical protein" points="541,25 569,25 569,10 599,40 569,70 569,55 541,55" fill="rgb(255,255,255)" fill-opacity="1.0" stroke="rgb(0,0,0)" stroke-width="2"  />
			<g>
				<title>Peptidase_M14 (PF00246)
"Zinc carboxypeptidase"</title>
				<rect class="PF00246" x="550" y="28" stroke-linejoin="round" width="15" height="24" fill="rgb(195,77,191)" stroke="rgb(156,61,152)" stroke-width="1" opacity="0.75" />
			</g>
		</g>
		<g>
			<title> (PPJPJCPL_03760)
hypothetical protein</title>
			<polygon class=" (PPJPJCPL_03760)
hypothetical protein" points="608,10 615,40 608,70" fill="rgb(255,255,255)" fill-opacity="1.0" stroke="rgb(0,0,0)" stroke-width="2"  />
		</g>
		<g>
			<title> (PPJPJCPL_03761)
hypothetical protein</title>
			<polygon class=" (PPJPJCPL_03761)
hypothetical protein" points="632,10 642,40 632,70" fill="rgb(255,255,255)" fill-opacity="1.0" stroke="rgb(0,0,0)" stroke-width="2"  />
			<g>
				<title>DUF3892 (PF13031)
"Protein of unknown function (DUF3892)"</title>
				<polygon class="PF13031" points="635,28 639,40 635,52" stroke-linejoin="round" width="6" height="24" fill="rgb(166,194,80)" stroke="rgb(132,155,64)" stroke-width="1" opacity="0.75" />
			</g>
		</g>
		<g>
			<title>tolB_2 (PPJPJCPL_03762)
Tol-Pal system protein TolB</title>
			<polygon class="tolB_2 (PPJPJCPL_03762)
Tol-Pal system protein TolB" points="682,25 678,25 678,10 648,40 678,70 678,55 682,55" fill="rgb(255,255,255)" fill-opacity="1.0" stroke="rgb(0,0,0)" stroke-width="2"  />
			<g>
				<title>PD40 (PF07676)
"WD40-like Beta Propeller Repeat"</title>
				<polygon class="PF07676" points="655,37 658,34 658,46 655,43" stroke-linejoin="round" width="3" height="24" fill="rgb(49,78,191)" stroke="rgb(39,62,152)" stroke-width="1" opacity="0.75" />
			</g>
		</g>
		<g>
			<title> (PPJPJCPL_03763)
hypothetical protein</title>
			<polygon class=" (PPJPJCPL_03763)
hypothetical protein" points="682,40 690,10 690,70" fill="rgb(255,255,255)" fill-opacity="1.0" stroke="rgb(0,0,0)" stroke-width="2"  />
		</g>
		<g>
			<title> (PPJPJCPL_03764)
hypothetical protein</title>
			<polygon class=" (PPJPJCPL_03764)
hypothetical protein" points="691,40 719,10 719,70" fill="rgb(255,255,255)" fill-opacity="1.0" stroke="rgb(0,0,0)" stroke-width="2"  />
		</g>
		<g>
			<title> (PPJPJCPL_03765)
hypothetical protein</title>
			<polygon class=" (PPJPJCPL_03765)
hypothetical protein" points="719,40 729,10 729,70" fill="rgb(255,255,255)" fill-opacity="1.0" stroke="rgb(0,0,0)" stroke-width="2"  />
			<g>
				<title>PadR (PF03551)
"Transcriptional regulator PadR-like family"</title>
				<polygon class="PF03551" points="722,40 726,28 728,28 728,52 726,52" stroke-linejoin="round" width="7" height="24" fill="rgb(210,176,95)" stroke="rgb(168,140,76)" stroke-width="1" opacity="0.75" />
			</g>
		</g>
	</g>
</svg>
