<svg version="1.1" baseProfile="full" xmlns="http://www.w3.org/2000/svg" width="818.2666666666667" height="80">
	<g>
		<line x1="10" y1="40.0" x2="808.2666666666667" y2="40.0" style="stroke:rgb(70,70,70); stroke-width:3 "/>
		<g>
			<title>tagU_2 (LECGHDDD_02394)
Polyisoprenyl-teichoic acid--peptidoglycan teichoic acid transferase TagU</title>
			<polygon class="tagU_2 (LECGHDDD_02394)
Polyisoprenyl-teichoic acid--peptidoglycan teichoic acid transferase TagU" points="56,25 55,25 55,10 25,40 55,70 55,55 56,55" fill="rgb(255,255,255)" fill-opacity="1.0" stroke="rgb(0,0,0)" stroke-width="2"  />
			<g>
				<title>LytR_cpsA_psr (PF03816)
"Cell envelope-related transcriptional attenuator domain"</title>
				<polygon class="PF03816" points="32,37 41,28 46,28 46,52 41,52 32,43" stroke-linejoin="round" width="14" height="24" fill="rgb(212,80,62)" stroke="rgb(169,64,49)" stroke-width="1" opacity="0.75" />
			</g>
		</g>
		<g>
			<title> (LECGHDDD_02395)
hypothetical protein</title>
			<polygon class=" (LECGHDDD_02395)
hypothetical protein" points="90,25 88,25 88,10 58,40 88,70 88,55 90,55" fill="rgb(255,255,255)" fill-opacity="1.0" stroke="rgb(0,0,0)" stroke-width="2"  />
			<g>
				<title>Metallophos (PF00149)
"Calcineurin-like phosphoesterase"</title>
				<polygon class="PF00149" points="65,37 74,28 85,28 85,52 74,52 65,43" stroke-linejoin="round" width="20" height="24" fill="rgb(181,197,58)" stroke="rgb(144,157,46)" stroke-width="1" opacity="0.75" />
			</g>
		</g>
		<g>
			<title> (LECGHDDD_02396)
hypothetical protein</title>
			<polygon class=" (LECGHDDD_02396)
hypothetical protein" points="126,25 121,25 121,10 91,40 121,70 121,55 126,55" fill="rgb(255,255,255)" fill-opacity="1.0" stroke="rgb(0,0,0)" stroke-width="2"  />
			<g>
				<title>NTP_transf_5 (PF14907)
"Uncharacterised nucleotidyltransferase"</title>
				<polygon class="PF14907" points="100,35 107,28 124,28 124,52 107,52 100,45" stroke-linejoin="round" width="24" height="24" fill="rgb(191,137,74)" stroke="rgb(152,109,59)" stroke-width="1" opacity="0.75" />
			</g>
		</g>
		<g>
			<title> (LECGHDDD_02397)
Putative multidrug export ATP-binding/permease protein</title>
			<polygon class=" (LECGHDDD_02397)
Putative multidrug export ATP-binding/permease protein" points="187,25 158,25 158,10 128,40 158,70 158,55 187,55" fill="rgb(255,255,255)" fill-opacity="1.0" stroke="rgb(0,0,0)" stroke-width="2"  />
			<g>
				<title>ABC_tran (PF00005)
"ABC transporter"</title>
				<polygon class="PF00005" points="136,36 144,28 150,28 150,52 144,52 136,44" stroke-linejoin="round" width="14" height="24" fill="rgb(129,201,63)" stroke="rgb(103,160,50)" stroke-width="1" opacity="0.75" />
			</g>
			<g>
				<title>ABC_membrane (PF00664)
"ABC transporter transmembrane region"</title>
				<rect class="PF00664" x="157" y="28" stroke-linejoin="round" width="27" height="24" fill="rgb(149,226,73)" stroke="rgb(119,180,58)" stroke-width="1" opacity="0.75" />
			</g>
		</g>
		<g>
			<title> (LECGHDDD_02398)
hypothetical protein</title>
			<polygon class=" (LECGHDDD_02398)
hypothetical protein" points="188,40 203,10 203,70" fill="rgb(255,255,255)" fill-opacity="1.0" stroke="rgb(0,0,0)" stroke-width="2"  />
			<g>
				<title>Peptidase_S24 (PF00717)
"Peptidase S24-like"</title>
				<polygon class="PF00717" points="193,36 197,28 200,28 200,52 197,52 193,44" stroke-linejoin="round" width="7" height="24" fill="rgb(180,76,105)" stroke="rgb(144,60,83)" stroke-width="1" opacity="0.75" />
			</g>
		</g>
		<g>
			<title> (LECGHDDD_02399)
hypothetical protein</title>
			<polygon class=" (LECGHDDD_02399)
hypothetical protein" points="202,40 211,10 211,70" fill="rgb(255,255,255)" fill-opacity="1.0" stroke="rgb(0,0,0)" stroke-width="2"  />
			<g>
				<title>PqqD (PF05402)
"Coenzyme PQQ synthesis protein D (PqqD)"</title>
				<polygon class="PF05402" points="205,40 208,30 208,50" stroke-linejoin="round" width="6" height="24" fill="rgb(124,62,188)" stroke="rgb(99,49,150)" stroke-width="1" opacity="0.75" />
			</g>
		</g>
		<g>
			<title> (LECGHDDD_02400)
hypothetical protein</title>
			<polygon class=" (LECGHDDD_02400)
hypothetical protein" points="211,40 236,10 236,70" fill="rgb(255,255,255)" fill-opacity="1.0" stroke="rgb(0,0,0)" stroke-width="2"  />
		</g>
		<g>
			<title> (LECGHDDD_02401)
hypothetical protein</title>
			<polygon class=" (LECGHDDD_02401)
hypothetical protein" points="237,40 242,10 242,70" fill="rgb(255,255,255)" fill-opacity="1.0" stroke="rgb(0,0,0)" stroke-width="2"  />
		</g>
		<g>
			<title>hepA (LECGHDDD_02402)
Heterocyst differentiation ATP-binding protein HepA</title>
			<polygon class="hepA (LECGHDDD_02402)
Heterocyst differentiation ATP-binding protein HepA" points="304,25 275,25 275,10 245,40 275,70 275,55 304,55" fill="rgb(255,255,255)" fill-opacity="1.0" stroke="rgb(0,0,0)" stroke-width="2"  />
			<g>
				<title>ABC_tran (PF00005)
"ABC transporter"</title>
				<polygon class="PF00005" points="252,37 261,28 266,28 266,52 261,52 252,43" stroke-linejoin="round" width="14" height="24" fill="rgb(129,201,63)" stroke="rgb(103,160,50)" stroke-width="1" opacity="0.75" />
			</g>
			<g>
				<title>ABC_membrane (PF00664)
"ABC transporter transmembrane region"</title>
				<rect class="PF00664" x="274" y="28" stroke-linejoin="round" width="28" height="24" fill="rgb(149,226,73)" stroke="rgb(119,180,58)" stroke-width="1" opacity="0.75" />
			</g>
		</g>
		<g>
			<title> (LECGHDDD_02403)
hypothetical protein</title>
			<polygon class=" (LECGHDDD_02403)
hypothetical protein" points="344,25 335,25 335,10 305,40 335,70 335,55 344,55" fill="rgb(255,255,255)" fill-opacity="1.0" stroke="rgb(0,0,0)" stroke-width="2"  />
			<g>
				<title>NTP_transf_5 (PF14907)
"Uncharacterised nucleotidyltransferase"</title>
				<polygon class="PF14907" points="315,34 321,28 339,28 339,52 321,52 315,46" stroke-linejoin="round" width="24" height="24" fill="rgb(191,137,74)" stroke="rgb(152,109,59)" stroke-width="1" opacity="0.75" />
			</g>
		</g>
		<g>
			<title> (LECGHDDD_02404)
hypothetical protein</title>
			<polygon class=" (LECGHDDD_02404)
hypothetical protein" points="343,40 359,10 359,70" fill="rgb(255,255,255)" fill-opacity="1.0" stroke="rgb(0,0,0)" stroke-width="2"  />
			<g>
				<title>Transglut_core3 (PF13471)
"Transglutaminase-like superfamily"</title>
				<polygon class="PF13471" points="346,40 352,28 356,28 356,52 352,52" stroke-linejoin="round" width="11" height="24" fill="rgb(63,111,179)" stroke="rgb(50,88,143)" stroke-width="1" opacity="0.75" />
			</g>
		</g>
		<g>
			<title> (LECGHDDD_02405)
hypothetical protein</title>
			<polygon class=" (LECGHDDD_02405)
hypothetical protein" points="360,40 369,10 369,70" fill="rgb(255,255,255)" fill-opacity="1.0" stroke="rgb(0,0,0)" stroke-width="2"  />
			<g>
				<title>PqqD (PF05402)
"Coenzyme PQQ synthesis protein D (PqqD)"</title>
				<polygon class="PF05402" points="363,40 366,31 366,49" stroke-linejoin="round" width="6" height="24" fill="rgb(124,62,188)" stroke="rgb(99,49,150)" stroke-width="1" opacity="0.75" />
			</g>
		</g>
		<g>
			<title> (LECGHDDD_02406)
hypothetical protein</title>
			<polygon class=" (LECGHDDD_02406)
hypothetical protein" points="401,25 400,25 400,10 370,40 400,70 400,55 401,55" fill="rgb(255,255,255)" fill-opacity="1.0" stroke="rgb(0,0,0)" stroke-width="2"  />
		</g>
		<g>
			<title> (LECGHDDD_02407)
hypothetical protein</title>
			<polygon class=" (LECGHDDD_02407)
hypothetical protein" points="404,40 408,10 408,70" fill="rgb(255,255,255)" fill-opacity="1.0" stroke="rgb(0,0,0)" stroke-width="2"  />
		</g>
		<g>
			<title> (LECGHDDD_02408)
hypothetical protein</title>
			<polygon class=" (LECGHDDD_02408)
hypothetical protein" points="474,25 439,25 439,10 409,40 439,70 439,55 474,55" fill="rgb(255,255,255)" fill-opacity="1.0" stroke="rgb(0,0,0)" stroke-width="2"  />
			<g>
				<title>Asn_synthase (PF00733)
"Asparagine synthase"</title>
				<polygon class="PF00733" points="416,37 425,28 449,28 449,52 425,52 416,43" stroke-linejoin="round" width="33" height="24" fill="rgb(97,201,176)" stroke="rgb(77,160,140)" stroke-width="1" opacity="0.75" />
			</g>
			<g>
				<title>GATase_7 (PF13537)
"Glutamine amidotransferase domain"</title>
				<rect class="PF13537" x="457" y="28" stroke-linejoin="round" width="11" height="24" fill="rgb(200,63,57)" stroke="rgb(160,50,45)" stroke-width="1" opacity="0.75" />
			</g>
		</g>
		<g>
			<title> (LECGHDDD_02409)
hypothetical protein</title>
			<polygon class=" (LECGHDDD_02409)
hypothetical protein" points="532,25 511,25 511,10 481,40 511,70 511,55 532,55" fill="rgb(255,255,255)" fill-opacity="1.0" stroke="rgb(0,0,0)" stroke-width="2"  />
			<g>
				<title>Polysacc_synt (PF01943)
"Polysaccharide biosynthesis protein"</title>
				<rect class="PF01943" x="504" y="28" stroke-linejoin="round" width="27" height="24" fill="rgb(71,213,101)" stroke="rgb(56,170,80)" stroke-width="1" opacity="0.75" />
			</g>
		</g>
		<g>
			<title> (LECGHDDD_02410)
hypothetical protein</title>
			<polygon class=" (LECGHDDD_02410)
hypothetical protein" points="537,40 540,10 540,70" fill="rgb(255,255,255)" fill-opacity="1.0" stroke="rgb(0,0,0)" stroke-width="2"  />
		</g>
		<g>
			<title> (LECGHDDD_02411)
hypothetical protein</title>
			<polygon class=" (LECGHDDD_02411)
hypothetical protein" points="582,25 570,25 570,10 540,40 570,70 570,55 582,55" fill="rgb(255,255,255)" fill-opacity="1.0" stroke="rgb(0,0,0)" stroke-width="2"  />
			<g>
				<title>Glyco_hydro_88 (PF07470)
"Glycosyl Hydrolase Family 88"</title>
				<polygon class="PF07470" points="544,40 556,28 575,28 575,52 556,52" stroke-linejoin="round" width="33" height="24" fill="rgb(81,95,186)" stroke="rgb(64,76,148)" stroke-width="1" opacity="0.75" />
			</g>
		</g>
		<g>
			<title> (LECGHDDD_02412)
hypothetical protein</title>
			<polygon class=" (LECGHDDD_02412)
hypothetical protein" points="621,25 612,25 612,10 582,40 612,70 612,55 621,55" fill="rgb(255,255,255)" fill-opacity="1.0" stroke="rgb(0,0,0)" stroke-width="2"  />
			<g>
				<title>Glycos_transf_1 (PF00534)
"Glycosyl transferases group 1"</title>
				<polygon class="PF00534" points="586,40 598,28 599,28 599,52 598,52" stroke-linejoin="round" width="16" height="24" fill="rgb(228,92,150)" stroke="rgb(182,73,119)" stroke-width="1" opacity="0.75" />
			</g>
		</g>
		<g>
			<title>gtfA (LECGHDDD_02413)
UDP-N-acetylglucosamine--peptide N-acetylglucosaminyltransferase GtfA subunit</title>
			<polygon class="gtfA (LECGHDDD_02413)
UDP-N-acetylglucosamine--peptide N-acetylglucosaminyltransferase GtfA subunit" points="661,25 652,25 652,10 622,40 652,70 652,55 661,55" fill="rgb(255,255,255)" fill-opacity="1.0" stroke="rgb(0,0,0)" stroke-width="2"  />
			<g>
				<title>Glycos_transf_1 (PF00534)
"Glycosyl transferases group 1"</title>
				<polygon class="PF00534" points="626,40 638,28 639,28 639,52 638,52" stroke-linejoin="round" width="16" height="24" fill="rgb(228,92,150)" stroke="rgb(182,73,119)" stroke-width="1" opacity="0.75" />
			</g>
		</g>
		<g>
			<title> (LECGHDDD_02414)
hypothetical protein</title>
			<polygon class=" (LECGHDDD_02414)
hypothetical protein" points="700,25 692,25 692,10 662,40 692,70 692,55 700,55" fill="rgb(255,255,255)" fill-opacity="1.0" stroke="rgb(0,0,0)" stroke-width="2"  />
			<g>
				<title>PS_pyruv_trans (PF04230)
"Polysaccharide pyruvyl transferase"</title>
				<polygon class="PF04230" points="669,37 678,28 699,28 699,52 678,52 669,43" stroke-linejoin="round" width="30" height="24" fill="rgb(211,93,213)" stroke="rgb(168,74,170)" stroke-width="1" opacity="0.75" />
			</g>
		</g>
		<g>
			<title>arnC (LECGHDDD_02415)
Undecaprenyl-phosphate 4-deoxy-4-formamido-L-arabinose transferase</title>
			<polygon class="arnC (LECGHDDD_02415)
Undecaprenyl-phosphate 4-deoxy-4-formamido-L-arabinose transferase" points="735,25 731,25 731,10 701,40 731,70 731,55 735,55" fill="rgb(255,255,255)" fill-opacity="1.0" stroke="rgb(0,0,0)" stroke-width="2"  />
			<g>
				<title>Glycos_transf_2 (PF00535)
"Glycosyl transferase family 2"</title>
				<rect class="PF00535" x="718" y="28" stroke-linejoin="round" width="16" height="24" fill="rgb(224,122,96)" stroke="rgb(179,97,76)" stroke-width="1" opacity="0.75" />
			</g>
		</g>
		<g>
			<title> (LECGHDDD_02416)
hypothetical protein</title>
			<polygon class=" (LECGHDDD_02416)
hypothetical protein" points="777,25 766,25 766,10 736,40 766,70 766,55 777,55" fill="rgb(255,255,255)" fill-opacity="1.0" stroke="rgb(0,0,0)" stroke-width="2"  />
			<g>
				<title>Glycos_transf_1 (PF00534)
"Glycosyl transferases group 1"</title>
				<polygon class="PF00534" points="740,40 752,28 755,28 755,52 752,52" stroke-linejoin="round" width="16" height="24" fill="rgb(228,92,150)" stroke="rgb(182,73,119)" stroke-width="1" opacity="0.75" />
			</g>
		</g>
		<g>
			<title>dapH_3 (LECGHDDD_02417)
2,3,4,5-tetrahydropyridine-2,6-dicarboxylate N-acetyltransferase</title>
			<polygon class="dapH_3 (LECGHDDD_02417)
2,3,4,5-tetrahydropyridine-2,6-dicarboxylate N-acetyltransferase" points="777,40 797,10 797,70" fill="rgb(255,255,255)" fill-opacity="1.0" stroke="rgb(0,0,0)" stroke-width="2"  />
			<g>
				<title>Hexapep (PF00132)
"Bacterial transferase hexapeptide (six repeats)"</title>
				<polygon class="PF00132" points="781,40 783,37 783,43" stroke-linejoin="round" width="3" height="24" fill="rgb(89,131,202)" stroke="rgb(71,104,161)" stroke-width="1" opacity="0.75" />
			</g>
		</g>
	</g>
</svg>
