<svg version="1.1" baseProfile="full" xmlns="http://www.w3.org/2000/svg" width="436.46666666666664" height="80">
	<g>
		<line x1="10" y1="40.0" x2="426.46666666666664" y2="40.0" style="stroke:rgb(70,70,70); stroke-width:3 "/>
		<g>
			<title>mtlR (IBGHNMIF_00085)
Transcriptional regulator MtlR</title>
			<polygon class="mtlR (IBGHNMIF_00085)
Transcriptional regulator MtlR" points="10,25 49,25 49,10 79,40 49,70 49,55 10,55" fill="rgb(255,255,255)" fill-opacity="1.0" stroke="rgb(0,0,0)" stroke-width="2"  />
			<g>
				<title>HTH_11 (PF08279)
"HTH domain"</title>
				<rect class="PF08279" x="10" y="28" stroke-linejoin="round" width="5" height="24" fill="rgb(188,106,60)" stroke="rgb(150,84,48)" stroke-width="1" opacity="0.75" />
			</g>
			<g>
				<title>Mga (PF05043)
"Mga helix-turn-helix domain"</title>
				<rect class="PF05043" x="17" y="28" stroke-linejoin="round" width="8" height="24" fill="rgb(177,193,55)" stroke="rgb(141,154,44)" stroke-width="1" opacity="0.75" />
			</g>
			<g>
				<title>PRD (PF00874)
"PRD domain"</title>
				<rect class="PF00874" x="31" y="28" stroke-linejoin="round" width="8" height="24" fill="rgb(72,210,205)" stroke="rgb(57,168,164)" stroke-width="1" opacity="0.75" />
			</g>
			<g>
				<title>PRD (PF00874)
"PRD domain"</title>
				<rect class="PF00874" x="42" y="28" stroke-linejoin="round" width="8" height="24" fill="rgb(72,210,205)" stroke="rgb(57,168,164)" stroke-width="1" opacity="0.75" />
			</g>
			<g>
				<title>PTS_IIB (PF02302)
"PTS system, Lactose/Cellobiose specific IIB subunit"</title>
				<rect class="PF02302" x="52" y="28" stroke-linejoin="round" width="9" height="24" fill="rgb(106,212,56)" stroke="rgb(84,169,44)" stroke-width="1" opacity="0.75" />
			</g>
			<g>
				<title>PTS_EIIA_2 (PF00359)
"Phosphoenolpyruvate-dependent sugar phosphotransferase system, EIIA 2"</title>
				<polygon class="PF00359" points="64,29 75,40 64,51" stroke-linejoin="round" width="14" height="24" fill="rgb(115,83,186)" stroke="rgb(91,66,148)" stroke-width="1" opacity="0.75" />
			</g>
		</g>
		<g>
			<title>mtlF (IBGHNMIF_00086)
Mannitol-specific phosphotransferase enzyme IIA component</title>
			<polygon class="mtlF (IBGHNMIF_00086)
Mannitol-specific phosphotransferase enzyme IIA component" points="80,10 94,40 80,70" fill="rgb(255,255,255)" fill-opacity="1.0" stroke="rgb(0,0,0)" stroke-width="2"  />
			<g>
				<title>PTS_EIIA_2 (PF00359)
"Phosphoenolpyruvate-dependent sugar phosphotransferase system, EIIA 2"</title>
				<polygon class="PF00359" points="80,28 85,28 91,40 85,52 80,52" stroke-linejoin="round" width="14" height="24" fill="rgb(115,83,186)" stroke="rgb(91,66,148)" stroke-width="1" opacity="0.75" />
			</g>
		</g>
		<g>
			<title>mtlD_1 (IBGHNMIF_00087)
Mannitol-1-phosphate 5-dehydrogenase</title>
			<polygon class="mtlD_1 (IBGHNMIF_00087)
Mannitol-1-phosphate 5-dehydrogenase" points="94,25 102,25 102,10 132,40 102,70 102,55 94,55" fill="rgb(255,255,255)" fill-opacity="1.0" stroke="rgb(0,0,0)" stroke-width="2"  />
			<g>
				<title>Mannitol_dh (PF01232)
"Mannitol dehydrogenase Rossmann domain"</title>
				<rect class="PF01232" x="94" y="28" stroke-linejoin="round" width="12" height="24" fill="rgb(221,155,56)" stroke="rgb(176,124,44)" stroke-width="1" opacity="0.75" />
			</g>
			<g>
				<title>Mannitol_dh_C (PF08125)
"Mannitol dehydrogenase C-terminal domain"</title>
				<polygon class="PF08125" points="108,28 115,28 127,40 115,52 108,52" stroke-linejoin="round" width="22" height="24" fill="rgb(196,64,94)" stroke="rgb(156,51,75)" stroke-width="1" opacity="0.75" />
			</g>
		</g>
		<g>
			<title> (IBGHNMIF_00088)
hypothetical protein</title>
			<polygon class=" (IBGHNMIF_00088)
hypothetical protein" points="137,40 161,10 161,70" fill="rgb(255,255,255)" fill-opacity="1.0" stroke="rgb(0,0,0)" stroke-width="2"  />
			<g>
				<title>FhuF (PF06276)
"Ferric iron reductase FhuF-like transporter"</title>
				<polygon class="PF06276" points="141,40 151,28 155,28 155,52 151,52" stroke-linejoin="round" width="15" height="24" fill="rgb(76,151,221)" stroke="rgb(60,120,176)" stroke-width="1" opacity="0.75" />
			</g>
		</g>
		<g>
			<title>sbnF (IBGHNMIF_00089)
2-[(L-alanin-3-ylcarbamoyl)methyl]-3-(2- aminoethylcarbamoyl)-2-hydroxypropanoate synthase</title>
			<polygon class="sbnF (IBGHNMIF_00089)
2-[(L-alanin-3-ylcarbamoyl)methyl]-3-(2- aminoethylcarbamoyl)-2-hydroxypropanoate synthase" points="169,25 200,25 200,10 230,40 200,70 200,55 169,55" fill="rgb(255,255,255)" fill-opacity="1.0" stroke="rgb(0,0,0)" stroke-width="2"  />
			<g>
				<title>IucA_IucC (PF04183)
"IucA / IucC family"</title>
				<rect class="PF04183" x="184" y="28" stroke-linejoin="round" width="24" height="24" fill="rgb(221,104,121)" stroke="rgb(176,83,96)" stroke-width="1" opacity="0.75" />
			</g>
			<g>
				<title>FhuF (PF06276)
"Ferric iron reductase FhuF-like transporter"</title>
				<polygon class="PF06276" points="211,28 213,28 225,40 213,52 211,52" stroke-linejoin="round" width="16" height="24" fill="rgb(76,151,221)" stroke="rgb(60,120,176)" stroke-width="1" opacity="0.75" />
			</g>
		</g>
		<g>
			<title> (IBGHNMIF_00090)
hypothetical protein</title>
			<polygon class=" (IBGHNMIF_00090)
hypothetical protein" points="229,25 263,25 263,10 293,40 263,70 263,55 229,55" fill="rgb(255,255,255)" fill-opacity="1.0" stroke="rgb(0,0,0)" stroke-width="2"  />
			<g>
				<title>IucA_IucC (PF04183)
"IucA / IucC family"</title>
				<rect class="PF04183" x="249" y="28" stroke-linejoin="round" width="23" height="24" fill="rgb(221,104,121)" stroke="rgb(176,83,96)" stroke-width="1" opacity="0.75" />
			</g>
			<g>
				<title>FhuF (PF06276)
"Ferric iron reductase FhuF-like transporter"</title>
				<polygon class="PF06276" points="275,28 277,28 289,40 277,52 275,52" stroke-linejoin="round" width="16" height="24" fill="rgb(76,151,221)" stroke="rgb(60,120,176)" stroke-width="1" opacity="0.75" />
			</g>
		</g>
		<g>
			<title>sbnH (IBGHNMIF_00091)
2-[(L-alanin-3-ylcarbamoyl)methyl]-2- hydroxybutanedioate decarboxylase</title>
			<polygon class="sbnH (IBGHNMIF_00091)
2-[(L-alanin-3-ylcarbamoyl)methyl]-2- hydroxybutanedioate decarboxylase" points="294,25 303,25 303,10 333,40 303,70 303,55 294,55" fill="rgb(255,255,255)" fill-opacity="1.0" stroke="rgb(0,0,0)" stroke-width="2"  />
			<g>
				<title>Orn_Arg_deC_N (PF02784)
"Pyridoxal-dependent decarboxylase, pyridoxal binding domain"</title>
				<polygon class="PF02784" points="296,28 317,28 320,31 320,49 317,52 296,52" stroke-linejoin="round" width="24" height="24" fill="rgb(106,204,212)" stroke="rgb(84,163,169)" stroke-width="1" opacity="0.75" />
			</g>
		</g>
		<g>
			<title> (IBGHNMIF_00092)
hypothetical protein</title>
			<polygon class=" (IBGHNMIF_00092)
hypothetical protein" points="337,25 340,25 340,10 370,40 340,70 340,55 337,55" fill="rgb(255,255,255)" fill-opacity="1.0" stroke="rgb(0,0,0)" stroke-width="2"  />
		</g>
		<g>
			<title> (IBGHNMIF_00093)
hypothetical protein</title>
			<polygon class=" (IBGHNMIF_00093)
hypothetical protein" points="374,10 395,40 374,70" fill="rgb(255,255,255)" fill-opacity="1.0" stroke="rgb(0,0,0)" stroke-width="2"  />
			<g>
				<title>Lysozyme_like (PF13702)
"Lysozyme-like"</title>
				<polygon class="PF13702" points="379,28 383,28 392,40 383,52 379,52" stroke-linejoin="round" width="15" height="24" fill="rgb(186,63,104)" stroke="rgb(148,50,83)" stroke-width="1" opacity="0.75" />
			</g>
		</g>
		<g>
			<title> (IBGHNMIF_00094)
hypothetical protein</title>
			<polygon class=" (IBGHNMIF_00094)
hypothetical protein" points="397,40 410,10 410,70" fill="rgb(255,255,255)" fill-opacity="1.0" stroke="rgb(0,0,0)" stroke-width="2"  />
			<g>
				<title>DUF3021 (PF11457)
"Protein of unknown function (DUF3021)"</title>
				<polygon class="PF11457" points="400,40 405,28 410,28 410,52 405,52" stroke-linejoin="round" width="13" height="24" fill="rgb(193,225,90)" stroke="rgb(154,180,72)" stroke-width="1" opacity="0.75" />
			</g>
		</g>
		<g>
			<title> (IBGHNMIF_00095)
putative HTH-type transcriptional regulator</title>
			<polygon class=" (IBGHNMIF_00095)
putative HTH-type transcriptional regulator" points="411,40 426,10 426,70" fill="rgb(255,255,255)" fill-opacity="1.0" stroke="rgb(0,0,0)" stroke-width="2"  />
			<g>
				<title>LytTR (PF04397)
"LytTr DNA-binding domain"</title>
				<polygon class="PF04397" points="414,40 420,28 420,28 420,52 420,52" stroke-linejoin="round" width="9" height="24" fill="rgb(207,76,174)" stroke="rgb(165,60,139)" stroke-width="1" opacity="0.75" />
			</g>
		</g>
	</g>
</svg>
