<svg version="1.1" baseProfile="full" xmlns="http://www.w3.org/2000/svg" width="1389.3333333333333" height="80">
	<g>
		<line x1="10" y1="40.0" x2="1379.3333333333333" y2="40.0" style="stroke:rgb(70,70,70); stroke-width:3 "/>
		<g>
			<title> (FNGGOAEL_01093)
Aspartate aminotransferase</title>
			<polygon class=" (FNGGOAEL_01093)
Aspartate aminotransferase" points="19,25 28,25 28,10 58,40 28,70 28,55 19,55" fill="rgb(255,255,255)" fill-opacity="1.0" stroke="rgb(0,0,0)" stroke-width="2"  />
			<g>
				<title>Aminotran_1_2 (PF00155)
"Aminotransferase class I and II"</title>
				<polygon class="PF00155" points="22,28 42,28 54,40 42,52 22,52" stroke-linejoin="round" width="35" height="24" fill="rgb(89,113,198)" stroke="rgb(71,90,158)" stroke-width="1" opacity="0.75" />
			</g>
		</g>
		<g>
			<title>asnS (FNGGOAEL_01094)
Asparagine--tRNA ligase</title>
			<polygon class="asnS (FNGGOAEL_01094)
Asparagine--tRNA ligase" points="59,25 72,25 72,10 102,40 72,70 72,55 59,55" fill="rgb(255,255,255)" fill-opacity="1.0" stroke="rgb(0,0,0)" stroke-width="2"  />
			<g>
				<title>tRNA_anti-codon (PF01336)
"OB-fold nucleic acid binding domain"</title>
				<rect class="PF01336" x="60" y="28" stroke-linejoin="round" width="7" height="24" fill="rgb(215,103,173)" stroke="rgb(172,82,138)" stroke-width="1" opacity="0.75" />
			</g>
			<g>
				<title>tRNA-synt_2 (PF00152)
"tRNA synthetases class II (D, K and N)"</title>
				<polygon class="PF00152" points="69,28 85,28 97,40 85,52 69,52" stroke-linejoin="round" width="31" height="24" fill="rgb(90,71,190)" stroke="rgb(72,56,152)" stroke-width="1" opacity="0.75" />
			</g>
		</g>
		<g>
			<title>dnaD (FNGGOAEL_01095)
DNA replication protein DnaD</title>
			<polygon class="dnaD (FNGGOAEL_01095)
DNA replication protein DnaD" points="106,10 129,40 106,70" fill="rgb(255,255,255)" fill-opacity="1.0" stroke="rgb(0,0,0)" stroke-width="2"  />
			<g>
				<title>DnaB_2 (PF07261)
"Replication initiation and membrane attachment"</title>
				<polygon class="PF07261" points="118,31 125,40 125,40 118,49" stroke-linejoin="round" width="7" height="24" fill="rgb(136,193,85)" stroke="rgb(108,154,68)" stroke-width="1" opacity="0.75" />
			</g>
		</g>
		<g>
			<title>nth (FNGGOAEL_01096)
Endonuclease III</title>
			<polygon class="nth (FNGGOAEL_01096)
Endonuclease III" points="129,10 151,40 129,70" fill="rgb(255,255,255)" fill-opacity="1.0" stroke="rgb(0,0,0)" stroke-width="2"  />
			<g>
				<title>HhH-GPD (PF00730)
"HhH-GPD superfamily base excision DNA repair protein"</title>
				<polygon class="PF00730" points="132,28 138,28 145,37 145,43 138,52 132,52" stroke-linejoin="round" width="13" height="24" fill="rgb(190,78,115)" stroke="rgb(152,62,92)" stroke-width="1" opacity="0.75" />
			</g>
			<g>
				<title>EndIII_4Fe-2S (PF10576)
"Iron-sulfur binding domain of endonuclease III"</title>
				<polygon class="PF10576" points="147,40 147,40 147,40" stroke-linejoin="round" width="1" height="24" fill="rgb(203,113,64)" stroke="rgb(162,90,51)" stroke-width="1" opacity="0.75" />
			</g>
		</g>
		<g>
			<title>ponA (FNGGOAEL_01097)
Penicillin-binding protein 1A/1B</title>
			<polygon class="ponA (FNGGOAEL_01097)
Penicillin-binding protein 1A/1B" points="241,25 182,25 182,10 152,40 182,70 182,55 241,55" fill="rgb(255,255,255)" fill-opacity="1.0" stroke="rgb(0,0,0)" stroke-width="2"  />
			<g>
				<title>Transpeptidase (PF00905)
"Penicillin binding protein transpeptidase domain"</title>
				<rect class="PF00905" x="179" y="28" stroke-linejoin="round" width="27" height="24" fill="rgb(161,226,87)" stroke="rgb(128,180,69)" stroke-width="1" opacity="0.75" />
			</g>
			<g>
				<title>Transgly (PF00912)
"Transglycosylase"</title>
				<rect class="PF00912" x="216" y="28" stroke-linejoin="round" width="17" height="24" fill="rgb(172,107,216)" stroke="rgb(137,85,172)" stroke-width="1" opacity="0.75" />
			</g>
		</g>
		<g>
			<title>recU (FNGGOAEL_01098)
Holliday junction resolvase RecU</title>
			<polygon class="recU (FNGGOAEL_01098)
Holliday junction resolvase RecU" points="242,40 261,10 261,70" fill="rgb(255,255,255)" fill-opacity="1.0" stroke="rgb(0,0,0)" stroke-width="2"  />
			<g>
				<title>RecU (PF03838)
"Recombination protein U"</title>
				<polygon class="PF03838" points="246,40 254,28 258,28 258,52 254,52" stroke-linejoin="round" width="16" height="24" fill="rgb(93,204,83)" stroke="rgb(74,163,66)" stroke-width="1" opacity="0.75" />
			</g>
		</g>
		<g>
			<title> (FNGGOAEL_01099)
hypothetical protein</title>
			<polygon class=" (FNGGOAEL_01099)
hypothetical protein" points="274,40 277,10 277,70" fill="rgb(255,255,255)" fill-opacity="1.0" stroke="rgb(0,0,0)" stroke-width="2"  />
		</g>
		<g>
			<title>racA (FNGGOAEL_01100)
Chromosome-anchoring protein RacA</title>
			<polygon class="racA (FNGGOAEL_01100)
Chromosome-anchoring protein RacA" points="281,10 289,40 281,70" fill="rgb(255,255,255)" fill-opacity="1.0" stroke="rgb(0,0,0)" stroke-width="2"  />
		</g>
		<g>
			<title> (FNGGOAEL_01101)
hypothetical protein</title>
			<polygon class=" (FNGGOAEL_01101)
hypothetical protein" points="292,10 304,40 292,70" fill="rgb(255,255,255)" fill-opacity="1.0" stroke="rgb(0,0,0)" stroke-width="2"  />
			<g>
				<title>DUF1798 (PF08807)
"Bacterial domain of unknown function (DUF1798)"</title>
				<polygon class="PF08807" points="293,28 296,28 301,40 296,52 293,52" stroke-linejoin="round" width="10" height="24" fill="rgb(153,201,81)" stroke="rgb(122,160,64)" stroke-width="1" opacity="0.75" />
			</g>
		</g>
		<g>
			<title>arpB (FNGGOAEL_01102)
Antibiotic efflux pump membrane transporter ArpB</title>
			<polygon class="arpB (FNGGOAEL_01102)
Antibiotic efflux pump membrane transporter ArpB" points="408,25 337,25 337,10 307,40 337,70 337,55 408,55" fill="rgb(255,255,255)" fill-opacity="1.0" stroke="rgb(0,0,0)" stroke-width="2"  />
			<g>
				<title>ACR_tran (PF00873)
"AcrB/AcrD/AcrF family"</title>
				<polygon class="PF00873" points="311,40 323,28 408,28 408,52 323,52" stroke-linejoin="round" width="101" height="24" fill="rgb(63,191,60)" stroke="rgb(50,152,48)" stroke-width="1" opacity="0.75" />
			</g>
		</g>
		<g>
			<title>cdd (FNGGOAEL_01103)
Cytidine deaminase</title>
			<polygon class="cdd (FNGGOAEL_01103)
Cytidine deaminase" points="414,10 427,40 414,70" fill="rgb(255,255,255)" fill-opacity="1.0" stroke="rgb(0,0,0)" stroke-width="2"  />
			<g>
				<title>dCMP_cyt_deam_1 (PF00383)
"Cytidine and deoxycytidylate deaminase zinc-binding region"</title>
				<polygon class="PF00383" points="414,28 418,28 424,40 424,40 418,52 414,52" stroke-linejoin="round" width="10" height="24" fill="rgb(91,149,216)" stroke="rgb(72,119,172)" stroke-width="1" opacity="0.75" />
			</g>
		</g>
		<g>
			<title> (FNGGOAEL_01104)
hypothetical protein</title>
			<polygon class=" (FNGGOAEL_01104)
hypothetical protein" points="437,10 459,40 437,70" fill="rgb(255,255,255)" fill-opacity="1.0" stroke="rgb(0,0,0)" stroke-width="2"  />
		</g>
		<g>
			<title> (FNGGOAEL_01105)
hypothetical protein</title>
			<polygon class=" (FNGGOAEL_01105)
hypothetical protein" points="462,10 480,40 462,70" fill="rgb(255,255,255)" fill-opacity="1.0" stroke="rgb(0,0,0)" stroke-width="2"  />
			<g>
				<title>YpsA (PF06908)
"YspA SLOG family"</title>
				<polygon class="PF06908" points="462,28 469,28 477,40 469,52 462,52" stroke-linejoin="round" width="16" height="24" fill="rgb(136,100,209)" stroke="rgb(108,80,167)" stroke-width="1" opacity="0.75" />
			</g>
		</g>
		<g>
			<title>gpsB (FNGGOAEL_01106)
Cell cycle protein GpsB</title>
			<polygon class="gpsB (FNGGOAEL_01106)
Cell cycle protein GpsB" points="484,10 494,40 484,70" fill="rgb(255,255,255)" fill-opacity="1.0" stroke="rgb(0,0,0)" stroke-width="2"  />
			<g>
				<title>DivIVA (PF05103)
"DivIVA protein"</title>
				<polygon class="PF05103" points="484,28 486,28 490,37 490,43 486,52 484,52" stroke-linejoin="round" width="6" height="24" fill="rgb(213,106,117)" stroke="rgb(170,84,93)" stroke-width="1" opacity="0.75" />
			</g>
		</g>
		<g>
			<title> (FNGGOAEL_01107)
hypothetical protein</title>
			<polygon class=" (FNGGOAEL_01107)
hypothetical protein" points="499,10 504,40 499,70" fill="rgb(255,255,255)" fill-opacity="1.0" stroke="rgb(0,0,0)" stroke-width="2"  />
		</g>
		<g>
			<title>rlmL (FNGGOAEL_01108)
Ribosomal RNA large subunit methyltransferase L</title>
			<polygon class="rlmL (FNGGOAEL_01108)
Ribosomal RNA large subunit methyltransferase L" points="514,25 523,25 523,10 553,40 523,70 523,55 514,55" fill="rgb(255,255,255)" fill-opacity="1.0" stroke="rgb(0,0,0)" stroke-width="2"  />
			<g>
				<title>THUMP (PF02926)
"THUMP domain"</title>
				<rect class="PF02926" x="515" y="28" stroke-linejoin="round" width="14" height="24" fill="rgb(52,209,163)" stroke="rgb(41,167,130)" stroke-width="1" opacity="0.75" />
			</g>
			<g>
				<title>UPF0020 (PF01170)
"Putative RNA methylase family UPF0020"</title>
				<polygon class="PF01170" points="530,28 536,28 548,40 536,52 530,52" stroke-linejoin="round" width="20" height="24" fill="rgb(89,182,69)" stroke="rgb(71,145,55)" stroke-width="1" opacity="0.75" />
			</g>
		</g>
		<g>
			<title>ypwA (FNGGOAEL_01109)
Carboxypeptidase 1</title>
			<polygon class="ypwA (FNGGOAEL_01109)
Carboxypeptidase 1" points="555,25 574,25 574,10 604,40 574,70 574,55 555,55" fill="rgb(255,255,255)" fill-opacity="1.0" stroke="rgb(0,0,0)" stroke-width="2"  />
			<g>
				<title>Peptidase_M32 (PF02074)
"Carboxypeptidase Taq (M32) metallopeptidase"</title>
				<polygon class="PF02074" points="555,28 588,28 600,40 588,52 555,52" stroke-linejoin="round" width="48" height="24" fill="rgb(213,142,93)" stroke="rgb(170,113,74)" stroke-width="1" opacity="0.75" />
			</g>
		</g>
		<g>
			<title> (FNGGOAEL_01110)
hypothetical protein</title>
			<polygon class=" (FNGGOAEL_01110)
hypothetical protein" points="606,40 624,10 624,70" fill="rgb(255,255,255)" fill-opacity="1.0" stroke="rgb(0,0,0)" stroke-width="2"  />
		</g>
		<g>
			<title>gno (FNGGOAEL_01111)
Gluconate 5-dehydrogenase</title>
			<polygon class="gno (FNGGOAEL_01111)
Gluconate 5-dehydrogenase" points="629,10 654,40 629,70" fill="rgb(255,255,255)" fill-opacity="1.0" stroke="rgb(0,0,0)" stroke-width="2"  />
			<g>
				<title>adh_short_C2 (PF13561)
"Enoyl-(Acyl carrier protein) reductase"</title>
				<polygon class="PF13561" points="630,28 640,28 650,40 640,52 630,52" stroke-linejoin="round" width="23" height="24" fill="rgb(73,205,127)" stroke="rgb(58,164,101)" stroke-width="1" opacity="0.75" />
			</g>
		</g>
		<g>
			<title> (FNGGOAEL_01112)
hypothetical protein</title>
			<polygon class=" (FNGGOAEL_01112)
hypothetical protein" points="659,40 672,10 672,70" fill="rgb(255,255,255)" fill-opacity="1.0" stroke="rgb(0,0,0)" stroke-width="2"  />
			<g>
				<title>CheX (PF13690)
"Chemotaxis phosphatase CheX"</title>
				<polygon class="PF13690" points="662,40 667,29 667,51" stroke-linejoin="round" width="8" height="24" fill="rgb(55,220,212)" stroke="rgb(44,176,169)" stroke-width="1" opacity="0.75" />
			</g>
		</g>
		<g>
			<title> (FNGGOAEL_01113)
Alpha-pyrone synthesis polyketide synthase-like Pks11</title>
			<polygon class=" (FNGGOAEL_01113)
Alpha-pyrone synthesis polyketide synthase-like Pks11" points="676,25 682,25 682,10 712,40 682,70 682,55 676,55" fill="rgb(255,255,255)" fill-opacity="1.0" stroke="rgb(0,0,0)" stroke-width="2"  />
			<g>
				<title>Chal_sti_synt_N (PF00195)
"Chalcone and stilbene synthases, N-terminal domain"</title>
				<polygon class="PF00195" points="679,28 695,28 696,29 696,51 695,52 679,52" stroke-linejoin="round" width="17" height="24" fill="rgb(60,181,161)" stroke="rgb(47,144,128)" stroke-width="1" opacity="0.75" />
			</g>
			<g>
				<title>Chal_sti_synt_C (PF02797)
"Chalcone and stilbene synthases, C-terminal domain"</title>
				<polygon class="PF02797" points="697,30 707,40 697,50" stroke-linejoin="round" width="13" height="24" fill="rgb(139,212,63)" stroke="rgb(111,169,50)" stroke-width="1" opacity="0.75" />
			</g>
		</g>
		<g>
			<title> (FNGGOAEL_01114)
hypothetical protein</title>
			<polygon class=" (FNGGOAEL_01114)
hypothetical protein" points="712,10 729,40 712,70" fill="rgb(255,255,255)" fill-opacity="1.0" stroke="rgb(0,0,0)" stroke-width="2"  />
			<g>
				<title>ICMT (PF04140)
"Isoprenylcysteine carboxyl methyltransferase (ICMT) family"</title>
				<polygon class="PF04140" points="719,29 725,40 719,51" stroke-linejoin="round" width="9" height="24" fill="rgb(100,223,104)" stroke="rgb(80,178,83)" stroke-width="1" opacity="0.75" />
			</g>
		</g>
		<g>
			<title> (FNGGOAEL_01115)
hypothetical protein</title>
			<polygon class=" (FNGGOAEL_01115)
hypothetical protein" points="732,10 737,40 732,70" fill="rgb(255,255,255)" fill-opacity="1.0" stroke="rgb(0,0,0)" stroke-width="2"  />
		</g>
		<g>
			<title> (FNGGOAEL_01116)
hypothetical protein</title>
			<polygon class=" (FNGGOAEL_01116)
hypothetical protein" points="743,10 752,40 743,70" fill="rgb(255,255,255)" fill-opacity="1.0" stroke="rgb(0,0,0)" stroke-width="2"  />
		</g>
		<g>
			<title>rnhA (FNGGOAEL_01117)
14.7 kDa ribonuclease H-like protein</title>
			<polygon class="rnhA (FNGGOAEL_01117)
14.7 kDa ribonuclease H-like protein" points="753,40 766,10 766,70" fill="rgb(255,255,255)" fill-opacity="1.0" stroke="rgb(0,0,0)" stroke-width="2"  />
			<g>
				<title>RVT_3 (PF13456)
"Reverse transcriptase-like"</title>
				<polygon class="PF13456" points="756,40 761,28 766,28 766,52 761,52" stroke-linejoin="round" width="12" height="24" fill="rgb(198,123,86)" stroke="rgb(158,98,68)" stroke-width="1" opacity="0.75" />
			</g>
		</g>
		<g>
			<title> (FNGGOAEL_01118)
queuosine precursor transporter</title>
			<polygon class=" (FNGGOAEL_01118)
queuosine precursor transporter" points="767,40 789,10 789,70" fill="rgb(255,255,255)" fill-opacity="1.0" stroke="rgb(0,0,0)" stroke-width="2"  />
			<g>
				<title>Vut_1 (PF02592)
"Putative vitamin uptake transporter"</title>
				<polygon class="PF02592" points="771,40 780,28 783,28 783,52 780,52" stroke-linejoin="round" width="16" height="24" fill="rgb(93,184,75)" stroke="rgb(74,147,60)" stroke-width="1" opacity="0.75" />
			</g>
		</g>
		<g>
			<title>cspA_1 (FNGGOAEL_01119)
Cold shock protein CspA</title>
			<polygon class="cspA_1 (FNGGOAEL_01119)
Cold shock protein CspA" points="813,40 819,10 819,70" fill="rgb(255,255,255)" fill-opacity="1.0" stroke="rgb(0,0,0)" stroke-width="2"  />
			<g>
				<title>CSD (PF00313)
"'Cold-shock' DNA-binding domain"</title>
				<polygon class="PF00313" points="816,40 819,28 819,28 819,52 819,52" stroke-linejoin="round" width="6" height="24" fill="rgb(87,72,181)" stroke="rgb(69,57,144)" stroke-width="1" opacity="0.75" />
			</g>
		</g>
		<g>
			<title>fhs1 (FNGGOAEL_01120)
Formate--tetrahydrofolate ligase 1</title>
			<polygon class="fhs1 (FNGGOAEL_01120)
Formate--tetrahydrofolate ligase 1" points="830,25 855,25 855,10 885,40 855,70 855,55 830,55" fill="rgb(255,255,255)" fill-opacity="1.0" stroke="rgb(0,0,0)" stroke-width="2"  />
			<g>
				<title>FTHFS (PF01268)
"Formate--tetrahydrofolate ligase"</title>
				<polygon class="PF01268" points="830,28 869,28 881,40 869,52 830,52" stroke-linejoin="round" width="55" height="24" fill="rgb(215,182,81)" stroke="rgb(172,145,64)" stroke-width="1" opacity="0.75" />
			</g>
		</g>
		<g>
			<title> (FNGGOAEL_01121)
hypothetical protein</title>
			<polygon class=" (FNGGOAEL_01121)
hypothetical protein" points="889,10 917,40 889,70" fill="rgb(255,255,255)" fill-opacity="1.0" stroke="rgb(0,0,0)" stroke-width="2"  />
			<g>
				<title>DUF72 (PF01904)
"Protein of unknown function DUF72"</title>
				<polygon class="PF01904" points="890,28 901,28 913,40 901,52 890,52" stroke-linejoin="round" width="24" height="24" fill="rgb(63,151,204)" stroke="rgb(50,120,163)" stroke-width="1" opacity="0.75" />
			</g>
		</g>
		<g>
			<title>yedJ (FNGGOAEL_01122)
putative protein YedJ</title>
			<polygon class="yedJ (FNGGOAEL_01122)
putative protein YedJ" points="918,10 938,40 918,70" fill="rgb(255,255,255)" fill-opacity="1.0" stroke="rgb(0,0,0)" stroke-width="2"  />
			<g>
				<title>HD (PF01966)
"HD domain"</title>
				<polygon class="PF01966" points="920,28 926,28 929,32 929,48 926,52 920,52" stroke-linejoin="round" width="9" height="24" fill="rgb(92,193,119)" stroke="rgb(73,154,95)" stroke-width="1" opacity="0.75" />
			</g>
		</g>
		<g>
			<title>thyA (FNGGOAEL_01123)
Thymidylate synthase</title>
			<polygon class="thyA (FNGGOAEL_01123)
Thymidylate synthase" points="938,25 940,25 940,10 970,40 940,70 940,55 938,55" fill="rgb(255,255,255)" fill-opacity="1.0" stroke="rgb(0,0,0)" stroke-width="2"  />
			<g>
				<title>Thymidylat_synt (PF00303)
"Thymidylate synthase"</title>
				<polygon class="PF00303" points="938,28 953,28 965,40 953,52 938,52" stroke-linejoin="round" width="31" height="24" fill="rgb(103,91,191)" stroke="rgb(82,72,152)" stroke-width="1" opacity="0.75" />
			</g>
		</g>
		<g>
			<title> (FNGGOAEL_01124)
IS1595 family transposase ISSsu9</title>
			<polygon class=" (FNGGOAEL_01124)
IS1595 family transposase ISSsu9" points="986,10 1002,40 986,70" fill="rgb(255,255,255)" fill-opacity="1.0" stroke="rgb(0,0,0)" stroke-width="2"  />
			<g>
				<title>DHFR_1 (PF00186)
"Dihydrofolate reductase"</title>
				<polygon class="PF00186" points="986,28 992,28 999,40 992,52 986,52" stroke-linejoin="round" width="16" height="24" fill="rgb(150,188,63)" stroke="rgb(119,150,50)" stroke-width="1" opacity="0.75" />
			</g>
		</g>
		<g>
			<title>mobA (FNGGOAEL_01125)
Molybdenum cofactor guanylyltransferase</title>
			<polygon class="mobA (FNGGOAEL_01125)
Molybdenum cofactor guanylyltransferase" points="1004,10 1022,40 1004,70" fill="rgb(255,255,255)" fill-opacity="1.0" stroke="rgb(0,0,0)" stroke-width="2"  />
			<g>
				<title>NTP_transf_3 (PF12804)
"MobA-like NTP transferase domain"</title>
				<polygon class="PF12804" points="1004,28 1011,28 1018,39 1018,41 1011,52 1004,52" stroke-linejoin="round" width="14" height="24" fill="rgb(52,209,196)" stroke="rgb(41,167,156)" stroke-width="1" opacity="0.75" />
			</g>
		</g>
		<g>
			<title>tatAd_1 (FNGGOAEL_01126)
Sec-independent protein translocase protein TatAd</title>
			<polygon class="tatAd_1 (FNGGOAEL_01126)
Sec-independent protein translocase protein TatAd" points="1027,10 1032,40 1027,70" fill="rgb(255,255,255)" fill-opacity="1.0" stroke="rgb(0,0,0)" stroke-width="2"  />
			<g>
				<title>MttA_Hcf106 (PF02416)
"mttA/Hcf106 family"</title>
				<polygon class="PF02416" points="1027,28 1027,28 1029,40 1027,52 1027,52" stroke-linejoin="round" width="5" height="24" fill="rgb(74,206,98)" stroke="rgb(59,164,78)" stroke-width="1" opacity="0.75" />
			</g>
		</g>
		<g>
			<title>tatAd_2 (FNGGOAEL_01127)
Sec-independent protein translocase protein TatAd</title>
			<polygon class="tatAd_2 (FNGGOAEL_01127)
Sec-independent protein translocase protein TatAd" points="1034,10 1040,40 1034,70" fill="rgb(255,255,255)" fill-opacity="1.0" stroke="rgb(0,0,0)" stroke-width="2"  />
			<g>
				<title>MttA_Hcf106 (PF02416)
"mttA/Hcf106 family"</title>
				<polygon class="PF02416" points="1034,28 1034,28 1037,40 1034,52 1034,52" stroke-linejoin="round" width="5" height="24" fill="rgb(74,206,98)" stroke="rgb(59,164,78)" stroke-width="1" opacity="0.75" />
			</g>
		</g>
		<g>
			<title>tatC1 (FNGGOAEL_01128)
Sec-independent protein translocase protein TatCd</title>
			<polygon class="tatC1 (FNGGOAEL_01128)
Sec-independent protein translocase protein TatCd" points="1044,10 1068,40 1044,70" fill="rgb(255,255,255)" fill-opacity="1.0" stroke="rgb(0,0,0)" stroke-width="2"  />
			<g>
				<title>TatC (PF00902)
"Sec-independent protein translocase protein (TatC)"</title>
				<polygon class="PF00902" points="1044,28 1054,28 1064,40 1064,40 1054,52 1044,52" stroke-linejoin="round" width="20" height="24" fill="rgb(84,193,209)" stroke="rgb(67,154,167)" stroke-width="1" opacity="0.75" />
			</g>
		</g>
		<g>
			<title> (FNGGOAEL_01129)
hypothetical protein</title>
			<polygon class=" (FNGGOAEL_01129)
hypothetical protein" points="1075,10 1082,40 1075,70" fill="rgb(255,255,255)" fill-opacity="1.0" stroke="rgb(0,0,0)" stroke-width="2"  />
			<g>
				<title>YozE_SAM_like (PF06855)
"YozE SAM-like fold"</title>
				<polygon class="PF06855" points="1075,28 1075,28 1079,40 1075,52 1075,52" stroke-linejoin="round" width="6" height="24" fill="rgb(83,201,171)" stroke="rgb(66,160,136)" stroke-width="1" opacity="0.75" />
			</g>
		</g>
		<g>
			<title>sbcD (FNGGOAEL_01130)
Nuclease SbcCD subunit D</title>
			<polygon class="sbcD (FNGGOAEL_01130)
Nuclease SbcCD subunit D" points="1082,25 1090,25 1090,10 1120,40 1090,70 1090,55 1082,55" fill="rgb(255,255,255)" fill-opacity="1.0" stroke="rgb(0,0,0)" stroke-width="2"  />
			<g>
				<title>Metallophos (PF00149)
"Calcineurin-like phosphoesterase"</title>
				<rect class="PF00149" x="1082" y="28" stroke-linejoin="round" width="21" height="24" fill="rgb(181,197,58)" stroke="rgb(144,157,46)" stroke-width="1" opacity="0.75" />
			</g>
			<g>
				<title>SbcD_C (PF12320)
"Type 5 capsule protein repressor C-terminal domain"</title>
				<polygon class="PF12320" points="1108,32 1116,40 1108,48" stroke-linejoin="round" width="9" height="24" fill="rgb(182,136,65)" stroke="rgb(145,108,52)" stroke-width="1" opacity="0.75" />
			</g>
		</g>
		<g>
			<title>smc_2 (FNGGOAEL_01131)
Chromosome partition protein Smc</title>
			<polygon class="smc_2 (FNGGOAEL_01131)
Chromosome partition protein Smc" points="1121,25 1194,25 1194,10 1224,40 1194,70 1194,55 1121,55" fill="rgb(255,255,255)" fill-opacity="1.0" stroke="rgb(0,0,0)" stroke-width="2"  />
			<g>
				<title>AAA_23 (PF13476)
"AAA domain"</title>
				<rect class="PF13476" x="1121" y="28" stroke-linejoin="round" width="24" height="24" fill="rgb(57,185,214)" stroke="rgb(45,147,171)" stroke-width="1" opacity="0.75" />
			</g>
			<g>
				<title>SbcCD_C (PF13558)
"Putative exonuclease SbcCD, C subunit"</title>
				<polygon class="PF13558" points="1212,32 1220,40 1220,40 1212,48" stroke-linejoin="round" width="8" height="24" fill="rgb(84,179,84)" stroke="rgb(67,143,67)" stroke-width="1" opacity="0.75" />
			</g>
		</g>
		<g>
			<title>ung (FNGGOAEL_01132)
Uracil-DNA glycosylase</title>
			<polygon class="ung (FNGGOAEL_01132)
Uracil-DNA glycosylase" points="1231,10 1254,40 1231,70" fill="rgb(255,255,255)" fill-opacity="1.0" stroke="rgb(0,0,0)" stroke-width="2"  />
			<g>
				<title>UDG (PF03167)
"Uracil DNA glycosylase superfamily"</title>
				<polygon class="PF03167" points="1235,28 1241,28 1250,40 1241,52 1235,52" stroke-linejoin="round" width="16" height="24" fill="rgb(64,224,60)" stroke="rgb(51,179,48)" stroke-width="1" opacity="0.75" />
			</g>
		</g>
		<g>
			<title> (FNGGOAEL_01133)
hypothetical protein</title>
			<polygon class=" (FNGGOAEL_01133)
hypothetical protein" points="1256,10 1273,40 1256,70" fill="rgb(255,255,255)" fill-opacity="1.0" stroke="rgb(0,0,0)" stroke-width="2"  />
			<g>
				<title>YqfQ (PF14181)
"YqfQ-like protein"</title>
				<polygon class="PF14181" points="1256,28 1263,28 1270,40 1263,52 1256,52" stroke-linejoin="round" width="17" height="24" fill="rgb(207,119,57)" stroke="rgb(165,95,45)" stroke-width="1" opacity="0.75" />
			</g>
		</g>
		<g>
			<title>msrB_1 (FNGGOAEL_01134)
Peptide methionine sulfoxide reductase MsrB</title>
			<polygon class="msrB_1 (FNGGOAEL_01134)
Peptide methionine sulfoxide reductase MsrB" points="1277,25 1279,25 1279,10 1309,40 1279,70 1279,55 1277,55" fill="rgb(255,255,255)" fill-opacity="1.0" stroke="rgb(0,0,0)" stroke-width="2"  />
			<g>
				<title>PMSR (PF01625)
"Peptide methionine sulfoxide reductase"</title>
				<rect class="PF01625" x="1277" y="28" stroke-linejoin="round" width="15" height="24" fill="rgb(201,74,176)" stroke="rgb(160,59,140)" stroke-width="1" opacity="0.75" />
			</g>
			<g>
				<title>SelR (PF01641)
"SelR domain"</title>
				<polygon class="PF01641" points="1295,31 1304,40 1295,49" stroke-linejoin="round" width="12" height="24" fill="rgb(192,99,202)" stroke="rgb(153,79,161)" stroke-width="1" opacity="0.75" />
			</g>
		</g>
		<g>
			<title> (FNGGOAEL_01135)
hypothetical protein</title>
			<polygon class=" (FNGGOAEL_01135)
hypothetical protein" points="1311,10 1330,40 1311,70" fill="rgb(255,255,255)" fill-opacity="1.0" stroke="rgb(0,0,0)" stroke-width="2"  />
			<g>
				<title>TetR_N (PF00440)
"Bacterial regulatory proteins, tetR family"</title>
				<rect class="PF00440" x="1311" y="28" stroke-linejoin="round" width="5" height="24" fill="rgb(73,212,190)" stroke="rgb(58,169,152)" stroke-width="1" opacity="0.75" />
			</g>
		</g>
		<g>
			<title> (FNGGOAEL_01136)
hypothetical protein</title>
			<polygon class=" (FNGGOAEL_01136)
hypothetical protein" points="1333,25 1337,25 1337,10 1367,40 1337,70 1337,55 1333,55" fill="rgb(255,255,255)" fill-opacity="1.0" stroke="rgb(0,0,0)" stroke-width="2"  />
			<g>
				<title>AbrB (PF05145)
"Transition state regulatory protein AbrB"</title>
				<polygon class="PF05145" points="1335,28 1351,28 1363,40 1351,52 1335,52" stroke-linejoin="round" width="31" height="24" fill="rgb(95,98,223)" stroke="rgb(76,78,178)" stroke-width="1" opacity="0.75" />
			</g>
		</g>
	</g>
</svg>
