<svg version="1.1" baseProfile="full" xmlns="http://www.w3.org/2000/svg" width="803.8" height="80">
	<g>
		<line x1="10" y1="40.0" x2="793.8" y2="40.0" style="stroke:rgb(70,70,70); stroke-width:3 "/>
		<g>
			<title> (FNGGOAEL_00331)
hypothetical protein</title>
			<polygon class=" (FNGGOAEL_00331)
hypothetical protein" points="39,40 43,10 43,70" fill="rgb(255,255,255)" fill-opacity="1.0" stroke="rgb(0,0,0)" stroke-width="2"  />
		</g>
		<g>
			<title> (FNGGOAEL_00332)
hypothetical protein</title>
			<polygon class=" (FNGGOAEL_00332)
hypothetical protein" points="51,40 66,10 66,70" fill="rgb(255,255,255)" fill-opacity="1.0" stroke="rgb(0,0,0)" stroke-width="2"  />
		</g>
		<g>
			<title> (FNGGOAEL_00333)
hypothetical protein</title>
			<polygon class=" (FNGGOAEL_00333)
hypothetical protein" points="70,40 79,10 79,70" fill="rgb(255,255,255)" fill-opacity="1.0" stroke="rgb(0,0,0)" stroke-width="2"  />
			<g>
				<title>RNA_pol_A_CTD (PF03118)
"Bacterial RNA polymerase, alpha chain C terminal domain"</title>
				<polygon class="PF03118" points="73,40 74,37 74,43" stroke-linejoin="round" width="4" height="24" fill="rgb(87,91,186)" stroke="rgb(69,72,148)" stroke-width="1" opacity="0.75" />
			</g>
		</g>
		<g>
			<title> (FNGGOAEL_00334)
hypothetical protein</title>
			<polygon class=" (FNGGOAEL_00334)
hypothetical protein" points="84,25 84,25 84,10 114,40 84,70 84,55 84,55" fill="rgb(255,255,255)" fill-opacity="1.0" stroke="rgb(0,0,0)" stroke-width="2"  />
			<g>
				<title>VanW (PF04294)
"VanW like protein"</title>
				<polygon class="PF04294" points="98,29 109,40 98,51" stroke-linejoin="round" width="12" height="24" fill="rgb(52,93,183)" stroke="rgb(41,74,146)" stroke-width="1" opacity="0.75" />
			</g>
		</g>
		<g>
			<title> (FNGGOAEL_00335)
hypothetical protein</title>
			<polygon class=" (FNGGOAEL_00335)
hypothetical protein" points="117,40 136,10 136,70" fill="rgb(255,255,255)" fill-opacity="1.0" stroke="rgb(0,0,0)" stroke-width="2"  />
			<g>
				<title>DUF4256 (PF14066)
"Protein of unknown function (DUF4256)"</title>
				<polygon class="PF14066" points="121,40 129,28 134,28 134,52 129,52" stroke-linejoin="round" width="17" height="24" fill="rgb(55,178,73)" stroke="rgb(44,142,58)" stroke-width="1" opacity="0.75" />
			</g>
		</g>
		<g>
			<title> (FNGGOAEL_00336)
hypothetical protein</title>
			<polygon class=" (FNGGOAEL_00336)
hypothetical protein" points="137,40 141,10 141,70" fill="rgb(255,255,255)" fill-opacity="1.0" stroke="rgb(0,0,0)" stroke-width="2"  />
		</g>
		<g>
			<title> (FNGGOAEL_00337)
Peroxiredoxin</title>
			<polygon class=" (FNGGOAEL_00337)
Peroxiredoxin" points="145,10 167,40 145,70" fill="rgb(255,255,255)" fill-opacity="1.0" stroke="rgb(0,0,0)" stroke-width="2"  />
			<g>
				<title>AhpC-TSA (PF00578)
"AhpC/TSA family"</title>
				<polygon class="PF00578" points="146,28 154,28 159,34 159,46 154,52 146,52" stroke-linejoin="round" width="13" height="24" fill="rgb(166,71,190)" stroke="rgb(132,56,152)" stroke-width="1" opacity="0.75" />
			</g>
			<g>
				<title>1-cysPrx_C (PF10417)
"C-terminal domain of 1-Cys peroxiredoxin"</title>
				<polygon class="PF10417" points="161,37 163,40 161,43" stroke-linejoin="round" width="3" height="24" fill="rgb(80,189,172)" stroke="rgb(64,151,137)" stroke-width="1" opacity="0.75" />
			</g>
		</g>
		<g>
			<title>dsrE2_1 (FNGGOAEL_00338)
Sulfur carrier protein DsrE2</title>
			<polygon class="dsrE2_1 (FNGGOAEL_00338)
Sulfur carrier protein DsrE2" points="173,10 186,40 173,70" fill="rgb(255,255,255)" fill-opacity="1.0" stroke="rgb(0,0,0)" stroke-width="2"  />
			<g>
				<title>DrsE_2 (PF13686)
"DsrE/DsrF/DrsH-like family"</title>
				<polygon class="PF13686" points="178,29 183,40 178,51" stroke-linejoin="round" width="7" height="24" fill="rgb(218,70,162)" stroke="rgb(174,56,129)" stroke-width="1" opacity="0.75" />
			</g>
		</g>
		<g>
			<title>glpE_1 (FNGGOAEL_00339)
Thiosulfate sulfurtransferase GlpE</title>
			<polygon class="glpE_1 (FNGGOAEL_00339)
Thiosulfate sulfurtransferase GlpE" points="187,10 198,40 187,70" fill="rgb(255,255,255)" fill-opacity="1.0" stroke="rgb(0,0,0)" stroke-width="2"  />
			<g>
				<title>Rhodanese (PF00581)
"Rhodanese-like domain"</title>
				<polygon class="PF00581" points="187,28 190,28 194,40 190,52 187,52" stroke-linejoin="round" width="10" height="24" fill="rgb(145,191,76)" stroke="rgb(116,152,60)" stroke-width="1" opacity="0.75" />
			</g>
		</g>
		<g>
			<title>tusA_1 (FNGGOAEL_00340)
Sulfur carrier protein TusA</title>
			<polygon class="tusA_1 (FNGGOAEL_00340)
Sulfur carrier protein TusA" points="201,10 208,40 201,70" fill="rgb(255,255,255)" fill-opacity="1.0" stroke="rgb(0,0,0)" stroke-width="2"  />
			<g>
				<title>TusA (PF01206)
"Sulfurtransferase TusA"</title>
				<polygon class="PF01206" points="201,28 202,28 205,40 202,52 201,52" stroke-linejoin="round" width="6" height="24" fill="rgb(144,82,184)" stroke="rgb(115,65,147)" stroke-width="1" opacity="0.75" />
			</g>
		</g>
		<g>
			<title>pbuG_1 (FNGGOAEL_00341)
Guanine/hypoxanthine permease PbuG</title>
			<polygon class="pbuG_1 (FNGGOAEL_00341)
Guanine/hypoxanthine permease PbuG" points="255,25 242,25 242,10 212,40 242,70 242,55 255,55" fill="rgb(255,255,255)" fill-opacity="1.0" stroke="rgb(0,0,0)" stroke-width="2"  />
			<g>
				<title>Xan_ur_permease (PF00860)
"Permease family"</title>
				<polygon class="PF00860" points="216,40 228,28 252,28 252,52 228,52" stroke-linejoin="round" width="37" height="24" fill="rgb(216,88,217)" stroke="rgb(172,70,173)" stroke-width="1" opacity="0.75" />
			</g>
		</g>
		<g>
			<title> (FNGGOAEL_00342)
hypothetical protein</title>
			<polygon class=" (FNGGOAEL_00342)
hypothetical protein" points="271,40 299,10 299,70" fill="rgb(255,255,255)" fill-opacity="1.0" stroke="rgb(0,0,0)" stroke-width="2"  />
			<g>
				<title>STAS (PF01740)
"STAS domain"</title>
				<polygon class="PF01740" points="275,40 282,33 282,47" stroke-linejoin="round" width="10" height="24" fill="rgb(219,58,116)" stroke="rgb(175,46,92)" stroke-width="1" opacity="0.75" />
			</g>
		</g>
		<g>
			<title> (FNGGOAEL_00343)
hypothetical protein</title>
			<polygon class=" (FNGGOAEL_00343)
hypothetical protein" points="306,10 316,40 306,70" fill="rgb(255,255,255)" fill-opacity="1.0" stroke="rgb(0,0,0)" stroke-width="2"  />
		</g>
		<g>
			<title> (FNGGOAEL_00344)
hypothetical protein</title>
			<polygon class=" (FNGGOAEL_00344)
hypothetical protein" points="313,40 320,10 320,70" fill="rgb(255,255,255)" fill-opacity="1.0" stroke="rgb(0,0,0)" stroke-width="2"  />
		</g>
		<g>
			<title> (FNGGOAEL_00345)
hypothetical protein</title>
			<polygon class=" (FNGGOAEL_00345)
hypothetical protein" points="321,40 336,10 336,70" fill="rgb(255,255,255)" fill-opacity="1.0" stroke="rgb(0,0,0)" stroke-width="2"  />
			<g>
				<title>DinB_2 (PF12867)
"DinB superfamily"</title>
				<polygon class="PF12867" points="324,40 330,28 335,28 335,52 330,52" stroke-linejoin="round" width="13" height="24" fill="rgb(184,90,185)" stroke="rgb(147,72,148)" stroke-width="1" opacity="0.75" />
			</g>
		</g>
		<g>
			<title> (FNGGOAEL_00346)
hypothetical protein</title>
			<polygon class=" (FNGGOAEL_00346)
hypothetical protein" points="394,25 373,25 373,10 343,40 373,70 373,55 394,55" fill="rgb(255,255,255)" fill-opacity="1.0" stroke="rgb(0,0,0)" stroke-width="2"  />
			<g>
				<title>Nitroreductase (PF00881)
"Nitroreductase family"</title>
				<polygon class="PF00881" points="347,40 359,28 361,28 361,52 359,52" stroke-linejoin="round" width="17" height="24" fill="rgb(79,118,187)" stroke="rgb(63,94,149)" stroke-width="1" opacity="0.75" />
			</g>
		</g>
		<g>
			<title> (FNGGOAEL_00347)
hypothetical protein</title>
			<polygon class=" (FNGGOAEL_00347)
hypothetical protein" points="459,25 425,25 425,10 395,40 425,70 425,55 459,55" fill="rgb(255,255,255)" fill-opacity="1.0" stroke="rgb(0,0,0)" stroke-width="2"  />
			<g>
				<title>YcaO (PF02624)
"YcaO cyclodehydratase, ATP-ad Mg2+-binding"</title>
				<polygon class="PF02624" points="399,40 411,28 433,28 433,52 411,52 399,40" stroke-linejoin="round" width="34" height="24" fill="rgb(76,84,185)" stroke="rgb(60,67,148)" stroke-width="1" opacity="0.75" />
			</g>
		</g>
		<g>
			<title> (FNGGOAEL_00348)
hypothetical protein</title>
			<polygon class=" (FNGGOAEL_00348)
hypothetical protein" points="524,25 490,25 490,10 460,40 490,70 490,55 524,55" fill="rgb(255,255,255)" fill-opacity="1.0" stroke="rgb(0,0,0)" stroke-width="2"  />
			<g>
				<title>Methyltransf_16 (PF10294)
"Lysine methyltransferase"</title>
				<rect class="PF10294" x="500" y="28" stroke-linejoin="round" width="15" height="24" fill="rgb(91,121,203)" stroke="rgb(72,96,162)" stroke-width="1" opacity="0.75" />
			</g>
		</g>
		<g>
			<title> (FNGGOAEL_00349)
hypothetical protein</title>
			<polygon class=" (FNGGOAEL_00349)
hypothetical protein" points="525,40 535,10 535,70" fill="rgb(255,255,255)" fill-opacity="1.0" stroke="rgb(0,0,0)" stroke-width="2"  />
		</g>
		<g>
			<title> (FNGGOAEL_00350)
hypothetical protein</title>
			<polygon class=" (FNGGOAEL_00350)
hypothetical protein" points="551,40 572,10 572,70" fill="rgb(255,255,255)" fill-opacity="1.0" stroke="rgb(0,0,0)" stroke-width="2"  />
			<g>
				<title>Acetyltransf_1 (PF00583)
"Acetyltransferase (GNAT) family"</title>
				<polygon class="PF00583" points="559,34 564,28 570,28 570,52 564,52 559,46" stroke-linejoin="round" width="11" height="24" fill="rgb(121,183,50)" stroke="rgb(96,146,39)" stroke-width="1" opacity="0.75" />
			</g>
		</g>
		<g>
			<title> (FNGGOAEL_00351)
hypothetical protein</title>
			<polygon class=" (FNGGOAEL_00351)
hypothetical protein" points="609,25 605,25 605,10 575,40 605,70 605,55 609,55" fill="rgb(255,255,255)" fill-opacity="1.0" stroke="rgb(0,0,0)" stroke-width="2"  />
			<g>
				<title>DUF2332 (PF10094)
"Uncharacterized protein conserved in bacteria (DUF2332)"</title>
				<polygon class="PF10094" points="579,40 591,28 608,28 608,52 591,52" stroke-linejoin="round" width="33" height="24" fill="rgb(180,85,205)" stroke="rgb(144,68,164)" stroke-width="1" opacity="0.75" />
			</g>
		</g>
		<g>
			<title>fpuD (FNGGOAEL_00352)
Petrobactin import ATP-binding protein FpuD</title>
			<polygon class="fpuD (FNGGOAEL_00352)
Petrobactin import ATP-binding protein FpuD" points="625,40 652,10 652,70" fill="rgb(255,255,255)" fill-opacity="1.0" stroke="rgb(0,0,0)" stroke-width="2"  />
			<g>
				<title>ABC_tran (PF00005)
"ABC transporter"</title>
				<polygon class="PF00005" points="635,34 640,28 649,28 649,52 640,52 635,46" stroke-linejoin="round" width="14" height="24" fill="rgb(129,201,63)" stroke="rgb(103,160,50)" stroke-width="1" opacity="0.75" />
			</g>
		</g>
		<g>
			<title> (FNGGOAEL_00353)
hypothetical protein</title>
			<polygon class=" (FNGGOAEL_00353)
hypothetical protein" points="691,25 688,25 688,10 658,40 688,70 688,55 691,55" fill="rgb(255,255,255)" fill-opacity="1.0" stroke="rgb(0,0,0)" stroke-width="2"  />
			<g>
				<title>DUF3231 (PF11553)
"Protein of unknown function (DUF3231)"</title>
				<polygon class="PF11553" points="662,40 674,28 674,28 674,52 674,52" stroke-linejoin="round" width="16" height="24" fill="rgb(179,90,188)" stroke="rgb(143,72,150)" stroke-width="1" opacity="0.75" />
			</g>
			<g>
				<title>DUF3231 (PF11553)
"Protein of unknown function (DUF3231)"</title>
				<rect class="PF11553" x="675" y="28" stroke-linejoin="round" width="16" height="24" fill="rgb(179,90,188)" stroke="rgb(143,72,150)" stroke-width="1" opacity="0.75" />
			</g>
		</g>
		<g>
			<title> (FNGGOAEL_00354)
hypothetical protein</title>
			<polygon class=" (FNGGOAEL_00354)
hypothetical protein" points="692,40 699,10 699,70" fill="rgb(255,255,255)" fill-opacity="1.0" stroke="rgb(0,0,0)" stroke-width="2"  />
		</g>
		<g>
			<title> (FNGGOAEL_00355)
hypothetical protein</title>
			<polygon class=" (FNGGOAEL_00355)
hypothetical protein" points="724,10 740,40 724,70" fill="rgb(255,255,255)" fill-opacity="1.0" stroke="rgb(0,0,0)" stroke-width="2"  />
			<g>
				<title>Polyketide_cyc2 (PF10604)
"Polyketide cyclase / dehydrase and lipid transport"</title>
				<polygon class="PF10604" points="724,28 730,28 736,40 730,52 724,52" stroke-linejoin="round" width="14" height="24" fill="rgb(105,204,74)" stroke="rgb(84,163,59)" stroke-width="1" opacity="0.75" />
			</g>
		</g>
	</g>
</svg>
