<svg version="1.1" baseProfile="full" xmlns="http://www.w3.org/2000/svg" width="366.53333333333336" height="80">
	<g>
		<line x1="10" y1="40.0" x2="356.53333333333336" y2="40.0" style="stroke:rgb(70,70,70); stroke-width:3 "/>
		<g>
			<title>ydbD_2 (FLEGEENC_01191)
putative manganese catalase</title>
			<polygon class="ydbD_2 (FLEGEENC_01191)
putative manganese catalase" points="25,10 53,40 25,70" fill="rgb(255,255,255)" fill-opacity="1.0" stroke="rgb(0,0,0)" stroke-width="2"  />
			<g>
				<title>Mn_catalase (PF05067)
"Manganese containing catalase"</title>
				<polygon class="PF05067" points="25,28 37,28 49,40 37,52 25,52" stroke-linejoin="round" width="27" height="24" fill="rgb(59,189,89)" stroke="rgb(47,151,71)" stroke-width="1" opacity="0.75" />
			</g>
		</g>
		<g>
			<title> (FLEGEENC_01192)
hypothetical protein</title>
			<polygon class=" (FLEGEENC_01192)
hypothetical protein" points="73,10 95,40 73,70" fill="rgb(255,255,255)" fill-opacity="1.0" stroke="rgb(0,0,0)" stroke-width="2"  />
			<g>
				<title>Diphthami_syn_2 (PF01902)
"Diphthamide synthase"</title>
				<polygon class="PF01902" points="73,28 82,28 91,40 82,52 73,52" stroke-linejoin="round" width="21" height="24" fill="rgb(96,162,208)" stroke="rgb(76,129,166)" stroke-width="1" opacity="0.75" />
			</g>
		</g>
		<g>
			<title> (FLEGEENC_01193)
hypothetical protein</title>
			<polygon class=" (FLEGEENC_01193)
hypothetical protein" points="106,40 127,10 127,70" fill="rgb(255,255,255)" fill-opacity="1.0" stroke="rgb(0,0,0)" stroke-width="2"  />
			<g>
				<title>DUF4396 (PF14342)
"Domain of unknown function (DUF4396)"</title>
				<polygon class="PF14342" points="110,40 119,28 120,28 120,52 119,52" stroke-linejoin="round" width="14" height="24" fill="rgb(155,209,76)" stroke="rgb(124,167,60)" stroke-width="1" opacity="0.75" />
			</g>
		</g>
		<g>
			<title> (FLEGEENC_01194)
hypothetical protein</title>
			<polygon class=" (FLEGEENC_01194)
hypothetical protein" points="128,40 139,10 139,70" fill="rgb(255,255,255)" fill-opacity="1.0" stroke="rgb(0,0,0)" stroke-width="2"  />
			<g>
				<title>YrhK (PF14145)
"YrhK-like protein"</title>
				<polygon class="PF14145" points="131,40 135,30 135,50" stroke-linejoin="round" width="5" height="24" fill="rgb(102,190,225)" stroke="rgb(81,152,180)" stroke-width="1" opacity="0.75" />
			</g>
		</g>
		<g>
			<title> (FLEGEENC_01195)
hypothetical protein</title>
			<polygon class=" (FLEGEENC_01195)
hypothetical protein" points="147,10 151,40 147,70" fill="rgb(255,255,255)" fill-opacity="1.0" stroke="rgb(0,0,0)" stroke-width="2"  />
			<g>
				<title>YpzI (PF14140)
"YpzI-like protein"</title>
				<polygon class="PF14140" points="147,32 148,40 147,48" stroke-linejoin="round" width="4" height="24" fill="rgb(68,123,191)" stroke="rgb(54,98,152)" stroke-width="1" opacity="0.75" />
			</g>
		</g>
		<g>
			<title> (FLEGEENC_01196)
hypothetical protein</title>
			<polygon class=" (FLEGEENC_01196)
hypothetical protein" points="155,10 158,40 155,70" fill="rgb(255,255,255)" fill-opacity="1.0" stroke="rgb(0,0,0)" stroke-width="2"  />
		</g>
		<g>
			<title> (FLEGEENC_01197)
hypothetical protein</title>
			<polygon class=" (FLEGEENC_01197)
hypothetical protein" points="159,40 173,10 173,70" fill="rgb(255,255,255)" fill-opacity="1.0" stroke="rgb(0,0,0)" stroke-width="2"  />
			<g>
				<title>Glyoxalase (PF00903)
"Glyoxalase/Bleomycin resistance protein/Dioxygenase superfamily"</title>
				<polygon class="PF00903" points="162,40 168,28 172,28 172,52 168,52" stroke-linejoin="round" width="11" height="24" fill="rgb(50,162,189)" stroke="rgb(40,129,151)" stroke-width="1" opacity="0.75" />
			</g>
		</g>
		<g>
			<title>ectC (FLEGEENC_01198)
L-ectoine synthase</title>
			<polygon class="ectC (FLEGEENC_01198)
L-ectoine synthase" points="176,40 189,10 189,70" fill="rgb(255,255,255)" fill-opacity="1.0" stroke="rgb(0,0,0)" stroke-width="2"  />
			<g>
				<title>Ectoine_synth (PF06339)
"Ectoine synthase"</title>
				<polygon class="PF06339" points="179,40 184,28 188,28 188,52 184,52" stroke-linejoin="round" width="12" height="24" fill="rgb(225,176,81)" stroke="rgb(180,140,64)" stroke-width="1" opacity="0.75" />
			</g>
		</g>
		<g>
			<title>ectB (FLEGEENC_01199)
Diaminobutyrate--2-oxoglutarate transaminase</title>
			<polygon class="ectB (FLEGEENC_01199)
Diaminobutyrate--2-oxoglutarate transaminase" points="233,25 221,25 221,10 191,40 221,70 221,55 233,55" fill="rgb(255,255,255)" fill-opacity="1.0" stroke="rgb(0,0,0)" stroke-width="2"  />
			<g>
				<title>Aminotran_3 (PF00202)
"Aminotransferase class-III"</title>
				<polygon class="PF00202" points="195,40 207,28 231,28 231,52 207,52" stroke-linejoin="round" width="39" height="24" fill="rgb(49,163,189)" stroke="rgb(39,130,151)" stroke-width="1" opacity="0.75" />
			</g>
		</g>
		<g>
			<title>ectA (FLEGEENC_01200)
L-2,4-diaminobutyric acid acetyltransferase</title>
			<polygon class="ectA (FLEGEENC_01200)
L-2,4-diaminobutyric acid acetyltransferase" points="235,40 252,10 252,70" fill="rgb(255,255,255)" fill-opacity="1.0" stroke="rgb(0,0,0)" stroke-width="2"  />
			<g>
				<title>Acetyltransf_1 (PF00583)
"Acetyltransferase (GNAT) family"</title>
				<polygon class="PF00583" points="238,40 245,28 249,28 249,52 245,52 238,40" stroke-linejoin="round" width="11" height="24" fill="rgb(121,183,50)" stroke="rgb(96,146,39)" stroke-width="1" opacity="0.75" />
			</g>
		</g>
		<g>
			<title>mtlA (FLEGEENC_01201)
PTS system mannitol-specific EIICB component</title>
			<polygon class="mtlA (FLEGEENC_01201)
PTS system mannitol-specific EIICB component" points="270,25 289,25 289,10 319,40 289,70 289,55 270,55" fill="rgb(255,255,255)" fill-opacity="1.0" stroke="rgb(0,0,0)" stroke-width="2"  />
			<g>
				<title>PTS_EIIC (PF02378)
"Phosphotransferase system, EIIC"</title>
				<rect class="PF02378" x="272" y="28" stroke-linejoin="round" width="26" height="24" fill="rgb(73,199,212)" stroke="rgb(58,159,169)" stroke-width="1" opacity="0.75" />
			</g>
			<g>
				<title>PTS_IIB (PF02302)
"PTS system, Lactose/Cellobiose specific IIB subunit"</title>
				<polygon class="PF02302" points="310,36 314,40 310,44" stroke-linejoin="round" width="8" height="24" fill="rgb(106,212,56)" stroke="rgb(84,169,44)" stroke-width="1" opacity="0.75" />
			</g>
		</g>
	</g>
</svg>
