<svg version="1.1" baseProfile="full" xmlns="http://www.w3.org/2000/svg" width="366.43333333333334" height="80">
	<g>
		<line x1="10" y1="40.0" x2="356.43333333333334" y2="40.0" style="stroke:rgb(70,70,70); stroke-width:3 "/>
		<g>
			<title>ureE (DLMDDBDI_03735)
Urease accessory protein UreE</title>
			<polygon class="ureE (DLMDDBDI_03735)
Urease accessory protein UreE" points="13,40 27,10 27,70" fill="rgb(255,255,255)" fill-opacity="1.0" stroke="rgb(0,0,0)" stroke-width="2"  />
			<g>
				<title>UreE_C (PF05194)
"UreE urease accessory protein, C-terminal domain"</title>
				<polygon class="PF05194" points="16,40 20,32 20,48" stroke-linejoin="round" width="7" height="24" fill="rgb(71,208,139)" stroke="rgb(56,166,111)" stroke-width="1" opacity="0.75" />
			</g>
			<g>
				<title>UreE_N (PF02814)
"UreE urease accessory protein, N-terminal domain"</title>
				<polygon class="PF02814" points="21,30 22,28 26,28 26,52 22,52 21,50" stroke-linejoin="round" width="5" height="24" fill="rgb(161,223,71)" stroke="rgb(128,178,56)" stroke-width="1" opacity="0.75" />
			</g>
		</g>
		<g>
			<title>ureC (DLMDDBDI_03736)
Urease subunit alpha</title>
			<polygon class="ureC (DLMDDBDI_03736)
Urease subunit alpha" points="86,25 59,25 59,10 29,40 59,70 59,55 86,55" fill="rgb(255,255,255)" fill-opacity="1.0" stroke="rgb(0,0,0)" stroke-width="2"  />
			<g>
				<title>Amidohydro_1 (PF01979)
"Amidohydrolase family"</title>
				<polygon class="PF01979" points="37,36 45,28 72,28 72,52 45,52 37,44" stroke-linejoin="round" width="35" height="24" fill="rgb(210,93,184)" stroke="rgb(168,74,147)" stroke-width="1" opacity="0.75" />
			</g>
			<g>
				<title>Urease_alpha (PF00449)
"Urease alpha-subunit, N-terminal domain"</title>
				<rect class="PF00449" x="73" y="28" stroke-linejoin="round" width="11" height="24" fill="rgb(76,190,108)" stroke="rgb(60,152,86)" stroke-width="1" opacity="0.75" />
			</g>
		</g>
		<g>
			<title>ureB (DLMDDBDI_03737)
Urease subunit beta</title>
			<polygon class="ureB (DLMDDBDI_03737)
Urease subunit beta" points="86,40 96,10 96,70" fill="rgb(255,255,255)" fill-opacity="1.0" stroke="rgb(0,0,0)" stroke-width="2"  />
			<g>
				<title>Urease_beta (PF00699)
"Urease beta subunit"</title>
				<polygon class="PF00699" points="89,40 93,28 95,28 95,52 93,52" stroke-linejoin="round" width="9" height="24" fill="rgb(166,70,221)" stroke="rgb(132,56,176)" stroke-width="1" opacity="0.75" />
			</g>
		</g>
		<g>
			<title>ureA (DLMDDBDI_03738)
Urease subunit gamma</title>
			<polygon class="ureA (DLMDDBDI_03738)
Urease subunit gamma" points="96,40 106,10 106,70" fill="rgb(255,255,255)" fill-opacity="1.0" stroke="rgb(0,0,0)" stroke-width="2"  />
			<g>
				<title>Urease_gamma (PF00547)
"Urease, gamma subunit"</title>
				<polygon class="PF00547" points="99,40 103,28 105,28 105,52 103,52" stroke-linejoin="round" width="9" height="24" fill="rgb(222,104,199)" stroke="rgb(177,83,159)" stroke-width="1" opacity="0.75" />
			</g>
		</g>
		<g>
			<title> (DLMDDBDI_03739)
hypothetical protein</title>
			<polygon class=" (DLMDDBDI_03739)
hypothetical protein" points="108,40 116,10 116,70" fill="rgb(255,255,255)" fill-opacity="1.0" stroke="rgb(0,0,0)" stroke-width="2"  />
		</g>
		<g>
			<title>sglT_3 (DLMDDBDI_03740)
Sodium/glucose cotransporter</title>
			<polygon class="sglT_3 (DLMDDBDI_03740)
Sodium/glucose cotransporter" points="166,25 145,25 145,10 115,40 145,70 145,55 166,55" fill="rgb(255,255,255)" fill-opacity="1.0" stroke="rgb(0,0,0)" stroke-width="2"  />
			<g>
				<title>SSF (PF00474)
"Sodium:solute symporter family"</title>
				<polygon class="PF00474" points="123,36 131,28 162,28 162,52 131,52 123,44" stroke-linejoin="round" width="39" height="24" fill="rgb(49,186,178)" stroke="rgb(39,148,142)" stroke-width="1" opacity="0.75" />
			</g>
		</g>
		<g>
			<title>ectC (DLMDDBDI_03741)
L-ectoine synthase</title>
			<polygon class="ectC (DLMDDBDI_03741)
L-ectoine synthase" points="176,40 189,10 189,70" fill="rgb(255,255,255)" fill-opacity="1.0" stroke="rgb(0,0,0)" stroke-width="2"  />
			<g>
				<title>Ectoine_synth (PF06339)
"Ectoine synthase"</title>
				<polygon class="PF06339" points="179,40 184,28 188,28 188,52 184,52" stroke-linejoin="round" width="12" height="24" fill="rgb(225,176,81)" stroke="rgb(180,140,64)" stroke-width="1" opacity="0.75" />
			</g>
		</g>
		<g>
			<title>ectB (DLMDDBDI_03742)
Diaminobutyrate--2-oxoglutarate transaminase</title>
			<polygon class="ectB (DLMDDBDI_03742)
Diaminobutyrate--2-oxoglutarate transaminase" points="231,25 219,25 219,10 189,40 219,70 219,55 231,55" fill="rgb(255,255,255)" fill-opacity="1.0" stroke="rgb(0,0,0)" stroke-width="2"  />
			<g>
				<title>Aminotran_3 (PF00202)
"Aminotransferase class-III"</title>
				<polygon class="PF00202" points="193,40 205,28 229,28 229,52 205,52" stroke-linejoin="round" width="39" height="24" fill="rgb(49,163,189)" stroke="rgb(39,130,151)" stroke-width="1" opacity="0.75" />
			</g>
		</g>
		<g>
			<title>opuD_3 (DLMDDBDI_03743)
Glycine betaine transporter OpuD</title>
			<polygon class="opuD_3 (DLMDDBDI_03743)
Glycine betaine transporter OpuD" points="266,25 286,25 286,10 316,40 286,70 286,55 266,55" fill="rgb(255,255,255)" fill-opacity="1.0" stroke="rgb(0,0,0)" stroke-width="2"  />
			<g>
				<title>BCCT (PF02028)
"BCCT, betaine/carnitine/choline family transporter"</title>
				<polygon class="PF02028" points="266,28 300,28 312,40 300,52 266,52" stroke-linejoin="round" width="48" height="24" fill="rgb(206,109,74)" stroke="rgb(164,87,59)" stroke-width="1" opacity="0.75" />
			</g>
		</g>
		<g>
			<title>menH_4 (DLMDDBDI_03744)
2-succinyl-6-hydroxy-2, 4-cyclohexadiene-1-carboxylate synthase</title>
			<polygon class="menH_4 (DLMDDBDI_03744)
2-succinyl-6-hydroxy-2, 4-cyclohexadiene-1-carboxylate synthase" points="320,10 338,40 320,70" fill="rgb(255,255,255)" fill-opacity="1.0" stroke="rgb(0,0,0)" stroke-width="2"  />
			<g>
				<title>Abhydrolase_6 (PF12697)
"Alpha/beta hydrolase family"</title>
				<polygon class="PF12697" points="320,28 327,28 334,40 327,52 320,52" stroke-linejoin="round" width="17" height="24" fill="rgb(113,71,219)" stroke="rgb(90,56,175)" stroke-width="1" opacity="0.75" />
			</g>
		</g>
	</g>
</svg>
