<svg version="1.1" baseProfile="full" xmlns="http://www.w3.org/2000/svg" width="1482.8" height="80">
	<g>
		<line x1="10" y1="40.0" x2="1472.8" y2="40.0" style="stroke:rgb(70,70,70); stroke-width:3 "/>
		<g>
			<title> (AEOANFJI_01398)
hypothetical protein</title>
			<polygon class=" (AEOANFJI_01398)
hypothetical protein" points="48,10 53,40 48,70" fill="rgb(255,255,255)" fill-opacity="1.0" stroke="rgb(0,0,0)" stroke-width="2"  />
		</g>
		<g>
			<title> (AEOANFJI_01399)
hypothetical protein</title>
			<polygon class=" (AEOANFJI_01399)
hypothetical protein" points="68,10 83,40 68,70" fill="rgb(255,255,255)" fill-opacity="1.0" stroke="rgb(0,0,0)" stroke-width="2"  />
			<g>
				<title>Acetyltransf_3 (PF13302)
"Acetyltransferase (GNAT) domain"</title>
				<polygon class="PF13302" points="68,28 73,28 80,40 73,52 68,52" stroke-linejoin="round" width="13" height="24" fill="rgb(105,146,215)" stroke="rgb(84,116,172)" stroke-width="1" opacity="0.75" />
			</g>
		</g>
		<g>
			<title> (AEOANFJI_01400)
hypothetical protein</title>
			<polygon class=" (AEOANFJI_01400)
hypothetical protein" points="103,10 108,40 103,70" fill="rgb(255,255,255)" fill-opacity="1.0" stroke="rgb(0,0,0)" stroke-width="2"  />
		</g>
		<g>
			<title> (AEOANFJI_01401)
Insertion sequence IS5376 putative ATP-binding protein</title>
			<polygon class=" (AEOANFJI_01401)
Insertion sequence IS5376 putative ATP-binding protein" points="116,40 131,10 131,70" fill="rgb(255,255,255)" fill-opacity="1.0" stroke="rgb(0,0,0)" stroke-width="2"  />
			<g>
				<title>IstB_IS21 (PF01695)
"IstB-like ATP binding protein"</title>
				<polygon class="PF01695" points="119,40 125,28 126,28 126,52 125,52" stroke-linejoin="round" width="10" height="24" fill="rgb(205,68,192)" stroke="rgb(164,54,153)" stroke-width="1" opacity="0.75" />
			</g>
		</g>
		<g>
			<title> (AEOANFJI_01402)
hypothetical protein</title>
			<polygon class=" (AEOANFJI_01402)
hypothetical protein" points="164,25 162,25 162,10 132,40 162,70 162,55 164,55" fill="rgb(255,255,255)" fill-opacity="1.0" stroke="rgb(0,0,0)" stroke-width="2"  />
			<g>
				<title>rve (PF00665)
"Integrase core domain"</title>
				<rect class="PF00665" x="156" y="28" stroke-linejoin="round" width="7" height="24" fill="rgb(93,64,200)" stroke="rgb(74,51,160)" stroke-width="1" opacity="0.75" />
			</g>
		</g>
		<g>
			<title> (AEOANFJI_01403)
hypothetical protein</title>
			<polygon class=" (AEOANFJI_01403)
hypothetical protein" points="166,40 181,10 181,70" fill="rgb(255,255,255)" fill-opacity="1.0" stroke="rgb(0,0,0)" stroke-width="2"  />
		</g>
		<g>
			<title> (AEOANFJI_01404)
hypothetical protein</title>
			<polygon class=" (AEOANFJI_01404)
hypothetical protein" points="189,10 206,40 189,70" fill="rgb(255,255,255)" fill-opacity="1.0" stroke="rgb(0,0,0)" stroke-width="2"  />
			<g>
				<title>rve (PF00665)
"Integrase core domain"</title>
				<polygon class="PF00665" points="195,28 195,28 202,40 195,52 195,52" stroke-linejoin="round" width="10" height="24" fill="rgb(93,64,200)" stroke="rgb(74,51,160)" stroke-width="1" opacity="0.75" />
			</g>
		</g>
		<g>
			<title> (AEOANFJI_01405)
hypothetical protein</title>
			<polygon class=" (AEOANFJI_01405)
hypothetical protein" points="214,10 223,40 214,70" fill="rgb(255,255,255)" fill-opacity="1.0" stroke="rgb(0,0,0)" stroke-width="2"  />
		</g>
		<g>
			<title>ydeA_1 (AEOANFJI_01406)
putative protease YdeA</title>
			<polygon class="ydeA_1 (AEOANFJI_01406)
putative protease YdeA" points="248,10 269,40 248,70" fill="rgb(255,255,255)" fill-opacity="1.0" stroke="rgb(0,0,0)" stroke-width="2"  />
			<g>
				<title>DJ-1_PfpI (PF01965)
"DJ-1/PfpI family"</title>
				<polygon class="PF01965" points="248,28 257,28 265,40 265,40 257,52 248,52" stroke-linejoin="round" width="17" height="24" fill="rgb(66,224,145)" stroke="rgb(52,179,116)" stroke-width="1" opacity="0.75" />
			</g>
		</g>
		<g>
			<title> (AEOANFJI_01407)
hypothetical protein</title>
			<polygon class=" (AEOANFJI_01407)
hypothetical protein" points="337,10 341,40 337,70" fill="rgb(255,255,255)" fill-opacity="1.0" stroke="rgb(0,0,0)" stroke-width="2"  />
		</g>
		<g>
			<title> (AEOANFJI_01408)
hypothetical protein</title>
			<polygon class=" (AEOANFJI_01408)
hypothetical protein" points="342,40 371,10 371,70" fill="rgb(255,255,255)" fill-opacity="1.0" stroke="rgb(0,0,0)" stroke-width="2"  />
			<g>
				<title>HTH_19 (PF12844)
"Helix-turn-helix domain"</title>
				<rect class="PF12844" x="364" y="28" stroke-linejoin="round" width="6" height="24" fill="rgb(72,216,183)" stroke="rgb(57,172,146)" stroke-width="1" opacity="0.75" />
			</g>
		</g>
		<g>
			<title>aroA_2 (AEOANFJI_01409)
Protein AroA(G)</title>
			<polygon class="aroA_2 (AEOANFJI_01409)
Protein AroA(G)" points="385,10 413,40 385,70" fill="rgb(255,255,255)" fill-opacity="1.0" stroke="rgb(0,0,0)" stroke-width="2"  />
			<g>
				<title>DAHP_synth_1 (PF00793)
"DAHP synthetase I family"</title>
				<polygon class="PF00793" points="386,28 397,28 409,40 397,52 386,52" stroke-linejoin="round" width="26" height="24" fill="rgb(223,103,208)" stroke="rgb(178,82,166)" stroke-width="1" opacity="0.75" />
			</g>
		</g>
		<g>
			<title> (AEOANFJI_01410)
Hydroxypyruvate reductase</title>
			<polygon class=" (AEOANFJI_01410)
Hydroxypyruvate reductase" points="418,25 420,25 420,10 450,40 420,70 420,55 418,55" fill="rgb(255,255,255)" fill-opacity="1.0" stroke="rgb(0,0,0)" stroke-width="2"  />
			<g>
				<title>2-Hacid_dh_C (PF02826)
"D-isomer specific 2-hydroxyacid dehydrogenase, NAD binding domain"</title>
				<polygon class="PF02826" points="428,28 434,28 445,39 445,41 434,52 428,52" stroke-linejoin="round" width="17" height="24" fill="rgb(192,197,93)" stroke="rgb(153,157,74)" stroke-width="1" opacity="0.75" />
			</g>
		</g>
		<g>
			<title> (AEOANFJI_01411)
hypothetical protein</title>
			<polygon class=" (AEOANFJI_01411)
hypothetical protein" points="457,25 462,25 462,10 492,40 462,70 462,55 457,55" fill="rgb(255,255,255)" fill-opacity="1.0" stroke="rgb(0,0,0)" stroke-width="2"  />
		</g>
		<g>
			<title> (AEOANFJI_01412)
hypothetical protein</title>
			<polygon class=" (AEOANFJI_01412)
hypothetical protein" points="495,25 498,25 498,10 528,40 498,70 498,55 495,55" fill="rgb(255,255,255)" fill-opacity="1.0" stroke="rgb(0,0,0)" stroke-width="2"  />
			<g>
				<title>PP-binding (PF00550)
"Phosphopantetheine attachment site"</title>
				<rect class="PF00550" x="496" y="28" stroke-linejoin="round" width="6" height="24" fill="rgb(103,191,88)" stroke="rgb(82,152,70)" stroke-width="1" opacity="0.75" />
			</g>
		</g>
		<g>
			<title>glyA_1 (AEOANFJI_01413)
Serine hydroxymethyltransferase</title>
			<polygon class="glyA_1 (AEOANFJI_01413)
Serine hydroxymethyltransferase" points="529,25 544,25 544,10 574,40 544,70 544,55 529,55" fill="rgb(255,255,255)" fill-opacity="1.0" stroke="rgb(0,0,0)" stroke-width="2"  />
			<g>
				<title>SHMT (PF00464)
"Serine hydroxymethyltransferase"</title>
				<polygon class="PF00464" points="531,28 558,28 569,39 569,41 558,52 531,52" stroke-linejoin="round" width="38" height="24" fill="rgb(215,97,215)" stroke="rgb(172,77,172)" stroke-width="1" opacity="0.75" />
			</g>
		</g>
		<g>
			<title> (AEOANFJI_01414)
hypothetical protein</title>
			<polygon class=" (AEOANFJI_01414)
hypothetical protein" points="582,25 588,25 588,10 618,40 588,70 588,55 582,55" fill="rgb(255,255,255)" fill-opacity="1.0" stroke="rgb(0,0,0)" stroke-width="2"  />
			<g>
				<title>HTH_42 (PF06224)
"Winged helix DNA-binding domain"</title>
				<polygon class="PF06224" points="585,28 602,28 614,40 602,52 585,52" stroke-linejoin="round" width="32" height="24" fill="rgb(116,78,194)" stroke="rgb(92,62,155)" stroke-width="1" opacity="0.75" />
			</g>
		</g>
		<g>
			<title>tycC (AEOANFJI_01415)
Tyrocidine synthase 3</title>
			<polygon class="tycC (AEOANFJI_01415)
Tyrocidine synthase 3" points="621,25 775,25 775,10 805,40 775,70 775,55 621,55" fill="rgb(255,255,255)" fill-opacity="1.0" stroke="rgb(0,0,0)" stroke-width="2"  />
			<g>
				<title>AMP-binding (PF00501)
"AMP-binding enzyme"</title>
				<rect class="PF00501" x="642" y="28" stroke-linejoin="round" width="39" height="24" fill="rgb(60,217,223)" stroke="rgb(48,173,178)" stroke-width="1" opacity="0.75" />
			</g>
			<g>
				<title>PP-binding (PF00550)
"Phosphopantetheine attachment site"</title>
				<rect class="PF00550" x="693" y="28" stroke-linejoin="round" width="5" height="24" fill="rgb(103,191,88)" stroke="rgb(82,152,70)" stroke-width="1" opacity="0.75" />
			</g>
			<g>
				<title>Condensation (PF00668)
"Condensation domain"</title>
				<rect class="PF00668" x="701" y="28" stroke-linejoin="round" width="43" height="24" fill="rgb(224,184,98)" stroke="rgb(179,147,78)" stroke-width="1" opacity="0.75" />
			</g>
			<g>
				<title>AMP-binding (PF00501)
"AMP-binding enzyme"</title>
				<rect class="PF00501" x="747" y="28" stroke-linejoin="round" width="40" height="24" fill="rgb(60,217,223)" stroke="rgb(48,173,178)" stroke-width="1" opacity="0.75" />
			</g>
			<g>
				<title>AMP-binding_C (PF13193)
"AMP-binding enzyme C-terminal domain"</title>
				<polygon class="PF13193" points="788,28 789,28 795,34 795,46 789,52 788,52" stroke-linejoin="round" width="7" height="24" fill="rgb(182,50,118)" stroke="rgb(145,39,94)" stroke-width="1" opacity="0.75" />
			</g>
			<g>
				<title>PP-binding (PF00550)
"Phosphopantetheine attachment site"</title>
				<polygon class="PF00550" points="798,37 801,40 798,43" stroke-linejoin="round" width="6" height="24" fill="rgb(103,191,88)" stroke="rgb(82,152,70)" stroke-width="1" opacity="0.75" />
			</g>
		</g>
		<g>
			<title> (AEOANFJI_01416)
hypothetical protein</title>
			<polygon class=" (AEOANFJI_01416)
hypothetical protein" points="806,10 816,40 806,70" fill="rgb(255,255,255)" fill-opacity="1.0" stroke="rgb(0,0,0)" stroke-width="2"  />
			<g>
				<title>PP-binding (PF00550)
"Phosphopantetheine attachment site"</title>
				<polygon class="PF00550" points="808,28 808,28 812,40 808,52 808,52" stroke-linejoin="round" width="6" height="24" fill="rgb(103,191,88)" stroke="rgb(82,152,70)" stroke-width="1" opacity="0.75" />
			</g>
		</g>
		<g>
			<title> (AEOANFJI_01417)
Phenylacetate-coenzyme A ligase</title>
			<polygon class=" (AEOANFJI_01417)
Phenylacetate-coenzyme A ligase" points="815,25 829,25 829,10 859,40 829,70 829,55 815,55" fill="rgb(255,255,255)" fill-opacity="1.0" stroke="rgb(0,0,0)" stroke-width="2"  />
		</g>
		<g>
			<title>menF_1 (AEOANFJI_01418)
Isochorismate synthase MenF</title>
			<polygon class="menF_1 (AEOANFJI_01418)
Isochorismate synthase MenF" points="860,25 876,25 876,10 906,40 876,70 876,55 860,55" fill="rgb(255,255,255)" fill-opacity="1.0" stroke="rgb(0,0,0)" stroke-width="2"  />
			<g>
				<title>Chorismate_bind (PF00425)
"chorismate binding enzyme"</title>
				<polygon class="PF00425" points="880,28 890,28 902,40 890,52 880,52" stroke-linejoin="round" width="24" height="24" fill="rgb(188,116,88)" stroke="rgb(150,92,70)" stroke-width="1" opacity="0.75" />
			</g>
		</g>
		<g>
			<title>trpG (AEOANFJI_01419)
Anthranilate synthase component 2</title>
			<polygon class="trpG (AEOANFJI_01419)
Anthranilate synthase component 2" points="906,10 926,40 906,70" fill="rgb(255,255,255)" fill-opacity="1.0" stroke="rgb(0,0,0)" stroke-width="2"  />
			<g>
				<title>GATase (PF00117)
"Glutamine amidotransferase class-I"</title>
				<polygon class="PF00117" points="906,28 914,28 922,40 914,52 906,52" stroke-linejoin="round" width="18" height="24" fill="rgb(159,201,96)" stroke="rgb(127,160,76)" stroke-width="1" opacity="0.75" />
			</g>
		</g>
		<g>
			<title>mdtD_1 (AEOANFJI_01420)
Putative multidrug resistance protein MdtD</title>
			<polygon class="mdtD_1 (AEOANFJI_01420)
Putative multidrug resistance protein MdtD" points="929,25 947,25 947,10 977,40 947,70 947,55 929,55" fill="rgb(255,255,255)" fill-opacity="1.0" stroke="rgb(0,0,0)" stroke-width="2"  />
			<g>
				<title>MFS_1 (PF07690)
"Major Facilitator Superfamily"</title>
				<polygon class="PF07690" points="931,28 960,28 970,38 970,42 960,52 931,52" stroke-linejoin="round" width="39" height="24" fill="rgb(193,224,74)" stroke="rgb(154,179,59)" stroke-width="1" opacity="0.75" />
			</g>
		</g>
		<g>
			<title> (AEOANFJI_01421)
hypothetical protein</title>
			<polygon class=" (AEOANFJI_01421)
hypothetical protein" points="981,25 993,25 993,10 1023,40 993,70 993,55 981,55" fill="rgb(255,255,255)" fill-opacity="1.0" stroke="rgb(0,0,0)" stroke-width="2"  />
			<g>
				<title>Condensation (PF00668)
"Condensation domain"</title>
				<polygon class="PF00668" points="982,28 1006,28 1018,40 1006,52 982,52" stroke-linejoin="round" width="40" height="24" fill="rgb(224,184,98)" stroke="rgb(179,147,78)" stroke-width="1" opacity="0.75" />
			</g>
		</g>
		<g>
			<title>fabG_3 (AEOANFJI_01422)
3-oxoacyl-[acyl-carrier-protein] reductase FabG</title>
			<polygon class="fabG_3 (AEOANFJI_01422)
3-oxoacyl-[acyl-carrier-protein] reductase FabG" points="1026,10 1050,40 1026,70" fill="rgb(255,255,255)" fill-opacity="1.0" stroke="rgb(0,0,0)" stroke-width="2"  />
			<g>
				<title>adh_short_C2 (PF13561)
"Enoyl-(Acyl carrier protein) reductase"</title>
				<polygon class="PF13561" points="1027,28 1037,28 1046,40 1037,52 1027,52" stroke-linejoin="round" width="23" height="24" fill="rgb(73,205,127)" stroke="rgb(58,164,101)" stroke-width="1" opacity="0.75" />
			</g>
		</g>
		<g>
			<title>sfp (AEOANFJI_01423)
4'-phosphopantetheinyl transferase Sfp</title>
			<polygon class="sfp (AEOANFJI_01423)
4'-phosphopantetheinyl transferase Sfp" points="1056,10 1079,40 1056,70" fill="rgb(255,255,255)" fill-opacity="1.0" stroke="rgb(0,0,0)" stroke-width="2"  />
			<g>
				<title>ACPS (PF01648)
"4'-phosphopantetheinyl transferase superfamily"</title>
				<polygon class="PF01648" points="1066,28 1066,28 1075,40 1066,52 1066,52" stroke-linejoin="round" width="10" height="24" fill="rgb(85,184,135)" stroke="rgb(68,147,108)" stroke-width="1" opacity="0.75" />
			</g>
		</g>
		<g>
			<title> (AEOANFJI_01424)
hypothetical protein</title>
			<polygon class=" (AEOANFJI_01424)
hypothetical protein" points="1110,10 1129,40 1110,70" fill="rgb(255,255,255)" fill-opacity="1.0" stroke="rgb(0,0,0)" stroke-width="2"  />
			<g>
				<title>Cupin_2 (PF07883)
"Cupin domain"</title>
				<polygon class="PF07883" points="1119,30 1125,40 1119,50" stroke-linejoin="round" width="7" height="24" fill="rgb(211,192,74)" stroke="rgb(168,153,59)" stroke-width="1" opacity="0.75" />
			</g>
		</g>
		<g>
			<title> (AEOANFJI_01425)
hypothetical protein</title>
			<polygon class=" (AEOANFJI_01425)
hypothetical protein" points="1136,10 1144,40 1136,70" fill="rgb(255,255,255)" fill-opacity="1.0" stroke="rgb(0,0,0)" stroke-width="2"  />
			<g>
				<title>Trns_repr_metal (PF02583)
"Metal-sensitive transcriptional repressor"</title>
				<polygon class="PF02583" points="1136,28 1137,28 1141,40 1137,52 1136,52" stroke-linejoin="round" width="8" height="24" fill="rgb(127,204,98)" stroke="rgb(101,163,78)" stroke-width="1" opacity="0.75" />
			</g>
		</g>
		<g>
			<title>dsrE2_1 (AEOANFJI_01426)
Sulfur carrier protein DsrE2</title>
			<polygon class="dsrE2_1 (AEOANFJI_01426)
Sulfur carrier protein DsrE2" points="1147,10 1163,40 1147,70" fill="rgb(255,255,255)" fill-opacity="1.0" stroke="rgb(0,0,0)" stroke-width="2"  />
			<g>
				<title>DrsE_2 (PF13686)
"DsrE/DsrF/DrsH-like family"</title>
				<polygon class="PF13686" points="1147,28 1153,28 1159,40 1153,52 1147,52" stroke-linejoin="round" width="15" height="24" fill="rgb(218,70,162)" stroke="rgb(174,56,129)" stroke-width="1" opacity="0.75" />
			</g>
		</g>
		<g>
			<title> (AEOANFJI_01427)
Sulfurtransferase</title>
			<polygon class=" (AEOANFJI_01427)
Sulfurtransferase" points="1166,10 1176,40 1166,70" fill="rgb(255,255,255)" fill-opacity="1.0" stroke="rgb(0,0,0)" stroke-width="2"  />
			<g>
				<title>Rhodanese (PF00581)
"Rhodanese-like domain"</title>
				<polygon class="PF00581" points="1166,28 1168,28 1172,40 1168,52 1166,52" stroke-linejoin="round" width="9" height="24" fill="rgb(145,191,76)" stroke="rgb(116,152,60)" stroke-width="1" opacity="0.75" />
			</g>
		</g>
		<g>
			<title>glpE_1 (AEOANFJI_01428)
Thiosulfate sulfurtransferase GlpE</title>
			<polygon class="glpE_1 (AEOANFJI_01428)
Thiosulfate sulfurtransferase GlpE" points="1176,10 1195,40 1176,70" fill="rgb(255,255,255)" fill-opacity="1.0" stroke="rgb(0,0,0)" stroke-width="2"  />
			<g>
				<title>TusA (PF01206)
"Sulfurtransferase TusA"</title>
				<rect class="PF01206" x="1176" y="28" stroke-linejoin="round" width="6" height="24" fill="rgb(144,82,184)" stroke="rgb(115,65,147)" stroke-width="1" opacity="0.75" />
			</g>
			<g>
				<title>Rhodanese (PF00581)
"Rhodanese-like domain"</title>
				<polygon class="PF00581" points="1185,30 1191,40 1185,50" stroke-linejoin="round" width="9" height="24" fill="rgb(145,191,76)" stroke="rgb(116,152,60)" stroke-width="1" opacity="0.75" />
			</g>
		</g>
		<g>
			<title>dsrE2_2 (AEOANFJI_01429)
Sulfur carrier protein DsrE2</title>
			<polygon class="dsrE2_2 (AEOANFJI_01429)
Sulfur carrier protein DsrE2" points="1196,10 1209,40 1196,70" fill="rgb(255,255,255)" fill-opacity="1.0" stroke="rgb(0,0,0)" stroke-width="2"  />
			<g>
				<title>DrsE_2 (PF13686)
"DsrE/DsrF/DrsH-like family"</title>
				<polygon class="PF13686" points="1201,29 1206,40 1201,51" stroke-linejoin="round" width="7" height="24" fill="rgb(218,70,162)" stroke="rgb(174,56,129)" stroke-width="1" opacity="0.75" />
			</g>
		</g>
		<g>
			<title>gloB_3 (AEOANFJI_01430)
Hydroxyacylglutathione hydrolase</title>
			<polygon class="gloB_3 (AEOANFJI_01430)
Hydroxyacylglutathione hydrolase" points="1210,25 1217,25 1217,10 1247,40 1217,70 1217,55 1210,55" fill="rgb(255,255,255)" fill-opacity="1.0" stroke="rgb(0,0,0)" stroke-width="2"  />
			<g>
				<title>Rhodanese (PF00581)
"Rhodanese-like domain"</title>
				<rect class="PF00581" x="1210" y="28" stroke-linejoin="round" width="10" height="24" fill="rgb(145,191,76)" stroke="rgb(116,152,60)" stroke-width="1" opacity="0.75" />
			</g>
			<g>
				<title>Lactamase_B (PF00753)
"Metallo-beta-lactamase superfamily"</title>
				<polygon class="PF00753" points="1222,28 1231,28 1238,35 1238,45 1231,52 1222,52" stroke-linejoin="round" width="16" height="24" fill="rgb(206,198,96)" stroke="rgb(164,158,76)" stroke-width="1" opacity="0.75" />
			</g>
		</g>
		<g>
			<title>tusA (AEOANFJI_01431)
Sulfur carrier protein TusA</title>
			<polygon class="tusA (AEOANFJI_01431)
Sulfur carrier protein TusA" points="1248,10 1255,40 1248,70" fill="rgb(255,255,255)" fill-opacity="1.0" stroke="rgb(0,0,0)" stroke-width="2"  />
			<g>
				<title>TusA (PF01206)
"Sulfurtransferase TusA"</title>
				<polygon class="PF01206" points="1248,28 1249,28 1252,40 1249,52 1248,52" stroke-linejoin="round" width="6" height="24" fill="rgb(144,82,184)" stroke="rgb(115,65,147)" stroke-width="1" opacity="0.75" />
			</g>
		</g>
		<g>
			<title> (AEOANFJI_01432)
hypothetical protein</title>
			<polygon class=" (AEOANFJI_01432)
hypothetical protein" points="1258,10 1284,40 1258,70" fill="rgb(255,255,255)" fill-opacity="1.0" stroke="rgb(0,0,0)" stroke-width="2"  />
			<g>
				<title>TauE (PF01925)
"Sulfite exporter TauE/SafE"</title>
				<polygon class="PF01925" points="1258,28 1270,28 1280,40 1270,52 1258,52" stroke-linejoin="round" width="24" height="24" fill="rgb(105,203,95)" stroke="rgb(84,162,76)" stroke-width="1" opacity="0.75" />
			</g>
		</g>
		<g>
			<title> (AEOANFJI_01433)
hypothetical protein</title>
			<polygon class=" (AEOANFJI_01433)
hypothetical protein" points="1284,40 1289,10 1289,70" fill="rgb(255,255,255)" fill-opacity="1.0" stroke="rgb(0,0,0)" stroke-width="2"  />
		</g>
		<g>
			<title>COQ5_4 (AEOANFJI_01434)
2-methoxy-6-polyprenyl-1,4-benzoquinol methylase, mitochondrial</title>
			<polygon class="COQ5_4 (AEOANFJI_01434)
2-methoxy-6-polyprenyl-1,4-benzoquinol methylase, mitochondrial" points="1293,10 1311,40 1293,70" fill="rgb(255,255,255)" fill-opacity="1.0" stroke="rgb(0,0,0)" stroke-width="2"  />
			<g>
				<title>Methyltransf_11 (PF08241)
"Methyltransferase domain"</title>
				<polygon class="PF08241" points="1297,28 1300,28 1306,37 1306,43 1300,52 1297,52" stroke-linejoin="round" width="9" height="24" fill="rgb(106,219,159)" stroke="rgb(84,175,127)" stroke-width="1" opacity="0.75" />
			</g>
		</g>
		<g>
			<title> (AEOANFJI_01435)
hypothetical protein</title>
			<polygon class=" (AEOANFJI_01435)
hypothetical protein" points="1314,10 1327,40 1314,70" fill="rgb(255,255,255)" fill-opacity="1.0" stroke="rgb(0,0,0)" stroke-width="2"  />
			<g>
				<title>DUF302 (PF03625)
"Domain of unknown function DUF302"</title>
				<polygon class="PF03625" points="1317,28 1318,28 1323,39 1323,41 1318,52 1317,52" stroke-linejoin="round" width="6" height="24" fill="rgb(219,61,229)" stroke="rgb(175,48,183)" stroke-width="1" opacity="0.75" />
			</g>
		</g>
		<g>
			<title> (AEOANFJI_01436)
hypothetical protein</title>
			<polygon class=" (AEOANFJI_01436)
hypothetical protein" points="1334,10 1355,40 1334,70" fill="rgb(255,255,255)" fill-opacity="1.0" stroke="rgb(0,0,0)" stroke-width="2"  />
		</g>
		<g>
			<title> (AEOANFJI_01437)
hypothetical protein</title>
			<polygon class=" (AEOANFJI_01437)
hypothetical protein" points="1355,10 1379,40 1355,70" fill="rgb(255,255,255)" fill-opacity="1.0" stroke="rgb(0,0,0)" stroke-width="2"  />
			<g>
				<title>DsbD (PF02683)
"Cytochrome C biogenesis protein transmembrane region"</title>
				<polygon class="PF02683" points="1356,28 1366,28 1375,40 1366,52 1356,52" stroke-linejoin="round" width="21" height="24" fill="rgb(89,192,111)" stroke="rgb(71,153,88)" stroke-width="1" opacity="0.75" />
			</g>
		</g>
		<g>
			<title>resA_2 (AEOANFJI_01438)
Thiol-disulfide oxidoreductase ResA</title>
			<polygon class="resA_2 (AEOANFJI_01438)
Thiol-disulfide oxidoreductase ResA" points="1381,10 1400,40 1381,70" fill="rgb(255,255,255)" fill-opacity="1.0" stroke="rgb(0,0,0)" stroke-width="2"  />
			<g>
				<title>AhpC-TSA (PF00578)
"AhpC/TSA family"</title>
				<polygon class="PF00578" points="1387,28 1389,28 1397,40 1389,52 1387,52" stroke-linejoin="round" width="11" height="24" fill="rgb(166,71,190)" stroke="rgb(132,56,152)" stroke-width="1" opacity="0.75" />
			</g>
		</g>
		<g>
			<title>sphR (AEOANFJI_01439)
Alkaline phosphatase synthesis transcriptional regulatory protein SphR</title>
			<polygon class="sphR (AEOANFJI_01439)
Alkaline phosphatase synthesis transcriptional regulatory protein SphR" points="1402,10 1424,40 1402,70" fill="rgb(255,255,255)" fill-opacity="1.0" stroke="rgb(0,0,0)" stroke-width="2"  />
			<g>
				<title>Response_reg (PF00072)
"Response regulator receiver domain"</title>
				<polygon class="PF00072" points="1402,28 1412,28 1413,30 1413,50 1412,52 1402,52" stroke-linejoin="round" width="11" height="24" fill="rgb(100,107,203)" stroke="rgb(80,85,162)" stroke-width="1" opacity="0.75" />
			</g>
			<g>
				<title>Trans_reg_C (PF00486)
"Transcriptional regulatory protein, C terminal"</title>
				<polygon class="PF00486" points="1416,34 1420,40 1416,46" stroke-linejoin="round" width="7" height="24" fill="rgb(204,153,57)" stroke="rgb(163,122,45)" stroke-width="1" opacity="0.75" />
			</g>
		</g>
		<g>
			<title>baeS (AEOANFJI_01440)
Signal transduction histidine-protein kinase BaeS</title>
			<polygon class="baeS (AEOANFJI_01440)
Signal transduction histidine-protein kinase BaeS" points="1424,25 1429,25 1429,10 1459,40 1429,70 1429,55 1424,55" fill="rgb(255,255,255)" fill-opacity="1.0" stroke="rgb(0,0,0)" stroke-width="2"  />
			<g>
				<title>HAMP (PF00672)
"HAMP domain"</title>
				<rect class="PF00672" x="1432" y="28" stroke-linejoin="round" width="5" height="24" fill="rgb(124,89,195)" stroke="rgb(99,71,156)" stroke-width="1" opacity="0.75" />
			</g>
			<g>
				<title>HisKA (PF00512)
"His Kinase A (phospho-acceptor) domain"</title>
				<rect class="PF00512" x="1437" y="28" stroke-linejoin="round" width="6" height="24" fill="rgb(193,125,62)" stroke="rgb(154,100,49)" stroke-width="1" opacity="0.75" />
			</g>
			<g>
				<title>HATPase_c (PF02518)
"Histidine kinase-, DNA gyrase B-, and HSP90-like ATPase"</title>
				<polygon class="PF02518" points="1447,32 1455,40 1447,48" stroke-linejoin="round" width="12" height="24" fill="rgb(80,94,225)" stroke="rgb(64,75,180)" stroke-width="1" opacity="0.75" />
			</g>
		</g>
	</g>
</svg>
