<svg version="1.1" baseProfile="full" xmlns="http://www.w3.org/2000/svg" width="501.4" height="80">
	<g>
		<line x1="10" y1="40.0" x2="491.4" y2="40.0" style="stroke:rgb(70,70,70); stroke-width:3 "/>
		<g>
			<title> (FCEALEOD_02727)
hypothetical protein</title>
			<polygon class=" (FCEALEOD_02727)
hypothetical protein" points="10,40 29,10 29,70" fill="rgb(255,255,255)" fill-opacity="1.0" stroke="rgb(0,0,0)" stroke-width="2"  />
			<g>
				<title>OmdA (PF13376)
"Bacteriocin-protection, YdeI or OmpD-Associated"</title>
				<polygon class="PF13376" points="14,40 15,38 15,42" stroke-linejoin="round" width="5" height="24" fill="rgb(212,104,109)" stroke="rgb(169,83,87)" stroke-width="1" opacity="0.75" />
			</g>
			<g>
				<title>DUF1801 (PF08818)
"Domain of unknown function (DU1801)"</title>
				<polygon class="PF08818" points="18,34 22,28 27,28 27,52 22,52 18,46" stroke-linejoin="round" width="9" height="24" fill="rgb(120,214,95)" stroke="rgb(96,171,76)" stroke-width="1" opacity="0.75" />
			</g>
		</g>
		<g>
			<title> (FCEALEOD_02728)
hypothetical protein</title>
			<polygon class=" (FCEALEOD_02728)
hypothetical protein" points="34,40 54,10 54,70" fill="rgb(255,255,255)" fill-opacity="1.0" stroke="rgb(0,0,0)" stroke-width="2"  />
		</g>
		<g>
			<title>tgl (FCEALEOD_02729)
Protein-glutamine gamma-glutamyltransferase</title>
			<polygon class="tgl (FCEALEOD_02729)
Protein-glutamine gamma-glutamyltransferase" points="61,10 89,40 61,70" fill="rgb(255,255,255)" fill-opacity="1.0" stroke="rgb(0,0,0)" stroke-width="2"  />
		</g>
		<g>
			<title> (FCEALEOD_02730)
hypothetical protein</title>
			<polygon class=" (FCEALEOD_02730)
hypothetical protein" points="93,10 100,40 93,70" fill="rgb(255,255,255)" fill-opacity="1.0" stroke="rgb(0,0,0)" stroke-width="2"  />
			<g>
				<title>YjcZ_2 (PF09680)
"Family of unknown function"</title>
				<polygon class="PF09680" points="97,40 97,40 97,40" stroke-linejoin="round" width="1" height="24" fill="rgb(79,203,107)" stroke="rgb(63,162,85)" stroke-width="1" opacity="0.75" />
			</g>
		</g>
		<g>
			<title>lysC (FCEALEOD_02731)
Aspartokinase</title>
			<polygon class="lysC (FCEALEOD_02731)
Aspartokinase" points="155,25 145,25 145,10 115,40 145,70 145,55 155,55" fill="rgb(255,255,255)" fill-opacity="1.0" stroke="rgb(0,0,0)" stroke-width="2"  />
			<g>
				<title>AA_kinase (PF00696)
"Amino acid kinase family"</title>
				<rect class="PF00696" x="132" y="28" stroke-linejoin="round" width="22" height="24" fill="rgb(148,78,224)" stroke="rgb(118,62,179)" stroke-width="1" opacity="0.75" />
			</g>
		</g>
		<g>
			<title>iucC (FCEALEOD_02732)
Aerobactin synthase</title>
			<polygon class="iucC (FCEALEOD_02732)
Aerobactin synthase" points="216,25 186,25 186,10 156,40 186,70 186,55 216,55" fill="rgb(255,255,255)" fill-opacity="1.0" stroke="rgb(0,0,0)" stroke-width="2"  />
			<g>
				<title>FhuF (PF06276)
"Ferric iron reductase FhuF-like transporter"</title>
				<polygon class="PF06276" points="160,40 172,28 174,28 174,52 172,52" stroke-linejoin="round" width="16" height="24" fill="rgb(76,151,221)" stroke="rgb(60,120,176)" stroke-width="1" opacity="0.75" />
			</g>
			<g>
				<title>IucA_IucC (PF04183)
"IucA / IucC family"</title>
				<rect class="PF04183" x="177" y="28" stroke-linejoin="round" width="25" height="24" fill="rgb(221,104,121)" stroke="rgb(176,83,96)" stroke-width="1" opacity="0.75" />
			</g>
		</g>
		<g>
			<title>iucD_3 (FCEALEOD_02733)
L-lysine N6-monooxygenase</title>
			<polygon class="iucD_3 (FCEALEOD_02733)
L-lysine N6-monooxygenase" points="261,25 247,25 247,10 217,40 247,70 247,55 261,55" fill="rgb(255,255,255)" fill-opacity="1.0" stroke="rgb(0,0,0)" stroke-width="2"  />
			<g>
				<title>K_oxygenase (PF13434)
"L-lysine 6-monooxygenase (NADPH-requiring)"</title>
				<polygon class="PF13434" points="226,35 233,28 260,28 260,52 233,52 226,45" stroke-linejoin="round" width="34" height="24" fill="rgb(81,213,119)" stroke="rgb(64,170,95)" stroke-width="1" opacity="0.75" />
			</g>
		</g>
		<g>
			<title>iucB (FCEALEOD_02734)
N(6)-hydroxylysine O-acetyltransferase</title>
			<polygon class="iucB (FCEALEOD_02734)
N(6)-hydroxylysine O-acetyltransferase" points="261,40 280,10 280,70" fill="rgb(255,255,255)" fill-opacity="1.0" stroke="rgb(0,0,0)" stroke-width="2"  />
			<g>
				<title>Acetyltransf_8 (PF13523)
"Acetyltransferase (GNAT) domain"</title>
				<polygon class="PF13523" points="265,40 273,28 277,28 277,52 273,52" stroke-linejoin="round" width="14" height="24" fill="rgb(106,224,203)" stroke="rgb(84,179,162)" stroke-width="1" opacity="0.75" />
			</g>
		</g>
		<g>
			<title>iucA (FCEALEOD_02735)
N(2)-citryl-N(6)-acetyl-N(6)-hydroxylysine synthase</title>
			<polygon class="iucA (FCEALEOD_02735)
N(2)-citryl-N(6)-acetyl-N(6)-hydroxylysine synthase" points="339,25 310,25 310,10 280,40 310,70 310,55 339,55" fill="rgb(255,255,255)" fill-opacity="1.0" stroke="rgb(0,0,0)" stroke-width="2"  />
			<g>
				<title>FhuF (PF06276)
"Ferric iron reductase FhuF-like transporter"</title>
				<polygon class="PF06276" points="284,40 296,28 297,28 297,52 296,52" stroke-linejoin="round" width="15" height="24" fill="rgb(76,151,221)" stroke="rgb(60,120,176)" stroke-width="1" opacity="0.75" />
			</g>
			<g>
				<title>IucA_IucC (PF04183)
"IucA / IucC family"</title>
				<rect class="PF04183" x="301" y="28" stroke-linejoin="round" width="23" height="24" fill="rgb(221,104,121)" stroke="rgb(176,83,96)" stroke-width="1" opacity="0.75" />
			</g>
		</g>
		<g>
			<title>ddc (FCEALEOD_02736)
L-2,4-diaminobutyrate decarboxylase</title>
			<polygon class="ddc (FCEALEOD_02736)
L-2,4-diaminobutyrate decarboxylase" points="388,25 368,25 368,10 338,40 368,70 368,55 388,55" fill="rgb(255,255,255)" fill-opacity="1.0" stroke="rgb(0,0,0)" stroke-width="2"  />
			<g>
				<title>Pyridoxal_deC (PF00282)
"Pyridoxal-dependent decarboxylase conserved domain"</title>
				<polygon class="PF00282" points="345,37 354,28 382,28 382,52 354,52 345,43" stroke-linejoin="round" width="37" height="24" fill="rgb(100,218,166)" stroke="rgb(80,174,132)" stroke-width="1" opacity="0.75" />
			</g>
		</g>
		<g>
			<title>dat_1 (FCEALEOD_02737)
Diaminobutyrate--2-oxoglutarate aminotransferase</title>
			<polygon class="dat_1 (FCEALEOD_02737)
Diaminobutyrate--2-oxoglutarate aminotransferase" points="434,25 419,25 419,10 389,40 419,70 419,55 434,55" fill="rgb(255,255,255)" fill-opacity="1.0" stroke="rgb(0,0,0)" stroke-width="2"  />
			<g>
				<title>Aminotran_3 (PF00202)
"Aminotransferase class-III"</title>
				<polygon class="PF00202" points="393,40 405,28 431,28 431,52 405,52" stroke-linejoin="round" width="42" height="24" fill="rgb(49,163,189)" stroke="rgb(39,130,151)" stroke-width="1" opacity="0.75" />
			</g>
		</g>
		<g>
			<title>citS_2 (FCEALEOD_02738)
Citrate-sodium symporter</title>
			<polygon class="citS_2 (FCEALEOD_02738)
Citrate-sodium symporter" points="491,25 477,25 477,10 447,40 477,70 477,55 491,55" fill="rgb(255,255,255)" fill-opacity="1.0" stroke="rgb(0,0,0)" stroke-width="2"  />
			<g>
				<title>2HCT (PF03390)
"2-hydroxycarboxylate transporter family"</title>
				<polygon class="PF03390" points="451,40 463,28 487,28 487,52 463,52" stroke-linejoin="round" width="40" height="24" fill="rgb(192,160,88)" stroke="rgb(153,128,70)" stroke-width="1" opacity="0.75" />
			</g>
		</g>
	</g>
</svg>
