<svg version="1.1" baseProfile="full" xmlns="http://www.w3.org/2000/svg" width="970.9333333333333" height="80">
	<g>
		<line x1="10" y1="40.0" x2="960.9333333333333" y2="40.0" style="stroke:rgb(70,70,70); stroke-width:3 "/>
		<g>
			<title> (PJBLFHJD_01304)
hypothetical protein</title>
			<polygon class=" (PJBLFHJD_01304)
hypothetical protein" points="32,10 49,40 32,70" fill="rgb(255,255,255)" fill-opacity="1.0" stroke="rgb(0,0,0)" stroke-width="2"  />
		</g>
		<g>
			<title> (PJBLFHJD_01305)
hypothetical protein</title>
			<polygon class=" (PJBLFHJD_01305)
hypothetical protein" points="53,10 65,40 53,70" fill="rgb(255,255,255)" fill-opacity="1.0" stroke="rgb(0,0,0)" stroke-width="2"  />
			<g>
				<title>RTP (PF02334)
"Replication terminator protein"</title>
				<polygon class="PF02334" points="53,28 57,28 62,40 57,52 53,52" stroke-linejoin="round" width="11" height="24" fill="rgb(170,189,64)" stroke="rgb(136,151,51)" stroke-width="1" opacity="0.75" />
			</g>
		</g>
		<g>
			<title> (PJBLFHJD_01306)
hypothetical protein</title>
			<polygon class=" (PJBLFHJD_01306)
hypothetical protein" points="66,25 69,25 69,10 99,40 69,70 69,55 66,55" fill="rgb(255,255,255)" fill-opacity="1.0" stroke="rgb(0,0,0)" stroke-width="2"  />
			<g>
				<title>Bac_luciferase (PF00296)
"Luciferase-like monooxygenase"</title>
				<polygon class="PF00296" points="66,28 83,28 95,40 83,52 66,52" stroke-linejoin="round" width="30" height="24" fill="rgb(180,112,78)" stroke="rgb(144,89,62)" stroke-width="1" opacity="0.75" />
			</g>
		</g>
		<g>
			<title>cvfB (PJBLFHJD_01307)
Conserved virulence factor B</title>
			<polygon class="cvfB (PJBLFHJD_01307)
Conserved virulence factor B" points="100,10 128,40 100,70" fill="rgb(255,255,255)" fill-opacity="1.0" stroke="rgb(0,0,0)" stroke-width="2"  />
			<g>
				<title>S1_2 (PF13509)
"S1 domain"</title>
				<rect class="PF13509" x="100" y="28" stroke-linejoin="round" width="6" height="24" fill="rgb(62,185,141)" stroke="rgb(49,148,112)" stroke-width="1" opacity="0.75" />
			</g>
			<g>
				<title>CvfB_WH (PF17783)
"CvfB-like winged helix domain"</title>
				<polygon class="PF17783" points="122,38 124,40 122,42" stroke-linejoin="round" width="5" height="24" fill="rgb(199,98,56)" stroke="rgb(159,78,44)" stroke-width="1" opacity="0.75" />
			</g>
		</g>
		<g>
			<title> (PJBLFHJD_01308)
hypothetical protein</title>
			<polygon class=" (PJBLFHJD_01308)
hypothetical protein" points="134,40 152,10 152,70" fill="rgb(255,255,255)" fill-opacity="1.0" stroke="rgb(0,0,0)" stroke-width="2"  />
			<g>
				<title>Peptidase_C92 (PF05708)
"Permuted papain-like amidase enzyme, YaeF/YiiX, C92 family"</title>
				<polygon class="PF05708" points="138,40 145,28 147,28 147,52 145,52" stroke-linejoin="round" width="13" height="24" fill="rgb(188,91,163)" stroke="rgb(150,72,130)" stroke-width="1" opacity="0.75" />
			</g>
		</g>
		<g>
			<title>bgaA_1 (PJBLFHJD_01309)
Beta-galactosidase BgaA</title>
			<polygon class="bgaA_1 (PJBLFHJD_01309)
Beta-galactosidase BgaA" points="159,25 192,25 192,10 222,40 192,70 192,55 159,55" fill="rgb(255,255,255)" fill-opacity="1.0" stroke="rgb(0,0,0)" stroke-width="2"  />
			<g>
				<title>Glyco_hydro_42 (PF02449)
"Beta-galactosidase"</title>
				<rect class="PF02449" x="159" y="28" stroke-linejoin="round" width="37" height="24" fill="rgb(225,128,112)" stroke="rgb(180,102,89)" stroke-width="1" opacity="0.75" />
			</g>
			<g>
				<title>Glyco_hydro_42M (PF08532)
"Beta-galactosidase trimerisation domain"</title>
				<polygon class="PF08532" points="198,28 205,28 216,39 216,41 205,52 198,52" stroke-linejoin="round" width="18" height="24" fill="rgb(190,215,94)" stroke="rgb(152,172,75)" stroke-width="1" opacity="0.75" />
			</g>
		</g>
		<g>
			<title> (PJBLFHJD_01310)
hypothetical protein</title>
			<polygon class=" (PJBLFHJD_01310)
hypothetical protein" points="233,40 245,10 245,70" fill="rgb(255,255,255)" fill-opacity="1.0" stroke="rgb(0,0,0)" stroke-width="2"  />
			<g>
				<title>Glyoxalase (PF00903)
"Glyoxalase/Bleomycin resistance protein/Dioxygenase superfamily"</title>
				<polygon class="PF00903" points="236,40 241,28 244,28 244,52 241,52" stroke-linejoin="round" width="11" height="24" fill="rgb(50,162,189)" stroke="rgb(40,129,151)" stroke-width="1" opacity="0.75" />
			</g>
		</g>
		<g>
			<title>mgtA (PJBLFHJD_01311)
GDP-mannose-dependent alpha-mannosyltransferase</title>
			<polygon class="mgtA (PJBLFHJD_01311)
GDP-mannose-dependent alpha-mannosyltransferase" points="293,25 285,25 285,10 255,40 285,70 285,55 293,55" fill="rgb(255,255,255)" fill-opacity="1.0" stroke="rgb(0,0,0)" stroke-width="2"  />
			<g>
				<title>Glycos_transf_1 (PF00534)
"Glycosyl transferases group 1"</title>
				<polygon class="PF00534" points="259,40 271,28 275,28 275,52 271,52 259,40" stroke-linejoin="round" width="16" height="24" fill="rgb(228,92,150)" stroke="rgb(182,73,119)" stroke-width="1" opacity="0.75" />
			</g>
			<g>
				<title>Glyco_transf_4 (PF13439)
"Glycosyltransferase Family 4"</title>
				<rect class="PF13439" x="275" y="28" stroke-linejoin="round" width="16" height="24" fill="rgb(162,57,186)" stroke="rgb(129,45,148)" stroke-width="1" opacity="0.75" />
			</g>
		</g>
		<g>
			<title> (PJBLFHJD_01312)
hypothetical protein</title>
			<polygon class=" (PJBLFHJD_01312)
hypothetical protein" points="332,25 324,25 324,10 294,40 324,70 324,55 332,55" fill="rgb(255,255,255)" fill-opacity="1.0" stroke="rgb(0,0,0)" stroke-width="2"  />
			<g>
				<title>Epimerase (PF01370)
"NAD dependent epimerase/dehydratase family"</title>
				<polygon class="PF01370" points="303,35 310,28 331,28 331,52 310,52 303,45" stroke-linejoin="round" width="28" height="24" fill="rgb(98,102,214)" stroke="rgb(78,81,171)" stroke-width="1" opacity="0.75" />
			</g>
		</g>
		<g>
			<title>acs (PJBLFHJD_01313)
Acetyl-coenzyme A synthetase</title>
			<polygon class="acs (PJBLFHJD_01313)
Acetyl-coenzyme A synthetase" points="343,25 378,25 378,10 408,40 378,70 378,55 343,55" fill="rgb(255,255,255)" fill-opacity="1.0" stroke="rgb(0,0,0)" stroke-width="2"  />
			<g>
				<title>ACAS_N (PF16177)
"Acetyl-coenzyme A synthetase N-terminus"</title>
				<rect class="PF16177" x="346" y="28" stroke-linejoin="round" width="5" height="24" fill="rgb(54,78,195)" stroke="rgb(43,62,156)" stroke-width="1" opacity="0.75" />
			</g>
			<g>
				<title>AMP-binding (PF00501)
"AMP-binding enzyme"</title>
				<polygon class="PF00501" points="352,28 392,28 395,31 395,49 392,52 352,52" stroke-linejoin="round" width="43" height="24" fill="rgb(60,217,223)" stroke="rgb(48,173,178)" stroke-width="1" opacity="0.75" />
			</g>
			<g>
				<title>AMP-binding_C (PF13193)
"AMP-binding enzyme C-terminal domain"</title>
				<polygon class="PF13193" points="396,32 403,39 403,41 396,48" stroke-linejoin="round" width="7" height="24" fill="rgb(182,50,118)" stroke="rgb(145,39,94)" stroke-width="1" opacity="0.75" />
			</g>
		</g>
		<g>
			<title>accD5 (PJBLFHJD_01314)
putative propionyl-CoA carboxylase beta chain 5</title>
			<polygon class="accD5 (PJBLFHJD_01314)
putative propionyl-CoA carboxylase beta chain 5" points="461,25 441,25 441,10 411,40 441,70 441,55 461,55" fill="rgb(255,255,255)" fill-opacity="1.0" stroke="rgb(0,0,0)" stroke-width="2"  />
			<g>
				<title>Carboxyl_trans (PF01039)
"Carboxyl transferase domain"</title>
				<polygon class="PF01039" points="415,40 427,28 459,28 459,52 427,52" stroke-linejoin="round" width="48" height="24" fill="rgb(180,136,60)" stroke="rgb(144,108,48)" stroke-width="1" opacity="0.75" />
			</g>
		</g>
		<g>
			<title>crt (PJBLFHJD_01315)
Short-chain-enoyl-CoA hydratase</title>
			<polygon class="crt (PJBLFHJD_01315)
Short-chain-enoyl-CoA hydratase" points="462,40 487,10 487,70" fill="rgb(255,255,255)" fill-opacity="1.0" stroke="rgb(0,0,0)" stroke-width="2"  />
			<g>
				<title>ECH_1 (PF00378)
"Enoyl-CoA hydratase/isomerase"</title>
				<polygon class="PF00378" points="466,40 476,28 486,28 486,52 476,52" stroke-linejoin="round" width="24" height="24" fill="rgb(218,72,181)" stroke="rgb(174,57,144)" stroke-width="1" opacity="0.75" />
			</g>
		</g>
		<g>
			<title>yngG_1 (PJBLFHJD_01316)
Hydroxymethylglutaryl-CoA lyase YngG</title>
			<polygon class="yngG_1 (PJBLFHJD_01316)
Hydroxymethylglutaryl-CoA lyase YngG" points="518,25 518,25 518,10 488,40 518,70 518,55 518,55" fill="rgb(255,255,255)" fill-opacity="1.0" stroke="rgb(0,0,0)" stroke-width="2"  />
			<g>
				<title>HMGL-like (PF00682)
"HMGL-like"</title>
				<polygon class="PF00682" points="492,40 504,28 517,28 517,52 504,52" stroke-linejoin="round" width="27" height="24" fill="rgb(84,228,141)" stroke="rgb(67,182,112)" stroke-width="1" opacity="0.75" />
			</g>
		</g>
		<g>
			<title>yngHB (PJBLFHJD_01317)
Biotin/lipoyl attachment protein</title>
			<polygon class="yngHB (PJBLFHJD_01317)
Biotin/lipoyl attachment protein" points="519,40 526,10 526,70" fill="rgb(255,255,255)" fill-opacity="1.0" stroke="rgb(0,0,0)" stroke-width="2"  />
			<g>
				<title>Biotin_lipoyl (PF00364)
"Biotin-requiring enzyme"</title>
				<polygon class="PF00364" points="522,40 525,28 525,28 525,52 525,52" stroke-linejoin="round" width="6" height="24" fill="rgb(67,214,213)" stroke="rgb(53,171,170)" stroke-width="1" opacity="0.75" />
			</g>
		</g>
		<g>
			<title>accA1 (PJBLFHJD_01318)
Acetyl-/propionyl-coenzyme A carboxylase alpha chain</title>
			<polygon class="accA1 (PJBLFHJD_01318)
Acetyl-/propionyl-coenzyme A carboxylase alpha chain" points="572,25 557,25 557,10 527,40 557,70 557,55 572,55" fill="rgb(255,255,255)" fill-opacity="1.0" stroke="rgb(0,0,0)" stroke-width="2"  />
			<g>
				<title>Biotin_carb_C (PF02785)
"Biotin carboxylase C-terminal domain"</title>
				<polygon class="PF02785" points="531,40 538,33 538,47" stroke-linejoin="round" width="10" height="24" fill="rgb(82,186,211)" stroke="rgb(65,148,168)" stroke-width="1" opacity="0.75" />
			</g>
			<g>
				<title>CPSase_L_D2 (PF02786)
"Carbamoyl-phosphate synthase L chain, ATP binding domain"</title>
				<polygon class="PF02786" points="539,32 543,28 559,28 559,52 543,52 539,48" stroke-linejoin="round" width="20" height="24" fill="rgb(190,97,205)" stroke="rgb(151,77,164)" stroke-width="1" opacity="0.75" />
			</g>
			<g>
				<title>Biotin_carb_N (PF00289)
"Biotin carboxylase, N-terminal domain"</title>
				<rect class="PF00289" x="561" y="28" stroke-linejoin="round" width="10" height="24" fill="rgb(59,114,187)" stroke="rgb(47,91,149)" stroke-width="1" opacity="0.75" />
			</g>
		</g>
		<g>
			<title>fadD3 (PJBLFHJD_01319)
3-[(3aS,4S,7aS)-7a-methyl-1, 5-dioxo-octahydro-1H-inden-4-yl]propanoyl:CoA ligase</title>
			<polygon class="fadD3 (PJBLFHJD_01319)
3-[(3aS,4S,7aS)-7a-methyl-1, 5-dioxo-octahydro-1H-inden-4-yl]propanoyl:CoA ligase" points="626,25 602,25 602,10 572,40 602,70 602,55 626,55" fill="rgb(255,255,255)" fill-opacity="1.0" stroke="rgb(0,0,0)" stroke-width="2"  />
			<g>
				<title>AMP-binding_C (PF13193)
"AMP-binding enzyme C-terminal domain"</title>
				<polygon class="PF13193" points="576,40 580,36 580,44" stroke-linejoin="round" width="7" height="24" fill="rgb(182,50,118)" stroke="rgb(145,39,94)" stroke-width="1" opacity="0.75" />
			</g>
			<g>
				<title>AMP-binding (PF00501)
"AMP-binding enzyme"</title>
				<polygon class="PF00501" points="582,34 588,28 625,28 625,52 588,52 582,46" stroke-linejoin="round" width="43" height="24" fill="rgb(60,217,223)" stroke="rgb(48,173,178)" stroke-width="1" opacity="0.75" />
			</g>
		</g>
		<g>
			<title>bcd_1 (PJBLFHJD_01320)
Acyl-CoA dehydrogenase, short-chain specific</title>
			<polygon class="bcd_1 (PJBLFHJD_01320)
Acyl-CoA dehydrogenase, short-chain specific" points="666,25 658,25 658,10 628,40 658,70 658,55 666,55" fill="rgb(255,255,255)" fill-opacity="1.0" stroke="rgb(0,0,0)" stroke-width="2"  />
			<g>
				<title>Acyl-CoA_dh_1 (PF00441)
"Acyl-CoA dehydrogenase, C-terminal domain"</title>
				<polygon class="PF00441" points="632,40 642,30 642,50" stroke-linejoin="round" width="14" height="24" fill="rgb(85,191,117)" stroke="rgb(68,152,93)" stroke-width="1" opacity="0.75" />
			</g>
			<g>
				<title>Acyl-CoA_dh_M (PF02770)
"Acyl-CoA dehydrogenase, middle domain"</title>
				<polygon class="PF02770" points="644,28 644,28 653,28 653,52 644,52 644,52" stroke-linejoin="round" width="9" height="24" fill="rgb(225,186,97)" stroke="rgb(180,148,77)" stroke-width="1" opacity="0.75" />
			</g>
			<g>
				<title>Acyl-CoA_dh_N (PF02771)
"Acyl-CoA dehydrogenase, N-terminal domain"</title>
				<rect class="PF02771" x="654" y="28" stroke-linejoin="round" width="11" height="24" fill="rgb(105,135,218)" stroke="rgb(84,108,174)" stroke-width="1" opacity="0.75" />
			</g>
		</g>
		<g>
			<title>kstR2_1 (PJBLFHJD_01321)
HTH-type transcriptional repressor KstR2</title>
			<polygon class="kstR2_1 (PJBLFHJD_01321)
HTH-type transcriptional repressor KstR2" points="668,40 688,10 688,70" fill="rgb(255,255,255)" fill-opacity="1.0" stroke="rgb(0,0,0)" stroke-width="2"  />
			<g>
				<title>TetR_C_24 (PF17932)
"Tetracyclin repressor-like, C-terminal domain"</title>
				<polygon class="PF17932" points="672,40 680,28 681,28 681,52 680,52" stroke-linejoin="round" width="11" height="24" fill="rgb(165,217,107)" stroke="rgb(132,173,85)" stroke-width="1" opacity="0.75" />
			</g>
			<g>
				<title>TetR_N (PF00440)
"Bacterial regulatory proteins, tetR family"</title>
				<rect class="PF00440" x="683" y="28" stroke-linejoin="round" width="4" height="24" fill="rgb(73,212,190)" stroke="rgb(58,169,152)" stroke-width="1" opacity="0.75" />
			</g>
		</g>
		<g>
			<title>parC (PJBLFHJD_01322)
DNA topoisomerase 4 subunit A</title>
			<polygon class="parC (PJBLFHJD_01322)
DNA topoisomerase 4 subunit A" points="777,25 726,25 726,10 696,40 726,70 726,55 777,55" fill="rgb(255,255,255)" fill-opacity="1.0" stroke="rgb(0,0,0)" stroke-width="2"  />
			<g>
				<title>DNA_gyraseA_C (PF03989)
"DNA gyrase C-terminal domain, beta-propeller"</title>
				<polygon class="PF03989" points="702,38 706,34 706,46 702,42" stroke-linejoin="round" width="4" height="24" fill="rgb(52,134,190)" stroke="rgb(41,107,152)" stroke-width="1" opacity="0.75" />
			</g>
			<g>
				<title>DNA_gyraseA_C (PF03989)
"DNA gyrase C-terminal domain, beta-propeller"</title>
				<polygon class="PF03989" points="707,33 711,29 711,51 707,47" stroke-linejoin="round" width="4" height="24" fill="rgb(52,134,190)" stroke="rgb(41,107,152)" stroke-width="1" opacity="0.75" />
			</g>
			<g>
				<title>DNA_gyraseA_C (PF03989)
"DNA gyrase C-terminal domain, beta-propeller"</title>
				<polygon class="PF03989" points="712,28 712,28 716,28 716,52 712,52 712,52" stroke-linejoin="round" width="4" height="24" fill="rgb(52,134,190)" stroke="rgb(41,107,152)" stroke-width="1" opacity="0.75" />
			</g>
			<g>
				<title>DNA_gyraseA_C (PF03989)
"DNA gyrase C-terminal domain, beta-propeller"</title>
				<rect class="PF03989" x="718" y="28" stroke-linejoin="round" width="5" height="24" fill="rgb(52,134,190)" stroke="rgb(41,107,152)" stroke-width="1" opacity="0.75" />
			</g>
			<g>
				<title>DNA_gyraseA_C (PF03989)
"DNA gyrase C-terminal domain, beta-propeller"</title>
				<rect class="PF03989" x="723" y="28" stroke-linejoin="round" width="3" height="24" fill="rgb(52,134,190)" stroke="rgb(41,107,152)" stroke-width="1" opacity="0.75" />
			</g>
			<g>
				<title>DNA_topoisoIV (PF00521)
"DNA gyrase/topoisomerase IV, subunit A"</title>
				<rect class="PF00521" x="730" y="28" stroke-linejoin="round" width="44" height="24" fill="rgb(196,204,77)" stroke="rgb(156,163,61)" stroke-width="1" opacity="0.75" />
			</g>
		</g>
		<g>
			<title>parE (PJBLFHJD_01323)
DNA topoisomerase 4 subunit B</title>
			<polygon class="parE (PJBLFHJD_01323)
DNA topoisomerase 4 subunit B" points="844,25 809,25 809,10 779,40 809,70 809,55 844,55" fill="rgb(255,255,255)" fill-opacity="1.0" stroke="rgb(0,0,0)" stroke-width="2"  />
			<g>
				<title>DNA_gyraseB_C (PF00986)
"DNA gyrase B subunit, carboxyl terminus"</title>
				<polygon class="PF00986" points="783,40 787,36 787,44" stroke-linejoin="round" width="6" height="24" fill="rgb(184,59,116)" stroke="rgb(147,47,92)" stroke-width="1" opacity="0.75" />
			</g>
			<g>
				<title>Toprim (PF01751)
"Toprim domain"</title>
				<polygon class="PF01751" points="790,33 795,28 801,28 801,52 795,52 790,47" stroke-linejoin="round" width="11" height="24" fill="rgb(95,212,145)" stroke="rgb(76,169,116)" stroke-width="1" opacity="0.75" />
			</g>
			<g>
				<title>DNA_gyraseB (PF00204)
"DNA gyrase B"</title>
				<rect class="PF00204" x="804" y="28" stroke-linejoin="round" width="17" height="24" fill="rgb(66,134,179)" stroke="rgb(52,107,143)" stroke-width="1" opacity="0.75" />
			</g>
			<g>
				<title>HATPase_c (PF02518)
"Histidine kinase-, DNA gyrase B-, and HSP90-like ATPase"</title>
				<rect class="PF02518" x="826" y="28" stroke-linejoin="round" width="14" height="24" fill="rgb(80,94,225)" stroke="rgb(64,75,180)" stroke-width="1" opacity="0.75" />
			</g>
		</g>
		<g>
			<title>yccU (PJBLFHJD_01324)
putative protein YccU</title>
			<polygon class="yccU (PJBLFHJD_01324)
putative protein YccU" points="850,40 863,10 863,70" fill="rgb(255,255,255)" fill-opacity="1.0" stroke="rgb(0,0,0)" stroke-width="2"  />
			<g>
				<title>CoA_binding_2 (PF13380)
"CoA binding domain"</title>
				<polygon class="PF13380" points="853,40 858,28 861,28 861,52 858,52" stroke-linejoin="round" width="11" height="24" fill="rgb(212,69,78)" stroke="rgb(169,55,62)" stroke-width="1" opacity="0.75" />
			</g>
		</g>
		<g>
			<title> (PJBLFHJD_01325)
hypothetical protein</title>
			<polygon class=" (PJBLFHJD_01325)
hypothetical protein" points="914,25 894,25 894,10 864,40 894,70 894,55 914,55" fill="rgb(255,255,255)" fill-opacity="1.0" stroke="rgb(0,0,0)" stroke-width="2"  />
			<g>
				<title>OpuAC (PF04069)
"Substrate binding domain of ABC-type glycine betaine transport system"</title>
				<polygon class="PF04069" points="868,40 880,28 890,28 890,52 880,52" stroke-linejoin="round" width="26" height="24" fill="rgb(81,218,80)" stroke="rgb(64,174,64)" stroke-width="1" opacity="0.75" />
			</g>
			<g>
				<title>BPD_transp_1 (PF00528)
"Binding-protein-dependent transport system inner membrane component"</title>
				<rect class="PF00528" x="894" y="28" stroke-linejoin="round" width="17" height="24" fill="rgb(77,208,225)" stroke="rgb(61,166,180)" stroke-width="1" opacity="0.75" />
			</g>
		</g>
		<g>
			<title>btuD_1 (PJBLFHJD_01326)
Vitamin B12 import ATP-binding protein BtuD</title>
			<polygon class="btuD_1 (PJBLFHJD_01326)
Vitamin B12 import ATP-binding protein BtuD" points="950,25 945,25 945,10 915,40 945,70 945,55 950,55" fill="rgb(255,255,255)" fill-opacity="1.0" stroke="rgb(0,0,0)" stroke-width="2"  />
			<g>
				<title>CBS (PF00571)
"CBS domain"</title>
				<polygon class="PF00571" points="919,40 921,38 921,42" stroke-linejoin="round" width="5" height="24" fill="rgb(220,56,105)" stroke="rgb(176,44,84)" stroke-width="1" opacity="0.75" />
			</g>
			<g>
				<title>ABC_tran (PF00005)
"ABC transporter"</title>
				<rect class="PF00005" x="934" y="28" stroke-linejoin="round" width="14" height="24" fill="rgb(129,201,63)" stroke="rgb(103,160,50)" stroke-width="1" opacity="0.75" />
			</g>
		</g>
	</g>
</svg>
