<svg version="1.1" baseProfile="full" xmlns="http://www.w3.org/2000/svg" width="973.2666666666667" height="80">
	<g>
		<line x1="10" y1="40.0" x2="963.2666666666667" y2="40.0" style="stroke:rgb(70,70,70); stroke-width:3 "/>
		<g>
			<title>tcyC (DBLALLCB_02688)
L-cystine import ATP-binding protein TcyC</title>
			<polygon class="tcyC (DBLALLCB_02688)
L-cystine import ATP-binding protein TcyC" points="10,40 34,10 34,70" fill="rgb(255,255,255)" fill-opacity="1.0" stroke="rgb(0,0,0)" stroke-width="2"  />
			<g>
				<title>ABC_tran (PF00005)
"ABC transporter"</title>
				<polygon class="PF00005" points="17,36 24,28 32,28 32,52 24,52 17,44" stroke-linejoin="round" width="15" height="24" fill="rgb(129,201,63)" stroke="rgb(103,160,50)" stroke-width="1" opacity="0.75" />
			</g>
		</g>
		<g>
			<title>tcyB (DBLALLCB_02689)
L-cystine transport system permease protein TcyB</title>
			<polygon class="tcyB (DBLALLCB_02689)
L-cystine transport system permease protein TcyB" points="35,40 58,10 58,70" fill="rgb(255,255,255)" fill-opacity="1.0" stroke="rgb(0,0,0)" stroke-width="2"  />
			<g>
				<title>BPD_transp_1 (PF00528)
"Binding-protein-dependent transport system inner membrane component"</title>
				<polygon class="PF00528" points="39,40 48,28 53,28 53,52 48,52" stroke-linejoin="round" width="18" height="24" fill="rgb(77,208,225)" stroke="rgb(61,166,180)" stroke-width="1" opacity="0.75" />
			</g>
		</g>
		<g>
			<title>tcyA (DBLALLCB_02690)
L-cystine-binding protein TcyA</title>
			<polygon class="tcyA (DBLALLCB_02690)
L-cystine-binding protein TcyA" points="58,40 85,10 85,70" fill="rgb(255,255,255)" fill-opacity="1.0" stroke="rgb(0,0,0)" stroke-width="2"  />
			<g>
				<title>SBP_bac_3 (PF00497)
"Bacterial extracellular solute-binding proteins, family 3"</title>
				<polygon class="PF00497" points="62,40 73,28 79,28 79,52 73,52" stroke-linejoin="round" width="21" height="24" fill="rgb(186,76,141)" stroke="rgb(148,60,112)" stroke-width="1" opacity="0.75" />
			</g>
		</g>
		<g>
			<title>citA (DBLALLCB_02691)
Citrate synthase 1</title>
			<polygon class="citA (DBLALLCB_02691)
Citrate synthase 1" points="141,25 136,25 136,10 106,40 136,70 136,55 141,55" fill="rgb(255,255,255)" fill-opacity="1.0" stroke="rgb(0,0,0)" stroke-width="2"  />
			<g>
				<title>Citrate_synt (PF00285)
"Citrate synthase, C-terminal domain"</title>
				<polygon class="PF00285" points="110,40 122,28 140,28 140,52 122,52" stroke-linejoin="round" width="34" height="24" fill="rgb(217,199,102)" stroke="rgb(173,159,81)" stroke-width="1" opacity="0.75" />
			</g>
		</g>
		<g>
			<title>yjiE (DBLALLCB_02692)
HTH-type transcriptional regulator YjiE</title>
			<polygon class="yjiE (DBLALLCB_02692)
HTH-type transcriptional regulator YjiE" points="146,10 175,40 146,70" fill="rgb(255,255,255)" fill-opacity="1.0" stroke="rgb(0,0,0)" stroke-width="2"  />
			<g>
				<title>HTH_1 (PF00126)
"Bacterial regulatory helix-turn-helix protein, lysR family"</title>
				<rect class="PF00126" x="146" y="28" stroke-linejoin="round" width="5" height="24" fill="rgb(125,227,79)" stroke="rgb(99,181,63)" stroke-width="1" opacity="0.75" />
			</g>
			<g>
				<title>LysR_substrate (PF03466)
"LysR substrate binding domain"</title>
				<polygon class="PF03466" points="154,28 159,28 171,40 159,52 154,52" stroke-linejoin="round" width="20" height="24" fill="rgb(55,136,195)" stroke="rgb(44,108,156)" stroke-width="1" opacity="0.75" />
			</g>
		</g>
		<g>
			<title>mgtA_1 (DBLALLCB_02693)
GDP-mannose-dependent alpha-mannosyltransferase</title>
			<polygon class="mgtA_1 (DBLALLCB_02693)
GDP-mannose-dependent alpha-mannosyltransferase" points="220,25 211,25 211,10 181,40 211,70 211,55 220,55" fill="rgb(255,255,255)" fill-opacity="1.0" stroke="rgb(0,0,0)" stroke-width="2"  />
			<g>
				<title>Glycos_transf_1 (PF00534)
"Glycosyl transferases group 1"</title>
				<polygon class="PF00534" points="185,40 197,28 201,28 201,52 197,52 185,40" stroke-linejoin="round" width="16" height="24" fill="rgb(228,92,150)" stroke="rgb(182,73,119)" stroke-width="1" opacity="0.75" />
			</g>
			<g>
				<title>Glyco_transf_4 (PF13439)
"Glycosyltransferase Family 4"</title>
				<rect class="PF13439" x="202" y="28" stroke-linejoin="round" width="16" height="24" fill="rgb(162,57,186)" stroke="rgb(129,45,148)" stroke-width="1" opacity="0.75" />
			</g>
		</g>
		<g>
			<title> (DBLALLCB_02694)
hypothetical protein</title>
			<polygon class=" (DBLALLCB_02694)
hypothetical protein" points="259,25 251,25 251,10 221,40 251,70 251,55 259,55" fill="rgb(255,255,255)" fill-opacity="1.0" stroke="rgb(0,0,0)" stroke-width="2"  />
			<g>
				<title>Epimerase (PF01370)
"NAD dependent epimerase/dehydratase family"</title>
				<polygon class="PF01370" points="230,35 237,28 258,28 258,52 237,52 230,45" stroke-linejoin="round" width="28" height="24" fill="rgb(98,102,214)" stroke="rgb(78,81,171)" stroke-width="1" opacity="0.75" />
			</g>
		</g>
		<g>
			<title>yuaF (DBLALLCB_02695)
putative membrane protein YuaF</title>
			<polygon class="yuaF (DBLALLCB_02695)
putative membrane protein YuaF" points="267,10 285,40 267,70" fill="rgb(255,255,255)" fill-opacity="1.0" stroke="rgb(0,0,0)" stroke-width="2"  />
			<g>
				<title>NfeD (PF01957)
"NfeD-like C-terminal, partner-binding"</title>
				<polygon class="PF01957" points="274,28 274,28 281,40 274,52 274,52" stroke-linejoin="round" width="9" height="24" fill="rgb(90,229,87)" stroke="rgb(71,183,69)" stroke-width="1" opacity="0.75" />
			</g>
		</g>
		<g>
			<title>yqiK (DBLALLCB_02696)
Inner membrane protein YqiK</title>
			<polygon class="yqiK (DBLALLCB_02696)
Inner membrane protein YqiK" points="285,25 304,25 304,10 334,40 304,70 304,55 285,55" fill="rgb(255,255,255)" fill-opacity="1.0" stroke="rgb(0,0,0)" stroke-width="2"  />
			<g>
				<title>Band_7 (PF01145)
"SPFH domain / Band 7 family"</title>
				<rect class="PF01145" x="287" y="28" stroke-linejoin="round" width="19" height="24" fill="rgb(218,155,102)" stroke="rgb(174,124,81)" stroke-width="1" opacity="0.75" />
			</g>
			<g>
				<title>Flot (PF15975)
"Flotillin"</title>
				<polygon class="PF15975" points="320,31 329,40 320,49" stroke-linejoin="round" width="11" height="24" fill="rgb(211,172,58)" stroke="rgb(168,137,46)" stroke-width="1" opacity="0.75" />
			</g>
		</g>
		<g>
			<title>acs (DBLALLCB_02697)
Acetyl-coenzyme A synthetase</title>
			<polygon class="acs (DBLALLCB_02697)
Acetyl-coenzyme A synthetase" points="343,25 378,25 378,10 408,40 378,70 378,55 343,55" fill="rgb(255,255,255)" fill-opacity="1.0" stroke="rgb(0,0,0)" stroke-width="2"  />
			<g>
				<title>ACAS_N (PF16177)
"Acetyl-coenzyme A synthetase N-terminus"</title>
				<rect class="PF16177" x="346" y="28" stroke-linejoin="round" width="5" height="24" fill="rgb(54,78,195)" stroke="rgb(43,62,156)" stroke-width="1" opacity="0.75" />
			</g>
			<g>
				<title>AMP-binding (PF00501)
"AMP-binding enzyme"</title>
				<polygon class="PF00501" points="352,28 392,28 395,31 395,49 392,52 352,52" stroke-linejoin="round" width="43" height="24" fill="rgb(60,217,223)" stroke="rgb(48,173,178)" stroke-width="1" opacity="0.75" />
			</g>
			<g>
				<title>AMP-binding_C (PF13193)
"AMP-binding enzyme C-terminal domain"</title>
				<polygon class="PF13193" points="396,32 403,39 403,41 396,48" stroke-linejoin="round" width="7" height="24" fill="rgb(182,50,118)" stroke="rgb(145,39,94)" stroke-width="1" opacity="0.75" />
			</g>
		</g>
		<g>
			<title>accD5 (DBLALLCB_02698)
putative propionyl-CoA carboxylase beta chain 5</title>
			<polygon class="accD5 (DBLALLCB_02698)
putative propionyl-CoA carboxylase beta chain 5" points="464,25 443,25 443,10 413,40 443,70 443,55 464,55" fill="rgb(255,255,255)" fill-opacity="1.0" stroke="rgb(0,0,0)" stroke-width="2"  />
			<g>
				<title>Carboxyl_trans (PF01039)
"Carboxyl transferase domain"</title>
				<polygon class="PF01039" points="417,40 429,28 461,28 461,52 429,52" stroke-linejoin="round" width="48" height="24" fill="rgb(180,136,60)" stroke="rgb(144,108,48)" stroke-width="1" opacity="0.75" />
			</g>
		</g>
		<g>
			<title>crt_1 (DBLALLCB_02699)
Short-chain-enoyl-CoA hydratase</title>
			<polygon class="crt_1 (DBLALLCB_02699)
Short-chain-enoyl-CoA hydratase" points="465,40 491,10 491,70" fill="rgb(255,255,255)" fill-opacity="1.0" stroke="rgb(0,0,0)" stroke-width="2"  />
			<g>
				<title>ECH_1 (PF00378)
"Enoyl-CoA hydratase/isomerase"</title>
				<polygon class="PF00378" points="469,40 479,28 490,28 490,52 479,52" stroke-linejoin="round" width="25" height="24" fill="rgb(218,72,181)" stroke="rgb(174,57,144)" stroke-width="1" opacity="0.75" />
			</g>
		</g>
		<g>
			<title>yngG (DBLALLCB_02700)
Hydroxymethylglutaryl-CoA lyase YngG</title>
			<polygon class="yngG (DBLALLCB_02700)
Hydroxymethylglutaryl-CoA lyase YngG" points="520,25 520,25 520,10 490,40 520,70 520,55 520,55" fill="rgb(255,255,255)" fill-opacity="1.0" stroke="rgb(0,0,0)" stroke-width="2"  />
			<g>
				<title>HMGL-like (PF00682)
"HMGL-like"</title>
				<polygon class="PF00682" points="494,40 506,28 519,28 519,52 506,52" stroke-linejoin="round" width="27" height="24" fill="rgb(84,228,141)" stroke="rgb(67,182,112)" stroke-width="1" opacity="0.75" />
			</g>
		</g>
		<g>
			<title>yngHB (DBLALLCB_02701)
Biotin/lipoyl attachment protein</title>
			<polygon class="yngHB (DBLALLCB_02701)
Biotin/lipoyl attachment protein" points="521,40 528,10 528,70" fill="rgb(255,255,255)" fill-opacity="1.0" stroke="rgb(0,0,0)" stroke-width="2"  />
			<g>
				<title>Biotin_lipoyl (PF00364)
"Biotin-requiring enzyme"</title>
				<polygon class="PF00364" points="524,40 527,28 527,28 527,52 527,52" stroke-linejoin="round" width="6" height="24" fill="rgb(67,214,213)" stroke="rgb(53,171,170)" stroke-width="1" opacity="0.75" />
			</g>
		</g>
		<g>
			<title>accC_2 (DBLALLCB_02702)
Biotin carboxylase</title>
			<polygon class="accC_2 (DBLALLCB_02702)
Biotin carboxylase" points="574,25 559,25 559,10 529,40 559,70 559,55 574,55" fill="rgb(255,255,255)" fill-opacity="1.0" stroke="rgb(0,0,0)" stroke-width="2"  />
			<g>
				<title>Biotin_carb_C (PF02785)
"Biotin carboxylase C-terminal domain"</title>
				<polygon class="PF02785" points="533,40 540,33 540,47" stroke-linejoin="round" width="10" height="24" fill="rgb(82,186,211)" stroke="rgb(65,148,168)" stroke-width="1" opacity="0.75" />
			</g>
			<g>
				<title>CPSase_L_D2 (PF02786)
"Carbamoyl-phosphate synthase L chain, ATP binding domain"</title>
				<polygon class="PF02786" points="541,32 545,28 561,28 561,52 545,52 541,48" stroke-linejoin="round" width="20" height="24" fill="rgb(190,97,205)" stroke="rgb(151,77,164)" stroke-width="1" opacity="0.75" />
			</g>
			<g>
				<title>Biotin_carb_N (PF00289)
"Biotin carboxylase, N-terminal domain"</title>
				<rect class="PF00289" x="563" y="28" stroke-linejoin="round" width="10" height="24" fill="rgb(59,114,187)" stroke="rgb(47,91,149)" stroke-width="1" opacity="0.75" />
			</g>
		</g>
		<g>
			<title>fadD3 (DBLALLCB_02703)
3-[(3aS,4S,7aS)-7a-methyl-1, 5-dioxo-octahydro-1H-inden-4-yl]propanoyl:CoA ligase</title>
			<polygon class="fadD3 (DBLALLCB_02703)
3-[(3aS,4S,7aS)-7a-methyl-1, 5-dioxo-octahydro-1H-inden-4-yl]propanoyl:CoA ligase" points="629,25 605,25 605,10 575,40 605,70 605,55 629,55" fill="rgb(255,255,255)" fill-opacity="1.0" stroke="rgb(0,0,0)" stroke-width="2"  />
			<g>
				<title>AMP-binding_C (PF13193)
"AMP-binding enzyme C-terminal domain"</title>
				<polygon class="PF13193" points="579,40 583,36 583,44" stroke-linejoin="round" width="7" height="24" fill="rgb(182,50,118)" stroke="rgb(145,39,94)" stroke-width="1" opacity="0.75" />
			</g>
			<g>
				<title>AMP-binding (PF00501)
"AMP-binding enzyme"</title>
				<polygon class="PF00501" points="585,34 591,28 628,28 628,52 591,52 585,46" stroke-linejoin="round" width="43" height="24" fill="rgb(60,217,223)" stroke="rgb(48,173,178)" stroke-width="1" opacity="0.75" />
			</g>
		</g>
		<g>
			<title>bcd (DBLALLCB_02704)
Acyl-CoA dehydrogenase, short-chain specific</title>
			<polygon class="bcd (DBLALLCB_02704)
Acyl-CoA dehydrogenase, short-chain specific" points="668,25 660,25 660,10 630,40 660,70 660,55 668,55" fill="rgb(255,255,255)" fill-opacity="1.0" stroke="rgb(0,0,0)" stroke-width="2"  />
			<g>
				<title>Acyl-CoA_dh_1 (PF00441)
"Acyl-CoA dehydrogenase, C-terminal domain"</title>
				<polygon class="PF00441" points="634,40 644,30 644,50" stroke-linejoin="round" width="14" height="24" fill="rgb(85,191,117)" stroke="rgb(68,152,93)" stroke-width="1" opacity="0.75" />
			</g>
			<g>
				<title>Acyl-CoA_dh_M (PF02770)
"Acyl-CoA dehydrogenase, middle domain"</title>
				<polygon class="PF02770" points="646,28 646,28 655,28 655,52 646,52 646,52" stroke-linejoin="round" width="9" height="24" fill="rgb(225,186,97)" stroke="rgb(180,148,77)" stroke-width="1" opacity="0.75" />
			</g>
			<g>
				<title>Acyl-CoA_dh_N (PF02771)
"Acyl-CoA dehydrogenase, N-terminal domain"</title>
				<rect class="PF02771" x="656" y="28" stroke-linejoin="round" width="11" height="24" fill="rgb(105,135,218)" stroke="rgb(84,108,174)" stroke-width="1" opacity="0.75" />
			</g>
		</g>
		<g>
			<title>kstR2_2 (DBLALLCB_02705)
HTH-type transcriptional repressor KstR2</title>
			<polygon class="kstR2_2 (DBLALLCB_02705)
HTH-type transcriptional repressor KstR2" points="671,40 692,10 692,70" fill="rgb(255,255,255)" fill-opacity="1.0" stroke="rgb(0,0,0)" stroke-width="2"  />
			<g>
				<title>TetR_C_24 (PF17932)
"Tetracyclin repressor-like, C-terminal domain"</title>
				<polygon class="PF17932" points="675,40 683,28 684,28 684,52 683,52" stroke-linejoin="round" width="11" height="24" fill="rgb(165,217,107)" stroke="rgb(132,173,85)" stroke-width="1" opacity="0.75" />
			</g>
			<g>
				<title>TetR_N (PF00440)
"Bacterial regulatory proteins, tetR family"</title>
				<rect class="PF00440" x="686" y="28" stroke-linejoin="round" width="4" height="24" fill="rgb(73,212,190)" stroke="rgb(58,169,152)" stroke-width="1" opacity="0.75" />
			</g>
		</g>
		<g>
			<title>parC (DBLALLCB_02706)
DNA topoisomerase 4 subunit A</title>
			<polygon class="parC (DBLALLCB_02706)
DNA topoisomerase 4 subunit A" points="777,25 726,25 726,10 696,40 726,70 726,55 777,55" fill="rgb(255,255,255)" fill-opacity="1.0" stroke="rgb(0,0,0)" stroke-width="2"  />
			<g>
				<title>DNA_gyraseA_C (PF03989)
"DNA gyrase C-terminal domain, beta-propeller"</title>
				<polygon class="PF03989" points="702,38 706,34 706,46 702,42" stroke-linejoin="round" width="4" height="24" fill="rgb(52,134,190)" stroke="rgb(41,107,152)" stroke-width="1" opacity="0.75" />
			</g>
			<g>
				<title>DNA_gyraseA_C (PF03989)
"DNA gyrase C-terminal domain, beta-propeller"</title>
				<polygon class="PF03989" points="708,32 712,28 712,28 712,52 712,52 708,48" stroke-linejoin="round" width="4" height="24" fill="rgb(52,134,190)" stroke="rgb(41,107,152)" stroke-width="1" opacity="0.75" />
			</g>
			<g>
				<title>DNA_gyraseA_C (PF03989)
"DNA gyrase C-terminal domain, beta-propeller"</title>
				<polygon class="PF03989" points="712,28 712,28 716,28 716,52 712,52 712,52" stroke-linejoin="round" width="4" height="24" fill="rgb(52,134,190)" stroke="rgb(41,107,152)" stroke-width="1" opacity="0.75" />
			</g>
			<g>
				<title>DNA_gyraseA_C (PF03989)
"DNA gyrase C-terminal domain, beta-propeller"</title>
				<rect class="PF03989" x="718" y="28" stroke-linejoin="round" width="5" height="24" fill="rgb(52,134,190)" stroke="rgb(41,107,152)" stroke-width="1" opacity="0.75" />
			</g>
			<g>
				<title>DNA_gyraseA_C (PF03989)
"DNA gyrase C-terminal domain, beta-propeller"</title>
				<rect class="PF03989" x="725" y="28" stroke-linejoin="round" width="2" height="24" fill="rgb(52,134,190)" stroke="rgb(41,107,152)" stroke-width="1" opacity="0.75" />
			</g>
			<g>
				<title>DNA_topoisoIV (PF00521)
"DNA gyrase/topoisomerase IV, subunit A"</title>
				<rect class="PF00521" x="730" y="28" stroke-linejoin="round" width="44" height="24" fill="rgb(196,204,77)" stroke="rgb(156,163,61)" stroke-width="1" opacity="0.75" />
			</g>
		</g>
		<g>
			<title>parE (DBLALLCB_02707)
DNA topoisomerase 4 subunit B</title>
			<polygon class="parE (DBLALLCB_02707)
DNA topoisomerase 4 subunit B" points="843,25 808,25 808,10 778,40 808,70 808,55 843,55" fill="rgb(255,255,255)" fill-opacity="1.0" stroke="rgb(0,0,0)" stroke-width="2"  />
			<g>
				<title>DNA_gyraseB_C (PF00986)
"DNA gyrase B subunit, carboxyl terminus"</title>
				<polygon class="PF00986" points="782,40 786,36 786,44" stroke-linejoin="round" width="6" height="24" fill="rgb(184,59,116)" stroke="rgb(147,47,92)" stroke-width="1" opacity="0.75" />
			</g>
			<g>
				<title>Toprim (PF01751)
"Toprim domain"</title>
				<polygon class="PF01751" points="789,33 794,28 800,28 800,52 794,52 789,47" stroke-linejoin="round" width="11" height="24" fill="rgb(95,212,145)" stroke="rgb(76,169,116)" stroke-width="1" opacity="0.75" />
			</g>
			<g>
				<title>DNA_gyraseB (PF00204)
"DNA gyrase B"</title>
				<rect class="PF00204" x="803" y="28" stroke-linejoin="round" width="17" height="24" fill="rgb(66,134,179)" stroke="rgb(52,107,143)" stroke-width="1" opacity="0.75" />
			</g>
			<g>
				<title>HATPase_c (PF02518)
"Histidine kinase-, DNA gyrase B-, and HSP90-like ATPase"</title>
				<rect class="PF02518" x="825" y="28" stroke-linejoin="round" width="14" height="24" fill="rgb(80,94,225)" stroke="rgb(64,75,180)" stroke-width="1" opacity="0.75" />
			</g>
		</g>
		<g>
			<title>yccU (DBLALLCB_02708)
putative protein YccU</title>
			<polygon class="yccU (DBLALLCB_02708)
putative protein YccU" points="850,40 863,10 863,70" fill="rgb(255,255,255)" fill-opacity="1.0" stroke="rgb(0,0,0)" stroke-width="2"  />
			<g>
				<title>CoA_binding_2 (PF13380)
"CoA binding domain"</title>
				<polygon class="PF13380" points="853,40 859,28 861,28 861,52 859,52" stroke-linejoin="round" width="11" height="24" fill="rgb(212,69,78)" stroke="rgb(169,55,62)" stroke-width="1" opacity="0.75" />
			</g>
		</g>
		<g>
			<title>opuCC (DBLALLCB_02709)
Carnitine transport binding protein OpuCC</title>
			<polygon class="opuCC (DBLALLCB_02709)
Carnitine transport binding protein OpuCC" points="897,25 894,25 894,10 864,40 894,70 894,55 897,55" fill="rgb(255,255,255)" fill-opacity="1.0" stroke="rgb(0,0,0)" stroke-width="2"  />
			<g>
				<title>OpuAC (PF04069)
"Substrate binding domain of ABC-type glycine betaine transport system"</title>
				<polygon class="PF04069" points="868,40 880,28 890,28 890,52 880,52" stroke-linejoin="round" width="26" height="24" fill="rgb(81,218,80)" stroke="rgb(64,174,64)" stroke-width="1" opacity="0.75" />
			</g>
		</g>
		<g>
			<title>opuBB (DBLALLCB_02710)
Choline transport system permease protein OpuBB</title>
			<polygon class="opuBB (DBLALLCB_02710)
Choline transport system permease protein OpuBB" points="898,40 914,10 914,70" fill="rgb(255,255,255)" fill-opacity="1.0" stroke="rgb(0,0,0)" stroke-width="2"  />
			<g>
				<title>BPD_transp_1 (PF00528)
"Binding-protein-dependent transport system inner membrane component"</title>
				<polygon class="PF00528" points="901,40 908,28 910,28 910,52 908,52" stroke-linejoin="round" width="12" height="24" fill="rgb(77,208,225)" stroke="rgb(61,166,180)" stroke-width="1" opacity="0.75" />
			</g>
		</g>
		<g>
			<title>btuD_3 (DBLALLCB_02711)
Vitamin B12 import ATP-binding protein BtuD</title>
			<polygon class="btuD_3 (DBLALLCB_02711)
Vitamin B12 import ATP-binding protein BtuD" points="949,25 944,25 944,10 914,40 944,70 944,55 949,55" fill="rgb(255,255,255)" fill-opacity="1.0" stroke="rgb(0,0,0)" stroke-width="2"  />
			<g>
				<title>ABC_tran (PF00005)
"ABC transporter"</title>
				<rect class="PF00005" x="933" y="28" stroke-linejoin="round" width="14" height="24" fill="rgb(129,201,63)" stroke="rgb(103,160,50)" stroke-width="1" opacity="0.75" />
			</g>
		</g>
	</g>
</svg>
