<svg version="1.1" baseProfile="full" xmlns="http://www.w3.org/2000/svg" width="1389.3333333333333" height="80">
	<g>
		<line x1="10" y1="40.0" x2="1379.3333333333333" y2="40.0" style="stroke:rgb(70,70,70); stroke-width:3 "/>
		<g>
			<title> (LHGGBBNC_00657)
hypothetical protein</title>
			<polygon class=" (LHGGBBNC_00657)
hypothetical protein" points="11,10 28,40 11,70" fill="rgb(255,255,255)" fill-opacity="1.0" stroke="rgb(0,0,0)" stroke-width="2"  />
			<g>
				<title>DUF5590 (PF17881)
"Domain of unknown function (DUF5590)"</title>
				<polygon class="PF17881" points="16,28 18,28 20,31 20,49 18,52 16,52" stroke-linejoin="round" width="4" height="24" fill="rgb(77,212,144)" stroke="rgb(61,169,115)" stroke-width="1" opacity="0.75" />
			</g>
		</g>
		<g>
			<title> (LHGGBBNC_00658)
Aspartate aminotransferase</title>
			<polygon class=" (LHGGBBNC_00658)
Aspartate aminotransferase" points="29,25 38,25 38,10 68,40 38,70 38,55 29,55" fill="rgb(255,255,255)" fill-opacity="1.0" stroke="rgb(0,0,0)" stroke-width="2"  />
			<g>
				<title>Aminotran_1_2 (PF00155)
"Aminotransferase class I and II"</title>
				<polygon class="PF00155" points="32,28 52,28 64,40 52,52 32,52" stroke-linejoin="round" width="35" height="24" fill="rgb(89,113,198)" stroke="rgb(71,90,158)" stroke-width="1" opacity="0.75" />
			</g>
		</g>
		<g>
			<title>asnS (LHGGBBNC_00659)
Asparagine--tRNA ligase</title>
			<polygon class="asnS (LHGGBBNC_00659)
Asparagine--tRNA ligase" points="70,25 83,25 83,10 113,40 83,70 83,55 70,55" fill="rgb(255,255,255)" fill-opacity="1.0" stroke="rgb(0,0,0)" stroke-width="2"  />
			<g>
				<title>tRNA_anti-codon (PF01336)
"OB-fold nucleic acid binding domain"</title>
				<rect class="PF01336" x="71" y="28" stroke-linejoin="round" width="7" height="24" fill="rgb(215,103,173)" stroke="rgb(172,82,138)" stroke-width="1" opacity="0.75" />
			</g>
			<g>
				<title>tRNA-synt_2 (PF00152)
"tRNA synthetases class II (D, K and N)"</title>
				<polygon class="PF00152" points="80,28 96,28 108,40 96,52 80,52" stroke-linejoin="round" width="31" height="24" fill="rgb(90,71,190)" stroke="rgb(72,56,152)" stroke-width="1" opacity="0.75" />
			</g>
		</g>
		<g>
			<title>dnaD (LHGGBBNC_00660)
DNA replication protein DnaD</title>
			<polygon class="dnaD (LHGGBBNC_00660)
DNA replication protein DnaD" points="116,10 138,40 116,70" fill="rgb(255,255,255)" fill-opacity="1.0" stroke="rgb(0,0,0)" stroke-width="2"  />
			<g>
				<title>DnaB_2 (PF07261)
"Replication initiation and membrane attachment"</title>
				<polygon class="PF07261" points="128,31 135,40 135,40 128,49" stroke-linejoin="round" width="7" height="24" fill="rgb(136,193,85)" stroke="rgb(108,154,68)" stroke-width="1" opacity="0.75" />
			</g>
		</g>
		<g>
			<title>nth (LHGGBBNC_00661)
Endonuclease III</title>
			<polygon class="nth (LHGGBBNC_00661)
Endonuclease III" points="139,10 161,40 139,70" fill="rgb(255,255,255)" fill-opacity="1.0" stroke="rgb(0,0,0)" stroke-width="2"  />
			<g>
				<title>HhH-GPD (PF00730)
"HhH-GPD superfamily base excision DNA repair protein"</title>
				<polygon class="PF00730" points="142,28 148,28 155,37 155,43 148,52 142,52" stroke-linejoin="round" width="13" height="24" fill="rgb(190,78,115)" stroke="rgb(152,62,92)" stroke-width="1" opacity="0.75" />
			</g>
		</g>
		<g>
			<title>ponA (LHGGBBNC_00662)
Penicillin-binding protein 1A/1B</title>
			<polygon class="ponA (LHGGBBNC_00662)
Penicillin-binding protein 1A/1B" points="250,25 194,25 194,10 164,40 194,70 194,55 250,55" fill="rgb(255,255,255)" fill-opacity="1.0" stroke="rgb(0,0,0)" stroke-width="2"  />
			<g>
				<title>fn3 (PF00041)
"Fibronectin type III domain"</title>
				<polygon class="PF00041" points="174,34 180,28 181,28 181,52 180,52 174,46" stroke-linejoin="round" width="7" height="24" fill="rgb(203,70,135)" stroke="rgb(162,56,107)" stroke-width="1" opacity="0.75" />
			</g>
			<g>
				<title>Transpeptidase (PF00905)
"Penicillin binding protein transpeptidase domain"</title>
				<rect class="PF00905" x="188" y="28" stroke-linejoin="round" width="27" height="24" fill="rgb(161,226,87)" stroke="rgb(128,180,69)" stroke-width="1" opacity="0.75" />
			</g>
			<g>
				<title>Transgly (PF00912)
"Transglycosylase"</title>
				<rect class="PF00912" x="225" y="28" stroke-linejoin="round" width="17" height="24" fill="rgb(172,107,216)" stroke="rgb(137,85,172)" stroke-width="1" opacity="0.75" />
			</g>
		</g>
		<g>
			<title>recU (LHGGBBNC_00663)
Holliday junction resolvase RecU</title>
			<polygon class="recU (LHGGBBNC_00663)
Holliday junction resolvase RecU" points="251,40 270,10 270,70" fill="rgb(255,255,255)" fill-opacity="1.0" stroke="rgb(0,0,0)" stroke-width="2"  />
			<g>
				<title>RecU (PF03838)
"Recombination protein U"</title>
				<polygon class="PF03838" points="255,40 263,28 267,28 267,52 263,52" stroke-linejoin="round" width="16" height="24" fill="rgb(93,204,83)" stroke="rgb(74,163,66)" stroke-width="1" opacity="0.75" />
			</g>
		</g>
		<g>
			<title> (LHGGBBNC_00664)
hypothetical protein</title>
			<polygon class=" (LHGGBBNC_00664)
hypothetical protein" points="278,40 281,10 281,70" fill="rgb(255,255,255)" fill-opacity="1.0" stroke="rgb(0,0,0)" stroke-width="2"  />
		</g>
		<g>
			<title> (LHGGBBNC_00665)
hypothetical protein</title>
			<polygon class=" (LHGGBBNC_00665)
hypothetical protein" points="286,10 294,40 286,70" fill="rgb(255,255,255)" fill-opacity="1.0" stroke="rgb(0,0,0)" stroke-width="2"  />
		</g>
		<g>
			<title> (LHGGBBNC_00666)
hypothetical protein</title>
			<polygon class=" (LHGGBBNC_00666)
hypothetical protein" points="296,10 307,40 296,70" fill="rgb(255,255,255)" fill-opacity="1.0" stroke="rgb(0,0,0)" stroke-width="2"  />
			<g>
				<title>DUF1798 (PF08807)
"Bacterial domain of unknown function (DUF1798)"</title>
				<polygon class="PF08807" points="296,28 299,28 304,40 299,52 296,52" stroke-linejoin="round" width="10" height="24" fill="rgb(153,201,81)" stroke="rgb(122,160,64)" stroke-width="1" opacity="0.75" />
			</g>
		</g>
		<g>
			<title>swrC_1 (LHGGBBNC_00667)
Swarming motility protein SwrC</title>
			<polygon class="swrC_1 (LHGGBBNC_00667)
Swarming motility protein SwrC" points="417,25 344,25 344,10 314,40 344,70 344,55 417,55" fill="rgb(255,255,255)" fill-opacity="1.0" stroke="rgb(0,0,0)" stroke-width="2"  />
			<g>
				<title>ACR_tran (PF00873)
"AcrB/AcrD/AcrF family"</title>
				<polygon class="PF00873" points="318,40 330,28 416,28 416,52 330,52" stroke-linejoin="round" width="101" height="24" fill="rgb(63,191,60)" stroke="rgb(50,152,48)" stroke-width="1" opacity="0.75" />
			</g>
		</g>
		<g>
			<title>cdd (LHGGBBNC_00668)
Cytidine deaminase</title>
			<polygon class="cdd (LHGGBBNC_00668)
Cytidine deaminase" points="423,10 436,40 423,70" fill="rgb(255,255,255)" fill-opacity="1.0" stroke="rgb(0,0,0)" stroke-width="2"  />
			<g>
				<title>dCMP_cyt_deam_1 (PF00383)
"Cytidine and deoxycytidylate deaminase zinc-binding region"</title>
				<polygon class="PF00383" points="423,28 427,28 433,40 433,40 427,52 423,52" stroke-linejoin="round" width="10" height="24" fill="rgb(91,149,216)" stroke="rgb(72,119,172)" stroke-width="1" opacity="0.75" />
			</g>
		</g>
		<g>
			<title> (LHGGBBNC_00669)
hypothetical protein</title>
			<polygon class=" (LHGGBBNC_00669)
hypothetical protein" points="444,10 459,40 444,70" fill="rgb(255,255,255)" fill-opacity="1.0" stroke="rgb(0,0,0)" stroke-width="2"  />
			<g>
				<title>Spore-coat_CotD (PF11122)
"Inner spore coat protein D"</title>
				<polygon class="PF11122" points="445,28 449,28 455,40 449,52 445,52" stroke-linejoin="round" width="12" height="24" fill="rgb(221,153,69)" stroke="rgb(176,122,55)" stroke-width="1" opacity="0.75" />
			</g>
		</g>
		<g>
			<title> (LHGGBBNC_00670)
hypothetical protein</title>
			<polygon class=" (LHGGBBNC_00670)
hypothetical protein" points="461,10 479,40 461,70" fill="rgb(255,255,255)" fill-opacity="1.0" stroke="rgb(0,0,0)" stroke-width="2"  />
			<g>
				<title>YpsA (PF06908)
"YspA SLOG family"</title>
				<polygon class="PF06908" points="461,28 468,28 476,40 468,52 461,52" stroke-linejoin="round" width="16" height="24" fill="rgb(136,100,209)" stroke="rgb(108,80,167)" stroke-width="1" opacity="0.75" />
			</g>
		</g>
		<g>
			<title>gpsB (LHGGBBNC_00671)
Cell cycle protein GpsB</title>
			<polygon class="gpsB (LHGGBBNC_00671)
Cell cycle protein GpsB" points="483,10 493,40 483,70" fill="rgb(255,255,255)" fill-opacity="1.0" stroke="rgb(0,0,0)" stroke-width="2"  />
			<g>
				<title>DivIVA (PF05103)
"DivIVA protein"</title>
				<polygon class="PF05103" points="483,28 485,28 488,34 488,46 485,52 483,52" stroke-linejoin="round" width="5" height="24" fill="rgb(213,106,117)" stroke="rgb(170,84,93)" stroke-width="1" opacity="0.75" />
			</g>
		</g>
		<g>
			<title>rlmL (LHGGBBNC_00672)
Ribosomal RNA large subunit methyltransferase L</title>
			<polygon class="rlmL (LHGGBBNC_00672)
Ribosomal RNA large subunit methyltransferase L" points="515,25 524,25 524,10 554,40 524,70 524,55 515,55" fill="rgb(255,255,255)" fill-opacity="1.0" stroke="rgb(0,0,0)" stroke-width="2"  />
			<g>
				<title>THUMP (PF02926)
"THUMP domain"</title>
				<rect class="PF02926" x="516" y="28" stroke-linejoin="round" width="14" height="24" fill="rgb(52,209,163)" stroke="rgb(41,167,130)" stroke-width="1" opacity="0.75" />
			</g>
			<g>
				<title>UPF0020 (PF01170)
"Putative RNA methylase family UPF0020"</title>
				<polygon class="PF01170" points="531,28 537,28 549,40 537,52 531,52" stroke-linejoin="round" width="20" height="24" fill="rgb(89,182,69)" stroke="rgb(71,145,55)" stroke-width="1" opacity="0.75" />
			</g>
		</g>
		<g>
			<title>ypwA (LHGGBBNC_00673)
Carboxypeptidase 1</title>
			<polygon class="ypwA (LHGGBBNC_00673)
Carboxypeptidase 1" points="555,25 574,25 574,10 604,40 574,70 574,55 555,55" fill="rgb(255,255,255)" fill-opacity="1.0" stroke="rgb(0,0,0)" stroke-width="2"  />
			<g>
				<title>Peptidase_M32 (PF02074)
"Carboxypeptidase Taq (M32) metallopeptidase"</title>
				<polygon class="PF02074" points="555,28 588,28 600,40 588,52 555,52" stroke-linejoin="round" width="48" height="24" fill="rgb(213,142,93)" stroke="rgb(170,113,74)" stroke-width="1" opacity="0.75" />
			</g>
		</g>
		<g>
			<title> (LHGGBBNC_00674)
hypothetical protein</title>
			<polygon class=" (LHGGBBNC_00674)
hypothetical protein" points="607,40 625,10 625,70" fill="rgb(255,255,255)" fill-opacity="1.0" stroke="rgb(0,0,0)" stroke-width="2"  />
			<g>
				<title>Metal_resist (PF13801)
"Heavy-metal resistance"</title>
				<polygon class="PF13801" points="614,35 618,28 624,28 624,52 618,52 614,45" stroke-linejoin="round" width="10" height="24" fill="rgb(204,215,92)" stroke="rgb(163,172,73)" stroke-width="1" opacity="0.75" />
			</g>
		</g>
		<g>
			<title>gno (LHGGBBNC_00675)
Gluconate 5-dehydrogenase</title>
			<polygon class="gno (LHGGBBNC_00675)
Gluconate 5-dehydrogenase" points="630,10 655,40 630,70" fill="rgb(255,255,255)" fill-opacity="1.0" stroke="rgb(0,0,0)" stroke-width="2"  />
			<g>
				<title>adh_short_C2 (PF13561)
"Enoyl-(Acyl carrier protein) reductase"</title>
				<polygon class="PF13561" points="631,28 641,28 651,40 641,52 631,52" stroke-linejoin="round" width="23" height="24" fill="rgb(73,205,127)" stroke="rgb(58,164,101)" stroke-width="1" opacity="0.75" />
			</g>
		</g>
		<g>
			<title>cheX (LHGGBBNC_00676)
CheY-P phosphatase CheX</title>
			<polygon class="cheX (LHGGBBNC_00676)
CheY-P phosphatase CheX" points="657,40 672,10 672,70" fill="rgb(255,255,255)" fill-opacity="1.0" stroke="rgb(0,0,0)" stroke-width="2"  />
			<g>
				<title>CheX (PF13690)
"Chemotaxis phosphatase CheX"</title>
				<polygon class="PF13690" points="660,40 666,28 667,28 667,52 666,52" stroke-linejoin="round" width="8" height="24" fill="rgb(55,220,212)" stroke="rgb(44,176,169)" stroke-width="1" opacity="0.75" />
			</g>
		</g>
		<g>
			<title> (LHGGBBNC_00677)
Alpha-pyrone synthesis polyketide synthase-like Pks11</title>
			<polygon class=" (LHGGBBNC_00677)
Alpha-pyrone synthesis polyketide synthase-like Pks11" points="676,25 682,25 682,10 712,40 682,70 682,55 676,55" fill="rgb(255,255,255)" fill-opacity="1.0" stroke="rgb(0,0,0)" stroke-width="2"  />
			<g>
				<title>Chal_sti_synt_N (PF00195)
"Chalcone and stilbene synthases, N-terminal domain"</title>
				<polygon class="PF00195" points="682,28 695,28 696,29 696,51 695,52 682,52" stroke-linejoin="round" width="14" height="24" fill="rgb(60,181,161)" stroke="rgb(47,144,128)" stroke-width="1" opacity="0.75" />
			</g>
			<g>
				<title>Chal_sti_synt_C (PF02797)
"Chalcone and stilbene synthases, C-terminal domain"</title>
				<polygon class="PF02797" points="698,31 707,40 698,49" stroke-linejoin="round" width="13" height="24" fill="rgb(139,212,63)" stroke="rgb(111,169,50)" stroke-width="1" opacity="0.75" />
			</g>
		</g>
		<g>
			<title> (LHGGBBNC_00678)
hypothetical protein</title>
			<polygon class=" (LHGGBBNC_00678)
hypothetical protein" points="712,10 729,40 712,70" fill="rgb(255,255,255)" fill-opacity="1.0" stroke="rgb(0,0,0)" stroke-width="2"  />
			<g>
				<title>ICMT (PF04140)
"Isoprenylcysteine carboxyl methyltransferase (ICMT) family"</title>
				<polygon class="PF04140" points="719,29 725,40 719,51" stroke-linejoin="round" width="9" height="24" fill="rgb(100,223,104)" stroke="rgb(80,178,83)" stroke-width="1" opacity="0.75" />
			</g>
		</g>
		<g>
			<title> (LHGGBBNC_00679)
hypothetical protein</title>
			<polygon class=" (LHGGBBNC_00679)
hypothetical protein" points="732,10 737,40 732,70" fill="rgb(255,255,255)" fill-opacity="1.0" stroke="rgb(0,0,0)" stroke-width="2"  />
		</g>
		<g>
			<title> (LHGGBBNC_00680)
hypothetical protein</title>
			<polygon class=" (LHGGBBNC_00680)
hypothetical protein" points="742,10 751,40 742,70" fill="rgb(255,255,255)" fill-opacity="1.0" stroke="rgb(0,0,0)" stroke-width="2"  />
		</g>
		<g>
			<title>rnhA (LHGGBBNC_00681)
14.7 kDa ribonuclease H-like protein</title>
			<polygon class="rnhA (LHGGBBNC_00681)
14.7 kDa ribonuclease H-like protein" points="755,40 768,10 768,70" fill="rgb(255,255,255)" fill-opacity="1.0" stroke="rgb(0,0,0)" stroke-width="2"  />
			<g>
				<title>RVT_3 (PF13456)
"Reverse transcriptase-like"</title>
				<polygon class="PF13456" points="758,40 763,28 767,28 767,52 763,52" stroke-linejoin="round" width="12" height="24" fill="rgb(198,123,86)" stroke="rgb(158,98,68)" stroke-width="1" opacity="0.75" />
			</g>
		</g>
		<g>
			<title> (LHGGBBNC_00682)
queuosine precursor transporter</title>
			<polygon class=" (LHGGBBNC_00682)
queuosine precursor transporter" points="769,40 791,10 791,70" fill="rgb(255,255,255)" fill-opacity="1.0" stroke="rgb(0,0,0)" stroke-width="2"  />
			<g>
				<title>Vut_1 (PF02592)
"Putative vitamin uptake transporter"</title>
				<polygon class="PF02592" points="773,40 782,28 785,28 785,52 782,52" stroke-linejoin="round" width="16" height="24" fill="rgb(93,184,75)" stroke="rgb(74,147,60)" stroke-width="1" opacity="0.75" />
			</g>
		</g>
		<g>
			<title>cspA_1 (LHGGBBNC_00683)
Cold shock protein CspA</title>
			<polygon class="cspA_1 (LHGGBBNC_00683)
Cold shock protein CspA" points="799,40 805,10 805,70" fill="rgb(255,255,255)" fill-opacity="1.0" stroke="rgb(0,0,0)" stroke-width="2"  />
			<g>
				<title>CSD (PF00313)
"'Cold-shock' DNA-binding domain"</title>
				<polygon class="PF00313" points="802,40 805,28 805,28 805,52 805,52" stroke-linejoin="round" width="6" height="24" fill="rgb(87,72,181)" stroke="rgb(69,57,144)" stroke-width="1" opacity="0.75" />
			</g>
		</g>
		<g>
			<title>fhs (LHGGBBNC_00684)
Formate--tetrahydrofolate ligase</title>
			<polygon class="fhs (LHGGBBNC_00684)
Formate--tetrahydrofolate ligase" points="818,25 843,25 843,10 873,40 843,70 843,55 818,55" fill="rgb(255,255,255)" fill-opacity="1.0" stroke="rgb(0,0,0)" stroke-width="2"  />
			<g>
				<title>FTHFS (PF01268)
"Formate--tetrahydrofolate ligase"</title>
				<polygon class="PF01268" points="818,28 857,28 869,40 857,52 818,52" stroke-linejoin="round" width="55" height="24" fill="rgb(215,182,81)" stroke="rgb(172,145,64)" stroke-width="1" opacity="0.75" />
			</g>
		</g>
		<g>
			<title> (LHGGBBNC_00685)
hypothetical protein</title>
			<polygon class=" (LHGGBBNC_00685)
hypothetical protein" points="880,10 908,40 880,70" fill="rgb(255,255,255)" fill-opacity="1.0" stroke="rgb(0,0,0)" stroke-width="2"  />
			<g>
				<title>DUF72 (PF01904)
"Protein of unknown function DUF72"</title>
				<polygon class="PF01904" points="881,28 892,28 904,40 892,52 881,52" stroke-linejoin="round" width="24" height="24" fill="rgb(63,151,204)" stroke="rgb(50,120,163)" stroke-width="1" opacity="0.75" />
			</g>
		</g>
		<g>
			<title>yedJ (LHGGBBNC_00686)
putative protein YedJ</title>
			<polygon class="yedJ (LHGGBBNC_00686)
putative protein YedJ" points="909,10 929,40 909,70" fill="rgb(255,255,255)" fill-opacity="1.0" stroke="rgb(0,0,0)" stroke-width="2"  />
			<g>
				<title>HD (PF01966)
"HD domain"</title>
				<polygon class="PF01966" points="911,28 917,28 920,32 920,48 917,52 911,52" stroke-linejoin="round" width="9" height="24" fill="rgb(92,193,119)" stroke="rgb(73,154,95)" stroke-width="1" opacity="0.75" />
			</g>
		</g>
		<g>
			<title>thyA (LHGGBBNC_00687)
Thymidylate synthase</title>
			<polygon class="thyA (LHGGBBNC_00687)
Thymidylate synthase" points="929,25 931,25 931,10 961,40 931,70 931,55 929,55" fill="rgb(255,255,255)" fill-opacity="1.0" stroke="rgb(0,0,0)" stroke-width="2"  />
			<g>
				<title>Thymidylat_synt (PF00303)
"Thymidylate synthase"</title>
				<polygon class="PF00303" points="929,28 944,28 956,40 944,52 929,52" stroke-linejoin="round" width="31" height="24" fill="rgb(103,91,191)" stroke="rgb(82,72,152)" stroke-width="1" opacity="0.75" />
			</g>
		</g>
		<g>
			<title> (LHGGBBNC_00688)
IS1595 family transposase ISSsu9</title>
			<polygon class=" (LHGGBBNC_00688)
IS1595 family transposase ISSsu9" points="962,10 978,40 962,70" fill="rgb(255,255,255)" fill-opacity="1.0" stroke="rgb(0,0,0)" stroke-width="2"  />
			<g>
				<title>DHFR_1 (PF00186)
"Dihydrofolate reductase"</title>
				<polygon class="PF00186" points="962,28 968,28 975,40 968,52 962,52" stroke-linejoin="round" width="16" height="24" fill="rgb(150,188,63)" stroke="rgb(119,150,50)" stroke-width="1" opacity="0.75" />
			</g>
		</g>
		<g>
			<title>mobA (LHGGBBNC_00689)
Molybdenum cofactor guanylyltransferase</title>
			<polygon class="mobA (LHGGBBNC_00689)
Molybdenum cofactor guanylyltransferase" points="980,10 997,40 980,70" fill="rgb(255,255,255)" fill-opacity="1.0" stroke="rgb(0,0,0)" stroke-width="2"  />
			<g>
				<title>NTP_transf_3 (PF12804)
"MobA-like NTP transferase domain"</title>
				<polygon class="PF12804" points="980,28 987,28 994,40 994,40 987,52 980,52" stroke-linejoin="round" width="14" height="24" fill="rgb(52,209,196)" stroke="rgb(41,167,156)" stroke-width="1" opacity="0.75" />
			</g>
		</g>
		<g>
			<title>tatAd_1 (LHGGBBNC_00690)
Sec-independent protein translocase protein TatAd</title>
			<polygon class="tatAd_1 (LHGGBBNC_00690)
Sec-independent protein translocase protein TatAd" points="1001,10 1006,40 1001,70" fill="rgb(255,255,255)" fill-opacity="1.0" stroke="rgb(0,0,0)" stroke-width="2"  />
			<g>
				<title>MttA_Hcf106 (PF02416)
"mttA/Hcf106 family"</title>
				<polygon class="PF02416" points="1001,26 1003,40 1001,54" stroke-linejoin="round" width="5" height="24" fill="rgb(74,206,98)" stroke="rgb(59,164,78)" stroke-width="1" opacity="0.75" />
			</g>
		</g>
		<g>
			<title>tatAd_2 (LHGGBBNC_00691)
Sec-independent protein translocase protein TatAd</title>
			<polygon class="tatAd_2 (LHGGBBNC_00691)
Sec-independent protein translocase protein TatAd" points="1008,10 1014,40 1008,70" fill="rgb(255,255,255)" fill-opacity="1.0" stroke="rgb(0,0,0)" stroke-width="2"  />
			<g>
				<title>MttA_Hcf106 (PF02416)
"mttA/Hcf106 family"</title>
				<polygon class="PF02416" points="1008,28 1008,28 1011,40 1008,52 1008,52" stroke-linejoin="round" width="5" height="24" fill="rgb(74,206,98)" stroke="rgb(59,164,78)" stroke-width="1" opacity="0.75" />
			</g>
		</g>
		<g>
			<title>tatC1 (LHGGBBNC_00692)
Sec-independent protein translocase protein TatCd</title>
			<polygon class="tatC1 (LHGGBBNC_00692)
Sec-independent protein translocase protein TatCd" points="1017,10 1042,40 1017,70" fill="rgb(255,255,255)" fill-opacity="1.0" stroke="rgb(0,0,0)" stroke-width="2"  />
			<g>
				<title>TatC (PF00902)
"Sec-independent protein translocase protein (TatC)"</title>
				<polygon class="PF00902" points="1018,28 1028,28 1038,40 1038,40 1028,52 1018,52" stroke-linejoin="round" width="20" height="24" fill="rgb(84,193,209)" stroke="rgb(67,154,167)" stroke-width="1" opacity="0.75" />
			</g>
		</g>
		<g>
			<title> (LHGGBBNC_00693)
hypothetical protein</title>
			<polygon class=" (LHGGBBNC_00693)
hypothetical protein" points="1048,10 1055,40 1048,70" fill="rgb(255,255,255)" fill-opacity="1.0" stroke="rgb(0,0,0)" stroke-width="2"  />
			<g>
				<title>YozE_SAM_like (PF06855)
"YozE SAM-like fold"</title>
				<polygon class="PF06855" points="1048,28 1048,28 1052,40 1048,52 1048,52" stroke-linejoin="round" width="6" height="24" fill="rgb(83,201,171)" stroke="rgb(66,160,136)" stroke-width="1" opacity="0.75" />
			</g>
		</g>
		<g>
			<title>sbcD (LHGGBBNC_00694)
Nuclease SbcCD subunit D</title>
			<polygon class="sbcD (LHGGBBNC_00694)
Nuclease SbcCD subunit D" points="1056,25 1064,25 1064,10 1094,40 1064,70 1064,55 1056,55" fill="rgb(255,255,255)" fill-opacity="1.0" stroke="rgb(0,0,0)" stroke-width="2"  />
			<g>
				<title>Metallophos (PF00149)
"Calcineurin-like phosphoesterase"</title>
				<rect class="PF00149" x="1056" y="28" stroke-linejoin="round" width="21" height="24" fill="rgb(181,197,58)" stroke="rgb(144,157,46)" stroke-width="1" opacity="0.75" />
			</g>
			<g>
				<title>SbcD_C (PF12320)
"Type 5 capsule protein repressor C-terminal domain"</title>
				<polygon class="PF12320" points="1082,32 1090,40 1082,48" stroke-linejoin="round" width="9" height="24" fill="rgb(182,136,65)" stroke="rgb(145,108,52)" stroke-width="1" opacity="0.75" />
			</g>
		</g>
		<g>
			<title>smc_1 (LHGGBBNC_00695)
Chromosome partition protein Smc</title>
			<polygon class="smc_1 (LHGGBBNC_00695)
Chromosome partition protein Smc" points="1095,25 1168,25 1168,10 1198,40 1168,70 1168,55 1095,55" fill="rgb(255,255,255)" fill-opacity="1.0" stroke="rgb(0,0,0)" stroke-width="2"  />
			<g>
				<title>AAA_23 (PF13476)
"AAA domain"</title>
				<rect class="PF13476" x="1095" y="28" stroke-linejoin="round" width="21" height="24" fill="rgb(57,185,214)" stroke="rgb(45,147,171)" stroke-width="1" opacity="0.75" />
			</g>
			<g>
				<title>SbcCD_C (PF13558)
"Putative exonuclease SbcCD, C subunit"</title>
				<polygon class="PF13558" points="1186,32 1194,40 1194,40 1186,48" stroke-linejoin="round" width="8" height="24" fill="rgb(84,179,84)" stroke="rgb(67,143,67)" stroke-width="1" opacity="0.75" />
			</g>
		</g>
		<g>
			<title>ung (LHGGBBNC_00696)
Uracil-DNA glycosylase</title>
			<polygon class="ung (LHGGBBNC_00696)
Uracil-DNA glycosylase" points="1203,10 1225,40 1203,70" fill="rgb(255,255,255)" fill-opacity="1.0" stroke="rgb(0,0,0)" stroke-width="2"  />
			<g>
				<title>UDG (PF03167)
"Uracil DNA glycosylase superfamily"</title>
				<polygon class="PF03167" points="1208,28 1213,28 1221,40 1213,52 1208,52" stroke-linejoin="round" width="16" height="24" fill="rgb(64,224,60)" stroke="rgb(51,179,48)" stroke-width="1" opacity="0.75" />
			</g>
		</g>
		<g>
			<title> (LHGGBBNC_00697)
hypothetical protein</title>
			<polygon class=" (LHGGBBNC_00697)
hypothetical protein" points="1228,10 1245,40 1228,70" fill="rgb(255,255,255)" fill-opacity="1.0" stroke="rgb(0,0,0)" stroke-width="2"  />
			<g>
				<title>YqfQ (PF14181)
"YqfQ-like protein"</title>
				<polygon class="PF14181" points="1229,28 1235,28 1242,40 1235,52 1229,52" stroke-linejoin="round" width="15" height="24" fill="rgb(207,119,57)" stroke="rgb(165,95,45)" stroke-width="1" opacity="0.75" />
			</g>
		</g>
		<g>
			<title>msrB_1 (LHGGBBNC_00698)
Peptide methionine sulfoxide reductase MsrB</title>
			<polygon class="msrB_1 (LHGGBBNC_00698)
Peptide methionine sulfoxide reductase MsrB" points="1250,25 1252,25 1252,10 1282,40 1252,70 1252,55 1250,55" fill="rgb(255,255,255)" fill-opacity="1.0" stroke="rgb(0,0,0)" stroke-width="2"  />
			<g>
				<title>PMSR (PF01625)
"Peptide methionine sulfoxide reductase"</title>
				<rect class="PF01625" x="1250" y="28" stroke-linejoin="round" width="15" height="24" fill="rgb(201,74,176)" stroke="rgb(160,59,140)" stroke-width="1" opacity="0.75" />
			</g>
			<g>
				<title>SelR (PF01641)
"SelR domain"</title>
				<polygon class="PF01641" points="1268,31 1277,40 1268,49" stroke-linejoin="round" width="12" height="24" fill="rgb(192,99,202)" stroke="rgb(153,79,161)" stroke-width="1" opacity="0.75" />
			</g>
		</g>
		<g>
			<title> (LHGGBBNC_00699)
hypothetical protein</title>
			<polygon class=" (LHGGBBNC_00699)
hypothetical protein" points="1288,10 1307,40 1288,70" fill="rgb(255,255,255)" fill-opacity="1.0" stroke="rgb(0,0,0)" stroke-width="2"  />
			<g>
				<title>TetR_N (PF00440)
"Bacterial regulatory proteins, tetR family"</title>
				<rect class="PF00440" x="1289" y="28" stroke-linejoin="round" width="4" height="24" fill="rgb(73,212,190)" stroke="rgb(58,169,152)" stroke-width="1" opacity="0.75" />
			</g>
		</g>
		<g>
			<title> (LHGGBBNC_00700)
hypothetical protein</title>
			<polygon class=" (LHGGBBNC_00700)
hypothetical protein" points="1308,25 1312,25 1312,10 1342,40 1312,70 1312,55 1308,55" fill="rgb(255,255,255)" fill-opacity="1.0" stroke="rgb(0,0,0)" stroke-width="2"  />
			<g>
				<title>AbrB (PF05145)
"Transition state regulatory protein AbrB"</title>
				<polygon class="PF05145" points="1310,28 1325,28 1337,40 1325,52 1310,52" stroke-linejoin="round" width="30" height="24" fill="rgb(95,98,223)" stroke="rgb(76,78,178)" stroke-width="1" opacity="0.75" />
			</g>
		</g>
		<g>
			<title>mhqD_1 (LHGGBBNC_00701)
Putative hydrolase MhqD</title>
			<polygon class="mhqD_1 (LHGGBBNC_00701)
Putative hydrolase MhqD" points="1345,10 1365,40 1345,70" fill="rgb(255,255,255)" fill-opacity="1.0" stroke="rgb(0,0,0)" stroke-width="2"  />
			<g>
				<title>DLH (PF01738)
"Dienelactone hydrolase family"</title>
				<polygon class="PF01738" points="1350,28 1353,28 1361,40 1353,52 1350,52" stroke-linejoin="round" width="15" height="24" fill="rgb(188,185,48)" stroke="rgb(150,147,38)" stroke-width="1" opacity="0.75" />
			</g>
		</g>
		<g>
			<title> (LHGGBBNC_00702)
hypothetical protein</title>
			<polygon class=" (LHGGBBNC_00702)
hypothetical protein" points="1368,10 1374,40 1368,70" fill="rgb(255,255,255)" fill-opacity="1.0" stroke="rgb(0,0,0)" stroke-width="2"  />
		</g>
	</g>
</svg>
