<svg version="1.1" baseProfile="full" xmlns="http://www.w3.org/2000/svg" width="366.23333333333335" height="80">
	<g>
		<line x1="10" y1="40.0" x2="356.23333333333335" y2="40.0" style="stroke:rgb(70,70,70); stroke-width:3 "/>
		<g>
			<title> (GKEONEKI_03357)
hypothetical protein</title>
			<polygon class=" (GKEONEKI_03357)
hypothetical protein" points="54,10 62,40 54,70" fill="rgb(255,255,255)" fill-opacity="1.0" stroke="rgb(0,0,0)" stroke-width="2"  />
		</g>
		<g>
			<title> (GKEONEKI_03358)
hypothetical protein</title>
			<polygon class=" (GKEONEKI_03358)
hypothetical protein" points="63,10 78,40 63,70" fill="rgb(255,255,255)" fill-opacity="1.0" stroke="rgb(0,0,0)" stroke-width="2"  />
			<g>
				<title>Acetyltransf_1 (PF00583)
"Acetyltransferase (GNAT) family"</title>
				<polygon class="PF00583" points="64,28 68,28 75,40 68,52 64,52" stroke-linejoin="round" width="12" height="24" fill="rgb(121,183,50)" stroke="rgb(96,146,39)" stroke-width="1" opacity="0.75" />
			</g>
		</g>
		<g>
			<title>bdlA (GKEONEKI_03359)
Biofilm dispersion protein BdlA</title>
			<polygon class="bdlA (GKEONEKI_03359)
Biofilm dispersion protein BdlA" points="84,25 84,25 84,10 114,40 84,70 84,55 84,55" fill="rgb(255,255,255)" fill-opacity="1.0" stroke="rgb(0,0,0)" stroke-width="2"  />
			<g>
				<title>PAS_4 (PF08448)
"PAS fold"</title>
				<rect class="PF08448" x="85" y="28" stroke-linejoin="round" width="11" height="24" fill="rgb(50,90,192)" stroke="rgb(40,71,153)" stroke-width="1" opacity="0.75" />
			</g>
			<g>
				<title>MCPsignal (PF00015)
"Methyl-accepting chemotaxis protein (MCP) signalling domain"</title>
				<polygon class="PF00015" points="97,28 98,28 110,40 98,52 97,52" stroke-linejoin="round" width="16" height="24" fill="rgb(104,174,223)" stroke="rgb(83,139,178)" stroke-width="1" opacity="0.75" />
			</g>
		</g>
		<g>
			<title> (GKEONEKI_03360)
hypothetical protein</title>
			<polygon class=" (GKEONEKI_03360)
hypothetical protein" points="118,10 145,40 118,70" fill="rgb(255,255,255)" fill-opacity="1.0" stroke="rgb(0,0,0)" stroke-width="2"  />
			<g>
				<title>GGDEF (PF00990)
"Diguanylate cyclase, GGDEF domain"</title>
				<polygon class="PF00990" points="129,28 129,28 141,40 129,52 129,52" stroke-linejoin="round" width="15" height="24" fill="rgb(62,170,199)" stroke="rgb(49,135,159)" stroke-width="1" opacity="0.75" />
			</g>
		</g>
		<g>
			<title> (GKEONEKI_03361)
hypothetical protein</title>
			<polygon class=" (GKEONEKI_03361)
hypothetical protein" points="147,40 170,10 170,70" fill="rgb(255,255,255)" fill-opacity="1.0" stroke="rgb(0,0,0)" stroke-width="2"  />
			<g>
				<title>DUF2154 (PF09922)
"Cell wall-active antibiotics response 4TMS YvqF"</title>
				<polygon class="PF09922" points="151,40 158,31 158,49" stroke-linejoin="round" width="11" height="24" fill="rgb(190,73,196)" stroke="rgb(152,58,156)" stroke-width="1" opacity="0.75" />
			</g>
			<g>
				<title>Toast_rack_N (PF17115)
"N-terminal domain of toast_rack, DUF2154"</title>
				<polygon class="PF17115" points="157,32 160,28 165,28 165,52 160,52 157,48" stroke-linejoin="round" width="8" height="24" fill="rgb(194,78,58)" stroke="rgb(155,62,46)" stroke-width="1" opacity="0.75" />
			</g>
		</g>
		<g>
			<title>ectC (GKEONEKI_03362)
L-ectoine synthase</title>
			<polygon class="ectC (GKEONEKI_03362)
L-ectoine synthase" points="176,10 188,40 176,70" fill="rgb(255,255,255)" fill-opacity="1.0" stroke="rgb(0,0,0)" stroke-width="2"  />
			<g>
				<title>Ectoine_synth (PF06339)
"Ectoine synthase"</title>
				<polygon class="PF06339" points="176,28 180,28 185,40 180,52 176,52" stroke-linejoin="round" width="12" height="24" fill="rgb(225,176,81)" stroke="rgb(180,140,64)" stroke-width="1" opacity="0.75" />
			</g>
		</g>
		<g>
			<title> (GKEONEKI_03363)
hypothetical protein</title>
			<polygon class=" (GKEONEKI_03363)
hypothetical protein" points="192,10 200,40 192,70" fill="rgb(255,255,255)" fill-opacity="1.0" stroke="rgb(0,0,0)" stroke-width="2"  />
		</g>
		<g>
			<title> (GKEONEKI_03364)
hypothetical protein</title>
			<polygon class=" (GKEONEKI_03364)
hypothetical protein" points="203,10 211,40 203,70" fill="rgb(255,255,255)" fill-opacity="1.0" stroke="rgb(0,0,0)" stroke-width="2"  />
		</g>
		<g>
			<title> (GKEONEKI_03365)
hypothetical protein</title>
			<polygon class=" (GKEONEKI_03365)
hypothetical protein" points="212,10 227,40 212,70" fill="rgb(255,255,255)" fill-opacity="1.0" stroke="rgb(0,0,0)" stroke-width="2"  />
		</g>
		<g>
			<title> (GKEONEKI_03366)
hypothetical protein</title>
			<polygon class=" (GKEONEKI_03366)
hypothetical protein" points="227,10 234,40 227,70" fill="rgb(255,255,255)" fill-opacity="1.0" stroke="rgb(0,0,0)" stroke-width="2"  />
		</g>
		<g>
			<title> (GKEONEKI_03367)
hypothetical protein</title>
			<polygon class=" (GKEONEKI_03367)
hypothetical protein" points="235,40 264,10 264,70" fill="rgb(255,255,255)" fill-opacity="1.0" stroke="rgb(0,0,0)" stroke-width="2"  />
		</g>
		<g>
			<title> (GKEONEKI_03368)
hypothetical protein</title>
			<polygon class=" (GKEONEKI_03368)
hypothetical protein" points="264,25 264,25 264,10 294,40 264,70 264,55 264,55" fill="rgb(255,255,255)" fill-opacity="1.0" stroke="rgb(0,0,0)" stroke-width="2"  />
		</g>
		<g>
			<title> (GKEONEKI_03369)
hypothetical protein</title>
			<polygon class=" (GKEONEKI_03369)
hypothetical protein" points="294,10 312,40 294,70" fill="rgb(255,255,255)" fill-opacity="1.0" stroke="rgb(0,0,0)" stroke-width="2"  />
		</g>
		<g>
			<title> (GKEONEKI_03370)
hypothetical protein</title>
			<polygon class=" (GKEONEKI_03370)
hypothetical protein" points="314,40 324,10 324,70" fill="rgb(255,255,255)" fill-opacity="1.0" stroke="rgb(0,0,0)" stroke-width="2"  />
		</g>
	</g>
</svg>
