<svg version="1.1" baseProfile="full" xmlns="http://www.w3.org/2000/svg" width="517.6" height="80">
	<g>
		<line x1="10" y1="40.0" x2="507.6" y2="40.0" style="stroke:rgb(70,70,70); stroke-width:3 "/>
		<g>
			<title>yfeW (LBHMFDMM_00089)
Putative D-alanyl-D-alanine carboxypeptidase</title>
			<polygon class="yfeW (LBHMFDMM_00089)
Putative D-alanyl-D-alanine carboxypeptidase" points="66,25 40,25 40,10 10,40 40,70 40,55 66,55" fill="rgb(255,255,255)" fill-opacity="1.0" stroke="rgb(0,0,0)" stroke-width="2"  />
			<g>
				<title>Peptidase_M6 (PF05547)
"Immune inhibitor A peptidase M6"</title>
				<polygon class="PF05547" points="14,40 23,31 23,49" stroke-linejoin="round" width="12" height="24" fill="rgb(94,186,68)" stroke="rgb(75,148,54)" stroke-width="1" opacity="0.75" />
			</g>
			<g>
				<title>Beta-lactamase (PF00144)
"Beta-lactamase"</title>
				<polygon class="PF00144" points="23,31 26,28 57,28 57,52 26,52 23,49" stroke-linejoin="round" width="34" height="24" fill="rgb(92,159,200)" stroke="rgb(73,127,160)" stroke-width="1" opacity="0.75" />
			</g>
		</g>
		<g>
			<title>dat_1 (LBHMFDMM_00090)
Diaminobutyrate--2-oxoglutarate aminotransferase</title>
			<polygon class="dat_1 (LBHMFDMM_00090)
Diaminobutyrate--2-oxoglutarate aminotransferase" points="76,25 91,25 91,10 121,40 91,70 91,55 76,55" fill="rgb(255,255,255)" fill-opacity="1.0" stroke="rgb(0,0,0)" stroke-width="2"  />
			<g>
				<title>Aminotran_3 (PF00202)
"Aminotransferase class-III"</title>
				<polygon class="PF00202" points="78,28 105,28 117,40 105,52 78,52" stroke-linejoin="round" width="42" height="24" fill="rgb(49,163,189)" stroke="rgb(39,130,151)" stroke-width="1" opacity="0.75" />
			</g>
		</g>
		<g>
			<title>ddc (LBHMFDMM_00091)
L-2,4-diaminobutyrate decarboxylase</title>
			<polygon class="ddc (LBHMFDMM_00091)
L-2,4-diaminobutyrate decarboxylase" points="121,25 141,25 141,10 171,40 141,70 141,55 121,55" fill="rgb(255,255,255)" fill-opacity="1.0" stroke="rgb(0,0,0)" stroke-width="2"  />
			<g>
				<title>Pyridoxal_deC (PF00282)
"Pyridoxal-dependent decarboxylase conserved domain"</title>
				<polygon class="PF00282" points="126,28 155,28 163,36 163,44 155,52 126,52" stroke-linejoin="round" width="37" height="24" fill="rgb(100,218,166)" stroke="rgb(80,174,132)" stroke-width="1" opacity="0.75" />
			</g>
		</g>
		<g>
			<title>iucA (LBHMFDMM_00092)
N(2)-citryl-N(6)-acetyl-N(6)-hydroxylysine synthase</title>
			<polygon class="iucA (LBHMFDMM_00092)
N(2)-citryl-N(6)-acetyl-N(6)-hydroxylysine synthase" points="172,25 200,25 200,10 230,40 200,70 200,55 172,55" fill="rgb(255,255,255)" fill-opacity="1.0" stroke="rgb(0,0,0)" stroke-width="2"  />
			<g>
				<title>IucA_IucC (PF04183)
"IucA / IucC family"</title>
				<rect class="PF04183" x="186" y="28" stroke-linejoin="round" width="23" height="24" fill="rgb(221,104,121)" stroke="rgb(176,83,96)" stroke-width="1" opacity="0.75" />
			</g>
			<g>
				<title>FhuF (PF06276)
"Ferric iron reductase FhuF-like transporter"</title>
				<polygon class="PF06276" points="212,28 214,28 226,40 214,52 212,52" stroke-linejoin="round" width="15" height="24" fill="rgb(76,151,221)" stroke="rgb(60,120,176)" stroke-width="1" opacity="0.75" />
			</g>
		</g>
		<g>
			<title>iucB (LBHMFDMM_00093)
N(6)-hydroxylysine O-acetyltransferase</title>
			<polygon class="iucB (LBHMFDMM_00093)
N(6)-hydroxylysine O-acetyltransferase" points="230,10 249,40 230,70" fill="rgb(255,255,255)" fill-opacity="1.0" stroke="rgb(0,0,0)" stroke-width="2"  />
			<g>
				<title>Acetyltransf_8 (PF13523)
"Acetyltransferase (GNAT) domain"</title>
				<polygon class="PF13523" points="232,28 238,28 245,40 238,52 232,52" stroke-linejoin="round" width="14" height="24" fill="rgb(106,224,203)" stroke="rgb(84,179,162)" stroke-width="1" opacity="0.75" />
			</g>
		</g>
		<g>
			<title>iucD_1 (LBHMFDMM_00094)
L-lysine N6-monooxygenase</title>
			<polygon class="iucD_1 (LBHMFDMM_00094)
L-lysine N6-monooxygenase" points="249,25 263,25 263,10 293,40 263,70 263,55 249,55" fill="rgb(255,255,255)" fill-opacity="1.0" stroke="rgb(0,0,0)" stroke-width="2"  />
			<g>
				<title>K_oxygenase (PF13434)
"L-lysine 6-monooxygenase (NADPH-requiring)"</title>
				<polygon class="PF13434" points="249,28 277,28 282,33 282,47 277,52 249,52" stroke-linejoin="round" width="33" height="24" fill="rgb(81,213,119)" stroke="rgb(64,170,95)" stroke-width="1" opacity="0.75" />
			</g>
		</g>
		<g>
			<title>iucC (LBHMFDMM_00095)
Aerobactin synthase</title>
			<polygon class="iucC (LBHMFDMM_00095)
Aerobactin synthase" points="294,25 324,25 324,10 354,40 324,70 324,55 294,55" fill="rgb(255,255,255)" fill-opacity="1.0" stroke="rgb(0,0,0)" stroke-width="2"  />
			<g>
				<title>IucA_IucC (PF04183)
"IucA / IucC family"</title>
				<rect class="PF04183" x="308" y="28" stroke-linejoin="round" width="25" height="24" fill="rgb(221,104,121)" stroke="rgb(176,83,96)" stroke-width="1" opacity="0.75" />
			</g>
			<g>
				<title>FhuF (PF06276)
"Ferric iron reductase FhuF-like transporter"</title>
				<polygon class="PF06276" points="335,28 338,28 350,40 338,52 335,52" stroke-linejoin="round" width="16" height="24" fill="rgb(76,151,221)" stroke="rgb(60,120,176)" stroke-width="1" opacity="0.75" />
			</g>
		</g>
		<g>
			<title>lysC (LBHMFDMM_00096)
Aspartokinase</title>
			<polygon class="lysC (LBHMFDMM_00096)
Aspartokinase" points="355,25 365,25 365,10 395,40 365,70 365,55 355,55" fill="rgb(255,255,255)" fill-opacity="1.0" stroke="rgb(0,0,0)" stroke-width="2"  />
			<g>
				<title>AA_kinase (PF00696)
"Amino acid kinase family"</title>
				<rect class="PF00696" x="355" y="28" stroke-linejoin="round" width="22" height="24" fill="rgb(148,78,224)" stroke="rgb(118,62,179)" stroke-width="1" opacity="0.75" />
			</g>
		</g>
		<g>
			<title> (LBHMFDMM_00097)
hypothetical protein</title>
			<polygon class=" (LBHMFDMM_00097)
hypothetical protein" points="396,40 420,10 420,70" fill="rgb(255,255,255)" fill-opacity="1.0" stroke="rgb(0,0,0)" stroke-width="2"  />
			<g>
				<title>SNase (PF00565)
"Staphylococcal nuclease homologue"</title>
				<polygon class="PF00565" points="403,36 410,28 413,28 413,52 410,52 403,44" stroke-linejoin="round" width="10" height="24" fill="rgb(119,223,110)" stroke="rgb(95,178,88)" stroke-width="1" opacity="0.75" />
			</g>
		</g>
		<g>
			<title>kdgR_1 (LBHMFDMM_00098)
Transcriptional regulator KdgR</title>
			<polygon class="kdgR_1 (LBHMFDMM_00098)
Transcriptional regulator KdgR" points="427,10 452,40 427,70" fill="rgb(255,255,255)" fill-opacity="1.0" stroke="rgb(0,0,0)" stroke-width="2"  />
			<g>
				<title>HTH_IclR (PF09339)
"IclR helix-turn-helix domain"</title>
				<rect class="PF09339" x="427" y="28" stroke-linejoin="round" width="4" height="24" fill="rgb(135,102,222)" stroke="rgb(108,81,177)" stroke-width="1" opacity="0.75" />
			</g>
			<g>
				<title>IclR (PF01614)
"Bacterial transcriptional regulator"</title>
				<polygon class="PF01614" points="438,28 438,28 448,40 438,52 438,52" stroke-linejoin="round" width="12" height="24" fill="rgb(58,93,180)" stroke="rgb(46,74,144)" stroke-width="1" opacity="0.75" />
			</g>
		</g>
		<g>
			<title>ydhP_1 (LBHMFDMM_00099)
Inner membrane transport protein YdhP</title>
			<polygon class="ydhP_1 (LBHMFDMM_00099)
Inner membrane transport protein YdhP" points="452,25 461,25 461,10 491,40 461,70 461,55 452,55" fill="rgb(255,255,255)" fill-opacity="1.0" stroke="rgb(0,0,0)" stroke-width="2"  />
			<g>
				<title>MFS_1 (PF07690)
"Major Facilitator Superfamily"</title>
				<polygon class="PF07690" points="453,28 475,28 484,37 484,43 475,52 453,52" stroke-linejoin="round" width="31" height="24" fill="rgb(193,224,74)" stroke="rgb(154,179,59)" stroke-width="1" opacity="0.75" />
			</g>
		</g>
		<g>
			<title> (LBHMFDMM_00100)
hypothetical protein</title>
			<polygon class=" (LBHMFDMM_00100)
hypothetical protein" points="492,10 507,40 492,70" fill="rgb(255,255,255)" fill-opacity="1.0" stroke="rgb(0,0,0)" stroke-width="2"  />
			<g>
				<title>Haem_degrading (PF03928)
"Haem-degrading"</title>
				<polygon class="PF03928" points="493,28 497,28 503,40 497,52 493,52" stroke-linejoin="round" width="12" height="24" fill="rgb(77,133,190)" stroke="rgb(61,106,152)" stroke-width="1" opacity="0.75" />
			</g>
		</g>
	</g>
</svg>
