<svg version="1.1" baseProfile="full" xmlns="http://www.w3.org/2000/svg" width="1389.5333333333333" height="80">
	<g>
		<line x1="10" y1="40.0" x2="1379.5333333333333" y2="40.0" style="stroke:rgb(70,70,70); stroke-width:3 "/>
		<g>
			<title>fdxA_1 (PPJPJCPL_00060)
Ferredoxin 7Fe</title>
			<polygon class="fdxA_1 (PPJPJCPL_00060)
Ferredoxin 7Fe" points="19,40 27,10 27,70" fill="rgb(255,255,255)" fill-opacity="1.0" stroke="rgb(0,0,0)" stroke-width="2"  />
			<g>
				<title>Fer4 (PF00037)
"4Fe-4S binding domain"</title>
				<polygon class="PF00037" points="22,40 23,36 23,44" stroke-linejoin="round" width="2" height="24" fill="rgb(226,193,80)" stroke="rgb(180,154,64)" stroke-width="1" opacity="0.75" />
			</g>
		</g>
		<g>
			<title> (PPJPJCPL_00061)
hypothetical protein</title>
			<polygon class=" (PPJPJCPL_00061)
hypothetical protein" points="32,40 50,10 50,70" fill="rgb(255,255,255)" fill-opacity="1.0" stroke="rgb(0,0,0)" stroke-width="2"  />
			<g>
				<title>His_Phos_1 (PF00300)
"Histidine phosphatase superfamily (branch 1)"</title>
				<polygon class="PF00300" points="36,40 43,28 49,28 49,52 43,52" stroke-linejoin="round" width="17" height="24" fill="rgb(135,184,63)" stroke="rgb(107,147,50)" stroke-width="1" opacity="0.75" />
			</g>
		</g>
		<g>
			<title> (PPJPJCPL_00062)
hypothetical protein</title>
			<polygon class=" (PPJPJCPL_00062)
hypothetical protein" points="55,40 62,10 62,70" fill="rgb(255,255,255)" fill-opacity="1.0" stroke="rgb(0,0,0)" stroke-width="2"  />
		</g>
		<g>
			<title> (PPJPJCPL_00063)
hypothetical protein</title>
			<polygon class=" (PPJPJCPL_00063)
hypothetical protein" points="100,25 95,25 95,10 65,40 95,70 95,55 100,55" fill="rgb(255,255,255)" fill-opacity="1.0" stroke="rgb(0,0,0)" stroke-width="2"  />
			<g>
				<title>AbrB (PF05145)
"Transition state regulatory protein AbrB"</title>
				<polygon class="PF05145" points="69,40 81,28 97,28 97,52 81,52" stroke-linejoin="round" width="31" height="24" fill="rgb(95,98,223)" stroke="rgb(76,78,178)" stroke-width="1" opacity="0.75" />
			</g>
		</g>
		<g>
			<title>msrAB_1 (PPJPJCPL_00064)
Peptide methionine sulfoxide reductase MsrA/MsrB</title>
			<polygon class="msrAB_1 (PPJPJCPL_00064)
Peptide methionine sulfoxide reductase MsrA/MsrB" points="139,25 137,25 137,10 107,40 137,70 137,55 139,55" fill="rgb(255,255,255)" fill-opacity="1.0" stroke="rgb(0,0,0)" stroke-width="2"  />
			<g>
				<title>SelR (PF01641)
"SelR domain"</title>
				<polygon class="PF01641" points="111,40 121,30 121,50" stroke-linejoin="round" width="12" height="24" fill="rgb(192,99,202)" stroke="rgb(153,79,161)" stroke-width="1" opacity="0.75" />
			</g>
			<g>
				<title>PMSR (PF01625)
"Peptide methionine sulfoxide reductase"</title>
				<polygon class="PF01625" points="123,28 123,28 138,28 138,52 123,52 123,52" stroke-linejoin="round" width="15" height="24" fill="rgb(201,74,176)" stroke="rgb(160,59,140)" stroke-width="1" opacity="0.75" />
			</g>
		</g>
		<g>
			<title> (PPJPJCPL_00065)
hypothetical protein</title>
			<polygon class=" (PPJPJCPL_00065)
hypothetical protein" points="142,40 158,10 158,70" fill="rgb(255,255,255)" fill-opacity="1.0" stroke="rgb(0,0,0)" stroke-width="2"  />
			<g>
				<title>YqfQ (PF14181)
"YqfQ-like protein"</title>
				<polygon class="PF14181" points="145,40 151,28 156,28 156,52 151,52" stroke-linejoin="round" width="14" height="24" fill="rgb(207,119,57)" stroke="rgb(165,95,45)" stroke-width="1" opacity="0.75" />
			</g>
		</g>
		<g>
			<title>ung (PPJPJCPL_00066)
Uracil-DNA glycosylase</title>
			<polygon class="ung (PPJPJCPL_00066)
Uracil-DNA glycosylase" points="160,40 182,10 182,70" fill="rgb(255,255,255)" fill-opacity="1.0" stroke="rgb(0,0,0)" stroke-width="2"  />
			<g>
				<title>UDG (PF03167)
"Uracil DNA glycosylase superfamily"</title>
				<polygon class="PF03167" points="164,40 173,28 177,28 177,52 173,52" stroke-linejoin="round" width="16" height="24" fill="rgb(64,224,60)" stroke="rgb(51,179,48)" stroke-width="1" opacity="0.75" />
			</g>
		</g>
		<g>
			<title>ytmB (PPJPJCPL_00067)
putative protein YtmB</title>
			<polygon class="ytmB (PPJPJCPL_00067)
putative protein YtmB" points="187,40 195,10 195,70" fill="rgb(255,255,255)" fill-opacity="1.0" stroke="rgb(0,0,0)" stroke-width="2"  />
			<g>
				<title>DUF2584 (PF10763)
"Protein of unknown function (DUF2584)"</title>
				<polygon class="PF10763" points="190,40 193,28 195,28 195,52 193,52" stroke-linejoin="round" width="8" height="24" fill="rgb(118,211,56)" stroke="rgb(94,168,44)" stroke-width="1" opacity="0.75" />
			</g>
		</g>
		<g>
			<title> (PPJPJCPL_00068)
hypothetical protein</title>
			<polygon class=" (PPJPJCPL_00068)
hypothetical protein" points="299,25 226,25 226,10 196,40 226,70 226,55 299,55" fill="rgb(255,255,255)" fill-opacity="1.0" stroke="rgb(0,0,0)" stroke-width="2"  />
			<g>
				<title>SbcCD_C (PF13558)
"Putative exonuclease SbcCD, C subunit"</title>
				<polygon class="PF13558" points="200,40 209,31 209,49 200,40" stroke-linejoin="round" width="9" height="24" fill="rgb(84,179,84)" stroke="rgb(67,143,67)" stroke-width="1" opacity="0.75" />
			</g>
			<g>
				<title>AAA_23 (PF13476)
"AAA domain"</title>
				<rect class="PF13476" x="260" y="28" stroke-linejoin="round" width="38" height="24" fill="rgb(57,185,214)" stroke="rgb(45,147,171)" stroke-width="1" opacity="0.75" />
			</g>
		</g>
		<g>
			<title>sbcD (PPJPJCPL_00069)
Nuclease SbcCD subunit D</title>
			<polygon class="sbcD (PPJPJCPL_00069)
Nuclease SbcCD subunit D" points="341,25 330,25 330,10 300,40 330,70 330,55 341,55" fill="rgb(255,255,255)" fill-opacity="1.0" stroke="rgb(0,0,0)" stroke-width="2"  />
			<g>
				<title>SbcD_C (PF12320)
"Type 5 capsule protein repressor C-terminal domain"</title>
				<polygon class="PF12320" points="304,40 311,33 311,47" stroke-linejoin="round" width="9" height="24" fill="rgb(182,136,65)" stroke="rgb(145,108,52)" stroke-width="1" opacity="0.75" />
			</g>
			<g>
				<title>Metallophos (PF00149)
"Calcineurin-like phosphoesterase"</title>
				<polygon class="PF00149" points="316,28 316,28 337,28 337,52 316,52 316,52" stroke-linejoin="round" width="21" height="24" fill="rgb(181,197,58)" stroke="rgb(144,157,46)" stroke-width="1" opacity="0.75" />
			</g>
		</g>
		<g>
			<title> (PPJPJCPL_00070)
hypothetical protein</title>
			<polygon class=" (PPJPJCPL_00070)
hypothetical protein" points="343,40 350,10 350,70" fill="rgb(255,255,255)" fill-opacity="1.0" stroke="rgb(0,0,0)" stroke-width="2"  />
			<g>
				<title>YozE_SAM_like (PF06855)
"YozE SAM-like fold"</title>
				<polygon class="PF06855" points="346,40 349,28 349,28 349,52 349,52" stroke-linejoin="round" width="6" height="24" fill="rgb(83,201,171)" stroke="rgb(66,160,136)" stroke-width="1" opacity="0.75" />
			</g>
		</g>
		<g>
			<title>tatC1_1 (PPJPJCPL_00071)
Sec-independent protein translocase protein TatCd</title>
			<polygon class="tatC1_1 (PPJPJCPL_00071)
Sec-independent protein translocase protein TatCd" points="352,40 377,10 377,70" fill="rgb(255,255,255)" fill-opacity="1.0" stroke="rgb(0,0,0)" stroke-width="2"  />
			<g>
				<title>TatC (PF00902)
"Sec-independent protein translocase protein (TatC)"</title>
				<polygon class="PF00902" points="356,40 366,28 375,28 375,52 366,52" stroke-linejoin="round" width="20" height="24" fill="rgb(84,193,209)" stroke="rgb(67,154,167)" stroke-width="1" opacity="0.75" />
			</g>
		</g>
		<g>
			<title>tatAd_1 (PPJPJCPL_00072)
Sec-independent protein translocase protein TatAd</title>
			<polygon class="tatAd_1 (PPJPJCPL_00072)
Sec-independent protein translocase protein TatAd" points="380,40 386,10 386,70" fill="rgb(255,255,255)" fill-opacity="1.0" stroke="rgb(0,0,0)" stroke-width="2"  />
			<g>
				<title>MttA_Hcf106 (PF02416)
"mttA/Hcf106 family"</title>
				<polygon class="PF02416" points="383,40 385,28 385,28 385,52 385,52" stroke-linejoin="round" width="5" height="24" fill="rgb(74,206,98)" stroke="rgb(59,164,78)" stroke-width="1" opacity="0.75" />
			</g>
		</g>
		<g>
			<title>tatAd_2 (PPJPJCPL_00073)
Sec-independent protein translocase protein TatAd</title>
			<polygon class="tatAd_2 (PPJPJCPL_00073)
Sec-independent protein translocase protein TatAd" points="387,40 394,10 394,70" fill="rgb(255,255,255)" fill-opacity="1.0" stroke="rgb(0,0,0)" stroke-width="2"  />
			<g>
				<title>MttA_Hcf106 (PF02416)
"mttA/Hcf106 family"</title>
				<polygon class="PF02416" points="390,40 393,28 393,28 393,52 393,52" stroke-linejoin="round" width="6" height="24" fill="rgb(74,206,98)" stroke="rgb(59,164,78)" stroke-width="1" opacity="0.75" />
			</g>
		</g>
		<g>
			<title>mobA (PPJPJCPL_00074)
putative molybdenum cofactor guanylyltransferase</title>
			<polygon class="mobA (PPJPJCPL_00074)
putative molybdenum cofactor guanylyltransferase" points="399,40 419,10 419,70" fill="rgb(255,255,255)" fill-opacity="1.0" stroke="rgb(0,0,0)" stroke-width="2"  />
			<g>
				<title>NTP_transf_3 (PF12804)
"MobA-like NTP transferase domain"</title>
				<polygon class="PF12804" points="403,40 411,28 417,28 417,52 411,52" stroke-linejoin="round" width="15" height="24" fill="rgb(52,209,196)" stroke="rgb(41,167,156)" stroke-width="1" opacity="0.75" />
			</g>
		</g>
		<g>
			<title> (PPJPJCPL_00075)
IS1595 family transposase ISSsu9</title>
			<polygon class=" (PPJPJCPL_00075)
IS1595 family transposase ISSsu9" points="420,40 436,10 436,70" fill="rgb(255,255,255)" fill-opacity="1.0" stroke="rgb(0,0,0)" stroke-width="2"  />
			<g>
				<title>DHFR_1 (PF00186)
"Dihydrofolate reductase"</title>
				<polygon class="PF00186" points="423,40 430,28 436,28 436,52 430,52" stroke-linejoin="round" width="16" height="24" fill="rgb(150,188,63)" stroke="rgb(119,150,50)" stroke-width="1" opacity="0.75" />
			</g>
		</g>
		<g>
			<title>thyA (PPJPJCPL_00076)
Thymidylate synthase</title>
			<polygon class="thyA (PPJPJCPL_00076)
Thymidylate synthase" points="471,25 469,25 469,10 439,40 469,70 469,55 471,55" fill="rgb(255,255,255)" fill-opacity="1.0" stroke="rgb(0,0,0)" stroke-width="2"  />
			<g>
				<title>Thymidylat_synt (PF00303)
"Thymidylate synthase"</title>
				<polygon class="PF00303" points="443,40 455,28 470,28 470,52 455,52" stroke-linejoin="round" width="31" height="24" fill="rgb(103,91,191)" stroke="rgb(82,72,152)" stroke-width="1" opacity="0.75" />
			</g>
		</g>
		<g>
			<title>yedJ (PPJPJCPL_00077)
putative protein YedJ</title>
			<polygon class="yedJ (PPJPJCPL_00077)
putative protein YedJ" points="471,40 491,10 491,70" fill="rgb(255,255,255)" fill-opacity="1.0" stroke="rgb(0,0,0)" stroke-width="2"  />
			<g>
				<title>HD (PF01966)
"HD domain"</title>
				<polygon class="PF01966" points="478,36 483,28 487,28 487,52 483,52 478,44" stroke-linejoin="round" width="9" height="24" fill="rgb(92,193,119)" stroke="rgb(73,154,95)" stroke-width="1" opacity="0.75" />
			</g>
		</g>
		<g>
			<title> (PPJPJCPL_00078)
hypothetical protein</title>
			<polygon class=" (PPJPJCPL_00078)
hypothetical protein" points="492,40 520,10 520,70" fill="rgb(255,255,255)" fill-opacity="1.0" stroke="rgb(0,0,0)" stroke-width="2"  />
			<g>
				<title>DUF72 (PF01904)
"Protein of unknown function DUF72"</title>
				<polygon class="PF01904" points="496,40 507,28 517,28 517,52 507,52" stroke-linejoin="round" width="24" height="24" fill="rgb(63,151,204)" stroke="rgb(50,120,163)" stroke-width="1" opacity="0.75" />
			</g>
		</g>
		<g>
			<title>fhs (PPJPJCPL_00079)
Formate--tetrahydrofolate ligase</title>
			<polygon class="fhs (PPJPJCPL_00079)
Formate--tetrahydrofolate ligase" points="579,25 554,25 554,10 524,40 554,70 554,55 579,55" fill="rgb(255,255,255)" fill-opacity="1.0" stroke="rgb(0,0,0)" stroke-width="2"  />
			<g>
				<title>FTHFS (PF01268)
"Formate--tetrahydrofolate ligase"</title>
				<polygon class="PF01268" points="528,40 540,28 579,28 579,52 540,52" stroke-linejoin="round" width="55" height="24" fill="rgb(215,182,81)" stroke="rgb(172,145,64)" stroke-width="1" opacity="0.75" />
			</g>
		</g>
		<g>
			<title>cspD (PPJPJCPL_00080)
Cold shock protein CspD</title>
			<polygon class="cspD (PPJPJCPL_00080)
Cold shock protein CspD" points="590,10 596,40 590,70" fill="rgb(255,255,255)" fill-opacity="1.0" stroke="rgb(0,0,0)" stroke-width="2"  />
			<g>
				<title>CSD (PF00313)
"'Cold-shock' DNA-binding domain"</title>
				<polygon class="PF00313" points="590,28 590,28 593,40 590,52 590,52" stroke-linejoin="round" width="6" height="24" fill="rgb(87,72,181)" stroke="rgb(69,57,144)" stroke-width="1" opacity="0.75" />
			</g>
		</g>
		<g>
			<title> (PPJPJCPL_00081)
queuosine precursor transporter</title>
			<polygon class=" (PPJPJCPL_00081)
queuosine precursor transporter" points="601,10 623,40 601,70" fill="rgb(255,255,255)" fill-opacity="1.0" stroke="rgb(0,0,0)" stroke-width="2"  />
			<g>
				<title>Vut_1 (PF02592)
"Putative vitamin uptake transporter"</title>
				<polygon class="PF02592" points="606,28 611,28 620,40 611,52 606,52" stroke-linejoin="round" width="16" height="24" fill="rgb(93,184,75)" stroke="rgb(74,147,60)" stroke-width="1" opacity="0.75" />
			</g>
		</g>
		<g>
			<title>rnhA (PPJPJCPL_00082)
14.7 kDa ribonuclease H-like protein</title>
			<polygon class="rnhA (PPJPJCPL_00082)
14.7 kDa ribonuclease H-like protein" points="624,10 637,40 624,70" fill="rgb(255,255,255)" fill-opacity="1.0" stroke="rgb(0,0,0)" stroke-width="2"  />
			<g>
				<title>RNase_H (PF00075)
"RNase H"</title>
				<polygon class="PF00075" points="624,28 628,28 633,40 628,52 624,52" stroke-linejoin="round" width="12" height="24" fill="rgb(225,86,224)" stroke="rgb(180,68,179)" stroke-width="1" opacity="0.75" />
			</g>
		</g>
		<g>
			<title> (PPJPJCPL_00083)
hypothetical protein</title>
			<polygon class=" (PPJPJCPL_00083)
hypothetical protein" points="638,40 647,10 647,70" fill="rgb(255,255,255)" fill-opacity="1.0" stroke="rgb(0,0,0)" stroke-width="2"  />
		</g>
		<g>
			<title> (PPJPJCPL_00084)
hypothetical protein</title>
			<polygon class=" (PPJPJCPL_00084)
hypothetical protein" points="652,40 656,10 656,70" fill="rgb(255,255,255)" fill-opacity="1.0" stroke="rgb(0,0,0)" stroke-width="2"  />
		</g>
		<g>
			<title> (PPJPJCPL_00085)
hypothetical protein</title>
			<polygon class=" (PPJPJCPL_00085)
hypothetical protein" points="659,40 676,10 676,70" fill="rgb(255,255,255)" fill-opacity="1.0" stroke="rgb(0,0,0)" stroke-width="2"  />
			<g>
				<title>ICMT (PF04140)
"Isoprenylcysteine carboxyl methyltransferase (ICMT) family"</title>
				<polygon class="PF04140" points="662,40 668,29 668,51" stroke-linejoin="round" width="9" height="24" fill="rgb(100,223,104)" stroke="rgb(80,178,83)" stroke-width="1" opacity="0.75" />
			</g>
		</g>
		<g>
			<title>rppA (PPJPJCPL_00086)
1,3,6,8-tetrahydroxynaphthalene synthase</title>
			<polygon class="rppA (PPJPJCPL_00086)
1,3,6,8-tetrahydroxynaphthalene synthase" points="712,25 706,25 706,10 676,40 706,70 706,55 712,55" fill="rgb(255,255,255)" fill-opacity="1.0" stroke="rgb(0,0,0)" stroke-width="2"  />
			<g>
				<title>Chal_sti_synt_C (PF02797)
"Chalcone and stilbene synthases, C-terminal domain"</title>
				<polygon class="PF02797" points="680,40 689,31 689,49" stroke-linejoin="round" width="13" height="24" fill="rgb(139,212,63)" stroke="rgb(111,169,50)" stroke-width="1" opacity="0.75" />
			</g>
			<g>
				<title>Chal_sti_synt_N (PF00195)
"Chalcone and stilbene synthases, N-terminal domain"</title>
				<polygon class="PF00195" points="691,29 692,28 709,28 709,52 692,52 691,51" stroke-linejoin="round" width="18" height="24" fill="rgb(60,181,161)" stroke="rgb(47,144,128)" stroke-width="1" opacity="0.75" />
			</g>
		</g>
		<g>
			<title>gno_1 (PPJPJCPL_00087)
Gluconate 5-dehydrogenase</title>
			<polygon class="gno_1 (PPJPJCPL_00087)
Gluconate 5-dehydrogenase" points="714,40 739,10 739,70" fill="rgb(255,255,255)" fill-opacity="1.0" stroke="rgb(0,0,0)" stroke-width="2"  />
			<g>
				<title>adh_short_C2 (PF13561)
"Enoyl-(Acyl carrier protein) reductase"</title>
				<polygon class="PF13561" points="718,40 728,28 737,28 737,52 728,52" stroke-linejoin="round" width="23" height="24" fill="rgb(73,205,127)" stroke="rgb(58,164,101)" stroke-width="1" opacity="0.75" />
			</g>
		</g>
		<g>
			<title> (PPJPJCPL_00088)
hypothetical protein</title>
			<polygon class=" (PPJPJCPL_00088)
hypothetical protein" points="744,10 762,40 744,70" fill="rgb(255,255,255)" fill-opacity="1.0" stroke="rgb(0,0,0)" stroke-width="2"  />
		</g>
		<g>
			<title>ypwA (PPJPJCPL_00089)
Carboxypeptidase 1</title>
			<polygon class="ypwA (PPJPJCPL_00089)
Carboxypeptidase 1" points="812,25 793,25 793,10 763,40 793,70 793,55 812,55" fill="rgb(255,255,255)" fill-opacity="1.0" stroke="rgb(0,0,0)" stroke-width="2"  />
			<g>
				<title>Peptidase_M32 (PF02074)
"Carboxypeptidase Taq (M32) metallopeptidase"</title>
				<polygon class="PF02074" points="767,40 779,28 811,28 811,52 779,52" stroke-linejoin="round" width="48" height="24" fill="rgb(213,142,93)" stroke="rgb(170,113,74)" stroke-width="1" opacity="0.75" />
			</g>
		</g>
		<g>
			<title>rlmL (PPJPJCPL_00090)
Ribosomal RNA large subunit methyltransferase L</title>
			<polygon class="rlmL (PPJPJCPL_00090)
Ribosomal RNA large subunit methyltransferase L" points="852,25 845,25 845,10 815,40 845,70 845,55 852,55" fill="rgb(255,255,255)" fill-opacity="1.0" stroke="rgb(0,0,0)" stroke-width="2"  />
			<g>
				<title>UPF0020 (PF01170)
"Putative RNA methylase family UPF0020"</title>
				<polygon class="PF01170" points="819,40 831,28 835,28 835,52 831,52" stroke-linejoin="round" width="20" height="24" fill="rgb(89,182,69)" stroke="rgb(71,145,55)" stroke-width="1" opacity="0.75" />
			</g>
			<g>
				<title>THUMP (PF02926)
"THUMP domain"</title>
				<rect class="PF02926" x="837" y="28" stroke-linejoin="round" width="14" height="24" fill="rgb(52,209,163)" stroke="rgb(41,167,130)" stroke-width="1" opacity="0.75" />
			</g>
		</g>
		<g>
			<title>gpsB (PPJPJCPL_00091)
Cell cycle protein GpsB</title>
			<polygon class="gpsB (PPJPJCPL_00091)
Cell cycle protein GpsB" points="873,40 883,10 883,70" fill="rgb(255,255,255)" fill-opacity="1.0" stroke="rgb(0,0,0)" stroke-width="2"  />
			<g>
				<title>DivIVA (PF05103)
"DivIVA protein"</title>
				<polygon class="PF05103" points="876,40 880,28 881,28 881,52 880,52 876,40" stroke-linejoin="round" width="5" height="24" fill="rgb(213,106,117)" stroke="rgb(170,84,93)" stroke-width="1" opacity="0.75" />
			</g>
		</g>
		<g>
			<title> (PPJPJCPL_00092)
hypothetical protein</title>
			<polygon class=" (PPJPJCPL_00092)
hypothetical protein" points="886,40 904,10 904,70" fill="rgb(255,255,255)" fill-opacity="1.0" stroke="rgb(0,0,0)" stroke-width="2"  />
			<g>
				<title>YpsA (PF06908)
"YspA SLOG family"</title>
				<polygon class="PF06908" points="890,40 898,28 903,28 903,52 898,52" stroke-linejoin="round" width="16" height="24" fill="rgb(136,100,209)" stroke="rgb(108,80,167)" stroke-width="1" opacity="0.75" />
			</g>
		</g>
		<g>
			<title> (PPJPJCPL_00093)
hypothetical protein</title>
			<polygon class=" (PPJPJCPL_00093)
hypothetical protein" points="910,40 922,10 922,70" fill="rgb(255,255,255)" fill-opacity="1.0" stroke="rgb(0,0,0)" stroke-width="2"  />
			<g>
				<title>Spore-coat_CotD (PF11122)
"Inner spore coat protein D"</title>
				<polygon class="PF11122" points="913,40 918,28 920,28 920,52 918,52" stroke-linejoin="round" width="10" height="24" fill="rgb(221,153,69)" stroke="rgb(176,122,55)" stroke-width="1" opacity="0.75" />
			</g>
		</g>
		<g>
			<title>cdd (PPJPJCPL_00094)
Cytidine deaminase</title>
			<polygon class="cdd (PPJPJCPL_00094)
Cytidine deaminase" points="927,40 940,10 940,70" fill="rgb(255,255,255)" fill-opacity="1.0" stroke="rgb(0,0,0)" stroke-width="2"  />
			<g>
				<title>dCMP_cyt_deam_1 (PF00383)
"Cytidine and deoxycytidylate deaminase zinc-binding region"</title>
				<polygon class="PF00383" points="930,40 935,28 940,28 940,52 935,52 930,40" stroke-linejoin="round" width="10" height="24" fill="rgb(91,149,216)" stroke="rgb(72,119,172)" stroke-width="1" opacity="0.75" />
			</g>
		</g>
		<g>
			<title>yppE (PPJPJCPL_00095)
putative protein YppE</title>
			<polygon class="yppE (PPJPJCPL_00095)
putative protein YppE" points="943,40 954,10 954,70" fill="rgb(255,255,255)" fill-opacity="1.0" stroke="rgb(0,0,0)" stroke-width="2"  />
			<g>
				<title>DUF1798 (PF08807)
"Bacterial domain of unknown function (DUF1798)"</title>
				<polygon class="PF08807" points="946,40 951,28 953,28 953,52 951,52" stroke-linejoin="round" width="10" height="24" fill="rgb(153,201,81)" stroke="rgb(122,160,64)" stroke-width="1" opacity="0.75" />
			</g>
		</g>
		<g>
			<title> (PPJPJCPL_00096)
hypothetical protein</title>
			<polygon class=" (PPJPJCPL_00096)
hypothetical protein" points="957,40 965,10 965,70" fill="rgb(255,255,255)" fill-opacity="1.0" stroke="rgb(0,0,0)" stroke-width="2"  />
		</g>
		<g>
			<title> (PPJPJCPL_00097)
hypothetical protein</title>
			<polygon class=" (PPJPJCPL_00097)
hypothetical protein" points="974,10 977,40 974,70" fill="rgb(255,255,255)" fill-opacity="1.0" stroke="rgb(0,0,0)" stroke-width="2"  />
		</g>
		<g>
			<title>recU (PPJPJCPL_00098)
Holliday junction resolvase RecU</title>
			<polygon class="recU (PPJPJCPL_00098)
Holliday junction resolvase RecU" points="986,10 1005,40 986,70" fill="rgb(255,255,255)" fill-opacity="1.0" stroke="rgb(0,0,0)" stroke-width="2"  />
			<g>
				<title>RecU (PF03838)
"Recombination protein U"</title>
				<polygon class="PF03838" points="988,28 994,28 1002,40 994,52 988,52" stroke-linejoin="round" width="16" height="24" fill="rgb(93,204,83)" stroke="rgb(74,163,66)" stroke-width="1" opacity="0.75" />
			</g>
		</g>
		<g>
			<title>ponA (PPJPJCPL_00099)
Penicillin-binding protein 1A/1B</title>
			<polygon class="ponA (PPJPJCPL_00099)
Penicillin-binding protein 1A/1B" points="1006,25 1066,25 1066,10 1096,40 1066,70 1066,55 1006,55" fill="rgb(255,255,255)" fill-opacity="1.0" stroke="rgb(0,0,0)" stroke-width="2"  />
			<g>
				<title>Transgly (PF00912)
"Transglycosylase"</title>
				<rect class="PF00912" x="1013" y="28" stroke-linejoin="round" width="17" height="24" fill="rgb(172,107,216)" stroke="rgb(137,85,172)" stroke-width="1" opacity="0.75" />
			</g>
			<g>
				<title>Transpeptidase (PF00905)
"Penicillin binding protein transpeptidase domain"</title>
				<rect class="PF00905" x="1040" y="28" stroke-linejoin="round" width="27" height="24" fill="rgb(161,226,87)" stroke="rgb(128,180,69)" stroke-width="1" opacity="0.75" />
			</g>
			<g>
				<title>fn3 (PF00041)
"Fibronectin type III domain"</title>
				<polygon class="PF00041" points="1074,28 1080,28 1081,29 1081,51 1080,52 1074,52" stroke-linejoin="round" width="7" height="24" fill="rgb(203,70,135)" stroke="rgb(162,56,107)" stroke-width="1" opacity="0.75" />
			</g>
		</g>
		<g>
			<title>nth (PPJPJCPL_00100)
Endonuclease III</title>
			<polygon class="nth (PPJPJCPL_00100)
Endonuclease III" points="1102,40 1123,10 1123,70" fill="rgb(255,255,255)" fill-opacity="1.0" stroke="rgb(0,0,0)" stroke-width="2"  />
			<g>
				<title>EndIII_4Fe-2S (PF10576)
"Iron-sulfur binding domain of endonuclease III"</title>
				<polygon class="PF10576" points="1106,40 1104,43 1104,37" stroke-linejoin="round" width="1" height="24" fill="rgb(203,113,64)" stroke="rgb(162,90,51)" stroke-width="1" opacity="0.75" />
			</g>
			<g>
				<title>HhH-GPD (PF00730)
"HhH-GPD superfamily base excision DNA repair protein"</title>
				<polygon class="PF00730" points="1106,40 1115,28 1119,28 1119,52 1115,52 1106,40" stroke-linejoin="round" width="13" height="24" fill="rgb(190,78,115)" stroke="rgb(152,62,92)" stroke-width="1" opacity="0.75" />
			</g>
		</g>
		<g>
			<title>dnaD (PPJPJCPL_00101)
DNA replication protein DnaD</title>
			<polygon class="dnaD (PPJPJCPL_00101)
DNA replication protein DnaD" points="1124,40 1147,10 1147,70" fill="rgb(255,255,255)" fill-opacity="1.0" stroke="rgb(0,0,0)" stroke-width="2"  />
			<g>
				<title>DnaB_2 (PF07261)
"Replication initiation and membrane attachment"</title>
				<polygon class="PF07261" points="1128,40 1134,32 1134,48" stroke-linejoin="round" width="7" height="24" fill="rgb(136,193,85)" stroke="rgb(108,154,68)" stroke-width="1" opacity="0.75" />
			</g>
		</g>
		<g>
			<title>asnS (PPJPJCPL_00102)
Asparagine--tRNA ligase</title>
			<polygon class="asnS (PPJPJCPL_00102)
Asparagine--tRNA ligase" points="1193,25 1180,25 1180,10 1150,40 1180,70 1180,55 1193,55" fill="rgb(255,255,255)" fill-opacity="1.0" stroke="rgb(0,0,0)" stroke-width="2"  />
			<g>
				<title>tRNA-synt_2 (PF00152)
"tRNA synthetases class II (D, K and N)"</title>
				<polygon class="PF00152" points="1154,40 1166,28 1181,28 1181,52 1166,52" stroke-linejoin="round" width="31" height="24" fill="rgb(90,71,190)" stroke="rgb(72,56,152)" stroke-width="1" opacity="0.75" />
			</g>
			<g>
				<title>tRNA_anti-codon (PF01336)
"OB-fold nucleic acid binding domain"</title>
				<rect class="PF01336" x="1183" y="28" stroke-linejoin="round" width="7" height="24" fill="rgb(215,103,173)" stroke="rgb(172,82,138)" stroke-width="1" opacity="0.75" />
			</g>
		</g>
		<g>
			<title> (PPJPJCPL_00103)
Aspartate aminotransferase</title>
			<polygon class=" (PPJPJCPL_00103)
Aspartate aminotransferase" points="1233,25 1224,25 1224,10 1194,40 1224,70 1224,55 1233,55" fill="rgb(255,255,255)" fill-opacity="1.0" stroke="rgb(0,0,0)" stroke-width="2"  />
			<g>
				<title>Aminotran_1_2 (PF00155)
"Aminotransferase class I and II"</title>
				<polygon class="PF00155" points="1198,40 1210,28 1230,28 1230,52 1210,52" stroke-linejoin="round" width="35" height="24" fill="rgb(89,113,198)" stroke="rgb(71,90,158)" stroke-width="1" opacity="0.75" />
			</g>
		</g>
		<g>
			<title> (PPJPJCPL_00104)
hypothetical protein</title>
			<polygon class=" (PPJPJCPL_00104)
hypothetical protein" points="1234,40 1252,10 1252,70" fill="rgb(255,255,255)" fill-opacity="1.0" stroke="rgb(0,0,0)" stroke-width="2"  />
			<g>
				<title>DUF5590 (PF17881)
"Domain of unknown function (DUF5590)"</title>
				<polygon class="PF17881" points="1242,32 1244,28 1246,28 1246,52 1244,52 1242,48" stroke-linejoin="round" width="4" height="24" fill="rgb(77,212,144)" stroke="rgb(61,169,115)" stroke-width="1" opacity="0.75" />
			</g>
		</g>
		<g>
			<title> (PPJPJCPL_00105)
hypothetical protein</title>
			<polygon class=" (PPJPJCPL_00105)
hypothetical protein" points="1250,40 1255,10 1255,70" fill="rgb(255,255,255)" fill-opacity="1.0" stroke="rgb(0,0,0)" stroke-width="2"  />
		</g>
		<g>
			<title>dinG_1 (PPJPJCPL_00106)
3'-5' exonuclease DinG</title>
			<polygon class="dinG_1 (PPJPJCPL_00106)
3'-5' exonuclease DinG" points="1353,25 1290,25 1290,10 1260,40 1290,70 1290,55 1353,55" fill="rgb(255,255,255)" fill-opacity="1.0" stroke="rgb(0,0,0)" stroke-width="2"  />
			<g>
				<title>Helicase_C_2 (PF13307)
"Helicase C-terminal domain"</title>
				<polygon class="PF13307" points="1264,40 1276,28 1277,28 1277,52 1276,52" stroke-linejoin="round" width="16" height="24" fill="rgb(70,108,178)" stroke="rgb(56,86,142)" stroke-width="1" opacity="0.75" />
			</g>
			<g>
				<title>ResIII (PF04851)
"Type III restriction enzyme, res subunit"</title>
				<rect class="PF04851" x="1303" y="28" stroke-linejoin="round" width="24" height="24" fill="rgb(51,64,189)" stroke="rgb(40,51,151)" stroke-width="1" opacity="0.75" />
			</g>
			<g>
				<title>RNase_T (PF00929)
"Exonuclease"</title>
				<rect class="PF00929" x="1336" y="28" stroke-linejoin="round" width="15" height="24" fill="rgb(201,87,120)" stroke="rgb(160,69,96)" stroke-width="1" opacity="0.75" />
			</g>
		</g>
		<g>
			<title>panD (PPJPJCPL_00107)
Aspartate 1-decarboxylase</title>
			<polygon class="panD (PPJPJCPL_00107)
Aspartate 1-decarboxylase" points="1359,40 1372,10 1372,70" fill="rgb(255,255,255)" fill-opacity="1.0" stroke="rgb(0,0,0)" stroke-width="2"  />
			<g>
				<title>Asp_decarbox (PF02261)
"Aspartate decarboxylase"</title>
				<polygon class="PF02261" points="1362,40 1367,28 1371,28 1371,52 1367,52" stroke-linejoin="round" width="11" height="24" fill="rgb(223,94,196)" stroke="rgb(178,75,156)" stroke-width="1" opacity="0.75" />
			</g>
		</g>
	</g>
</svg>
