<svg version="1.1" baseProfile="full" xmlns="http://www.w3.org/2000/svg" width="749.1666666666666" height="80">
	<g>
		<line x1="10" y1="40.0" x2="739.1666666666666" y2="40.0" style="stroke:rgb(70,70,70); stroke-width:3 "/>
		<g>
			<title>sseA (NDIJOPKD_02956)
3-mercaptopyruvate sulfurtransferase</title>
			<polygon class="sseA (NDIJOPKD_02956)
3-mercaptopyruvate sulfurtransferase" points="19,10 47,40 19,70" fill="rgb(255,255,255)" fill-opacity="1.0" stroke="rgb(0,0,0)" stroke-width="2"  />
			<g>
				<title>Rhodanese (PF00581)
"Rhodanese-like domain"</title>
				<rect class="PF00581" x="19" y="28" stroke-linejoin="round" width="12" height="24" fill="rgb(145,191,76)" stroke="rgb(116,152,60)" stroke-width="1" opacity="0.75" />
			</g>
			<g>
				<title>Rhodanese (PF00581)
"Rhodanese-like domain"</title>
				<polygon class="PF00581" points="34,31 42,40 34,49" stroke-linejoin="round" width="11" height="24" fill="rgb(145,191,76)" stroke="rgb(116,152,60)" stroke-width="1" opacity="0.75" />
			</g>
		</g>
		<g>
			<title> (NDIJOPKD_02957)
hypothetical protein</title>
			<polygon class=" (NDIJOPKD_02957)
hypothetical protein" points="48,10 62,40 48,70" fill="rgb(255,255,255)" fill-opacity="1.0" stroke="rgb(0,0,0)" stroke-width="2"  />
			<g>
				<title>DUF1801 (PF08818)
"Domain of unknown function (DU1801)"</title>
				<polygon class="PF08818" points="50,28 52,28 58,40 52,52 50,52" stroke-linejoin="round" width="10" height="24" fill="rgb(120,214,95)" stroke="rgb(96,171,76)" stroke-width="1" opacity="0.75" />
			</g>
		</g>
		<g>
			<title> (NDIJOPKD_02958)
hypothetical protein</title>
			<polygon class=" (NDIJOPKD_02958)
hypothetical protein" points="69,10 83,40 69,70" fill="rgb(255,255,255)" fill-opacity="1.0" stroke="rgb(0,0,0)" stroke-width="2"  />
			<g>
				<title>MarR_2 (PF12802)
"MarR family"</title>
				<polygon class="PF12802" points="72,28 74,28 77,34 77,46 74,52 72,52" stroke-linejoin="round" width="5" height="24" fill="rgb(46,89,185)" stroke="rgb(36,71,148)" stroke-width="1" opacity="0.75" />
			</g>
		</g>
		<g>
			<title>yhhS (NDIJOPKD_02959)
putative MFS-type transporter YhhS</title>
			<polygon class="yhhS (NDIJOPKD_02959)
putative MFS-type transporter YhhS" points="84,25 94,25 94,10 124,40 94,70 94,55 84,55" fill="rgb(255,255,255)" fill-opacity="1.0" stroke="rgb(0,0,0)" stroke-width="2"  />
			<g>
				<title>MFS_1 (PF07690)
"Major Facilitator Superfamily"</title>
				<polygon class="PF07690" points="85,28 108,28 110,30 110,50 108,52 85,52" stroke-linejoin="round" width="25" height="24" fill="rgb(193,224,74)" stroke="rgb(154,179,59)" stroke-width="1" opacity="0.75" />
			</g>
		</g>
		<g>
			<title> (NDIJOPKD_02960)
hypothetical protein</title>
			<polygon class=" (NDIJOPKD_02960)
hypothetical protein" points="129,10 143,40 129,70" fill="rgb(255,255,255)" fill-opacity="1.0" stroke="rgb(0,0,0)" stroke-width="2"  />
			<g>
				<title>DUF2935 (PF11155)
"Domain of unknown function (DUF2935)"</title>
				<polygon class="PF11155" points="130,28 134,28 140,40 134,52 130,52" stroke-linejoin="round" width="12" height="24" fill="rgb(79,125,185)" stroke="rgb(63,99,148)" stroke-width="1" opacity="0.75" />
			</g>
		</g>
		<g>
			<title> (NDIJOPKD_02961)
hypothetical protein</title>
			<polygon class=" (NDIJOPKD_02961)
hypothetical protein" points="156,25 166,25 166,10 196,40 166,70 166,55 156,55" fill="rgb(255,255,255)" fill-opacity="1.0" stroke="rgb(0,0,0)" stroke-width="2"  />
			<g>
				<title>HTH_3 (PF01381)
"Helix-turn-helix"</title>
				<rect class="PF01381" x="156" y="28" stroke-linejoin="round" width="5" height="24" fill="rgb(105,79,202)" stroke="rgb(83,63,161)" stroke-width="1" opacity="0.75" />
			</g>
		</g>
		<g>
			<title>nprB (NDIJOPKD_02962)
Neutral protease B</title>
			<polygon class="nprB (NDIJOPKD_02962)
Neutral protease B" points="253,25 228,25 228,10 198,40 228,70 228,55 253,55" fill="rgb(255,255,255)" fill-opacity="1.0" stroke="rgb(0,0,0)" stroke-width="2"  />
			<g>
				<title>Peptidase_M4_C (PF02868)
"Thermolysin metallopeptidase, alpha-helical domain"</title>
				<polygon class="PF02868" points="202,40 214,28 214,28 214,52 214,52" stroke-linejoin="round" width="16" height="24" fill="rgb(184,92,211)" stroke="rgb(147,73,168)" stroke-width="1" opacity="0.75" />
			</g>
			<g>
				<title>Peptidase_M4 (PF01447)
"Thermolysin metallopeptidase, catalytic domain"</title>
				<polygon class="PF01447" points="214,28 214,28 229,28 229,52 214,52 214,52" stroke-linejoin="round" width="15" height="24" fill="rgb(71,102,203)" stroke="rgb(56,81,162)" stroke-width="1" opacity="0.75" />
			</g>
			<g>
				<title>PepSY (PF03413)
"Peptidase propeptide and YPEB domain"</title>
				<rect class="PF03413" x="230" y="28" stroke-linejoin="round" width="7" height="24" fill="rgb(127,66,203)" stroke="rgb(101,52,162)" stroke-width="1" opacity="0.75" />
			</g>
			<g>
				<title>FTP (PF07504)
"Fungalysin/Thermolysin Propeptide Motif"</title>
				<rect class="PF07504" x="239" y="28" stroke-linejoin="round" width="5" height="24" fill="rgb(225,91,194)" stroke="rgb(180,72,155)" stroke-width="1" opacity="0.75" />
			</g>
		</g>
		<g>
			<title> (NDIJOPKD_02963)
hypothetical protein</title>
			<polygon class=" (NDIJOPKD_02963)
hypothetical protein" points="255,40 274,10 274,70" fill="rgb(255,255,255)" fill-opacity="1.0" stroke="rgb(0,0,0)" stroke-width="2"  />
			<g>
				<title>Peptidase_M73 (PF12389)
"Camelysin metallo-endopeptidase"</title>
				<polygon class="PF12389" points="259,40 267,28 274,28 274,52 267,52" stroke-linejoin="round" width="19" height="24" fill="rgb(181,162,76)" stroke="rgb(144,129,60)" stroke-width="1" opacity="0.75" />
			</g>
		</g>
		<g>
			<title>sipW_3 (NDIJOPKD_02964)
Signal peptidase I W</title>
			<polygon class="sipW_3 (NDIJOPKD_02964)
Signal peptidase I W" points="277,40 295,10 295,70" fill="rgb(255,255,255)" fill-opacity="1.0" stroke="rgb(0,0,0)" stroke-width="2"  />
			<g>
				<title>Peptidase_S24 (PF00717)
"Peptidase S24-like"</title>
				<polygon class="PF00717" points="283,37 288,28 290,28 290,52 288,52 283,43" stroke-linejoin="round" width="7" height="24" fill="rgb(180,76,105)" stroke="rgb(144,60,83)" stroke-width="1" opacity="0.75" />
			</g>
		</g>
		<g>
			<title> (NDIJOPKD_02965)
hypothetical protein</title>
			<polygon class=" (NDIJOPKD_02965)
hypothetical protein" points="295,40 324,10 324,70" fill="rgb(255,255,255)" fill-opacity="1.0" stroke="rgb(0,0,0)" stroke-width="2"  />
			<g>
				<title>DUF4047 (PF13256)
"Domain of unknown function (DUF4047)"</title>
				<polygon class="PF13256" points="309,30 311,28 320,28 320,52 311,52 309,50" stroke-linejoin="round" width="11" height="24" fill="rgb(219,128,59)" stroke="rgb(175,102,47)" stroke-width="1" opacity="0.75" />
			</g>
		</g>
		<g>
			<title>sqhC (NDIJOPKD_02966)
Sporulenol synthase</title>
			<polygon class="sqhC (NDIJOPKD_02966)
Sporulenol synthase" points="405,25 373,25 373,10 343,40 373,70 373,55 405,55" fill="rgb(255,255,255)" fill-opacity="1.0" stroke="rgb(0,0,0)" stroke-width="2"  />
			<g>
				<title>SQHop_cyclase_C (PF13243)
"Squalene-hopene cyclase C-terminal domain"</title>
				<polygon class="PF13243" points="347,40 359,28 374,28 374,52 359,52" stroke-linejoin="round" width="31" height="24" fill="rgb(191,58,201)" stroke="rgb(152,46,160)" stroke-width="1" opacity="0.75" />
			</g>
			<g>
				<title>SQHop_cyclase_N (PF13249)
"Squalene-hopene cyclase N-terminal domain"</title>
				<rect class="PF13249" x="376" y="28" stroke-linejoin="round" width="28" height="24" fill="rgb(88,190,89)" stroke="rgb(70,152,71)" stroke-width="1" opacity="0.75" />
			</g>
		</g>
		<g>
			<title> (NDIJOPKD_02967)
hypothetical protein</title>
			<polygon class=" (NDIJOPKD_02967)
hypothetical protein" points="409,25 417,25 417,10 447,40 417,70 417,55 409,55" fill="rgb(255,255,255)" fill-opacity="1.0" stroke="rgb(0,0,0)" stroke-width="2"  />
			<g>
				<title>DUF2515 (PF10720)
"Protein of unknown function (DUF2515)"</title>
				<polygon class="PF10720" points="413,28 430,28 442,40 430,52 413,52" stroke-linejoin="round" width="32" height="24" fill="rgb(66,168,216)" stroke="rgb(52,134,172)" stroke-width="1" opacity="0.75" />
			</g>
		</g>
		<g>
			<title>tetA (NDIJOPKD_02968)
Tetracycline resistance protein, class C</title>
			<polygon class="tetA (NDIJOPKD_02968)
Tetracycline resistance protein, class C" points="470,25 479,25 479,10 509,40 479,70 479,55 470,55" fill="rgb(255,255,255)" fill-opacity="1.0" stroke="rgb(0,0,0)" stroke-width="2"  />
			<g>
				<title>MFS_1 (PF07690)
"Major Facilitator Superfamily"</title>
				<polygon class="PF07690" points="471,28 492,28 502,38 502,42 492,52 471,52" stroke-linejoin="round" width="31" height="24" fill="rgb(193,224,74)" stroke="rgb(154,179,59)" stroke-width="1" opacity="0.75" />
			</g>
		</g>
		<g>
			<title> (NDIJOPKD_02969)
hypothetical protein</title>
			<polygon class=" (NDIJOPKD_02969)
hypothetical protein" points="517,10 524,40 517,70" fill="rgb(255,255,255)" fill-opacity="1.0" stroke="rgb(0,0,0)" stroke-width="2"  />
		</g>
		<g>
			<title>tolB_2 (NDIJOPKD_02970)
Tol-Pal system protein TolB</title>
			<polygon class="tolB_2 (NDIJOPKD_02970)
Tol-Pal system protein TolB" points="602,25 598,25 598,10 568,40 598,70 598,55 602,55" fill="rgb(255,255,255)" fill-opacity="1.0" stroke="rgb(0,0,0)" stroke-width="2"  />
			<g>
				<title>PD40 (PF07676)
"WD40-like Beta Propeller Repeat"</title>
				<polygon class="PF07676" points="575,37 578,34 578,46 575,43" stroke-linejoin="round" width="3" height="24" fill="rgb(49,78,191)" stroke="rgb(39,62,152)" stroke-width="1" opacity="0.75" />
			</g>
			<g>
				<title>PD40 (PF07676)
"WD40-like Beta Propeller Repeat"</title>
				<rect class="PF07676" x="585" y="28" stroke-linejoin="round" width="4" height="24" fill="rgb(49,78,191)" stroke="rgb(39,62,152)" stroke-width="1" opacity="0.75" />
			</g>
		</g>
		<g>
			<title> (NDIJOPKD_02971)
hypothetical protein</title>
			<polygon class=" (NDIJOPKD_02971)
hypothetical protein" points="602,40 610,10 610,70" fill="rgb(255,255,255)" fill-opacity="1.0" stroke="rgb(0,0,0)" stroke-width="2"  />
		</g>
		<g>
			<title> (NDIJOPKD_02972)
hypothetical protein</title>
			<polygon class=" (NDIJOPKD_02972)
hypothetical protein" points="611,40 639,10 639,70" fill="rgb(255,255,255)" fill-opacity="1.0" stroke="rgb(0,0,0)" stroke-width="2"  />
		</g>
		<g>
			<title> (NDIJOPKD_02973)
hypothetical protein</title>
			<polygon class=" (NDIJOPKD_02973)
hypothetical protein" points="639,40 649,10 649,70" fill="rgb(255,255,255)" fill-opacity="1.0" stroke="rgb(0,0,0)" stroke-width="2"  />
			<g>
				<title>PadR (PF03551)
"Transcriptional regulator PadR-like family"</title>
				<polygon class="PF03551" points="642,40 646,28 648,28 648,52 646,52" stroke-linejoin="round" width="7" height="24" fill="rgb(210,176,95)" stroke="rgb(168,140,76)" stroke-width="1" opacity="0.75" />
			</g>
		</g>
		<g>
			<title> (NDIJOPKD_02974)
hypothetical protein</title>
			<polygon class=" (NDIJOPKD_02974)
hypothetical protein" points="656,10 663,40 656,70" fill="rgb(255,255,255)" fill-opacity="1.0" stroke="rgb(0,0,0)" stroke-width="2"  />
			<g>
				<title>HTH_3 (PF01381)
"Helix-turn-helix"</title>
				<polygon class="PF01381" points="656,28 656,28 660,40 656,52 656,52" stroke-linejoin="round" width="5" height="24" fill="rgb(105,79,202)" stroke="rgb(83,63,161)" stroke-width="1" opacity="0.75" />
			</g>
		</g>
		<g>
			<title> (NDIJOPKD_02975)
hypothetical protein</title>
			<polygon class=" (NDIJOPKD_02975)
hypothetical protein" points="663,10 675,40 663,70" fill="rgb(255,255,255)" fill-opacity="1.0" stroke="rgb(0,0,0)" stroke-width="2"  />
		</g>
		<g>
			<title> (NDIJOPKD_02976)
hypothetical protein</title>
			<polygon class=" (NDIJOPKD_02976)
hypothetical protein" points="676,10 679,40 676,70" fill="rgb(255,255,255)" fill-opacity="1.0" stroke="rgb(0,0,0)" stroke-width="2"  />
		</g>
		<g>
			<title> (NDIJOPKD_02977)
hypothetical protein</title>
			<polygon class=" (NDIJOPKD_02977)
hypothetical protein" points="684,25 690,25 690,10 720,40 690,70 690,55 684,55" fill="rgb(255,255,255)" fill-opacity="1.0" stroke="rgb(0,0,0)" stroke-width="2"  />
			<g>
				<title>Endonuclease_1 (PF04231)
"Endonuclease I"</title>
				<polygon class="PF04231" points="699,28 704,28 716,40 704,52 699,52" stroke-linejoin="round" width="20" height="24" fill="rgb(200,69,122)" stroke="rgb(160,55,97)" stroke-width="1" opacity="0.75" />
			</g>
		</g>
	</g>
</svg>
