<svg version="1.1" baseProfile="full" xmlns="http://www.w3.org/2000/svg" width="749.8666666666667" height="80">
	<g>
		<line x1="10" y1="40.0" x2="739.8666666666667" y2="40.0" style="stroke:rgb(70,70,70); stroke-width:3 "/>
		<g>
			<title> (BBLBDBLI_03721)
hypothetical protein</title>
			<polygon class=" (BBLBDBLI_03721)
hypothetical protein" points="74,25 63,25 63,10 33,40 63,70 63,55 74,55" fill="rgb(255,255,255)" fill-opacity="1.0" stroke="rgb(0,0,0)" stroke-width="2"  />
			<g>
				<title>Lar_N (PF09861)
"Lactate racemase N-terminal domain"</title>
				<rect class="PF09861" x="54" y="28" stroke-linejoin="round" width="19" height="24" fill="rgb(183,68,131)" stroke="rgb(146,54,104)" stroke-width="1" opacity="0.75" />
			</g>
		</g>
		<g>
			<title>siaM_2 (BBLBDBLI_03722)
Sialic acid TRAP transporter large permease protein SiaM</title>
			<polygon class="siaM_2 (BBLBDBLI_03722)
Sialic acid TRAP transporter large permease protein SiaM" points="118,25 106,25 106,10 76,40 106,70 106,55 118,55" fill="rgb(255,255,255)" fill-opacity="1.0" stroke="rgb(0,0,0)" stroke-width="2"  />
			<g>
				<title>DctM (PF06808)
"Tripartite ATP-independent periplasmic transporter, DctM component"</title>
				<polygon class="PF06808" points="80,40 92,28 117,28 117,52 92,52" stroke-linejoin="round" width="40" height="24" fill="rgb(223,62,92)" stroke="rgb(178,49,73)" stroke-width="1" opacity="0.75" />
			</g>
		</g>
		<g>
			<title> (BBLBDBLI_03723)
hypothetical protein</title>
			<polygon class=" (BBLBDBLI_03723)
hypothetical protein" points="119,40 138,10 138,70" fill="rgb(255,255,255)" fill-opacity="1.0" stroke="rgb(0,0,0)" stroke-width="2"  />
			<g>
				<title>DctQ (PF04290)
"Tripartite ATP-independent periplasmic transporters, DctQ component"</title>
				<polygon class="PF04290" points="123,40 131,28 135,28 135,52 131,52" stroke-linejoin="round" width="13" height="24" fill="rgb(77,57,182)" stroke="rgb(61,45,145)" stroke-width="1" opacity="0.75" />
			</g>
		</g>
		<g>
			<title> (BBLBDBLI_03724)
hypothetical protein</title>
			<polygon class=" (BBLBDBLI_03724)
hypothetical protein" points="174,25 170,25 170,10 140,40 170,70 170,55 174,55" fill="rgb(255,255,255)" fill-opacity="1.0" stroke="rgb(0,0,0)" stroke-width="2"  />
			<g>
				<title>DctP (PF03480)
"Bacterial extracellular solute-binding protein, family 7"</title>
				<polygon class="PF03480" points="144,40 156,28 169,28 169,52 156,52" stroke-linejoin="round" width="28" height="24" fill="rgb(209,103,193)" stroke="rgb(167,82,154)" stroke-width="1" opacity="0.75" />
			</g>
		</g>
		<g>
			<title>dctM_2 (BBLBDBLI_03725)
C4-dicarboxylate TRAP transporter large permease protein DctM</title>
			<polygon class="dctM_2 (BBLBDBLI_03725)
C4-dicarboxylate TRAP transporter large permease protein DctM" points="223,25 211,25 211,10 181,40 211,70 211,55 223,55" fill="rgb(255,255,255)" fill-opacity="1.0" stroke="rgb(0,0,0)" stroke-width="2"  />
			<g>
				<title>DctM (PF06808)
"Tripartite ATP-independent periplasmic transporter, DctM component"</title>
				<polygon class="PF06808" points="185,40 197,28 222,28 222,52 197,52" stroke-linejoin="round" width="41" height="24" fill="rgb(223,62,92)" stroke="rgb(178,49,73)" stroke-width="1" opacity="0.75" />
			</g>
		</g>
		<g>
			<title> (BBLBDBLI_03726)
hypothetical protein</title>
			<polygon class=" (BBLBDBLI_03726)
hypothetical protein" points="225,40 242,10 242,70" fill="rgb(255,255,255)" fill-opacity="1.0" stroke="rgb(0,0,0)" stroke-width="2"  />
			<g>
				<title>DctQ (PF04290)
"Tripartite ATP-independent periplasmic transporters, DctQ component"</title>
				<polygon class="PF04290" points="228,40 235,28 239,28 239,52 235,52" stroke-linejoin="round" width="13" height="24" fill="rgb(77,57,182)" stroke="rgb(61,45,145)" stroke-width="1" opacity="0.75" />
			</g>
		</g>
		<g>
			<title> (BBLBDBLI_03727)
Solute-binding protein</title>
			<polygon class=" (BBLBDBLI_03727)
Solute-binding protein" points="278,25 274,25 274,10 244,40 274,70 274,55 278,55" fill="rgb(255,255,255)" fill-opacity="1.0" stroke="rgb(0,0,0)" stroke-width="2"  />
			<g>
				<title>DctP (PF03480)
"Bacterial extracellular solute-binding protein, family 7"</title>
				<polygon class="PF03480" points="248,40 260,28 273,28 273,52 260,52" stroke-linejoin="round" width="28" height="24" fill="rgb(209,103,193)" stroke="rgb(167,82,154)" stroke-width="1" opacity="0.75" />
			</g>
		</g>
		<g>
			<title> (BBLBDBLI_03728)
hypothetical protein</title>
			<polygon class=" (BBLBDBLI_03728)
hypothetical protein" points="338,25 337,25 337,10 307,40 337,70 337,55 338,55" fill="rgb(255,255,255)" fill-opacity="1.0" stroke="rgb(0,0,0)" stroke-width="2"  />
			<g>
				<title>VanW (PF04294)
"VanW like protein"</title>
				<polygon class="PF04294" points="311,40 322,29 322,51" stroke-linejoin="round" width="12" height="24" fill="rgb(52,93,183)" stroke="rgb(41,74,146)" stroke-width="1" opacity="0.75" />
			</g>
		</g>
		<g>
			<title>sqhC (BBLBDBLI_03729)
Sporulenol synthase</title>
			<polygon class="sqhC (BBLBDBLI_03729)
Sporulenol synthase" points="343,25 376,25 376,10 406,40 376,70 376,55 343,55" fill="rgb(255,255,255)" fill-opacity="1.0" stroke="rgb(0,0,0)" stroke-width="2"  />
			<g>
				<title>SQHop_cyclase_N (PF13249)
"Squalene-hopene cyclase N-terminal domain"</title>
				<rect class="PF13249" x="343" y="28" stroke-linejoin="round" width="28" height="24" fill="rgb(88,190,89)" stroke="rgb(70,152,71)" stroke-width="1" opacity="0.75" />
			</g>
			<g>
				<title>SQHop_cyclase_C (PF13243)
"Squalene-hopene cyclase C-terminal domain"</title>
				<polygon class="PF13243" points="373,28 389,28 401,40 389,52 373,52" stroke-linejoin="round" width="31" height="24" fill="rgb(191,58,201)" stroke="rgb(152,46,160)" stroke-width="1" opacity="0.75" />
			</g>
		</g>
		<g>
			<title>yhfK_2 (BBLBDBLI_03730)
putative sugar epimerase YhfK</title>
			<polygon class="yhfK_2 (BBLBDBLI_03730)
putative sugar epimerase YhfK" points="408,40 429,10 429,70" fill="rgb(255,255,255)" fill-opacity="1.0" stroke="rgb(0,0,0)" stroke-width="2"  />
			<g>
				<title>NAD_binding_10 (PF13460)
"NAD(P)H-binding"</title>
				<polygon class="PF13460" points="412,40 421,28 428,28 428,52 421,52" stroke-linejoin="round" width="18" height="24" fill="rgb(188,201,78)" stroke="rgb(150,160,62)" stroke-width="1" opacity="0.75" />
			</g>
		</g>
		<g>
			<title> (BBLBDBLI_03731)
hypothetical protein</title>
			<polygon class=" (BBLBDBLI_03731)
hypothetical protein" points="436,10 444,40 436,70" fill="rgb(255,255,255)" fill-opacity="1.0" stroke="rgb(0,0,0)" stroke-width="2"  />
		</g>
		<g>
			<title>fda (BBLBDBLI_03732)
Fructose-bisphosphate aldolase class 1</title>
			<polygon class="fda (BBLBDBLI_03732)
Fructose-bisphosphate aldolase class 1" points="448,10 477,40 448,70" fill="rgb(255,255,255)" fill-opacity="1.0" stroke="rgb(0,0,0)" stroke-width="2"  />
			<g>
				<title>Glycolytic (PF00274)
"Fructose-bisphosphate aldolase class-I"</title>
				<polygon class="PF00274" points="448,28 461,28 469,36 469,44 461,52 448,52" stroke-linejoin="round" width="21" height="24" fill="rgb(79,181,68)" stroke="rgb(63,144,54)" stroke-width="1" opacity="0.75" />
			</g>
		</g>
		<g>
			<title>nfo_2 (BBLBDBLI_03733)
putative endonuclease 4</title>
			<polygon class="nfo_2 (BBLBDBLI_03733)
putative endonuclease 4" points="479,40 507,10 507,70" fill="rgb(255,255,255)" fill-opacity="1.0" stroke="rgb(0,0,0)" stroke-width="2"  />
			<g>
				<title>AP_endonuc_2 (PF01261)
"Xylose isomerase-like TIM barrel"</title>
				<polygon class="PF01261" points="483,40 494,28 504,28 504,52 494,52 483,40" stroke-linejoin="round" width="21" height="24" fill="rgb(69,222,207)" stroke="rgb(55,177,165)" stroke-width="1" opacity="0.75" />
			</g>
		</g>
		<g>
			<title>gloB_5 (BBLBDBLI_03734)
Hydroxyacylglutathione hydrolase</title>
			<polygon class="gloB_5 (BBLBDBLI_03734)
Hydroxyacylglutathione hydrolase" points="511,25 513,25 513,10 543,40 513,70 513,55 511,55" fill="rgb(255,255,255)" fill-opacity="1.0" stroke="rgb(0,0,0)" stroke-width="2"  />
			<g>
				<title>Lactamase_B (PF00753)
"Metallo-beta-lactamase superfamily"</title>
				<polygon class="PF00753" points="513,28 527,28 534,35 534,45 527,52 513,52" stroke-linejoin="round" width="21" height="24" fill="rgb(206,198,96)" stroke="rgb(164,158,76)" stroke-width="1" opacity="0.75" />
			</g>
		</g>
		<g>
			<title> (BBLBDBLI_03735)
hypothetical protein</title>
			<polygon class=" (BBLBDBLI_03735)
hypothetical protein" points="558,10 565,40 558,70" fill="rgb(255,255,255)" fill-opacity="1.0" stroke="rgb(0,0,0)" stroke-width="2"  />
		</g>
		<g>
			<title>mmgD (BBLBDBLI_03736)
Citrate/2-methylcitrate synthase</title>
			<polygon class="mmgD (BBLBDBLI_03736)
Citrate/2-methylcitrate synthase" points="567,25 574,25 574,10 604,40 574,70 574,55 567,55" fill="rgb(255,255,255)" fill-opacity="1.0" stroke="rgb(0,0,0)" stroke-width="2"  />
			<g>
				<title>Citrate_synt (PF00285)
"Citrate synthase, C-terminal domain"</title>
				<polygon class="PF00285" points="568,28 587,28 599,40 587,52 568,52" stroke-linejoin="round" width="35" height="24" fill="rgb(217,199,102)" stroke="rgb(173,159,81)" stroke-width="1" opacity="0.75" />
			</g>
		</g>
		<g>
			<title>mmgE (BBLBDBLI_03737)
Citrate/2-methylcitrate dehydratase</title>
			<polygon class="mmgE (BBLBDBLI_03737)
Citrate/2-methylcitrate dehydratase" points="606,25 624,25 624,10 654,40 624,70 624,55 606,55" fill="rgb(255,255,255)" fill-opacity="1.0" stroke="rgb(0,0,0)" stroke-width="2"  />
			<g>
				<title>MmgE_PrpD (PF03972)
"MmgE/PrpD family"</title>
				<polygon class="PF03972" points="607,28 637,28 649,40 637,52 607,52" stroke-linejoin="round" width="44" height="24" fill="rgb(166,220,102)" stroke="rgb(132,176,81)" stroke-width="1" opacity="0.75" />
			</g>
		</g>
		<g>
			<title>mmgF (BBLBDBLI_03738)
2-methylisocitrate lyase</title>
			<polygon class="mmgF (BBLBDBLI_03738)
2-methylisocitrate lyase" points="655,25 655,25 655,10 685,40 655,70 655,55 655,55" fill="rgb(255,255,255)" fill-opacity="1.0" stroke="rgb(0,0,0)" stroke-width="2"  />
			<g>
				<title>PEP_mutase (PF13714)
"Phosphoenolpyruvate phosphomutase"</title>
				<polygon class="PF13714" points="656,28 669,28 680,39 680,41 669,52 656,52" stroke-linejoin="round" width="24" height="24" fill="rgb(215,91,155)" stroke="rgb(172,72,123)" stroke-width="1" opacity="0.75" />
			</g>
		</g>
		<g>
			<title>bioD1 (BBLBDBLI_03739)
ATP-dependent dethiobiotin synthetase BioD 1</title>
			<polygon class="bioD1 (BBLBDBLI_03739)
ATP-dependent dethiobiotin synthetase BioD 1" points="690,40 712,10 712,70" fill="rgb(255,255,255)" fill-opacity="1.0" stroke="rgb(0,0,0)" stroke-width="2"  />
			<g>
				<title>AAA_26 (PF13500)
"AAA domain"</title>
				<polygon class="PF13500" points="694,40 703,28 712,28 712,52 703,52" stroke-linejoin="round" width="21" height="24" fill="rgb(93,118,228)" stroke="rgb(74,94,182)" stroke-width="1" opacity="0.75" />
			</g>
		</g>
	</g>
</svg>
