<svg version="1.1" baseProfile="full" xmlns="http://www.w3.org/2000/svg" width="888.5" height="80">
	<g>
		<line x1="10" y1="40.0" x2="878.5" y2="40.0" style="stroke:rgb(70,70,70); stroke-width:3 "/>
		<g>
			<title> (OKCGIKJE_04034)
hypothetical protein</title>
			<polygon class=" (OKCGIKJE_04034)
hypothetical protein" points="23,40 48,10 48,70" fill="rgb(255,255,255)" fill-opacity="1.0" stroke="rgb(0,0,0)" stroke-width="2"  />
		</g>
		<g>
			<title> (OKCGIKJE_04035)
hypothetical protein</title>
			<polygon class=" (OKCGIKJE_04035)
hypothetical protein" points="48,40 71,10 71,70" fill="rgb(255,255,255)" fill-opacity="1.0" stroke="rgb(0,0,0)" stroke-width="2"  />
		</g>
		<g>
			<title> (OKCGIKJE_04036)
hypothetical protein</title>
			<polygon class=" (OKCGIKJE_04036)
hypothetical protein" points="85,10 95,40 85,70" fill="rgb(255,255,255)" fill-opacity="1.0" stroke="rgb(0,0,0)" stroke-width="2"  />
		</g>
		<g>
			<title>menH_4 (OKCGIKJE_04037)
2-succinyl-6-hydroxy-2, 4-cyclohexadiene-1-carboxylate synthase</title>
			<polygon class="menH_4 (OKCGIKJE_04037)
2-succinyl-6-hydroxy-2, 4-cyclohexadiene-1-carboxylate synthase" points="103,10 129,40 103,70" fill="rgb(255,255,255)" fill-opacity="1.0" stroke="rgb(0,0,0)" stroke-width="2"  />
			<g>
				<title>Abhydrolase_1 (PF00561)
"alpha/beta hydrolase fold"</title>
				<polygon class="PF00561" points="104,28 114,28 116,30 116,50 114,52 104,52" stroke-linejoin="round" width="12" height="24" fill="rgb(86,180,151)" stroke="rgb(68,144,120)" stroke-width="1" opacity="0.75" />
			</g>
		</g>
		<g>
			<title> (OKCGIKJE_04038)
hypothetical protein</title>
			<polygon class=" (OKCGIKJE_04038)
hypothetical protein" points="130,25 135,25 135,10 165,40 135,70 135,55 130,55" fill="rgb(255,255,255)" fill-opacity="1.0" stroke="rgb(0,0,0)" stroke-width="2"  />
			<g>
				<title>NAD_binding_4 (PF07993)
"Male sterility protein"</title>
				<polygon class="PF07993" points="130,28 149,28 153,32 153,48 149,52 130,52" stroke-linejoin="round" width="23" height="24" fill="rgb(100,212,204)" stroke="rgb(80,169,163)" stroke-width="1" opacity="0.75" />
			</g>
		</g>
		<g>
			<title> (OKCGIKJE_04039)
hypothetical protein</title>
			<polygon class=" (OKCGIKJE_04039)
hypothetical protein" points="206,25 197,25 197,10 167,40 197,70 197,55 206,55" fill="rgb(255,255,255)" fill-opacity="1.0" stroke="rgb(0,0,0)" stroke-width="2"  />
			<g>
				<title>MFS_1 (PF07690)
"Major Facilitator Superfamily"</title>
				<polygon class="PF07690" points="171,40 183,28 204,28 204,52 183,52 171,40" stroke-linejoin="round" width="33" height="24" fill="rgb(193,224,74)" stroke="rgb(154,179,59)" stroke-width="1" opacity="0.75" />
			</g>
		</g>
		<g>
			<title>cpdA_2 (OKCGIKJE_04040)
3',5'-cyclic adenosine monophosphate phosphodiesterase CpdA</title>
			<polygon class="cpdA_2 (OKCGIKJE_04040)
3',5'-cyclic adenosine monophosphate phosphodiesterase CpdA" points="244,25 241,25 241,10 211,40 241,70 241,55 244,55" fill="rgb(255,255,255)" fill-opacity="1.0" stroke="rgb(0,0,0)" stroke-width="2"  />
			<g>
				<title>Metallophos (PF00149)
"Calcineurin-like phosphoesterase"</title>
				<polygon class="PF00149" points="218,37 227,28 238,28 238,52 227,52 218,43" stroke-linejoin="round" width="20" height="24" fill="rgb(181,197,58)" stroke="rgb(144,157,46)" stroke-width="1" opacity="0.75" />
			</g>
		</g>
		<g>
			<title>btuD_4 (OKCGIKJE_04041)
Vitamin B12 import ATP-binding protein BtuD</title>
			<polygon class="btuD_4 (OKCGIKJE_04041)
Vitamin B12 import ATP-binding protein BtuD" points="303,25 274,25 274,10 244,40 274,70 274,55 303,55" fill="rgb(255,255,255)" fill-opacity="1.0" stroke="rgb(0,0,0)" stroke-width="2"  />
			<g>
				<title>ABC_tran (PF00005)
"ABC transporter"</title>
				<polygon class="PF00005" points="251,37 260,28 265,28 265,52 260,52 251,43" stroke-linejoin="round" width="14" height="24" fill="rgb(129,201,63)" stroke="rgb(103,160,50)" stroke-width="1" opacity="0.75" />
			</g>
			<g>
				<title>ABC_membrane (PF00664)
"ABC transporter transmembrane region"</title>
				<rect class="PF00664" x="273" y="28" stroke-linejoin="round" width="27" height="24" fill="rgb(149,226,73)" stroke="rgb(119,180,58)" stroke-width="1" opacity="0.75" />
			</g>
		</g>
		<g>
			<title> (OKCGIKJE_04042)
hypothetical protein</title>
			<polygon class=" (OKCGIKJE_04042)
hypothetical protein" points="344,25 335,25 335,10 305,40 335,70 335,55 344,55" fill="rgb(255,255,255)" fill-opacity="1.0" stroke="rgb(0,0,0)" stroke-width="2"  />
			<g>
				<title>NTP_transf_5 (PF14907)
"Uncharacterised nucleotidyltransferase"</title>
				<polygon class="PF14907" points="315,34 321,28 339,28 339,52 321,52 315,46" stroke-linejoin="round" width="24" height="24" fill="rgb(191,137,74)" stroke="rgb(152,109,59)" stroke-width="1" opacity="0.75" />
			</g>
		</g>
		<g>
			<title> (OKCGIKJE_04043)
hypothetical protein</title>
			<polygon class=" (OKCGIKJE_04043)
hypothetical protein" points="343,40 358,10 358,70" fill="rgb(255,255,255)" fill-opacity="1.0" stroke="rgb(0,0,0)" stroke-width="2"  />
			<g>
				<title>Transglut_core3 (PF13471)
"Transglutaminase-like superfamily"</title>
				<polygon class="PF13471" points="346,40 352,28 355,28 355,52 352,52" stroke-linejoin="round" width="11" height="24" fill="rgb(63,111,179)" stroke="rgb(50,88,143)" stroke-width="1" opacity="0.75" />
			</g>
		</g>
		<g>
			<title> (OKCGIKJE_04044)
hypothetical protein</title>
			<polygon class=" (OKCGIKJE_04044)
hypothetical protein" points="359,40 369,10 369,70" fill="rgb(255,255,255)" fill-opacity="1.0" stroke="rgb(0,0,0)" stroke-width="2"  />
		</g>
		<g>
			<title> (OKCGIKJE_04045)
hypothetical protein</title>
			<polygon class=" (OKCGIKJE_04045)
hypothetical protein" points="400,25 398,25 398,10 368,40 398,70 398,55 400,55" fill="rgb(255,255,255)" fill-opacity="1.0" stroke="rgb(0,0,0)" stroke-width="2"  />
		</g>
		<g>
			<title> (OKCGIKJE_04046)
hypothetical protein</title>
			<polygon class=" (OKCGIKJE_04046)
hypothetical protein" points="402,40 407,10 407,70" fill="rgb(255,255,255)" fill-opacity="1.0" stroke="rgb(0,0,0)" stroke-width="2"  />
		</g>
		<g>
			<title>asnO_2 (OKCGIKJE_04047)
Asparagine synthetase [glutamine-hydrolyzing] 3</title>
			<polygon class="asnO_2 (OKCGIKJE_04047)
Asparagine synthetase [glutamine-hydrolyzing] 3" points="472,25 437,25 437,10 407,40 437,70 437,55 472,55" fill="rgb(255,255,255)" fill-opacity="1.0" stroke="rgb(0,0,0)" stroke-width="2"  />
			<g>
				<title>Asn_synthase (PF00733)
"Asparagine synthase"</title>
				<polygon class="PF00733" points="411,40 423,28 447,28 447,52 423,52" stroke-linejoin="round" width="37" height="24" fill="rgb(97,201,176)" stroke="rgb(77,160,140)" stroke-width="1" opacity="0.75" />
			</g>
			<g>
				<title>GATase_7 (PF13537)
"Glutamine amidotransferase domain"</title>
				<rect class="PF13537" x="455" y="28" stroke-linejoin="round" width="11" height="24" fill="rgb(200,63,57)" stroke="rgb(160,50,45)" stroke-width="1" opacity="0.75" />
			</g>
		</g>
		<g>
			<title> (OKCGIKJE_04048)
hypothetical protein</title>
			<polygon class=" (OKCGIKJE_04048)
hypothetical protein" points="472,40 476,10 476,70" fill="rgb(255,255,255)" fill-opacity="1.0" stroke="rgb(0,0,0)" stroke-width="2"  />
		</g>
		<g>
			<title> (OKCGIKJE_04049)
hypothetical protein</title>
			<polygon class=" (OKCGIKJE_04049)
hypothetical protein" points="476,40 480,10 480,70" fill="rgb(255,255,255)" fill-opacity="1.0" stroke="rgb(0,0,0)" stroke-width="2"  />
		</g>
		<g>
			<title> (OKCGIKJE_04050)
hypothetical protein</title>
			<polygon class=" (OKCGIKJE_04050)
hypothetical protein" points="544,25 510,25 510,10 480,40 510,70 510,55 544,55" fill="rgb(255,255,255)" fill-opacity="1.0" stroke="rgb(0,0,0)" stroke-width="2"  />
			<g>
				<title>Asn_synthase (PF00733)
"Asparagine synthase"</title>
				<polygon class="PF00733" points="484,40 496,28 519,28 519,52 496,52" stroke-linejoin="round" width="37" height="24" fill="rgb(97,201,176)" stroke="rgb(77,160,140)" stroke-width="1" opacity="0.75" />
			</g>
			<g>
				<title>GATase_7 (PF13537)
"Glutamine amidotransferase domain"</title>
				<rect class="PF13537" x="528" y="28" stroke-linejoin="round" width="11" height="24" fill="rgb(200,63,57)" stroke="rgb(160,50,45)" stroke-width="1" opacity="0.75" />
			</g>
		</g>
		<g>
			<title> (OKCGIKJE_04051)
hypothetical protein</title>
			<polygon class=" (OKCGIKJE_04051)
hypothetical protein" points="640,25 584,25 584,10 554,40 584,70 584,55 640,55" fill="rgb(255,255,255)" fill-opacity="1.0" stroke="rgb(0,0,0)" stroke-width="2"  />
		</g>
		<g>
			<title> (OKCGIKJE_04052)
hypothetical protein</title>
			<polygon class=" (OKCGIKJE_04052)
hypothetical protein" points="671,25 671,25 671,10 641,40 671,70 671,55 671,55" fill="rgb(255,255,255)" fill-opacity="1.0" stroke="rgb(0,0,0)" stroke-width="2"  />
			<g>
				<title>fn3 (PF00041)
"Fibronectin type III domain"</title>
				<polygon class="PF00041" points="657,28 657,28 664,28 664,52 657,52 657,52" stroke-linejoin="round" width="7" height="24" fill="rgb(203,70,135)" stroke="rgb(162,56,107)" stroke-width="1" opacity="0.75" />
			</g>
		</g>
		<g>
			<title>pglK (OKCGIKJE_04053)
Protein glycosylation K</title>
			<polygon class="pglK (OKCGIKJE_04053)
Protein glycosylation K" points="737,25 708,25 708,10 678,40 708,70 708,55 737,55" fill="rgb(255,255,255)" fill-opacity="1.0" stroke="rgb(0,0,0)" stroke-width="2"  />
			<g>
				<title>ABC_tran (PF00005)
"ABC transporter"</title>
				<polygon class="PF00005" points="684,38 694,28 699,28 699,52 694,52 684,42" stroke-linejoin="round" width="15" height="24" fill="rgb(129,201,63)" stroke="rgb(103,160,50)" stroke-width="1" opacity="0.75" />
			</g>
			<g>
				<title>ABC_membrane (PF00664)
"ABC transporter transmembrane region"</title>
				<rect class="PF00664" x="706" y="28" stroke-linejoin="round" width="27" height="24" fill="rgb(149,226,73)" stroke="rgb(119,180,58)" stroke-width="1" opacity="0.75" />
			</g>
		</g>
		<g>
			<title> (OKCGIKJE_04054)
hypothetical protein</title>
			<polygon class=" (OKCGIKJE_04054)
hypothetical protein" points="772,25 768,25 768,10 738,40 768,70 768,55 772,55" fill="rgb(255,255,255)" fill-opacity="1.0" stroke="rgb(0,0,0)" stroke-width="2"  />
			<g>
				<title>Glycos_transf_2 (PF00535)
"Glycosyl transferase family 2"</title>
				<rect class="PF00535" x="755" y="28" stroke-linejoin="round" width="17" height="24" fill="rgb(224,122,96)" stroke="rgb(179,97,76)" stroke-width="1" opacity="0.75" />
			</g>
		</g>
		<g>
			<title>gtfA_1 (OKCGIKJE_04055)
UDP-N-acetylglucosamine--peptide N-acetylglucosaminyltransferase GtfA subunit</title>
			<polygon class="gtfA_1 (OKCGIKJE_04055)
UDP-N-acetylglucosamine--peptide N-acetylglucosaminyltransferase GtfA subunit" points="813,25 806,25 806,10 776,40 806,70 806,55 813,55" fill="rgb(255,255,255)" fill-opacity="1.0" stroke="rgb(0,0,0)" stroke-width="2"  />
			<g>
				<title>Glycos_transf_1 (PF00534)
"Glycosyl transferases group 1"</title>
				<polygon class="PF00534" points="780,40 791,29 791,51" stroke-linejoin="round" width="15" height="24" fill="rgb(228,92,150)" stroke="rgb(182,73,119)" stroke-width="1" opacity="0.75" />
			</g>
		</g>
		<g>
			<title> (OKCGIKJE_04056)
hypothetical protein</title>
			<polygon class=" (OKCGIKJE_04056)
hypothetical protein" points="849,25 845,25 845,10 815,40 845,70 845,55 849,55" fill="rgb(255,255,255)" fill-opacity="1.0" stroke="rgb(0,0,0)" stroke-width="2"  />
			<g>
				<title>PS_pyruv_trans (PF04230)
"Polysaccharide pyruvyl transferase"</title>
				<polygon class="PF04230" points="821,38 831,28 849,28 849,52 831,52 821,42" stroke-linejoin="round" width="28" height="24" fill="rgb(211,93,213)" stroke="rgb(168,74,170)" stroke-width="1" opacity="0.75" />
			</g>
		</g>
	</g>
</svg>
