<svg version="1.1" baseProfile="full" xmlns="http://www.w3.org/2000/svg" width="504.73333333333335" height="80">
	<g>
		<line x1="10" y1="40.0" x2="494.73333333333335" y2="40.0" style="stroke:rgb(70,70,70); stroke-width:3 "/>
		<g>
			<title> (PLNGCNKA_02131)
hypothetical protein</title>
			<polygon class=" (PLNGCNKA_02131)
hypothetical protein" points="30,40 45,10 45,70" fill="rgb(255,255,255)" fill-opacity="1.0" stroke="rgb(0,0,0)" stroke-width="2"  />
			<g>
				<title>Transglut_core3 (PF13471)
"Transglutaminase-like superfamily"</title>
				<polygon class="PF13471" points="33,40 39,28 42,28 42,52 39,52" stroke-linejoin="round" width="11" height="24" fill="rgb(63,111,179)" stroke="rgb(50,88,143)" stroke-width="1" opacity="0.75" />
			</g>
		</g>
		<g>
			<title> (PLNGCNKA_02132)
hypothetical protein</title>
			<polygon class=" (PLNGCNKA_02132)
hypothetical protein" points="46,40 56,10 56,70" fill="rgb(255,255,255)" fill-opacity="1.0" stroke="rgb(0,0,0)" stroke-width="2"  />
			<g>
				<title>PqqD (PF05402)
"Coenzyme PQQ synthesis protein D (PqqD)"</title>
				<polygon class="PF05402" points="49,40 52,31 52,49" stroke-linejoin="round" width="6" height="24" fill="rgb(124,62,188)" stroke="rgb(99,49,150)" stroke-width="1" opacity="0.75" />
			</g>
		</g>
		<g>
			<title> (PLNGCNKA_02133)
hypothetical protein</title>
			<polygon class=" (PLNGCNKA_02133)
hypothetical protein" points="87,25 86,25 86,10 56,40 86,70 86,55 87,55" fill="rgb(255,255,255)" fill-opacity="1.0" stroke="rgb(0,0,0)" stroke-width="2"  />
		</g>
		<g>
			<title> (PLNGCNKA_02134)
hypothetical protein</title>
			<polygon class=" (PLNGCNKA_02134)
hypothetical protein" points="92,40 96,10 96,70" fill="rgb(255,255,255)" fill-opacity="1.0" stroke="rgb(0,0,0)" stroke-width="2"  />
		</g>
		<g>
			<title>asnO_2 (PLNGCNKA_02135)
Asparagine synthetase [glutamine-hydrolyzing] 3</title>
			<polygon class="asnO_2 (PLNGCNKA_02135)
Asparagine synthetase [glutamine-hydrolyzing] 3" points="160,25 126,25 126,10 96,40 126,70 126,55 160,55" fill="rgb(255,255,255)" fill-opacity="1.0" stroke="rgb(0,0,0)" stroke-width="2"  />
			<g>
				<title>Asn_synthase (PF00733)
"Asparagine synthase"</title>
				<polygon class="PF00733" points="100,40 112,28 136,28 136,52 112,52" stroke-linejoin="round" width="38" height="24" fill="rgb(97,201,176)" stroke="rgb(77,160,140)" stroke-width="1" opacity="0.75" />
			</g>
			<g>
				<title>GATase_7 (PF13537)
"Glutamine amidotransferase domain"</title>
				<rect class="PF13537" x="143" y="28" stroke-linejoin="round" width="11" height="24" fill="rgb(200,63,57)" stroke="rgb(160,50,45)" stroke-width="1" opacity="0.75" />
			</g>
		</g>
		<g>
			<title> (PLNGCNKA_02136)
hypothetical protein</title>
			<polygon class=" (PLNGCNKA_02136)
hypothetical protein" points="219,25 198,25 198,10 168,40 198,70 198,55 219,55" fill="rgb(255,255,255)" fill-opacity="1.0" stroke="rgb(0,0,0)" stroke-width="2"  />
			<g>
				<title>Polysacc_synt (PF01943)
"Polysaccharide biosynthesis protein"</title>
				<rect class="PF01943" x="191" y="28" stroke-linejoin="round" width="27" height="24" fill="rgb(71,213,101)" stroke="rgb(56,170,80)" stroke-width="1" opacity="0.75" />
			</g>
		</g>
		<g>
			<title> (PLNGCNKA_02137)
hypothetical protein</title>
			<polygon class=" (PLNGCNKA_02137)
hypothetical protein" points="219,40 228,10 228,70" fill="rgb(255,255,255)" fill-opacity="1.0" stroke="rgb(0,0,0)" stroke-width="2"  />
		</g>
		<g>
			<title> (PLNGCNKA_02138)
hypothetical protein</title>
			<polygon class=" (PLNGCNKA_02138)
hypothetical protein" points="268,25 259,25 259,10 229,40 259,70 259,55 268,55" fill="rgb(255,255,255)" fill-opacity="1.0" stroke="rgb(0,0,0)" stroke-width="2"  />
			<g>
				<title>Glyco_hydro_88 (PF07470)
"Glycosyl Hydrolase Family 88"</title>
				<polygon class="PF07470" points="233,40 245,28 261,28 261,52 245,52" stroke-linejoin="round" width="30" height="24" fill="rgb(81,95,186)" stroke="rgb(64,76,148)" stroke-width="1" opacity="0.75" />
			</g>
		</g>
		<g>
			<title> (PLNGCNKA_02139)
hypothetical protein</title>
			<polygon class=" (PLNGCNKA_02139)
hypothetical protein" points="309,25 300,25 300,10 270,40 300,70 300,55 309,55" fill="rgb(255,255,255)" fill-opacity="1.0" stroke="rgb(0,0,0)" stroke-width="2"  />
			<g>
				<title>Glycos_transf_1 (PF00534)
"Glycosyl transferases group 1"</title>
				<polygon class="PF00534" points="274,40 286,28 287,28 287,52 286,52" stroke-linejoin="round" width="16" height="24" fill="rgb(228,92,150)" stroke="rgb(182,73,119)" stroke-width="1" opacity="0.75" />
			</g>
		</g>
		<g>
			<title>pglJ (PLNGCNKA_02140)
N-acetylgalactosamine-N, N'-diacetylbacillosaminyl-diphospho-undecaprenol 4-alpha-N-acetylgalactosaminyltransferase</title>
			<polygon class="pglJ (PLNGCNKA_02140)
N-acetylgalactosamine-N, N'-diacetylbacillosaminyl-diphospho-undecaprenol 4-alpha-N-acetylgalactosaminyltransferase" points="349,25 340,25 340,10 310,40 340,70 340,55 349,55" fill="rgb(255,255,255)" fill-opacity="1.0" stroke="rgb(0,0,0)" stroke-width="2"  />
			<g>
				<title>Glycos_transf_1 (PF00534)
"Glycosyl transferases group 1"</title>
				<polygon class="PF00534" points="314,40 326,28 327,28 327,52 326,52" stroke-linejoin="round" width="16" height="24" fill="rgb(228,92,150)" stroke="rgb(182,73,119)" stroke-width="1" opacity="0.75" />
			</g>
		</g>
		<g>
			<title> (PLNGCNKA_02141)
hypothetical protein</title>
			<polygon class=" (PLNGCNKA_02141)
hypothetical protein" points="389,25 381,25 381,10 351,40 381,70 381,55 389,55" fill="rgb(255,255,255)" fill-opacity="1.0" stroke="rgb(0,0,0)" stroke-width="2"  />
			<g>
				<title>PS_pyruv_trans (PF04230)
"Polysaccharide pyruvyl transferase"</title>
				<polygon class="PF04230" points="358,37 367,28 388,28 388,52 367,52 358,43" stroke-linejoin="round" width="30" height="24" fill="rgb(211,93,213)" stroke="rgb(168,74,170)" stroke-width="1" opacity="0.75" />
			</g>
		</g>
		<g>
			<title>arnC (PLNGCNKA_02142)
Undecaprenyl-phosphate 4-deoxy-4-formamido-L-arabinose transferase</title>
			<polygon class="arnC (PLNGCNKA_02142)
Undecaprenyl-phosphate 4-deoxy-4-formamido-L-arabinose transferase" points="424,25 420,25 420,10 390,40 420,70 420,55 424,55" fill="rgb(255,255,255)" fill-opacity="1.0" stroke="rgb(0,0,0)" stroke-width="2"  />
			<g>
				<title>Glycos_transf_2 (PF00535)
"Glycosyl transferase family 2"</title>
				<polygon class="PF00535" points="405,29 406,28 422,28 422,52 406,52 405,51" stroke-linejoin="round" width="17" height="24" fill="rgb(224,122,96)" stroke="rgb(179,97,76)" stroke-width="1" opacity="0.75" />
			</g>
		</g>
		<g>
			<title>gtfA (PLNGCNKA_02143)
UDP-N-acetylglucosamine--peptide N-acetylglucosaminyltransferase GtfA subunit</title>
			<polygon class="gtfA (PLNGCNKA_02143)
UDP-N-acetylglucosamine--peptide N-acetylglucosaminyltransferase GtfA subunit" points="465,25 454,25 454,10 424,40 454,70 454,55 465,55" fill="rgb(255,255,255)" fill-opacity="1.0" stroke="rgb(0,0,0)" stroke-width="2"  />
			<g>
				<title>Glycos_transf_1 (PF00534)
"Glycosyl transferases group 1"</title>
				<polygon class="PF00534" points="428,40 440,28 443,28 443,52 440,52" stroke-linejoin="round" width="16" height="24" fill="rgb(228,92,150)" stroke="rgb(182,73,119)" stroke-width="1" opacity="0.75" />
			</g>
		</g>
		<g>
			<title>glmU_1 (PLNGCNKA_02144)
Bifunctional protein GlmU</title>
			<polygon class="glmU_1 (PLNGCNKA_02144)
Bifunctional protein GlmU" points="466,40 487,10 487,70" fill="rgb(255,255,255)" fill-opacity="1.0" stroke="rgb(0,0,0)" stroke-width="2"  />
			<g>
				<title>Hexapep (PF00132)
"Bacterial transferase hexapeptide (six repeats)"</title>
				<polygon class="PF00132" points="470,40 472,37 472,43" stroke-linejoin="round" width="3" height="24" fill="rgb(89,131,202)" stroke="rgb(71,104,161)" stroke-width="1" opacity="0.75" />
			</g>
		</g>
	</g>
</svg>
