<svg version="1.1" baseProfile="full" xmlns="http://www.w3.org/2000/svg" width="537.1666666666666" height="80">
	<g>
		<line x1="10" y1="40.0" x2="527.1666666666666" y2="40.0" style="stroke:rgb(70,70,70); stroke-width:3 "/>
		<g>
			<title>copZ_1 (DLMDDBDI_01421)
Copper chaperone CopZ</title>
			<polygon class="copZ_1 (DLMDDBDI_01421)
Copper chaperone CopZ" points="63,10 69,40 63,70" fill="rgb(255,255,255)" fill-opacity="1.0" stroke="rgb(0,0,0)" stroke-width="2"  />
			<g>
				<title>HMA (PF00403)
"Heavy-metal-associated domain"</title>
				<polygon class="PF00403" points="63,28 63,28 66,40 63,52 63,52" stroke-linejoin="round" width="5" height="24" fill="rgb(91,198,182)" stroke="rgb(72,158,145)" stroke-width="1" opacity="0.75" />
			</g>
		</g>
		<g>
			<title>dat_1 (DLMDDBDI_01422)
Diaminobutyrate--2-oxoglutarate aminotransferase</title>
			<polygon class="dat_1 (DLMDDBDI_01422)
Diaminobutyrate--2-oxoglutarate aminotransferase" points="80,25 95,25 95,10 125,40 95,70 95,55 80,55" fill="rgb(255,255,255)" fill-opacity="1.0" stroke="rgb(0,0,0)" stroke-width="2"  />
			<g>
				<title>Aminotran_3 (PF00202)
"Aminotransferase class-III"</title>
				<polygon class="PF00202" points="82,28 108,28 120,40 108,52 82,52" stroke-linejoin="round" width="42" height="24" fill="rgb(49,163,189)" stroke="rgb(39,130,151)" stroke-width="1" opacity="0.75" />
			</g>
		</g>
		<g>
			<title>ddc (DLMDDBDI_01423)
L-2,4-diaminobutyrate decarboxylase</title>
			<polygon class="ddc (DLMDDBDI_01423)
L-2,4-diaminobutyrate decarboxylase" points="125,25 145,25 145,10 175,40 145,70 145,55 125,55" fill="rgb(255,255,255)" fill-opacity="1.0" stroke="rgb(0,0,0)" stroke-width="2"  />
			<g>
				<title>Pyridoxal_deC (PF00282)
"Pyridoxal-dependent decarboxylase conserved domain"</title>
				<polygon class="PF00282" points="131,28 159,28 168,37 168,43 159,52 131,52" stroke-linejoin="round" width="37" height="24" fill="rgb(100,218,166)" stroke="rgb(80,174,132)" stroke-width="1" opacity="0.75" />
			</g>
		</g>
		<g>
			<title>iucA (DLMDDBDI_01424)
N(2)-citryl-N(6)-acetyl-N(6)-hydroxylysine synthase</title>
			<polygon class="iucA (DLMDDBDI_01424)
N(2)-citryl-N(6)-acetyl-N(6)-hydroxylysine synthase" points="176,25 205,25 205,10 235,40 205,70 205,55 176,55" fill="rgb(255,255,255)" fill-opacity="1.0" stroke="rgb(0,0,0)" stroke-width="2"  />
			<g>
				<title>IucA_IucC (PF04183)
"IucA / IucC family"</title>
				<rect class="PF04183" x="190" y="28" stroke-linejoin="round" width="23" height="24" fill="rgb(221,104,121)" stroke="rgb(176,83,96)" stroke-width="1" opacity="0.75" />
			</g>
			<g>
				<title>FhuF (PF06276)
"Ferric iron reductase FhuF-like transporter"</title>
				<polygon class="PF06276" points="216,28 218,28 230,40 218,52 216,52" stroke-linejoin="round" width="15" height="24" fill="rgb(76,151,221)" stroke="rgb(60,120,176)" stroke-width="1" opacity="0.75" />
			</g>
		</g>
		<g>
			<title>iucB (DLMDDBDI_01425)
N(6)-hydroxylysine O-acetyltransferase</title>
			<polygon class="iucB (DLMDDBDI_01425)
N(6)-hydroxylysine O-acetyltransferase" points="235,10 254,40 235,70" fill="rgb(255,255,255)" fill-opacity="1.0" stroke="rgb(0,0,0)" stroke-width="2"  />
			<g>
				<title>Acetyltransf_8 (PF13523)
"Acetyltransferase (GNAT) domain"</title>
				<polygon class="PF13523" points="237,28 243,28 251,40 251,40 243,52 237,52" stroke-linejoin="round" width="14" height="24" fill="rgb(106,224,203)" stroke="rgb(84,179,162)" stroke-width="1" opacity="0.75" />
			</g>
		</g>
		<g>
			<title>iucD_3 (DLMDDBDI_01426)
L-lysine N6-monooxygenase</title>
			<polygon class="iucD_3 (DLMDDBDI_01426)
L-lysine N6-monooxygenase" points="253,25 268,25 268,10 298,40 268,70 268,55 253,55" fill="rgb(255,255,255)" fill-opacity="1.0" stroke="rgb(0,0,0)" stroke-width="2"  />
			<g>
				<title>K_oxygenase (PF13434)
"L-lysine 6-monooxygenase (NADPH-requiring)"</title>
				<polygon class="PF13434" points="254,28 281,28 288,35 288,45 281,52 254,52" stroke-linejoin="round" width="34" height="24" fill="rgb(81,213,119)" stroke="rgb(64,170,95)" stroke-width="1" opacity="0.75" />
			</g>
		</g>
		<g>
			<title>iucC (DLMDDBDI_01427)
Aerobactin synthase</title>
			<polygon class="iucC (DLMDDBDI_01427)
Aerobactin synthase" points="300,25 330,25 330,10 360,40 330,70 330,55 300,55" fill="rgb(255,255,255)" fill-opacity="1.0" stroke="rgb(0,0,0)" stroke-width="2"  />
			<g>
				<title>IucA_IucC (PF04183)
"IucA / IucC family"</title>
				<rect class="PF04183" x="314" y="28" stroke-linejoin="round" width="25" height="24" fill="rgb(221,104,121)" stroke="rgb(176,83,96)" stroke-width="1" opacity="0.75" />
			</g>
			<g>
				<title>FhuF (PF06276)
"Ferric iron reductase FhuF-like transporter"</title>
				<polygon class="PF06276" points="341,28 344,28 356,40 344,52 341,52" stroke-linejoin="round" width="16" height="24" fill="rgb(76,151,221)" stroke="rgb(60,120,176)" stroke-width="1" opacity="0.75" />
			</g>
		</g>
		<g>
			<title>lysC (DLMDDBDI_01428)
Aspartokinase</title>
			<polygon class="lysC (DLMDDBDI_01428)
Aspartokinase" points="361,25 371,25 371,10 401,40 371,70 371,55 361,55" fill="rgb(255,255,255)" fill-opacity="1.0" stroke="rgb(0,0,0)" stroke-width="2"  />
			<g>
				<title>AA_kinase (PF00696)
"Amino acid kinase family"</title>
				<rect class="PF00696" x="361" y="28" stroke-linejoin="round" width="22" height="24" fill="rgb(148,78,224)" stroke="rgb(118,62,179)" stroke-width="1" opacity="0.75" />
			</g>
		</g>
		<g>
			<title>arcA (DLMDDBDI_01429)
Arginine deiminase</title>
			<polygon class="arcA (DLMDDBDI_01429)
Arginine deiminase" points="435,25 434,25 434,10 404,40 434,70 434,55 435,55" fill="rgb(255,255,255)" fill-opacity="1.0" stroke="rgb(0,0,0)" stroke-width="2"  />
			<g>
				<title>Amidinotransf (PF02274)
"Amidinotransferase"</title>
				<polygon class="PF02274" points="408,40 420,28 433,28 433,52 420,52" stroke-linejoin="round" width="29" height="24" fill="rgb(194,129,75)" stroke="rgb(155,103,60)" stroke-width="1" opacity="0.75" />
			</g>
		</g>
		<g>
			<title>pheP_2 (DLMDDBDI_01430)
Phenylalanine-specific permease</title>
			<polygon class="pheP_2 (DLMDDBDI_01430)
Phenylalanine-specific permease" points="440,25 453,25 453,10 483,40 453,70 453,55 440,55" fill="rgb(255,255,255)" fill-opacity="1.0" stroke="rgb(0,0,0)" stroke-width="2"  />
			<g>
				<title>AA_permease (PF00324)
"Amino acid permease"</title>
				<polygon class="PF00324" points="441,28 467,28 479,40 467,52 441,52" stroke-linejoin="round" width="41" height="24" fill="rgb(82,225,201)" stroke="rgb(65,180,160)" stroke-width="1" opacity="0.75" />
			</g>
		</g>
		<g>
			<title> (DLMDDBDI_01431)
hypothetical protein</title>
			<polygon class=" (DLMDDBDI_01431)
hypothetical protein" points="494,40 519,10 519,70" fill="rgb(255,255,255)" fill-opacity="1.0" stroke="rgb(0,0,0)" stroke-width="2"  />
			<g>
				<title>YqcI_YcgG (PF08892)
"YqcI/YcgG family"</title>
				<polygon class="PF08892" points="498,40 508,28 516,28 516,52 508,52" stroke-linejoin="round" width="21" height="24" fill="rgb(58,210,225)" stroke="rgb(46,168,180)" stroke-width="1" opacity="0.75" />
			</g>
		</g>
	</g>
</svg>
