<svg version="1.1" baseProfile="full" xmlns="http://www.w3.org/2000/svg" width="970.0666666666667" height="80">
	<g>
		<line x1="10" y1="40.0" x2="960.0666666666667" y2="40.0" style="stroke:rgb(70,70,70); stroke-width:3 "/>
		<g>
			<title>kefB_1 (ILGKOEJG_00725)
Glutathione-regulated potassium-efflux system protein KefB</title>
			<polygon class="kefB_1 (ILGKOEJG_00725)
Glutathione-regulated potassium-efflux system protein KefB" points="84,25 86,25 86,10 116,40 86,70 86,55 84,55" fill="rgb(255,255,255)" fill-opacity="1.0" stroke="rgb(0,0,0)" stroke-width="2"  />
			<g>
				<title>Ion_trans_2 (PF07885)
"Ion channel"</title>
				<rect class="PF07885" x="85" y="28" stroke-linejoin="round" width="7" height="24" fill="rgb(72,141,189)" stroke="rgb(57,112,151)" stroke-width="1" opacity="0.75" />
			</g>
			<g>
				<title>TrkA_N (PF02254)
"TrkA-N domain"</title>
				<polygon class="PF02254" points="94,28 100,28 105,33 105,47 100,52 94,52" stroke-linejoin="round" width="11" height="24" fill="rgb(120,217,104)" stroke="rgb(96,173,83)" stroke-width="1" opacity="0.75" />
			</g>
			<g>
				<title>TrkA_C (PF02080)
"TrkA-C domain"</title>
				<polygon class="PF02080" points="109,37 112,40 109,43" stroke-linejoin="round" width="6" height="24" fill="rgb(76,186,211)" stroke="rgb(60,148,168)" stroke-width="1" opacity="0.75" />
			</g>
		</g>
		<g>
			<title> (ILGKOEJG_00726)
hypothetical protein</title>
			<polygon class=" (ILGKOEJG_00726)
hypothetical protein" points="120,25 122,25 122,10 152,40 122,70 122,55 120,55" fill="rgb(255,255,255)" fill-opacity="1.0" stroke="rgb(0,0,0)" stroke-width="2"  />
			<g>
				<title>LAGLIDADG_3 (PF14528)
"LAGLIDADG-like domain"</title>
				<rect class="PF14528" x="127" y="28" stroke-linejoin="round" width="7" height="24" fill="rgb(97,101,195)" stroke="rgb(77,80,156)" stroke-width="1" opacity="0.75" />
			</g>
			<g>
				<title>LAGLIDADG_3 (PF14528)
"LAGLIDADG-like domain"</title>
				<polygon class="PF14528" points="136,28 136,28 143,35 143,45 136,52 136,52" stroke-linejoin="round" width="7" height="24" fill="rgb(97,101,195)" stroke="rgb(77,80,156)" stroke-width="1" opacity="0.75" />
			</g>
		</g>
		<g>
			<title>mgtA (ILGKOEJG_00727)
GDP-mannose-dependent alpha-mannosyltransferase</title>
			<polygon class="mgtA (ILGKOEJG_00727)
GDP-mannose-dependent alpha-mannosyltransferase" points="216,25 208,25 208,10 178,40 208,70 208,55 216,55" fill="rgb(255,255,255)" fill-opacity="1.0" stroke="rgb(0,0,0)" stroke-width="2"  />
			<g>
				<title>Glycos_transf_1 (PF00534)
"Glycosyl transferases group 1"</title>
				<polygon class="PF00534" points="182,40 194,28 197,28 197,52 194,52" stroke-linejoin="round" width="16" height="24" fill="rgb(228,92,150)" stroke="rgb(182,73,119)" stroke-width="1" opacity="0.75" />
			</g>
			<g>
				<title>Glyco_transf_4 (PF13439)
"Glycosyltransferase Family 4"</title>
				<rect class="PF13439" x="199" y="28" stroke-linejoin="round" width="16" height="24" fill="rgb(162,57,186)" stroke="rgb(129,45,148)" stroke-width="1" opacity="0.75" />
			</g>
		</g>
		<g>
			<title> (ILGKOEJG_00728)
hypothetical protein</title>
			<polygon class=" (ILGKOEJG_00728)
hypothetical protein" points="256,25 248,25 248,10 218,40 248,70 248,55 256,55" fill="rgb(255,255,255)" fill-opacity="1.0" stroke="rgb(0,0,0)" stroke-width="2"  />
			<g>
				<title>Epimerase (PF01370)
"NAD dependent epimerase/dehydratase family"</title>
				<polygon class="PF01370" points="227,35 234,28 255,28 255,52 234,52 227,45" stroke-linejoin="round" width="28" height="24" fill="rgb(98,102,214)" stroke="rgb(78,81,171)" stroke-width="1" opacity="0.75" />
			</g>
		</g>
		<g>
			<title>tadA_2 (ILGKOEJG_00729)
tRNA-specific adenosine deaminase</title>
			<polygon class="tadA_2 (ILGKOEJG_00729)
tRNA-specific adenosine deaminase" points="266,40 281,10 281,70" fill="rgb(255,255,255)" fill-opacity="1.0" stroke="rgb(0,0,0)" stroke-width="2"  />
			<g>
				<title>dCMP_cyt_deam_1 (PF00383)
"Cytidine and deoxycytidylate deaminase zinc-binding region"</title>
				<polygon class="PF00383" points="271,36 275,28 280,28 280,52 275,52 271,44" stroke-linejoin="round" width="9" height="24" fill="rgb(91,149,216)" stroke="rgb(72,119,172)" stroke-width="1" opacity="0.75" />
			</g>
		</g>
		<g>
			<title> (ILGKOEJG_00730)
hypothetical protein</title>
			<polygon class=" (ILGKOEJG_00730)
hypothetical protein" points="335,25 315,25 315,10 285,40 315,70 315,55 335,55" fill="rgb(255,255,255)" fill-opacity="1.0" stroke="rgb(0,0,0)" stroke-width="2"  />
			<g>
				<title>Band_7 (PF01145)
"SPFH domain / Band 7 family"</title>
				<polygon class="PF01145" points="297,32 301,28 331,28 331,52 301,52 297,48" stroke-linejoin="round" width="34" height="24" fill="rgb(218,155,102)" stroke="rgb(174,124,81)" stroke-width="1" opacity="0.75" />
			</g>
		</g>
		<g>
			<title>acsA_1 (ILGKOEJG_00731)
Acetyl-coenzyme A synthetase</title>
			<polygon class="acsA_1 (ILGKOEJG_00731)
Acetyl-coenzyme A synthetase" points="343,25 378,25 378,10 408,40 378,70 378,55 343,55" fill="rgb(255,255,255)" fill-opacity="1.0" stroke="rgb(0,0,0)" stroke-width="2"  />
			<g>
				<title>ACAS_N (PF16177)
"Acetyl-coenzyme A synthetase N-terminus"</title>
				<rect class="PF16177" x="346" y="28" stroke-linejoin="round" width="5" height="24" fill="rgb(54,78,195)" stroke="rgb(43,62,156)" stroke-width="1" opacity="0.75" />
			</g>
			<g>
				<title>AMP-binding (PF00501)
"AMP-binding enzyme"</title>
				<polygon class="PF00501" points="352,28 392,28 395,31 395,49 392,52 352,52" stroke-linejoin="round" width="43" height="24" fill="rgb(60,217,223)" stroke="rgb(48,173,178)" stroke-width="1" opacity="0.75" />
			</g>
			<g>
				<title>AMP-binding_C (PF13193)
"AMP-binding enzyme C-terminal domain"</title>
				<polygon class="PF13193" points="396,32 403,39 403,41 396,48" stroke-linejoin="round" width="7" height="24" fill="rgb(182,50,118)" stroke="rgb(145,39,94)" stroke-width="1" opacity="0.75" />
			</g>
		</g>
		<g>
			<title>accD5 (ILGKOEJG_00732)
putative propionyl-CoA carboxylase beta chain 5</title>
			<polygon class="accD5 (ILGKOEJG_00732)
putative propionyl-CoA carboxylase beta chain 5" points="461,25 440,25 440,10 410,40 440,70 440,55 461,55" fill="rgb(255,255,255)" fill-opacity="1.0" stroke="rgb(0,0,0)" stroke-width="2"  />
			<g>
				<title>Carboxyl_trans (PF01039)
"Carboxyl transferase domain"</title>
				<polygon class="PF01039" points="414,40 426,28 458,28 458,52 426,52" stroke-linejoin="round" width="48" height="24" fill="rgb(180,136,60)" stroke="rgb(144,108,48)" stroke-width="1" opacity="0.75" />
			</g>
		</g>
		<g>
			<title>crt (ILGKOEJG_00733)
Short-chain-enoyl-CoA hydratase</title>
			<polygon class="crt (ILGKOEJG_00733)
Short-chain-enoyl-CoA hydratase" points="461,40 487,10 487,70" fill="rgb(255,255,255)" fill-opacity="1.0" stroke="rgb(0,0,0)" stroke-width="2"  />
			<g>
				<title>ECH_1 (PF00378)
"Enoyl-CoA hydratase/isomerase"</title>
				<polygon class="PF00378" points="465,40 475,28 486,28 486,52 475,52" stroke-linejoin="round" width="25" height="24" fill="rgb(218,72,181)" stroke="rgb(174,57,144)" stroke-width="1" opacity="0.75" />
			</g>
		</g>
		<g>
			<title>yngG (ILGKOEJG_00734)
Hydroxymethylglutaryl-CoA lyase YngG</title>
			<polygon class="yngG (ILGKOEJG_00734)
Hydroxymethylglutaryl-CoA lyase YngG" points="517,25 517,25 517,10 487,40 517,70 517,55 517,55" fill="rgb(255,255,255)" fill-opacity="1.0" stroke="rgb(0,0,0)" stroke-width="2"  />
			<g>
				<title>HMGL-like (PF00682)
"HMGL-like"</title>
				<polygon class="PF00682" points="491,40 503,28 516,28 516,52 503,52" stroke-linejoin="round" width="27" height="24" fill="rgb(84,228,141)" stroke="rgb(67,182,112)" stroke-width="1" opacity="0.75" />
			</g>
		</g>
		<g>
			<title>yngHB (ILGKOEJG_00735)
Biotin/lipoyl attachment protein</title>
			<polygon class="yngHB (ILGKOEJG_00735)
Biotin/lipoyl attachment protein" points="518,40 525,10 525,70" fill="rgb(255,255,255)" fill-opacity="1.0" stroke="rgb(0,0,0)" stroke-width="2"  />
			<g>
				<title>Biotin_lipoyl (PF00364)
"Biotin-requiring enzyme"</title>
				<polygon class="PF00364" points="521,40 524,28 524,28 524,52 524,52" stroke-linejoin="round" width="6" height="24" fill="rgb(67,214,213)" stroke="rgb(53,171,170)" stroke-width="1" opacity="0.75" />
			</g>
		</g>
		<g>
			<title>accC_2 (ILGKOEJG_00736)
Biotin carboxylase</title>
			<polygon class="accC_2 (ILGKOEJG_00736)
Biotin carboxylase" points="571,25 556,25 556,10 526,40 556,70 556,55 571,55" fill="rgb(255,255,255)" fill-opacity="1.0" stroke="rgb(0,0,0)" stroke-width="2"  />
			<g>
				<title>Biotin_carb_C (PF02785)
"Biotin carboxylase C-terminal domain"</title>
				<polygon class="PF02785" points="530,40 537,33 537,47" stroke-linejoin="round" width="10" height="24" fill="rgb(82,186,211)" stroke="rgb(65,148,168)" stroke-width="1" opacity="0.75" />
			</g>
			<g>
				<title>CPSase_L_D2 (PF02786)
"Carbamoyl-phosphate synthase L chain, ATP binding domain"</title>
				<polygon class="PF02786" points="538,32 542,28 558,28 558,52 542,52 538,48" stroke-linejoin="round" width="20" height="24" fill="rgb(190,97,205)" stroke="rgb(151,77,164)" stroke-width="1" opacity="0.75" />
			</g>
			<g>
				<title>Biotin_carb_N (PF00289)
"Biotin carboxylase, N-terminal domain"</title>
				<rect class="PF00289" x="560" y="28" stroke-linejoin="round" width="10" height="24" fill="rgb(59,114,187)" stroke="rgb(47,91,149)" stroke-width="1" opacity="0.75" />
			</g>
		</g>
		<g>
			<title>fadD3 (ILGKOEJG_00737)
3-[(3aS,4S,7aS)-7a-methyl-1, 5-dioxo-octahydro-1H-inden-4-yl]propanoyl:CoA ligase</title>
			<polygon class="fadD3 (ILGKOEJG_00737)
3-[(3aS,4S,7aS)-7a-methyl-1, 5-dioxo-octahydro-1H-inden-4-yl]propanoyl:CoA ligase" points="626,25 602,25 602,10 572,40 602,70 602,55 626,55" fill="rgb(255,255,255)" fill-opacity="1.0" stroke="rgb(0,0,0)" stroke-width="2"  />
			<g>
				<title>AMP-binding_C (PF13193)
"AMP-binding enzyme C-terminal domain"</title>
				<polygon class="PF13193" points="576,40 580,36 580,44" stroke-linejoin="round" width="7" height="24" fill="rgb(182,50,118)" stroke="rgb(145,39,94)" stroke-width="1" opacity="0.75" />
			</g>
			<g>
				<title>AMP-binding (PF00501)
"AMP-binding enzyme"</title>
				<polygon class="PF00501" points="582,34 588,28 625,28 625,52 588,52 582,46" stroke-linejoin="round" width="43" height="24" fill="rgb(60,217,223)" stroke="rgb(48,173,178)" stroke-width="1" opacity="0.75" />
			</g>
		</g>
		<g>
			<title>bcd (ILGKOEJG_00738)
Acyl-CoA dehydrogenase, short-chain specific</title>
			<polygon class="bcd (ILGKOEJG_00738)
Acyl-CoA dehydrogenase, short-chain specific" points="665,25 657,25 657,10 627,40 657,70 657,55 665,55" fill="rgb(255,255,255)" fill-opacity="1.0" stroke="rgb(0,0,0)" stroke-width="2"  />
			<g>
				<title>Acyl-CoA_dh_1 (PF00441)
"Acyl-CoA dehydrogenase, C-terminal domain"</title>
				<polygon class="PF00441" points="631,40 641,30 641,50" stroke-linejoin="round" width="14" height="24" fill="rgb(85,191,117)" stroke="rgb(68,152,93)" stroke-width="1" opacity="0.75" />
			</g>
			<g>
				<title>Acyl-CoA_dh_M (PF02770)
"Acyl-CoA dehydrogenase, middle domain"</title>
				<polygon class="PF02770" points="643,28 643,28 652,28 652,52 643,52 643,52" stroke-linejoin="round" width="9" height="24" fill="rgb(225,186,97)" stroke="rgb(180,148,77)" stroke-width="1" opacity="0.75" />
			</g>
			<g>
				<title>Acyl-CoA_dh_N (PF02771)
"Acyl-CoA dehydrogenase, N-terminal domain"</title>
				<rect class="PF02771" x="653" y="28" stroke-linejoin="round" width="11" height="24" fill="rgb(105,135,218)" stroke="rgb(84,108,174)" stroke-width="1" opacity="0.75" />
			</g>
		</g>
		<g>
			<title>kstR2_1 (ILGKOEJG_00739)
HTH-type transcriptional repressor KstR2</title>
			<polygon class="kstR2_1 (ILGKOEJG_00739)
HTH-type transcriptional repressor KstR2" points="668,40 689,10 689,70" fill="rgb(255,255,255)" fill-opacity="1.0" stroke="rgb(0,0,0)" stroke-width="2"  />
			<g>
				<title>TetR_C_24 (PF17932)
"Tetracyclin repressor-like, C-terminal domain"</title>
				<polygon class="PF17932" points="672,40 680,28 681,28 681,52 680,52" stroke-linejoin="round" width="11" height="24" fill="rgb(165,217,107)" stroke="rgb(132,173,85)" stroke-width="1" opacity="0.75" />
			</g>
			<g>
				<title>TetR_N (PF00440)
"Bacterial regulatory proteins, tetR family"</title>
				<rect class="PF00440" x="683" y="28" stroke-linejoin="round" width="4" height="24" fill="rgb(73,212,190)" stroke="rgb(58,169,152)" stroke-width="1" opacity="0.75" />
			</g>
		</g>
		<g>
			<title> (ILGKOEJG_00740)
hypothetical protein</title>
			<polygon class=" (ILGKOEJG_00740)
hypothetical protein" points="717,40 727,10 727,70" fill="rgb(255,255,255)" fill-opacity="1.0" stroke="rgb(0,0,0)" stroke-width="2"  />
		</g>
		<g>
			<title> (ILGKOEJG_00741)
hypothetical protein</title>
			<polygon class=" (ILGKOEJG_00741)
hypothetical protein" points="727,40 745,10 745,70" fill="rgb(255,255,255)" fill-opacity="1.0" stroke="rgb(0,0,0)" stroke-width="2"  />
		</g>
		<g>
			<title>adhT_1 (ILGKOEJG_00742)
Alcohol dehydrogenase</title>
			<polygon class="adhT_1 (ILGKOEJG_00742)
Alcohol dehydrogenase" points="797,25 793,25 793,10 763,40 793,70 793,55 797,55" fill="rgb(255,255,255)" fill-opacity="1.0" stroke="rgb(0,0,0)" stroke-width="2"  />
			<g>
				<title>ADH_zinc_N (PF00107)
"Zinc-binding dehydrogenase"</title>
				<polygon class="PF00107" points="767,40 778,29 778,51" stroke-linejoin="round" width="12" height="24" fill="rgb(81,108,215)" stroke="rgb(64,86,172)" stroke-width="1" opacity="0.75" />
			</g>
			<g>
				<title>ADH_N (PF08240)
"Alcohol dehydrogenase GroES-like domain"</title>
				<rect class="PF08240" x="783" y="28" stroke-linejoin="round" width="11" height="24" fill="rgb(211,65,138)" stroke="rgb(168,51,110)" stroke-width="1" opacity="0.75" />
			</g>
		</g>
		<g>
			<title> (ILGKOEJG_00743)
hypothetical protein</title>
			<polygon class=" (ILGKOEJG_00743)
hypothetical protein" points="802,40 819,10 819,70" fill="rgb(255,255,255)" fill-opacity="1.0" stroke="rgb(0,0,0)" stroke-width="2"  />
			<g>
				<title>Acetyltransf_3 (PF13302)
"Acetyltransferase (GNAT) domain"</title>
				<polygon class="PF13302" points="805,40 812,28 819,28 819,52 812,52" stroke-linejoin="round" width="15" height="24" fill="rgb(105,146,215)" stroke="rgb(84,116,172)" stroke-width="1" opacity="0.75" />
			</g>
		</g>
		<g>
			<title> (ILGKOEJG_00744)
hypothetical protein</title>
			<polygon class=" (ILGKOEJG_00744)
hypothetical protein" points="823,40 840,10 840,70" fill="rgb(255,255,255)" fill-opacity="1.0" stroke="rgb(0,0,0)" stroke-width="2"  />
			<g>
				<title>Acetyltransf_1 (PF00583)
"Acetyltransferase (GNAT) family"</title>
				<polygon class="PF00583" points="826,40 833,28 838,28 838,52 833,52" stroke-linejoin="round" width="13" height="24" fill="rgb(121,183,50)" stroke="rgb(96,146,39)" stroke-width="1" opacity="0.75" />
			</g>
		</g>
		<g>
			<title> (ILGKOEJG_00745)
hypothetical protein</title>
			<polygon class=" (ILGKOEJG_00745)
hypothetical protein" points="841,40 846,10 846,70" fill="rgb(255,255,255)" fill-opacity="1.0" stroke="rgb(0,0,0)" stroke-width="2"  />
		</g>
		<g>
			<title> (ILGKOEJG_00746)
hypothetical protein</title>
			<polygon class=" (ILGKOEJG_00746)
hypothetical protein" points="862,25 870,25 870,10 900,40 870,70 870,55 862,55" fill="rgb(255,255,255)" fill-opacity="1.0" stroke="rgb(0,0,0)" stroke-width="2"  />
			<g>
				<title>Peptidase_S11 (PF00768)
"D-alanyl-D-alanine carboxypeptidase"</title>
				<polygon class="PF00768" points="864,28 883,28 887,32 887,48 883,52 864,52" stroke-linejoin="round" width="23" height="24" fill="rgb(227,157,83)" stroke="rgb(181,125,66)" stroke-width="1" opacity="0.75" />
			</g>
		</g>
		<g>
			<title> (ILGKOEJG_00747)
Thermophilic serine proteinase</title>
			<polygon class=" (ILGKOEJG_00747)
Thermophilic serine proteinase" points="942,25 932,25 932,10 902,40 932,70 932,55 942,55" fill="rgb(255,255,255)" fill-opacity="1.0" stroke="rgb(0,0,0)" stroke-width="2"  />
			<g>
				<title>Peptidase_S8 (PF00082)
"Subtilase family"</title>
				<polygon class="PF00082" points="906,40 918,28 926,28 926,52 918,52" stroke-linejoin="round" width="24" height="24" fill="rgb(193,159,94)" stroke="rgb(154,127,75)" stroke-width="1" opacity="0.75" />
			</g>
		</g>
	</g>
</svg>
