<svg version="1.1" baseProfile="full" xmlns="http://www.w3.org/2000/svg" width="535.8" height="80">
	<g>
		<line x1="10" y1="40.0" x2="525.8" y2="40.0" style="stroke:rgb(70,70,70); stroke-width:3 "/>
		<g>
			<title>gpmA_3 (PDEEBABA_04068)
2,3-bisphosphoglycerate-dependent phosphoglycerate mutase</title>
			<polygon class="gpmA_3 (PDEEBABA_04068)
2,3-bisphosphoglycerate-dependent phosphoglycerate mutase" points="52,10 71,40 52,70" fill="rgb(255,255,255)" fill-opacity="1.0" stroke="rgb(0,0,0)" stroke-width="2"  />
			<g>
				<title>His_Phos_1 (PF00300)
"Histidine phosphatase superfamily (branch 1)"</title>
				<polygon class="PF00300" points="52,28 60,28 67,40 60,52 52,52" stroke-linejoin="round" width="18" height="24" fill="rgb(135,184,63)" stroke="rgb(107,147,50)" stroke-width="1" opacity="0.75" />
			</g>
		</g>
		<g>
			<title>dat_2 (PDEEBABA_04069)
Diaminobutyrate--2-oxoglutarate aminotransferase</title>
			<polygon class="dat_2 (PDEEBABA_04069)
Diaminobutyrate--2-oxoglutarate aminotransferase" points="80,25 95,25 95,10 125,40 95,70 95,55 80,55" fill="rgb(255,255,255)" fill-opacity="1.0" stroke="rgb(0,0,0)" stroke-width="2"  />
			<g>
				<title>Aminotran_3 (PF00202)
"Aminotransferase class-III"</title>
				<polygon class="PF00202" points="82,28 108,28 120,40 108,52 82,52" stroke-linejoin="round" width="42" height="24" fill="rgb(49,163,189)" stroke="rgb(39,130,151)" stroke-width="1" opacity="0.75" />
			</g>
		</g>
		<g>
			<title>ddc (PDEEBABA_04070)
L-2,4-diaminobutyrate decarboxylase</title>
			<polygon class="ddc (PDEEBABA_04070)
L-2,4-diaminobutyrate decarboxylase" points="126,25 146,25 146,10 176,40 146,70 146,55 126,55" fill="rgb(255,255,255)" fill-opacity="1.0" stroke="rgb(0,0,0)" stroke-width="2"  />
			<g>
				<title>Pyridoxal_deC (PF00282)
"Pyridoxal-dependent decarboxylase conserved domain"</title>
				<polygon class="PF00282" points="132,28 160,28 169,37 169,43 160,52 132,52" stroke-linejoin="round" width="37" height="24" fill="rgb(100,218,166)" stroke="rgb(80,174,132)" stroke-width="1" opacity="0.75" />
			</g>
		</g>
		<g>
			<title>iucA (PDEEBABA_04071)
N(2)-citryl-N(6)-acetyl-N(6)-hydroxylysine synthase</title>
			<polygon class="iucA (PDEEBABA_04071)
N(2)-citryl-N(6)-acetyl-N(6)-hydroxylysine synthase" points="176,25 206,25 206,10 236,40 206,70 206,55 176,55" fill="rgb(255,255,255)" fill-opacity="1.0" stroke="rgb(0,0,0)" stroke-width="2"  />
			<g>
				<title>IucA_IucC (PF04183)
"IucA / IucC family"</title>
				<rect class="PF04183" x="190" y="28" stroke-linejoin="round" width="23" height="24" fill="rgb(221,104,121)" stroke="rgb(176,83,96)" stroke-width="1" opacity="0.75" />
			</g>
			<g>
				<title>FhuF (PF06276)
"Ferric iron reductase FhuF-like transporter"</title>
				<polygon class="PF06276" points="217,28 219,28 231,40 219,52 217,52" stroke-linejoin="round" width="16" height="24" fill="rgb(76,151,221)" stroke="rgb(60,120,176)" stroke-width="1" opacity="0.75" />
			</g>
		</g>
		<g>
			<title> (PDEEBABA_04072)
hypothetical protein</title>
			<polygon class=" (PDEEBABA_04072)
hypothetical protein" points="236,10 246,40 236,70" fill="rgb(255,255,255)" fill-opacity="1.0" stroke="rgb(0,0,0)" stroke-width="2"  />
			<g>
				<title>Acetyltransf_8 (PF13523)
"Acetyltransferase (GNAT) domain"</title>
				<polygon class="PF13523" points="238,28 238,28 243,40 238,52 238,52" stroke-linejoin="round" width="7" height="24" fill="rgb(106,224,203)" stroke="rgb(84,179,162)" stroke-width="1" opacity="0.75" />
			</g>
		</g>
		<g>
			<title>aacA4 (PDEEBABA_04073)
Aminoglycoside N(6')-acetyltransferase type 1</title>
			<polygon class="aacA4 (PDEEBABA_04073)
Aminoglycoside N(6')-acetyltransferase type 1" points="244,10 254,40 244,70" fill="rgb(255,255,255)" fill-opacity="1.0" stroke="rgb(0,0,0)" stroke-width="2"  />
		</g>
		<g>
			<title>iucD_3 (PDEEBABA_04074)
L-lysine N6-monooxygenase</title>
			<polygon class="iucD_3 (PDEEBABA_04074)
L-lysine N6-monooxygenase" points="254,25 261,25 261,10 291,40 261,70 261,55 254,55" fill="rgb(255,255,255)" fill-opacity="1.0" stroke="rgb(0,0,0)" stroke-width="2"  />
			<g>
				<title>K_oxygenase (PF13434)
"L-lysine 6-monooxygenase (NADPH-requiring)"</title>
				<polygon class="PF13434" points="255,28 275,28 287,40 275,52 255,52" stroke-linejoin="round" width="33" height="24" fill="rgb(81,213,119)" stroke="rgb(64,170,95)" stroke-width="1" opacity="0.75" />
			</g>
		</g>
		<g>
			<title>iucC (PDEEBABA_04075)
Aerobactin synthase</title>
			<polygon class="iucC (PDEEBABA_04075)
Aerobactin synthase" points="299,25 329,25 329,10 359,40 329,70 329,55 299,55" fill="rgb(255,255,255)" fill-opacity="1.0" stroke="rgb(0,0,0)" stroke-width="2"  />
			<g>
				<title>IucA_IucC (PF04183)
"IucA / IucC family"</title>
				<rect class="PF04183" x="313" y="28" stroke-linejoin="round" width="25" height="24" fill="rgb(221,104,121)" stroke="rgb(176,83,96)" stroke-width="1" opacity="0.75" />
			</g>
			<g>
				<title>FhuF (PF06276)
"Ferric iron reductase FhuF-like transporter"</title>
				<polygon class="PF06276" points="340,28 342,28 354,40 342,52 340,52" stroke-linejoin="round" width="16" height="24" fill="rgb(76,151,221)" stroke="rgb(60,120,176)" stroke-width="1" opacity="0.75" />
			</g>
		</g>
		<g>
			<title>iolS (PDEEBABA_04076)
Aldo-keto reductase IolS</title>
			<polygon class="iolS (PDEEBABA_04076)
Aldo-keto reductase IolS" points="361,25 362,25 362,10 392,40 362,70 362,55 361,55" fill="rgb(255,255,255)" fill-opacity="1.0" stroke="rgb(0,0,0)" stroke-width="2"  />
			<g>
				<title>Aldo_ket_red (PF00248)
"Aldo/keto reductase family"</title>
				<polygon class="PF00248" points="362,28 375,28 387,40 375,52 362,52" stroke-linejoin="round" width="29" height="24" fill="rgb(225,205,58)" stroke="rgb(180,164,46)" stroke-width="1" opacity="0.75" />
			</g>
		</g>
		<g>
			<title> (PDEEBABA_04077)
hypothetical protein</title>
			<polygon class=" (PDEEBABA_04077)
hypothetical protein" points="404,10 408,40 404,70" fill="rgb(255,255,255)" fill-opacity="1.0" stroke="rgb(0,0,0)" stroke-width="2"  />
		</g>
		<g>
			<title>icl (PDEEBABA_04078)
Isocitrate lyase</title>
			<polygon class="icl (PDEEBABA_04078)
Isocitrate lyase" points="413,10 429,40 413,70" fill="rgb(255,255,255)" fill-opacity="1.0" stroke="rgb(0,0,0)" stroke-width="2"  />
			<g>
				<title>ICL (PF00463)
"Isocitrate lyase family"</title>
				<polygon class="PF00463" points="413,28 419,28 426,40 419,52 413,52" stroke-linejoin="round" width="16" height="24" fill="rgb(209,76,110)" stroke="rgb(167,60,87)" stroke-width="1" opacity="0.75" />
			</g>
		</g>
		<g>
			<title>aceA (PDEEBABA_04079)
Isocitrate lyase</title>
			<polygon class="aceA (PDEEBABA_04079)
Isocitrate lyase" points="429,10 455,40 429,70" fill="rgb(255,255,255)" fill-opacity="1.0" stroke="rgb(0,0,0)" stroke-width="2"  />
			<g>
				<title>ICL (PF00463)
"Isocitrate lyase family"</title>
				<rect class="PF00463" x="429" y="28" stroke-linejoin="round" width="8" height="24" fill="rgb(209,76,110)" stroke="rgb(167,60,87)" stroke-width="1" opacity="0.75" />
			</g>
			<g>
				<title>ICL (PF00463)
"Isocitrate lyase family"</title>
				<polygon class="PF00463" points="437,28 440,28 451,40 440,52 437,52" stroke-linejoin="round" width="17" height="24" fill="rgb(209,76,110)" stroke="rgb(167,60,87)" stroke-width="1" opacity="0.75" />
			</g>
		</g>
		<g>
			<title> (PDEEBABA_04080)
4-hydroxyphenylacetate 3-monooxygenase oxygenase component</title>
			<polygon class=" (PDEEBABA_04080)
4-hydroxyphenylacetate 3-monooxygenase oxygenase component" points="460,25 478,25 478,10 508,40 478,70 478,55 460,55" fill="rgb(255,255,255)" fill-opacity="1.0" stroke="rgb(0,0,0)" stroke-width="2"  />
			<g>
				<title>HpaB_N (PF11794)
"4-hydroxyphenylacetate 3-hydroxylase N terminal"</title>
				<rect class="PF11794" x="460" y="28" stroke-linejoin="round" width="26" height="24" fill="rgb(122,202,60)" stroke="rgb(97,161,47)" stroke-width="1" opacity="0.75" />
			</g>
			<g>
				<title>HpaB (PF03241)
"4-hydroxyphenylacetate 3-hydroxylase C terminal"</title>
				<polygon class="PF03241" points="487,28 491,28 503,40 491,52 487,52" stroke-linejoin="round" width="19" height="24" fill="rgb(73,153,185)" stroke="rgb(58,122,148)" stroke-width="1" opacity="0.75" />
			</g>
		</g>
		<g>
			<title> (PDEEBABA_04081)
hypothetical protein</title>
			<polygon class=" (PDEEBABA_04081)
hypothetical protein" points="509,40 513,10 513,70" fill="rgb(255,255,255)" fill-opacity="1.0" stroke="rgb(0,0,0)" stroke-width="2"  />
		</g>
	</g>
</svg>
