<svg version="1.1" baseProfile="full" xmlns="http://www.w3.org/2000/svg" width="695.4666666666667" height="80">
	<g>
		<line x1="10" y1="40.0" x2="685.4666666666667" y2="40.0" style="stroke:rgb(70,70,70); stroke-width:3 "/>
		<g>
			<title> (IBGHNMIF_02995)
hypothetical protein</title>
			<polygon class=" (IBGHNMIF_02995)
hypothetical protein" points="37,40 45,10 45,70" fill="rgb(255,255,255)" fill-opacity="1.0" stroke="rgb(0,0,0)" stroke-width="2"  />
		</g>
		<g>
			<title> (IBGHNMIF_02996)
hypothetical protein</title>
			<polygon class=" (IBGHNMIF_02996)
hypothetical protein" points="46,40 52,10 52,70" fill="rgb(255,255,255)" fill-opacity="1.0" stroke="rgb(0,0,0)" stroke-width="2"  />
		</g>
		<g>
			<title> (IBGHNMIF_02997)
hypothetical protein</title>
			<polygon class=" (IBGHNMIF_02997)
hypothetical protein" points="55,40 69,10 69,70" fill="rgb(255,255,255)" fill-opacity="1.0" stroke="rgb(0,0,0)" stroke-width="2"  />
		</g>
		<g>
			<title> (IBGHNMIF_02998)
hypothetical protein</title>
			<polygon class=" (IBGHNMIF_02998)
hypothetical protein" points="84,40 91,10 91,70" fill="rgb(255,255,255)" fill-opacity="1.0" stroke="rgb(0,0,0)" stroke-width="2"  />
		</g>
		<g>
			<title> (IBGHNMIF_02999)
hypothetical protein</title>
			<polygon class=" (IBGHNMIF_02999)
hypothetical protein" points="126,25 122,25 122,10 92,40 122,70 122,55 126,55" fill="rgb(255,255,255)" fill-opacity="1.0" stroke="rgb(0,0,0)" stroke-width="2"  />
			<g>
				<title>DnaB_2 (PF07261)
"Replication initiation and membrane attachment"</title>
				<polygon class="PF07261" points="102,34 108,28 109,28 109,52 108,52 102,46" stroke-linejoin="round" width="7" height="24" fill="rgb(136,193,85)" stroke="rgb(108,154,68)" stroke-width="1" opacity="0.75" />
			</g>
		</g>
		<g>
			<title> (IBGHNMIF_03000)
hypothetical protein</title>
			<polygon class=" (IBGHNMIF_03000)
hypothetical protein" points="126,40 142,10 142,70" fill="rgb(255,255,255)" fill-opacity="1.0" stroke="rgb(0,0,0)" stroke-width="2"  />
		</g>
		<g>
			<title> (IBGHNMIF_03001)
hypothetical protein</title>
			<polygon class=" (IBGHNMIF_03001)
hypothetical protein" points="146,40 156,10 156,70" fill="rgb(255,255,255)" fill-opacity="1.0" stroke="rgb(0,0,0)" stroke-width="2"  />
		</g>
		<g>
			<title> (IBGHNMIF_03002)
hypothetical protein</title>
			<polygon class=" (IBGHNMIF_03002)
hypothetical protein" points="157,40 164,10 164,70" fill="rgb(255,255,255)" fill-opacity="1.0" stroke="rgb(0,0,0)" stroke-width="2"  />
			<g>
				<title>HTH_3 (PF01381)
"Helix-turn-helix"</title>
				<polygon class="PF01381" points="160,40 163,28 164,28 164,52 163,52" stroke-linejoin="round" width="5" height="24" fill="rgb(105,79,202)" stroke="rgb(83,63,161)" stroke-width="1" opacity="0.75" />
			</g>
		</g>
		<g>
			<title> (IBGHNMIF_03003)
hypothetical protein</title>
			<polygon class=" (IBGHNMIF_03003)
hypothetical protein" points="171,10 185,40 171,70" fill="rgb(255,255,255)" fill-opacity="1.0" stroke="rgb(0,0,0)" stroke-width="2"  />
			<g>
				<title>HTH_3 (PF01381)
"Helix-turn-helix"</title>
				<polygon class="PF01381" points="171,28 175,28 176,28 176,52 175,52 171,52" stroke-linejoin="round" width="5" height="24" fill="rgb(105,79,202)" stroke="rgb(83,63,161)" stroke-width="1" opacity="0.75" />
			</g>
		</g>
		<g>
			<title> (IBGHNMIF_03004)
hypothetical protein</title>
			<polygon class=" (IBGHNMIF_03004)
hypothetical protein" points="189,40 205,10 205,70" fill="rgb(255,255,255)" fill-opacity="1.0" stroke="rgb(0,0,0)" stroke-width="2"  />
			<g>
				<title>Acetyltransf_1 (PF00583)
"Acetyltransferase (GNAT) family"</title>
				<polygon class="PF00583" points="193,38 198,28 204,28 204,52 198,52 193,42" stroke-linejoin="round" width="11" height="24" fill="rgb(121,183,50)" stroke="rgb(96,146,39)" stroke-width="1" opacity="0.75" />
			</g>
		</g>
		<g>
			<title> (IBGHNMIF_03005)
hypothetical protein</title>
			<polygon class=" (IBGHNMIF_03005)
hypothetical protein" points="250,25 242,25 242,10 212,40 242,70 242,55 250,55" fill="rgb(255,255,255)" fill-opacity="1.0" stroke="rgb(0,0,0)" stroke-width="2"  />
			<g>
				<title>MFS_1 (PF07690)
"Major Facilitator Superfamily"</title>
				<polygon class="PF07690" points="221,35 228,28 250,28 250,52 228,52 221,45" stroke-linejoin="round" width="29" height="24" fill="rgb(193,224,74)" stroke="rgb(154,179,59)" stroke-width="1" opacity="0.75" />
			</g>
		</g>
		<g>
			<title>asnH (IBGHNMIF_03006)
Asparagine synthetase [glutamine-hydrolyzing] 2</title>
			<polygon class="asnH (IBGHNMIF_03006)
Asparagine synthetase [glutamine-hydrolyzing] 2" points="326,25 282,25 282,10 252,40 282,70 282,55 326,55" fill="rgb(255,255,255)" fill-opacity="1.0" stroke="rgb(0,0,0)" stroke-width="2"  />
			<g>
				<title>Asn_synthase (PF00733)
"Asparagine synthase"</title>
				<polygon class="PF00733" points="263,33 268,28 301,28 301,52 268,52 263,47" stroke-linejoin="round" width="38" height="24" fill="rgb(97,201,176)" stroke="rgb(77,160,140)" stroke-width="1" opacity="0.75" />
			</g>
			<g>
				<title>GATase_7 (PF13537)
"Glutamine amidotransferase domain"</title>
				<rect class="PF13537" x="309" y="28" stroke-linejoin="round" width="11" height="24" fill="rgb(200,63,57)" stroke="rgb(160,50,45)" stroke-width="1" opacity="0.75" />
			</g>
		</g>
		<g>
			<title> (IBGHNMIF_03007)
hypothetical protein</title>
			<polygon class=" (IBGHNMIF_03007)
hypothetical protein" points="327,40 342,10 342,70" fill="rgb(255,255,255)" fill-opacity="1.0" stroke="rgb(0,0,0)" stroke-width="2"  />
		</g>
		<g>
			<title> (IBGHNMIF_03008)
hypothetical protein</title>
			<polygon class=" (IBGHNMIF_03008)
hypothetical protein" points="343,40 351,10 351,70" fill="rgb(255,255,255)" fill-opacity="1.0" stroke="rgb(0,0,0)" stroke-width="2"  />
			<g>
				<title>PqqD (PF05402)
"Coenzyme PQQ synthesis protein D (PqqD)"</title>
				<polygon class="PF05402" points="346,40 350,28 350,28 350,52 350,52" stroke-linejoin="round" width="7" height="24" fill="rgb(124,62,188)" stroke="rgb(99,49,150)" stroke-width="1" opacity="0.75" />
			</g>
		</g>
		<g>
			<title>COQ5_2 (IBGHNMIF_03009)
2-methoxy-6-polyprenyl-1,4-benzoquinol methylase, mitochondrial</title>
			<polygon class="COQ5_2 (IBGHNMIF_03009)
2-methoxy-6-polyprenyl-1,4-benzoquinol methylase, mitochondrial" points="352,40 375,10 375,70" fill="rgb(255,255,255)" fill-opacity="1.0" stroke="rgb(0,0,0)" stroke-width="2"  />
			<g>
				<title>Methyltransf_11 (PF08241)
"Methyltransferase domain"</title>
				<polygon class="PF08241" points="361,34 366,28 370,28 370,52 366,52 361,46" stroke-linejoin="round" width="9" height="24" fill="rgb(106,219,159)" stroke="rgb(84,175,127)" stroke-width="1" opacity="0.75" />
			</g>
		</g>
		<g>
			<title>yxbC (IBGHNMIF_03010)
putative protein YxbC</title>
			<polygon class="yxbC (IBGHNMIF_03010)
putative protein YxbC" points="396,25 399,25 399,10 429,40 399,70 399,55 396,55" fill="rgb(255,255,255)" fill-opacity="1.0" stroke="rgb(0,0,0)" stroke-width="2"  />
			<g>
				<title>Cupin_4 (PF08007)
"Cupin superfamily protein"</title>
				<polygon class="PF08007" points="397,28 412,28 424,40 412,52 397,52" stroke-linejoin="round" width="30" height="24" fill="rgb(100,90,217)" stroke="rgb(80,72,173)" stroke-width="1" opacity="0.75" />
			</g>
		</g>
		<g>
			<title> (IBGHNMIF_03011)
hypothetical protein</title>
			<polygon class=" (IBGHNMIF_03011)
hypothetical protein" points="460,25 460,25 460,10 430,40 460,70 460,55 460,55" fill="rgb(255,255,255)" fill-opacity="1.0" stroke="rgb(0,0,0)" stroke-width="2"  />
			<g>
				<title>HTH_3 (PF01381)
"Helix-turn-helix"</title>
				<rect class="PF01381" x="454" y="28" stroke-linejoin="round" width="5" height="24" fill="rgb(105,79,202)" stroke="rgb(83,63,161)" stroke-width="1" opacity="0.75" />
			</g>
		</g>
		<g>
			<title> (IBGHNMIF_03012)
hypothetical protein</title>
			<polygon class=" (IBGHNMIF_03012)
hypothetical protein" points="466,10 470,40 466,70" fill="rgb(255,255,255)" fill-opacity="1.0" stroke="rgb(0,0,0)" stroke-width="2"  />
		</g>
		<g>
			<title> (IBGHNMIF_03013)
Aminopeptidase 2</title>
			<polygon class=" (IBGHNMIF_03013)
Aminopeptidase 2" points="529,25 518,25 518,10 488,40 518,70 518,55 529,55" fill="rgb(255,255,255)" fill-opacity="1.0" stroke="rgb(0,0,0)" stroke-width="2"  />
			<g>
				<title>Peptidase_M29 (PF02073)
"Thermophilic metalloprotease (M29)"</title>
				<polygon class="PF02073" points="492,40 504,28 528,28 528,52 504,52" stroke-linejoin="round" width="40" height="24" fill="rgb(181,81,92)" stroke="rgb(144,64,73)" stroke-width="1" opacity="0.75" />
			</g>
		</g>
		<g>
			<title> (IBGHNMIF_03014)
hypothetical protein</title>
			<polygon class=" (IBGHNMIF_03014)
hypothetical protein" points="549,40 553,10 553,70" fill="rgb(255,255,255)" fill-opacity="1.0" stroke="rgb(0,0,0)" stroke-width="2"  />
		</g>
		<g>
			<title> (IBGHNMIF_03015)
hypothetical protein</title>
			<polygon class=" (IBGHNMIF_03015)
hypothetical protein" points="554,40 583,10 583,70" fill="rgb(255,255,255)" fill-opacity="1.0" stroke="rgb(0,0,0)" stroke-width="2"  />
			<g>
				<title>ArsP_1 (PF03773)
"Predicted permease"</title>
				<polygon class="PF03773" points="558,40 570,28 582,28 582,52 570,52" stroke-linejoin="round" width="28" height="24" fill="rgb(103,196,76)" stroke="rgb(82,156,60)" stroke-width="1" opacity="0.75" />
			</g>
		</g>
		<g>
			<title>arsR_1 (IBGHNMIF_03016)
Arsenical resistance operon repressor</title>
			<polygon class="arsR_1 (IBGHNMIF_03016)
Arsenical resistance operon repressor" points="592,40 602,10 602,70" fill="rgb(255,255,255)" fill-opacity="1.0" stroke="rgb(0,0,0)" stroke-width="2"  />
			<g>
				<title>HTH_5 (PF01022)
"Bacterial regulatory protein, arsR family"</title>
				<polygon class="PF01022" points="595,40 599,28 599,28 599,52 599,52 595,40" stroke-linejoin="round" width="4" height="24" fill="rgb(95,208,123)" stroke="rgb(76,166,98)" stroke-width="1" opacity="0.75" />
			</g>
		</g>
		<g>
			<title> (IBGHNMIF_03017)
hypothetical protein</title>
			<polygon class=" (IBGHNMIF_03017)
hypothetical protein" points="613,40 626,10 626,70" fill="rgb(255,255,255)" fill-opacity="1.0" stroke="rgb(0,0,0)" stroke-width="2"  />
			<g>
				<title>Acetyltransf_1 (PF00583)
"Acetyltransferase (GNAT) family"</title>
				<polygon class="PF00583" points="616,40 621,28 625,28 625,52 621,52" stroke-linejoin="round" width="11" height="24" fill="rgb(121,183,50)" stroke="rgb(96,146,39)" stroke-width="1" opacity="0.75" />
			</g>
		</g>
		<g>
			<title> (IBGHNMIF_03018)
hypothetical protein</title>
			<polygon class=" (IBGHNMIF_03018)
hypothetical protein" points="628,40 641,10 641,70" fill="rgb(255,255,255)" fill-opacity="1.0" stroke="rgb(0,0,0)" stroke-width="2"  />
			<g>
				<title>NUDIX (PF00293)
"NUDIX domain"</title>
				<polygon class="PF00293" points="631,40 636,28 641,28 641,52 636,52" stroke-linejoin="round" width="12" height="24" fill="rgb(92,56,187)" stroke="rgb(73,44,149)" stroke-width="1" opacity="0.75" />
			</g>
		</g>
		<g>
			<title>bsr (IBGHNMIF_03019)
Blasticidin-S deaminase</title>
			<polygon class="bsr (IBGHNMIF_03019)
Blasticidin-S deaminase" points="646,40 660,10 660,70" fill="rgb(255,255,255)" fill-opacity="1.0" stroke="rgb(0,0,0)" stroke-width="2"  />
			<g>
				<title>dCMP_cyt_deam_1 (PF00383)
"Cytidine and deoxycytidylate deaminase zinc-binding region"</title>
				<polygon class="PF00383" points="649,40 655,28 659,28 659,52 655,52" stroke-linejoin="round" width="11" height="24" fill="rgb(91,149,216)" stroke="rgb(72,119,172)" stroke-width="1" opacity="0.75" />
			</g>
		</g>
	</g>
</svg>
