<svg version="1.1" baseProfile="full" xmlns="http://www.w3.org/2000/svg" width="892.1333333333333" height="80">
	<g>
		<line x1="10" y1="40.0" x2="882.1333333333333" y2="40.0" style="stroke:rgb(70,70,70); stroke-width:3 "/>
		<g>
			<title>arnC_3 (LMCNIFEI_01280)
Undecaprenyl-phosphate 4-deoxy-4-formamido-L-arabinose transferase</title>
			<polygon class="arnC_3 (LMCNIFEI_01280)
Undecaprenyl-phosphate 4-deoxy-4-formamido-L-arabinose transferase" points="54,25 59,25 59,10 89,40 59,70 59,55 54,55" fill="rgb(255,255,255)" fill-opacity="1.0" stroke="rgb(0,0,0)" stroke-width="2"  />
			<g>
				<title>Glycos_transf_2 (PF00535)
"Glycosyl transferase family 2"</title>
				<rect class="PF00535" x="54" y="28" stroke-linejoin="round" width="17" height="24" fill="rgb(224,122,96)" stroke="rgb(179,97,76)" stroke-width="1" opacity="0.75" />
			</g>
		</g>
		<g>
			<title> (LMCNIFEI_01281)
hypothetical protein</title>
			<polygon class=" (LMCNIFEI_01281)
hypothetical protein" points="92,25 99,25 99,10 129,40 99,70 99,55 92,55" fill="rgb(255,255,255)" fill-opacity="1.0" stroke="rgb(0,0,0)" stroke-width="2"  />
			<g>
				<title>Choline_kinase (PF01633)
"Choline/ethanolamine kinase"</title>
				<polygon class="PF01633" points="104,28 113,28 123,38 123,42 113,52 104,52" stroke-linejoin="round" width="19" height="24" fill="rgb(211,229,96)" stroke="rgb(168,183,76)" stroke-width="1" opacity="0.75" />
			</g>
		</g>
		<g>
			<title> (LMCNIFEI_01282)
UDP-glucose 4-epimerase</title>
			<polygon class=" (LMCNIFEI_01282)
UDP-glucose 4-epimerase" points="148,25 150,25 150,10 180,40 150,70 150,55 148,55" fill="rgb(255,255,255)" fill-opacity="1.0" stroke="rgb(0,0,0)" stroke-width="2"  />
			<g>
				<title>GDP_Man_Dehyd (PF16363)
"GDP-mannose 4,6 dehydratase"</title>
				<polygon class="PF16363" points="148,28 164,28 176,40 164,52 148,52" stroke-linejoin="round" width="29" height="24" fill="rgb(162,221,65)" stroke="rgb(129,176,51)" stroke-width="1" opacity="0.75" />
			</g>
		</g>
		<g>
			<title> (LMCNIFEI_01283)
hypothetical protein</title>
			<polygon class=" (LMCNIFEI_01283)
hypothetical protein" points="187,10 211,40 187,70" fill="rgb(255,255,255)" fill-opacity="1.0" stroke="rgb(0,0,0)" stroke-width="2"  />
			<g>
				<title>Metallophos_2 (PF12850)
"Calcineurin-like phosphoesterase superfamily domain"</title>
				<polygon class="PF12850" points="187,28 197,28 206,39 206,41 197,52 187,52" stroke-linejoin="round" width="19" height="24" fill="rgb(143,76,212)" stroke="rgb(114,60,169)" stroke-width="1" opacity="0.75" />
			</g>
		</g>
		<g>
			<title> (LMCNIFEI_01284)
hypothetical protein</title>
			<polygon class=" (LMCNIFEI_01284)
hypothetical protein" points="217,10 246,40 217,70" fill="rgb(255,255,255)" fill-opacity="1.0" stroke="rgb(0,0,0)" stroke-width="2"  />
			<g>
				<title>fn3 (PF00041)
"Fibronectin type III domain"</title>
				<rect class="PF00041" x="222" y="28" stroke-linejoin="round" width="7" height="24" fill="rgb(203,70,135)" stroke="rgb(162,56,107)" stroke-width="1" opacity="0.75" />
			</g>
		</g>
		<g>
			<title> (LMCNIFEI_01285)
hypothetical protein</title>
			<polygon class=" (LMCNIFEI_01285)
hypothetical protein" points="247,25 303,25 303,10 333,40 303,70 303,55 247,55" fill="rgb(255,255,255)" fill-opacity="1.0" stroke="rgb(0,0,0)" stroke-width="2"  />
		</g>
		<g>
			<title>asnO_1 (LMCNIFEI_01286)
Asparagine synthetase [glutamine-hydrolyzing] 3</title>
			<polygon class="asnO_1 (LMCNIFEI_01286)
Asparagine synthetase [glutamine-hydrolyzing] 3" points="343,25 377,25 377,10 407,40 377,70 377,55 343,55" fill="rgb(255,255,255)" fill-opacity="1.0" stroke="rgb(0,0,0)" stroke-width="2"  />
			<g>
				<title>GATase_7 (PF13537)
"Glutamine amidotransferase domain"</title>
				<rect class="PF13537" x="347" y="28" stroke-linejoin="round" width="11" height="24" fill="rgb(200,63,57)" stroke="rgb(160,50,45)" stroke-width="1" opacity="0.75" />
			</g>
			<g>
				<title>Asn_synthase (PF00733)
"Asparagine synthase"</title>
				<polygon class="PF00733" points="367,28 391,28 403,40 403,40 391,52 367,52" stroke-linejoin="round" width="36" height="24" fill="rgb(97,201,176)" stroke="rgb(77,160,140)" stroke-width="1" opacity="0.75" />
			</g>
		</g>
		<g>
			<title> (LMCNIFEI_01287)
hypothetical protein</title>
			<polygon class=" (LMCNIFEI_01287)
hypothetical protein" points="408,10 412,40 408,70" fill="rgb(255,255,255)" fill-opacity="1.0" stroke="rgb(0,0,0)" stroke-width="2"  />
		</g>
		<g>
			<title> (LMCNIFEI_01288)
hypothetical protein</title>
			<polygon class=" (LMCNIFEI_01288)
hypothetical protein" points="418,25 453,25 453,10 483,40 453,70 453,55 418,55" fill="rgb(255,255,255)" fill-opacity="1.0" stroke="rgb(0,0,0)" stroke-width="2"  />
			<g>
				<title>GATase_7 (PF13537)
"Glutamine amidotransferase domain"</title>
				<rect class="PF13537" x="422" y="28" stroke-linejoin="round" width="11" height="24" fill="rgb(200,63,57)" stroke="rgb(160,50,45)" stroke-width="1" opacity="0.75" />
			</g>
			<g>
				<title>Asn_synthase (PF00733)
"Asparagine synthase"</title>
				<polygon class="PF00733" points="442,28 467,28 479,40 467,52 442,52" stroke-linejoin="round" width="38" height="24" fill="rgb(97,201,176)" stroke="rgb(77,160,140)" stroke-width="1" opacity="0.75" />
			</g>
		</g>
		<g>
			<title> (LMCNIFEI_01289)
hypothetical protein</title>
			<polygon class=" (LMCNIFEI_01289)
hypothetical protein" points="483,10 488,40 483,70" fill="rgb(255,255,255)" fill-opacity="1.0" stroke="rgb(0,0,0)" stroke-width="2"  />
		</g>
		<g>
			<title> (LMCNIFEI_01290)
hypothetical protein</title>
			<polygon class=" (LMCNIFEI_01290)
hypothetical protein" points="491,25 493,25 493,10 523,40 493,70 493,55 491,55" fill="rgb(255,255,255)" fill-opacity="1.0" stroke="rgb(0,0,0)" stroke-width="2"  />
			<g>
				<title>Hpr_kinase_C (PF07475)
"HPr Serine kinase C-terminal domain"</title>
				<polygon class="PF07475" points="502,28 506,28 508,30 508,50 506,52 502,52" stroke-linejoin="round" width="6" height="24" fill="rgb(92,54,205)" stroke="rgb(73,43,164)" stroke-width="1" opacity="0.75" />
			</g>
		</g>
		<g>
			<title> (LMCNIFEI_01291)
hypothetical protein</title>
			<polygon class=" (LMCNIFEI_01291)
hypothetical protein" points="522,10 531,40 522,70" fill="rgb(255,255,255)" fill-opacity="1.0" stroke="rgb(0,0,0)" stroke-width="2"  />
		</g>
		<g>
			<title> (LMCNIFEI_01292)
hypothetical protein</title>
			<polygon class=" (LMCNIFEI_01292)
hypothetical protein" points="534,10 548,40 534,70" fill="rgb(255,255,255)" fill-opacity="1.0" stroke="rgb(0,0,0)" stroke-width="2"  />
			<g>
				<title>Transglut_core3 (PF13471)
"Transglutaminase-like superfamily"</title>
				<polygon class="PF13471" points="535,28 539,28 545,40 539,52 535,52" stroke-linejoin="round" width="11" height="24" fill="rgb(63,111,179)" stroke="rgb(50,88,143)" stroke-width="1" opacity="0.75" />
			</g>
		</g>
		<g>
			<title> (LMCNIFEI_01293)
hypothetical protein</title>
			<polygon class=" (LMCNIFEI_01293)
hypothetical protein" points="547,25 556,25 556,10 586,40 556,70 556,55 547,55" fill="rgb(255,255,255)" fill-opacity="1.0" stroke="rgb(0,0,0)" stroke-width="2"  />
			<g>
				<title>NTP_transf_5 (PF14907)
"Uncharacterised nucleotidyltransferase"</title>
				<polygon class="PF14907" points="551,28 569,28 575,34 575,46 569,52 551,52" stroke-linejoin="round" width="24" height="24" fill="rgb(191,137,74)" stroke="rgb(152,109,59)" stroke-width="1" opacity="0.75" />
			</g>
		</g>
		<g>
			<title>btuD_2 (LMCNIFEI_01294)
Vitamin B12 import ATP-binding protein BtuD</title>
			<polygon class="btuD_2 (LMCNIFEI_01294)
Vitamin B12 import ATP-binding protein BtuD" points="587,25 616,25 616,10 646,40 616,70 616,55 587,55" fill="rgb(255,255,255)" fill-opacity="1.0" stroke="rgb(0,0,0)" stroke-width="2"  />
			<g>
				<title>ABC_membrane (PF00664)
"ABC transporter transmembrane region"</title>
				<rect class="PF00664" x="589" y="28" stroke-linejoin="round" width="27" height="24" fill="rgb(149,226,73)" stroke="rgb(119,180,58)" stroke-width="1" opacity="0.75" />
			</g>
			<g>
				<title>ABC_tran (PF00005)
"ABC transporter"</title>
				<polygon class="PF00005" points="624,28 630,28 638,36 638,44 630,52 624,52" stroke-linejoin="round" width="14" height="24" fill="rgb(129,201,63)" stroke="rgb(103,160,50)" stroke-width="1" opacity="0.75" />
			</g>
		</g>
		<g>
			<title>cpdA_1 (LMCNIFEI_01295)
3',5'-cyclic adenosine monophosphate phosphodiesterase CpdA</title>
			<polygon class="cpdA_1 (LMCNIFEI_01295)
3',5'-cyclic adenosine monophosphate phosphodiesterase CpdA" points="647,25 650,25 650,10 680,40 650,70 650,55 647,55" fill="rgb(255,255,255)" fill-opacity="1.0" stroke="rgb(0,0,0)" stroke-width="2"  />
			<g>
				<title>Metallophos (PF00149)
"Calcineurin-like phosphoesterase"</title>
				<polygon class="PF00149" points="651,28 663,28 671,36 671,44 663,52 651,52" stroke-linejoin="round" width="20" height="24" fill="rgb(181,197,58)" stroke="rgb(144,157,46)" stroke-width="1" opacity="0.75" />
			</g>
		</g>
		<g>
			<title> (LMCNIFEI_01296)
hypothetical protein</title>
			<polygon class=" (LMCNIFEI_01296)
hypothetical protein" points="686,25 695,25 695,10 725,40 695,70 695,55 686,55" fill="rgb(255,255,255)" fill-opacity="1.0" stroke="rgb(0,0,0)" stroke-width="2"  />
			<g>
				<title>MFS_1 (PF07690)
"Major Facilitator Superfamily"</title>
				<polygon class="PF07690" points="687,28 709,28 720,39 720,41 709,52 687,52" stroke-linejoin="round" width="33" height="24" fill="rgb(193,224,74)" stroke="rgb(154,179,59)" stroke-width="1" opacity="0.75" />
			</g>
		</g>
		<g>
			<title>hldD (LMCNIFEI_01297)
ADP-L-glycero-D-manno-heptose-6-epimerase</title>
			<polygon class="hldD (LMCNIFEI_01297)
ADP-L-glycero-D-manno-heptose-6-epimerase" points="761,25 756,25 756,10 726,40 756,70 756,55 761,55" fill="rgb(255,255,255)" fill-opacity="1.0" stroke="rgb(0,0,0)" stroke-width="2"  />
			<g>
				<title>NAD_binding_4 (PF07993)
"Male sterility protein"</title>
				<polygon class="PF07993" points="737,33 742,28 760,28 760,52 742,52 737,47" stroke-linejoin="round" width="23" height="24" fill="rgb(100,212,204)" stroke="rgb(80,169,163)" stroke-width="1" opacity="0.75" />
			</g>
		</g>
		<g>
			<title>yvaM_1 (LMCNIFEI_01298)
AB hydrolase superfamily protein YvaM</title>
			<polygon class="yvaM_1 (LMCNIFEI_01298)
AB hydrolase superfamily protein YvaM" points="762,40 788,10 788,70" fill="rgb(255,255,255)" fill-opacity="1.0" stroke="rgb(0,0,0)" stroke-width="2"  />
			<g>
				<title>Abhydrolase_1 (PF00561)
"alpha/beta hydrolase fold"</title>
				<polygon class="PF00561" points="775,30 777,28 787,28 787,52 777,52 775,50" stroke-linejoin="round" width="12" height="24" fill="rgb(86,180,151)" stroke="rgb(68,144,120)" stroke-width="1" opacity="0.75" />
			</g>
		</g>
		<g>
			<title>cstA_1 (LMCNIFEI_01299)
Peptide transporter CstA</title>
			<polygon class="cstA_1 (LMCNIFEI_01299)
Peptide transporter CstA" points="812,25 830,25 830,10 860,40 830,70 830,55 812,55" fill="rgb(255,255,255)" fill-opacity="1.0" stroke="rgb(0,0,0)" stroke-width="2"  />
			<g>
				<title>CstA (PF02554)
"Carbon starvation protein CstA"</title>
				<rect class="PF02554" x="812" y="28" stroke-linejoin="round" width="15" height="24" fill="rgb(153,59,192)" stroke="rgb(122,47,153)" stroke-width="1" opacity="0.75" />
			</g>
			<g>
				<title>CstA (PF02554)
"Carbon starvation protein CstA"</title>
				<rect class="PF02554" x="826" y="28" stroke-linejoin="round" width="14" height="24" fill="rgb(153,59,192)" stroke="rgb(122,47,153)" stroke-width="1" opacity="0.75" />
			</g>
			<g>
				<title>CstA_5TM (PF13722)
"5TM C-terminal transporter carbon starvation CstA"</title>
				<polygon class="PF13722" points="843,28 844,28 854,38 854,42 844,52 843,52" stroke-linejoin="round" width="11" height="24" fill="rgb(224,155,111)" stroke="rgb(179,124,88)" stroke-width="1" opacity="0.75" />
			</g>
		</g>
		<g>
			<title> (LMCNIFEI_01300)
hypothetical protein</title>
			<polygon class=" (LMCNIFEI_01300)
hypothetical protein" points="866,40 873,10 873,70" fill="rgb(255,255,255)" fill-opacity="1.0" stroke="rgb(0,0,0)" stroke-width="2"  />
			<g>
				<title>HTH_16 (PF12645)
"Helix-turn-helix domain"</title>
				<polygon class="PF12645" points="869,40 872,28 872,28 872,52 872,52" stroke-linejoin="round" width="5" height="24" fill="rgb(85,81,181)" stroke="rgb(68,64,144)" stroke-width="1" opacity="0.75" />
			</g>
		</g>
		<g>
			<title> (LMCNIFEI_01301)
hypothetical protein</title>
			<polygon class=" (LMCNIFEI_01301)
hypothetical protein" points="873,40 878,10 878,70" fill="rgb(255,255,255)" fill-opacity="1.0" stroke="rgb(0,0,0)" stroke-width="2"  />
			<g>
				<title>YvrJ (PF12841)
"YvrJ protein family"</title>
				<polygon class="PF12841" points="876,40 876,40 876,40" stroke-linejoin="round" width="3" height="24" fill="rgb(207,53,76)" stroke="rgb(165,42,60)" stroke-width="1" opacity="0.75" />
			</g>
		</g>
	</g>
</svg>
