<svg version="1.1" baseProfile="full" xmlns="http://www.w3.org/2000/svg" width="1389.4333333333334" height="80">
	<g>
		<line x1="10" y1="40.0" x2="1379.4333333333334" y2="40.0" style="stroke:rgb(70,70,70); stroke-width:3 "/>
		<g>
			<title>asnS (FHOLFIBO_03053)
Asparagine--tRNA ligase</title>
			<polygon class="asnS (FHOLFIBO_03053)
Asparagine--tRNA ligase" points="48,25 61,25 61,10 91,40 61,70 61,55 48,55" fill="rgb(255,255,255)" fill-opacity="1.0" stroke="rgb(0,0,0)" stroke-width="2"  />
			<g>
				<title>tRNA_anti-codon (PF01336)
"OB-fold nucleic acid binding domain"</title>
				<rect class="PF01336" x="49" y="28" stroke-linejoin="round" width="7" height="24" fill="rgb(215,103,173)" stroke="rgb(172,82,138)" stroke-width="1" opacity="0.75" />
			</g>
			<g>
				<title>tRNA-synt_2 (PF00152)
"tRNA synthetases class II (D, K and N)"</title>
				<polygon class="PF00152" points="58,28 74,28 86,40 74,52 58,52" stroke-linejoin="round" width="31" height="24" fill="rgb(90,71,190)" stroke="rgb(72,56,152)" stroke-width="1" opacity="0.75" />
			</g>
		</g>
		<g>
			<title>dnaD (FHOLFIBO_03054)
DNA replication protein DnaD</title>
			<polygon class="dnaD (FHOLFIBO_03054)
DNA replication protein DnaD" points="94,10 117,40 94,70" fill="rgb(255,255,255)" fill-opacity="1.0" stroke="rgb(0,0,0)" stroke-width="2"  />
			<g>
				<title>DnaB_2 (PF07261)
"Replication initiation and membrane attachment"</title>
				<polygon class="PF07261" points="106,31 113,40 113,40 106,49" stroke-linejoin="round" width="7" height="24" fill="rgb(136,193,85)" stroke="rgb(108,154,68)" stroke-width="1" opacity="0.75" />
			</g>
		</g>
		<g>
			<title>nth (FHOLFIBO_03055)
Endonuclease III</title>
			<polygon class="nth (FHOLFIBO_03055)
Endonuclease III" points="119,10 139,40 119,70" fill="rgb(255,255,255)" fill-opacity="1.0" stroke="rgb(0,0,0)" stroke-width="2"  />
			<g>
				<title>HhH-GPD (PF00730)
"HhH-GPD superfamily base excision DNA repair protein"</title>
				<polygon class="PF00730" points="120,28 127,28 133,36 133,44 127,52 120,52" stroke-linejoin="round" width="13" height="24" fill="rgb(190,78,115)" stroke="rgb(152,62,92)" stroke-width="1" opacity="0.75" />
			</g>
			<g>
				<title>EndIII_4Fe-2S (PF10576)
"Iron-sulfur binding domain of endonuclease III"</title>
				<polygon class="PF10576" points="136,40 135,40 136,40" stroke-linejoin="round" width="1" height="24" fill="rgb(203,113,64)" stroke="rgb(162,90,51)" stroke-width="1" opacity="0.75" />
			</g>
		</g>
		<g>
			<title>ponA (FHOLFIBO_03056)
Penicillin-binding protein 1A/1B</title>
			<polygon class="ponA (FHOLFIBO_03056)
Penicillin-binding protein 1A/1B" points="230,25 171,25 171,10 141,40 171,70 171,55 230,55" fill="rgb(255,255,255)" fill-opacity="1.0" stroke="rgb(0,0,0)" stroke-width="2"  />
			<g>
				<title>fn3 (PF00041)
"Fibronectin type III domain"</title>
				<polygon class="PF00041" points="154,31 157,28 161,28 161,52 157,52 154,49" stroke-linejoin="round" width="7" height="24" fill="rgb(203,70,135)" stroke="rgb(162,56,107)" stroke-width="1" opacity="0.75" />
			</g>
			<g>
				<title>Transpeptidase (PF00905)
"Penicillin binding protein transpeptidase domain"</title>
				<rect class="PF00905" x="168" y="28" stroke-linejoin="round" width="27" height="24" fill="rgb(161,226,87)" stroke="rgb(128,180,69)" stroke-width="1" opacity="0.75" />
			</g>
			<g>
				<title>Transgly (PF00912)
"Transglycosylase"</title>
				<rect class="PF00912" x="205" y="28" stroke-linejoin="round" width="17" height="24" fill="rgb(172,107,216)" stroke="rgb(137,85,172)" stroke-width="1" opacity="0.75" />
			</g>
		</g>
		<g>
			<title>recU (FHOLFIBO_03057)
Holliday junction resolvase RecU</title>
			<polygon class="recU (FHOLFIBO_03057)
Holliday junction resolvase RecU" points="231,40 250,10 250,70" fill="rgb(255,255,255)" fill-opacity="1.0" stroke="rgb(0,0,0)" stroke-width="2"  />
			<g>
				<title>RecU (PF03838)
"Recombination protein U"</title>
				<polygon class="PF03838" points="235,40 243,28 247,28 247,52 243,52" stroke-linejoin="round" width="16" height="24" fill="rgb(93,204,83)" stroke="rgb(74,163,66)" stroke-width="1" opacity="0.75" />
			</g>
		</g>
		<g>
			<title>racA (FHOLFIBO_03058)
Chromosome-anchoring protein RacA</title>
			<polygon class="racA (FHOLFIBO_03058)
Chromosome-anchoring protein RacA" points="267,10 275,40 267,70" fill="rgb(255,255,255)" fill-opacity="1.0" stroke="rgb(0,0,0)" stroke-width="2"  />
		</g>
		<g>
			<title> (FHOLFIBO_03059)
hypothetical protein</title>
			<polygon class=" (FHOLFIBO_03059)
hypothetical protein" points="278,10 290,40 278,70" fill="rgb(255,255,255)" fill-opacity="1.0" stroke="rgb(0,0,0)" stroke-width="2"  />
			<g>
				<title>DUF1798 (PF08807)
"Bacterial domain of unknown function (DUF1798)"</title>
				<polygon class="PF08807" points="278,28 281,28 286,40 281,52 278,52" stroke-linejoin="round" width="10" height="24" fill="rgb(153,201,81)" stroke="rgb(122,160,64)" stroke-width="1" opacity="0.75" />
			</g>
		</g>
		<g>
			<title>ttgB (FHOLFIBO_03060)
putative efflux pump membrane transporter TtgB</title>
			<polygon class="ttgB (FHOLFIBO_03060)
putative efflux pump membrane transporter TtgB" points="394,25 322,25 322,10 292,40 322,70 322,55 394,55" fill="rgb(255,255,255)" fill-opacity="1.0" stroke="rgb(0,0,0)" stroke-width="2"  />
			<g>
				<title>ACR_tran (PF00873)
"AcrB/AcrD/AcrF family"</title>
				<polygon class="PF00873" points="296,40 308,28 394,28 394,52 308,52" stroke-linejoin="round" width="101" height="24" fill="rgb(63,191,60)" stroke="rgb(50,152,48)" stroke-width="1" opacity="0.75" />
			</g>
		</g>
		<g>
			<title>cdd (FHOLFIBO_03061)
Cytidine deaminase</title>
			<polygon class="cdd (FHOLFIBO_03061)
Cytidine deaminase" points="399,10 412,40 399,70" fill="rgb(255,255,255)" fill-opacity="1.0" stroke="rgb(0,0,0)" stroke-width="2"  />
			<g>
				<title>dCMP_cyt_deam_1 (PF00383)
"Cytidine and deoxycytidylate deaminase zinc-binding region"</title>
				<polygon class="PF00383" points="399,28 403,28 409,40 409,40 403,52 399,52" stroke-linejoin="round" width="10" height="24" fill="rgb(91,149,216)" stroke="rgb(72,119,172)" stroke-width="1" opacity="0.75" />
			</g>
		</g>
		<g>
			<title> (FHOLFIBO_03062)
hypothetical protein</title>
			<polygon class=" (FHOLFIBO_03062)
hypothetical protein" points="438,10 456,40 438,70" fill="rgb(255,255,255)" fill-opacity="1.0" stroke="rgb(0,0,0)" stroke-width="2"  />
			<g>
				<title>Spore-coat_CotD (PF11122)
"Inner spore coat protein D"</title>
				<polygon class="PF11122" points="440,28 445,28 450,36 450,44 445,52 440,52" stroke-linejoin="round" width="10" height="24" fill="rgb(221,153,69)" stroke="rgb(176,122,55)" stroke-width="1" opacity="0.75" />
			</g>
		</g>
		<g>
			<title> (FHOLFIBO_03063)
hypothetical protein</title>
			<polygon class=" (FHOLFIBO_03063)
hypothetical protein" points="459,10 477,40 459,70" fill="rgb(255,255,255)" fill-opacity="1.0" stroke="rgb(0,0,0)" stroke-width="2"  />
			<g>
				<title>YpsA (PF06908)
"YspA SLOG family"</title>
				<polygon class="PF06908" points="459,28 466,28 474,40 466,52 459,52" stroke-linejoin="round" width="16" height="24" fill="rgb(136,100,209)" stroke="rgb(108,80,167)" stroke-width="1" opacity="0.75" />
			</g>
		</g>
		<g>
			<title>gpsB (FHOLFIBO_03064)
Cell cycle protein GpsB</title>
			<polygon class="gpsB (FHOLFIBO_03064)
Cell cycle protein GpsB" points="480,10 490,40 480,70" fill="rgb(255,255,255)" fill-opacity="1.0" stroke="rgb(0,0,0)" stroke-width="2"  />
			<g>
				<title>DivIVA (PF05103)
"DivIVA protein"</title>
				<polygon class="PF05103" points="480,28 482,28 486,37 486,43 482,52 480,52" stroke-linejoin="round" width="6" height="24" fill="rgb(213,106,117)" stroke="rgb(170,84,93)" stroke-width="1" opacity="0.75" />
			</g>
		</g>
		<g>
			<title>rlmL (FHOLFIBO_03065)
Ribosomal RNA large subunit methyltransferase L</title>
			<polygon class="rlmL (FHOLFIBO_03065)
Ribosomal RNA large subunit methyltransferase L" points="510,25 518,25 518,10 548,40 518,70 518,55 510,55" fill="rgb(255,255,255)" fill-opacity="1.0" stroke="rgb(0,0,0)" stroke-width="2"  />
			<g>
				<title>THUMP (PF02926)
"THUMP domain"</title>
				<rect class="PF02926" x="511" y="28" stroke-linejoin="round" width="14" height="24" fill="rgb(52,209,163)" stroke="rgb(41,167,130)" stroke-width="1" opacity="0.75" />
			</g>
			<g>
				<title>UPF0020 (PF01170)
"Putative RNA methylase family UPF0020"</title>
				<polygon class="PF01170" points="526,28 532,28 544,40 532,52 526,52" stroke-linejoin="round" width="20" height="24" fill="rgb(89,182,69)" stroke="rgb(71,145,55)" stroke-width="1" opacity="0.75" />
			</g>
		</g>
		<g>
			<title>ypwA (FHOLFIBO_03066)
Carboxypeptidase 1</title>
			<polygon class="ypwA (FHOLFIBO_03066)
Carboxypeptidase 1" points="571,25 591,25 591,10 621,40 591,70 591,55 571,55" fill="rgb(255,255,255)" fill-opacity="1.0" stroke="rgb(0,0,0)" stroke-width="2"  />
			<g>
				<title>Peptidase_M32 (PF02074)
"Carboxypeptidase Taq (M32) metallopeptidase"</title>
				<polygon class="PF02074" points="571,28 604,28 616,40 604,52 571,52" stroke-linejoin="round" width="48" height="24" fill="rgb(213,142,93)" stroke="rgb(170,113,74)" stroke-width="1" opacity="0.75" />
			</g>
		</g>
		<g>
			<title> (FHOLFIBO_03067)
hypothetical protein</title>
			<polygon class=" (FHOLFIBO_03067)
hypothetical protein" points="623,40 641,10 641,70" fill="rgb(255,255,255)" fill-opacity="1.0" stroke="rgb(0,0,0)" stroke-width="2"  />
		</g>
		<g>
			<title>gno_3 (FHOLFIBO_03068)
Gluconate 5-dehydrogenase</title>
			<polygon class="gno_3 (FHOLFIBO_03068)
Gluconate 5-dehydrogenase" points="645,10 670,40 645,70" fill="rgb(255,255,255)" fill-opacity="1.0" stroke="rgb(0,0,0)" stroke-width="2"  />
			<g>
				<title>adh_short_C2 (PF13561)
"Enoyl-(Acyl carrier protein) reductase"</title>
				<polygon class="PF13561" points="646,28 656,28 666,40 656,52 646,52" stroke-linejoin="round" width="23" height="24" fill="rgb(73,205,127)" stroke="rgb(58,164,101)" stroke-width="1" opacity="0.75" />
			</g>
		</g>
		<g>
			<title> (FHOLFIBO_03069)
Alpha-pyrone synthesis polyketide synthase-like Pks11</title>
			<polygon class=" (FHOLFIBO_03069)
Alpha-pyrone synthesis polyketide synthase-like Pks11" points="676,25 682,25 682,10 712,40 682,70 682,55 676,55" fill="rgb(255,255,255)" fill-opacity="1.0" stroke="rgb(0,0,0)" stroke-width="2"  />
			<g>
				<title>Chal_sti_synt_N (PF00195)
"Chalcone and stilbene synthases, N-terminal domain"</title>
				<polygon class="PF00195" points="680,28 695,28 696,29 696,51 695,52 680,52" stroke-linejoin="round" width="16" height="24" fill="rgb(60,181,161)" stroke="rgb(47,144,128)" stroke-width="1" opacity="0.75" />
			</g>
			<g>
				<title>Chal_sti_synt_C (PF02797)
"Chalcone and stilbene synthases, C-terminal domain"</title>
				<polygon class="PF02797" points="697,30 707,40 697,50" stroke-linejoin="round" width="14" height="24" fill="rgb(139,212,63)" stroke="rgb(111,169,50)" stroke-width="1" opacity="0.75" />
			</g>
		</g>
		<g>
			<title> (FHOLFIBO_03070)
hypothetical protein</title>
			<polygon class=" (FHOLFIBO_03070)
hypothetical protein" points="712,10 729,40 712,70" fill="rgb(255,255,255)" fill-opacity="1.0" stroke="rgb(0,0,0)" stroke-width="2"  />
			<g>
				<title>ICMT (PF04140)
"Isoprenylcysteine carboxyl methyltransferase (ICMT) family"</title>
				<polygon class="PF04140" points="719,29 725,40 719,51" stroke-linejoin="round" width="9" height="24" fill="rgb(100,223,104)" stroke="rgb(80,178,83)" stroke-width="1" opacity="0.75" />
			</g>
		</g>
		<g>
			<title> (FHOLFIBO_03071)
hypothetical protein</title>
			<polygon class=" (FHOLFIBO_03071)
hypothetical protein" points="732,10 738,40 732,70" fill="rgb(255,255,255)" fill-opacity="1.0" stroke="rgb(0,0,0)" stroke-width="2"  />
		</g>
		<g>
			<title> (FHOLFIBO_03072)
hypothetical protein</title>
			<polygon class=" (FHOLFIBO_03072)
hypothetical protein" points="743,10 752,40 743,70" fill="rgb(255,255,255)" fill-opacity="1.0" stroke="rgb(0,0,0)" stroke-width="2"  />
		</g>
		<g>
			<title>rnhA (FHOLFIBO_03073)
14.7 kDa ribonuclease H-like protein</title>
			<polygon class="rnhA (FHOLFIBO_03073)
14.7 kDa ribonuclease H-like protein" points="753,40 766,10 766,70" fill="rgb(255,255,255)" fill-opacity="1.0" stroke="rgb(0,0,0)" stroke-width="2"  />
			<g>
				<title>RVT_3 (PF13456)
"Reverse transcriptase-like"</title>
				<polygon class="PF13456" points="756,40 761,28 766,28 766,52 761,52" stroke-linejoin="round" width="12" height="24" fill="rgb(198,123,86)" stroke="rgb(158,98,68)" stroke-width="1" opacity="0.75" />
			</g>
		</g>
		<g>
			<title> (FHOLFIBO_03074)
queuosine precursor transporter</title>
			<polygon class=" (FHOLFIBO_03074)
queuosine precursor transporter" points="767,40 789,10 789,70" fill="rgb(255,255,255)" fill-opacity="1.0" stroke="rgb(0,0,0)" stroke-width="2"  />
			<g>
				<title>Vut_1 (PF02592)
"Putative vitamin uptake transporter"</title>
				<polygon class="PF02592" points="771,40 780,28 783,28 783,52 780,52" stroke-linejoin="round" width="16" height="24" fill="rgb(93,184,75)" stroke="rgb(74,147,60)" stroke-width="1" opacity="0.75" />
			</g>
		</g>
		<g>
			<title>cspA_1 (FHOLFIBO_03075)
Cold shock protein CspA</title>
			<polygon class="cspA_1 (FHOLFIBO_03075)
Cold shock protein CspA" points="794,40 800,10 800,70" fill="rgb(255,255,255)" fill-opacity="1.0" stroke="rgb(0,0,0)" stroke-width="2"  />
			<g>
				<title>CSD (PF00313)
"'Cold-shock' DNA-binding domain"</title>
				<polygon class="PF00313" points="797,40 800,28 800,28 800,52 800,52" stroke-linejoin="round" width="6" height="24" fill="rgb(87,72,181)" stroke="rgb(69,57,144)" stroke-width="1" opacity="0.75" />
			</g>
		</g>
		<g>
			<title>fhs (FHOLFIBO_03076)
Formate--tetrahydrofolate ligase</title>
			<polygon class="fhs (FHOLFIBO_03076)
Formate--tetrahydrofolate ligase" points="812,25 837,25 837,10 867,40 837,70 837,55 812,55" fill="rgb(255,255,255)" fill-opacity="1.0" stroke="rgb(0,0,0)" stroke-width="2"  />
			<g>
				<title>FTHFS (PF01268)
"Formate--tetrahydrofolate ligase"</title>
				<polygon class="PF01268" points="812,28 851,28 863,40 851,52 812,52" stroke-linejoin="round" width="55" height="24" fill="rgb(215,182,81)" stroke="rgb(172,145,64)" stroke-width="1" opacity="0.75" />
			</g>
		</g>
		<g>
			<title> (FHOLFIBO_03077)
hypothetical protein</title>
			<polygon class=" (FHOLFIBO_03077)
hypothetical protein" points="869,10 897,40 869,70" fill="rgb(255,255,255)" fill-opacity="1.0" stroke="rgb(0,0,0)" stroke-width="2"  />
			<g>
				<title>DUF72 (PF01904)
"Protein of unknown function DUF72"</title>
				<polygon class="PF01904" points="870,28 881,28 893,40 881,52 870,52" stroke-linejoin="round" width="24" height="24" fill="rgb(63,151,204)" stroke="rgb(50,120,163)" stroke-width="1" opacity="0.75" />
			</g>
		</g>
		<g>
			<title>yedJ (FHOLFIBO_03078)
putative protein YedJ</title>
			<polygon class="yedJ (FHOLFIBO_03078)
putative protein YedJ" points="898,10 918,40 898,70" fill="rgb(255,255,255)" fill-opacity="1.0" stroke="rgb(0,0,0)" stroke-width="2"  />
			<g>
				<title>HD (PF01966)
"HD domain"</title>
				<polygon class="PF01966" points="900,28 906,28 909,32 909,48 906,52 900,52" stroke-linejoin="round" width="9" height="24" fill="rgb(92,193,119)" stroke="rgb(73,154,95)" stroke-width="1" opacity="0.75" />
			</g>
		</g>
		<g>
			<title>thyA (FHOLFIBO_03079)
Thymidylate synthase</title>
			<polygon class="thyA (FHOLFIBO_03079)
Thymidylate synthase" points="919,25 921,25 921,10 951,40 921,70 921,55 919,55" fill="rgb(255,255,255)" fill-opacity="1.0" stroke="rgb(0,0,0)" stroke-width="2"  />
			<g>
				<title>Thymidylat_synt (PF00303)
"Thymidylate synthase"</title>
				<polygon class="PF00303" points="919,28 934,28 946,40 934,52 919,52" stroke-linejoin="round" width="31" height="24" fill="rgb(103,91,191)" stroke="rgb(82,72,152)" stroke-width="1" opacity="0.75" />
			</g>
		</g>
		<g>
			<title> (FHOLFIBO_03080)
IS1595 family transposase ISSsu9</title>
			<polygon class=" (FHOLFIBO_03080)
IS1595 family transposase ISSsu9" points="951,10 967,40 951,70" fill="rgb(255,255,255)" fill-opacity="1.0" stroke="rgb(0,0,0)" stroke-width="2"  />
			<g>
				<title>DHFR_1 (PF00186)
"Dihydrofolate reductase"</title>
				<polygon class="PF00186" points="951,28 957,28 964,40 957,52 951,52" stroke-linejoin="round" width="16" height="24" fill="rgb(150,188,63)" stroke="rgb(119,150,50)" stroke-width="1" opacity="0.75" />
			</g>
		</g>
		<g>
			<title>mobA (FHOLFIBO_03081)
Molybdenum cofactor guanylyltransferase</title>
			<polygon class="mobA (FHOLFIBO_03081)
Molybdenum cofactor guanylyltransferase" points="969,10 987,40 969,70" fill="rgb(255,255,255)" fill-opacity="1.0" stroke="rgb(0,0,0)" stroke-width="2"  />
			<g>
				<title>NTP_transf_3 (PF12804)
"MobA-like NTP transferase domain"</title>
				<polygon class="PF12804" points="969,28 976,28 983,38 983,42 976,52 969,52" stroke-linejoin="round" width="14" height="24" fill="rgb(52,209,196)" stroke="rgb(41,167,156)" stroke-width="1" opacity="0.75" />
			</g>
		</g>
		<g>
			<title>tatAd_1 (FHOLFIBO_03082)
Sec-independent protein translocase protein TatAd</title>
			<polygon class="tatAd_1 (FHOLFIBO_03082)
Sec-independent protein translocase protein TatAd" points="992,10 997,40 992,70" fill="rgb(255,255,255)" fill-opacity="1.0" stroke="rgb(0,0,0)" stroke-width="2"  />
			<g>
				<title>MttA_Hcf106 (PF02416)
"mttA/Hcf106 family"</title>
				<polygon class="PF02416" points="992,28 992,28 994,40 992,52 992,52" stroke-linejoin="round" width="5" height="24" fill="rgb(74,206,98)" stroke="rgb(59,164,78)" stroke-width="1" opacity="0.75" />
			</g>
		</g>
		<g>
			<title>tatAd_2 (FHOLFIBO_03083)
Sec-independent protein translocase protein TatAd</title>
			<polygon class="tatAd_2 (FHOLFIBO_03083)
Sec-independent protein translocase protein TatAd" points="999,10 1005,40 999,70" fill="rgb(255,255,255)" fill-opacity="1.0" stroke="rgb(0,0,0)" stroke-width="2"  />
			<g>
				<title>MttA_Hcf106 (PF02416)
"mttA/Hcf106 family"</title>
				<polygon class="PF02416" points="999,28 999,28 1002,40 999,52 999,52" stroke-linejoin="round" width="5" height="24" fill="rgb(74,206,98)" stroke="rgb(59,164,78)" stroke-width="1" opacity="0.75" />
			</g>
		</g>
		<g>
			<title>tatC1 (FHOLFIBO_03084)
Sec-independent protein translocase protein TatCd</title>
			<polygon class="tatC1 (FHOLFIBO_03084)
Sec-independent protein translocase protein TatCd" points="1006,10 1033,40 1006,70" fill="rgb(255,255,255)" fill-opacity="1.0" stroke="rgb(0,0,0)" stroke-width="2"  />
			<g>
				<title>TatC (PF00902)
"Sec-independent protein translocase protein (TatC)"</title>
				<polygon class="PF00902" points="1009,28 1017,28 1028,40 1017,52 1009,52" stroke-linejoin="round" width="20" height="24" fill="rgb(84,193,209)" stroke="rgb(67,154,167)" stroke-width="1" opacity="0.75" />
			</g>
		</g>
		<g>
			<title> (FHOLFIBO_03085)
hypothetical protein</title>
			<polygon class=" (FHOLFIBO_03085)
hypothetical protein" points="1037,10 1044,40 1037,70" fill="rgb(255,255,255)" fill-opacity="1.0" stroke="rgb(0,0,0)" stroke-width="2"  />
			<g>
				<title>YozE_SAM_like (PF06855)
"YozE SAM-like fold"</title>
				<polygon class="PF06855" points="1037,28 1037,28 1041,40 1037,52 1037,52" stroke-linejoin="round" width="6" height="24" fill="rgb(83,201,171)" stroke="rgb(66,160,136)" stroke-width="1" opacity="0.75" />
			</g>
		</g>
		<g>
			<title>sbcD (FHOLFIBO_03086)
Nuclease SbcCD subunit D</title>
			<polygon class="sbcD (FHOLFIBO_03086)
Nuclease SbcCD subunit D" points="1044,25 1052,25 1052,10 1082,40 1052,70 1052,55 1044,55" fill="rgb(255,255,255)" fill-opacity="1.0" stroke="rgb(0,0,0)" stroke-width="2"  />
			<g>
				<title>Metallophos (PF00149)
"Calcineurin-like phosphoesterase"</title>
				<rect class="PF00149" x="1044" y="28" stroke-linejoin="round" width="21" height="24" fill="rgb(181,197,58)" stroke="rgb(144,157,46)" stroke-width="1" opacity="0.75" />
			</g>
			<g>
				<title>SbcD_C (PF12320)
"Type 5 capsule protein repressor C-terminal domain"</title>
				<polygon class="PF12320" points="1070,32 1078,40 1070,48" stroke-linejoin="round" width="9" height="24" fill="rgb(182,136,65)" stroke="rgb(145,108,52)" stroke-width="1" opacity="0.75" />
			</g>
		</g>
		<g>
			<title> (FHOLFIBO_03087)
hypothetical protein</title>
			<polygon class=" (FHOLFIBO_03087)
hypothetical protein" points="1083,25 1156,25 1156,10 1186,40 1156,70 1156,55 1083,55" fill="rgb(255,255,255)" fill-opacity="1.0" stroke="rgb(0,0,0)" stroke-width="2"  />
			<g>
				<title>AAA_23 (PF13476)
"AAA domain"</title>
				<rect class="PF13476" x="1083" y="28" stroke-linejoin="round" width="24" height="24" fill="rgb(57,185,214)" stroke="rgb(45,147,171)" stroke-width="1" opacity="0.75" />
			</g>
			<g>
				<title>SbcCD_C (PF13558)
"Putative exonuclease SbcCD, C subunit"</title>
				<polygon class="PF13558" points="1174,32 1182,40 1182,40 1174,48" stroke-linejoin="round" width="8" height="24" fill="rgb(84,179,84)" stroke="rgb(67,143,67)" stroke-width="1" opacity="0.75" />
			</g>
		</g>
		<g>
			<title>ung (FHOLFIBO_03088)
Uracil-DNA glycosylase</title>
			<polygon class="ung (FHOLFIBO_03088)
Uracil-DNA glycosylase" points="1193,10 1215,40 1193,70" fill="rgb(255,255,255)" fill-opacity="1.0" stroke="rgb(0,0,0)" stroke-width="2"  />
			<g>
				<title>UDG (PF03167)
"Uracil DNA glycosylase superfamily"</title>
				<polygon class="PF03167" points="1197,28 1203,28 1211,40 1203,52 1197,52" stroke-linejoin="round" width="16" height="24" fill="rgb(64,224,60)" stroke="rgb(51,179,48)" stroke-width="1" opacity="0.75" />
			</g>
		</g>
		<g>
			<title> (FHOLFIBO_03089)
hypothetical protein</title>
			<polygon class=" (FHOLFIBO_03089)
hypothetical protein" points="1218,10 1237,40 1218,70" fill="rgb(255,255,255)" fill-opacity="1.0" stroke="rgb(0,0,0)" stroke-width="2"  />
			<g>
				<title>YqfQ (PF14181)
"YqfQ-like protein"</title>
				<polygon class="PF14181" points="1218,28 1226,28 1234,40 1226,52 1218,52" stroke-linejoin="round" width="19" height="24" fill="rgb(207,119,57)" stroke="rgb(165,95,45)" stroke-width="1" opacity="0.75" />
			</g>
		</g>
		<g>
			<title>msrB_1 (FHOLFIBO_03090)
Peptide methionine sulfoxide reductase MsrB</title>
			<polygon class="msrB_1 (FHOLFIBO_03090)
Peptide methionine sulfoxide reductase MsrB" points="1241,25 1243,25 1243,10 1273,40 1243,70 1243,55 1241,55" fill="rgb(255,255,255)" fill-opacity="1.0" stroke="rgb(0,0,0)" stroke-width="2"  />
			<g>
				<title>PMSR (PF01625)
"Peptide methionine sulfoxide reductase"</title>
				<rect class="PF01625" x="1241" y="28" stroke-linejoin="round" width="15" height="24" fill="rgb(201,74,176)" stroke="rgb(160,59,140)" stroke-width="1" opacity="0.75" />
			</g>
			<g>
				<title>SelR (PF01641)
"SelR domain"</title>
				<polygon class="PF01641" points="1259,31 1268,40 1259,49" stroke-linejoin="round" width="12" height="24" fill="rgb(192,99,202)" stroke="rgb(153,79,161)" stroke-width="1" opacity="0.75" />
			</g>
		</g>
		<g>
			<title> (FHOLFIBO_03091)
hypothetical protein</title>
			<polygon class=" (FHOLFIBO_03091)
hypothetical protein" points="1275,10 1294,40 1275,70" fill="rgb(255,255,255)" fill-opacity="1.0" stroke="rgb(0,0,0)" stroke-width="2"  />
			<g>
				<title>TetR_N (PF00440)
"Bacterial regulatory proteins, tetR family"</title>
				<rect class="PF00440" x="1276" y="28" stroke-linejoin="round" width="4" height="24" fill="rgb(73,212,190)" stroke="rgb(58,169,152)" stroke-width="1" opacity="0.75" />
			</g>
		</g>
		<g>
			<title>mhqD (FHOLFIBO_03092)
Putative hydrolase MhqD</title>
			<polygon class="mhqD (FHOLFIBO_03092)
Putative hydrolase MhqD" points="1298,10 1318,40 1298,70" fill="rgb(255,255,255)" fill-opacity="1.0" stroke="rgb(0,0,0)" stroke-width="2"  />
			<g>
				<title>Abhydrolase_2 (PF02230)
"Phospholipase/Carboxylesterase"</title>
				<polygon class="PF02230" points="1298,28 1306,28 1314,40 1306,52 1298,52" stroke-linejoin="round" width="19" height="24" fill="rgb(165,184,75)" stroke="rgb(132,147,60)" stroke-width="1" opacity="0.75" />
			</g>
		</g>
		<g>
			<title> (FHOLFIBO_03093)
hypothetical protein</title>
			<polygon class=" (FHOLFIBO_03093)
hypothetical protein" points="1321,10 1327,40 1321,70" fill="rgb(255,255,255)" fill-opacity="1.0" stroke="rgb(0,0,0)" stroke-width="2"  />
		</g>
	</g>
</svg>
