<svg version="1.1" baseProfile="full" xmlns="http://www.w3.org/2000/svg" width="534.6" height="80">
	<g>
		<line x1="10" y1="40.0" x2="524.6" y2="40.0" style="stroke:rgb(70,70,70); stroke-width:3 "/>
		<g>
			<title> (FHOLFIBO_03882)
hypothetical protein</title>
			<polygon class=" (FHOLFIBO_03882)
hypothetical protein" points="20,10 45,40 20,70" fill="rgb(255,255,255)" fill-opacity="1.0" stroke="rgb(0,0,0)" stroke-width="2"  />
			<g>
				<title>ECF_trnsprt (PF12822)
"ECF transporter, substrate-specific component"</title>
				<polygon class="PF12822" points="25,28 31,28 41,40 31,52 25,52" stroke-linejoin="round" width="17" height="24" fill="rgb(174,181,77)" stroke="rgb(139,144,61)" stroke-width="1" opacity="0.75" />
			</g>
		</g>
		<g>
			<title> (FHOLFIBO_03883)
hypothetical protein</title>
			<polygon class=" (FHOLFIBO_03883)
hypothetical protein" points="48,10 51,40 48,70" fill="rgb(255,255,255)" fill-opacity="1.0" stroke="rgb(0,0,0)" stroke-width="2"  />
			<g>
				<title>YjcZ_2 (PF09680)
"Family of unknown function"</title>
				<polygon class="PF09680" points="49,40 48,40 49,40" stroke-linejoin="round" width="2" height="24" fill="rgb(79,203,107)" stroke="rgb(63,162,85)" stroke-width="1" opacity="0.75" />
			</g>
		</g>
		<g>
			<title> (FHOLFIBO_03884)
hypothetical protein</title>
			<polygon class=" (FHOLFIBO_03884)
hypothetical protein" points="60,40 66,10 66,70" fill="rgb(255,255,255)" fill-opacity="1.0" stroke="rgb(0,0,0)" stroke-width="2"  />
		</g>
		<g>
			<title>fdxA_2 (FHOLFIBO_03885)
Ferredoxin 7Fe</title>
			<polygon class="fdxA_2 (FHOLFIBO_03885)
Ferredoxin 7Fe" points="69,40 76,10 76,70" fill="rgb(255,255,255)" fill-opacity="1.0" stroke="rgb(0,0,0)" stroke-width="2"  />
			<g>
				<title>Fer4 (PF00037)
"4Fe-4S binding domain"</title>
				<polygon class="PF00037" points="72,40 73,36 73,44" stroke-linejoin="round" width="2" height="24" fill="rgb(226,193,80)" stroke="rgb(180,154,64)" stroke-width="1" opacity="0.75" />
			</g>
		</g>
		<g>
			<title> (FHOLFIBO_03886)
hypothetical protein</title>
			<polygon class=" (FHOLFIBO_03886)
hypothetical protein" points="81,10 106,40 81,70" fill="rgb(255,255,255)" fill-opacity="1.0" stroke="rgb(0,0,0)" stroke-width="2"  />
			<g>
				<title>Ion_trans_2 (PF07885)
"Ion channel"</title>
				<polygon class="PF07885" points="92,28 92,28 99,37 99,43 92,52 92,52" stroke-linejoin="round" width="7" height="24" fill="rgb(72,141,189)" stroke="rgb(57,112,151)" stroke-width="1" opacity="0.75" />
			</g>
		</g>
		<g>
			<title> (FHOLFIBO_03887)
hypothetical protein</title>
			<polygon class=" (FHOLFIBO_03887)
hypothetical protein" points="111,10 135,40 111,70" fill="rgb(255,255,255)" fill-opacity="1.0" stroke="rgb(0,0,0)" stroke-width="2"  />
			<g>
				<title>SNase (PF00565)
"Staphylococcal nuclease homologue"</title>
				<polygon class="PF00565" points="116,28 121,28 126,34 126,46 121,52 116,52" stroke-linejoin="round" width="10" height="24" fill="rgb(119,223,110)" stroke="rgb(95,178,88)" stroke-width="1" opacity="0.75" />
			</g>
		</g>
		<g>
			<title>pyrH_2 (FHOLFIBO_03888)
Uridylate kinase</title>
			<polygon class="pyrH_2 (FHOLFIBO_03888)
Uridylate kinase" points="175,25 166,25 166,10 136,40 166,70 166,55 175,55" fill="rgb(255,255,255)" fill-opacity="1.0" stroke="rgb(0,0,0)" stroke-width="2"  />
			<g>
				<title>AA_kinase (PF00696)
"Amino acid kinase family"</title>
				<polygon class="PF00696" points="152,28 152,28 174,28 174,52 152,52 152,52" stroke-linejoin="round" width="22" height="24" fill="rgb(148,78,224)" stroke="rgb(118,62,179)" stroke-width="1" opacity="0.75" />
			</g>
		</g>
		<g>
			<title>iucC (FHOLFIBO_03889)
Aerobactin synthase</title>
			<polygon class="iucC (FHOLFIBO_03889)
Aerobactin synthase" points="236,25 206,25 206,10 176,40 206,70 206,55 236,55" fill="rgb(255,255,255)" fill-opacity="1.0" stroke="rgb(0,0,0)" stroke-width="2"  />
			<g>
				<title>FhuF (PF06276)
"Ferric iron reductase FhuF-like transporter"</title>
				<polygon class="PF06276" points="180,40 192,28 194,28 194,52 192,52" stroke-linejoin="round" width="16" height="24" fill="rgb(76,151,221)" stroke="rgb(60,120,176)" stroke-width="1" opacity="0.75" />
			</g>
			<g>
				<title>IucA_IucC (PF04183)
"IucA / IucC family"</title>
				<rect class="PF04183" x="197" y="28" stroke-linejoin="round" width="25" height="24" fill="rgb(221,104,121)" stroke="rgb(176,83,96)" stroke-width="1" opacity="0.75" />
			</g>
		</g>
		<g>
			<title>iucD_3 (FHOLFIBO_03890)
L-lysine N6-monooxygenase</title>
			<polygon class="iucD_3 (FHOLFIBO_03890)
L-lysine N6-monooxygenase" points="281,25 267,25 267,10 237,40 267,70 267,55 281,55" fill="rgb(255,255,255)" fill-opacity="1.0" stroke="rgb(0,0,0)" stroke-width="2"  />
			<g>
				<title>K_oxygenase (PF13434)
"L-lysine 6-monooxygenase (NADPH-requiring)"</title>
				<polygon class="PF13434" points="247,34 253,28 280,28 280,52 253,52 247,46" stroke-linejoin="round" width="33" height="24" fill="rgb(81,213,119)" stroke="rgb(64,170,95)" stroke-width="1" opacity="0.75" />
			</g>
		</g>
		<g>
			<title>iucB (FHOLFIBO_03891)
N(6)-hydroxylysine O-acetyltransferase</title>
			<polygon class="iucB (FHOLFIBO_03891)
N(6)-hydroxylysine O-acetyltransferase" points="281,40 300,10 300,70" fill="rgb(255,255,255)" fill-opacity="1.0" stroke="rgb(0,0,0)" stroke-width="2"  />
			<g>
				<title>Acetyltransf_8 (PF13523)
"Acetyltransferase (GNAT) domain"</title>
				<polygon class="PF13523" points="285,40 293,28 297,28 297,52 293,52" stroke-linejoin="round" width="14" height="24" fill="rgb(106,224,203)" stroke="rgb(84,179,162)" stroke-width="1" opacity="0.75" />
			</g>
		</g>
		<g>
			<title>iucA (FHOLFIBO_03892)
N(2)-citryl-N(6)-acetyl-N(6)-hydroxylysine synthase</title>
			<polygon class="iucA (FHOLFIBO_03892)
N(2)-citryl-N(6)-acetyl-N(6)-hydroxylysine synthase" points="357,25 330,25 330,10 300,40 330,70 330,55 357,55" fill="rgb(255,255,255)" fill-opacity="1.0" stroke="rgb(0,0,0)" stroke-width="2"  />
			<g>
				<title>FhuF (PF06276)
"Ferric iron reductase FhuF-like transporter"</title>
				<polygon class="PF06276" points="304,40 316,28 317,28 317,52 316,52" stroke-linejoin="round" width="15" height="24" fill="rgb(76,151,221)" stroke="rgb(60,120,176)" stroke-width="1" opacity="0.75" />
			</g>
			<g>
				<title>IucA_IucC (PF04183)
"IucA / IucC family"</title>
				<rect class="PF04183" x="321" y="28" stroke-linejoin="round" width="23" height="24" fill="rgb(221,104,121)" stroke="rgb(176,83,96)" stroke-width="1" opacity="0.75" />
			</g>
		</g>
		<g>
			<title>ddc (FHOLFIBO_03893)
L-2,4-diaminobutyrate decarboxylase</title>
			<polygon class="ddc (FHOLFIBO_03893)
L-2,4-diaminobutyrate decarboxylase" points="408,25 388,25 388,10 358,40 388,70 388,55 408,55" fill="rgb(255,255,255)" fill-opacity="1.0" stroke="rgb(0,0,0)" stroke-width="2"  />
			<g>
				<title>Pyridoxal_deC (PF00282)
"Pyridoxal-dependent decarboxylase conserved domain"</title>
				<polygon class="PF00282" points="365,37 374,28 402,28 402,52 374,52 365,43" stroke-linejoin="round" width="37" height="24" fill="rgb(100,218,166)" stroke="rgb(80,174,132)" stroke-width="1" opacity="0.75" />
			</g>
		</g>
		<g>
			<title>dat_2 (FHOLFIBO_03894)
Diaminobutyrate--2-oxoglutarate aminotransferase</title>
			<polygon class="dat_2 (FHOLFIBO_03894)
Diaminobutyrate--2-oxoglutarate aminotransferase" points="453,25 438,25 438,10 408,40 438,70 438,55 453,55" fill="rgb(255,255,255)" fill-opacity="1.0" stroke="rgb(0,0,0)" stroke-width="2"  />
			<g>
				<title>Aminotran_3 (PF00202)
"Aminotransferase class-III"</title>
				<polygon class="PF00202" points="412,40 424,28 451,28 451,52 424,52" stroke-linejoin="round" width="42" height="24" fill="rgb(49,163,189)" stroke="rgb(39,130,151)" stroke-width="1" opacity="0.75" />
			</g>
		</g>
		<g>
			<title>yfeW (FHOLFIBO_03895)
Putative D-alanyl-D-alanine carboxypeptidase</title>
			<polygon class="yfeW (FHOLFIBO_03895)
Putative D-alanyl-D-alanine carboxypeptidase" points="465,25 491,25 491,10 521,40 491,70 491,55 465,55" fill="rgb(255,255,255)" fill-opacity="1.0" stroke="rgb(0,0,0)" stroke-width="2"  />
			<g>
				<title>Beta-lactamase (PF00144)
"Beta-lactamase"</title>
				<polygon class="PF00144" points="473,28 504,28 507,31 507,49 504,52 473,52" stroke-linejoin="round" width="34" height="24" fill="rgb(92,159,200)" stroke="rgb(73,127,160)" stroke-width="1" opacity="0.75" />
			</g>
			<g>
				<title>Peptidase_M6 (PF05547)
"Immune inhibitor A peptidase M6"</title>
				<polygon class="PF05547" points="507,31 516,40 507,49" stroke-linejoin="round" width="12" height="24" fill="rgb(94,186,68)" stroke="rgb(75,148,54)" stroke-width="1" opacity="0.75" />
			</g>
		</g>
	</g>
</svg>
