<svg version="1.1" baseProfile="full" xmlns="http://www.w3.org/2000/svg" width="366.93333333333334" height="80">
	<g>
		<line x1="10" y1="40.0" x2="356.93333333333334" y2="40.0" style="stroke:rgb(70,70,70); stroke-width:3 "/>
		<g>
			<title> (KKANDCCO_01506)
hypothetical protein</title>
			<polygon class=" (KKANDCCO_01506)
hypothetical protein" points="25,10 29,40 25,70" fill="rgb(255,255,255)" fill-opacity="1.0" stroke="rgb(0,0,0)" stroke-width="2"  />
			<g>
				<title>Sda (PF08970)
"Sporulation inhibitor A"</title>
				<polygon class="PF08970" points="25,31 26,40 25,49" stroke-linejoin="round" width="4" height="24" fill="rgb(118,66,190)" stroke="rgb(94,52,152)" stroke-width="1" opacity="0.75" />
			</g>
		</g>
		<g>
			<title> (KKANDCCO_01507)
hypothetical protein</title>
			<polygon class=" (KKANDCCO_01507)
hypothetical protein" points="33,40 39,10 39,70" fill="rgb(255,255,255)" fill-opacity="1.0" stroke="rgb(0,0,0)" stroke-width="2"  />
		</g>
		<g>
			<title> (KKANDCCO_01508)
hypothetical protein</title>
			<polygon class=" (KKANDCCO_01508)
hypothetical protein" points="42,40 47,10 47,70" fill="rgb(255,255,255)" fill-opacity="1.0" stroke="rgb(0,0,0)" stroke-width="2"  />
		</g>
		<g>
			<title> (KKANDCCO_01509)
hypothetical protein</title>
			<polygon class=" (KKANDCCO_01509)
hypothetical protein" points="92,40 98,10 98,70" fill="rgb(255,255,255)" fill-opacity="1.0" stroke="rgb(0,0,0)" stroke-width="2"  />
			<g>
				<title>YolD (PF08863)
"YolD-like protein"</title>
				<polygon class="PF08863" points="95,40 97,31 97,49" stroke-linejoin="round" width="5" height="24" fill="rgb(210,129,59)" stroke="rgb(168,103,47)" stroke-width="1" opacity="0.75" />
			</g>
		</g>
		<g>
			<title> (KKANDCCO_01510)
hypothetical protein</title>
			<polygon class=" (KKANDCCO_01510)
hypothetical protein" points="112,10 121,40 112,70" fill="rgb(255,255,255)" fill-opacity="1.0" stroke="rgb(0,0,0)" stroke-width="2"  />
		</g>
		<g>
			<title> (KKANDCCO_01511)
hypothetical protein</title>
			<polygon class=" (KKANDCCO_01511)
hypothetical protein" points="134,40 138,10 138,70" fill="rgb(255,255,255)" fill-opacity="1.0" stroke="rgb(0,0,0)" stroke-width="2"  />
		</g>
		<g>
			<title> (KKANDCCO_01512)
hypothetical protein</title>
			<polygon class=" (KKANDCCO_01512)
hypothetical protein" points="143,40 150,10 150,70" fill="rgb(255,255,255)" fill-opacity="1.0" stroke="rgb(0,0,0)" stroke-width="2"  />
		</g>
		<g>
			<title> (KKANDCCO_01513)
hypothetical protein</title>
			<polygon class=" (KKANDCCO_01513)
hypothetical protein" points="148,40 159,10 159,70" fill="rgb(255,255,255)" fill-opacity="1.0" stroke="rgb(0,0,0)" stroke-width="2"  />
		</g>
		<g>
			<title> (KKANDCCO_01514)
hypothetical protein</title>
			<polygon class=" (KKANDCCO_01514)
hypothetical protein" points="176,40 189,10 189,70" fill="rgb(255,255,255)" fill-opacity="1.0" stroke="rgb(0,0,0)" stroke-width="2"  />
			<g>
				<title>DUF2184 (PF09950)
"Uncharacterized protein conserved in bacteria (DUF2184)"</title>
				<polygon class="PF09950" points="179,40 184,28 186,28 186,52 184,52" stroke-linejoin="round" width="10" height="24" fill="rgb(102,213,131)" stroke="rgb(81,170,104)" stroke-width="1" opacity="0.75" />
			</g>
		</g>
		<g>
			<title> (KKANDCCO_01515)
hypothetical protein</title>
			<polygon class=" (KKANDCCO_01515)
hypothetical protein" points="207,25 211,25 211,10 241,40 211,70 211,55 207,55" fill="rgb(255,255,255)" fill-opacity="1.0" stroke="rgb(0,0,0)" stroke-width="2"  />
		</g>
		<g>
			<title>haeIIIM_1 (KKANDCCO_01516)
Modification methylase HaeIII</title>
			<polygon class="haeIIIM_1 (KKANDCCO_01516)
Modification methylase HaeIII" points="281,25 274,25 274,10 244,40 274,70 274,55 281,55" fill="rgb(255,255,255)" fill-opacity="1.0" stroke="rgb(0,0,0)" stroke-width="2"  />
			<g>
				<title>DNA_methylase (PF00145)
"C-5 cytosine-specific DNA methylase"</title>
				<polygon class="PF00145" points="248,40 260,28 280,28 280,52 260,52" stroke-linejoin="round" width="33" height="24" fill="rgb(154,197,70)" stroke="rgb(123,157,56)" stroke-width="1" opacity="0.75" />
			</g>
		</g>
		<g>
			<title> (KKANDCCO_01517)
hypothetical protein</title>
			<polygon class=" (KKANDCCO_01517)
hypothetical protein" points="286,25 287,25 287,10 317,40 287,70 287,55 286,55" fill="rgb(255,255,255)" fill-opacity="1.0" stroke="rgb(0,0,0)" stroke-width="2"  />
			<g>
				<title>RE_NgoFVII (PF09565)
"NgoFVII restriction endonuclease"</title>
				<polygon class="PF09565" points="287,28 300,28 312,40 300,52 287,52" stroke-linejoin="round" width="26" height="24" fill="rgb(223,99,135)" stroke="rgb(178,79,108)" stroke-width="1" opacity="0.75" />
			</g>
		</g>
	</g>
</svg>
