<svg version="1.1" baseProfile="full" xmlns="http://www.w3.org/2000/svg" width="366.23333333333335" height="80">
	<g>
		<line x1="10" y1="40.0" x2="356.23333333333335" y2="40.0" style="stroke:rgb(70,70,70); stroke-width:3 "/>
		<g>
			<title> (GLBNLCJE_01211)
hypothetical protein</title>
			<polygon class=" (GLBNLCJE_01211)
hypothetical protein" points="24,10 35,40 24,70" fill="rgb(255,255,255)" fill-opacity="1.0" stroke="rgb(0,0,0)" stroke-width="2"  />
			<g>
				<title>CMD (PF02627)
"Carboxymuconolactone decarboxylase family"</title>
				<polygon class="PF02627" points="26,28 27,28 32,40 27,52 26,52" stroke-linejoin="round" width="8" height="24" fill="rgb(58,205,164)" stroke="rgb(46,164,131)" stroke-width="1" opacity="0.75" />
			</g>
		</g>
		<g>
			<title> (GLBNLCJE_01212)
hypothetical protein</title>
			<polygon class=" (GLBNLCJE_01212)
hypothetical protein" points="92,25 77,25 77,10 47,40 77,70 77,55 92,55" fill="rgb(255,255,255)" fill-opacity="1.0" stroke="rgb(0,0,0)" stroke-width="2"  />
		</g>
		<g>
			<title>ydaF_3 (GLBNLCJE_01213)
Putative ribosomal N-acetyltransferase YdaF</title>
			<polygon class="ydaF_3 (GLBNLCJE_01213)
Putative ribosomal N-acetyltransferase YdaF" points="94,40 112,10 112,70" fill="rgb(255,255,255)" fill-opacity="1.0" stroke="rgb(0,0,0)" stroke-width="2"  />
			<g>
				<title>Acetyltransf_3 (PF13302)
"Acetyltransferase (GNAT) domain"</title>
				<polygon class="PF13302" points="98,40 106,28 110,28 110,52 106,52" stroke-linejoin="round" width="14" height="24" fill="rgb(105,146,215)" stroke="rgb(84,116,172)" stroke-width="1" opacity="0.75" />
			</g>
		</g>
		<g>
			<title> (GLBNLCJE_01214)
hypothetical protein</title>
			<polygon class=" (GLBNLCJE_01214)
hypothetical protein" points="129,10 139,40 129,70" fill="rgb(255,255,255)" fill-opacity="1.0" stroke="rgb(0,0,0)" stroke-width="2"  />
		</g>
		<g>
			<title> (GLBNLCJE_01215)
hypothetical protein</title>
			<polygon class=" (GLBNLCJE_01215)
hypothetical protein" points="152,40 167,10 167,70" fill="rgb(255,255,255)" fill-opacity="1.0" stroke="rgb(0,0,0)" stroke-width="2"  />
		</g>
		<g>
			<title>ectC (GLBNLCJE_01216)
L-ectoine synthase</title>
			<polygon class="ectC (GLBNLCJE_01216)
L-ectoine synthase" points="176,40 188,10 188,70" fill="rgb(255,255,255)" fill-opacity="1.0" stroke="rgb(0,0,0)" stroke-width="2"  />
			<g>
				<title>Ectoine_synth (PF06339)
"Ectoine synthase"</title>
				<polygon class="PF06339" points="179,40 184,28 188,28 188,52 184,52" stroke-linejoin="round" width="12" height="24" fill="rgb(225,176,81)" stroke="rgb(180,140,64)" stroke-width="1" opacity="0.75" />
			</g>
		</g>
		<g>
			<title> (GLBNLCJE_01217)
hypothetical protein</title>
			<polygon class=" (GLBNLCJE_01217)
hypothetical protein" points="199,40 226,10 226,70" fill="rgb(255,255,255)" fill-opacity="1.0" stroke="rgb(0,0,0)" stroke-width="2"  />
			<g>
				<title>GGDEF (PF00990)
"Diguanylate cyclase, GGDEF domain"</title>
				<polygon class="PF00990" points="203,40 214,28 214,28 214,52 214,52" stroke-linejoin="round" width="15" height="24" fill="rgb(62,170,199)" stroke="rgb(49,135,159)" stroke-width="1" opacity="0.75" />
			</g>
		</g>
		<g>
			<title> (GLBNLCJE_01218)
hypothetical protein</title>
			<polygon class=" (GLBNLCJE_01218)
hypothetical protein" points="236,40 243,10 243,70" fill="rgb(255,255,255)" fill-opacity="1.0" stroke="rgb(0,0,0)" stroke-width="2"  />
		</g>
		<g>
			<title> (GLBNLCJE_01219)
hypothetical protein</title>
			<polygon class=" (GLBNLCJE_01219)
hypothetical protein" points="243,40 252,10 252,70" fill="rgb(255,255,255)" fill-opacity="1.0" stroke="rgb(0,0,0)" stroke-width="2"  />
		</g>
		<g>
			<title>ykuI (GLBNLCJE_01220)
putative EAL-domain containing protein YkuI</title>
			<polygon class="ykuI (GLBNLCJE_01220)
putative EAL-domain containing protein YkuI" points="297,25 287,25 287,10 257,40 287,70 287,55 297,55" fill="rgb(255,255,255)" fill-opacity="1.0" stroke="rgb(0,0,0)" stroke-width="2"  />
			<g>
				<title>YkuI_C (PF10388)
"EAL-domain associated signalling protein domain"</title>
				<polygon class="PF10388" points="261,40 273,28 273,28 273,52 273,52" stroke-linejoin="round" width="16" height="24" fill="rgb(56,196,67)" stroke="rgb(44,156,53)" stroke-width="1" opacity="0.75" />
			</g>
			<g>
				<title>EAL (PF00563)
"EAL domain"</title>
				<rect class="PF00563" x="274" y="28" stroke-linejoin="round" width="22" height="24" fill="rgb(204,100,120)" stroke="rgb(163,80,96)" stroke-width="1" opacity="0.75" />
			</g>
		</g>
	</g>
</svg>
