<svg version="1.1" baseProfile="full" xmlns="http://www.w3.org/2000/svg" width="1286.6666666666667" height="80">
	<g>
		<line x1="10" y1="40.0" x2="1276.6666666666667" y2="40.0" style="stroke:rgb(70,70,70); stroke-width:3 "/>
		<g>
			<title>degU_2 (GKEONEKI_02219)
Transcriptional regulatory protein DegU</title>
			<polygon class="degU_2 (GKEONEKI_02219)
Transcriptional regulatory protein DegU" points="12,10 33,40 12,70" fill="rgb(255,255,255)" fill-opacity="1.0" stroke="rgb(0,0,0)" stroke-width="2"  />
			<g>
				<title>Response_reg (PF00072)
"Response regulator receiver domain"</title>
				<polygon class="PF00072" points="12,28 21,28 23,31 23,49 21,52 12,52" stroke-linejoin="round" width="11" height="24" fill="rgb(100,107,203)" stroke="rgb(80,85,162)" stroke-width="1" opacity="0.75" />
			</g>
			<g>
				<title>GerE (PF00196)
"Bacterial regulatory proteins, luxR family"</title>
				<polygon class="PF00196" points="26,35 30,40 26,45" stroke-linejoin="round" width="5" height="24" fill="rgb(219,94,82)" stroke="rgb(175,75,65)" stroke-width="1" opacity="0.75" />
			</g>
		</g>
		<g>
			<title> (GKEONEKI_02220)
hypothetical protein</title>
			<polygon class=" (GKEONEKI_02220)
hypothetical protein" points="40,25 45,25 45,10 75,40 45,70 45,55 40,55" fill="rgb(255,255,255)" fill-opacity="1.0" stroke="rgb(0,0,0)" stroke-width="2"  />
		</g>
		<g>
			<title>sipW (GKEONEKI_02221)
Signal peptidase I W</title>
			<polygon class="sipW (GKEONEKI_02221)
Signal peptidase I W" points="75,10 93,40 75,70" fill="rgb(255,255,255)" fill-opacity="1.0" stroke="rgb(0,0,0)" stroke-width="2"  />
			<g>
				<title>Peptidase_S24 (PF00717)
"Peptidase S24-like"</title>
				<polygon class="PF00717" points="79,28 82,28 86,34 86,46 82,52 79,52" stroke-linejoin="round" width="7" height="24" fill="rgb(180,76,105)" stroke="rgb(144,60,83)" stroke-width="1" opacity="0.75" />
			</g>
		</g>
		<g>
			<title> (GKEONEKI_02222)
hypothetical protein</title>
			<polygon class=" (GKEONEKI_02222)
hypothetical protein" points="95,10 114,40 95,70" fill="rgb(255,255,255)" fill-opacity="1.0" stroke="rgb(0,0,0)" stroke-width="2"  />
			<g>
				<title>Peptidase_M73 (PF12389)
"Camelysin metallo-endopeptidase"</title>
				<polygon class="PF12389" points="95,28 103,28 111,40 103,52 95,52" stroke-linejoin="round" width="19" height="24" fill="rgb(181,162,76)" stroke="rgb(144,129,60)" stroke-width="1" opacity="0.75" />
			</g>
		</g>
		<g>
			<title>nprB (GKEONEKI_02223)
Neutral protease B</title>
			<polygon class="nprB (GKEONEKI_02223)
Neutral protease B" points="117,25 142,25 142,10 172,40 142,70 142,55 117,55" fill="rgb(255,255,255)" fill-opacity="1.0" stroke="rgb(0,0,0)" stroke-width="2"  />
			<g>
				<title>FTP (PF07504)
"Fungalysin/Thermolysin Propeptide Motif"</title>
				<rect class="PF07504" x="125" y="28" stroke-linejoin="round" width="5" height="24" fill="rgb(225,91,194)" stroke="rgb(180,72,155)" stroke-width="1" opacity="0.75" />
			</g>
			<g>
				<title>PepSY (PF03413)
"Peptidase propeptide and YPEB domain"</title>
				<rect class="PF03413" x="132" y="28" stroke-linejoin="round" width="7" height="24" fill="rgb(127,66,203)" stroke="rgb(101,52,162)" stroke-width="1" opacity="0.75" />
			</g>
			<g>
				<title>Peptidase_M4 (PF01447)
"Thermolysin metallopeptidase, catalytic domain"</title>
				<rect class="PF01447" x="140" y="28" stroke-linejoin="round" width="15" height="24" fill="rgb(71,102,203)" stroke="rgb(56,81,162)" stroke-width="1" opacity="0.75" />
			</g>
			<g>
				<title>Peptidase_M4_C (PF02868)
"Thermolysin metallopeptidase, alpha-helical domain"</title>
				<polygon class="PF02868" points="155,28 156,28 168,40 156,52 155,52" stroke-linejoin="round" width="16" height="24" fill="rgb(184,92,211)" stroke="rgb(147,73,168)" stroke-width="1" opacity="0.75" />
			</g>
		</g>
		<g>
			<title> (GKEONEKI_02224)
hypothetical protein</title>
			<polygon class=" (GKEONEKI_02224)
hypothetical protein" points="180,10 198,40 180,70" fill="rgb(255,255,255)" fill-opacity="1.0" stroke="rgb(0,0,0)" stroke-width="2"  />
		</g>
		<g>
			<title> (GKEONEKI_02225)
hypothetical protein</title>
			<polygon class=" (GKEONEKI_02225)
hypothetical protein" points="199,25 203,25 203,10 233,40 203,70 203,55 199,55" fill="rgb(255,255,255)" fill-opacity="1.0" stroke="rgb(0,0,0)" stroke-width="2"  />
			<g>
				<title>DUF2332 (PF10094)
"Uncharacterized protein conserved in bacteria (DUF2332)"</title>
				<polygon class="PF10094" points="199,28 217,28 229,40 217,52 199,52" stroke-linejoin="round" width="33" height="24" fill="rgb(180,85,205)" stroke="rgb(144,68,164)" stroke-width="1" opacity="0.75" />
			</g>
		</g>
		<g>
			<title> (GKEONEKI_02226)
hypothetical protein</title>
			<polygon class=" (GKEONEKI_02226)
hypothetical protein" points="236,10 257,40 236,70" fill="rgb(255,255,255)" fill-opacity="1.0" stroke="rgb(0,0,0)" stroke-width="2"  />
			<g>
				<title>Acetyltransf_1 (PF00583)
"Acetyltransferase (GNAT) family"</title>
				<polygon class="PF00583" points="237,28 245,28 248,33 248,47 245,52 237,52" stroke-linejoin="round" width="11" height="24" fill="rgb(121,183,50)" stroke="rgb(96,146,39)" stroke-width="1" opacity="0.75" />
			</g>
		</g>
		<g>
			<title> (GKEONEKI_02227)
hypothetical protein</title>
			<polygon class=" (GKEONEKI_02227)
hypothetical protein" points="279,25 312,25 312,10 342,40 312,70 312,55 279,55" fill="rgb(255,255,255)" fill-opacity="1.0" stroke="rgb(0,0,0)" stroke-width="2"  />
		</g>
		<g>
			<title> (GKEONEKI_02228)
hypothetical protein</title>
			<polygon class=" (GKEONEKI_02228)
hypothetical protein" points="343,25 377,25 377,10 407,40 377,70 377,55 343,55" fill="rgb(255,255,255)" fill-opacity="1.0" stroke="rgb(0,0,0)" stroke-width="2"  />
			<g>
				<title>YcaO (PF02624)
"YcaO cyclodehydratase, ATP-ad Mg2+-binding"</title>
				<polygon class="PF02624" points="369,28 391,28 403,40 403,40 391,52 369,52" stroke-linejoin="round" width="34" height="24" fill="rgb(76,84,185)" stroke="rgb(60,67,148)" stroke-width="1" opacity="0.75" />
			</g>
		</g>
		<g>
			<title> (GKEONEKI_02229)
hypothetical protein</title>
			<polygon class=" (GKEONEKI_02229)
hypothetical protein" points="408,25 429,25 429,10 459,40 429,70 429,55 408,55" fill="rgb(255,255,255)" fill-opacity="1.0" stroke="rgb(0,0,0)" stroke-width="2"  />
		</g>
		<g>
			<title> (GKEONEKI_02230)
hypothetical protein</title>
			<polygon class=" (GKEONEKI_02230)
hypothetical protein" points="466,10 481,40 466,70" fill="rgb(255,255,255)" fill-opacity="1.0" stroke="rgb(0,0,0)" stroke-width="2"  />
			<g>
				<title>DinB_2 (PF12867)
"DinB superfamily"</title>
				<polygon class="PF12867" points="466,28 471,28 477,40 471,52 466,52" stroke-linejoin="round" width="13" height="24" fill="rgb(184,90,185)" stroke="rgb(147,72,148)" stroke-width="1" opacity="0.75" />
			</g>
		</g>
		<g>
			<title>fdhA (GKEONEKI_02231)
Glutathione-independent formaldehyde dehydrogenase</title>
			<polygon class="fdhA (GKEONEKI_02231)
Glutathione-independent formaldehyde dehydrogenase" points="525,25 515,25 515,10 485,40 515,70 515,55 525,55" fill="rgb(255,255,255)" fill-opacity="1.0" stroke="rgb(0,0,0)" stroke-width="2"  />
			<g>
				<title>ADH_zinc_N (PF00107)
"Zinc-binding dehydrogenase"</title>
				<polygon class="PF00107" points="497,32 501,28 504,28 504,52 501,52 497,48" stroke-linejoin="round" width="7" height="24" fill="rgb(81,108,215)" stroke="rgb(64,86,172)" stroke-width="1" opacity="0.75" />
			</g>
			<g>
				<title>ADH_N (PF08240)
"Alcohol dehydrogenase GroES-like domain"</title>
				<rect class="PF08240" x="509" y="28" stroke-linejoin="round" width="11" height="24" fill="rgb(211,65,138)" stroke="rgb(168,51,110)" stroke-width="1" opacity="0.75" />
			</g>
		</g>
		<g>
			<title> (GKEONEKI_02232)
hypothetical protein</title>
			<polygon class=" (GKEONEKI_02232)
hypothetical protein" points="536,10 563,40 536,70" fill="rgb(255,255,255)" fill-opacity="1.0" stroke="rgb(0,0,0)" stroke-width="2"  />
			<g>
				<title>STAS (PF01740)
"STAS domain"</title>
				<polygon class="PF01740" points="552,32 559,40 552,48" stroke-linejoin="round" width="10" height="24" fill="rgb(219,58,116)" stroke="rgb(175,46,92)" stroke-width="1" opacity="0.75" />
			</g>
		</g>
		<g>
			<title>pbuG_1 (GKEONEKI_02233)
Guanine/hypoxanthine permease PbuG</title>
			<polygon class="pbuG_1 (GKEONEKI_02233)
Guanine/hypoxanthine permease PbuG" points="578,25 591,25 591,10 621,40 591,70 591,55 578,55" fill="rgb(255,255,255)" fill-opacity="1.0" stroke="rgb(0,0,0)" stroke-width="2"  />
			<g>
				<title>Xan_ur_permease (PF00860)
"Permease family"</title>
				<polygon class="PF00860" points="579,28 604,28 616,40 616,40 604,52 579,52" stroke-linejoin="round" width="37" height="24" fill="rgb(216,88,217)" stroke="rgb(172,70,173)" stroke-width="1" opacity="0.75" />
			</g>
		</g>
		<g>
			<title> (GKEONEKI_02234)
Peroxiredoxin</title>
			<polygon class=" (GKEONEKI_02234)
Peroxiredoxin" points="624,40 646,10 646,70" fill="rgb(255,255,255)" fill-opacity="1.0" stroke="rgb(0,0,0)" stroke-width="2"  />
			<g>
				<title>1-cysPrx_C (PF10417)
"C-terminal domain of 1-Cys peroxiredoxin"</title>
				<polygon class="PF10417" points="628,40 628,40 628,40" stroke-linejoin="round" width="3" height="24" fill="rgb(80,189,172)" stroke="rgb(64,151,137)" stroke-width="1" opacity="0.75" />
			</g>
			<g>
				<title>AhpC-TSA (PF00578)
"AhpC/TSA family"</title>
				<polygon class="PF00578" points="631,36 637,28 644,28 644,52 637,52 631,44" stroke-linejoin="round" width="13" height="24" fill="rgb(166,71,190)" stroke="rgb(132,56,152)" stroke-width="1" opacity="0.75" />
			</g>
		</g>
		<g>
			<title> (GKEONEKI_02235)
hypothetical protein</title>
			<polygon class=" (GKEONEKI_02235)
hypothetical protein" points="655,10 674,40 655,70" fill="rgb(255,255,255)" fill-opacity="1.0" stroke="rgb(0,0,0)" stroke-width="2"  />
			<g>
				<title>DUF4256 (PF14066)
"Protein of unknown function (DUF4256)"</title>
				<polygon class="PF14066" points="657,28 663,28 670,40 663,52 657,52" stroke-linejoin="round" width="17" height="24" fill="rgb(55,178,73)" stroke="rgb(44,142,58)" stroke-width="1" opacity="0.75" />
			</g>
		</g>
		<g>
			<title> (GKEONEKI_02236)
hypothetical protein</title>
			<polygon class=" (GKEONEKI_02236)
hypothetical protein" points="706,25 706,25 706,10 676,40 706,70 706,55 706,55" fill="rgb(255,255,255)" fill-opacity="1.0" stroke="rgb(0,0,0)" stroke-width="2"  />
			<g>
				<title>VanW (PF04294)
"VanW like protein"</title>
				<polygon class="PF04294" points="680,40 690,30 690,50" stroke-linejoin="round" width="12" height="24" fill="rgb(52,93,183)" stroke="rgb(41,74,146)" stroke-width="1" opacity="0.75" />
			</g>
			<g>
				<title>PG_binding_4 (PF12229)
"Putative peptidoglycan binding domain"</title>
				<rect class="PF12229" x="695" y="28" stroke-linejoin="round" width="9" height="24" fill="rgb(140,107,215)" stroke="rgb(112,85,172)" stroke-width="1" opacity="0.75" />
			</g>
		</g>
		<g>
			<title> (GKEONEKI_02237)
hypothetical protein</title>
			<polygon class=" (GKEONEKI_02237)
hypothetical protein" points="711,10 726,40 711,70" fill="rgb(255,255,255)" fill-opacity="1.0" stroke="rgb(0,0,0)" stroke-width="2"  />
		</g>
		<g>
			<title> (GKEONEKI_02238)
hypothetical protein</title>
			<polygon class=" (GKEONEKI_02238)
hypothetical protein" points="739,10 760,40 739,70" fill="rgb(255,255,255)" fill-opacity="1.0" stroke="rgb(0,0,0)" stroke-width="2"  />
		</g>
		<g>
			<title> (GKEONEKI_02239)
hypothetical protein</title>
			<polygon class=" (GKEONEKI_02239)
hypothetical protein" points="763,40 787,10 787,70" fill="rgb(255,255,255)" fill-opacity="1.0" stroke="rgb(0,0,0)" stroke-width="2"  />
			<g>
				<title>Gamma_PGA_hydro (PF05908)
"Poly-gamma-glutamate hydrolase"</title>
				<polygon class="PF05908" points="767,40 777,28 783,28 783,52 777,52" stroke-linejoin="round" width="19" height="24" fill="rgb(198,222,77)" stroke="rgb(158,177,61)" stroke-width="1" opacity="0.75" />
			</g>
		</g>
		<g>
			<title>dacC_2 (GKEONEKI_02240)
D-alanyl-D-alanine carboxypeptidase DacC</title>
			<polygon class="dacC_2 (GKEONEKI_02240)
D-alanyl-D-alanine carboxypeptidase DacC" points="797,25 816,25 816,10 846,40 816,70 816,55 797,55" fill="rgb(255,255,255)" fill-opacity="1.0" stroke="rgb(0,0,0)" stroke-width="2"  />
			<g>
				<title>Peptidase_S13 (PF02113)
"D-Ala-D-Ala carboxypeptidase 3 (S13) family"</title>
				<polygon class="PF02113" points="800,28 830,28 842,40 830,52 800,52" stroke-linejoin="round" width="45" height="24" fill="rgb(222,106,76)" stroke="rgb(177,84,60)" stroke-width="1" opacity="0.75" />
			</g>
		</g>
		<g>
			<title>nhaH (GKEONEKI_02241)
Na(+)/H(+) antiporter NhaH</title>
			<polygon class="nhaH (GKEONEKI_02241)
Na(+)/H(+) antiporter NhaH" points="850,25 860,25 860,10 890,40 860,70 860,55 850,55" fill="rgb(255,255,255)" fill-opacity="1.0" stroke="rgb(0,0,0)" stroke-width="2"  />
			<g>
				<title>Na_H_Exchanger (PF00999)
"Sodium/hydrogen exchanger family"</title>
				<polygon class="PF00999" points="851,28 874,28 886,40 874,52 851,52" stroke-linejoin="round" width="38" height="24" fill="rgb(229,67,191)" stroke="rgb(183,53,152)" stroke-width="1" opacity="0.75" />
			</g>
		</g>
		<g>
			<title>cobB (GKEONEKI_02242)
NAD-dependent protein deacetylase</title>
			<polygon class="cobB (GKEONEKI_02242)
NAD-dependent protein deacetylase" points="893,40 917,10 917,70" fill="rgb(255,255,255)" fill-opacity="1.0" stroke="rgb(0,0,0)" stroke-width="2"  />
			<g>
				<title>SIR2 (PF02146)
"Sir2 family"</title>
				<polygon class="PF02146" points="898,39 907,28 915,28 915,52 907,52 898,41" stroke-linejoin="round" width="17" height="24" fill="rgb(83,217,165)" stroke="rgb(66,173,132)" stroke-width="1" opacity="0.75" />
			</g>
		</g>
		<g>
			<title>nfrA1 (GKEONEKI_02243)
FMN reductase (NADPH)</title>
			<polygon class="nfrA1 (GKEONEKI_02243)
FMN reductase (NADPH)" points="918,40 942,10 942,70" fill="rgb(255,255,255)" fill-opacity="1.0" stroke="rgb(0,0,0)" stroke-width="2"  />
			<g>
				<title>Nitroreductase (PF00881)
"Nitroreductase family"</title>
				<polygon class="PF00881" points="926,35 932,28 941,28 941,52 932,52 926,45" stroke-linejoin="round" width="15" height="24" fill="rgb(79,118,187)" stroke="rgb(63,94,149)" stroke-width="1" opacity="0.75" />
			</g>
		</g>
		<g>
			<title> (GKEONEKI_02244)
hypothetical protein</title>
			<polygon class=" (GKEONEKI_02244)
hypothetical protein" points="943,40 965,10 965,70" fill="rgb(255,255,255)" fill-opacity="1.0" stroke="rgb(0,0,0)" stroke-width="2"  />
		</g>
		<g>
			<title> (GKEONEKI_02245)
hypothetical protein</title>
			<polygon class=" (GKEONEKI_02245)
hypothetical protein" points="971,10 982,40 971,70" fill="rgb(255,255,255)" fill-opacity="1.0" stroke="rgb(0,0,0)" stroke-width="2"  />
		</g>
		<g>
			<title> (GKEONEKI_02246)
hypothetical protein</title>
			<polygon class=" (GKEONEKI_02246)
hypothetical protein" points="983,40 991,10 991,70" fill="rgb(255,255,255)" fill-opacity="1.0" stroke="rgb(0,0,0)" stroke-width="2"  />
		</g>
		<g>
			<title>drrA (GKEONEKI_02247)
Doxorubicin resistance ATP-binding protein DrrA</title>
			<polygon class="drrA (GKEONEKI_02247)
Doxorubicin resistance ATP-binding protein DrrA" points="1004,25 1006,25 1006,10 1036,40 1006,70 1006,55 1004,55" fill="rgb(255,255,255)" fill-opacity="1.0" stroke="rgb(0,0,0)" stroke-width="2"  />
			<g>
				<title>ABC_tran (PF00005)
"ABC transporter"</title>
				<rect class="PF00005" x="1006" y="28" stroke-linejoin="round" width="14" height="24" fill="rgb(129,201,63)" stroke="rgb(103,160,50)" stroke-width="1" opacity="0.75" />
			</g>
			<g>
				<title>DUF4162 (PF13732)
"Domain of unknown function (DUF4162)"</title>
				<polygon class="PF13732" points="1026,34 1032,40 1026,46" stroke-linejoin="round" width="9" height="24" fill="rgb(100,223,143)" stroke="rgb(80,178,114)" stroke-width="1" opacity="0.75" />
			</g>
		</g>
		<g>
			<title>drrB (GKEONEKI_02248)
Daunorubicin/doxorubicin resistance ABC transporter permease protein DrrB</title>
			<polygon class="drrB (GKEONEKI_02248)
Daunorubicin/doxorubicin resistance ABC transporter permease protein DrrB" points="1036,10 1062,40 1036,70" fill="rgb(255,255,255)" fill-opacity="1.0" stroke="rgb(0,0,0)" stroke-width="2"  />
			<g>
				<title>ABC2_membrane (PF01061)
"ABC-2 type transporter"</title>
				<polygon class="PF01061" points="1036,28 1048,28 1057,39 1057,41 1048,52 1036,52" stroke-linejoin="round" width="21" height="24" fill="rgb(139,217,106)" stroke="rgb(111,173,84)" stroke-width="1" opacity="0.75" />
			</g>
		</g>
		<g>
			<title>rsgA_1 (GKEONEKI_02249)
Small ribosomal subunit biogenesis GTPase RsgA</title>
			<polygon class="rsgA_1 (GKEONEKI_02249)
Small ribosomal subunit biogenesis GTPase RsgA" points="1067,25 1071,25 1071,10 1101,40 1071,70 1071,55 1067,55" fill="rgb(255,255,255)" fill-opacity="1.0" stroke="rgb(0,0,0)" stroke-width="2"  />
			<g>
				<title>RsgA_GTPase (PF03193)
"RsgA GTPase"</title>
				<polygon class="PF03193" points="1075,28 1084,28 1092,36 1092,44 1084,52 1075,52" stroke-linejoin="round" width="17" height="24" fill="rgb(89,182,98)" stroke="rgb(71,145,78)" stroke-width="1" opacity="0.75" />
			</g>
		</g>
		<g>
			<title>pyrD_1 (GKEONEKI_02250)
Dihydroorotate dehydrogenase (quinone)</title>
			<polygon class="pyrD_1 (GKEONEKI_02250)
Dihydroorotate dehydrogenase (quinone)" points="1104,25 1132,25 1132,10 1162,40 1132,70 1132,55 1104,55" fill="rgb(255,255,255)" fill-opacity="1.0" stroke="rgb(0,0,0)" stroke-width="2"  />
		</g>
		<g>
			<title>glnA_1 (GKEONEKI_02251)
Glutamine synthetase</title>
			<polygon class="glnA_1 (GKEONEKI_02251)
Glutamine synthetase" points="1212,25 1199,25 1199,10 1169,40 1199,70 1199,55 1212,55" fill="rgb(255,255,255)" fill-opacity="1.0" stroke="rgb(0,0,0)" stroke-width="2"  />
			<g>
				<title>Gln-synt_C (PF00120)
"Glutamine synthetase, catalytic domain"</title>
				<polygon class="PF00120" points="1173,40 1185,28 1201,28 1201,52 1185,52" stroke-linejoin="round" width="32" height="24" fill="rgb(195,227,89)" stroke="rgb(155,181,71)" stroke-width="1" opacity="0.75" />
			</g>
			<g>
				<title>Gln-synt_N (PF03951)
"Glutamine synthetase, beta-Grasp domain"</title>
				<rect class="PF03951" x="1202" y="28" stroke-linejoin="round" width="8" height="24" fill="rgb(125,91,194)" stroke="rgb(100,72,155)" stroke-width="1" opacity="0.75" />
			</g>
		</g>
		<g>
			<title> (GKEONEKI_02252)
hypothetical protein</title>
			<polygon class=" (GKEONEKI_02252)
hypothetical protein" points="1220,10 1233,40 1220,70" fill="rgb(255,255,255)" fill-opacity="1.0" stroke="rgb(0,0,0)" stroke-width="2"  />
		</g>
		<g>
			<title>ppaC (GKEONEKI_02253)
Manganese-dependent inorganic pyrophosphatase</title>
			<polygon class="ppaC (GKEONEKI_02253)
Manganese-dependent inorganic pyrophosphatase" points="1235,25 1238,25 1238,10 1268,40 1238,70 1238,55 1235,55" fill="rgb(255,255,255)" fill-opacity="1.0" stroke="rgb(0,0,0)" stroke-width="2"  />
			<g>
				<title>DHH (PF01368)
"DHH family"</title>
				<rect class="PF01368" x="1238" y="28" stroke-linejoin="round" width="14" height="24" fill="rgb(171,76,182)" stroke="rgb(136,60,145)" stroke-width="1" opacity="0.75" />
			</g>
			<g>
				<title>DHHA2 (PF02833)
"DHHA2 domain"</title>
				<polygon class="PF02833" points="1255,31 1264,40 1255,49" stroke-linejoin="round" width="12" height="24" fill="rgb(229,92,78)" stroke="rgb(183,73,62)" stroke-width="1" opacity="0.75" />
			</g>
		</g>
	</g>
</svg>
