<svg version="1.1" baseProfile="full" xmlns="http://www.w3.org/2000/svg" width="804.3333333333334" height="80">
	<g>
		<line x1="10" y1="40.0" x2="794.3333333333334" y2="40.0" style="stroke:rgb(70,70,70); stroke-width:3 "/>
		<g>
			<title>cysJ (CJMCAHAL_03517)
Sulfite reductase [NADPH] flavoprotein alpha-component</title>
			<polygon class="cysJ (CJMCAHAL_03517)
Sulfite reductase [NADPH] flavoprotein alpha-component" points="94,25 64,25 64,10 34,40 64,70 64,55 94,55" fill="rgb(255,255,255)" fill-opacity="1.0" stroke="rgb(0,0,0)" stroke-width="2"  />
			<g>
				<title>NAD_binding_1 (PF00175)
"Oxidoreductase NAD-binding domain"</title>
				<polygon class="PF00175" points="38,40 47,31 47,49" stroke-linejoin="round" width="10" height="24" fill="rgb(177,211,96)" stroke="rgb(141,168,76)" stroke-width="1" opacity="0.75" />
			</g>
			<g>
				<title>FAD_binding_1 (PF00667)
"FAD binding domain"</title>
				<rect class="PF00667" x="51" y="28" stroke-linejoin="round" width="19" height="24" fill="rgb(145,74,201)" stroke="rgb(116,59,160)" stroke-width="1" opacity="0.75" />
			</g>
			<g>
				<title>Flavodoxin_1 (PF00258)
"Flavodoxin"</title>
				<rect class="PF00258" x="74" y="28" stroke-linejoin="round" width="13" height="24" fill="rgb(77,169,183)" stroke="rgb(61,135,146)" stroke-width="1" opacity="0.75" />
			</g>
		</g>
		<g>
			<title> (CJMCAHAL_03518)
hypothetical protein</title>
			<polygon class=" (CJMCAHAL_03518)
hypothetical protein" points="95,40 121,10 121,70" fill="rgb(255,255,255)" fill-opacity="1.0" stroke="rgb(0,0,0)" stroke-width="2"  />
			<g>
				<title>HEM4 (PF02602)
"Uroporphyrinogen-III synthase HemD"</title>
				<polygon class="PF02602" points="99,40 110,28 119,28 119,52 110,52" stroke-linejoin="round" width="23" height="24" fill="rgb(191,152,50)" stroke="rgb(152,121,39)" stroke-width="1" opacity="0.75" />
			</g>
		</g>
		<g>
			<title>sirC (CJMCAHAL_03519)
Precorrin-2 dehydrogenase</title>
			<polygon class="sirC (CJMCAHAL_03519)
Precorrin-2 dehydrogenase" points="121,40 143,10 143,70" fill="rgb(255,255,255)" fill-opacity="1.0" stroke="rgb(0,0,0)" stroke-width="2"  />
			<g>
				<title>Sirohm_synth_M (PF14824)
"Sirohaem biosynthesis protein central"</title>
				<polygon class="PF14824" points="128,36 130,33 130,47 128,44" stroke-linejoin="round" width="2" height="24" fill="rgb(204,86,153)" stroke="rgb(163,68,122)" stroke-width="1" opacity="0.75" />
			</g>
			<g>
				<title>NAD_binding_7 (PF13241)
"Putative NAD(P)-binding"</title>
				<polygon class="PF13241" points="131,32 134,28 141,28 141,52 134,52 131,48" stroke-linejoin="round" width="10" height="24" fill="rgb(229,162,111)" stroke="rgb(183,129,88)" stroke-width="1" opacity="0.75" />
			</g>
		</g>
		<g>
			<title>sirB (CJMCAHAL_03520)
Sirohydrochlorin ferrochelatase</title>
			<polygon class="sirB (CJMCAHAL_03520)
Sirohydrochlorin ferrochelatase" points="144,40 169,10 169,70" fill="rgb(255,255,255)" fill-opacity="1.0" stroke="rgb(0,0,0)" stroke-width="2"  />
			<g>
				<title>CbiX (PF01903)
"CbiX"</title>
				<polygon class="PF01903" points="148,40 155,32 155,48" stroke-linejoin="round" width="10" height="24" fill="rgb(93,58,208)" stroke="rgb(74,46,166)" stroke-width="1" opacity="0.75" />
			</g>
			<g>
				<title>CbiX (PF01903)
"CbiX"</title>
				<polygon class="PF01903" points="157,29 158,28 167,28 167,52 158,52 157,51" stroke-linejoin="round" width="10" height="24" fill="rgb(93,58,208)" stroke="rgb(74,46,166)" stroke-width="1" opacity="0.75" />
			</g>
		</g>
		<g>
			<title>sumT (CJMCAHAL_03521)
Uroporphyrinogen-III C-methyltransferase</title>
			<polygon class="sumT (CJMCAHAL_03521)
Uroporphyrinogen-III C-methyltransferase" points="169,40 194,10 194,70" fill="rgb(255,255,255)" fill-opacity="1.0" stroke="rgb(0,0,0)" stroke-width="2"  />
			<g>
				<title>TP_methylase (PF00590)
"Tetrapyrrole (Corrin/Porphyrin) Methylases"</title>
				<polygon class="PF00590" points="173,40 183,28 194,28 194,52 183,52 173,40" stroke-linejoin="round" width="21" height="24" fill="rgb(124,218,92)" stroke="rgb(99,174,73)" stroke-width="1" opacity="0.75" />
			</g>
		</g>
		<g>
			<title>cysC (CJMCAHAL_03522)
putative adenylyl-sulfate kinase</title>
			<polygon class="cysC (CJMCAHAL_03522)
putative adenylyl-sulfate kinase" points="195,40 215,10 215,70" fill="rgb(255,255,255)" fill-opacity="1.0" stroke="rgb(0,0,0)" stroke-width="2"  />
			<g>
				<title>APS_kinase (PF01583)
"Adenylylsulphate kinase"</title>
				<polygon class="PF01583" points="199,40 207,28 212,28 212,52 207,52" stroke-linejoin="round" width="15" height="24" fill="rgb(48,131,188)" stroke="rgb(38,104,150)" stroke-width="1" opacity="0.75" />
			</g>
		</g>
		<g>
			<title>sat (CJMCAHAL_03523)
Sulfate adenylyltransferase</title>
			<polygon class="sat (CJMCAHAL_03523)
Sulfate adenylyltransferase" points="254,25 246,25 246,10 216,40 246,70 246,55 254,55" fill="rgb(255,255,255)" fill-opacity="1.0" stroke="rgb(0,0,0)" stroke-width="2"  />
			<g>
				<title>ATP-sulfurylase (PF01747)
"ATP-sulfurylase"</title>
				<polygon class="PF01747" points="220,40 232,28 238,28 238,52 232,52" stroke-linejoin="round" width="21" height="24" fill="rgb(77,108,187)" stroke="rgb(61,86,149)" stroke-width="1" opacity="0.75" />
			</g>
			<g>
				<title>PUA_2 (PF14306)
"PUA-like domain"</title>
				<rect class="PF14306" x="238" y="28" stroke-linejoin="round" width="15" height="24" fill="rgb(216,166,86)" stroke="rgb(172,132,68)" stroke-width="1" opacity="0.75" />
			</g>
		</g>
		<g>
			<title>cysH (CJMCAHAL_03524)
Phosphoadenosine phosphosulfate reductase</title>
			<polygon class="cysH (CJMCAHAL_03524)
Phosphoadenosine phosphosulfate reductase" points="255,40 279,10 279,70" fill="rgb(255,255,255)" fill-opacity="1.0" stroke="rgb(0,0,0)" stroke-width="2"  />
			<g>
				<title>PAPS_reduct (PF01507)
"Phosphoadenosine phosphosulfate reductase family"</title>
				<polygon class="PF01507" points="259,40 269,28 275,28 275,52 269,52" stroke-linejoin="round" width="17" height="24" fill="rgb(87,190,105)" stroke="rgb(69,152,83)" stroke-width="1" opacity="0.75" />
			</g>
		</g>
		<g>
			<title> (CJMCAHAL_03525)
hypothetical protein</title>
			<polygon class=" (CJMCAHAL_03525)
hypothetical protein" points="313,10 342,40 313,70" fill="rgb(255,255,255)" fill-opacity="1.0" stroke="rgb(0,0,0)" stroke-width="2"  />
			<g>
				<title>TauE (PF01925)
"Sulfite exporter TauE/SafE"</title>
				<polygon class="PF01925" points="313,28 326,28 337,39 337,41 326,52 313,52" stroke-linejoin="round" width="24" height="24" fill="rgb(105,203,95)" stroke="rgb(84,162,76)" stroke-width="1" opacity="0.75" />
			</g>
		</g>
		<g>
			<title> (CJMCAHAL_03526)
hypothetical protein</title>
			<polygon class=" (CJMCAHAL_03526)
hypothetical protein" points="395,25 373,25 373,10 343,40 373,70 373,55 395,55" fill="rgb(255,255,255)" fill-opacity="1.0" stroke="rgb(0,0,0)" stroke-width="2"  />
			<g>
				<title>Nitroreductase (PF00881)
"Nitroreductase family"</title>
				<polygon class="PF00881" points="347,40 355,32 355,48" stroke-linejoin="round" width="11" height="24" fill="rgb(79,118,187)" stroke="rgb(63,94,149)" stroke-width="1" opacity="0.75" />
			</g>
			<g>
				<title>Nitroreductase (PF00881)
"Nitroreductase family"</title>
				<rect class="PF00881" x="371" y="28" stroke-linejoin="round" width="15" height="24" fill="rgb(79,118,187)" stroke="rgb(63,94,149)" stroke-width="1" opacity="0.75" />
			</g>
		</g>
		<g>
			<title> (CJMCAHAL_03527)
hypothetical protein</title>
			<polygon class=" (CJMCAHAL_03527)
hypothetical protein" points="460,25 426,25 426,10 396,40 426,70 426,55 460,55" fill="rgb(255,255,255)" fill-opacity="1.0" stroke="rgb(0,0,0)" stroke-width="2"  />
			<g>
				<title>YcaO (PF02624)
"YcaO cyclodehydratase, ATP-ad Mg2+-binding"</title>
				<polygon class="PF02624" points="400,40 412,28 434,28 434,52 412,52 400,40" stroke-linejoin="round" width="34" height="24" fill="rgb(76,84,185)" stroke="rgb(60,67,148)" stroke-width="1" opacity="0.75" />
			</g>
		</g>
		<g>
			<title> (CJMCAHAL_03528)
hypothetical protein</title>
			<polygon class=" (CJMCAHAL_03528)
hypothetical protein" points="524,25 490,25 490,10 460,40 490,70 490,55 524,55" fill="rgb(255,255,255)" fill-opacity="1.0" stroke="rgb(0,0,0)" stroke-width="2"  />
		</g>
		<g>
			<title> (CJMCAHAL_03529)
hypothetical protein</title>
			<polygon class=" (CJMCAHAL_03529)
hypothetical protein" points="526,40 534,10 534,70" fill="rgb(255,255,255)" fill-opacity="1.0" stroke="rgb(0,0,0)" stroke-width="2"  />
		</g>
		<g>
			<title>cwlS (CJMCAHAL_03530)
D-gamma-glutamyl-meso-diaminopimelic acid endopeptidase CwlS</title>
			<polygon class="cwlS (CJMCAHAL_03530)
D-gamma-glutamyl-meso-diaminopimelic acid endopeptidase CwlS" points="570,10 586,40 570,70" fill="rgb(255,255,255)" fill-opacity="1.0" stroke="rgb(0,0,0)" stroke-width="2"  />
			<g>
				<title>NLPC_P60 (PF00877)
"NlpC/P60 family"</title>
				<polygon class="PF00877" points="575,28 576,28 582,40 576,52 575,52" stroke-linejoin="round" width="10" height="24" fill="rgb(187,86,137)" stroke="rgb(149,68,109)" stroke-width="1" opacity="0.75" />
			</g>
		</g>
		<g>
			<title>liaG (CJMCAHAL_03531)
Protein LiaG</title>
			<polygon class="liaG (CJMCAHAL_03531)
Protein LiaG" points="618,25 618,25 618,10 588,40 618,70 618,55 618,55" fill="rgb(255,255,255)" fill-opacity="1.0" stroke="rgb(0,0,0)" stroke-width="2"  />
			<g>
				<title>DUF4097 (PF13349)
"Putative adhesin"</title>
				<polygon class="PF13349" points="592,40 604,28 613,28 613,52 604,52" stroke-linejoin="round" width="25" height="24" fill="rgb(173,193,81)" stroke="rgb(138,154,64)" stroke-width="1" opacity="0.75" />
			</g>
		</g>
		<g>
			<title> (CJMCAHAL_03532)
hypothetical protein</title>
			<polygon class=" (CJMCAHAL_03532)
hypothetical protein" points="625,40 651,10 651,70" fill="rgb(255,255,255)" fill-opacity="1.0" stroke="rgb(0,0,0)" stroke-width="2"  />
			<g>
				<title>Gmad2 (PF10648)
"Immunoglobulin-like domain of bacterial spore germination"</title>
				<polygon class="PF10648" points="629,40 634,34 634,46" stroke-linejoin="round" width="8" height="24" fill="rgb(182,88,195)" stroke="rgb(145,70,156)" stroke-width="1" opacity="0.75" />
			</g>
			<g>
				<title>LysM (PF01476)
"LysM domain"</title>
				<polygon class="PF01476" points="635,33 639,29 639,51 635,47" stroke-linejoin="round" width="4" height="24" fill="rgb(200,86,203)" stroke="rgb(160,68,162)" stroke-width="1" opacity="0.75" />
			</g>
			<g>
				<title>LysM (PF01476)
"LysM domain"</title>
				<polygon class="PF01476" points="640,28 640,28 644,28 644,52 640,52 640,52" stroke-linejoin="round" width="4" height="24" fill="rgb(200,86,203)" stroke="rgb(160,68,162)" stroke-width="1" opacity="0.75" />
			</g>
			<g>
				<title>LysM (PF01476)
"LysM domain"</title>
				<rect class="PF01476" x="645" y="28" stroke-linejoin="round" width="4" height="24" fill="rgb(200,86,203)" stroke="rgb(160,68,162)" stroke-width="1" opacity="0.75" />
			</g>
		</g>
		<g>
			<title>mtnX (CJMCAHAL_03533)
2-hydroxy-3-keto-5-methylthiopentenyl-1- phosphate phosphatase</title>
			<polygon class="mtnX (CJMCAHAL_03533)
2-hydroxy-3-keto-5-methylthiopentenyl-1- phosphate phosphatase" points="659,10 680,40 659,70" fill="rgb(255,255,255)" fill-opacity="1.0" stroke="rgb(0,0,0)" stroke-width="2"  />
			<g>
				<title>HAD (PF12710)
"haloacid dehalogenase-like hydrolase"</title>
				<polygon class="PF12710" points="659,28 668,28 675,38 675,42 668,52 659,52" stroke-linejoin="round" width="16" height="24" fill="rgb(181,59,119)" stroke="rgb(144,47,95)" stroke-width="1" opacity="0.75" />
			</g>
		</g>
		<g>
			<title> (CJMCAHAL_03534)
hypothetical protein</title>
			<polygon class=" (CJMCAHAL_03534)
hypothetical protein" points="681,25 686,25 686,10 716,40 686,70 686,55 681,55" fill="rgb(255,255,255)" fill-opacity="1.0" stroke="rgb(0,0,0)" stroke-width="2"  />
			<g>
				<title>Fe-ADH_2 (PF13685)
"Iron-containing alcohol dehydrogenase"</title>
				<polygon class="PF13685" points="682,28 699,28 707,36 707,44 699,52 682,52" stroke-linejoin="round" width="25" height="24" fill="rgb(57,214,170)" stroke="rgb(45,171,136)" stroke-width="1" opacity="0.75" />
			</g>
		</g>
		<g>
			<title>sspH_1 (CJMCAHAL_03535)
Small, acid-soluble spore protein H</title>
			<polygon class="sspH_1 (CJMCAHAL_03535)
Small, acid-soluble spore protein H" points="719,10 725,40 719,70" fill="rgb(255,255,255)" fill-opacity="1.0" stroke="rgb(0,0,0)" stroke-width="2"  />
			<g>
				<title>SspH (PF08141)
"Small acid-soluble spore protein H family"</title>
				<polygon class="PF08141" points="719,28 719,28 722,40 719,52 719,52" stroke-linejoin="round" width="5" height="24" fill="rgb(51,180,135)" stroke="rgb(40,144,108)" stroke-width="1" opacity="0.75" />
			</g>
		</g>
		<g>
			<title> (CJMCAHAL_03536)
hypothetical protein</title>
			<polygon class=" (CJMCAHAL_03536)
hypothetical protein" points="727,40 752,10 752,70" fill="rgb(255,255,255)" fill-opacity="1.0" stroke="rgb(0,0,0)" stroke-width="2"  />
			<g>
				<title>Intg_mem_TP0381 (PF09529)
"Integral membrane protein (intg_mem_TP0381)"</title>
				<polygon class="PF09529" points="731,40 741,28 750,28 750,52 741,52" stroke-linejoin="round" width="21" height="24" fill="rgb(205,205,98)" stroke="rgb(164,164,78)" stroke-width="1" opacity="0.75" />
			</g>
		</g>
		<g>
			<title> (CJMCAHAL_03537)
hypothetical protein</title>
			<polygon class=" (CJMCAHAL_03537)
hypothetical protein" points="757,10 762,40 757,70" fill="rgb(255,255,255)" fill-opacity="1.0" stroke="rgb(0,0,0)" stroke-width="2"  />
		</g>
		<g>
			<title> (CJMCAHAL_03538)
hypothetical protein</title>
			<polygon class=" (CJMCAHAL_03538)
hypothetical protein" points="771,10 790,40 771,70" fill="rgb(255,255,255)" fill-opacity="1.0" stroke="rgb(0,0,0)" stroke-width="2"  />
			<g>
				<title>DUF45 (PF01863)
"Protein of unknown function DUF45"</title>
				<polygon class="PF01863" points="773,28 779,28 786,40 779,52 773,52" stroke-linejoin="round" width="16" height="24" fill="rgb(89,185,141)" stroke="rgb(71,148,112)" stroke-width="1" opacity="0.75" />
			</g>
		</g>
	</g>
</svg>
