<svg version="1.1" baseProfile="full" xmlns="http://www.w3.org/2000/svg" width="714.5666666666667" height="80">
	<g>
		<line x1="10" y1="40.0" x2="704.5666666666667" y2="40.0" style="stroke:rgb(70,70,70); stroke-width:3 "/>
		<g>
			<title> (OKCGIKJE_01057)
hypothetical protein</title>
			<polygon class=" (OKCGIKJE_01057)
hypothetical protein" points="22,40 47,10 47,70" fill="rgb(255,255,255)" fill-opacity="1.0" stroke="rgb(0,0,0)" stroke-width="2"  />
			<g>
				<title>DNA_alkylation (PF08713)
"DNA alkylation repair enzyme"</title>
				<polygon class="PF08713" points="26,40 36,28 44,28 44,52 36,52" stroke-linejoin="round" width="21" height="24" fill="rgb(215,156,71)" stroke="rgb(172,124,56)" stroke-width="1" opacity="0.75" />
			</g>
		</g>
		<g>
			<title> (OKCGIKJE_01058)
hypothetical protein</title>
			<polygon class=" (OKCGIKJE_01058)
hypothetical protein" points="46,40 74,10 74,70" fill="rgb(255,255,255)" fill-opacity="1.0" stroke="rgb(0,0,0)" stroke-width="2"  />
			<g>
				<title>Patatin (PF01734)
"Patatin-like phospholipase"</title>
				<polygon class="PF01734" points="57,33 61,28 73,28 73,52 61,52 57,47" stroke-linejoin="round" width="16" height="24" fill="rgb(200,132,98)" stroke="rgb(160,105,78)" stroke-width="1" opacity="0.75" />
			</g>
		</g>
		<g>
			<title> (OKCGIKJE_01059)
hypothetical protein</title>
			<polygon class=" (OKCGIKJE_01059)
hypothetical protein" points="77,40 81,10 81,70" fill="rgb(255,255,255)" fill-opacity="1.0" stroke="rgb(0,0,0)" stroke-width="2"  />
			<g>
				<title>Fur_reg_FbpB (PF13040)
"Fur-regulated basic protein B"</title>
				<polygon class="PF13040" points="80,40 81,34 81,46" stroke-linejoin="round" width="3" height="24" fill="rgb(190,83,63)" stroke="rgb(152,66,50)" stroke-width="1" opacity="0.75" />
			</g>
		</g>
		<g>
			<title>dapX_1 (OKCGIKJE_01060)
putative N-acetyl-LL-diaminopimelate aminotransferase</title>
			<polygon class="dapX_1 (OKCGIKJE_01060)
putative N-acetyl-LL-diaminopimelate aminotransferase" points="86,25 94,25 94,10 124,40 94,70 94,55 86,55" fill="rgb(255,255,255)" fill-opacity="1.0" stroke="rgb(0,0,0)" stroke-width="2"  />
			<g>
				<title>Aminotran_1_2 (PF00155)
"Aminotransferase class I and II"</title>
				<polygon class="PF00155" points="88,28 108,28 120,40 108,52 88,52" stroke-linejoin="round" width="34" height="24" fill="rgb(89,113,198)" stroke="rgb(71,90,158)" stroke-width="1" opacity="0.75" />
			</g>
		</g>
		<g>
			<title>sipT (OKCGIKJE_01061)
Signal peptidase I T</title>
			<polygon class="sipT (OKCGIKJE_01061)
Signal peptidase I T" points="128,10 145,40 128,70" fill="rgb(255,255,255)" fill-opacity="1.0" stroke="rgb(0,0,0)" stroke-width="2"  />
			<g>
				<title>Peptidase_S24 (PF00717)
"Peptidase S24-like"</title>
				<polygon class="PF00717" points="131,28 134,28 138,34 138,46 134,52 131,52" stroke-linejoin="round" width="7" height="24" fill="rgb(180,76,105)" stroke="rgb(144,60,83)" stroke-width="1" opacity="0.75" />
			</g>
		</g>
		<g>
			<title> (OKCGIKJE_01062)
hypothetical protein</title>
			<polygon class=" (OKCGIKJE_01062)
hypothetical protein" points="147,40 151,10 151,70" fill="rgb(255,255,255)" fill-opacity="1.0" stroke="rgb(0,0,0)" stroke-width="2"  />
			<g>
				<title>YvrJ (PF12841)
"YvrJ protein family"</title>
				<polygon class="PF12841" points="150,40 150,40 150,40" stroke-linejoin="round" width="3" height="24" fill="rgb(207,53,76)" stroke="rgb(165,42,60)" stroke-width="1" opacity="0.75" />
			</g>
		</g>
		<g>
			<title> (OKCGIKJE_01063)
hypothetical protein</title>
			<polygon class=" (OKCGIKJE_01063)
hypothetical protein" points="153,40 160,10 160,70" fill="rgb(255,255,255)" fill-opacity="1.0" stroke="rgb(0,0,0)" stroke-width="2"  />
			<g>
				<title>DUF2922 (PF11148)
"Protein of unknown function (DUF2922)"</title>
				<polygon class="PF11148" points="156,40 159,28 159,28 159,52 159,52" stroke-linejoin="round" width="6" height="24" fill="rgb(196,220,80)" stroke="rgb(156,176,64)" stroke-width="1" opacity="0.75" />
			</g>
		</g>
		<g>
			<title> (OKCGIKJE_01064)
hypothetical protein</title>
			<polygon class=" (OKCGIKJE_01064)
hypothetical protein" points="162,40 169,10 169,70" fill="rgb(255,255,255)" fill-opacity="1.0" stroke="rgb(0,0,0)" stroke-width="2"  />
			<g>
				<title>DUF1659 (PF07872)
"Protein of unknown function (DUF1659)"</title>
				<polygon class="PF07872" points="165,40 168,28 168,28 168,52 168,52" stroke-linejoin="round" width="4" height="24" fill="rgb(172,48,195)" stroke="rgb(137,38,156)" stroke-width="1" opacity="0.75" />
			</g>
		</g>
		<g>
			<title> (OKCGIKJE_01065)
hypothetical protein</title>
			<polygon class=" (OKCGIKJE_01065)
hypothetical protein" points="185,10 201,40 185,70" fill="rgb(255,255,255)" fill-opacity="1.0" stroke="rgb(0,0,0)" stroke-width="2"  />
			<g>
				<title>DoxX (PF07681)
"DoxX"</title>
				<polygon class="PF07681" points="186,28 191,28 196,37 196,43 191,52 186,52" stroke-linejoin="round" width="10" height="24" fill="rgb(93,188,216)" stroke="rgb(74,150,172)" stroke-width="1" opacity="0.75" />
			</g>
		</g>
		<g>
			<title> (OKCGIKJE_01066)
hypothetical protein</title>
			<polygon class=" (OKCGIKJE_01066)
hypothetical protein" points="209,10 234,40 209,70" fill="rgb(255,255,255)" fill-opacity="1.0" stroke="rgb(0,0,0)" stroke-width="2"  />
			<g>
				<title>Caroten_synth (PF04240)
"Carotenoid biosynthesis protein"</title>
				<polygon class="PF04240" points="212,28 220,28 230,40 220,52 212,52" stroke-linejoin="round" width="20" height="24" fill="rgb(65,214,190)" stroke="rgb(52,171,152)" stroke-width="1" opacity="0.75" />
			</g>
		</g>
		<g>
			<title> (OKCGIKJE_01067)
hypothetical protein</title>
			<polygon class=" (OKCGIKJE_01067)
hypothetical protein" points="234,10 256,40 234,70" fill="rgb(255,255,255)" fill-opacity="1.0" stroke="rgb(0,0,0)" stroke-width="2"  />
			<g>
				<title>Acyltransferase (PF01553)
"Acyltransferase"</title>
				<polygon class="PF01553" points="236,28 243,28 249,36 249,44 243,52 236,52" stroke-linejoin="round" width="13" height="24" fill="rgb(87,176,216)" stroke="rgb(69,140,172)" stroke-width="1" opacity="0.75" />
			</g>
		</g>
		<g>
			<title> (OKCGIKJE_01068)
hypothetical protein</title>
			<polygon class=" (OKCGIKJE_01068)
hypothetical protein" points="256,25 262,25 262,10 292,40 262,70 262,55 256,55" fill="rgb(255,255,255)" fill-opacity="1.0" stroke="rgb(0,0,0)" stroke-width="2"  />
			<g>
				<title>Glyco_transf_21 (PF13506)
"Glycosyl transferase family 21"</title>
				<polygon class="PF13506" points="265,28 276,28 282,34 282,46 276,52 265,52" stroke-linejoin="round" width="17" height="24" fill="rgb(174,185,57)" stroke="rgb(139,148,45)" stroke-width="1" opacity="0.75" />
			</g>
		</g>
		<g>
			<title>crtNb_1 (OKCGIKJE_01069)
4,4'-diapolycopene oxygenase</title>
			<polygon class="crtNb_1 (OKCGIKJE_01069)
4,4'-diapolycopene oxygenase" points="293,25 312,25 312,10 342,40 312,70 312,55 293,55" fill="rgb(255,255,255)" fill-opacity="1.0" stroke="rgb(0,0,0)" stroke-width="2"  />
			<g>
				<title>Amino_oxidase (PF01593)
"Flavin containing amine oxidoreductase"</title>
				<polygon class="PF01593" points="294,28 325,28 337,40 325,52 294,52" stroke-linejoin="round" width="47" height="24" fill="rgb(184,74,52)" stroke="rgb(147,59,41)" stroke-width="1" opacity="0.75" />
			</g>
		</g>
		<g>
			<title>yisP (OKCGIKJE_01070)
Putative phytoene/squalene synthase YisP</title>
			<polygon class="yisP (OKCGIKJE_01070)
Putative phytoene/squalene synthase YisP" points="343,40 370,10 370,70" fill="rgb(255,255,255)" fill-opacity="1.0" stroke="rgb(0,0,0)" stroke-width="2"  />
			<g>
				<title>SQS_PSY (PF00494)
"Squalene/phytoene synthase"</title>
				<polygon class="PF00494" points="347,40 358,28 369,28 369,52 358,52" stroke-linejoin="round" width="25" height="24" fill="rgb(178,91,49)" stroke="rgb(142,72,39)" stroke-width="1" opacity="0.75" />
			</g>
		</g>
		<g>
			<title>crtNc (OKCGIKJE_01071)
4,4'-diapolycopen-4-al dehydrogenase</title>
			<polygon class="crtNc (OKCGIKJE_01071)
4,4'-diapolycopen-4-al dehydrogenase" points="420,25 401,25 401,10 371,40 401,70 401,55 420,55" fill="rgb(255,255,255)" fill-opacity="1.0" stroke="rgb(0,0,0)" stroke-width="2"  />
			<g>
				<title>Amino_oxidase (PF01593)
"Flavin containing amine oxidoreductase"</title>
				<polygon class="PF01593" points="375,40 387,28 419,28 419,52 387,52" stroke-linejoin="round" width="46" height="24" fill="rgb(184,74,52)" stroke="rgb(147,59,41)" stroke-width="1" opacity="0.75" />
			</g>
		</g>
		<g>
			<title>crtN_1 (OKCGIKJE_01072)
4,4'-diapophytoene desaturase (4,4'-diapolycopene-forming)</title>
			<polygon class="crtN_1 (OKCGIKJE_01072)
4,4'-diapophytoene desaturase (4,4'-diapolycopene-forming)" points="469,25 450,25 450,10 420,40 450,70 450,55 469,55" fill="rgb(255,255,255)" fill-opacity="1.0" stroke="rgb(0,0,0)" stroke-width="2"  />
			<g>
				<title>Amino_oxidase (PF01593)
"Flavin containing amine oxidoreductase"</title>
				<polygon class="PF01593" points="424,40 436,28 468,28 468,52 436,52" stroke-linejoin="round" width="47" height="24" fill="rgb(184,74,52)" stroke="rgb(147,59,41)" stroke-width="1" opacity="0.75" />
			</g>
		</g>
		<g>
			<title> (OKCGIKJE_01073)
hypothetical protein</title>
			<polygon class=" (OKCGIKJE_01073)
hypothetical protein" points="476,10 482,40 476,70" fill="rgb(255,255,255)" fill-opacity="1.0" stroke="rgb(0,0,0)" stroke-width="2"  />
		</g>
		<g>
			<title>ktrB_1 (OKCGIKJE_01074)
Ktr system potassium uptake protein B</title>
			<polygon class="ktrB_1 (OKCGIKJE_01074)
Ktr system potassium uptake protein B" points="537,25 522,25 522,10 492,40 522,70 522,55 537,55" fill="rgb(255,255,255)" fill-opacity="1.0" stroke="rgb(0,0,0)" stroke-width="2"  />
			<g>
				<title>TrkH (PF02386)
"Cation transport protein"</title>
				<polygon class="PF02386" points="496,40 508,28 535,28 535,52 508,52" stroke-linejoin="round" width="42" height="24" fill="rgb(67,179,142)" stroke="rgb(53,143,113)" stroke-width="1" opacity="0.75" />
			</g>
		</g>
		<g>
			<title> (OKCGIKJE_01075)
hypothetical protein</title>
			<polygon class=" (OKCGIKJE_01075)
hypothetical protein" points="539,40 553,10 553,70" fill="rgb(255,255,255)" fill-opacity="1.0" stroke="rgb(0,0,0)" stroke-width="2"  />
			<g>
				<title>YwpF (PF14183)
"YwpF-like protein"</title>
				<polygon class="PF14183" points="542,40 548,28 552,28 552,52 548,52" stroke-linejoin="round" width="13" height="24" fill="rgb(199,178,73)" stroke="rgb(159,142,58)" stroke-width="1" opacity="0.75" />
			</g>
		</g>
		<g>
			<title> (OKCGIKJE_01076)
hypothetical protein</title>
			<polygon class=" (OKCGIKJE_01076)
hypothetical protein" points="553,40 556,10 556,70" fill="rgb(255,255,255)" fill-opacity="1.0" stroke="rgb(0,0,0)" stroke-width="2"  />
		</g>
		<g>
			<title>ktrB_2 (OKCGIKJE_01077)
Ktr system potassium uptake protein B</title>
			<polygon class="ktrB_2 (OKCGIKJE_01077)
Ktr system potassium uptake protein B" points="601,25 586,25 586,10 556,40 586,70 586,55 601,55" fill="rgb(255,255,255)" fill-opacity="1.0" stroke="rgb(0,0,0)" stroke-width="2"  />
			<g>
				<title>TrkH (PF02386)
"Cation transport protein"</title>
				<polygon class="PF02386" points="560,40 572,28 600,28 600,52 572,52" stroke-linejoin="round" width="43" height="24" fill="rgb(67,179,142)" stroke="rgb(53,143,113)" stroke-width="1" opacity="0.75" />
			</g>
		</g>
		<g>
			<title>moaA (OKCGIKJE_01078)
GTP 3',8-cyclase</title>
			<polygon class="moaA (OKCGIKJE_01078)
GTP 3',8-cyclase" points="639,25 636,25 636,10 606,40 636,70 636,55 639,55" fill="rgb(255,255,255)" fill-opacity="1.0" stroke="rgb(0,0,0)" stroke-width="2"  />
			<g>
				<title>Mob_synth_C (PF06463)
"Molybdenum Cofactor Synthesis C"</title>
				<polygon class="PF06463" points="610,40 620,30 620,50" stroke-linejoin="round" width="12" height="24" fill="rgb(149,103,225)" stroke="rgb(119,82,180)" stroke-width="1" opacity="0.75" />
			</g>
			<g>
				<title>Radical_SAM (PF04055)
"Radical SAM superfamily"</title>
				<polygon class="PF04055" points="621,29 622,28 637,28 637,52 622,52 621,51" stroke-linejoin="round" width="16" height="24" fill="rgb(149,56,222)" stroke="rgb(119,44,177)" stroke-width="1" opacity="0.75" />
			</g>
		</g>
		<g>
			<title>moeA (OKCGIKJE_01079)
Molybdopterin molybdenumtransferase</title>
			<polygon class="moeA (OKCGIKJE_01079)
Molybdopterin molybdenumtransferase" points="682,25 670,25 670,10 640,40 670,70 670,55 682,55" fill="rgb(255,255,255)" fill-opacity="1.0" stroke="rgb(0,0,0)" stroke-width="2"  />
			<g>
				<title>MoeA_C (PF03454)
"MoeA C-terminal region (domain IV)"</title>
				<polygon class="PF03454" points="644,40 648,36 648,44" stroke-linejoin="round" width="7" height="24" fill="rgb(59,190,161)" stroke="rgb(47,152,128)" stroke-width="1" opacity="0.75" />
			</g>
			<g>
				<title>MoCF_biosynth (PF00994)
"Probable molybdopterin binding domain"</title>
				<polygon class="PF00994" points="649,35 656,28 662,28 662,52 656,52 649,45" stroke-linejoin="round" width="13" height="24" fill="rgb(75,187,175)" stroke="rgb(60,149,139)" stroke-width="1" opacity="0.75" />
			</g>
			<g>
				<title>MoeA_N (PF03453)
"MoeA N-terminal region (domain I and II)"</title>
				<rect class="PF03453" x="664" y="28" stroke-linejoin="round" width="16" height="24" fill="rgb(93,188,107)" stroke="rgb(74,150,85)" stroke-width="1" opacity="0.75" />
			</g>
		</g>
		<g>
			<title> (OKCGIKJE_01080)
hypothetical protein</title>
			<polygon class=" (OKCGIKJE_01080)
hypothetical protein" points="687,40 691,10 691,70" fill="rgb(255,255,255)" fill-opacity="1.0" stroke="rgb(0,0,0)" stroke-width="2"  />
		</g>
	</g>
</svg>
