<svg version="1.1" baseProfile="full" xmlns="http://www.w3.org/2000/svg" width="366.53333333333336" height="80">
	<g>
		<line x1="10" y1="40.0" x2="356.53333333333336" y2="40.0" style="stroke:rgb(70,70,70); stroke-width:3 "/>
		<g>
			<title> (AEOANFJI_00127)
hypothetical protein</title>
			<polygon class=" (AEOANFJI_00127)
hypothetical protein" points="54,40 70,10 70,70" fill="rgb(255,255,255)" fill-opacity="1.0" stroke="rgb(0,0,0)" stroke-width="2"  />
			<g>
				<title>DUF4825 (PF16107)
"Domain of unknown function (DUF4825)"</title>
				<polygon class="PF16107" points="57,40 63,28 66,28 66,52 63,52 57,40" stroke-linejoin="round" width="9" height="24" fill="rgb(214,80,184)" stroke="rgb(171,64,147)" stroke-width="1" opacity="0.75" />
			</g>
		</g>
		<g>
			<title>ectA (AEOANFJI_00128)
L-2,4-diaminobutyric acid acetyltransferase</title>
			<polygon class="ectA (AEOANFJI_00128)
L-2,4-diaminobutyric acid acetyltransferase" points="122,10 132,40 122,70" fill="rgb(255,255,255)" fill-opacity="1.0" stroke="rgb(0,0,0)" stroke-width="2"  />
			<g>
				<title>Acetyltransf_1 (PF00583)
"Acetyltransferase (GNAT) family"</title>
				<polygon class="PF00583" points="122,28 124,28 128,37 128,43 124,52 122,52" stroke-linejoin="round" width="6" height="24" fill="rgb(121,183,50)" stroke="rgb(96,146,39)" stroke-width="1" opacity="0.75" />
			</g>
		</g>
		<g>
			<title>ectB (AEOANFJI_00129)
Diaminobutyrate--2-oxoglutarate transaminase</title>
			<polygon class="ectB (AEOANFJI_00129)
Diaminobutyrate--2-oxoglutarate transaminase" points="133,25 146,25 146,10 176,40 146,70 146,55 133,55" fill="rgb(255,255,255)" fill-opacity="1.0" stroke="rgb(0,0,0)" stroke-width="2"  />
			<g>
				<title>Aminotran_3 (PF00202)
"Aminotransferase class-III"</title>
				<polygon class="PF00202" points="135,28 159,28 171,40 159,52 135,52" stroke-linejoin="round" width="39" height="24" fill="rgb(49,163,189)" stroke="rgb(39,130,151)" stroke-width="1" opacity="0.75" />
			</g>
		</g>
		<g>
			<title>ectC (AEOANFJI_00130)
L-ectoine synthase</title>
			<polygon class="ectC (AEOANFJI_00130)
L-ectoine synthase" points="176,10 189,40 176,70" fill="rgb(255,255,255)" fill-opacity="1.0" stroke="rgb(0,0,0)" stroke-width="2"  />
			<g>
				<title>Ectoine_synth (PF06339)
"Ectoine synthase"</title>
				<polygon class="PF06339" points="176,28 180,28 185,40 180,52 176,52" stroke-linejoin="round" width="12" height="24" fill="rgb(225,176,81)" stroke="rgb(180,140,64)" stroke-width="1" opacity="0.75" />
			</g>
		</g>
		<g>
			<title> (AEOANFJI_00131)
hypothetical protein</title>
			<polygon class=" (AEOANFJI_00131)
hypothetical protein" points="233,25 230,25 230,10 200,40 230,70 230,55 233,55" fill="rgb(255,255,255)" fill-opacity="1.0" stroke="rgb(0,0,0)" stroke-width="2"  />
		</g>
		<g>
			<title> (AEOANFJI_00132)
hypothetical protein</title>
			<polygon class=" (AEOANFJI_00132)
hypothetical protein" points="233,40 245,10 245,70" fill="rgb(255,255,255)" fill-opacity="1.0" stroke="rgb(0,0,0)" stroke-width="2"  />
			<g>
				<title>PadR (PF03551)
"Transcriptional regulator PadR-like family"</title>
				<polygon class="PF03551" points="236,40 241,28 242,28 242,52 241,52" stroke-linejoin="round" width="7" height="24" fill="rgb(210,176,95)" stroke="rgb(168,140,76)" stroke-width="1" opacity="0.75" />
			</g>
		</g>
		<g>
			<title>zupT_1 (AEOANFJI_00133)
Zinc transporter ZupT</title>
			<polygon class="zupT_1 (AEOANFJI_00133)
Zinc transporter ZupT" points="257,40 283,10 283,70" fill="rgb(255,255,255)" fill-opacity="1.0" stroke="rgb(0,0,0)" stroke-width="2"  />
			<g>
				<title>Zip (PF02535)
"ZIP Zinc transporter"</title>
				<polygon class="PF02535" points="261,40 272,28 273,28 273,52 272,52" stroke-linejoin="round" width="16" height="24" fill="rgb(217,215,73)" stroke="rgb(173,172,58)" stroke-width="1" opacity="0.75" />
			</g>
		</g>
		<g>
			<title> (AEOANFJI_00134)
26 kDa periplasmic immunogenic protein</title>
			<polygon class=" (AEOANFJI_00134)
26 kDa periplasmic immunogenic protein" points="292,40 314,10 314,70" fill="rgb(255,255,255)" fill-opacity="1.0" stroke="rgb(0,0,0)" stroke-width="2"  />
			<g>
				<title>SIMPL (PF04402)
"Protein of unknown function (DUF541)"</title>
				<polygon class="PF04402" points="296,40 305,28 311,28 311,52 305,52" stroke-linejoin="round" width="19" height="24" fill="rgb(88,209,165)" stroke="rgb(70,167,132)" stroke-width="1" opacity="0.75" />
			</g>
		</g>
	</g>
</svg>
