<svg version="1.1" baseProfile="full" xmlns="http://www.w3.org/2000/svg" width="380.3333333333333" height="80">
	<g>
		<line x1="10" y1="40.0" x2="370.3333333333333" y2="40.0" style="stroke:rgb(70,70,70); stroke-width:3 "/>
		<g>
			<title>cysK_3 (BBLDBBGM_04253)
Cysteine synthase</title>
			<polygon class="cysK_3 (BBLDBBGM_04253)
Cysteine synthase" points="51,25 50,25 50,10 20,40 50,70 50,55 51,55" fill="rgb(255,255,255)" fill-opacity="1.0" stroke="rgb(0,0,0)" stroke-width="2"  />
			<g>
				<title>PALP (PF00291)
"Pyridoxal-phosphate dependent enzyme"</title>
				<polygon class="PF00291" points="24,40 36,28 49,28 49,52 36,52" stroke-linejoin="round" width="28" height="24" fill="rgb(180,55,145)" stroke="rgb(144,44,116)" stroke-width="1" opacity="0.75" />
			</g>
		</g>
		<g>
			<title>azr (BBLDBBGM_04254)
FMN-dependent NADPH-azoreductase</title>
			<polygon class="azr (BBLDBBGM_04254)
FMN-dependent NADPH-azoreductase" points="52,40 70,10 70,70" fill="rgb(255,255,255)" fill-opacity="1.0" stroke="rgb(0,0,0)" stroke-width="2"  />
			<g>
				<title>FMN_red (PF03358)
"NADPH-dependent FMN reductase"</title>
				<polygon class="PF03358" points="56,40 63,28 69,28 69,52 63,52" stroke-linejoin="round" width="14" height="24" fill="rgb(90,228,61)" stroke="rgb(72,182,48)" stroke-width="1" opacity="0.75" />
			</g>
		</g>
		<g>
			<title>gpr_2 (BBLDBBGM_04255)
L-glyceraldehyde 3-phosphate reductase</title>
			<polygon class="gpr_2 (BBLDBBGM_04255)
L-glyceraldehyde 3-phosphate reductase" points="103,25 100,25 100,10 70,40 100,70 100,55 103,55" fill="rgb(255,255,255)" fill-opacity="1.0" stroke="rgb(0,0,0)" stroke-width="2"  />
			<g>
				<title>Aldo_ket_red (PF00248)
"Aldo/keto reductase family"</title>
				<polygon class="PF00248" points="74,40 86,28 102,28 102,52 86,52" stroke-linejoin="round" width="31" height="24" fill="rgb(225,205,58)" stroke="rgb(180,164,46)" stroke-width="1" opacity="0.75" />
			</g>
		</g>
		<g>
			<title> (BBLDBBGM_04256)
hypothetical protein</title>
			<polygon class=" (BBLDBBGM_04256)
hypothetical protein" points="114,25 145,25 145,10 175,40 145,70 145,55 114,55" fill="rgb(255,255,255)" fill-opacity="1.0" stroke="rgb(0,0,0)" stroke-width="2"  />
		</g>
		<g>
			<title> (BBLDBBGM_04257)
hypothetical protein</title>
			<polygon class=" (BBLDBBGM_04257)
hypothetical protein" points="176,10 203,40 176,70" fill="rgb(255,255,255)" fill-opacity="1.0" stroke="rgb(0,0,0)" stroke-width="2"  />
			<g>
				<title>DUF692 (PF05114)
"Protein of unknown function (DUF692)"</title>
				<polygon class="PF05114" points="177,28 187,28 197,38 197,42 187,52 177,52" stroke-linejoin="round" width="20" height="24" fill="rgb(63,196,127)" stroke="rgb(50,156,101)" stroke-width="1" opacity="0.75" />
			</g>
		</g>
		<g>
			<title> (BBLDBBGM_04258)
hypothetical protein</title>
			<polygon class=" (BBLDBBGM_04258)
hypothetical protein" points="203,10 228,40 203,70" fill="rgb(255,255,255)" fill-opacity="1.0" stroke="rgb(0,0,0)" stroke-width="2"  />
		</g>
		<g>
			<title> (BBLDBBGM_04259)
hypothetical protein</title>
			<polygon class=" (BBLDBBGM_04259)
hypothetical protein" points="229,25 240,25 240,10 270,40 240,70 240,55 229,55" fill="rgb(255,255,255)" fill-opacity="1.0" stroke="rgb(0,0,0)" stroke-width="2"  />
			<g>
				<title>MFS_3 (PF05977)
"Transmembrane secretion effector"</title>
				<polygon class="PF05977" points="229,28 254,28 266,40 254,52 229,52" stroke-linejoin="round" width="40" height="24" fill="rgb(80,62,217)" stroke="rgb(64,49,173)" stroke-width="1" opacity="0.75" />
			</g>
		</g>
		<g>
			<title> (BBLDBBGM_04260)
hypothetical protein</title>
			<polygon class=" (BBLDBBGM_04260)
hypothetical protein" points="275,40 283,10 283,70" fill="rgb(255,255,255)" fill-opacity="1.0" stroke="rgb(0,0,0)" stroke-width="2"  />
		</g>
		<g>
			<title> (BBLDBBGM_04261)
hypothetical protein</title>
			<polygon class=" (BBLDBBGM_04261)
hypothetical protein" points="286,40 307,10 307,70" fill="rgb(255,255,255)" fill-opacity="1.0" stroke="rgb(0,0,0)" stroke-width="2"  />
			<g>
				<title>DUF1524 (PF07510)
"Protein of unknown function (DUF1524)"</title>
				<polygon class="PF07510" points="290,40 298,28 299,28 299,52 298,52" stroke-linejoin="round" width="13" height="24" fill="rgb(220,94,137)" stroke="rgb(176,75,109)" stroke-width="1" opacity="0.75" />
			</g>
		</g>
		<g>
			<title> (BBLDBBGM_04262)
hypothetical protein</title>
			<polygon class=" (BBLDBBGM_04262)
hypothetical protein" points="328,10 337,40 328,70" fill="rgb(255,255,255)" fill-opacity="1.0" stroke="rgb(0,0,0)" stroke-width="2"  />
		</g>
		<g>
			<title> (BBLDBBGM_04263)
hypothetical protein</title>
			<polygon class=" (BBLDBBGM_04263)
hypothetical protein" points="342,10 348,40 342,70" fill="rgb(255,255,255)" fill-opacity="1.0" stroke="rgb(0,0,0)" stroke-width="2"  />
			<g>
				<title>LRAT (PF04970)
"Lecithin retinol acyltransferase"</title>
				<polygon class="PF04970" points="345,40 345,40 345,40" stroke-linejoin="round" width="2" height="24" fill="rgb(61,189,196)" stroke="rgb(48,151,156)" stroke-width="1" opacity="0.75" />
			</g>
		</g>
		<g>
			<title> (BBLDBBGM_04264)
hypothetical protein</title>
			<polygon class=" (BBLDBBGM_04264)
hypothetical protein" points="360,40 365,10 365,70" fill="rgb(255,255,255)" fill-opacity="1.0" stroke="rgb(0,0,0)" stroke-width="2"  />
		</g>
	</g>
</svg>
