<svg version="1.1" baseProfile="full" xmlns="http://www.w3.org/2000/svg" width="701.9666666666667" height="80">
	<g>
		<line x1="10" y1="40.0" x2="691.9666666666667" y2="40.0" style="stroke:rgb(70,70,70); stroke-width:3 "/>
		<g>
			<title> (OPNKNPOB_01220)
hypothetical protein</title>
			<polygon class=" (OPNKNPOB_01220)
hypothetical protein" points="79,25 63,25 63,10 33,40 63,70 63,55 79,55" fill="rgb(255,255,255)" fill-opacity="1.0" stroke="rgb(0,0,0)" stroke-width="2"  />
			<g>
				<title>Glycos_transf_2 (PF00535)
"Glycosyl transferase family 2"</title>
				<rect class="PF00535" x="53" y="28" stroke-linejoin="round" width="20" height="24" fill="rgb(224,122,96)" stroke="rgb(179,97,76)" stroke-width="1" opacity="0.75" />
			</g>
		</g>
		<g>
			<title> (OPNKNPOB_01221)
hypothetical protein</title>
			<polygon class=" (OPNKNPOB_01221)
hypothetical protein" points="118,25 116,25 116,10 86,40 116,70 116,55 118,55" fill="rgb(255,255,255)" fill-opacity="1.0" stroke="rgb(0,0,0)" stroke-width="2"  />
			<g>
				<title>Polysacc_deac_1 (PF01522)
"Polysaccharide deacetylase"</title>
				<polygon class="PF01522" points="94,36 102,28 106,28 106,52 102,52 94,44" stroke-linejoin="round" width="12" height="24" fill="rgb(56,221,58)" stroke="rgb(44,176,46)" stroke-width="1" opacity="0.75" />
			</g>
			<g>
				<title>LysM (PF01476)
"LysM domain"</title>
				<rect class="PF01476" x="111" y="28" stroke-linejoin="round" width="4" height="24" fill="rgb(200,86,203)" stroke="rgb(160,68,162)" stroke-width="1" opacity="0.75" />
			</g>
		</g>
		<g>
			<title> (OPNKNPOB_01222)
hypothetical protein</title>
			<polygon class=" (OPNKNPOB_01222)
hypothetical protein" points="144,40 160,10 160,70" fill="rgb(255,255,255)" fill-opacity="1.0" stroke="rgb(0,0,0)" stroke-width="2"  />
		</g>
		<g>
			<title>cotF (OPNKNPOB_01223)
Spore coat protein F</title>
			<polygon class="cotF (OPNKNPOB_01223)
Spore coat protein F" points="165,10 177,40 165,70" fill="rgb(255,255,255)" fill-opacity="1.0" stroke="rgb(0,0,0)" stroke-width="2"  />
			<g>
				<title>Coat_F (PF07875)
"Coat F domain"</title>
				<polygon class="PF07875" points="173,37 174,40 173,43" stroke-linejoin="round" width="4" height="24" fill="rgb(69,195,217)" stroke="rgb(55,155,173)" stroke-width="1" opacity="0.75" />
			</g>
		</g>
		<g>
			<title> (OPNKNPOB_01224)
hypothetical protein</title>
			<polygon class=" (OPNKNPOB_01224)
hypothetical protein" points="209,40 222,10 222,70" fill="rgb(255,255,255)" fill-opacity="1.0" stroke="rgb(0,0,0)" stroke-width="2"  />
		</g>
		<g>
			<title> (OPNKNPOB_01225)
hypothetical protein</title>
			<polygon class=" (OPNKNPOB_01225)
hypothetical protein" points="228,40 236,10 236,70" fill="rgb(255,255,255)" fill-opacity="1.0" stroke="rgb(0,0,0)" stroke-width="2"  />
		</g>
		<g>
			<title> (OPNKNPOB_01226)
hypothetical protein</title>
			<polygon class=" (OPNKNPOB_01226)
hypothetical protein" points="242,10 248,40 242,70" fill="rgb(255,255,255)" fill-opacity="1.0" stroke="rgb(0,0,0)" stroke-width="2"  />
		</g>
		<g>
			<title>xerC_2 (OPNKNPOB_01227)
Tyrosine recombinase XerC</title>
			<polygon class="xerC_2 (OPNKNPOB_01227)
Tyrosine recombinase XerC" points="262,10 288,40 262,70" fill="rgb(255,255,255)" fill-opacity="1.0" stroke="rgb(0,0,0)" stroke-width="2"  />
			<g>
				<title>Phage_integrase (PF00589)
"Phage integrase family"</title>
				<polygon class="PF00589" points="266,28 273,28 284,40 273,52 266,52" stroke-linejoin="round" width="19" height="24" fill="rgb(91,96,195)" stroke="rgb(72,76,156)" stroke-width="1" opacity="0.75" />
			</g>
		</g>
		<g>
			<title> (OPNKNPOB_01229)
hypothetical protein</title>
			<polygon class=" (OPNKNPOB_01229)
hypothetical protein" points="302,10 326,40 302,70" fill="rgb(255,255,255)" fill-opacity="1.0" stroke="rgb(0,0,0)" stroke-width="2"  />
			<g>
				<title>Esterase (PF00756)
"Putative esterase"</title>
				<polygon class="PF00756" points="303,28 313,28 322,40 313,52 303,52" stroke-linejoin="round" width="22" height="24" fill="rgb(217,132,77)" stroke="rgb(173,105,61)" stroke-width="1" opacity="0.75" />
			</g>
		</g>
		<g>
			<title>yjcG (OPNKNPOB_01230)
Putative phosphoesterase YjcG</title>
			<polygon class="yjcG (OPNKNPOB_01230)
Putative phosphoesterase YjcG" points="327,10 344,40 327,70" fill="rgb(255,255,255)" fill-opacity="1.0" stroke="rgb(0,0,0)" stroke-width="2"  />
			<g>
				<title>2_5_RNA_ligase2 (PF13563)
"2'-5' RNA ligase superfamily"</title>
				<polygon class="PF13563" points="327,28 333,28 340,40 333,52 327,52" stroke-linejoin="round" width="14" height="24" fill="rgb(67,81,196)" stroke="rgb(53,64,156)" stroke-width="1" opacity="0.75" />
			</g>
		</g>
		<g>
			<title>yjcF (OPNKNPOB_01231)
putative N-acetyltransferase YjcF</title>
			<polygon class="yjcF (OPNKNPOB_01231)
putative N-acetyltransferase YjcF" points="343,10 358,40 343,70" fill="rgb(255,255,255)" fill-opacity="1.0" stroke="rgb(0,0,0)" stroke-width="2"  />
			<g>
				<title>Acetyltransf_10 (PF13673)
"Acetyltransferase (GNAT) domain"</title>
				<polygon class="PF13673" points="344,28 348,28 354,40 348,52 344,52" stroke-linejoin="round" width="13" height="24" fill="rgb(88,180,95)" stroke="rgb(70,144,76)" stroke-width="1" opacity="0.75" />
			</g>
		</g>
		<g>
			<title> (OPNKNPOB_01232)
hypothetical protein</title>
			<polygon class=" (OPNKNPOB_01232)
hypothetical protein" points="361,10 384,40 361,70" fill="rgb(255,255,255)" fill-opacity="1.0" stroke="rgb(0,0,0)" stroke-width="2"  />
			<g>
				<title>DUF421 (PF04239)
"Protein of unknown function (DUF421)"</title>
				<polygon class="PF04239" points="369,28 371,28 380,40 380,40 371,52 369,52" stroke-linejoin="round" width="11" height="24" fill="rgb(165,197,85)" stroke="rgb(132,157,68)" stroke-width="1" opacity="0.75" />
			</g>
		</g>
		<g>
			<title>gloB_2 (OPNKNPOB_01233)
Hydroxyacylglutathione hydrolase</title>
			<polygon class="gloB_2 (OPNKNPOB_01233)
Hydroxyacylglutathione hydrolase" points="384,40 413,10 413,70" fill="rgb(255,255,255)" fill-opacity="1.0" stroke="rgb(0,0,0)" stroke-width="2"  />
			<g>
				<title>Lactamase_B (PF00753)
"Metallo-beta-lactamase superfamily"</title>
				<polygon class="PF00753" points="393,35 400,28 412,28 412,52 400,52 393,45" stroke-linejoin="round" width="19" height="24" fill="rgb(206,198,96)" stroke="rgb(164,158,76)" stroke-width="1" opacity="0.75" />
			</g>
		</g>
		<g>
			<title> (OPNKNPOB_01234)
hypothetical protein</title>
			<polygon class=" (OPNKNPOB_01234)
hypothetical protein" points="414,40 423,10 423,70" fill="rgb(255,255,255)" fill-opacity="1.0" stroke="rgb(0,0,0)" stroke-width="2"  />
		</g>
		<g>
			<title> (OPNKNPOB_01235)
hypothetical protein</title>
			<polygon class=" (OPNKNPOB_01235)
hypothetical protein" points="426,40 436,10 436,70" fill="rgb(255,255,255)" fill-opacity="1.0" stroke="rgb(0,0,0)" stroke-width="2"  />
			<g>
				<title>DUF1360 (PF07098)
"Protein of unknown function (DUF1360)"</title>
				<polygon class="PF07098" points="429,40 433,28 435,28 435,52 433,52" stroke-linejoin="round" width="9" height="24" fill="rgb(62,62,180)" stroke="rgb(49,49,144)" stroke-width="1" opacity="0.75" />
			</g>
		</g>
		<g>
			<title> (OPNKNPOB_01236)
hypothetical protein</title>
			<polygon class=" (OPNKNPOB_01236)
hypothetical protein" points="438,40 447,10 447,70" fill="rgb(255,255,255)" fill-opacity="1.0" stroke="rgb(0,0,0)" stroke-width="2"  />
		</g>
		<g>
			<title>cotY (OPNKNPOB_01237)
Spore coat protein Y</title>
			<polygon class="cotY (OPNKNPOB_01237)
Spore coat protein Y" points="454,10 469,40 454,70" fill="rgb(255,255,255)" fill-opacity="1.0" stroke="rgb(0,0,0)" stroke-width="2"  />
			<g>
				<title>Spore-coat_CotZ (PF10612)
"Spore coat protein Z"</title>
				<polygon class="PF10612" points="454,28 459,28 465,40 459,52 454,52" stroke-linejoin="round" width="14" height="24" fill="rgb(91,124,222)" stroke="rgb(72,99,177)" stroke-width="1" opacity="0.75" />
			</g>
		</g>
		<g>
			<title> (OPNKNPOB_01238)
hypothetical protein</title>
			<polygon class=" (OPNKNPOB_01238)
hypothetical protein" points="471,40 487,10 487,70" fill="rgb(255,255,255)" fill-opacity="1.0" stroke="rgb(0,0,0)" stroke-width="2"  />
			<g>
				<title>Spore_coat_CotO (PF14153)
"Spore coat protein CotO"</title>
				<polygon class="PF14153" points="474,40 481,28 482,28 482,52 481,52" stroke-linejoin="round" width="11" height="24" fill="rgb(180,88,186)" stroke="rgb(144,70,148)" stroke-width="1" opacity="0.75" />
			</g>
		</g>
		<g>
			<title>fabI (OPNKNPOB_01239)
Enoyl-[acyl-carrier-protein] reductase [NADH] FabI</title>
			<polygon class="fabI (OPNKNPOB_01239)
Enoyl-[acyl-carrier-protein] reductase [NADH] FabI" points="496,40 522,10 522,70" fill="rgb(255,255,255)" fill-opacity="1.0" stroke="rgb(0,0,0)" stroke-width="2"  />
			<g>
				<title>adh_short_C2 (PF13561)
"Enoyl-(Acyl carrier protein) reductase"</title>
				<polygon class="PF13561" points="500,40 510,28 520,28 520,52 510,52" stroke-linejoin="round" width="24" height="24" fill="rgb(73,205,127)" stroke="rgb(58,164,101)" stroke-width="1" opacity="0.75" />
			</g>
		</g>
		<g>
			<title>mgtE (OPNKNPOB_01240)
Magnesium transporter MgtE</title>
			<polygon class="mgtE (OPNKNPOB_01240)
Magnesium transporter MgtE" points="571,25 556,25 556,10 526,40 556,70 556,55 571,55" fill="rgb(255,255,255)" fill-opacity="1.0" stroke="rgb(0,0,0)" stroke-width="2"  />
			<g>
				<title>MgtE (PF01769)
"Divalent cation transporter"</title>
				<polygon class="PF01769" points="530,40 539,31 539,49" stroke-linejoin="round" width="12" height="24" fill="rgb(55,87,223)" stroke="rgb(44,69,178)" stroke-width="1" opacity="0.75" />
			</g>
			<g>
				<title>CBS (PF00571)
"CBS domain"</title>
				<rect class="PF00571" x="545" y="28" stroke-linejoin="round" width="5" height="24" fill="rgb(220,56,105)" stroke="rgb(176,44,84)" stroke-width="1" opacity="0.75" />
			</g>
			<g>
				<title>CBS (PF00571)
"CBS domain"</title>
				<rect class="PF00571" x="551" y="28" stroke-linejoin="round" width="5" height="24" fill="rgb(220,56,105)" stroke="rgb(176,44,84)" stroke-width="1" opacity="0.75" />
			</g>
			<g>
				<title>MgtE_N (PF03448)
"MgtE intracellular N domain"</title>
				<rect class="PF03448" x="557" y="28" stroke-linejoin="round" width="10" height="24" fill="rgb(177,92,225)" stroke="rgb(141,73,180)" stroke-width="1" opacity="0.75" />
			</g>
		</g>
		<g>
			<title>prpE (OPNKNPOB_01241)
Bis(5'-nucleosyl)-tetraphosphatase PrpE [asymmetrical]</title>
			<polygon class="prpE (OPNKNPOB_01241)
Bis(5'-nucleosyl)-tetraphosphatase PrpE [asymmetrical]" points="580,10 604,40 580,70" fill="rgb(255,255,255)" fill-opacity="1.0" stroke="rgb(0,0,0)" stroke-width="2"  />
			<g>
				<title>Metallophos (PF00149)
"Calcineurin-like phosphoesterase"</title>
				<polygon class="PF00149" points="580,28 591,28 599,39 599,41 591,52 580,52" stroke-linejoin="round" width="19" height="24" fill="rgb(181,197,58)" stroke="rgb(144,157,46)" stroke-width="1" opacity="0.75" />
			</g>
		</g>
		<g>
			<title> (OPNKNPOB_01242)
hypothetical protein</title>
			<polygon class=" (OPNKNPOB_01242)
hypothetical protein" points="607,40 634,10 634,70" fill="rgb(255,255,255)" fill-opacity="1.0" stroke="rgb(0,0,0)" stroke-width="2"  />
			<g>
				<title>PseudoU_synth_2 (PF00849)
"RNA pseudouridylate synthase"</title>
				<polygon class="PF00849" points="612,39 622,28 627,28 627,52 622,52 612,41" stroke-linejoin="round" width="15" height="24" fill="rgb(226,76,228)" stroke="rgb(180,60,182)" stroke-width="1" opacity="0.75" />
			</g>
		</g>
		<g>
			<title>ppnKA (OPNKNPOB_01243)
NAD kinase 1</title>
			<polygon class="ppnKA (OPNKNPOB_01243)
NAD kinase 1" points="637,40 663,10 663,70" fill="rgb(255,255,255)" fill-opacity="1.0" stroke="rgb(0,0,0)" stroke-width="2"  />
			<g>
				<title>NAD_kinase (PF01513)
"ATP-NAD kinase"</title>
				<polygon class="PF01513" points="641,40 652,28 663,28 663,52 652,52" stroke-linejoin="round" width="23" height="24" fill="rgb(214,129,96)" stroke="rgb(171,103,76)" stroke-width="1" opacity="0.75" />
			</g>
		</g>
		<g>
			<title>yjbM (OPNKNPOB_01244)
GTP pyrophosphokinase YjbM</title>
			<polygon class="yjbM (OPNKNPOB_01244)
GTP pyrophosphokinase YjbM" points="664,40 685,10 685,70" fill="rgb(255,255,255)" fill-opacity="1.0" stroke="rgb(0,0,0)" stroke-width="2"  />
			<g>
				<title>RelA_SpoT (PF04607)
"Region found in RelA / SpoT proteins"</title>
				<polygon class="PF04607" points="668,40 676,28 680,28 680,52 676,52 668,40" stroke-linejoin="round" width="12" height="24" fill="rgb(227,74,90)" stroke="rgb(181,59,71)" stroke-width="1" opacity="0.75" />
			</g>
		</g>
	</g>
</svg>
