<svg version="1.1" baseProfile="full" xmlns="http://www.w3.org/2000/svg" width="366.43333333333334" height="80">
	<g>
		<line x1="10" y1="40.0" x2="356.43333333333334" y2="40.0" style="stroke:rgb(70,70,70); stroke-width:3 "/>
		<g>
			<title>bbsG_2 (JDCNNPMD_02899)
(R)-benzylsuccinyl-CoA dehydrogenase</title>
			<polygon class="bbsG_2 (JDCNNPMD_02899)
(R)-benzylsuccinyl-CoA dehydrogenase" points="55,25 44,25 44,10 14,40 44,70 44,55 55,55" fill="rgb(255,255,255)" fill-opacity="1.0" stroke="rgb(0,0,0)" stroke-width="2"  />
			<g>
				<title>Acyl-CoA_dh_1 (PF00441)
"Acyl-CoA dehydrogenase, C-terminal domain"</title>
				<polygon class="PF00441" points="18,40 30,28 30,28 30,52 30,52" stroke-linejoin="round" width="15" height="24" fill="rgb(85,191,117)" stroke="rgb(68,152,93)" stroke-width="1" opacity="0.75" />
			</g>
			<g>
				<title>Acyl-CoA_dh_M (PF02770)
"Acyl-CoA dehydrogenase, middle domain"</title>
				<rect class="PF02770" x="31" y="28" stroke-linejoin="round" width="10" height="24" fill="rgb(225,186,97)" stroke="rgb(180,148,77)" stroke-width="1" opacity="0.75" />
			</g>
			<g>
				<title>Acyl-CoA_dh_N (PF02771)
"Acyl-CoA dehydrogenase, N-terminal domain"</title>
				<rect class="PF02771" x="42" y="28" stroke-linejoin="round" width="12" height="24" fill="rgb(105,135,218)" stroke="rgb(84,108,174)" stroke-width="1" opacity="0.75" />
			</g>
		</g>
		<g>
			<title> (JDCNNPMD_02900)
hypothetical protein</title>
			<polygon class=" (JDCNNPMD_02900)
hypothetical protein" points="56,40 70,10 70,70" fill="rgb(255,255,255)" fill-opacity="1.0" stroke="rgb(0,0,0)" stroke-width="2"  />
			<g>
				<title>MaoC_dehydratas (PF01575)
"MaoC like domain"</title>
				<polygon class="PF01575" points="59,40 65,28 69,28 69,52 65,52" stroke-linejoin="round" width="11" height="24" fill="rgb(218,129,86)" stroke="rgb(174,103,68)" stroke-width="1" opacity="0.75" />
			</g>
		</g>
		<g>
			<title> (JDCNNPMD_02901)
hypothetical protein</title>
			<polygon class=" (JDCNNPMD_02901)
hypothetical protein" points="69,40 83,10 83,70" fill="rgb(255,255,255)" fill-opacity="1.0" stroke="rgb(0,0,0)" stroke-width="2"  />
			<g>
				<title>MaoC_dehydrat_N (PF13452)
"N-terminal half of MaoC dehydratase"</title>
				<polygon class="PF13452" points="72,40 78,28 82,28 82,52 78,52" stroke-linejoin="round" width="12" height="24" fill="rgb(215,186,64)" stroke="rgb(172,148,51)" stroke-width="1" opacity="0.75" />
			</g>
		</g>
		<g>
			<title>fabG_9 (JDCNNPMD_02902)
3-oxoacyl-[acyl-carrier-protein] reductase FabG</title>
			<polygon class="fabG_9 (JDCNNPMD_02902)
3-oxoacyl-[acyl-carrier-protein] reductase FabG" points="85,40 110,10 110,70" fill="rgb(255,255,255)" fill-opacity="1.0" stroke="rgb(0,0,0)" stroke-width="2"  />
			<g>
				<title>adh_short_C2 (PF13561)
"Enoyl-(Acyl carrier protein) reductase"</title>
				<polygon class="PF13561" points="89,40 99,28 109,28 109,52 99,52" stroke-linejoin="round" width="24" height="24" fill="rgb(73,205,127)" stroke="rgb(58,164,101)" stroke-width="1" opacity="0.75" />
			</g>
		</g>
		<g>
			<title>carC (JDCNNPMD_02903)
Caffeyl-CoA reductase-Etf complex subunit CarC</title>
			<polygon class="carC (JDCNNPMD_02903)
Caffeyl-CoA reductase-Etf complex subunit CarC" points="151,25 141,25 141,10 111,40 141,70 141,55 151,55" fill="rgb(255,255,255)" fill-opacity="1.0" stroke="rgb(0,0,0)" stroke-width="2"  />
			<g>
				<title>Acyl-CoA_dh_1 (PF00441)
"Acyl-CoA dehydrogenase, C-terminal domain"</title>
				<polygon class="PF00441" points="115,40 125,30 125,50" stroke-linejoin="round" width="14" height="24" fill="rgb(85,191,117)" stroke="rgb(68,152,93)" stroke-width="1" opacity="0.75" />
			</g>
			<g>
				<title>Acyl-CoA_dh_M (PF02770)
"Acyl-CoA dehydrogenase, middle domain"</title>
				<polygon class="PF02770" points="127,28 127,28 136,28 136,52 127,52 127,52" stroke-linejoin="round" width="9" height="24" fill="rgb(225,186,97)" stroke="rgb(180,148,77)" stroke-width="1" opacity="0.75" />
			</g>
			<g>
				<title>Acyl-CoA_dh_N (PF02771)
"Acyl-CoA dehydrogenase, N-terminal domain"</title>
				<rect class="PF02771" x="137" y="28" stroke-linejoin="round" width="11" height="24" fill="rgb(105,135,218)" stroke="rgb(84,108,174)" stroke-width="1" opacity="0.75" />
			</g>
		</g>
		<g>
			<title> (JDCNNPMD_02904)
hypothetical protein</title>
			<polygon class=" (JDCNNPMD_02904)
hypothetical protein" points="167,10 172,40 167,70" fill="rgb(255,255,255)" fill-opacity="1.0" stroke="rgb(0,0,0)" stroke-width="2"  />
			<g>
				<title>Fur_reg_FbpA (PF13076)
"Fur-regulated basic protein A"</title>
				<polygon class="PF13076" points="168,33 169,40 168,47" stroke-linejoin="round" width="3" height="24" fill="rgb(216,213,88)" stroke="rgb(172,170,70)" stroke-width="1" opacity="0.75" />
			</g>
		</g>
		<g>
			<title>ectC (JDCNNPMD_02905)
L-ectoine synthase</title>
			<polygon class="ectC (JDCNNPMD_02905)
L-ectoine synthase" points="176,40 189,10 189,70" fill="rgb(255,255,255)" fill-opacity="1.0" stroke="rgb(0,0,0)" stroke-width="2"  />
			<g>
				<title>Ectoine_synth (PF06339)
"Ectoine synthase"</title>
				<polygon class="PF06339" points="179,40 184,28 188,28 188,52 184,52" stroke-linejoin="round" width="12" height="24" fill="rgb(225,176,81)" stroke="rgb(180,140,64)" stroke-width="1" opacity="0.75" />
			</g>
		</g>
		<g>
			<title>ectB (JDCNNPMD_02906)
Diaminobutyrate--2-oxoglutarate transaminase</title>
			<polygon class="ectB (JDCNNPMD_02906)
Diaminobutyrate--2-oxoglutarate transaminase" points="232,25 219,25 219,10 189,40 219,70 219,55 232,55" fill="rgb(255,255,255)" fill-opacity="1.0" stroke="rgb(0,0,0)" stroke-width="2"  />
			<g>
				<title>Aminotran_3 (PF00202)
"Aminotransferase class-III"</title>
				<polygon class="PF00202" points="193,40 205,28 229,28 229,52 205,52" stroke-linejoin="round" width="39" height="24" fill="rgb(49,163,189)" stroke="rgb(39,130,151)" stroke-width="1" opacity="0.75" />
			</g>
		</g>
		<g>
			<title>ectA (JDCNNPMD_02907)
L-2,4-diaminobutyric acid acetyltransferase</title>
			<polygon class="ectA (JDCNNPMD_02907)
L-2,4-diaminobutyric acid acetyltransferase" points="233,40 247,10 247,70" fill="rgb(255,255,255)" fill-opacity="1.0" stroke="rgb(0,0,0)" stroke-width="2"  />
			<g>
				<title>Acetyltransf_1 (PF00583)
"Acetyltransferase (GNAT) family"</title>
				<polygon class="PF00583" points="236,40 242,28 246,28 246,52 242,52 236,40" stroke-linejoin="round" width="10" height="24" fill="rgb(121,183,50)" stroke="rgb(96,146,39)" stroke-width="1" opacity="0.75" />
			</g>
		</g>
		<g>
			<title> (JDCNNPMD_02908)
hypothetical protein</title>
			<polygon class=" (JDCNNPMD_02908)
hypothetical protein" points="268,40 295,10 295,70" fill="rgb(255,255,255)" fill-opacity="1.0" stroke="rgb(0,0,0)" stroke-width="2"  />
		</g>
		<g>
			<title> (JDCNNPMD_02909)
hypothetical protein</title>
			<polygon class=" (JDCNNPMD_02909)
hypothetical protein" points="302,10 313,40 302,70" fill="rgb(255,255,255)" fill-opacity="1.0" stroke="rgb(0,0,0)" stroke-width="2"  />
		</g>
	</g>
</svg>
