<svg version="1.1" baseProfile="full" xmlns="http://www.w3.org/2000/svg" width="460.4" height="80">
	<g>
		<line x1="10" y1="40.0" x2="450.4" y2="40.0" style="stroke:rgb(70,70,70); stroke-width:3 "/>
		<g>
			<title> (INNIBCFN_01983)
hypothetical protein</title>
			<polygon class=" (INNIBCFN_01983)
hypothetical protein" points="10,40 29,10 29,70" fill="rgb(255,255,255)" fill-opacity="1.0" stroke="rgb(0,0,0)" stroke-width="2"  />
			<g>
				<title>His_Phos_1 (PF00300)
"Histidine phosphatase superfamily (branch 1)"</title>
				<polygon class="PF00300" points="21,29 22,28 28,28 28,52 22,52 21,51" stroke-linejoin="round" width="7" height="24" fill="rgb(135,184,63)" stroke="rgb(107,147,50)" stroke-width="1" opacity="0.75" />
			</g>
		</g>
		<g>
			<title>tam_2 (INNIBCFN_01984)
Trans-aconitate 2-methyltransferase</title>
			<polygon class="tam_2 (INNIBCFN_01984)
Trans-aconitate 2-methyltransferase" points="28,40 52,10 52,70" fill="rgb(255,255,255)" fill-opacity="1.0" stroke="rgb(0,0,0)" stroke-width="2"  />
			<g>
				<title>Methyltransf_23 (PF13489)
"Methyltransferase domain"</title>
				<polygon class="PF13489" points="32,40 42,28 50,28 50,52 42,52" stroke-linejoin="round" width="19" height="24" fill="rgb(188,189,66)" stroke="rgb(150,151,52)" stroke-width="1" opacity="0.75" />
			</g>
		</g>
		<g>
			<title>fosB (INNIBCFN_01985)
Metallothiol transferase FosB</title>
			<polygon class="fosB (INNIBCFN_01985)
Metallothiol transferase FosB" points="53,40 67,10 67,70" fill="rgb(255,255,255)" fill-opacity="1.0" stroke="rgb(0,0,0)" stroke-width="2"  />
			<g>
				<title>Glyoxalase (PF00903)
"Glyoxalase/Bleomycin resistance protein/Dioxygenase superfamily"</title>
				<polygon class="PF00903" points="56,40 62,28 66,28 66,52 62,52" stroke-linejoin="round" width="11" height="24" fill="rgb(50,162,189)" stroke="rgb(40,129,151)" stroke-width="1" opacity="0.75" />
			</g>
		</g>
		<g>
			<title> (INNIBCFN_01986)
hypothetical protein</title>
			<polygon class=" (INNIBCFN_01986)
hypothetical protein" points="71,40 79,10 79,70" fill="rgb(255,255,255)" fill-opacity="1.0" stroke="rgb(0,0,0)" stroke-width="2"  />
		</g>
		<g>
			<title> (INNIBCFN_01987)
hypothetical protein</title>
			<polygon class=" (INNIBCFN_01987)
hypothetical protein" points="79,40 100,10 100,70" fill="rgb(255,255,255)" fill-opacity="1.0" stroke="rgb(0,0,0)" stroke-width="2"  />
			<g>
				<title>Lysozyme_like (PF13702)
"Lysozyme-like"</title>
				<polygon class="PF13702" points="83,40 91,28 94,28 94,52 91,52" stroke-linejoin="round" width="15" height="24" fill="rgb(186,63,104)" stroke="rgb(148,50,83)" stroke-width="1" opacity="0.75" />
			</g>
		</g>
		<g>
			<title> (INNIBCFN_01988)
hypothetical protein</title>
			<polygon class=" (INNIBCFN_01988)
hypothetical protein" points="116,40 120,10 120,70" fill="rgb(255,255,255)" fill-opacity="1.0" stroke="rgb(0,0,0)" stroke-width="2"  />
		</g>
		<g>
			<title>sbnH (INNIBCFN_01989)
2-[(L-alanin-3-ylcarbamoyl)methyl]-2- hydroxybutanedioate decarboxylase</title>
			<polygon class="sbnH (INNIBCFN_01989)
2-[(L-alanin-3-ylcarbamoyl)methyl]-2- hydroxybutanedioate decarboxylase" points="167,25 158,25 158,10 128,40 158,70 158,55 167,55" fill="rgb(255,255,255)" fill-opacity="1.0" stroke="rgb(0,0,0)" stroke-width="2"  />
			<g>
				<title>Orn_Arg_deC_N (PF02784)
"Pyridoxal-dependent decarboxylase, pyridoxal binding domain"</title>
				<polygon class="PF02784" points="140,32 144,28 164,28 164,52 144,52 140,48" stroke-linejoin="round" width="24" height="24" fill="rgb(106,204,212)" stroke="rgb(84,163,169)" stroke-width="1" opacity="0.75" />
			</g>
		</g>
		<g>
			<title> (INNIBCFN_01990)
hypothetical protein</title>
			<polygon class=" (INNIBCFN_01990)
hypothetical protein" points="232,25 197,25 197,10 167,40 197,70 197,55 232,55" fill="rgb(255,255,255)" fill-opacity="1.0" stroke="rgb(0,0,0)" stroke-width="2"  />
			<g>
				<title>FhuF (PF06276)
"Ferric iron reductase FhuF-like transporter"</title>
				<polygon class="PF06276" points="171,40 183,28 184,28 184,52 183,52" stroke-linejoin="round" width="16" height="24" fill="rgb(76,151,221)" stroke="rgb(60,120,176)" stroke-width="1" opacity="0.75" />
			</g>
			<g>
				<title>IucA_IucC (PF04183)
"IucA / IucC family"</title>
				<rect class="PF04183" x="188" y="28" stroke-linejoin="round" width="23" height="24" fill="rgb(221,104,121)" stroke="rgb(176,83,96)" stroke-width="1" opacity="0.75" />
			</g>
		</g>
		<g>
			<title>sbnF (INNIBCFN_01991)
2-[(L-alanin-3-ylcarbamoyl)methyl]-3-(2- aminoethylcarbamoyl)-2-hydroxypropanoate synthase</title>
			<polygon class="sbnF (INNIBCFN_01991)
2-[(L-alanin-3-ylcarbamoyl)methyl]-3-(2- aminoethylcarbamoyl)-2-hydroxypropanoate synthase" points="293,25 262,25 262,10 232,40 262,70 262,55 293,55" fill="rgb(255,255,255)" fill-opacity="1.0" stroke="rgb(0,0,0)" stroke-width="2"  />
			<g>
				<title>FhuF (PF06276)
"Ferric iron reductase FhuF-like transporter"</title>
				<polygon class="PF06276" points="236,40 248,28 250,28 250,52 248,52" stroke-linejoin="round" width="16" height="24" fill="rgb(76,151,221)" stroke="rgb(60,120,176)" stroke-width="1" opacity="0.75" />
			</g>
			<g>
				<title>IucA_IucC (PF04183)
"IucA / IucC family"</title>
				<rect class="PF04183" x="253" y="28" stroke-linejoin="round" width="24" height="24" fill="rgb(221,104,121)" stroke="rgb(176,83,96)" stroke-width="1" opacity="0.75" />
			</g>
		</g>
		<g>
			<title> (INNIBCFN_01992)
hypothetical protein</title>
			<polygon class=" (INNIBCFN_01992)
hypothetical protein" points="301,10 325,40 301,70" fill="rgb(255,255,255)" fill-opacity="1.0" stroke="rgb(0,0,0)" stroke-width="2"  />
		</g>
		<g>
			<title>mtlD (INNIBCFN_01993)
Mannitol-1-phosphate 5-dehydrogenase</title>
			<polygon class="mtlD (INNIBCFN_01993)
Mannitol-1-phosphate 5-dehydrogenase" points="365,25 357,25 357,10 327,40 357,70 357,55 365,55" fill="rgb(255,255,255)" fill-opacity="1.0" stroke="rgb(0,0,0)" stroke-width="2"  />
			<g>
				<title>Mannitol_dh_C (PF08125)
"Mannitol dehydrogenase C-terminal domain"</title>
				<polygon class="PF08125" points="331,40 343,28 350,28 350,52 343,52" stroke-linejoin="round" width="22" height="24" fill="rgb(196,64,94)" stroke="rgb(156,51,75)" stroke-width="1" opacity="0.75" />
			</g>
			<g>
				<title>Mannitol_dh (PF01232)
"Mannitol dehydrogenase Rossmann domain"</title>
				<rect class="PF01232" x="353" y="28" stroke-linejoin="round" width="12" height="24" fill="rgb(221,155,56)" stroke="rgb(176,124,44)" stroke-width="1" opacity="0.75" />
			</g>
		</g>
		<g>
			<title>mtlF (INNIBCFN_01994)
Mannitol-specific phosphotransferase enzyme IIA component</title>
			<polygon class="mtlF (INNIBCFN_01994)
Mannitol-specific phosphotransferase enzyme IIA component" points="365,40 379,10 379,70" fill="rgb(255,255,255)" fill-opacity="1.0" stroke="rgb(0,0,0)" stroke-width="2"  />
			<g>
				<title>PTS_EIIA_2 (PF00359)
"Phosphoenolpyruvate-dependent sugar phosphotransferase system, EIIA 2"</title>
				<polygon class="PF00359" points="368,40 374,28 379,28 379,52 374,52" stroke-linejoin="round" width="14" height="24" fill="rgb(115,83,186)" stroke="rgb(91,66,148)" stroke-width="1" opacity="0.75" />
			</g>
		</g>
		<g>
			<title>mtlR (INNIBCFN_01995)
Transcriptional regulator MtlR</title>
			<polygon class="mtlR (INNIBCFN_01995)
Transcriptional regulator MtlR" points="449,25 410,25 410,10 380,40 410,70 410,55 449,55" fill="rgb(255,255,255)" fill-opacity="1.0" stroke="rgb(0,0,0)" stroke-width="2"  />
			<g>
				<title>PTS_EIIA_2 (PF00359)
"Phosphoenolpyruvate-dependent sugar phosphotransferase system, EIIA 2"</title>
				<polygon class="PF00359" points="384,40 395,29 395,51" stroke-linejoin="round" width="14" height="24" fill="rgb(115,83,186)" stroke="rgb(91,66,148)" stroke-width="1" opacity="0.75" />
			</g>
			<g>
				<title>PTS_IIB (PF02302)
"PTS system, Lactose/Cellobiose specific IIB subunit"</title>
				<rect class="PF02302" x="399" y="28" stroke-linejoin="round" width="8" height="24" fill="rgb(106,212,56)" stroke="rgb(84,169,44)" stroke-width="1" opacity="0.75" />
			</g>
			<g>
				<title>PRD (PF00874)
"PRD domain"</title>
				<rect class="PF00874" x="409" y="28" stroke-linejoin="round" width="8" height="24" fill="rgb(72,210,205)" stroke="rgb(57,168,164)" stroke-width="1" opacity="0.75" />
			</g>
			<g>
				<title>PRD (PF00874)
"PRD domain"</title>
				<rect class="PF00874" x="420" y="28" stroke-linejoin="round" width="8" height="24" fill="rgb(72,210,205)" stroke="rgb(57,168,164)" stroke-width="1" opacity="0.75" />
			</g>
			<g>
				<title>Mga (PF05043)
"Mga helix-turn-helix domain"</title>
				<rect class="PF05043" x="431" y="28" stroke-linejoin="round" width="11" height="24" fill="rgb(177,193,55)" stroke="rgb(141,154,44)" stroke-width="1" opacity="0.75" />
			</g>
			<g>
				<title>HTH_11 (PF08279)
"HTH domain"</title>
				<rect class="PF08279" x="443" y="28" stroke-linejoin="round" width="5" height="24" fill="rgb(188,106,60)" stroke="rgb(150,84,48)" stroke-width="1" opacity="0.75" />
			</g>
		</g>
	</g>
</svg>
