<svg version="1.1" baseProfile="full" xmlns="http://www.w3.org/2000/svg" width="278.23333333333335" height="80">
	<g>
		<line x1="10" y1="40.0" x2="268.23333333333335" y2="40.0" style="stroke:rgb(70,70,70); stroke-width:3 "/>
		<g>
			<title>lcfB_4 (PLNGCNKA_03656)
Long-chain-fatty-acid--CoA ligase</title>
			<polygon class="lcfB_4 (PLNGCNKA_03656)
Long-chain-fatty-acid--CoA ligase" points="10,10 19,40 10,70" fill="rgb(255,255,255)" fill-opacity="1.0" stroke="rgb(0,0,0)" stroke-width="2"  />
			<g>
				<title>AMP-binding_C (PF13193)
"AMP-binding enzyme C-terminal domain"</title>
				<polygon class="PF13193" points="10,28 12,28 16,40 12,52 10,52" stroke-linejoin="round" width="7" height="24" fill="rgb(182,50,118)" stroke="rgb(145,39,94)" stroke-width="1" opacity="0.75" />
			</g>
		</g>
		<g>
			<title>accC_3 (PLNGCNKA_03657)
Biotin carboxylase</title>
			<polygon class="accC_3 (PLNGCNKA_03657)
Biotin carboxylase" points="20,25 35,25 35,10 65,40 35,70 35,55 20,55" fill="rgb(255,255,255)" fill-opacity="1.0" stroke="rgb(0,0,0)" stroke-width="2"  />
			<g>
				<title>Biotin_carb_N (PF00289)
"Biotin carboxylase, N-terminal domain"</title>
				<rect class="PF00289" x="20" y="28" stroke-linejoin="round" width="10" height="24" fill="rgb(59,114,187)" stroke="rgb(47,91,149)" stroke-width="1" opacity="0.75" />
			</g>
			<g>
				<title>CPSase_L_D2 (PF02786)
"Carbamoyl-phosphate synthase L chain, ATP binding domain"</title>
				<polygon class="PF02786" points="31,28 48,28 51,31 51,49 48,52 31,52" stroke-linejoin="round" width="20" height="24" fill="rgb(190,97,205)" stroke="rgb(151,77,164)" stroke-width="1" opacity="0.75" />
			</g>
			<g>
				<title>Biotin_carb_C (PF02785)
"Biotin carboxylase C-terminal domain"</title>
				<polygon class="PF02785" points="53,33 60,40 53,47" stroke-linejoin="round" width="10" height="24" fill="rgb(82,186,211)" stroke="rgb(65,148,168)" stroke-width="1" opacity="0.75" />
			</g>
		</g>
		<g>
			<title>yngHB (PLNGCNKA_03658)
Biotin/lipoyl attachment protein</title>
			<polygon class="yngHB (PLNGCNKA_03658)
Biotin/lipoyl attachment protein" points="66,10 73,40 66,70" fill="rgb(255,255,255)" fill-opacity="1.0" stroke="rgb(0,0,0)" stroke-width="2"  />
			<g>
				<title>Biotin_lipoyl (PF00364)
"Biotin-requiring enzyme"</title>
				<polygon class="PF00364" points="66,28 66,28 70,40 66,52 66,52" stroke-linejoin="round" width="6" height="24" fill="rgb(67,214,213)" stroke="rgb(53,171,170)" stroke-width="1" opacity="0.75" />
			</g>
		</g>
		<g>
			<title>yngG (PLNGCNKA_03659)
Hydroxymethylglutaryl-CoA lyase YngG</title>
			<polygon class="yngG (PLNGCNKA_03659)
Hydroxymethylglutaryl-CoA lyase YngG" points="73,25 73,25 73,10 103,40 73,70 73,55 73,55" fill="rgb(255,255,255)" fill-opacity="1.0" stroke="rgb(0,0,0)" stroke-width="2"  />
			<g>
				<title>HMGL-like (PF00682)
"HMGL-like"</title>
				<polygon class="PF00682" points="73,28 87,28 99,40 87,52 73,52" stroke-linejoin="round" width="27" height="24" fill="rgb(84,228,141)" stroke="rgb(67,182,112)" stroke-width="1" opacity="0.75" />
			</g>
		</g>
		<g>
			<title>crt (PLNGCNKA_03660)
Short-chain-enoyl-CoA hydratase</title>
			<polygon class="crt (PLNGCNKA_03660)
Short-chain-enoyl-CoA hydratase" points="104,10 130,40 104,70" fill="rgb(255,255,255)" fill-opacity="1.0" stroke="rgb(0,0,0)" stroke-width="2"  />
			<g>
				<title>ECH_1 (PF00378)
"Enoyl-CoA hydratase/isomerase"</title>
				<polygon class="PF00378" points="104,28 116,28 126,40 116,52 104,52" stroke-linejoin="round" width="25" height="24" fill="rgb(218,72,181)" stroke="rgb(174,57,144)" stroke-width="1" opacity="0.75" />
			</g>
		</g>
		<g>
			<title>accD5 (PLNGCNKA_03661)
putative propionyl-CoA carboxylase beta chain 5</title>
			<polygon class="accD5 (PLNGCNKA_03661)
putative propionyl-CoA carboxylase beta chain 5" points="130,25 151,25 151,10 181,40 151,70 151,55 130,55" fill="rgb(255,255,255)" fill-opacity="1.0" stroke="rgb(0,0,0)" stroke-width="2"  />
			<g>
				<title>Carboxyl_trans (PF01039)
"Carboxyl transferase domain"</title>
				<polygon class="PF01039" points="132,28 164,28 176,40 164,52 132,52" stroke-linejoin="round" width="48" height="24" fill="rgb(180,136,60)" stroke="rgb(144,108,48)" stroke-width="1" opacity="0.75" />
			</g>
		</g>
		<g>
			<title>acsA_3 (PLNGCNKA_03662)
Acetyl-coenzyme A synthetase</title>
			<polygon class="acsA_3 (PLNGCNKA_03662)
Acetyl-coenzyme A synthetase" points="250,25 215,25 215,10 185,40 215,70 215,55 250,55" fill="rgb(255,255,255)" fill-opacity="1.0" stroke="rgb(0,0,0)" stroke-width="2"  />
			<g>
				<title>AMP-binding_C (PF13193)
"AMP-binding enzyme C-terminal domain"</title>
				<polygon class="PF13193" points="189,40 196,33 196,47 189,40" stroke-linejoin="round" width="7" height="24" fill="rgb(182,50,118)" stroke="rgb(145,39,94)" stroke-width="1" opacity="0.75" />
			</g>
			<g>
				<title>AMP-binding (PF00501)
"AMP-binding enzyme"</title>
				<polygon class="PF00501" points="197,32 201,28 240,28 240,52 201,52 197,48" stroke-linejoin="round" width="43" height="24" fill="rgb(60,217,223)" stroke="rgb(48,173,178)" stroke-width="1" opacity="0.75" />
			</g>
			<g>
				<title>ACAS_N (PF16177)
"Acetyl-coenzyme A synthetase N-terminus"</title>
				<rect class="PF16177" x="241" y="28" stroke-linejoin="round" width="5" height="24" fill="rgb(54,78,195)" stroke="rgb(43,62,156)" stroke-width="1" opacity="0.75" />
			</g>
		</g>
	</g>
</svg>
