<svg version="1.1" baseProfile="full" xmlns="http://www.w3.org/2000/svg" width="1024.0666666666666" height="80">
	<g>
		<line x1="10" y1="40.0" x2="1014.0666666666667" y2="40.0" style="stroke:rgb(70,70,70); stroke-width:3 "/>
		<g>
			<title> (PJBLFHJD_03351)
hypothetical protein</title>
			<polygon class=" (PJBLFHJD_03351)
hypothetical protein" points="49,10 54,40 49,70" fill="rgb(255,255,255)" fill-opacity="1.0" stroke="rgb(0,0,0)" stroke-width="2"  />
		</g>
		<g>
			<title>yidK_3 (PJBLFHJD_03352)
putative symporter YidK</title>
			<polygon class="yidK_3 (PJBLFHJD_03352)
putative symporter YidK" points="81,25 103,25 103,10 133,40 103,70 103,55 81,55" fill="rgb(255,255,255)" fill-opacity="1.0" stroke="rgb(0,0,0)" stroke-width="2"  />
			<g>
				<title>SSF (PF00474)
"Sodium:solute symporter family"</title>
				<polygon class="PF00474" points="84,28 117,28 124,35 124,45 117,52 84,52" stroke-linejoin="round" width="40" height="24" fill="rgb(49,186,178)" stroke="rgb(39,148,142)" stroke-width="1" opacity="0.75" />
			</g>
		</g>
		<g>
			<title>bgaA_2 (PJBLFHJD_03353)
Beta-galactosidase BgaA</title>
			<polygon class="bgaA_2 (PJBLFHJD_03353)
Beta-galactosidase BgaA" points="136,25 171,25 171,10 201,40 171,70 171,55 136,55" fill="rgb(255,255,255)" fill-opacity="1.0" stroke="rgb(0,0,0)" stroke-width="2"  />
			<g>
				<title>Glyco_hydro_42 (PF02449)
"Beta-galactosidase"</title>
				<rect class="PF02449" x="136" y="28" stroke-linejoin="round" width="37" height="24" fill="rgb(225,128,112)" stroke="rgb(180,102,89)" stroke-width="1" opacity="0.75" />
			</g>
			<g>
				<title>Glyco_hydro_42M (PF08532)
"Beta-galactosidase trimerisation domain"</title>
				<polygon class="PF08532" points="175,28 185,28 195,38 195,42 185,52 175,52" stroke-linejoin="round" width="20" height="24" fill="rgb(190,215,94)" stroke="rgb(152,172,75)" stroke-width="1" opacity="0.75" />
			</g>
		</g>
		<g>
			<title>maa_2 (PJBLFHJD_03354)
Maltose O-acetyltransferase</title>
			<polygon class="maa_2 (PJBLFHJD_03354)
Maltose O-acetyltransferase" points="217,10 235,40 217,70" fill="rgb(255,255,255)" fill-opacity="1.0" stroke="rgb(0,0,0)" stroke-width="2"  />
			<g>
				<title>Mac (PF12464)
"Maltose acetyltransferase"</title>
				<rect class="PF12464" x="217" y="28" stroke-linejoin="round" width="5" height="24" fill="rgb(188,228,87)" stroke="rgb(150,182,69)" stroke-width="1" opacity="0.75" />
			</g>
			<g>
				<title>Hexapep_2 (PF14602)
"Hexapeptide repeat of succinyl-transferase"</title>
				<polygon class="PF14602" points="225,29 227,32 227,48 225,51" stroke-linejoin="round" width="2" height="24" fill="rgb(79,205,115)" stroke="rgb(63,164,92)" stroke-width="1" opacity="0.75" />
			</g>
			<g>
				<title>Hexapep (PF00132)
"Bacterial transferase hexapeptide (six repeats)"</title>
				<polygon class="PF00132" points="230,37 232,40 230,43" stroke-linejoin="round" width="3" height="24" fill="rgb(89,131,202)" stroke="rgb(71,104,161)" stroke-width="1" opacity="0.75" />
			</g>
		</g>
		<g>
			<title> (PJBLFHJD_03355)
hypothetical protein</title>
			<polygon class=" (PJBLFHJD_03355)
hypothetical protein" points="246,40 253,10 253,70" fill="rgb(255,255,255)" fill-opacity="1.0" stroke="rgb(0,0,0)" stroke-width="2"  />
		</g>
		<g>
			<title> (PJBLFHJD_03356)
hypothetical protein</title>
			<polygon class=" (PJBLFHJD_03356)
hypothetical protein" points="267,10 275,40 267,70" fill="rgb(255,255,255)" fill-opacity="1.0" stroke="rgb(0,0,0)" stroke-width="2"  />
		</g>
		<g>
			<title> (PJBLFHJD_03357)
hypothetical protein</title>
			<polygon class=" (PJBLFHJD_03357)
hypothetical protein" points="278,25 313,25 313,10 343,40 313,70 313,55 278,55" fill="rgb(255,255,255)" fill-opacity="1.0" stroke="rgb(0,0,0)" stroke-width="2"  />
		</g>
		<g>
			<title> (PJBLFHJD_03358)
hypothetical protein</title>
			<polygon class=" (PJBLFHJD_03358)
hypothetical protein" points="343,25 377,25 377,10 407,40 377,70 377,55 343,55" fill="rgb(255,255,255)" fill-opacity="1.0" stroke="rgb(0,0,0)" stroke-width="2"  />
			<g>
				<title>YcaO (PF02624)
"YcaO cyclodehydratase, ATP-ad Mg2+-binding"</title>
				<polygon class="PF02624" points="369,28 391,28 403,40 403,40 391,52 369,52" stroke-linejoin="round" width="34" height="24" fill="rgb(76,84,185)" stroke="rgb(60,67,148)" stroke-width="1" opacity="0.75" />
			</g>
		</g>
		<g>
			<title> (PJBLFHJD_03359)
hypothetical protein</title>
			<polygon class=" (PJBLFHJD_03359)
hypothetical protein" points="408,25 430,25 430,10 460,40 430,70 430,55 408,55" fill="rgb(255,255,255)" fill-opacity="1.0" stroke="rgb(0,0,0)" stroke-width="2"  />
			<g>
				<title>Nitroreductase (PF00881)
"Nitroreductase family"</title>
				<rect class="PF00881" x="415" y="28" stroke-linejoin="round" width="16" height="24" fill="rgb(79,118,187)" stroke="rgb(63,94,149)" stroke-width="1" opacity="0.75" />
			</g>
			<g>
				<title>Nitroreductase (PF00881)
"Nitroreductase family"</title>
				<polygon class="PF00881" points="437,28 444,28 456,40 444,52 437,52" stroke-linejoin="round" width="21" height="24" fill="rgb(79,118,187)" stroke="rgb(63,94,149)" stroke-width="1" opacity="0.75" />
			</g>
		</g>
		<g>
			<title> (PJBLFHJD_03360)
hypothetical protein</title>
			<polygon class=" (PJBLFHJD_03360)
hypothetical protein" points="506,25 501,25 501,10 471,40 501,70 501,55 506,55" fill="rgb(255,255,255)" fill-opacity="1.0" stroke="rgb(0,0,0)" stroke-width="2"  />
			<g>
				<title>HTH_30 (PF13556)
"PucR C-terminal helix-turn-helix domain"</title>
				<polygon class="PF13556" points="475,40 476,39 476,41" stroke-linejoin="round" width="5" height="24" fill="rgb(180,199,81)" stroke="rgb(144,159,64)" stroke-width="1" opacity="0.75" />
			</g>
			<g>
				<title>GGDEF_2 (PF17853)
"GGDEF-like domain"</title>
				<polygon class="PF17853" points="481,34 487,28 491,28 491,52 487,52 481,46" stroke-linejoin="round" width="10" height="24" fill="rgb(202,193,91)" stroke="rgb(161,154,72)" stroke-width="1" opacity="0.75" />
			</g>
			<g>
				<title>Diacid_rec (PF05651)
"Putative sugar diacid recognition"</title>
				<rect class="PF05651" x="492" y="28" stroke-linejoin="round" width="13" height="24" fill="rgb(187,87,79)" stroke="rgb(149,69,63)" stroke-width="1" opacity="0.75" />
			</g>
		</g>
		<g>
			<title>azoR1 (PJBLFHJD_03361)
FMN-dependent NADH-azoreductase 1</title>
			<polygon class="azoR1 (PJBLFHJD_03361)
FMN-dependent NADH-azoreductase 1" points="528,40 549,10 549,70" fill="rgb(255,255,255)" fill-opacity="1.0" stroke="rgb(0,0,0)" stroke-width="2"  />
			<g>
				<title>Flavodoxin_2 (PF02525)
"Flavodoxin-like fold"</title>
				<polygon class="PF02525" points="532,40 540,28 548,28 548,52 540,52" stroke-linejoin="round" width="20" height="24" fill="rgb(159,188,70)" stroke="rgb(127,150,56)" stroke-width="1" opacity="0.75" />
			</g>
		</g>
		<g>
			<title>dacC (PJBLFHJD_03362)
D-alanyl-D-alanine carboxypeptidase DacC</title>
			<polygon class="dacC (PJBLFHJD_03362)
D-alanyl-D-alanine carboxypeptidase DacC" points="559,25 578,25 578,10 608,40 578,70 578,55 559,55" fill="rgb(255,255,255)" fill-opacity="1.0" stroke="rgb(0,0,0)" stroke-width="2"  />
			<g>
				<title>Peptidase_S13 (PF02113)
"D-Ala-D-Ala carboxypeptidase 3 (S13) family"</title>
				<polygon class="PF02113" points="563,28 592,28 604,40 592,52 563,52" stroke-linejoin="round" width="45" height="24" fill="rgb(222,106,76)" stroke="rgb(177,84,60)" stroke-width="1" opacity="0.75" />
			</g>
		</g>
		<g>
			<title> (PJBLFHJD_03363)
hypothetical protein</title>
			<polygon class=" (PJBLFHJD_03363)
hypothetical protein" points="616,25 629,25 629,10 659,40 629,70 629,55 616,55" fill="rgb(255,255,255)" fill-opacity="1.0" stroke="rgb(0,0,0)" stroke-width="2"  />
			<g>
				<title>HATPase_c_5 (PF14501)
"GHKL domain"</title>
				<polygon class="PF14501" points="647,32 655,40 647,48" stroke-linejoin="round" width="10" height="24" fill="rgb(137,71,210)" stroke="rgb(109,56,168)" stroke-width="1" opacity="0.75" />
			</g>
		</g>
		<g>
			<title>agrB (PJBLFHJD_03364)
Accessory gene regulator protein B</title>
			<polygon class="agrB (PJBLFHJD_03364)
Accessory gene regulator protein B" points="659,10 680,40 659,70" fill="rgb(255,255,255)" fill-opacity="1.0" stroke="rgb(0,0,0)" stroke-width="2"  />
			<g>
				<title>AgrB (PF04647)
"Accessory gene regulator B"</title>
				<polygon class="PF04647" points="660,28 668,28 676,40 668,52 660,52" stroke-linejoin="round" width="17" height="24" fill="rgb(181,182,61)" stroke="rgb(144,145,48)" stroke-width="1" opacity="0.75" />
			</g>
		</g>
		<g>
			<title>natR (PJBLFHJD_03365)
Transcriptional regulatory protein NatR</title>
			<polygon class="natR (PJBLFHJD_03365)
Transcriptional regulatory protein NatR" points="684,10 708,40 684,70" fill="rgb(255,255,255)" fill-opacity="1.0" stroke="rgb(0,0,0)" stroke-width="2"  />
			<g>
				<title>Response_reg (PF00072)
"Response regulator receiver domain"</title>
				<polygon class="PF00072" points="684,28 694,28 695,29 695,51 694,52 684,52" stroke-linejoin="round" width="11" height="24" fill="rgb(100,107,203)" stroke="rgb(80,85,162)" stroke-width="1" opacity="0.75" />
			</g>
			<g>
				<title>LytTR (PF04397)
"LytTr DNA-binding domain"</title>
				<polygon class="PF04397" points="697,31 704,40 697,49" stroke-linejoin="round" width="10" height="24" fill="rgb(207,76,174)" stroke="rgb(165,60,139)" stroke-width="1" opacity="0.75" />
			</g>
		</g>
		<g>
			<title> (PJBLFHJD_03366)
hypothetical protein</title>
			<polygon class=" (PJBLFHJD_03366)
hypothetical protein" points="714,10 721,40 714,70" fill="rgb(255,255,255)" fill-opacity="1.0" stroke="rgb(0,0,0)" stroke-width="2"  />
		</g>
		<g>
			<title>lnrL_2 (PJBLFHJD_03367)
Linearmycin resistance ATP-binding protein LnrL</title>
			<polygon class="lnrL_2 (PJBLFHJD_03367)
Linearmycin resistance ATP-binding protein LnrL" points="729,10 750,40 729,70" fill="rgb(255,255,255)" fill-opacity="1.0" stroke="rgb(0,0,0)" stroke-width="2"  />
			<g>
				<title>ABC_tran (PF00005)
"ABC transporter"</title>
				<polygon class="PF00005" points="729,28 738,28 741,32 741,48 738,52 729,52" stroke-linejoin="round" width="12" height="24" fill="rgb(129,201,63)" stroke="rgb(103,160,50)" stroke-width="1" opacity="0.75" />
			</g>
		</g>
		<g>
			<title> (PJBLFHJD_03368)
hypothetical protein</title>
			<polygon class=" (PJBLFHJD_03368)
hypothetical protein" points="750,25 769,25 769,10 799,40 769,70 769,55 750,55" fill="rgb(255,255,255)" fill-opacity="1.0" stroke="rgb(0,0,0)" stroke-width="2"  />
		</g>
		<g>
			<title> (PJBLFHJD_03369)
hypothetical protein</title>
			<polygon class=" (PJBLFHJD_03369)
hypothetical protein" points="799,10 827,40 799,70" fill="rgb(255,255,255)" fill-opacity="1.0" stroke="rgb(0,0,0)" stroke-width="2"  />
		</g>
		<g>
			<title> (PJBLFHJD_03370)
hypothetical protein</title>
			<polygon class=" (PJBLFHJD_03370)
hypothetical protein" points="828,10 837,40 828,70" fill="rgb(255,255,255)" fill-opacity="1.0" stroke="rgb(0,0,0)" stroke-width="2"  />
		</g>
		<g>
			<title> (PJBLFHJD_03371)
hypothetical protein</title>
			<polygon class=" (PJBLFHJD_03371)
hypothetical protein" points="837,10 857,40 837,70" fill="rgb(255,255,255)" fill-opacity="1.0" stroke="rgb(0,0,0)" stroke-width="2"  />
			<g>
				<title>Thioredoxin_4 (PF13462)
"Thioredoxin"</title>
				<polygon class="PF13462" points="841,28 845,28 853,40 845,52 841,52" stroke-linejoin="round" width="15" height="24" fill="rgb(46,180,48)" stroke="rgb(36,144,38)" stroke-width="1" opacity="0.75" />
			</g>
		</g>
		<g>
			<title> (PJBLFHJD_03372)
hypothetical protein</title>
			<polygon class=" (PJBLFHJD_03372)
hypothetical protein" points="862,40 886,10 886,70" fill="rgb(255,255,255)" fill-opacity="1.0" stroke="rgb(0,0,0)" stroke-width="2"  />
			<g>
				<title>HAD_2 (PF13419)
"Haloacid dehalogenase-like hydrolase"</title>
				<polygon class="PF13419" points="866,40 876,28 885,28 885,52 876,52 866,40" stroke-linejoin="round" width="19" height="24" fill="rgb(60,223,188)" stroke="rgb(48,178,150)" stroke-width="1" opacity="0.75" />
			</g>
		</g>
		<g>
			<title> (PJBLFHJD_03373)
hypothetical protein</title>
			<polygon class=" (PJBLFHJD_03373)
hypothetical protein" points="900,40 911,10 911,70" fill="rgb(255,255,255)" fill-opacity="1.0" stroke="rgb(0,0,0)" stroke-width="2"  />
		</g>
		<g>
			<title> (PJBLFHJD_03374)
hypothetical protein</title>
			<polygon class=" (PJBLFHJD_03374)
hypothetical protein" points="926,25 938,25 938,10 968,40 938,70 938,55 926,55" fill="rgb(255,255,255)" fill-opacity="1.0" stroke="rgb(0,0,0)" stroke-width="2"  />
			<g>
				<title>SBP_bac_8 (PF13416)
"Bacterial extracellular solute-binding protein"</title>
				<polygon class="PF13416" points="932,28 951,28 962,39 962,41 951,52 932,52" stroke-linejoin="round" width="30" height="24" fill="rgb(66,211,58)" stroke="rgb(52,168,46)" stroke-width="1" opacity="0.75" />
			</g>
		</g>
		<g>
			<title>melD_4 (PJBLFHJD_03375)
Melibiose/raffinose/stachyose import permease protein MelD</title>
			<polygon class="melD_4 (PJBLFHJD_03375)
Melibiose/raffinose/stachyose import permease protein MelD" points="971,10 1000,40 971,70" fill="rgb(255,255,255)" fill-opacity="1.0" stroke="rgb(0,0,0)" stroke-width="2"  />
			<g>
				<title>BPD_transp_1 (PF00528)
"Binding-protein-dependent transport system inner membrane component"</title>
				<polygon class="PF00528" points="979,28 984,28 996,40 984,52 979,52" stroke-linejoin="round" width="20" height="24" fill="rgb(77,208,225)" stroke="rgb(61,166,180)" stroke-width="1" opacity="0.75" />
			</g>
		</g>
	</g>
</svg>
