<svg version="1.1" baseProfile="full" xmlns="http://www.w3.org/2000/svg" width="660.7666666666667" height="80">
	<g>
		<line x1="10" y1="40.0" x2="650.7666666666667" y2="40.0" style="stroke:rgb(70,70,70); stroke-width:3 "/>
		<g>
			<title>moaA (KKANDCCO_00365)
GTP 3',8-cyclase</title>
			<polygon class="moaA (KKANDCCO_00365)
GTP 3',8-cyclase" points="10,25 13,25 13,10 43,40 13,70 13,55 10,55" fill="rgb(255,255,255)" fill-opacity="1.0" stroke="rgb(0,0,0)" stroke-width="2"  />
			<g>
				<title>Radical_SAM (PF04055)
"Radical SAM superfamily"</title>
				<rect class="PF04055" x="11" y="28" stroke-linejoin="round" width="16" height="24" fill="rgb(149,56,222)" stroke="rgb(119,44,177)" stroke-width="1" opacity="0.75" />
			</g>
			<g>
				<title>Mob_synth_C (PF06463)
"Molybdenum Cofactor Synthesis C"</title>
				<polygon class="PF06463" points="28,29 39,40 28,51" stroke-linejoin="round" width="12" height="24" fill="rgb(149,103,225)" stroke="rgb(119,82,180)" stroke-width="1" opacity="0.75" />
			</g>
		</g>
		<g>
			<title> (KKANDCCO_00366)
hypothetical protein</title>
			<polygon class=" (KKANDCCO_00366)
hypothetical protein" points="48,10 62,40 48,70" fill="rgb(255,255,255)" fill-opacity="1.0" stroke="rgb(0,0,0)" stroke-width="2"  />
			<g>
				<title>YwpF (PF14183)
"YwpF-like protein"</title>
				<polygon class="PF14183" points="48,28 53,28 58,40 53,52 48,52" stroke-linejoin="round" width="13" height="24" fill="rgb(199,178,73)" stroke="rgb(159,142,58)" stroke-width="1" opacity="0.75" />
			</g>
		</g>
		<g>
			<title>ktrB (KKANDCCO_00367)
Ktr system potassium uptake protein B</title>
			<polygon class="ktrB (KKANDCCO_00367)
Ktr system potassium uptake protein B" points="66,25 81,25 81,10 111,40 81,70 81,55 66,55" fill="rgb(255,255,255)" fill-opacity="1.0" stroke="rgb(0,0,0)" stroke-width="2"  />
			<g>
				<title>TrkH (PF02386)
"Cation transport protein"</title>
				<polygon class="PF02386" points="67,28 95,28 107,40 95,52 67,52" stroke-linejoin="round" width="43" height="24" fill="rgb(67,179,142)" stroke="rgb(53,143,113)" stroke-width="1" opacity="0.75" />
			</g>
		</g>
		<g>
			<title> (KKANDCCO_00368)
hypothetical protein</title>
			<polygon class=" (KKANDCCO_00368)
hypothetical protein" points="112,25 147,25 147,10 177,40 147,70 147,55 112,55" fill="rgb(255,255,255)" fill-opacity="1.0" stroke="rgb(0,0,0)" stroke-width="2"  />
			<g>
				<title>PAS_9 (PF13426)
"PAS domain"</title>
				<rect class="PF13426" x="124" y="28" stroke-linejoin="round" width="9" height="24" fill="rgb(182,140,74)" stroke="rgb(145,112,59)" stroke-width="1" opacity="0.75" />
			</g>
			<g>
				<title>GGDEF (PF00990)
"Diguanylate cyclase, GGDEF domain"</title>
				<rect class="PF00990" x="135" y="28" stroke-linejoin="round" width="15" height="24" fill="rgb(62,170,199)" stroke="rgb(49,135,159)" stroke-width="1" opacity="0.75" />
			</g>
			<g>
				<title>EAL (PF00563)
"EAL domain"</title>
				<polygon class="PF00563" points="152,28 161,28 173,40 161,52 152,52" stroke-linejoin="round" width="23" height="24" fill="rgb(204,100,120)" stroke="rgb(163,80,96)" stroke-width="1" opacity="0.75" />
			</g>
		</g>
		<g>
			<title> (KKANDCCO_00369)
hypothetical protein</title>
			<polygon class=" (KKANDCCO_00369)
hypothetical protein" points="182,40 186,10 186,70" fill="rgb(255,255,255)" fill-opacity="1.0" stroke="rgb(0,0,0)" stroke-width="2"  />
			<g>
				<title>YjcZ_2 (PF09680)
"Family of unknown function"</title>
				<polygon class="PF09680" points="185,40 184,47 184,33" stroke-linejoin="round" width="2" height="24" fill="rgb(79,203,107)" stroke="rgb(63,162,85)" stroke-width="1" opacity="0.75" />
			</g>
		</g>
		<g>
			<title> (KKANDCCO_00370)
hypothetical protein</title>
			<polygon class=" (KKANDCCO_00370)
hypothetical protein" points="189,40 195,10 195,70" fill="rgb(255,255,255)" fill-opacity="1.0" stroke="rgb(0,0,0)" stroke-width="2"  />
		</g>
		<g>
			<title>crtN (KKANDCCO_00371)
4,4'-diapophytoene desaturase (4,4'-diapolycopene-forming)</title>
			<polygon class="crtN (KKANDCCO_00371)
4,4'-diapophytoene desaturase (4,4'-diapolycopene-forming)" points="203,25 223,25 223,10 253,40 223,70 223,55 203,55" fill="rgb(255,255,255)" fill-opacity="1.0" stroke="rgb(0,0,0)" stroke-width="2"  />
			<g>
				<title>Amino_oxidase (PF01593)
"Flavin containing amine oxidoreductase"</title>
				<polygon class="PF01593" points="205,28 237,28 249,40 237,52 205,52" stroke-linejoin="round" width="47" height="24" fill="rgb(184,74,52)" stroke="rgb(147,59,41)" stroke-width="1" opacity="0.75" />
			</g>
		</g>
		<g>
			<title>crtNc (KKANDCCO_00372)
4,4'-diapolycopen-4-al dehydrogenase</title>
			<polygon class="crtNc (KKANDCCO_00372)
4,4'-diapolycopen-4-al dehydrogenase" points="253,25 272,25 272,10 302,40 272,70 272,55 253,55" fill="rgb(255,255,255)" fill-opacity="1.0" stroke="rgb(0,0,0)" stroke-width="2"  />
			<g>
				<title>Amino_oxidase (PF01593)
"Flavin containing amine oxidoreductase"</title>
				<polygon class="PF01593" points="254,28 286,28 298,40 286,52 254,52" stroke-linejoin="round" width="46" height="24" fill="rgb(184,74,52)" stroke="rgb(147,59,41)" stroke-width="1" opacity="0.75" />
			</g>
		</g>
		<g>
			<title>crtB (KKANDCCO_00373)
15-cis-phytoene synthase</title>
			<polygon class="crtB (KKANDCCO_00373)
15-cis-phytoene synthase" points="303,10 330,40 303,70" fill="rgb(255,255,255)" fill-opacity="1.0" stroke="rgb(0,0,0)" stroke-width="2"  />
			<g>
				<title>SQS_PSY (PF00494)
"Squalene/phytoene synthase"</title>
				<polygon class="PF00494" points="304,28 315,28 326,40 315,52 304,52" stroke-linejoin="round" width="25" height="24" fill="rgb(178,91,49)" stroke="rgb(142,72,39)" stroke-width="1" opacity="0.75" />
			</g>
		</g>
		<g>
			<title>crtNb_1 (KKANDCCO_00374)
4,4'-diapolycopene oxygenase</title>
			<polygon class="crtNb_1 (KKANDCCO_00374)
4,4'-diapolycopene oxygenase" points="385,25 366,25 366,10 336,40 366,70 366,55 385,55" fill="rgb(255,255,255)" fill-opacity="1.0" stroke="rgb(0,0,0)" stroke-width="2"  />
			<g>
				<title>Amino_oxidase (PF01593)
"Flavin containing amine oxidoreductase"</title>
				<polygon class="PF01593" points="340,40 352,28 383,28 383,52 352,52" stroke-linejoin="round" width="47" height="24" fill="rgb(184,74,52)" stroke="rgb(147,59,41)" stroke-width="1" opacity="0.75" />
			</g>
		</g>
		<g>
			<title> (KKANDCCO_00375)
hypothetical protein</title>
			<polygon class=" (KKANDCCO_00375)
hypothetical protein" points="422,25 415,25 415,10 385,40 415,70 415,55 422,55" fill="rgb(255,255,255)" fill-opacity="1.0" stroke="rgb(0,0,0)" stroke-width="2"  />
			<g>
				<title>Glycos_transf_2 (PF00535)
"Glycosyl transferase family 2"</title>
				<polygon class="PF00535" points="400,29 401,28 417,28 417,52 401,52 400,51" stroke-linejoin="round" width="17" height="24" fill="rgb(224,122,96)" stroke="rgb(179,97,76)" stroke-width="1" opacity="0.75" />
			</g>
		</g>
		<g>
			<title> (KKANDCCO_00376)
hypothetical protein</title>
			<polygon class=" (KKANDCCO_00376)
hypothetical protein" points="426,40 448,10 448,70" fill="rgb(255,255,255)" fill-opacity="1.0" stroke="rgb(0,0,0)" stroke-width="2"  />
			<g>
				<title>Acyltransferase (PF01553)
"Acyltransferase"</title>
				<polygon class="PF01553" points="432,37 439,28 445,28 445,52 439,52 432,43" stroke-linejoin="round" width="13" height="24" fill="rgb(87,176,216)" stroke="rgb(69,140,172)" stroke-width="1" opacity="0.75" />
			</g>
		</g>
		<g>
			<title> (KKANDCCO_00377)
hypothetical protein</title>
			<polygon class=" (KKANDCCO_00377)
hypothetical protein" points="447,40 472,10 472,70" fill="rgb(255,255,255)" fill-opacity="1.0" stroke="rgb(0,0,0)" stroke-width="2"  />
			<g>
				<title>Caroten_synth (PF04240)
"Carotenoid biosynthesis protein"</title>
				<polygon class="PF04240" points="451,40 461,28 468,28 468,52 461,52" stroke-linejoin="round" width="20" height="24" fill="rgb(65,214,190)" stroke="rgb(52,171,152)" stroke-width="1" opacity="0.75" />
			</g>
		</g>
		<g>
			<title> (KKANDCCO_00378)
hypothetical protein</title>
			<polygon class=" (KKANDCCO_00378)
hypothetical protein" points="501,10 508,40 501,70" fill="rgb(255,255,255)" fill-opacity="1.0" stroke="rgb(0,0,0)" stroke-width="2"  />
			<g>
				<title>DUF1659 (PF07872)
"Protein of unknown function (DUF1659)"</title>
				<polygon class="PF07872" points="501,28 501,28 505,39 505,41 501,52 501,52" stroke-linejoin="round" width="4" height="24" fill="rgb(172,48,195)" stroke="rgb(137,38,156)" stroke-width="1" opacity="0.75" />
			</g>
		</g>
		<g>
			<title> (KKANDCCO_00379)
hypothetical protein</title>
			<polygon class=" (KKANDCCO_00379)
hypothetical protein" points="509,10 516,40 509,70" fill="rgb(255,255,255)" fill-opacity="1.0" stroke="rgb(0,0,0)" stroke-width="2"  />
			<g>
				<title>DUF2922 (PF11148)
"Protein of unknown function (DUF2922)"</title>
				<polygon class="PF11148" points="509,28 509,28 513,40 509,52 509,52" stroke-linejoin="round" width="6" height="24" fill="rgb(196,220,80)" stroke="rgb(156,176,64)" stroke-width="1" opacity="0.75" />
			</g>
		</g>
		<g>
			<title> (KKANDCCO_00380)
hypothetical protein</title>
			<polygon class=" (KKANDCCO_00380)
hypothetical protein" points="518,10 522,40 518,70" fill="rgb(255,255,255)" fill-opacity="1.0" stroke="rgb(0,0,0)" stroke-width="2"  />
			<g>
				<title>YvrJ (PF12841)
"YvrJ protein family"</title>
				<polygon class="PF12841" points="518,29 519,40 518,51" stroke-linejoin="round" width="3" height="24" fill="rgb(207,53,76)" stroke="rgb(165,42,60)" stroke-width="1" opacity="0.75" />
			</g>
		</g>
		<g>
			<title>sipT (KKANDCCO_00381)
Signal peptidase I T</title>
			<polygon class="sipT (KKANDCCO_00381)
Signal peptidase I T" points="526,40 543,10 543,70" fill="rgb(255,255,255)" fill-opacity="1.0" stroke="rgb(0,0,0)" stroke-width="2"  />
			<g>
				<title>Peptidase_S24 (PF00717)
"Peptidase S24-like"</title>
				<polygon class="PF00717" points="533,33 536,28 539,28 539,52 536,52 533,47" stroke-linejoin="round" width="6" height="24" fill="rgb(180,76,105)" stroke="rgb(144,60,83)" stroke-width="1" opacity="0.75" />
			</g>
		</g>
		<g>
			<title> (KKANDCCO_00382)
hypothetical protein</title>
			<polygon class=" (KKANDCCO_00382)
hypothetical protein" points="553,10 558,40 553,70" fill="rgb(255,255,255)" fill-opacity="1.0" stroke="rgb(0,0,0)" stroke-width="2"  />
			<g>
				<title>SpoOE-like (PF09388)
"Spo0E like sporulation regulatory protein"</title>
				<polygon class="PF09388" points="553,27 555,40 553,53" stroke-linejoin="round" width="4" height="24" fill="rgb(188,111,63)" stroke="rgb(150,88,50)" stroke-width="1" opacity="0.75" />
			</g>
		</g>
		<g>
			<title> (KKANDCCO_00383)
hypothetical protein</title>
			<polygon class=" (KKANDCCO_00383)
hypothetical protein" points="564,10 580,40 564,70" fill="rgb(255,255,255)" fill-opacity="1.0" stroke="rgb(0,0,0)" stroke-width="2"  />
			<g>
				<title>Sm_multidrug_ex (PF06695)
"Putative small multi-drug export protein"</title>
				<polygon class="PF06695" points="567,28 570,28 577,40 570,52 567,52" stroke-linejoin="round" width="12" height="24" fill="rgb(222,144,67)" stroke="rgb(177,115,53)" stroke-width="1" opacity="0.75" />
			</g>
		</g>
		<g>
			<title> (KKANDCCO_00384)
hypothetical protein</title>
			<polygon class=" (KKANDCCO_00384)
hypothetical protein" points="584,10 590,40 584,70" fill="rgb(255,255,255)" fill-opacity="1.0" stroke="rgb(0,0,0)" stroke-width="2"  />
		</g>
		<g>
			<title> (KKANDCCO_00385)
hypothetical protein</title>
			<polygon class=" (KKANDCCO_00385)
hypothetical protein" points="604,40 610,10 610,70" fill="rgb(255,255,255)" fill-opacity="1.0" stroke="rgb(0,0,0)" stroke-width="2"  />
			<g>
				<title>PspC (PF04024)
"PspC domain"</title>
				<polygon class="PF04024" points="607,40 609,31 609,49" stroke-linejoin="round" width="5" height="24" fill="rgb(81,158,180)" stroke="rgb(64,126,144)" stroke-width="1" opacity="0.75" />
			</g>
		</g>
		<g>
			<title>dapX (KKANDCCO_00386)
putative N-acetyl-LL-diaminopimelate aminotransferase</title>
			<polygon class="dapX (KKANDCCO_00386)
putative N-acetyl-LL-diaminopimelate aminotransferase" points="649,25 641,25 641,10 611,40 641,70 641,55 649,55" fill="rgb(255,255,255)" fill-opacity="1.0" stroke="rgb(0,0,0)" stroke-width="2"  />
			<g>
				<title>Aminotran_1_2 (PF00155)
"Aminotransferase class I and II"</title>
				<polygon class="PF00155" points="615,40 627,28 646,28 646,52 627,52" stroke-linejoin="round" width="34" height="24" fill="rgb(89,113,198)" stroke="rgb(71,90,158)" stroke-width="1" opacity="0.75" />
			</g>
		</g>
	</g>
</svg>
