<svg version="1.1" baseProfile="full" xmlns="http://www.w3.org/2000/svg" width="748.0666666666667" height="80">
	<g>
		<line x1="10" y1="40.0" x2="738.0666666666667" y2="40.0" style="stroke:rgb(70,70,70); stroke-width:3 "/>
		<g>
			<title> (CKNNHCHG_02024)
hypothetical protein</title>
			<polygon class=" (CKNNHCHG_02024)
hypothetical protein" points="34,10 45,40 34,70" fill="rgb(255,255,255)" fill-opacity="1.0" stroke="rgb(0,0,0)" stroke-width="2"  />
			<g>
				<title>Glyoxalase (PF00903)
"Glyoxalase/Bleomycin resistance protein/Dioxygenase superfamily"</title>
				<polygon class="PF00903" points="34,28 37,28 42,40 37,52 34,52" stroke-linejoin="round" width="10" height="24" fill="rgb(50,162,189)" stroke="rgb(40,129,151)" stroke-width="1" opacity="0.75" />
			</g>
		</g>
		<g>
			<title>menH_1 (CKNNHCHG_02025)
2-succinyl-6-hydroxy-2, 4-cyclohexadiene-1-carboxylate synthase</title>
			<polygon class="menH_1 (CKNNHCHG_02025)
2-succinyl-6-hydroxy-2, 4-cyclohexadiene-1-carboxylate synthase" points="46,10 69,40 46,70" fill="rgb(255,255,255)" fill-opacity="1.0" stroke="rgb(0,0,0)" stroke-width="2"  />
			<g>
				<title>Abhydrolase_1 (PF00561)
"alpha/beta hydrolase fold"</title>
				<polygon class="PF00561" points="47,28 56,28 61,34 61,46 56,52 47,52" stroke-linejoin="round" width="14" height="24" fill="rgb(86,180,151)" stroke="rgb(68,144,120)" stroke-width="1" opacity="0.75" />
			</g>
		</g>
		<g>
			<title> (CKNNHCHG_02026)
hypothetical protein</title>
			<polygon class=" (CKNNHCHG_02026)
hypothetical protein" points="75,10 88,40 75,70" fill="rgb(255,255,255)" fill-opacity="1.0" stroke="rgb(0,0,0)" stroke-width="2"  />
			<g>
				<title>NUDIX (PF00293)
"NUDIX domain"</title>
				<polygon class="PF00293" points="75,28 79,28 85,40 79,52 75,52" stroke-linejoin="round" width="11" height="24" fill="rgb(92,56,187)" stroke="rgb(73,44,149)" stroke-width="1" opacity="0.75" />
			</g>
		</g>
		<g>
			<title> (CKNNHCHG_02027)
hypothetical protein</title>
			<polygon class=" (CKNNHCHG_02027)
hypothetical protein" points="99,40 120,10 120,70" fill="rgb(255,255,255)" fill-opacity="1.0" stroke="rgb(0,0,0)" stroke-width="2"  />
		</g>
		<g>
			<title>ybiT_2 (CKNNHCHG_02028)
putative ABC transporter ATP-binding protein YbiT</title>
			<polygon class="ybiT_2 (CKNNHCHG_02028)
putative ABC transporter ATP-binding protein YbiT" points="186,25 164,25 164,10 134,40 164,70 164,55 186,55" fill="rgb(255,255,255)" fill-opacity="1.0" stroke="rgb(0,0,0)" stroke-width="2"  />
			<g>
				<title>ABC_tran (PF00005)
"ABC transporter"</title>
				<polygon class="PF00005" points="139,39 150,28 151,28 151,52 150,52 139,41" stroke-linejoin="round" width="12" height="24" fill="rgb(129,201,63)" stroke="rgb(103,160,50)" stroke-width="1" opacity="0.75" />
			</g>
			<g>
				<title>ABC_tran_Xtn (PF12848)
"ABC transporter"</title>
				<rect class="PF12848" x="154" y="28" stroke-linejoin="round" width="8" height="24" fill="rgb(54,177,199)" stroke="rgb(43,141,159)" stroke-width="1" opacity="0.75" />
			</g>
			<g>
				<title>ABC_tran (PF00005)
"ABC transporter"</title>
				<rect class="PF00005" x="166" y="28" stroke-linejoin="round" width="17" height="24" fill="rgb(129,201,63)" stroke="rgb(103,160,50)" stroke-width="1" opacity="0.75" />
			</g>
		</g>
		<g>
			<title>trxB_2 (CKNNHCHG_02029)
Thioredoxin reductase</title>
			<polygon class="trxB_2 (CKNNHCHG_02029)
Thioredoxin reductase" points="196,10 225,40 196,70" fill="rgb(255,255,255)" fill-opacity="1.0" stroke="rgb(0,0,0)" stroke-width="2"  />
			<g>
				<title>Pyr_redox_2 (PF07992)
"Pyridine nucleotide-disulphide oxidoreductase"</title>
				<polygon class="PF07992" points="196,28 209,28 221,40 209,52 196,52" stroke-linejoin="round" width="27" height="24" fill="rgb(83,223,167)" stroke="rgb(66,178,133)" stroke-width="1" opacity="0.75" />
			</g>
		</g>
		<g>
			<title>nhaP2_1 (CKNNHCHG_02030)
K(+)/H(+) antiporter NhaP2</title>
			<polygon class="nhaP2_1 (CKNNHCHG_02030)
K(+)/H(+) antiporter NhaP2" points="232,25 252,25 252,10 282,40 252,70 252,55 232,55" fill="rgb(255,255,255)" fill-opacity="1.0" stroke="rgb(0,0,0)" stroke-width="2"  />
			<g>
				<title>Na_H_Exchanger (PF00999)
"Sodium/hydrogen exchanger family"</title>
				<polygon class="PF00999" points="233,28 266,28 271,33 271,47 266,52 233,52" stroke-linejoin="round" width="38" height="24" fill="rgb(229,67,191)" stroke="rgb(183,53,152)" stroke-width="1" opacity="0.75" />
			</g>
			<g>
				<title>TrkA_C (PF02080)
"TrkA-C domain"</title>
				<polygon class="PF02080" points="273,35 278,40 273,45" stroke-linejoin="round" width="6" height="24" fill="rgb(76,186,211)" stroke="rgb(60,148,168)" stroke-width="1" opacity="0.75" />
			</g>
		</g>
		<g>
			<title> (CKNNHCHG_02031)
hypothetical protein</title>
			<polygon class=" (CKNNHCHG_02031)
hypothetical protein" points="286,10 300,40 286,70" fill="rgb(255,255,255)" fill-opacity="1.0" stroke="rgb(0,0,0)" stroke-width="2"  />
			<g>
				<title>DMT_YdcZ (PF04657)
"Putative inner membrane exporter, YdcZ"</title>
				<polygon class="PF04657" points="286,28 291,28 296,40 291,52 286,52" stroke-linejoin="round" width="13" height="24" fill="rgb(63,139,178)" stroke="rgb(50,111,142)" stroke-width="1" opacity="0.75" />
			</g>
		</g>
		<g>
			<title>yeiL (CKNNHCHG_02032)
Regulatory protein YeiL</title>
			<polygon class="yeiL (CKNNHCHG_02032)
Regulatory protein YeiL" points="300,10 323,40 300,70" fill="rgb(255,255,255)" fill-opacity="1.0" stroke="rgb(0,0,0)" stroke-width="2"  />
			<g>
				<title>cNMP_binding (PF00027)
"Cyclic nucleotide-binding domain"</title>
				<polygon class="PF00027" points="303,28 310,28 311,30 311,50 310,52 303,52" stroke-linejoin="round" width="8" height="24" fill="rgb(138,95,204)" stroke="rgb(110,76,163)" stroke-width="1" opacity="0.75" />
			</g>
			<g>
				<title>HTH_Crp_2 (PF13545)
"Crp-like helix-turn-helix domain"</title>
				<polygon class="PF13545" points="315,35 319,40 315,45" stroke-linejoin="round" width="7" height="24" fill="rgb(87,137,202)" stroke="rgb(69,109,161)" stroke-width="1" opacity="0.75" />
			</g>
		</g>
		<g>
			<title> (CKNNHCHG_02033)
hypothetical protein</title>
			<polygon class=" (CKNNHCHG_02033)
hypothetical protein" points="324,10 339,40 324,70" fill="rgb(255,255,255)" fill-opacity="1.0" stroke="rgb(0,0,0)" stroke-width="2"  />
			<g>
				<title>DMT_YdcZ (PF04657)
"Putative inner membrane exporter, YdcZ"</title>
				<polygon class="PF04657" points="324,28 330,28 336,40 330,52 324,52" stroke-linejoin="round" width="13" height="24" fill="rgb(63,139,178)" stroke="rgb(50,111,142)" stroke-width="1" opacity="0.75" />
			</g>
		</g>
		<g>
			<title>sqhC (CKNNHCHG_02034)
Sporulenol synthase</title>
			<polygon class="sqhC (CKNNHCHG_02034)
Sporulenol synthase" points="404,25 373,25 373,10 343,40 373,70 373,55 404,55" fill="rgb(255,255,255)" fill-opacity="1.0" stroke="rgb(0,0,0)" stroke-width="2"  />
			<g>
				<title>SQHop_cyclase_C (PF13243)
"Squalene-hopene cyclase C-terminal domain"</title>
				<polygon class="PF13243" points="347,40 359,28 373,28 373,52 359,52" stroke-linejoin="round" width="30" height="24" fill="rgb(191,58,201)" stroke="rgb(152,46,160)" stroke-width="1" opacity="0.75" />
			</g>
			<g>
				<title>SQHop_cyclase_N (PF13249)
"Squalene-hopene cyclase N-terminal domain"</title>
				<rect class="PF13249" x="375" y="28" stroke-linejoin="round" width="28" height="24" fill="rgb(88,190,89)" stroke="rgb(70,152,71)" stroke-width="1" opacity="0.75" />
			</g>
		</g>
		<g>
			<title>resA_3 (CKNNHCHG_02035)
Thiol-disulfide oxidoreductase ResA</title>
			<polygon class="resA_3 (CKNNHCHG_02035)
Thiol-disulfide oxidoreductase ResA" points="413,40 429,10 429,70" fill="rgb(255,255,255)" fill-opacity="1.0" stroke="rgb(0,0,0)" stroke-width="2"  />
			<g>
				<title>AhpC-TSA (PF00578)
"AhpC/TSA family"</title>
				<polygon class="PF00578" points="416,40 423,28 428,28 428,52 423,52" stroke-linejoin="round" width="13" height="24" fill="rgb(166,71,190)" stroke="rgb(132,56,152)" stroke-width="1" opacity="0.75" />
			</g>
		</g>
		<g>
			<title> (CKNNHCHG_02036)
hypothetical protein</title>
			<polygon class=" (CKNNHCHG_02036)
hypothetical protein" points="445,10 465,40 445,70" fill="rgb(255,255,255)" fill-opacity="1.0" stroke="rgb(0,0,0)" stroke-width="2"  />
		</g>
		<g>
			<title> (CKNNHCHG_02037)
hypothetical protein</title>
			<polygon class=" (CKNNHCHG_02037)
hypothetical protein" points="471,10 485,40 471,70" fill="rgb(255,255,255)" fill-opacity="1.0" stroke="rgb(0,0,0)" stroke-width="2"  />
			<g>
				<title>DUF4871 (PF16167)
"Domain of unknown function (DUF4871)"</title>
				<polygon class="PF16167" points="473,28 476,28 481,40 476,52 473,52" stroke-linejoin="round" width="11" height="24" fill="rgb(198,98,115)" stroke="rgb(158,78,91)" stroke-width="1" opacity="0.75" />
			</g>
		</g>
		<g>
			<title> (CKNNHCHG_02038)
hypothetical protein</title>
			<polygon class=" (CKNNHCHG_02038)
hypothetical protein" points="485,10 491,40 485,70" fill="rgb(255,255,255)" fill-opacity="1.0" stroke="rgb(0,0,0)" stroke-width="2"  />
		</g>
		<g>
			<title> (CKNNHCHG_02039)
hypothetical protein</title>
			<polygon class=" (CKNNHCHG_02039)
hypothetical protein" points="492,10 502,40 492,70" fill="rgb(255,255,255)" fill-opacity="1.0" stroke="rgb(0,0,0)" stroke-width="2"  />
		</g>
		<g>
			<title> (CKNNHCHG_02040)
hypothetical protein</title>
			<polygon class=" (CKNNHCHG_02040)
hypothetical protein" points="503,10 517,40 503,70" fill="rgb(255,255,255)" fill-opacity="1.0" stroke="rgb(0,0,0)" stroke-width="2"  />
			<g>
				<title>Acetyltransf_1 (PF00583)
"Acetyltransferase (GNAT) family"</title>
				<polygon class="PF00583" points="503,28 508,28 514,40 508,52 503,52" stroke-linejoin="round" width="12" height="24" fill="rgb(121,183,50)" stroke="rgb(96,146,39)" stroke-width="1" opacity="0.75" />
			</g>
		</g>
		<g>
			<title> (CKNNHCHG_02041)
hypothetical protein</title>
			<polygon class=" (CKNNHCHG_02041)
hypothetical protein" points="544,10 555,40 544,70" fill="rgb(255,255,255)" fill-opacity="1.0" stroke="rgb(0,0,0)" stroke-width="2"  />
			<g>
				<title>MerR_1 (PF13411)
"MerR HTH family regulatory protein"</title>
				<polygon class="PF13411" points="544,28 547,28 551,37 551,43 547,52 544,52" stroke-linejoin="round" width="7" height="24" fill="rgb(100,202,107)" stroke="rgb(80,161,85)" stroke-width="1" opacity="0.75" />
			</g>
		</g>
		<g>
			<title> (CKNNHCHG_02042)
hypothetical protein</title>
			<polygon class=" (CKNNHCHG_02042)
hypothetical protein" points="556,10 571,40 556,70" fill="rgb(255,255,255)" fill-opacity="1.0" stroke="rgb(0,0,0)" stroke-width="2"  />
			<g>
				<title>Polyketide_cyc2 (PF10604)
"Polyketide cyclase / dehydrase and lipid transport"</title>
				<polygon class="PF10604" points="556,28 561,28 567,40 561,52 556,52" stroke-linejoin="round" width="14" height="24" fill="rgb(105,204,74)" stroke="rgb(84,163,59)" stroke-width="1" opacity="0.75" />
			</g>
		</g>
		<g>
			<title> (CKNNHCHG_02043)
hypothetical protein</title>
			<polygon class=" (CKNNHCHG_02043)
hypothetical protein" points="620,25 609,25 609,10 579,40 609,70 609,55 620,55" fill="rgb(255,255,255)" fill-opacity="1.0" stroke="rgb(0,0,0)" stroke-width="2"  />
			<g>
				<title>DUF4153 (PF13687)
"Domain of unknown function (DUF4153)"</title>
				<polygon class="PF13687" points="583,40 595,28 600,28 600,52 595,52" stroke-linejoin="round" width="21" height="24" fill="rgb(157,80,185)" stroke="rgb(125,64,148)" stroke-width="1" opacity="0.75" />
			</g>
		</g>
		<g>
			<title> (CKNNHCHG_02044)
hypothetical protein</title>
			<polygon class=" (CKNNHCHG_02044)
hypothetical protein" points="640,10 669,40 640,70" fill="rgb(255,255,255)" fill-opacity="1.0" stroke="rgb(0,0,0)" stroke-width="2"  />
			<g>
				<title>Cupin_2 (PF07883)
"Cupin domain"</title>
				<polygon class="PF07883" points="658,33 664,40 658,47" stroke-linejoin="round" width="7" height="24" fill="rgb(211,192,74)" stroke="rgb(168,153,59)" stroke-width="1" opacity="0.75" />
			</g>
		</g>
		<g>
			<title>guaC (CKNNHCHG_02045)
GMP reductase</title>
			<polygon class="guaC (CKNNHCHG_02045)
GMP reductase" points="707,25 705,25 705,10 675,40 705,70 705,55 707,55" fill="rgb(255,255,255)" fill-opacity="1.0" stroke="rgb(0,0,0)" stroke-width="2"  />
			<g>
				<title>IMPDH (PF00478)
"IMP dehydrogenase / GMP reductase domain"</title>
				<polygon class="PF00478" points="679,40 691,28 706,28 706,52 691,52" stroke-linejoin="round" width="31" height="24" fill="rgb(225,99,218)" stroke="rgb(180,79,174)" stroke-width="1" opacity="0.75" />
			</g>
		</g>
		<g>
			<title>ydaF_3 (CKNNHCHG_02046)
Putative ribosomal N-acetyltransferase YdaF</title>
			<polygon class="ydaF_3 (CKNNHCHG_02046)
Putative ribosomal N-acetyltransferase YdaF" points="713,10 731,40 713,70" fill="rgb(255,255,255)" fill-opacity="1.0" stroke="rgb(0,0,0)" stroke-width="2"  />
			<g>
				<title>Acetyltransf_3 (PF13302)
"Acetyltransferase (GNAT) domain"</title>
				<polygon class="PF13302" points="714,28 720,28 728,40 728,40 720,52 714,52" stroke-linejoin="round" width="14" height="24" fill="rgb(105,146,215)" stroke="rgb(84,116,172)" stroke-width="1" opacity="0.75" />
			</g>
		</g>
	</g>
</svg>
