<svg version="1.1" baseProfile="full" xmlns="http://www.w3.org/2000/svg" width="1161.3333333333333" height="80">
	<g>
		<line x1="10" y1="40.0" x2="1151.3333333333333" y2="40.0" style="stroke:rgb(70,70,70); stroke-width:3 "/>
		<g>
			<title> (PPIKFOGO_00659)
hypothetical protein</title>
			<polygon class=" (PPIKFOGO_00659)
hypothetical protein" points="42,40 55,10 55,70" fill="rgb(255,255,255)" fill-opacity="1.0" stroke="rgb(0,0,0)" stroke-width="2"  />
		</g>
		<g>
			<title>glnA_2 (PPIKFOGO_00660)
Glutamine synthetase</title>
			<polygon class="glnA_2 (PPIKFOGO_00660)
Glutamine synthetase" points="62,25 75,25 75,10 105,40 75,70 75,55 62,55" fill="rgb(255,255,255)" fill-opacity="1.0" stroke="rgb(0,0,0)" stroke-width="2"  />
			<g>
				<title>Gln-synt_N (PF03951)
"Glutamine synthetase, beta-Grasp domain"</title>
				<rect class="PF03951" x="63" y="28" stroke-linejoin="round" width="8" height="24" fill="rgb(125,91,194)" stroke="rgb(100,72,155)" stroke-width="1" opacity="0.75" />
			</g>
			<g>
				<title>Gln-synt_C (PF00120)
"Glutamine synthetase, catalytic domain"</title>
				<polygon class="PF00120" points="72,28 89,28 101,40 89,52 72,52" stroke-linejoin="round" width="32" height="24" fill="rgb(195,227,89)" stroke="rgb(155,181,71)" stroke-width="1" opacity="0.75" />
			</g>
		</g>
		<g>
			<title>pyrD_2 (PPIKFOGO_00661)
Dihydroorotate dehydrogenase (quinone)</title>
			<polygon class="pyrD_2 (PPIKFOGO_00661)
Dihydroorotate dehydrogenase (quinone)" points="168,25 140,25 140,10 110,40 140,70 140,55 168,55" fill="rgb(255,255,255)" fill-opacity="1.0" stroke="rgb(0,0,0)" stroke-width="2"  />
		</g>
		<g>
			<title>rsgA_2 (PPIKFOGO_00662)
Small ribosomal subunit biogenesis GTPase RsgA</title>
			<polygon class="rsgA_2 (PPIKFOGO_00662)
Small ribosomal subunit biogenesis GTPase RsgA" points="205,25 201,25 201,10 171,40 201,70 201,55 205,55" fill="rgb(255,255,255)" fill-opacity="1.0" stroke="rgb(0,0,0)" stroke-width="2"  />
			<g>
				<title>RsgA_GTPase (PF03193)
"RsgA GTPase"</title>
				<polygon class="PF03193" points="179,36 187,28 196,28 196,52 187,52 179,44" stroke-linejoin="round" width="17" height="24" fill="rgb(89,182,98)" stroke="rgb(71,145,78)" stroke-width="1" opacity="0.75" />
			</g>
		</g>
		<g>
			<title> (PPIKFOGO_00663)
hypothetical protein</title>
			<polygon class=" (PPIKFOGO_00663)
hypothetical protein" points="210,40 236,10 236,70" fill="rgb(255,255,255)" fill-opacity="1.0" stroke="rgb(0,0,0)" stroke-width="2"  />
			<g>
				<title>ABC2_membrane (PF01061)
"ABC-2 type transporter"</title>
				<polygon class="PF01061" points="214,40 224,28 234,28 234,52 224,52" stroke-linejoin="round" width="21" height="24" fill="rgb(139,217,106)" stroke="rgb(111,173,84)" stroke-width="1" opacity="0.75" />
			</g>
		</g>
		<g>
			<title>drrA_1 (PPIKFOGO_00664)
Doxorubicin resistance ATP-binding protein DrrA</title>
			<polygon class="drrA_1 (PPIKFOGO_00664)
Doxorubicin resistance ATP-binding protein DrrA" points="268,25 266,25 266,10 236,40 266,70 266,55 268,55" fill="rgb(255,255,255)" fill-opacity="1.0" stroke="rgb(0,0,0)" stroke-width="2"  />
			<g>
				<title>DUF4162 (PF13732)
"Domain of unknown function (DUF4162)"</title>
				<polygon class="PF13732" points="240,40 246,34 246,46" stroke-linejoin="round" width="9" height="24" fill="rgb(100,223,143)" stroke="rgb(80,178,114)" stroke-width="1" opacity="0.75" />
			</g>
			<g>
				<title>ABC_tran (PF00005)
"ABC transporter"</title>
				<polygon class="PF00005" points="251,29 252,28 265,28 265,52 252,52 251,51" stroke-linejoin="round" width="14" height="24" fill="rgb(129,201,63)" stroke="rgb(103,160,50)" stroke-width="1" opacity="0.75" />
			</g>
		</g>
		<g>
			<title> (PPIKFOGO_00665)
hypothetical protein</title>
			<polygon class=" (PPIKFOGO_00665)
hypothetical protein" points="294,10 302,40 294,70" fill="rgb(255,255,255)" fill-opacity="1.0" stroke="rgb(0,0,0)" stroke-width="2"  />
		</g>
		<g>
			<title> (PPIKFOGO_00666)
hypothetical protein</title>
			<polygon class=" (PPIKFOGO_00666)
hypothetical protein" points="303,40 314,10 314,70" fill="rgb(255,255,255)" fill-opacity="1.0" stroke="rgb(0,0,0)" stroke-width="2"  />
		</g>
		<g>
			<title> (PPIKFOGO_00667)
hypothetical protein</title>
			<polygon class=" (PPIKFOGO_00667)
hypothetical protein" points="320,10 342,40 320,70" fill="rgb(255,255,255)" fill-opacity="1.0" stroke="rgb(0,0,0)" stroke-width="2"  />
		</g>
		<g>
			<title>nfrA1 (PPIKFOGO_00668)
FMN reductase (NADPH)</title>
			<polygon class="nfrA1 (PPIKFOGO_00668)
FMN reductase (NADPH)" points="343,10 367,40 343,70" fill="rgb(255,255,255)" fill-opacity="1.0" stroke="rgb(0,0,0)" stroke-width="2"  />
			<g>
				<title>Nitroreductase (PF00881)
"Nitroreductase family"</title>
				<polygon class="PF00881" points="343,28 354,28 358,33 358,47 354,52 343,52" stroke-linejoin="round" width="15" height="24" fill="rgb(79,118,187)" stroke="rgb(63,94,149)" stroke-width="1" opacity="0.75" />
			</g>
		</g>
		<g>
			<title>cobB (PPIKFOGO_00669)
NAD-dependent protein deacetylase</title>
			<polygon class="cobB (PPIKFOGO_00669)
NAD-dependent protein deacetylase" points="368,10 392,40 368,70" fill="rgb(255,255,255)" fill-opacity="1.0" stroke="rgb(0,0,0)" stroke-width="2"  />
			<g>
				<title>SIR2 (PF02146)
"Sir2 family"</title>
				<polygon class="PF02146" points="370,28 379,28 387,39 387,41 379,52 370,52" stroke-linejoin="round" width="17" height="24" fill="rgb(83,217,165)" stroke="rgb(66,173,132)" stroke-width="1" opacity="0.75" />
			</g>
		</g>
		<g>
			<title>nhaH (PPIKFOGO_00670)
Na(+)/H(+) antiporter NhaH</title>
			<polygon class="nhaH (PPIKFOGO_00670)
Na(+)/H(+) antiporter NhaH" points="435,25 425,25 425,10 395,40 425,70 425,55 435,55" fill="rgb(255,255,255)" fill-opacity="1.0" stroke="rgb(0,0,0)" stroke-width="2"  />
			<g>
				<title>Na_H_Exchanger (PF00999)
"Sodium/hydrogen exchanger family"</title>
				<polygon class="PF00999" points="399,40 411,28 433,28 433,52 411,52" stroke-linejoin="round" width="38" height="24" fill="rgb(229,67,191)" stroke="rgb(183,53,152)" stroke-width="1" opacity="0.75" />
			</g>
		</g>
		<g>
			<title>dacC (PPIKFOGO_00671)
D-alanyl-D-alanine carboxypeptidase DacC</title>
			<polygon class="dacC (PPIKFOGO_00671)
D-alanyl-D-alanine carboxypeptidase DacC" points="493,25 469,25 469,10 439,40 469,70 469,55 493,55" fill="rgb(255,255,255)" fill-opacity="1.0" stroke="rgb(0,0,0)" stroke-width="2"  />
			<g>
				<title>Peptidase_S13 (PF02113)
"D-Ala-D-Ala carboxypeptidase 3 (S13) family"</title>
				<polygon class="PF02113" points="443,40 455,28 484,28 484,52 455,52" stroke-linejoin="round" width="45" height="24" fill="rgb(222,106,76)" stroke="rgb(177,84,60)" stroke-width="1" opacity="0.75" />
			</g>
		</g>
		<g>
			<title> (PPIKFOGO_00672)
hypothetical protein</title>
			<polygon class=" (PPIKFOGO_00672)
hypothetical protein" points="499,10 523,40 499,70" fill="rgb(255,255,255)" fill-opacity="1.0" stroke="rgb(0,0,0)" stroke-width="2"  />
			<g>
				<title>Gamma_PGA_hydro (PF05908)
"Poly-gamma-glutamate hydrolase"</title>
				<polygon class="PF05908" points="503,28 510,28 519,40 510,52 503,52" stroke-linejoin="round" width="19" height="24" fill="rgb(198,222,77)" stroke="rgb(158,177,61)" stroke-width="1" opacity="0.75" />
			</g>
		</g>
		<g>
			<title> (PPIKFOGO_00673)
hypothetical protein</title>
			<polygon class=" (PPIKFOGO_00673)
hypothetical protein" points="525,40 546,10 546,70" fill="rgb(255,255,255)" fill-opacity="1.0" stroke="rgb(0,0,0)" stroke-width="2"  />
		</g>
		<g>
			<title> (PPIKFOGO_00674)
hypothetical protein</title>
			<polygon class=" (PPIKFOGO_00674)
hypothetical protein" points="561,40 576,10 576,70" fill="rgb(255,255,255)" fill-opacity="1.0" stroke="rgb(0,0,0)" stroke-width="2"  />
		</g>
		<g>
			<title> (PPIKFOGO_00675)
hypothetical protein</title>
			<polygon class=" (PPIKFOGO_00675)
hypothetical protein" points="586,25 586,25 586,10 616,40 586,70 586,55 586,55" fill="rgb(255,255,255)" fill-opacity="1.0" stroke="rgb(0,0,0)" stroke-width="2"  />
			<g>
				<title>PG_binding_4 (PF12229)
"Putative peptidoglycan binding domain"</title>
				<rect class="PF12229" x="587" y="28" stroke-linejoin="round" width="9" height="24" fill="rgb(140,107,215)" stroke="rgb(112,85,172)" stroke-width="1" opacity="0.75" />
			</g>
			<g>
				<title>VanW (PF04294)
"VanW like protein"</title>
				<polygon class="PF04294" points="600,29 611,40 600,51" stroke-linejoin="round" width="12" height="24" fill="rgb(52,93,183)" stroke="rgb(41,74,146)" stroke-width="1" opacity="0.75" />
			</g>
		</g>
		<g>
			<title> (PPIKFOGO_00676)
hypothetical protein</title>
			<polygon class=" (PPIKFOGO_00676)
hypothetical protein" points="618,40 637,10 637,70" fill="rgb(255,255,255)" fill-opacity="1.0" stroke="rgb(0,0,0)" stroke-width="2"  />
			<g>
				<title>DUF4256 (PF14066)
"Protein of unknown function (DUF4256)"</title>
				<polygon class="PF14066" points="622,40 630,28 635,28 635,52 630,52" stroke-linejoin="round" width="17" height="24" fill="rgb(55,178,73)" stroke="rgb(44,142,58)" stroke-width="1" opacity="0.75" />
			</g>
		</g>
		<g>
			<title>pbuG_1 (PPIKFOGO_00677)
Guanine/hypoxanthine permease PbuG</title>
			<polygon class="pbuG_1 (PPIKFOGO_00677)
Guanine/hypoxanthine permease PbuG" points="686,25 673,25 673,10 643,40 673,70 673,55 686,55" fill="rgb(255,255,255)" fill-opacity="1.0" stroke="rgb(0,0,0)" stroke-width="2"  />
			<g>
				<title>Xan_ur_permease (PF00860)
"Permease family"</title>
				<polygon class="PF00860" points="647,40 659,28 683,28 683,52 659,52" stroke-linejoin="round" width="37" height="24" fill="rgb(216,88,217)" stroke="rgb(172,70,173)" stroke-width="1" opacity="0.75" />
			</g>
		</g>
		<g>
			<title> (PPIKFOGO_00678)
hypothetical protein</title>
			<polygon class=" (PPIKFOGO_00678)
hypothetical protein" points="752,25 731,25 731,10 701,40 731,70 731,55 752,55" fill="rgb(255,255,255)" fill-opacity="1.0" stroke="rgb(0,0,0)" stroke-width="2"  />
			<g>
				<title>Nitroreductase (PF00881)
"Nitroreductase family"</title>
				<polygon class="PF00881" points="705,40 717,28 719,28 719,52 717,52" stroke-linejoin="round" width="17" height="24" fill="rgb(79,118,187)" stroke="rgb(63,94,149)" stroke-width="1" opacity="0.75" />
			</g>
			<g>
				<title>Nitroreductase (PF00881)
"Nitroreductase family"</title>
				<rect class="PF00881" x="728" y="28" stroke-linejoin="round" width="17" height="24" fill="rgb(79,118,187)" stroke="rgb(63,94,149)" stroke-width="1" opacity="0.75" />
			</g>
		</g>
		<g>
			<title> (PPIKFOGO_00679)
hypothetical protein</title>
			<polygon class=" (PPIKFOGO_00679)
hypothetical protein" points="817,25 783,25 783,10 753,40 783,70 783,55 817,55" fill="rgb(255,255,255)" fill-opacity="1.0" stroke="rgb(0,0,0)" stroke-width="2"  />
			<g>
				<title>YcaO (PF02624)
"YcaO cyclodehydratase, ATP-ad Mg2+-binding"</title>
				<polygon class="PF02624" points="757,40 769,28 791,28 791,52 769,52 757,40" stroke-linejoin="round" width="34" height="24" fill="rgb(76,84,185)" stroke="rgb(60,67,148)" stroke-width="1" opacity="0.75" />
			</g>
		</g>
		<g>
			<title> (PPIKFOGO_00680)
hypothetical protein</title>
			<polygon class=" (PPIKFOGO_00680)
hypothetical protein" points="881,25 847,25 847,10 817,40 847,70 847,55 881,55" fill="rgb(255,255,255)" fill-opacity="1.0" stroke="rgb(0,0,0)" stroke-width="2"  />
			<g>
				<title>Methyltransf_16 (PF10294)
"Lysine methyltransferase"</title>
				<rect class="PF10294" x="857" y="28" stroke-linejoin="round" width="15" height="24" fill="rgb(91,121,203)" stroke="rgb(72,96,162)" stroke-width="1" opacity="0.75" />
			</g>
		</g>
		<g>
			<title> (PPIKFOGO_00681)
hypothetical protein</title>
			<polygon class=" (PPIKFOGO_00681)
hypothetical protein" points="903,40 918,10 918,70" fill="rgb(255,255,255)" fill-opacity="1.0" stroke="rgb(0,0,0)" stroke-width="2"  />
		</g>
		<g>
			<title> (PPIKFOGO_00682)
hypothetical protein</title>
			<polygon class=" (PPIKFOGO_00682)
hypothetical protein" points="922,10 936,40 922,70" fill="rgb(255,255,255)" fill-opacity="1.0" stroke="rgb(0,0,0)" stroke-width="2"  />
		</g>
		<g>
			<title> (PPIKFOGO_00683)
hypothetical protein</title>
			<polygon class=" (PPIKFOGO_00683)
hypothetical protein" points="971,25 967,25 967,10 937,40 967,70 967,55 971,55" fill="rgb(255,255,255)" fill-opacity="1.0" stroke="rgb(0,0,0)" stroke-width="2"  />
			<g>
				<title>DUF2332 (PF10094)
"Uncharacterized protein conserved in bacteria (DUF2332)"</title>
				<polygon class="PF10094" points="941,40 953,28 970,28 970,52 953,52" stroke-linejoin="round" width="33" height="24" fill="rgb(180,85,205)" stroke="rgb(144,68,164)" stroke-width="1" opacity="0.75" />
			</g>
		</g>
		<g>
			<title> (PPIKFOGO_00684)
hypothetical protein</title>
			<polygon class=" (PPIKFOGO_00684)
hypothetical protein" points="973,40 994,10 994,70" fill="rgb(255,255,255)" fill-opacity="1.0" stroke="rgb(0,0,0)" stroke-width="2"  />
		</g>
		<g>
			<title>fpuD (PPIKFOGO_00685)
Petrobactin import ATP-binding protein FpuD</title>
			<polygon class="fpuD (PPIKFOGO_00685)
Petrobactin import ATP-binding protein FpuD" points="997,40 1024,10 1024,70" fill="rgb(255,255,255)" fill-opacity="1.0" stroke="rgb(0,0,0)" stroke-width="2"  />
			<g>
				<title>ABC_tran (PF00005)
"ABC transporter"</title>
				<polygon class="PF00005" points="1007,34 1012,28 1021,28 1021,52 1012,52 1007,46" stroke-linejoin="round" width="14" height="24" fill="rgb(129,201,63)" stroke="rgb(103,160,50)" stroke-width="1" opacity="0.75" />
			</g>
		</g>
		<g>
			<title> (PPIKFOGO_00686)
hypothetical protein</title>
			<polygon class=" (PPIKFOGO_00686)
hypothetical protein" points="1065,25 1062,25 1062,10 1032,40 1062,70 1062,55 1065,55" fill="rgb(255,255,255)" fill-opacity="1.0" stroke="rgb(0,0,0)" stroke-width="2"  />
			<g>
				<title>DUF3231 (PF11553)
"Protein of unknown function (DUF3231)"</title>
				<polygon class="PF11553" points="1036,40 1048,28 1048,28 1048,52 1048,52" stroke-linejoin="round" width="16" height="24" fill="rgb(179,90,188)" stroke="rgb(143,72,150)" stroke-width="1" opacity="0.75" />
			</g>
			<g>
				<title>DUF3231 (PF11553)
"Protein of unknown function (DUF3231)"</title>
				<rect class="PF11553" x="1049" y="28" stroke-linejoin="round" width="16" height="24" fill="rgb(179,90,188)" stroke="rgb(143,72,150)" stroke-width="1" opacity="0.75" />
			</g>
		</g>
		<g>
			<title> (PPIKFOGO_00687)
hypothetical protein</title>
			<polygon class=" (PPIKFOGO_00687)
hypothetical protein" points="1066,40 1073,10 1073,70" fill="rgb(255,255,255)" fill-opacity="1.0" stroke="rgb(0,0,0)" stroke-width="2"  />
		</g>
		<g>
			<title> (PPIKFOGO_00688)
hypothetical protein</title>
			<polygon class=" (PPIKFOGO_00688)
hypothetical protein" points="1094,10 1110,40 1094,70" fill="rgb(255,255,255)" fill-opacity="1.0" stroke="rgb(0,0,0)" stroke-width="2"  />
			<g>
				<title>Polyketide_cyc2 (PF10604)
"Polyketide cyclase / dehydrase and lipid transport"</title>
				<polygon class="PF10604" points="1094,28 1100,28 1106,40 1100,52 1094,52" stroke-linejoin="round" width="14" height="24" fill="rgb(105,204,74)" stroke="rgb(84,163,59)" stroke-width="1" opacity="0.75" />
			</g>
		</g>
	</g>
</svg>
