<svg version="1.1" baseProfile="full" xmlns="http://www.w3.org/2000/svg" width="478.06666666666666" height="80">
	<g>
		<line x1="10" y1="40.0" x2="468.06666666666666" y2="40.0" style="stroke:rgb(70,70,70); stroke-width:3 "/>
		<g>
			<title> (PPIKFOGO_00957)
hypothetical protein</title>
			<polygon class=" (PPIKFOGO_00957)
hypothetical protein" points="33,40 39,10 39,70" fill="rgb(255,255,255)" fill-opacity="1.0" stroke="rgb(0,0,0)" stroke-width="2"  />
		</g>
		<g>
			<title> (PPIKFOGO_00958)
Epimerase family protein</title>
			<polygon class=" (PPIKFOGO_00958)
Epimerase family protein" points="41,40 70,10 70,70" fill="rgb(255,255,255)" fill-opacity="1.0" stroke="rgb(0,0,0)" stroke-width="2"  />
			<g>
				<title>DUF1731 (PF08338)
"Domain of unknown function (DUF1731)"</title>
				<polygon class="PF08338" points="45,40 45,40 45,40" stroke-linejoin="round" width="4" height="24" fill="rgb(63,110,190)" stroke="rgb(50,88,152)" stroke-width="1" opacity="0.75" />
			</g>
			<g>
				<title>Epimerase (PF01370)
"NAD dependent epimerase/dehydratase family"</title>
				<polygon class="PF01370" points="57,28 57,28 69,28 69,52 57,52 57,52" stroke-linejoin="round" width="12" height="24" fill="rgb(98,102,214)" stroke="rgb(78,81,171)" stroke-width="1" opacity="0.75" />
			</g>
		</g>
		<g>
			<title> (PPIKFOGO_00959)
putative HTH-type transcriptional regulator</title>
			<polygon class=" (PPIKFOGO_00959)
putative HTH-type transcriptional regulator" points="78,10 93,40 78,70" fill="rgb(255,255,255)" fill-opacity="1.0" stroke="rgb(0,0,0)" stroke-width="2"  />
			<g>
				<title>LytTR (PF04397)
"LytTr DNA-binding domain"</title>
				<polygon class="PF04397" points="82,28 83,28 89,40 83,52 82,52" stroke-linejoin="round" width="9" height="24" fill="rgb(207,76,174)" stroke="rgb(165,60,139)" stroke-width="1" opacity="0.75" />
			</g>
		</g>
		<g>
			<title> (PPIKFOGO_00960)
hypothetical protein</title>
			<polygon class=" (PPIKFOGO_00960)
hypothetical protein" points="93,10 106,40 93,70" fill="rgb(255,255,255)" fill-opacity="1.0" stroke="rgb(0,0,0)" stroke-width="2"  />
			<g>
				<title>DUF3021 (PF11457)
"Protein of unknown function (DUF3021)"</title>
				<polygon class="PF11457" points="93,28 97,28 103,40 97,52 93,52" stroke-linejoin="round" width="13" height="24" fill="rgb(193,225,90)" stroke="rgb(154,180,72)" stroke-width="1" opacity="0.75" />
			</g>
		</g>
		<g>
			<title> (PPIKFOGO_00961)
hypothetical protein</title>
			<polygon class=" (PPIKFOGO_00961)
hypothetical protein" points="108,40 129,10 129,70" fill="rgb(255,255,255)" fill-opacity="1.0" stroke="rgb(0,0,0)" stroke-width="2"  />
			<g>
				<title>Lysozyme_like (PF13702)
"Lysozyme-like"</title>
				<polygon class="PF13702" points="112,40 121,28 124,28 124,52 121,52" stroke-linejoin="round" width="15" height="24" fill="rgb(186,63,104)" stroke="rgb(148,50,83)" stroke-width="1" opacity="0.75" />
			</g>
		</g>
		<g>
			<title>sbnH (PPIKFOGO_00962)
2-[(L-alanin-3-ylcarbamoyl)methyl]-2- hydroxybutanedioate decarboxylase</title>
			<polygon class="sbnH (PPIKFOGO_00962)
2-[(L-alanin-3-ylcarbamoyl)methyl]-2- hydroxybutanedioate decarboxylase" points="175,25 166,25 166,10 136,40 166,70 166,55 175,55" fill="rgb(255,255,255)" fill-opacity="1.0" stroke="rgb(0,0,0)" stroke-width="2"  />
			<g>
				<title>Orn_Arg_deC_N (PF02784)
"Pyridoxal-dependent decarboxylase, pyridoxal binding domain"</title>
				<polygon class="PF02784" points="148,32 152,28 172,28 172,52 152,52 148,48" stroke-linejoin="round" width="24" height="24" fill="rgb(106,204,212)" stroke="rgb(84,163,169)" stroke-width="1" opacity="0.75" />
			</g>
		</g>
		<g>
			<title>sbnC (PPIKFOGO_00963)
Staphyloferrin B synthase</title>
			<polygon class="sbnC (PPIKFOGO_00963)
Staphyloferrin B synthase" points="240,25 206,25 206,10 176,40 206,70 206,55 240,55" fill="rgb(255,255,255)" fill-opacity="1.0" stroke="rgb(0,0,0)" stroke-width="2"  />
			<g>
				<title>FhuF (PF06276)
"Ferric iron reductase FhuF-like transporter"</title>
				<polygon class="PF06276" points="180,40 192,28 193,28 193,52 192,52" stroke-linejoin="round" width="16" height="24" fill="rgb(76,151,221)" stroke="rgb(60,120,176)" stroke-width="1" opacity="0.75" />
			</g>
			<g>
				<title>IucA_IucC (PF04183)
"IucA / IucC family"</title>
				<rect class="PF04183" x="196" y="28" stroke-linejoin="round" width="23" height="24" fill="rgb(221,104,121)" stroke="rgb(176,83,96)" stroke-width="1" opacity="0.75" />
			</g>
		</g>
		<g>
			<title> (PPIKFOGO_00964)
hypothetical protein</title>
			<polygon class=" (PPIKFOGO_00964)
hypothetical protein" points="301,25 270,25 270,10 240,40 270,70 270,55 301,55" fill="rgb(255,255,255)" fill-opacity="1.0" stroke="rgb(0,0,0)" stroke-width="2"  />
			<g>
				<title>FhuF (PF06276)
"Ferric iron reductase FhuF-like transporter"</title>
				<polygon class="PF06276" points="244,40 256,28 258,28 258,52 256,52" stroke-linejoin="round" width="16" height="24" fill="rgb(76,151,221)" stroke="rgb(60,120,176)" stroke-width="1" opacity="0.75" />
			</g>
			<g>
				<title>IucA_IucC (PF04183)
"IucA / IucC family"</title>
				<rect class="PF04183" x="261" y="28" stroke-linejoin="round" width="24" height="24" fill="rgb(221,104,121)" stroke="rgb(176,83,96)" stroke-width="1" opacity="0.75" />
			</g>
		</g>
		<g>
			<title> (PPIKFOGO_00965)
hypothetical protein</title>
			<polygon class=" (PPIKFOGO_00965)
hypothetical protein" points="308,10 332,40 308,70" fill="rgb(255,255,255)" fill-opacity="1.0" stroke="rgb(0,0,0)" stroke-width="2"  />
			<g>
				<title>FhuF (PF06276)
"Ferric iron reductase FhuF-like transporter"</title>
				<polygon class="PF06276" points="313,28 319,28 328,39 328,41 319,52 313,52" stroke-linejoin="round" width="15" height="24" fill="rgb(76,151,221)" stroke="rgb(60,120,176)" stroke-width="1" opacity="0.75" />
			</g>
		</g>
		<g>
			<title>mtlD_2 (PPIKFOGO_00966)
Mannitol-1-phosphate 5-dehydrogenase</title>
			<polygon class="mtlD_2 (PPIKFOGO_00966)
Mannitol-1-phosphate 5-dehydrogenase" points="378,25 370,25 370,10 340,40 370,70 370,55 378,55" fill="rgb(255,255,255)" fill-opacity="1.0" stroke="rgb(0,0,0)" stroke-width="2"  />
			<g>
				<title>Mannitol_dh_C (PF08125)
"Mannitol dehydrogenase C-terminal domain"</title>
				<polygon class="PF08125" points="344,40 356,28 362,28 362,52 356,52" stroke-linejoin="round" width="22" height="24" fill="rgb(196,64,94)" stroke="rgb(156,51,75)" stroke-width="1" opacity="0.75" />
			</g>
			<g>
				<title>Mannitol_dh (PF01232)
"Mannitol dehydrogenase Rossmann domain"</title>
				<rect class="PF01232" x="365" y="28" stroke-linejoin="round" width="12" height="24" fill="rgb(221,155,56)" stroke="rgb(176,124,44)" stroke-width="1" opacity="0.75" />
			</g>
		</g>
		<g>
			<title>mtlF (PPIKFOGO_00967)
Mannitol-specific phosphotransferase enzyme IIA component</title>
			<polygon class="mtlF (PPIKFOGO_00967)
Mannitol-specific phosphotransferase enzyme IIA component" points="378,40 392,10 392,70" fill="rgb(255,255,255)" fill-opacity="1.0" stroke="rgb(0,0,0)" stroke-width="2"  />
			<g>
				<title>PTS_EIIA_2 (PF00359)
"Phosphoenolpyruvate-dependent sugar phosphotransferase system, EIIA 2"</title>
				<polygon class="PF00359" points="381,40 387,28 392,28 392,52 387,52" stroke-linejoin="round" width="14" height="24" fill="rgb(115,83,186)" stroke="rgb(91,66,148)" stroke-width="1" opacity="0.75" />
			</g>
		</g>
		<g>
			<title>mtlR (PPIKFOGO_00968)
Transcriptional regulator MtlR</title>
			<polygon class="mtlR (PPIKFOGO_00968)
Transcriptional regulator MtlR" points="462,25 423,25 423,10 393,40 423,70 423,55 462,55" fill="rgb(255,255,255)" fill-opacity="1.0" stroke="rgb(0,0,0)" stroke-width="2"  />
			<g>
				<title>PTS_EIIA_2 (PF00359)
"Phosphoenolpyruvate-dependent sugar phosphotransferase system, EIIA 2"</title>
				<polygon class="PF00359" points="397,40 408,29 408,51" stroke-linejoin="round" width="14" height="24" fill="rgb(115,83,186)" stroke="rgb(91,66,148)" stroke-width="1" opacity="0.75" />
			</g>
			<g>
				<title>PTS_IIB (PF02302)
"PTS system, Lactose/Cellobiose specific IIB subunit"</title>
				<rect class="PF02302" x="411" y="28" stroke-linejoin="round" width="9" height="24" fill="rgb(106,212,56)" stroke="rgb(84,169,44)" stroke-width="1" opacity="0.75" />
			</g>
			<g>
				<title>PRD (PF00874)
"PRD domain"</title>
				<rect class="PF00874" x="421" y="28" stroke-linejoin="round" width="8" height="24" fill="rgb(72,210,205)" stroke="rgb(57,168,164)" stroke-width="1" opacity="0.75" />
			</g>
			<g>
				<title>PRD (PF00874)
"PRD domain"</title>
				<rect class="PF00874" x="432" y="28" stroke-linejoin="round" width="8" height="24" fill="rgb(72,210,205)" stroke="rgb(57,168,164)" stroke-width="1" opacity="0.75" />
			</g>
			<g>
				<title>Mga (PF05043)
"Mga helix-turn-helix domain"</title>
				<rect class="PF05043" x="446" y="28" stroke-linejoin="round" width="9" height="24" fill="rgb(177,193,55)" stroke="rgb(141,154,44)" stroke-width="1" opacity="0.75" />
			</g>
			<g>
				<title>HTH_11 (PF08279)
"HTH domain"</title>
				<rect class="PF08279" x="456" y="28" stroke-linejoin="round" width="5" height="24" fill="rgb(188,106,60)" stroke="rgb(150,84,48)" stroke-width="1" opacity="0.75" />
			</g>
		</g>
	</g>
</svg>
