<svg version="1.1" baseProfile="full" xmlns="http://www.w3.org/2000/svg" width="533.8333333333334" height="80">
	<g>
		<line x1="10" y1="40.0" x2="523.8333333333334" y2="40.0" style="stroke:rgb(70,70,70); stroke-width:3 "/>
		<g>
			<title>ilvD_2 (FLEGEENC_04072)
Dihydroxy-acid dehydratase</title>
			<polygon class="ilvD_2 (FLEGEENC_04072)
Dihydroxy-acid dehydratase" points="13,25 39,25 39,10 69,40 39,70 39,55 13,55" fill="rgb(255,255,255)" fill-opacity="1.0" stroke="rgb(0,0,0)" stroke-width="2"  />
			<g>
				<title>ILVD_EDD (PF00920)
"Dehydratase family"</title>
				<polygon class="PF00920" points="16,28 53,28 65,40 53,52 16,52" stroke-linejoin="round" width="51" height="24" fill="rgb(58,79,190)" stroke="rgb(46,63,152)" stroke-width="1" opacity="0.75" />
			</g>
		</g>
		<g>
			<title>dat_3 (FLEGEENC_04073)
Diaminobutyrate--2-oxoglutarate aminotransferase</title>
			<polygon class="dat_3 (FLEGEENC_04073)
Diaminobutyrate--2-oxoglutarate aminotransferase" points="80,25 95,25 95,10 125,40 95,70 95,55 80,55" fill="rgb(255,255,255)" fill-opacity="1.0" stroke="rgb(0,0,0)" stroke-width="2"  />
			<g>
				<title>Aminotran_3 (PF00202)
"Aminotransferase class-III"</title>
				<polygon class="PF00202" points="82,28 109,28 121,40 109,52 82,52" stroke-linejoin="round" width="42" height="24" fill="rgb(49,163,189)" stroke="rgb(39,130,151)" stroke-width="1" opacity="0.75" />
			</g>
		</g>
		<g>
			<title>ddc (FLEGEENC_04074)
L-2,4-diaminobutyrate decarboxylase</title>
			<polygon class="ddc (FLEGEENC_04074)
L-2,4-diaminobutyrate decarboxylase" points="125,25 146,25 146,10 176,40 146,70 146,55 125,55" fill="rgb(255,255,255)" fill-opacity="1.0" stroke="rgb(0,0,0)" stroke-width="2"  />
			<g>
				<title>Pyridoxal_deC (PF00282)
"Pyridoxal-dependent decarboxylase conserved domain"</title>
				<polygon class="PF00282" points="130,28 159,28 167,36 167,44 159,52 130,52" stroke-linejoin="round" width="37" height="24" fill="rgb(100,218,166)" stroke="rgb(80,174,132)" stroke-width="1" opacity="0.75" />
			</g>
		</g>
		<g>
			<title>iucA (FLEGEENC_04075)
N(2)-citryl-N(6)-acetyl-N(6)-hydroxylysine synthase</title>
			<polygon class="iucA (FLEGEENC_04075)
N(2)-citryl-N(6)-acetyl-N(6)-hydroxylysine synthase" points="176,25 204,25 204,10 234,40 204,70 204,55 176,55" fill="rgb(255,255,255)" fill-opacity="1.0" stroke="rgb(0,0,0)" stroke-width="2"  />
			<g>
				<title>IucA_IucC (PF04183)
"IucA / IucC family"</title>
				<rect class="PF04183" x="189" y="28" stroke-linejoin="round" width="23" height="24" fill="rgb(221,104,121)" stroke="rgb(176,83,96)" stroke-width="1" opacity="0.75" />
			</g>
			<g>
				<title>FhuF (PF06276)
"Ferric iron reductase FhuF-like transporter"</title>
				<polygon class="PF06276" points="216,28 218,28 230,40 218,52 216,52" stroke-linejoin="round" width="15" height="24" fill="rgb(76,151,221)" stroke="rgb(60,120,176)" stroke-width="1" opacity="0.75" />
			</g>
		</g>
		<g>
			<title>iucB (FLEGEENC_04076)
N(6)-hydroxylysine O-acetyltransferase</title>
			<polygon class="iucB (FLEGEENC_04076)
N(6)-hydroxylysine O-acetyltransferase" points="234,10 252,40 234,70" fill="rgb(255,255,255)" fill-opacity="1.0" stroke="rgb(0,0,0)" stroke-width="2"  />
			<g>
				<title>Acetyltransf_8 (PF13523)
"Acetyltransferase (GNAT) domain"</title>
				<polygon class="PF13523" points="236,28 241,28 249,40 241,52 236,52" stroke-linejoin="round" width="14" height="24" fill="rgb(106,224,203)" stroke="rgb(84,179,162)" stroke-width="1" opacity="0.75" />
			</g>
		</g>
		<g>
			<title>iucD_3 (FLEGEENC_04077)
L-lysine N6-monooxygenase</title>
			<polygon class="iucD_3 (FLEGEENC_04077)
L-lysine N6-monooxygenase" points="253,25 267,25 267,10 297,40 267,70 267,55 253,55" fill="rgb(255,255,255)" fill-opacity="1.0" stroke="rgb(0,0,0)" stroke-width="2"  />
			<g>
				<title>K_oxygenase (PF13434)
"L-lysine 6-monooxygenase (NADPH-requiring)"</title>
				<polygon class="PF13434" points="253,28 281,28 286,33 286,47 281,52 253,52" stroke-linejoin="round" width="33" height="24" fill="rgb(81,213,119)" stroke="rgb(64,170,95)" stroke-width="1" opacity="0.75" />
			</g>
		</g>
		<g>
			<title>iucC (FLEGEENC_04078)
Aerobactin synthase</title>
			<polygon class="iucC (FLEGEENC_04078)
Aerobactin synthase" points="297,25 326,25 326,10 356,40 326,70 326,55 297,55" fill="rgb(255,255,255)" fill-opacity="1.0" stroke="rgb(0,0,0)" stroke-width="2"  />
			<g>
				<title>IucA_IucC (PF04183)
"IucA / IucC family"</title>
				<rect class="PF04183" x="311" y="28" stroke-linejoin="round" width="25" height="24" fill="rgb(221,104,121)" stroke="rgb(176,83,96)" stroke-width="1" opacity="0.75" />
			</g>
			<g>
				<title>FhuF (PF06276)
"Ferric iron reductase FhuF-like transporter"</title>
				<polygon class="PF06276" points="338,28 340,28 352,40 340,52 338,52" stroke-linejoin="round" width="16" height="24" fill="rgb(76,151,221)" stroke="rgb(60,120,176)" stroke-width="1" opacity="0.75" />
			</g>
		</g>
		<g>
			<title>pspB (FLEGEENC_04079)
Putative phosphoserine phosphatase 2</title>
			<polygon class="pspB (FLEGEENC_04079)
Putative phosphoserine phosphatase 2" points="359,10 378,40 359,70" fill="rgb(255,255,255)" fill-opacity="1.0" stroke="rgb(0,0,0)" stroke-width="2"  />
			<g>
				<title>His_Phos_1 (PF00300)
"Histidine phosphatase superfamily (branch 1)"</title>
				<polygon class="PF00300" points="359,28 366,28 374,40 366,52 359,52" stroke-linejoin="round" width="18" height="24" fill="rgb(135,184,63)" stroke="rgb(107,147,50)" stroke-width="1" opacity="0.75" />
			</g>
		</g>
		<g>
			<title>iolS_2 (FLEGEENC_04080)
Aldo-keto reductase IolS</title>
			<polygon class="iolS_2 (FLEGEENC_04080)
Aldo-keto reductase IolS" points="380,25 381,25 381,10 411,40 381,70 381,55 380,55" fill="rgb(255,255,255)" fill-opacity="1.0" stroke="rgb(0,0,0)" stroke-width="2"  />
			<g>
				<title>Aldo_ket_red (PF00248)
"Aldo/keto reductase family"</title>
				<polygon class="PF00248" points="381,28 394,28 406,40 394,52 381,52" stroke-linejoin="round" width="29" height="24" fill="rgb(225,205,58)" stroke="rgb(180,164,46)" stroke-width="1" opacity="0.75" />
			</g>
		</g>
		<g>
			<title> (FLEGEENC_04081)
hypothetical protein</title>
			<polygon class=" (FLEGEENC_04081)
hypothetical protein" points="422,10 426,40 422,70" fill="rgb(255,255,255)" fill-opacity="1.0" stroke="rgb(0,0,0)" stroke-width="2"  />
		</g>
		<g>
			<title>aceA (FLEGEENC_04082)
Isocitrate lyase</title>
			<polygon class="aceA (FLEGEENC_04082)
Isocitrate lyase" points="440,25 453,25 453,10 483,40 453,70 453,55 440,55" fill="rgb(255,255,255)" fill-opacity="1.0" stroke="rgb(0,0,0)" stroke-width="2"  />
			<g>
				<title>ICL (PF00463)
"Isocitrate lyase family"</title>
				<rect class="PF00463" x="440" y="28" stroke-linejoin="round" width="24" height="24" fill="rgb(209,76,110)" stroke="rgb(167,60,87)" stroke-width="1" opacity="0.75" />
			</g>
			<g>
				<title>ICL (PF00463)
"Isocitrate lyase family"</title>
				<polygon class="PF00463" points="464,28 466,28 478,40 466,52 464,52" stroke-linejoin="round" width="17" height="24" fill="rgb(209,76,110)" stroke="rgb(167,60,87)" stroke-width="1" opacity="0.75" />
			</g>
		</g>
	</g>
</svg>
