<svg version="1.1" baseProfile="full" xmlns="http://www.w3.org/2000/svg" width="1347.5" height="80">
	<g>
		<line x1="10" y1="40.0" x2="1337.5" y2="40.0" style="stroke:rgb(70,70,70); stroke-width:3 "/>
		<g>
			<title> (LECGHDDD_00687)
hypothetical protein</title>
			<polygon class=" (LECGHDDD_00687)
hypothetical protein" points="84,40 100,10 100,70" fill="rgb(255,255,255)" fill-opacity="1.0" stroke="rgb(0,0,0)" stroke-width="2"  />
		</g>
		<g>
			<title> (LECGHDDD_00688)
hypothetical protein</title>
			<polygon class=" (LECGHDDD_00688)
hypothetical protein" points="112,10 119,40 112,70" fill="rgb(255,255,255)" fill-opacity="1.0" stroke="rgb(0,0,0)" stroke-width="2"  />
		</g>
		<g>
			<title>fpuD (LECGHDDD_00689)
Petrobactin import ATP-binding protein FpuD</title>
			<polygon class="fpuD (LECGHDDD_00689)
Petrobactin import ATP-binding protein FpuD" points="125,10 152,40 125,70" fill="rgb(255,255,255)" fill-opacity="1.0" stroke="rgb(0,0,0)" stroke-width="2"  />
			<g>
				<title>ABC_tran (PF00005)
"ABC transporter"</title>
				<polygon class="PF00005" points="126,28 137,28 140,31 140,49 137,52 126,52" stroke-linejoin="round" width="14" height="24" fill="rgb(129,201,63)" stroke="rgb(103,160,50)" stroke-width="1" opacity="0.75" />
			</g>
		</g>
		<g>
			<title> (LECGHDDD_00690)
hypothetical protein</title>
			<polygon class=" (LECGHDDD_00690)
hypothetical protein" points="159,25 163,25 163,10 193,40 163,70 163,55 159,55" fill="rgb(255,255,255)" fill-opacity="1.0" stroke="rgb(0,0,0)" stroke-width="2"  />
			<g>
				<title>DUF2332 (PF10094)
"Uncharacterized protein conserved in bacteria (DUF2332)"</title>
				<polygon class="PF10094" points="159,28 177,28 189,40 177,52 159,52" stroke-linejoin="round" width="33" height="24" fill="rgb(180,85,205)" stroke="rgb(144,68,164)" stroke-width="1" opacity="0.75" />
			</g>
		</g>
		<g>
			<title> (LECGHDDD_00691)
hypothetical protein</title>
			<polygon class=" (LECGHDDD_00691)
hypothetical protein" points="196,10 211,40 196,70" fill="rgb(255,255,255)" fill-opacity="1.0" stroke="rgb(0,0,0)" stroke-width="2"  />
		</g>
		<g>
			<title> (LECGHDDD_00692)
hypothetical protein</title>
			<polygon class=" (LECGHDDD_00692)
hypothetical protein" points="215,10 236,40 215,70" fill="rgb(255,255,255)" fill-opacity="1.0" stroke="rgb(0,0,0)" stroke-width="2"  />
			<g>
				<title>Acetyltransf_1 (PF00583)
"Acetyltransferase (GNAT) family"</title>
				<polygon class="PF00583" points="216,28 224,28 228,34 228,46 224,52 216,52" stroke-linejoin="round" width="12" height="24" fill="rgb(121,183,50)" stroke="rgb(96,146,39)" stroke-width="1" opacity="0.75" />
			</g>
		</g>
		<g>
			<title> (LECGHDDD_00693)
hypothetical protein</title>
			<polygon class=" (LECGHDDD_00693)
hypothetical protein" points="267,10 276,40 267,70" fill="rgb(255,255,255)" fill-opacity="1.0" stroke="rgb(0,0,0)" stroke-width="2"  />
		</g>
		<g>
			<title> (LECGHDDD_00694)
hypothetical protein</title>
			<polygon class=" (LECGHDDD_00694)
hypothetical protein" points="279,25 313,25 313,10 343,40 313,70 313,55 279,55" fill="rgb(255,255,255)" fill-opacity="1.0" stroke="rgb(0,0,0)" stroke-width="2"  />
			<g>
				<title>Methyltransf_16 (PF10294)
"Lysine methyltransferase"</title>
				<rect class="PF10294" x="287" y="28" stroke-linejoin="round" width="16" height="24" fill="rgb(91,121,203)" stroke="rgb(72,96,162)" stroke-width="1" opacity="0.75" />
			</g>
		</g>
		<g>
			<title> (LECGHDDD_00695)
hypothetical protein</title>
			<polygon class=" (LECGHDDD_00695)
hypothetical protein" points="343,25 377,25 377,10 407,40 377,70 377,55 343,55" fill="rgb(255,255,255)" fill-opacity="1.0" stroke="rgb(0,0,0)" stroke-width="2"  />
			<g>
				<title>YcaO (PF02624)
"YcaO cyclodehydratase, ATP-ad Mg2+-binding"</title>
				<polygon class="PF02624" points="369,28 391,28 403,40 403,40 391,52 369,52" stroke-linejoin="round" width="34" height="24" fill="rgb(76,84,185)" stroke="rgb(60,67,148)" stroke-width="1" opacity="0.75" />
			</g>
		</g>
		<g>
			<title> (LECGHDDD_00696)
hypothetical protein</title>
			<polygon class=" (LECGHDDD_00696)
hypothetical protein" points="408,25 429,25 429,10 459,40 429,70 429,55 408,55" fill="rgb(255,255,255)" fill-opacity="1.0" stroke="rgb(0,0,0)" stroke-width="2"  />
			<g>
				<title>Nitroreductase (PF00881)
"Nitroreductase family"</title>
				<polygon class="PF00881" points="440,28 443,28 455,40 443,52 440,52" stroke-linejoin="round" width="17" height="24" fill="rgb(79,118,187)" stroke="rgb(63,94,149)" stroke-width="1" opacity="0.75" />
			</g>
		</g>
		<g>
			<title> (LECGHDDD_00697)
hypothetical protein</title>
			<polygon class=" (LECGHDDD_00697)
hypothetical protein" points="466,10 481,40 466,70" fill="rgb(255,255,255)" fill-opacity="1.0" stroke="rgb(0,0,0)" stroke-width="2"  />
			<g>
				<title>DinB_2 (PF12867)
"DinB superfamily"</title>
				<polygon class="PF12867" points="466,28 471,28 477,40 471,52 466,52" stroke-linejoin="round" width="13" height="24" fill="rgb(184,90,185)" stroke="rgb(147,72,148)" stroke-width="1" opacity="0.75" />
			</g>
		</g>
		<g>
			<title>pbuG_1 (LECGHDDD_00698)
Guanine/hypoxanthine permease PbuG</title>
			<polygon class="pbuG_1 (LECGHDDD_00698)
Guanine/hypoxanthine permease PbuG" points="499,25 512,25 512,10 542,40 512,70 512,55 499,55" fill="rgb(255,255,255)" fill-opacity="1.0" stroke="rgb(0,0,0)" stroke-width="2"  />
			<g>
				<title>Xan_ur_permease (PF00860)
"Permease family"</title>
				<polygon class="PF00860" points="500,28 525,28 537,40 537,40 525,52 500,52" stroke-linejoin="round" width="37" height="24" fill="rgb(216,88,217)" stroke="rgb(172,70,173)" stroke-width="1" opacity="0.75" />
			</g>
		</g>
		<g>
			<title>tusA_1 (LECGHDDD_00699)
Sulfur carrier protein TusA</title>
			<polygon class="tusA_1 (LECGHDDD_00699)
Sulfur carrier protein TusA" points="546,40 553,10 553,70" fill="rgb(255,255,255)" fill-opacity="1.0" stroke="rgb(0,0,0)" stroke-width="2"  />
			<g>
				<title>TusA (PF01206)
"Sulfurtransferase TusA"</title>
				<polygon class="PF01206" points="549,40 552,28 552,28 552,52 552,52" stroke-linejoin="round" width="6" height="24" fill="rgb(144,82,184)" stroke="rgb(115,65,147)" stroke-width="1" opacity="0.75" />
			</g>
		</g>
		<g>
			<title>glpE_1 (LECGHDDD_00700)
Thiosulfate sulfurtransferase GlpE</title>
			<polygon class="glpE_1 (LECGHDDD_00700)
Thiosulfate sulfurtransferase GlpE" points="556,40 567,10 567,70" fill="rgb(255,255,255)" fill-opacity="1.0" stroke="rgb(0,0,0)" stroke-width="2"  />
			<g>
				<title>Rhodanese (PF00581)
"Rhodanese-like domain"</title>
				<polygon class="PF00581" points="559,40 564,28 566,28 566,52 564,52" stroke-linejoin="round" width="10" height="24" fill="rgb(145,191,76)" stroke="rgb(116,152,60)" stroke-width="1" opacity="0.75" />
			</g>
		</g>
		<g>
			<title>dsrE2_1 (LECGHDDD_00701)
Sulfur carrier protein DsrE2</title>
			<polygon class="dsrE2_1 (LECGHDDD_00701)
Sulfur carrier protein DsrE2" points="568,40 581,10 581,70" fill="rgb(255,255,255)" fill-opacity="1.0" stroke="rgb(0,0,0)" stroke-width="2"  />
			<g>
				<title>DrsE_2 (PF13686)
"DsrE/DsrF/DrsH-like family"</title>
				<polygon class="PF13686" points="571,40 575,31 575,49" stroke-linejoin="round" width="7" height="24" fill="rgb(218,70,162)" stroke="rgb(174,56,129)" stroke-width="1" opacity="0.75" />
			</g>
		</g>
		<g>
			<title> (LECGHDDD_00702)
Peroxiredoxin</title>
			<polygon class=" (LECGHDDD_00702)
Peroxiredoxin" points="586,40 608,10 608,70" fill="rgb(255,255,255)" fill-opacity="1.0" stroke="rgb(0,0,0)" stroke-width="2"  />
			<g>
				<title>1-cysPrx_C (PF10417)
"C-terminal domain of 1-Cys peroxiredoxin"</title>
				<polygon class="PF10417" points="590,40 590,40 590,40" stroke-linejoin="round" width="3" height="24" fill="rgb(80,189,172)" stroke="rgb(64,151,137)" stroke-width="1" opacity="0.75" />
			</g>
			<g>
				<title>AhpC-TSA (PF00578)
"AhpC/TSA family"</title>
				<polygon class="PF00578" points="593,36 599,28 606,28 606,52 599,52 593,44" stroke-linejoin="round" width="13" height="24" fill="rgb(166,71,190)" stroke="rgb(132,56,152)" stroke-width="1" opacity="0.75" />
			</g>
		</g>
		<g>
			<title> (LECGHDDD_00703)
hypothetical protein</title>
			<polygon class=" (LECGHDDD_00703)
hypothetical protein" points="621,10 640,40 621,70" fill="rgb(255,255,255)" fill-opacity="1.0" stroke="rgb(0,0,0)" stroke-width="2"  />
			<g>
				<title>DUF4256 (PF14066)
"Protein of unknown function (DUF4256)"</title>
				<polygon class="PF14066" points="623,28 629,28 636,40 629,52 623,52" stroke-linejoin="round" width="17" height="24" fill="rgb(55,178,73)" stroke="rgb(44,142,58)" stroke-width="1" opacity="0.75" />
			</g>
		</g>
		<g>
			<title> (LECGHDDD_00704)
hypothetical protein</title>
			<polygon class=" (LECGHDDD_00704)
hypothetical protein" points="672,25 672,25 672,10 642,40 672,70 672,55 672,55" fill="rgb(255,255,255)" fill-opacity="1.0" stroke="rgb(0,0,0)" stroke-width="2"  />
			<g>
				<title>VanW (PF04294)
"VanW like protein"</title>
				<polygon class="PF04294" points="646,40 656,30 656,50" stroke-linejoin="round" width="12" height="24" fill="rgb(52,93,183)" stroke="rgb(41,74,146)" stroke-width="1" opacity="0.75" />
			</g>
			<g>
				<title>PG_binding_4 (PF12229)
"Putative peptidoglycan binding domain"</title>
				<rect class="PF12229" x="661" y="28" stroke-linejoin="round" width="9" height="24" fill="rgb(140,107,215)" stroke="rgb(112,85,172)" stroke-width="1" opacity="0.75" />
			</g>
		</g>
		<g>
			<title> (LECGHDDD_00705)
hypothetical protein</title>
			<polygon class=" (LECGHDDD_00705)
hypothetical protein" points="679,10 698,40 679,70" fill="rgb(255,255,255)" fill-opacity="1.0" stroke="rgb(0,0,0)" stroke-width="2"  />
		</g>
		<g>
			<title>srrA_1 (LECGHDDD_00706)
Transcriptional regulatory protein SrrA</title>
			<polygon class="srrA_1 (LECGHDDD_00706)
Transcriptional regulatory protein SrrA" points="702,10 725,40 702,70" fill="rgb(255,255,255)" fill-opacity="1.0" stroke="rgb(0,0,0)" stroke-width="2"  />
			<g>
				<title>Response_reg (PF00072)
"Response regulator receiver domain"</title>
				<rect class="PF00072" x="702" y="28" stroke-linejoin="round" width="10" height="24" fill="rgb(100,107,203)" stroke="rgb(80,85,162)" stroke-width="1" opacity="0.75" />
			</g>
			<g>
				<title>Trans_reg_C (PF00486)
"Transcriptional regulatory protein, C terminal"</title>
				<polygon class="PF00486" points="716,34 721,40 716,46" stroke-linejoin="round" width="7" height="24" fill="rgb(204,153,57)" stroke="rgb(163,122,45)" stroke-width="1" opacity="0.75" />
			</g>
		</g>
		<g>
			<title>sasA_1 (LECGHDDD_00707)
Adaptive-response sensory-kinase SasA</title>
			<polygon class="sasA_1 (LECGHDDD_00707)
Adaptive-response sensory-kinase SasA" points="723,25 741,25 741,10 771,40 741,70 741,55 723,55" fill="rgb(255,255,255)" fill-opacity="1.0" stroke="rgb(0,0,0)" stroke-width="2"  />
			<g>
				<title>HAMP (PF00672)
"HAMP domain"</title>
				<rect class="PF00672" x="743" y="28" stroke-linejoin="round" width="5" height="24" fill="rgb(124,89,195)" stroke="rgb(99,71,156)" stroke-width="1" opacity="0.75" />
			</g>
			<g>
				<title>HisKA (PF00512)
"His Kinase A (phospho-acceptor) domain"</title>
				<rect class="PF00512" x="749" y="28" stroke-linejoin="round" width="6" height="24" fill="rgb(193,125,62)" stroke="rgb(154,100,49)" stroke-width="1" opacity="0.75" />
			</g>
			<g>
				<title>HATPase_c (PF02518)
"Histidine kinase-, DNA gyrase B-, and HSP90-like ATPase"</title>
				<polygon class="PF02518" points="760,33 767,40 760,47" stroke-linejoin="round" width="11" height="24" fill="rgb(80,94,225)" stroke="rgb(64,75,180)" stroke-width="1" opacity="0.75" />
			</g>
		</g>
		<g>
			<title> (LECGHDDD_00708)
hypothetical protein</title>
			<polygon class=" (LECGHDDD_00708)
hypothetical protein" points="773,10 782,40 773,70" fill="rgb(255,255,255)" fill-opacity="1.0" stroke="rgb(0,0,0)" stroke-width="2"  />
		</g>
		<g>
			<title> (LECGHDDD_00709)
hypothetical protein</title>
			<polygon class=" (LECGHDDD_00709)
hypothetical protein" points="786,10 801,40 786,70" fill="rgb(255,255,255)" fill-opacity="1.0" stroke="rgb(0,0,0)" stroke-width="2"  />
		</g>
		<g>
			<title> (LECGHDDD_00710)
hypothetical protein</title>
			<polygon class=" (LECGHDDD_00710)
hypothetical protein" points="818,40 842,10 842,70" fill="rgb(255,255,255)" fill-opacity="1.0" stroke="rgb(0,0,0)" stroke-width="2"  />
			<g>
				<title>Gamma_PGA_hydro (PF05908)
"Poly-gamma-glutamate hydrolase"</title>
				<polygon class="PF05908" points="822,40 832,28 838,28 838,52 832,52" stroke-linejoin="round" width="19" height="24" fill="rgb(198,222,77)" stroke="rgb(158,177,61)" stroke-width="1" opacity="0.75" />
			</g>
		</g>
		<g>
			<title> (LECGHDDD_00711)
hypothetical protein</title>
			<polygon class=" (LECGHDDD_00711)
hypothetical protein" points="847,40 853,10 853,70" fill="rgb(255,255,255)" fill-opacity="1.0" stroke="rgb(0,0,0)" stroke-width="2"  />
		</g>
		<g>
			<title>dacC (LECGHDDD_00712)
D-alanyl-D-alanine carboxypeptidase DacC</title>
			<polygon class="dacC (LECGHDDD_00712)
D-alanyl-D-alanine carboxypeptidase DacC" points="859,25 878,25 878,10 908,40 878,70 878,55 859,55" fill="rgb(255,255,255)" fill-opacity="1.0" stroke="rgb(0,0,0)" stroke-width="2"  />
			<g>
				<title>Peptidase_S13 (PF02113)
"D-Ala-D-Ala carboxypeptidase 3 (S13) family"</title>
				<polygon class="PF02113" points="862,28 892,28 904,40 892,52 862,52" stroke-linejoin="round" width="45" height="24" fill="rgb(222,106,76)" stroke="rgb(177,84,60)" stroke-width="1" opacity="0.75" />
			</g>
		</g>
		<g>
			<title>nhaH_1 (LECGHDDD_00713)
Na(+)/H(+) antiporter NhaH</title>
			<polygon class="nhaH_1 (LECGHDDD_00713)
Na(+)/H(+) antiporter NhaH" points="912,25 922,25 922,10 952,40 922,70 922,55 912,55" fill="rgb(255,255,255)" fill-opacity="1.0" stroke="rgb(0,0,0)" stroke-width="2"  />
			<g>
				<title>Na_H_Exchanger (PF00999)
"Sodium/hydrogen exchanger family"</title>
				<polygon class="PF00999" points="913,28 936,28 948,40 936,52 913,52" stroke-linejoin="round" width="38" height="24" fill="rgb(229,67,191)" stroke="rgb(183,53,152)" stroke-width="1" opacity="0.75" />
			</g>
		</g>
		<g>
			<title>cobB (LECGHDDD_00714)
NAD-dependent protein deacetylase</title>
			<polygon class="cobB (LECGHDDD_00714)
NAD-dependent protein deacetylase" points="954,40 978,10 978,70" fill="rgb(255,255,255)" fill-opacity="1.0" stroke="rgb(0,0,0)" stroke-width="2"  />
			<g>
				<title>SIR2 (PF02146)
"Sir2 family"</title>
				<polygon class="PF02146" points="959,39 968,28 976,28 976,52 968,52 959,41" stroke-linejoin="round" width="17" height="24" fill="rgb(83,217,165)" stroke="rgb(66,173,132)" stroke-width="1" opacity="0.75" />
			</g>
		</g>
		<g>
			<title>nfrA1 (LECGHDDD_00715)
FMN reductase (NADPH)</title>
			<polygon class="nfrA1 (LECGHDDD_00715)
FMN reductase (NADPH)" points="979,40 1003,10 1003,70" fill="rgb(255,255,255)" fill-opacity="1.0" stroke="rgb(0,0,0)" stroke-width="2"  />
			<g>
				<title>Nitroreductase (PF00881)
"Nitroreductase family"</title>
				<polygon class="PF00881" points="987,35 993,28 1002,28 1002,52 993,52 987,45" stroke-linejoin="round" width="15" height="24" fill="rgb(79,118,187)" stroke="rgb(63,94,149)" stroke-width="1" opacity="0.75" />
			</g>
		</g>
		<g>
			<title> (LECGHDDD_00716)
hypothetical protein</title>
			<polygon class=" (LECGHDDD_00716)
hypothetical protein" points="1004,40 1026,10 1026,70" fill="rgb(255,255,255)" fill-opacity="1.0" stroke="rgb(0,0,0)" stroke-width="2"  />
		</g>
		<g>
			<title> (LECGHDDD_00717)
hypothetical protein</title>
			<polygon class=" (LECGHDDD_00717)
hypothetical protein" points="1032,10 1043,40 1032,70" fill="rgb(255,255,255)" fill-opacity="1.0" stroke="rgb(0,0,0)" stroke-width="2"  />
		</g>
		<g>
			<title> (LECGHDDD_00718)
hypothetical protein</title>
			<polygon class=" (LECGHDDD_00718)
hypothetical protein" points="1044,40 1052,10 1052,70" fill="rgb(255,255,255)" fill-opacity="1.0" stroke="rgb(0,0,0)" stroke-width="2"  />
		</g>
		<g>
			<title>drrA (LECGHDDD_00719)
Doxorubicin resistance ATP-binding protein DrrA</title>
			<polygon class="drrA (LECGHDDD_00719)
Doxorubicin resistance ATP-binding protein DrrA" points="1066,25 1068,25 1068,10 1098,40 1068,70 1068,55 1066,55" fill="rgb(255,255,255)" fill-opacity="1.0" stroke="rgb(0,0,0)" stroke-width="2"  />
			<g>
				<title>ABC_tran (PF00005)
"ABC transporter"</title>
				<rect class="PF00005" x="1068" y="28" stroke-linejoin="round" width="14" height="24" fill="rgb(129,201,63)" stroke="rgb(103,160,50)" stroke-width="1" opacity="0.75" />
			</g>
			<g>
				<title>DUF4162 (PF13732)
"Domain of unknown function (DUF4162)"</title>
				<polygon class="PF13732" points="1088,34 1094,40 1088,46" stroke-linejoin="round" width="9" height="24" fill="rgb(100,223,143)" stroke="rgb(80,178,114)" stroke-width="1" opacity="0.75" />
			</g>
		</g>
		<g>
			<title>drrB (LECGHDDD_00720)
Daunorubicin/doxorubicin resistance ABC transporter permease protein DrrB</title>
			<polygon class="drrB (LECGHDDD_00720)
Daunorubicin/doxorubicin resistance ABC transporter permease protein DrrB" points="1098,10 1124,40 1098,70" fill="rgb(255,255,255)" fill-opacity="1.0" stroke="rgb(0,0,0)" stroke-width="2"  />
			<g>
				<title>ABC2_membrane (PF01061)
"ABC-2 type transporter"</title>
				<polygon class="PF01061" points="1098,28 1110,28 1119,39 1119,41 1110,52 1098,52" stroke-linejoin="round" width="21" height="24" fill="rgb(139,217,106)" stroke="rgb(111,173,84)" stroke-width="1" opacity="0.75" />
			</g>
		</g>
		<g>
			<title>rsgA_1 (LECGHDDD_00721)
Small ribosomal subunit biogenesis GTPase RsgA</title>
			<polygon class="rsgA_1 (LECGHDDD_00721)
Small ribosomal subunit biogenesis GTPase RsgA" points="1129,25 1133,25 1133,10 1163,40 1133,70 1133,55 1129,55" fill="rgb(255,255,255)" fill-opacity="1.0" stroke="rgb(0,0,0)" stroke-width="2"  />
			<g>
				<title>RsgA_GTPase (PF03193)
"RsgA GTPase"</title>
				<polygon class="PF03193" points="1137,28 1146,28 1154,36 1154,44 1146,52 1137,52" stroke-linejoin="round" width="17" height="24" fill="rgb(89,182,98)" stroke="rgb(71,145,78)" stroke-width="1" opacity="0.75" />
			</g>
		</g>
		<g>
			<title>pyrD_1 (LECGHDDD_00722)
Dihydroorotate dehydrogenase (quinone)</title>
			<polygon class="pyrD_1 (LECGHDDD_00722)
Dihydroorotate dehydrogenase (quinone)" points="1166,25 1194,25 1194,10 1224,40 1194,70 1194,55 1166,55" fill="rgb(255,255,255)" fill-opacity="1.0" stroke="rgb(0,0,0)" stroke-width="2"  />
			<g>
				<title>DHO_dh (PF01180)
"Dihydroorotate dehydrogenase"</title>
				<rect class="PF01180" x="1189" y="28" stroke-linejoin="round" width="5" height="24" fill="rgb(127,188,80)" stroke="rgb(101,150,64)" stroke-width="1" opacity="0.75" />
			</g>
		</g>
		<g>
			<title> (LECGHDDD_00723)
hypothetical protein</title>
			<polygon class=" (LECGHDDD_00723)
hypothetical protein" points="1225,10 1241,40 1225,70" fill="rgb(255,255,255)" fill-opacity="1.0" stroke="rgb(0,0,0)" stroke-width="2"  />
			<g>
				<title>DUF3221 (PF11518)
"Protein of unknown function (DUF3221)"</title>
				<polygon class="PF11518" points="1227,28 1231,28 1234,33 1234,47 1231,52 1227,52" stroke-linejoin="round" width="7" height="24" fill="rgb(187,94,209)" stroke="rgb(149,75,167)" stroke-width="1" opacity="0.75" />
			</g>
		</g>
		<g>
			<title>glnA_1 (LECGHDDD_00724)
Glutamine synthetase</title>
			<polygon class="glnA_1 (LECGHDDD_00724)
Glutamine synthetase" points="1287,25 1274,25 1274,10 1244,40 1274,70 1274,55 1287,55" fill="rgb(255,255,255)" fill-opacity="1.0" stroke="rgb(0,0,0)" stroke-width="2"  />
			<g>
				<title>Gln-synt_C (PF00120)
"Glutamine synthetase, catalytic domain"</title>
				<polygon class="PF00120" points="1248,40 1260,28 1276,28 1276,52 1260,52" stroke-linejoin="round" width="32" height="24" fill="rgb(195,227,89)" stroke="rgb(155,181,71)" stroke-width="1" opacity="0.75" />
			</g>
			<g>
				<title>Gln-synt_N (PF03951)
"Glutamine synthetase, beta-Grasp domain"</title>
				<rect class="PF03951" x="1277" y="28" stroke-linejoin="round" width="8" height="24" fill="rgb(125,91,194)" stroke="rgb(100,72,155)" stroke-width="1" opacity="0.75" />
			</g>
		</g>
		<g>
			<title> (LECGHDDD_00725)
hypothetical protein</title>
			<polygon class=" (LECGHDDD_00725)
hypothetical protein" points="1295,10 1308,40 1295,70" fill="rgb(255,255,255)" fill-opacity="1.0" stroke="rgb(0,0,0)" stroke-width="2"  />
		</g>
	</g>
</svg>
