<svg version="1.1" baseProfile="full" xmlns="http://www.w3.org/2000/svg" width="366.6333333333333" height="80">
	<g>
		<line x1="10" y1="40.0" x2="356.6333333333333" y2="40.0" style="stroke:rgb(70,70,70); stroke-width:3 "/>
		<g>
			<title> (PPJPJCPL_01594)
hypothetical protein</title>
			<polygon class=" (PPJPJCPL_01594)
hypothetical protein" points="14,40 29,10 29,70" fill="rgb(255,255,255)" fill-opacity="1.0" stroke="rgb(0,0,0)" stroke-width="2"  />
		</g>
		<g>
			<title>ybbA (PPJPJCPL_01595)
putative protein YbbA</title>
			<polygon class="ybbA (PPJPJCPL_01595)
putative protein YbbA" points="30,40 56,10 56,70" fill="rgb(255,255,255)" fill-opacity="1.0" stroke="rgb(0,0,0)" stroke-width="2"  />
			<g>
				<title>Esterase (PF00756)
"Putative esterase"</title>
				<polygon class="PF00756" points="34,40 45,28 55,28 55,52 45,52" stroke-linejoin="round" width="24" height="24" fill="rgb(217,132,77)" stroke="rgb(173,105,61)" stroke-width="1" opacity="0.75" />
			</g>
		</g>
		<g>
			<title> (PPJPJCPL_01596)
putative MscS family protein.1</title>
			<polygon class=" (PPJPJCPL_01596)
putative MscS family protein.1" points="60,25 66,25 66,10 96,40 66,70 66,55 60,55" fill="rgb(255,255,255)" fill-opacity="1.0" stroke="rgb(0,0,0)" stroke-width="2"  />
			<g>
				<title>MS_channel (PF00924)
"Mechanosensitive ion channel"</title>
				<polygon class="PF00924" points="73,28 79,28 91,40 79,52 73,52" stroke-linejoin="round" width="20" height="24" fill="rgb(177,58,210)" stroke="rgb(141,46,168)" stroke-width="1" opacity="0.75" />
			</g>
		</g>
		<g>
			<title>ectA (PPJPJCPL_01597)
L-2,4-diaminobutyric acid acetyltransferase</title>
			<polygon class="ectA (PPJPJCPL_01597)
L-2,4-diaminobutyric acid acetyltransferase" points="113,10 131,40 113,70" fill="rgb(255,255,255)" fill-opacity="1.0" stroke="rgb(0,0,0)" stroke-width="2"  />
			<g>
				<title>Acetyltransf_1 (PF00583)
"Acetyltransferase (GNAT) family"</title>
				<polygon class="PF00583" points="115,28 120,28 126,38 126,42 120,52 115,52" stroke-linejoin="round" width="11" height="24" fill="rgb(121,183,50)" stroke="rgb(96,146,39)" stroke-width="1" opacity="0.75" />
			</g>
		</g>
		<g>
			<title>ectB (PPJPJCPL_01598)
Diaminobutyrate--2-oxoglutarate transaminase</title>
			<polygon class="ectB (PPJPJCPL_01598)
Diaminobutyrate--2-oxoglutarate transaminase" points="132,25 144,25 144,10 174,40 144,70 144,55 132,55" fill="rgb(255,255,255)" fill-opacity="1.0" stroke="rgb(0,0,0)" stroke-width="2"  />
			<g>
				<title>Aminotran_3 (PF00202)
"Aminotransferase class-III"</title>
				<polygon class="PF00202" points="133,28 158,28 170,40 158,52 133,52" stroke-linejoin="round" width="39" height="24" fill="rgb(49,163,189)" stroke="rgb(39,130,151)" stroke-width="1" opacity="0.75" />
			</g>
		</g>
		<g>
			<title>ectC (PPJPJCPL_01599)
L-ectoine synthase</title>
			<polygon class="ectC (PPJPJCPL_01599)
L-ectoine synthase" points="176,10 189,40 176,70" fill="rgb(255,255,255)" fill-opacity="1.0" stroke="rgb(0,0,0)" stroke-width="2"  />
			<g>
				<title>Ectoine_synth (PF06339)
"Ectoine synthase"</title>
				<polygon class="PF06339" points="176,28 180,28 186,40 180,52 176,52" stroke-linejoin="round" width="12" height="24" fill="rgb(225,176,81)" stroke="rgb(180,140,64)" stroke-width="1" opacity="0.75" />
			</g>
		</g>
		<g>
			<title> (PPJPJCPL_01600)
Putative aldehyde dehydrogenase</title>
			<polygon class=" (PPJPJCPL_01600)
Putative aldehyde dehydrogenase" points="238,25 221,25 221,10 191,40 221,70 221,55 238,55" fill="rgb(255,255,255)" fill-opacity="1.0" stroke="rgb(0,0,0)" stroke-width="2"  />
			<g>
				<title>Aldedh (PF00171)
"Aldehyde dehydrogenase family"</title>
				<polygon class="PF00171" points="195,40 207,28 236,28 236,52 207,52" stroke-linejoin="round" width="45" height="24" fill="rgb(105,213,139)" stroke="rgb(84,170,111)" stroke-width="1" opacity="0.75" />
			</g>
		</g>
		<g>
			<title>tatAd_3 (PPJPJCPL_01601)
Sec-independent protein translocase protein TatAd</title>
			<polygon class="tatAd_3 (PPJPJCPL_01601)
Sec-independent protein translocase protein TatAd" points="252,10 259,40 252,70" fill="rgb(255,255,255)" fill-opacity="1.0" stroke="rgb(0,0,0)" stroke-width="2"  />
			<g>
				<title>MttA_Hcf106 (PF02416)
"mttA/Hcf106 family"</title>
				<polygon class="PF02416" points="252,28 252,28 256,40 252,52 252,52" stroke-linejoin="round" width="6" height="24" fill="rgb(74,206,98)" stroke="rgb(59,164,78)" stroke-width="1" opacity="0.75" />
			</g>
		</g>
		<g>
			<title>tatC1_2 (PPJPJCPL_01602)
Sec-independent protein translocase protein TatCd</title>
			<polygon class="tatC1_2 (PPJPJCPL_01602)
Sec-independent protein translocase protein TatCd" points="262,10 286,40 262,70" fill="rgb(255,255,255)" fill-opacity="1.0" stroke="rgb(0,0,0)" stroke-width="2"  />
			<g>
				<title>TatC (PF00902)
"Sec-independent protein translocase protein (TatC)"</title>
				<polygon class="PF00902" points="263,28 272,28 282,40 272,52 263,52" stroke-linejoin="round" width="20" height="24" fill="rgb(84,193,209)" stroke="rgb(67,154,167)" stroke-width="1" opacity="0.75" />
			</g>
		</g>
		<g>
			<title> (PPJPJCPL_01603)
hypothetical protein</title>
			<polygon class=" (PPJPJCPL_01603)
hypothetical protein" points="294,40 305,10 305,70" fill="rgb(255,255,255)" fill-opacity="1.0" stroke="rgb(0,0,0)" stroke-width="2"  />
			<g>
				<title>Glyoxalase (PF00903)
"Glyoxalase/Bleomycin resistance protein/Dioxygenase superfamily"</title>
				<polygon class="PF00903" points="297,40 302,28 304,28 304,52 302,52" stroke-linejoin="round" width="10" height="24" fill="rgb(50,162,189)" stroke="rgb(40,129,151)" stroke-width="1" opacity="0.75" />
			</g>
		</g>
		<g>
			<title>mhqA_1 (PPJPJCPL_01604)
Putative ring-cleaving dioxygenase MhqA</title>
			<polygon class="mhqA_1 (PPJPJCPL_01604)
Putative ring-cleaving dioxygenase MhqA" points="344,25 342,25 342,10 312,40 342,70 342,55 344,55" fill="rgb(255,255,255)" fill-opacity="1.0" stroke="rgb(0,0,0)" stroke-width="2"  />
			<g>
				<title>Glyoxalase (PF00903)
"Glyoxalase/Bleomycin resistance protein/Dioxygenase superfamily"</title>
				<polygon class="PF00903" points="316,40 328,28 328,28 328,52 328,52 316,40" stroke-linejoin="round" width="12" height="24" fill="rgb(50,162,189)" stroke="rgb(40,129,151)" stroke-width="1" opacity="0.75" />
			</g>
			<g>
				<title>Glyoxalase (PF00903)
"Glyoxalase/Bleomycin resistance protein/Dioxygenase superfamily"</title>
				<rect class="PF00903" x="331" y="28" stroke-linejoin="round" width="12" height="24" fill="rgb(50,162,189)" stroke="rgb(40,129,151)" stroke-width="1" opacity="0.75" />
			</g>
		</g>
	</g>
</svg>
