<svg version="1.1" baseProfile="full" xmlns="http://www.w3.org/2000/svg" width="801.4333333333333" height="80">
	<g>
		<line x1="10" y1="40.0" x2="791.4333333333333" y2="40.0" style="stroke:rgb(70,70,70); stroke-width:3 "/>
		<g>
			<title>yihQ (DBLALLCB_01226)
Sulfoquinovosidase</title>
			<polygon class="yihQ (DBLALLCB_01226)
Sulfoquinovosidase" points="12,25 50,25 50,10 80,40 50,70 50,55 12,55" fill="rgb(255,255,255)" fill-opacity="1.0" stroke="rgb(0,0,0)" stroke-width="2"  />
			<g>
				<title>Glyco_hydro_31 (PF01055)
"Glycosyl hydrolases family 31"</title>
				<polygon class="PF01055" points="34,28 64,28 76,40 64,52 34,52" stroke-linejoin="round" width="44" height="24" fill="rgb(102,121,211)" stroke="rgb(81,96,168)" stroke-width="1" opacity="0.75" />
			</g>
		</g>
		<g>
			<title> (DBLALLCB_01227)
hypothetical protein</title>
			<polygon class=" (DBLALLCB_01227)
hypothetical protein" points="83,25 97,25 97,10 127,40 97,70 97,55 83,55" fill="rgb(255,255,255)" fill-opacity="1.0" stroke="rgb(0,0,0)" stroke-width="2"  />
		</g>
		<g>
			<title>pfp (DBLALLCB_01228)
Pyrophosphate--fructose 6-phosphate 1-phosphotransferase</title>
			<polygon class="pfp (DBLALLCB_01228)
Pyrophosphate--fructose 6-phosphate 1-phosphotransferase" points="128,25 136,25 136,10 166,40 136,70 136,55 128,55" fill="rgb(255,255,255)" fill-opacity="1.0" stroke="rgb(0,0,0)" stroke-width="2"  />
			<g>
				<title>PFK (PF00365)
"Phosphofructokinase"</title>
				<polygon class="PF00365" points="128,28 150,28 158,36 158,44 150,52 128,52" stroke-linejoin="round" width="30" height="24" fill="rgb(134,188,70)" stroke="rgb(107,150,56)" stroke-width="1" opacity="0.75" />
			</g>
		</g>
		<g>
			<title>nagR_1 (DBLALLCB_01229)
HTH-type transcriptional repressor NagR</title>
			<polygon class="nagR_1 (DBLALLCB_01229)
HTH-type transcriptional repressor NagR" points="166,10 190,40 166,70" fill="rgb(255,255,255)" fill-opacity="1.0" stroke="rgb(0,0,0)" stroke-width="2"  />
			<g>
				<title>GntR (PF00392)
"Bacterial regulatory proteins, gntR family"</title>
				<rect class="PF00392" x="167" y="28" stroke-linejoin="round" width="6" height="24" fill="rgb(160,85,194)" stroke="rgb(127,68,155)" stroke-width="1" opacity="0.75" />
			</g>
			<g>
				<title>UTRA (PF07702)
"UTRA domain"</title>
				<polygon class="PF07702" points="175,28 177,28 186,40 177,52 175,52" stroke-linejoin="round" width="13" height="24" fill="rgb(170,184,91)" stroke="rgb(136,147,72)" stroke-width="1" opacity="0.75" />
			</g>
		</g>
		<g>
			<title>kbaY (DBLALLCB_01230)
D-tagatose-1,6-bisphosphate aldolase subunit KbaY</title>
			<polygon class="kbaY (DBLALLCB_01230)
D-tagatose-1,6-bisphosphate aldolase subunit KbaY" points="191,10 220,40 191,70" fill="rgb(255,255,255)" fill-opacity="1.0" stroke="rgb(0,0,0)" stroke-width="2"  />
			<g>
				<title>F_bP_aldolase (PF01116)
"Fructose-bisphosphate aldolase class-II"</title>
				<polygon class="PF01116" points="191,28 204,28 216,40 204,52 191,52" stroke-linejoin="round" width="27" height="24" fill="rgb(188,67,71)" stroke="rgb(150,53,56)" stroke-width="1" opacity="0.75" />
			</g>
		</g>
		<g>
			<title>gabD_1 (DBLALLCB_01231)
Succinate-semialdehyde dehydrogenase [NADP(+)] GabD</title>
			<polygon class="gabD_1 (DBLALLCB_01231)
Succinate-semialdehyde dehydrogenase [NADP(+)] GabD" points="222,25 239,25 239,10 269,40 239,70 239,55 222,55" fill="rgb(255,255,255)" fill-opacity="1.0" stroke="rgb(0,0,0)" stroke-width="2"  />
			<g>
				<title>Aldedh (PF00171)
"Aldehyde dehydrogenase family"</title>
				<polygon class="PF00171" points="223,28 253,28 265,40 253,52 223,52" stroke-linejoin="round" width="45" height="24" fill="rgb(105,213,139)" stroke="rgb(84,170,111)" stroke-width="1" opacity="0.75" />
			</g>
		</g>
		<g>
			<title> (DBLALLCB_01232)
hypothetical protein</title>
			<polygon class=" (DBLALLCB_01232)
hypothetical protein" points="272,25 272,25 272,10 302,40 272,70 272,55 272,55" fill="rgb(255,255,255)" fill-opacity="1.0" stroke="rgb(0,0,0)" stroke-width="2"  />
			<g>
				<title>Mem_trans (PF03547)
"Membrane transport protein"</title>
				<polygon class="PF03547" points="272,28 285,28 286,29 286,51 285,52 272,52" stroke-linejoin="round" width="14" height="24" fill="rgb(178,51,81)" stroke="rgb(142,40,64)" stroke-width="1" opacity="0.75" />
			</g>
			<g>
				<title>Mem_trans (PF03547)
"Membrane transport protein"</title>
				<polygon class="PF03547" points="286,29 297,40 286,51" stroke-linejoin="round" width="14" height="24" fill="rgb(178,51,81)" stroke="rgb(142,40,64)" stroke-width="1" opacity="0.75" />
			</g>
		</g>
		<g>
			<title> (DBLALLCB_01233)
hypothetical protein</title>
			<polygon class=" (DBLALLCB_01233)
hypothetical protein" points="307,40 334,10 334,70" fill="rgb(255,255,255)" fill-opacity="1.0" stroke="rgb(0,0,0)" stroke-width="2"  />
			<g>
				<title>Peptidase_S9 (PF00326)
"Prolyl oligopeptidase family"</title>
				<polygon class="PF00326" points="311,40 319,31 319,49" stroke-linejoin="round" width="12" height="24" fill="rgb(77,97,209)" stroke="rgb(61,77,167)" stroke-width="1" opacity="0.75" />
			</g>
		</g>
		<g>
			<title> (DBLALLCB_01234)
hypothetical protein</title>
			<polygon class=" (DBLALLCB_01234)
hypothetical protein" points="393,25 373,25 373,10 343,40 373,70 373,55 393,55" fill="rgb(255,255,255)" fill-opacity="1.0" stroke="rgb(0,0,0)" stroke-width="2"  />
			<g>
				<title>Nitroreductase (PF00881)
"Nitroreductase family"</title>
				<polygon class="PF00881" points="347,40 359,28 362,28 362,52 359,52" stroke-linejoin="round" width="18" height="24" fill="rgb(79,118,187)" stroke="rgb(63,94,149)" stroke-width="1" opacity="0.75" />
			</g>
		</g>
		<g>
			<title> (DBLALLCB_01235)
hypothetical protein</title>
			<polygon class=" (DBLALLCB_01235)
hypothetical protein" points="458,25 424,25 424,10 394,40 424,70 424,55 458,55" fill="rgb(255,255,255)" fill-opacity="1.0" stroke="rgb(0,0,0)" stroke-width="2"  />
			<g>
				<title>YcaO (PF02624)
"YcaO cyclodehydratase, ATP-ad Mg2+-binding"</title>
				<polygon class="PF02624" points="398,40 410,28 431,28 431,52 410,52 398,40" stroke-linejoin="round" width="33" height="24" fill="rgb(76,84,185)" stroke="rgb(60,67,148)" stroke-width="1" opacity="0.75" />
			</g>
		</g>
		<g>
			<title> (DBLALLCB_01236)
hypothetical protein</title>
			<polygon class=" (DBLALLCB_01236)
hypothetical protein" points="518,25 487,25 487,10 457,40 487,70 487,55 518,55" fill="rgb(255,255,255)" fill-opacity="1.0" stroke="rgb(0,0,0)" stroke-width="2"  />
		</g>
		<g>
			<title> (DBLALLCB_01237)
hypothetical protein</title>
			<polygon class=" (DBLALLCB_01237)
hypothetical protein" points="520,40 529,10 529,70" fill="rgb(255,255,255)" fill-opacity="1.0" stroke="rgb(0,0,0)" stroke-width="2"  />
		</g>
		<g>
			<title> (DBLALLCB_01238)
hypothetical protein</title>
			<polygon class=" (DBLALLCB_01238)
hypothetical protein" points="541,40 558,10 558,70" fill="rgb(255,255,255)" fill-opacity="1.0" stroke="rgb(0,0,0)" stroke-width="2"  />
			<g>
				<title>DUF1643 (PF07799)
"Protein of unknown function (DUF1643)"</title>
				<polygon class="PF07799" points="544,40 551,28 555,28 555,52 551,52" stroke-linejoin="round" width="13" height="24" fill="rgb(90,150,189)" stroke="rgb(72,120,151)" stroke-width="1" opacity="0.75" />
			</g>
		</g>
		<g>
			<title> (DBLALLCB_01239)
hypothetical protein</title>
			<polygon class=" (DBLALLCB_01239)
hypothetical protein" points="590,25 587,25 587,10 557,40 587,70 587,55 590,55" fill="rgb(255,255,255)" fill-opacity="1.0" stroke="rgb(0,0,0)" stroke-width="2"  />
		</g>
		<g>
			<title> (DBLALLCB_01240)
hypothetical protein</title>
			<polygon class=" (DBLALLCB_01240)
hypothetical protein" points="601,25 640,25 640,10 670,40 640,70 640,55 601,55" fill="rgb(255,255,255)" fill-opacity="1.0" stroke="rgb(0,0,0)" stroke-width="2"  />
			<g>
				<title>Mga (PF05043)
"Mga helix-turn-helix domain"</title>
				<rect class="PF05043" x="609" y="28" stroke-linejoin="round" width="8" height="24" fill="rgb(177,193,55)" stroke="rgb(141,154,44)" stroke-width="1" opacity="0.75" />
			</g>
			<g>
				<title>PRD (PF00874)
"PRD domain"</title>
				<rect class="PF00874" x="630" y="28" stroke-linejoin="round" width="9" height="24" fill="rgb(72,210,205)" stroke="rgb(57,168,164)" stroke-width="1" opacity="0.75" />
			</g>
			<g>
				<title>PTS_EIIA_2 (PF00359)
"Phosphoenolpyruvate-dependent sugar phosphotransferase system, EIIA 2"</title>
				<polygon class="PF00359" points="655,30 665,40 655,50" stroke-linejoin="round" width="14" height="24" fill="rgb(115,83,186)" stroke="rgb(91,66,148)" stroke-width="1" opacity="0.75" />
			</g>
		</g>
		<g>
			<title>gatA_1 (DBLALLCB_01241)
PTS system galactitol-specific EIIA component</title>
			<polygon class="gatA_1 (DBLALLCB_01241)
PTS system galactitol-specific EIIA component" points="671,10 686,40 671,70" fill="rgb(255,255,255)" fill-opacity="1.0" stroke="rgb(0,0,0)" stroke-width="2"  />
			<g>
				<title>PTS_EIIA_2 (PF00359)
"Phosphoenolpyruvate-dependent sugar phosphotransferase system, EIIA 2"</title>
				<polygon class="PF00359" points="671,28 676,28 683,40 676,52 671,52" stroke-linejoin="round" width="14" height="24" fill="rgb(115,83,186)" stroke="rgb(91,66,148)" stroke-width="1" opacity="0.75" />
			</g>
		</g>
		<g>
			<title>gatB_1 (DBLALLCB_01242)
PTS system galactitol-specific EIIB component</title>
			<polygon class="gatB_1 (DBLALLCB_01242)
PTS system galactitol-specific EIIB component" points="687,10 696,40 687,70" fill="rgb(255,255,255)" fill-opacity="1.0" stroke="rgb(0,0,0)" stroke-width="2"  />
			<g>
				<title>PTS_IIB (PF02302)
"PTS system, Lactose/Cellobiose specific IIB subunit"</title>
				<polygon class="PF02302" points="687,28 689,28 693,40 689,52 687,52" stroke-linejoin="round" width="8" height="24" fill="rgb(106,212,56)" stroke="rgb(84,169,44)" stroke-width="1" opacity="0.75" />
			</g>
		</g>
		<g>
			<title>gatB_2 (DBLALLCB_01243)
PTS system galactitol-specific EIIB component</title>
			<polygon class="gatB_2 (DBLALLCB_01243)
PTS system galactitol-specific EIIB component" points="697,10 706,40 697,70" fill="rgb(255,255,255)" fill-opacity="1.0" stroke="rgb(0,0,0)" stroke-width="2"  />
			<g>
				<title>PTS_IIB (PF02302)
"PTS system, Lactose/Cellobiose specific IIB subunit"</title>
				<polygon class="PF02302" points="697,28 699,28 703,40 699,52 697,52" stroke-linejoin="round" width="8" height="24" fill="rgb(106,212,56)" stroke="rgb(84,169,44)" stroke-width="1" opacity="0.75" />
			</g>
		</g>
		<g>
			<title>gatC_1 (DBLALLCB_01244)
PTS system galactitol-specific EIIC component</title>
			<polygon class="gatC_1 (DBLALLCB_01244)
PTS system galactitol-specific EIIC component" points="709,25 721,25 721,10 751,40 721,70 721,55 709,55" fill="rgb(255,255,255)" fill-opacity="1.0" stroke="rgb(0,0,0)" stroke-width="2"  />
			<g>
				<title>EIIC-GAT (PF03611)
"PTS system sugar-specific permease component"</title>
				<polygon class="PF03611" points="710,28 734,28 746,40 734,52 710,52" stroke-linejoin="round" width="38" height="24" fill="rgb(119,80,183)" stroke="rgb(95,64,146)" stroke-width="1" opacity="0.75" />
			</g>
		</g>
		<g>
			<title> (DBLALLCB_01245)
D-arabitol-phosphate dehydrogenase</title>
			<polygon class=" (DBLALLCB_01245)
D-arabitol-phosphate dehydrogenase" points="752,25 756,25 756,10 786,40 756,70 756,55 752,55" fill="rgb(255,255,255)" fill-opacity="1.0" stroke="rgb(0,0,0)" stroke-width="2"  />
			<g>
				<title>ADH_N (PF08240)
"Alcohol dehydrogenase GroES-like domain"</title>
				<rect class="PF08240" x="754" y="28" stroke-linejoin="round" width="10" height="24" fill="rgb(211,65,138)" stroke="rgb(168,51,110)" stroke-width="1" opacity="0.75" />
			</g>
			<g>
				<title>ADH_zinc_N (PF00107)
"Zinc-binding dehydrogenase"</title>
				<polygon class="PF00107" points="769,28 770,28 782,40 782,40 770,52 769,52" stroke-linejoin="round" width="13" height="24" fill="rgb(81,108,215)" stroke="rgb(64,86,172)" stroke-width="1" opacity="0.75" />
			</g>
		</g>
	</g>
</svg>
