<svg version="1.1" baseProfile="full" xmlns="http://www.w3.org/2000/svg" width="755.4666666666667" height="80">
	<g>
		<line x1="10" y1="40.0" x2="745.4666666666667" y2="40.0" style="stroke:rgb(70,70,70); stroke-width:3 "/>
		<g>
			<title>xerD_3 (PDEEBABA_04350)
Tyrosine recombinase XerD</title>
			<polygon class="xerD_3 (PDEEBABA_04350)
Tyrosine recombinase XerD" points="19,10 47,40 19,70" fill="rgb(255,255,255)" fill-opacity="1.0" stroke="rgb(0,0,0)" stroke-width="2"  />
			<g>
				<title>Phage_int_SAM_4 (PF13495)
"Phage integrase, N-terminal SAM-like domain"</title>
				<rect class="PF13495" x="19" y="28" stroke-linejoin="round" width="8" height="24" fill="rgb(183,46,141)" stroke="rgb(146,36,112)" stroke-width="1" opacity="0.75" />
			</g>
			<g>
				<title>Phage_integrase (PF00589)
"Phage integrase family"</title>
				<polygon class="PF00589" points="29,28 31,28 42,40 31,52 29,52" stroke-linejoin="round" width="15" height="24" fill="rgb(91,96,195)" stroke="rgb(72,76,156)" stroke-width="1" opacity="0.75" />
			</g>
		</g>
		<g>
			<title> (PDEEBABA_04351)
Tn3 family transposase</title>
			<polygon class=" (PDEEBABA_04351)
Tn3 family transposase" points="48,25 116,25 116,10 146,40 116,70 116,55 48,55" fill="rgb(255,255,255)" fill-opacity="1.0" stroke="rgb(0,0,0)" stroke-width="2"  />
			<g>
				<title>DUF4158 (PF13700)
"Domain of unknown function (DUF4158)"</title>
				<rect class="PF13700" x="48" y="28" stroke-linejoin="round" width="16" height="24" fill="rgb(93,106,195)" stroke="rgb(74,84,156)" stroke-width="1" opacity="0.75" />
			</g>
			<g>
				<title>DDE_Tnp_Tn3 (PF01526)
"Tn3 transposase DDE domain"</title>
				<polygon class="PF01526" points="106,28 130,28 142,40 130,52 106,52" stroke-linejoin="round" width="38" height="24" fill="rgb(92,211,195)" stroke="rgb(73,168,156)" stroke-width="1" opacity="0.75" />
			</g>
		</g>
		<g>
			<title> (PDEEBABA_04352)
hypothetical protein</title>
			<polygon class=" (PDEEBABA_04352)
hypothetical protein" points="149,40 174,10 174,70" fill="rgb(255,255,255)" fill-opacity="1.0" stroke="rgb(0,0,0)" stroke-width="2"  />
			<g>
				<title>DDE_Tnp_1 (PF01609)
"Transposase DDE domain"</title>
				<polygon class="PF01609" points="153,40 157,35 157,45" stroke-linejoin="round" width="7" height="24" fill="rgb(229,102,99)" stroke="rgb(183,81,79)" stroke-width="1" opacity="0.75" />
			</g>
		</g>
		<g>
			<title> (PDEEBABA_04353)
hypothetical protein</title>
			<polygon class=" (PDEEBABA_04353)
hypothetical protein" points="174,40 179,10 179,70" fill="rgb(255,255,255)" fill-opacity="1.0" stroke="rgb(0,0,0)" stroke-width="2"  />
		</g>
		<g>
			<title> (PDEEBABA_04354)
hypothetical protein</title>
			<polygon class=" (PDEEBABA_04354)
hypothetical protein" points="250,25 246,25 246,10 216,40 246,70 246,55 250,55" fill="rgb(255,255,255)" fill-opacity="1.0" stroke="rgb(0,0,0)" stroke-width="2"  />
		</g>
		<g>
			<title> (PDEEBABA_04355)
hypothetical protein</title>
			<polygon class=" (PDEEBABA_04355)
hypothetical protein" points="250,40 279,10 279,70" fill="rgb(255,255,255)" fill-opacity="1.0" stroke="rgb(0,0,0)" stroke-width="2"  />
			<g>
				<title>BPD_transp_1 (PF00528)
"Binding-protein-dependent transport system inner membrane component"</title>
				<polygon class="PF00528" points="254,40 266,28 269,28 269,52 266,52" stroke-linejoin="round" width="19" height="24" fill="rgb(77,208,225)" stroke="rgb(61,166,180)" stroke-width="1" opacity="0.75" />
			</g>
		</g>
		<g>
			<title>btuD_6 (PDEEBABA_04356)
Vitamin B12 import ATP-binding protein BtuD</title>
			<polygon class="btuD_6 (PDEEBABA_04356)
Vitamin B12 import ATP-binding protein BtuD" points="333,25 310,25 310,10 280,40 310,70 310,55 333,55" fill="rgb(255,255,255)" fill-opacity="1.0" stroke="rgb(0,0,0)" stroke-width="2"  />
			<g>
				<title>ABC_tran (PF00005)
"ABC transporter"</title>
				<polygon class="PF00005" points="284,40 296,28 298,28 298,52 296,52 284,40" stroke-linejoin="round" width="14" height="24" fill="rgb(129,201,63)" stroke="rgb(103,160,50)" stroke-width="1" opacity="0.75" />
			</g>
			<g>
				<title>ABC_membrane (PF00664)
"ABC transporter transmembrane region"</title>
				<rect class="PF00664" x="305" y="28" stroke-linejoin="round" width="27" height="24" fill="rgb(149,226,73)" stroke="rgb(119,180,58)" stroke-width="1" opacity="0.75" />
			</g>
		</g>
		<g>
			<title> (PDEEBABA_04357)
hypothetical protein</title>
			<polygon class=" (PDEEBABA_04357)
hypothetical protein" points="337,40 341,10 341,70" fill="rgb(255,255,255)" fill-opacity="1.0" stroke="rgb(0,0,0)" stroke-width="2"  />
		</g>
		<g>
			<title>asnH (PDEEBABA_04358)
Asparagine synthetase [glutamine-hydrolyzing] 2</title>
			<polygon class="asnH (PDEEBABA_04358)
Asparagine synthetase [glutamine-hydrolyzing] 2" points="398,25 373,25 373,10 343,40 373,70 373,55 398,55" fill="rgb(255,255,255)" fill-opacity="1.0" stroke="rgb(0,0,0)" stroke-width="2"  />
			<g>
				<title>Asn_synthase (PF00733)
"Asparagine synthase"</title>
				<polygon class="PF00733" points="347,40 359,28 378,28 378,52 359,52" stroke-linejoin="round" width="35" height="24" fill="rgb(97,201,176)" stroke="rgb(77,160,140)" stroke-width="1" opacity="0.75" />
			</g>
			<g>
				<title>GATase_7 (PF13537)
"Glutamine amidotransferase domain"</title>
				<rect class="PF13537" x="387" y="28" stroke-linejoin="round" width="7" height="24" fill="rgb(200,63,57)" stroke="rgb(160,50,45)" stroke-width="1" opacity="0.75" />
			</g>
		</g>
		<g>
			<title> (PDEEBABA_04359)
hypothetical protein</title>
			<polygon class=" (PDEEBABA_04359)
hypothetical protein" points="399,40 412,10 412,70" fill="rgb(255,255,255)" fill-opacity="1.0" stroke="rgb(0,0,0)" stroke-width="2"  />
			<g>
				<title>Transglut_core3 (PF13471)
"Transglutaminase-like superfamily"</title>
				<polygon class="PF13471" points="402,40 407,28 410,28 410,52 407,52" stroke-linejoin="round" width="11" height="24" fill="rgb(63,111,179)" stroke="rgb(50,88,143)" stroke-width="1" opacity="0.75" />
			</g>
		</g>
		<g>
			<title> (PDEEBABA_04360)
hypothetical protein</title>
			<polygon class=" (PDEEBABA_04360)
hypothetical protein" points="411,40 420,10 420,70" fill="rgb(255,255,255)" fill-opacity="1.0" stroke="rgb(0,0,0)" stroke-width="2"  />
			<g>
				<title>PqqD (PF05402)
"Coenzyme PQQ synthesis protein D (PqqD)"</title>
				<polygon class="PF05402" points="414,40 417,30 417,50" stroke-linejoin="round" width="6" height="24" fill="rgb(124,62,188)" stroke="rgb(99,49,150)" stroke-width="1" opacity="0.75" />
			</g>
		</g>
		<g>
			<title> (PDEEBABA_04361)
hypothetical protein</title>
			<polygon class=" (PDEEBABA_04361)
hypothetical protein" points="426,10 430,40 426,70" fill="rgb(255,255,255)" fill-opacity="1.0" stroke="rgb(0,0,0)" stroke-width="2"  />
		</g>
		<g>
			<title> (PDEEBABA_04362)
hypothetical protein</title>
			<polygon class=" (PDEEBABA_04362)
hypothetical protein" points="446,40 455,10 455,70" fill="rgb(255,255,255)" fill-opacity="1.0" stroke="rgb(0,0,0)" stroke-width="2"  />
		</g>
		<g>
			<title> (PDEEBABA_04363)
hypothetical protein</title>
			<polygon class=" (PDEEBABA_04363)
hypothetical protein" points="464,40 469,10 469,70" fill="rgb(255,255,255)" fill-opacity="1.0" stroke="rgb(0,0,0)" stroke-width="2"  />
		</g>
		<g>
			<title> (PDEEBABA_04364)
hypothetical protein</title>
			<polygon class=" (PDEEBABA_04364)
hypothetical protein" points="481,40 498,10 498,70" fill="rgb(255,255,255)" fill-opacity="1.0" stroke="rgb(0,0,0)" stroke-width="2"  />
		</g>
		<g>
			<title>isp_2 (PDEEBABA_04365)
Intracellular serine protease</title>
			<polygon class="isp_2 (PDEEBABA_04365)
Intracellular serine protease" points="535,25 534,25 534,10 504,40 534,70 534,55 535,55" fill="rgb(255,255,255)" fill-opacity="1.0" stroke="rgb(0,0,0)" stroke-width="2"  />
			<g>
				<title>Peptidase_S8 (PF00082)
"Subtilase family"</title>
				<polygon class="PF00082" points="508,40 520,28 531,28 531,52 520,52" stroke-linejoin="round" width="26" height="24" fill="rgb(193,159,94)" stroke="rgb(154,127,75)" stroke-width="1" opacity="0.75" />
			</g>
		</g>
		<g>
			<title>tcyP (PDEEBABA_04366)
L-cystine uptake protein TcyP</title>
			<polygon class="tcyP (PDEEBABA_04366)
L-cystine uptake protein TcyP" points="542,25 556,25 556,10 586,40 556,70 556,55 542,55" fill="rgb(255,255,255)" fill-opacity="1.0" stroke="rgb(0,0,0)" stroke-width="2"  />
			<g>
				<title>SDF (PF00375)
"Sodium:dicarboxylate symporter family"</title>
				<polygon class="PF00375" points="545,28 570,28 582,40 570,52 545,52" stroke-linejoin="round" width="41" height="24" fill="rgb(141,207,101)" stroke="rgb(112,165,80)" stroke-width="1" opacity="0.75" />
			</g>
		</g>
		<g>
			<title> (PDEEBABA_04367)
hypothetical protein</title>
			<polygon class=" (PDEEBABA_04367)
hypothetical protein" points="589,40 595,10 595,70" fill="rgb(255,255,255)" fill-opacity="1.0" stroke="rgb(0,0,0)" stroke-width="2"  />
		</g>
		<g>
			<title>spxA_2 (PDEEBABA_04368)
Regulatory protein Spx</title>
			<polygon class="spxA_2 (PDEEBABA_04368)
Regulatory protein Spx" points="602,10 610,40 602,70" fill="rgb(255,255,255)" fill-opacity="1.0" stroke="rgb(0,0,0)" stroke-width="2"  />
			<g>
				<title>Glutaredoxin (PF00462)
"Glutaredoxin"</title>
				<polygon class="PF00462" points="602,28 603,28 606,40 603,52 602,52" stroke-linejoin="round" width="5" height="24" fill="rgb(77,192,167)" stroke="rgb(61,153,133)" stroke-width="1" opacity="0.75" />
			</g>
		</g>
		<g>
			<title> (PDEEBABA_04369)
hypothetical protein</title>
			<polygon class=" (PDEEBABA_04369)
hypothetical protein" points="610,10 617,40 610,70" fill="rgb(255,255,255)" fill-opacity="1.0" stroke="rgb(0,0,0)" stroke-width="2"  />
		</g>
		<g>
			<title>sigO_2 (PDEEBABA_04370)
RNA polymerase sigma factor SigO</title>
			<polygon class="sigO_2 (PDEEBABA_04370)
RNA polymerase sigma factor SigO" points="623,10 642,40 623,70" fill="rgb(255,255,255)" fill-opacity="1.0" stroke="rgb(0,0,0)" stroke-width="2"  />
			<g>
				<title>Sigma70_r4_2 (PF08281)
"Sigma-70, region 4"</title>
				<polygon class="PF08281" points="636,36 638,40 636,44" stroke-linejoin="round" width="5" height="24" fill="rgb(222,103,144)" stroke="rgb(177,82,115)" stroke-width="1" opacity="0.75" />
			</g>
		</g>
		<g>
			<title> (PDEEBABA_04372)
hypothetical protein</title>
			<polygon class=" (PDEEBABA_04372)
hypothetical protein" points="672,10 678,40 672,70" fill="rgb(255,255,255)" fill-opacity="1.0" stroke="rgb(0,0,0)" stroke-width="2"  />
		</g>
		<g>
			<title> (PDEEBABA_04373)
hypothetical protein</title>
			<polygon class=" (PDEEBABA_04373)
hypothetical protein" points="680,10 697,40 680,70" fill="rgb(255,255,255)" fill-opacity="1.0" stroke="rgb(0,0,0)" stroke-width="2"  />
		</g>
		<g>
			<title> (PDEEBABA_04374)
hypothetical protein</title>
			<polygon class=" (PDEEBABA_04374)
hypothetical protein" points="702,10 725,40 702,70" fill="rgb(255,255,255)" fill-opacity="1.0" stroke="rgb(0,0,0)" stroke-width="2"  />
			<g>
				<title>SprT-like (PF10263)
"SprT-like family"</title>
				<polygon class="PF10263" points="703,28 712,28 717,35 717,45 712,52 703,52" stroke-linejoin="round" width="14" height="24" fill="rgb(211,76,66)" stroke="rgb(168,60,52)" stroke-width="1" opacity="0.75" />
			</g>
		</g>
	</g>
</svg>
