<svg version="1.1" baseProfile="full" xmlns="http://www.w3.org/2000/svg" width="366.23333333333335" height="80">
	<g>
		<line x1="10" y1="40.0" x2="356.23333333333335" y2="40.0" style="stroke:rgb(70,70,70); stroke-width:3 "/>
		<g>
			<title> (FNGGOAEL_00910)
hypothetical protein</title>
			<polygon class=" (FNGGOAEL_00910)
hypothetical protein" points="61,10 76,40 61,70" fill="rgb(255,255,255)" fill-opacity="1.0" stroke="rgb(0,0,0)" stroke-width="2"  />
			<g>
				<title>Acetyltransf_1 (PF00583)
"Acetyltransferase (GNAT) family"</title>
				<polygon class="PF00583" points="62,28 66,28 73,40 66,52 62,52" stroke-linejoin="round" width="12" height="24" fill="rgb(121,183,50)" stroke="rgb(96,146,39)" stroke-width="1" opacity="0.75" />
			</g>
		</g>
		<g>
			<title>bdlA (FNGGOAEL_00911)
Biofilm dispersion protein BdlA</title>
			<polygon class="bdlA (FNGGOAEL_00911)
Biofilm dispersion protein BdlA" points="83,10 112,40 83,70" fill="rgb(255,255,255)" fill-opacity="1.0" stroke="rgb(0,0,0)" stroke-width="2"  />
			<g>
				<title>PAS_4 (PF08448)
"PAS fold"</title>
				<rect class="PF08448" x="83" y="28" stroke-linejoin="round" width="11" height="24" fill="rgb(50,90,192)" stroke="rgb(40,71,153)" stroke-width="1" opacity="0.75" />
			</g>
			<g>
				<title>MCPsignal (PF00015)
"Methyl-accepting chemotaxis protein (MCP) signalling domain"</title>
				<polygon class="PF00015" points="96,28 107,40 96,52" stroke-linejoin="round" width="15" height="24" fill="rgb(104,174,223)" stroke="rgb(83,139,178)" stroke-width="1" opacity="0.75" />
			</g>
		</g>
		<g>
			<title> (FNGGOAEL_00912)
hypothetical protein</title>
			<polygon class=" (FNGGOAEL_00912)
hypothetical protein" points="116,10 143,40 116,70" fill="rgb(255,255,255)" fill-opacity="1.0" stroke="rgb(0,0,0)" stroke-width="2"  />
			<g>
				<title>GGDEF (PF00990)
"Diguanylate cyclase, GGDEF domain"</title>
				<polygon class="PF00990" points="127,28 127,28 139,40 127,52 127,52" stroke-linejoin="round" width="15" height="24" fill="rgb(62,170,199)" stroke="rgb(49,135,159)" stroke-width="1" opacity="0.75" />
			</g>
		</g>
		<g>
			<title> (FNGGOAEL_00913)
hypothetical protein</title>
			<polygon class=" (FNGGOAEL_00913)
hypothetical protein" points="147,40 170,10 170,70" fill="rgb(255,255,255)" fill-opacity="1.0" stroke="rgb(0,0,0)" stroke-width="2"  />
			<g>
				<title>DUF2154 (PF09922)
"Cell wall-active antibiotics response 4TMS YvqF"</title>
				<polygon class="PF09922" points="151,40 157,32 157,48" stroke-linejoin="round" width="10" height="24" fill="rgb(190,73,196)" stroke="rgb(152,58,156)" stroke-width="1" opacity="0.75" />
			</g>
			<g>
				<title>Toast_rack_N (PF17115)
"N-terminal domain of toast_rack, DUF2154"</title>
				<polygon class="PF17115" points="157,32 160,28 165,28 165,52 160,52 157,48" stroke-linejoin="round" width="8" height="24" fill="rgb(194,78,58)" stroke="rgb(155,62,46)" stroke-width="1" opacity="0.75" />
			</g>
		</g>
		<g>
			<title>ectC (FNGGOAEL_00914)
L-ectoine synthase</title>
			<polygon class="ectC (FNGGOAEL_00914)
L-ectoine synthase" points="176,10 188,40 176,70" fill="rgb(255,255,255)" fill-opacity="1.0" stroke="rgb(0,0,0)" stroke-width="2"  />
			<g>
				<title>Ectoine_synth (PF06339)
"Ectoine synthase"</title>
				<polygon class="PF06339" points="176,28 180,28 185,40 180,52 176,52" stroke-linejoin="round" width="12" height="24" fill="rgb(225,176,81)" stroke="rgb(180,140,64)" stroke-width="1" opacity="0.75" />
			</g>
		</g>
		<g>
			<title> (FNGGOAEL_00915)
hypothetical protein</title>
			<polygon class=" (FNGGOAEL_00915)
hypothetical protein" points="192,10 200,40 192,70" fill="rgb(255,255,255)" fill-opacity="1.0" stroke="rgb(0,0,0)" stroke-width="2"  />
		</g>
		<g>
			<title> (FNGGOAEL_00916)
hypothetical protein</title>
			<polygon class=" (FNGGOAEL_00916)
hypothetical protein" points="204,10 212,40 204,70" fill="rgb(255,255,255)" fill-opacity="1.0" stroke="rgb(0,0,0)" stroke-width="2"  />
		</g>
		<g>
			<title> (FNGGOAEL_00917)
hypothetical protein</title>
			<polygon class=" (FNGGOAEL_00917)
hypothetical protein" points="213,10 228,40 213,70" fill="rgb(255,255,255)" fill-opacity="1.0" stroke="rgb(0,0,0)" stroke-width="2"  />
		</g>
		<g>
			<title> (FNGGOAEL_00918)
hypothetical protein</title>
			<polygon class=" (FNGGOAEL_00918)
hypothetical protein" points="228,10 235,40 228,70" fill="rgb(255,255,255)" fill-opacity="1.0" stroke="rgb(0,0,0)" stroke-width="2"  />
		</g>
		<g>
			<title> (FNGGOAEL_00919)
hypothetical protein</title>
			<polygon class=" (FNGGOAEL_00919)
hypothetical protein" points="236,40 255,10 255,70" fill="rgb(255,255,255)" fill-opacity="1.0" stroke="rgb(0,0,0)" stroke-width="2"  />
		</g>
		<g>
			<title> (FNGGOAEL_00920)
hypothetical protein</title>
			<polygon class=" (FNGGOAEL_00920)
hypothetical protein" points="263,25 263,25 263,10 293,40 263,70 263,55 263,55" fill="rgb(255,255,255)" fill-opacity="1.0" stroke="rgb(0,0,0)" stroke-width="2"  />
		</g>
		<g>
			<title> (FNGGOAEL_00921)
hypothetical protein</title>
			<polygon class=" (FNGGOAEL_00921)
hypothetical protein" points="293,10 311,40 293,70" fill="rgb(255,255,255)" fill-opacity="1.0" stroke="rgb(0,0,0)" stroke-width="2"  />
		</g>
		<g>
			<title> (FNGGOAEL_00922)
hypothetical protein</title>
			<polygon class=" (FNGGOAEL_00922)
hypothetical protein" points="313,40 323,10 323,70" fill="rgb(255,255,255)" fill-opacity="1.0" stroke="rgb(0,0,0)" stroke-width="2"  />
		</g>
	</g>
</svg>
