<svg version="1.1" baseProfile="full" xmlns="http://www.w3.org/2000/svg" width="715.5" height="80">
	<g>
		<line x1="10" y1="40.0" x2="705.5" y2="40.0" style="stroke:rgb(70,70,70); stroke-width:3 "/>
		<g>
			<title> (ILGKOEJG_00426)
hypothetical protein</title>
			<polygon class=" (ILGKOEJG_00426)
hypothetical protein" points="48,25 40,25 40,10 10,40 40,70 40,55 48,55" fill="rgb(255,255,255)" fill-opacity="1.0" stroke="rgb(0,0,0)" stroke-width="2"  />
			<g>
				<title>Glycos_transf_2 (PF00535)
"Glycosyl transferase family 2"</title>
				<rect class="PF00535" x="27" y="28" stroke-linejoin="round" width="17" height="24" fill="rgb(224,122,96)" stroke="rgb(179,97,76)" stroke-width="1" opacity="0.75" />
			</g>
		</g>
		<g>
			<title>glpQ_1 (ILGKOEJG_00427)
Glycerophosphodiester phosphodiesterase</title>
			<polygon class="glpQ_1 (ILGKOEJG_00427)
Glycerophosphodiester phosphodiesterase" points="48,40 73,10 73,70" fill="rgb(255,255,255)" fill-opacity="1.0" stroke="rgb(0,0,0)" stroke-width="2"  />
			<g>
				<title>GDPD (PF03009)
"Glycerophosphoryl diester phosphodiesterase family"</title>
				<polygon class="PF03009" points="52,40 62,28 71,28 71,52 62,52" stroke-linejoin="round" width="22" height="24" fill="rgb(196,119,93)" stroke="rgb(156,95,74)" stroke-width="1" opacity="0.75" />
			</g>
		</g>
		<g>
			<title>rocB (ILGKOEJG_00428)
Protein RocB</title>
			<polygon class="rocB (ILGKOEJG_00428)
Protein RocB" points="76,25 100,25 100,10 130,40 100,70 100,55 76,55" fill="rgb(255,255,255)" fill-opacity="1.0" stroke="rgb(0,0,0)" stroke-width="2"  />
			<g>
				<title>Peptidase_M20 (PF01546)
"Peptidase family M20/M25/M40"</title>
				<polygon class="PF01546" points="83,28 113,28 122,37 122,43 113,52 83,52" stroke-linejoin="round" width="39" height="24" fill="rgb(88,213,108)" stroke="rgb(70,170,86)" stroke-width="1" opacity="0.75" />
			</g>
		</g>
		<g>
			<title> (ILGKOEJG_00429)
hypothetical protein</title>
			<polygon class=" (ILGKOEJG_00429)
hypothetical protein" points="151,25 153,25 153,10 183,40 153,70 153,55 151,55" fill="rgb(255,255,255)" fill-opacity="1.0" stroke="rgb(0,0,0)" stroke-width="2"  />
			<g>
				<title>Lactamase_B (PF00753)
"Metallo-beta-lactamase superfamily"</title>
				<polygon class="PF00753" points="152,28 166,28 173,35 173,45 166,52 152,52" stroke-linejoin="round" width="21" height="24" fill="rgb(206,198,96)" stroke="rgb(164,158,76)" stroke-width="1" opacity="0.75" />
			</g>
		</g>
		<g>
			<title> (ILGKOEJG_00430)
putative oxidoreductase</title>
			<polygon class=" (ILGKOEJG_00430)
putative oxidoreductase" points="183,10 209,40 183,70" fill="rgb(255,255,255)" fill-opacity="1.0" stroke="rgb(0,0,0)" stroke-width="2"  />
			<g>
				<title>adh_short (PF00106)
"short chain dehydrogenase"</title>
				<polygon class="PF00106" points="183,28 194,28 202,37 202,43 194,52 183,52" stroke-linejoin="round" width="19" height="24" fill="rgb(182,219,73)" stroke="rgb(145,175,58)" stroke-width="1" opacity="0.75" />
			</g>
		</g>
		<g>
			<title>umuC (ILGKOEJG_00431)
Protein UmuC</title>
			<polygon class="umuC (ILGKOEJG_00431)
Protein UmuC" points="214,25 226,25 226,10 256,40 226,70 226,55 214,55" fill="rgb(255,255,255)" fill-opacity="1.0" stroke="rgb(0,0,0)" stroke-width="2"  />
			<g>
				<title>IMS (PF00817)
"impB/mucB/samB family"</title>
				<rect class="PF00817" x="215" y="28" stroke-linejoin="round" width="15" height="24" fill="rgb(187,207,75)" stroke="rgb(149,165,60)" stroke-width="1" opacity="0.75" />
			</g>
			<g>
				<title>IMS_HHH (PF11798)
"IMS family HHH motif"</title>
				<rect class="PF11798" x="232" y="28" stroke-linejoin="round" width="3" height="24" fill="rgb(81,199,189)" stroke="rgb(64,159,151)" stroke-width="1" opacity="0.75" />
			</g>
			<g>
				<title>IMS_C (PF11799)
"impB/mucB/samB family C-terminal domain"</title>
				<polygon class="PF11799" points="239,28 240,28 250,38 250,42 240,52 239,52" stroke-linejoin="round" width="11" height="24" fill="rgb(68,195,187)" stroke="rgb(54,156,149)" stroke-width="1" opacity="0.75" />
			</g>
		</g>
		<g>
			<title> (ILGKOEJG_00432)
hypothetical protein</title>
			<polygon class=" (ILGKOEJG_00432)
hypothetical protein" points="259,10 270,40 259,70" fill="rgb(255,255,255)" fill-opacity="1.0" stroke="rgb(0,0,0)" stroke-width="2"  />
			<g>
				<title>Fe-S_biosyn (PF01521)
"Iron-sulphur cluster biosynthesis"</title>
				<polygon class="PF01521" points="259,28 262,28 266,40 262,52 259,52" stroke-linejoin="round" width="10" height="24" fill="rgb(179,60,127)" stroke="rgb(143,47,101)" stroke-width="1" opacity="0.75" />
			</g>
		</g>
		<g>
			<title> (ILGKOEJG_00433)
hypothetical protein</title>
			<polygon class=" (ILGKOEJG_00433)
hypothetical protein" points="270,10 277,40 270,70" fill="rgb(255,255,255)" fill-opacity="1.0" stroke="rgb(0,0,0)" stroke-width="2"  />
			<g>
				<title>DUF3886 (PF13025)
"Protein of unknown function (DUF3886)"</title>
				<polygon class="PF13025" points="270,28 270,28 274,40 270,52 270,52" stroke-linejoin="round" width="6" height="24" fill="rgb(218,105,228)" stroke="rgb(174,84,182)" stroke-width="1" opacity="0.75" />
			</g>
		</g>
		<g>
			<title> (ILGKOEJG_00434)
hypothetical protein</title>
			<polygon class=" (ILGKOEJG_00434)
hypothetical protein" points="315,25 309,25 309,10 279,40 309,70 309,55 315,55" fill="rgb(255,255,255)" fill-opacity="1.0" stroke="rgb(0,0,0)" stroke-width="2"  />
			<g>
				<title>DUF2515 (PF10720)
"Protein of unknown function (DUF2515)"</title>
				<polygon class="PF10720" points="283,40 295,28 311,28 311,52 295,52" stroke-linejoin="round" width="32" height="24" fill="rgb(66,168,216)" stroke="rgb(52,134,172)" stroke-width="1" opacity="0.75" />
			</g>
		</g>
		<g>
			<title>sqhC (ILGKOEJG_00435)
Sporulenol synthase</title>
			<polygon class="sqhC (ILGKOEJG_00435)
Sporulenol synthase" points="318,25 350,25 350,10 380,40 350,70 350,55 318,55" fill="rgb(255,255,255)" fill-opacity="1.0" stroke="rgb(0,0,0)" stroke-width="2"  />
			<g>
				<title>SQHop_cyclase_N (PF13249)
"Squalene-hopene cyclase N-terminal domain"</title>
				<rect class="PF13249" x="318" y="28" stroke-linejoin="round" width="28" height="24" fill="rgb(88,190,89)" stroke="rgb(70,152,71)" stroke-width="1" opacity="0.75" />
			</g>
			<g>
				<title>SQHop_cyclase_C (PF13243)
"Squalene-hopene cyclase C-terminal domain"</title>
				<polygon class="PF13243" points="348,28 364,28 376,40 364,52 348,52" stroke-linejoin="round" width="31" height="24" fill="rgb(191,58,201)" stroke="rgb(152,46,160)" stroke-width="1" opacity="0.75" />
			</g>
		</g>
		<g>
			<title>pfyP_1 (ILGKOEJG_00436)
Blue-light photoreceptor</title>
			<polygon class="pfyP_1 (ILGKOEJG_00436)
Blue-light photoreceptor" points="384,10 408,40 384,70" fill="rgb(255,255,255)" fill-opacity="1.0" stroke="rgb(0,0,0)" stroke-width="2"  />
			<g>
				<title>PAS_4 (PF08448)
"PAS fold"</title>
				<rect class="PF08448" x="385" y="28" stroke-linejoin="round" width="10" height="24" fill="rgb(50,90,192)" stroke="rgb(40,71,153)" stroke-width="1" opacity="0.75" />
			</g>
		</g>
		<g>
			<title>pbpE (ILGKOEJG_00437)
Penicillin-binding protein 4*</title>
			<polygon class="pbpE (ILGKOEJG_00437)
Penicillin-binding protein 4*" points="412,25 416,25 416,10 446,40 416,70 416,55 412,55" fill="rgb(255,255,255)" fill-opacity="1.0" stroke="rgb(0,0,0)" stroke-width="2"  />
			<g>
				<title>Beta-lactamase (PF00144)
"Beta-lactamase"</title>
				<polygon class="PF00144" points="413,28 430,28 442,40 430,52 413,52" stroke-linejoin="round" width="32" height="24" fill="rgb(92,159,200)" stroke="rgb(73,127,160)" stroke-width="1" opacity="0.75" />
			</g>
		</g>
		<g>
			<title> (ILGKOEJG_00438)
hypothetical protein</title>
			<polygon class=" (ILGKOEJG_00438)
hypothetical protein" points="447,10 472,40 447,70" fill="rgb(255,255,255)" fill-opacity="1.0" stroke="rgb(0,0,0)" stroke-width="2"  />
			<g>
				<title>Methyltransf_11 (PF08241)
"Methyltransferase domain"</title>
				<polygon class="PF08241" points="453,28 458,28 462,33 462,47 458,52 453,52" stroke-linejoin="round" width="9" height="24" fill="rgb(106,219,159)" stroke="rgb(84,175,127)" stroke-width="1" opacity="0.75" />
			</g>
		</g>
		<g>
			<title> (ILGKOEJG_00439)
hypothetical protein</title>
			<polygon class=" (ILGKOEJG_00439)
hypothetical protein" points="474,10 495,40 474,70" fill="rgb(255,255,255)" fill-opacity="1.0" stroke="rgb(0,0,0)" stroke-width="2"  />
		</g>
		<g>
			<title> (ILGKOEJG_00440)
hypothetical protein</title>
			<polygon class=" (ILGKOEJG_00440)
hypothetical protein" points="500,10 524,40 500,70" fill="rgb(255,255,255)" fill-opacity="1.0" stroke="rgb(0,0,0)" stroke-width="2"  />
			<g>
				<title>Metallophos_2 (PF12850)
"Calcineurin-like phosphoesterase superfamily domain"</title>
				<polygon class="PF12850" points="500,28 511,28 520,40 520,40 511,52 500,52" stroke-linejoin="round" width="20" height="24" fill="rgb(143,76,212)" stroke="rgb(114,60,169)" stroke-width="1" opacity="0.75" />
			</g>
		</g>
		<g>
			<title> (ILGKOEJG_00441)
hypothetical protein</title>
			<polygon class=" (ILGKOEJG_00441)
hypothetical protein" points="533,10 544,40 533,70" fill="rgb(255,255,255)" fill-opacity="1.0" stroke="rgb(0,0,0)" stroke-width="2"  />
		</g>
		<g>
			<title> (ILGKOEJG_00442)
hypothetical protein</title>
			<polygon class=" (ILGKOEJG_00442)
hypothetical protein" points="543,10 548,40 543,70" fill="rgb(255,255,255)" fill-opacity="1.0" stroke="rgb(0,0,0)" stroke-width="2"  />
		</g>
		<g>
			<title> (ILGKOEJG_00443)
hypothetical protein</title>
			<polygon class=" (ILGKOEJG_00443)
hypothetical protein" points="551,10 556,40 551,70" fill="rgb(255,255,255)" fill-opacity="1.0" stroke="rgb(0,0,0)" stroke-width="2"  />
		</g>
		<g>
			<title> (ILGKOEJG_00444)
hypothetical protein</title>
			<polygon class=" (ILGKOEJG_00444)
hypothetical protein" points="559,10 562,40 559,70" fill="rgb(255,255,255)" fill-opacity="1.0" stroke="rgb(0,0,0)" stroke-width="2"  />
		</g>
		<g>
			<title> (ILGKOEJG_00445)
hypothetical protein</title>
			<polygon class=" (ILGKOEJG_00445)
hypothetical protein" points="568,10 576,40 568,70" fill="rgb(255,255,255)" fill-opacity="1.0" stroke="rgb(0,0,0)" stroke-width="2"  />
		</g>
		<g>
			<title> (ILGKOEJG_00446)
hypothetical protein</title>
			<polygon class=" (ILGKOEJG_00446)
hypothetical protein" points="585,10 614,40 585,70" fill="rgb(255,255,255)" fill-opacity="1.0" stroke="rgb(0,0,0)" stroke-width="2"  />
		</g>
		<g>
			<title>mntD (ILGKOEJG_00447)
Manganese transport system membrane protein MntD</title>
			<polygon class="mntD (ILGKOEJG_00447)
Manganese transport system membrane protein MntD" points="650,25 650,25 650,10 620,40 650,70 650,55 650,55" fill="rgb(255,255,255)" fill-opacity="1.0" stroke="rgb(0,0,0)" stroke-width="2"  />
			<g>
				<title>ABC-3 (PF00950)
"ABC 3 transport family"</title>
				<polygon class="PF00950" points="624,40 636,28 649,28 649,52 636,52" stroke-linejoin="round" width="27" height="24" fill="rgb(190,102,215)" stroke="rgb(152,81,172)" stroke-width="1" opacity="0.75" />
			</g>
		</g>
		<g>
			<title>mntC (ILGKOEJG_00448)
Manganese transport system membrane protein MntC</title>
			<polygon class="mntC (ILGKOEJG_00448)
Manganese transport system membrane protein MntC" points="650,40 679,10 679,70" fill="rgb(255,255,255)" fill-opacity="1.0" stroke="rgb(0,0,0)" stroke-width="2"  />
			<g>
				<title>ABC-3 (PF00950)
"ABC 3 transport family"</title>
				<polygon class="PF00950" points="654,40 666,28 677,28 677,52 666,52" stroke-linejoin="round" width="26" height="24" fill="rgb(190,102,215)" stroke="rgb(152,81,172)" stroke-width="1" opacity="0.75" />
			</g>
		</g>
		<g>
			<title>mntB_1 (ILGKOEJG_00449)
Manganese transport system ATP-binding protein MntB</title>
			<polygon class="mntB_1 (ILGKOEJG_00449)
Manganese transport system ATP-binding protein MntB" points="680,40 705,10 705,70" fill="rgb(255,255,255)" fill-opacity="1.0" stroke="rgb(0,0,0)" stroke-width="2"  />
			<g>
				<title>ABC_tran (PF00005)
"ABC transporter"</title>
				<polygon class="PF00005" points="688,35 694,28 702,28 702,52 694,52 688,45" stroke-linejoin="round" width="14" height="24" fill="rgb(129,201,63)" stroke="rgb(103,160,50)" stroke-width="1" opacity="0.75" />
			</g>
		</g>
	</g>
</svg>
