<svg version="1.1" baseProfile="full" xmlns="http://www.w3.org/2000/svg" width="1389.4333333333334" height="80">
	<g>
		<line x1="10" y1="40.0" x2="1379.4333333333334" y2="40.0" style="stroke:rgb(70,70,70); stroke-width:3 "/>
		<g>
			<title> (LKFIHALF_00554)
hypothetical protein</title>
			<polygon class=" (LKFIHALF_00554)
hypothetical protein" points="61,40 67,10 67,70" fill="rgb(255,255,255)" fill-opacity="1.0" stroke="rgb(0,0,0)" stroke-width="2"  />
		</g>
		<g>
			<title>mhqD (LKFIHALF_00555)
Putative hydrolase MhqD</title>
			<polygon class="mhqD (LKFIHALF_00555)
Putative hydrolase MhqD" points="70,40 90,10 90,70" fill="rgb(255,255,255)" fill-opacity="1.0" stroke="rgb(0,0,0)" stroke-width="2"  />
			<g>
				<title>Abhydrolase_2 (PF02230)
"Phospholipase/Carboxylesterase"</title>
				<polygon class="PF02230" points="74,40 82,28 89,28 89,52 82,52" stroke-linejoin="round" width="19" height="24" fill="rgb(165,184,75)" stroke="rgb(132,147,60)" stroke-width="1" opacity="0.75" />
			</g>
		</g>
		<g>
			<title> (LKFIHALF_00556)
hypothetical protein</title>
			<polygon class=" (LKFIHALF_00556)
hypothetical protein" points="94,40 113,10 113,70" fill="rgb(255,255,255)" fill-opacity="1.0" stroke="rgb(0,0,0)" stroke-width="2"  />
			<g>
				<title>TetR_N (PF00440)
"Bacterial regulatory proteins, tetR family"</title>
				<rect class="PF00440" x="107" y="28" stroke-linejoin="round" width="4" height="24" fill="rgb(73,212,190)" stroke="rgb(58,169,152)" stroke-width="1" opacity="0.75" />
			</g>
		</g>
		<g>
			<title>msrB_2 (LKFIHALF_00557)
Peptide methionine sulfoxide reductase MsrB</title>
			<polygon class="msrB_2 (LKFIHALF_00557)
Peptide methionine sulfoxide reductase MsrB" points="148,25 146,25 146,10 116,40 146,70 146,55 148,55" fill="rgb(255,255,255)" fill-opacity="1.0" stroke="rgb(0,0,0)" stroke-width="2"  />
			<g>
				<title>SelR (PF01641)
"SelR domain"</title>
				<polygon class="PF01641" points="120,40 129,31 129,49" stroke-linejoin="round" width="12" height="24" fill="rgb(192,99,202)" stroke="rgb(153,79,161)" stroke-width="1" opacity="0.75" />
			</g>
			<g>
				<title>PMSR (PF01625)
"Peptide methionine sulfoxide reductase"</title>
				<polygon class="PF01625" points="132,28 132,28 147,28 147,52 132,52 132,52" stroke-linejoin="round" width="15" height="24" fill="rgb(201,74,176)" stroke="rgb(160,59,140)" stroke-width="1" opacity="0.75" />
			</g>
		</g>
		<g>
			<title> (LKFIHALF_00558)
hypothetical protein</title>
			<polygon class=" (LKFIHALF_00558)
hypothetical protein" points="151,40 170,10 170,70" fill="rgb(255,255,255)" fill-opacity="1.0" stroke="rgb(0,0,0)" stroke-width="2"  />
			<g>
				<title>YqfQ (PF14181)
"YqfQ-like protein"</title>
				<polygon class="PF14181" points="155,40 163,28 170,28 170,52 163,52" stroke-linejoin="round" width="19" height="24" fill="rgb(207,119,57)" stroke="rgb(165,95,45)" stroke-width="1" opacity="0.75" />
			</g>
		</g>
		<g>
			<title>ung (LKFIHALF_00559)
Uracil-DNA glycosylase</title>
			<polygon class="ung (LKFIHALF_00559)
Uracil-DNA glycosylase" points="173,40 195,10 195,70" fill="rgb(255,255,255)" fill-opacity="1.0" stroke="rgb(0,0,0)" stroke-width="2"  />
			<g>
				<title>UDG (PF03167)
"Uracil DNA glycosylase superfamily"</title>
				<polygon class="PF03167" points="177,40 186,28 190,28 190,52 186,52" stroke-linejoin="round" width="16" height="24" fill="rgb(64,224,60)" stroke="rgb(51,179,48)" stroke-width="1" opacity="0.75" />
			</g>
		</g>
		<g>
			<title> (LKFIHALF_00560)
hypothetical protein</title>
			<polygon class=" (LKFIHALF_00560)
hypothetical protein" points="305,25 232,25 232,10 202,40 232,70 232,55 305,55" fill="rgb(255,255,255)" fill-opacity="1.0" stroke="rgb(0,0,0)" stroke-width="2"  />
			<g>
				<title>SbcCD_C (PF13558)
"Putative exonuclease SbcCD, C subunit"</title>
				<polygon class="PF13558" points="206,40 214,32 214,48 206,40" stroke-linejoin="round" width="8" height="24" fill="rgb(84,179,84)" stroke="rgb(67,143,67)" stroke-width="1" opacity="0.75" />
			</g>
			<g>
				<title>AAA_23 (PF13476)
"AAA domain"</title>
				<rect class="PF13476" x="281" y="28" stroke-linejoin="round" width="24" height="24" fill="rgb(57,185,214)" stroke="rgb(45,147,171)" stroke-width="1" opacity="0.75" />
			</g>
		</g>
		<g>
			<title>sbcD (LKFIHALF_00561)
Nuclease SbcCD subunit D</title>
			<polygon class="sbcD (LKFIHALF_00561)
Nuclease SbcCD subunit D" points="344,25 336,25 336,10 306,40 336,70 336,55 344,55" fill="rgb(255,255,255)" fill-opacity="1.0" stroke="rgb(0,0,0)" stroke-width="2"  />
			<g>
				<title>SbcD_C (PF12320)
"Type 5 capsule protein repressor C-terminal domain"</title>
				<polygon class="PF12320" points="310,40 317,33 317,47" stroke-linejoin="round" width="9" height="24" fill="rgb(182,136,65)" stroke="rgb(145,108,52)" stroke-width="1" opacity="0.75" />
			</g>
			<g>
				<title>Metallophos (PF00149)
"Calcineurin-like phosphoesterase"</title>
				<polygon class="PF00149" points="322,28 322,28 343,28 343,52 322,52 322,52" stroke-linejoin="round" width="21" height="24" fill="rgb(181,197,58)" stroke="rgb(144,157,46)" stroke-width="1" opacity="0.75" />
			</g>
		</g>
		<g>
			<title> (LKFIHALF_00562)
hypothetical protein</title>
			<polygon class=" (LKFIHALF_00562)
hypothetical protein" points="344,40 351,10 351,70" fill="rgb(255,255,255)" fill-opacity="1.0" stroke="rgb(0,0,0)" stroke-width="2"  />
			<g>
				<title>YozE_SAM_like (PF06855)
"YozE SAM-like fold"</title>
				<polygon class="PF06855" points="347,40 350,28 350,28 350,52 350,52" stroke-linejoin="round" width="6" height="24" fill="rgb(83,201,171)" stroke="rgb(66,160,136)" stroke-width="1" opacity="0.75" />
			</g>
		</g>
		<g>
			<title>tatC1 (LKFIHALF_00563)
Sec-independent protein translocase protein TatCd</title>
			<polygon class="tatC1 (LKFIHALF_00563)
Sec-independent protein translocase protein TatCd" points="355,40 382,10 382,70" fill="rgb(255,255,255)" fill-opacity="1.0" stroke="rgb(0,0,0)" stroke-width="2"  />
			<g>
				<title>TatC (PF00902)
"Sec-independent protein translocase protein (TatC)"</title>
				<polygon class="PF00902" points="359,40 370,28 378,28 378,52 370,52" stroke-linejoin="round" width="20" height="24" fill="rgb(84,193,209)" stroke="rgb(67,154,167)" stroke-width="1" opacity="0.75" />
			</g>
		</g>
		<g>
			<title>tatAd_1 (LKFIHALF_00564)
Sec-independent protein translocase protein TatAd</title>
			<polygon class="tatAd_1 (LKFIHALF_00564)
Sec-independent protein translocase protein TatAd" points="383,40 389,10 389,70" fill="rgb(255,255,255)" fill-opacity="1.0" stroke="rgb(0,0,0)" stroke-width="2"  />
			<g>
				<title>MttA_Hcf106 (PF02416)
"mttA/Hcf106 family"</title>
				<polygon class="PF02416" points="386,40 388,30 388,50" stroke-linejoin="round" width="5" height="24" fill="rgb(74,206,98)" stroke="rgb(59,164,78)" stroke-width="1" opacity="0.75" />
			</g>
		</g>
		<g>
			<title>tatAd_2 (LKFIHALF_00565)
Sec-independent protein translocase protein TatAd</title>
			<polygon class="tatAd_2 (LKFIHALF_00565)
Sec-independent protein translocase protein TatAd" points="391,40 396,10 396,70" fill="rgb(255,255,255)" fill-opacity="1.0" stroke="rgb(0,0,0)" stroke-width="2"  />
			<g>
				<title>MttA_Hcf106 (PF02416)
"mttA/Hcf106 family"</title>
				<polygon class="PF02416" points="394,40 396,28 396,28 396,52 396,52" stroke-linejoin="round" width="5" height="24" fill="rgb(74,206,98)" stroke="rgb(59,164,78)" stroke-width="1" opacity="0.75" />
			</g>
		</g>
		<g>
			<title>mobA (LKFIHALF_00566)
Molybdenum cofactor guanylyltransferase</title>
			<polygon class="mobA (LKFIHALF_00566)
Molybdenum cofactor guanylyltransferase" points="400,40 418,10 418,70" fill="rgb(255,255,255)" fill-opacity="1.0" stroke="rgb(0,0,0)" stroke-width="2"  />
			<g>
				<title>NTP_transf_3 (PF12804)
"MobA-like NTP transferase domain"</title>
				<polygon class="PF12804" points="404,40 412,28 418,28 418,52 412,52 404,40" stroke-linejoin="round" width="14" height="24" fill="rgb(52,209,196)" stroke="rgb(41,167,156)" stroke-width="1" opacity="0.75" />
			</g>
		</g>
		<g>
			<title> (LKFIHALF_00567)
IS1595 family transposase ISSsu9</title>
			<polygon class=" (LKFIHALF_00567)
IS1595 family transposase ISSsu9" points="420,40 436,10 436,70" fill="rgb(255,255,255)" fill-opacity="1.0" stroke="rgb(0,0,0)" stroke-width="2"  />
			<g>
				<title>DHFR_1 (PF00186)
"Dihydrofolate reductase"</title>
				<polygon class="PF00186" points="423,40 430,28 436,28 436,52 430,52" stroke-linejoin="round" width="16" height="24" fill="rgb(150,188,63)" stroke="rgb(119,150,50)" stroke-width="1" opacity="0.75" />
			</g>
		</g>
		<g>
			<title>thyA (LKFIHALF_00568)
Thymidylate synthase</title>
			<polygon class="thyA (LKFIHALF_00568)
Thymidylate synthase" points="470,25 468,25 468,10 438,40 468,70 468,55 470,55" fill="rgb(255,255,255)" fill-opacity="1.0" stroke="rgb(0,0,0)" stroke-width="2"  />
			<g>
				<title>Thymidylat_synt (PF00303)
"Thymidylate synthase"</title>
				<polygon class="PF00303" points="442,40 454,28 469,28 469,52 454,52" stroke-linejoin="round" width="31" height="24" fill="rgb(103,91,191)" stroke="rgb(82,72,152)" stroke-width="1" opacity="0.75" />
			</g>
		</g>
		<g>
			<title>yedJ (LKFIHALF_00569)
putative protein YedJ</title>
			<polygon class="yedJ (LKFIHALF_00569)
putative protein YedJ" points="469,40 489,10 489,70" fill="rgb(255,255,255)" fill-opacity="1.0" stroke="rgb(0,0,0)" stroke-width="2"  />
			<g>
				<title>HD (PF01966)
"HD domain"</title>
				<polygon class="PF01966" points="477,34 481,28 486,28 486,52 481,52 477,46" stroke-linejoin="round" width="9" height="24" fill="rgb(92,193,119)" stroke="rgb(73,154,95)" stroke-width="1" opacity="0.75" />
			</g>
		</g>
		<g>
			<title> (LKFIHALF_00570)
hypothetical protein</title>
			<polygon class=" (LKFIHALF_00570)
hypothetical protein" points="491,40 519,10 519,70" fill="rgb(255,255,255)" fill-opacity="1.0" stroke="rgb(0,0,0)" stroke-width="2"  />
			<g>
				<title>DUF72 (PF01904)
"Protein of unknown function DUF72"</title>
				<polygon class="PF01904" points="495,40 506,28 516,28 516,52 506,52" stroke-linejoin="round" width="24" height="24" fill="rgb(63,151,204)" stroke="rgb(50,120,163)" stroke-width="1" opacity="0.75" />
			</g>
		</g>
		<g>
			<title>fhs (LKFIHALF_00571)
Formate--tetrahydrofolate ligase</title>
			<polygon class="fhs (LKFIHALF_00571)
Formate--tetrahydrofolate ligase" points="576,25 551,25 551,10 521,40 551,70 551,55 576,55" fill="rgb(255,255,255)" fill-opacity="1.0" stroke="rgb(0,0,0)" stroke-width="2"  />
			<g>
				<title>FTHFS (PF01268)
"Formate--tetrahydrofolate ligase"</title>
				<polygon class="PF01268" points="525,40 537,28 576,28 576,52 537,52" stroke-linejoin="round" width="55" height="24" fill="rgb(215,182,81)" stroke="rgb(172,145,64)" stroke-width="1" opacity="0.75" />
			</g>
		</g>
		<g>
			<title>cspA_2 (LKFIHALF_00572)
Cold shock protein CspA</title>
			<polygon class="cspA_2 (LKFIHALF_00572)
Cold shock protein CspA" points="587,10 593,40 587,70" fill="rgb(255,255,255)" fill-opacity="1.0" stroke="rgb(0,0,0)" stroke-width="2"  />
			<g>
				<title>CSD (PF00313)
"'Cold-shock' DNA-binding domain"</title>
				<polygon class="PF00313" points="587,28 587,28 590,40 587,52 587,52" stroke-linejoin="round" width="6" height="24" fill="rgb(87,72,181)" stroke="rgb(69,57,144)" stroke-width="1" opacity="0.75" />
			</g>
		</g>
		<g>
			<title> (LKFIHALF_00573)
queuosine precursor transporter</title>
			<polygon class=" (LKFIHALF_00573)
queuosine precursor transporter" points="599,10 621,40 599,70" fill="rgb(255,255,255)" fill-opacity="1.0" stroke="rgb(0,0,0)" stroke-width="2"  />
			<g>
				<title>Vut_1 (PF02592)
"Putative vitamin uptake transporter"</title>
				<polygon class="PF02592" points="604,28 609,28 617,40 609,52 604,52" stroke-linejoin="round" width="16" height="24" fill="rgb(93,184,75)" stroke="rgb(74,147,60)" stroke-width="1" opacity="0.75" />
			</g>
		</g>
		<g>
			<title>rnhA (LKFIHALF_00574)
14.7 kDa ribonuclease H-like protein</title>
			<polygon class="rnhA (LKFIHALF_00574)
14.7 kDa ribonuclease H-like protein" points="622,10 635,40 622,70" fill="rgb(255,255,255)" fill-opacity="1.0" stroke="rgb(0,0,0)" stroke-width="2"  />
			<g>
				<title>RVT_3 (PF13456)
"Reverse transcriptase-like"</title>
				<polygon class="PF13456" points="622,28 626,28 632,40 626,52 622,52" stroke-linejoin="round" width="12" height="24" fill="rgb(198,123,86)" stroke="rgb(158,98,68)" stroke-width="1" opacity="0.75" />
			</g>
		</g>
		<g>
			<title> (LKFIHALF_00575)
hypothetical protein</title>
			<polygon class=" (LKFIHALF_00575)
hypothetical protein" points="636,40 645,10 645,70" fill="rgb(255,255,255)" fill-opacity="1.0" stroke="rgb(0,0,0)" stroke-width="2"  />
		</g>
		<g>
			<title> (LKFIHALF_00576)
hypothetical protein</title>
			<polygon class=" (LKFIHALF_00576)
hypothetical protein" points="650,40 656,10 656,70" fill="rgb(255,255,255)" fill-opacity="1.0" stroke="rgb(0,0,0)" stroke-width="2"  />
		</g>
		<g>
			<title> (LKFIHALF_00577)
hypothetical protein</title>
			<polygon class=" (LKFIHALF_00577)
hypothetical protein" points="659,40 676,10 676,70" fill="rgb(255,255,255)" fill-opacity="1.0" stroke="rgb(0,0,0)" stroke-width="2"  />
			<g>
				<title>ICMT (PF04140)
"Isoprenylcysteine carboxyl methyltransferase (ICMT) family"</title>
				<polygon class="PF04140" points="662,40 668,29 668,51" stroke-linejoin="round" width="9" height="24" fill="rgb(100,223,104)" stroke="rgb(80,178,83)" stroke-width="1" opacity="0.75" />
			</g>
		</g>
		<g>
			<title> (LKFIHALF_00578)
Alpha-pyrone synthesis polyketide synthase-like Pks11</title>
			<polygon class=" (LKFIHALF_00578)
Alpha-pyrone synthesis polyketide synthase-like Pks11" points="712,25 706,25 706,10 676,40 706,70 706,55 712,55" fill="rgb(255,255,255)" fill-opacity="1.0" stroke="rgb(0,0,0)" stroke-width="2"  />
			<g>
				<title>Chal_sti_synt_C (PF02797)
"Chalcone and stilbene synthases, C-terminal domain"</title>
				<polygon class="PF02797" points="680,40 690,30 690,50" stroke-linejoin="round" width="14" height="24" fill="rgb(139,212,63)" stroke="rgb(111,169,50)" stroke-width="1" opacity="0.75" />
			</g>
			<g>
				<title>Chal_sti_synt_N (PF00195)
"Chalcone and stilbene synthases, N-terminal domain"</title>
				<polygon class="PF00195" points="691,29 692,28 707,28 707,52 692,52 691,51" stroke-linejoin="round" width="16" height="24" fill="rgb(60,181,161)" stroke="rgb(47,144,128)" stroke-width="1" opacity="0.75" />
			</g>
		</g>
		<g>
			<title>gno_1 (LKFIHALF_00579)
Gluconate 5-dehydrogenase</title>
			<polygon class="gno_1 (LKFIHALF_00579)
Gluconate 5-dehydrogenase" points="718,40 743,10 743,70" fill="rgb(255,255,255)" fill-opacity="1.0" stroke="rgb(0,0,0)" stroke-width="2"  />
			<g>
				<title>adh_short_C2 (PF13561)
"Enoyl-(Acyl carrier protein) reductase"</title>
				<polygon class="PF13561" points="722,40 732,28 741,28 741,52 732,52" stroke-linejoin="round" width="23" height="24" fill="rgb(73,205,127)" stroke="rgb(58,164,101)" stroke-width="1" opacity="0.75" />
			</g>
		</g>
		<g>
			<title> (LKFIHALF_00580)
hypothetical protein</title>
			<polygon class=" (LKFIHALF_00580)
hypothetical protein" points="747,10 765,40 747,70" fill="rgb(255,255,255)" fill-opacity="1.0" stroke="rgb(0,0,0)" stroke-width="2"  />
		</g>
		<g>
			<title>ypwA (LKFIHALF_00581)
Carboxypeptidase 1</title>
			<polygon class="ypwA (LKFIHALF_00581)
Carboxypeptidase 1" points="817,25 797,25 797,10 767,40 797,70 797,55 817,55" fill="rgb(255,255,255)" fill-opacity="1.0" stroke="rgb(0,0,0)" stroke-width="2"  />
			<g>
				<title>Peptidase_M32 (PF02074)
"Carboxypeptidase Taq (M32) metallopeptidase"</title>
				<polygon class="PF02074" points="771,40 783,28 815,28 815,52 783,52" stroke-linejoin="round" width="48" height="24" fill="rgb(213,142,93)" stroke="rgb(170,113,74)" stroke-width="1" opacity="0.75" />
			</g>
		</g>
		<g>
			<title>rlmL (LKFIHALF_00582)
Ribosomal RNA large subunit methyltransferase L</title>
			<polygon class="rlmL (LKFIHALF_00582)
Ribosomal RNA large subunit methyltransferase L" points="877,25 869,25 869,10 839,40 869,70 869,55 877,55" fill="rgb(255,255,255)" fill-opacity="1.0" stroke="rgb(0,0,0)" stroke-width="2"  />
			<g>
				<title>UPF0020 (PF01170)
"Putative RNA methylase family UPF0020"</title>
				<polygon class="PF01170" points="843,40 855,28 860,28 860,52 855,52" stroke-linejoin="round" width="20" height="24" fill="rgb(89,182,69)" stroke="rgb(71,145,55)" stroke-width="1" opacity="0.75" />
			</g>
			<g>
				<title>THUMP (PF02926)
"THUMP domain"</title>
				<rect class="PF02926" x="861" y="28" stroke-linejoin="round" width="14" height="24" fill="rgb(52,209,163)" stroke="rgb(41,167,130)" stroke-width="1" opacity="0.75" />
			</g>
		</g>
		<g>
			<title>gpsB (LKFIHALF_00583)
Cell cycle protein GpsB</title>
			<polygon class="gpsB (LKFIHALF_00583)
Cell cycle protein GpsB" points="897,40 907,10 907,70" fill="rgb(255,255,255)" fill-opacity="1.0" stroke="rgb(0,0,0)" stroke-width="2"  />
			<g>
				<title>DivIVA (PF05103)
"DivIVA protein"</title>
				<polygon class="PF05103" points="900,40 904,28 906,28 906,52 904,52 900,40" stroke-linejoin="round" width="6" height="24" fill="rgb(213,106,117)" stroke="rgb(170,84,93)" stroke-width="1" opacity="0.75" />
			</g>
		</g>
		<g>
			<title> (LKFIHALF_00584)
hypothetical protein</title>
			<polygon class=" (LKFIHALF_00584)
hypothetical protein" points="910,40 928,10 928,70" fill="rgb(255,255,255)" fill-opacity="1.0" stroke="rgb(0,0,0)" stroke-width="2"  />
			<g>
				<title>YpsA (PF06908)
"YspA SLOG family"</title>
				<polygon class="PF06908" points="914,40 922,28 927,28 927,52 922,52" stroke-linejoin="round" width="16" height="24" fill="rgb(136,100,209)" stroke="rgb(108,80,167)" stroke-width="1" opacity="0.75" />
			</g>
		</g>
		<g>
			<title> (LKFIHALF_00585)
hypothetical protein</title>
			<polygon class=" (LKFIHALF_00585)
hypothetical protein" points="932,40 950,10 950,70" fill="rgb(255,255,255)" fill-opacity="1.0" stroke="rgb(0,0,0)" stroke-width="2"  />
			<g>
				<title>Spore-coat_CotD (PF11122)
"Inner spore coat protein D"</title>
				<polygon class="PF11122" points="937,37 942,28 947,28 947,52 942,52 937,43" stroke-linejoin="round" width="10" height="24" fill="rgb(221,153,69)" stroke="rgb(176,122,55)" stroke-width="1" opacity="0.75" />
			</g>
		</g>
		<g>
			<title>cdd (LKFIHALF_00586)
Cytidine deaminase</title>
			<polygon class="cdd (LKFIHALF_00586)
Cytidine deaminase" points="975,40 988,10 988,70" fill="rgb(255,255,255)" fill-opacity="1.0" stroke="rgb(0,0,0)" stroke-width="2"  />
			<g>
				<title>dCMP_cyt_deam_1 (PF00383)
"Cytidine and deoxycytidylate deaminase zinc-binding region"</title>
				<polygon class="PF00383" points="978,40 983,28 987,28 987,52 983,52" stroke-linejoin="round" width="10" height="24" fill="rgb(91,149,216)" stroke="rgb(72,119,172)" stroke-width="1" opacity="0.75" />
			</g>
		</g>
		<g>
			<title>ttgB (LKFIHALF_00587)
putative efflux pump membrane transporter TtgB</title>
			<polygon class="ttgB (LKFIHALF_00587)
putative efflux pump membrane transporter TtgB" points="994,25 1066,25 1066,10 1096,40 1066,70 1066,55 994,55" fill="rgb(255,255,255)" fill-opacity="1.0" stroke="rgb(0,0,0)" stroke-width="2"  />
			<g>
				<title>ACR_tran (PF00873)
"AcrB/AcrD/AcrF family"</title>
				<polygon class="PF00873" points="994,28 1079,28 1091,40 1079,52 994,52" stroke-linejoin="round" width="101" height="24" fill="rgb(63,191,60)" stroke="rgb(50,152,48)" stroke-width="1" opacity="0.75" />
			</g>
		</g>
		<g>
			<title> (LKFIHALF_00588)
hypothetical protein</title>
			<polygon class=" (LKFIHALF_00588)
hypothetical protein" points="1098,40 1110,10 1110,70" fill="rgb(255,255,255)" fill-opacity="1.0" stroke="rgb(0,0,0)" stroke-width="2"  />
			<g>
				<title>DUF1798 (PF08807)
"Bacterial domain of unknown function (DUF1798)"</title>
				<polygon class="PF08807" points="1101,40 1106,28 1108,28 1108,52 1106,52" stroke-linejoin="round" width="10" height="24" fill="rgb(153,201,81)" stroke="rgb(122,160,64)" stroke-width="1" opacity="0.75" />
			</g>
		</g>
		<g>
			<title>racA (LKFIHALF_00589)
Chromosome-anchoring protein RacA</title>
			<polygon class="racA (LKFIHALF_00589)
Chromosome-anchoring protein RacA" points="1112,40 1120,10 1120,70" fill="rgb(255,255,255)" fill-opacity="1.0" stroke="rgb(0,0,0)" stroke-width="2"  />
		</g>
		<g>
			<title>recU (LKFIHALF_00590)
Holliday junction resolvase RecU</title>
			<polygon class="recU (LKFIHALF_00590)
Holliday junction resolvase RecU" points="1137,10 1156,40 1137,70" fill="rgb(255,255,255)" fill-opacity="1.0" stroke="rgb(0,0,0)" stroke-width="2"  />
			<g>
				<title>RecU (PF03838)
"Recombination protein U"</title>
				<polygon class="PF03838" points="1139,28 1145,28 1153,40 1145,52 1139,52" stroke-linejoin="round" width="16" height="24" fill="rgb(93,204,83)" stroke="rgb(74,163,66)" stroke-width="1" opacity="0.75" />
			</g>
		</g>
		<g>
			<title>ponA (LKFIHALF_00591)
Penicillin-binding protein 1A/1B</title>
			<polygon class="ponA (LKFIHALF_00591)
Penicillin-binding protein 1A/1B" points="1158,25 1217,25 1217,10 1247,40 1217,70 1217,55 1158,55" fill="rgb(255,255,255)" fill-opacity="1.0" stroke="rgb(0,0,0)" stroke-width="2"  />
			<g>
				<title>Transgly (PF00912)
"Transglycosylase"</title>
				<rect class="PF00912" x="1165" y="28" stroke-linejoin="round" width="17" height="24" fill="rgb(172,107,216)" stroke="rgb(137,85,172)" stroke-width="1" opacity="0.75" />
			</g>
			<g>
				<title>Transpeptidase (PF00905)
"Penicillin binding protein transpeptidase domain"</title>
				<rect class="PF00905" x="1192" y="28" stroke-linejoin="round" width="27" height="24" fill="rgb(161,226,87)" stroke="rgb(128,180,69)" stroke-width="1" opacity="0.75" />
			</g>
			<g>
				<title>fn3 (PF00041)
"Fibronectin type III domain"</title>
				<polygon class="PF00041" points="1226,28 1231,28 1233,30 1233,50 1231,52 1226,52" stroke-linejoin="round" width="7" height="24" fill="rgb(203,70,135)" stroke="rgb(162,56,107)" stroke-width="1" opacity="0.75" />
			</g>
		</g>
		<g>
			<title>nth (LKFIHALF_00592)
Endonuclease III</title>
			<polygon class="nth (LKFIHALF_00592)
Endonuclease III" points="1248,40 1268,10 1268,70" fill="rgb(255,255,255)" fill-opacity="1.0" stroke="rgb(0,0,0)" stroke-width="2"  />
			<g>
				<title>EndIII_4Fe-2S (PF10576)
"Iron-sulfur binding domain of endonuclease III"</title>
				<polygon class="PF10576" points="1252,40 1250,43 1250,37" stroke-linejoin="round" width="1" height="24" fill="rgb(203,113,64)" stroke="rgb(162,90,51)" stroke-width="1" opacity="0.75" />
			</g>
			<g>
				<title>HhH-GPD (PF00730)
"HhH-GPD superfamily base excision DNA repair protein"</title>
				<polygon class="PF00730" points="1252,40 1260,28 1265,28 1265,52 1260,52 1252,40" stroke-linejoin="round" width="13" height="24" fill="rgb(190,78,115)" stroke="rgb(152,62,92)" stroke-width="1" opacity="0.75" />
			</g>
		</g>
		<g>
			<title>dnaD (LKFIHALF_00593)
DNA replication protein DnaD</title>
			<polygon class="dnaD (LKFIHALF_00593)
DNA replication protein DnaD" points="1271,40 1294,10 1294,70" fill="rgb(255,255,255)" fill-opacity="1.0" stroke="rgb(0,0,0)" stroke-width="2"  />
			<g>
				<title>DnaB_2 (PF07261)
"Replication initiation and membrane attachment"</title>
				<polygon class="PF07261" points="1275,40 1281,32 1281,48" stroke-linejoin="round" width="7" height="24" fill="rgb(136,193,85)" stroke="rgb(108,154,68)" stroke-width="1" opacity="0.75" />
			</g>
		</g>
		<g>
			<title>asnS (LKFIHALF_00594)
Asparagine--tRNA ligase</title>
			<polygon class="asnS (LKFIHALF_00594)
Asparagine--tRNA ligase" points="1340,25 1327,25 1327,10 1297,40 1327,70 1327,55 1340,55" fill="rgb(255,255,255)" fill-opacity="1.0" stroke="rgb(0,0,0)" stroke-width="2"  />
			<g>
				<title>tRNA-synt_2 (PF00152)
"tRNA synthetases class II (D, K and N)"</title>
				<polygon class="PF00152" points="1301,40 1313,28 1328,28 1328,52 1313,52" stroke-linejoin="round" width="31" height="24" fill="rgb(90,71,190)" stroke="rgb(72,56,152)" stroke-width="1" opacity="0.75" />
			</g>
			<g>
				<title>tRNA_anti-codon (PF01336)
"OB-fold nucleic acid binding domain"</title>
				<rect class="PF01336" x="1330" y="28" stroke-linejoin="round" width="7" height="24" fill="rgb(215,103,173)" stroke="rgb(172,82,138)" stroke-width="1" opacity="0.75" />
			</g>
		</g>
	</g>
</svg>
