<svg version="1.1" baseProfile="full" xmlns="http://www.w3.org/2000/svg" width="458.6" height="80">
	<g>
		<line x1="10" y1="40.0" x2="448.6" y2="40.0" style="stroke:rgb(70,70,70); stroke-width:3 "/>
		<g>
			<title>COQ3 (FCCODOLJ_00425)
Ubiquinone biosynthesis O-methyltransferase, mitochondrial</title>
			<polygon class="COQ3 (FCCODOLJ_00425)
Ubiquinone biosynthesis O-methyltransferase, mitochondrial" points="10,10 31,40 10,70" fill="rgb(255,255,255)" fill-opacity="1.0" stroke="rgb(0,0,0)" stroke-width="2"  />
			<g>
				<title>Methyltransf_11 (PF08241)
"Methyltransferase domain"</title>
				<polygon class="PF08241" points="14,28 19,28 23,33 23,47 19,52 14,52" stroke-linejoin="round" width="9" height="24" fill="rgb(106,219,159)" stroke="rgb(84,175,127)" stroke-width="1" opacity="0.75" />
			</g>
		</g>
		<g>
			<title>yqjY (FCCODOLJ_00426)
putative protein YqjY</title>
			<polygon class="yqjY (FCCODOLJ_00426)
putative protein YqjY" points="31,10 47,40 31,70" fill="rgb(255,255,255)" fill-opacity="1.0" stroke="rgb(0,0,0)" stroke-width="2"  />
			<g>
				<title>Acetyltransf_1 (PF00583)
"Acetyltransferase (GNAT) family"</title>
				<polygon class="PF00583" points="32,28 37,28 43,38 43,42 37,52 32,52" stroke-linejoin="round" width="11" height="24" fill="rgb(121,183,50)" stroke="rgb(96,146,39)" stroke-width="1" opacity="0.75" />
			</g>
		</g>
		<g>
			<title> (FCCODOLJ_00427)
hypothetical protein</title>
			<polygon class=" (FCCODOLJ_00427)
hypothetical protein" points="48,40 63,10 63,70" fill="rgb(255,255,255)" fill-opacity="1.0" stroke="rgb(0,0,0)" stroke-width="2"  />
			<g>
				<title>DMT_YdcZ (PF04657)
"Putative inner membrane exporter, YdcZ"</title>
				<polygon class="PF04657" points="51,40 57,28 62,28 62,52 57,52" stroke-linejoin="round" width="13" height="24" fill="rgb(63,139,178)" stroke="rgb(50,111,142)" stroke-width="1" opacity="0.75" />
			</g>
		</g>
		<g>
			<title> (FCCODOLJ_00428)
hypothetical protein</title>
			<polygon class=" (FCCODOLJ_00428)
hypothetical protein" points="64,40 78,10 78,70" fill="rgb(255,255,255)" fill-opacity="1.0" stroke="rgb(0,0,0)" stroke-width="2"  />
			<g>
				<title>DMT_YdcZ (PF04657)
"Putative inner membrane exporter, YdcZ"</title>
				<polygon class="PF04657" points="67,40 73,28 77,28 77,52 73,52" stroke-linejoin="round" width="13" height="24" fill="rgb(63,139,178)" stroke="rgb(50,111,142)" stroke-width="1" opacity="0.75" />
			</g>
		</g>
		<g>
			<title>arsR1 (FCCODOLJ_00429)
Arsenic resistance transcriptional regulator ArsR1</title>
			<polygon class="arsR1 (FCCODOLJ_00429)
Arsenic resistance transcriptional regulator ArsR1" points="81,40 91,10 91,70" fill="rgb(255,255,255)" fill-opacity="1.0" stroke="rgb(0,0,0)" stroke-width="2"  />
			<g>
				<title>HTH_20 (PF12840)
"Helix-turn-helix domain"</title>
				<polygon class="PF12840" points="84,40 88,28 90,28 90,52 88,52" stroke-linejoin="round" width="7" height="24" fill="rgb(157,225,93)" stroke="rgb(125,180,74)" stroke-width="1" opacity="0.75" />
			</g>
		</g>
		<g>
			<title> (FCCODOLJ_00430)
hypothetical protein</title>
			<polygon class=" (FCCODOLJ_00430)
hypothetical protein" points="96,10 107,40 96,70" fill="rgb(255,255,255)" fill-opacity="1.0" stroke="rgb(0,0,0)" stroke-width="2"  />
		</g>
		<g>
			<title> (FCCODOLJ_00431)
hypothetical protein</title>
			<polygon class=" (FCCODOLJ_00431)
hypothetical protein" points="110,10 117,40 110,70" fill="rgb(255,255,255)" fill-opacity="1.0" stroke="rgb(0,0,0)" stroke-width="2"  />
		</g>
		<g>
			<title> (FCCODOLJ_00432)
hypothetical protein</title>
			<polygon class=" (FCCODOLJ_00432)
hypothetical protein" points="119,40 125,10 125,70" fill="rgb(255,255,255)" fill-opacity="1.0" stroke="rgb(0,0,0)" stroke-width="2"  />
			<g>
				<title>YjzC (PF14168)
"YjzC-like protein"</title>
				<polygon class="PF14168" points="122,40 124,28 124,28 124,52 124,52" stroke-linejoin="round" width="5" height="24" fill="rgb(96,141,215)" stroke="rgb(76,112,172)" stroke-width="1" opacity="0.75" />
			</g>
		</g>
		<g>
			<title> (FCCODOLJ_00433)
hypothetical protein</title>
			<polygon class=" (FCCODOLJ_00433)
hypothetical protein" points="131,40 155,10 155,70" fill="rgb(255,255,255)" fill-opacity="1.0" stroke="rgb(0,0,0)" stroke-width="2"  />
			<g>
				<title>FhuF (PF06276)
"Ferric iron reductase FhuF-like transporter"</title>
				<polygon class="PF06276" points="135,40 145,28 149,28 149,52 145,52" stroke-linejoin="round" width="15" height="24" fill="rgb(76,151,221)" stroke="rgb(60,120,176)" stroke-width="1" opacity="0.75" />
			</g>
		</g>
		<g>
			<title>sbnF (FCCODOLJ_00434)
2-[(L-alanin-3-ylcarbamoyl)methyl]-3-(2- aminoethylcarbamoyl)-2-hydroxypropanoate synthase</title>
			<polygon class="sbnF (FCCODOLJ_00434)
2-[(L-alanin-3-ylcarbamoyl)methyl]-3-(2- aminoethylcarbamoyl)-2-hydroxypropanoate synthase" points="163,25 192,25 192,10 222,40 192,70 192,55 163,55" fill="rgb(255,255,255)" fill-opacity="1.0" stroke="rgb(0,0,0)" stroke-width="2"  />
			<g>
				<title>IucA_IucC (PF04183)
"IucA / IucC family"</title>
				<rect class="PF04183" x="177" y="28" stroke-linejoin="round" width="24" height="24" fill="rgb(221,104,121)" stroke="rgb(176,83,96)" stroke-width="1" opacity="0.75" />
			</g>
			<g>
				<title>FhuF (PF06276)
"Ferric iron reductase FhuF-like transporter"</title>
				<polygon class="PF06276" points="204,28 205,28 217,40 205,52 204,52" stroke-linejoin="round" width="16" height="24" fill="rgb(76,151,221)" stroke="rgb(60,120,176)" stroke-width="1" opacity="0.75" />
			</g>
		</g>
		<g>
			<title> (FCCODOLJ_00435)
hypothetical protein</title>
			<polygon class=" (FCCODOLJ_00435)
hypothetical protein" points="221,25 254,25 254,10 284,40 254,70 254,55 221,55" fill="rgb(255,255,255)" fill-opacity="1.0" stroke="rgb(0,0,0)" stroke-width="2"  />
			<g>
				<title>IucA_IucC (PF04183)
"IucA / IucC family"</title>
				<rect class="PF04183" x="241" y="28" stroke-linejoin="round" width="23" height="24" fill="rgb(221,104,121)" stroke="rgb(176,83,96)" stroke-width="1" opacity="0.75" />
			</g>
			<g>
				<title>FhuF (PF06276)
"Ferric iron reductase FhuF-like transporter"</title>
				<polygon class="PF06276" points="266,28 268,28 280,40 268,52 266,52" stroke-linejoin="round" width="16" height="24" fill="rgb(76,151,221)" stroke="rgb(60,120,176)" stroke-width="1" opacity="0.75" />
			</g>
		</g>
		<g>
			<title>sbnH (FCCODOLJ_00436)
2-[(L-alanin-3-ylcarbamoyl)methyl]-2- hydroxybutanedioate decarboxylase</title>
			<polygon class="sbnH (FCCODOLJ_00436)
2-[(L-alanin-3-ylcarbamoyl)methyl]-2- hydroxybutanedioate decarboxylase" points="285,25 295,25 295,10 325,40 295,70 295,55 285,55" fill="rgb(255,255,255)" fill-opacity="1.0" stroke="rgb(0,0,0)" stroke-width="2"  />
			<g>
				<title>Orn_Arg_deC_N (PF02784)
"Pyridoxal-dependent decarboxylase, pyridoxal binding domain"</title>
				<polygon class="PF02784" points="287,28 309,28 311,30 311,50 309,52 287,52" stroke-linejoin="round" width="24" height="24" fill="rgb(106,204,212)" stroke="rgb(84,163,169)" stroke-width="1" opacity="0.75" />
			</g>
		</g>
		<g>
			<title> (FCCODOLJ_00437)
hypothetical protein</title>
			<polygon class=" (FCCODOLJ_00437)
hypothetical protein" points="323,40 349,10 349,70" fill="rgb(255,255,255)" fill-opacity="1.0" stroke="rgb(0,0,0)" stroke-width="2"  />
		</g>
		<g>
			<title> (FCCODOLJ_00438)
hypothetical protein</title>
			<polygon class=" (FCCODOLJ_00438)
hypothetical protein" points="352,10 369,40 352,70" fill="rgb(255,255,255)" fill-opacity="1.0" stroke="rgb(0,0,0)" stroke-width="2"  />
		</g>
		<g>
			<title> (FCCODOLJ_00439)
hypothetical protein</title>
			<polygon class=" (FCCODOLJ_00439)
hypothetical protein" points="374,10 378,40 374,70" fill="rgb(255,255,255)" fill-opacity="1.0" stroke="rgb(0,0,0)" stroke-width="2"  />
		</g>
		<g>
			<title> (FCCODOLJ_00440)
hypothetical protein</title>
			<polygon class=" (FCCODOLJ_00440)
hypothetical protein" points="381,10 396,40 381,70" fill="rgb(255,255,255)" fill-opacity="1.0" stroke="rgb(0,0,0)" stroke-width="2"  />
			<g>
				<title>Acetyltransf_10 (PF13673)
"Acetyltransferase (GNAT) domain"</title>
				<polygon class="PF13673" points="381,28 386,28 392,40 386,52 381,52" stroke-linejoin="round" width="14" height="24" fill="rgb(88,180,95)" stroke="rgb(70,144,76)" stroke-width="1" opacity="0.75" />
			</g>
		</g>
		<g>
			<title> (FCCODOLJ_00441)
hypothetical protein</title>
			<polygon class=" (FCCODOLJ_00441)
hypothetical protein" points="399,10 424,40 399,70" fill="rgb(255,255,255)" fill-opacity="1.0" stroke="rgb(0,0,0)" stroke-width="2"  />
			<g>
				<title>Methyltransf_11 (PF08241)
"Methyltransferase domain"</title>
				<polygon class="PF08241" points="405,28 410,28 414,33 414,47 410,52 405,52" stroke-linejoin="round" width="9" height="24" fill="rgb(106,219,159)" stroke="rgb(84,175,127)" stroke-width="1" opacity="0.75" />
			</g>
		</g>
		<g>
			<title> (FCCODOLJ_00442)
hypothetical protein</title>
			<polygon class=" (FCCODOLJ_00442)
hypothetical protein" points="429,10 436,40 429,70" fill="rgb(255,255,255)" fill-opacity="1.0" stroke="rgb(0,0,0)" stroke-width="2"  />
		</g>
		<g>
			<title> (FCCODOLJ_00443)
hypothetical protein</title>
			<polygon class=" (FCCODOLJ_00443)
hypothetical protein" points="439,10 447,40 439,70" fill="rgb(255,255,255)" fill-opacity="1.0" stroke="rgb(0,0,0)" stroke-width="2"  />
		</g>
	</g>
</svg>
