<svg version="1.1" baseProfile="full" xmlns="http://www.w3.org/2000/svg" width="535.5333333333333" height="80">
	<g>
		<line x1="10" y1="40.0" x2="525.5333333333333" y2="40.0" style="stroke:rgb(70,70,70); stroke-width:3 "/>
		<g>
			<title> (AOOJJHNM_02873)
hypothetical protein</title>
			<polygon class=" (AOOJJHNM_02873)
hypothetical protein" points="18,10 39,40 18,70" fill="rgb(255,255,255)" fill-opacity="1.0" stroke="rgb(0,0,0)" stroke-width="2"  />
			<g>
				<title>Acetyltransf_8 (PF13523)
"Acetyltransferase (GNAT) domain"</title>
				<polygon class="PF13523" points="20,28 27,28 34,38 34,42 27,52 20,52" stroke-linejoin="round" width="14" height="24" fill="rgb(106,224,203)" stroke="rgb(84,179,162)" stroke-width="1" opacity="0.75" />
			</g>
		</g>
		<g>
			<title>aes_2 (AOOJJHNM_02874)
Acetyl esterase</title>
			<polygon class="aes_2 (AOOJJHNM_02874)
Acetyl esterase" points="39,25 40,25 40,10 70,40 40,70 40,55 39,55" fill="rgb(255,255,255)" fill-opacity="1.0" stroke="rgb(0,0,0)" stroke-width="2"  />
			<g>
				<title>Abhydrolase_3 (PF07859)
"alpha/beta hydrolase fold"</title>
				<polygon class="PF07859" points="47,28 54,28 66,40 54,52 47,52" stroke-linejoin="round" width="20" height="24" fill="rgb(183,51,179)" stroke="rgb(146,40,143)" stroke-width="1" opacity="0.75" />
			</g>
		</g>
		<g>
			<title>dat_1 (AOOJJHNM_02875)
Diaminobutyrate--2-oxoglutarate aminotransferase</title>
			<polygon class="dat_1 (AOOJJHNM_02875)
Diaminobutyrate--2-oxoglutarate aminotransferase" points="81,25 96,25 96,10 126,40 96,70 96,55 81,55" fill="rgb(255,255,255)" fill-opacity="1.0" stroke="rgb(0,0,0)" stroke-width="2"  />
			<g>
				<title>Aminotran_3 (PF00202)
"Aminotransferase class-III"</title>
				<polygon class="PF00202" points="83,28 109,28 121,40 109,52 83,52" stroke-linejoin="round" width="42" height="24" fill="rgb(49,163,189)" stroke="rgb(39,130,151)" stroke-width="1" opacity="0.75" />
			</g>
		</g>
		<g>
			<title>ddc (AOOJJHNM_02876)
L-2,4-diaminobutyrate decarboxylase</title>
			<polygon class="ddc (AOOJJHNM_02876)
L-2,4-diaminobutyrate decarboxylase" points="126,25 146,25 146,10 176,40 146,70 146,55 126,55" fill="rgb(255,255,255)" fill-opacity="1.0" stroke="rgb(0,0,0)" stroke-width="2"  />
			<g>
				<title>Pyridoxal_deC (PF00282)
"Pyridoxal-dependent decarboxylase conserved domain"</title>
				<polygon class="PF00282" points="132,28 160,28 169,37 169,43 160,52 132,52" stroke-linejoin="round" width="37" height="24" fill="rgb(100,218,166)" stroke="rgb(80,174,132)" stroke-width="1" opacity="0.75" />
			</g>
		</g>
		<g>
			<title>iucA (AOOJJHNM_02877)
N(2)-citryl-N(6)-acetyl-N(6)-hydroxylysine synthase</title>
			<polygon class="iucA (AOOJJHNM_02877)
N(2)-citryl-N(6)-acetyl-N(6)-hydroxylysine synthase" points="176,25 204,25 204,10 234,40 204,70 204,55 176,55" fill="rgb(255,255,255)" fill-opacity="1.0" stroke="rgb(0,0,0)" stroke-width="2"  />
			<g>
				<title>IucA_IucC (PF04183)
"IucA / IucC family"</title>
				<rect class="PF04183" x="190" y="28" stroke-linejoin="round" width="23" height="24" fill="rgb(221,104,121)" stroke="rgb(176,83,96)" stroke-width="1" opacity="0.75" />
			</g>
			<g>
				<title>FhuF (PF06276)
"Ferric iron reductase FhuF-like transporter"</title>
				<polygon class="PF06276" points="216,28 218,28 230,40 218,52 216,52" stroke-linejoin="round" width="15" height="24" fill="rgb(76,151,221)" stroke="rgb(60,120,176)" stroke-width="1" opacity="0.75" />
			</g>
		</g>
		<g>
			<title>iucB (AOOJJHNM_02878)
N(6)-hydroxylysine O-acetyltransferase</title>
			<polygon class="iucB (AOOJJHNM_02878)
N(6)-hydroxylysine O-acetyltransferase" points="234,10 253,40 234,70" fill="rgb(255,255,255)" fill-opacity="1.0" stroke="rgb(0,0,0)" stroke-width="2"  />
			<g>
				<title>Acetyltransf_8 (PF13523)
"Acetyltransferase (GNAT) domain"</title>
				<polygon class="PF13523" points="236,28 242,28 249,40 242,52 236,52" stroke-linejoin="round" width="14" height="24" fill="rgb(106,224,203)" stroke="rgb(84,179,162)" stroke-width="1" opacity="0.75" />
			</g>
		</g>
		<g>
			<title>iucD_3 (AOOJJHNM_02879)
L-lysine N6-monooxygenase</title>
			<polygon class="iucD_3 (AOOJJHNM_02879)
L-lysine N6-monooxygenase" points="253,25 267,25 267,10 297,40 267,70 267,55 253,55" fill="rgb(255,255,255)" fill-opacity="1.0" stroke="rgb(0,0,0)" stroke-width="2"  />
			<g>
				<title>K_oxygenase (PF13434)
"L-lysine 6-monooxygenase (NADPH-requiring)"</title>
				<polygon class="PF13434" points="253,28 281,28 287,34 287,46 281,52 253,52" stroke-linejoin="round" width="34" height="24" fill="rgb(81,213,119)" stroke="rgb(64,170,95)" stroke-width="1" opacity="0.75" />
			</g>
		</g>
		<g>
			<title>iucC (AOOJJHNM_02880)
Aerobactin synthase</title>
			<polygon class="iucC (AOOJJHNM_02880)
Aerobactin synthase" points="296,25 328,25 328,10 358,40 328,70 328,55 296,55" fill="rgb(255,255,255)" fill-opacity="1.0" stroke="rgb(0,0,0)" stroke-width="2"  />
			<g>
				<title>IucA_IucC (PF04183)
"IucA / IucC family"</title>
				<rect class="PF04183" x="312" y="28" stroke-linejoin="round" width="25" height="24" fill="rgb(221,104,121)" stroke="rgb(176,83,96)" stroke-width="1" opacity="0.75" />
			</g>
			<g>
				<title>FhuF (PF06276)
"Ferric iron reductase FhuF-like transporter"</title>
				<polygon class="PF06276" points="339,28 342,28 354,40 342,52 339,52" stroke-linejoin="round" width="16" height="24" fill="rgb(76,151,221)" stroke="rgb(60,120,176)" stroke-width="1" opacity="0.75" />
			</g>
		</g>
		<g>
			<title>lysC (AOOJJHNM_02881)
Aspartokinase 2</title>
			<polygon class="lysC (AOOJJHNM_02881)
Aspartokinase 2" points="359,25 369,25 369,10 399,40 369,70 369,55 359,55" fill="rgb(255,255,255)" fill-opacity="1.0" stroke="rgb(0,0,0)" stroke-width="2"  />
			<g>
				<title>AA_kinase (PF00696)
"Amino acid kinase family"</title>
				<rect class="PF00696" x="359" y="28" stroke-linejoin="round" width="22" height="24" fill="rgb(148,78,224)" stroke="rgb(118,62,179)" stroke-width="1" opacity="0.75" />
			</g>
		</g>
		<g>
			<title> (AOOJJHNM_02882)
hypothetical protein</title>
			<polygon class=" (AOOJJHNM_02882)
hypothetical protein" points="405,10 427,40 405,70" fill="rgb(255,255,255)" fill-opacity="1.0" stroke="rgb(0,0,0)" stroke-width="2"  />
			<g>
				<title>DUF2817 (PF10994)
"Protein of unknown function (DUF2817)"</title>
				<polygon class="PF10994" points="406,28 415,28 423,40 415,52 406,52" stroke-linejoin="round" width="21" height="24" fill="rgb(64,206,144)" stroke="rgb(51,164,115)" stroke-width="1" opacity="0.75" />
			</g>
		</g>
		<g>
			<title> (AOOJJHNM_02883)
hypothetical protein</title>
			<polygon class=" (AOOJJHNM_02883)
hypothetical protein" points="428,10 443,40 428,70" fill="rgb(255,255,255)" fill-opacity="1.0" stroke="rgb(0,0,0)" stroke-width="2"  />
			<g>
				<title>DUF2817 (PF10994)
"Protein of unknown function (DUF2817)"</title>
				<polygon class="PF10994" points="428,28 433,28 440,40 433,52 428,52" stroke-linejoin="round" width="13" height="24" fill="rgb(64,206,144)" stroke="rgb(51,164,115)" stroke-width="1" opacity="0.75" />
			</g>
		</g>
		<g>
			<title> (AOOJJHNM_02884)
hypothetical protein</title>
			<polygon class=" (AOOJJHNM_02884)
hypothetical protein" points="444,10 456,40 444,70" fill="rgb(255,255,255)" fill-opacity="1.0" stroke="rgb(0,0,0)" stroke-width="2"  />
			<g>
				<title>DUF3243 (PF11588)
"Protein of unknown function (DUF3243)"</title>
				<polygon class="PF11588" points="448,28 448,28 453,40 448,52 448,52" stroke-linejoin="round" width="7" height="24" fill="rgb(75,214,128)" stroke="rgb(60,171,102)" stroke-width="1" opacity="0.75" />
			</g>
		</g>
		<g>
			<title> (AOOJJHNM_02885)
hypothetical protein</title>
			<polygon class=" (AOOJJHNM_02885)
hypothetical protein" points="459,40 464,10 464,70" fill="rgb(255,255,255)" fill-opacity="1.0" stroke="rgb(0,0,0)" stroke-width="2"  />
		</g>
		<g>
			<title> (AOOJJHNM_02886)
hypothetical protein</title>
			<polygon class=" (AOOJJHNM_02886)
hypothetical protein" points="469,10 476,40 469,70" fill="rgb(255,255,255)" fill-opacity="1.0" stroke="rgb(0,0,0)" stroke-width="2"  />
			<g>
				<title>HTH_3 (PF01381)
"Helix-turn-helix"</title>
				<polygon class="PF01381" points="469,28 469,28 473,40 469,52 469,52" stroke-linejoin="round" width="5" height="24" fill="rgb(105,79,202)" stroke="rgb(83,63,161)" stroke-width="1" opacity="0.75" />
			</g>
		</g>
		<g>
			<title> (AOOJJHNM_02887)
hypothetical protein</title>
			<polygon class=" (AOOJJHNM_02887)
hypothetical protein" points="476,10 490,40 476,70" fill="rgb(255,255,255)" fill-opacity="1.0" stroke="rgb(0,0,0)" stroke-width="2"  />
		</g>
		<g>
			<title>ydbD_2 (AOOJJHNM_02888)
putative manganese catalase</title>
			<polygon class="ydbD_2 (AOOJJHNM_02888)
putative manganese catalase" points="492,40 520,10 520,70" fill="rgb(255,255,255)" fill-opacity="1.0" stroke="rgb(0,0,0)" stroke-width="2"  />
			<g>
				<title>Mn_catalase (PF05067)
"Manganese containing catalase"</title>
				<polygon class="PF05067" points="496,40 507,28 520,28 520,52 507,52" stroke-linejoin="round" width="28" height="24" fill="rgb(59,189,89)" stroke="rgb(47,151,71)" stroke-width="1" opacity="0.75" />
			</g>
		</g>
	</g>
</svg>
