<svg version="1.1" baseProfile="full" xmlns="http://www.w3.org/2000/svg" width="366.23333333333335" height="80">
	<g>
		<line x1="10" y1="40.0" x2="356.23333333333335" y2="40.0" style="stroke:rgb(70,70,70); stroke-width:3 "/>
		<g>
			<title> (DBLALLCB_00708)
hypothetical protein</title>
			<polygon class=" (DBLALLCB_00708)
hypothetical protein" points="80,25 78,25 78,10 48,40 78,70 78,55 80,55" fill="rgb(255,255,255)" fill-opacity="1.0" stroke="rgb(0,0,0)" stroke-width="2"  />
			<g>
				<title>SpoIIM (PF01944)
"Stage II sporulation protein M"</title>
				<polygon class="PF01944" points="52,40 64,28 69,28 69,52 64,52 52,40" stroke-linejoin="round" width="17" height="24" fill="rgb(96,132,207)" stroke="rgb(76,105,165)" stroke-width="1" opacity="0.75" />
			</g>
		</g>
		<g>
			<title> (DBLALLCB_00709)
hypothetical protein</title>
			<polygon class=" (DBLALLCB_00709)
hypothetical protein" points="85,10 111,40 85,70" fill="rgb(255,255,255)" fill-opacity="1.0" stroke="rgb(0,0,0)" stroke-width="2"  />
			<g>
				<title>RDD (PF06271)
"RDD family"</title>
				<polygon class="PF06271" points="87,28 96,28 100,32 100,48 96,52 87,52" stroke-linejoin="round" width="13" height="24" fill="rgb(75,173,207)" stroke="rgb(60,138,165)" stroke-width="1" opacity="0.75" />
			</g>
		</g>
		<g>
			<title>dapE_2 (DBLALLCB_00710)
Succinyl-diaminopimelate desuccinylase</title>
			<polygon class="dapE_2 (DBLALLCB_00710)
Succinyl-diaminopimelate desuccinylase" points="112,25 127,25 127,10 157,40 127,70 127,55 112,55" fill="rgb(255,255,255)" fill-opacity="1.0" stroke="rgb(0,0,0)" stroke-width="2"  />
			<g>
				<title>Peptidase_M20 (PF01546)
"Peptidase family M20/M25/M40"</title>
				<polygon class="PF01546" points="119,28 140,28 152,40 140,52 119,52" stroke-linejoin="round" width="36" height="24" fill="rgb(88,213,108)" stroke="rgb(70,170,86)" stroke-width="1" opacity="0.75" />
			</g>
		</g>
		<g>
			<title> (DBLALLCB_00711)
hypothetical protein</title>
			<polygon class=" (DBLALLCB_00711)
hypothetical protein" points="169,10 174,40 169,70" fill="rgb(255,255,255)" fill-opacity="1.0" stroke="rgb(0,0,0)" stroke-width="2"  />
		</g>
		<g>
			<title>ectC (DBLALLCB_00712)
L-ectoine synthase</title>
			<polygon class="ectC (DBLALLCB_00712)
L-ectoine synthase" points="176,40 188,10 188,70" fill="rgb(255,255,255)" fill-opacity="1.0" stroke="rgb(0,0,0)" stroke-width="2"  />
			<g>
				<title>Ectoine_synth (PF06339)
"Ectoine synthase"</title>
				<polygon class="PF06339" points="179,40 184,28 188,28 188,52 184,52" stroke-linejoin="round" width="12" height="24" fill="rgb(225,176,81)" stroke="rgb(180,140,64)" stroke-width="1" opacity="0.75" />
			</g>
		</g>
		<g>
			<title>ectB (DBLALLCB_00713)
Diaminobutyrate--2-oxoglutarate transaminase</title>
			<polygon class="ectB (DBLALLCB_00713)
Diaminobutyrate--2-oxoglutarate transaminase" points="232,25 220,25 220,10 190,40 220,70 220,55 232,55" fill="rgb(255,255,255)" fill-opacity="1.0" stroke="rgb(0,0,0)" stroke-width="2"  />
			<g>
				<title>Aminotran_3 (PF00202)
"Aminotransferase class-III"</title>
				<polygon class="PF00202" points="194,40 206,28 230,28 230,52 206,52" stroke-linejoin="round" width="39" height="24" fill="rgb(49,163,189)" stroke="rgb(39,130,151)" stroke-width="1" opacity="0.75" />
			</g>
		</g>
		<g>
			<title>ectA (DBLALLCB_00714)
L-2,4-diaminobutyric acid acetyltransferase</title>
			<polygon class="ectA (DBLALLCB_00714)
L-2,4-diaminobutyric acid acetyltransferase" points="234,40 251,10 251,70" fill="rgb(255,255,255)" fill-opacity="1.0" stroke="rgb(0,0,0)" stroke-width="2"  />
			<g>
				<title>Acetyltransf_1 (PF00583)
"Acetyltransferase (GNAT) family"</title>
				<polygon class="PF00583" points="237,40 244,28 248,28 248,52 244,52 237,40" stroke-linejoin="round" width="11" height="24" fill="rgb(121,183,50)" stroke="rgb(96,146,39)" stroke-width="1" opacity="0.75" />
			</g>
		</g>
		<g>
			<title> (DBLALLCB_00715)
hypothetical protein</title>
			<polygon class=" (DBLALLCB_00715)
hypothetical protein" points="279,10 298,40 279,70" fill="rgb(255,255,255)" fill-opacity="1.0" stroke="rgb(0,0,0)" stroke-width="2"  />
			<g>
				<title>DUF4352 (PF11611)
"Domain of unknown function (DUF4352)"</title>
				<polygon class="PF11611" points="285,28 287,28 294,40 287,52 285,52" stroke-linejoin="round" width="12" height="24" fill="rgb(71,97,207)" stroke="rgb(56,77,165)" stroke-width="1" opacity="0.75" />
			</g>
		</g>
		<g>
			<title> (DBLALLCB_00716)
hypothetical protein</title>
			<polygon class=" (DBLALLCB_00716)
hypothetical protein" points="302,10 307,40 302,70" fill="rgb(255,255,255)" fill-opacity="1.0" stroke="rgb(0,0,0)" stroke-width="2"  />
		</g>
		<g>
			<title>isp (DBLALLCB_00717)
Intracellular serine protease</title>
			<polygon class="isp (DBLALLCB_00717)
Intracellular serine protease" points="315,25 318,25 318,10 348,40 318,70 318,55 315,55" fill="rgb(255,255,255)" fill-opacity="1.0" stroke="rgb(0,0,0)" stroke-width="2"  />
			<g>
				<title>Peptidase_S8 (PF00082)
"Subtilase family"</title>
				<polygon class="PF00082" points="319,28 332,28 344,40 332,52 319,52" stroke-linejoin="round" width="26" height="24" fill="rgb(193,159,94)" stroke="rgb(154,127,75)" stroke-width="1" opacity="0.75" />
			</g>
		</g>
	</g>
</svg>
