<svg version="1.1" baseProfile="full" xmlns="http://www.w3.org/2000/svg" width="479.8" height="80">
	<g>
		<line x1="10" y1="40.0" x2="469.8" y2="40.0" style="stroke:rgb(70,70,70); stroke-width:3 "/>
		<g>
			<title>gabD_1 (CKNNHCHG_02786)
Succinate-semialdehyde dehydrogenase [NADP(+)] GabD</title>
			<polygon class="gabD_1 (CKNNHCHG_02786)
Succinate-semialdehyde dehydrogenase [NADP(+)] GabD" points="82,25 65,25 65,10 35,40 65,70 65,55 82,55" fill="rgb(255,255,255)" fill-opacity="1.0" stroke="rgb(0,0,0)" stroke-width="2"  />
			<g>
				<title>Aldedh (PF00171)
"Aldehyde dehydrogenase family"</title>
				<polygon class="PF00171" points="39,40 51,28 80,28 80,52 51,52" stroke-linejoin="round" width="45" height="24" fill="rgb(105,213,139)" stroke="rgb(84,170,111)" stroke-width="1" opacity="0.75" />
			</g>
		</g>
		<g>
			<title>alsS (CKNNHCHG_02787)
Acetolactate synthase</title>
			<polygon class="alsS (CKNNHCHG_02787)
Acetolactate synthase" points="137,25 113,25 113,10 83,40 113,70 113,55 137,55" fill="rgb(255,255,255)" fill-opacity="1.0" stroke="rgb(0,0,0)" stroke-width="2"  />
			<g>
				<title>TPP_enzyme_C (PF02775)
"Thiamine pyrophosphate enzyme, C-terminal TPP binding domain"</title>
				<polygon class="PF02775" points="87,40 99,28 99,28 99,52 99,52" stroke-linejoin="round" width="14" height="24" fill="rgb(156,179,45)" stroke="rgb(124,143,36)" stroke-width="1" opacity="0.75" />
			</g>
			<g>
				<title>TPP_enzyme_M (PF00205)
"Thiamine pyrophosphate enzyme, central domain"</title>
				<rect class="PF00205" x="105" y="28" stroke-linejoin="round" width="13" height="24" fill="rgb(149,194,69)" stroke="rgb(119,155,55)" stroke-width="1" opacity="0.75" />
			</g>
			<g>
				<title>TPP_enzyme_N (PF02776)
"Thiamine pyrophosphate enzyme, N-terminal TPP binding domain"</title>
				<rect class="PF02776" x="120" y="28" stroke-linejoin="round" width="16" height="24" fill="rgb(55,81,185)" stroke="rgb(44,64,148)" stroke-width="1" opacity="0.75" />
			</g>
		</g>
		<g>
			<title> (CKNNHCHG_02788)
hypothetical protein</title>
			<polygon class=" (CKNNHCHG_02788)
hypothetical protein" points="145,40 169,10 169,70" fill="rgb(255,255,255)" fill-opacity="1.0" stroke="rgb(0,0,0)" stroke-width="2"  />
			<g>
				<title>FhuF (PF06276)
"Ferric iron reductase FhuF-like transporter"</title>
				<polygon class="PF06276" points="149,40 159,28 163,28 163,52 159,52" stroke-linejoin="round" width="15" height="24" fill="rgb(76,151,221)" stroke="rgb(60,120,176)" stroke-width="1" opacity="0.75" />
			</g>
		</g>
		<g>
			<title> (CKNNHCHG_02789)
hypothetical protein</title>
			<polygon class=" (CKNNHCHG_02789)
hypothetical protein" points="176,25 207,25 207,10 237,40 207,70 207,55 176,55" fill="rgb(255,255,255)" fill-opacity="1.0" stroke="rgb(0,0,0)" stroke-width="2"  />
			<g>
				<title>IucA_IucC (PF04183)
"IucA / IucC family"</title>
				<rect class="PF04183" x="191" y="28" stroke-linejoin="round" width="24" height="24" fill="rgb(221,104,121)" stroke="rgb(176,83,96)" stroke-width="1" opacity="0.75" />
			</g>
			<g>
				<title>FhuF (PF06276)
"Ferric iron reductase FhuF-like transporter"</title>
				<polygon class="PF06276" points="218,28 220,28 232,40 220,52 218,52" stroke-linejoin="round" width="16" height="24" fill="rgb(76,151,221)" stroke="rgb(60,120,176)" stroke-width="1" opacity="0.75" />
			</g>
		</g>
		<g>
			<title> (CKNNHCHG_02790)
hypothetical protein</title>
			<polygon class=" (CKNNHCHG_02790)
hypothetical protein" points="237,25 272,25 272,10 302,40 272,70 272,55 237,55" fill="rgb(255,255,255)" fill-opacity="1.0" stroke="rgb(0,0,0)" stroke-width="2"  />
			<g>
				<title>IucA_IucC (PF04183)
"IucA / IucC family"</title>
				<rect class="PF04183" x="258" y="28" stroke-linejoin="round" width="23" height="24" fill="rgb(221,104,121)" stroke="rgb(176,83,96)" stroke-width="1" opacity="0.75" />
			</g>
			<g>
				<title>FhuF (PF06276)
"Ferric iron reductase FhuF-like transporter"</title>
				<polygon class="PF06276" points="284,28 286,28 298,40 286,52 284,52" stroke-linejoin="round" width="16" height="24" fill="rgb(76,151,221)" stroke="rgb(60,120,176)" stroke-width="1" opacity="0.75" />
			</g>
		</g>
		<g>
			<title>sbnH_1 (CKNNHCHG_02791)
2-[(L-alanin-3-ylcarbamoyl)methyl]-2- hydroxybutanedioate decarboxylase</title>
			<polygon class="sbnH_1 (CKNNHCHG_02791)
2-[(L-alanin-3-ylcarbamoyl)methyl]-2- hydroxybutanedioate decarboxylase" points="303,10 331,40 303,70" fill="rgb(255,255,255)" fill-opacity="1.0" stroke="rgb(0,0,0)" stroke-width="2"  />
			<g>
				<title>Orn_Arg_deC_N (PF02784)
"Pyridoxal-dependent decarboxylase, pyridoxal binding domain"</title>
				<polygon class="PF02784" points="305,28 315,28 327,40 315,52 305,52" stroke-linejoin="round" width="24" height="24" fill="rgb(106,204,212)" stroke="rgb(84,163,169)" stroke-width="1" opacity="0.75" />
			</g>
		</g>
		<g>
			<title>sbnH_2 (CKNNHCHG_02792)
2-[(L-alanin-3-ylcarbamoyl)methyl]-2- hydroxybutanedioate decarboxylase</title>
			<polygon class="sbnH_2 (CKNNHCHG_02792)
2-[(L-alanin-3-ylcarbamoyl)methyl]-2- hydroxybutanedioate decarboxylase" points="332,10 342,40 332,70" fill="rgb(255,255,255)" fill-opacity="1.0" stroke="rgb(0,0,0)" stroke-width="2"  />
			<g>
				<title>Orn_DAP_Arg_deC (PF00278)
"Pyridoxal-dependent decarboxylase, C-terminal sheet domain"</title>
				<polygon class="PF00278" points="332,28 334,28 339,40 339,40 334,52 332,52" stroke-linejoin="round" width="7" height="24" fill="rgb(195,86,191)" stroke="rgb(156,68,152)" stroke-width="1" opacity="0.75" />
			</g>
		</g>
		<g>
			<title> (CKNNHCHG_02793)
hypothetical protein</title>
			<polygon class=" (CKNNHCHG_02793)
hypothetical protein" points="344,10 347,40 344,70" fill="rgb(255,255,255)" fill-opacity="1.0" stroke="rgb(0,0,0)" stroke-width="2"  />
		</g>
		<g>
			<title> (CKNNHCHG_02794)
hypothetical protein</title>
			<polygon class=" (CKNNHCHG_02794)
hypothetical protein" points="350,25 354,25 354,10 384,40 354,70 354,55 350,55" fill="rgb(255,255,255)" fill-opacity="1.0" stroke="rgb(0,0,0)" stroke-width="2"  />
		</g>
		<g>
			<title> (CKNNHCHG_02795)
hypothetical protein</title>
			<polygon class=" (CKNNHCHG_02795)
hypothetical protein" points="387,10 394,40 387,70" fill="rgb(255,255,255)" fill-opacity="1.0" stroke="rgb(0,0,0)" stroke-width="2"  />
		</g>
		<g>
			<title> (CKNNHCHG_02796)
hypothetical protein</title>
			<polygon class=" (CKNNHCHG_02796)
hypothetical protein" points="394,10 407,40 394,70" fill="rgb(255,255,255)" fill-opacity="1.0" stroke="rgb(0,0,0)" stroke-width="2"  />
			<g>
				<title>Lysozyme_like (PF13702)
"Lysozyme-like"</title>
				<polygon class="PF13702" points="394,28 398,28 404,40 398,52 394,52" stroke-linejoin="round" width="12" height="24" fill="rgb(186,63,104)" stroke="rgb(148,50,83)" stroke-width="1" opacity="0.75" />
			</g>
		</g>
		<g>
			<title> (CKNNHCHG_02797)
Epimerase family protein</title>
			<polygon class=" (CKNNHCHG_02797)
Epimerase family protein" points="415,10 444,40 415,70" fill="rgb(255,255,255)" fill-opacity="1.0" stroke="rgb(0,0,0)" stroke-width="2"  />
			<g>
				<title>Epimerase (PF01370)
"NAD dependent epimerase/dehydratase family"</title>
				<rect class="PF01370" x="415" y="28" stroke-linejoin="round" width="12" height="24" fill="rgb(98,102,214)" stroke="rgb(78,81,171)" stroke-width="1" opacity="0.75" />
			</g>
			<g>
				<title>DUF1731 (PF08338)
"Domain of unknown function (DUF1731)"</title>
				<polygon class="PF08338" points="439,39 440,40 439,41" stroke-linejoin="round" width="4" height="24" fill="rgb(63,110,190)" stroke="rgb(50,88,152)" stroke-width="1" opacity="0.75" />
			</g>
		</g>
		<g>
			<title> (CKNNHCHG_02798)
hypothetical protein</title>
			<polygon class=" (CKNNHCHG_02798)
hypothetical protein" points="447,10 451,40 447,70" fill="rgb(255,255,255)" fill-opacity="1.0" stroke="rgb(0,0,0)" stroke-width="2"  />
		</g>
	</g>
</svg>
