<svg version="1.1" baseProfile="full" xmlns="http://www.w3.org/2000/svg" width="366.53333333333336" height="80">
	<g>
		<line x1="10" y1="40.0" x2="356.53333333333336" y2="40.0" style="stroke:rgb(70,70,70); stroke-width:3 "/>
		<g>
			<title>bbsG_2 (CJMCAHAL_02883)
(R)-benzylsuccinyl-CoA dehydrogenase</title>
			<polygon class="bbsG_2 (CJMCAHAL_02883)
(R)-benzylsuccinyl-CoA dehydrogenase" points="56,25 45,25 45,10 15,40 45,70 45,55 56,55" fill="rgb(255,255,255)" fill-opacity="1.0" stroke="rgb(0,0,0)" stroke-width="2"  />
			<g>
				<title>Acyl-CoA_dh_1 (PF00441)
"Acyl-CoA dehydrogenase, C-terminal domain"</title>
				<polygon class="PF00441" points="19,40 31,28 31,28 31,52 31,52" stroke-linejoin="round" width="15" height="24" fill="rgb(85,191,117)" stroke="rgb(68,152,93)" stroke-width="1" opacity="0.75" />
			</g>
			<g>
				<title>Acyl-CoA_dh_M (PF02770)
"Acyl-CoA dehydrogenase, middle domain"</title>
				<rect class="PF02770" x="32" y="28" stroke-linejoin="round" width="10" height="24" fill="rgb(225,186,97)" stroke="rgb(180,148,77)" stroke-width="1" opacity="0.75" />
			</g>
			<g>
				<title>Acyl-CoA_dh_N (PF02771)
"Acyl-CoA dehydrogenase, N-terminal domain"</title>
				<rect class="PF02771" x="43" y="28" stroke-linejoin="round" width="12" height="24" fill="rgb(105,135,218)" stroke="rgb(84,108,174)" stroke-width="1" opacity="0.75" />
			</g>
		</g>
		<g>
			<title> (CJMCAHAL_02884)
hypothetical protein</title>
			<polygon class=" (CJMCAHAL_02884)
hypothetical protein" points="57,40 71,10 71,70" fill="rgb(255,255,255)" fill-opacity="1.0" stroke="rgb(0,0,0)" stroke-width="2"  />
			<g>
				<title>MaoC_dehydratas (PF01575)
"MaoC like domain"</title>
				<polygon class="PF01575" points="60,40 66,28 69,28 69,52 66,52" stroke-linejoin="round" width="11" height="24" fill="rgb(218,129,86)" stroke="rgb(174,103,68)" stroke-width="1" opacity="0.75" />
			</g>
		</g>
		<g>
			<title> (CJMCAHAL_02885)
hypothetical protein</title>
			<polygon class=" (CJMCAHAL_02885)
hypothetical protein" points="71,40 85,10 85,70" fill="rgb(255,255,255)" fill-opacity="1.0" stroke="rgb(0,0,0)" stroke-width="2"  />
			<g>
				<title>MaoC_dehydrat_N (PF13452)
"N-terminal half of MaoC dehydratase"</title>
				<polygon class="PF13452" points="74,40 80,28 84,28 84,52 80,52" stroke-linejoin="round" width="12" height="24" fill="rgb(215,186,64)" stroke="rgb(172,148,51)" stroke-width="1" opacity="0.75" />
			</g>
		</g>
		<g>
			<title>fabG_5 (CJMCAHAL_02886)
3-oxoacyl-[acyl-carrier-protein] reductase FabG</title>
			<polygon class="fabG_5 (CJMCAHAL_02886)
3-oxoacyl-[acyl-carrier-protein] reductase FabG" points="86,40 111,10 111,70" fill="rgb(255,255,255)" fill-opacity="1.0" stroke="rgb(0,0,0)" stroke-width="2"  />
			<g>
				<title>adh_short_C2 (PF13561)
"Enoyl-(Acyl carrier protein) reductase"</title>
				<polygon class="PF13561" points="90,40 100,28 110,28 110,52 100,52" stroke-linejoin="round" width="24" height="24" fill="rgb(73,205,127)" stroke="rgb(58,164,101)" stroke-width="1" opacity="0.75" />
			</g>
		</g>
		<g>
			<title>carC (CJMCAHAL_02887)
Caffeyl-CoA reductase-Etf complex subunit CarC</title>
			<polygon class="carC (CJMCAHAL_02887)
Caffeyl-CoA reductase-Etf complex subunit CarC" points="152,25 142,25 142,10 112,40 142,70 142,55 152,55" fill="rgb(255,255,255)" fill-opacity="1.0" stroke="rgb(0,0,0)" stroke-width="2"  />
			<g>
				<title>Acyl-CoA_dh_1 (PF00441)
"Acyl-CoA dehydrogenase, C-terminal domain"</title>
				<polygon class="PF00441" points="116,40 126,30 126,50" stroke-linejoin="round" width="14" height="24" fill="rgb(85,191,117)" stroke="rgb(68,152,93)" stroke-width="1" opacity="0.75" />
			</g>
			<g>
				<title>Acyl-CoA_dh_M (PF02770)
"Acyl-CoA dehydrogenase, middle domain"</title>
				<polygon class="PF02770" points="128,28 128,28 137,28 137,52 128,52 128,52" stroke-linejoin="round" width="9" height="24" fill="rgb(225,186,97)" stroke="rgb(180,148,77)" stroke-width="1" opacity="0.75" />
			</g>
			<g>
				<title>Acyl-CoA_dh_N (PF02771)
"Acyl-CoA dehydrogenase, N-terminal domain"</title>
				<rect class="PF02771" x="138" y="28" stroke-linejoin="round" width="11" height="24" fill="rgb(105,135,218)" stroke="rgb(84,108,174)" stroke-width="1" opacity="0.75" />
			</g>
		</g>
		<g>
			<title> (CJMCAHAL_02888)
hypothetical protein</title>
			<polygon class=" (CJMCAHAL_02888)
hypothetical protein" points="154,40 157,10 157,70" fill="rgb(255,255,255)" fill-opacity="1.0" stroke="rgb(0,0,0)" stroke-width="2"  />
		</g>
		<g>
			<title> (CJMCAHAL_02889)
hypothetical protein</title>
			<polygon class=" (CJMCAHAL_02889)
hypothetical protein" points="168,10 173,40 168,70" fill="rgb(255,255,255)" fill-opacity="1.0" stroke="rgb(0,0,0)" stroke-width="2"  />
		</g>
		<g>
			<title>ectC (CJMCAHAL_02890)
L-ectoine synthase</title>
			<polygon class="ectC (CJMCAHAL_02890)
L-ectoine synthase" points="176,40 189,10 189,70" fill="rgb(255,255,255)" fill-opacity="1.0" stroke="rgb(0,0,0)" stroke-width="2"  />
			<g>
				<title>Ectoine_synth (PF06339)
"Ectoine synthase"</title>
				<polygon class="PF06339" points="179,40 184,28 188,28 188,52 184,52" stroke-linejoin="round" width="12" height="24" fill="rgb(225,176,81)" stroke="rgb(180,140,64)" stroke-width="1" opacity="0.75" />
			</g>
		</g>
		<g>
			<title>ectB (CJMCAHAL_02891)
Diaminobutyrate--2-oxoglutarate transaminase</title>
			<polygon class="ectB (CJMCAHAL_02891)
Diaminobutyrate--2-oxoglutarate transaminase" points="232,25 219,25 219,10 189,40 219,70 219,55 232,55" fill="rgb(255,255,255)" fill-opacity="1.0" stroke="rgb(0,0,0)" stroke-width="2"  />
			<g>
				<title>Aminotran_3 (PF00202)
"Aminotransferase class-III"</title>
				<polygon class="PF00202" points="193,40 205,28 229,28 229,52 205,52" stroke-linejoin="round" width="39" height="24" fill="rgb(49,163,189)" stroke="rgb(39,130,151)" stroke-width="1" opacity="0.75" />
			</g>
		</g>
		<g>
			<title>ectA (CJMCAHAL_02892)
L-2,4-diaminobutyric acid acetyltransferase</title>
			<polygon class="ectA (CJMCAHAL_02892)
L-2,4-diaminobutyric acid acetyltransferase" points="233,40 247,10 247,70" fill="rgb(255,255,255)" fill-opacity="1.0" stroke="rgb(0,0,0)" stroke-width="2"  />
			<g>
				<title>Acetyltransf_1 (PF00583)
"Acetyltransferase (GNAT) family"</title>
				<polygon class="PF00583" points="236,40 242,28 246,28 246,52 242,52 236,40" stroke-linejoin="round" width="10" height="24" fill="rgb(121,183,50)" stroke="rgb(96,146,39)" stroke-width="1" opacity="0.75" />
			</g>
		</g>
		<g>
			<title> (CJMCAHAL_02893)
hypothetical protein</title>
			<polygon class=" (CJMCAHAL_02893)
hypothetical protein" points="267,40 294,10 294,70" fill="rgb(255,255,255)" fill-opacity="1.0" stroke="rgb(0,0,0)" stroke-width="2"  />
		</g>
		<g>
			<title> (CJMCAHAL_02894)
hypothetical protein</title>
			<polygon class=" (CJMCAHAL_02894)
hypothetical protein" points="302,10 313,40 302,70" fill="rgb(255,255,255)" fill-opacity="1.0" stroke="rgb(0,0,0)" stroke-width="2"  />
		</g>
	</g>
</svg>
