<svg version="1.1" baseProfile="full" xmlns="http://www.w3.org/2000/svg" width="366.7" height="80">
	<g>
		<line x1="10" y1="40.0" x2="356.7" y2="40.0" style="stroke:rgb(70,70,70); stroke-width:3 "/>
		<g>
			<title> (JDCNNPMD_03775)
hypothetical protein</title>
			<polygon class=" (JDCNNPMD_03775)
hypothetical protein" points="26,40 54,10 54,70" fill="rgb(255,255,255)" fill-opacity="1.0" stroke="rgb(0,0,0)" stroke-width="2"  />
			<g>
				<title>STAS (PF01740)
"STAS domain"</title>
				<polygon class="PF01740" points="30,40 37,33 37,47" stroke-linejoin="round" width="10" height="24" fill="rgb(219,58,116)" stroke="rgb(175,46,92)" stroke-width="1" opacity="0.75" />
			</g>
			<g>
				<title>GAF_2 (PF13185)
"GAF domain"</title>
				<polygon class="PF13185" points="39,31 41,28 53,28 53,52 41,52 39,49" stroke-linejoin="round" width="14" height="24" fill="rgb(158,189,90)" stroke="rgb(126,151,72)" stroke-width="1" opacity="0.75" />
			</g>
		</g>
		<g>
			<title> (JDCNNPMD_03776)
hypothetical protein</title>
			<polygon class=" (JDCNNPMD_03776)
hypothetical protein" points="62,25 79,25 79,10 109,40 79,70 79,55 62,55" fill="rgb(255,255,255)" fill-opacity="1.0" stroke="rgb(0,0,0)" stroke-width="2"  />
			<g>
				<title>Na_H_antiporter (PF03553)
"Na+/H+ antiporter family"</title>
				<polygon class="PF03553" points="77,28 92,28 104,40 92,52 77,52" stroke-linejoin="round" width="31" height="24" fill="rgb(115,72,216)" stroke="rgb(91,57,172)" stroke-width="1" opacity="0.75" />
			</g>
		</g>
		<g>
			<title> (JDCNNPMD_03777)
hypothetical protein</title>
			<polygon class=" (JDCNNPMD_03777)
hypothetical protein" points="115,40 132,10 132,70" fill="rgb(255,255,255)" fill-opacity="1.0" stroke="rgb(0,0,0)" stroke-width="2"  />
			<g>
				<title>RDD (PF06271)
"RDD family"</title>
				<polygon class="PF06271" points="118,40 125,28 131,28 131,52 125,52" stroke-linejoin="round" width="16" height="24" fill="rgb(75,173,207)" stroke="rgb(60,138,165)" stroke-width="1" opacity="0.75" />
			</g>
		</g>
		<g>
			<title>sbnH (JDCNNPMD_03778)
2-[(L-alanin-3-ylcarbamoyl)methyl]-2- hydroxybutanedioate decarboxylase</title>
			<polygon class="sbnH (JDCNNPMD_03778)
2-[(L-alanin-3-ylcarbamoyl)methyl]-2- hydroxybutanedioate decarboxylase" points="175,25 165,25 165,10 135,40 165,70 165,55 175,55" fill="rgb(255,255,255)" fill-opacity="1.0" stroke="rgb(0,0,0)" stroke-width="2"  />
			<g>
				<title>Orn_Arg_deC_N (PF02784)
"Pyridoxal-dependent decarboxylase, pyridoxal binding domain"</title>
				<polygon class="PF02784" points="147,32 151,28 171,28 171,52 151,52 147,48" stroke-linejoin="round" width="24" height="24" fill="rgb(106,204,212)" stroke="rgb(84,163,169)" stroke-width="1" opacity="0.75" />
			</g>
		</g>
		<g>
			<title> (JDCNNPMD_03779)
hypothetical protein</title>
			<polygon class=" (JDCNNPMD_03779)
hypothetical protein" points="242,25 206,25 206,10 176,40 206,70 206,55 242,55" fill="rgb(255,255,255)" fill-opacity="1.0" stroke="rgb(0,0,0)" stroke-width="2"  />
			<g>
				<title>FhuF (PF06276)
"Ferric iron reductase FhuF-like transporter"</title>
				<polygon class="PF06276" points="180,40 192,28 193,28 193,52 192,52" stroke-linejoin="round" width="16" height="24" fill="rgb(76,151,221)" stroke="rgb(60,120,176)" stroke-width="1" opacity="0.75" />
			</g>
			<g>
				<title>IucA_IucC (PF04183)
"IucA / IucC family"</title>
				<rect class="PF04183" x="196" y="28" stroke-linejoin="round" width="23" height="24" fill="rgb(221,104,121)" stroke="rgb(176,83,96)" stroke-width="1" opacity="0.75" />
			</g>
		</g>
		<g>
			<title>sbnF (JDCNNPMD_03780)
2-[(L-alanin-3-ylcarbamoyl)methyl]-3-(2- aminoethylcarbamoyl)-2-hydroxypropanoate synthase</title>
			<polygon class="sbnF (JDCNNPMD_03780)
2-[(L-alanin-3-ylcarbamoyl)methyl]-3-(2- aminoethylcarbamoyl)-2-hydroxypropanoate synthase" points="306,25 273,25 273,10 243,40 273,70 273,55 306,55" fill="rgb(255,255,255)" fill-opacity="1.0" stroke="rgb(0,0,0)" stroke-width="2"  />
			<g>
				<title>FhuF (PF06276)
"Ferric iron reductase FhuF-like transporter"</title>
				<polygon class="PF06276" points="247,40 259,28 260,28 260,52 259,52" stroke-linejoin="round" width="16" height="24" fill="rgb(76,151,221)" stroke="rgb(60,120,176)" stroke-width="1" opacity="0.75" />
			</g>
			<g>
				<title>IucA_IucC (PF04183)
"IucA / IucC family"</title>
				<rect class="PF04183" x="264" y="28" stroke-linejoin="round" width="24" height="24" fill="rgb(221,104,121)" stroke="rgb(176,83,96)" stroke-width="1" opacity="0.75" />
			</g>
		</g>
		<g>
			<title> (JDCNNPMD_03781)
hypothetical protein</title>
			<polygon class=" (JDCNNPMD_03781)
hypothetical protein" points="315,10 339,40 315,70" fill="rgb(255,255,255)" fill-opacity="1.0" stroke="rgb(0,0,0)" stroke-width="2"  />
			<g>
				<title>FhuF (PF06276)
"Ferric iron reductase FhuF-like transporter"</title>
				<polygon class="PF06276" points="320,28 326,28 335,39 335,41 326,52 320,52" stroke-linejoin="round" width="15" height="24" fill="rgb(76,151,221)" stroke="rgb(60,120,176)" stroke-width="1" opacity="0.75" />
			</g>
		</g>
	</g>
</svg>
