<svg version="1.1" baseProfile="full" xmlns="http://www.w3.org/2000/svg" width="749.3666666666667" height="80">
	<g>
		<line x1="10" y1="40.0" x2="739.3666666666667" y2="40.0" style="stroke:rgb(70,70,70); stroke-width:3 "/>
		<g>
			<title>mntB_1 (KKANDCCO_01210)
Manganese transport system ATP-binding protein MntB</title>
			<polygon class="mntB_1 (KKANDCCO_01210)
Manganese transport system ATP-binding protein MntB" points="19,10 44,40 19,70" fill="rgb(255,255,255)" fill-opacity="1.0" stroke="rgb(0,0,0)" stroke-width="2"  />
			<g>
				<title>ABC_tran (PF00005)
"ABC transporter"</title>
				<polygon class="PF00005" points="20,28 30,28 34,33 34,47 30,52 20,52" stroke-linejoin="round" width="14" height="24" fill="rgb(129,201,63)" stroke="rgb(103,160,50)" stroke-width="1" opacity="0.75" />
			</g>
		</g>
		<g>
			<title>mntC (KKANDCCO_01211)
Manganese transport system membrane protein MntC</title>
			<polygon class="mntC (KKANDCCO_01211)
Manganese transport system membrane protein MntC" points="44,10 73,40 44,70" fill="rgb(255,255,255)" fill-opacity="1.0" stroke="rgb(0,0,0)" stroke-width="2"  />
			<g>
				<title>ABC-3 (PF00950)
"ABC 3 transport family"</title>
				<polygon class="PF00950" points="44,28 57,28 69,40 57,52 44,52" stroke-linejoin="round" width="26" height="24" fill="rgb(190,102,215)" stroke="rgb(152,81,172)" stroke-width="1" opacity="0.75" />
			</g>
		</g>
		<g>
			<title>mntD (KKANDCCO_01212)
Manganese transport system membrane protein MntD</title>
			<polygon class="mntD (KKANDCCO_01212)
Manganese transport system membrane protein MntD" points="73,25 73,25 73,10 103,40 73,70 73,55 73,55" fill="rgb(255,255,255)" fill-opacity="1.0" stroke="rgb(0,0,0)" stroke-width="2"  />
			<g>
				<title>ABC-3 (PF00950)
"ABC 3 transport family"</title>
				<polygon class="PF00950" points="73,28 86,28 98,40 86,52 73,52" stroke-linejoin="round" width="27" height="24" fill="rgb(190,102,215)" stroke="rgb(152,81,172)" stroke-width="1" opacity="0.75" />
			</g>
		</g>
		<g>
			<title> (KKANDCCO_01213)
hypothetical protein</title>
			<polygon class=" (KKANDCCO_01213)
hypothetical protein" points="109,40 138,10 138,70" fill="rgb(255,255,255)" fill-opacity="1.0" stroke="rgb(0,0,0)" stroke-width="2"  />
		</g>
		<g>
			<title> (KKANDCCO_01214)
hypothetical protein</title>
			<polygon class=" (KKANDCCO_01214)
hypothetical protein" points="148,40 156,10 156,70" fill="rgb(255,255,255)" fill-opacity="1.0" stroke="rgb(0,0,0)" stroke-width="2"  />
		</g>
		<g>
			<title> (KKANDCCO_01215)
hypothetical protein</title>
			<polygon class=" (KKANDCCO_01215)
hypothetical protein" points="161,40 164,10 164,70" fill="rgb(255,255,255)" fill-opacity="1.0" stroke="rgb(0,0,0)" stroke-width="2"  />
		</g>
		<g>
			<title> (KKANDCCO_01216)
hypothetical protein</title>
			<polygon class=" (KKANDCCO_01216)
hypothetical protein" points="167,40 172,10 172,70" fill="rgb(255,255,255)" fill-opacity="1.0" stroke="rgb(0,0,0)" stroke-width="2"  />
		</g>
		<g>
			<title> (KKANDCCO_01217)
hypothetical protein</title>
			<polygon class=" (KKANDCCO_01217)
hypothetical protein" points="175,40 180,10 180,70" fill="rgb(255,255,255)" fill-opacity="1.0" stroke="rgb(0,0,0)" stroke-width="2"  />
		</g>
		<g>
			<title> (KKANDCCO_01218)
hypothetical protein</title>
			<polygon class=" (KKANDCCO_01218)
hypothetical protein" points="179,40 190,10 190,70" fill="rgb(255,255,255)" fill-opacity="1.0" stroke="rgb(0,0,0)" stroke-width="2"  />
		</g>
		<g>
			<title> (KKANDCCO_01219)
hypothetical protein</title>
			<polygon class=" (KKANDCCO_01219)
hypothetical protein" points="199,40 223,10 223,70" fill="rgb(255,255,255)" fill-opacity="1.0" stroke="rgb(0,0,0)" stroke-width="2"  />
			<g>
				<title>Metallophos_2 (PF12850)
"Calcineurin-like phosphoesterase superfamily domain"</title>
				<polygon class="PF12850" points="203,40 213,28 223,28 223,52 213,52 203,40" stroke-linejoin="round" width="20" height="24" fill="rgb(143,76,212)" stroke="rgb(114,60,169)" stroke-width="1" opacity="0.75" />
			</g>
		</g>
		<g>
			<title> (KKANDCCO_01220)
hypothetical protein</title>
			<polygon class=" (KKANDCCO_01220)
hypothetical protein" points="228,40 249,10 249,70" fill="rgb(255,255,255)" fill-opacity="1.0" stroke="rgb(0,0,0)" stroke-width="2"  />
		</g>
		<g>
			<title> (KKANDCCO_01221)
hypothetical protein</title>
			<polygon class=" (KKANDCCO_01221)
hypothetical protein" points="251,40 276,10 276,70" fill="rgb(255,255,255)" fill-opacity="1.0" stroke="rgb(0,0,0)" stroke-width="2"  />
			<g>
				<title>Methyltransf_11 (PF08241)
"Methyltransferase domain"</title>
				<polygon class="PF08241" points="260,34 265,28 269,28 269,52 265,52 260,46" stroke-linejoin="round" width="9" height="24" fill="rgb(106,219,159)" stroke="rgb(84,175,127)" stroke-width="1" opacity="0.75" />
			</g>
		</g>
		<g>
			<title>pbpE (KKANDCCO_01222)
Penicillin-binding protein 4*</title>
			<polygon class="pbpE (KKANDCCO_01222)
Penicillin-binding protein 4*" points="311,25 307,25 307,10 277,40 307,70 307,55 311,55" fill="rgb(255,255,255)" fill-opacity="1.0" stroke="rgb(0,0,0)" stroke-width="2"  />
			<g>
				<title>Beta-lactamase (PF00144)
"Beta-lactamase"</title>
				<polygon class="PF00144" points="281,40 293,28 309,28 309,52 293,52" stroke-linejoin="round" width="32" height="24" fill="rgb(92,159,200)" stroke="rgb(73,127,160)" stroke-width="1" opacity="0.75" />
			</g>
		</g>
		<g>
			<title>pfyP_2 (KKANDCCO_01223)
Blue-light photoreceptor</title>
			<polygon class="pfyP_2 (KKANDCCO_01223)
Blue-light photoreceptor" points="315,40 339,10 339,70" fill="rgb(255,255,255)" fill-opacity="1.0" stroke="rgb(0,0,0)" stroke-width="2"  />
			<g>
				<title>PAS_4 (PF08448)
"PAS fold"</title>
				<polygon class="PF08448" points="328,29 329,28 338,28 338,52 329,52 328,51" stroke-linejoin="round" width="10" height="24" fill="rgb(50,90,192)" stroke="rgb(40,71,153)" stroke-width="1" opacity="0.75" />
			</g>
		</g>
		<g>
			<title>sqhC (KKANDCCO_01224)
Sporulenol synthase</title>
			<polygon class="sqhC (KKANDCCO_01224)
Sporulenol synthase" points="405,25 373,25 373,10 343,40 373,70 373,55 405,55" fill="rgb(255,255,255)" fill-opacity="1.0" stroke="rgb(0,0,0)" stroke-width="2"  />
			<g>
				<title>SQHop_cyclase_C (PF13243)
"Squalene-hopene cyclase C-terminal domain"</title>
				<polygon class="PF13243" points="347,40 359,28 374,28 374,52 359,52" stroke-linejoin="round" width="31" height="24" fill="rgb(191,58,201)" stroke="rgb(152,46,160)" stroke-width="1" opacity="0.75" />
			</g>
			<g>
				<title>SQHop_cyclase_N (PF13249)
"Squalene-hopene cyclase N-terminal domain"</title>
				<rect class="PF13249" x="376" y="28" stroke-linejoin="round" width="28" height="24" fill="rgb(88,190,89)" stroke="rgb(70,152,71)" stroke-width="1" opacity="0.75" />
			</g>
		</g>
		<g>
			<title> (KKANDCCO_01225)
hypothetical protein</title>
			<polygon class=" (KKANDCCO_01225)
hypothetical protein" points="408,25 414,25 414,10 444,40 414,70 414,55 408,55" fill="rgb(255,255,255)" fill-opacity="1.0" stroke="rgb(0,0,0)" stroke-width="2"  />
			<g>
				<title>DUF2515 (PF10720)
"Protein of unknown function (DUF2515)"</title>
				<polygon class="PF10720" points="411,28 428,28 440,40 428,52 411,52" stroke-linejoin="round" width="32" height="24" fill="rgb(66,168,216)" stroke="rgb(52,134,172)" stroke-width="1" opacity="0.75" />
			</g>
		</g>
		<g>
			<title> (KKANDCCO_01226)
hypothetical protein</title>
			<polygon class=" (KKANDCCO_01226)
hypothetical protein" points="446,40 453,10 453,70" fill="rgb(255,255,255)" fill-opacity="1.0" stroke="rgb(0,0,0)" stroke-width="2"  />
			<g>
				<title>DUF3886 (PF13025)
"Protein of unknown function (DUF3886)"</title>
				<polygon class="PF13025" points="449,40 452,28 452,28 452,52 452,52" stroke-linejoin="round" width="6" height="24" fill="rgb(218,105,228)" stroke="rgb(174,84,182)" stroke-width="1" opacity="0.75" />
			</g>
		</g>
		<g>
			<title> (KKANDCCO_01227)
hypothetical protein</title>
			<polygon class=" (KKANDCCO_01227)
hypothetical protein" points="454,40 465,10 465,70" fill="rgb(255,255,255)" fill-opacity="1.0" stroke="rgb(0,0,0)" stroke-width="2"  />
			<g>
				<title>Fe-S_biosyn (PF01521)
"Iron-sulphur cluster biosynthesis"</title>
				<polygon class="PF01521" points="457,40 461,28 464,28 464,52 461,52" stroke-linejoin="round" width="10" height="24" fill="rgb(179,60,127)" stroke="rgb(143,47,101)" stroke-width="1" opacity="0.75" />
			</g>
		</g>
		<g>
			<title>umuC (KKANDCCO_01228)
Protein UmuC</title>
			<polygon class="umuC (KKANDCCO_01228)
Protein UmuC" points="509,25 497,25 497,10 467,40 497,70 497,55 509,55" fill="rgb(255,255,255)" fill-opacity="1.0" stroke="rgb(0,0,0)" stroke-width="2"  />
			<g>
				<title>IMS_C (PF11799)
"impB/mucB/samB family C-terminal domain"</title>
				<polygon class="PF11799" points="472,39 483,28 483,28 483,52 483,52 472,41" stroke-linejoin="round" width="11" height="24" fill="rgb(68,195,187)" stroke="rgb(54,156,149)" stroke-width="1" opacity="0.75" />
			</g>
			<g>
				<title>IMS_HHH (PF11798)
"IMS family HHH motif"</title>
				<rect class="PF11798" x="488" y="28" stroke-linejoin="round" width="3" height="24" fill="rgb(81,199,189)" stroke="rgb(64,159,151)" stroke-width="1" opacity="0.75" />
			</g>
			<g>
				<title>IMS (PF00817)
"impB/mucB/samB family"</title>
				<rect class="PF00817" x="492" y="28" stroke-linejoin="round" width="15" height="24" fill="rgb(187,207,75)" stroke="rgb(149,165,60)" stroke-width="1" opacity="0.75" />
			</g>
		</g>
		<g>
			<title> (KKANDCCO_01229)
putative oxidoreductase</title>
			<polygon class=" (KKANDCCO_01229)
putative oxidoreductase" points="514,40 540,10 540,70" fill="rgb(255,255,255)" fill-opacity="1.0" stroke="rgb(0,0,0)" stroke-width="2"  />
			<g>
				<title>adh_short (PF00106)
"short chain dehydrogenase"</title>
				<polygon class="PF00106" points="520,38 529,28 539,28 539,52 529,52 520,42" stroke-linejoin="round" width="19" height="24" fill="rgb(182,219,73)" stroke="rgb(145,175,58)" stroke-width="1" opacity="0.75" />
			</g>
		</g>
		<g>
			<title> (KKANDCCO_01230)
hypothetical protein</title>
			<polygon class=" (KKANDCCO_01230)
hypothetical protein" points="572,25 570,25 570,10 540,40 570,70 570,55 572,55" fill="rgb(255,255,255)" fill-opacity="1.0" stroke="rgb(0,0,0)" stroke-width="2"  />
			<g>
				<title>Lactamase_B (PF00753)
"Metallo-beta-lactamase superfamily"</title>
				<polygon class="PF00753" points="548,36 556,28 569,28 569,52 556,52 548,44" stroke-linejoin="round" width="21" height="24" fill="rgb(206,198,96)" stroke="rgb(164,158,76)" stroke-width="1" opacity="0.75" />
			</g>
		</g>
		<g>
			<title>rocB (KKANDCCO_01231)
Protein RocB</title>
			<polygon class="rocB (KKANDCCO_01231)
Protein RocB" points="647,25 623,25 623,10 593,40 623,70 623,55 647,55" fill="rgb(255,255,255)" fill-opacity="1.0" stroke="rgb(0,0,0)" stroke-width="2"  />
			<g>
				<title>Peptidase_M20 (PF01546)
"Peptidase family M20/M25/M40"</title>
				<polygon class="PF01546" points="597,40 609,28 638,28 638,52 609,52" stroke-linejoin="round" width="45" height="24" fill="rgb(88,213,108)" stroke="rgb(70,170,86)" stroke-width="1" opacity="0.75" />
			</g>
		</g>
		<g>
			<title>glpQ_2 (KKANDCCO_01232)
Glycerophosphodiester phosphodiesterase</title>
			<polygon class="glpQ_2 (KKANDCCO_01232)
Glycerophosphodiester phosphodiesterase" points="650,10 675,40 650,70" fill="rgb(255,255,255)" fill-opacity="1.0" stroke="rgb(0,0,0)" stroke-width="2"  />
			<g>
				<title>GDPD (PF03009)
"Glycerophosphoryl diester phosphodiesterase family"</title>
				<polygon class="PF03009" points="650,28 661,28 671,40 661,52 650,52" stroke-linejoin="round" width="22" height="24" fill="rgb(196,119,93)" stroke="rgb(156,95,74)" stroke-width="1" opacity="0.75" />
			</g>
		</g>
		<g>
			<title> (KKANDCCO_01233)
hypothetical protein</title>
			<polygon class=" (KKANDCCO_01233)
hypothetical protein" points="676,25 684,25 684,10 714,40 684,70 684,55 676,55" fill="rgb(255,255,255)" fill-opacity="1.0" stroke="rgb(0,0,0)" stroke-width="2"  />
			<g>
				<title>Glycos_transf_2 (PF00535)
"Glycosyl transferase family 2"</title>
				<rect class="PF00535" x="680" y="28" stroke-linejoin="round" width="17" height="24" fill="rgb(224,122,96)" stroke="rgb(179,97,76)" stroke-width="1" opacity="0.75" />
			</g>
		</g>
	</g>
</svg>
