<svg version="1.1" baseProfile="full" xmlns="http://www.w3.org/2000/svg" width="1389.4333333333334" height="80">
	<g>
		<line x1="10" y1="40.0" x2="1379.4333333333334" y2="40.0" style="stroke:rgb(70,70,70); stroke-width:3 "/>
		<g>
			<title> (FGNEMNIM_00382)
hypothetical protein</title>
			<polygon class=" (FGNEMNIM_00382)
hypothetical protein" points="54,25 50,25 50,10 20,40 50,70 50,55 54,55" fill="rgb(255,255,255)" fill-opacity="1.0" stroke="rgb(0,0,0)" stroke-width="2"  />
			<g>
				<title>AbrB (PF05145)
"Transition state regulatory protein AbrB"</title>
				<polygon class="PF05145" points="24,40 36,28 51,28 51,52 36,52" stroke-linejoin="round" width="31" height="24" fill="rgb(95,98,223)" stroke="rgb(76,78,178)" stroke-width="1" opacity="0.75" />
			</g>
		</g>
		<g>
			<title>fadR_1 (FGNEMNIM_00383)
Fatty acid metabolism regulator protein</title>
			<polygon class="fadR_1 (FGNEMNIM_00383)
Fatty acid metabolism regulator protein" points="58,40 77,10 77,70" fill="rgb(255,255,255)" fill-opacity="1.0" stroke="rgb(0,0,0)" stroke-width="2"  />
			<g>
				<title>TetR_N (PF00440)
"Bacterial regulatory proteins, tetR family"</title>
				<rect class="PF00440" x="71" y="28" stroke-linejoin="round" width="4" height="24" fill="rgb(73,212,190)" stroke="rgb(58,169,152)" stroke-width="1" opacity="0.75" />
			</g>
		</g>
		<g>
			<title>msrB_2 (FGNEMNIM_00384)
Peptide methionine sulfoxide reductase MsrB</title>
			<polygon class="msrB_2 (FGNEMNIM_00384)
Peptide methionine sulfoxide reductase MsrB" points="111,25 109,25 109,10 79,40 109,70 109,55 111,55" fill="rgb(255,255,255)" fill-opacity="1.0" stroke="rgb(0,0,0)" stroke-width="2"  />
			<g>
				<title>SelR (PF01641)
"SelR domain"</title>
				<polygon class="PF01641" points="83,40 92,31 92,49" stroke-linejoin="round" width="12" height="24" fill="rgb(192,99,202)" stroke="rgb(153,79,161)" stroke-width="1" opacity="0.75" />
			</g>
			<g>
				<title>PMSR (PF01625)
"Peptide methionine sulfoxide reductase"</title>
				<polygon class="PF01625" points="95,28 95,28 110,28 110,52 95,52 95,52" stroke-linejoin="round" width="15" height="24" fill="rgb(201,74,176)" stroke="rgb(160,59,140)" stroke-width="1" opacity="0.75" />
			</g>
		</g>
		<g>
			<title> (FGNEMNIM_00385)
hypothetical protein</title>
			<polygon class=" (FGNEMNIM_00385)
hypothetical protein" points="114,40 132,10 132,70" fill="rgb(255,255,255)" fill-opacity="1.0" stroke="rgb(0,0,0)" stroke-width="2"  />
			<g>
				<title>YqfQ (PF14181)
"YqfQ-like protein"</title>
				<polygon class="PF14181" points="118,40 125,28 132,28 132,52 125,52" stroke-linejoin="round" width="18" height="24" fill="rgb(207,119,57)" stroke="rgb(165,95,45)" stroke-width="1" opacity="0.75" />
			</g>
		</g>
		<g>
			<title>ung (FGNEMNIM_00386)
Uracil-DNA glycosylase</title>
			<polygon class="ung (FGNEMNIM_00386)
Uracil-DNA glycosylase" points="134,40 157,10 157,70" fill="rgb(255,255,255)" fill-opacity="1.0" stroke="rgb(0,0,0)" stroke-width="2"  />
			<g>
				<title>UDG (PF03167)
"Uracil DNA glycosylase superfamily"</title>
				<polygon class="PF03167" points="138,40 147,28 152,28 152,52 147,52" stroke-linejoin="round" width="16" height="24" fill="rgb(64,224,60)" stroke="rgb(51,179,48)" stroke-width="1" opacity="0.75" />
			</g>
		</g>
		<g>
			<title> (FGNEMNIM_00387)
hypothetical protein</title>
			<polygon class=" (FGNEMNIM_00387)
hypothetical protein" points="266,25 193,25 193,10 163,40 193,70 193,55 266,55" fill="rgb(255,255,255)" fill-opacity="1.0" stroke="rgb(0,0,0)" stroke-width="2"  />
			<g>
				<title>SbcCD_C (PF13558)
"Putative exonuclease SbcCD, C subunit"</title>
				<polygon class="PF13558" points="167,40 175,32 175,48 167,40" stroke-linejoin="round" width="8" height="24" fill="rgb(84,179,84)" stroke="rgb(67,143,67)" stroke-width="1" opacity="0.75" />
			</g>
			<g>
				<title>AAA_23 (PF13476)
"AAA domain"</title>
				<rect class="PF13476" x="242" y="28" stroke-linejoin="round" width="24" height="24" fill="rgb(57,185,214)" stroke="rgb(45,147,171)" stroke-width="1" opacity="0.75" />
			</g>
		</g>
		<g>
			<title>sbcD (FGNEMNIM_00388)
Nuclease SbcCD subunit D</title>
			<polygon class="sbcD (FGNEMNIM_00388)
Nuclease SbcCD subunit D" points="305,25 297,25 297,10 267,40 297,70 297,55 305,55" fill="rgb(255,255,255)" fill-opacity="1.0" stroke="rgb(0,0,0)" stroke-width="2"  />
			<g>
				<title>SbcD_C (PF12320)
"Type 5 capsule protein repressor C-terminal domain"</title>
				<polygon class="PF12320" points="271,40 278,33 278,47" stroke-linejoin="round" width="9" height="24" fill="rgb(182,136,65)" stroke="rgb(145,108,52)" stroke-width="1" opacity="0.75" />
			</g>
			<g>
				<title>Metallophos (PF00149)
"Calcineurin-like phosphoesterase"</title>
				<polygon class="PF00149" points="283,28 283,28 304,28 304,52 283,52 283,52" stroke-linejoin="round" width="21" height="24" fill="rgb(181,197,58)" stroke="rgb(144,157,46)" stroke-width="1" opacity="0.75" />
			</g>
		</g>
		<g>
			<title> (FGNEMNIM_00389)
hypothetical protein</title>
			<polygon class=" (FGNEMNIM_00389)
hypothetical protein" points="306,40 313,10 313,70" fill="rgb(255,255,255)" fill-opacity="1.0" stroke="rgb(0,0,0)" stroke-width="2"  />
			<g>
				<title>YozE_SAM_like (PF06855)
"YozE SAM-like fold"</title>
				<polygon class="PF06855" points="309,40 312,28 312,28 312,52 312,52" stroke-linejoin="round" width="6" height="24" fill="rgb(83,201,171)" stroke="rgb(66,160,136)" stroke-width="1" opacity="0.75" />
			</g>
		</g>
		<g>
			<title>tatC1 (FGNEMNIM_00390)
Sec-independent protein translocase protein TatCd</title>
			<polygon class="tatC1 (FGNEMNIM_00390)
Sec-independent protein translocase protein TatCd" points="319,40 343,10 343,70" fill="rgb(255,255,255)" fill-opacity="1.0" stroke="rgb(0,0,0)" stroke-width="2"  />
			<g>
				<title>TatC (PF00902)
"Sec-independent protein translocase protein (TatC)"</title>
				<polygon class="PF00902" points="323,40 333,28 342,28 342,52 333,52" stroke-linejoin="round" width="20" height="24" fill="rgb(84,193,209)" stroke="rgb(67,154,167)" stroke-width="1" opacity="0.75" />
			</g>
		</g>
		<g>
			<title>tatAd_1 (FGNEMNIM_00391)
Sec-independent protein translocase protein TatAd</title>
			<polygon class="tatAd_1 (FGNEMNIM_00391)
Sec-independent protein translocase protein TatAd" points="347,40 353,10 353,70" fill="rgb(255,255,255)" fill-opacity="1.0" stroke="rgb(0,0,0)" stroke-width="2"  />
			<g>
				<title>MttA_Hcf106 (PF02416)
"mttA/Hcf106 family"</title>
				<polygon class="PF02416" points="350,40 352,30 352,50" stroke-linejoin="round" width="5" height="24" fill="rgb(74,206,98)" stroke="rgb(59,164,78)" stroke-width="1" opacity="0.75" />
			</g>
		</g>
		<g>
			<title>tatAd_2 (FGNEMNIM_00392)
Sec-independent protein translocase protein TatAd</title>
			<polygon class="tatAd_2 (FGNEMNIM_00392)
Sec-independent protein translocase protein TatAd" points="355,40 360,10 360,70" fill="rgb(255,255,255)" fill-opacity="1.0" stroke="rgb(0,0,0)" stroke-width="2"  />
			<g>
				<title>MttA_Hcf106 (PF02416)
"mttA/Hcf106 family"</title>
				<polygon class="PF02416" points="358,40 360,28 360,28 360,52 360,52" stroke-linejoin="round" width="5" height="24" fill="rgb(74,206,98)" stroke="rgb(59,164,78)" stroke-width="1" opacity="0.75" />
			</g>
		</g>
		<g>
			<title>mobA (FGNEMNIM_00393)
Molybdenum cofactor guanylyltransferase</title>
			<polygon class="mobA (FGNEMNIM_00393)
Molybdenum cofactor guanylyltransferase" points="365,40 383,10 383,70" fill="rgb(255,255,255)" fill-opacity="1.0" stroke="rgb(0,0,0)" stroke-width="2"  />
			<g>
				<title>NTP_transf_3 (PF12804)
"MobA-like NTP transferase domain"</title>
				<polygon class="PF12804" points="369,40 376,28 383,28 383,52 376,52 369,40" stroke-linejoin="round" width="14" height="24" fill="rgb(52,209,196)" stroke="rgb(41,167,156)" stroke-width="1" opacity="0.75" />
			</g>
		</g>
		<g>
			<title> (FGNEMNIM_00394)
IS1595 family transposase ISSsu9</title>
			<polygon class=" (FGNEMNIM_00394)
IS1595 family transposase ISSsu9" points="385,40 401,10 401,70" fill="rgb(255,255,255)" fill-opacity="1.0" stroke="rgb(0,0,0)" stroke-width="2"  />
			<g>
				<title>DHFR_1 (PF00186)
"Dihydrofolate reductase"</title>
				<polygon class="PF00186" points="388,40 395,28 401,28 401,52 395,52" stroke-linejoin="round" width="16" height="24" fill="rgb(150,188,63)" stroke="rgb(119,150,50)" stroke-width="1" opacity="0.75" />
			</g>
		</g>
		<g>
			<title>thyA (FGNEMNIM_00395)
Thymidylate synthase</title>
			<polygon class="thyA (FGNEMNIM_00395)
Thymidylate synthase" points="443,25 441,25 441,10 411,40 441,70 441,55 443,55" fill="rgb(255,255,255)" fill-opacity="1.0" stroke="rgb(0,0,0)" stroke-width="2"  />
			<g>
				<title>Thymidylat_synt (PF00303)
"Thymidylate synthase"</title>
				<polygon class="PF00303" points="415,40 427,28 442,28 442,52 427,52" stroke-linejoin="round" width="31" height="24" fill="rgb(103,91,191)" stroke="rgb(82,72,152)" stroke-width="1" opacity="0.75" />
			</g>
		</g>
		<g>
			<title>yedJ (FGNEMNIM_00396)
putative protein YedJ</title>
			<polygon class="yedJ (FGNEMNIM_00396)
putative protein YedJ" points="442,40 462,10 462,70" fill="rgb(255,255,255)" fill-opacity="1.0" stroke="rgb(0,0,0)" stroke-width="2"  />
			<g>
				<title>HD (PF01966)
"HD domain"</title>
				<polygon class="PF01966" points="450,34 454,28 459,28 459,52 454,52 450,46" stroke-linejoin="round" width="9" height="24" fill="rgb(92,193,119)" stroke="rgb(73,154,95)" stroke-width="1" opacity="0.75" />
			</g>
		</g>
		<g>
			<title> (FGNEMNIM_00397)
hypothetical protein</title>
			<polygon class=" (FGNEMNIM_00397)
hypothetical protein" points="463,40 491,10 491,70" fill="rgb(255,255,255)" fill-opacity="1.0" stroke="rgb(0,0,0)" stroke-width="2"  />
			<g>
				<title>DUF72 (PF01904)
"Protein of unknown function DUF72"</title>
				<polygon class="PF01904" points="467,40 478,28 488,28 488,52 478,52" stroke-linejoin="round" width="24" height="24" fill="rgb(63,151,204)" stroke="rgb(50,120,163)" stroke-width="1" opacity="0.75" />
			</g>
		</g>
		<g>
			<title>fhs1 (FGNEMNIM_00398)
Formate--tetrahydrofolate ligase 1</title>
			<polygon class="fhs1 (FGNEMNIM_00398)
Formate--tetrahydrofolate ligase 1" points="550,25 525,25 525,10 495,40 525,70 525,55 550,55" fill="rgb(255,255,255)" fill-opacity="1.0" stroke="rgb(0,0,0)" stroke-width="2"  />
			<g>
				<title>FTHFS (PF01268)
"Formate--tetrahydrofolate ligase"</title>
				<polygon class="PF01268" points="499,40 511,28 550,28 550,52 511,52" stroke-linejoin="round" width="55" height="24" fill="rgb(215,182,81)" stroke="rgb(172,145,64)" stroke-width="1" opacity="0.75" />
			</g>
		</g>
		<g>
			<title>cspA_2 (FGNEMNIM_00399)
Cold shock protein CspA</title>
			<polygon class="cspA_2 (FGNEMNIM_00399)
Cold shock protein CspA" points="561,10 567,40 561,70" fill="rgb(255,255,255)" fill-opacity="1.0" stroke="rgb(0,0,0)" stroke-width="2"  />
			<g>
				<title>CSD (PF00313)
"'Cold-shock' DNA-binding domain"</title>
				<polygon class="PF00313" points="561,28 561,28 564,40 561,52 561,52" stroke-linejoin="round" width="6" height="24" fill="rgb(87,72,181)" stroke="rgb(69,57,144)" stroke-width="1" opacity="0.75" />
			</g>
		</g>
		<g>
			<title> (FGNEMNIM_00400)
queuosine precursor transporter</title>
			<polygon class=" (FGNEMNIM_00400)
queuosine precursor transporter" points="599,10 621,40 599,70" fill="rgb(255,255,255)" fill-opacity="1.0" stroke="rgb(0,0,0)" stroke-width="2"  />
			<g>
				<title>Vut_1 (PF02592)
"Putative vitamin uptake transporter"</title>
				<polygon class="PF02592" points="604,28 609,28 617,40 609,52 604,52" stroke-linejoin="round" width="16" height="24" fill="rgb(93,184,75)" stroke="rgb(74,147,60)" stroke-width="1" opacity="0.75" />
			</g>
		</g>
		<g>
			<title>rnhA (FGNEMNIM_00401)
14.7 kDa ribonuclease H-like protein</title>
			<polygon class="rnhA (FGNEMNIM_00401)
14.7 kDa ribonuclease H-like protein" points="622,10 635,40 622,70" fill="rgb(255,255,255)" fill-opacity="1.0" stroke="rgb(0,0,0)" stroke-width="2"  />
			<g>
				<title>RVT_3 (PF13456)
"Reverse transcriptase-like"</title>
				<polygon class="PF13456" points="622,28 626,28 632,40 626,52 622,52" stroke-linejoin="round" width="12" height="24" fill="rgb(198,123,86)" stroke="rgb(158,98,68)" stroke-width="1" opacity="0.75" />
			</g>
		</g>
		<g>
			<title> (FGNEMNIM_00402)
hypothetical protein</title>
			<polygon class=" (FGNEMNIM_00402)
hypothetical protein" points="636,40 645,10 645,70" fill="rgb(255,255,255)" fill-opacity="1.0" stroke="rgb(0,0,0)" stroke-width="2"  />
		</g>
		<g>
			<title> (FGNEMNIM_00403)
hypothetical protein</title>
			<polygon class=" (FGNEMNIM_00403)
hypothetical protein" points="659,40 676,10 676,70" fill="rgb(255,255,255)" fill-opacity="1.0" stroke="rgb(0,0,0)" stroke-width="2"  />
			<g>
				<title>ICMT (PF04140)
"Isoprenylcysteine carboxyl methyltransferase (ICMT) family"</title>
				<polygon class="PF04140" points="662,40 668,29 668,51" stroke-linejoin="round" width="9" height="24" fill="rgb(100,223,104)" stroke="rgb(80,178,83)" stroke-width="1" opacity="0.75" />
			</g>
		</g>
		<g>
			<title> (FGNEMNIM_00404)
Alpha-pyrone synthesis polyketide synthase-like Pks11</title>
			<polygon class=" (FGNEMNIM_00404)
Alpha-pyrone synthesis polyketide synthase-like Pks11" points="712,25 706,25 706,10 676,40 706,70 706,55 712,55" fill="rgb(255,255,255)" fill-opacity="1.0" stroke="rgb(0,0,0)" stroke-width="2"  />
			<g>
				<title>Chal_sti_synt_C (PF02797)
"Chalcone and stilbene synthases, C-terminal domain"</title>
				<polygon class="PF02797" points="680,40 689,31 689,49" stroke-linejoin="round" width="13" height="24" fill="rgb(139,212,63)" stroke="rgb(111,169,50)" stroke-width="1" opacity="0.75" />
			</g>
			<g>
				<title>Chal_sti_synt_N (PF00195)
"Chalcone and stilbene synthases, N-terminal domain"</title>
				<polygon class="PF00195" points="691,29 692,28 708,28 708,52 692,52 691,51" stroke-linejoin="round" width="17" height="24" fill="rgb(60,181,161)" stroke="rgb(47,144,128)" stroke-width="1" opacity="0.75" />
			</g>
		</g>
		<g>
			<title> (FGNEMNIM_00405)
hypothetical protein</title>
			<polygon class=" (FGNEMNIM_00405)
hypothetical protein" points="721,10 729,40 721,70" fill="rgb(255,255,255)" fill-opacity="1.0" stroke="rgb(0,0,0)" stroke-width="2"  />
		</g>
		<g>
			<title>gno (FGNEMNIM_00406)
Gluconate 5-dehydrogenase</title>
			<polygon class="gno (FGNEMNIM_00406)
Gluconate 5-dehydrogenase" points="734,40 759,10 759,70" fill="rgb(255,255,255)" fill-opacity="1.0" stroke="rgb(0,0,0)" stroke-width="2"  />
			<g>
				<title>adh_short_C2 (PF13561)
"Enoyl-(Acyl carrier protein) reductase"</title>
				<polygon class="PF13561" points="738,40 748,28 757,28 757,52 748,52" stroke-linejoin="round" width="23" height="24" fill="rgb(73,205,127)" stroke="rgb(58,164,101)" stroke-width="1" opacity="0.75" />
			</g>
		</g>
		<g>
			<title> (FGNEMNIM_00407)
hypothetical protein</title>
			<polygon class=" (FGNEMNIM_00407)
hypothetical protein" points="764,10 782,40 764,70" fill="rgb(255,255,255)" fill-opacity="1.0" stroke="rgb(0,0,0)" stroke-width="2"  />
		</g>
		<g>
			<title>ypwA (FGNEMNIM_00408)
Carboxypeptidase 1</title>
			<polygon class="ypwA (FGNEMNIM_00408)
Carboxypeptidase 1" points="833,25 814,25 814,10 784,40 814,70 814,55 833,55" fill="rgb(255,255,255)" fill-opacity="1.0" stroke="rgb(0,0,0)" stroke-width="2"  />
			<g>
				<title>Peptidase_M32 (PF02074)
"Carboxypeptidase Taq (M32) metallopeptidase"</title>
				<polygon class="PF02074" points="788,40 800,28 832,28 832,52 800,52" stroke-linejoin="round" width="48" height="24" fill="rgb(213,142,93)" stroke="rgb(170,113,74)" stroke-width="1" opacity="0.75" />
			</g>
		</g>
		<g>
			<title>rlmL (FGNEMNIM_00409)
Ribosomal RNA large subunit methyltransferase L</title>
			<polygon class="rlmL (FGNEMNIM_00409)
Ribosomal RNA large subunit methyltransferase L" points="874,25 865,25 865,10 835,40 865,70 865,55 874,55" fill="rgb(255,255,255)" fill-opacity="1.0" stroke="rgb(0,0,0)" stroke-width="2"  />
			<g>
				<title>UPF0020 (PF01170)
"Putative RNA methylase family UPF0020"</title>
				<polygon class="PF01170" points="839,40 851,28 856,28 856,52 851,52" stroke-linejoin="round" width="20" height="24" fill="rgb(89,182,69)" stroke="rgb(71,145,55)" stroke-width="1" opacity="0.75" />
			</g>
			<g>
				<title>THUMP (PF02926)
"THUMP domain"</title>
				<rect class="PF02926" x="858" y="28" stroke-linejoin="round" width="14" height="24" fill="rgb(52,209,163)" stroke="rgb(41,167,130)" stroke-width="1" opacity="0.75" />
			</g>
		</g>
		<g>
			<title> (FGNEMNIM_00410)
hypothetical protein</title>
			<polygon class=" (FGNEMNIM_00410)
hypothetical protein" points="885,40 890,10 890,70" fill="rgb(255,255,255)" fill-opacity="1.0" stroke="rgb(0,0,0)" stroke-width="2"  />
		</g>
		<g>
			<title>gpsB (FGNEMNIM_00411)
Cell cycle protein GpsB</title>
			<polygon class="gpsB (FGNEMNIM_00411)
Cell cycle protein GpsB" points="895,40 905,10 905,70" fill="rgb(255,255,255)" fill-opacity="1.0" stroke="rgb(0,0,0)" stroke-width="2"  />
			<g>
				<title>DivIVA (PF05103)
"DivIVA protein"</title>
				<polygon class="PF05103" points="898,40 902,28 904,28 904,52 902,52 898,40" stroke-linejoin="round" width="6" height="24" fill="rgb(213,106,117)" stroke="rgb(170,84,93)" stroke-width="1" opacity="0.75" />
			</g>
		</g>
		<g>
			<title> (FGNEMNIM_00412)
hypothetical protein</title>
			<polygon class=" (FGNEMNIM_00412)
hypothetical protein" points="907,40 925,10 925,70" fill="rgb(255,255,255)" fill-opacity="1.0" stroke="rgb(0,0,0)" stroke-width="2"  />
			<g>
				<title>YpsA (PF06908)
"YspA SLOG family"</title>
				<polygon class="PF06908" points="911,40 919,28 924,28 924,52 919,52" stroke-linejoin="round" width="16" height="24" fill="rgb(136,100,209)" stroke="rgb(108,80,167)" stroke-width="1" opacity="0.75" />
			</g>
		</g>
		<g>
			<title> (FGNEMNIM_00413)
hypothetical protein</title>
			<polygon class=" (FGNEMNIM_00413)
hypothetical protein" points="929,40 948,10 948,70" fill="rgb(255,255,255)" fill-opacity="1.0" stroke="rgb(0,0,0)" stroke-width="2"  />
			<g>
				<title>Spore-coat_CotD (PF11122)
"Inner spore coat protein D"</title>
				<polygon class="PF11122" points="933,40 941,28 945,28 945,52 941,52" stroke-linejoin="round" width="16" height="24" fill="rgb(221,153,69)" stroke="rgb(176,122,55)" stroke-width="1" opacity="0.75" />
			</g>
		</g>
		<g>
			<title>cdd (FGNEMNIM_00414)
Cytidine deaminase</title>
			<polygon class="cdd (FGNEMNIM_00414)
Cytidine deaminase" points="958,40 971,10 971,70" fill="rgb(255,255,255)" fill-opacity="1.0" stroke="rgb(0,0,0)" stroke-width="2"  />
			<g>
				<title>dCMP_cyt_deam_1 (PF00383)
"Cytidine and deoxycytidylate deaminase zinc-binding region"</title>
				<polygon class="PF00383" points="961,40 966,28 971,28 971,52 966,52 961,40" stroke-linejoin="round" width="10" height="24" fill="rgb(91,149,216)" stroke="rgb(72,119,172)" stroke-width="1" opacity="0.75" />
			</g>
		</g>
		<g>
			<title>arpB (FGNEMNIM_00415)
Antibiotic efflux pump membrane transporter ArpB</title>
			<polygon class="arpB (FGNEMNIM_00415)
Antibiotic efflux pump membrane transporter ArpB" points="977,25 1048,25 1048,10 1078,40 1048,70 1048,55 977,55" fill="rgb(255,255,255)" fill-opacity="1.0" stroke="rgb(0,0,0)" stroke-width="2"  />
			<g>
				<title>ACR_tran (PF00873)
"AcrB/AcrD/AcrF family"</title>
				<polygon class="PF00873" points="977,28 1062,28 1074,40 1062,52 977,52" stroke-linejoin="round" width="101" height="24" fill="rgb(63,191,60)" stroke="rgb(50,152,48)" stroke-width="1" opacity="0.75" />
			</g>
		</g>
		<g>
			<title> (FGNEMNIM_00416)
hypothetical protein</title>
			<polygon class=" (FGNEMNIM_00416)
hypothetical protein" points="1080,40 1092,10 1092,70" fill="rgb(255,255,255)" fill-opacity="1.0" stroke="rgb(0,0,0)" stroke-width="2"  />
			<g>
				<title>DUF1798 (PF08807)
"Bacterial domain of unknown function (DUF1798)"</title>
				<polygon class="PF08807" points="1083,40 1088,28 1090,28 1090,52 1088,52" stroke-linejoin="round" width="10" height="24" fill="rgb(153,201,81)" stroke="rgb(122,160,64)" stroke-width="1" opacity="0.75" />
			</g>
		</g>
		<g>
			<title> (FGNEMNIM_00417)
hypothetical protein</title>
			<polygon class=" (FGNEMNIM_00417)
hypothetical protein" points="1095,40 1103,10 1103,70" fill="rgb(255,255,255)" fill-opacity="1.0" stroke="rgb(0,0,0)" stroke-width="2"  />
		</g>
		<g>
			<title> (FGNEMNIM_00418)
hypothetical protein</title>
			<polygon class=" (FGNEMNIM_00418)
hypothetical protein" points="1108,10 1111,40 1108,70" fill="rgb(255,255,255)" fill-opacity="1.0" stroke="rgb(0,0,0)" stroke-width="2"  />
		</g>
		<g>
			<title> (FGNEMNIM_00419)
hypothetical protein</title>
			<polygon class=" (FGNEMNIM_00419)
hypothetical protein" points="1117,10 1122,40 1117,70" fill="rgb(255,255,255)" fill-opacity="1.0" stroke="rgb(0,0,0)" stroke-width="2"  />
		</g>
		<g>
			<title>recU (FGNEMNIM_00420)
Holliday junction resolvase RecU</title>
			<polygon class="recU (FGNEMNIM_00420)
Holliday junction resolvase RecU" points="1122,10 1141,40 1122,70" fill="rgb(255,255,255)" fill-opacity="1.0" stroke="rgb(0,0,0)" stroke-width="2"  />
			<g>
				<title>RecU (PF03838)
"Recombination protein U"</title>
				<polygon class="PF03838" points="1124,28 1130,28 1138,40 1130,52 1124,52" stroke-linejoin="round" width="16" height="24" fill="rgb(93,204,83)" stroke="rgb(74,163,66)" stroke-width="1" opacity="0.75" />
			</g>
		</g>
		<g>
			<title>ponA (FGNEMNIM_00421)
Penicillin-binding protein 1A/1B</title>
			<polygon class="ponA (FGNEMNIM_00421)
Penicillin-binding protein 1A/1B" points="1142,25 1200,25 1200,10 1230,40 1200,70 1200,55 1142,55" fill="rgb(255,255,255)" fill-opacity="1.0" stroke="rgb(0,0,0)" stroke-width="2"  />
			<g>
				<title>Transgly (PF00912)
"Transglycosylase"</title>
				<rect class="PF00912" x="1149" y="28" stroke-linejoin="round" width="17" height="24" fill="rgb(172,107,216)" stroke="rgb(137,85,172)" stroke-width="1" opacity="0.75" />
			</g>
			<g>
				<title>Transpeptidase (PF00905)
"Penicillin binding protein transpeptidase domain"</title>
				<rect class="PF00905" x="1176" y="28" stroke-linejoin="round" width="27" height="24" fill="rgb(161,226,87)" stroke="rgb(128,180,69)" stroke-width="1" opacity="0.75" />
			</g>
		</g>
		<g>
			<title>nth (FGNEMNIM_00422)
Endonuclease III</title>
			<polygon class="nth (FGNEMNIM_00422)
Endonuclease III" points="1232,40 1254,10 1254,70" fill="rgb(255,255,255)" fill-opacity="1.0" stroke="rgb(0,0,0)" stroke-width="2"  />
			<g>
				<title>EndIII_4Fe-2S (PF10576)
"Iron-sulfur binding domain of endonuclease III"</title>
				<polygon class="PF10576" points="1236,40 1234,43 1234,37" stroke-linejoin="round" width="1" height="24" fill="rgb(203,113,64)" stroke="rgb(162,90,51)" stroke-width="1" opacity="0.75" />
			</g>
			<g>
				<title>HhH-GPD (PF00730)
"HhH-GPD superfamily base excision DNA repair protein"</title>
				<polygon class="PF00730" points="1236,40 1245,28 1249,28 1249,52 1245,52 1236,40" stroke-linejoin="round" width="13" height="24" fill="rgb(190,78,115)" stroke="rgb(152,62,92)" stroke-width="1" opacity="0.75" />
			</g>
		</g>
		<g>
			<title>dnaD (FGNEMNIM_00423)
DNA replication protein DnaD</title>
			<polygon class="dnaD (FGNEMNIM_00423)
DNA replication protein DnaD" points="1254,40 1277,10 1277,70" fill="rgb(255,255,255)" fill-opacity="1.0" stroke="rgb(0,0,0)" stroke-width="2"  />
			<g>
				<title>DnaB_2 (PF07261)
"Replication initiation and membrane attachment"</title>
				<polygon class="PF07261" points="1258,40 1264,32 1264,48" stroke-linejoin="round" width="7" height="24" fill="rgb(136,193,85)" stroke="rgb(108,154,68)" stroke-width="1" opacity="0.75" />
			</g>
		</g>
		<g>
			<title>asnS (FGNEMNIM_00424)
Asparagine--tRNA ligase</title>
			<polygon class="asnS (FGNEMNIM_00424)
Asparagine--tRNA ligase" points="1324,25 1311,25 1311,10 1281,40 1311,70 1311,55 1324,55" fill="rgb(255,255,255)" fill-opacity="1.0" stroke="rgb(0,0,0)" stroke-width="2"  />
			<g>
				<title>tRNA-synt_2 (PF00152)
"tRNA synthetases class II (D, K and N)"</title>
				<polygon class="PF00152" points="1285,40 1297,28 1312,28 1312,52 1297,52" stroke-linejoin="round" width="31" height="24" fill="rgb(90,71,190)" stroke="rgb(72,56,152)" stroke-width="1" opacity="0.75" />
			</g>
			<g>
				<title>tRNA_anti-codon (PF01336)
"OB-fold nucleic acid binding domain"</title>
				<rect class="PF01336" x="1314" y="28" stroke-linejoin="round" width="7" height="24" fill="rgb(215,103,173)" stroke="rgb(172,82,138)" stroke-width="1" opacity="0.75" />
			</g>
		</g>
		<g>
			<title> (FGNEMNIM_00425)
Aspartate aminotransferase</title>
			<polygon class=" (FGNEMNIM_00425)
Aspartate aminotransferase" points="1363,25 1354,25 1354,10 1324,40 1354,70 1354,55 1363,55" fill="rgb(255,255,255)" fill-opacity="1.0" stroke="rgb(0,0,0)" stroke-width="2"  />
			<g>
				<title>Aminotran_1_2 (PF00155)
"Aminotransferase class I and II"</title>
				<polygon class="PF00155" points="1328,40 1340,28 1360,28 1360,52 1340,52" stroke-linejoin="round" width="35" height="24" fill="rgb(89,113,198)" stroke="rgb(71,90,158)" stroke-width="1" opacity="0.75" />
			</g>
		</g>
	</g>
</svg>
