<svg version="1.1" baseProfile="full" xmlns="http://www.w3.org/2000/svg" width="893.2" height="80">
	<g>
		<line x1="10" y1="40.0" x2="883.2" y2="40.0" style="stroke:rgb(70,70,70); stroke-width:3 "/>
		<g>
			<title> (PDEEBABA_02096)
hypothetical protein</title>
			<polygon class=" (PDEEBABA_02096)
hypothetical protein" points="83,25 67,25 67,10 37,40 67,70 67,55 83,55" fill="rgb(255,255,255)" fill-opacity="1.0" stroke="rgb(0,0,0)" stroke-width="2"  />
		</g>
		<g>
			<title>sigO_1 (PDEEBABA_02097)
RNA polymerase sigma factor SigO</title>
			<polygon class="sigO_1 (PDEEBABA_02097)
RNA polymerase sigma factor SigO" points="93,10 110,40 93,70" fill="rgb(255,255,255)" fill-opacity="1.0" stroke="rgb(0,0,0)" stroke-width="2"  />
			<g>
				<title>Sigma70_r4 (PF04545)
"Sigma-70, region 4"</title>
				<polygon class="PF04545" points="105,37 107,40 105,43" stroke-linejoin="round" width="4" height="24" fill="rgb(75,207,224)" stroke="rgb(60,165,179)" stroke-width="1" opacity="0.75" />
			</g>
		</g>
		<g>
			<title> (PDEEBABA_02098)
hypothetical protein</title>
			<polygon class=" (PDEEBABA_02098)
hypothetical protein" points="110,10 115,40 110,70" fill="rgb(255,255,255)" fill-opacity="1.0" stroke="rgb(0,0,0)" stroke-width="2"  />
			<g>
				<title>YvrJ (PF12841)
"YvrJ protein family"</title>
				<polygon class="PF12841" points="111,34 112,40 111,46" stroke-linejoin="round" width="3" height="24" fill="rgb(207,53,76)" stroke="rgb(165,42,60)" stroke-width="1" opacity="0.75" />
			</g>
		</g>
		<g>
			<title> (PDEEBABA_02099)
hypothetical protein</title>
			<polygon class=" (PDEEBABA_02099)
hypothetical protein" points="115,10 122,40 115,70" fill="rgb(255,255,255)" fill-opacity="1.0" stroke="rgb(0,0,0)" stroke-width="2"  />
			<g>
				<title>HTH_16 (PF12645)
"Helix-turn-helix domain"</title>
				<polygon class="PF12645" points="115,28 116,28 119,40 116,52 115,52" stroke-linejoin="round" width="5" height="24" fill="rgb(85,81,181)" stroke="rgb(68,64,144)" stroke-width="1" opacity="0.75" />
			</g>
		</g>
		<g>
			<title> (PDEEBABA_02100)
hypothetical protein</title>
			<polygon class=" (PDEEBABA_02100)
hypothetical protein" points="177,25 159,25 159,10 129,40 159,70 159,55 177,55" fill="rgb(255,255,255)" fill-opacity="1.0" stroke="rgb(0,0,0)" stroke-width="2"  />
			<g>
				<title>CstA_5TM (PF13722)
"5TM C-terminal transporter carbon starvation CstA"</title>
				<polygon class="PF13722" points="134,39 145,28 145,28 145,52 145,52 134,41" stroke-linejoin="round" width="11" height="24" fill="rgb(224,155,111)" stroke="rgb(179,124,88)" stroke-width="1" opacity="0.75" />
			</g>
			<g>
				<title>CstA (PF02554)
"Carbon starvation protein CstA"</title>
				<rect class="PF02554" x="147" y="28" stroke-linejoin="round" width="15" height="24" fill="rgb(153,59,192)" stroke="rgb(122,47,153)" stroke-width="1" opacity="0.75" />
			</g>
			<g>
				<title>CstA (PF02554)
"Carbon starvation protein CstA"</title>
				<rect class="PF02554" x="161" y="28" stroke-linejoin="round" width="15" height="24" fill="rgb(153,59,192)" stroke="rgb(122,47,153)" stroke-width="1" opacity="0.75" />
			</g>
		</g>
		<g>
			<title> (PDEEBABA_02101)
hypothetical protein</title>
			<polygon class=" (PDEEBABA_02101)
hypothetical protein" points="189,10 200,40 189,70" fill="rgb(255,255,255)" fill-opacity="1.0" stroke="rgb(0,0,0)" stroke-width="2"  />
		</g>
		<g>
			<title> (PDEEBABA_02102)
hypothetical protein</title>
			<polygon class=" (PDEEBABA_02102)
hypothetical protein" points="202,10 209,40 202,70" fill="rgb(255,255,255)" fill-opacity="1.0" stroke="rgb(0,0,0)" stroke-width="2"  />
		</g>
		<g>
			<title> (PDEEBABA_02103)
hypothetical protein</title>
			<polygon class=" (PDEEBABA_02103)
hypothetical protein" points="242,25 241,25 241,10 211,40 241,70 241,55 242,55" fill="rgb(255,255,255)" fill-opacity="1.0" stroke="rgb(0,0,0)" stroke-width="2"  />
			<g>
				<title>Metallophos (PF00149)
"Calcineurin-like phosphoesterase"</title>
				<polygon class="PF00149" points="218,37 227,28 238,28 238,52 227,52 218,43" stroke-linejoin="round" width="20" height="24" fill="rgb(181,197,58)" stroke="rgb(144,157,46)" stroke-width="1" opacity="0.75" />
			</g>
		</g>
		<g>
			<title>btuD_2 (PDEEBABA_02104)
Vitamin B12 import ATP-binding protein BtuD</title>
			<polygon class="btuD_2 (PDEEBABA_02104)
Vitamin B12 import ATP-binding protein BtuD" points="303,25 274,25 274,10 244,40 274,70 274,55 303,55" fill="rgb(255,255,255)" fill-opacity="1.0" stroke="rgb(0,0,0)" stroke-width="2"  />
			<g>
				<title>ABC_tran (PF00005)
"ABC transporter"</title>
				<polygon class="PF00005" points="251,37 260,28 265,28 265,52 260,52 251,43" stroke-linejoin="round" width="14" height="24" fill="rgb(129,201,63)" stroke="rgb(103,160,50)" stroke-width="1" opacity="0.75" />
			</g>
			<g>
				<title>ABC_membrane (PF00664)
"ABC transporter transmembrane region"</title>
				<rect class="PF00664" x="273" y="28" stroke-linejoin="round" width="24" height="24" fill="rgb(149,226,73)" stroke="rgb(119,180,58)" stroke-width="1" opacity="0.75" />
			</g>
		</g>
		<g>
			<title> (PDEEBABA_02105)
hypothetical protein</title>
			<polygon class=" (PDEEBABA_02105)
hypothetical protein" points="343,25 334,25 334,10 304,40 334,70 334,55 343,55" fill="rgb(255,255,255)" fill-opacity="1.0" stroke="rgb(0,0,0)" stroke-width="2"  />
			<g>
				<title>NTP_transf_5 (PF14907)
"Uncharacterised nucleotidyltransferase"</title>
				<polygon class="PF14907" points="314,34 320,28 338,28 338,52 320,52 314,46" stroke-linejoin="round" width="24" height="24" fill="rgb(191,137,74)" stroke="rgb(152,109,59)" stroke-width="1" opacity="0.75" />
			</g>
		</g>
		<g>
			<title> (PDEEBABA_02106)
hypothetical protein</title>
			<polygon class=" (PDEEBABA_02106)
hypothetical protein" points="343,40 358,10 358,70" fill="rgb(255,255,255)" fill-opacity="1.0" stroke="rgb(0,0,0)" stroke-width="2"  />
			<g>
				<title>Transglut_core3 (PF13471)
"Transglutaminase-like superfamily"</title>
				<polygon class="PF13471" points="346,40 352,28 355,28 355,52 352,52" stroke-linejoin="round" width="11" height="24" fill="rgb(63,111,179)" stroke="rgb(50,88,143)" stroke-width="1" opacity="0.75" />
			</g>
		</g>
		<g>
			<title> (PDEEBABA_02107)
hypothetical protein</title>
			<polygon class=" (PDEEBABA_02107)
hypothetical protein" points="360,40 369,10 369,70" fill="rgb(255,255,255)" fill-opacity="1.0" stroke="rgb(0,0,0)" stroke-width="2"  />
			<g>
				<title>PqqD (PF05402)
"Coenzyme PQQ synthesis protein D (PqqD)"</title>
				<polygon class="PF05402" points="363,40 366,31 366,49" stroke-linejoin="round" width="6" height="24" fill="rgb(124,62,188)" stroke="rgb(99,49,150)" stroke-width="1" opacity="0.75" />
			</g>
		</g>
		<g>
			<title> (PDEEBABA_02108)
hypothetical protein</title>
			<polygon class=" (PDEEBABA_02108)
hypothetical protein" points="400,25 399,25 399,10 369,40 399,70 399,55 400,55" fill="rgb(255,255,255)" fill-opacity="1.0" stroke="rgb(0,0,0)" stroke-width="2"  />
		</g>
		<g>
			<title> (PDEEBABA_02109)
hypothetical protein</title>
			<polygon class=" (PDEEBABA_02109)
hypothetical protein" points="403,40 408,10 408,70" fill="rgb(255,255,255)" fill-opacity="1.0" stroke="rgb(0,0,0)" stroke-width="2"  />
		</g>
		<g>
			<title> (PDEEBABA_02110)
hypothetical protein</title>
			<polygon class=" (PDEEBABA_02110)
hypothetical protein" points="474,25 439,25 439,10 409,40 439,70 439,55 474,55" fill="rgb(255,255,255)" fill-opacity="1.0" stroke="rgb(0,0,0)" stroke-width="2"  />
			<g>
				<title>Asn_synthase (PF00733)
"Asparagine synthase"</title>
				<polygon class="PF00733" points="413,40 425,28 450,28 450,52 425,52 413,40" stroke-linejoin="round" width="37" height="24" fill="rgb(97,201,176)" stroke="rgb(77,160,140)" stroke-width="1" opacity="0.75" />
			</g>
			<g>
				<title>GATase_7 (PF13537)
"Glutamine amidotransferase domain"</title>
				<rect class="PF13537" x="458" y="28" stroke-linejoin="round" width="11" height="24" fill="rgb(200,63,57)" stroke="rgb(160,50,45)" stroke-width="1" opacity="0.75" />
			</g>
		</g>
		<g>
			<title> (PDEEBABA_02111)
hypothetical protein</title>
			<polygon class=" (PDEEBABA_02111)
hypothetical protein" points="480,40 484,10 484,70" fill="rgb(255,255,255)" fill-opacity="1.0" stroke="rgb(0,0,0)" stroke-width="2"  />
		</g>
		<g>
			<title> (PDEEBABA_02112)
hypothetical protein</title>
			<polygon class=" (PDEEBABA_02112)
hypothetical protein" points="549,25 515,25 515,10 485,40 515,70 515,55 549,55" fill="rgb(255,255,255)" fill-opacity="1.0" stroke="rgb(0,0,0)" stroke-width="2"  />
			<g>
				<title>Asn_synthase (PF00733)
"Asparagine synthase"</title>
				<polygon class="PF00733" points="489,40 501,28 525,28 525,52 501,52" stroke-linejoin="round" width="38" height="24" fill="rgb(97,201,176)" stroke="rgb(77,160,140)" stroke-width="1" opacity="0.75" />
			</g>
			<g>
				<title>GATase_7 (PF13537)
"Glutamine amidotransferase domain"</title>
				<rect class="PF13537" x="533" y="28" stroke-linejoin="round" width="11" height="24" fill="rgb(200,63,57)" stroke="rgb(160,50,45)" stroke-width="1" opacity="0.75" />
			</g>
		</g>
		<g>
			<title> (PDEEBABA_02113)
hypothetical protein</title>
			<polygon class=" (PDEEBABA_02113)
hypothetical protein" points="592,25 586,25 586,10 556,40 586,70 586,55 592,55" fill="rgb(255,255,255)" fill-opacity="1.0" stroke="rgb(0,0,0)" stroke-width="2"  />
			<g>
				<title>Acyl_transf_3 (PF01757)
"Acyltransferase family"</title>
				<polygon class="PF01757" points="560,40 572,28 591,28 591,52 572,52" stroke-linejoin="round" width="32" height="24" fill="rgb(50,152,200)" stroke="rgb(40,121,160)" stroke-width="1" opacity="0.75" />
			</g>
		</g>
		<g>
			<title> (PDEEBABA_02114)
hypothetical protein</title>
			<polygon class=" (PDEEBABA_02114)
hypothetical protein" points="593,40 617,10 617,70" fill="rgb(255,255,255)" fill-opacity="1.0" stroke="rgb(0,0,0)" stroke-width="2"  />
			<g>
				<title>Metallophos_2 (PF12850)
"Calcineurin-like phosphoesterase superfamily domain"</title>
				<polygon class="PF12850" points="597,40 607,28 616,28 616,52 607,52 597,40" stroke-linejoin="round" width="19" height="24" fill="rgb(143,76,212)" stroke="rgb(114,60,169)" stroke-width="1" opacity="0.75" />
			</g>
		</g>
		<g>
			<title>pglK (PDEEBABA_02115)
Protein glycosylation K</title>
			<polygon class="pglK (PDEEBABA_02115)
Protein glycosylation K" points="677,25 648,25 648,10 618,40 648,70 648,55 677,55" fill="rgb(255,255,255)" fill-opacity="1.0" stroke="rgb(0,0,0)" stroke-width="2"  />
			<g>
				<title>ABC_tran (PF00005)
"ABC transporter"</title>
				<polygon class="PF00005" points="624,38 634,28 639,28 639,52 634,52 624,42" stroke-linejoin="round" width="15" height="24" fill="rgb(129,201,63)" stroke="rgb(103,160,50)" stroke-width="1" opacity="0.75" />
			</g>
			<g>
				<title>ABC_membrane (PF00664)
"ABC transporter transmembrane region"</title>
				<rect class="PF00664" x="646" y="28" stroke-linejoin="round" width="28" height="24" fill="rgb(149,226,73)" stroke="rgb(119,180,58)" stroke-width="1" opacity="0.75" />
			</g>
		</g>
		<g>
			<title>glyG (PDEEBABA_02116)
Glycosyltransferase GlyG</title>
			<polygon class="glyG (PDEEBABA_02116)
Glycosyltransferase GlyG" points="711,25 709,25 709,10 679,40 709,70 709,55 711,55" fill="rgb(255,255,255)" fill-opacity="1.0" stroke="rgb(0,0,0)" stroke-width="2"  />
			<g>
				<title>Glycos_transf_2 (PF00535)
"Glycosyl transferase family 2"</title>
				<polygon class="PF00535" points="695,28 695,28 710,28 710,52 695,52 695,52" stroke-linejoin="round" width="15" height="24" fill="rgb(224,122,96)" stroke="rgb(179,97,76)" stroke-width="1" opacity="0.75" />
			</g>
		</g>
		<g>
			<title>arnC_2 (PDEEBABA_02117)
Undecaprenyl-phosphate 4-deoxy-4-formamido-L-arabinose transferase</title>
			<polygon class="arnC_2 (PDEEBABA_02117)
Undecaprenyl-phosphate 4-deoxy-4-formamido-L-arabinose transferase" points="745,25 741,25 741,10 711,40 741,70 741,55 745,55" fill="rgb(255,255,255)" fill-opacity="1.0" stroke="rgb(0,0,0)" stroke-width="2"  />
			<g>
				<title>Glycos_transf_2 (PF00535)
"Glycosyl transferase family 2"</title>
				<rect class="PF00535" x="728" y="28" stroke-linejoin="round" width="16" height="24" fill="rgb(224,122,96)" stroke="rgb(179,97,76)" stroke-width="1" opacity="0.75" />
			</g>
		</g>
		<g>
			<title>gtfA_1 (PDEEBABA_02118)
UDP-N-acetylglucosamine--peptide N-acetylglucosaminyltransferase GtfA subunit</title>
			<polygon class="gtfA_1 (PDEEBABA_02118)
UDP-N-acetylglucosamine--peptide N-acetylglucosaminyltransferase GtfA subunit" points="785,25 777,25 777,10 747,40 777,70 777,55 785,55" fill="rgb(255,255,255)" fill-opacity="1.0" stroke="rgb(0,0,0)" stroke-width="2"  />
			<g>
				<title>Glycos_transf_1 (PF00534)
"Glycosyl transferases group 1"</title>
				<polygon class="PF00534" points="751,40 762,29 762,51" stroke-linejoin="round" width="15" height="24" fill="rgb(228,92,150)" stroke="rgb(182,73,119)" stroke-width="1" opacity="0.75" />
			</g>
		</g>
		<g>
			<title>gtfA_2 (PDEEBABA_02119)
UDP-N-acetylglucosamine--peptide N-acetylglucosaminyltransferase GtfA subunit</title>
			<polygon class="gtfA_2 (PDEEBABA_02119)
UDP-N-acetylglucosamine--peptide N-acetylglucosaminyltransferase GtfA subunit" points="825,25 816,25 816,10 786,40 816,70 816,55 825,55" fill="rgb(255,255,255)" fill-opacity="1.0" stroke="rgb(0,0,0)" stroke-width="2"  />
			<g>
				<title>Glycos_transf_1 (PF00534)
"Glycosyl transferases group 1"</title>
				<polygon class="PF00534" points="790,40 802,28 802,28 802,52 802,52" stroke-linejoin="round" width="15" height="24" fill="rgb(228,92,150)" stroke="rgb(182,73,119)" stroke-width="1" opacity="0.75" />
			</g>
		</g>
		<g>
			<title> (PDEEBABA_02120)
hypothetical protein</title>
			<polygon class=" (PDEEBABA_02120)
hypothetical protein" points="826,40 851,10 851,70" fill="rgb(255,255,255)" fill-opacity="1.0" stroke="rgb(0,0,0)" stroke-width="2"  />
			<g>
				<title>Choline_kinase (PF01633)
"Choline/ethanolamine kinase"</title>
				<polygon class="PF01633" points="831,39 840,28 850,28 850,52 840,52 831,41" stroke-linejoin="round" width="19" height="24" fill="rgb(211,229,96)" stroke="rgb(168,183,76)" stroke-width="1" opacity="0.75" />
			</g>
		</g>
	</g>
</svg>
