<svg version="1.1" baseProfile="full" xmlns="http://www.w3.org/2000/svg" width="714.5666666666667" height="80">
	<g>
		<line x1="10" y1="40.0" x2="704.5666666666667" y2="40.0" style="stroke:rgb(70,70,70); stroke-width:3 "/>
		<g>
			<title> (FCCODOLJ_00675)
hypothetical protein</title>
			<polygon class=" (FCCODOLJ_00675)
hypothetical protein" points="12,10 16,40 12,70" fill="rgb(255,255,255)" fill-opacity="1.0" stroke="rgb(0,0,0)" stroke-width="2"  />
		</g>
		<g>
			<title> (FCCODOLJ_00676)
hypothetical protein</title>
			<polygon class=" (FCCODOLJ_00676)
hypothetical protein" points="20,10 23,40 20,70" fill="rgb(255,255,255)" fill-opacity="1.0" stroke="rgb(0,0,0)" stroke-width="2"  />
		</g>
		<g>
			<title>garB (FCCODOLJ_00677)
Glutathione amide reductase</title>
			<polygon class="garB (FCCODOLJ_00677)
Glutathione amide reductase" points="69,25 54,25 54,10 24,40 54,70 54,55 69,55" fill="rgb(255,255,255)" fill-opacity="1.0" stroke="rgb(0,0,0)" stroke-width="2"  />
			<g>
				<title>Pyr_redox_dim (PF02852)
"Pyridine nucleotide-disulphide oxidoreductase, dimerisation domain"</title>
				<polygon class="PF02852" points="28,40 34,34 34,46" stroke-linejoin="round" width="10" height="24" fill="rgb(191,148,67)" stroke="rgb(152,118,53)" stroke-width="1" opacity="0.75" />
			</g>
			<g>
				<title>Pyr_redox_2 (PF07992)
"Pyridine nucleotide-disulphide oxidoreductase"</title>
				<polygon class="PF07992" points="37,31 40,28 68,28 68,52 40,52 37,49" stroke-linejoin="round" width="31" height="24" fill="rgb(83,223,167)" stroke="rgb(66,178,133)" stroke-width="1" opacity="0.75" />
			</g>
		</g>
		<g>
			<title>moeA (FCCODOLJ_00678)
Molybdopterin molybdenumtransferase</title>
			<polygon class="moeA (FCCODOLJ_00678)
Molybdopterin molybdenumtransferase" points="75,25 87,25 87,10 117,40 87,70 87,55 75,55" fill="rgb(255,255,255)" fill-opacity="1.0" stroke="rgb(0,0,0)" stroke-width="2"  />
			<g>
				<title>MoeA_N (PF03453)
"MoeA N-terminal region (domain I and II)"</title>
				<rect class="PF03453" x="75" y="28" stroke-linejoin="round" width="16" height="24" fill="rgb(93,188,107)" stroke="rgb(74,150,85)" stroke-width="1" opacity="0.75" />
			</g>
			<g>
				<title>MoCF_biosynth (PF00994)
"Probable molybdopterin binding domain"</title>
				<polygon class="PF00994" points="93,28 100,28 106,34 106,46 100,52 93,52" stroke-linejoin="round" width="13" height="24" fill="rgb(75,187,175)" stroke="rgb(60,149,139)" stroke-width="1" opacity="0.75" />
			</g>
			<g>
				<title>MoeA_C (PF03454)
"MoeA C-terminal region (domain IV)"</title>
				<polygon class="PF03454" points="109,37 112,40 109,43" stroke-linejoin="round" width="7" height="24" fill="rgb(59,190,161)" stroke="rgb(47,152,128)" stroke-width="1" opacity="0.75" />
			</g>
		</g>
		<g>
			<title>moaA (FCCODOLJ_00679)
GTP 3',8-cyclase</title>
			<polygon class="moaA (FCCODOLJ_00679)
GTP 3',8-cyclase" points="121,25 121,25 121,10 151,40 121,70 121,55 121,55" fill="rgb(255,255,255)" fill-opacity="1.0" stroke="rgb(0,0,0)" stroke-width="2"  />
			<g>
				<title>Radical_SAM (PF04055)
"Radical SAM superfamily"</title>
				<rect class="PF04055" x="121" y="28" stroke-linejoin="round" width="14" height="24" fill="rgb(149,56,222)" stroke="rgb(119,44,177)" stroke-width="1" opacity="0.75" />
			</g>
			<g>
				<title>Mob_synth_C (PF06463)
"Molybdenum Cofactor Synthesis C"</title>
				<polygon class="PF06463" points="136,29 147,40 136,51" stroke-linejoin="round" width="12" height="24" fill="rgb(149,103,225)" stroke="rgb(119,82,180)" stroke-width="1" opacity="0.75" />
			</g>
		</g>
		<g>
			<title> (FCCODOLJ_00680)
hypothetical protein</title>
			<polygon class=" (FCCODOLJ_00680)
hypothetical protein" points="154,10 168,40 154,70" fill="rgb(255,255,255)" fill-opacity="1.0" stroke="rgb(0,0,0)" stroke-width="2"  />
			<g>
				<title>YwpF (PF14183)
"YwpF-like protein"</title>
				<polygon class="PF14183" points="154,28 159,28 164,40 159,52 154,52" stroke-linejoin="round" width="13" height="24" fill="rgb(199,178,73)" stroke="rgb(159,142,58)" stroke-width="1" opacity="0.75" />
			</g>
		</g>
		<g>
			<title>ktrB_1 (FCCODOLJ_00681)
Ktr system potassium uptake protein B</title>
			<polygon class="ktrB_1 (FCCODOLJ_00681)
Ktr system potassium uptake protein B" points="174,25 189,25 189,10 219,40 189,70 189,55 174,55" fill="rgb(255,255,255)" fill-opacity="1.0" stroke="rgb(0,0,0)" stroke-width="2"  />
			<g>
				<title>TrkH (PF02386)
"Cation transport protein"</title>
				<polygon class="PF02386" points="175,28 203,28 215,40 203,52 175,52" stroke-linejoin="round" width="42" height="24" fill="rgb(67,179,142)" stroke="rgb(53,143,113)" stroke-width="1" opacity="0.75" />
			</g>
		</g>
		<g>
			<title> (FCCODOLJ_00682)
hypothetical protein</title>
			<polygon class=" (FCCODOLJ_00682)
hypothetical protein" points="222,40 226,10 226,70" fill="rgb(255,255,255)" fill-opacity="1.0" stroke="rgb(0,0,0)" stroke-width="2"  />
			<g>
				<title>YjcZ_2 (PF09680)
"Family of unknown function"</title>
				<polygon class="PF09680" points="225,40 224,47 224,33" stroke-linejoin="round" width="2" height="24" fill="rgb(79,203,107)" stroke="rgb(63,162,85)" stroke-width="1" opacity="0.75" />
			</g>
		</g>
		<g>
			<title> (FCCODOLJ_00683)
hypothetical protein</title>
			<polygon class=" (FCCODOLJ_00683)
hypothetical protein" points="229,40 235,10 235,70" fill="rgb(255,255,255)" fill-opacity="1.0" stroke="rgb(0,0,0)" stroke-width="2"  />
		</g>
		<g>
			<title>crtN_1 (FCCODOLJ_00684)
4,4'-diapophytoene desaturase (4,4'-diapolycopene-forming)</title>
			<polygon class="crtN_1 (FCCODOLJ_00684)
4,4'-diapophytoene desaturase (4,4'-diapolycopene-forming)" points="244,25 263,25 263,10 293,40 263,70 263,55 244,55" fill="rgb(255,255,255)" fill-opacity="1.0" stroke="rgb(0,0,0)" stroke-width="2"  />
			<g>
				<title>Amino_oxidase (PF01593)
"Flavin containing amine oxidoreductase"</title>
				<polygon class="PF01593" points="245,28 277,28 289,40 277,52 245,52" stroke-linejoin="round" width="47" height="24" fill="rgb(184,74,52)" stroke="rgb(147,59,41)" stroke-width="1" opacity="0.75" />
			</g>
		</g>
		<g>
			<title>crtNc (FCCODOLJ_00685)
4,4'-diapolycopen-4-al dehydrogenase</title>
			<polygon class="crtNc (FCCODOLJ_00685)
4,4'-diapolycopen-4-al dehydrogenase" points="294,25 313,25 313,10 343,40 313,70 313,55 294,55" fill="rgb(255,255,255)" fill-opacity="1.0" stroke="rgb(0,0,0)" stroke-width="2"  />
			<g>
				<title>Amino_oxidase (PF01593)
"Flavin containing amine oxidoreductase"</title>
				<polygon class="PF01593" points="295,28 326,28 338,40 326,52 295,52" stroke-linejoin="round" width="46" height="24" fill="rgb(184,74,52)" stroke="rgb(147,59,41)" stroke-width="1" opacity="0.75" />
			</g>
		</g>
		<g>
			<title>crtB (FCCODOLJ_00686)
15-cis-phytoene synthase</title>
			<polygon class="crtB (FCCODOLJ_00686)
15-cis-phytoene synthase" points="343,10 370,40 343,70" fill="rgb(255,255,255)" fill-opacity="1.0" stroke="rgb(0,0,0)" stroke-width="2"  />
			<g>
				<title>SQS_PSY (PF00494)
"Squalene/phytoene synthase"</title>
				<polygon class="PF00494" points="344,28 355,28 366,40 355,52 344,52" stroke-linejoin="round" width="25" height="24" fill="rgb(178,91,49)" stroke="rgb(142,72,39)" stroke-width="1" opacity="0.75" />
			</g>
		</g>
		<g>
			<title> (FCCODOLJ_00687)
hypothetical protein</title>
			<polygon class=" (FCCODOLJ_00687)
hypothetical protein" points="373,25 376,25 376,10 406,40 376,70 376,55 373,55" fill="rgb(255,255,255)" fill-opacity="1.0" stroke="rgb(0,0,0)" stroke-width="2"  />
			<g>
				<title>ABC_tran (PF00005)
"ABC transporter"</title>
				<rect class="PF00005" x="377" y="28" stroke-linejoin="round" width="11" height="24" fill="rgb(129,201,63)" stroke="rgb(103,160,50)" stroke-width="1" opacity="0.75" />
			</g>
			<g>
				<title>LytTR (PF04397)
"LytTr DNA-binding domain"</title>
				<polygon class="PF04397" points="396,34 402,40 396,46" stroke-linejoin="round" width="9" height="24" fill="rgb(207,76,174)" stroke="rgb(165,60,139)" stroke-width="1" opacity="0.75" />
			</g>
		</g>
		<g>
			<title> (FCCODOLJ_00688)
Fluoroquinolones export ATP-binding protein</title>
			<polygon class=" (FCCODOLJ_00688)
Fluoroquinolones export ATP-binding protein" points="411,10 439,40 411,70" fill="rgb(255,255,255)" fill-opacity="1.0" stroke="rgb(0,0,0)" stroke-width="2"  />
			<g>
				<title>ABC_tran (PF00005)
"ABC transporter"</title>
				<polygon class="PF00005" points="412,28 423,28 426,31 426,49 423,52 412,52" stroke-linejoin="round" width="14" height="24" fill="rgb(129,201,63)" stroke="rgb(103,160,50)" stroke-width="1" opacity="0.75" />
			</g>
		</g>
		<g>
			<title> (FCCODOLJ_00689)
hypothetical protein</title>
			<polygon class=" (FCCODOLJ_00689)
hypothetical protein" points="439,10 462,40 439,70" fill="rgb(255,255,255)" fill-opacity="1.0" stroke="rgb(0,0,0)" stroke-width="2"  />
			<g>
				<title>ABC2_membrane_3 (PF12698)
"ABC-2 family transporter protein"</title>
				<polygon class="PF12698" points="439,28 449,28 458,40 449,52 439,52" stroke-linejoin="round" width="21" height="24" fill="rgb(151,189,55)" stroke="rgb(120,151,44)" stroke-width="1" opacity="0.75" />
			</g>
		</g>
		<g>
			<title> (FCCODOLJ_00690)
hypothetical protein</title>
			<polygon class=" (FCCODOLJ_00690)
hypothetical protein" points="464,10 468,40 464,70" fill="rgb(255,255,255)" fill-opacity="1.0" stroke="rgb(0,0,0)" stroke-width="2"  />
		</g>
		<g>
			<title>murE_1 (FCCODOLJ_00691)
UDP-N-acetylmuramoyl-L-alanyl-D-glutamate--L- lysine ligase</title>
			<polygon class="murE_1 (FCCODOLJ_00691)
UDP-N-acetylmuramoyl-L-alanyl-D-glutamate--L- lysine ligase" points="474,25 495,25 495,10 525,40 495,70 495,55 474,55" fill="rgb(255,255,255)" fill-opacity="1.0" stroke="rgb(0,0,0)" stroke-width="2"  />
			<g>
				<title>Mur_ligase (PF01225)
"Mur ligase family, catalytic domain"</title>
				<rect class="PF01225" x="476" y="28" stroke-linejoin="round" width="7" height="24" fill="rgb(64,188,155)" stroke="rgb(51,150,124)" stroke-width="1" opacity="0.75" />
			</g>
			<g>
				<title>Mur_ligase_M (PF08245)
"Mur ligase middle domain"</title>
				<rect class="PF08245" x="485" y="28" stroke-linejoin="round" width="20" height="24" fill="rgb(57,133,195)" stroke="rgb(45,106,156)" stroke-width="1" opacity="0.75" />
			</g>
			<g>
				<title>Mur_ligase_C (PF02875)
"Mur ligase family, glutamate ligase domain"</title>
				<polygon class="PF02875" points="507,28 508,28 515,35 515,45 508,52 507,52" stroke-linejoin="round" width="8" height="24" fill="rgb(197,75,168)" stroke="rgb(157,60,134)" stroke-width="1" opacity="0.75" />
			</g>
		</g>
		<g>
			<title>crtNb_1 (FCCODOLJ_00692)
4,4'-diapolycopene oxygenase</title>
			<polygon class="crtNb_1 (FCCODOLJ_00692)
4,4'-diapolycopene oxygenase" points="575,25 556,25 556,10 526,40 556,70 556,55 575,55" fill="rgb(255,255,255)" fill-opacity="1.0" stroke="rgb(0,0,0)" stroke-width="2"  />
			<g>
				<title>Amino_oxidase (PF01593)
"Flavin containing amine oxidoreductase"</title>
				<polygon class="PF01593" points="530,40 542,28 573,28 573,52 542,52" stroke-linejoin="round" width="47" height="24" fill="rgb(184,74,52)" stroke="rgb(147,59,41)" stroke-width="1" opacity="0.75" />
			</g>
		</g>
		<g>
			<title> (FCCODOLJ_00693)
hypothetical protein</title>
			<polygon class=" (FCCODOLJ_00693)
hypothetical protein" points="612,25 605,25 605,10 575,40 605,70 605,55 612,55" fill="rgb(255,255,255)" fill-opacity="1.0" stroke="rgb(0,0,0)" stroke-width="2"  />
			<g>
				<title>Glycos_transf_2 (PF00535)
"Glycosyl transferase family 2"</title>
				<polygon class="PF00535" points="590,29 591,28 607,28 607,52 591,52 590,51" stroke-linejoin="round" width="17" height="24" fill="rgb(224,122,96)" stroke="rgb(179,97,76)" stroke-width="1" opacity="0.75" />
			</g>
		</g>
		<g>
			<title> (FCCODOLJ_00694)
hypothetical protein</title>
			<polygon class=" (FCCODOLJ_00694)
hypothetical protein" points="613,40 635,10 635,70" fill="rgb(255,255,255)" fill-opacity="1.0" stroke="rgb(0,0,0)" stroke-width="2"  />
			<g>
				<title>Acyltransferase (PF01553)
"Acyltransferase"</title>
				<polygon class="PF01553" points="619,37 626,28 632,28 632,52 626,52 619,43" stroke-linejoin="round" width="13" height="24" fill="rgb(87,176,216)" stroke="rgb(69,140,172)" stroke-width="1" opacity="0.75" />
			</g>
		</g>
		<g>
			<title> (FCCODOLJ_00695)
hypothetical protein</title>
			<polygon class=" (FCCODOLJ_00695)
hypothetical protein" points="634,40 659,10 659,70" fill="rgb(255,255,255)" fill-opacity="1.0" stroke="rgb(0,0,0)" stroke-width="2"  />
			<g>
				<title>Caroten_synth (PF04240)
"Carotenoid biosynthesis protein"</title>
				<polygon class="PF04240" points="638,40 648,28 655,28 655,52 648,52" stroke-linejoin="round" width="20" height="24" fill="rgb(65,214,190)" stroke="rgb(52,171,152)" stroke-width="1" opacity="0.75" />
			</g>
		</g>
		<g>
			<title> (FCCODOLJ_00696)
hypothetical protein</title>
			<polygon class=" (FCCODOLJ_00696)
hypothetical protein" points="673,10 680,40 673,70" fill="rgb(255,255,255)" fill-opacity="1.0" stroke="rgb(0,0,0)" stroke-width="2"  />
			<g>
				<title>DUF1659 (PF07872)
"Protein of unknown function (DUF1659)"</title>
				<polygon class="PF07872" points="673,28 673,28 677,39 677,41 673,52 673,52" stroke-linejoin="round" width="4" height="24" fill="rgb(172,48,195)" stroke="rgb(137,38,156)" stroke-width="1" opacity="0.75" />
			</g>
		</g>
		<g>
			<title> (FCCODOLJ_00697)
hypothetical protein</title>
			<polygon class=" (FCCODOLJ_00697)
hypothetical protein" points="681,10 688,40 681,70" fill="rgb(255,255,255)" fill-opacity="1.0" stroke="rgb(0,0,0)" stroke-width="2"  />
			<g>
				<title>DUF2922 (PF11148)
"Protein of unknown function (DUF2922)"</title>
				<polygon class="PF11148" points="681,28 681,28 685,40 681,52 681,52" stroke-linejoin="round" width="6" height="24" fill="rgb(196,220,80)" stroke="rgb(156,176,64)" stroke-width="1" opacity="0.75" />
			</g>
		</g>
		<g>
			<title> (FCCODOLJ_00698)
hypothetical protein</title>
			<polygon class=" (FCCODOLJ_00698)
hypothetical protein" points="689,10 694,40 689,70" fill="rgb(255,255,255)" fill-opacity="1.0" stroke="rgb(0,0,0)" stroke-width="2"  />
			<g>
				<title>YvrJ (PF12841)
"YvrJ protein family"</title>
				<polygon class="PF12841" points="690,31 691,40 690,49" stroke-linejoin="round" width="3" height="24" fill="rgb(207,53,76)" stroke="rgb(165,42,60)" stroke-width="1" opacity="0.75" />
			</g>
		</g>
	</g>
</svg>
