<svg version="1.1" baseProfile="full" xmlns="http://www.w3.org/2000/svg" width="1389.4333333333334" height="80">
	<g>
		<line x1="10" y1="40.0" x2="1379.4333333333334" y2="40.0" style="stroke:rgb(70,70,70); stroke-width:3 "/>
		<g>
			<title> (BBLBDBLI_02189)
hypothetical protein</title>
			<polygon class=" (BBLBDBLI_02189)
hypothetical protein" points="64,10 69,40 64,70" fill="rgb(255,255,255)" fill-opacity="1.0" stroke="rgb(0,0,0)" stroke-width="2"  />
		</g>
		<g>
			<title> (BBLBDBLI_02190)
hypothetical protein</title>
			<polygon class=" (BBLBDBLI_02190)
hypothetical protein" points="68,10 85,40 68,70" fill="rgb(255,255,255)" fill-opacity="1.0" stroke="rgb(0,0,0)" stroke-width="2"  />
			<g>
				<title>DUF5590 (PF17881)
"Domain of unknown function (DUF5590)"</title>
				<polygon class="PF17881" points="73,28 75,28 77,32 77,48 75,52 73,52" stroke-linejoin="round" width="4" height="24" fill="rgb(77,212,144)" stroke="rgb(61,169,115)" stroke-width="1" opacity="0.75" />
			</g>
		</g>
		<g>
			<title> (BBLBDBLI_02191)
Aspartate aminotransferase</title>
			<polygon class=" (BBLBDBLI_02191)
Aspartate aminotransferase" points="86,25 95,25 95,10 125,40 95,70 95,55 86,55" fill="rgb(255,255,255)" fill-opacity="1.0" stroke="rgb(0,0,0)" stroke-width="2"  />
			<g>
				<title>Aminotran_1_2 (PF00155)
"Aminotransferase class I and II"</title>
				<polygon class="PF00155" points="89,28 109,28 121,40 109,52 89,52" stroke-linejoin="round" width="35" height="24" fill="rgb(89,113,198)" stroke="rgb(71,90,158)" stroke-width="1" opacity="0.75" />
			</g>
		</g>
		<g>
			<title>asnS (BBLBDBLI_02192)
Asparagine--tRNA ligase</title>
			<polygon class="asnS (BBLBDBLI_02192)
Asparagine--tRNA ligase" points="127,25 140,25 140,10 170,40 140,70 140,55 127,55" fill="rgb(255,255,255)" fill-opacity="1.0" stroke="rgb(0,0,0)" stroke-width="2"  />
			<g>
				<title>tRNA_anti-codon (PF01336)
"OB-fold nucleic acid binding domain"</title>
				<rect class="PF01336" x="128" y="28" stroke-linejoin="round" width="7" height="24" fill="rgb(215,103,173)" stroke="rgb(172,82,138)" stroke-width="1" opacity="0.75" />
			</g>
			<g>
				<title>tRNA-synt_2 (PF00152)
"tRNA synthetases class II (D, K and N)"</title>
				<polygon class="PF00152" points="137,28 153,28 165,40 153,52 137,52" stroke-linejoin="round" width="31" height="24" fill="rgb(90,71,190)" stroke="rgb(72,56,152)" stroke-width="1" opacity="0.75" />
			</g>
		</g>
		<g>
			<title>dnaD (BBLBDBLI_02193)
DNA replication protein DnaD</title>
			<polygon class="dnaD (BBLBDBLI_02193)
DNA replication protein DnaD" points="173,10 196,40 173,70" fill="rgb(255,255,255)" fill-opacity="1.0" stroke="rgb(0,0,0)" stroke-width="2"  />
			<g>
				<title>DnaB_2 (PF07261)
"Replication initiation and membrane attachment"</title>
				<polygon class="PF07261" points="185,31 192,40 192,40 185,49" stroke-linejoin="round" width="7" height="24" fill="rgb(136,193,85)" stroke="rgb(108,154,68)" stroke-width="1" opacity="0.75" />
			</g>
		</g>
		<g>
			<title>nth (BBLBDBLI_02194)
Endonuclease III</title>
			<polygon class="nth (BBLBDBLI_02194)
Endonuclease III" points="196,10 217,40 196,70" fill="rgb(255,255,255)" fill-opacity="1.0" stroke="rgb(0,0,0)" stroke-width="2"  />
			<g>
				<title>HhH-GPD (PF00730)
"HhH-GPD superfamily base excision DNA repair protein"</title>
				<polygon class="PF00730" points="199,28 205,28 212,38 212,42 205,52 199,52" stroke-linejoin="round" width="13" height="24" fill="rgb(190,78,115)" stroke="rgb(152,62,92)" stroke-width="1" opacity="0.75" />
			</g>
		</g>
		<g>
			<title>ponA (BBLBDBLI_02195)
Penicillin-binding protein 1A/1B</title>
			<polygon class="ponA (BBLBDBLI_02195)
Penicillin-binding protein 1A/1B" points="310,25 250,25 250,10 220,40 250,70 250,55 310,55" fill="rgb(255,255,255)" fill-opacity="1.0" stroke="rgb(0,0,0)" stroke-width="2"  />
			<g>
				<title>fn3 (PF00041)
"Fibronectin type III domain"</title>
				<polygon class="PF00041" points="233,31 236,28 240,28 240,52 236,52 233,49" stroke-linejoin="round" width="7" height="24" fill="rgb(203,70,135)" stroke="rgb(162,56,107)" stroke-width="1" opacity="0.75" />
			</g>
			<g>
				<title>Transpeptidase (PF00905)
"Penicillin binding protein transpeptidase domain"</title>
				<rect class="PF00905" x="247" y="28" stroke-linejoin="round" width="27" height="24" fill="rgb(161,226,87)" stroke="rgb(128,180,69)" stroke-width="1" opacity="0.75" />
			</g>
			<g>
				<title>Transgly (PF00912)
"Transglycosylase"</title>
				<rect class="PF00912" x="284" y="28" stroke-linejoin="round" width="17" height="24" fill="rgb(172,107,216)" stroke="rgb(137,85,172)" stroke-width="1" opacity="0.75" />
			</g>
		</g>
		<g>
			<title>recU (BBLBDBLI_02196)
Holliday junction resolvase RecU</title>
			<polygon class="recU (BBLBDBLI_02196)
Holliday junction resolvase RecU" points="310,40 329,10 329,70" fill="rgb(255,255,255)" fill-opacity="1.0" stroke="rgb(0,0,0)" stroke-width="2"  />
			<g>
				<title>RecU (PF03838)
"Recombination protein U"</title>
				<polygon class="PF03838" points="314,40 322,28 326,28 326,52 322,52" stroke-linejoin="round" width="16" height="24" fill="rgb(93,204,83)" stroke="rgb(74,163,66)" stroke-width="1" opacity="0.75" />
			</g>
		</g>
		<g>
			<title>racA (BBLBDBLI_02197)
Chromosome-anchoring protein RacA</title>
			<polygon class="racA (BBLBDBLI_02197)
Chromosome-anchoring protein RacA" points="342,10 350,40 342,70" fill="rgb(255,255,255)" fill-opacity="1.0" stroke="rgb(0,0,0)" stroke-width="2"  />
		</g>
		<g>
			<title> (BBLBDBLI_02198)
hypothetical protein</title>
			<polygon class=" (BBLBDBLI_02198)
hypothetical protein" points="353,10 364,40 353,70" fill="rgb(255,255,255)" fill-opacity="1.0" stroke="rgb(0,0,0)" stroke-width="2"  />
			<g>
				<title>DUF1798 (PF08807)
"Bacterial domain of unknown function (DUF1798)"</title>
				<polygon class="PF08807" points="353,28 356,28 361,40 356,52 353,52" stroke-linejoin="round" width="10" height="24" fill="rgb(153,201,81)" stroke="rgb(122,160,64)" stroke-width="1" opacity="0.75" />
			</g>
		</g>
		<g>
			<title>swrC_2 (BBLBDBLI_02199)
Swarming motility protein SwrC</title>
			<polygon class="swrC_2 (BBLBDBLI_02199)
Swarming motility protein SwrC" points="485,25 413,25 413,10 383,40 413,70 413,55 485,55" fill="rgb(255,255,255)" fill-opacity="1.0" stroke="rgb(0,0,0)" stroke-width="2"  />
			<g>
				<title>ACR_tran (PF00873)
"AcrB/AcrD/AcrF family"</title>
				<polygon class="PF00873" points="387,40 399,28 485,28 485,52 399,52" stroke-linejoin="round" width="101" height="24" fill="rgb(63,191,60)" stroke="rgb(50,152,48)" stroke-width="1" opacity="0.75" />
			</g>
		</g>
		<g>
			<title>cdd (BBLBDBLI_02200)
Cytidine deaminase</title>
			<polygon class="cdd (BBLBDBLI_02200)
Cytidine deaminase" points="492,10 505,40 492,70" fill="rgb(255,255,255)" fill-opacity="1.0" stroke="rgb(0,0,0)" stroke-width="2"  />
			<g>
				<title>dCMP_cyt_deam_1 (PF00383)
"Cytidine and deoxycytidylate deaminase zinc-binding region"</title>
				<polygon class="PF00383" points="492,28 496,28 502,40 502,40 496,52 492,52" stroke-linejoin="round" width="10" height="24" fill="rgb(91,149,216)" stroke="rgb(72,119,172)" stroke-width="1" opacity="0.75" />
			</g>
		</g>
		<g>
			<title> (BBLBDBLI_02201)
hypothetical protein</title>
			<polygon class=" (BBLBDBLI_02201)
hypothetical protein" points="507,10 525,40 507,70" fill="rgb(255,255,255)" fill-opacity="1.0" stroke="rgb(0,0,0)" stroke-width="2"  />
			<g>
				<title>YpsA (PF06908)
"YspA SLOG family"</title>
				<polygon class="PF06908" points="507,28 514,28 522,40 514,52 507,52" stroke-linejoin="round" width="16" height="24" fill="rgb(136,100,209)" stroke="rgb(108,80,167)" stroke-width="1" opacity="0.75" />
			</g>
		</g>
		<g>
			<title>gpsB (BBLBDBLI_02202)
Cell cycle protein GpsB</title>
			<polygon class="gpsB (BBLBDBLI_02202)
Cell cycle protein GpsB" points="527,10 538,40 527,70" fill="rgb(255,255,255)" fill-opacity="1.0" stroke="rgb(0,0,0)" stroke-width="2"  />
			<g>
				<title>DivIVA (PF05103)
"DivIVA protein"</title>
				<polygon class="PF05103" points="527,28 530,28 533,35 533,45 530,52 527,52" stroke-linejoin="round" width="6" height="24" fill="rgb(213,106,117)" stroke="rgb(170,84,93)" stroke-width="1" opacity="0.75" />
			</g>
		</g>
		<g>
			<title>rlmL (BBLBDBLI_02203)
Ribosomal RNA large subunit methyltransferase L</title>
			<polygon class="rlmL (BBLBDBLI_02203)
Ribosomal RNA large subunit methyltransferase L" points="557,25 564,25 564,10 594,40 564,70 564,55 557,55" fill="rgb(255,255,255)" fill-opacity="1.0" stroke="rgb(0,0,0)" stroke-width="2"  />
			<g>
				<title>THUMP (PF02926)
"THUMP domain"</title>
				<rect class="PF02926" x="558" y="28" stroke-linejoin="round" width="14" height="24" fill="rgb(52,209,163)" stroke="rgb(41,167,130)" stroke-width="1" opacity="0.75" />
			</g>
			<g>
				<title>UPF0020 (PF01170)
"Putative RNA methylase family UPF0020"</title>
				<polygon class="PF01170" points="573,28 578,28 590,40 578,52 573,52" stroke-linejoin="round" width="20" height="24" fill="rgb(89,182,69)" stroke="rgb(71,145,55)" stroke-width="1" opacity="0.75" />
			</g>
		</g>
		<g>
			<title>ypwA (BBLBDBLI_02204)
Carboxypeptidase 1</title>
			<polygon class="ypwA (BBLBDBLI_02204)
Carboxypeptidase 1" points="596,25 615,25 615,10 645,40 615,70 615,55 596,55" fill="rgb(255,255,255)" fill-opacity="1.0" stroke="rgb(0,0,0)" stroke-width="2"  />
			<g>
				<title>Peptidase_M32 (PF02074)
"Carboxypeptidase Taq (M32) metallopeptidase"</title>
				<polygon class="PF02074" points="596,28 629,28 641,40 629,52 596,52" stroke-linejoin="round" width="48" height="24" fill="rgb(213,142,93)" stroke="rgb(170,113,74)" stroke-width="1" opacity="0.75" />
			</g>
		</g>
		<g>
			<title>gno (BBLBDBLI_02205)
Gluconate 5-dehydrogenase</title>
			<polygon class="gno (BBLBDBLI_02205)
Gluconate 5-dehydrogenase" points="649,10 674,40 649,70" fill="rgb(255,255,255)" fill-opacity="1.0" stroke="rgb(0,0,0)" stroke-width="2"  />
			<g>
				<title>adh_short_C2 (PF13561)
"Enoyl-(Acyl carrier protein) reductase"</title>
				<polygon class="PF13561" points="650,28 660,28 670,40 660,52 650,52" stroke-linejoin="round" width="23" height="24" fill="rgb(73,205,127)" stroke="rgb(58,164,101)" stroke-width="1" opacity="0.75" />
			</g>
		</g>
		<g>
			<title> (BBLBDBLI_02206)
Alpha-pyrone synthesis polyketide synthase-like Pks11</title>
			<polygon class=" (BBLBDBLI_02206)
Alpha-pyrone synthesis polyketide synthase-like Pks11" points="676,25 682,25 682,10 712,40 682,70 682,55 676,55" fill="rgb(255,255,255)" fill-opacity="1.0" stroke="rgb(0,0,0)" stroke-width="2"  />
			<g>
				<title>Chal_sti_synt_N (PF00195)
"Chalcone and stilbene synthases, N-terminal domain"</title>
				<polygon class="PF00195" points="678,28 695,28 696,29 696,51 695,52 678,52" stroke-linejoin="round" width="18" height="24" fill="rgb(60,181,161)" stroke="rgb(47,144,128)" stroke-width="1" opacity="0.75" />
			</g>
			<g>
				<title>Chal_sti_synt_C (PF02797)
"Chalcone and stilbene synthases, C-terminal domain"</title>
				<polygon class="PF02797" points="698,31 707,40 698,49" stroke-linejoin="round" width="14" height="24" fill="rgb(139,212,63)" stroke="rgb(111,169,50)" stroke-width="1" opacity="0.75" />
			</g>
		</g>
		<g>
			<title> (BBLBDBLI_02207)
hypothetical protein</title>
			<polygon class=" (BBLBDBLI_02207)
hypothetical protein" points="712,10 728,40 712,70" fill="rgb(255,255,255)" fill-opacity="1.0" stroke="rgb(0,0,0)" stroke-width="2"  />
			<g>
				<title>ICMT (PF04140)
"Isoprenylcysteine carboxyl methyltransferase (ICMT) family"</title>
				<polygon class="PF04140" points="719,29 725,40 719,51" stroke-linejoin="round" width="9" height="24" fill="rgb(100,223,104)" stroke="rgb(80,178,83)" stroke-width="1" opacity="0.75" />
			</g>
		</g>
		<g>
			<title> (BBLBDBLI_02208)
hypothetical protein</title>
			<polygon class=" (BBLBDBLI_02208)
hypothetical protein" points="732,10 737,40 732,70" fill="rgb(255,255,255)" fill-opacity="1.0" stroke="rgb(0,0,0)" stroke-width="2"  />
		</g>
		<g>
			<title> (BBLBDBLI_02209)
hypothetical protein</title>
			<polygon class=" (BBLBDBLI_02209)
hypothetical protein" points="740,10 749,40 740,70" fill="rgb(255,255,255)" fill-opacity="1.0" stroke="rgb(0,0,0)" stroke-width="2"  />
		</g>
		<g>
			<title>rnhA (BBLBDBLI_02210)
14.7 kDa ribonuclease H-like protein</title>
			<polygon class="rnhA (BBLBDBLI_02210)
14.7 kDa ribonuclease H-like protein" points="753,40 766,10 766,70" fill="rgb(255,255,255)" fill-opacity="1.0" stroke="rgb(0,0,0)" stroke-width="2"  />
			<g>
				<title>RVT_3 (PF13456)
"Reverse transcriptase-like"</title>
				<polygon class="PF13456" points="756,40 761,28 765,28 765,52 761,52" stroke-linejoin="round" width="12" height="24" fill="rgb(198,123,86)" stroke="rgb(158,98,68)" stroke-width="1" opacity="0.75" />
			</g>
		</g>
		<g>
			<title> (BBLBDBLI_02211)
queuosine precursor transporter</title>
			<polygon class=" (BBLBDBLI_02211)
queuosine precursor transporter" points="767,40 789,10 789,70" fill="rgb(255,255,255)" fill-opacity="1.0" stroke="rgb(0,0,0)" stroke-width="2"  />
			<g>
				<title>Vut_1 (PF02592)
"Putative vitamin uptake transporter"</title>
				<polygon class="PF02592" points="771,40 780,28 783,28 783,52 780,52" stroke-linejoin="round" width="16" height="24" fill="rgb(93,184,75)" stroke="rgb(74,147,60)" stroke-width="1" opacity="0.75" />
			</g>
		</g>
		<g>
			<title>fhs1 (BBLBDBLI_02212)
Formate--tetrahydrofolate ligase 1</title>
			<polygon class="fhs1 (BBLBDBLI_02212)
Formate--tetrahydrofolate ligase 1" points="795,10 810,40 795,70" fill="rgb(255,255,255)" fill-opacity="1.0" stroke="rgb(0,0,0)" stroke-width="2"  />
			<g>
				<title>FTHFS (PF01268)
"Formate--tetrahydrofolate ligase"</title>
				<polygon class="PF01268" points="795,28 800,28 806,40 800,52 795,52" stroke-linejoin="round" width="14" height="24" fill="rgb(215,182,81)" stroke="rgb(172,145,64)" stroke-width="1" opacity="0.75" />
			</g>
		</g>
		<g>
			<title>fhs (BBLBDBLI_02213)
Formate--tetrahydrofolate ligase</title>
			<polygon class="fhs (BBLBDBLI_02213)
Formate--tetrahydrofolate ligase" points="810,25 820,25 820,10 850,40 820,70 820,55 810,55" fill="rgb(255,255,255)" fill-opacity="1.0" stroke="rgb(0,0,0)" stroke-width="2"  />
			<g>
				<title>FTHFS (PF01268)
"Formate--tetrahydrofolate ligase"</title>
				<polygon class="PF01268" points="810,28 834,28 846,40 834,52 810,52" stroke-linejoin="round" width="40" height="24" fill="rgb(215,182,81)" stroke="rgb(172,145,64)" stroke-width="1" opacity="0.75" />
			</g>
		</g>
		<g>
			<title> (BBLBDBLI_02214)
hypothetical protein</title>
			<polygon class=" (BBLBDBLI_02214)
hypothetical protein" points="851,10 879,40 851,70" fill="rgb(255,255,255)" fill-opacity="1.0" stroke="rgb(0,0,0)" stroke-width="2"  />
			<g>
				<title>DUF72 (PF01904)
"Protein of unknown function DUF72"</title>
				<polygon class="PF01904" points="852,28 863,28 875,40 863,52 852,52" stroke-linejoin="round" width="24" height="24" fill="rgb(63,151,204)" stroke="rgb(50,120,163)" stroke-width="1" opacity="0.75" />
			</g>
		</g>
		<g>
			<title>yedJ (BBLBDBLI_02215)
putative protein YedJ</title>
			<polygon class="yedJ (BBLBDBLI_02215)
putative protein YedJ" points="880,10 900,40 880,70" fill="rgb(255,255,255)" fill-opacity="1.0" stroke="rgb(0,0,0)" stroke-width="2"  />
			<g>
				<title>HD (PF01966)
"HD domain"</title>
				<polygon class="PF01966" points="882,28 888,28 891,32 891,48 888,52 882,52" stroke-linejoin="round" width="9" height="24" fill="rgb(92,193,119)" stroke="rgb(73,154,95)" stroke-width="1" opacity="0.75" />
			</g>
		</g>
		<g>
			<title>thyA (BBLBDBLI_02216)
Thymidylate synthase</title>
			<polygon class="thyA (BBLBDBLI_02216)
Thymidylate synthase" points="900,25 901,25 901,10 931,40 901,70 901,55 900,55" fill="rgb(255,255,255)" fill-opacity="1.0" stroke="rgb(0,0,0)" stroke-width="2"  />
			<g>
				<title>Thymidylat_synt (PF00303)
"Thymidylate synthase"</title>
				<polygon class="PF00303" points="900,28 915,28 927,40 915,52 900,52" stroke-linejoin="round" width="31" height="24" fill="rgb(103,91,191)" stroke="rgb(82,72,152)" stroke-width="1" opacity="0.75" />
			</g>
		</g>
		<g>
			<title>dfrA (BBLBDBLI_02217)
Dihydrofolate reductase</title>
			<polygon class="dfrA (BBLBDBLI_02217)
Dihydrofolate reductase" points="933,10 949,40 933,70" fill="rgb(255,255,255)" fill-opacity="1.0" stroke="rgb(0,0,0)" stroke-width="2"  />
			<g>
				<title>DHFR_1 (PF00186)
"Dihydrofolate reductase"</title>
				<polygon class="PF00186" points="933,28 939,28 946,40 939,52 933,52" stroke-linejoin="round" width="16" height="24" fill="rgb(150,188,63)" stroke="rgb(119,150,50)" stroke-width="1" opacity="0.75" />
			</g>
		</g>
		<g>
			<title>mobA (BBLBDBLI_02218)
Molybdenum cofactor guanylyltransferase</title>
			<polygon class="mobA (BBLBDBLI_02218)
Molybdenum cofactor guanylyltransferase" points="949,10 968,40 949,70" fill="rgb(255,255,255)" fill-opacity="1.0" stroke="rgb(0,0,0)" stroke-width="2"  />
			<g>
				<title>NTP_transf_3 (PF12804)
"MobA-like NTP transferase domain"</title>
				<polygon class="PF12804" points="949,28 957,28 964,39 964,41 957,52 949,52" stroke-linejoin="round" width="15" height="24" fill="rgb(52,209,196)" stroke="rgb(41,167,156)" stroke-width="1" opacity="0.75" />
			</g>
		</g>
		<g>
			<title>tatAd_1 (BBLBDBLI_02219)
Sec-independent protein translocase protein TatAd</title>
			<polygon class="tatAd_1 (BBLBDBLI_02219)
Sec-independent protein translocase protein TatAd" points="973,10 979,40 973,70" fill="rgb(255,255,255)" fill-opacity="1.0" stroke="rgb(0,0,0)" stroke-width="2"  />
			<g>
				<title>MttA_Hcf106 (PF02416)
"mttA/Hcf106 family"</title>
				<polygon class="PF02416" points="973,28 973,28 976,40 973,52 973,52" stroke-linejoin="round" width="5" height="24" fill="rgb(74,206,98)" stroke="rgb(59,164,78)" stroke-width="1" opacity="0.75" />
			</g>
		</g>
		<g>
			<title>tatAd_2 (BBLBDBLI_02220)
Sec-independent protein translocase protein TatAd</title>
			<polygon class="tatAd_2 (BBLBDBLI_02220)
Sec-independent protein translocase protein TatAd" points="980,10 986,40 980,70" fill="rgb(255,255,255)" fill-opacity="1.0" stroke="rgb(0,0,0)" stroke-width="2"  />
			<g>
				<title>MttA_Hcf106 (PF02416)
"mttA/Hcf106 family"</title>
				<polygon class="PF02416" points="980,28 980,28 983,40 980,52 980,52" stroke-linejoin="round" width="5" height="24" fill="rgb(74,206,98)" stroke="rgb(59,164,78)" stroke-width="1" opacity="0.75" />
			</g>
		</g>
		<g>
			<title>tatC1_1 (BBLBDBLI_02221)
Sec-independent protein translocase protein TatCd</title>
			<polygon class="tatC1_1 (BBLBDBLI_02221)
Sec-independent protein translocase protein TatCd" points="989,10 1014,40 989,70" fill="rgb(255,255,255)" fill-opacity="1.0" stroke="rgb(0,0,0)" stroke-width="2"  />
			<g>
				<title>TatC (PF00902)
"Sec-independent protein translocase protein (TatC)"</title>
				<polygon class="PF00902" points="990,28 1000,28 1010,40 1010,40 1000,52 990,52" stroke-linejoin="round" width="20" height="24" fill="rgb(84,193,209)" stroke="rgb(67,154,167)" stroke-width="1" opacity="0.75" />
			</g>
		</g>
		<g>
			<title> (BBLBDBLI_02222)
hypothetical protein</title>
			<polygon class=" (BBLBDBLI_02222)
hypothetical protein" points="1014,10 1022,40 1014,70" fill="rgb(255,255,255)" fill-opacity="1.0" stroke="rgb(0,0,0)" stroke-width="2"  />
			<g>
				<title>YozE_SAM_like (PF06855)
"YozE SAM-like fold"</title>
				<polygon class="PF06855" points="1015,28 1015,28 1019,40 1015,52 1015,52" stroke-linejoin="round" width="6" height="24" fill="rgb(83,201,171)" stroke="rgb(66,160,136)" stroke-width="1" opacity="0.75" />
			</g>
		</g>
		<g>
			<title>sbcD (BBLBDBLI_02223)
Nuclease SbcCD subunit D</title>
			<polygon class="sbcD (BBLBDBLI_02223)
Nuclease SbcCD subunit D" points="1025,25 1033,25 1033,10 1063,40 1033,70 1033,55 1025,55" fill="rgb(255,255,255)" fill-opacity="1.0" stroke="rgb(0,0,0)" stroke-width="2"  />
			<g>
				<title>Metallophos (PF00149)
"Calcineurin-like phosphoesterase"</title>
				<rect class="PF00149" x="1025" y="28" stroke-linejoin="round" width="21" height="24" fill="rgb(181,197,58)" stroke="rgb(144,157,46)" stroke-width="1" opacity="0.75" />
			</g>
			<g>
				<title>SbcD_C (PF12320)
"Type 5 capsule protein repressor C-terminal domain"</title>
				<polygon class="PF12320" points="1051,32 1059,40 1051,48" stroke-linejoin="round" width="9" height="24" fill="rgb(182,136,65)" stroke="rgb(145,108,52)" stroke-width="1" opacity="0.75" />
			</g>
		</g>
		<g>
			<title> (BBLBDBLI_02224)
hypothetical protein</title>
			<polygon class=" (BBLBDBLI_02224)
hypothetical protein" points="1064,25 1137,25 1137,10 1167,40 1137,70 1137,55 1064,55" fill="rgb(255,255,255)" fill-opacity="1.0" stroke="rgb(0,0,0)" stroke-width="2"  />
			<g>
				<title>AAA_29 (PF13555)
"P-loop containing region of AAA domain"</title>
				<rect class="PF13555" x="1064" y="28" stroke-linejoin="round" width="5" height="24" fill="rgb(103,67,185)" stroke="rgb(82,53,148)" stroke-width="1" opacity="0.75" />
			</g>
			<g>
				<title>SbcCD_C (PF13558)
"Putative exonuclease SbcCD, C subunit"</title>
				<polygon class="PF13558" points="1155,32 1163,40 1163,40 1155,48" stroke-linejoin="round" width="8" height="24" fill="rgb(84,179,84)" stroke="rgb(67,143,67)" stroke-width="1" opacity="0.75" />
			</g>
		</g>
		<g>
			<title>ytmB (BBLBDBLI_02225)
putative protein YtmB</title>
			<polygon class="ytmB (BBLBDBLI_02225)
putative protein YtmB" points="1168,10 1176,40 1168,70" fill="rgb(255,255,255)" fill-opacity="1.0" stroke="rgb(0,0,0)" stroke-width="2"  />
			<g>
				<title>DUF2584 (PF10763)
"Protein of unknown function (DUF2584)"</title>
				<polygon class="PF10763" points="1168,28 1169,28 1173,40 1169,52 1168,52" stroke-linejoin="round" width="8" height="24" fill="rgb(118,211,56)" stroke="rgb(94,168,44)" stroke-width="1" opacity="0.75" />
			</g>
		</g>
		<g>
			<title>ung (BBLBDBLI_02226)
Uracil-DNA glycosylase</title>
			<polygon class="ung (BBLBDBLI_02226)
Uracil-DNA glycosylase" points="1180,10 1202,40 1180,70" fill="rgb(255,255,255)" fill-opacity="1.0" stroke="rgb(0,0,0)" stroke-width="2"  />
			<g>
				<title>UDG (PF03167)
"Uracil DNA glycosylase superfamily"</title>
				<polygon class="PF03167" points="1184,28 1189,28 1198,40 1189,52 1184,52" stroke-linejoin="round" width="16" height="24" fill="rgb(64,224,60)" stroke="rgb(51,179,48)" stroke-width="1" opacity="0.75" />
			</g>
		</g>
		<g>
			<title> (BBLBDBLI_02227)
hypothetical protein</title>
			<polygon class=" (BBLBDBLI_02227)
hypothetical protein" points="1205,10 1226,40 1205,70" fill="rgb(255,255,255)" fill-opacity="1.0" stroke="rgb(0,0,0)" stroke-width="2"  />
			<g>
				<title>YqfQ (PF14181)
"YqfQ-like protein"</title>
				<polygon class="PF14181" points="1205,28 1214,28 1222,40 1222,40 1214,52 1205,52" stroke-linejoin="round" width="17" height="24" fill="rgb(207,119,57)" stroke="rgb(165,95,45)" stroke-width="1" opacity="0.75" />
			</g>
		</g>
		<g>
			<title>msrAB_2 (BBLBDBLI_02228)
Peptide methionine sulfoxide reductase MsrA/MsrB</title>
			<polygon class="msrAB_2 (BBLBDBLI_02228)
Peptide methionine sulfoxide reductase MsrA/MsrB" points="1228,25 1230,25 1230,10 1260,40 1230,70 1230,55 1228,55" fill="rgb(255,255,255)" fill-opacity="1.0" stroke="rgb(0,0,0)" stroke-width="2"  />
			<g>
				<title>PMSR (PF01625)
"Peptide methionine sulfoxide reductase"</title>
				<rect class="PF01625" x="1228" y="28" stroke-linejoin="round" width="15" height="24" fill="rgb(201,74,176)" stroke="rgb(160,59,140)" stroke-width="1" opacity="0.75" />
			</g>
			<g>
				<title>SelR (PF01641)
"SelR domain"</title>
				<polygon class="PF01641" points="1246,31 1255,40 1246,49" stroke-linejoin="round" width="12" height="24" fill="rgb(192,99,202)" stroke="rgb(153,79,161)" stroke-width="1" opacity="0.75" />
			</g>
		</g>
		<g>
			<title> (BBLBDBLI_02229)
hypothetical protein</title>
			<polygon class=" (BBLBDBLI_02229)
hypothetical protein" points="1264,10 1283,40 1264,70" fill="rgb(255,255,255)" fill-opacity="1.0" stroke="rgb(0,0,0)" stroke-width="2"  />
			<g>
				<title>TetR_N (PF00440)
"Bacterial regulatory proteins, tetR family"</title>
				<rect class="PF00440" x="1264" y="28" stroke-linejoin="round" width="4" height="24" fill="rgb(73,212,190)" stroke="rgb(58,169,152)" stroke-width="1" opacity="0.75" />
			</g>
		</g>
		<g>
			<title> (BBLBDBLI_02230)
hypothetical protein</title>
			<polygon class=" (BBLBDBLI_02230)
hypothetical protein" points="1287,40 1309,10 1309,70" fill="rgb(255,255,255)" fill-opacity="1.0" stroke="rgb(0,0,0)" stroke-width="2"  />
			<g>
				<title>Acetyltransf_1 (PF00583)
"Acetyltransferase (GNAT) family"</title>
				<polygon class="PF00583" points="1293,37 1300,28 1305,28 1305,52 1300,52 1293,43" stroke-linejoin="round" width="12" height="24" fill="rgb(121,183,50)" stroke="rgb(96,146,39)" stroke-width="1" opacity="0.75" />
			</g>
		</g>
		<g>
			<title>mhqD (BBLBDBLI_02231)
Putative hydrolase MhqD</title>
			<polygon class="mhqD (BBLBDBLI_02231)
Putative hydrolase MhqD" points="1313,10 1333,40 1313,70" fill="rgb(255,255,255)" fill-opacity="1.0" stroke="rgb(0,0,0)" stroke-width="2"  />
			<g>
				<title>Abhydrolase_2 (PF02230)
"Phospholipase/Carboxylesterase"</title>
				<polygon class="PF02230" points="1313,28 1321,28 1329,40 1321,52 1313,52" stroke-linejoin="round" width="19" height="24" fill="rgb(165,184,75)" stroke="rgb(132,147,60)" stroke-width="1" opacity="0.75" />
			</g>
		</g>
		<g>
			<title> (BBLBDBLI_02232)
hypothetical protein</title>
			<polygon class=" (BBLBDBLI_02232)
hypothetical protein" points="1336,10 1342,40 1336,70" fill="rgb(255,255,255)" fill-opacity="1.0" stroke="rgb(0,0,0)" stroke-width="2"  />
		</g>
		<g>
			<title> (BBLBDBLI_02233)
hypothetical protein</title>
			<polygon class=" (BBLBDBLI_02233)
hypothetical protein" points="1351,10 1370,40 1351,70" fill="rgb(255,255,255)" fill-opacity="1.0" stroke="rgb(0,0,0)" stroke-width="2"  />
			<g>
				<title>His_Phos_1 (PF00300)
"Histidine phosphatase superfamily (branch 1)"</title>
				<polygon class="PF00300" points="1351,28 1358,28 1366,40 1358,52 1351,52" stroke-linejoin="round" width="17" height="24" fill="rgb(135,184,63)" stroke="rgb(107,147,50)" stroke-width="1" opacity="0.75" />
			</g>
		</g>
	</g>
</svg>
