<svg version="1.1" baseProfile="full" xmlns="http://www.w3.org/2000/svg" width="804.2333333333333" height="80">
	<g>
		<line x1="10" y1="40.0" x2="794.2333333333333" y2="40.0" style="stroke:rgb(70,70,70); stroke-width:3 "/>
		<g>
			<title>sutR (BBLBDBLI_01169)
HTH-type transcriptional regulator SutR</title>
			<polygon class="sutR (BBLBDBLI_01169)
HTH-type transcriptional regulator SutR" points="31,10 50,40 31,70" fill="rgb(255,255,255)" fill-opacity="1.0" stroke="rgb(0,0,0)" stroke-width="2"  />
			<g>
				<title>HTH_3 (PF01381)
"Helix-turn-helix"</title>
				<rect class="PF01381" x="33" y="28" stroke-linejoin="round" width="5" height="24" fill="rgb(105,79,202)" stroke="rgb(83,63,161)" stroke-width="1" opacity="0.75" />
			</g>
			<g>
				<title>Cupin_2 (PF07883)
"Cupin domain"</title>
				<polygon class="PF07883" points="42,33 46,40 42,47" stroke-linejoin="round" width="7" height="24" fill="rgb(211,192,74)" stroke="rgb(168,153,59)" stroke-width="1" opacity="0.75" />
			</g>
		</g>
		<g>
			<title>ped (BBLBDBLI_01170)
(S)-1-Phenylethanol dehydrogenase</title>
			<polygon class="ped (BBLBDBLI_01170)
(S)-1-Phenylethanol dehydrogenase" points="52,10 77,40 52,70" fill="rgb(255,255,255)" fill-opacity="1.0" stroke="rgb(0,0,0)" stroke-width="2"  />
			<g>
				<title>adh_short_C2 (PF13561)
"Enoyl-(Acyl carrier protein) reductase"</title>
				<polygon class="PF13561" points="53,28 63,28 73,40 63,52 53,52" stroke-linejoin="round" width="23" height="24" fill="rgb(73,205,127)" stroke="rgb(58,164,101)" stroke-width="1" opacity="0.75" />
			</g>
		</g>
		<g>
			<title> (BBLBDBLI_01171)
hypothetical protein</title>
			<polygon class=" (BBLBDBLI_01171)
hypothetical protein" points="89,10 115,40 89,70" fill="rgb(255,255,255)" fill-opacity="1.0" stroke="rgb(0,0,0)" stroke-width="2"  />
		</g>
		<g>
			<title>dus (BBLBDBLI_01172)
putative tRNA-dihydrouridine synthase</title>
			<polygon class="dus (BBLBDBLI_01172)
putative tRNA-dihydrouridine synthase" points="154,25 151,25 151,10 121,40 151,70 151,55 154,55" fill="rgb(255,255,255)" fill-opacity="1.0" stroke="rgb(0,0,0)" stroke-width="2"  />
			<g>
				<title>Dus (PF01207)
"Dihydrouridine synthase (Dus)"</title>
				<polygon class="PF01207" points="125,40 137,28 152,28 152,52 137,52" stroke-linejoin="round" width="30" height="24" fill="rgb(178,84,152)" stroke="rgb(142,67,121)" stroke-width="1" opacity="0.75" />
			</g>
		</g>
		<g>
			<title> (BBLBDBLI_01173)
hypothetical protein</title>
			<polygon class=" (BBLBDBLI_01173)
hypothetical protein" points="165,25 166,25 166,10 196,40 166,70 166,55 165,55" fill="rgb(255,255,255)" fill-opacity="1.0" stroke="rgb(0,0,0)" stroke-width="2"  />
		</g>
		<g>
			<title> (BBLBDBLI_01174)
hypothetical protein</title>
			<polygon class=" (BBLBDBLI_01174)
hypothetical protein" points="197,40 213,10 213,70" fill="rgb(255,255,255)" fill-opacity="1.0" stroke="rgb(0,0,0)" stroke-width="2"  />
		</g>
		<g>
			<title> (BBLBDBLI_01175)
Cardiolipin synthase</title>
			<polygon class=" (BBLBDBLI_01175)
Cardiolipin synthase" points="218,10 237,40 218,70" fill="rgb(255,255,255)" fill-opacity="1.0" stroke="rgb(0,0,0)" stroke-width="2"  />
			<g>
				<title>PLDc_2 (PF13091)
"PLD-like domain"</title>
				<polygon class="PF13091" points="222,28 226,28 233,40 226,52 222,52" stroke-linejoin="round" width="12" height="24" fill="rgb(197,187,91)" stroke="rgb(157,149,72)" stroke-width="1" opacity="0.75" />
			</g>
		</g>
		<g>
			<title>ysnE (BBLBDBLI_01176)
putative N-acetyltransferase YsnE</title>
			<polygon class="ysnE (BBLBDBLI_01176)
putative N-acetyltransferase YsnE" points="237,10 252,40 237,70" fill="rgb(255,255,255)" fill-opacity="1.0" stroke="rgb(0,0,0)" stroke-width="2"  />
			<g>
				<title>Acetyltransf_1 (PF00583)
"Acetyltransferase (GNAT) family"</title>
				<polygon class="PF00583" points="238,28 242,28 249,40 249,40 242,52 238,52" stroke-linejoin="round" width="11" height="24" fill="rgb(121,183,50)" stroke="rgb(96,146,39)" stroke-width="1" opacity="0.75" />
			</g>
		</g>
		<g>
			<title> (BBLBDBLI_01177)
hypothetical protein</title>
			<polygon class=" (BBLBDBLI_01177)
hypothetical protein" points="254,40 278,10 278,70" fill="rgb(255,255,255)" fill-opacity="1.0" stroke="rgb(0,0,0)" stroke-width="2"  />
			<g>
				<title>YqcI_YcgG (PF08892)
"YqcI/YcgG family"</title>
				<polygon class="PF08892" points="258,40 268,28 275,28 275,52 268,52" stroke-linejoin="round" width="21" height="24" fill="rgb(58,210,225)" stroke="rgb(46,168,180)" stroke-width="1" opacity="0.75" />
			</g>
		</g>
		<g>
			<title>fabI_1 (BBLBDBLI_01178)
Enoyl-[acyl-carrier-protein] reductase [NADH] FabI</title>
			<polygon class="fabI_1 (BBLBDBLI_01178)
Enoyl-[acyl-carrier-protein] reductase [NADH] FabI" points="290,10 316,40 290,70" fill="rgb(255,255,255)" fill-opacity="1.0" stroke="rgb(0,0,0)" stroke-width="2"  />
			<g>
				<title>adh_short_C2 (PF13561)
"Enoyl-(Acyl carrier protein) reductase"</title>
				<polygon class="PF13561" points="291,28 302,28 312,40 302,52 291,52" stroke-linejoin="round" width="24" height="24" fill="rgb(73,205,127)" stroke="rgb(58,164,101)" stroke-width="1" opacity="0.75" />
			</g>
		</g>
		<g>
			<title> (BBLBDBLI_01179)
hypothetical protein</title>
			<polygon class=" (BBLBDBLI_01179)
hypothetical protein" points="317,40 322,10 322,70" fill="rgb(255,255,255)" fill-opacity="1.0" stroke="rgb(0,0,0)" stroke-width="2"  />
		</g>
		<g>
			<title> (BBLBDBLI_01180)
hypothetical protein</title>
			<polygon class=" (BBLBDBLI_01180)
hypothetical protein" points="394,25 373,25 373,10 343,40 373,70 373,55 394,55" fill="rgb(255,255,255)" fill-opacity="1.0" stroke="rgb(0,0,0)" stroke-width="2"  />
			<g>
				<title>Nitroreductase (PF00881)
"Nitroreductase family"</title>
				<polygon class="PF00881" points="347,40 357,30 357,50" stroke-linejoin="round" width="13" height="24" fill="rgb(79,118,187)" stroke="rgb(63,94,149)" stroke-width="1" opacity="0.75" />
			</g>
		</g>
		<g>
			<title> (BBLBDBLI_01181)
hypothetical protein</title>
			<polygon class=" (BBLBDBLI_01181)
hypothetical protein" points="460,25 426,25 426,10 396,40 426,70 426,55 460,55" fill="rgb(255,255,255)" fill-opacity="1.0" stroke="rgb(0,0,0)" stroke-width="2"  />
			<g>
				<title>YcaO (PF02624)
"YcaO cyclodehydratase, ATP-ad Mg2+-binding"</title>
				<polygon class="PF02624" points="400,40 412,28 434,28 434,52 412,52 400,40" stroke-linejoin="round" width="34" height="24" fill="rgb(76,84,185)" stroke="rgb(60,67,148)" stroke-width="1" opacity="0.75" />
			</g>
		</g>
		<g>
			<title> (BBLBDBLI_01182)
hypothetical protein</title>
			<polygon class=" (BBLBDBLI_01182)
hypothetical protein" points="523,25 490,25 490,10 460,40 490,70 490,55 523,55" fill="rgb(255,255,255)" fill-opacity="1.0" stroke="rgb(0,0,0)" stroke-width="2"  />
		</g>
		<g>
			<title>ydaF_1 (BBLBDBLI_01183)
Putative ribosomal N-acetyltransferase YdaF</title>
			<polygon class="ydaF_1 (BBLBDBLI_01183)
Putative ribosomal N-acetyltransferase YdaF" points="548,10 566,40 548,70" fill="rgb(255,255,255)" fill-opacity="1.0" stroke="rgb(0,0,0)" stroke-width="2"  />
			<g>
				<title>Acetyltransf_3 (PF13302)
"Acetyltransferase (GNAT) domain"</title>
				<polygon class="PF13302" points="548,28 555,28 562,39 562,41 555,52 548,52" stroke-linejoin="round" width="14" height="24" fill="rgb(105,146,215)" stroke="rgb(84,116,172)" stroke-width="1" opacity="0.75" />
			</g>
		</g>
		<g>
			<title> (BBLBDBLI_01184)
hypothetical protein</title>
			<polygon class=" (BBLBDBLI_01184)
hypothetical protein" points="574,10 591,40 574,70" fill="rgb(255,255,255)" fill-opacity="1.0" stroke="rgb(0,0,0)" stroke-width="2"  />
			<g>
				<title>His_Phos_1 (PF00300)
"Histidine phosphatase superfamily (branch 1)"</title>
				<polygon class="PF00300" points="575,28 581,28 588,40 581,52 575,52" stroke-linejoin="round" width="16" height="24" fill="rgb(135,184,63)" stroke="rgb(107,147,50)" stroke-width="1" opacity="0.75" />
			</g>
		</g>
		<g>
			<title> (BBLBDBLI_01185)
hypothetical protein</title>
			<polygon class=" (BBLBDBLI_01185)
hypothetical protein" points="592,10 604,40 592,70" fill="rgb(255,255,255)" fill-opacity="1.0" stroke="rgb(0,0,0)" stroke-width="2"  />
			<g>
				<title>DUF4440 (PF14534)
"Domain of unknown function (DUF4440)"</title>
				<polygon class="PF14534" points="592,28 596,28 601,39 601,41 596,52 592,52" stroke-linejoin="round" width="9" height="24" fill="rgb(63,159,224)" stroke="rgb(50,127,179)" stroke-width="1" opacity="0.75" />
			</g>
		</g>
		<g>
			<title> (BBLBDBLI_01186)
hypothetical protein</title>
			<polygon class=" (BBLBDBLI_01186)
hypothetical protein" points="607,40 613,10 613,70" fill="rgb(255,255,255)" fill-opacity="1.0" stroke="rgb(0,0,0)" stroke-width="2"  />
		</g>
		<g>
			<title>dapX_1 (BBLBDBLI_01187)
putative N-acetyl-LL-diaminopimelate aminotransferase</title>
			<polygon class="dapX_1 (BBLBDBLI_01187)
putative N-acetyl-LL-diaminopimelate aminotransferase" points="659,25 651,25 651,10 621,40 651,70 651,55 659,55" fill="rgb(255,255,255)" fill-opacity="1.0" stroke="rgb(0,0,0)" stroke-width="2"  />
			<g>
				<title>Aminotran_1_2 (PF00155)
"Aminotransferase class I and II"</title>
				<polygon class="PF00155" points="625,40 637,28 656,28 656,52 637,52" stroke-linejoin="round" width="35" height="24" fill="rgb(89,113,198)" stroke="rgb(71,90,158)" stroke-width="1" opacity="0.75" />
			</g>
		</g>
		<g>
			<title> (BBLBDBLI_01188)
hypothetical protein</title>
			<polygon class=" (BBLBDBLI_01188)
hypothetical protein" points="660,40 677,10 677,70" fill="rgb(255,255,255)" fill-opacity="1.0" stroke="rgb(0,0,0)" stroke-width="2"  />
			<g>
				<title>AsnC_trans_reg (PF01037)
"Lrp/AsnC ligand binding domain"</title>
				<polygon class="PF01037" points="663,40 669,30 669,50" stroke-linejoin="round" width="7" height="24" fill="rgb(134,72,182)" stroke="rgb(107,57,145)" stroke-width="1" opacity="0.75" />
			</g>
		</g>
		<g>
			<title> (BBLBDBLI_01189)
hypothetical protein</title>
			<polygon class=" (BBLBDBLI_01189)
hypothetical protein" points="679,40 684,10 684,70" fill="rgb(255,255,255)" fill-opacity="1.0" stroke="rgb(0,0,0)" stroke-width="2"  />
		</g>
		<g>
			<title> (BBLBDBLI_01190)
hypothetical protein</title>
			<polygon class=" (BBLBDBLI_01190)
hypothetical protein" points="690,40 712,10 712,70" fill="rgb(255,255,255)" fill-opacity="1.0" stroke="rgb(0,0,0)" stroke-width="2"  />
			<g>
				<title>DUF2294 (PF10057)
"Uncharacterized conserved protein (DUF2294)"</title>
				<polygon class="PF10057" points="694,40 700,32 700,48" stroke-linejoin="round" width="10" height="24" fill="rgb(60,163,178)" stroke="rgb(48,130,142)" stroke-width="1" opacity="0.75" />
			</g>
			<g>
				<title>DUF2294 (PF10057)
"Uncharacterized conserved protein (DUF2294)"</title>
				<polygon class="PF10057" points="701,31 703,28 711,28 711,52 703,52 701,49" stroke-linejoin="round" width="10" height="24" fill="rgb(60,163,178)" stroke="rgb(48,130,142)" stroke-width="1" opacity="0.75" />
			</g>
		</g>
		<g>
			<title>slyA_2 (BBLBDBLI_01191)
Transcriptional regulator SlyA</title>
			<polygon class="slyA_2 (BBLBDBLI_01191)
Transcriptional regulator SlyA" points="722,10 737,40 722,70" fill="rgb(255,255,255)" fill-opacity="1.0" stroke="rgb(0,0,0)" stroke-width="2"  />
			<g>
				<title>MarR (PF01047)
"MarR family"</title>
				<polygon class="PF01047" points="725,28 727,28 730,33 730,47 727,52 725,52" stroke-linejoin="round" width="5" height="24" fill="rgb(60,185,86)" stroke="rgb(48,148,68)" stroke-width="1" opacity="0.75" />
			</g>
		</g>
		<g>
			<title> (BBLBDBLI_01192)
hypothetical protein</title>
			<polygon class=" (BBLBDBLI_01192)
hypothetical protein" points="736,10 764,40 736,70" fill="rgb(255,255,255)" fill-opacity="1.0" stroke="rgb(0,0,0)" stroke-width="2"  />
			<g>
				<title>Pirin (PF02678)
"Pirin"</title>
				<rect class="PF02678" x="739" y="28" stroke-linejoin="round" width="9" height="24" fill="rgb(139,213,61)" stroke="rgb(111,170,48)" stroke-width="1" opacity="0.75" />
			</g>
			<g>
				<title>Pirin_C (PF05726)
"Pirin C-terminal cupin domain"</title>
				<polygon class="PF05726" points="753,33 760,40 753,47" stroke-linejoin="round" width="10" height="24" fill="rgb(68,194,205)" stroke="rgb(54,155,164)" stroke-width="1" opacity="0.75" />
			</g>
		</g>
		<g>
			<title>insK_3 (BBLBDBLI_01193)
Putative transposase InsK for insertion sequence element IS150</title>
			<polygon class="insK_3 (BBLBDBLI_01193)
Putative transposase InsK for insertion sequence element IS150" points="776,40 793,10 793,70" fill="rgb(255,255,255)" fill-opacity="1.0" stroke="rgb(0,0,0)" stroke-width="2"  />
			<g>
				<title>HTH_21 (PF13276)
"HTH-like domain"</title>
				<polygon class="PF13276" points="786,28 786,28 792,28 792,52 786,52 786,52" stroke-linejoin="round" width="6" height="24" fill="rgb(114,195,68)" stroke="rgb(91,156,54)" stroke-width="1" opacity="0.75" />
			</g>
		</g>
	</g>
</svg>
