<svg version="1.1" baseProfile="full" xmlns="http://www.w3.org/2000/svg" width="716.5666666666667" height="80">
	<g>
		<line x1="10" y1="40.0" x2="706.5666666666667" y2="40.0" style="stroke:rgb(70,70,70); stroke-width:3 "/>
		<g>
			<title> (NDIJOPKD_00628)
IS21 family transposase IS643</title>
			<polygon class=" (NDIJOPKD_00628)
IS21 family transposase IS643" points="27,40 52,10 52,70" fill="rgb(255,255,255)" fill-opacity="1.0" stroke="rgb(0,0,0)" stroke-width="2"  />
			<g>
				<title>IstB_IS21 (PF01695)
"IstB-like ATP binding protein"</title>
				<polygon class="PF01695" points="31,40 41,28 46,28 46,52 41,52" stroke-linejoin="round" width="17" height="24" fill="rgb(205,68,192)" stroke="rgb(164,54,153)" stroke-width="1" opacity="0.75" />
			</g>
		</g>
		<g>
			<title> (NDIJOPKD_00629)
hypothetical protein</title>
			<polygon class=" (NDIJOPKD_00629)
hypothetical protein" points="103,25 82,25 82,10 52,40 82,70 82,55 103,55" fill="rgb(255,255,255)" fill-opacity="1.0" stroke="rgb(0,0,0)" stroke-width="2"  />
			<g>
				<title>rve (PF00665)
"Integrase core domain"</title>
				<rect class="PF00665" x="78" y="28" stroke-linejoin="round" width="12" height="24" fill="rgb(93,64,200)" stroke="rgb(74,51,160)" stroke-width="1" opacity="0.75" />
			</g>
			<g>
				<title>HTH_7 (PF02796)
"Helix-turn-helix domain of resolvase"</title>
				<rect class="PF02796" x="100" y="28" stroke-linejoin="round" width="3" height="24" fill="rgb(223,208,93)" stroke="rgb(178,166,74)" stroke-width="1" opacity="0.75" />
			</g>
		</g>
		<g>
			<title> (NDIJOPKD_00630)
hypothetical protein</title>
			<polygon class=" (NDIJOPKD_00630)
hypothetical protein" points="159,25 148,25 148,10 118,40 148,70 148,55 159,55" fill="rgb(255,255,255)" fill-opacity="1.0" stroke="rgb(0,0,0)" stroke-width="2"  />
			<g>
				<title>MFS_1 (PF07690)
"Major Facilitator Superfamily"</title>
				<polygon class="PF07690" points="123,39 134,28 157,28 157,52 134,52 123,41" stroke-linejoin="round" width="34" height="24" fill="rgb(193,224,74)" stroke="rgb(154,179,59)" stroke-width="1" opacity="0.75" />
			</g>
		</g>
		<g>
			<title> (NDIJOPKD_00631)
Acetyltransferase</title>
			<polygon class=" (NDIJOPKD_00631)
Acetyltransferase" points="172,40 189,10 189,70" fill="rgb(255,255,255)" fill-opacity="1.0" stroke="rgb(0,0,0)" stroke-width="2"  />
			<g>
				<title>Acetyltransf_3 (PF13302)
"Acetyltransferase (GNAT) domain"</title>
				<polygon class="PF13302" points="175,40 182,28 188,28 188,52 182,52" stroke-linejoin="round" width="14" height="24" fill="rgb(105,146,215)" stroke="rgb(84,116,172)" stroke-width="1" opacity="0.75" />
			</g>
		</g>
		<g>
			<title> (NDIJOPKD_00632)
hypothetical protein</title>
			<polygon class=" (NDIJOPKD_00632)
hypothetical protein" points="197,40 208,10 208,70" fill="rgb(255,255,255)" fill-opacity="1.0" stroke="rgb(0,0,0)" stroke-width="2"  />
			<g>
				<title>DUF2200 (PF09966)
"Uncharacterized protein conserved in bacteria (DUF2200)"</title>
				<polygon class="PF09966" points="200,40 205,28 208,28 208,52 205,52" stroke-linejoin="round" width="11" height="24" fill="rgb(80,75,207)" stroke="rgb(64,60,165)" stroke-width="1" opacity="0.75" />
			</g>
		</g>
		<g>
			<title>COQ5_1 (NDIJOPKD_00633)
2-methoxy-6-polyprenyl-1,4-benzoquinol methylase, mitochondrial</title>
			<polygon class="COQ5_1 (NDIJOPKD_00633)
2-methoxy-6-polyprenyl-1,4-benzoquinol methylase, mitochondrial" points="213,40 232,10 232,70" fill="rgb(255,255,255)" fill-opacity="1.0" stroke="rgb(0,0,0)" stroke-width="2"  />
			<g>
				<title>Methyltransf_31 (PF13847)
"Methyltransferase domain"</title>
				<polygon class="PF13847" points="217,40 225,28 229,28 229,52 225,52" stroke-linejoin="round" width="15" height="24" fill="rgb(214,74,181)" stroke="rgb(171,59,144)" stroke-width="1" opacity="0.75" />
			</g>
		</g>
		<g>
			<title>nsrR_1 (NDIJOPKD_00634)
HTH-type transcriptional repressor NsrR</title>
			<polygon class="nsrR_1 (NDIJOPKD_00634)
HTH-type transcriptional repressor NsrR" points="237,40 250,10 250,70" fill="rgb(255,255,255)" fill-opacity="1.0" stroke="rgb(0,0,0)" stroke-width="2"  />
			<g>
				<title>Rrf2 (PF02082)
"Transcriptional regulator"</title>
				<polygon class="PF02082" points="241,38 245,28 249,28 249,52 245,52 241,42" stroke-linejoin="round" width="8" height="24" fill="rgb(73,178,133)" stroke="rgb(58,142,106)" stroke-width="1" opacity="0.75" />
			</g>
		</g>
		<g>
			<title>bphD (NDIJOPKD_00635)
2-hydroxy-6-oxo-6-phenylhexa-2,4-dienoate hydrolase</title>
			<polygon class="bphD (NDIJOPKD_00635)
2-hydroxy-6-oxo-6-phenylhexa-2,4-dienoate hydrolase" points="269,40 293,10 293,70" fill="rgb(255,255,255)" fill-opacity="1.0" stroke="rgb(0,0,0)" stroke-width="2"  />
			<g>
				<title>Abhydrolase_1 (PF00561)
"alpha/beta hydrolase fold"</title>
				<polygon class="PF00561" points="280,31 283,28 292,28 292,52 283,52 280,49" stroke-linejoin="round" width="12" height="24" fill="rgb(86,180,151)" stroke="rgb(68,144,120)" stroke-width="1" opacity="0.75" />
			</g>
		</g>
		<g>
			<title>carH (NDIJOPKD_00636)
HTH-type transcriptional repressor CarH</title>
			<polygon class="carH (NDIJOPKD_00636)
HTH-type transcriptional repressor CarH" points="304,40 333,10 333,70" fill="rgb(255,255,255)" fill-opacity="1.0" stroke="rgb(0,0,0)" stroke-width="2"  />
			<g>
				<title>MerR_1 (PF13411)
"MerR HTH family regulatory protein"</title>
				<rect class="PF13411" x="325" y="28" stroke-linejoin="round" width="6" height="24" fill="rgb(100,202,107)" stroke="rgb(80,161,85)" stroke-width="1" opacity="0.75" />
			</g>
		</g>
		<g>
			<title>crtB (NDIJOPKD_00637)
15-cis-phytoene synthase</title>
			<polygon class="crtB (NDIJOPKD_00637)
15-cis-phytoene synthase" points="343,10 372,40 343,70" fill="rgb(255,255,255)" fill-opacity="1.0" stroke="rgb(0,0,0)" stroke-width="2"  />
			<g>
				<title>SQS_PSY (PF00494)
"Squalene/phytoene synthase"</title>
				<polygon class="PF00494" points="344,28 356,28 368,40 356,52 344,52" stroke-linejoin="round" width="25" height="24" fill="rgb(178,91,49)" stroke="rgb(142,72,39)" stroke-width="1" opacity="0.75" />
			</g>
		</g>
		<g>
			<title>crtP (NDIJOPKD_00638)
4,4'-diaponeurosporene oxygenase</title>
			<polygon class="crtP (NDIJOPKD_00638)
4,4'-diaponeurosporene oxygenase" points="372,25 392,25 392,10 422,40 392,70 392,55 372,55" fill="rgb(255,255,255)" fill-opacity="1.0" stroke="rgb(0,0,0)" stroke-width="2"  />
			<g>
				<title>Amino_oxidase (PF01593)
"Flavin containing amine oxidoreductase"</title>
				<polygon class="PF01593" points="373,28 405,28 417,40 405,52 373,52" stroke-linejoin="round" width="47" height="24" fill="rgb(184,74,52)" stroke="rgb(147,59,41)" stroke-width="1" opacity="0.75" />
			</g>
		</g>
		<g>
			<title>crtNc (NDIJOPKD_00639)
4,4'-diapolycopene-4,4'-dial dehydrogenase</title>
			<polygon class="crtNc (NDIJOPKD_00639)
4,4'-diapolycopene-4,4'-dial dehydrogenase" points="422,25 438,25 438,10 468,40 438,70 438,55 422,55" fill="rgb(255,255,255)" fill-opacity="1.0" stroke="rgb(0,0,0)" stroke-width="2"  />
			<g>
				<title>Aldedh (PF00171)
"Aldehyde dehydrogenase family"</title>
				<polygon class="PF00171" points="423,28 452,28 464,40 452,52 423,52" stroke-linejoin="round" width="42" height="24" fill="rgb(105,213,139)" stroke="rgb(84,170,111)" stroke-width="1" opacity="0.75" />
			</g>
		</g>
		<g>
			<title> (NDIJOPKD_00640)
hypothetical protein</title>
			<polygon class=" (NDIJOPKD_00640)
hypothetical protein" points="470,10 485,40 470,70" fill="rgb(255,255,255)" fill-opacity="1.0" stroke="rgb(0,0,0)" stroke-width="2"  />
		</g>
		<g>
			<title>crtN (NDIJOPKD_00641)
4,4'-diapophytoene desaturase (4,4'-diaponeurosporene-forming)</title>
			<polygon class="crtN (NDIJOPKD_00641)
4,4'-diapophytoene desaturase (4,4'-diaponeurosporene-forming)" points="490,25 510,25 510,10 540,40 510,70 510,55 490,55" fill="rgb(255,255,255)" fill-opacity="1.0" stroke="rgb(0,0,0)" stroke-width="2"  />
			<g>
				<title>Amino_oxidase (PF01593)
"Flavin containing amine oxidoreductase"</title>
				<polygon class="PF01593" points="491,28 524,28 536,40 524,52 491,52" stroke-linejoin="round" width="48" height="24" fill="rgb(184,74,52)" stroke="rgb(147,59,41)" stroke-width="1" opacity="0.75" />
			</g>
		</g>
		<g>
			<title>crtQ (NDIJOPKD_00642)
4,4'-diaponeurosporenoate glycosyltransferase</title>
			<polygon class="crtQ (NDIJOPKD_00642)
4,4'-diaponeurosporenoate glycosyltransferase" points="542,25 549,25 549,10 579,40 549,70 549,55 542,55" fill="rgb(255,255,255)" fill-opacity="1.0" stroke="rgb(0,0,0)" stroke-width="2"  />
			<g>
				<title>Glycos_transf_2 (PF00535)
"Glycosyl transferase family 2"</title>
				<rect class="PF00535" x="546" y="28" stroke-linejoin="round" width="16" height="24" fill="rgb(224,122,96)" stroke="rgb(179,97,76)" stroke-width="1" opacity="0.75" />
			</g>
		</g>
		<g>
			<title> (NDIJOPKD_00643)
hypothetical protein</title>
			<polygon class=" (NDIJOPKD_00643)
hypothetical protein" points="581,10 603,40 581,70" fill="rgb(255,255,255)" fill-opacity="1.0" stroke="rgb(0,0,0)" stroke-width="2"  />
		</g>
		<g>
			<title> (NDIJOPKD_00644)
hypothetical protein</title>
			<polygon class=" (NDIJOPKD_00644)
hypothetical protein" points="604,10 617,40 604,70" fill="rgb(255,255,255)" fill-opacity="1.0" stroke="rgb(0,0,0)" stroke-width="2"  />
			<g>
				<title>Pyr_excise (PF03013)
"Pyrimidine dimer DNA glycosylase"</title>
				<polygon class="PF03013" points="604,28 608,28 614,40 608,52 604,52" stroke-linejoin="round" width="11" height="24" fill="rgb(222,160,68)" stroke="rgb(177,128,54)" stroke-width="1" opacity="0.75" />
			</g>
		</g>
		<g>
			<title>splB (NDIJOPKD_00645)
Spore photoproduct lyase</title>
			<polygon class="splB (NDIJOPKD_00645)
Spore photoproduct lyase" points="657,25 653,25 653,10 623,40 653,70 653,55 657,55" fill="rgb(255,255,255)" fill-opacity="1.0" stroke="rgb(0,0,0)" stroke-width="2"  />
		</g>
		<g>
			<title> (NDIJOPKD_00646)
hypothetical protein</title>
			<polygon class=" (NDIJOPKD_00646)
hypothetical protein" points="657,40 665,10 665,70" fill="rgb(255,255,255)" fill-opacity="1.0" stroke="rgb(0,0,0)" stroke-width="2"  />
			<g>
				<title>SplA (PF11132)
"Transcriptional regulator protein (SplA)"</title>
				<polygon class="PF11132" points="660,40 663,28 664,28 664,52 663,52" stroke-linejoin="round" width="7" height="24" fill="rgb(161,205,68)" stroke="rgb(128,164,54)" stroke-width="1" opacity="0.75" />
			</g>
		</g>
		<g>
			<title> (NDIJOPKD_00647)
hypothetical protein</title>
			<polygon class=" (NDIJOPKD_00647)
hypothetical protein" points="668,40 677,10 677,70" fill="rgb(255,255,255)" fill-opacity="1.0" stroke="rgb(0,0,0)" stroke-width="2"  />
		</g>
	</g>
</svg>
