<svg version="1.1" baseProfile="full" xmlns="http://www.w3.org/2000/svg" width="1386.5333333333333" height="80">
	<g>
		<line x1="10" y1="40.0" x2="1376.5333333333333" y2="40.0" style="stroke:rgb(70,70,70); stroke-width:3 "/>
		<g>
			<title>ponA_1 (BBLDBBGM_00132)
Penicillin-binding protein 1A/1B</title>
			<polygon class="ponA_1 (BBLDBBGM_00132)
Penicillin-binding protein 1A/1B" points="107,25 48,25 48,10 18,40 48,70 48,55 107,55" fill="rgb(255,255,255)" fill-opacity="1.0" stroke="rgb(0,0,0)" stroke-width="2"  />
			<g>
				<title>fn3 (PF00041)
"Fibronectin type III domain"</title>
				<polygon class="PF00041" points="31,31 34,28 38,28 38,52 34,52 31,49" stroke-linejoin="round" width="7" height="24" fill="rgb(203,70,135)" stroke="rgb(162,56,107)" stroke-width="1" opacity="0.75" />
			</g>
			<g>
				<title>Transpeptidase (PF00905)
"Penicillin binding protein transpeptidase domain"</title>
				<rect class="PF00905" x="45" y="28" stroke-linejoin="round" width="27" height="24" fill="rgb(161,226,87)" stroke="rgb(128,180,69)" stroke-width="1" opacity="0.75" />
			</g>
			<g>
				<title>Transgly (PF00912)
"Transglycosylase"</title>
				<rect class="PF00912" x="81" y="28" stroke-linejoin="round" width="17" height="24" fill="rgb(172,107,216)" stroke="rgb(137,85,172)" stroke-width="1" opacity="0.75" />
			</g>
		</g>
		<g>
			<title>recU (BBLDBBGM_00133)
Holliday junction resolvase RecU</title>
			<polygon class="recU (BBLDBBGM_00133)
Holliday junction resolvase RecU" points="107,40 126,10 126,70" fill="rgb(255,255,255)" fill-opacity="1.0" stroke="rgb(0,0,0)" stroke-width="2"  />
			<g>
				<title>RecU (PF03838)
"Recombination protein U"</title>
				<polygon class="PF03838" points="111,40 119,28 123,28 123,52 119,52" stroke-linejoin="round" width="16" height="24" fill="rgb(93,204,83)" stroke="rgb(74,163,66)" stroke-width="1" opacity="0.75" />
			</g>
		</g>
		<g>
			<title> (BBLDBBGM_00134)
hypothetical protein</title>
			<polygon class=" (BBLDBBGM_00134)
hypothetical protein" points="143,40 146,10 146,70" fill="rgb(255,255,255)" fill-opacity="1.0" stroke="rgb(0,0,0)" stroke-width="2"  />
		</g>
		<g>
			<title>racA (BBLDBBGM_00135)
Chromosome-anchoring protein RacA</title>
			<polygon class="racA (BBLDBBGM_00135)
Chromosome-anchoring protein RacA" points="151,10 159,40 151,70" fill="rgb(255,255,255)" fill-opacity="1.0" stroke="rgb(0,0,0)" stroke-width="2"  />
		</g>
		<g>
			<title> (BBLDBBGM_00136)
hypothetical protein</title>
			<polygon class=" (BBLDBBGM_00136)
hypothetical protein" points="162,10 173,40 162,70" fill="rgb(255,255,255)" fill-opacity="1.0" stroke="rgb(0,0,0)" stroke-width="2"  />
			<g>
				<title>DUF1798 (PF08807)
"Bacterial domain of unknown function (DUF1798)"</title>
				<polygon class="PF08807" points="162,28 165,28 170,40 165,52 162,52" stroke-linejoin="round" width="10" height="24" fill="rgb(153,201,81)" stroke="rgb(122,160,64)" stroke-width="1" opacity="0.75" />
			</g>
		</g>
		<g>
			<title>swrC_1 (BBLDBBGM_00137)
Swarming motility protein SwrC</title>
			<polygon class="swrC_1 (BBLDBBGM_00137)
Swarming motility protein SwrC" points="288,25 216,25 216,10 186,40 216,70 216,55 288,55" fill="rgb(255,255,255)" fill-opacity="1.0" stroke="rgb(0,0,0)" stroke-width="2"  />
			<g>
				<title>ACR_tran (PF00873)
"AcrB/AcrD/AcrF family"</title>
				<polygon class="PF00873" points="190,40 202,28 288,28 288,52 202,52" stroke-linejoin="round" width="101" height="24" fill="rgb(63,191,60)" stroke="rgb(50,152,48)" stroke-width="1" opacity="0.75" />
			</g>
		</g>
		<g>
			<title>cdd (BBLDBBGM_00138)
Cytidine deaminase</title>
			<polygon class="cdd (BBLDBBGM_00138)
Cytidine deaminase" points="294,10 307,40 294,70" fill="rgb(255,255,255)" fill-opacity="1.0" stroke="rgb(0,0,0)" stroke-width="2"  />
			<g>
				<title>dCMP_cyt_deam_1 (PF00383)
"Cytidine and deoxycytidylate deaminase zinc-binding region"</title>
				<polygon class="PF00383" points="294,28 298,28 304,40 304,40 298,52 294,52" stroke-linejoin="round" width="10" height="24" fill="rgb(91,149,216)" stroke="rgb(72,119,172)" stroke-width="1" opacity="0.75" />
			</g>
		</g>
		<g>
			<title> (BBLDBBGM_00139)
hypothetical protein</title>
			<polygon class=" (BBLDBBGM_00139)
hypothetical protein" points="314,10 335,40 314,70" fill="rgb(255,255,255)" fill-opacity="1.0" stroke="rgb(0,0,0)" stroke-width="2"  />
			<g>
				<title>Spore-coat_CotD (PF11122)
"Inner spore coat protein D"</title>
				<polygon class="PF11122" points="316,28 323,28 332,40 323,52 316,52" stroke-linejoin="round" width="19" height="24" fill="rgb(221,153,69)" stroke="rgb(176,122,55)" stroke-width="1" opacity="0.75" />
			</g>
		</g>
		<g>
			<title> (BBLDBBGM_00140)
hypothetical protein</title>
			<polygon class=" (BBLDBBGM_00140)
hypothetical protein" points="339,10 357,40 339,70" fill="rgb(255,255,255)" fill-opacity="1.0" stroke="rgb(0,0,0)" stroke-width="2"  />
			<g>
				<title>YpsA (PF06908)
"YspA SLOG family"</title>
				<polygon class="PF06908" points="339,28 346,28 354,40 346,52 339,52" stroke-linejoin="round" width="16" height="24" fill="rgb(136,100,209)" stroke="rgb(108,80,167)" stroke-width="1" opacity="0.75" />
			</g>
		</g>
		<g>
			<title>gpsB (BBLDBBGM_00141)
Cell cycle protein GpsB</title>
			<polygon class="gpsB (BBLDBBGM_00141)
Cell cycle protein GpsB" points="361,10 371,40 361,70" fill="rgb(255,255,255)" fill-opacity="1.0" stroke="rgb(0,0,0)" stroke-width="2"  />
			<g>
				<title>DivIVA (PF05103)
"DivIVA protein"</title>
				<polygon class="PF05103" points="361,28 363,28 367,37 367,43 363,52 361,52" stroke-linejoin="round" width="6" height="24" fill="rgb(213,106,117)" stroke="rgb(170,84,93)" stroke-width="1" opacity="0.75" />
			</g>
		</g>
		<g>
			<title>rlmL (BBLDBBGM_00142)
Ribosomal RNA large subunit methyltransferase L</title>
			<polygon class="rlmL (BBLDBBGM_00142)
Ribosomal RNA large subunit methyltransferase L" points="391,25 398,25 398,10 428,40 398,70 398,55 391,55" fill="rgb(255,255,255)" fill-opacity="1.0" stroke="rgb(0,0,0)" stroke-width="2"  />
			<g>
				<title>THUMP (PF02926)
"THUMP domain"</title>
				<rect class="PF02926" x="392" y="28" stroke-linejoin="round" width="14" height="24" fill="rgb(52,209,163)" stroke="rgb(41,167,130)" stroke-width="1" opacity="0.75" />
			</g>
			<g>
				<title>UPF0020 (PF01170)
"Putative RNA methylase family UPF0020"</title>
				<polygon class="PF01170" points="407,28 412,28 424,40 412,52 407,52" stroke-linejoin="round" width="20" height="24" fill="rgb(89,182,69)" stroke="rgb(71,145,55)" stroke-width="1" opacity="0.75" />
			</g>
		</g>
		<g>
			<title>ypwA (BBLDBBGM_00143)
Carboxypeptidase 1</title>
			<polygon class="ypwA (BBLDBBGM_00143)
Carboxypeptidase 1" points="429,25 448,25 448,10 478,40 448,70 448,55 429,55" fill="rgb(255,255,255)" fill-opacity="1.0" stroke="rgb(0,0,0)" stroke-width="2"  />
			<g>
				<title>Peptidase_M32 (PF02074)
"Carboxypeptidase Taq (M32) metallopeptidase"</title>
				<polygon class="PF02074" points="429,28 462,28 474,40 462,52 429,52" stroke-linejoin="round" width="48" height="24" fill="rgb(213,142,93)" stroke="rgb(170,113,74)" stroke-width="1" opacity="0.75" />
			</g>
		</g>
		<g>
			<title>tcyA (BBLDBBGM_00144)
L-cystine-binding protein TcyA</title>
			<polygon class="tcyA (BBLDBBGM_00144)
L-cystine-binding protein TcyA" points="500,10 527,40 500,70" fill="rgb(255,255,255)" fill-opacity="1.0" stroke="rgb(0,0,0)" stroke-width="2"  />
			<g>
				<title>SBP_bac_3 (PF00497)
"Bacterial extracellular solute-binding proteins, family 3"</title>
				<polygon class="PF00497" points="505,28 511,28 523,40 511,52 505,52" stroke-linejoin="round" width="21" height="24" fill="rgb(186,76,141)" stroke="rgb(148,60,112)" stroke-width="1" opacity="0.75" />
			</g>
		</g>
		<g>
			<title>tcyB_1 (BBLDBBGM_00145)
L-cystine transport system permease protein TcyB</title>
			<polygon class="tcyB_1 (BBLDBBGM_00145)
L-cystine transport system permease protein TcyB" points="526,10 550,40 526,70" fill="rgb(255,255,255)" fill-opacity="1.0" stroke="rgb(0,0,0)" stroke-width="2"  />
			<g>
				<title>BPD_transp_1 (PF00528)
"Binding-protein-dependent transport system inner membrane component"</title>
				<polygon class="PF00528" points="532,28 537,28 547,40 537,52 532,52" stroke-linejoin="round" width="18" height="24" fill="rgb(77,208,225)" stroke="rgb(61,166,180)" stroke-width="1" opacity="0.75" />
			</g>
		</g>
		<g>
			<title>tcyC (BBLDBBGM_00146)
L-cystine import ATP-binding protein TcyC</title>
			<polygon class="tcyC (BBLDBBGM_00146)
L-cystine import ATP-binding protein TcyC" points="551,10 575,40 551,70" fill="rgb(255,255,255)" fill-opacity="1.0" stroke="rgb(0,0,0)" stroke-width="2"  />
			<g>
				<title>ABC_tran (PF00005)
"ABC transporter"</title>
				<polygon class="PF00005" points="552,28 562,28 567,35 567,45 562,52 552,52" stroke-linejoin="round" width="15" height="24" fill="rgb(129,201,63)" stroke="rgb(103,160,50)" stroke-width="1" opacity="0.75" />
			</g>
		</g>
		<g>
			<title> (BBLDBBGM_00147)
hypothetical protein</title>
			<polygon class=" (BBLDBBGM_00147)
hypothetical protein" points="580,40 598,10 598,70" fill="rgb(255,255,255)" fill-opacity="1.0" stroke="rgb(0,0,0)" stroke-width="2"  />
		</g>
		<g>
			<title>gno (BBLDBBGM_00148)
Gluconate 5-dehydrogenase</title>
			<polygon class="gno (BBLDBBGM_00148)
Gluconate 5-dehydrogenase" points="604,10 629,40 604,70" fill="rgb(255,255,255)" fill-opacity="1.0" stroke="rgb(0,0,0)" stroke-width="2"  />
			<g>
				<title>adh_short_C2 (PF13561)
"Enoyl-(Acyl carrier protein) reductase"</title>
				<polygon class="PF13561" points="605,28 615,28 625,40 615,52 605,52" stroke-linejoin="round" width="23" height="24" fill="rgb(73,205,127)" stroke="rgb(58,164,101)" stroke-width="1" opacity="0.75" />
			</g>
		</g>
		<g>
			<title>cheX (BBLDBBGM_00149)
CheY-P phosphatase CheX</title>
			<polygon class="cheX (BBLDBBGM_00149)
CheY-P phosphatase CheX" points="654,40 669,10 669,70" fill="rgb(255,255,255)" fill-opacity="1.0" stroke="rgb(0,0,0)" stroke-width="2"  />
			<g>
				<title>CheX (PF13690)
"Chemotaxis phosphatase CheX"</title>
				<polygon class="PF13690" points="657,40 663,28 665,28 665,52 663,52" stroke-linejoin="round" width="10" height="24" fill="rgb(55,220,212)" stroke="rgb(44,176,169)" stroke-width="1" opacity="0.75" />
			</g>
		</g>
		<g>
			<title> (BBLDBBGM_00150)
Alpha-pyrone synthesis polyketide synthase-like Pks11</title>
			<polygon class=" (BBLDBBGM_00150)
Alpha-pyrone synthesis polyketide synthase-like Pks11" points="676,25 679,25 679,10 709,40 679,70 679,55 676,55" fill="rgb(255,255,255)" fill-opacity="1.0" stroke="rgb(0,0,0)" stroke-width="2"  />
			<g>
				<title>Chal_sti_synt_N (PF00195)
"Chalcone and stilbene synthases, N-terminal domain"</title>
				<polygon class="PF00195" points="678,28 692,28 693,29 693,51 692,52 678,52" stroke-linejoin="round" width="15" height="24" fill="rgb(60,181,161)" stroke="rgb(47,144,128)" stroke-width="1" opacity="0.75" />
			</g>
			<g>
				<title>Chal_sti_synt_C (PF02797)
"Chalcone and stilbene synthases, C-terminal domain"</title>
				<polygon class="PF02797" points="695,31 704,40 695,49" stroke-linejoin="round" width="13" height="24" fill="rgb(139,212,63)" stroke="rgb(111,169,50)" stroke-width="1" opacity="0.75" />
			</g>
		</g>
		<g>
			<title> (BBLDBBGM_00151)
hypothetical protein</title>
			<polygon class=" (BBLDBBGM_00151)
hypothetical protein" points="709,10 726,40 709,70" fill="rgb(255,255,255)" fill-opacity="1.0" stroke="rgb(0,0,0)" stroke-width="2"  />
			<g>
				<title>ICMT (PF04140)
"Isoprenylcysteine carboxyl methyltransferase (ICMT) family"</title>
				<polygon class="PF04140" points="716,29 722,40 716,51" stroke-linejoin="round" width="9" height="24" fill="rgb(100,223,104)" stroke="rgb(80,178,83)" stroke-width="1" opacity="0.75" />
			</g>
		</g>
		<g>
			<title> (BBLDBBGM_00152)
hypothetical protein</title>
			<polygon class=" (BBLDBBGM_00152)
hypothetical protein" points="729,10 734,40 729,70" fill="rgb(255,255,255)" fill-opacity="1.0" stroke="rgb(0,0,0)" stroke-width="2"  />
		</g>
		<g>
			<title> (BBLDBBGM_00153)
hypothetical protein</title>
			<polygon class=" (BBLDBBGM_00153)
hypothetical protein" points="741,10 750,40 741,70" fill="rgb(255,255,255)" fill-opacity="1.0" stroke="rgb(0,0,0)" stroke-width="2"  />
		</g>
		<g>
			<title>rnhA (BBLDBBGM_00154)
14.7 kDa ribonuclease H-like protein</title>
			<polygon class="rnhA (BBLDBBGM_00154)
14.7 kDa ribonuclease H-like protein" points="751,40 764,10 764,70" fill="rgb(255,255,255)" fill-opacity="1.0" stroke="rgb(0,0,0)" stroke-width="2"  />
			<g>
				<title>RVT_3 (PF13456)
"Reverse transcriptase-like"</title>
				<polygon class="PF13456" points="754,40 759,28 764,28 764,52 759,52" stroke-linejoin="round" width="12" height="24" fill="rgb(198,123,86)" stroke="rgb(158,98,68)" stroke-width="1" opacity="0.75" />
			</g>
		</g>
		<g>
			<title> (BBLDBBGM_00155)
queuosine precursor transporter</title>
			<polygon class=" (BBLDBBGM_00155)
queuosine precursor transporter" points="765,40 787,10 787,70" fill="rgb(255,255,255)" fill-opacity="1.0" stroke="rgb(0,0,0)" stroke-width="2"  />
			<g>
				<title>Vut_1 (PF02592)
"Putative vitamin uptake transporter"</title>
				<polygon class="PF02592" points="769,40 778,28 781,28 781,52 778,52" stroke-linejoin="round" width="16" height="24" fill="rgb(93,184,75)" stroke="rgb(74,147,60)" stroke-width="1" opacity="0.75" />
			</g>
		</g>
		<g>
			<title>cspA_1 (BBLDBBGM_00156)
Cold shock protein CspA</title>
			<polygon class="cspA_1 (BBLDBBGM_00156)
Cold shock protein CspA" points="793,40 799,10 799,70" fill="rgb(255,255,255)" fill-opacity="1.0" stroke="rgb(0,0,0)" stroke-width="2"  />
			<g>
				<title>CSD (PF00313)
"'Cold-shock' DNA-binding domain"</title>
				<polygon class="PF00313" points="796,40 799,28 799,28 799,52 799,52" stroke-linejoin="round" width="6" height="24" fill="rgb(87,72,181)" stroke="rgb(69,57,144)" stroke-width="1" opacity="0.75" />
			</g>
		</g>
		<g>
			<title>fhs (BBLDBBGM_00157)
Formate--tetrahydrofolate ligase</title>
			<polygon class="fhs (BBLDBBGM_00157)
Formate--tetrahydrofolate ligase" points="838,25 863,25 863,10 893,40 863,70 863,55 838,55" fill="rgb(255,255,255)" fill-opacity="1.0" stroke="rgb(0,0,0)" stroke-width="2"  />
			<g>
				<title>FTHFS (PF01268)
"Formate--tetrahydrofolate ligase"</title>
				<polygon class="PF01268" points="838,28 877,28 889,40 877,52 838,52" stroke-linejoin="round" width="55" height="24" fill="rgb(215,182,81)" stroke="rgb(172,145,64)" stroke-width="1" opacity="0.75" />
			</g>
		</g>
		<g>
			<title> (BBLDBBGM_00158)
hypothetical protein</title>
			<polygon class=" (BBLDBBGM_00158)
hypothetical protein" points="897,10 925,40 897,70" fill="rgb(255,255,255)" fill-opacity="1.0" stroke="rgb(0,0,0)" stroke-width="2"  />
			<g>
				<title>DUF72 (PF01904)
"Protein of unknown function DUF72"</title>
				<polygon class="PF01904" points="898,28 909,28 921,40 909,52 898,52" stroke-linejoin="round" width="24" height="24" fill="rgb(63,151,204)" stroke="rgb(50,120,163)" stroke-width="1" opacity="0.75" />
			</g>
		</g>
		<g>
			<title>yedJ (BBLDBBGM_00159)
putative protein YedJ</title>
			<polygon class="yedJ (BBLDBBGM_00159)
putative protein YedJ" points="925,10 945,40 925,70" fill="rgb(255,255,255)" fill-opacity="1.0" stroke="rgb(0,0,0)" stroke-width="2"  />
			<g>
				<title>HD (PF01966)
"HD domain"</title>
				<polygon class="PF01966" points="927,28 934,28 936,32 936,48 934,52 927,52" stroke-linejoin="round" width="9" height="24" fill="rgb(92,193,119)" stroke="rgb(73,154,95)" stroke-width="1" opacity="0.75" />
			</g>
		</g>
		<g>
			<title>thyA (BBLDBBGM_00160)
Thymidylate synthase</title>
			<polygon class="thyA (BBLDBBGM_00160)
Thymidylate synthase" points="946,25 948,25 948,10 978,40 948,70 948,55 946,55" fill="rgb(255,255,255)" fill-opacity="1.0" stroke="rgb(0,0,0)" stroke-width="2"  />
			<g>
				<title>Thymidylat_synt (PF00303)
"Thymidylate synthase"</title>
				<polygon class="PF00303" points="946,28 961,28 973,40 961,52 946,52" stroke-linejoin="round" width="31" height="24" fill="rgb(103,91,191)" stroke="rgb(82,72,152)" stroke-width="1" opacity="0.75" />
			</g>
		</g>
		<g>
			<title> (BBLDBBGM_00161)
IS1595 family transposase ISSsu9</title>
			<polygon class=" (BBLDBBGM_00161)
IS1595 family transposase ISSsu9" points="979,10 995,40 979,70" fill="rgb(255,255,255)" fill-opacity="1.0" stroke="rgb(0,0,0)" stroke-width="2"  />
			<g>
				<title>DHFR_1 (PF00186)
"Dihydrofolate reductase"</title>
				<polygon class="PF00186" points="979,28 985,28 992,40 985,52 979,52" stroke-linejoin="round" width="16" height="24" fill="rgb(150,188,63)" stroke="rgb(119,150,50)" stroke-width="1" opacity="0.75" />
			</g>
		</g>
		<g>
			<title>mobA (BBLDBBGM_00162)
Molybdenum cofactor guanylyltransferase</title>
			<polygon class="mobA (BBLDBBGM_00162)
Molybdenum cofactor guanylyltransferase" points="995,10 1015,40 995,70" fill="rgb(255,255,255)" fill-opacity="1.0" stroke="rgb(0,0,0)" stroke-width="2"  />
			<g>
				<title>NTP_transf_3 (PF12804)
"MobA-like NTP transferase domain"</title>
				<polygon class="PF12804" points="995,28 1003,28 1010,38 1010,42 1003,52 995,52" stroke-linejoin="round" width="15" height="24" fill="rgb(52,209,196)" stroke="rgb(41,167,156)" stroke-width="1" opacity="0.75" />
			</g>
		</g>
		<g>
			<title>tatAd_1 (BBLDBBGM_00163)
Sec-independent protein translocase protein TatAd</title>
			<polygon class="tatAd_1 (BBLDBBGM_00163)
Sec-independent protein translocase protein TatAd" points="1020,10 1025,40 1020,70" fill="rgb(255,255,255)" fill-opacity="1.0" stroke="rgb(0,0,0)" stroke-width="2"  />
			<g>
				<title>MttA_Hcf106 (PF02416)
"mttA/Hcf106 family"</title>
				<polygon class="PF02416" points="1020,28 1020,28 1022,40 1020,52 1020,52" stroke-linejoin="round" width="5" height="24" fill="rgb(74,206,98)" stroke="rgb(59,164,78)" stroke-width="1" opacity="0.75" />
			</g>
		</g>
		<g>
			<title>tatAd_2 (BBLDBBGM_00164)
Sec-independent protein translocase protein TatAd</title>
			<polygon class="tatAd_2 (BBLDBBGM_00164)
Sec-independent protein translocase protein TatAd" points="1027,10 1033,40 1027,70" fill="rgb(255,255,255)" fill-opacity="1.0" stroke="rgb(0,0,0)" stroke-width="2"  />
			<g>
				<title>MttA_Hcf106 (PF02416)
"mttA/Hcf106 family"</title>
				<polygon class="PF02416" points="1027,28 1027,28 1030,40 1027,52 1027,52" stroke-linejoin="round" width="5" height="24" fill="rgb(74,206,98)" stroke="rgb(59,164,78)" stroke-width="1" opacity="0.75" />
			</g>
		</g>
		<g>
			<title>tatC1_1 (BBLDBBGM_00165)
Sec-independent protein translocase protein TatCd</title>
			<polygon class="tatC1_1 (BBLDBBGM_00165)
Sec-independent protein translocase protein TatCd" points="1036,10 1061,40 1036,70" fill="rgb(255,255,255)" fill-opacity="1.0" stroke="rgb(0,0,0)" stroke-width="2"  />
			<g>
				<title>TatC (PF00902)
"Sec-independent protein translocase protein (TatC)"</title>
				<polygon class="PF00902" points="1037,28 1047,28 1057,40 1057,40 1047,52 1037,52" stroke-linejoin="round" width="20" height="24" fill="rgb(84,193,209)" stroke="rgb(67,154,167)" stroke-width="1" opacity="0.75" />
			</g>
		</g>
		<g>
			<title> (BBLDBBGM_00166)
hypothetical protein</title>
			<polygon class=" (BBLDBBGM_00166)
hypothetical protein" points="1065,10 1072,40 1065,70" fill="rgb(255,255,255)" fill-opacity="1.0" stroke="rgb(0,0,0)" stroke-width="2"  />
			<g>
				<title>YozE_SAM_like (PF06855)
"YozE SAM-like fold"</title>
				<polygon class="PF06855" points="1065,28 1065,28 1069,40 1065,52 1065,52" stroke-linejoin="round" width="6" height="24" fill="rgb(83,201,171)" stroke="rgb(66,160,136)" stroke-width="1" opacity="0.75" />
			</g>
		</g>
		<g>
			<title>sbcD (BBLDBBGM_00167)
Nuclease SbcCD subunit D</title>
			<polygon class="sbcD (BBLDBBGM_00167)
Nuclease SbcCD subunit D" points="1073,25 1081,25 1081,10 1111,40 1081,70 1081,55 1073,55" fill="rgb(255,255,255)" fill-opacity="1.0" stroke="rgb(0,0,0)" stroke-width="2"  />
			<g>
				<title>Metallophos (PF00149)
"Calcineurin-like phosphoesterase"</title>
				<rect class="PF00149" x="1073" y="28" stroke-linejoin="round" width="21" height="24" fill="rgb(181,197,58)" stroke="rgb(144,157,46)" stroke-width="1" opacity="0.75" />
			</g>
			<g>
				<title>SbcD_C (PF12320)
"Type 5 capsule protein repressor C-terminal domain"</title>
				<polygon class="PF12320" points="1099,32 1107,40 1099,48" stroke-linejoin="round" width="9" height="24" fill="rgb(182,136,65)" stroke="rgb(145,108,52)" stroke-width="1" opacity="0.75" />
			</g>
		</g>
		<g>
			<title> (BBLDBBGM_00168)
hypothetical protein</title>
			<polygon class=" (BBLDBBGM_00168)
hypothetical protein" points="1111,25 1184,25 1184,10 1214,40 1184,70 1184,55 1111,55" fill="rgb(255,255,255)" fill-opacity="1.0" stroke="rgb(0,0,0)" stroke-width="2"  />
			<g>
				<title>AAA_23 (PF13476)
"AAA domain"</title>
				<rect class="PF13476" x="1111" y="28" stroke-linejoin="round" width="24" height="24" fill="rgb(57,185,214)" stroke="rgb(45,147,171)" stroke-width="1" opacity="0.75" />
			</g>
			<g>
				<title>SbcCD_C (PF13558)
"Putative exonuclease SbcCD, C subunit"</title>
				<polygon class="PF13558" points="1202,32 1210,40 1210,40 1202,48" stroke-linejoin="round" width="8" height="24" fill="rgb(84,179,84)" stroke="rgb(67,143,67)" stroke-width="1" opacity="0.75" />
			</g>
		</g>
		<g>
			<title>ung (BBLDBBGM_00169)
Uracil-DNA glycosylase</title>
			<polygon class="ung (BBLDBBGM_00169)
Uracil-DNA glycosylase" points="1223,10 1246,40 1223,70" fill="rgb(255,255,255)" fill-opacity="1.0" stroke="rgb(0,0,0)" stroke-width="2"  />
			<g>
				<title>UDG (PF03167)
"Uracil DNA glycosylase superfamily"</title>
				<polygon class="PF03167" points="1228,28 1233,28 1242,40 1233,52 1228,52" stroke-linejoin="round" width="16" height="24" fill="rgb(64,224,60)" stroke="rgb(51,179,48)" stroke-width="1" opacity="0.75" />
			</g>
		</g>
		<g>
			<title> (BBLDBBGM_00170)
hypothetical protein</title>
			<polygon class=" (BBLDBBGM_00170)
hypothetical protein" points="1248,10 1265,40 1248,70" fill="rgb(255,255,255)" fill-opacity="1.0" stroke="rgb(0,0,0)" stroke-width="2"  />
			<g>
				<title>YqfQ (PF14181)
"YqfQ-like protein"</title>
				<polygon class="PF14181" points="1250,28 1254,28 1261,40 1254,52 1250,52" stroke-linejoin="round" width="14" height="24" fill="rgb(207,119,57)" stroke="rgb(165,95,45)" stroke-width="1" opacity="0.75" />
			</g>
		</g>
		<g>
			<title>msrAB (BBLDBBGM_00171)
Peptide methionine sulfoxide reductase MsrA/MsrB</title>
			<polygon class="msrAB (BBLDBBGM_00171)
Peptide methionine sulfoxide reductase MsrA/MsrB" points="1269,25 1271,25 1271,10 1301,40 1271,70 1271,55 1269,55" fill="rgb(255,255,255)" fill-opacity="1.0" stroke="rgb(0,0,0)" stroke-width="2"  />
			<g>
				<title>PMSR (PF01625)
"Peptide methionine sulfoxide reductase"</title>
				<rect class="PF01625" x="1269" y="28" stroke-linejoin="round" width="15" height="24" fill="rgb(201,74,176)" stroke="rgb(160,59,140)" stroke-width="1" opacity="0.75" />
			</g>
			<g>
				<title>SelR (PF01641)
"SelR domain"</title>
				<polygon class="PF01641" points="1287,31 1296,40 1287,49" stroke-linejoin="round" width="12" height="24" fill="rgb(192,99,202)" stroke="rgb(153,79,161)" stroke-width="1" opacity="0.75" />
			</g>
		</g>
		<g>
			<title> (BBLDBBGM_00172)
hypothetical protein</title>
			<polygon class=" (BBLDBBGM_00172)
hypothetical protein" points="1303,10 1322,40 1303,70" fill="rgb(255,255,255)" fill-opacity="1.0" stroke="rgb(0,0,0)" stroke-width="2"  />
			<g>
				<title>TetR_N (PF00440)
"Bacterial regulatory proteins, tetR family"</title>
				<rect class="PF00440" x="1304" y="28" stroke-linejoin="round" width="4" height="24" fill="rgb(73,212,190)" stroke="rgb(58,169,152)" stroke-width="1" opacity="0.75" />
			</g>
		</g>
		<g>
			<title> (BBLDBBGM_00173)
hypothetical protein</title>
			<polygon class=" (BBLDBBGM_00173)
hypothetical protein" points="1332,25 1336,25 1336,10 1366,40 1336,70 1336,55 1332,55" fill="rgb(255,255,255)" fill-opacity="1.0" stroke="rgb(0,0,0)" stroke-width="2"  />
			<g>
				<title>AbrB (PF05145)
"Transition state regulatory protein AbrB"</title>
				<polygon class="PF05145" points="1334,28 1350,28 1362,40 1350,52 1334,52" stroke-linejoin="round" width="31" height="24" fill="rgb(95,98,223)" stroke="rgb(76,78,178)" stroke-width="1" opacity="0.75" />
			</g>
		</g>
	</g>
</svg>
