<svg version="1.1" baseProfile="full" xmlns="http://www.w3.org/2000/svg" width="1389.5333333333333" height="80">
	<g>
		<line x1="10" y1="40.0" x2="1379.5333333333333" y2="40.0" style="stroke:rgb(70,70,70); stroke-width:3 "/>
		<g>
			<title>mhqD (KKANDCCO_00943)
Putative hydrolase MhqD</title>
			<polygon class="mhqD (KKANDCCO_00943)
Putative hydrolase MhqD" points="12,40 32,10 32,70" fill="rgb(255,255,255)" fill-opacity="1.0" stroke="rgb(0,0,0)" stroke-width="2"  />
			<g>
				<title>DLH (PF01738)
"Dienelactone hydrolase family"</title>
				<polygon class="PF01738" points="16,40 24,28 27,28 27,52 24,52" stroke-linejoin="round" width="14" height="24" fill="rgb(188,185,48)" stroke="rgb(150,147,38)" stroke-width="1" opacity="0.75" />
			</g>
		</g>
		<g>
			<title> (KKANDCCO_00944)
hypothetical protein</title>
			<polygon class=" (KKANDCCO_00944)
hypothetical protein" points="36,40 63,10 63,70" fill="rgb(255,255,255)" fill-opacity="1.0" stroke="rgb(0,0,0)" stroke-width="2"  />
			<g>
				<title>AbrB (PF05145)
"Transition state regulatory protein AbrB"</title>
				<polygon class="PF05145" points="40,40 51,28 63,28 63,52 51,52" stroke-linejoin="round" width="27" height="24" fill="rgb(95,98,223)" stroke="rgb(76,78,178)" stroke-width="1" opacity="0.75" />
			</g>
		</g>
		<g>
			<title> (KKANDCCO_00945)
hypothetical protein</title>
			<polygon class=" (KKANDCCO_00945)
hypothetical protein" points="73,10 95,40 73,70" fill="rgb(255,255,255)" fill-opacity="1.0" stroke="rgb(0,0,0)" stroke-width="2"  />
			<g>
				<title>Acetyltransf_1 (PF00583)
"Acetyltransferase (GNAT) family"</title>
				<polygon class="PF00583" points="75,28 82,28 88,36 88,44 82,52 75,52" stroke-linejoin="round" width="13" height="24" fill="rgb(121,183,50)" stroke="rgb(96,146,39)" stroke-width="1" opacity="0.75" />
			</g>
		</g>
		<g>
			<title>msrB_2 (KKANDCCO_00946)
Peptide methionine sulfoxide reductase MsrB</title>
			<polygon class="msrB_2 (KKANDCCO_00946)
Peptide methionine sulfoxide reductase MsrB" points="133,25 131,25 131,10 101,40 131,70 131,55 133,55" fill="rgb(255,255,255)" fill-opacity="1.0" stroke="rgb(0,0,0)" stroke-width="2"  />
			<g>
				<title>SelR (PF01641)
"SelR domain"</title>
				<polygon class="PF01641" points="105,40 114,31 114,49" stroke-linejoin="round" width="12" height="24" fill="rgb(192,99,202)" stroke="rgb(153,79,161)" stroke-width="1" opacity="0.75" />
			</g>
			<g>
				<title>PMSR (PF01625)
"Peptide methionine sulfoxide reductase"</title>
				<polygon class="PF01625" points="117,28 117,28 132,28 132,52 117,52 117,52" stroke-linejoin="round" width="15" height="24" fill="rgb(201,74,176)" stroke="rgb(160,59,140)" stroke-width="1" opacity="0.75" />
			</g>
		</g>
		<g>
			<title> (KKANDCCO_00947)
hypothetical protein</title>
			<polygon class=" (KKANDCCO_00947)
hypothetical protein" points="136,40 155,10 155,70" fill="rgb(255,255,255)" fill-opacity="1.0" stroke="rgb(0,0,0)" stroke-width="2"  />
			<g>
				<title>YqfQ (PF14181)
"YqfQ-like protein"</title>
				<polygon class="PF14181" points="140,40 148,28 152,28 152,52 148,52" stroke-linejoin="round" width="16" height="24" fill="rgb(207,119,57)" stroke="rgb(165,95,45)" stroke-width="1" opacity="0.75" />
			</g>
		</g>
		<g>
			<title>ung (KKANDCCO_00948)
Uracil-DNA glycosylase</title>
			<polygon class="ung (KKANDCCO_00948)
Uracil-DNA glycosylase" points="158,40 180,10 180,70" fill="rgb(255,255,255)" fill-opacity="1.0" stroke="rgb(0,0,0)" stroke-width="2"  />
			<g>
				<title>UDG (PF03167)
"Uracil DNA glycosylase superfamily"</title>
				<polygon class="PF03167" points="162,40 171,28 175,28 175,52 171,52" stroke-linejoin="round" width="16" height="24" fill="rgb(64,224,60)" stroke="rgb(51,179,48)" stroke-width="1" opacity="0.75" />
			</g>
		</g>
		<g>
			<title> (KKANDCCO_00949)
hypothetical protein</title>
			<polygon class=" (KKANDCCO_00949)
hypothetical protein" points="289,25 216,25 216,10 186,40 216,70 216,55 289,55" fill="rgb(255,255,255)" fill-opacity="1.0" stroke="rgb(0,0,0)" stroke-width="2"  />
			<g>
				<title>SbcCD_C (PF13558)
"Putative exonuclease SbcCD, C subunit"</title>
				<polygon class="PF13558" points="190,40 198,32 198,48 190,40" stroke-linejoin="round" width="8" height="24" fill="rgb(84,179,84)" stroke="rgb(67,143,67)" stroke-width="1" opacity="0.75" />
			</g>
			<g>
				<title>AAA_23 (PF13476)
"AAA domain"</title>
				<rect class="PF13476" x="267" y="28" stroke-linejoin="round" width="21" height="24" fill="rgb(57,185,214)" stroke="rgb(45,147,171)" stroke-width="1" opacity="0.75" />
			</g>
		</g>
		<g>
			<title>sbcD (KKANDCCO_00950)
Nuclease SbcCD subunit D</title>
			<polygon class="sbcD (KKANDCCO_00950)
Nuclease SbcCD subunit D" points="328,25 320,25 320,10 290,40 320,70 320,55 328,55" fill="rgb(255,255,255)" fill-opacity="1.0" stroke="rgb(0,0,0)" stroke-width="2"  />
			<g>
				<title>SbcD_C (PF12320)
"Type 5 capsule protein repressor C-terminal domain"</title>
				<polygon class="PF12320" points="294,40 301,33 301,47" stroke-linejoin="round" width="9" height="24" fill="rgb(182,136,65)" stroke="rgb(145,108,52)" stroke-width="1" opacity="0.75" />
			</g>
			<g>
				<title>Metallophos (PF00149)
"Calcineurin-like phosphoesterase"</title>
				<polygon class="PF00149" points="306,28 306,28 327,28 327,52 306,52 306,52" stroke-linejoin="round" width="21" height="24" fill="rgb(181,197,58)" stroke="rgb(144,157,46)" stroke-width="1" opacity="0.75" />
			</g>
		</g>
		<g>
			<title> (KKANDCCO_00951)
hypothetical protein</title>
			<polygon class=" (KKANDCCO_00951)
hypothetical protein" points="329,40 336,10 336,70" fill="rgb(255,255,255)" fill-opacity="1.0" stroke="rgb(0,0,0)" stroke-width="2"  />
			<g>
				<title>YozE_SAM_like (PF06855)
"YozE SAM-like fold"</title>
				<polygon class="PF06855" points="332,40 335,28 335,28 335,52 335,52" stroke-linejoin="round" width="6" height="24" fill="rgb(83,201,171)" stroke="rgb(66,160,136)" stroke-width="1" opacity="0.75" />
			</g>
		</g>
		<g>
			<title>tatC1 (KKANDCCO_00952)
Sec-independent protein translocase protein TatCd</title>
			<polygon class="tatC1 (KKANDCCO_00952)
Sec-independent protein translocase protein TatCd" points="340,40 365,10 365,70" fill="rgb(255,255,255)" fill-opacity="1.0" stroke="rgb(0,0,0)" stroke-width="2"  />
			<g>
				<title>TatC (PF00902)
"Sec-independent protein translocase protein (TatC)"</title>
				<polygon class="PF00902" points="344,40 354,28 363,28 363,52 354,52" stroke-linejoin="round" width="20" height="24" fill="rgb(84,193,209)" stroke="rgb(67,154,167)" stroke-width="1" opacity="0.75" />
			</g>
		</g>
		<g>
			<title>tatAd_1 (KKANDCCO_00953)
Sec-independent protein translocase protein TatAd</title>
			<polygon class="tatAd_1 (KKANDCCO_00953)
Sec-independent protein translocase protein TatAd" points="368,40 374,10 374,70" fill="rgb(255,255,255)" fill-opacity="1.0" stroke="rgb(0,0,0)" stroke-width="2"  />
			<g>
				<title>MttA_Hcf106 (PF02416)
"mttA/Hcf106 family"</title>
				<polygon class="PF02416" points="371,40 373,28 373,28 373,52 373,52" stroke-linejoin="round" width="5" height="24" fill="rgb(74,206,98)" stroke="rgb(59,164,78)" stroke-width="1" opacity="0.75" />
			</g>
		</g>
		<g>
			<title>tatAd_2 (KKANDCCO_00954)
Sec-independent protein translocase protein TatAd</title>
			<polygon class="tatAd_2 (KKANDCCO_00954)
Sec-independent protein translocase protein TatAd" points="375,40 381,10 381,70" fill="rgb(255,255,255)" fill-opacity="1.0" stroke="rgb(0,0,0)" stroke-width="2"  />
			<g>
				<title>MttA_Hcf106 (PF02416)
"mttA/Hcf106 family"</title>
				<polygon class="PF02416" points="378,40 380,28 380,28 380,52 380,52" stroke-linejoin="round" width="5" height="24" fill="rgb(74,206,98)" stroke="rgb(59,164,78)" stroke-width="1" opacity="0.75" />
			</g>
		</g>
		<g>
			<title>mobA (KKANDCCO_00955)
Molybdenum cofactor guanylyltransferase</title>
			<polygon class="mobA (KKANDCCO_00955)
Molybdenum cofactor guanylyltransferase" points="386,40 406,10 406,70" fill="rgb(255,255,255)" fill-opacity="1.0" stroke="rgb(0,0,0)" stroke-width="2"  />
			<g>
				<title>NTP_transf_3 (PF12804)
"MobA-like NTP transferase domain"</title>
				<polygon class="PF12804" points="390,40 398,28 405,28 405,52 398,52 390,40" stroke-linejoin="round" width="15" height="24" fill="rgb(52,209,196)" stroke="rgb(41,167,156)" stroke-width="1" opacity="0.75" />
			</g>
		</g>
		<g>
			<title> (KKANDCCO_00956)
IS1595 family transposase ISSsu9</title>
			<polygon class=" (KKANDCCO_00956)
IS1595 family transposase ISSsu9" points="406,40 422,10 422,70" fill="rgb(255,255,255)" fill-opacity="1.0" stroke="rgb(0,0,0)" stroke-width="2"  />
			<g>
				<title>DHFR_1 (PF00186)
"Dihydrofolate reductase"</title>
				<polygon class="PF00186" points="409,40 416,28 422,28 422,52 416,52" stroke-linejoin="round" width="16" height="24" fill="rgb(150,188,63)" stroke="rgb(119,150,50)" stroke-width="1" opacity="0.75" />
			</g>
		</g>
		<g>
			<title>thyA (KKANDCCO_00957)
Thymidylate synthase</title>
			<polygon class="thyA (KKANDCCO_00957)
Thymidylate synthase" points="472,25 470,25 470,10 440,40 470,70 470,55 472,55" fill="rgb(255,255,255)" fill-opacity="1.0" stroke="rgb(0,0,0)" stroke-width="2"  />
			<g>
				<title>Thymidylat_synt (PF00303)
"Thymidylate synthase"</title>
				<polygon class="PF00303" points="444,40 456,28 471,28 471,52 456,52" stroke-linejoin="round" width="31" height="24" fill="rgb(103,91,191)" stroke="rgb(82,72,152)" stroke-width="1" opacity="0.75" />
			</g>
		</g>
		<g>
			<title>yedJ (KKANDCCO_00958)
putative protein YedJ</title>
			<polygon class="yedJ (KKANDCCO_00958)
putative protein YedJ" points="472,40 492,10 492,70" fill="rgb(255,255,255)" fill-opacity="1.0" stroke="rgb(0,0,0)" stroke-width="2"  />
			<g>
				<title>HD (PF01966)
"HD domain"</title>
				<polygon class="PF01966" points="480,34 484,28 489,28 489,52 484,52 480,46" stroke-linejoin="round" width="9" height="24" fill="rgb(92,193,119)" stroke="rgb(73,154,95)" stroke-width="1" opacity="0.75" />
			</g>
		</g>
		<g>
			<title> (KKANDCCO_00959)
hypothetical protein</title>
			<polygon class=" (KKANDCCO_00959)
hypothetical protein" points="493,40 521,10 521,70" fill="rgb(255,255,255)" fill-opacity="1.0" stroke="rgb(0,0,0)" stroke-width="2"  />
			<g>
				<title>DUF72 (PF01904)
"Protein of unknown function DUF72"</title>
				<polygon class="PF01904" points="497,40 508,28 518,28 518,52 508,52" stroke-linejoin="round" width="24" height="24" fill="rgb(63,151,204)" stroke="rgb(50,120,163)" stroke-width="1" opacity="0.75" />
			</g>
		</g>
		<g>
			<title>fhs (KKANDCCO_00960)
Formate--tetrahydrofolate ligase</title>
			<polygon class="fhs (KKANDCCO_00960)
Formate--tetrahydrofolate ligase" points="579,25 554,25 554,10 524,40 554,70 554,55 579,55" fill="rgb(255,255,255)" fill-opacity="1.0" stroke="rgb(0,0,0)" stroke-width="2"  />
			<g>
				<title>FTHFS (PF01268)
"Formate--tetrahydrofolate ligase"</title>
				<polygon class="PF01268" points="528,40 540,28 579,28 579,52 540,52" stroke-linejoin="round" width="55" height="24" fill="rgb(215,182,81)" stroke="rgb(172,145,64)" stroke-width="1" opacity="0.75" />
			</g>
		</g>
		<g>
			<title>cspB_3 (KKANDCCO_00961)
Cold shock protein CspB</title>
			<polygon class="cspB_3 (KKANDCCO_00961)
Cold shock protein CspB" points="591,10 597,40 591,70" fill="rgb(255,255,255)" fill-opacity="1.0" stroke="rgb(0,0,0)" stroke-width="2"  />
			<g>
				<title>CSD (PF00313)
"'Cold-shock' DNA-binding domain"</title>
				<polygon class="PF00313" points="591,28 591,28 594,40 591,52 591,52" stroke-linejoin="round" width="6" height="24" fill="rgb(87,72,181)" stroke="rgb(69,57,144)" stroke-width="1" opacity="0.75" />
			</g>
		</g>
		<g>
			<title> (KKANDCCO_00962)
queuosine precursor transporter</title>
			<polygon class=" (KKANDCCO_00962)
queuosine precursor transporter" points="606,10 629,40 606,70" fill="rgb(255,255,255)" fill-opacity="1.0" stroke="rgb(0,0,0)" stroke-width="2"  />
			<g>
				<title>Vut_1 (PF02592)
"Putative vitamin uptake transporter"</title>
				<polygon class="PF02592" points="611,28 616,28 625,40 616,52 611,52" stroke-linejoin="round" width="16" height="24" fill="rgb(93,184,75)" stroke="rgb(74,147,60)" stroke-width="1" opacity="0.75" />
			</g>
		</g>
		<g>
			<title>rnhA (KKANDCCO_00963)
14.7 kDa ribonuclease H-like protein</title>
			<polygon class="rnhA (KKANDCCO_00963)
14.7 kDa ribonuclease H-like protein" points="629,10 641,40 629,70" fill="rgb(255,255,255)" fill-opacity="1.0" stroke="rgb(0,0,0)" stroke-width="2"  />
			<g>
				<title>RVT_3 (PF13456)
"Reverse transcriptase-like"</title>
				<polygon class="PF13456" points="629,28 633,28 638,40 633,52 629,52" stroke-linejoin="round" width="12" height="24" fill="rgb(198,123,86)" stroke="rgb(158,98,68)" stroke-width="1" opacity="0.75" />
			</g>
		</g>
		<g>
			<title> (KKANDCCO_00964)
hypothetical protein</title>
			<polygon class=" (KKANDCCO_00964)
hypothetical protein" points="643,40 652,10 652,70" fill="rgb(255,255,255)" fill-opacity="1.0" stroke="rgb(0,0,0)" stroke-width="2"  />
		</g>
		<g>
			<title> (KKANDCCO_00965)
hypothetical protein</title>
			<polygon class=" (KKANDCCO_00965)
hypothetical protein" points="659,40 676,10 676,70" fill="rgb(255,255,255)" fill-opacity="1.0" stroke="rgb(0,0,0)" stroke-width="2"  />
			<g>
				<title>ICMT (PF04140)
"Isoprenylcysteine carboxyl methyltransferase (ICMT) family"</title>
				<polygon class="PF04140" points="662,40 668,29 668,51" stroke-linejoin="round" width="9" height="24" fill="rgb(100,223,104)" stroke="rgb(80,178,83)" stroke-width="1" opacity="0.75" />
			</g>
		</g>
		<g>
			<title> (KKANDCCO_00966)
Alpha-pyrone synthesis polyketide synthase-like Pks11</title>
			<polygon class=" (KKANDCCO_00966)
Alpha-pyrone synthesis polyketide synthase-like Pks11" points="712,25 706,25 706,10 676,40 706,70 706,55 712,55" fill="rgb(255,255,255)" fill-opacity="1.0" stroke="rgb(0,0,0)" stroke-width="2"  />
			<g>
				<title>Chal_sti_synt_N (PF00195)
"Chalcone and stilbene synthases, N-terminal domain"</title>
				<polygon class="PF00195" points="691,29 692,28 711,28 711,52 692,52 691,51" stroke-linejoin="round" width="20" height="24" fill="rgb(60,181,161)" stroke="rgb(47,144,128)" stroke-width="1" opacity="0.75" />
			</g>
		</g>
		<g>
			<title>gno (KKANDCCO_00967)
Gluconate 5-dehydrogenase</title>
			<polygon class="gno (KKANDCCO_00967)
Gluconate 5-dehydrogenase" points="715,40 740,10 740,70" fill="rgb(255,255,255)" fill-opacity="1.0" stroke="rgb(0,0,0)" stroke-width="2"  />
			<g>
				<title>adh_short_C2 (PF13561)
"Enoyl-(Acyl carrier protein) reductase"</title>
				<polygon class="PF13561" points="719,40 729,28 738,28 738,52 729,52" stroke-linejoin="round" width="23" height="24" fill="rgb(73,205,127)" stroke="rgb(58,164,101)" stroke-width="1" opacity="0.75" />
			</g>
		</g>
		<g>
			<title> (KKANDCCO_00968)
hypothetical protein</title>
			<polygon class=" (KKANDCCO_00968)
hypothetical protein" points="745,10 763,40 745,70" fill="rgb(255,255,255)" fill-opacity="1.0" stroke="rgb(0,0,0)" stroke-width="2"  />
		</g>
		<g>
			<title>tcyC (KKANDCCO_00969)
L-cystine import ATP-binding protein TcyC</title>
			<polygon class="tcyC (KKANDCCO_00969)
L-cystine import ATP-binding protein TcyC" points="765,40 789,10 789,70" fill="rgb(255,255,255)" fill-opacity="1.0" stroke="rgb(0,0,0)" stroke-width="2"  />
			<g>
				<title>ABC_tran (PF00005)
"ABC transporter"</title>
				<polygon class="PF00005" points="772,36 779,28 787,28 787,52 779,52 772,44" stroke-linejoin="round" width="15" height="24" fill="rgb(129,201,63)" stroke="rgb(103,160,50)" stroke-width="1" opacity="0.75" />
			</g>
		</g>
		<g>
			<title>tcyB (KKANDCCO_00970)
L-cystine transport system permease protein TcyB</title>
			<polygon class="tcyB (KKANDCCO_00970)
L-cystine transport system permease protein TcyB" points="790,40 813,10 813,70" fill="rgb(255,255,255)" fill-opacity="1.0" stroke="rgb(0,0,0)" stroke-width="2"  />
			<g>
				<title>BPD_transp_1 (PF00528)
"Binding-protein-dependent transport system inner membrane component"</title>
				<polygon class="PF00528" points="794,40 803,28 808,28 808,52 803,52" stroke-linejoin="round" width="18" height="24" fill="rgb(77,208,225)" stroke="rgb(61,166,180)" stroke-width="1" opacity="0.75" />
			</g>
		</g>
		<g>
			<title>tcyA (KKANDCCO_00971)
L-cystine-binding protein TcyA</title>
			<polygon class="tcyA (KKANDCCO_00971)
L-cystine-binding protein TcyA" points="813,40 840,10 840,70" fill="rgb(255,255,255)" fill-opacity="1.0" stroke="rgb(0,0,0)" stroke-width="2"  />
			<g>
				<title>SBP_bac_3 (PF00497)
"Bacterial extracellular solute-binding proteins, family 3"</title>
				<polygon class="PF00497" points="817,40 828,28 834,28 834,52 828,52" stroke-linejoin="round" width="21" height="24" fill="rgb(186,76,141)" stroke="rgb(148,60,112)" stroke-width="1" opacity="0.75" />
			</g>
		</g>
		<g>
			<title>ypwA (KKANDCCO_00972)
Carboxypeptidase 1</title>
			<polygon class="ypwA (KKANDCCO_00972)
Carboxypeptidase 1" points="894,25 875,25 875,10 845,40 875,70 875,55 894,55" fill="rgb(255,255,255)" fill-opacity="1.0" stroke="rgb(0,0,0)" stroke-width="2"  />
			<g>
				<title>Peptidase_M32 (PF02074)
"Carboxypeptidase Taq (M32) metallopeptidase"</title>
				<polygon class="PF02074" points="849,40 861,28 893,28 893,52 861,52" stroke-linejoin="round" width="48" height="24" fill="rgb(213,142,93)" stroke="rgb(170,113,74)" stroke-width="1" opacity="0.75" />
			</g>
		</g>
		<g>
			<title> (KKANDCCO_00973)
hypothetical protein</title>
			<polygon class=" (KKANDCCO_00973)
hypothetical protein" points="898,40 908,10 908,70" fill="rgb(255,255,255)" fill-opacity="1.0" stroke="rgb(0,0,0)" stroke-width="2"  />
			<g>
				<title>UPF0020 (PF01170)
"Putative RNA methylase family UPF0020"</title>
				<polygon class="PF01170" points="901,40 905,28 905,28 905,52 905,52" stroke-linejoin="round" width="6" height="24" fill="rgb(89,182,69)" stroke="rgb(71,145,55)" stroke-width="1" opacity="0.75" />
			</g>
		</g>
		<g>
			<title> (KKANDCCO_00974)
hypothetical protein</title>
			<polygon class=" (KKANDCCO_00974)
hypothetical protein" points="909,40 935,10 935,70" fill="rgb(255,255,255)" fill-opacity="1.0" stroke="rgb(0,0,0)" stroke-width="2"  />
		</g>
		<g>
			<title> (KKANDCCO_00975)
hypothetical protein</title>
			<polygon class=" (KKANDCCO_00975)
hypothetical protein" points="939,40 966,10 966,70" fill="rgb(255,255,255)" fill-opacity="1.0" stroke="rgb(0,0,0)" stroke-width="2"  />
		</g>
		<g>
			<title> (KKANDCCO_00976)
hypothetical protein</title>
			<polygon class=" (KKANDCCO_00976)
hypothetical protein" points="974,40 980,10 980,70" fill="rgb(255,255,255)" fill-opacity="1.0" stroke="rgb(0,0,0)" stroke-width="2"  />
		</g>
		<g>
			<title> (KKANDCCO_00977)
hypothetical protein</title>
			<polygon class=" (KKANDCCO_00977)
hypothetical protein" points="999,10 1007,40 999,70" fill="rgb(255,255,255)" fill-opacity="1.0" stroke="rgb(0,0,0)" stroke-width="2"  />
		</g>
		<g>
			<title> (KKANDCCO_00978)
hypothetical protein</title>
			<polygon class=" (KKANDCCO_00978)
hypothetical protein" points="1059,25 1045,25 1045,10 1015,40 1045,70 1045,55 1059,55" fill="rgb(255,255,255)" fill-opacity="1.0" stroke="rgb(0,0,0)" stroke-width="2"  />
			<g>
				<title>Mrr_cat (PF04471)
"Restriction endonuclease"</title>
				<polygon class="PF04471" points="1019,40 1025,34 1025,46" stroke-linejoin="round" width="10" height="24" fill="rgb(58,187,128)" stroke="rgb(46,149,102)" stroke-width="1" opacity="0.75" />
			</g>
		</g>
		<g>
			<title> (KKANDCCO_00979)
hypothetical protein</title>
			<polygon class=" (KKANDCCO_00979)
hypothetical protein" points="1068,40 1089,10 1089,70" fill="rgb(255,255,255)" fill-opacity="1.0" stroke="rgb(0,0,0)" stroke-width="2"  />
			<g>
				<title>Resolvase (PF00239)
"Resolvase, N terminal domain"</title>
				<polygon class="PF00239" points="1074,37 1080,28 1088,28 1088,52 1080,52 1074,43" stroke-linejoin="round" width="14" height="24" fill="rgb(99,177,201)" stroke="rgb(79,141,160)" stroke-width="1" opacity="0.75" />
			</g>
		</g>
		<g>
			<title> (KKANDCCO_00980)
hypothetical protein</title>
			<polygon class=" (KKANDCCO_00980)
hypothetical protein" points="1158,25 1139,25 1139,10 1109,40 1139,70 1139,55 1158,55" fill="rgb(255,255,255)" fill-opacity="1.0" stroke="rgb(0,0,0)" stroke-width="2"  />
			<g>
				<title>DEAD (PF00270)
"DEAD/DEAH box helicase"</title>
				<rect class="PF00270" x="1143" y="28" stroke-linejoin="round" width="11" height="24" fill="rgb(195,100,62)" stroke="rgb(156,80,49)" stroke-width="1" opacity="0.75" />
			</g>
		</g>
		<g>
			<title> (KKANDCCO_00981)
hypothetical protein</title>
			<polygon class=" (KKANDCCO_00981)
hypothetical protein" points="1176,40 1182,10 1182,70" fill="rgb(255,255,255)" fill-opacity="1.0" stroke="rgb(0,0,0)" stroke-width="2"  />
		</g>
		<g>
			<title> (KKANDCCO_00982)
hypothetical protein</title>
			<polygon class=" (KKANDCCO_00982)
hypothetical protein" points="1195,40 1209,10 1209,70" fill="rgb(255,255,255)" fill-opacity="1.0" stroke="rgb(0,0,0)" stroke-width="2"  />
		</g>
		<g>
			<title>xerC_2 (KKANDCCO_00983)
Tyrosine recombinase XerC</title>
			<polygon class="xerC_2 (KKANDCCO_00983)
Tyrosine recombinase XerC" points="1242,25 1242,25 1242,10 1212,40 1242,70 1242,55 1242,55" fill="rgb(255,255,255)" fill-opacity="1.0" stroke="rgb(0,0,0)" stroke-width="2"  />
			<g>
				<title>Phage_integrase (PF00589)
"Phage integrase family"</title>
				<polygon class="PF00589" points="1216,40 1228,28 1230,28 1230,52 1228,52" stroke-linejoin="round" width="17" height="24" fill="rgb(91,96,195)" stroke="rgb(72,76,156)" stroke-width="1" opacity="0.75" />
			</g>
			<g>
				<title>Phage_int_SAM_1 (PF02899)
"Phage integrase, N-terminal SAM-like domain"</title>
				<rect class="PF02899" x="1233" y="28" stroke-linejoin="round" width="8" height="24" fill="rgb(112,78,223)" stroke="rgb(89,62,178)" stroke-width="1" opacity="0.75" />
			</g>
		</g>
		<g>
			<title>rlmL (KKANDCCO_00984)
Ribosomal RNA large subunit methyltransferase L</title>
			<polygon class="rlmL (KKANDCCO_00984)
Ribosomal RNA large subunit methyltransferase L" points="1284,25 1275,25 1275,10 1245,40 1275,70 1275,55 1284,55" fill="rgb(255,255,255)" fill-opacity="1.0" stroke="rgb(0,0,0)" stroke-width="2"  />
			<g>
				<title>UPF0020 (PF01170)
"Putative RNA methylase family UPF0020"</title>
				<polygon class="PF01170" points="1249,40 1261,28 1267,28 1267,52 1261,52" stroke-linejoin="round" width="20" height="24" fill="rgb(89,182,69)" stroke="rgb(71,145,55)" stroke-width="1" opacity="0.75" />
			</g>
			<g>
				<title>THUMP (PF02926)
"THUMP domain"</title>
				<rect class="PF02926" x="1268" y="28" stroke-linejoin="round" width="14" height="24" fill="rgb(52,209,163)" stroke="rgb(41,167,130)" stroke-width="1" opacity="0.75" />
			</g>
		</g>
		<g>
			<title>gpsB (KKANDCCO_00985)
Cell cycle protein GpsB</title>
			<polygon class="gpsB (KKANDCCO_00985)
Cell cycle protein GpsB" points="1304,40 1314,10 1314,70" fill="rgb(255,255,255)" fill-opacity="1.0" stroke="rgb(0,0,0)" stroke-width="2"  />
			<g>
				<title>DivIVA (PF05103)
"DivIVA protein"</title>
				<polygon class="PF05103" points="1307,40 1311,28 1313,28 1313,52 1311,52 1307,40" stroke-linejoin="round" width="6" height="24" fill="rgb(213,106,117)" stroke="rgb(170,84,93)" stroke-width="1" opacity="0.75" />
			</g>
		</g>
		<g>
			<title> (KKANDCCO_00986)
hypothetical protein</title>
			<polygon class=" (KKANDCCO_00986)
hypothetical protein" points="1317,40 1335,10 1335,70" fill="rgb(255,255,255)" fill-opacity="1.0" stroke="rgb(0,0,0)" stroke-width="2"  />
			<g>
				<title>YpsA (PF06908)
"YspA SLOG family"</title>
				<polygon class="PF06908" points="1321,40 1329,28 1334,28 1334,52 1329,52" stroke-linejoin="round" width="16" height="24" fill="rgb(136,100,209)" stroke="rgb(108,80,167)" stroke-width="1" opacity="0.75" />
			</g>
		</g>
		<g>
			<title> (KKANDCCO_00987)
hypothetical protein</title>
			<polygon class=" (KKANDCCO_00987)
hypothetical protein" points="1340,40 1361,10 1361,70" fill="rgb(255,255,255)" fill-opacity="1.0" stroke="rgb(0,0,0)" stroke-width="2"  />
			<g>
				<title>Spore-coat_CotD (PF11122)
"Inner spore coat protein D"</title>
				<polygon class="PF11122" points="1344,40 1353,28 1359,28 1359,52 1353,52" stroke-linejoin="round" width="17" height="24" fill="rgb(221,153,69)" stroke="rgb(176,122,55)" stroke-width="1" opacity="0.75" />
			</g>
		</g>
	</g>
</svg>
