<svg version="1.1" baseProfile="full" xmlns="http://www.w3.org/2000/svg" width="970.0" height="80">
	<g>
		<line x1="10" y1="40.0" x2="960.0" y2="40.0" style="stroke:rgb(70,70,70); stroke-width:3 "/>
		<g>
			<title> (GLBNLCJE_00988)
hypothetical protein</title>
			<polygon class=" (GLBNLCJE_00988)
hypothetical protein" points="20,25 41,25 41,10 71,40 41,70 41,55 20,55" fill="rgb(255,255,255)" fill-opacity="1.0" stroke="rgb(0,0,0)" stroke-width="2"  />
			<g>
				<title>BPD_transp_1 (PF00528)
"Binding-protein-dependent transport system inner membrane component"</title>
				<rect class="PF00528" x="23" y="28" stroke-linejoin="round" width="17" height="24" fill="rgb(77,208,225)" stroke="rgb(61,166,180)" stroke-width="1" opacity="0.75" />
			</g>
			<g>
				<title>OpuAC (PF04069)
"Substrate binding domain of ABC-type glycine betaine transport system"</title>
				<polygon class="PF04069" points="43,28 54,28 66,40 54,52 43,52" stroke-linejoin="round" width="26" height="24" fill="rgb(81,218,80)" stroke="rgb(64,174,64)" stroke-width="1" opacity="0.75" />
			</g>
		</g>
		<g>
			<title>yccU (GLBNLCJE_00989)
putative protein YccU</title>
			<polygon class="yccU (GLBNLCJE_00989)
putative protein YccU" points="72,10 85,40 72,70" fill="rgb(255,255,255)" fill-opacity="1.0" stroke="rgb(0,0,0)" stroke-width="2"  />
			<g>
				<title>CoA_binding_2 (PF13380)
"CoA binding domain"</title>
				<polygon class="PF13380" points="73,28 76,28 82,40 76,52 73,52" stroke-linejoin="round" width="11" height="24" fill="rgb(212,69,78)" stroke="rgb(169,55,62)" stroke-width="1" opacity="0.75" />
			</g>
		</g>
		<g>
			<title>parE (GLBNLCJE_00990)
DNA topoisomerase 4 subunit B</title>
			<polygon class="parE (GLBNLCJE_00990)
DNA topoisomerase 4 subunit B" points="97,25 132,25 132,10 162,40 132,70 132,55 97,55" fill="rgb(255,255,255)" fill-opacity="1.0" stroke="rgb(0,0,0)" stroke-width="2"  />
			<g>
				<title>HATPase_c (PF02518)
"Histidine kinase-, DNA gyrase B-, and HSP90-like ATPase"</title>
				<rect class="PF02518" x="100" y="28" stroke-linejoin="round" width="14" height="24" fill="rgb(80,94,225)" stroke="rgb(64,75,180)" stroke-width="1" opacity="0.75" />
			</g>
			<g>
				<title>DNA_gyraseB (PF00204)
"DNA gyrase B"</title>
				<rect class="PF00204" x="119" y="28" stroke-linejoin="round" width="17" height="24" fill="rgb(66,134,179)" stroke="rgb(52,107,143)" stroke-width="1" opacity="0.75" />
			</g>
			<g>
				<title>Toprim (PF01751)
"Toprim domain"</title>
				<polygon class="PF01751" points="139,28 145,28 150,33 150,47 145,52 139,52" stroke-linejoin="round" width="11" height="24" fill="rgb(95,212,145)" stroke="rgb(76,169,116)" stroke-width="1" opacity="0.75" />
			</g>
			<g>
				<title>DNA_gyraseB_C (PF00986)
"DNA gyrase B subunit, carboxyl terminus"</title>
				<polygon class="PF00986" points="153,36 157,40 153,44" stroke-linejoin="round" width="6" height="24" fill="rgb(184,59,116)" stroke="rgb(147,47,92)" stroke-width="1" opacity="0.75" />
			</g>
		</g>
		<g>
			<title>parC (GLBNLCJE_00991)
DNA topoisomerase 4 subunit A</title>
			<polygon class="parC (GLBNLCJE_00991)
DNA topoisomerase 4 subunit A" points="163,25 215,25 215,10 245,40 215,70 215,55 163,55" fill="rgb(255,255,255)" fill-opacity="1.0" stroke="rgb(0,0,0)" stroke-width="2"  />
			<g>
				<title>DNA_topoisoIV (PF00521)
"DNA gyrase/topoisomerase IV, subunit A"</title>
				<rect class="PF00521" x="166" y="28" stroke-linejoin="round" width="44" height="24" fill="rgb(196,204,77)" stroke="rgb(156,163,61)" stroke-width="1" opacity="0.75" />
			</g>
			<g>
				<title>DNA_gyraseA_C (PF03989)
"DNA gyrase C-terminal domain, beta-propeller"</title>
				<rect class="PF03989" x="213" y="28" stroke-linejoin="round" width="2" height="24" fill="rgb(52,134,190)" stroke="rgb(41,107,152)" stroke-width="1" opacity="0.75" />
			</g>
			<g>
				<title>DNA_gyraseA_C (PF03989)
"DNA gyrase C-terminal domain, beta-propeller"</title>
				<rect class="PF03989" x="217" y="28" stroke-linejoin="round" width="5" height="24" fill="rgb(52,134,190)" stroke="rgb(41,107,152)" stroke-width="1" opacity="0.75" />
			</g>
			<g>
				<title>DNA_gyraseA_C (PF03989)
"DNA gyrase C-terminal domain, beta-propeller"</title>
				<rect class="PF03989" x="223" y="28" stroke-linejoin="round" width="4" height="24" fill="rgb(52,134,190)" stroke="rgb(41,107,152)" stroke-width="1" opacity="0.75" />
			</g>
			<g>
				<title>DNA_gyraseA_C (PF03989)
"DNA gyrase C-terminal domain, beta-propeller"</title>
				<polygon class="PF03989" points="228,28 228,28 232,32 232,48 228,52 228,52" stroke-linejoin="round" width="4" height="24" fill="rgb(52,134,190)" stroke="rgb(41,107,152)" stroke-width="1" opacity="0.75" />
			</g>
			<g>
				<title>DNA_gyraseA_C (PF03989)
"DNA gyrase C-terminal domain, beta-propeller"</title>
				<polygon class="PF03989" points="233,33 237,37 237,43 233,47" stroke-linejoin="round" width="4" height="24" fill="rgb(52,134,190)" stroke="rgb(41,107,152)" stroke-width="1" opacity="0.75" />
			</g>
		</g>
		<g>
			<title> (GLBNLCJE_00992)
hypothetical protein</title>
			<polygon class=" (GLBNLCJE_00992)
hypothetical protein" points="252,10 275,40 252,70" fill="rgb(255,255,255)" fill-opacity="1.0" stroke="rgb(0,0,0)" stroke-width="2"  />
			<g>
				<title>Collagen (PF01391)
"Collagen triple helix repeat (20 copies)"</title>
				<rect class="PF01391" x="256" y="28" stroke-linejoin="round" width="6" height="24" fill="rgb(95,207,131)" stroke="rgb(76,165,104)" stroke-width="1" opacity="0.75" />
			</g>
		</g>
		<g>
			<title>kstR2_1 (GLBNLCJE_00993)
HTH-type transcriptional repressor KstR2</title>
			<polygon class="kstR2_1 (GLBNLCJE_00993)
HTH-type transcriptional repressor KstR2" points="281,10 302,40 281,70" fill="rgb(255,255,255)" fill-opacity="1.0" stroke="rgb(0,0,0)" stroke-width="2"  />
			<g>
				<title>TetR_N (PF00440)
"Bacterial regulatory proteins, tetR family"</title>
				<rect class="PF00440" x="281" y="28" stroke-linejoin="round" width="4" height="24" fill="rgb(73,212,190)" stroke="rgb(58,169,152)" stroke-width="1" opacity="0.75" />
			</g>
			<g>
				<title>TetR_C_24 (PF17932)
"Tetracyclin repressor-like, C-terminal domain"</title>
				<polygon class="PF17932" points="288,28 290,28 298,40 290,52 288,52" stroke-linejoin="round" width="11" height="24" fill="rgb(165,217,107)" stroke="rgb(132,173,85)" stroke-width="1" opacity="0.75" />
			</g>
		</g>
		<g>
			<title>bcd (GLBNLCJE_00994)
Acyl-CoA dehydrogenase, short-chain specific</title>
			<polygon class="bcd (GLBNLCJE_00994)
Acyl-CoA dehydrogenase, short-chain specific" points="304,25 312,25 312,10 342,40 312,70 312,55 304,55" fill="rgb(255,255,255)" fill-opacity="1.0" stroke="rgb(0,0,0)" stroke-width="2"  />
			<g>
				<title>Acyl-CoA_dh_N (PF02771)
"Acyl-CoA dehydrogenase, N-terminal domain"</title>
				<rect class="PF02771" x="304" y="28" stroke-linejoin="round" width="11" height="24" fill="rgb(105,135,218)" stroke="rgb(84,108,174)" stroke-width="1" opacity="0.75" />
			</g>
			<g>
				<title>Acyl-CoA_dh_M (PF02770)
"Acyl-CoA dehydrogenase, middle domain"</title>
				<rect class="PF02770" x="316" y="28" stroke-linejoin="round" width="9" height="24" fill="rgb(225,186,97)" stroke="rgb(180,148,77)" stroke-width="1" opacity="0.75" />
			</g>
			<g>
				<title>Acyl-CoA_dh_1 (PF00441)
"Acyl-CoA dehydrogenase, C-terminal domain"</title>
				<polygon class="PF00441" points="327,30 337,40 327,50" stroke-linejoin="round" width="14" height="24" fill="rgb(85,191,117)" stroke="rgb(68,152,93)" stroke-width="1" opacity="0.75" />
			</g>
		</g>
		<g>
			<title>fadD3 (GLBNLCJE_00995)
3-[(3aS,4S,7aS)-7a-methyl-1, 5-dioxo-octahydro-1H-inden-4-yl]propanoyl:CoA ligase</title>
			<polygon class="fadD3 (GLBNLCJE_00995)
3-[(3aS,4S,7aS)-7a-methyl-1, 5-dioxo-octahydro-1H-inden-4-yl]propanoyl:CoA ligase" points="343,25 367,25 367,10 397,40 367,70 367,55 343,55" fill="rgb(255,255,255)" fill-opacity="1.0" stroke="rgb(0,0,0)" stroke-width="2"  />
			<g>
				<title>AMP-binding (PF00501)
"AMP-binding enzyme"</title>
				<polygon class="PF00501" points="344,28 381,28 387,34 387,46 381,52 344,52" stroke-linejoin="round" width="43" height="24" fill="rgb(60,217,223)" stroke="rgb(48,173,178)" stroke-width="1" opacity="0.75" />
			</g>
			<g>
				<title>AMP-binding_C (PF13193)
"AMP-binding enzyme C-terminal domain"</title>
				<polygon class="PF13193" points="388,35 393,40 388,45" stroke-linejoin="round" width="7" height="24" fill="rgb(182,50,118)" stroke="rgb(145,39,94)" stroke-width="1" opacity="0.75" />
			</g>
		</g>
		<g>
			<title>accC_1 (GLBNLCJE_00996)
Biotin carboxylase</title>
			<polygon class="accC_1 (GLBNLCJE_00996)
Biotin carboxylase" points="398,25 413,25 413,10 443,40 413,70 413,55 398,55" fill="rgb(255,255,255)" fill-opacity="1.0" stroke="rgb(0,0,0)" stroke-width="2"  />
			<g>
				<title>Biotin_carb_N (PF00289)
"Biotin carboxylase, N-terminal domain"</title>
				<rect class="PF00289" x="398" y="28" stroke-linejoin="round" width="10" height="24" fill="rgb(59,114,187)" stroke="rgb(47,91,149)" stroke-width="1" opacity="0.75" />
			</g>
			<g>
				<title>CPSase_L_D2 (PF02786)
"Carbamoyl-phosphate synthase L chain, ATP binding domain"</title>
				<polygon class="PF02786" points="409,28 426,28 429,31 429,49 426,52 409,52" stroke-linejoin="round" width="20" height="24" fill="rgb(190,97,205)" stroke="rgb(151,77,164)" stroke-width="1" opacity="0.75" />
			</g>
			<g>
				<title>Biotin_carb_C (PF02785)
"Biotin carboxylase C-terminal domain"</title>
				<polygon class="PF02785" points="431,33 438,40 431,47" stroke-linejoin="round" width="10" height="24" fill="rgb(82,186,211)" stroke="rgb(65,148,168)" stroke-width="1" opacity="0.75" />
			</g>
		</g>
		<g>
			<title>yngHB (GLBNLCJE_00997)
Biotin/lipoyl attachment protein</title>
			<polygon class="yngHB (GLBNLCJE_00997)
Biotin/lipoyl attachment protein" points="444,10 451,40 444,70" fill="rgb(255,255,255)" fill-opacity="1.0" stroke="rgb(0,0,0)" stroke-width="2"  />
			<g>
				<title>Biotin_lipoyl (PF00364)
"Biotin-requiring enzyme"</title>
				<polygon class="PF00364" points="444,28 444,28 448,40 444,52 444,52" stroke-linejoin="round" width="6" height="24" fill="rgb(67,214,213)" stroke="rgb(53,171,170)" stroke-width="1" opacity="0.75" />
			</g>
		</g>
		<g>
			<title>yngG (GLBNLCJE_00998)
Hydroxymethylglutaryl-CoA lyase YngG</title>
			<polygon class="yngG (GLBNLCJE_00998)
Hydroxymethylglutaryl-CoA lyase YngG" points="451,25 451,25 451,10 481,40 451,70 451,55 451,55" fill="rgb(255,255,255)" fill-opacity="1.0" stroke="rgb(0,0,0)" stroke-width="2"  />
			<g>
				<title>HMGL-like (PF00682)
"HMGL-like"</title>
				<polygon class="PF00682" points="451,28 465,28 477,40 465,52 451,52" stroke-linejoin="round" width="27" height="24" fill="rgb(84,228,141)" stroke="rgb(67,182,112)" stroke-width="1" opacity="0.75" />
			</g>
		</g>
		<g>
			<title> (GLBNLCJE_00999)
Crotonyl-CoA hydratase</title>
			<polygon class=" (GLBNLCJE_00999)
Crotonyl-CoA hydratase" points="482,10 508,40 482,70" fill="rgb(255,255,255)" fill-opacity="1.0" stroke="rgb(0,0,0)" stroke-width="2"  />
			<g>
				<title>ECH_1 (PF00378)
"Enoyl-CoA hydratase/isomerase"</title>
				<polygon class="PF00378" points="483,28 494,28 504,40 494,52 483,52" stroke-linejoin="round" width="25" height="24" fill="rgb(218,72,181)" stroke="rgb(174,57,144)" stroke-width="1" opacity="0.75" />
			</g>
		</g>
		<g>
			<title>accD5 (GLBNLCJE_01000)
putative propionyl-CoA carboxylase beta chain 5</title>
			<polygon class="accD5 (GLBNLCJE_01000)
putative propionyl-CoA carboxylase beta chain 5" points="508,25 529,25 529,10 559,40 529,70 529,55 508,55" fill="rgb(255,255,255)" fill-opacity="1.0" stroke="rgb(0,0,0)" stroke-width="2"  />
			<g>
				<title>Carboxyl_trans (PF01039)
"Carboxyl transferase domain"</title>
				<polygon class="PF01039" points="510,28 542,28 554,40 542,52 510,52" stroke-linejoin="round" width="48" height="24" fill="rgb(180,136,60)" stroke="rgb(144,108,48)" stroke-width="1" opacity="0.75" />
			</g>
		</g>
		<g>
			<title>acs (GLBNLCJE_01001)
Acetyl-coenzyme A synthetase</title>
			<polygon class="acs (GLBNLCJE_01001)
Acetyl-coenzyme A synthetase" points="626,25 591,25 591,10 561,40 591,70 591,55 626,55" fill="rgb(255,255,255)" fill-opacity="1.0" stroke="rgb(0,0,0)" stroke-width="2"  />
			<g>
				<title>AMP-binding_C (PF13193)
"AMP-binding enzyme C-terminal domain"</title>
				<polygon class="PF13193" points="565,40 572,33 572,47 565,40" stroke-linejoin="round" width="7" height="24" fill="rgb(182,50,118)" stroke="rgb(145,39,94)" stroke-width="1" opacity="0.75" />
			</g>
			<g>
				<title>AMP-binding (PF00501)
"AMP-binding enzyme"</title>
				<polygon class="PF00501" points="573,32 577,28 616,28 616,52 577,52 573,48" stroke-linejoin="round" width="43" height="24" fill="rgb(60,217,223)" stroke="rgb(48,173,178)" stroke-width="1" opacity="0.75" />
			</g>
			<g>
				<title>ACAS_N (PF16177)
"Acetyl-coenzyme A synthetase N-terminus"</title>
				<rect class="PF16177" x="617" y="28" stroke-linejoin="round" width="5" height="24" fill="rgb(54,78,195)" stroke="rgb(43,62,156)" stroke-width="1" opacity="0.75" />
			</g>
		</g>
		<g>
			<title> (GLBNLCJE_01002)
hypothetical protein</title>
			<polygon class=" (GLBNLCJE_01002)
hypothetical protein" points="633,25 652,25 652,10 682,40 652,70 652,55 633,55" fill="rgb(255,255,255)" fill-opacity="1.0" stroke="rgb(0,0,0)" stroke-width="2"  />
			<g>
				<title>Band_7 (PF01145)
"SPFH domain / Band 7 family"</title>
				<rect class="PF01145" x="636" y="28" stroke-linejoin="round" width="24" height="24" fill="rgb(218,155,102)" stroke="rgb(174,124,81)" stroke-width="1" opacity="0.75" />
			</g>
			<g>
				<title>Flot (PF15975)
"Flotillin"</title>
				<polygon class="PF15975" points="666,28 666,28 676,38 676,42 666,52 666,52" stroke-linejoin="round" width="10" height="24" fill="rgb(211,172,58)" stroke="rgb(168,137,46)" stroke-width="1" opacity="0.75" />
			</g>
		</g>
		<g>
			<title> (GLBNLCJE_01003)
hypothetical protein</title>
			<polygon class=" (GLBNLCJE_01003)
hypothetical protein" points="693,25 701,25 701,10 731,40 701,70 701,55 693,55" fill="rgb(255,255,255)" fill-opacity="1.0" stroke="rgb(0,0,0)" stroke-width="2"  />
			<g>
				<title>Epimerase (PF01370)
"NAD dependent epimerase/dehydratase family"</title>
				<polygon class="PF01370" points="693,28 715,28 721,34 721,46 715,52 693,52" stroke-linejoin="round" width="28" height="24" fill="rgb(98,102,214)" stroke="rgb(78,81,171)" stroke-width="1" opacity="0.75" />
			</g>
		</g>
		<g>
			<title>mgtA_1 (GLBNLCJE_01004)
GDP-mannose-dependent alpha-mannosyltransferase</title>
			<polygon class="mgtA_1 (GLBNLCJE_01004)
GDP-mannose-dependent alpha-mannosyltransferase" points="731,25 739,25 739,10 769,40 739,70 739,55 731,55" fill="rgb(255,255,255)" fill-opacity="1.0" stroke="rgb(0,0,0)" stroke-width="2"  />
			<g>
				<title>Glyco_transf_4 (PF13439)
"Glycosyltransferase Family 4"</title>
				<rect class="PF13439" x="732" y="28" stroke-linejoin="round" width="16" height="24" fill="rgb(162,57,186)" stroke="rgb(129,45,148)" stroke-width="1" opacity="0.75" />
			</g>
			<g>
				<title>Glycos_transf_1 (PF00534)
"Glycosyl transferases group 1"</title>
				<polygon class="PF00534" points="749,28 753,28 765,40 765,40 753,52 749,52" stroke-linejoin="round" width="16" height="24" fill="rgb(228,92,150)" stroke="rgb(182,73,119)" stroke-width="1" opacity="0.75" />
			</g>
		</g>
		<g>
			<title> (GLBNLCJE_01005)
hypothetical protein</title>
			<polygon class=" (GLBNLCJE_01005)
hypothetical protein" points="781,10 789,40 781,70" fill="rgb(255,255,255)" fill-opacity="1.0" stroke="rgb(0,0,0)" stroke-width="2"  />
		</g>
		<g>
			<title> (GLBNLCJE_01006)
hypothetical protein</title>
			<polygon class=" (GLBNLCJE_01006)
hypothetical protein" points="816,10 834,40 816,70" fill="rgb(255,255,255)" fill-opacity="1.0" stroke="rgb(0,0,0)" stroke-width="2"  />
			<g>
				<title>Peptidase_C92 (PF05708)
"Permuted papain-like amidase enzyme, YaeF/YiiX, C92 family"</title>
				<polygon class="PF05708" points="820,28 823,28 830,40 823,52 820,52" stroke-linejoin="round" width="13" height="24" fill="rgb(188,91,163)" stroke="rgb(150,72,130)" stroke-width="1" opacity="0.75" />
			</g>
		</g>
		<g>
			<title>dinG_1 (GLBNLCJE_01007)
3'-5' exonuclease DinG</title>
			<polygon class="dinG_1 (GLBNLCJE_01007)
3'-5' exonuclease DinG" points="866,25 865,25 865,10 835,40 865,70 865,55 866,55" fill="rgb(255,255,255)" fill-opacity="1.0" stroke="rgb(0,0,0)" stroke-width="2"  />
			<g>
				<title>BRCT (PF00533)
"BRCA1 C Terminus (BRCT) domain"</title>
				<polygon class="PF00533" points="839,40 843,36 843,44" stroke-linejoin="round" width="8" height="24" fill="rgb(69,217,144)" stroke="rgb(55,173,115)" stroke-width="1" opacity="0.75" />
			</g>
			<g>
				<title>RNase_T (PF00929)
"Exonuclease"</title>
				<polygon class="PF00929" points="850,29 851,28 865,28 865,52 851,52 850,51" stroke-linejoin="round" width="15" height="24" fill="rgb(201,87,120)" stroke="rgb(160,69,96)" stroke-width="1" opacity="0.75" />
			</g>
		</g>
		<g>
			<title> (GLBNLCJE_01008)
hypothetical protein</title>
			<polygon class=" (GLBNLCJE_01008)
hypothetical protein" points="869,10 874,40 869,70" fill="rgb(255,255,255)" fill-opacity="1.0" stroke="rgb(0,0,0)" stroke-width="2"  />
		</g>
		<g>
			<title> (GLBNLCJE_01009)
hypothetical protein</title>
			<polygon class=" (GLBNLCJE_01009)
hypothetical protein" points="880,10 891,40 880,70" fill="rgb(255,255,255)" fill-opacity="1.0" stroke="rgb(0,0,0)" stroke-width="2"  />
			<g>
				<title>DUF3889 (PF13028)
"Protein of unknown function (DUF3889)"</title>
				<polygon class="PF13028" points="881,28 883,28 887,40 883,52 881,52" stroke-linejoin="round" width="9" height="24" fill="rgb(102,93,195)" stroke="rgb(81,74,156)" stroke-width="1" opacity="0.75" />
			</g>
		</g>
		<g>
			<title>ydjA (GLBNLCJE_01010)
Putative NAD(P)H nitroreductase YdjA</title>
			<polygon class="ydjA (GLBNLCJE_01010)
Putative NAD(P)H nitroreductase YdjA" points="893,40 911,10 911,70" fill="rgb(255,255,255)" fill-opacity="1.0" stroke="rgb(0,0,0)" stroke-width="2"  />
			<g>
				<title>Nitroreductase (PF00881)
"Nitroreductase family"</title>
				<polygon class="PF00881" points="897,40 904,28 910,28 910,52 904,52" stroke-linejoin="round" width="15" height="24" fill="rgb(79,118,187)" stroke="rgb(63,94,149)" stroke-width="1" opacity="0.75" />
			</g>
		</g>
		<g>
			<title>msrB_1 (GLBNLCJE_01011)
Peptide methionine sulfoxide reductase MsrB</title>
			<polygon class="msrB_1 (GLBNLCJE_01011)
Peptide methionine sulfoxide reductase MsrB" points="917,40 936,10 936,70" fill="rgb(255,255,255)" fill-opacity="1.0" stroke="rgb(0,0,0)" stroke-width="2"  />
			<g>
				<title>SelR (PF01641)
"SelR domain"</title>
				<polygon class="PF01641" points="921,40 929,28 929,28 929,52 929,52" stroke-linejoin="round" width="11" height="24" fill="rgb(192,99,202)" stroke="rgb(153,79,161)" stroke-width="1" opacity="0.75" />
			</g>
		</g>
		<g>
			<title> (GLBNLCJE_01012)
hypothetical protein</title>
			<polygon class=" (GLBNLCJE_01012)
hypothetical protein" points="942,10 957,40 942,70" fill="rgb(255,255,255)" fill-opacity="1.0" stroke="rgb(0,0,0)" stroke-width="2"  />
			<g>
				<title>YusW (PF14039)
"YusW-like protein"</title>
				<polygon class="PF14039" points="947,28 947,28 953,40 947,52 947,52" stroke-linejoin="round" width="8" height="24" fill="rgb(66,180,207)" stroke="rgb(52,144,165)" stroke-width="1" opacity="0.75" />
			</g>
		</g>
	</g>
</svg>
