<svg version="1.1" baseProfile="full" xmlns="http://www.w3.org/2000/svg" width="1389.4333333333334" height="80">
	<g>
		<line x1="10" y1="40.0" x2="1379.4333333333334" y2="40.0" style="stroke:rgb(70,70,70); stroke-width:3 "/>
		<g>
			<title>asnS (LDOKHMPG_01786)
Asparagine--tRNA ligase</title>
			<polygon class="asnS (LDOKHMPG_01786)
Asparagine--tRNA ligase" points="41,25 54,25 54,10 84,40 54,70 54,55 41,55" fill="rgb(255,255,255)" fill-opacity="1.0" stroke="rgb(0,0,0)" stroke-width="2"  />
			<g>
				<title>tRNA_anti-codon (PF01336)
"OB-fold nucleic acid binding domain"</title>
				<rect class="PF01336" x="42" y="28" stroke-linejoin="round" width="7" height="24" fill="rgb(215,103,173)" stroke="rgb(172,82,138)" stroke-width="1" opacity="0.75" />
			</g>
			<g>
				<title>tRNA-synt_2 (PF00152)
"tRNA synthetases class II (D, K and N)"</title>
				<polygon class="PF00152" points="51,28 67,28 79,40 67,52 51,52" stroke-linejoin="round" width="31" height="24" fill="rgb(90,71,190)" stroke="rgb(72,56,152)" stroke-width="1" opacity="0.75" />
			</g>
		</g>
		<g>
			<title>dnaD (LDOKHMPG_01787)
DNA replication protein DnaD</title>
			<polygon class="dnaD (LDOKHMPG_01787)
DNA replication protein DnaD" points="88,10 111,40 88,70" fill="rgb(255,255,255)" fill-opacity="1.0" stroke="rgb(0,0,0)" stroke-width="2"  />
			<g>
				<title>DnaB_2 (PF07261)
"Replication initiation and membrane attachment"</title>
				<polygon class="PF07261" points="100,31 107,40 107,40 100,49" stroke-linejoin="round" width="7" height="24" fill="rgb(136,193,85)" stroke="rgb(108,154,68)" stroke-width="1" opacity="0.75" />
			</g>
		</g>
		<g>
			<title>nth (LDOKHMPG_01788)
Endonuclease III</title>
			<polygon class="nth (LDOKHMPG_01788)
Endonuclease III" points="111,10 133,40 111,70" fill="rgb(255,255,255)" fill-opacity="1.0" stroke="rgb(0,0,0)" stroke-width="2"  />
			<g>
				<title>HhH-GPD (PF00730)
"HhH-GPD superfamily base excision DNA repair protein"</title>
				<polygon class="PF00730" points="114,28 120,28 127,37 127,43 120,52 114,52" stroke-linejoin="round" width="13" height="24" fill="rgb(190,78,115)" stroke="rgb(152,62,92)" stroke-width="1" opacity="0.75" />
			</g>
			<g>
				<title>EndIII_4Fe-2S (PF10576)
"Iron-sulfur binding domain of endonuclease III"</title>
				<polygon class="PF10576" points="129,40 129,40 129,40" stroke-linejoin="round" width="1" height="24" fill="rgb(203,113,64)" stroke="rgb(162,90,51)" stroke-width="1" opacity="0.75" />
			</g>
		</g>
		<g>
			<title>ponA (LDOKHMPG_01789)
Penicillin-binding protein 1A/1B</title>
			<polygon class="ponA (LDOKHMPG_01789)
Penicillin-binding protein 1A/1B" points="222,25 164,25 164,10 134,40 164,70 164,55 222,55" fill="rgb(255,255,255)" fill-opacity="1.0" stroke="rgb(0,0,0)" stroke-width="2"  />
			<g>
				<title>fn3 (PF00041)
"Fibronectin type III domain"</title>
				<polygon class="PF00041" points="146,32 150,28 153,28 153,52 150,52 146,48" stroke-linejoin="round" width="7" height="24" fill="rgb(203,70,135)" stroke="rgb(162,56,107)" stroke-width="1" opacity="0.75" />
			</g>
			<g>
				<title>Transpeptidase (PF00905)
"Penicillin binding protein transpeptidase domain"</title>
				<rect class="PF00905" x="160" y="28" stroke-linejoin="round" width="27" height="24" fill="rgb(161,226,87)" stroke="rgb(128,180,69)" stroke-width="1" opacity="0.75" />
			</g>
			<g>
				<title>Transgly (PF00912)
"Transglycosylase"</title>
				<rect class="PF00912" x="196" y="28" stroke-linejoin="round" width="17" height="24" fill="rgb(172,107,216)" stroke="rgb(137,85,172)" stroke-width="1" opacity="0.75" />
			</g>
		</g>
		<g>
			<title>recU (LDOKHMPG_01790)
Holliday junction resolvase RecU</title>
			<polygon class="recU (LDOKHMPG_01790)
Holliday junction resolvase RecU" points="223,40 242,10 242,70" fill="rgb(255,255,255)" fill-opacity="1.0" stroke="rgb(0,0,0)" stroke-width="2"  />
			<g>
				<title>RecU (PF03838)
"Recombination protein U"</title>
				<polygon class="PF03838" points="227,40 235,28 239,28 239,52 235,52" stroke-linejoin="round" width="16" height="24" fill="rgb(93,204,83)" stroke="rgb(74,163,66)" stroke-width="1" opacity="0.75" />
			</g>
		</g>
		<g>
			<title> (LDOKHMPG_01791)
hypothetical protein</title>
			<polygon class=" (LDOKHMPG_01791)
hypothetical protein" points="253,40 256,10 256,70" fill="rgb(255,255,255)" fill-opacity="1.0" stroke="rgb(0,0,0)" stroke-width="2"  />
		</g>
		<g>
			<title>racA (LDOKHMPG_01792)
Chromosome-anchoring protein RacA</title>
			<polygon class="racA (LDOKHMPG_01792)
Chromosome-anchoring protein RacA" points="261,10 269,40 261,70" fill="rgb(255,255,255)" fill-opacity="1.0" stroke="rgb(0,0,0)" stroke-width="2"  />
		</g>
		<g>
			<title> (LDOKHMPG_01793)
hypothetical protein</title>
			<polygon class=" (LDOKHMPG_01793)
hypothetical protein" points="271,10 282,40 271,70" fill="rgb(255,255,255)" fill-opacity="1.0" stroke="rgb(0,0,0)" stroke-width="2"  />
			<g>
				<title>DUF1798 (PF08807)
"Bacterial domain of unknown function (DUF1798)"</title>
				<polygon class="PF08807" points="271,28 274,28 279,40 274,52 271,52" stroke-linejoin="round" width="10" height="24" fill="rgb(153,201,81)" stroke="rgb(122,160,64)" stroke-width="1" opacity="0.75" />
			</g>
		</g>
		<g>
			<title>ttgB (LDOKHMPG_01794)
Toluene efflux pump membrane transporter TtgB</title>
			<polygon class="ttgB (LDOKHMPG_01794)
Toluene efflux pump membrane transporter TtgB" points="390,25 318,25 318,10 288,40 318,70 318,55 390,55" fill="rgb(255,255,255)" fill-opacity="1.0" stroke="rgb(0,0,0)" stroke-width="2"  />
			<g>
				<title>ACR_tran (PF00873)
"AcrB/AcrD/AcrF family"</title>
				<polygon class="PF00873" points="292,40 304,28 389,28 389,52 304,52" stroke-linejoin="round" width="101" height="24" fill="rgb(63,191,60)" stroke="rgb(50,152,48)" stroke-width="1" opacity="0.75" />
			</g>
		</g>
		<g>
			<title>cdd (LDOKHMPG_01795)
Cytidine deaminase</title>
			<polygon class="cdd (LDOKHMPG_01795)
Cytidine deaminase" points="395,10 408,40 395,70" fill="rgb(255,255,255)" fill-opacity="1.0" stroke="rgb(0,0,0)" stroke-width="2"  />
			<g>
				<title>dCMP_cyt_deam_1 (PF00383)
"Cytidine and deoxycytidylate deaminase zinc-binding region"</title>
				<polygon class="PF00383" points="395,28 399,28 405,40 405,40 399,52 395,52" stroke-linejoin="round" width="10" height="24" fill="rgb(91,149,216)" stroke="rgb(72,119,172)" stroke-width="1" opacity="0.75" />
			</g>
		</g>
		<g>
			<title> (LDOKHMPG_01796)
hypothetical protein</title>
			<polygon class=" (LDOKHMPG_01796)
hypothetical protein" points="415,10 420,40 415,70" fill="rgb(255,255,255)" fill-opacity="1.0" stroke="rgb(0,0,0)" stroke-width="2"  />
		</g>
		<g>
			<title> (LDOKHMPG_01797)
hypothetical protein</title>
			<polygon class=" (LDOKHMPG_01797)
hypothetical protein" points="422,10 431,40 422,70" fill="rgb(255,255,255)" fill-opacity="1.0" stroke="rgb(0,0,0)" stroke-width="2"  />
			<g>
				<title>DDE_Tnp_1_6 (PF13751)
"Transposase DDE domain"</title>
				<polygon class="PF13751" points="422,28 424,28 428,40 424,52 422,52" stroke-linejoin="round" width="8" height="24" fill="rgb(51,201,77)" stroke="rgb(40,160,61)" stroke-width="1" opacity="0.75" />
			</g>
		</g>
		<g>
			<title> (LDOKHMPG_01798)
hypothetical protein</title>
			<polygon class=" (LDOKHMPG_01798)
hypothetical protein" points="448,10 466,40 448,70" fill="rgb(255,255,255)" fill-opacity="1.0" stroke="rgb(0,0,0)" stroke-width="2"  />
			<g>
				<title>Spore-coat_CotD (PF11122)
"Inner spore coat protein D"</title>
				<polygon class="PF11122" points="450,28 455,28 463,40 455,52 450,52" stroke-linejoin="round" width="16" height="24" fill="rgb(221,153,69)" stroke="rgb(176,122,55)" stroke-width="1" opacity="0.75" />
			</g>
		</g>
		<g>
			<title> (LDOKHMPG_01799)
hypothetical protein</title>
			<polygon class=" (LDOKHMPG_01799)
hypothetical protein" points="466,10 487,40 466,70" fill="rgb(255,255,255)" fill-opacity="1.0" stroke="rgb(0,0,0)" stroke-width="2"  />
			<g>
				<title>YpsA (PF06908)
"YspA SLOG family"</title>
				<polygon class="PF06908" points="469,28 475,28 483,40 475,52 469,52" stroke-linejoin="round" width="16" height="24" fill="rgb(136,100,209)" stroke="rgb(108,80,167)" stroke-width="1" opacity="0.75" />
			</g>
		</g>
		<g>
			<title>gpsB (LDOKHMPG_01800)
Cell cycle protein GpsB</title>
			<polygon class="gpsB (LDOKHMPG_01800)
Cell cycle protein GpsB" points="491,10 501,40 491,70" fill="rgb(255,255,255)" fill-opacity="1.0" stroke="rgb(0,0,0)" stroke-width="2"  />
			<g>
				<title>DivIVA (PF05103)
"DivIVA protein"</title>
				<polygon class="PF05103" points="491,28 493,28 497,37 497,43 493,52 491,52" stroke-linejoin="round" width="6" height="24" fill="rgb(213,106,117)" stroke="rgb(170,84,93)" stroke-width="1" opacity="0.75" />
			</g>
		</g>
		<g>
			<title> (LDOKHMPG_01801)
hypothetical protein</title>
			<polygon class=" (LDOKHMPG_01801)
hypothetical protein" points="506,10 511,40 506,70" fill="rgb(255,255,255)" fill-opacity="1.0" stroke="rgb(0,0,0)" stroke-width="2"  />
		</g>
		<g>
			<title>rlmL (LDOKHMPG_01802)
Ribosomal RNA large subunit methyltransferase L</title>
			<polygon class="rlmL (LDOKHMPG_01802)
Ribosomal RNA large subunit methyltransferase L" points="522,25 531,25 531,10 561,40 531,70 531,55 522,55" fill="rgb(255,255,255)" fill-opacity="1.0" stroke="rgb(0,0,0)" stroke-width="2"  />
			<g>
				<title>THUMP (PF02926)
"THUMP domain"</title>
				<rect class="PF02926" x="523" y="28" stroke-linejoin="round" width="14" height="24" fill="rgb(52,209,163)" stroke="rgb(41,167,130)" stroke-width="1" opacity="0.75" />
			</g>
			<g>
				<title>UPF0020 (PF01170)
"Putative RNA methylase family UPF0020"</title>
				<polygon class="PF01170" points="538,28 544,28 556,40 544,52 538,52" stroke-linejoin="round" width="20" height="24" fill="rgb(89,182,69)" stroke="rgb(71,145,55)" stroke-width="1" opacity="0.75" />
			</g>
		</g>
		<g>
			<title>ypwA (LDOKHMPG_01803)
Carboxypeptidase 1</title>
			<polygon class="ypwA (LDOKHMPG_01803)
Carboxypeptidase 1" points="563,25 582,25 582,10 612,40 582,70 582,55 563,55" fill="rgb(255,255,255)" fill-opacity="1.0" stroke="rgb(0,0,0)" stroke-width="2"  />
			<g>
				<title>Peptidase_M32 (PF02074)
"Carboxypeptidase Taq (M32) metallopeptidase"</title>
				<polygon class="PF02074" points="563,28 596,28 608,40 596,52 563,52" stroke-linejoin="round" width="48" height="24" fill="rgb(213,142,93)" stroke="rgb(170,113,74)" stroke-width="1" opacity="0.75" />
			</g>
		</g>
		<g>
			<title> (LDOKHMPG_01804)
hypothetical protein</title>
			<polygon class=" (LDOKHMPG_01804)
hypothetical protein" points="615,40 633,10 633,70" fill="rgb(255,255,255)" fill-opacity="1.0" stroke="rgb(0,0,0)" stroke-width="2"  />
		</g>
		<g>
			<title>gno (LDOKHMPG_01805)
Gluconate 5-dehydrogenase</title>
			<polygon class="gno (LDOKHMPG_01805)
Gluconate 5-dehydrogenase" points="638,10 663,40 638,70" fill="rgb(255,255,255)" fill-opacity="1.0" stroke="rgb(0,0,0)" stroke-width="2"  />
			<g>
				<title>adh_short_C2 (PF13561)
"Enoyl-(Acyl carrier protein) reductase"</title>
				<polygon class="PF13561" points="639,28 649,28 659,40 649,52 639,52" stroke-linejoin="round" width="23" height="24" fill="rgb(73,205,127)" stroke="rgb(58,164,101)" stroke-width="1" opacity="0.75" />
			</g>
		</g>
		<g>
			<title> (LDOKHMPG_01806)
Alpha-pyrone synthesis polyketide synthase-like Pks11</title>
			<polygon class=" (LDOKHMPG_01806)
Alpha-pyrone synthesis polyketide synthase-like Pks11" points="676,25 682,25 682,10 712,40 682,70 682,55 676,55" fill="rgb(255,255,255)" fill-opacity="1.0" stroke="rgb(0,0,0)" stroke-width="2"  />
			<g>
				<title>Chal_sti_synt_N (PF00195)
"Chalcone and stilbene synthases, N-terminal domain"</title>
				<rect class="PF00195" x="681" y="28" stroke-linejoin="round" width="14" height="24" fill="rgb(60,181,161)" stroke="rgb(47,144,128)" stroke-width="1" opacity="0.75" />
			</g>
		</g>
		<g>
			<title> (LDOKHMPG_01807)
hypothetical protein</title>
			<polygon class=" (LDOKHMPG_01807)
hypothetical protein" points="712,10 729,40 712,70" fill="rgb(255,255,255)" fill-opacity="1.0" stroke="rgb(0,0,0)" stroke-width="2"  />
			<g>
				<title>ICMT (PF04140)
"Isoprenylcysteine carboxyl methyltransferase (ICMT) family"</title>
				<polygon class="PF04140" points="719,29 725,40 719,51" stroke-linejoin="round" width="9" height="24" fill="rgb(100,223,104)" stroke="rgb(80,178,83)" stroke-width="1" opacity="0.75" />
			</g>
		</g>
		<g>
			<title> (LDOKHMPG_01808)
hypothetical protein</title>
			<polygon class=" (LDOKHMPG_01808)
hypothetical protein" points="732,10 737,40 732,70" fill="rgb(255,255,255)" fill-opacity="1.0" stroke="rgb(0,0,0)" stroke-width="2"  />
		</g>
		<g>
			<title> (LDOKHMPG_01809)
hypothetical protein</title>
			<polygon class=" (LDOKHMPG_01809)
hypothetical protein" points="746,10 755,40 746,70" fill="rgb(255,255,255)" fill-opacity="1.0" stroke="rgb(0,0,0)" stroke-width="2"  />
		</g>
		<g>
			<title>rnhA (LDOKHMPG_01810)
14.7 kDa ribonuclease H-like protein</title>
			<polygon class="rnhA (LDOKHMPG_01810)
14.7 kDa ribonuclease H-like protein" points="756,40 769,10 769,70" fill="rgb(255,255,255)" fill-opacity="1.0" stroke="rgb(0,0,0)" stroke-width="2"  />
			<g>
				<title>RVT_3 (PF13456)
"Reverse transcriptase-like"</title>
				<polygon class="PF13456" points="759,40 764,28 769,28 769,52 764,52" stroke-linejoin="round" width="12" height="24" fill="rgb(198,123,86)" stroke="rgb(158,98,68)" stroke-width="1" opacity="0.75" />
			</g>
		</g>
		<g>
			<title> (LDOKHMPG_01811)
queuosine precursor transporter</title>
			<polygon class=" (LDOKHMPG_01811)
queuosine precursor transporter" points="770,40 792,10 792,70" fill="rgb(255,255,255)" fill-opacity="1.0" stroke="rgb(0,0,0)" stroke-width="2"  />
			<g>
				<title>Vut_1 (PF02592)
"Putative vitamin uptake transporter"</title>
				<polygon class="PF02592" points="774,40 783,28 786,28 786,52 783,52" stroke-linejoin="round" width="16" height="24" fill="rgb(93,184,75)" stroke="rgb(74,147,60)" stroke-width="1" opacity="0.75" />
			</g>
		</g>
		<g>
			<title>cspA_1 (LDOKHMPG_01812)
Cold shock protein CspA</title>
			<polygon class="cspA_1 (LDOKHMPG_01812)
Cold shock protein CspA" points="806,40 812,10 812,70" fill="rgb(255,255,255)" fill-opacity="1.0" stroke="rgb(0,0,0)" stroke-width="2"  />
			<g>
				<title>CSD (PF00313)
"'Cold-shock' DNA-binding domain"</title>
				<polygon class="PF00313" points="809,40 812,28 812,28 812,52 812,52" stroke-linejoin="round" width="6" height="24" fill="rgb(87,72,181)" stroke="rgb(69,57,144)" stroke-width="1" opacity="0.75" />
			</g>
		</g>
		<g>
			<title>fhs (LDOKHMPG_01813)
Formate--tetrahydrofolate ligase</title>
			<polygon class="fhs (LDOKHMPG_01813)
Formate--tetrahydrofolate ligase" points="823,25 848,25 848,10 878,40 848,70 848,55 823,55" fill="rgb(255,255,255)" fill-opacity="1.0" stroke="rgb(0,0,0)" stroke-width="2"  />
			<g>
				<title>FTHFS (PF01268)
"Formate--tetrahydrofolate ligase"</title>
				<polygon class="PF01268" points="823,28 862,28 874,40 862,52 823,52" stroke-linejoin="round" width="55" height="24" fill="rgb(215,182,81)" stroke="rgb(172,145,64)" stroke-width="1" opacity="0.75" />
			</g>
		</g>
		<g>
			<title> (LDOKHMPG_01814)
hypothetical protein</title>
			<polygon class=" (LDOKHMPG_01814)
hypothetical protein" points="882,10 910,40 882,70" fill="rgb(255,255,255)" fill-opacity="1.0" stroke="rgb(0,0,0)" stroke-width="2"  />
			<g>
				<title>DUF72 (PF01904)
"Protein of unknown function DUF72"</title>
				<polygon class="PF01904" points="883,28 894,28 906,40 894,52 883,52" stroke-linejoin="round" width="24" height="24" fill="rgb(63,151,204)" stroke="rgb(50,120,163)" stroke-width="1" opacity="0.75" />
			</g>
		</g>
		<g>
			<title>yedJ (LDOKHMPG_01815)
putative protein YedJ</title>
			<polygon class="yedJ (LDOKHMPG_01815)
putative protein YedJ" points="911,10 930,40 911,70" fill="rgb(255,255,255)" fill-opacity="1.0" stroke="rgb(0,0,0)" stroke-width="2"  />
			<g>
				<title>HD (PF01966)
"HD domain"</title>
				<polygon class="PF01966" points="913,28 919,28 922,33 922,47 919,52 913,52" stroke-linejoin="round" width="9" height="24" fill="rgb(92,193,119)" stroke="rgb(73,154,95)" stroke-width="1" opacity="0.75" />
			</g>
		</g>
		<g>
			<title>thyA (LDOKHMPG_01816)
Thymidylate synthase</title>
			<polygon class="thyA (LDOKHMPG_01816)
Thymidylate synthase" points="930,25 932,25 932,10 962,40 932,70 932,55 930,55" fill="rgb(255,255,255)" fill-opacity="1.0" stroke="rgb(0,0,0)" stroke-width="2"  />
			<g>
				<title>Thymidylat_synt (PF00303)
"Thymidylate synthase"</title>
				<polygon class="PF00303" points="931,28 946,28 958,40 946,52 931,52" stroke-linejoin="round" width="31" height="24" fill="rgb(103,91,191)" stroke="rgb(82,72,152)" stroke-width="1" opacity="0.75" />
			</g>
		</g>
		<g>
			<title> (LDOKHMPG_01817)
IS1595 family transposase ISSsu9</title>
			<polygon class=" (LDOKHMPG_01817)
IS1595 family transposase ISSsu9" points="964,10 980,40 964,70" fill="rgb(255,255,255)" fill-opacity="1.0" stroke="rgb(0,0,0)" stroke-width="2"  />
			<g>
				<title>DHFR_1 (PF00186)
"Dihydrofolate reductase"</title>
				<polygon class="PF00186" points="964,28 970,28 977,40 970,52 964,52" stroke-linejoin="round" width="16" height="24" fill="rgb(150,188,63)" stroke="rgb(119,150,50)" stroke-width="1" opacity="0.75" />
			</g>
		</g>
		<g>
			<title>mobA (LDOKHMPG_01818)
Molybdenum cofactor guanylyltransferase</title>
			<polygon class="mobA (LDOKHMPG_01818)
Molybdenum cofactor guanylyltransferase" points="980,10 1000,40 980,70" fill="rgb(255,255,255)" fill-opacity="1.0" stroke="rgb(0,0,0)" stroke-width="2"  />
			<g>
				<title>NTP_transf_3 (PF12804)
"MobA-like NTP transferase domain"</title>
				<polygon class="PF12804" points="980,28 988,28 995,38 995,42 988,52 980,52" stroke-linejoin="round" width="15" height="24" fill="rgb(52,209,196)" stroke="rgb(41,167,156)" stroke-width="1" opacity="0.75" />
			</g>
		</g>
		<g>
			<title>tatAd_2 (LDOKHMPG_01819)
Sec-independent protein translocase protein TatAd</title>
			<polygon class="tatAd_2 (LDOKHMPG_01819)
Sec-independent protein translocase protein TatAd" points="1004,10 1010,40 1004,70" fill="rgb(255,255,255)" fill-opacity="1.0" stroke="rgb(0,0,0)" stroke-width="2"  />
			<g>
				<title>MttA_Hcf106 (PF02416)
"mttA/Hcf106 family"</title>
				<polygon class="PF02416" points="1004,28 1004,28 1007,40 1004,52 1004,52" stroke-linejoin="round" width="5" height="24" fill="rgb(74,206,98)" stroke="rgb(59,164,78)" stroke-width="1" opacity="0.75" />
			</g>
		</g>
		<g>
			<title>tatAd_3 (LDOKHMPG_01820)
Sec-independent protein translocase protein TatAd</title>
			<polygon class="tatAd_3 (LDOKHMPG_01820)
Sec-independent protein translocase protein TatAd" points="1012,10 1018,40 1012,70" fill="rgb(255,255,255)" fill-opacity="1.0" stroke="rgb(0,0,0)" stroke-width="2"  />
			<g>
				<title>MttA_Hcf106 (PF02416)
"mttA/Hcf106 family"</title>
				<polygon class="PF02416" points="1012,28 1012,28 1015,40 1012,52 1012,52" stroke-linejoin="round" width="5" height="24" fill="rgb(74,206,98)" stroke="rgb(59,164,78)" stroke-width="1" opacity="0.75" />
			</g>
		</g>
		<g>
			<title>tatC1_2 (LDOKHMPG_01821)
Sec-independent protein translocase protein TatCd</title>
			<polygon class="tatC1_2 (LDOKHMPG_01821)
Sec-independent protein translocase protein TatCd" points="1021,10 1046,40 1021,70" fill="rgb(255,255,255)" fill-opacity="1.0" stroke="rgb(0,0,0)" stroke-width="2"  />
			<g>
				<title>TatC (PF00902)
"Sec-independent protein translocase protein (TatC)"</title>
				<polygon class="PF00902" points="1022,28 1032,28 1042,40 1042,40 1032,52 1022,52" stroke-linejoin="round" width="20" height="24" fill="rgb(84,193,209)" stroke="rgb(67,154,167)" stroke-width="1" opacity="0.75" />
			</g>
		</g>
		<g>
			<title> (LDOKHMPG_01822)
hypothetical protein</title>
			<polygon class=" (LDOKHMPG_01822)
hypothetical protein" points="1051,10 1058,40 1051,70" fill="rgb(255,255,255)" fill-opacity="1.0" stroke="rgb(0,0,0)" stroke-width="2"  />
			<g>
				<title>YozE_SAM_like (PF06855)
"YozE SAM-like fold"</title>
				<polygon class="PF06855" points="1051,28 1051,28 1055,40 1051,52 1051,52" stroke-linejoin="round" width="6" height="24" fill="rgb(83,201,171)" stroke="rgb(66,160,136)" stroke-width="1" opacity="0.75" />
			</g>
		</g>
		<g>
			<title>sbcD (LDOKHMPG_01823)
Nuclease SbcCD subunit D</title>
			<polygon class="sbcD (LDOKHMPG_01823)
Nuclease SbcCD subunit D" points="1059,25 1067,25 1067,10 1097,40 1067,70 1067,55 1059,55" fill="rgb(255,255,255)" fill-opacity="1.0" stroke="rgb(0,0,0)" stroke-width="2"  />
			<g>
				<title>Metallophos (PF00149)
"Calcineurin-like phosphoesterase"</title>
				<rect class="PF00149" x="1059" y="28" stroke-linejoin="round" width="21" height="24" fill="rgb(181,197,58)" stroke="rgb(144,157,46)" stroke-width="1" opacity="0.75" />
			</g>
			<g>
				<title>SbcD_C (PF12320)
"Type 5 capsule protein repressor C-terminal domain"</title>
				<polygon class="PF12320" points="1085,32 1093,40 1085,48" stroke-linejoin="round" width="9" height="24" fill="rgb(182,136,65)" stroke="rgb(145,108,52)" stroke-width="1" opacity="0.75" />
			</g>
		</g>
		<g>
			<title>smc_1 (LDOKHMPG_01824)
Chromosome partition protein Smc</title>
			<polygon class="smc_1 (LDOKHMPG_01824)
Chromosome partition protein Smc" points="1098,25 1171,25 1171,10 1201,40 1171,70 1171,55 1098,55" fill="rgb(255,255,255)" fill-opacity="1.0" stroke="rgb(0,0,0)" stroke-width="2"  />
			<g>
				<title>AAA_23 (PF13476)
"AAA domain"</title>
				<rect class="PF13476" x="1098" y="28" stroke-linejoin="round" width="24" height="24" fill="rgb(57,185,214)" stroke="rgb(45,147,171)" stroke-width="1" opacity="0.75" />
			</g>
			<g>
				<title>SbcCD_C (PF13558)
"Putative exonuclease SbcCD, C subunit"</title>
				<polygon class="PF13558" points="1189,32 1197,40 1197,40 1189,48" stroke-linejoin="round" width="8" height="24" fill="rgb(84,179,84)" stroke="rgb(67,143,67)" stroke-width="1" opacity="0.75" />
			</g>
		</g>
		<g>
			<title>ung (LDOKHMPG_01825)
Uracil-DNA glycosylase</title>
			<polygon class="ung (LDOKHMPG_01825)
Uracil-DNA glycosylase" points="1207,10 1229,40 1207,70" fill="rgb(255,255,255)" fill-opacity="1.0" stroke="rgb(0,0,0)" stroke-width="2"  />
			<g>
				<title>UDG (PF03167)
"Uracil DNA glycosylase superfamily"</title>
				<polygon class="PF03167" points="1211,28 1217,28 1225,40 1217,52 1211,52" stroke-linejoin="round" width="16" height="24" fill="rgb(64,224,60)" stroke="rgb(51,179,48)" stroke-width="1" opacity="0.75" />
			</g>
		</g>
		<g>
			<title> (LDOKHMPG_01826)
hypothetical protein</title>
			<polygon class=" (LDOKHMPG_01826)
hypothetical protein" points="1232,10 1249,40 1232,70" fill="rgb(255,255,255)" fill-opacity="1.0" stroke="rgb(0,0,0)" stroke-width="2"  />
			<g>
				<title>YqfQ (PF14181)
"YqfQ-like protein"</title>
				<polygon class="PF14181" points="1232,28 1239,28 1246,40 1239,52 1232,52" stroke-linejoin="round" width="17" height="24" fill="rgb(207,119,57)" stroke="rgb(165,95,45)" stroke-width="1" opacity="0.75" />
			</g>
		</g>
		<g>
			<title>msrAB (LDOKHMPG_01827)
Peptide methionine sulfoxide reductase MsrA/MsrB</title>
			<polygon class="msrAB (LDOKHMPG_01827)
Peptide methionine sulfoxide reductase MsrA/MsrB" points="1253,25 1255,25 1255,10 1285,40 1255,70 1255,55 1253,55" fill="rgb(255,255,255)" fill-opacity="1.0" stroke="rgb(0,0,0)" stroke-width="2"  />
			<g>
				<title>PMSR (PF01625)
"Peptide methionine sulfoxide reductase"</title>
				<rect class="PF01625" x="1253" y="28" stroke-linejoin="round" width="15" height="24" fill="rgb(201,74,176)" stroke="rgb(160,59,140)" stroke-width="1" opacity="0.75" />
			</g>
			<g>
				<title>SelR (PF01641)
"SelR domain"</title>
				<polygon class="PF01641" points="1271,31 1280,40 1271,49" stroke-linejoin="round" width="12" height="24" fill="rgb(192,99,202)" stroke="rgb(153,79,161)" stroke-width="1" opacity="0.75" />
			</g>
		</g>
		<g>
			<title> (LDOKHMPG_01828)
hypothetical protein</title>
			<polygon class=" (LDOKHMPG_01828)
hypothetical protein" points="1305,25 1309,25 1309,10 1339,40 1309,70 1309,55 1305,55" fill="rgb(255,255,255)" fill-opacity="1.0" stroke="rgb(0,0,0)" stroke-width="2"  />
			<g>
				<title>AbrB (PF05145)
"Transition state regulatory protein AbrB"</title>
				<polygon class="PF05145" points="1307,28 1323,28 1335,40 1323,52 1307,52" stroke-linejoin="round" width="31" height="24" fill="rgb(95,98,223)" stroke="rgb(76,78,178)" stroke-width="1" opacity="0.75" />
			</g>
		</g>
		<g>
			<title>mhqD_2 (LDOKHMPG_01829)
Putative hydrolase MhqD</title>
			<polygon class="mhqD_2 (LDOKHMPG_01829)
Putative hydrolase MhqD" points="1342,10 1362,40 1342,70" fill="rgb(255,255,255)" fill-opacity="1.0" stroke="rgb(0,0,0)" stroke-width="2"  />
			<g>
				<title>DLH (PF01738)
"Dienelactone hydrolase family"</title>
				<polygon class="PF01738" points="1346,28 1350,28 1358,40 1350,52 1346,52" stroke-linejoin="round" width="14" height="24" fill="rgb(188,185,48)" stroke="rgb(150,147,38)" stroke-width="1" opacity="0.75" />
			</g>
		</g>
		<g>
			<title> (LDOKHMPG_01830)
hypothetical protein</title>
			<polygon class=" (LDOKHMPG_01830)
hypothetical protein" points="1365,10 1371,40 1365,70" fill="rgb(255,255,255)" fill-opacity="1.0" stroke="rgb(0,0,0)" stroke-width="2"  />
		</g>
	</g>
</svg>
