<svg version="1.1" baseProfile="full" xmlns="http://www.w3.org/2000/svg" width="467.3333333333333" height="80">
	<g>
		<line x1="10" y1="40.0" x2="457.3333333333333" y2="40.0" style="stroke:rgb(70,70,70); stroke-width:3 "/>
		<g>
			<title>fosB (FHOLFIBO_03824)
Metallothiol transferase FosB</title>
			<polygon class="fosB (FHOLFIBO_03824)
Metallothiol transferase FosB" points="10,40 24,10 24,70" fill="rgb(255,255,255)" fill-opacity="1.0" stroke="rgb(0,0,0)" stroke-width="2"  />
			<g>
				<title>Glyoxalase (PF00903)
"Glyoxalase/Bleomycin resistance protein/Dioxygenase superfamily"</title>
				<polygon class="PF00903" points="13,40 19,28 23,28 23,52 19,52" stroke-linejoin="round" width="11" height="24" fill="rgb(50,162,189)" stroke="rgb(40,129,151)" stroke-width="1" opacity="0.75" />
			</g>
		</g>
		<g>
			<title> (FHOLFIBO_03825)
hypothetical protein</title>
			<polygon class=" (FHOLFIBO_03825)
hypothetical protein" points="27,40 35,10 35,70" fill="rgb(255,255,255)" fill-opacity="1.0" stroke="rgb(0,0,0)" stroke-width="2"  />
		</g>
		<g>
			<title> (FHOLFIBO_03826)
hypothetical protein</title>
			<polygon class=" (FHOLFIBO_03826)
hypothetical protein" points="35,40 56,10 56,70" fill="rgb(255,255,255)" fill-opacity="1.0" stroke="rgb(0,0,0)" stroke-width="2"  />
			<g>
				<title>Lysozyme_like (PF13702)
"Lysozyme-like"</title>
				<polygon class="PF13702" points="39,40 47,28 50,28 50,52 47,52" stroke-linejoin="round" width="15" height="24" fill="rgb(186,63,104)" stroke="rgb(148,50,83)" stroke-width="1" opacity="0.75" />
			</g>
		</g>
		<g>
			<title> (FHOLFIBO_03827)
hypothetical protein</title>
			<polygon class=" (FHOLFIBO_03827)
hypothetical protein" points="70,40 83,10 83,70" fill="rgb(255,255,255)" fill-opacity="1.0" stroke="rgb(0,0,0)" stroke-width="2"  />
		</g>
		<g>
			<title>udk_2 (FHOLFIBO_03828)
Uridine kinase</title>
			<polygon class="udk_2 (FHOLFIBO_03828)
Uridine kinase" points="98,40 116,10 116,70" fill="rgb(255,255,255)" fill-opacity="1.0" stroke="rgb(0,0,0)" stroke-width="2"  />
		</g>
		<g>
			<title>sbnH (FHOLFIBO_03829)
2-[(L-alanin-3-ylcarbamoyl)methyl]-2- hydroxybutanedioate decarboxylase</title>
			<polygon class="sbnH (FHOLFIBO_03829)
2-[(L-alanin-3-ylcarbamoyl)methyl]-2- hydroxybutanedioate decarboxylase" points="174,25 165,25 165,10 135,40 165,70 165,55 174,55" fill="rgb(255,255,255)" fill-opacity="1.0" stroke="rgb(0,0,0)" stroke-width="2"  />
			<g>
				<title>Orn_Arg_deC_N (PF02784)
"Pyridoxal-dependent decarboxylase, pyridoxal binding domain"</title>
				<polygon class="PF02784" points="147,32 151,28 171,28 171,52 151,52 147,48" stroke-linejoin="round" width="24" height="24" fill="rgb(106,204,212)" stroke="rgb(84,163,169)" stroke-width="1" opacity="0.75" />
			</g>
		</g>
		<g>
			<title> (FHOLFIBO_03830)
hypothetical protein</title>
			<polygon class=" (FHOLFIBO_03830)
hypothetical protein" points="239,25 204,25 204,10 174,40 204,70 204,55 239,55" fill="rgb(255,255,255)" fill-opacity="1.0" stroke="rgb(0,0,0)" stroke-width="2"  />
			<g>
				<title>FhuF (PF06276)
"Ferric iron reductase FhuF-like transporter"</title>
				<polygon class="PF06276" points="178,40 190,28 191,28 191,52 190,52" stroke-linejoin="round" width="16" height="24" fill="rgb(76,151,221)" stroke="rgb(60,120,176)" stroke-width="1" opacity="0.75" />
			</g>
			<g>
				<title>IucA_IucC (PF04183)
"IucA / IucC family"</title>
				<rect class="PF04183" x="195" y="28" stroke-linejoin="round" width="23" height="24" fill="rgb(221,104,121)" stroke="rgb(176,83,96)" stroke-width="1" opacity="0.75" />
			</g>
		</g>
		<g>
			<title>sbnF (FHOLFIBO_03831)
2-[(L-alanin-3-ylcarbamoyl)methyl]-3-(2- aminoethylcarbamoyl)-2-hydroxypropanoate synthase</title>
			<polygon class="sbnF (FHOLFIBO_03831)
2-[(L-alanin-3-ylcarbamoyl)methyl]-3-(2- aminoethylcarbamoyl)-2-hydroxypropanoate synthase" points="303,25 269,25 269,10 239,40 269,70 269,55 303,55" fill="rgb(255,255,255)" fill-opacity="1.0" stroke="rgb(0,0,0)" stroke-width="2"  />
			<g>
				<title>FhuF (PF06276)
"Ferric iron reductase FhuF-like transporter"</title>
				<polygon class="PF06276" points="243,40 255,28 257,28 257,52 255,52" stroke-linejoin="round" width="16" height="24" fill="rgb(76,151,221)" stroke="rgb(60,120,176)" stroke-width="1" opacity="0.75" />
			</g>
			<g>
				<title>IucA_IucC (PF04183)
"IucA / IucC family"</title>
				<rect class="PF04183" x="260" y="28" stroke-linejoin="round" width="24" height="24" fill="rgb(221,104,121)" stroke="rgb(176,83,96)" stroke-width="1" opacity="0.75" />
			</g>
		</g>
		<g>
			<title> (FHOLFIBO_03832)
hypothetical protein</title>
			<polygon class=" (FHOLFIBO_03832)
hypothetical protein" points="307,10 331,40 307,70" fill="rgb(255,255,255)" fill-opacity="1.0" stroke="rgb(0,0,0)" stroke-width="2"  />
		</g>
		<g>
			<title>mtlD (FHOLFIBO_03833)
Mannitol-1-phosphate 5-dehydrogenase</title>
			<polygon class="mtlD (FHOLFIBO_03833)
Mannitol-1-phosphate 5-dehydrogenase" points="372,25 364,25 364,10 334,40 364,70 364,55 372,55" fill="rgb(255,255,255)" fill-opacity="1.0" stroke="rgb(0,0,0)" stroke-width="2"  />
			<g>
				<title>Mannitol_dh_C (PF08125)
"Mannitol dehydrogenase C-terminal domain"</title>
				<polygon class="PF08125" points="338,40 350,28 357,28 357,52 350,52" stroke-linejoin="round" width="22" height="24" fill="rgb(196,64,94)" stroke="rgb(156,51,75)" stroke-width="1" opacity="0.75" />
			</g>
			<g>
				<title>Mannitol_dh (PF01232)
"Mannitol dehydrogenase Rossmann domain"</title>
				<rect class="PF01232" x="360" y="28" stroke-linejoin="round" width="12" height="24" fill="rgb(221,155,56)" stroke="rgb(176,124,44)" stroke-width="1" opacity="0.75" />
			</g>
		</g>
		<g>
			<title>mtlF (FHOLFIBO_03834)
Mannitol-specific phosphotransferase enzyme IIA component</title>
			<polygon class="mtlF (FHOLFIBO_03834)
Mannitol-specific phosphotransferase enzyme IIA component" points="372,40 386,10 386,70" fill="rgb(255,255,255)" fill-opacity="1.0" stroke="rgb(0,0,0)" stroke-width="2"  />
			<g>
				<title>PTS_EIIA_2 (PF00359)
"Phosphoenolpyruvate-dependent sugar phosphotransferase system, EIIA 2"</title>
				<polygon class="PF00359" points="375,40 381,28 386,28 386,52 381,52" stroke-linejoin="round" width="14" height="24" fill="rgb(115,83,186)" stroke="rgb(91,66,148)" stroke-width="1" opacity="0.75" />
			</g>
		</g>
		<g>
			<title>mtlR (FHOLFIBO_03835)
Transcriptional regulator MtlR</title>
			<polygon class="mtlR (FHOLFIBO_03835)
Transcriptional regulator MtlR" points="456,25 417,25 417,10 387,40 417,70 417,55 456,55" fill="rgb(255,255,255)" fill-opacity="1.0" stroke="rgb(0,0,0)" stroke-width="2"  />
			<g>
				<title>PTS_EIIA_2 (PF00359)
"Phosphoenolpyruvate-dependent sugar phosphotransferase system, EIIA 2"</title>
				<polygon class="PF00359" points="391,40 402,29 402,51" stroke-linejoin="round" width="14" height="24" fill="rgb(115,83,186)" stroke="rgb(91,66,148)" stroke-width="1" opacity="0.75" />
			</g>
			<g>
				<title>PTS_IIB (PF02302)
"PTS system, Lactose/Cellobiose specific IIB subunit"</title>
				<rect class="PF02302" x="406" y="28" stroke-linejoin="round" width="8" height="24" fill="rgb(106,212,56)" stroke="rgb(84,169,44)" stroke-width="1" opacity="0.75" />
			</g>
			<g>
				<title>PRD (PF00874)
"PRD domain"</title>
				<rect class="PF00874" x="416" y="28" stroke-linejoin="round" width="8" height="24" fill="rgb(72,210,205)" stroke="rgb(57,168,164)" stroke-width="1" opacity="0.75" />
			</g>
			<g>
				<title>PRD (PF00874)
"PRD domain"</title>
				<rect class="PF00874" x="427" y="28" stroke-linejoin="round" width="8" height="24" fill="rgb(72,210,205)" stroke="rgb(57,168,164)" stroke-width="1" opacity="0.75" />
			</g>
			<g>
				<title>Mga (PF05043)
"Mga helix-turn-helix domain"</title>
				<rect class="PF05043" x="438" y="28" stroke-linejoin="round" width="11" height="24" fill="rgb(177,193,55)" stroke="rgb(141,154,44)" stroke-width="1" opacity="0.75" />
			</g>
			<g>
				<title>HTH_11 (PF08279)
"HTH domain"</title>
				<rect class="PF08279" x="450" y="28" stroke-linejoin="round" width="5" height="24" fill="rgb(188,106,60)" stroke="rgb(150,84,48)" stroke-width="1" opacity="0.75" />
			</g>
		</g>
	</g>
</svg>
