<svg version="1.1" baseProfile="full" xmlns="http://www.w3.org/2000/svg" width="366.23333333333335" height="80">
	<g>
		<line x1="10" y1="40.0" x2="356.23333333333335" y2="40.0" style="stroke:rgb(70,70,70); stroke-width:3 "/>
		<g>
			<title> (CDOIENLM_03168)
hypothetical protein</title>
			<polygon class=" (CDOIENLM_03168)
hypothetical protein" points="62,10 72,40 62,70" fill="rgb(255,255,255)" fill-opacity="1.0" stroke="rgb(0,0,0)" stroke-width="2"  />
		</g>
		<g>
			<title> (CDOIENLM_03169)
hypothetical protein</title>
			<polygon class=" (CDOIENLM_03169)
hypothetical protein" points="73,40 91,10 91,70" fill="rgb(255,255,255)" fill-opacity="1.0" stroke="rgb(0,0,0)" stroke-width="2"  />
		</g>
		<g>
			<title> (CDOIENLM_03170)
hypothetical protein</title>
			<polygon class=" (CDOIENLM_03170)
hypothetical protein" points="122,25 122,25 122,10 92,40 122,70 122,55 122,55" fill="rgb(255,255,255)" fill-opacity="1.0" stroke="rgb(0,0,0)" stroke-width="2"  />
		</g>
		<g>
			<title> (CDOIENLM_03171)
hypothetical protein</title>
			<polygon class=" (CDOIENLM_03171)
hypothetical protein" points="130,40 137,10 137,70" fill="rgb(255,255,255)" fill-opacity="1.0" stroke="rgb(0,0,0)" stroke-width="2"  />
		</g>
		<g>
			<title> (CDOIENLM_03172)
hypothetical protein</title>
			<polygon class=" (CDOIENLM_03172)
hypothetical protein" points="137,40 152,10 152,70" fill="rgb(255,255,255)" fill-opacity="1.0" stroke="rgb(0,0,0)" stroke-width="2"  />
		</g>
		<g>
			<title> (CDOIENLM_03173)
hypothetical protein</title>
			<polygon class=" (CDOIENLM_03173)
hypothetical protein" points="153,40 161,10 161,70" fill="rgb(255,255,255)" fill-opacity="1.0" stroke="rgb(0,0,0)" stroke-width="2"  />
		</g>
		<g>
			<title> (CDOIENLM_03174)
hypothetical protein</title>
			<polygon class=" (CDOIENLM_03174)
hypothetical protein" points="165,40 173,10 173,70" fill="rgb(255,255,255)" fill-opacity="1.0" stroke="rgb(0,0,0)" stroke-width="2"  />
		</g>
		<g>
			<title>ectC (CDOIENLM_03175)
L-ectoine synthase</title>
			<polygon class="ectC (CDOIENLM_03175)
L-ectoine synthase" points="176,40 188,10 188,70" fill="rgb(255,255,255)" fill-opacity="1.0" stroke="rgb(0,0,0)" stroke-width="2"  />
			<g>
				<title>Ectoine_synth (PF06339)
"Ectoine synthase"</title>
				<polygon class="PF06339" points="179,40 184,28 188,28 188,52 184,52" stroke-linejoin="round" width="12" height="24" fill="rgb(225,176,81)" stroke="rgb(180,140,64)" stroke-width="1" opacity="0.75" />
			</g>
		</g>
		<g>
			<title> (CDOIENLM_03176)
hypothetical protein</title>
			<polygon class=" (CDOIENLM_03176)
hypothetical protein" points="195,10 218,40 195,70" fill="rgb(255,255,255)" fill-opacity="1.0" stroke="rgb(0,0,0)" stroke-width="2"  />
			<g>
				<title>Toast_rack_N (PF17115)
"N-terminal domain of toast_rack, DUF2154"</title>
				<polygon class="PF17115" points="198,28 205,28 206,30 206,50 205,52 198,52" stroke-linejoin="round" width="8" height="24" fill="rgb(194,78,58)" stroke="rgb(155,62,46)" stroke-width="1" opacity="0.75" />
			</g>
			<g>
				<title>DUF2154 (PF09922)
"Cell wall-active antibiotics response 4TMS YvqF"</title>
				<polygon class="PF09922" points="208,32 214,40 208,48" stroke-linejoin="round" width="9" height="24" fill="rgb(190,73,196)" stroke="rgb(152,58,156)" stroke-width="1" opacity="0.75" />
			</g>
		</g>
		<g>
			<title> (CDOIENLM_03177)
hypothetical protein</title>
			<polygon class=" (CDOIENLM_03177)
hypothetical protein" points="220,40 247,10 247,70" fill="rgb(255,255,255)" fill-opacity="1.0" stroke="rgb(0,0,0)" stroke-width="2"  />
			<g>
				<title>GGDEF (PF00990)
"Diguanylate cyclase, GGDEF domain"</title>
				<polygon class="PF00990" points="224,40 235,28 235,28 235,52 235,52" stroke-linejoin="round" width="15" height="24" fill="rgb(62,170,199)" stroke="rgb(49,135,159)" stroke-width="1" opacity="0.75" />
			</g>
		</g>
		<g>
			<title> (CDOIENLM_03178)
hypothetical protein</title>
			<polygon class=" (CDOIENLM_03178)
hypothetical protein" points="256,40 271,10 271,70" fill="rgb(255,255,255)" fill-opacity="1.0" stroke="rgb(0,0,0)" stroke-width="2"  />
			<g>
				<title>Acetyltransf_1 (PF00583)
"Acetyltransferase (GNAT) family"</title>
				<polygon class="PF00583" points="259,40 265,28 270,28 270,52 265,52" stroke-linejoin="round" width="12" height="24" fill="rgb(121,183,50)" stroke="rgb(96,146,39)" stroke-width="1" opacity="0.75" />
			</g>
		</g>
		<g>
			<title> (CDOIENLM_03179)
hypothetical protein</title>
			<polygon class=" (CDOIENLM_03179)
hypothetical protein" points="272,40 280,10 280,70" fill="rgb(255,255,255)" fill-opacity="1.0" stroke="rgb(0,0,0)" stroke-width="2"  />
		</g>
		<g>
			<title>ykuI (CDOIENLM_03180)
putative EAL-domain containing protein YkuI</title>
			<polygon class="ykuI (CDOIENLM_03180)
putative EAL-domain containing protein YkuI" points="325,25 315,25 315,10 285,40 315,70 315,55 325,55" fill="rgb(255,255,255)" fill-opacity="1.0" stroke="rgb(0,0,0)" stroke-width="2"  />
			<g>
				<title>YkuI_C (PF10388)
"EAL-domain associated signalling protein domain"</title>
				<polygon class="PF10388" points="289,40 301,28 301,28 301,52 301,52" stroke-linejoin="round" width="16" height="24" fill="rgb(56,196,67)" stroke="rgb(44,156,53)" stroke-width="1" opacity="0.75" />
			</g>
			<g>
				<title>EAL (PF00563)
"EAL domain"</title>
				<rect class="PF00563" x="302" y="28" stroke-linejoin="round" width="22" height="24" fill="rgb(204,100,120)" stroke="rgb(163,80,96)" stroke-width="1" opacity="0.75" />
			</g>
		</g>
	</g>
</svg>
