<svg version="1.1" baseProfile="full" xmlns="http://www.w3.org/2000/svg" width="366.43333333333334" height="80">
	<g>
		<line x1="10" y1="40.0" x2="356.43333333333334" y2="40.0" style="stroke:rgb(70,70,70); stroke-width:3 "/>
		<g>
			<title> (CKNNHCHG_02160)
hypothetical protein</title>
			<polygon class=" (CKNNHCHG_02160)
hypothetical protein" points="28,10 40,40 28,70" fill="rgb(255,255,255)" fill-opacity="1.0" stroke="rgb(0,0,0)" stroke-width="2"  />
		</g>
		<g>
			<title> (CKNNHCHG_02161)
hypothetical protein</title>
			<polygon class=" (CKNNHCHG_02161)
hypothetical protein" points="42,10 55,40 42,70" fill="rgb(255,255,255)" fill-opacity="1.0" stroke="rgb(0,0,0)" stroke-width="2"  />
		</g>
		<g>
			<title> (CKNNHCHG_02162)
hypothetical protein</title>
			<polygon class=" (CKNNHCHG_02162)
hypothetical protein" points="67,25 73,25 73,10 103,40 73,70 73,55 67,55" fill="rgb(255,255,255)" fill-opacity="1.0" stroke="rgb(0,0,0)" stroke-width="2"  />
		</g>
		<g>
			<title> (CKNNHCHG_02163)
hypothetical protein</title>
			<polygon class=" (CKNNHCHG_02163)
hypothetical protein" points="108,10 114,40 108,70" fill="rgb(255,255,255)" fill-opacity="1.0" stroke="rgb(0,0,0)" stroke-width="2"  />
		</g>
		<g>
			<title> (CKNNHCHG_02164)
hypothetical protein</title>
			<polygon class=" (CKNNHCHG_02164)
hypothetical protein" points="114,10 123,40 114,70" fill="rgb(255,255,255)" fill-opacity="1.0" stroke="rgb(0,0,0)" stroke-width="2"  />
			<g>
				<title>Acetyltransf_1 (PF00583)
"Acetyltransferase (GNAT) family"</title>
				<polygon class="PF00583" points="114,28 116,28 119,36 119,44 116,52 114,52" stroke-linejoin="round" width="5" height="24" fill="rgb(121,183,50)" stroke="rgb(96,146,39)" stroke-width="1" opacity="0.75" />
			</g>
		</g>
		<g>
			<title> (CKNNHCHG_02165)
hypothetical protein</title>
			<polygon class=" (CKNNHCHG_02165)
hypothetical protein" points="124,10 130,40 124,70" fill="rgb(255,255,255)" fill-opacity="1.0" stroke="rgb(0,0,0)" stroke-width="2"  />
		</g>
		<g>
			<title> (CKNNHCHG_02166)
hypothetical protein</title>
			<polygon class=" (CKNNHCHG_02166)
hypothetical protein" points="134,40 142,10 142,70" fill="rgb(255,255,255)" fill-opacity="1.0" stroke="rgb(0,0,0)" stroke-width="2"  />
		</g>
		<g>
			<title> (CKNNHCHG_02167)
hypothetical protein</title>
			<polygon class=" (CKNNHCHG_02167)
hypothetical protein" points="151,40 168,10 168,70" fill="rgb(255,255,255)" fill-opacity="1.0" stroke="rgb(0,0,0)" stroke-width="2"  />
			<g>
				<title>DUF420 (PF04238)
"Protein of unknown function (DUF420)"</title>
				<polygon class="PF04238" points="154,40 161,28 163,28 163,52 161,52" stroke-linejoin="round" width="12" height="24" fill="rgb(186,65,177)" stroke="rgb(148,52,141)" stroke-width="1" opacity="0.75" />
			</g>
		</g>
		<g>
			<title> (CKNNHCHG_02168)
hypothetical protein</title>
			<polygon class=" (CKNNHCHG_02168)
hypothetical protein" points="171,10 174,40 171,70" fill="rgb(255,255,255)" fill-opacity="1.0" stroke="rgb(0,0,0)" stroke-width="2"  />
		</g>
		<g>
			<title>ectC (CKNNHCHG_02169)
L-ectoine synthase</title>
			<polygon class="ectC (CKNNHCHG_02169)
L-ectoine synthase" points="176,40 189,10 189,70" fill="rgb(255,255,255)" fill-opacity="1.0" stroke="rgb(0,0,0)" stroke-width="2"  />
			<g>
				<title>Ectoine_synth (PF06339)
"Ectoine synthase"</title>
				<polygon class="PF06339" points="179,40 184,28 188,28 188,52 184,52" stroke-linejoin="round" width="12" height="24" fill="rgb(225,176,81)" stroke="rgb(180,140,64)" stroke-width="1" opacity="0.75" />
			</g>
		</g>
		<g>
			<title>ectB (CKNNHCHG_02170)
Diaminobutyrate--2-oxoglutarate transaminase</title>
			<polygon class="ectB (CKNNHCHG_02170)
Diaminobutyrate--2-oxoglutarate transaminase" points="232,25 219,25 219,10 189,40 219,70 219,55 232,55" fill="rgb(255,255,255)" fill-opacity="1.0" stroke="rgb(0,0,0)" stroke-width="2"  />
			<g>
				<title>Aminotran_3 (PF00202)
"Aminotransferase class-III"</title>
				<polygon class="PF00202" points="193,40 205,28 229,28 229,52 205,52" stroke-linejoin="round" width="39" height="24" fill="rgb(49,163,189)" stroke="rgb(39,130,151)" stroke-width="1" opacity="0.75" />
			</g>
		</g>
		<g>
			<title>ectA (CKNNHCHG_02171)
L-2,4-diaminobutyric acid acetyltransferase</title>
			<polygon class="ectA (CKNNHCHG_02171)
L-2,4-diaminobutyric acid acetyltransferase" points="233,40 251,10 251,70" fill="rgb(255,255,255)" fill-opacity="1.0" stroke="rgb(0,0,0)" stroke-width="2"  />
			<g>
				<title>Acetyltransf_1 (PF00583)
"Acetyltransferase (GNAT) family"</title>
				<polygon class="PF00583" points="237,40 244,28 246,28 246,52 244,52" stroke-linejoin="round" width="10" height="24" fill="rgb(121,183,50)" stroke="rgb(96,146,39)" stroke-width="1" opacity="0.75" />
			</g>
		</g>
		<g>
			<title> (CKNNHCHG_02172)
hypothetical protein</title>
			<polygon class=" (CKNNHCHG_02172)
hypothetical protein" points="261,10 272,40 261,70" fill="rgb(255,255,255)" fill-opacity="1.0" stroke="rgb(0,0,0)" stroke-width="2"  />
		</g>
		<g>
			<title>mccF (CKNNHCHG_02173)
Microcin C7 self-immunity protein MccF</title>
			<polygon class="mccF (CKNNHCHG_02173)
Microcin C7 self-immunity protein MccF" points="287,25 287,25 287,10 317,40 287,70 287,55 287,55" fill="rgb(255,255,255)" fill-opacity="1.0" stroke="rgb(0,0,0)" stroke-width="2"  />
			<g>
				<title>Peptidase_S66 (PF02016)
"LD-carboxypeptidase N-terminal domain"</title>
				<rect class="PF02016" x="287" y="28" stroke-linejoin="round" width="10" height="24" fill="rgb(187,63,139)" stroke="rgb(149,50,111)" stroke-width="1" opacity="0.75" />
			</g>
			<g>
				<title>Peptidase_S66C (PF17676)
"LD-carboxypeptidase C-terminal domain"</title>
				<polygon class="PF17676" points="304,31 313,40 304,49" stroke-linejoin="round" width="12" height="24" fill="rgb(72,81,192)" stroke="rgb(57,64,153)" stroke-width="1" opacity="0.75" />
			</g>
		</g>
		<g>
			<title> (CKNNHCHG_02174)
hypothetical protein</title>
			<polygon class=" (CKNNHCHG_02174)
hypothetical protein" points="323,40 340,10 340,70" fill="rgb(255,255,255)" fill-opacity="1.0" stroke="rgb(0,0,0)" stroke-width="2"  />
		</g>
	</g>
</svg>
