<svg version="1.1" baseProfile="full" xmlns="http://www.w3.org/2000/svg" width="749.3666666666667" height="80">
	<g>
		<line x1="10" y1="40.0" x2="739.3666666666667" y2="40.0" style="stroke:rgb(70,70,70); stroke-width:3 "/>
		<g>
			<title>ydfJ (FLEGEENC_00626)
Membrane protein YdfJ</title>
			<polygon class="ydfJ (FLEGEENC_00626)
Membrane protein YdfJ" points="32,25 68,25 68,10 98,40 68,70 68,55 32,55" fill="rgb(255,255,255)" fill-opacity="1.0" stroke="rgb(0,0,0)" stroke-width="2"  />
			<g>
				<title>MMPL (PF03176)
"MMPL family"</title>
				<rect class="PF03176" x="33" y="28" stroke-linejoin="round" width="30" height="24" fill="rgb(228,109,193)" stroke="rgb(182,87,154)" stroke-width="1" opacity="0.75" />
			</g>
			<g>
				<title>MMPL (PF03176)
"MMPL family"</title>
				<polygon class="PF03176" points="67,28 81,28 93,40 81,52 67,52" stroke-linejoin="round" width="30" height="24" fill="rgb(228,109,193)" stroke="rgb(182,87,154)" stroke-width="1" opacity="0.75" />
			</g>
		</g>
		<g>
			<title>smc_1 (FLEGEENC_00627)
Chromosome partition protein Smc</title>
			<polygon class="smc_1 (FLEGEENC_00627)
Chromosome partition protein Smc" points="98,25 128,25 128,10 158,40 128,70 128,55 98,55" fill="rgb(255,255,255)" fill-opacity="1.0" stroke="rgb(0,0,0)" stroke-width="2"  />
		</g>
		<g>
			<title>nfo_1 (FLEGEENC_00628)
putative endonuclease 4</title>
			<polygon class="nfo_1 (FLEGEENC_00628)
putative endonuclease 4" points="164,10 192,40 164,70" fill="rgb(255,255,255)" fill-opacity="1.0" stroke="rgb(0,0,0)" stroke-width="2"  />
			<g>
				<title>AP_endonuc_2 (PF01261)
"Xylose isomerase-like TIM barrel"</title>
				<polygon class="PF01261" points="165,28 176,28 186,38 186,42 176,52 165,52" stroke-linejoin="round" width="21" height="24" fill="rgb(69,222,207)" stroke="rgb(55,177,165)" stroke-width="1" opacity="0.75" />
			</g>
		</g>
		<g>
			<title>fda (FLEGEENC_00629)
Fructose-bisphosphate aldolase class 1</title>
			<polygon class="fda (FLEGEENC_00629)
Fructose-bisphosphate aldolase class 1" points="193,40 222,10 222,70" fill="rgb(255,255,255)" fill-opacity="1.0" stroke="rgb(0,0,0)" stroke-width="2"  />
			<g>
				<title>Glycolytic (PF00274)
"Fructose-bisphosphate aldolase class-I"</title>
				<polygon class="PF00274" points="200,37 209,28 221,28 221,52 209,52 200,43" stroke-linejoin="round" width="21" height="24" fill="rgb(79,181,68)" stroke="rgb(63,144,54)" stroke-width="1" opacity="0.75" />
			</g>
		</g>
		<g>
			<title>dkgB (FLEGEENC_00630)
2,5-diketo-D-gluconic acid reductase B</title>
			<polygon class="dkgB (FLEGEENC_00630)
2,5-diketo-D-gluconic acid reductase B" points="233,10 261,40 233,70" fill="rgb(255,255,255)" fill-opacity="1.0" stroke="rgb(0,0,0)" stroke-width="2"  />
			<g>
				<title>Aldo_ket_red (PF00248)
"Aldo/keto reductase family"</title>
				<polygon class="PF00248" points="234,28 245,28 256,40 245,52 234,52" stroke-linejoin="round" width="24" height="24" fill="rgb(225,205,58)" stroke="rgb(180,164,46)" stroke-width="1" opacity="0.75" />
			</g>
		</g>
		<g>
			<title> (FLEGEENC_00631)
hypothetical protein</title>
			<polygon class=" (FLEGEENC_00631)
hypothetical protein" points="274,40 282,10 282,70" fill="rgb(255,255,255)" fill-opacity="1.0" stroke="rgb(0,0,0)" stroke-width="2"  />
		</g>
		<g>
			<title>yhfK_1 (FLEGEENC_00632)
putative sugar epimerase YhfK</title>
			<polygon class="yhfK_1 (FLEGEENC_00632)
putative sugar epimerase YhfK" points="287,10 308,40 287,70" fill="rgb(255,255,255)" fill-opacity="1.0" stroke="rgb(0,0,0)" stroke-width="2"  />
			<g>
				<title>NAD_binding_10 (PF13460)
"NAD(P)H-binding"</title>
				<polygon class="PF13460" points="287,28 296,28 304,40 296,52 287,52" stroke-linejoin="round" width="18" height="24" fill="rgb(188,201,78)" stroke="rgb(150,160,62)" stroke-width="1" opacity="0.75" />
			</g>
		</g>
		<g>
			<title> (FLEGEENC_00633)
hypothetical protein</title>
			<polygon class=" (FLEGEENC_00633)
hypothetical protein" points="320,10 338,40 320,70" fill="rgb(255,255,255)" fill-opacity="1.0" stroke="rgb(0,0,0)" stroke-width="2"  />
		</g>
		<g>
			<title>sqhC (FLEGEENC_00634)
Sporulenol synthase</title>
			<polygon class="sqhC (FLEGEENC_00634)
Sporulenol synthase" points="405,25 373,25 373,10 343,40 373,70 373,55 405,55" fill="rgb(255,255,255)" fill-opacity="1.0" stroke="rgb(0,0,0)" stroke-width="2"  />
			<g>
				<title>SQHop_cyclase_C (PF13243)
"Squalene-hopene cyclase C-terminal domain"</title>
				<polygon class="PF13243" points="347,40 359,28 374,28 374,52 359,52" stroke-linejoin="round" width="31" height="24" fill="rgb(191,58,201)" stroke="rgb(152,46,160)" stroke-width="1" opacity="0.75" />
			</g>
			<g>
				<title>SQHop_cyclase_N (PF13249)
"Squalene-hopene cyclase N-terminal domain"</title>
				<rect class="PF13249" x="376" y="28" stroke-linejoin="round" width="28" height="24" fill="rgb(88,190,89)" stroke="rgb(70,152,71)" stroke-width="1" opacity="0.75" />
			</g>
		</g>
		<g>
			<title>dcuS (FLEGEENC_00635)
Sensor histidine kinase DcuS</title>
			<polygon class="dcuS (FLEGEENC_00635)
Sensor histidine kinase DcuS" points="416,25 439,25 439,10 469,40 439,70 439,55 416,55" fill="rgb(255,255,255)" fill-opacity="1.0" stroke="rgb(0,0,0)" stroke-width="2"  />
			<g>
				<title>sCache_3_2 (PF17203)
"Single cache domain 3"</title>
				<rect class="PF17203" x="419" y="28" stroke-linejoin="round" width="13" height="24" fill="rgb(209,153,67)" stroke="rgb(167,122,53)" stroke-width="1" opacity="0.75" />
			</g>
			<g>
				<title>PAS (PF00989)
"PAS fold"</title>
				<rect class="PF00989" x="437" y="28" stroke-linejoin="round" width="10" height="24" fill="rgb(205,221,64)" stroke="rgb(164,176,51)" stroke-width="1" opacity="0.75" />
			</g>
			<g>
				<title>SPOB_a (PF14689)
"Sensor_kinase_SpoOB-type, alpha-helical domain"</title>
				<polygon class="PF14689" points="448,28 453,28 454,29 454,51 453,52 448,52" stroke-linejoin="round" width="6" height="24" fill="rgb(215,217,87)" stroke="rgb(172,173,69)" stroke-width="1" opacity="0.75" />
			</g>
			<g>
				<title>HATPase_c (PF02518)
"Histidine kinase-, DNA gyrase B-, and HSP90-like ATPase"</title>
				<polygon class="PF02518" points="458,33 465,40 458,47" stroke-linejoin="round" width="10" height="24" fill="rgb(80,94,225)" stroke="rgb(64,75,180)" stroke-width="1" opacity="0.75" />
			</g>
		</g>
		<g>
			<title>dcuR (FLEGEENC_00636)
Transcriptional regulatory protein DcuR</title>
			<polygon class="dcuR (FLEGEENC_00636)
Transcriptional regulatory protein DcuR" points="470,10 493,40 470,70" fill="rgb(255,255,255)" fill-opacity="1.0" stroke="rgb(0,0,0)" stroke-width="2"  />
			<g>
				<title>Response_reg (PF00072)
"Response regulator receiver domain"</title>
				<polygon class="PF00072" points="470,28 480,28 481,29 481,51 480,52 470,52" stroke-linejoin="round" width="11" height="24" fill="rgb(100,107,203)" stroke="rgb(80,85,162)" stroke-width="1" opacity="0.75" />
			</g>
			<g>
				<title>HTH_11 (PF08279)
"HTH domain"</title>
				<polygon class="PF08279" points="486,36 489,40 486,44" stroke-linejoin="round" width="5" height="24" fill="rgb(188,106,60)" stroke="rgb(150,84,48)" stroke-width="1" opacity="0.75" />
			</g>
		</g>
		<g>
			<title>golD (FLEGEENC_00637)
NAD-dependent glycerol dehydrogenase</title>
			<polygon class="golD (FLEGEENC_00637)
NAD-dependent glycerol dehydrogenase" points="495,40 520,10 520,70" fill="rgb(255,255,255)" fill-opacity="1.0" stroke="rgb(0,0,0)" stroke-width="2"  />
			<g>
				<title>adh_short_C2 (PF13561)
"Enoyl-(Acyl carrier protein) reductase"</title>
				<polygon class="PF13561" points="499,40 509,28 518,28 518,52 509,52" stroke-linejoin="round" width="23" height="24" fill="rgb(73,205,127)" stroke="rgb(58,164,101)" stroke-width="1" opacity="0.75" />
			</g>
		</g>
		<g>
			<title>ydjF_1 (FLEGEENC_00638)
putative HTH-type transcriptional regulator YdjF</title>
			<polygon class="ydjF_1 (FLEGEENC_00638)
putative HTH-type transcriptional regulator YdjF" points="522,40 548,10 548,70" fill="rgb(255,255,255)" fill-opacity="1.0" stroke="rgb(0,0,0)" stroke-width="2"  />
			<g>
				<title>DeoRC (PF00455)
"DeoR C terminal sensor domain"</title>
				<polygon class="PF00455" points="526,40 536,28 540,28 540,52 536,52" stroke-linejoin="round" width="16" height="24" fill="rgb(183,143,83)" stroke="rgb(146,114,66)" stroke-width="1" opacity="0.75" />
			</g>
			<g>
				<title>HTH_DeoR (PF08220)
"DeoR-like helix-turn-helix domain"</title>
				<rect class="PF08220" x="541" y="28" stroke-linejoin="round" width="5" height="24" fill="rgb(194,214,67)" stroke="rgb(155,171,53)" stroke-width="1" opacity="0.75" />
			</g>
		</g>
		<g>
			<title>eltD (FLEGEENC_00639)
Erythritol/L-threitol dehydrogenase</title>
			<polygon class="eltD (FLEGEENC_00639)
Erythritol/L-threitol dehydrogenase" points="557,25 563,25 563,10 593,40 563,70 563,55 557,55" fill="rgb(255,255,255)" fill-opacity="1.0" stroke="rgb(0,0,0)" stroke-width="2"  />
			<g>
				<title>ADH_N (PF08240)
"Alcohol dehydrogenase GroES-like domain"</title>
				<rect class="PF08240" x="561" y="28" stroke-linejoin="round" width="11" height="24" fill="rgb(211,65,138)" stroke="rgb(168,51,110)" stroke-width="1" opacity="0.75" />
			</g>
			<g>
				<title>ADH_zinc_N (PF00107)
"Zinc-binding dehydrogenase"</title>
				<polygon class="PF00107" points="577,28 577,28 589,40 589,40 577,52 577,52" stroke-linejoin="round" width="12" height="24" fill="rgb(81,108,215)" stroke="rgb(64,86,172)" stroke-width="1" opacity="0.75" />
			</g>
		</g>
		<g>
			<title>yoaB (FLEGEENC_00640)
Putative transporter YoaB</title>
			<polygon class="yoaB (FLEGEENC_00640)
Putative transporter YoaB" points="595,25 608,25 608,10 638,40 608,70 608,55 595,55" fill="rgb(255,255,255)" fill-opacity="1.0" stroke="rgb(0,0,0)" stroke-width="2"  />
			<g>
				<title>MFS_1 (PF07690)
"Major Facilitator Superfamily"</title>
				<rect class="PF07690" x="596" y="28" stroke-linejoin="round" width="25" height="24" fill="rgb(193,224,74)" stroke="rgb(154,179,59)" stroke-width="1" opacity="0.75" />
			</g>
		</g>
		<g>
			<title>dhaK-2 (FLEGEENC_00641)
PTS-dependent dihydroxyacetone kinase 2, dihydroxyacetone-binding subunit DhaK</title>
			<polygon class="dhaK-2 (FLEGEENC_00641)
PTS-dependent dihydroxyacetone kinase 2, dihydroxyacetone-binding subunit DhaK" points="641,25 644,25 644,10 674,40 644,70 644,55 641,55" fill="rgb(255,255,255)" fill-opacity="1.0" stroke="rgb(0,0,0)" stroke-width="2"  />
			<g>
				<title>Dak1 (PF02733)
"Dak1 domain"</title>
				<polygon class="PF02733" points="642,28 658,28 670,40 658,52 642,52" stroke-linejoin="round" width="31" height="24" fill="rgb(110,103,210)" stroke="rgb(88,82,168)" stroke-width="1" opacity="0.75" />
			</g>
		</g>
		<g>
			<title>dhaL-2 (FLEGEENC_00642)
PEP-dependent dihydroxyacetone kinase 2, ADP-binding subunit DhaL</title>
			<polygon class="dhaL-2 (FLEGEENC_00642)
PEP-dependent dihydroxyacetone kinase 2, ADP-binding subunit DhaL" points="675,10 696,40 675,70" fill="rgb(255,255,255)" fill-opacity="1.0" stroke="rgb(0,0,0)" stroke-width="2"  />
			<g>
				<title>Dak2 (PF02734)
"DAK2 domain"</title>
				<polygon class="PF02734" points="678,28 684,28 693,40 684,52 678,52" stroke-linejoin="round" width="17" height="24" fill="rgb(107,200,62)" stroke="rgb(85,160,49)" stroke-width="1" opacity="0.75" />
			</g>
		</g>
		<g>
			<title>ywlF_1 (FLEGEENC_00643)
Putative sugar phosphate isomerase YwlF</title>
			<polygon class="ywlF_1 (FLEGEENC_00643)
Putative sugar phosphate isomerase YwlF" points="704,10 720,40 704,70" fill="rgb(255,255,255)" fill-opacity="1.0" stroke="rgb(0,0,0)" stroke-width="2"  />
			<g>
				<title>LacAB_rpiB (PF02502)
"Ribose/Galactose Isomerase"</title>
				<polygon class="PF02502" points="704,28 710,28 716,40 710,52 704,52" stroke-linejoin="round" width="13" height="24" fill="rgb(93,178,74)" stroke="rgb(74,142,59)" stroke-width="1" opacity="0.75" />
			</g>
		</g>
	</g>
</svg>
