<svg version="1.1" baseProfile="full" xmlns="http://www.w3.org/2000/svg" width="893.6" height="80">
	<g>
		<line x1="10" y1="40.0" x2="883.6" y2="40.0" style="stroke:rgb(70,70,70); stroke-width:3 "/>
		<g>
			<title> (LFBLBBEA_03994)
hypothetical protein</title>
			<polygon class=" (LFBLBBEA_03994)
hypothetical protein" points="25,40 50,10 50,70" fill="rgb(255,255,255)" fill-opacity="1.0" stroke="rgb(0,0,0)" stroke-width="2"  />
		</g>
		<g>
			<title> (LFBLBBEA_03995)
hypothetical protein</title>
			<polygon class=" (LFBLBBEA_03995)
hypothetical protein" points="50,40 73,10 73,70" fill="rgb(255,255,255)" fill-opacity="1.0" stroke="rgb(0,0,0)" stroke-width="2"  />
		</g>
		<g>
			<title>tgnD (LFBLBBEA_03996)
(E)-2-((N-methylformamido)methylene)succinate hydrolase</title>
			<polygon class="tgnD (LFBLBBEA_03996)
(E)-2-((N-methylformamido)methylene)succinate hydrolase" points="83,10 109,40 83,70" fill="rgb(255,255,255)" fill-opacity="1.0" stroke="rgb(0,0,0)" stroke-width="2"  />
			<g>
				<title>Abhydrolase_1 (PF00561)
"alpha/beta hydrolase fold"</title>
				<polygon class="PF00561" points="84,28 94,28 96,30 96,50 94,52 84,52" stroke-linejoin="round" width="12" height="24" fill="rgb(86,180,151)" stroke="rgb(68,144,120)" stroke-width="1" opacity="0.75" />
			</g>
		</g>
		<g>
			<title>hldD (LFBLBBEA_03997)
ADP-L-glycero-D-manno-heptose-6-epimerase</title>
			<polygon class="hldD (LFBLBBEA_03997)
ADP-L-glycero-D-manno-heptose-6-epimerase" points="111,25 116,25 116,10 146,40 116,70 116,55 111,55" fill="rgb(255,255,255)" fill-opacity="1.0" stroke="rgb(0,0,0)" stroke-width="2"  />
			<g>
				<title>NAD_binding_4 (PF07993)
"Male sterility protein"</title>
				<polygon class="PF07993" points="111,28 130,28 134,32 134,48 130,52 111,52" stroke-linejoin="round" width="23" height="24" fill="rgb(100,212,204)" stroke="rgb(80,169,163)" stroke-width="1" opacity="0.75" />
			</g>
		</g>
		<g>
			<title> (LFBLBBEA_03998)
hypothetical protein</title>
			<polygon class=" (LFBLBBEA_03998)
hypothetical protein" points="186,25 177,25 177,10 147,40 177,70 177,55 186,55" fill="rgb(255,255,255)" fill-opacity="1.0" stroke="rgb(0,0,0)" stroke-width="2"  />
			<g>
				<title>MFS_1 (PF07690)
"Major Facilitator Superfamily"</title>
				<polygon class="PF07690" points="151,40 163,28 184,28 184,52 163,52 151,40" stroke-linejoin="round" width="33" height="24" fill="rgb(193,224,74)" stroke="rgb(154,179,59)" stroke-width="1" opacity="0.75" />
			</g>
		</g>
		<g>
			<title> (LFBLBBEA_03999)
hypothetical protein</title>
			<polygon class=" (LFBLBBEA_03999)
hypothetical protein" points="211,40 232,10 232,70" fill="rgb(255,255,255)" fill-opacity="1.0" stroke="rgb(0,0,0)" stroke-width="2"  />
		</g>
		<g>
			<title>cpdA_2 (LFBLBBEA_04000)
3',5'-cyclic adenosine monophosphate phosphodiesterase CpdA</title>
			<polygon class="cpdA_2 (LFBLBBEA_04000)
3',5'-cyclic adenosine monophosphate phosphodiesterase CpdA" points="231,40 243,10 243,70" fill="rgb(255,255,255)" fill-opacity="1.0" stroke="rgb(0,0,0)" stroke-width="2"  />
		</g>
		<g>
			<title>btuD_4 (LFBLBBEA_04001)
Vitamin B12 import ATP-binding protein BtuD</title>
			<polygon class="btuD_4 (LFBLBBEA_04001)
Vitamin B12 import ATP-binding protein BtuD" points="303,25 274,25 274,10 244,40 274,70 274,55 303,55" fill="rgb(255,255,255)" fill-opacity="1.0" stroke="rgb(0,0,0)" stroke-width="2"  />
			<g>
				<title>ABC_tran (PF00005)
"ABC transporter"</title>
				<polygon class="PF00005" points="251,37 260,28 265,28 265,52 260,52 251,43" stroke-linejoin="round" width="14" height="24" fill="rgb(129,201,63)" stroke="rgb(103,160,50)" stroke-width="1" opacity="0.75" />
			</g>
			<g>
				<title>ABC_membrane (PF00664)
"ABC transporter transmembrane region"</title>
				<rect class="PF00664" x="273" y="28" stroke-linejoin="round" width="27" height="24" fill="rgb(149,226,73)" stroke="rgb(119,180,58)" stroke-width="1" opacity="0.75" />
			</g>
		</g>
		<g>
			<title> (LFBLBBEA_04002)
hypothetical protein</title>
			<polygon class=" (LFBLBBEA_04002)
hypothetical protein" points="344,25 335,25 335,10 305,40 335,70 335,55 344,55" fill="rgb(255,255,255)" fill-opacity="1.0" stroke="rgb(0,0,0)" stroke-width="2"  />
			<g>
				<title>NTP_transf_5 (PF14907)
"Uncharacterised nucleotidyltransferase"</title>
				<polygon class="PF14907" points="315,34 321,28 339,28 339,52 321,52 315,46" stroke-linejoin="round" width="24" height="24" fill="rgb(191,137,74)" stroke="rgb(152,109,59)" stroke-width="1" opacity="0.75" />
			</g>
		</g>
		<g>
			<title> (LFBLBBEA_04003)
hypothetical protein</title>
			<polygon class=" (LFBLBBEA_04003)
hypothetical protein" points="343,40 358,10 358,70" fill="rgb(255,255,255)" fill-opacity="1.0" stroke="rgb(0,0,0)" stroke-width="2"  />
			<g>
				<title>Transglut_core3 (PF13471)
"Transglutaminase-like superfamily"</title>
				<polygon class="PF13471" points="346,40 352,28 355,28 355,52 352,52" stroke-linejoin="round" width="11" height="24" fill="rgb(63,111,179)" stroke="rgb(50,88,143)" stroke-width="1" opacity="0.75" />
			</g>
		</g>
		<g>
			<title> (LFBLBBEA_04004)
hypothetical protein</title>
			<polygon class=" (LFBLBBEA_04004)
hypothetical protein" points="360,40 369,10 369,70" fill="rgb(255,255,255)" fill-opacity="1.0" stroke="rgb(0,0,0)" stroke-width="2"  />
		</g>
		<g>
			<title> (LFBLBBEA_04005)
hypothetical protein</title>
			<polygon class=" (LFBLBBEA_04005)
hypothetical protein" points="400,25 398,25 398,10 368,40 398,70 398,55 400,55" fill="rgb(255,255,255)" fill-opacity="1.0" stroke="rgb(0,0,0)" stroke-width="2"  />
			<g>
				<title>Hpr_kinase_C (PF07475)
"HPr Serine kinase C-terminal domain"</title>
				<polygon class="PF07475" points="382,30 384,28 388,28 388,52 384,52 382,50" stroke-linejoin="round" width="6" height="24" fill="rgb(92,54,205)" stroke="rgb(73,43,164)" stroke-width="1" opacity="0.75" />
			</g>
		</g>
		<g>
			<title> (LFBLBBEA_04006)
hypothetical protein</title>
			<polygon class=" (LFBLBBEA_04006)
hypothetical protein" points="402,40 407,10 407,70" fill="rgb(255,255,255)" fill-opacity="1.0" stroke="rgb(0,0,0)" stroke-width="2"  />
		</g>
		<g>
			<title>asnO_2 (LFBLBBEA_04007)
Asparagine synthetase [glutamine-hydrolyzing] 3</title>
			<polygon class="asnO_2 (LFBLBBEA_04007)
Asparagine synthetase [glutamine-hydrolyzing] 3" points="472,25 437,25 437,10 407,40 437,70 437,55 472,55" fill="rgb(255,255,255)" fill-opacity="1.0" stroke="rgb(0,0,0)" stroke-width="2"  />
			<g>
				<title>Asn_synthase (PF00733)
"Asparagine synthase"</title>
				<polygon class="PF00733" points="415,36 423,28 447,28 447,52 423,52 415,44" stroke-linejoin="round" width="32" height="24" fill="rgb(97,201,176)" stroke="rgb(77,160,140)" stroke-width="1" opacity="0.75" />
			</g>
			<g>
				<title>GATase_7 (PF13537)
"Glutamine amidotransferase domain"</title>
				<rect class="PF13537" x="455" y="28" stroke-linejoin="round" width="11" height="24" fill="rgb(200,63,57)" stroke="rgb(160,50,45)" stroke-width="1" opacity="0.75" />
			</g>
		</g>
		<g>
			<title> (LFBLBBEA_04008)
hypothetical protein</title>
			<polygon class=" (LFBLBBEA_04008)
hypothetical protein" points="477,40 481,10 481,70" fill="rgb(255,255,255)" fill-opacity="1.0" stroke="rgb(0,0,0)" stroke-width="2"  />
		</g>
		<g>
			<title>asnO_3 (LFBLBBEA_04009)
Asparagine synthetase [glutamine-hydrolyzing] 3</title>
			<polygon class="asnO_3 (LFBLBBEA_04009)
Asparagine synthetase [glutamine-hydrolyzing] 3" points="549,25 511,25 511,10 481,40 511,70 511,55 549,55" fill="rgb(255,255,255)" fill-opacity="1.0" stroke="rgb(0,0,0)" stroke-width="2"  />
			<g>
				<title>Asn_synthase (PF00733)
"Asparagine synthase"</title>
				<polygon class="PF00733" points="485,40 497,28 521,28 521,52 497,52 485,40" stroke-linejoin="round" width="36" height="24" fill="rgb(97,201,176)" stroke="rgb(77,160,140)" stroke-width="1" opacity="0.75" />
			</g>
			<g>
				<title>GATase_7 (PF13537)
"Glutamine amidotransferase domain"</title>
				<rect class="PF13537" x="529" y="28" stroke-linejoin="round" width="11" height="24" fill="rgb(200,63,57)" stroke="rgb(160,50,45)" stroke-width="1" opacity="0.75" />
			</g>
		</g>
		<g>
			<title> (LFBLBBEA_04010)
hypothetical protein</title>
			<polygon class=" (LFBLBBEA_04010)
hypothetical protein" points="555,40 584,10 584,70" fill="rgb(255,255,255)" fill-opacity="1.0" stroke="rgb(0,0,0)" stroke-width="2"  />
		</g>
		<g>
			<title> (LFBLBBEA_04011)
hypothetical protein</title>
			<polygon class=" (LFBLBBEA_04011)
hypothetical protein" points="641,25 613,25 613,10 583,40 613,70 613,55 641,55" fill="rgb(255,255,255)" fill-opacity="1.0" stroke="rgb(0,0,0)" stroke-width="2"  />
		</g>
		<g>
			<title> (LFBLBBEA_04012)
hypothetical protein</title>
			<polygon class=" (LFBLBBEA_04012)
hypothetical protein" points="672,25 672,25 672,10 642,40 672,70 672,55 672,55" fill="rgb(255,255,255)" fill-opacity="1.0" stroke="rgb(0,0,0)" stroke-width="2"  />
			<g>
				<title>fn3 (PF00041)
"Fibronectin type III domain"</title>
				<polygon class="PF00041" points="658,28 658,28 665,28 665,52 658,52 658,52" stroke-linejoin="round" width="7" height="24" fill="rgb(203,70,135)" stroke="rgb(162,56,107)" stroke-width="1" opacity="0.75" />
			</g>
		</g>
		<g>
			<title> (LFBLBBEA_04013)
hypothetical protein</title>
			<polygon class=" (LFBLBBEA_04013)
hypothetical protein" points="721,25 711,25 711,10 681,40 711,70 711,55 721,55" fill="rgb(255,255,255)" fill-opacity="1.0" stroke="rgb(0,0,0)" stroke-width="2"  />
		</g>
		<g>
			<title>pglK (LFBLBBEA_04014)
Protein glycosylation K</title>
			<polygon class="pglK (LFBLBBEA_04014)
Protein glycosylation K" points="781,25 752,25 752,10 722,40 752,70 752,55 781,55" fill="rgb(255,255,255)" fill-opacity="1.0" stroke="rgb(0,0,0)" stroke-width="2"  />
			<g>
				<title>ABC_tran (PF00005)
"ABC transporter"</title>
				<polygon class="PF00005" points="728,38 738,28 743,28 743,52 738,52 728,42" stroke-linejoin="round" width="15" height="24" fill="rgb(129,201,63)" stroke="rgb(103,160,50)" stroke-width="1" opacity="0.75" />
			</g>
			<g>
				<title>ABC_membrane (PF00664)
"ABC transporter transmembrane region"</title>
				<rect class="PF00664" x="751" y="28" stroke-linejoin="round" width="24" height="24" fill="rgb(149,226,73)" stroke="rgb(119,180,58)" stroke-width="1" opacity="0.75" />
			</g>
		</g>
		<g>
			<title>arnC_2 (LFBLBBEA_04015)
Undecaprenyl-phosphate 4-deoxy-4-formamido-L-arabinose transferase</title>
			<polygon class="arnC_2 (LFBLBBEA_04015)
Undecaprenyl-phosphate 4-deoxy-4-formamido-L-arabinose transferase" points="816,25 812,25 812,10 782,40 812,70 812,55 816,55" fill="rgb(255,255,255)" fill-opacity="1.0" stroke="rgb(0,0,0)" stroke-width="2"  />
			<g>
				<title>Glycos_transf_2 (PF00535)
"Glycosyl transferase family 2"</title>
				<polygon class="PF00535" points="798,28 798,28 815,28 815,52 798,52 798,52" stroke-linejoin="round" width="17" height="24" fill="rgb(224,122,96)" stroke="rgb(179,97,76)" stroke-width="1" opacity="0.75" />
			</g>
		</g>
		<g>
			<title> (LFBLBBEA_04016)
hypothetical protein</title>
			<polygon class=" (LFBLBBEA_04016)
hypothetical protein" points="854,25 847,25 847,10 817,40 847,70 847,55 854,55" fill="rgb(255,255,255)" fill-opacity="1.0" stroke="rgb(0,0,0)" stroke-width="2"  />
			<g>
				<title>PS_pyruv_trans (PF04230)
"Polysaccharide pyruvyl transferase"</title>
				<polygon class="PF04230" points="824,37 833,28 853,28 853,52 833,52 824,43" stroke-linejoin="round" width="29" height="24" fill="rgb(211,93,213)" stroke="rgb(168,74,170)" stroke-width="1" opacity="0.75" />
			</g>
		</g>
	</g>
</svg>
