<svg version="1.1" baseProfile="full" xmlns="http://www.w3.org/2000/svg" width="747.8666666666667" height="80">
	<g>
		<line x1="10" y1="40.0" x2="737.8666666666667" y2="40.0" style="stroke:rgb(70,70,70); stroke-width:3 "/>
		<g>
			<title> (IBGHNMIF_00539)
hypothetical protein</title>
			<polygon class=" (IBGHNMIF_00539)
hypothetical protein" points="31,40 46,10 46,70" fill="rgb(255,255,255)" fill-opacity="1.0" stroke="rgb(0,0,0)" stroke-width="2"  />
			<g>
				<title>Cass2 (PF14526)
"Integron-associated effector binding protein"</title>
				<polygon class="PF14526" points="34,40 40,28 46,28 46,52 40,52" stroke-linejoin="round" width="15" height="24" fill="rgb(57,73,185)" stroke="rgb(45,58,148)" stroke-width="1" opacity="0.75" />
			</g>
		</g>
		<g>
			<title> (IBGHNMIF_00540)
hypothetical protein</title>
			<polygon class=" (IBGHNMIF_00540)
hypothetical protein" points="98,25 81,25 81,10 51,40 81,70 81,55 98,55" fill="rgb(255,255,255)" fill-opacity="1.0" stroke="rgb(0,0,0)" stroke-width="2"  />
			<g>
				<title>Glyco_tranf_2_3 (PF13641)
"Glycosyltransferase like family 2"</title>
				<polygon class="PF13641" points="65,30 67,28 91,28 91,52 67,52 65,50" stroke-linejoin="round" width="26" height="24" fill="rgb(140,74,190)" stroke="rgb(111,59,152)" stroke-width="1" opacity="0.75" />
			</g>
		</g>
		<g>
			<title> (IBGHNMIF_00541)
hypothetical protein</title>
			<polygon class=" (IBGHNMIF_00541)
hypothetical protein" points="133,25 128,25 128,10 98,40 128,70 128,55 133,55" fill="rgb(255,255,255)" fill-opacity="1.0" stroke="rgb(0,0,0)" stroke-width="2"  />
		</g>
		<g>
			<title> (IBGHNMIF_00542)
hypothetical protein</title>
			<polygon class=" (IBGHNMIF_00542)
hypothetical protein" points="139,40 168,10 168,70" fill="rgb(255,255,255)" fill-opacity="1.0" stroke="rgb(0,0,0)" stroke-width="2"  />
			<g>
				<title>Cupin_2 (PF07883)
"Cupin domain"</title>
				<polygon class="PF07883" points="143,40 148,35 148,45" stroke-linejoin="round" width="7" height="24" fill="rgb(211,192,74)" stroke="rgb(168,153,59)" stroke-width="1" opacity="0.75" />
			</g>
		</g>
		<g>
			<title> (IBGHNMIF_00543)
hypothetical protein</title>
			<polygon class=" (IBGHNMIF_00543)
hypothetical protein" points="171,40 186,10 186,70" fill="rgb(255,255,255)" fill-opacity="1.0" stroke="rgb(0,0,0)" stroke-width="2"  />
			<g>
				<title>Polyketide_cyc2 (PF10604)
"Polyketide cyclase / dehydrase and lipid transport"</title>
				<polygon class="PF10604" points="174,40 180,28 185,28 185,52 180,52" stroke-linejoin="round" width="14" height="24" fill="rgb(105,204,74)" stroke="rgb(84,163,59)" stroke-width="1" opacity="0.75" />
			</g>
		</g>
		<g>
			<title>bmrR (IBGHNMIF_00544)
Multidrug-efflux transporter 1 regulator</title>
			<polygon class="bmrR (IBGHNMIF_00544)
Multidrug-efflux transporter 1 regulator" points="187,40 198,10 198,70" fill="rgb(255,255,255)" fill-opacity="1.0" stroke="rgb(0,0,0)" stroke-width="2"  />
			<g>
				<title>MerR_1 (PF13411)
"MerR HTH family regulatory protein"</title>
				<polygon class="PF13411" points="191,37 195,28 198,28 198,52 195,52 191,43" stroke-linejoin="round" width="7" height="24" fill="rgb(100,202,107)" stroke="rgb(80,161,85)" stroke-width="1" opacity="0.75" />
			</g>
		</g>
		<g>
			<title> (IBGHNMIF_00545)
hypothetical protein</title>
			<polygon class=" (IBGHNMIF_00545)
hypothetical protein" points="200,40 215,10 215,70" fill="rgb(255,255,255)" fill-opacity="1.0" stroke="rgb(0,0,0)" stroke-width="2"  />
			<g>
				<title>Cass2 (PF14526)
"Integron-associated effector binding protein"</title>
				<polygon class="PF14526" points="203,40 209,28 214,28 214,52 209,52" stroke-linejoin="round" width="14" height="24" fill="rgb(57,73,185)" stroke="rgb(45,58,148)" stroke-width="1" opacity="0.75" />
			</g>
		</g>
		<g>
			<title> (IBGHNMIF_00546)
hypothetical protein</title>
			<polygon class=" (IBGHNMIF_00546)
hypothetical protein" points="217,10 229,40 217,70" fill="rgb(255,255,255)" fill-opacity="1.0" stroke="rgb(0,0,0)" stroke-width="2"  />
			<g>
				<title>Glyoxalase (PF00903)
"Glyoxalase/Bleomycin resistance protein/Dioxygenase superfamily"</title>
				<polygon class="PF00903" points="217,28 220,28 225,40 220,52 217,52" stroke-linejoin="round" width="10" height="24" fill="rgb(50,162,189)" stroke="rgb(40,129,151)" stroke-width="1" opacity="0.75" />
			</g>
		</g>
		<g>
			<title> (IBGHNMIF_00547)
hypothetical protein</title>
			<polygon class=" (IBGHNMIF_00547)
hypothetical protein" points="238,40 252,10 252,70" fill="rgb(255,255,255)" fill-opacity="1.0" stroke="rgb(0,0,0)" stroke-width="2"  />
			<g>
				<title>Acetyltransf_1 (PF00583)
"Acetyltransferase (GNAT) family"</title>
				<polygon class="PF00583" points="241,40 247,28 251,28 251,52 247,52" stroke-linejoin="round" width="12" height="24" fill="rgb(121,183,50)" stroke="rgb(96,146,39)" stroke-width="1" opacity="0.75" />
			</g>
		</g>
		<g>
			<title> (IBGHNMIF_00548)
hypothetical protein</title>
			<polygon class=" (IBGHNMIF_00548)
hypothetical protein" points="254,40 264,10 264,70" fill="rgb(255,255,255)" fill-opacity="1.0" stroke="rgb(0,0,0)" stroke-width="2"  />
		</g>
		<g>
			<title> (IBGHNMIF_00549)
hypothetical protein</title>
			<polygon class=" (IBGHNMIF_00549)
hypothetical protein" points="264,40 270,10 270,70" fill="rgb(255,255,255)" fill-opacity="1.0" stroke="rgb(0,0,0)" stroke-width="2"  />
		</g>
		<g>
			<title> (IBGHNMIF_00550)
hypothetical protein</title>
			<polygon class=" (IBGHNMIF_00550)
hypothetical protein" points="271,40 285,10 285,70" fill="rgb(255,255,255)" fill-opacity="1.0" stroke="rgb(0,0,0)" stroke-width="2"  />
			<g>
				<title>DUF4871 (PF16167)
"Domain of unknown function (DUF4871)"</title>
				<polygon class="PF16167" points="274,40 280,28 282,28 282,52 280,52" stroke-linejoin="round" width="11" height="24" fill="rgb(198,98,115)" stroke="rgb(158,78,91)" stroke-width="1" opacity="0.75" />
			</g>
		</g>
		<g>
			<title> (IBGHNMIF_00551)
hypothetical protein</title>
			<polygon class=" (IBGHNMIF_00551)
hypothetical protein" points="290,40 310,10 310,70" fill="rgb(255,255,255)" fill-opacity="1.0" stroke="rgb(0,0,0)" stroke-width="2"  />
		</g>
		<g>
			<title>resA_1 (IBGHNMIF_00552)
Thiol-disulfide oxidoreductase ResA</title>
			<polygon class="resA_1 (IBGHNMIF_00552)
Thiol-disulfide oxidoreductase ResA" points="322,10 338,40 322,70" fill="rgb(255,255,255)" fill-opacity="1.0" stroke="rgb(0,0,0)" stroke-width="2"  />
			<g>
				<title>AhpC-TSA (PF00578)
"AhpC/TSA family"</title>
				<polygon class="PF00578" points="322,28 328,28 335,40 335,40 328,52 322,52" stroke-linejoin="round" width="13" height="24" fill="rgb(166,71,190)" stroke="rgb(132,56,152)" stroke-width="1" opacity="0.75" />
			</g>
		</g>
		<g>
			<title>sqhC (IBGHNMIF_00553)
Sporulenol synthase</title>
			<polygon class="sqhC (IBGHNMIF_00553)
Sporulenol synthase" points="343,25 374,25 374,10 404,40 374,70 374,55 343,55" fill="rgb(255,255,255)" fill-opacity="1.0" stroke="rgb(0,0,0)" stroke-width="2"  />
			<g>
				<title>SQHop_cyclase_N (PF13249)
"Squalene-hopene cyclase N-terminal domain"</title>
				<rect class="PF13249" x="343" y="28" stroke-linejoin="round" width="28" height="24" fill="rgb(88,190,89)" stroke="rgb(70,152,71)" stroke-width="1" opacity="0.75" />
			</g>
			<g>
				<title>SQHop_cyclase_C (PF13243)
"Squalene-hopene cyclase C-terminal domain"</title>
				<polygon class="PF13243" points="372,28 387,28 399,40 387,52 372,52" stroke-linejoin="round" width="31" height="24" fill="rgb(191,58,201)" stroke="rgb(152,46,160)" stroke-width="1" opacity="0.75" />
			</g>
		</g>
		<g>
			<title> (IBGHNMIF_00554)
hypothetical protein</title>
			<polygon class=" (IBGHNMIF_00554)
hypothetical protein" points="412,10 419,40 412,70" fill="rgb(255,255,255)" fill-opacity="1.0" stroke="rgb(0,0,0)" stroke-width="2"  />
			<g>
				<title>DUF2642 (PF10842)
"Protein of unknown function (DUF2642)"</title>
				<polygon class="PF10842" points="412,28 413,28 416,40 413,52 412,52" stroke-linejoin="round" width="6" height="24" fill="rgb(204,85,172)" stroke="rgb(163,68,137)" stroke-width="1" opacity="0.75" />
			</g>
		</g>
		<g>
			<title> (IBGHNMIF_00555)
hypothetical protein</title>
			<polygon class=" (IBGHNMIF_00555)
hypothetical protein" points="420,10 449,40 420,70" fill="rgb(255,255,255)" fill-opacity="1.0" stroke="rgb(0,0,0)" stroke-width="2"  />
			<g>
				<title>Mn_catalase (PF05067)
"Manganese containing catalase"</title>
				<polygon class="PF05067" points="420,28 433,28 445,40 433,52 420,52" stroke-linejoin="round" width="29" height="24" fill="rgb(59,189,89)" stroke="rgb(47,151,71)" stroke-width="1" opacity="0.75" />
			</g>
		</g>
		<g>
			<title> (IBGHNMIF_00556)
hypothetical protein</title>
			<polygon class=" (IBGHNMIF_00556)
hypothetical protein" points="451,40 466,10 466,70" fill="rgb(255,255,255)" fill-opacity="1.0" stroke="rgb(0,0,0)" stroke-width="2"  />
			<g>
				<title>DMT_YdcZ (PF04657)
"Putative inner membrane exporter, YdcZ"</title>
				<polygon class="PF04657" points="454,40 460,28 466,28 466,52 460,52" stroke-linejoin="round" width="13" height="24" fill="rgb(63,139,178)" stroke="rgb(50,111,142)" stroke-width="1" opacity="0.75" />
			</g>
		</g>
		<g>
			<title>yeiL (IBGHNMIF_00557)
Regulatory protein YeiL</title>
			<polygon class="yeiL (IBGHNMIF_00557)
Regulatory protein YeiL" points="467,40 490,10 490,70" fill="rgb(255,255,255)" fill-opacity="1.0" stroke="rgb(0,0,0)" stroke-width="2"  />
			<g>
				<title>HTH_Crp_2 (PF13545)
"Crp-like helix-turn-helix domain"</title>
				<polygon class="PF13545" points="471,40 474,36 474,44" stroke-linejoin="round" width="7" height="24" fill="rgb(87,137,202)" stroke="rgb(69,109,161)" stroke-width="1" opacity="0.75" />
			</g>
			<g>
				<title>cNMP_binding (PF00027)
"Cyclic nucleotide-binding domain"</title>
				<polygon class="PF00027" points="478,31 480,28 486,28 486,52 480,52 478,49" stroke-linejoin="round" width="8" height="24" fill="rgb(138,95,204)" stroke="rgb(110,76,163)" stroke-width="1" opacity="0.75" />
			</g>
		</g>
		<g>
			<title> (IBGHNMIF_00558)
hypothetical protein</title>
			<polygon class=" (IBGHNMIF_00558)
hypothetical protein" points="491,40 505,10 505,70" fill="rgb(255,255,255)" fill-opacity="1.0" stroke="rgb(0,0,0)" stroke-width="2"  />
			<g>
				<title>DMT_YdcZ (PF04657)
"Putative inner membrane exporter, YdcZ"</title>
				<polygon class="PF04657" points="494,40 500,28 504,28 504,52 500,52" stroke-linejoin="round" width="13" height="24" fill="rgb(63,139,178)" stroke="rgb(50,111,142)" stroke-width="1" opacity="0.75" />
			</g>
		</g>
		<g>
			<title>nhaP2_1 (IBGHNMIF_00559)
K(+)/H(+) antiporter NhaP2</title>
			<polygon class="nhaP2_1 (IBGHNMIF_00559)
K(+)/H(+) antiporter NhaP2" points="579,25 559,25 559,10 529,40 559,70 559,55 579,55" fill="rgb(255,255,255)" fill-opacity="1.0" stroke="rgb(0,0,0)" stroke-width="2"  />
			<g>
				<title>TrkA_C (PF02080)
"TrkA-C domain"</title>
				<polygon class="PF02080" points="533,40 536,37 536,43" stroke-linejoin="round" width="6" height="24" fill="rgb(76,186,211)" stroke="rgb(60,148,168)" stroke-width="1" opacity="0.75" />
			</g>
			<g>
				<title>Na_H_Exchanger (PF00999)
"Sodium/hydrogen exchanger family"</title>
				<polygon class="PF00999" points="540,33 545,28 578,28 578,52 545,52 540,47" stroke-linejoin="round" width="38" height="24" fill="rgb(229,67,191)" stroke="rgb(183,53,152)" stroke-width="1" opacity="0.75" />
			</g>
		</g>
		<g>
			<title>trxB_1 (IBGHNMIF_00560)
Thioredoxin reductase</title>
			<polygon class="trxB_1 (IBGHNMIF_00560)
Thioredoxin reductase" points="585,40 614,10 614,70" fill="rgb(255,255,255)" fill-opacity="1.0" stroke="rgb(0,0,0)" stroke-width="2"  />
			<g>
				<title>Pyr_redox_2 (PF07992)
"Pyridine nucleotide-disulphide oxidoreductase"</title>
				<polygon class="PF07992" points="589,40 601,28 613,28 613,52 601,52" stroke-linejoin="round" width="27" height="24" fill="rgb(83,223,167)" stroke="rgb(66,178,133)" stroke-width="1" opacity="0.75" />
			</g>
		</g>
		<g>
			<title>ybiT_1 (IBGHNMIF_00561)
putative ABC transporter ATP-binding protein YbiT</title>
			<polygon class="ybiT_1 (IBGHNMIF_00561)
putative ABC transporter ATP-binding protein YbiT" points="619,25 640,25 640,10 670,40 640,70 640,55 619,55" fill="rgb(255,255,255)" fill-opacity="1.0" stroke="rgb(0,0,0)" stroke-width="2"  />
			<g>
				<title>ABC_tran (PF00005)
"ABC transporter"</title>
				<rect class="PF00005" x="620" y="28" stroke-linejoin="round" width="17" height="24" fill="rgb(129,201,63)" stroke="rgb(103,160,50)" stroke-width="1" opacity="0.75" />
			</g>
			<g>
				<title>ABC_tran_Xtn (PF12848)
"ABC transporter"</title>
				<rect class="PF12848" x="642" y="28" stroke-linejoin="round" width="8" height="24" fill="rgb(54,177,199)" stroke="rgb(43,141,159)" stroke-width="1" opacity="0.75" />
			</g>
			<g>
				<title>ABC_tran (PF00005)
"ABC transporter"</title>
				<polygon class="PF00005" points="653,28 654,28 665,39 665,41 654,52 653,52" stroke-linejoin="round" width="12" height="24" fill="rgb(129,201,63)" stroke="rgb(103,160,50)" stroke-width="1" opacity="0.75" />
			</g>
		</g>
		<g>
			<title> (IBGHNMIF_00562)
hypothetical protein</title>
			<polygon class=" (IBGHNMIF_00562)
hypothetical protein" points="675,10 696,40 675,70" fill="rgb(255,255,255)" fill-opacity="1.0" stroke="rgb(0,0,0)" stroke-width="2"  />
		</g>
		<g>
			<title>yfkO (IBGHNMIF_00563)
Putative NAD(P)H nitroreductase YfkO</title>
			<polygon class="yfkO (IBGHNMIF_00563)
Putative NAD(P)H nitroreductase YfkO" points="699,10 721,40 699,70" fill="rgb(255,255,255)" fill-opacity="1.0" stroke="rgb(0,0,0)" stroke-width="2"  />
			<g>
				<title>Nitroreductase (PF00881)
"Nitroreductase family"</title>
				<polygon class="PF00881" points="700,28 709,28 717,40 709,52 700,52" stroke-linejoin="round" width="18" height="24" fill="rgb(79,118,187)" stroke="rgb(63,94,149)" stroke-width="1" opacity="0.75" />
			</g>
		</g>
		<g>
			<title> (IBGHNMIF_00564)
hypothetical protein</title>
			<polygon class=" (IBGHNMIF_00564)
hypothetical protein" points="723,40 736,10 736,70" fill="rgb(255,255,255)" fill-opacity="1.0" stroke="rgb(0,0,0)" stroke-width="2"  />
			<g>
				<title>NUDIX (PF00293)
"NUDIX domain"</title>
				<polygon class="PF00293" points="726,40 731,28 735,28 735,52 731,52" stroke-linejoin="round" width="11" height="24" fill="rgb(92,56,187)" stroke="rgb(73,44,149)" stroke-width="1" opacity="0.75" />
			</g>
		</g>
	</g>
</svg>
