<svg version="1.1" baseProfile="full" xmlns="http://www.w3.org/2000/svg" width="366.1333333333333" height="80">
	<g>
		<line x1="10" y1="40.0" x2="356.1333333333333" y2="40.0" style="stroke:rgb(70,70,70); stroke-width:3 "/>
		<g>
			<title> (LKFIHALF_00724)
hypothetical protein</title>
			<polygon class=" (LKFIHALF_00724)
hypothetical protein" points="49,10 60,40 49,70" fill="rgb(255,255,255)" fill-opacity="1.0" stroke="rgb(0,0,0)" stroke-width="2"  />
			<g>
				<title>CMD (PF02627)
"Carboxymuconolactone decarboxylase family"</title>
				<polygon class="PF02627" points="51,28 52,28 57,40 52,52 51,52" stroke-linejoin="round" width="8" height="24" fill="rgb(58,205,164)" stroke="rgb(46,164,131)" stroke-width="1" opacity="0.75" />
			</g>
		</g>
		<g>
			<title>hcxA (LKFIHALF_00725)
Hydroxycarboxylate dehydrogenase A</title>
			<polygon class="hcxA (LKFIHALF_00725)
Hydroxycarboxylate dehydrogenase A" points="64,25 69,25 69,10 99,40 69,70 69,55 64,55" fill="rgb(255,255,255)" fill-opacity="1.0" stroke="rgb(0,0,0)" stroke-width="2"  />
			<g>
				<title>Fe-ADH (PF00465)
"Iron-containing alcohol dehydrogenase"</title>
				<polygon class="PF00465" points="65,28 83,28 95,40 83,52 65,52" stroke-linejoin="round" width="33" height="24" fill="rgb(73,179,216)" stroke="rgb(58,143,172)" stroke-width="1" opacity="0.75" />
			</g>
		</g>
		<g>
			<title> (LKFIHALF_00726)
hypothetical protein</title>
			<polygon class=" (LKFIHALF_00726)
hypothetical protein" points="144,25 130,25 130,10 100,40 130,70 130,55 144,55" fill="rgb(255,255,255)" fill-opacity="1.0" stroke="rgb(0,0,0)" stroke-width="2"  />
		</g>
		<g>
			<title>ydaF_1 (LKFIHALF_00727)
Putative ribosomal N-acetyltransferase YdaF</title>
			<polygon class="ydaF_1 (LKFIHALF_00727)
Putative ribosomal N-acetyltransferase YdaF" points="145,40 164,10 164,70" fill="rgb(255,255,255)" fill-opacity="1.0" stroke="rgb(0,0,0)" stroke-width="2"  />
			<g>
				<title>Acetyltransf_3 (PF13302)
"Acetyltransferase (GNAT) domain"</title>
				<polygon class="PF13302" points="149,40 157,28 162,28 162,52 157,52" stroke-linejoin="round" width="14" height="24" fill="rgb(105,146,215)" stroke="rgb(84,116,172)" stroke-width="1" opacity="0.75" />
			</g>
		</g>
		<g>
			<title>ectC (LKFIHALF_00728)
L-ectoine synthase</title>
			<polygon class="ectC (LKFIHALF_00728)
L-ectoine synthase" points="176,40 188,10 188,70" fill="rgb(255,255,255)" fill-opacity="1.0" stroke="rgb(0,0,0)" stroke-width="2"  />
			<g>
				<title>Ectoine_synth (PF06339)
"Ectoine synthase"</title>
				<polygon class="PF06339" points="179,40 184,28 188,28 188,52 184,52" stroke-linejoin="round" width="12" height="24" fill="rgb(225,176,81)" stroke="rgb(180,140,64)" stroke-width="1" opacity="0.75" />
			</g>
		</g>
		<g>
			<title>ykuI (LKFIHALF_00729)
putative EAL-domain containing protein YkuI</title>
			<polygon class="ykuI (LKFIHALF_00729)
putative EAL-domain containing protein YkuI" points="234,25 224,25 224,10 194,40 224,70 224,55 234,55" fill="rgb(255,255,255)" fill-opacity="1.0" stroke="rgb(0,0,0)" stroke-width="2"  />
			<g>
				<title>YkuI_C (PF10388)
"EAL-domain associated signalling protein domain"</title>
				<polygon class="PF10388" points="198,40 210,28 210,28 210,52 210,52" stroke-linejoin="round" width="16" height="24" fill="rgb(56,196,67)" stroke="rgb(44,156,53)" stroke-width="1" opacity="0.75" />
			</g>
			<g>
				<title>EAL (PF00563)
"EAL domain"</title>
				<rect class="PF00563" x="211" y="28" stroke-linejoin="round" width="22" height="24" fill="rgb(204,100,120)" stroke="rgb(163,80,96)" stroke-width="1" opacity="0.75" />
			</g>
		</g>
		<g>
			<title> (LKFIHALF_00730)
hypothetical protein</title>
			<polygon class=" (LKFIHALF_00730)
hypothetical protein" points="240,25 264,25 264,10 294,40 264,70 264,55 240,55" fill="rgb(255,255,255)" fill-opacity="1.0" stroke="rgb(0,0,0)" stroke-width="2"  />
			<g>
				<title>Amidase_3 (PF01520)
"N-acetylmuramoyl-L-alanine amidase"</title>
				<rect class="PF01520" x="240" y="28" stroke-linejoin="round" width="17" height="24" fill="rgb(174,223,57)" stroke="rgb(139,178,45)" stroke-width="1" opacity="0.75" />
			</g>
			<g>
				<title>SPOR (PF05036)
"Sporulation related domain"</title>
				<rect class="PF05036" x="259" y="28" stroke-linejoin="round" width="7" height="24" fill="rgb(173,203,80)" stroke="rgb(138,162,64)" stroke-width="1" opacity="0.75" />
			</g>
			<g>
				<title>SPOR (PF05036)
"Sporulation related domain"</title>
				<rect class="PF05036" x="267" y="28" stroke-linejoin="round" width="7" height="24" fill="rgb(173,203,80)" stroke="rgb(138,162,64)" stroke-width="1" opacity="0.75" />
			</g>
			<g>
				<title>Glucosaminidase (PF01832)
"Mannosyl-glycoprotein endo-beta-N-acetylglucosaminidase"</title>
				<polygon class="PF01832" points="279,29 290,40 279,51" stroke-linejoin="round" width="12" height="24" fill="rgb(170,195,97)" stroke="rgb(136,156,77)" stroke-width="1" opacity="0.75" />
			</g>
		</g>
		<g>
			<title> (LKFIHALF_00731)
hypothetical protein</title>
			<polygon class=" (LKFIHALF_00731)
hypothetical protein" points="297,40 311,10 311,70" fill="rgb(255,255,255)" fill-opacity="1.0" stroke="rgb(0,0,0)" stroke-width="2"  />
			<g>
				<title>RDD (PF06271)
"RDD family"</title>
				<polygon class="PF06271" points="300,40 306,28 309,28 309,52 306,52" stroke-linejoin="round" width="11" height="24" fill="rgb(75,173,207)" stroke="rgb(60,138,165)" stroke-width="1" opacity="0.75" />
			</g>
		</g>
		<g>
			<title> (LKFIHALF_00732)
hypothetical protein</title>
			<polygon class=" (LKFIHALF_00732)
hypothetical protein" points="317,10 334,40 317,70" fill="rgb(255,255,255)" fill-opacity="1.0" stroke="rgb(0,0,0)" stroke-width="2"  />
			<g>
				<title>DUF420 (PF04238)
"Protein of unknown function (DUF420)"</title>
				<polygon class="PF04238" points="321,28 324,28 331,40 324,52 321,52" stroke-linejoin="round" width="12" height="24" fill="rgb(186,65,177)" stroke="rgb(148,52,141)" stroke-width="1" opacity="0.75" />
			</g>
		</g>
		<g>
			<title> (LKFIHALF_00733)
hypothetical protein</title>
			<polygon class=" (LKFIHALF_00733)
hypothetical protein" points="341,10 348,40 341,70" fill="rgb(255,255,255)" fill-opacity="1.0" stroke="rgb(0,0,0)" stroke-width="2"  />
		</g>
	</g>
</svg>
