<svg version="1.1" baseProfile="full" xmlns="http://www.w3.org/2000/svg" width="688.0333333333333" height="80">
	<g>
		<line x1="10" y1="40.0" x2="678.0333333333333" y2="40.0" style="stroke:rgb(70,70,70); stroke-width:3 "/>
		<g>
			<title> (BBLDBBGM_00560)
hypothetical protein</title>
			<polygon class=" (BBLDBBGM_00560)
hypothetical protein" points="10,40 14,10 14,70" fill="rgb(255,255,255)" fill-opacity="1.0" stroke="rgb(0,0,0)" stroke-width="2"  />
			<g>
				<title>Fur_reg_FbpB (PF13040)
"Fur-regulated basic protein B"</title>
				<polygon class="PF13040" points="13,40 14,34 14,46" stroke-linejoin="round" width="3" height="24" fill="rgb(190,83,63)" stroke="rgb(152,66,50)" stroke-width="1" opacity="0.75" />
			</g>
		</g>
		<g>
			<title>dapX (BBLDBBGM_00561)
putative N-acetyl-LL-diaminopimelate aminotransferase</title>
			<polygon class="dapX (BBLDBBGM_00561)
putative N-acetyl-LL-diaminopimelate aminotransferase" points="18,25 26,25 26,10 56,40 26,70 26,55 18,55" fill="rgb(255,255,255)" fill-opacity="1.0" stroke="rgb(0,0,0)" stroke-width="2"  />
			<g>
				<title>Aminotran_1_2 (PF00155)
"Aminotransferase class I and II"</title>
				<polygon class="PF00155" points="20,28 40,28 52,40 40,52 20,52" stroke-linejoin="round" width="34" height="24" fill="rgb(89,113,198)" stroke="rgb(71,90,158)" stroke-width="1" opacity="0.75" />
			</g>
		</g>
		<g>
			<title> (BBLDBBGM_00562)
hypothetical protein</title>
			<polygon class=" (BBLDBBGM_00562)
hypothetical protein" points="65,40 70,10 70,70" fill="rgb(255,255,255)" fill-opacity="1.0" stroke="rgb(0,0,0)" stroke-width="2"  />
			<g>
				<title>SpoOE-like (PF09388)
"Spo0E like sporulation regulatory protein"</title>
				<polygon class="PF09388" points="68,40 69,34 69,46" stroke-linejoin="round" width="4" height="24" fill="rgb(188,111,63)" stroke="rgb(150,88,50)" stroke-width="1" opacity="0.75" />
			</g>
		</g>
		<g>
			<title>sipS (BBLDBBGM_00563)
Signal peptidase I S</title>
			<polygon class="sipS (BBLDBBGM_00563)
Signal peptidase I S" points="80,10 97,40 80,70" fill="rgb(255,255,255)" fill-opacity="1.0" stroke="rgb(0,0,0)" stroke-width="2"  />
			<g>
				<title>Peptidase_S24 (PF00717)
"Peptidase S24-like"</title>
				<polygon class="PF00717" points="83,28 87,28 89,32 89,48 87,52 83,52" stroke-linejoin="round" width="6" height="24" fill="rgb(180,76,105)" stroke="rgb(144,60,83)" stroke-width="1" opacity="0.75" />
			</g>
		</g>
		<g>
			<title> (BBLDBBGM_00564)
hypothetical protein</title>
			<polygon class=" (BBLDBBGM_00564)
hypothetical protein" points="99,40 103,10 103,70" fill="rgb(255,255,255)" fill-opacity="1.0" stroke="rgb(0,0,0)" stroke-width="2"  />
			<g>
				<title>YvrJ (PF12841)
"YvrJ protein family"</title>
				<polygon class="PF12841" points="102,40 102,40 102,40" stroke-linejoin="round" width="3" height="24" fill="rgb(207,53,76)" stroke="rgb(165,42,60)" stroke-width="1" opacity="0.75" />
			</g>
		</g>
		<g>
			<title> (BBLDBBGM_00565)
hypothetical protein</title>
			<polygon class=" (BBLDBBGM_00565)
hypothetical protein" points="106,40 113,10 113,70" fill="rgb(255,255,255)" fill-opacity="1.0" stroke="rgb(0,0,0)" stroke-width="2"  />
			<g>
				<title>DUF2922 (PF11148)
"Protein of unknown function (DUF2922)"</title>
				<polygon class="PF11148" points="109,40 112,28 112,28 112,52 112,52" stroke-linejoin="round" width="6" height="24" fill="rgb(196,220,80)" stroke="rgb(156,176,64)" stroke-width="1" opacity="0.75" />
			</g>
		</g>
		<g>
			<title> (BBLDBBGM_00566)
hypothetical protein</title>
			<polygon class=" (BBLDBBGM_00566)
hypothetical protein" points="114,40 121,10 121,70" fill="rgb(255,255,255)" fill-opacity="1.0" stroke="rgb(0,0,0)" stroke-width="2"  />
			<g>
				<title>DUF1659 (PF07872)
"Protein of unknown function (DUF1659)"</title>
				<polygon class="PF07872" points="117,40 120,28 120,28 120,52 120,52" stroke-linejoin="round" width="4" height="24" fill="rgb(172,48,195)" stroke="rgb(137,38,156)" stroke-width="1" opacity="0.75" />
			</g>
		</g>
		<g>
			<title> (BBLDBBGM_00567)
hypothetical protein</title>
			<polygon class=" (BBLDBBGM_00567)
hypothetical protein" points="143,10 159,40 143,70" fill="rgb(255,255,255)" fill-opacity="1.0" stroke="rgb(0,0,0)" stroke-width="2"  />
			<g>
				<title>DoxX (PF07681)
"DoxX"</title>
				<polygon class="PF07681" points="144,28 149,28 154,36 154,44 149,52 144,52" stroke-linejoin="round" width="10" height="24" fill="rgb(93,188,216)" stroke="rgb(74,150,172)" stroke-width="1" opacity="0.75" />
			</g>
		</g>
		<g>
			<title> (BBLDBBGM_00568)
hypothetical protein</title>
			<polygon class=" (BBLDBBGM_00568)
hypothetical protein" points="185,10 210,40 185,70" fill="rgb(255,255,255)" fill-opacity="1.0" stroke="rgb(0,0,0)" stroke-width="2"  />
			<g>
				<title>Caroten_synth (PF04240)
"Carotenoid biosynthesis protein"</title>
				<polygon class="PF04240" points="188,28 196,28 206,40 196,52 188,52" stroke-linejoin="round" width="20" height="24" fill="rgb(65,214,190)" stroke="rgb(52,171,152)" stroke-width="1" opacity="0.75" />
			</g>
		</g>
		<g>
			<title> (BBLDBBGM_00569)
hypothetical protein</title>
			<polygon class=" (BBLDBBGM_00569)
hypothetical protein" points="210,10 232,40 210,70" fill="rgb(255,255,255)" fill-opacity="1.0" stroke="rgb(0,0,0)" stroke-width="2"  />
			<g>
				<title>Acyltransferase (PF01553)
"Acyltransferase"</title>
				<polygon class="PF01553" points="212,28 219,28 224,35 224,45 219,52 212,52" stroke-linejoin="round" width="12" height="24" fill="rgb(87,176,216)" stroke="rgb(69,140,172)" stroke-width="1" opacity="0.75" />
			</g>
		</g>
		<g>
			<title> (BBLDBBGM_00570)
hypothetical protein</title>
			<polygon class=" (BBLDBBGM_00570)
hypothetical protein" points="233,25 240,25 240,10 270,40 240,70 240,55 233,55" fill="rgb(255,255,255)" fill-opacity="1.0" stroke="rgb(0,0,0)" stroke-width="2"  />
			<g>
				<title>Glycos_transf_2 (PF00535)
"Glycosyl transferase family 2"</title>
				<polygon class="PF00535" points="237,28 253,28 254,29 254,51 253,52 237,52" stroke-linejoin="round" width="17" height="24" fill="rgb(224,122,96)" stroke="rgb(179,97,76)" stroke-width="1" opacity="0.75" />
			</g>
		</g>
		<g>
			<title>crtNb_1 (BBLDBBGM_00571)
4,4'-diapolycopene oxygenase</title>
			<polygon class="crtNb_1 (BBLDBBGM_00571)
4,4'-diapolycopene oxygenase" points="270,25 289,25 289,10 319,40 289,70 289,55 270,55" fill="rgb(255,255,255)" fill-opacity="1.0" stroke="rgb(0,0,0)" stroke-width="2"  />
			<g>
				<title>Amino_oxidase (PF01593)
"Flavin containing amine oxidoreductase"</title>
				<polygon class="PF01593" points="271,28 302,28 314,40 302,52 271,52" stroke-linejoin="round" width="47" height="24" fill="rgb(184,74,52)" stroke="rgb(147,59,41)" stroke-width="1" opacity="0.75" />
			</g>
		</g>
		<g>
			<title> (BBLDBBGM_00572)
hypothetical protein</title>
			<polygon class=" (BBLDBBGM_00572)
hypothetical protein" points="323,40 327,10 327,70" fill="rgb(255,255,255)" fill-opacity="1.0" stroke="rgb(0,0,0)" stroke-width="2"  />
		</g>
		<g>
			<title>crtB (BBLDBBGM_00573)
15-cis-phytoene synthase</title>
			<polygon class="crtB (BBLDBBGM_00573)
15-cis-phytoene synthase" points="333,40 360,10 360,70" fill="rgb(255,255,255)" fill-opacity="1.0" stroke="rgb(0,0,0)" stroke-width="2"  />
			<g>
				<title>SQS_PSY (PF00494)
"Squalene/phytoene synthase"</title>
				<polygon class="PF00494" points="337,40 348,28 359,28 359,52 348,52" stroke-linejoin="round" width="25" height="24" fill="rgb(178,91,49)" stroke="rgb(142,72,39)" stroke-width="1" opacity="0.75" />
			</g>
		</g>
		<g>
			<title>crtNc (BBLDBBGM_00574)
4,4'-diapolycopen-4-al dehydrogenase</title>
			<polygon class="crtNc (BBLDBBGM_00574)
4,4'-diapolycopen-4-al dehydrogenase" points="410,25 391,25 391,10 361,40 391,70 391,55 410,55" fill="rgb(255,255,255)" fill-opacity="1.0" stroke="rgb(0,0,0)" stroke-width="2"  />
			<g>
				<title>Amino_oxidase (PF01593)
"Flavin containing amine oxidoreductase"</title>
				<polygon class="PF01593" points="365,40 377,28 408,28 408,52 377,52" stroke-linejoin="round" width="46" height="24" fill="rgb(184,74,52)" stroke="rgb(147,59,41)" stroke-width="1" opacity="0.75" />
			</g>
		</g>
		<g>
			<title>crtN (BBLDBBGM_00575)
4,4'-diapophytoene desaturase (4,4'-diapolycopene-forming)</title>
			<polygon class="crtN (BBLDBBGM_00575)
4,4'-diapophytoene desaturase (4,4'-diapolycopene-forming)" points="459,25 440,25 440,10 410,40 440,70 440,55 459,55" fill="rgb(255,255,255)" fill-opacity="1.0" stroke="rgb(0,0,0)" stroke-width="2"  />
			<g>
				<title>Amino_oxidase (PF01593)
"Flavin containing amine oxidoreductase"</title>
				<polygon class="PF01593" points="414,40 426,28 458,28 458,52 426,52" stroke-linejoin="round" width="47" height="24" fill="rgb(184,74,52)" stroke="rgb(147,59,41)" stroke-width="1" opacity="0.75" />
			</g>
		</g>
		<g>
			<title> (BBLDBBGM_00576)
hypothetical protein</title>
			<polygon class=" (BBLDBBGM_00576)
hypothetical protein" points="471,10 477,40 471,70" fill="rgb(255,255,255)" fill-opacity="1.0" stroke="rgb(0,0,0)" stroke-width="2"  />
		</g>
		<g>
			<title> (BBLDBBGM_00577)
hypothetical protein</title>
			<polygon class=" (BBLDBBGM_00577)
hypothetical protein" points="480,10 484,40 480,70" fill="rgb(255,255,255)" fill-opacity="1.0" stroke="rgb(0,0,0)" stroke-width="2"  />
			<g>
				<title>YjcZ_2 (PF09680)
"Family of unknown function"</title>
				<polygon class="PF09680" points="481,39 481,40 481,41" stroke-linejoin="round" width="2" height="24" fill="rgb(79,203,107)" stroke="rgb(63,162,85)" stroke-width="1" opacity="0.75" />
			</g>
		</g>
		<g>
			<title> (BBLDBBGM_00578)
hypothetical protein</title>
			<polygon class=" (BBLDBBGM_00578)
hypothetical protein" points="574,25 539,25 539,10 509,40 539,70 539,55 574,55" fill="rgb(255,255,255)" fill-opacity="1.0" stroke="rgb(0,0,0)" stroke-width="2"  />
			<g>
				<title>EAL (PF00563)
"EAL domain"</title>
				<polygon class="PF00563" points="513,40 525,28 533,28 533,52 525,52" stroke-linejoin="round" width="23" height="24" fill="rgb(204,100,120)" stroke="rgb(163,80,96)" stroke-width="1" opacity="0.75" />
			</g>
			<g>
				<title>GGDEF (PF00990)
"Diguanylate cyclase, GGDEF domain"</title>
				<rect class="PF00990" x="536" y="28" stroke-linejoin="round" width="15" height="24" fill="rgb(62,170,199)" stroke="rgb(49,135,159)" stroke-width="1" opacity="0.75" />
			</g>
			<g>
				<title>PAS_9 (PF13426)
"PAS domain"</title>
				<rect class="PF13426" x="552" y="28" stroke-linejoin="round" width="9" height="24" fill="rgb(182,140,74)" stroke="rgb(145,112,59)" stroke-width="1" opacity="0.75" />
			</g>
			<g>
				<title>PAS_8 (PF13188)
"PAS domain"</title>
				<rect class="PF13188" x="567" y="28" stroke-linejoin="round" width="5" height="24" fill="rgb(206,218,73)" stroke="rgb(164,174,58)" stroke-width="1" opacity="0.75" />
			</g>
		</g>
		<g>
			<title>ktrB_1 (BBLDBBGM_00579)
Ktr system potassium uptake protein B</title>
			<polygon class="ktrB_1 (BBLDBBGM_00579)
Ktr system potassium uptake protein B" points="620,25 605,25 605,10 575,40 605,70 605,55 620,55" fill="rgb(255,255,255)" fill-opacity="1.0" stroke="rgb(0,0,0)" stroke-width="2"  />
			<g>
				<title>TrkH (PF02386)
"Cation transport protein"</title>
				<polygon class="PF02386" points="579,40 591,28 618,28 618,52 591,52" stroke-linejoin="round" width="42" height="24" fill="rgb(67,179,142)" stroke="rgb(53,143,113)" stroke-width="1" opacity="0.75" />
			</g>
		</g>
		<g>
			<title> (BBLDBBGM_00580)
hypothetical protein</title>
			<polygon class=" (BBLDBBGM_00580)
hypothetical protein" points="626,40 640,10 640,70" fill="rgb(255,255,255)" fill-opacity="1.0" stroke="rgb(0,0,0)" stroke-width="2"  />
			<g>
				<title>YwpF (PF14183)
"YwpF-like protein"</title>
				<polygon class="PF14183" points="629,40 635,28 639,28 639,52 635,52" stroke-linejoin="round" width="13" height="24" fill="rgb(199,178,73)" stroke="rgb(159,142,58)" stroke-width="1" opacity="0.75" />
			</g>
		</g>
		<g>
			<title>moaA (BBLDBBGM_00581)
GTP 3',8-cyclase</title>
			<polygon class="moaA (BBLDBBGM_00581)
GTP 3',8-cyclase" points="677,25 673,25 673,10 643,40 673,70 673,55 677,55" fill="rgb(255,255,255)" fill-opacity="1.0" stroke="rgb(0,0,0)" stroke-width="2"  />
			<g>
				<title>Mob_synth_C (PF06463)
"Molybdenum Cofactor Synthesis C"</title>
				<polygon class="PF06463" points="647,40 657,30 657,50" stroke-linejoin="round" width="12" height="24" fill="rgb(149,103,225)" stroke="rgb(119,82,180)" stroke-width="1" opacity="0.75" />
			</g>
			<g>
				<title>Radical_SAM (PF04055)
"Radical SAM superfamily"</title>
				<polygon class="PF04055" points="658,29 659,28 674,28 674,52 659,52 658,51" stroke-linejoin="round" width="16" height="24" fill="rgb(149,56,222)" stroke="rgb(119,44,177)" stroke-width="1" opacity="0.75" />
			</g>
		</g>
	</g>
</svg>
