<svg version="1.1" baseProfile="full" xmlns="http://www.w3.org/2000/svg" width="646.3666666666667" height="80">
	<g>
		<line x1="10" y1="40.0" x2="636.3666666666667" y2="40.0" style="stroke:rgb(70,70,70); stroke-width:3 "/>
		<g>
			<title>moaA (LECGHDDD_00740)
GTP 3',8-cyclase</title>
			<polygon class="moaA (LECGHDDD_00740)
GTP 3',8-cyclase" points="10,25 14,25 14,10 44,40 14,70 14,55 10,55" fill="rgb(255,255,255)" fill-opacity="1.0" stroke="rgb(0,0,0)" stroke-width="2"  />
			<g>
				<title>Radical_SAM (PF04055)
"Radical SAM superfamily"</title>
				<rect class="PF04055" x="12" y="28" stroke-linejoin="round" width="16" height="24" fill="rgb(149,56,222)" stroke="rgb(119,44,177)" stroke-width="1" opacity="0.75" />
			</g>
			<g>
				<title>Mob_synth_C (PF06463)
"Molybdenum Cofactor Synthesis C"</title>
				<polygon class="PF06463" points="29,29 40,40 29,51" stroke-linejoin="round" width="12" height="24" fill="rgb(149,103,225)" stroke="rgb(119,82,180)" stroke-width="1" opacity="0.75" />
			</g>
		</g>
		<g>
			<title> (LECGHDDD_00741)
hypothetical protein</title>
			<polygon class=" (LECGHDDD_00741)
hypothetical protein" points="47,10 61,40 47,70" fill="rgb(255,255,255)" fill-opacity="1.0" stroke="rgb(0,0,0)" stroke-width="2"  />
			<g>
				<title>YwpF (PF14183)
"YwpF-like protein"</title>
				<polygon class="PF14183" points="47,28 52,28 57,40 52,52 47,52" stroke-linejoin="round" width="13" height="24" fill="rgb(199,178,73)" stroke="rgb(159,142,58)" stroke-width="1" opacity="0.75" />
			</g>
		</g>
		<g>
			<title>ktrB_2 (LECGHDDD_00742)
Ktr system potassium uptake protein B</title>
			<polygon class="ktrB_2 (LECGHDDD_00742)
Ktr system potassium uptake protein B" points="66,25 81,25 81,10 111,40 81,70 81,55 66,55" fill="rgb(255,255,255)" fill-opacity="1.0" stroke="rgb(0,0,0)" stroke-width="2"  />
			<g>
				<title>TrkH (PF02386)
"Cation transport protein"</title>
				<polygon class="PF02386" points="66,28 95,28 107,40 95,52 66,52" stroke-linejoin="round" width="43" height="24" fill="rgb(67,179,142)" stroke="rgb(53,143,113)" stroke-width="1" opacity="0.75" />
			</g>
		</g>
		<g>
			<title> (LECGHDDD_00743)
hypothetical protein</title>
			<polygon class=" (LECGHDDD_00743)
hypothetical protein" points="113,25 148,25 148,10 178,40 148,70 148,55 113,55" fill="rgb(255,255,255)" fill-opacity="1.0" stroke="rgb(0,0,0)" stroke-width="2"  />
			<g>
				<title>PAS_9 (PF13426)
"PAS domain"</title>
				<rect class="PF13426" x="125" y="28" stroke-linejoin="round" width="9" height="24" fill="rgb(182,140,74)" stroke="rgb(145,112,59)" stroke-width="1" opacity="0.75" />
			</g>
			<g>
				<title>GGDEF (PF00990)
"Diguanylate cyclase, GGDEF domain"</title>
				<rect class="PF00990" x="135" y="28" stroke-linejoin="round" width="15" height="24" fill="rgb(62,170,199)" stroke="rgb(49,135,159)" stroke-width="1" opacity="0.75" />
			</g>
			<g>
				<title>EAL (PF00563)
"EAL domain"</title>
				<polygon class="PF00563" points="153,28 161,28 173,40 161,52 153,52" stroke-linejoin="round" width="23" height="24" fill="rgb(204,100,120)" stroke="rgb(163,80,96)" stroke-width="1" opacity="0.75" />
			</g>
		</g>
		<g>
			<title> (LECGHDDD_00744)
hypothetical protein</title>
			<polygon class=" (LECGHDDD_00744)
hypothetical protein" points="185,40 189,10 189,70" fill="rgb(255,255,255)" fill-opacity="1.0" stroke="rgb(0,0,0)" stroke-width="2"  />
			<g>
				<title>YjcZ_2 (PF09680)
"Family of unknown function"</title>
				<polygon class="PF09680" points="188,40 187,47 187,33" stroke-linejoin="round" width="2" height="24" fill="rgb(79,203,107)" stroke="rgb(63,162,85)" stroke-width="1" opacity="0.75" />
			</g>
		</g>
		<g>
			<title> (LECGHDDD_00745)
hypothetical protein</title>
			<polygon class=" (LECGHDDD_00745)
hypothetical protein" points="191,40 198,10 198,70" fill="rgb(255,255,255)" fill-opacity="1.0" stroke="rgb(0,0,0)" stroke-width="2"  />
		</g>
		<g>
			<title>crtN_1 (LECGHDDD_00746)
4,4'-diapophytoene desaturase (4,4'-diapolycopene-forming)</title>
			<polygon class="crtN_1 (LECGHDDD_00746)
4,4'-diapophytoene desaturase (4,4'-diapolycopene-forming)" points="207,25 226,25 226,10 256,40 226,70 226,55 207,55" fill="rgb(255,255,255)" fill-opacity="1.0" stroke="rgb(0,0,0)" stroke-width="2"  />
			<g>
				<title>Amino_oxidase (PF01593)
"Flavin containing amine oxidoreductase"</title>
				<polygon class="PF01593" points="208,28 240,28 252,40 240,52 208,52" stroke-linejoin="round" width="47" height="24" fill="rgb(184,74,52)" stroke="rgb(147,59,41)" stroke-width="1" opacity="0.75" />
			</g>
		</g>
		<g>
			<title>crtNc (LECGHDDD_00747)
4,4'-diapolycopen-4-al dehydrogenase</title>
			<polygon class="crtNc (LECGHDDD_00747)
4,4'-diapolycopen-4-al dehydrogenase" points="257,25 276,25 276,10 306,40 276,70 276,55 257,55" fill="rgb(255,255,255)" fill-opacity="1.0" stroke="rgb(0,0,0)" stroke-width="2"  />
			<g>
				<title>Amino_oxidase (PF01593)
"Flavin containing amine oxidoreductase"</title>
				<polygon class="PF01593" points="258,28 289,28 301,40 289,52 258,52" stroke-linejoin="round" width="46" height="24" fill="rgb(184,74,52)" stroke="rgb(147,59,41)" stroke-width="1" opacity="0.75" />
			</g>
		</g>
		<g>
			<title>yisP (LECGHDDD_00748)
Putative phytoene/squalene synthase YisP</title>
			<polygon class="yisP (LECGHDDD_00748)
Putative phytoene/squalene synthase YisP" points="306,10 333,40 306,70" fill="rgb(255,255,255)" fill-opacity="1.0" stroke="rgb(0,0,0)" stroke-width="2"  />
			<g>
				<title>SQS_PSY (PF00494)
"Squalene/phytoene synthase"</title>
				<polygon class="PF00494" points="307,28 318,28 329,40 318,52 307,52" stroke-linejoin="round" width="25" height="24" fill="rgb(178,91,49)" stroke="rgb(142,72,39)" stroke-width="1" opacity="0.75" />
			</g>
		</g>
		<g>
			<title> (LECGHDDD_00749)
hypothetical protein</title>
			<polygon class=" (LECGHDDD_00749)
hypothetical protein" points="339,10 343,40 339,70" fill="rgb(255,255,255)" fill-opacity="1.0" stroke="rgb(0,0,0)" stroke-width="2"  />
		</g>
		<g>
			<title>yfcJ_1 (LECGHDDD_00750)
putative MFS-type transporter YfcJ</title>
			<polygon class="yfcJ_1 (LECGHDDD_00750)
putative MFS-type transporter YfcJ" points="349,25 360,25 360,10 390,40 360,70 360,55 349,55" fill="rgb(255,255,255)" fill-opacity="1.0" stroke="rgb(0,0,0)" stroke-width="2"  />
			<g>
				<title>MFS_1 (PF07690)
"Major Facilitator Superfamily"</title>
				<rect class="PF07690" x="350" y="28" stroke-linejoin="round" width="22" height="24" fill="rgb(193,224,74)" stroke="rgb(154,179,59)" stroke-width="1" opacity="0.75" />
			</g>
			<g>
				<title>MFS_1 (PF07690)
"Major Facilitator Superfamily"</title>
				<polygon class="PF07690" points="372,28 373,28 385,40 373,52 372,52" stroke-linejoin="round" width="17" height="24" fill="rgb(193,224,74)" stroke="rgb(154,179,59)" stroke-width="1" opacity="0.75" />
			</g>
		</g>
		<g>
			<title> (LECGHDDD_00751)
hypothetical protein</title>
			<polygon class=" (LECGHDDD_00751)
hypothetical protein" points="391,40 396,10 396,70" fill="rgb(255,255,255)" fill-opacity="1.0" stroke="rgb(0,0,0)" stroke-width="2"  />
			<g>
				<title>DUF4021 (PF13213)
"Protein of unknown function (DUF4021)"</title>
				<polygon class="PF13213" points="394,40 395,34 395,46" stroke-linejoin="round" width="4" height="24" fill="rgb(89,135,182)" stroke="rgb(71,107,145)" stroke-width="1" opacity="0.75" />
			</g>
		</g>
		<g>
			<title>crtNb_1 (LECGHDDD_00752)
4,4'-diapolycopene oxygenase</title>
			<polygon class="crtNb_1 (LECGHDDD_00752)
4,4'-diapolycopene oxygenase" points="447,25 428,25 428,10 398,40 428,70 428,55 447,55" fill="rgb(255,255,255)" fill-opacity="1.0" stroke="rgb(0,0,0)" stroke-width="2"  />
			<g>
				<title>Amino_oxidase (PF01593)
"Flavin containing amine oxidoreductase"</title>
				<polygon class="PF01593" points="402,40 414,28 445,28 445,52 414,52" stroke-linejoin="round" width="47" height="24" fill="rgb(184,74,52)" stroke="rgb(147,59,41)" stroke-width="1" opacity="0.75" />
			</g>
		</g>
		<g>
			<title> (LECGHDDD_00753)
hypothetical protein</title>
			<polygon class=" (LECGHDDD_00753)
hypothetical protein" points="484,25 477,25 477,10 447,40 477,70 477,55 484,55" fill="rgb(255,255,255)" fill-opacity="1.0" stroke="rgb(0,0,0)" stroke-width="2"  />
			<g>
				<title>Glyco_tranf_2_3 (PF13641)
"Glycosyltransferase like family 2"</title>
				<polygon class="PF13641" points="457,34 463,28 480,28 480,52 463,52 457,46" stroke-linejoin="round" width="23" height="24" fill="rgb(140,74,190)" stroke="rgb(111,59,152)" stroke-width="1" opacity="0.75" />
			</g>
		</g>
		<g>
			<title> (LECGHDDD_00754)
hypothetical protein</title>
			<polygon class=" (LECGHDDD_00754)
hypothetical protein" points="484,40 506,10 506,70" fill="rgb(255,255,255)" fill-opacity="1.0" stroke="rgb(0,0,0)" stroke-width="2"  />
			<g>
				<title>Acyltransferase (PF01553)
"Acyltransferase"</title>
				<polygon class="PF01553" points="490,37 497,28 503,28 503,52 497,52 490,43" stroke-linejoin="round" width="13" height="24" fill="rgb(87,176,216)" stroke="rgb(69,140,172)" stroke-width="1" opacity="0.75" />
			</g>
		</g>
		<g>
			<title> (LECGHDDD_00755)
hypothetical protein</title>
			<polygon class=" (LECGHDDD_00755)
hypothetical protein" points="506,40 531,10 531,70" fill="rgb(255,255,255)" fill-opacity="1.0" stroke="rgb(0,0,0)" stroke-width="2"  />
			<g>
				<title>Caroten_synth (PF04240)
"Carotenoid biosynthesis protein"</title>
				<polygon class="PF04240" points="510,40 520,28 528,28 528,52 520,52" stroke-linejoin="round" width="21" height="24" fill="rgb(65,214,190)" stroke="rgb(52,171,152)" stroke-width="1" opacity="0.75" />
			</g>
		</g>
		<g>
			<title> (LECGHDDD_00756)
hypothetical protein</title>
			<polygon class=" (LECGHDDD_00756)
hypothetical protein" points="535,40 552,10 552,70" fill="rgb(255,255,255)" fill-opacity="1.0" stroke="rgb(0,0,0)" stroke-width="2"  />
			<g>
				<title>DoxX (PF07681)
"DoxX"</title>
				<polygon class="PF07681" points="540,36 545,28 550,28 550,52 545,52 540,44" stroke-linejoin="round" width="10" height="24" fill="rgb(93,188,216)" stroke="rgb(74,150,172)" stroke-width="1" opacity="0.75" />
			</g>
		</g>
		<g>
			<title> (LECGHDDD_00757)
hypothetical protein</title>
			<polygon class=" (LECGHDDD_00757)
hypothetical protein" points="572,10 579,40 572,70" fill="rgb(255,255,255)" fill-opacity="1.0" stroke="rgb(0,0,0)" stroke-width="2"  />
			<g>
				<title>DUF1659 (PF07872)
"Protein of unknown function (DUF1659)"</title>
				<polygon class="PF07872" points="572,28 572,28 576,39 576,41 572,52 572,52" stroke-linejoin="round" width="4" height="24" fill="rgb(172,48,195)" stroke="rgb(137,38,156)" stroke-width="1" opacity="0.75" />
			</g>
		</g>
		<g>
			<title> (LECGHDDD_00758)
hypothetical protein</title>
			<polygon class=" (LECGHDDD_00758)
hypothetical protein" points="580,10 587,40 580,70" fill="rgb(255,255,255)" fill-opacity="1.0" stroke="rgb(0,0,0)" stroke-width="2"  />
			<g>
				<title>DUF2922 (PF11148)
"Protein of unknown function (DUF2922)"</title>
				<polygon class="PF11148" points="580,28 580,28 584,40 580,52 580,52" stroke-linejoin="round" width="6" height="24" fill="rgb(196,220,80)" stroke="rgb(156,176,64)" stroke-width="1" opacity="0.75" />
			</g>
		</g>
		<g>
			<title> (LECGHDDD_00759)
hypothetical protein</title>
			<polygon class=" (LECGHDDD_00759)
hypothetical protein" points="596,10 601,40 596,70" fill="rgb(255,255,255)" fill-opacity="1.0" stroke="rgb(0,0,0)" stroke-width="2"  />
			<g>
				<title>YvrJ (PF12841)
"YvrJ protein family"</title>
				<polygon class="PF12841" points="596,29 597,40 596,51" stroke-linejoin="round" width="3" height="24" fill="rgb(207,53,76)" stroke="rgb(165,42,60)" stroke-width="1" opacity="0.75" />
			</g>
		</g>
		<g>
			<title>sipT (LECGHDDD_00760)
Signal peptidase I T</title>
			<polygon class="sipT (LECGHDDD_00760)
Signal peptidase I T" points="603,40 620,10 620,70" fill="rgb(255,255,255)" fill-opacity="1.0" stroke="rgb(0,0,0)" stroke-width="2"  />
			<g>
				<title>Peptidase_S24 (PF00717)
"Peptidase S24-like"</title>
				<polygon class="PF00717" points="610,33 613,28 616,28 616,52 613,52 610,47" stroke-linejoin="round" width="6" height="24" fill="rgb(180,76,105)" stroke="rgb(144,60,83)" stroke-width="1" opacity="0.75" />
			</g>
		</g>
		<g>
			<title> (LECGHDDD_00761)
hypothetical protein</title>
			<polygon class=" (LECGHDDD_00761)
hypothetical protein" points="630,10 635,40 630,70" fill="rgb(255,255,255)" fill-opacity="1.0" stroke="rgb(0,0,0)" stroke-width="2"  />
			<g>
				<title>SpoOE-like (PF09388)
"Spo0E like sporulation regulatory protein"</title>
				<polygon class="PF09388" points="631,32 632,40 631,48" stroke-linejoin="round" width="4" height="24" fill="rgb(188,111,63)" stroke="rgb(150,88,50)" stroke-width="1" opacity="0.75" />
			</g>
		</g>
	</g>
</svg>
