<svg version="1.1" baseProfile="full" xmlns="http://www.w3.org/2000/svg" width="173.76666666666668" height="80">
	<g>
		<line x1="10" y1="40.0" x2="163.76666666666668" y2="40.0" style="stroke:rgb(70,70,70); stroke-width:3 "/>
		<g>
			<title>crtN (PLNGCNKA_00483)
4,4'-diapophytoene desaturase (4,4'-diapolycopene-forming)</title>
			<polygon class="crtN (PLNGCNKA_00483)
4,4'-diapophytoene desaturase (4,4'-diapolycopene-forming)" points="10,10 36,40 10,70" fill="rgb(255,255,255)" fill-opacity="1.0" stroke="rgb(0,0,0)" stroke-width="2"  />
			<g>
				<title>Amino_oxidase (PF01593)
"Flavin containing amine oxidoreductase"</title>
				<polygon class="PF01593" points="10,28 21,28 32,40 21,52 10,52" stroke-linejoin="round" width="25" height="24" fill="rgb(184,74,52)" stroke="rgb(147,59,41)" stroke-width="1" opacity="0.75" />
			</g>
		</g>
		<g>
			<title>crtNc (PLNGCNKA_00484)
4,4'-diapolycopen-4-al dehydrogenase</title>
			<polygon class="crtNc (PLNGCNKA_00484)
4,4'-diapolycopen-4-al dehydrogenase" points="37,25 56,25 56,10 86,40 56,70 56,55 37,55" fill="rgb(255,255,255)" fill-opacity="1.0" stroke="rgb(0,0,0)" stroke-width="2"  />
			<g>
				<title>Amino_oxidase (PF01593)
"Flavin containing amine oxidoreductase"</title>
				<polygon class="PF01593" points="38,28 70,28 82,40 70,52 38,52" stroke-linejoin="round" width="46" height="24" fill="rgb(184,74,52)" stroke="rgb(147,59,41)" stroke-width="1" opacity="0.75" />
			</g>
		</g>
		<g>
			<title>crtB (PLNGCNKA_00485)
15-cis-phytoene synthase</title>
			<polygon class="crtB (PLNGCNKA_00485)
15-cis-phytoene synthase" points="86,10 113,40 86,70" fill="rgb(255,255,255)" fill-opacity="1.0" stroke="rgb(0,0,0)" stroke-width="2"  />
			<g>
				<title>SQS_PSY (PF00494)
"Squalene/phytoene synthase"</title>
				<polygon class="PF00494" points="87,28 98,28 109,40 98,52 87,52" stroke-linejoin="round" width="25" height="24" fill="rgb(178,91,49)" stroke="rgb(142,72,39)" stroke-width="1" opacity="0.75" />
			</g>
		</g>
		<g>
			<title>crtNb_1 (PLNGCNKA_00486)
4,4'-diapolycopene oxygenase</title>
			<polygon class="crtNb_1 (PLNGCNKA_00486)
4,4'-diapolycopene oxygenase" points="161,25 146,25 146,10 116,40 146,70 146,55 161,55" fill="rgb(255,255,255)" fill-opacity="1.0" stroke="rgb(0,0,0)" stroke-width="2"  />
			<g>
				<title>Amino_oxidase (PF01593)
"Flavin containing amine oxidoreductase"</title>
				<polygon class="PF01593" points="120,40 132,28 160,28 160,52 132,52" stroke-linejoin="round" width="44" height="24" fill="rgb(184,74,52)" stroke="rgb(147,59,41)" stroke-width="1" opacity="0.75" />
			</g>
		</g>
	</g>
</svg>
