<svg version="1.1" baseProfile="full" xmlns="http://www.w3.org/2000/svg" width="749.2666666666667" height="80">
	<g>
		<line x1="10" y1="40.0" x2="739.2666666666667" y2="40.0" style="stroke:rgb(70,70,70); stroke-width:3 "/>
		<g>
			<title>mdeA (OKCGIKJE_03442)
L-methionine gamma-lyase</title>
			<polygon class="mdeA (OKCGIKJE_03442)
L-methionine gamma-lyase" points="11,25 20,25 20,10 50,40 20,70 20,55 11,55" fill="rgb(255,255,255)" fill-opacity="1.0" stroke="rgb(0,0,0)" stroke-width="2"  />
			<g>
				<title>Cys_Met_Meta_PP (PF01053)
"Cys/Met metabolism PLP-dependent enzyme"</title>
				<polygon class="PF01053" points="12,28 34,28 46,40 34,52 12,52" stroke-linejoin="round" width="37" height="24" fill="rgb(142,222,85)" stroke="rgb(113,177,67)" stroke-width="1" opacity="0.75" />
			</g>
		</g>
		<g>
			<title>nhaC_3 (OKCGIKJE_03443)
Na(+)/H(+) antiporter NhaC</title>
			<polygon class="nhaC_3 (OKCGIKJE_03443)
Na(+)/H(+) antiporter NhaC" points="52,25 70,25 70,10 100,40 70,70 70,55 52,55" fill="rgb(255,255,255)" fill-opacity="1.0" stroke="rgb(0,0,0)" stroke-width="2"  />
			<g>
				<title>Na_H_antiporter (PF03553)
"Na+/H+ antiporter family"</title>
				<polygon class="PF03553" points="68,28 84,28 96,40 84,52 68,52" stroke-linejoin="round" width="29" height="24" fill="rgb(115,72,216)" stroke="rgb(91,57,172)" stroke-width="1" opacity="0.75" />
			</g>
		</g>
		<g>
			<title> (OKCGIKJE_03444)
hypothetical protein</title>
			<polygon class=" (OKCGIKJE_03444)
hypothetical protein" points="159,25 136,25 136,10 106,40 136,70 136,55 159,55" fill="rgb(255,255,255)" fill-opacity="1.0" stroke="rgb(0,0,0)" stroke-width="2"  />
			<g>
				<title>NAGPA (PF09992)
"Phosphodiester glycosidase"</title>
				<polygon class="PF09992" points="110,40 122,28 125,28 125,52 122,52" stroke-linejoin="round" width="19" height="24" fill="rgb(174,75,205)" stroke="rgb(139,60,164)" stroke-width="1" opacity="0.75" />
			</g>
			<g>
				<title>SPOR (PF05036)
"Sporulation related domain"</title>
				<rect class="PF05036" x="141" y="28" stroke-linejoin="round" width="4" height="24" fill="rgb(173,203,80)" stroke="rgb(138,162,64)" stroke-width="1" opacity="0.75" />
			</g>
		</g>
		<g>
			<title>citS_2 (OKCGIKJE_03445)
Citrate-sodium symporter</title>
			<polygon class="citS_2 (OKCGIKJE_03445)
Citrate-sodium symporter" points="209,25 195,25 195,10 165,40 195,70 195,55 209,55" fill="rgb(255,255,255)" fill-opacity="1.0" stroke="rgb(0,0,0)" stroke-width="2"  />
			<g>
				<title>2HCT (PF03390)
"2-hydroxycarboxylate transporter family"</title>
				<polygon class="PF03390" points="169,40 181,28 205,28 205,52 181,52" stroke-linejoin="round" width="40" height="24" fill="rgb(192,160,88)" stroke="rgb(153,128,70)" stroke-width="1" opacity="0.75" />
			</g>
		</g>
		<g>
			<title> (OKCGIKJE_03446)
NAD-dependent malic enzyme</title>
			<polygon class=" (OKCGIKJE_03446)
NAD-dependent malic enzyme" points="249,25 240,25 240,10 210,40 240,70 240,55 249,55" fill="rgb(255,255,255)" fill-opacity="1.0" stroke="rgb(0,0,0)" stroke-width="2"  />
			<g>
				<title>Malic_M (PF03949)
"Malic enzyme, NAD binding domain"</title>
				<polygon class="PF03949" points="214,40 226,28 232,28 232,52 226,52" stroke-linejoin="round" width="22" height="24" fill="rgb(222,99,188)" stroke="rgb(177,79,150)" stroke-width="1" opacity="0.75" />
			</g>
			<g>
				<title>malic (PF00390)
"Malic enzyme, N-terminal domain"</title>
				<rect class="PF00390" x="234" y="28" stroke-linejoin="round" width="13" height="24" fill="rgb(127,46,186)" stroke="rgb(101,36,148)" stroke-width="1" opacity="0.75" />
			</g>
		</g>
		<g>
			<title>dcuR (OKCGIKJE_03447)
Transcriptional regulatory protein DcuR</title>
			<polygon class="dcuR (OKCGIKJE_03447)
Transcriptional regulatory protein DcuR" points="260,40 283,10 283,70" fill="rgb(255,255,255)" fill-opacity="1.0" stroke="rgb(0,0,0)" stroke-width="2"  />
			<g>
				<title>HTH_11 (PF08279)
"HTH domain"</title>
				<polygon class="PF08279" points="264,40 266,37 266,43" stroke-linejoin="round" width="5" height="24" fill="rgb(188,106,60)" stroke="rgb(150,84,48)" stroke-width="1" opacity="0.75" />
			</g>
			<g>
				<title>Response_reg (PF00072)
"Response regulator receiver domain"</title>
				<polygon class="PF00072" points="271,31 273,28 282,28 282,52 273,52 271,49" stroke-linejoin="round" width="11" height="24" fill="rgb(100,107,203)" stroke="rgb(80,85,162)" stroke-width="1" opacity="0.75" />
			</g>
		</g>
		<g>
			<title>dcuS (OKCGIKJE_03448)
Sensor histidine kinase DcuS</title>
			<polygon class="dcuS (OKCGIKJE_03448)
Sensor histidine kinase DcuS" points="337,25 314,25 314,10 284,40 314,70 314,55 337,55" fill="rgb(255,255,255)" fill-opacity="1.0" stroke="rgb(0,0,0)" stroke-width="2"  />
			<g>
				<title>HATPase_c (PF02518)
"Histidine kinase-, DNA gyrase B-, and HSP90-like ATPase"</title>
				<polygon class="PF02518" points="288,40 294,34 294,46" stroke-linejoin="round" width="10" height="24" fill="rgb(80,94,225)" stroke="rgb(64,75,180)" stroke-width="1" opacity="0.75" />
			</g>
			<g>
				<title>SPOB_a (PF14689)
"Sensor_kinase_SpoOB-type, alpha-helical domain"</title>
				<polygon class="PF14689" points="299,29 300,28 305,28 305,52 300,52 299,51" stroke-linejoin="round" width="6" height="24" fill="rgb(215,217,87)" stroke="rgb(172,173,69)" stroke-width="1" opacity="0.75" />
			</g>
			<g>
				<title>PAS (PF00989)
"PAS fold"</title>
				<rect class="PF00989" x="306" y="28" stroke-linejoin="round" width="10" height="24" fill="rgb(205,221,64)" stroke="rgb(164,176,51)" stroke-width="1" opacity="0.75" />
			</g>
			<g>
				<title>sCache_3_2 (PF17203)
"Single cache domain 3"</title>
				<rect class="PF17203" x="320" y="28" stroke-linejoin="round" width="13" height="24" fill="rgb(209,153,67)" stroke="rgb(167,122,53)" stroke-width="1" opacity="0.75" />
			</g>
		</g>
		<g>
			<title>sqhC (OKCGIKJE_03449)
Sporulenol synthase</title>
			<polygon class="sqhC (OKCGIKJE_03449)
Sporulenol synthase" points="343,25 375,25 375,10 405,40 375,70 375,55 343,55" fill="rgb(255,255,255)" fill-opacity="1.0" stroke="rgb(0,0,0)" stroke-width="2"  />
			<g>
				<title>SQHop_cyclase_N (PF13249)
"Squalene-hopene cyclase N-terminal domain"</title>
				<rect class="PF13249" x="343" y="28" stroke-linejoin="round" width="28" height="24" fill="rgb(88,190,89)" stroke="rgb(70,152,71)" stroke-width="1" opacity="0.75" />
			</g>
			<g>
				<title>SQHop_cyclase_C (PF13243)
"Squalene-hopene cyclase C-terminal domain"</title>
				<polygon class="PF13243" points="373,28 389,28 401,40 389,52 373,52" stroke-linejoin="round" width="31" height="24" fill="rgb(191,58,201)" stroke="rgb(152,46,160)" stroke-width="1" opacity="0.75" />
			</g>
		</g>
		<g>
			<title>yhfK_2 (OKCGIKJE_03450)
putative sugar epimerase YhfK</title>
			<polygon class="yhfK_2 (OKCGIKJE_03450)
putative sugar epimerase YhfK" points="407,40 428,10 428,70" fill="rgb(255,255,255)" fill-opacity="1.0" stroke="rgb(0,0,0)" stroke-width="2"  />
			<g>
				<title>NAD_binding_10 (PF13460)
"NAD(P)H-binding"</title>
				<polygon class="PF13460" points="411,40 420,28 427,28 427,52 420,52" stroke-linejoin="round" width="18" height="24" fill="rgb(188,201,78)" stroke="rgb(150,160,62)" stroke-width="1" opacity="0.75" />
			</g>
		</g>
		<g>
			<title> (OKCGIKJE_03451)
Putative aldehyde dehydrogenase</title>
			<polygon class=" (OKCGIKJE_03451)
Putative aldehyde dehydrogenase" points="481,25 464,25 464,10 434,40 464,70 464,55 481,55" fill="rgb(255,255,255)" fill-opacity="1.0" stroke="rgb(0,0,0)" stroke-width="2"  />
			<g>
				<title>Aldedh (PF00171)
"Aldehyde dehydrogenase family"</title>
				<polygon class="PF00171" points="438,40 450,28 479,28 479,52 450,52" stroke-linejoin="round" width="45" height="24" fill="rgb(105,213,139)" stroke="rgb(84,170,111)" stroke-width="1" opacity="0.75" />
			</g>
		</g>
		<g>
			<title>dkgB (OKCGIKJE_03452)
2,5-diketo-D-gluconic acid reductase B</title>
			<polygon class="dkgB (OKCGIKJE_03452)
2,5-diketo-D-gluconic acid reductase B" points="489,40 517,10 517,70" fill="rgb(255,255,255)" fill-opacity="1.0" stroke="rgb(0,0,0)" stroke-width="2"  />
			<g>
				<title>Aldo_ket_red (PF00248)
"Aldo/keto reductase family"</title>
				<polygon class="PF00248" points="493,40 504,28 514,28 514,52 504,52" stroke-linejoin="round" width="24" height="24" fill="rgb(225,205,58)" stroke="rgb(180,164,46)" stroke-width="1" opacity="0.75" />
			</g>
		</g>
		<g>
			<title>fda (OKCGIKJE_03453)
Fructose-bisphosphate aldolase class 1</title>
			<polygon class="fda (OKCGIKJE_03453)
Fructose-bisphosphate aldolase class 1" points="525,10 554,40 525,70" fill="rgb(255,255,255)" fill-opacity="1.0" stroke="rgb(0,0,0)" stroke-width="2"  />
			<g>
				<title>Glycolytic (PF00274)
"Fructose-bisphosphate aldolase class-I"</title>
				<polygon class="PF00274" points="525,28 538,28 547,37 547,43 538,52 525,52" stroke-linejoin="round" width="22" height="24" fill="rgb(79,181,68)" stroke="rgb(63,144,54)" stroke-width="1" opacity="0.75" />
			</g>
		</g>
		<g>
			<title>nfo_2 (OKCGIKJE_03454)
putative endonuclease 4</title>
			<polygon class="nfo_2 (OKCGIKJE_03454)
putative endonuclease 4" points="555,40 583,10 583,70" fill="rgb(255,255,255)" fill-opacity="1.0" stroke="rgb(0,0,0)" stroke-width="2"  />
			<g>
				<title>AP_endonuc_2 (PF01261)
"Xylose isomerase-like TIM barrel"</title>
				<polygon class="PF01261" points="559,40 570,28 580,28 580,52 570,52 559,40" stroke-linejoin="round" width="21" height="24" fill="rgb(69,222,207)" stroke="rgb(55,177,165)" stroke-width="1" opacity="0.75" />
			</g>
		</g>
		<g>
			<title> (OKCGIKJE_03455)
hypothetical protein</title>
			<polygon class=" (OKCGIKJE_03455)
hypothetical protein" points="590,40 603,10 603,70" fill="rgb(255,255,255)" fill-opacity="1.0" stroke="rgb(0,0,0)" stroke-width="2"  />
		</g>
		<g>
			<title> (OKCGIKJE_03456)
hypothetical protein</title>
			<polygon class=" (OKCGIKJE_03456)
hypothetical protein" points="612,40 629,10 629,70" fill="rgb(255,255,255)" fill-opacity="1.0" stroke="rgb(0,0,0)" stroke-width="2"  />
		</g>
		<g>
			<title> (OKCGIKJE_03457)
hypothetical protein</title>
			<polygon class=" (OKCGIKJE_03457)
hypothetical protein" points="633,40 662,10 662,70" fill="rgb(255,255,255)" fill-opacity="1.0" stroke="rgb(0,0,0)" stroke-width="2"  />
			<g>
				<title>VanW (PF04294)
"VanW like protein"</title>
				<polygon class="PF04294" points="637,40 647,30 647,50" stroke-linejoin="round" width="12" height="24" fill="rgb(52,93,183)" stroke="rgb(41,74,146)" stroke-width="1" opacity="0.75" />
			</g>
			<g>
				<title>PG_binding_4 (PF12229)
"Putative peptidoglycan binding domain"</title>
				<rect class="PF12229" x="651" y="28" stroke-linejoin="round" width="9" height="24" fill="rgb(140,107,215)" stroke="rgb(112,85,172)" stroke-width="1" opacity="0.75" />
			</g>
		</g>
		<g>
			<title>panF_4 (OKCGIKJE_03458)
Sodium/pantothenate symporter</title>
			<polygon class="panF_4 (OKCGIKJE_03458)
Sodium/pantothenate symporter" points="723,25 701,25 701,10 671,40 701,70 701,55 723,55" fill="rgb(255,255,255)" fill-opacity="1.0" stroke="rgb(0,0,0)" stroke-width="2"  />
			<g>
				<title>SSF (PF00474)
"Sodium:solute symporter family"</title>
				<polygon class="PF00474" points="679,36 687,28 719,28 719,52 687,52 679,44" stroke-linejoin="round" width="40" height="24" fill="rgb(49,186,178)" stroke="rgb(39,148,142)" stroke-width="1" opacity="0.75" />
			</g>
		</g>
		<g>
			<title> (OKCGIKJE_03459)
hypothetical protein</title>
			<polygon class=" (OKCGIKJE_03459)
hypothetical protein" points="723,40 728,10 728,70" fill="rgb(255,255,255)" fill-opacity="1.0" stroke="rgb(0,0,0)" stroke-width="2"  />
		</g>
	</g>
</svg>
