<svg version="1.1" baseProfile="full" xmlns="http://www.w3.org/2000/svg" width="366.43333333333334" height="80">
	<g>
		<line x1="10" y1="40.0" x2="356.43333333333334" y2="40.0" style="stroke:rgb(70,70,70); stroke-width:3 "/>
		<g>
			<title>mtlA (BBLBDBLI_03133)
PTS system mannitol-specific EIICB component</title>
			<polygon class="mtlA (BBLBDBLI_03133)
PTS system mannitol-specific EIICB component" points="94,25 64,25 64,10 34,40 64,70 64,55 94,55" fill="rgb(255,255,255)" fill-opacity="1.0" stroke="rgb(0,0,0)" stroke-width="2"  />
			<g>
				<title>PTS_IIB (PF02302)
"PTS system, Lactose/Cellobiose specific IIB subunit"</title>
				<polygon class="PF02302" points="38,40 42,36 42,44" stroke-linejoin="round" width="8" height="24" fill="rgb(106,212,56)" stroke="rgb(84,169,44)" stroke-width="1" opacity="0.75" />
			</g>
			<g>
				<title>PTS_IIB (PF02302)
"PTS system, Lactose/Cellobiose specific IIB subunit"</title>
				<polygon class="PF02302" points="46,32 50,28 54,28 54,52 50,52 46,48" stroke-linejoin="round" width="8" height="24" fill="rgb(106,212,56)" stroke="rgb(84,169,44)" stroke-width="1" opacity="0.75" />
			</g>
			<g>
				<title>PTS_EIIC (PF02378)
"Phosphotransferase system, EIIC"</title>
				<rect class="PF02378" x="66" y="28" stroke-linejoin="round" width="26" height="24" fill="rgb(73,199,212)" stroke="rgb(58,159,169)" stroke-width="1" opacity="0.75" />
			</g>
		</g>
		<g>
			<title>ectA (BBLBDBLI_03134)
L-2,4-diaminobutyric acid acetyltransferase</title>
			<polygon class="ectA (BBLBDBLI_03134)
L-2,4-diaminobutyric acid acetyltransferase" points="111,10 129,40 111,70" fill="rgb(255,255,255)" fill-opacity="1.0" stroke="rgb(0,0,0)" stroke-width="2"  />
			<g>
				<title>Acetyltransf_1 (PF00583)
"Acetyltransferase (GNAT) family"</title>
				<polygon class="PF00583" points="115,28 118,28 126,40 126,40 118,52 115,52" stroke-linejoin="round" width="11" height="24" fill="rgb(121,183,50)" stroke="rgb(96,146,39)" stroke-width="1" opacity="0.75" />
			</g>
		</g>
		<g>
			<title>ectB (BBLBDBLI_03135)
Diaminobutyrate--2-oxoglutarate transaminase</title>
			<polygon class="ectB (BBLBDBLI_03135)
Diaminobutyrate--2-oxoglutarate transaminase" points="131,25 143,25 143,10 173,40 143,70 143,55 131,55" fill="rgb(255,255,255)" fill-opacity="1.0" stroke="rgb(0,0,0)" stroke-width="2"  />
			<g>
				<title>Aminotran_3 (PF00202)
"Aminotransferase class-III"</title>
				<polygon class="PF00202" points="132,28 157,28 169,40 157,52 132,52" stroke-linejoin="round" width="39" height="24" fill="rgb(49,163,189)" stroke="rgb(39,130,151)" stroke-width="1" opacity="0.75" />
			</g>
		</g>
		<g>
			<title>ectC (BBLBDBLI_03136)
L-ectoine synthase</title>
			<polygon class="ectC (BBLBDBLI_03136)
L-ectoine synthase" points="176,10 189,40 176,70" fill="rgb(255,255,255)" fill-opacity="1.0" stroke="rgb(0,0,0)" stroke-width="2"  />
			<g>
				<title>Ectoine_synth (PF06339)
"Ectoine synthase"</title>
				<polygon class="PF06339" points="176,28 180,28 185,40 180,52 176,52" stroke-linejoin="round" width="12" height="24" fill="rgb(225,176,81)" stroke="rgb(180,140,64)" stroke-width="1" opacity="0.75" />
			</g>
		</g>
		<g>
			<title> (BBLBDBLI_03137)
hypothetical protein</title>
			<polygon class=" (BBLBDBLI_03137)
hypothetical protein" points="195,10 209,40 195,70" fill="rgb(255,255,255)" fill-opacity="1.0" stroke="rgb(0,0,0)" stroke-width="2"  />
			<g>
				<title>Glyoxalase (PF00903)
"Glyoxalase/Bleomycin resistance protein/Dioxygenase superfamily"</title>
				<polygon class="PF00903" points="195,28 199,28 205,40 199,52 195,52" stroke-linejoin="round" width="11" height="24" fill="rgb(50,162,189)" stroke="rgb(40,129,151)" stroke-width="1" opacity="0.75" />
			</g>
		</g>
		<g>
			<title> (BBLBDBLI_03138)
hypothetical protein</title>
			<polygon class=" (BBLBDBLI_03138)
hypothetical protein" points="209,40 212,10 212,70" fill="rgb(255,255,255)" fill-opacity="1.0" stroke="rgb(0,0,0)" stroke-width="2"  />
		</g>
		<g>
			<title> (BBLBDBLI_03139)
hypothetical protein</title>
			<polygon class=" (BBLBDBLI_03139)
hypothetical protein" points="222,40 226,10 226,70" fill="rgb(255,255,255)" fill-opacity="1.0" stroke="rgb(0,0,0)" stroke-width="2"  />
			<g>
				<title>YpzI (PF14140)
"YpzI-like protein"</title>
				<polygon class="PF14140" points="225,40 226,33 226,47" stroke-linejoin="round" width="4" height="24" fill="rgb(68,123,191)" stroke="rgb(54,98,152)" stroke-width="1" opacity="0.75" />
			</g>
		</g>
		<g>
			<title> (BBLBDBLI_03140)
hypothetical protein</title>
			<polygon class=" (BBLBDBLI_03140)
hypothetical protein" points="230,40 252,10 252,70" fill="rgb(255,255,255)" fill-opacity="1.0" stroke="rgb(0,0,0)" stroke-width="2"  />
			<g>
				<title>Diphthami_syn_2 (PF01902)
"Diphthamide synthase"</title>
				<polygon class="PF01902" points="234,40 243,28 251,28 251,52 243,52" stroke-linejoin="round" width="21" height="24" fill="rgb(96,162,208)" stroke="rgb(76,129,166)" stroke-width="1" opacity="0.75" />
			</g>
		</g>
		<g>
			<title>ykoF (BBLBDBLI_03141)
Putative HMP/thiamine-binding protein YkoF</title>
			<polygon class="ykoF (BBLBDBLI_03141)
Putative HMP/thiamine-binding protein YkoF" points="287,10 307,40 287,70" fill="rgb(255,255,255)" fill-opacity="1.0" stroke="rgb(0,0,0)" stroke-width="2"  />
			<g>
				<title>Ykof (PF07615)
"YKOF-related Family"</title>
				<rect class="PF07615" x="288" y="28" stroke-linejoin="round" width="7" height="24" fill="rgb(88,198,165)" stroke="rgb(70,158,132)" stroke-width="1" opacity="0.75" />
			</g>
			<g>
				<title>Ykof (PF07615)
"YKOF-related Family"</title>
				<polygon class="PF07615" points="298,32 303,40 298,48" stroke-linejoin="round" width="8" height="24" fill="rgb(88,198,165)" stroke="rgb(70,158,132)" stroke-width="1" opacity="0.75" />
			</g>
		</g>
		<g>
			<title>ykoE (BBLBDBLI_03142)
Putative HMP/thiamine permease protein YkoE</title>
			<polygon class="ykoE (BBLBDBLI_03142)
Putative HMP/thiamine permease protein YkoE" points="307,10 326,40 307,70" fill="rgb(255,255,255)" fill-opacity="1.0" stroke="rgb(0,0,0)" stroke-width="2"  />
			<g>
				<title>ABC_cobalt (PF09819)
"ABC-type cobalt transport system, permease component"</title>
				<polygon class="PF09819" points="307,28 315,28 318,33 318,47 315,52 307,52" stroke-linejoin="round" width="11" height="24" fill="rgb(207,68,78)" stroke="rgb(165,54,62)" stroke-width="1" opacity="0.75" />
			</g>
		</g>
	</g>
</svg>
