<svg version="1.1" baseProfile="full" xmlns="http://www.w3.org/2000/svg" width="1389.5333333333333" height="80">
	<g>
		<line x1="10" y1="40.0" x2="1379.5333333333333" y2="40.0" style="stroke:rgb(70,70,70); stroke-width:3 "/>
		<g>
			<title>dnaD (DLMDDBDI_02153)
DNA replication protein DnaD</title>
			<polygon class="dnaD (DLMDDBDI_02153)
DNA replication protein DnaD" points="18,10 41,40 18,70" fill="rgb(255,255,255)" fill-opacity="1.0" stroke="rgb(0,0,0)" stroke-width="2"  />
			<g>
				<title>DnaB_2 (PF07261)
"Replication initiation and membrane attachment"</title>
				<polygon class="PF07261" points="30,31 37,40 37,40 30,49" stroke-linejoin="round" width="7" height="24" fill="rgb(136,193,85)" stroke="rgb(108,154,68)" stroke-width="1" opacity="0.75" />
			</g>
		</g>
		<g>
			<title>nth (DLMDDBDI_02154)
Endonuclease III</title>
			<polygon class="nth (DLMDDBDI_02154)
Endonuclease III" points="42,10 63,40 42,70" fill="rgb(255,255,255)" fill-opacity="1.0" stroke="rgb(0,0,0)" stroke-width="2"  />
			<g>
				<title>HhH-GPD (PF00730)
"HhH-GPD superfamily base excision DNA repair protein"</title>
				<polygon class="PF00730" points="45,28 51,28 58,38 58,42 51,52 45,52" stroke-linejoin="round" width="13" height="24" fill="rgb(190,78,115)" stroke="rgb(152,62,92)" stroke-width="1" opacity="0.75" />
			</g>
		</g>
		<g>
			<title>ponA (DLMDDBDI_02155)
Penicillin-binding protein 1A/1B</title>
			<polygon class="ponA (DLMDDBDI_02155)
Penicillin-binding protein 1A/1B" points="154,25 95,25 95,10 65,40 95,70 95,55 154,55" fill="rgb(255,255,255)" fill-opacity="1.0" stroke="rgb(0,0,0)" stroke-width="2"  />
			<g>
				<title>fn3 (PF00041)
"Fibronectin type III domain"</title>
				<polygon class="PF00041" points="78,31 81,28 85,28 85,52 81,52 78,49" stroke-linejoin="round" width="7" height="24" fill="rgb(203,70,135)" stroke="rgb(162,56,107)" stroke-width="1" opacity="0.75" />
			</g>
			<g>
				<title>Transpeptidase (PF00905)
"Penicillin binding protein transpeptidase domain"</title>
				<rect class="PF00905" x="92" y="28" stroke-linejoin="round" width="27" height="24" fill="rgb(161,226,87)" stroke="rgb(128,180,69)" stroke-width="1" opacity="0.75" />
			</g>
			<g>
				<title>Transgly (PF00912)
"Transglycosylase"</title>
				<rect class="PF00912" x="129" y="28" stroke-linejoin="round" width="17" height="24" fill="rgb(172,107,216)" stroke="rgb(137,85,172)" stroke-width="1" opacity="0.75" />
			</g>
		</g>
		<g>
			<title>recU (DLMDDBDI_02156)
Holliday junction resolvase RecU</title>
			<polygon class="recU (DLMDDBDI_02156)
Holliday junction resolvase RecU" points="155,40 174,10 174,70" fill="rgb(255,255,255)" fill-opacity="1.0" stroke="rgb(0,0,0)" stroke-width="2"  />
			<g>
				<title>RecU (PF03838)
"Recombination protein U"</title>
				<polygon class="PF03838" points="159,40 167,28 171,28 171,52 167,52" stroke-linejoin="round" width="16" height="24" fill="rgb(93,204,83)" stroke="rgb(74,163,66)" stroke-width="1" opacity="0.75" />
			</g>
		</g>
		<g>
			<title> (DLMDDBDI_02157)
hypothetical protein</title>
			<polygon class=" (DLMDDBDI_02157)
hypothetical protein" points="184,40 187,10 187,70" fill="rgb(255,255,255)" fill-opacity="1.0" stroke="rgb(0,0,0)" stroke-width="2"  />
		</g>
		<g>
			<title> (DLMDDBDI_02158)
hypothetical protein</title>
			<polygon class=" (DLMDDBDI_02158)
hypothetical protein" points="192,10 200,40 192,70" fill="rgb(255,255,255)" fill-opacity="1.0" stroke="rgb(0,0,0)" stroke-width="2"  />
		</g>
		<g>
			<title> (DLMDDBDI_02159)
hypothetical protein</title>
			<polygon class=" (DLMDDBDI_02159)
hypothetical protein" points="202,10 214,40 202,70" fill="rgb(255,255,255)" fill-opacity="1.0" stroke="rgb(0,0,0)" stroke-width="2"  />
			<g>
				<title>DUF1798 (PF08807)
"Bacterial domain of unknown function (DUF1798)"</title>
				<polygon class="PF08807" points="203,28 205,28 210,40 205,52 203,52" stroke-linejoin="round" width="10" height="24" fill="rgb(153,201,81)" stroke="rgb(122,160,64)" stroke-width="1" opacity="0.75" />
			</g>
		</g>
		<g>
			<title>ttgH (DLMDDBDI_02160)
Toluene efflux pump membrane transporter TtgH</title>
			<polygon class="ttgH (DLMDDBDI_02160)
Toluene efflux pump membrane transporter TtgH" points="317,25 245,25 245,10 215,40 245,70 245,55 317,55" fill="rgb(255,255,255)" fill-opacity="1.0" stroke="rgb(0,0,0)" stroke-width="2"  />
			<g>
				<title>ACR_tran (PF00873)
"AcrB/AcrD/AcrF family"</title>
				<polygon class="PF00873" points="219,40 231,28 316,28 316,52 231,52" stroke-linejoin="round" width="101" height="24" fill="rgb(63,191,60)" stroke="rgb(50,152,48)" stroke-width="1" opacity="0.75" />
			</g>
		</g>
		<g>
			<title>cdd (DLMDDBDI_02161)
Cytidine deaminase</title>
			<polygon class="cdd (DLMDDBDI_02161)
Cytidine deaminase" points="323,10 336,40 323,70" fill="rgb(255,255,255)" fill-opacity="1.0" stroke="rgb(0,0,0)" stroke-width="2"  />
			<g>
				<title>dCMP_cyt_deam_1 (PF00383)
"Cytidine and deoxycytidylate deaminase zinc-binding region"</title>
				<polygon class="PF00383" points="323,28 327,28 333,40 333,40 327,52 323,52" stroke-linejoin="round" width="10" height="24" fill="rgb(91,149,216)" stroke="rgb(72,119,172)" stroke-width="1" opacity="0.75" />
			</g>
		</g>
		<g>
			<title> (DLMDDBDI_02162)
hypothetical protein</title>
			<polygon class=" (DLMDDBDI_02162)
hypothetical protein" points="343,10 362,40 343,70" fill="rgb(255,255,255)" fill-opacity="1.0" stroke="rgb(0,0,0)" stroke-width="2"  />
			<g>
				<title>Spore-coat_CotD (PF11122)
"Inner spore coat protein D"</title>
				<polygon class="PF11122" points="344,28 351,28 359,40 351,52 344,52" stroke-linejoin="round" width="17" height="24" fill="rgb(221,153,69)" stroke="rgb(176,122,55)" stroke-width="1" opacity="0.75" />
			</g>
		</g>
		<g>
			<title> (DLMDDBDI_02163)
hypothetical protein</title>
			<polygon class=" (DLMDDBDI_02163)
hypothetical protein" points="366,10 384,40 366,70" fill="rgb(255,255,255)" fill-opacity="1.0" stroke="rgb(0,0,0)" stroke-width="2"  />
			<g>
				<title>YpsA (PF06908)
"YspA SLOG family"</title>
				<polygon class="PF06908" points="366,28 373,28 381,40 373,52 366,52" stroke-linejoin="round" width="16" height="24" fill="rgb(136,100,209)" stroke="rgb(108,80,167)" stroke-width="1" opacity="0.75" />
			</g>
		</g>
		<g>
			<title>gpsB (DLMDDBDI_02164)
Cell cycle protein GpsB</title>
			<polygon class="gpsB (DLMDDBDI_02164)
Cell cycle protein GpsB" points="387,10 397,40 387,70" fill="rgb(255,255,255)" fill-opacity="1.0" stroke="rgb(0,0,0)" stroke-width="2"  />
			<g>
				<title>DivIVA (PF05103)
"DivIVA protein"</title>
				<polygon class="PF05103" points="387,28 389,28 393,37 393,43 389,52 387,52" stroke-linejoin="round" width="6" height="24" fill="rgb(213,106,117)" stroke="rgb(170,84,93)" stroke-width="1" opacity="0.75" />
			</g>
		</g>
		<g>
			<title>rlmL (DLMDDBDI_02165)
Ribosomal RNA large subunit methyltransferase L</title>
			<polygon class="rlmL (DLMDDBDI_02165)
Ribosomal RNA large subunit methyltransferase L" points="417,25 426,25 426,10 456,40 426,70 426,55 417,55" fill="rgb(255,255,255)" fill-opacity="1.0" stroke="rgb(0,0,0)" stroke-width="2"  />
			<g>
				<title>THUMP (PF02926)
"THUMP domain"</title>
				<rect class="PF02926" x="418" y="28" stroke-linejoin="round" width="14" height="24" fill="rgb(52,209,163)" stroke="rgb(41,167,130)" stroke-width="1" opacity="0.75" />
			</g>
			<g>
				<title>UPF0020 (PF01170)
"Putative RNA methylase family UPF0020"</title>
				<polygon class="PF01170" points="433,28 439,28 451,40 439,52 433,52" stroke-linejoin="round" width="20" height="24" fill="rgb(89,182,69)" stroke="rgb(71,145,55)" stroke-width="1" opacity="0.75" />
			</g>
		</g>
		<g>
			<title> (DLMDDBDI_02166)
hypothetical protein</title>
			<polygon class=" (DLMDDBDI_02166)
hypothetical protein" points="460,40 480,10 480,70" fill="rgb(255,255,255)" fill-opacity="1.0" stroke="rgb(0,0,0)" stroke-width="2"  />
			<g>
				<title>Mrr_cat (PF04471)
"Restriction endonuclease"</title>
				<polygon class="PF04471" points="464,40 472,28 472,28 472,52 472,52" stroke-linejoin="round" width="10" height="24" fill="rgb(58,187,128)" stroke="rgb(46,149,102)" stroke-width="1" opacity="0.75" />
			</g>
		</g>
		<g>
			<title>ypwA (DLMDDBDI_02167)
Carboxypeptidase 1</title>
			<polygon class="ypwA (DLMDDBDI_02167)
Carboxypeptidase 1" points="488,25 507,25 507,10 537,40 507,70 507,55 488,55" fill="rgb(255,255,255)" fill-opacity="1.0" stroke="rgb(0,0,0)" stroke-width="2"  />
			<g>
				<title>Peptidase_M32 (PF02074)
"Carboxypeptidase Taq (M32) metallopeptidase"</title>
				<polygon class="PF02074" points="488,28 521,28 533,40 521,52 488,52" stroke-linejoin="round" width="48" height="24" fill="rgb(213,142,93)" stroke="rgb(170,113,74)" stroke-width="1" opacity="0.75" />
			</g>
		</g>
		<g>
			<title>tcyA (DLMDDBDI_02168)
L-cystine-binding protein TcyA</title>
			<polygon class="tcyA (DLMDDBDI_02168)
L-cystine-binding protein TcyA" points="547,10 574,40 547,70" fill="rgb(255,255,255)" fill-opacity="1.0" stroke="rgb(0,0,0)" stroke-width="2"  />
			<g>
				<title>SBP_bac_3 (PF00497)
"Bacterial extracellular solute-binding proteins, family 3"</title>
				<polygon class="PF00497" points="552,28 559,28 570,40 559,52 552,52" stroke-linejoin="round" width="21" height="24" fill="rgb(186,76,141)" stroke="rgb(148,60,112)" stroke-width="1" opacity="0.75" />
			</g>
		</g>
		<g>
			<title>tcyB (DLMDDBDI_02169)
L-cystine transport system permease protein TcyB</title>
			<polygon class="tcyB (DLMDDBDI_02169)
L-cystine transport system permease protein TcyB" points="574,10 597,40 574,70" fill="rgb(255,255,255)" fill-opacity="1.0" stroke="rgb(0,0,0)" stroke-width="2"  />
			<g>
				<title>BPD_transp_1 (PF00528)
"Binding-protein-dependent transport system inner membrane component"</title>
				<polygon class="PF00528" points="578,28 584,28 593,40 584,52 578,52" stroke-linejoin="round" width="18" height="24" fill="rgb(77,208,225)" stroke="rgb(61,166,180)" stroke-width="1" opacity="0.75" />
			</g>
		</g>
		<g>
			<title>tcyC (DLMDDBDI_02170)
L-cystine import ATP-binding protein TcyC</title>
			<polygon class="tcyC (DLMDDBDI_02170)
L-cystine import ATP-binding protein TcyC" points="598,10 622,40 598,70" fill="rgb(255,255,255)" fill-opacity="1.0" stroke="rgb(0,0,0)" stroke-width="2"  />
			<g>
				<title>ABC_tran (PF00005)
"ABC transporter"</title>
				<polygon class="PF00005" points="599,28 609,28 614,35 614,45 609,52 599,52" stroke-linejoin="round" width="15" height="24" fill="rgb(129,201,63)" stroke="rgb(103,160,50)" stroke-width="1" opacity="0.75" />
			</g>
		</g>
		<g>
			<title> (DLMDDBDI_02171)
hypothetical protein</title>
			<polygon class=" (DLMDDBDI_02171)
hypothetical protein" points="624,40 642,10 642,70" fill="rgb(255,255,255)" fill-opacity="1.0" stroke="rgb(0,0,0)" stroke-width="2"  />
		</g>
		<g>
			<title>gno (DLMDDBDI_02172)
Gluconate 5-dehydrogenase</title>
			<polygon class="gno (DLMDDBDI_02172)
Gluconate 5-dehydrogenase" points="647,10 672,40 647,70" fill="rgb(255,255,255)" fill-opacity="1.0" stroke="rgb(0,0,0)" stroke-width="2"  />
			<g>
				<title>adh_short_C2 (PF13561)
"Enoyl-(Acyl carrier protein) reductase"</title>
				<polygon class="PF13561" points="648,28 658,28 668,40 658,52 648,52" stroke-linejoin="round" width="23" height="24" fill="rgb(73,205,127)" stroke="rgb(58,164,101)" stroke-width="1" opacity="0.75" />
			</g>
		</g>
		<g>
			<title> (DLMDDBDI_02173)
Alpha-pyrone synthesis polyketide synthase-like Pks11</title>
			<polygon class=" (DLMDDBDI_02173)
Alpha-pyrone synthesis polyketide synthase-like Pks11" points="676,25 682,25 682,10 712,40 682,70 682,55 676,55" fill="rgb(255,255,255)" fill-opacity="1.0" stroke="rgb(0,0,0)" stroke-width="2"  />
			<g>
				<title>Chal_sti_synt_N (PF00195)
"Chalcone and stilbene synthases, N-terminal domain"</title>
				<rect class="PF00195" x="681" y="28" stroke-linejoin="round" width="14" height="24" fill="rgb(60,181,161)" stroke="rgb(47,144,128)" stroke-width="1" opacity="0.75" />
			</g>
			<g>
				<title>Chal_sti_synt_C (PF02797)
"Chalcone and stilbene synthases, C-terminal domain"</title>
				<polygon class="PF02797" points="698,31 707,40 698,49" stroke-linejoin="round" width="13" height="24" fill="rgb(139,212,63)" stroke="rgb(111,169,50)" stroke-width="1" opacity="0.75" />
			</g>
		</g>
		<g>
			<title> (DLMDDBDI_02174)
hypothetical protein</title>
			<polygon class=" (DLMDDBDI_02174)
hypothetical protein" points="712,10 729,40 712,70" fill="rgb(255,255,255)" fill-opacity="1.0" stroke="rgb(0,0,0)" stroke-width="2"  />
			<g>
				<title>ICMT (PF04140)
"Isoprenylcysteine carboxyl methyltransferase (ICMT) family"</title>
				<polygon class="PF04140" points="719,29 725,40 719,51" stroke-linejoin="round" width="9" height="24" fill="rgb(100,223,104)" stroke="rgb(80,178,83)" stroke-width="1" opacity="0.75" />
			</g>
		</g>
		<g>
			<title> (DLMDDBDI_02175)
hypothetical protein</title>
			<polygon class=" (DLMDDBDI_02175)
hypothetical protein" points="732,10 737,40 732,70" fill="rgb(255,255,255)" fill-opacity="1.0" stroke="rgb(0,0,0)" stroke-width="2"  />
		</g>
		<g>
			<title> (DLMDDBDI_02176)
hypothetical protein</title>
			<polygon class=" (DLMDDBDI_02176)
hypothetical protein" points="744,10 753,40 744,70" fill="rgb(255,255,255)" fill-opacity="1.0" stroke="rgb(0,0,0)" stroke-width="2"  />
		</g>
		<g>
			<title>rnhA (DLMDDBDI_02177)
14.7 kDa ribonuclease H-like protein</title>
			<polygon class="rnhA (DLMDDBDI_02177)
14.7 kDa ribonuclease H-like protein" points="754,40 767,10 767,70" fill="rgb(255,255,255)" fill-opacity="1.0" stroke="rgb(0,0,0)" stroke-width="2"  />
			<g>
				<title>RVT_3 (PF13456)
"Reverse transcriptase-like"</title>
				<polygon class="PF13456" points="757,40 762,28 766,28 766,52 762,52" stroke-linejoin="round" width="12" height="24" fill="rgb(198,123,86)" stroke="rgb(158,98,68)" stroke-width="1" opacity="0.75" />
			</g>
		</g>
		<g>
			<title> (DLMDDBDI_02178)
queuosine precursor transporter</title>
			<polygon class=" (DLMDDBDI_02178)
queuosine precursor transporter" points="768,40 790,10 790,70" fill="rgb(255,255,255)" fill-opacity="1.0" stroke="rgb(0,0,0)" stroke-width="2"  />
			<g>
				<title>Vut_1 (PF02592)
"Putative vitamin uptake transporter"</title>
				<polygon class="PF02592" points="772,40 781,28 784,28 784,52 781,52" stroke-linejoin="round" width="16" height="24" fill="rgb(93,184,75)" stroke="rgb(74,147,60)" stroke-width="1" opacity="0.75" />
			</g>
		</g>
		<g>
			<title>cspB_1 (DLMDDBDI_02179)
Cold shock protein CspB</title>
			<polygon class="cspB_1 (DLMDDBDI_02179)
Cold shock protein CspB" points="798,40 804,10 804,70" fill="rgb(255,255,255)" fill-opacity="1.0" stroke="rgb(0,0,0)" stroke-width="2"  />
			<g>
				<title>CSD (PF00313)
"'Cold-shock' DNA-binding domain"</title>
				<polygon class="PF00313" points="801,40 804,28 804,28 804,52 804,52" stroke-linejoin="round" width="6" height="24" fill="rgb(87,72,181)" stroke="rgb(69,57,144)" stroke-width="1" opacity="0.75" />
			</g>
		</g>
		<g>
			<title>fhs (DLMDDBDI_02180)
Formate--tetrahydrofolate ligase</title>
			<polygon class="fhs (DLMDDBDI_02180)
Formate--tetrahydrofolate ligase" points="816,25 841,25 841,10 871,40 841,70 841,55 816,55" fill="rgb(255,255,255)" fill-opacity="1.0" stroke="rgb(0,0,0)" stroke-width="2"  />
			<g>
				<title>FTHFS (PF01268)
"Formate--tetrahydrofolate ligase"</title>
				<polygon class="PF01268" points="816,28 855,28 867,40 855,52 816,52" stroke-linejoin="round" width="55" height="24" fill="rgb(215,182,81)" stroke="rgb(172,145,64)" stroke-width="1" opacity="0.75" />
			</g>
		</g>
		<g>
			<title> (DLMDDBDI_02181)
hypothetical protein</title>
			<polygon class=" (DLMDDBDI_02181)
hypothetical protein" points="875,10 903,40 875,70" fill="rgb(255,255,255)" fill-opacity="1.0" stroke="rgb(0,0,0)" stroke-width="2"  />
			<g>
				<title>DUF72 (PF01904)
"Protein of unknown function DUF72"</title>
				<polygon class="PF01904" points="876,28 887,28 899,40 887,52 876,52" stroke-linejoin="round" width="24" height="24" fill="rgb(63,151,204)" stroke="rgb(50,120,163)" stroke-width="1" opacity="0.75" />
			</g>
		</g>
		<g>
			<title>yedJ (DLMDDBDI_02182)
putative protein YedJ</title>
			<polygon class="yedJ (DLMDDBDI_02182)
putative protein YedJ" points="903,10 923,40 903,70" fill="rgb(255,255,255)" fill-opacity="1.0" stroke="rgb(0,0,0)" stroke-width="2"  />
			<g>
				<title>HD (PF01966)
"HD domain"</title>
				<polygon class="PF01966" points="905,28 911,28 914,32 914,48 911,52 905,52" stroke-linejoin="round" width="9" height="24" fill="rgb(92,193,119)" stroke="rgb(73,154,95)" stroke-width="1" opacity="0.75" />
			</g>
		</g>
		<g>
			<title>thyA (DLMDDBDI_02183)
Thymidylate synthase</title>
			<polygon class="thyA (DLMDDBDI_02183)
Thymidylate synthase" points="924,25 926,25 926,10 956,40 926,70 926,55 924,55" fill="rgb(255,255,255)" fill-opacity="1.0" stroke="rgb(0,0,0)" stroke-width="2"  />
			<g>
				<title>Thymidylat_synt (PF00303)
"Thymidylate synthase"</title>
				<polygon class="PF00303" points="924,28 939,28 951,40 939,52 924,52" stroke-linejoin="round" width="31" height="24" fill="rgb(103,91,191)" stroke="rgb(82,72,152)" stroke-width="1" opacity="0.75" />
			</g>
		</g>
		<g>
			<title> (DLMDDBDI_02184)
IS1595 family transposase ISSsu9</title>
			<polygon class=" (DLMDDBDI_02184)
IS1595 family transposase ISSsu9" points="957,10 973,40 957,70" fill="rgb(255,255,255)" fill-opacity="1.0" stroke="rgb(0,0,0)" stroke-width="2"  />
			<g>
				<title>DHFR_1 (PF00186)
"Dihydrofolate reductase"</title>
				<polygon class="PF00186" points="957,28 963,28 970,40 963,52 957,52" stroke-linejoin="round" width="16" height="24" fill="rgb(150,188,63)" stroke="rgb(119,150,50)" stroke-width="1" opacity="0.75" />
			</g>
		</g>
		<g>
			<title>mobA (DLMDDBDI_02185)
Molybdenum cofactor guanylyltransferase</title>
			<polygon class="mobA (DLMDDBDI_02185)
Molybdenum cofactor guanylyltransferase" points="975,10 993,40 975,70" fill="rgb(255,255,255)" fill-opacity="1.0" stroke="rgb(0,0,0)" stroke-width="2"  />
			<g>
				<title>NTP_transf_3 (PF12804)
"MobA-like NTP transferase domain"</title>
				<polygon class="PF12804" points="975,28 982,28 989,40 989,40 982,52 975,52" stroke-linejoin="round" width="14" height="24" fill="rgb(52,209,196)" stroke="rgb(41,167,156)" stroke-width="1" opacity="0.75" />
			</g>
		</g>
		<g>
			<title>tatAd_2 (DLMDDBDI_02186)
Sec-independent protein translocase protein TatAd</title>
			<polygon class="tatAd_2 (DLMDDBDI_02186)
Sec-independent protein translocase protein TatAd" points="998,10 1004,40 998,70" fill="rgb(255,255,255)" fill-opacity="1.0" stroke="rgb(0,0,0)" stroke-width="2"  />
			<g>
				<title>MttA_Hcf106 (PF02416)
"mttA/Hcf106 family"</title>
				<polygon class="PF02416" points="998,28 998,28 1001,40 998,52 998,52" stroke-linejoin="round" width="5" height="24" fill="rgb(74,206,98)" stroke="rgb(59,164,78)" stroke-width="1" opacity="0.75" />
			</g>
		</g>
		<g>
			<title>tatAd_3 (DLMDDBDI_02187)
Sec-independent protein translocase protein TatAd</title>
			<polygon class="tatAd_3 (DLMDDBDI_02187)
Sec-independent protein translocase protein TatAd" points="1004,10 1010,40 1004,70" fill="rgb(255,255,255)" fill-opacity="1.0" stroke="rgb(0,0,0)" stroke-width="2"  />
			<g>
				<title>MttA_Hcf106 (PF02416)
"mttA/Hcf106 family"</title>
				<polygon class="PF02416" points="1004,28 1004,28 1007,40 1004,52 1004,52" stroke-linejoin="round" width="5" height="24" fill="rgb(74,206,98)" stroke="rgb(59,164,78)" stroke-width="1" opacity="0.75" />
			</g>
		</g>
		<g>
			<title>tatC1_2 (DLMDDBDI_02188)
Sec-independent protein translocase protein TatCd</title>
			<polygon class="tatC1_2 (DLMDDBDI_02188)
Sec-independent protein translocase protein TatCd" points="1013,10 1038,40 1013,70" fill="rgb(255,255,255)" fill-opacity="1.0" stroke="rgb(0,0,0)" stroke-width="2"  />
			<g>
				<title>TatC (PF00902)
"Sec-independent protein translocase protein (TatC)"</title>
				<polygon class="PF00902" points="1014,28 1024,28 1034,40 1034,40 1024,52 1014,52" stroke-linejoin="round" width="20" height="24" fill="rgb(84,193,209)" stroke="rgb(67,154,167)" stroke-width="1" opacity="0.75" />
			</g>
		</g>
		<g>
			<title> (DLMDDBDI_02189)
hypothetical protein</title>
			<polygon class=" (DLMDDBDI_02189)
hypothetical protein" points="1043,10 1050,40 1043,70" fill="rgb(255,255,255)" fill-opacity="1.0" stroke="rgb(0,0,0)" stroke-width="2"  />
			<g>
				<title>YozE_SAM_like (PF06855)
"YozE SAM-like fold"</title>
				<polygon class="PF06855" points="1043,28 1043,28 1047,40 1043,52 1043,52" stroke-linejoin="round" width="6" height="24" fill="rgb(83,201,171)" stroke="rgb(66,160,136)" stroke-width="1" opacity="0.75" />
			</g>
		</g>
		<g>
			<title>sbcD (DLMDDBDI_02190)
Nuclease SbcCD subunit D</title>
			<polygon class="sbcD (DLMDDBDI_02190)
Nuclease SbcCD subunit D" points="1051,25 1059,25 1059,10 1089,40 1059,70 1059,55 1051,55" fill="rgb(255,255,255)" fill-opacity="1.0" stroke="rgb(0,0,0)" stroke-width="2"  />
			<g>
				<title>Metallophos (PF00149)
"Calcineurin-like phosphoesterase"</title>
				<rect class="PF00149" x="1051" y="28" stroke-linejoin="round" width="21" height="24" fill="rgb(181,197,58)" stroke="rgb(144,157,46)" stroke-width="1" opacity="0.75" />
			</g>
			<g>
				<title>SbcD_C (PF12320)
"Type 5 capsule protein repressor C-terminal domain"</title>
				<polygon class="PF12320" points="1077,32 1085,40 1077,48" stroke-linejoin="round" width="9" height="24" fill="rgb(182,136,65)" stroke="rgb(145,108,52)" stroke-width="1" opacity="0.75" />
			</g>
		</g>
		<g>
			<title> (DLMDDBDI_02191)
hypothetical protein</title>
			<polygon class=" (DLMDDBDI_02191)
hypothetical protein" points="1090,25 1163,25 1163,10 1193,40 1163,70 1163,55 1090,55" fill="rgb(255,255,255)" fill-opacity="1.0" stroke="rgb(0,0,0)" stroke-width="2"  />
			<g>
				<title>AAA_23 (PF13476)
"AAA domain"</title>
				<rect class="PF13476" x="1090" y="28" stroke-linejoin="round" width="21" height="24" fill="rgb(57,185,214)" stroke="rgb(45,147,171)" stroke-width="1" opacity="0.75" />
			</g>
			<g>
				<title>SbcCD_C (PF13558)
"Putative exonuclease SbcCD, C subunit"</title>
				<polygon class="PF13558" points="1181,32 1189,40 1189,40 1181,48" stroke-linejoin="round" width="8" height="24" fill="rgb(84,179,84)" stroke="rgb(67,143,67)" stroke-width="1" opacity="0.75" />
			</g>
		</g>
		<g>
			<title>ytmB (DLMDDBDI_02192)
putative protein YtmB</title>
			<polygon class="ytmB (DLMDDBDI_02192)
putative protein YtmB" points="1194,10 1202,40 1194,70" fill="rgb(255,255,255)" fill-opacity="1.0" stroke="rgb(0,0,0)" stroke-width="2"  />
			<g>
				<title>DUF2584 (PF10763)
"Protein of unknown function (DUF2584)"</title>
				<polygon class="PF10763" points="1194,28 1195,28 1199,40 1195,52 1194,52" stroke-linejoin="round" width="8" height="24" fill="rgb(118,211,56)" stroke="rgb(94,168,44)" stroke-width="1" opacity="0.75" />
			</g>
		</g>
		<g>
			<title>ung (DLMDDBDI_02193)
Uracil-DNA glycosylase</title>
			<polygon class="ung (DLMDDBDI_02193)
Uracil-DNA glycosylase" points="1206,10 1229,40 1206,70" fill="rgb(255,255,255)" fill-opacity="1.0" stroke="rgb(0,0,0)" stroke-width="2"  />
			<g>
				<title>UDG (PF03167)
"Uracil DNA glycosylase superfamily"</title>
				<polygon class="PF03167" points="1211,28 1216,28 1225,40 1216,52 1211,52" stroke-linejoin="round" width="16" height="24" fill="rgb(64,224,60)" stroke="rgb(51,179,48)" stroke-width="1" opacity="0.75" />
			</g>
		</g>
		<g>
			<title> (DLMDDBDI_02194)
hypothetical protein</title>
			<polygon class=" (DLMDDBDI_02194)
hypothetical protein" points="1231,10 1249,40 1231,70" fill="rgb(255,255,255)" fill-opacity="1.0" stroke="rgb(0,0,0)" stroke-width="2"  />
			<g>
				<title>YqfQ (PF14181)
"YqfQ-like protein"</title>
				<polygon class="PF14181" points="1232,28 1238,28 1246,40 1238,52 1232,52" stroke-linejoin="round" width="17" height="24" fill="rgb(207,119,57)" stroke="rgb(165,95,45)" stroke-width="1" opacity="0.75" />
			</g>
		</g>
		<g>
			<title>msrB_1 (DLMDDBDI_02195)
Peptide methionine sulfoxide reductase MsrB</title>
			<polygon class="msrB_1 (DLMDDBDI_02195)
Peptide methionine sulfoxide reductase MsrB" points="1253,25 1255,25 1255,10 1285,40 1255,70 1255,55 1253,55" fill="rgb(255,255,255)" fill-opacity="1.0" stroke="rgb(0,0,0)" stroke-width="2"  />
			<g>
				<title>PMSR (PF01625)
"Peptide methionine sulfoxide reductase"</title>
				<rect class="PF01625" x="1253" y="28" stroke-linejoin="round" width="15" height="24" fill="rgb(201,74,176)" stroke="rgb(160,59,140)" stroke-width="1" opacity="0.75" />
			</g>
			<g>
				<title>SelR (PF01641)
"SelR domain"</title>
				<polygon class="PF01641" points="1271,31 1280,40 1271,49" stroke-linejoin="round" width="12" height="24" fill="rgb(192,99,202)" stroke="rgb(153,79,161)" stroke-width="1" opacity="0.75" />
			</g>
		</g>
		<g>
			<title> (DLMDDBDI_02196)
hypothetical protein</title>
			<polygon class=" (DLMDDBDI_02196)
hypothetical protein" points="1292,10 1311,40 1292,70" fill="rgb(255,255,255)" fill-opacity="1.0" stroke="rgb(0,0,0)" stroke-width="2"  />
			<g>
				<title>TetR_N (PF00440)
"Bacterial regulatory proteins, tetR family"</title>
				<rect class="PF00440" x="1293" y="28" stroke-linejoin="round" width="4" height="24" fill="rgb(73,212,190)" stroke="rgb(58,169,152)" stroke-width="1" opacity="0.75" />
			</g>
		</g>
		<g>
			<title> (DLMDDBDI_02197)
hypothetical protein</title>
			<polygon class=" (DLMDDBDI_02197)
hypothetical protein" points="1313,40 1335,10 1335,70" fill="rgb(255,255,255)" fill-opacity="1.0" stroke="rgb(0,0,0)" stroke-width="2"  />
			<g>
				<title>Acetyltransf_1 (PF00583)
"Acetyltransferase (GNAT) family"</title>
				<polygon class="PF00583" points="1319,37 1326,28 1332,28 1332,52 1326,52 1319,43" stroke-linejoin="round" width="13" height="24" fill="rgb(121,183,50)" stroke="rgb(96,146,39)" stroke-width="1" opacity="0.75" />
			</g>
		</g>
		<g>
			<title> (DLMDDBDI_02198)
hypothetical protein</title>
			<polygon class=" (DLMDDBDI_02198)
hypothetical protein" points="1338,25 1342,25 1342,10 1372,40 1342,70 1342,55 1338,55" fill="rgb(255,255,255)" fill-opacity="1.0" stroke="rgb(0,0,0)" stroke-width="2"  />
			<g>
				<title>AbrB (PF05145)
"Transition state regulatory protein AbrB"</title>
				<polygon class="PF05145" points="1338,28 1356,28 1368,40 1356,52 1338,52" stroke-linejoin="round" width="33" height="24" fill="rgb(95,98,223)" stroke="rgb(76,78,178)" stroke-width="1" opacity="0.75" />
			</g>
		</g>
	</g>
</svg>
