<svg version="1.1" baseProfile="full" xmlns="http://www.w3.org/2000/svg" width="804.3666666666667" height="80">
	<g>
		<line x1="10" y1="40.0" x2="794.3666666666667" y2="40.0" style="stroke:rgb(70,70,70); stroke-width:3 "/>
		<g>
			<title> (MEJGHCBM_01689)
hypothetical protein</title>
			<polygon class=" (MEJGHCBM_01689)
hypothetical protein" points="38,10 63,40 38,70" fill="rgb(255,255,255)" fill-opacity="1.0" stroke="rgb(0,0,0)" stroke-width="2"  />
			<g>
				<title>Intg_mem_TP0381 (PF09529)
"Integral membrane protein (intg_mem_TP0381)"</title>
				<polygon class="PF09529" points="39,28 49,28 59,40 49,52 39,52" stroke-linejoin="round" width="21" height="24" fill="rgb(205,205,98)" stroke="rgb(164,164,78)" stroke-width="1" opacity="0.75" />
			</g>
		</g>
		<g>
			<title>sspH_1 (MEJGHCBM_01690)
Small, acid-soluble spore protein H</title>
			<polygon class="sspH_1 (MEJGHCBM_01690)
Small, acid-soluble spore protein H" points="66,40 72,10 72,70" fill="rgb(255,255,255)" fill-opacity="1.0" stroke="rgb(0,0,0)" stroke-width="2"  />
			<g>
				<title>SspH (PF08141)
"Small acid-soluble spore protein H family"</title>
				<polygon class="PF08141" points="69,40 71,31 71,49" stroke-linejoin="round" width="5" height="24" fill="rgb(51,180,135)" stroke="rgb(40,144,108)" stroke-width="1" opacity="0.75" />
			</g>
		</g>
		<g>
			<title> (MEJGHCBM_01691)
hypothetical protein</title>
			<polygon class=" (MEJGHCBM_01691)
hypothetical protein" points="110,25 105,25 105,10 75,40 105,70 105,55 110,55" fill="rgb(255,255,255)" fill-opacity="1.0" stroke="rgb(0,0,0)" stroke-width="2"  />
			<g>
				<title>Fe-ADH_2 (PF13685)
"Iron-containing alcohol dehydrogenase"</title>
				<polygon class="PF13685" points="83,36 91,28 108,28 108,52 91,52 83,44" stroke-linejoin="round" width="25" height="24" fill="rgb(57,214,170)" stroke="rgb(45,171,136)" stroke-width="1" opacity="0.75" />
			</g>
		</g>
		<g>
			<title>mtnX (MEJGHCBM_01692)
2-hydroxy-3-keto-5-methylthiopentenyl-1- phosphate phosphatase</title>
			<polygon class="mtnX (MEJGHCBM_01692)
2-hydroxy-3-keto-5-methylthiopentenyl-1- phosphate phosphatase" points="110,40 131,10 131,70" fill="rgb(255,255,255)" fill-opacity="1.0" stroke="rgb(0,0,0)" stroke-width="2"  />
			<g>
				<title>HAD (PF12710)
"haloacid dehalogenase-like hydrolase"</title>
				<polygon class="PF12710" points="114,40 123,28 130,28 130,52 123,52 114,40" stroke-linejoin="round" width="16" height="24" fill="rgb(181,59,119)" stroke="rgb(144,47,95)" stroke-width="1" opacity="0.75" />
			</g>
		</g>
		<g>
			<title> (MEJGHCBM_01693)
hypothetical protein</title>
			<polygon class=" (MEJGHCBM_01693)
hypothetical protein" points="140,10 166,40 140,70" fill="rgb(255,255,255)" fill-opacity="1.0" stroke="rgb(0,0,0)" stroke-width="2"  />
			<g>
				<title>LysM (PF01476)
"LysM domain"</title>
				<rect class="PF01476" x="141" y="28" stroke-linejoin="round" width="4" height="24" fill="rgb(200,86,203)" stroke="rgb(160,68,162)" stroke-width="1" opacity="0.75" />
			</g>
			<g>
				<title>LysM (PF01476)
"LysM domain"</title>
				<rect class="PF01476" x="146" y="28" stroke-linejoin="round" width="4" height="24" fill="rgb(200,86,203)" stroke="rgb(160,68,162)" stroke-width="1" opacity="0.75" />
			</g>
			<g>
				<title>LysM (PF01476)
"LysM domain"</title>
				<polygon class="PF01476" points="151,28 151,28 155,32 155,48 151,52 151,52" stroke-linejoin="round" width="4" height="24" fill="rgb(200,86,203)" stroke="rgb(160,68,162)" stroke-width="1" opacity="0.75" />
			</g>
			<g>
				<title>Gmad2 (PF10648)
"Immunoglobulin-like domain of bacterial spore germination"</title>
				<polygon class="PF10648" points="156,33 162,40 156,47" stroke-linejoin="round" width="8" height="24" fill="rgb(182,88,195)" stroke="rgb(145,70,156)" stroke-width="1" opacity="0.75" />
			</g>
		</g>
		<g>
			<title> (MEJGHCBM_01694)
hypothetical protein</title>
			<polygon class=" (MEJGHCBM_01694)
hypothetical protein" points="174,25 174,25 174,10 204,40 174,70 174,55 174,55" fill="rgb(255,255,255)" fill-opacity="1.0" stroke="rgb(0,0,0)" stroke-width="2"  />
			<g>
				<title>DUF4097 (PF13349)
"Putative adhesin"</title>
				<polygon class="PF13349" points="178,28 187,28 199,40 187,52 178,52" stroke-linejoin="round" width="25" height="24" fill="rgb(173,193,81)" stroke="rgb(138,154,64)" stroke-width="1" opacity="0.75" />
			</g>
		</g>
		<g>
			<title>cwlS (MEJGHCBM_01695)
D-gamma-glutamyl-meso-diaminopimelic acid endopeptidase CwlS</title>
			<polygon class="cwlS (MEJGHCBM_01695)
D-gamma-glutamyl-meso-diaminopimelic acid endopeptidase CwlS" points="229,40 245,10 245,70" fill="rgb(255,255,255)" fill-opacity="1.0" stroke="rgb(0,0,0)" stroke-width="2"  />
			<g>
				<title>NLPC_P60 (PF00877)
"NlpC/P60 family"</title>
				<polygon class="PF00877" points="232,40 238,28 239,28 239,52 238,52" stroke-linejoin="round" width="10" height="24" fill="rgb(187,86,137)" stroke="rgb(149,68,109)" stroke-width="1" opacity="0.75" />
			</g>
		</g>
		<g>
			<title> (MEJGHCBM_01696)
hypothetical protein</title>
			<polygon class=" (MEJGHCBM_01696)
hypothetical protein" points="269,10 276,40 269,70" fill="rgb(255,255,255)" fill-opacity="1.0" stroke="rgb(0,0,0)" stroke-width="2"  />
		</g>
		<g>
			<title> (MEJGHCBM_01697)
hypothetical protein</title>
			<polygon class=" (MEJGHCBM_01697)
hypothetical protein" points="279,25 312,25 312,10 342,40 312,70 312,55 279,55" fill="rgb(255,255,255)" fill-opacity="1.0" stroke="rgb(0,0,0)" stroke-width="2"  />
		</g>
		<g>
			<title> (MEJGHCBM_01698)
hypothetical protein</title>
			<polygon class=" (MEJGHCBM_01698)
hypothetical protein" points="343,25 377,25 377,10 407,40 377,70 377,55 343,55" fill="rgb(255,255,255)" fill-opacity="1.0" stroke="rgb(0,0,0)" stroke-width="2"  />
			<g>
				<title>YcaO (PF02624)
"YcaO cyclodehydratase, ATP-ad Mg2+-binding"</title>
				<polygon class="PF02624" points="369,28 391,28 403,40 403,40 391,52 369,52" stroke-linejoin="round" width="34" height="24" fill="rgb(76,84,185)" stroke="rgb(60,67,148)" stroke-width="1" opacity="0.75" />
			</g>
		</g>
		<g>
			<title> (MEJGHCBM_01699)
hypothetical protein</title>
			<polygon class=" (MEJGHCBM_01699)
hypothetical protein" points="408,25 430,25 430,10 460,40 430,70 430,55 408,55" fill="rgb(255,255,255)" fill-opacity="1.0" stroke="rgb(0,0,0)" stroke-width="2"  />
			<g>
				<title>Nitroreductase (PF00881)
"Nitroreductase family"</title>
				<rect class="PF00881" x="415" y="28" stroke-linejoin="round" width="15" height="24" fill="rgb(79,118,187)" stroke="rgb(63,94,149)" stroke-width="1" opacity="0.75" />
			</g>
			<g>
				<title>Nitroreductase (PF00881)
"Nitroreductase family"</title>
				<polygon class="PF00881" points="440,28 443,28 455,40 443,52 440,52" stroke-linejoin="round" width="17" height="24" fill="rgb(79,118,187)" stroke="rgb(63,94,149)" stroke-width="1" opacity="0.75" />
			</g>
		</g>
		<g>
			<title> (MEJGHCBM_01700)
hypothetical protein</title>
			<polygon class=" (MEJGHCBM_01700)
hypothetical protein" points="461,40 490,10 490,70" fill="rgb(255,255,255)" fill-opacity="1.0" stroke="rgb(0,0,0)" stroke-width="2"  />
			<g>
				<title>TauE (PF01925)
"Sulfite exporter TauE/SafE"</title>
				<polygon class="PF01925" points="466,39 477,28 490,28 490,52 477,52 466,41" stroke-linejoin="round" width="24" height="24" fill="rgb(105,203,95)" stroke="rgb(84,162,76)" stroke-width="1" opacity="0.75" />
			</g>
		</g>
		<g>
			<title>cysH (MEJGHCBM_01701)
Phosphoadenosine phosphosulfate reductase</title>
			<polygon class="cysH (MEJGHCBM_01701)
Phosphoadenosine phosphosulfate reductase" points="529,10 553,40 529,70" fill="rgb(255,255,255)" fill-opacity="1.0" stroke="rgb(0,0,0)" stroke-width="2"  />
			<g>
				<title>PAPS_reduct (PF01507)
"Phosphoadenosine phosphosulfate reductase family"</title>
				<polygon class="PF01507" points="533,28 540,28 549,40 540,52 533,52" stroke-linejoin="round" width="17" height="24" fill="rgb(87,190,105)" stroke="rgb(69,152,83)" stroke-width="1" opacity="0.75" />
			</g>
		</g>
		<g>
			<title>sat_1 (MEJGHCBM_01702)
Sulfate adenylyltransferase</title>
			<polygon class="sat_1 (MEJGHCBM_01702)
Sulfate adenylyltransferase" points="554,25 562,25 562,10 592,40 562,70 562,55 554,55" fill="rgb(255,255,255)" fill-opacity="1.0" stroke="rgb(0,0,0)" stroke-width="2"  />
			<g>
				<title>PUA_2 (PF14306)
"PUA-like domain"</title>
				<rect class="PF14306" x="554" y="28" stroke-linejoin="round" width="15" height="24" fill="rgb(216,166,86)" stroke="rgb(172,132,68)" stroke-width="1" opacity="0.75" />
			</g>
			<g>
				<title>ATP-sulfurylase (PF01747)
"ATP-sulfurylase"</title>
				<polygon class="PF01747" points="570,28 576,28 588,40 576,52 570,52" stroke-linejoin="round" width="21" height="24" fill="rgb(77,108,187)" stroke="rgb(61,86,149)" stroke-width="1" opacity="0.75" />
			</g>
		</g>
		<g>
			<title>cysC_1 (MEJGHCBM_01703)
putative adenylyl-sulfate kinase</title>
			<polygon class="cysC_1 (MEJGHCBM_01703)
putative adenylyl-sulfate kinase" points="593,10 613,40 593,70" fill="rgb(255,255,255)" fill-opacity="1.0" stroke="rgb(0,0,0)" stroke-width="2"  />
			<g>
				<title>APS_kinase (PF01583)
"Adenylylsulphate kinase"</title>
				<polygon class="PF01583" points="595,28 601,28 609,40 601,52 595,52" stroke-linejoin="round" width="15" height="24" fill="rgb(48,131,188)" stroke="rgb(38,104,150)" stroke-width="1" opacity="0.75" />
			</g>
		</g>
		<g>
			<title>sumT (MEJGHCBM_01704)
Uroporphyrinogen-III C-methyltransferase</title>
			<polygon class="sumT (MEJGHCBM_01704)
Uroporphyrinogen-III C-methyltransferase" points="613,10 638,40 613,70" fill="rgb(255,255,255)" fill-opacity="1.0" stroke="rgb(0,0,0)" stroke-width="2"  />
			<g>
				<title>TP_methylase (PF00590)
"Tetrapyrrole (Corrin/Porphyrin) Methylases"</title>
				<polygon class="PF00590" points="613,28 625,28 634,39 634,41 625,52 613,52" stroke-linejoin="round" width="21" height="24" fill="rgb(124,218,92)" stroke="rgb(99,174,73)" stroke-width="1" opacity="0.75" />
			</g>
		</g>
		<g>
			<title>sirB (MEJGHCBM_01705)
Sirohydrochlorin ferrochelatase</title>
			<polygon class="sirB (MEJGHCBM_01705)
Sirohydrochlorin ferrochelatase" points="639,10 664,40 639,70" fill="rgb(255,255,255)" fill-opacity="1.0" stroke="rgb(0,0,0)" stroke-width="2"  />
			<g>
				<title>CbiX (PF01903)
"CbiX"</title>
				<rect class="PF01903" x="639" y="28" stroke-linejoin="round" width="10" height="24" fill="rgb(93,58,208)" stroke="rgb(74,46,166)" stroke-width="1" opacity="0.75" />
			</g>
			<g>
				<title>CbiX (PF01903)
"CbiX"</title>
				<polygon class="PF01903" points="652,31 660,40 652,49" stroke-linejoin="round" width="10" height="24" fill="rgb(93,58,208)" stroke="rgb(74,46,166)" stroke-width="1" opacity="0.75" />
			</g>
		</g>
		<g>
			<title>sirC (MEJGHCBM_01706)
Precorrin-2 dehydrogenase</title>
			<polygon class="sirC (MEJGHCBM_01706)
Precorrin-2 dehydrogenase" points="665,10 686,40 665,70" fill="rgb(255,255,255)" fill-opacity="1.0" stroke="rgb(0,0,0)" stroke-width="2"  />
			<g>
				<title>NAD_binding_7 (PF13241)
"Putative NAD(P)-binding"</title>
				<polygon class="PF13241" points="665,28 674,28 675,30 675,50 674,52 665,52" stroke-linejoin="round" width="10" height="24" fill="rgb(229,162,111)" stroke="rgb(183,129,88)" stroke-width="1" opacity="0.75" />
			</g>
			<g>
				<title>Sirohm_synth_M (PF14824)
"Sirohaem biosynthesis protein central"</title>
				<polygon class="PF14824" points="676,31 678,34 678,46 676,49" stroke-linejoin="round" width="2" height="24" fill="rgb(204,86,153)" stroke="rgb(163,68,122)" stroke-width="1" opacity="0.75" />
			</g>
		</g>
		<g>
			<title> (MEJGHCBM_01707)
hypothetical protein</title>
			<polygon class=" (MEJGHCBM_01707)
hypothetical protein" points="686,10 712,40 686,70" fill="rgb(255,255,255)" fill-opacity="1.0" stroke="rgb(0,0,0)" stroke-width="2"  />
			<g>
				<title>HEM4 (PF02602)
"Uroporphyrinogen-III synthase HemD"</title>
				<polygon class="PF02602" points="687,28 697,28 708,40 697,52 687,52" stroke-linejoin="round" width="23" height="24" fill="rgb(191,152,50)" stroke="rgb(152,121,39)" stroke-width="1" opacity="0.75" />
			</g>
		</g>
		<g>
			<title>cysJ (MEJGHCBM_01708)
Sulfite reductase [NADPH] flavoprotein alpha-component</title>
			<polygon class="cysJ (MEJGHCBM_01708)
Sulfite reductase [NADPH] flavoprotein alpha-component" points="714,25 744,25 744,10 774,40 744,70 744,55 714,55" fill="rgb(255,255,255)" fill-opacity="1.0" stroke="rgb(0,0,0)" stroke-width="2"  />
			<g>
				<title>Flavodoxin_1 (PF00258)
"Flavodoxin"</title>
				<rect class="PF00258" x="721" y="28" stroke-linejoin="round" width="13" height="24" fill="rgb(77,169,183)" stroke="rgb(61,135,146)" stroke-width="1" opacity="0.75" />
			</g>
			<g>
				<title>FAD_binding_1 (PF00667)
"FAD binding domain"</title>
				<rect class="PF00667" x="737" y="28" stroke-linejoin="round" width="19" height="24" fill="rgb(145,74,201)" stroke="rgb(116,59,160)" stroke-width="1" opacity="0.75" />
			</g>
			<g>
				<title>NAD_binding_1 (PF00175)
"Oxidoreductase NAD-binding domain"</title>
				<polygon class="PF00175" points="760,30 770,40 770,40 760,50" stroke-linejoin="round" width="10" height="24" fill="rgb(177,211,96)" stroke="rgb(141,168,76)" stroke-width="1" opacity="0.75" />
			</g>
		</g>
	</g>
</svg>
