<svg version="1.1" baseProfile="full" xmlns="http://www.w3.org/2000/svg" width="1079.5333333333333" height="80">
	<g>
		<line x1="10" y1="40.0" x2="1069.5333333333333" y2="40.0" style="stroke:rgb(70,70,70); stroke-width:3 "/>
		<g>
			<title> (BBLDBBGM_01674)
hypothetical protein</title>
			<polygon class=" (BBLDBBGM_01674)
hypothetical protein" points="23,10 35,40 23,70" fill="rgb(255,255,255)" fill-opacity="1.0" stroke="rgb(0,0,0)" stroke-width="2"  />
		</g>
		<g>
			<title> (BBLDBBGM_01675)
hypothetical protein</title>
			<polygon class=" (BBLDBBGM_01675)
hypothetical protein" points="38,40 56,10 56,70" fill="rgb(255,255,255)" fill-opacity="1.0" stroke="rgb(0,0,0)" stroke-width="2"  />
			<g>
				<title>Spore-coat_CotZ (PF10612)
"Spore coat protein Z"</title>
				<polygon class="PF10612" points="42,40 50,28 54,28 54,52 50,52" stroke-linejoin="round" width="16" height="24" fill="rgb(91,124,222)" stroke="rgb(72,99,177)" stroke-width="1" opacity="0.75" />
			</g>
		</g>
		<g>
			<title> (BBLDBBGM_01676)
hypothetical protein</title>
			<polygon class=" (BBLDBBGM_01676)
hypothetical protein" points="106,25 100,25 100,10 70,40 100,70 100,55 106,55" fill="rgb(255,255,255)" fill-opacity="1.0" stroke="rgb(0,0,0)" stroke-width="2"  />
			<g>
				<title>LysM (PF01476)
"LysM domain"</title>
				<polygon class="PF01476" points="74,40 72,42 72,38" stroke-linejoin="round" width="2" height="24" fill="rgb(200,86,203)" stroke="rgb(160,68,162)" stroke-width="1" opacity="0.75" />
			</g>
			<g>
				<title>LysM (PF01476)
"LysM domain"</title>
				<polygon class="PF01476" points="74,40 78,36 78,44 74,40" stroke-linejoin="round" width="4" height="24" fill="rgb(200,86,203)" stroke="rgb(160,68,162)" stroke-width="1" opacity="0.75" />
			</g>
			<g>
				<title>LysM (PF01476)
"LysM domain"</title>
				<polygon class="PF01476" points="79,35 83,31 83,49 79,45" stroke-linejoin="round" width="4" height="24" fill="rgb(200,86,203)" stroke="rgb(160,68,162)" stroke-width="1" opacity="0.75" />
			</g>
			<g>
				<title>Polysacc_deac_1 (PF01522)
"Polysaccharide deacetylase"</title>
				<rect class="PF01522" x="90" y="28" stroke-linejoin="round" width="12" height="24" fill="rgb(56,221,58)" stroke="rgb(44,176,46)" stroke-width="1" opacity="0.75" />
			</g>
		</g>
		<g>
			<title>smc_2 (BBLDBBGM_01677)
Chromosome partition protein Smc</title>
			<polygon class="smc_2 (BBLDBBGM_01677)
Chromosome partition protein Smc" points="175,25 145,25 145,10 115,40 145,70 145,55 175,55" fill="rgb(255,255,255)" fill-opacity="1.0" stroke="rgb(0,0,0)" stroke-width="2"  />
		</g>
		<g>
			<title> (BBLDBBGM_01678)
hypothetical protein</title>
			<polygon class=" (BBLDBBGM_01678)
hypothetical protein" points="239,25 206,25 206,10 176,40 206,70 206,55 239,55" fill="rgb(255,255,255)" fill-opacity="1.0" stroke="rgb(0,0,0)" stroke-width="2"  />
			<g>
				<title>MMPL (PF03176)
"MMPL family"</title>
				<polygon class="PF03176" points="180,40 192,28 205,28 205,52 192,52" stroke-linejoin="round" width="29" height="24" fill="rgb(228,109,193)" stroke="rgb(182,87,154)" stroke-width="1" opacity="0.75" />
			</g>
			<g>
				<title>MMPL (PF03176)
"MMPL family"</title>
				<rect class="PF03176" x="209" y="28" stroke-linejoin="round" width="29" height="24" fill="rgb(228,109,193)" stroke="rgb(182,87,154)" stroke-width="1" opacity="0.75" />
			</g>
		</g>
		<g>
			<title> (BBLDBBGM_01679)
hypothetical protein</title>
			<polygon class=" (BBLDBBGM_01679)
hypothetical protein" points="250,10 268,40 250,70" fill="rgb(255,255,255)" fill-opacity="1.0" stroke="rgb(0,0,0)" stroke-width="2"  />
			<g>
				<title>TetR_C_8 (PF14278)
"Transcriptional regulator C-terminal region"</title>
				<polygon class="PF14278" points="258,29 265,40 258,51" stroke-linejoin="round" width="9" height="24" fill="rgb(192,229,97)" stroke="rgb(153,183,77)" stroke-width="1" opacity="0.75" />
			</g>
		</g>
		<g>
			<title>agrA (BBLDBBGM_01680)
Accessory gene regulator protein A</title>
			<polygon class="agrA (BBLDBBGM_01680)
Accessory gene regulator protein A" points="272,40 296,10 296,70" fill="rgb(255,255,255)" fill-opacity="1.0" stroke="rgb(0,0,0)" stroke-width="2"  />
			<g>
				<title>LytTR (PF04397)
"LytTr DNA-binding domain"</title>
				<polygon class="PF04397" points="276,40 281,34 281,46" stroke-linejoin="round" width="9" height="24" fill="rgb(207,76,174)" stroke="rgb(165,60,139)" stroke-width="1" opacity="0.75" />
			</g>
			<g>
				<title>Response_reg (PF00072)
"Response regulator receiver domain"</title>
				<polygon class="PF00072" points="284,30 286,28 295,28 295,52 286,52 284,50" stroke-linejoin="round" width="11" height="24" fill="rgb(100,107,203)" stroke="rgb(80,85,162)" stroke-width="1" opacity="0.75" />
			</g>
		</g>
		<g>
			<title> (BBLDBBGM_01681)
hypothetical protein</title>
			<polygon class=" (BBLDBBGM_01681)
hypothetical protein" points="340,25 327,25 327,10 297,40 327,70 327,55 340,55" fill="rgb(255,255,255)" fill-opacity="1.0" stroke="rgb(0,0,0)" stroke-width="2"  />
			<g>
				<title>HATPase_c_5 (PF14501)
"GHKL domain"</title>
				<polygon class="PF14501" points="301,40 307,34 307,46" stroke-linejoin="round" width="10" height="24" fill="rgb(137,71,210)" stroke="rgb(109,56,168)" stroke-width="1" opacity="0.75" />
			</g>
		</g>
		<g>
			<title> (BBLDBBGM_01682)
hypothetical protein</title>
			<polygon class=" (BBLDBBGM_01682)
hypothetical protein" points="343,40 348,10 348,70" fill="rgb(255,255,255)" fill-opacity="1.0" stroke="rgb(0,0,0)" stroke-width="2"  />
		</g>
		<g>
			<title>agrB (BBLDBBGM_01683)
Accessory gene regulator protein B</title>
			<polygon class="agrB (BBLDBBGM_01683)
Accessory gene regulator protein B" points="348,40 368,10 368,70" fill="rgb(255,255,255)" fill-opacity="1.0" stroke="rgb(0,0,0)" stroke-width="2"  />
			<g>
				<title>AgrB (PF04647)
"Accessory gene regulator B"</title>
				<polygon class="PF04647" points="352,40 360,28 366,28 366,52 360,52" stroke-linejoin="round" width="17" height="24" fill="rgb(181,182,61)" stroke="rgb(144,145,48)" stroke-width="1" opacity="0.75" />
			</g>
		</g>
		<g>
			<title> (BBLDBBGM_01684)
hypothetical protein</title>
			<polygon class=" (BBLDBBGM_01684)
hypothetical protein" points="373,40 401,10 401,70" fill="rgb(255,255,255)" fill-opacity="1.0" stroke="rgb(0,0,0)" stroke-width="2"  />
		</g>
		<g>
			<title> (BBLDBBGM_01685)
hypothetical protein</title>
			<polygon class=" (BBLDBBGM_01685)
hypothetical protein" points="402,40 426,10 426,70" fill="rgb(255,255,255)" fill-opacity="1.0" stroke="rgb(0,0,0)" stroke-width="2"  />
			<g>
				<title>Nitroreductase (PF00881)
"Nitroreductase family"</title>
				<polygon class="PF00881" points="406,40 416,28 419,28 419,52 416,52" stroke-linejoin="round" width="17" height="24" fill="rgb(79,118,187)" stroke="rgb(63,94,149)" stroke-width="1" opacity="0.75" />
			</g>
		</g>
		<g>
			<title> (BBLDBBGM_01686)
hypothetical protein</title>
			<polygon class=" (BBLDBBGM_01686)
hypothetical protein" points="426,40 454,10 454,70" fill="rgb(255,255,255)" fill-opacity="1.0" stroke="rgb(0,0,0)" stroke-width="2"  />
			<g>
				<title>Lant_dehydr_C (PF14028)
"Lantibiotic biosynthesis dehydratase C-term"</title>
				<polygon class="PF14028" points="430,40 442,28 454,28 454,52 442,52" stroke-linejoin="round" width="27" height="24" fill="rgb(107,223,113)" stroke="rgb(85,178,90)" stroke-width="1" opacity="0.75" />
			</g>
		</g>
		<g>
			<title> (BBLDBBGM_01687)
hypothetical protein</title>
			<polygon class=" (BBLDBBGM_01687)
hypothetical protein" points="496,25 487,25 487,10 457,40 487,70 487,55 496,55" fill="rgb(255,255,255)" fill-opacity="1.0" stroke="rgb(0,0,0)" stroke-width="2"  />
		</g>
		<g>
			<title> (BBLDBBGM_01688)
hypothetical protein</title>
			<polygon class=" (BBLDBBGM_01688)
hypothetical protein" points="552,25 526,25 526,10 496,40 526,70 526,55 552,55" fill="rgb(255,255,255)" fill-opacity="1.0" stroke="rgb(0,0,0)" stroke-width="2"  />
			<g>
				<title>YcaO (PF02624)
"YcaO cyclodehydratase, ATP-ad Mg2+-binding"</title>
				<polygon class="PF02624" points="500,40 512,28 533,28 533,52 512,52 500,40" stroke-linejoin="round" width="33" height="24" fill="rgb(76,84,185)" stroke="rgb(60,67,148)" stroke-width="1" opacity="0.75" />
			</g>
		</g>
		<g>
			<title> (BBLDBBGM_01689)
hypothetical protein</title>
			<polygon class=" (BBLDBBGM_01689)
hypothetical protein" points="601,25 583,25 583,10 553,40 583,70 583,55 601,55" fill="rgb(255,255,255)" fill-opacity="1.0" stroke="rgb(0,0,0)" stroke-width="2"  />
		</g>
		<g>
			<title> (BBLDBBGM_01690)
hypothetical protein</title>
			<polygon class=" (BBLDBBGM_01690)
hypothetical protein" points="602,40 626,10 626,70" fill="rgb(255,255,255)" fill-opacity="1.0" stroke="rgb(0,0,0)" stroke-width="2"  />
			<g>
				<title>ABC2_membrane_3 (PF12698)
"ABC-2 family transporter protein"</title>
				<polygon class="PF12698" points="606,40 616,28 623,28 623,52 616,52" stroke-linejoin="round" width="21" height="24" fill="rgb(151,189,55)" stroke="rgb(120,151,44)" stroke-width="1" opacity="0.75" />
			</g>
		</g>
		<g>
			<title>lnrL_3 (BBLDBBGM_01691)
Linearmycin resistance ATP-binding protein LnrL</title>
			<polygon class="lnrL_3 (BBLDBBGM_01691)
Linearmycin resistance ATP-binding protein LnrL" points="627,40 651,10 651,70" fill="rgb(255,255,255)" fill-opacity="1.0" stroke="rgb(0,0,0)" stroke-width="2"  />
			<g>
				<title>ABC_tran (PF00005)
"ABC transporter"</title>
				<polygon class="PF00005" points="634,36 641,28 648,28 648,52 641,52 634,44" stroke-linejoin="round" width="14" height="24" fill="rgb(129,201,63)" stroke="rgb(103,160,50)" stroke-width="1" opacity="0.75" />
			</g>
		</g>
		<g>
			<title> (BBLDBBGM_01692)
hypothetical protein</title>
			<polygon class=" (BBLDBBGM_01692)
hypothetical protein" points="735,25 681,25 681,10 651,40 681,70 681,55 735,55" fill="rgb(255,255,255)" fill-opacity="1.0" stroke="rgb(0,0,0)" stroke-width="2"  />
			<g>
				<title>Lant_dehydr_N (PF04738)
"Lantibiotic dehydratase, N terminus"</title>
				<polygon class="PF04738" points="656,39 666,29 666,51 656,41" stroke-linejoin="round" width="10" height="24" fill="rgb(219,60,229)" stroke="rgb(175,47,183)" stroke-width="1" opacity="0.75" />
			</g>
		</g>
		<g>
			<title> (BBLDBBGM_01693)
hypothetical protein</title>
			<polygon class=" (BBLDBBGM_01693)
hypothetical protein" points="767,25 764,25 764,10 734,40 764,70 764,55 767,55" fill="rgb(255,255,255)" fill-opacity="1.0" stroke="rgb(0,0,0)" stroke-width="2"  />
		</g>
		<g>
			<title> (BBLDBBGM_01694)
hypothetical protein</title>
			<polygon class=" (BBLDBBGM_01694)
hypothetical protein" points="770,40 775,10 775,70" fill="rgb(255,255,255)" fill-opacity="1.0" stroke="rgb(0,0,0)" stroke-width="2"  />
		</g>
		<g>
			<title> (BBLDBBGM_01695)
hypothetical protein</title>
			<polygon class=" (BBLDBBGM_01695)
hypothetical protein" points="785,40 798,10 798,70" fill="rgb(255,255,255)" fill-opacity="1.0" stroke="rgb(0,0,0)" stroke-width="2"  />
			<g>
				<title>Glyoxalase (PF00903)
"Glyoxalase/Bleomycin resistance protein/Dioxygenase superfamily"</title>
				<polygon class="PF00903" points="788,40 793,28 797,28 797,52 793,52" stroke-linejoin="round" width="11" height="24" fill="rgb(50,162,189)" stroke="rgb(40,129,151)" stroke-width="1" opacity="0.75" />
			</g>
		</g>
		<g>
			<title>ltaS1_2 (BBLDBBGM_01696)
Lipoteichoic acid synthase 1</title>
			<polygon class="ltaS1_2 (BBLDBBGM_01696)
Lipoteichoic acid synthase 1" points="871,25 838,25 838,10 808,40 838,70 838,55 871,55" fill="rgb(255,255,255)" fill-opacity="1.0" stroke="rgb(0,0,0)" stroke-width="2"  />
			<g>
				<title>Sulfatase (PF00884)
"Sulfatase"</title>
				<polygon class="PF00884" points="817,35 824,28 845,28 845,52 824,52 817,45" stroke-linejoin="round" width="28" height="24" fill="rgb(61,103,198)" stroke="rgb(48,82,158)" stroke-width="1" opacity="0.75" />
			</g>
		</g>
		<g>
			<title> (BBLDBBGM_01697)
hypothetical protein</title>
			<polygon class=" (BBLDBBGM_01697)
hypothetical protein" points="928,25 911,25 911,10 881,40 911,70 911,55 928,55" fill="rgb(255,255,255)" fill-opacity="1.0" stroke="rgb(0,0,0)" stroke-width="2"  />
			<g>
				<title>bPH_2 (PF03703)
"Bacterial PH domain"</title>
				<polygon class="PF03703" points="885,40 890,35 890,45" stroke-linejoin="round" width="7" height="24" fill="rgb(228,219,97)" stroke="rgb(182,175,77)" stroke-width="1" opacity="0.75" />
			</g>
			<g>
				<title>bPH_2 (PF03703)
"Bacterial PH domain"</title>
				<polygon class="PF03703" points="897,28 897,28 905,28 905,52 897,52 897,52" stroke-linejoin="round" width="8" height="24" fill="rgb(228,219,97)" stroke="rgb(182,175,77)" stroke-width="1" opacity="0.75" />
			</g>
			<g>
				<title>bPH_2 (PF03703)
"Bacterial PH domain"</title>
				<rect class="PF03703" x="919" y="28" stroke-linejoin="round" width="8" height="24" fill="rgb(228,219,97)" stroke="rgb(182,175,77)" stroke-width="1" opacity="0.75" />
			</g>
		</g>
		<g>
			<title> (BBLDBBGM_01698)
hypothetical protein</title>
			<polygon class=" (BBLDBBGM_01698)
hypothetical protein" points="934,40 950,10 950,70" fill="rgb(255,255,255)" fill-opacity="1.0" stroke="rgb(0,0,0)" stroke-width="2"  />
			<g>
				<title>bPH_2 (PF03703)
"Bacterial PH domain"</title>
				<polygon class="PF03703" points="937,40 942,31 942,49" stroke-linejoin="round" width="7" height="24" fill="rgb(228,219,97)" stroke="rgb(182,175,77)" stroke-width="1" opacity="0.75" />
			</g>
		</g>
		<g>
			<title> (BBLDBBGM_01699)
hypothetical protein</title>
			<polygon class=" (BBLDBBGM_01699)
hypothetical protein" points="956,40 973,10 973,70" fill="rgb(255,255,255)" fill-opacity="1.0" stroke="rgb(0,0,0)" stroke-width="2"  />
			<g>
				<title>DUF1456 (PF07308)
"Protein of unknown function (DUF1456)"</title>
				<polygon class="PF07308" points="959,40 962,35 962,45" stroke-linejoin="round" width="6" height="24" fill="rgb(196,192,82)" stroke="rgb(156,153,65)" stroke-width="1" opacity="0.75" />
			</g>
			<g>
				<title>DUF1456 (PF07308)
"Protein of unknown function (DUF1456)"</title>
				<polygon class="PF07308" points="965,30 966,28 972,28 972,52 966,52 965,50" stroke-linejoin="round" width="7" height="24" fill="rgb(196,192,82)" stroke="rgb(156,153,65)" stroke-width="1" opacity="0.75" />
			</g>
		</g>
		<g>
			<title>alaS_1 (BBLDBBGM_01700)
Alanine--tRNA ligase</title>
			<polygon class="alaS_1 (BBLDBBGM_01700)
Alanine--tRNA ligase" points="1021,25 1012,25 1012,10 982,40 1012,70 1012,55 1021,55" fill="rgb(255,255,255)" fill-opacity="1.0" stroke="rgb(0,0,0)" stroke-width="2"  />
			<g>
				<title>DHHA1 (PF02272)
"DHHA1 domain"</title>
				<polygon class="PF02272" points="986,40 996,30 996,50" stroke-linejoin="round" width="14" height="24" fill="rgb(110,220,187)" stroke="rgb(88,176,149)" stroke-width="1" opacity="0.75" />
			</g>
			<g>
				<title>tRNA_SAD (PF07973)
"Threonyl and Alanyl tRNA synthetase second additional domain"</title>
				<rect class="PF07973" x="999" y="28" stroke-linejoin="round" width="4" height="24" fill="rgb(220,97,228)" stroke="rgb(176,77,182)" stroke-width="1" opacity="0.75" />
			</g>
		</g>
		<g>
			<title>pfkA_1 (BBLDBBGM_01701)
ATP-dependent 6-phosphofructokinase</title>
			<polygon class="pfkA_1 (BBLDBBGM_01701)
ATP-dependent 6-phosphofructokinase" points="1061,25 1059,25 1059,10 1029,40 1059,70 1059,55 1061,55" fill="rgb(255,255,255)" fill-opacity="1.0" stroke="rgb(0,0,0)" stroke-width="2"  />
			<g>
				<title>PFK (PF00365)
"Phosphofructokinase"</title>
				<polygon class="PF00365" points="1033,40 1045,28 1060,28 1060,52 1045,52 1033,40" stroke-linejoin="round" width="27" height="24" fill="rgb(134,188,70)" stroke="rgb(107,150,56)" stroke-width="1" opacity="0.75" />
			</g>
		</g>
	</g>
</svg>
