<svg version="1.1" baseProfile="full" xmlns="http://www.w3.org/2000/svg" width="1389.5333333333333" height="80">
	<g>
		<line x1="10" y1="40.0" x2="1379.5333333333333" y2="40.0" style="stroke:rgb(70,70,70); stroke-width:3 "/>
		<g>
			<title> (LMCNIFEI_02594)
hypothetical protein</title>
			<polygon class=" (LMCNIFEI_02594)
hypothetical protein" points="66,10 71,40 66,70" fill="rgb(255,255,255)" fill-opacity="1.0" stroke="rgb(0,0,0)" stroke-width="2"  />
		</g>
		<g>
			<title> (LMCNIFEI_02595)
hypothetical protein</title>
			<polygon class=" (LMCNIFEI_02595)
hypothetical protein" points="70,10 87,40 70,70" fill="rgb(255,255,255)" fill-opacity="1.0" stroke="rgb(0,0,0)" stroke-width="2"  />
			<g>
				<title>DUF5590 (PF17881)
"Domain of unknown function (DUF5590)"</title>
				<polygon class="PF17881" points="75,28 77,28 79,32 79,48 77,52 75,52" stroke-linejoin="round" width="4" height="24" fill="rgb(77,212,144)" stroke="rgb(61,169,115)" stroke-width="1" opacity="0.75" />
			</g>
		</g>
		<g>
			<title> (LMCNIFEI_02596)
Aspartate aminotransferase</title>
			<polygon class=" (LMCNIFEI_02596)
Aspartate aminotransferase" points="89,25 98,25 98,10 128,40 98,70 98,55 89,55" fill="rgb(255,255,255)" fill-opacity="1.0" stroke="rgb(0,0,0)" stroke-width="2"  />
			<g>
				<title>Aminotran_1_2 (PF00155)
"Aminotransferase class I and II"</title>
				<polygon class="PF00155" points="92,28 112,28 124,40 112,52 92,52" stroke-linejoin="round" width="35" height="24" fill="rgb(89,113,198)" stroke="rgb(71,90,158)" stroke-width="1" opacity="0.75" />
			</g>
		</g>
		<g>
			<title>asnS (LMCNIFEI_02597)
Asparagine--tRNA ligase</title>
			<polygon class="asnS (LMCNIFEI_02597)
Asparagine--tRNA ligase" points="129,25 142,25 142,10 172,40 142,70 142,55 129,55" fill="rgb(255,255,255)" fill-opacity="1.0" stroke="rgb(0,0,0)" stroke-width="2"  />
			<g>
				<title>tRNA_anti-codon (PF01336)
"OB-fold nucleic acid binding domain"</title>
				<rect class="PF01336" x="130" y="28" stroke-linejoin="round" width="7" height="24" fill="rgb(215,103,173)" stroke="rgb(172,82,138)" stroke-width="1" opacity="0.75" />
			</g>
			<g>
				<title>tRNA-synt_2 (PF00152)
"tRNA synthetases class II (D, K and N)"</title>
				<polygon class="PF00152" points="139,28 155,28 167,40 155,52 139,52" stroke-linejoin="round" width="31" height="24" fill="rgb(90,71,190)" stroke="rgb(72,56,152)" stroke-width="1" opacity="0.75" />
			</g>
		</g>
		<g>
			<title>dnaD (LMCNIFEI_02598)
DNA replication protein DnaD</title>
			<polygon class="dnaD (LMCNIFEI_02598)
DNA replication protein DnaD" points="174,10 197,40 174,70" fill="rgb(255,255,255)" fill-opacity="1.0" stroke="rgb(0,0,0)" stroke-width="2"  />
			<g>
				<title>DnaB_2 (PF07261)
"Replication initiation and membrane attachment"</title>
				<polygon class="PF07261" points="186,31 193,40 193,40 186,49" stroke-linejoin="round" width="7" height="24" fill="rgb(136,193,85)" stroke="rgb(108,154,68)" stroke-width="1" opacity="0.75" />
			</g>
		</g>
		<g>
			<title>nth (LMCNIFEI_02599)
Endonuclease III</title>
			<polygon class="nth (LMCNIFEI_02599)
Endonuclease III" points="198,10 220,40 198,70" fill="rgb(255,255,255)" fill-opacity="1.0" stroke="rgb(0,0,0)" stroke-width="2"  />
			<g>
				<title>HhH-GPD (PF00730)
"HhH-GPD superfamily base excision DNA repair protein"</title>
				<polygon class="PF00730" points="201,28 207,28 214,37 214,43 207,52 201,52" stroke-linejoin="round" width="13" height="24" fill="rgb(190,78,115)" stroke="rgb(152,62,92)" stroke-width="1" opacity="0.75" />
			</g>
		</g>
		<g>
			<title>ponA (LMCNIFEI_02600)
Penicillin-binding protein 1A/1B</title>
			<polygon class="ponA (LMCNIFEI_02600)
Penicillin-binding protein 1A/1B" points="311,25 251,25 251,10 221,40 251,70 251,55 311,55" fill="rgb(255,255,255)" fill-opacity="1.0" stroke="rgb(0,0,0)" stroke-width="2"  />
			<g>
				<title>fn3 (PF00041)
"Fibronectin type III domain"</title>
				<polygon class="PF00041" points="234,31 237,28 241,28 241,52 237,52 234,49" stroke-linejoin="round" width="7" height="24" fill="rgb(203,70,135)" stroke="rgb(162,56,107)" stroke-width="1" opacity="0.75" />
			</g>
			<g>
				<title>Transpeptidase (PF00905)
"Penicillin binding protein transpeptidase domain"</title>
				<rect class="PF00905" x="248" y="28" stroke-linejoin="round" width="28" height="24" fill="rgb(161,226,87)" stroke="rgb(128,180,69)" stroke-width="1" opacity="0.75" />
			</g>
			<g>
				<title>Transgly (PF00912)
"Transglycosylase"</title>
				<rect class="PF00912" x="286" y="28" stroke-linejoin="round" width="17" height="24" fill="rgb(172,107,216)" stroke="rgb(137,85,172)" stroke-width="1" opacity="0.75" />
			</g>
		</g>
		<g>
			<title>recU (LMCNIFEI_02601)
Holliday junction resolvase RecU</title>
			<polygon class="recU (LMCNIFEI_02601)
Holliday junction resolvase RecU" points="312,40 331,10 331,70" fill="rgb(255,255,255)" fill-opacity="1.0" stroke="rgb(0,0,0)" stroke-width="2"  />
			<g>
				<title>RecU (PF03838)
"Recombination protein U"</title>
				<polygon class="PF03838" points="316,40 324,28 328,28 328,52 324,52" stroke-linejoin="round" width="16" height="24" fill="rgb(93,204,83)" stroke="rgb(74,163,66)" stroke-width="1" opacity="0.75" />
			</g>
		</g>
		<g>
			<title> (LMCNIFEI_02602)
hypothetical protein</title>
			<polygon class=" (LMCNIFEI_02602)
hypothetical protein" points="331,40 334,10 334,70" fill="rgb(255,255,255)" fill-opacity="1.0" stroke="rgb(0,0,0)" stroke-width="2"  />
		</g>
		<g>
			<title> (LMCNIFEI_02603)
hypothetical protein</title>
			<polygon class=" (LMCNIFEI_02603)
hypothetical protein" points="341,40 344,10 344,70" fill="rgb(255,255,255)" fill-opacity="1.0" stroke="rgb(0,0,0)" stroke-width="2"  />
		</g>
		<g>
			<title>racA (LMCNIFEI_02604)
Chromosome-anchoring protein RacA</title>
			<polygon class="racA (LMCNIFEI_02604)
Chromosome-anchoring protein RacA" points="349,10 357,40 349,70" fill="rgb(255,255,255)" fill-opacity="1.0" stroke="rgb(0,0,0)" stroke-width="2"  />
		</g>
		<g>
			<title> (LMCNIFEI_02605)
hypothetical protein</title>
			<polygon class=" (LMCNIFEI_02605)
hypothetical protein" points="360,10 372,40 360,70" fill="rgb(255,255,255)" fill-opacity="1.0" stroke="rgb(0,0,0)" stroke-width="2"  />
			<g>
				<title>DUF1798 (PF08807)
"Bacterial domain of unknown function (DUF1798)"</title>
				<polygon class="PF08807" points="360,28 363,28 369,40 363,52 360,52" stroke-linejoin="round" width="10" height="24" fill="rgb(153,201,81)" stroke="rgb(122,160,64)" stroke-width="1" opacity="0.75" />
			</g>
		</g>
		<g>
			<title>mdtC (LMCNIFEI_02606)
Multidrug resistance protein MdtC</title>
			<polygon class="mdtC (LMCNIFEI_02606)
Multidrug resistance protein MdtC" points="485,25 413,25 413,10 383,40 413,70 413,55 485,55" fill="rgb(255,255,255)" fill-opacity="1.0" stroke="rgb(0,0,0)" stroke-width="2"  />
			<g>
				<title>ACR_tran (PF00873)
"AcrB/AcrD/AcrF family"</title>
				<polygon class="PF00873" points="387,40 399,28 485,28 485,52 399,52" stroke-linejoin="round" width="101" height="24" fill="rgb(63,191,60)" stroke="rgb(50,152,48)" stroke-width="1" opacity="0.75" />
			</g>
		</g>
		<g>
			<title>cdd (LMCNIFEI_02607)
Cytidine deaminase</title>
			<polygon class="cdd (LMCNIFEI_02607)
Cytidine deaminase" points="491,10 504,40 491,70" fill="rgb(255,255,255)" fill-opacity="1.0" stroke="rgb(0,0,0)" stroke-width="2"  />
			<g>
				<title>dCMP_cyt_deam_1 (PF00383)
"Cytidine and deoxycytidylate deaminase zinc-binding region"</title>
				<polygon class="PF00383" points="491,28 495,28 501,40 501,40 495,52 491,52" stroke-linejoin="round" width="10" height="24" fill="rgb(91,149,216)" stroke="rgb(72,119,172)" stroke-width="1" opacity="0.75" />
			</g>
		</g>
		<g>
			<title> (LMCNIFEI_02608)
hypothetical protein</title>
			<polygon class=" (LMCNIFEI_02608)
hypothetical protein" points="507,10 525,40 507,70" fill="rgb(255,255,255)" fill-opacity="1.0" stroke="rgb(0,0,0)" stroke-width="2"  />
			<g>
				<title>YpsA (PF06908)
"YspA SLOG family"</title>
				<polygon class="PF06908" points="507,28 514,28 522,40 514,52 507,52" stroke-linejoin="round" width="16" height="24" fill="rgb(136,100,209)" stroke="rgb(108,80,167)" stroke-width="1" opacity="0.75" />
			</g>
		</g>
		<g>
			<title>gpsB (LMCNIFEI_02609)
Cell cycle protein GpsB</title>
			<polygon class="gpsB (LMCNIFEI_02609)
Cell cycle protein GpsB" points="529,10 539,40 529,70" fill="rgb(255,255,255)" fill-opacity="1.0" stroke="rgb(0,0,0)" stroke-width="2"  />
			<g>
				<title>DivIVA (PF05103)
"DivIVA protein"</title>
				<polygon class="PF05103" points="529,28 531,28 535,36 535,44 531,52 529,52" stroke-linejoin="round" width="6" height="24" fill="rgb(213,106,117)" stroke="rgb(170,84,93)" stroke-width="1" opacity="0.75" />
			</g>
		</g>
		<g>
			<title>rlmL (LMCNIFEI_02610)
Ribosomal RNA large subunit methyltransferase L</title>
			<polygon class="rlmL (LMCNIFEI_02610)
Ribosomal RNA large subunit methyltransferase L" points="559,25 566,25 566,10 596,40 566,70 566,55 559,55" fill="rgb(255,255,255)" fill-opacity="1.0" stroke="rgb(0,0,0)" stroke-width="2"  />
			<g>
				<title>THUMP (PF02926)
"THUMP domain"</title>
				<rect class="PF02926" x="560" y="28" stroke-linejoin="round" width="14" height="24" fill="rgb(52,209,163)" stroke="rgb(41,167,130)" stroke-width="1" opacity="0.75" />
			</g>
			<g>
				<title>UPF0020 (PF01170)
"Putative RNA methylase family UPF0020"</title>
				<polygon class="PF01170" points="575,28 580,28 592,40 580,52 575,52" stroke-linejoin="round" width="20" height="24" fill="rgb(89,182,69)" stroke="rgb(71,145,55)" stroke-width="1" opacity="0.75" />
			</g>
		</g>
		<g>
			<title>ypwA_1 (LMCNIFEI_02611)
Carboxypeptidase 1</title>
			<polygon class="ypwA_1 (LMCNIFEI_02611)
Carboxypeptidase 1" points="598,25 617,25 617,10 647,40 617,70 617,55 598,55" fill="rgb(255,255,255)" fill-opacity="1.0" stroke="rgb(0,0,0)" stroke-width="2"  />
			<g>
				<title>Peptidase_M32 (PF02074)
"Carboxypeptidase Taq (M32) metallopeptidase"</title>
				<polygon class="PF02074" points="598,28 631,28 643,40 631,52 598,52" stroke-linejoin="round" width="48" height="24" fill="rgb(213,142,93)" stroke="rgb(170,113,74)" stroke-width="1" opacity="0.75" />
			</g>
		</g>
		<g>
			<title> (LMCNIFEI_02612)
hypothetical protein</title>
			<polygon class=" (LMCNIFEI_02612)
hypothetical protein" points="649,40 667,10 667,70" fill="rgb(255,255,255)" fill-opacity="1.0" stroke="rgb(0,0,0)" stroke-width="2"  />
		</g>
		<g>
			<title> (LMCNIFEI_02613)
Alpha-pyrone synthesis polyketide synthase-like Pks11</title>
			<polygon class=" (LMCNIFEI_02613)
Alpha-pyrone synthesis polyketide synthase-like Pks11" points="676,25 682,25 682,10 712,40 682,70 682,55 676,55" fill="rgb(255,255,255)" fill-opacity="1.0" stroke="rgb(0,0,0)" stroke-width="2"  />
			<g>
				<title>Chal_sti_synt_N (PF00195)
"Chalcone and stilbene synthases, N-terminal domain"</title>
				<rect class="PF00195" x="677" y="28" stroke-linejoin="round" width="18" height="24" fill="rgb(60,181,161)" stroke="rgb(47,144,128)" stroke-width="1" opacity="0.75" />
			</g>
			<g>
				<title>Chal_sti_synt_C (PF02797)
"Chalcone and stilbene synthases, C-terminal domain"</title>
				<polygon class="PF02797" points="698,31 707,40 698,49" stroke-linejoin="round" width="13" height="24" fill="rgb(139,212,63)" stroke="rgb(111,169,50)" stroke-width="1" opacity="0.75" />
			</g>
		</g>
		<g>
			<title> (LMCNIFEI_02614)
hypothetical protein</title>
			<polygon class=" (LMCNIFEI_02614)
hypothetical protein" points="712,10 728,40 712,70" fill="rgb(255,255,255)" fill-opacity="1.0" stroke="rgb(0,0,0)" stroke-width="2"  />
			<g>
				<title>ICMT (PF04140)
"Isoprenylcysteine carboxyl methyltransferase (ICMT) family"</title>
				<polygon class="PF04140" points="718,28 718,28 725,40 718,52 718,52" stroke-linejoin="round" width="9" height="24" fill="rgb(100,223,104)" stroke="rgb(80,178,83)" stroke-width="1" opacity="0.75" />
			</g>
		</g>
		<g>
			<title> (LMCNIFEI_02615)
hypothetical protein</title>
			<polygon class=" (LMCNIFEI_02615)
hypothetical protein" points="732,10 737,40 732,70" fill="rgb(255,255,255)" fill-opacity="1.0" stroke="rgb(0,0,0)" stroke-width="2"  />
		</g>
		<g>
			<title> (LMCNIFEI_02616)
hypothetical protein</title>
			<polygon class=" (LMCNIFEI_02616)
hypothetical protein" points="741,10 750,40 741,70" fill="rgb(255,255,255)" fill-opacity="1.0" stroke="rgb(0,0,0)" stroke-width="2"  />
		</g>
		<g>
			<title>rnhA (LMCNIFEI_02617)
14.7 kDa ribonuclease H-like protein</title>
			<polygon class="rnhA (LMCNIFEI_02617)
14.7 kDa ribonuclease H-like protein" points="751,40 764,10 764,70" fill="rgb(255,255,255)" fill-opacity="1.0" stroke="rgb(0,0,0)" stroke-width="2"  />
			<g>
				<title>RNase_H (PF00075)
"RNase H"</title>
				<polygon class="PF00075" points="754,40 759,28 763,28 763,52 759,52" stroke-linejoin="round" width="12" height="24" fill="rgb(225,86,224)" stroke="rgb(180,68,179)" stroke-width="1" opacity="0.75" />
			</g>
		</g>
		<g>
			<title> (LMCNIFEI_02618)
queuosine precursor transporter</title>
			<polygon class=" (LMCNIFEI_02618)
queuosine precursor transporter" points="768,40 790,10 790,70" fill="rgb(255,255,255)" fill-opacity="1.0" stroke="rgb(0,0,0)" stroke-width="2"  />
			<g>
				<title>Vut_1 (PF02592)
"Putative vitamin uptake transporter"</title>
				<polygon class="PF02592" points="772,40 781,28 784,28 784,52 781,52" stroke-linejoin="round" width="16" height="24" fill="rgb(93,184,75)" stroke="rgb(74,147,60)" stroke-width="1" opacity="0.75" />
			</g>
		</g>
		<g>
			<title>fhs (LMCNIFEI_02619)
Formate--tetrahydrofolate ligase</title>
			<polygon class="fhs (LMCNIFEI_02619)
Formate--tetrahydrofolate ligase" points="796,25 821,25 821,10 851,40 821,70 821,55 796,55" fill="rgb(255,255,255)" fill-opacity="1.0" stroke="rgb(0,0,0)" stroke-width="2"  />
			<g>
				<title>FTHFS (PF01268)
"Formate--tetrahydrofolate ligase"</title>
				<polygon class="PF01268" points="796,28 835,28 847,40 835,52 796,52" stroke-linejoin="round" width="55" height="24" fill="rgb(215,182,81)" stroke="rgb(172,145,64)" stroke-width="1" opacity="0.75" />
			</g>
		</g>
		<g>
			<title> (LMCNIFEI_02620)
hypothetical protein</title>
			<polygon class=" (LMCNIFEI_02620)
hypothetical protein" points="853,10 881,40 853,70" fill="rgb(255,255,255)" fill-opacity="1.0" stroke="rgb(0,0,0)" stroke-width="2"  />
			<g>
				<title>DUF72 (PF01904)
"Protein of unknown function DUF72"</title>
				<polygon class="PF01904" points="854,28 865,28 877,40 865,52 854,52" stroke-linejoin="round" width="24" height="24" fill="rgb(63,151,204)" stroke="rgb(50,120,163)" stroke-width="1" opacity="0.75" />
			</g>
		</g>
		<g>
			<title>yedJ (LMCNIFEI_02621)
putative protein YedJ</title>
			<polygon class="yedJ (LMCNIFEI_02621)
putative protein YedJ" points="882,10 902,40 882,70" fill="rgb(255,255,255)" fill-opacity="1.0" stroke="rgb(0,0,0)" stroke-width="2"  />
			<g>
				<title>HD (PF01966)
"HD domain"</title>
				<polygon class="PF01966" points="884,28 890,28 893,32 893,48 890,52 884,52" stroke-linejoin="round" width="9" height="24" fill="rgb(92,193,119)" stroke="rgb(73,154,95)" stroke-width="1" opacity="0.75" />
			</g>
		</g>
		<g>
			<title>thyA (LMCNIFEI_02622)
Thymidylate synthase</title>
			<polygon class="thyA (LMCNIFEI_02622)
Thymidylate synthase" points="903,25 904,25 904,10 934,40 904,70 904,55 903,55" fill="rgb(255,255,255)" fill-opacity="1.0" stroke="rgb(0,0,0)" stroke-width="2"  />
			<g>
				<title>Thymidylat_synt (PF00303)
"Thymidylate synthase"</title>
				<polygon class="PF00303" points="903,28 918,28 930,40 918,52 903,52" stroke-linejoin="round" width="31" height="24" fill="rgb(103,91,191)" stroke="rgb(82,72,152)" stroke-width="1" opacity="0.75" />
			</g>
		</g>
		<g>
			<title> (LMCNIFEI_02623)
IS1595 family transposase ISSsu9</title>
			<polygon class=" (LMCNIFEI_02623)
IS1595 family transposase ISSsu9" points="936,10 952,40 936,70" fill="rgb(255,255,255)" fill-opacity="1.0" stroke="rgb(0,0,0)" stroke-width="2"  />
			<g>
				<title>DHFR_1 (PF00186)
"Dihydrofolate reductase"</title>
				<polygon class="PF00186" points="936,28 942,28 949,40 942,52 936,52" stroke-linejoin="round" width="16" height="24" fill="rgb(150,188,63)" stroke="rgb(119,150,50)" stroke-width="1" opacity="0.75" />
			</g>
		</g>
		<g>
			<title>mobA (LMCNIFEI_02624)
putative molybdenum cofactor guanylyltransferase</title>
			<polygon class="mobA (LMCNIFEI_02624)
putative molybdenum cofactor guanylyltransferase" points="952,10 973,40 952,70" fill="rgb(255,255,255)" fill-opacity="1.0" stroke="rgb(0,0,0)" stroke-width="2"  />
			<g>
				<title>NTP_transf_3 (PF12804)
"MobA-like NTP transferase domain"</title>
				<polygon class="PF12804" points="953,28 961,28 968,38 968,42 961,52 953,52" stroke-linejoin="round" width="15" height="24" fill="rgb(52,209,196)" stroke="rgb(41,167,156)" stroke-width="1" opacity="0.75" />
			</g>
		</g>
		<g>
			<title>tatA (LMCNIFEI_02625)
Sec-independent protein translocase protein TatA</title>
			<polygon class="tatA (LMCNIFEI_02625)
Sec-independent protein translocase protein TatA" points="976,10 983,40 976,70" fill="rgb(255,255,255)" fill-opacity="1.0" stroke="rgb(0,0,0)" stroke-width="2"  />
			<g>
				<title>MttA_Hcf106 (PF02416)
"mttA/Hcf106 family"</title>
				<polygon class="PF02416" points="976,28 976,28 980,40 976,52 976,52" stroke-linejoin="round" width="6" height="24" fill="rgb(74,206,98)" stroke="rgb(59,164,78)" stroke-width="1" opacity="0.75" />
			</g>
		</g>
		<g>
			<title>tatAd (LMCNIFEI_02626)
Sec-independent protein translocase protein TatAd</title>
			<polygon class="tatAd (LMCNIFEI_02626)
Sec-independent protein translocase protein TatAd" points="984,10 990,40 984,70" fill="rgb(255,255,255)" fill-opacity="1.0" stroke="rgb(0,0,0)" stroke-width="2"  />
			<g>
				<title>MttA_Hcf106 (PF02416)
"mttA/Hcf106 family"</title>
				<polygon class="PF02416" points="984,28 984,28 987,40 984,52 984,52" stroke-linejoin="round" width="5" height="24" fill="rgb(74,206,98)" stroke="rgb(59,164,78)" stroke-width="1" opacity="0.75" />
			</g>
		</g>
		<g>
			<title>tatC1 (LMCNIFEI_02627)
Sec-independent protein translocase protein TatCd</title>
			<polygon class="tatC1 (LMCNIFEI_02627)
Sec-independent protein translocase protein TatCd" points="993,10 1018,40 993,70" fill="rgb(255,255,255)" fill-opacity="1.0" stroke="rgb(0,0,0)" stroke-width="2"  />
			<g>
				<title>TatC (PF00902)
"Sec-independent protein translocase protein (TatC)"</title>
				<polygon class="PF00902" points="994,28 1004,28 1014,40 1014,40 1004,52 994,52" stroke-linejoin="round" width="20" height="24" fill="rgb(84,193,209)" stroke="rgb(67,154,167)" stroke-width="1" opacity="0.75" />
			</g>
		</g>
		<g>
			<title> (LMCNIFEI_02628)
hypothetical protein</title>
			<polygon class=" (LMCNIFEI_02628)
hypothetical protein" points="1021,10 1028,40 1021,70" fill="rgb(255,255,255)" fill-opacity="1.0" stroke="rgb(0,0,0)" stroke-width="2"  />
			<g>
				<title>YozE_SAM_like (PF06855)
"YozE SAM-like fold"</title>
				<polygon class="PF06855" points="1021,28 1021,28 1025,40 1021,52 1021,52" stroke-linejoin="round" width="6" height="24" fill="rgb(83,201,171)" stroke="rgb(66,160,136)" stroke-width="1" opacity="0.75" />
			</g>
		</g>
		<g>
			<title>sbcD (LMCNIFEI_02629)
Nuclease SbcCD subunit D</title>
			<polygon class="sbcD (LMCNIFEI_02629)
Nuclease SbcCD subunit D" points="1032,25 1040,25 1040,10 1070,40 1040,70 1040,55 1032,55" fill="rgb(255,255,255)" fill-opacity="1.0" stroke="rgb(0,0,0)" stroke-width="2"  />
			<g>
				<title>Metallophos (PF00149)
"Calcineurin-like phosphoesterase"</title>
				<rect class="PF00149" x="1032" y="28" stroke-linejoin="round" width="21" height="24" fill="rgb(181,197,58)" stroke="rgb(144,157,46)" stroke-width="1" opacity="0.75" />
			</g>
			<g>
				<title>SbcD_C (PF12320)
"Type 5 capsule protein repressor C-terminal domain"</title>
				<polygon class="PF12320" points="1058,32 1066,40 1058,48" stroke-linejoin="round" width="9" height="24" fill="rgb(182,136,65)" stroke="rgb(145,108,52)" stroke-width="1" opacity="0.75" />
			</g>
		</g>
		<g>
			<title> (LMCNIFEI_02630)
hypothetical protein</title>
			<polygon class=" (LMCNIFEI_02630)
hypothetical protein" points="1070,25 1143,25 1143,10 1173,40 1143,70 1143,55 1070,55" fill="rgb(255,255,255)" fill-opacity="1.0" stroke="rgb(0,0,0)" stroke-width="2"  />
			<g>
				<title>AAA_23 (PF13476)
"AAA domain"</title>
				<rect class="PF13476" x="1070" y="28" stroke-linejoin="round" width="22" height="24" fill="rgb(57,185,214)" stroke="rgb(45,147,171)" stroke-width="1" opacity="0.75" />
			</g>
			<g>
				<title>SbcCD_C (PF13558)
"Putative exonuclease SbcCD, C subunit"</title>
				<polygon class="PF13558" points="1161,32 1169,40 1169,40 1161,48" stroke-linejoin="round" width="8" height="24" fill="rgb(84,179,84)" stroke="rgb(67,143,67)" stroke-width="1" opacity="0.75" />
			</g>
		</g>
		<g>
			<title>ytmB (LMCNIFEI_02631)
putative protein YtmB</title>
			<polygon class="ytmB (LMCNIFEI_02631)
putative protein YtmB" points="1175,10 1183,40 1175,70" fill="rgb(255,255,255)" fill-opacity="1.0" stroke="rgb(0,0,0)" stroke-width="2"  />
			<g>
				<title>DUF2584 (PF10763)
"Protein of unknown function (DUF2584)"</title>
				<polygon class="PF10763" points="1175,28 1176,28 1180,40 1176,52 1175,52" stroke-linejoin="round" width="8" height="24" fill="rgb(118,211,56)" stroke="rgb(94,168,44)" stroke-width="1" opacity="0.75" />
			</g>
		</g>
		<g>
			<title>ung (LMCNIFEI_02632)
Uracil-DNA glycosylase</title>
			<polygon class="ung (LMCNIFEI_02632)
Uracil-DNA glycosylase" points="1186,10 1208,40 1186,70" fill="rgb(255,255,255)" fill-opacity="1.0" stroke="rgb(0,0,0)" stroke-width="2"  />
			<g>
				<title>UDG (PF03167)
"Uracil DNA glycosylase superfamily"</title>
				<polygon class="PF03167" points="1190,28 1195,28 1204,40 1195,52 1190,52" stroke-linejoin="round" width="16" height="24" fill="rgb(64,224,60)" stroke="rgb(51,179,48)" stroke-width="1" opacity="0.75" />
			</g>
		</g>
		<g>
			<title> (LMCNIFEI_02633)
hypothetical protein</title>
			<polygon class=" (LMCNIFEI_02633)
hypothetical protein" points="1211,10 1228,40 1211,70" fill="rgb(255,255,255)" fill-opacity="1.0" stroke="rgb(0,0,0)" stroke-width="2"  />
			<g>
				<title>YqfQ (PF14181)
"YqfQ-like protein"</title>
				<polygon class="PF14181" points="1212,28 1217,28 1224,40 1217,52 1212,52" stroke-linejoin="round" width="16" height="24" fill="rgb(207,119,57)" stroke="rgb(165,95,45)" stroke-width="1" opacity="0.75" />
			</g>
		</g>
		<g>
			<title>msrB_2 (LMCNIFEI_02634)
Peptide methionine sulfoxide reductase MsrB</title>
			<polygon class="msrB_2 (LMCNIFEI_02634)
Peptide methionine sulfoxide reductase MsrB" points="1231,25 1233,25 1233,10 1263,40 1233,70 1233,55 1231,55" fill="rgb(255,255,255)" fill-opacity="1.0" stroke="rgb(0,0,0)" stroke-width="2"  />
			<g>
				<title>PMSR (PF01625)
"Peptide methionine sulfoxide reductase"</title>
				<rect class="PF01625" x="1231" y="28" stroke-linejoin="round" width="15" height="24" fill="rgb(201,74,176)" stroke="rgb(160,59,140)" stroke-width="1" opacity="0.75" />
			</g>
			<g>
				<title>SelR (PF01641)
"SelR domain"</title>
				<polygon class="PF01641" points="1249,31 1258,40 1249,49" stroke-linejoin="round" width="12" height="24" fill="rgb(192,99,202)" stroke="rgb(153,79,161)" stroke-width="1" opacity="0.75" />
			</g>
		</g>
		<g>
			<title> (LMCNIFEI_02635)
hypothetical protein</title>
			<polygon class=" (LMCNIFEI_02635)
hypothetical protein" points="1266,10 1285,40 1266,70" fill="rgb(255,255,255)" fill-opacity="1.0" stroke="rgb(0,0,0)" stroke-width="2"  />
			<g>
				<title>TetR_N (PF00440)
"Bacterial regulatory proteins, tetR family"</title>
				<rect class="PF00440" x="1267" y="28" stroke-linejoin="round" width="4" height="24" fill="rgb(73,212,190)" stroke="rgb(58,169,152)" stroke-width="1" opacity="0.75" />
			</g>
		</g>
		<g>
			<title> (LMCNIFEI_02636)
hypothetical protein</title>
			<polygon class=" (LMCNIFEI_02636)
hypothetical protein" points="1286,40 1308,10 1308,70" fill="rgb(255,255,255)" fill-opacity="1.0" stroke="rgb(0,0,0)" stroke-width="2"  />
			<g>
				<title>Acetyltransf_1 (PF00583)
"Acetyltransferase (GNAT) family"</title>
				<polygon class="PF00583" points="1291,39 1299,28 1304,28 1304,52 1299,52 1291,41" stroke-linejoin="round" width="13" height="24" fill="rgb(121,183,50)" stroke="rgb(96,146,39)" stroke-width="1" opacity="0.75" />
			</g>
		</g>
		<g>
			<title>mhqD (LMCNIFEI_02637)
Putative hydrolase MhqD</title>
			<polygon class="mhqD (LMCNIFEI_02637)
Putative hydrolase MhqD" points="1312,10 1334,40 1312,70" fill="rgb(255,255,255)" fill-opacity="1.0" stroke="rgb(0,0,0)" stroke-width="2"  />
			<g>
				<title>Abhydrolase_2 (PF02230)
"Phospholipase/Carboxylesterase"</title>
				<polygon class="PF02230" points="1314,28 1321,28 1330,40 1321,52 1314,52" stroke-linejoin="round" width="19" height="24" fill="rgb(165,184,75)" stroke="rgb(132,147,60)" stroke-width="1" opacity="0.75" />
			</g>
		</g>
		<g>
			<title> (LMCNIFEI_02638)
hypothetical protein</title>
			<polygon class=" (LMCNIFEI_02638)
hypothetical protein" points="1336,10 1342,40 1336,70" fill="rgb(255,255,255)" fill-opacity="1.0" stroke="rgb(0,0,0)" stroke-width="2"  />
		</g>
		<g>
			<title> (LMCNIFEI_02639)
hypothetical protein</title>
			<polygon class=" (LMCNIFEI_02639)
hypothetical protein" points="1358,10 1376,40 1358,70" fill="rgb(255,255,255)" fill-opacity="1.0" stroke="rgb(0,0,0)" stroke-width="2"  />
			<g>
				<title>His_Phos_1 (PF00300)
"Histidine phosphatase superfamily (branch 1)"</title>
				<polygon class="PF00300" points="1358,28 1365,28 1372,40 1365,52 1358,52" stroke-linejoin="round" width="17" height="24" fill="rgb(135,184,63)" stroke="rgb(107,147,50)" stroke-width="1" opacity="0.75" />
			</g>
		</g>
	</g>
</svg>
