<svg version="1.1" baseProfile="full" xmlns="http://www.w3.org/2000/svg" width="1289.8666666666666" height="80">
	<g>
		<line x1="10" y1="40.0" x2="1279.8666666666666" y2="40.0" style="stroke:rgb(70,70,70); stroke-width:3 "/>
		<g>
			<title> (FBNBFCBO_01458)
hypothetical protein</title>
			<polygon class=" (FBNBFCBO_01458)
hypothetical protein" points="13,10 30,40 13,70" fill="rgb(255,255,255)" fill-opacity="1.0" stroke="rgb(0,0,0)" stroke-width="2"  />
			<g>
				<title>DUF5590 (PF17881)
"Domain of unknown function (DUF5590)"</title>
				<polygon class="PF17881" points="17,28 20,28 21,30 21,50 20,52 17,52" stroke-linejoin="round" width="4" height="24" fill="rgb(77,212,144)" stroke="rgb(61,169,115)" stroke-width="1" opacity="0.75" />
			</g>
		</g>
		<g>
			<title> (FBNBFCBO_01459)
Aspartate aminotransferase</title>
			<polygon class=" (FBNBFCBO_01459)
Aspartate aminotransferase" points="31,25 40,25 40,10 70,40 40,70 40,55 31,55" fill="rgb(255,255,255)" fill-opacity="1.0" stroke="rgb(0,0,0)" stroke-width="2"  />
			<g>
				<title>Aminotran_1_2 (PF00155)
"Aminotransferase class I and II"</title>
				<polygon class="PF00155" points="34,28 54,28 66,40 54,52 34,52" stroke-linejoin="round" width="35" height="24" fill="rgb(89,113,198)" stroke="rgb(71,90,158)" stroke-width="1" opacity="0.75" />
			</g>
		</g>
		<g>
			<title>asnS (FBNBFCBO_01460)
Asparagine--tRNA ligase</title>
			<polygon class="asnS (FBNBFCBO_01460)
Asparagine--tRNA ligase" points="71,25 84,25 84,10 114,40 84,70 84,55 71,55" fill="rgb(255,255,255)" fill-opacity="1.0" stroke="rgb(0,0,0)" stroke-width="2"  />
			<g>
				<title>tRNA_anti-codon (PF01336)
"OB-fold nucleic acid binding domain"</title>
				<rect class="PF01336" x="72" y="28" stroke-linejoin="round" width="7" height="24" fill="rgb(215,103,173)" stroke="rgb(172,82,138)" stroke-width="1" opacity="0.75" />
			</g>
			<g>
				<title>tRNA-synt_2 (PF00152)
"tRNA synthetases class II (D, K and N)"</title>
				<polygon class="PF00152" points="81,28 97,28 109,40 97,52 81,52" stroke-linejoin="round" width="31" height="24" fill="rgb(90,71,190)" stroke="rgb(72,56,152)" stroke-width="1" opacity="0.75" />
			</g>
		</g>
		<g>
			<title>dnaD (FBNBFCBO_01461)
DNA replication protein DnaD</title>
			<polygon class="dnaD (FBNBFCBO_01461)
DNA replication protein DnaD" points="117,10 139,40 117,70" fill="rgb(255,255,255)" fill-opacity="1.0" stroke="rgb(0,0,0)" stroke-width="2"  />
			<g>
				<title>DnaB_2 (PF07261)
"Replication initiation and membrane attachment"</title>
				<polygon class="PF07261" points="129,31 136,40 136,40 129,49" stroke-linejoin="round" width="7" height="24" fill="rgb(136,193,85)" stroke="rgb(108,154,68)" stroke-width="1" opacity="0.75" />
			</g>
		</g>
		<g>
			<title>nth (FBNBFCBO_01462)
Endonuclease III</title>
			<polygon class="nth (FBNBFCBO_01462)
Endonuclease III" points="141,10 163,40 141,70" fill="rgb(255,255,255)" fill-opacity="1.0" stroke="rgb(0,0,0)" stroke-width="2"  />
			<g>
				<title>HhH-GPD (PF00730)
"HhH-GPD superfamily base excision DNA repair protein"</title>
				<polygon class="PF00730" points="144,28 150,28 157,37 157,43 150,52 144,52" stroke-linejoin="round" width="13" height="24" fill="rgb(190,78,115)" stroke="rgb(152,62,92)" stroke-width="1" opacity="0.75" />
			</g>
		</g>
		<g>
			<title>ponA (FBNBFCBO_01463)
Penicillin-binding protein 1A/1B</title>
			<polygon class="ponA (FBNBFCBO_01463)
Penicillin-binding protein 1A/1B" points="250,25 195,25 195,10 165,40 195,70 195,55 250,55" fill="rgb(255,255,255)" fill-opacity="1.0" stroke="rgb(0,0,0)" stroke-width="2"  />
			<g>
				<title>fn3 (PF00041)
"Fibronectin type III domain"</title>
				<polygon class="PF00041" points="174,35 181,28 181,28 181,52 181,52 174,45" stroke-linejoin="round" width="7" height="24" fill="rgb(203,70,135)" stroke="rgb(162,56,107)" stroke-width="1" opacity="0.75" />
			</g>
			<g>
				<title>Transpeptidase (PF00905)
"Penicillin binding protein transpeptidase domain"</title>
				<rect class="PF00905" x="188" y="28" stroke-linejoin="round" width="27" height="24" fill="rgb(161,226,87)" stroke="rgb(128,180,69)" stroke-width="1" opacity="0.75" />
			</g>
			<g>
				<title>Transgly (PF00912)
"Transglycosylase"</title>
				<rect class="PF00912" x="225" y="28" stroke-linejoin="round" width="17" height="24" fill="rgb(172,107,216)" stroke="rgb(137,85,172)" stroke-width="1" opacity="0.75" />
			</g>
		</g>
		<g>
			<title>recU (FBNBFCBO_01464)
Holliday junction resolvase RecU</title>
			<polygon class="recU (FBNBFCBO_01464)
Holliday junction resolvase RecU" points="250,40 271,10 271,70" fill="rgb(255,255,255)" fill-opacity="1.0" stroke="rgb(0,0,0)" stroke-width="2"  />
			<g>
				<title>RecU (PF03838)
"Recombination protein U"</title>
				<polygon class="PF03838" points="254,40 263,28 266,28 266,52 263,52" stroke-linejoin="round" width="16" height="24" fill="rgb(93,204,83)" stroke="rgb(74,163,66)" stroke-width="1" opacity="0.75" />
			</g>
		</g>
		<g>
			<title>racA (FBNBFCBO_01465)
Chromosome-anchoring protein RacA</title>
			<polygon class="racA (FBNBFCBO_01465)
Chromosome-anchoring protein RacA" points="284,10 292,40 284,70" fill="rgb(255,255,255)" fill-opacity="1.0" stroke="rgb(0,0,0)" stroke-width="2"  />
		</g>
		<g>
			<title> (FBNBFCBO_01466)
hypothetical protein</title>
			<polygon class=" (FBNBFCBO_01466)
hypothetical protein" points="295,10 307,40 295,70" fill="rgb(255,255,255)" fill-opacity="1.0" stroke="rgb(0,0,0)" stroke-width="2"  />
			<g>
				<title>DUF1798 (PF08807)
"Bacterial domain of unknown function (DUF1798)"</title>
				<polygon class="PF08807" points="295,28 298,28 303,40 298,52 295,52" stroke-linejoin="round" width="10" height="24" fill="rgb(153,201,81)" stroke="rgb(122,160,64)" stroke-width="1" opacity="0.75" />
			</g>
		</g>
		<g>
			<title>swrC_1 (FBNBFCBO_01467)
Swarming motility protein SwrC</title>
			<polygon class="swrC_1 (FBNBFCBO_01467)
Swarming motility protein SwrC" points="411,25 339,25 339,10 309,40 339,70 339,55 411,55" fill="rgb(255,255,255)" fill-opacity="1.0" stroke="rgb(0,0,0)" stroke-width="2"  />
			<g>
				<title>ACR_tran (PF00873)
"AcrB/AcrD/AcrF family"</title>
				<polygon class="PF00873" points="313,40 325,28 410,28 410,52 325,52" stroke-linejoin="round" width="101" height="24" fill="rgb(63,191,60)" stroke="rgb(50,152,48)" stroke-width="1" opacity="0.75" />
			</g>
		</g>
		<g>
			<title>cdd (FBNBFCBO_01468)
Cytidine deaminase</title>
			<polygon class="cdd (FBNBFCBO_01468)
Cytidine deaminase" points="417,10 430,40 417,70" fill="rgb(255,255,255)" fill-opacity="1.0" stroke="rgb(0,0,0)" stroke-width="2"  />
			<g>
				<title>dCMP_cyt_deam_1 (PF00383)
"Cytidine and deoxycytidylate deaminase zinc-binding region"</title>
				<polygon class="PF00383" points="417,28 421,28 427,40 427,40 421,52 417,52" stroke-linejoin="round" width="10" height="24" fill="rgb(91,149,216)" stroke="rgb(72,119,172)" stroke-width="1" opacity="0.75" />
			</g>
		</g>
		<g>
			<title> (FBNBFCBO_01469)
hypothetical protein</title>
			<polygon class=" (FBNBFCBO_01469)
hypothetical protein" points="440,10 455,40 440,70" fill="rgb(255,255,255)" fill-opacity="1.0" stroke="rgb(0,0,0)" stroke-width="2"  />
			<g>
				<title>Spore-coat_CotD (PF11122)
"Inner spore coat protein D"</title>
				<polygon class="PF11122" points="441,28 445,28 452,40 445,52 441,52" stroke-linejoin="round" width="13" height="24" fill="rgb(221,153,69)" stroke="rgb(176,122,55)" stroke-width="1" opacity="0.75" />
			</g>
		</g>
		<g>
			<title> (FBNBFCBO_01470)
hypothetical protein</title>
			<polygon class=" (FBNBFCBO_01470)
hypothetical protein" points="458,10 477,40 458,70" fill="rgb(255,255,255)" fill-opacity="1.0" stroke="rgb(0,0,0)" stroke-width="2"  />
			<g>
				<title>YpsA (PF06908)
"YspA SLOG family"</title>
				<polygon class="PF06908" points="458,28 466,28 473,40 466,52 458,52" stroke-linejoin="round" width="16" height="24" fill="rgb(136,100,209)" stroke="rgb(108,80,167)" stroke-width="1" opacity="0.75" />
			</g>
		</g>
		<g>
			<title>gpsB (FBNBFCBO_01471)
Cell cycle protein GpsB</title>
			<polygon class="gpsB (FBNBFCBO_01471)
Cell cycle protein GpsB" points="480,10 490,40 480,70" fill="rgb(255,255,255)" fill-opacity="1.0" stroke="rgb(0,0,0)" stroke-width="2"  />
			<g>
				<title>DivIVA (PF05103)
"DivIVA protein"</title>
				<polygon class="PF05103" points="480,28 482,28 485,34 485,46 482,52 480,52" stroke-linejoin="round" width="5" height="24" fill="rgb(213,106,117)" stroke="rgb(170,84,93)" stroke-width="1" opacity="0.75" />
			</g>
		</g>
		<g>
			<title> (FBNBFCBO_01472)
hypothetical protein</title>
			<polygon class=" (FBNBFCBO_01472)
hypothetical protein" points="495,10 498,40 495,70" fill="rgb(255,255,255)" fill-opacity="1.0" stroke="rgb(0,0,0)" stroke-width="2"  />
		</g>
		<g>
			<title>rlmL (FBNBFCBO_01473)
Ribosomal RNA large subunit methyltransferase L</title>
			<polygon class="rlmL (FBNBFCBO_01473)
Ribosomal RNA large subunit methyltransferase L" points="509,25 517,25 517,10 547,40 517,70 517,55 509,55" fill="rgb(255,255,255)" fill-opacity="1.0" stroke="rgb(0,0,0)" stroke-width="2"  />
			<g>
				<title>THUMP (PF02926)
"THUMP domain"</title>
				<rect class="PF02926" x="510" y="28" stroke-linejoin="round" width="14" height="24" fill="rgb(52,209,163)" stroke="rgb(41,167,130)" stroke-width="1" opacity="0.75" />
			</g>
			<g>
				<title>UPF0020 (PF01170)
"Putative RNA methylase family UPF0020"</title>
				<polygon class="PF01170" points="525,28 531,28 543,40 531,52 525,52" stroke-linejoin="round" width="20" height="24" fill="rgb(89,182,69)" stroke="rgb(71,145,55)" stroke-width="1" opacity="0.75" />
			</g>
		</g>
		<g>
			<title>ypwA (FBNBFCBO_01474)
Carboxypeptidase 1</title>
			<polygon class="ypwA (FBNBFCBO_01474)
Carboxypeptidase 1" points="549,25 568,25 568,10 598,40 568,70 568,55 549,55" fill="rgb(255,255,255)" fill-opacity="1.0" stroke="rgb(0,0,0)" stroke-width="2"  />
			<g>
				<title>Peptidase_M32 (PF02074)
"Carboxypeptidase Taq (M32) metallopeptidase"</title>
				<polygon class="PF02074" points="549,28 582,28 594,40 582,52 549,52" stroke-linejoin="round" width="48" height="24" fill="rgb(213,142,93)" stroke="rgb(170,113,74)" stroke-width="1" opacity="0.75" />
			</g>
		</g>
		<g>
			<title> (FBNBFCBO_01475)
hypothetical protein</title>
			<polygon class=" (FBNBFCBO_01475)
hypothetical protein" points="608,40 626,10 626,70" fill="rgb(255,255,255)" fill-opacity="1.0" stroke="rgb(0,0,0)" stroke-width="2"  />
		</g>
		<g>
			<title>gno (FBNBFCBO_01476)
Gluconate 5-dehydrogenase</title>
			<polygon class="gno (FBNBFCBO_01476)
Gluconate 5-dehydrogenase" points="630,10 655,40 630,70" fill="rgb(255,255,255)" fill-opacity="1.0" stroke="rgb(0,0,0)" stroke-width="2"  />
			<g>
				<title>adh_short_C2 (PF13561)
"Enoyl-(Acyl carrier protein) reductase"</title>
				<polygon class="PF13561" points="631,28 641,28 651,40 641,52 631,52" stroke-linejoin="round" width="23" height="24" fill="rgb(73,205,127)" stroke="rgb(58,164,101)" stroke-width="1" opacity="0.75" />
			</g>
		</g>
		<g>
			<title>cheX (FBNBFCBO_01477)
CheY-P phosphatase CheX</title>
			<polygon class="cheX (FBNBFCBO_01477)
CheY-P phosphatase CheX" points="657,40 672,10 672,70" fill="rgb(255,255,255)" fill-opacity="1.0" stroke="rgb(0,0,0)" stroke-width="2"  />
			<g>
				<title>CheX (PF13690)
"Chemotaxis phosphatase CheX"</title>
				<polygon class="PF13690" points="660,40 666,28 668,28 668,52 666,52" stroke-linejoin="round" width="10" height="24" fill="rgb(55,220,212)" stroke="rgb(44,176,169)" stroke-width="1" opacity="0.75" />
			</g>
		</g>
		<g>
			<title> (FBNBFCBO_01478)
Alpha-pyrone synthesis polyketide synthase-like Pks11</title>
			<polygon class=" (FBNBFCBO_01478)
Alpha-pyrone synthesis polyketide synthase-like Pks11" points="676,25 682,25 682,10 712,40 682,70 682,55 676,55" fill="rgb(255,255,255)" fill-opacity="1.0" stroke="rgb(0,0,0)" stroke-width="2"  />
			<g>
				<title>Chal_sti_synt_N (PF00195)
"Chalcone and stilbene synthases, N-terminal domain"</title>
				<polygon class="PF00195" points="680,28 695,28 696,29 696,51 695,52 680,52" stroke-linejoin="round" width="16" height="24" fill="rgb(60,181,161)" stroke="rgb(47,144,128)" stroke-width="1" opacity="0.75" />
			</g>
			<g>
				<title>Chal_sti_synt_C (PF02797)
"Chalcone and stilbene synthases, C-terminal domain"</title>
				<polygon class="PF02797" points="698,31 707,40 698,49" stroke-linejoin="round" width="14" height="24" fill="rgb(139,212,63)" stroke="rgb(111,169,50)" stroke-width="1" opacity="0.75" />
			</g>
		</g>
		<g>
			<title> (FBNBFCBO_01479)
hypothetical protein</title>
			<polygon class=" (FBNBFCBO_01479)
hypothetical protein" points="712,10 729,40 712,70" fill="rgb(255,255,255)" fill-opacity="1.0" stroke="rgb(0,0,0)" stroke-width="2"  />
			<g>
				<title>ICMT (PF04140)
"Isoprenylcysteine carboxyl methyltransferase (ICMT) family"</title>
				<polygon class="PF04140" points="719,29 725,40 719,51" stroke-linejoin="round" width="9" height="24" fill="rgb(100,223,104)" stroke="rgb(80,178,83)" stroke-width="1" opacity="0.75" />
			</g>
		</g>
		<g>
			<title> (FBNBFCBO_01480)
hypothetical protein</title>
			<polygon class=" (FBNBFCBO_01480)
hypothetical protein" points="732,10 737,40 732,70" fill="rgb(255,255,255)" fill-opacity="1.0" stroke="rgb(0,0,0)" stroke-width="2"  />
		</g>
		<g>
			<title> (FBNBFCBO_01481)
hypothetical protein</title>
			<polygon class=" (FBNBFCBO_01481)
hypothetical protein" points="742,10 751,40 742,70" fill="rgb(255,255,255)" fill-opacity="1.0" stroke="rgb(0,0,0)" stroke-width="2"  />
		</g>
		<g>
			<title>rnhA (FBNBFCBO_01482)
14.7 kDa ribonuclease H-like protein</title>
			<polygon class="rnhA (FBNBFCBO_01482)
14.7 kDa ribonuclease H-like protein" points="753,40 766,10 766,70" fill="rgb(255,255,255)" fill-opacity="1.0" stroke="rgb(0,0,0)" stroke-width="2"  />
			<g>
				<title>RVT_3 (PF13456)
"Reverse transcriptase-like"</title>
				<polygon class="PF13456" points="756,40 761,28 765,28 765,52 761,52" stroke-linejoin="round" width="12" height="24" fill="rgb(198,123,86)" stroke="rgb(158,98,68)" stroke-width="1" opacity="0.75" />
			</g>
		</g>
		<g>
			<title> (FBNBFCBO_01483)
queuosine precursor transporter</title>
			<polygon class=" (FBNBFCBO_01483)
queuosine precursor transporter" points="767,40 789,10 789,70" fill="rgb(255,255,255)" fill-opacity="1.0" stroke="rgb(0,0,0)" stroke-width="2"  />
			<g>
				<title>Vut_1 (PF02592)
"Putative vitamin uptake transporter"</title>
				<polygon class="PF02592" points="771,40 780,28 783,28 783,52 780,52" stroke-linejoin="round" width="16" height="24" fill="rgb(93,184,75)" stroke="rgb(74,147,60)" stroke-width="1" opacity="0.75" />
			</g>
		</g>
		<g>
			<title>cspB_2 (FBNBFCBO_01484)
Cold shock protein CspB</title>
			<polygon class="cspB_2 (FBNBFCBO_01484)
Cold shock protein CspB" points="795,40 801,10 801,70" fill="rgb(255,255,255)" fill-opacity="1.0" stroke="rgb(0,0,0)" stroke-width="2"  />
			<g>
				<title>CSD (PF00313)
"'Cold-shock' DNA-binding domain"</title>
				<polygon class="PF00313" points="798,40 801,28 801,28 801,52 801,52" stroke-linejoin="round" width="6" height="24" fill="rgb(87,72,181)" stroke="rgb(69,57,144)" stroke-width="1" opacity="0.75" />
			</g>
		</g>
		<g>
			<title>fhs1 (FBNBFCBO_01485)
Formate--tetrahydrofolate ligase 1</title>
			<polygon class="fhs1 (FBNBFCBO_01485)
Formate--tetrahydrofolate ligase 1" points="812,25 837,25 837,10 867,40 837,70 837,55 812,55" fill="rgb(255,255,255)" fill-opacity="1.0" stroke="rgb(0,0,0)" stroke-width="2"  />
			<g>
				<title>FTHFS (PF01268)
"Formate--tetrahydrofolate ligase"</title>
				<polygon class="PF01268" points="812,28 851,28 863,40 851,52 812,52" stroke-linejoin="round" width="55" height="24" fill="rgb(215,182,81)" stroke="rgb(172,145,64)" stroke-width="1" opacity="0.75" />
			</g>
		</g>
		<g>
			<title> (FBNBFCBO_01486)
hypothetical protein</title>
			<polygon class=" (FBNBFCBO_01486)
hypothetical protein" points="873,10 901,40 873,70" fill="rgb(255,255,255)" fill-opacity="1.0" stroke="rgb(0,0,0)" stroke-width="2"  />
			<g>
				<title>DUF72 (PF01904)
"Protein of unknown function DUF72"</title>
				<polygon class="PF01904" points="874,28 885,28 897,40 885,52 874,52" stroke-linejoin="round" width="24" height="24" fill="rgb(63,151,204)" stroke="rgb(50,120,163)" stroke-width="1" opacity="0.75" />
			</g>
		</g>
		<g>
			<title>yedJ (FBNBFCBO_01487)
putative protein YedJ</title>
			<polygon class="yedJ (FBNBFCBO_01487)
putative protein YedJ" points="901,10 921,40 901,70" fill="rgb(255,255,255)" fill-opacity="1.0" stroke="rgb(0,0,0)" stroke-width="2"  />
			<g>
				<title>HD (PF01966)
"HD domain"</title>
				<polygon class="PF01966" points="903,28 909,28 912,32 912,48 909,52 903,52" stroke-linejoin="round" width="9" height="24" fill="rgb(92,193,119)" stroke="rgb(73,154,95)" stroke-width="1" opacity="0.75" />
			</g>
		</g>
		<g>
			<title>thyA (FBNBFCBO_01488)
Thymidylate synthase</title>
			<polygon class="thyA (FBNBFCBO_01488)
Thymidylate synthase" points="922,25 924,25 924,10 954,40 924,70 924,55 922,55" fill="rgb(255,255,255)" fill-opacity="1.0" stroke="rgb(0,0,0)" stroke-width="2"  />
			<g>
				<title>Thymidylat_synt (PF00303)
"Thymidylate synthase"</title>
				<polygon class="PF00303" points="922,28 937,28 949,40 937,52 922,52" stroke-linejoin="round" width="31" height="24" fill="rgb(103,91,191)" stroke="rgb(82,72,152)" stroke-width="1" opacity="0.75" />
			</g>
		</g>
		<g>
			<title> (FBNBFCBO_01489)
IS1595 family transposase ISSsu9</title>
			<polygon class=" (FBNBFCBO_01489)
IS1595 family transposase ISSsu9" points="954,10 970,40 954,70" fill="rgb(255,255,255)" fill-opacity="1.0" stroke="rgb(0,0,0)" stroke-width="2"  />
			<g>
				<title>DHFR_1 (PF00186)
"Dihydrofolate reductase"</title>
				<polygon class="PF00186" points="954,28 960,28 966,40 960,52 954,52" stroke-linejoin="round" width="16" height="24" fill="rgb(150,188,63)" stroke="rgb(119,150,50)" stroke-width="1" opacity="0.75" />
			</g>
		</g>
		<g>
			<title>mobA (FBNBFCBO_01490)
Molybdenum cofactor guanylyltransferase</title>
			<polygon class="mobA (FBNBFCBO_01490)
Molybdenum cofactor guanylyltransferase" points="971,10 991,40 971,70" fill="rgb(255,255,255)" fill-opacity="1.0" stroke="rgb(0,0,0)" stroke-width="2"  />
			<g>
				<title>NTP_transf_3 (PF12804)
"MobA-like NTP transferase domain"</title>
				<polygon class="PF12804" points="971,28 979,28 986,38 986,42 979,52 971,52" stroke-linejoin="round" width="15" height="24" fill="rgb(52,209,196)" stroke="rgb(41,167,156)" stroke-width="1" opacity="0.75" />
			</g>
		</g>
		<g>
			<title>tatAd_1 (FBNBFCBO_01491)
Sec-independent protein translocase protein TatAd</title>
			<polygon class="tatAd_1 (FBNBFCBO_01491)
Sec-independent protein translocase protein TatAd" points="993,10 999,40 993,70" fill="rgb(255,255,255)" fill-opacity="1.0" stroke="rgb(0,0,0)" stroke-width="2"  />
			<g>
				<title>MttA_Hcf106 (PF02416)
"mttA/Hcf106 family"</title>
				<polygon class="PF02416" points="993,28 993,28 996,40 993,52 993,52" stroke-linejoin="round" width="5" height="24" fill="rgb(74,206,98)" stroke="rgb(59,164,78)" stroke-width="1" opacity="0.75" />
			</g>
		</g>
		<g>
			<title>tatAd_2 (FBNBFCBO_01492)
Sec-independent protein translocase protein TatAd</title>
			<polygon class="tatAd_2 (FBNBFCBO_01492)
Sec-independent protein translocase protein TatAd" points="1004,10 1010,40 1004,70" fill="rgb(255,255,255)" fill-opacity="1.0" stroke="rgb(0,0,0)" stroke-width="2"  />
			<g>
				<title>MttA_Hcf106 (PF02416)
"mttA/Hcf106 family"</title>
				<polygon class="PF02416" points="1004,28 1004,28 1007,40 1004,52 1004,52" stroke-linejoin="round" width="5" height="24" fill="rgb(74,206,98)" stroke="rgb(59,164,78)" stroke-width="1" opacity="0.75" />
			</g>
		</g>
		<g>
			<title>tatC1 (FBNBFCBO_01493)
Sec-independent protein translocase protein TatCd</title>
			<polygon class="tatC1 (FBNBFCBO_01493)
Sec-independent protein translocase protein TatCd" points="1013,10 1038,40 1013,70" fill="rgb(255,255,255)" fill-opacity="1.0" stroke="rgb(0,0,0)" stroke-width="2"  />
			<g>
				<title>TatC (PF00902)
"Sec-independent protein translocase protein (TatC)"</title>
				<polygon class="PF00902" points="1014,28 1024,28 1034,40 1034,40 1024,52 1014,52" stroke-linejoin="round" width="20" height="24" fill="rgb(84,193,209)" stroke="rgb(67,154,167)" stroke-width="1" opacity="0.75" />
			</g>
		</g>
		<g>
			<title> (FBNBFCBO_01494)
hypothetical protein</title>
			<polygon class=" (FBNBFCBO_01494)
hypothetical protein" points="1041,10 1048,40 1041,70" fill="rgb(255,255,255)" fill-opacity="1.0" stroke="rgb(0,0,0)" stroke-width="2"  />
			<g>
				<title>YozE_SAM_like (PF06855)
"YozE SAM-like fold"</title>
				<polygon class="PF06855" points="1041,28 1041,28 1045,40 1041,52 1041,52" stroke-linejoin="round" width="6" height="24" fill="rgb(83,201,171)" stroke="rgb(66,160,136)" stroke-width="1" opacity="0.75" />
			</g>
		</g>
		<g>
			<title>sbcD (FBNBFCBO_01495)
Nuclease SbcCD subunit D</title>
			<polygon class="sbcD (FBNBFCBO_01495)
Nuclease SbcCD subunit D" points="1049,25 1057,25 1057,10 1087,40 1057,70 1057,55 1049,55" fill="rgb(255,255,255)" fill-opacity="1.0" stroke="rgb(0,0,0)" stroke-width="2"  />
			<g>
				<title>Metallophos (PF00149)
"Calcineurin-like phosphoesterase"</title>
				<rect class="PF00149" x="1049" y="28" stroke-linejoin="round" width="21" height="24" fill="rgb(181,197,58)" stroke="rgb(144,157,46)" stroke-width="1" opacity="0.75" />
			</g>
			<g>
				<title>SbcD_C (PF12320)
"Type 5 capsule protein repressor C-terminal domain"</title>
				<polygon class="PF12320" points="1075,32 1083,40 1075,48" stroke-linejoin="round" width="9" height="24" fill="rgb(182,136,65)" stroke="rgb(145,108,52)" stroke-width="1" opacity="0.75" />
			</g>
		</g>
		<g>
			<title>smc_2 (FBNBFCBO_01496)
Chromosome partition protein Smc</title>
			<polygon class="smc_2 (FBNBFCBO_01496)
Chromosome partition protein Smc" points="1088,25 1161,25 1161,10 1191,40 1161,70 1161,55 1088,55" fill="rgb(255,255,255)" fill-opacity="1.0" stroke="rgb(0,0,0)" stroke-width="2"  />
			<g>
				<title>AAA_23 (PF13476)
"AAA domain"</title>
				<rect class="PF13476" x="1088" y="28" stroke-linejoin="round" width="31" height="24" fill="rgb(57,185,214)" stroke="rgb(45,147,171)" stroke-width="1" opacity="0.75" />
			</g>
			<g>
				<title>SbcCD_C (PF13558)
"Putative exonuclease SbcCD, C subunit"</title>
				<polygon class="PF13558" points="1178,31 1187,40 1187,40 1178,49" stroke-linejoin="round" width="9" height="24" fill="rgb(84,179,84)" stroke="rgb(67,143,67)" stroke-width="1" opacity="0.75" />
			</g>
		</g>
		<g>
			<title>ung (FBNBFCBO_01497)
Uracil-DNA glycosylase</title>
			<polygon class="ung (FBNBFCBO_01497)
Uracil-DNA glycosylase" points="1195,10 1218,40 1195,70" fill="rgb(255,255,255)" fill-opacity="1.0" stroke="rgb(0,0,0)" stroke-width="2"  />
			<g>
				<title>UDG (PF03167)
"Uracil DNA glycosylase superfamily"</title>
				<polygon class="PF03167" points="1200,28 1205,28 1214,40 1205,52 1200,52" stroke-linejoin="round" width="16" height="24" fill="rgb(64,224,60)" stroke="rgb(51,179,48)" stroke-width="1" opacity="0.75" />
			</g>
		</g>
		<g>
			<title> (FBNBFCBO_01498)
hypothetical protein</title>
			<polygon class=" (FBNBFCBO_01498)
hypothetical protein" points="1220,10 1237,40 1220,70" fill="rgb(255,255,255)" fill-opacity="1.0" stroke="rgb(0,0,0)" stroke-width="2"  />
			<g>
				<title>YqfQ (PF14181)
"YqfQ-like protein"</title>
				<polygon class="PF14181" points="1222,28 1227,28 1234,40 1227,52 1222,52" stroke-linejoin="round" width="15" height="24" fill="rgb(207,119,57)" stroke="rgb(165,95,45)" stroke-width="1" opacity="0.75" />
			</g>
		</g>
		<g>
			<title>msrB_2 (FBNBFCBO_01499)
Peptide methionine sulfoxide reductase MsrB</title>
			<polygon class="msrB_2 (FBNBFCBO_01499)
Peptide methionine sulfoxide reductase MsrB" points="1242,25 1244,25 1244,10 1274,40 1244,70 1244,55 1242,55" fill="rgb(255,255,255)" fill-opacity="1.0" stroke="rgb(0,0,0)" stroke-width="2"  />
			<g>
				<title>PMSR (PF01625)
"Peptide methionine sulfoxide reductase"</title>
				<rect class="PF01625" x="1242" y="28" stroke-linejoin="round" width="15" height="24" fill="rgb(201,74,176)" stroke="rgb(160,59,140)" stroke-width="1" opacity="0.75" />
			</g>
			<g>
				<title>SelR (PF01641)
"SelR domain"</title>
				<polygon class="PF01641" points="1260,31 1269,40 1260,49" stroke-linejoin="round" width="12" height="24" fill="rgb(192,99,202)" stroke="rgb(153,79,161)" stroke-width="1" opacity="0.75" />
			</g>
		</g>
	</g>
</svg>
