<svg version="1.1" baseProfile="full" xmlns="http://www.w3.org/2000/svg" width="366.1333333333333" height="80">
	<g>
		<line x1="10" y1="40.0" x2="356.1333333333333" y2="40.0" style="stroke:rgb(70,70,70); stroke-width:3 "/>
		<g>
			<title> (INNIBCFN_02411)
hypothetical protein</title>
			<polygon class=" (INNIBCFN_02411)
hypothetical protein" points="53,10 64,40 53,70" fill="rgb(255,255,255)" fill-opacity="1.0" stroke="rgb(0,0,0)" stroke-width="2"  />
			<g>
				<title>CMD (PF02627)
"Carboxymuconolactone decarboxylase family"</title>
				<polygon class="PF02627" points="55,28 56,28 61,40 56,52 55,52" stroke-linejoin="round" width="8" height="24" fill="rgb(58,205,164)" stroke="rgb(46,164,131)" stroke-width="1" opacity="0.75" />
			</g>
		</g>
		<g>
			<title>hcxA (INNIBCFN_02412)
Hydroxycarboxylate dehydrogenase A</title>
			<polygon class="hcxA (INNIBCFN_02412)
Hydroxycarboxylate dehydrogenase A" points="67,25 72,25 72,10 102,40 72,70 72,55 67,55" fill="rgb(255,255,255)" fill-opacity="1.0" stroke="rgb(0,0,0)" stroke-width="2"  />
			<g>
				<title>Fe-ADH (PF00465)
"Iron-containing alcohol dehydrogenase"</title>
				<polygon class="PF00465" points="68,28 86,28 98,40 86,52 68,52" stroke-linejoin="round" width="33" height="24" fill="rgb(73,179,216)" stroke="rgb(58,143,172)" stroke-width="1" opacity="0.75" />
			</g>
		</g>
		<g>
			<title> (INNIBCFN_02413)
hypothetical protein</title>
			<polygon class=" (INNIBCFN_02413)
hypothetical protein" points="147,25 133,25 133,10 103,40 133,70 133,55 147,55" fill="rgb(255,255,255)" fill-opacity="1.0" stroke="rgb(0,0,0)" stroke-width="2"  />
		</g>
		<g>
			<title>ydaF_2 (INNIBCFN_02414)
Putative ribosomal N-acetyltransferase YdaF</title>
			<polygon class="ydaF_2 (INNIBCFN_02414)
Putative ribosomal N-acetyltransferase YdaF" points="148,40 167,10 167,70" fill="rgb(255,255,255)" fill-opacity="1.0" stroke="rgb(0,0,0)" stroke-width="2"  />
			<g>
				<title>Acetyltransf_3 (PF13302)
"Acetyltransferase (GNAT) domain"</title>
				<polygon class="PF13302" points="152,40 160,28 165,28 165,52 160,52" stroke-linejoin="round" width="14" height="24" fill="rgb(105,146,215)" stroke="rgb(84,116,172)" stroke-width="1" opacity="0.75" />
			</g>
		</g>
		<g>
			<title>ectC (INNIBCFN_02415)
L-ectoine synthase</title>
			<polygon class="ectC (INNIBCFN_02415)
L-ectoine synthase" points="176,40 188,10 188,70" fill="rgb(255,255,255)" fill-opacity="1.0" stroke="rgb(0,0,0)" stroke-width="2"  />
			<g>
				<title>Ectoine_synth (PF06339)
"Ectoine synthase"</title>
				<polygon class="PF06339" points="179,40 184,28 188,28 188,52 184,52" stroke-linejoin="round" width="12" height="24" fill="rgb(225,176,81)" stroke="rgb(180,140,64)" stroke-width="1" opacity="0.75" />
			</g>
		</g>
		<g>
			<title>ykuI (INNIBCFN_02416)
putative EAL-domain containing protein YkuI</title>
			<polygon class="ykuI (INNIBCFN_02416)
putative EAL-domain containing protein YkuI" points="234,25 224,25 224,10 194,40 224,70 224,55 234,55" fill="rgb(255,255,255)" fill-opacity="1.0" stroke="rgb(0,0,0)" stroke-width="2"  />
			<g>
				<title>YkuI_C (PF10388)
"EAL-domain associated signalling protein domain"</title>
				<polygon class="PF10388" points="198,40 210,28 210,28 210,52 210,52" stroke-linejoin="round" width="16" height="24" fill="rgb(56,196,67)" stroke="rgb(44,156,53)" stroke-width="1" opacity="0.75" />
			</g>
			<g>
				<title>EAL (PF00563)
"EAL domain"</title>
				<rect class="PF00563" x="211" y="28" stroke-linejoin="round" width="22" height="24" fill="rgb(204,100,120)" stroke="rgb(163,80,96)" stroke-width="1" opacity="0.75" />
			</g>
		</g>
		<g>
			<title> (INNIBCFN_02417)
hypothetical protein</title>
			<polygon class=" (INNIBCFN_02417)
hypothetical protein" points="240,25 264,25 264,10 294,40 264,70 264,55 240,55" fill="rgb(255,255,255)" fill-opacity="1.0" stroke="rgb(0,0,0)" stroke-width="2"  />
			<g>
				<title>Amidase_3 (PF01520)
"N-acetylmuramoyl-L-alanine amidase"</title>
				<rect class="PF01520" x="240" y="28" stroke-linejoin="round" width="17" height="24" fill="rgb(174,223,57)" stroke="rgb(139,178,45)" stroke-width="1" opacity="0.75" />
			</g>
			<g>
				<title>SPOR (PF05036)
"Sporulation related domain"</title>
				<rect class="PF05036" x="259" y="28" stroke-linejoin="round" width="7" height="24" fill="rgb(173,203,80)" stroke="rgb(138,162,64)" stroke-width="1" opacity="0.75" />
			</g>
			<g>
				<title>SPOR (PF05036)
"Sporulation related domain"</title>
				<rect class="PF05036" x="267" y="28" stroke-linejoin="round" width="7" height="24" fill="rgb(173,203,80)" stroke="rgb(138,162,64)" stroke-width="1" opacity="0.75" />
			</g>
			<g>
				<title>Glucosaminidase (PF01832)
"Mannosyl-glycoprotein endo-beta-N-acetylglucosaminidase"</title>
				<polygon class="PF01832" points="279,29 290,40 279,51" stroke-linejoin="round" width="12" height="24" fill="rgb(170,195,97)" stroke="rgb(136,156,77)" stroke-width="1" opacity="0.75" />
			</g>
		</g>
		<g>
			<title> (INNIBCFN_02418)
hypothetical protein</title>
			<polygon class=" (INNIBCFN_02418)
hypothetical protein" points="297,40 311,10 311,70" fill="rgb(255,255,255)" fill-opacity="1.0" stroke="rgb(0,0,0)" stroke-width="2"  />
			<g>
				<title>RDD (PF06271)
"RDD family"</title>
				<polygon class="PF06271" points="300,40 306,28 309,28 309,52 306,52" stroke-linejoin="round" width="11" height="24" fill="rgb(75,173,207)" stroke="rgb(60,138,165)" stroke-width="1" opacity="0.75" />
			</g>
		</g>
		<g>
			<title> (INNIBCFN_02419)
hypothetical protein</title>
			<polygon class=" (INNIBCFN_02419)
hypothetical protein" points="317,10 334,40 317,70" fill="rgb(255,255,255)" fill-opacity="1.0" stroke="rgb(0,0,0)" stroke-width="2"  />
			<g>
				<title>DUF420 (PF04238)
"Protein of unknown function (DUF420)"</title>
				<polygon class="PF04238" points="321,28 324,28 331,40 324,52 321,52" stroke-linejoin="round" width="12" height="24" fill="rgb(186,65,177)" stroke="rgb(148,52,141)" stroke-width="1" opacity="0.75" />
			</g>
		</g>
		<g>
			<title> (INNIBCFN_02420)
hypothetical protein</title>
			<polygon class=" (INNIBCFN_02420)
hypothetical protein" points="341,10 348,40 341,70" fill="rgb(255,255,255)" fill-opacity="1.0" stroke="rgb(0,0,0)" stroke-width="2"  />
		</g>
	</g>
</svg>
