<svg version="1.1" baseProfile="full" xmlns="http://www.w3.org/2000/svg" width="1389.4333333333334" height="80">
	<g>
		<line x1="10" y1="40.0" x2="1379.4333333333334" y2="40.0" style="stroke:rgb(70,70,70); stroke-width:3 "/>
		<g>
			<title> (AOOJJHNM_01911)
hypothetical protein</title>
			<polygon class=" (AOOJJHNM_01911)
hypothetical protein" points="52,25 48,25 48,10 18,40 48,70 48,55 52,55" fill="rgb(255,255,255)" fill-opacity="1.0" stroke="rgb(0,0,0)" stroke-width="2"  />
			<g>
				<title>AbrB (PF05145)
"Transition state regulatory protein AbrB"</title>
				<polygon class="PF05145" points="22,40 34,28 49,28 49,52 34,52" stroke-linejoin="round" width="31" height="24" fill="rgb(95,98,223)" stroke="rgb(76,78,178)" stroke-width="1" opacity="0.75" />
			</g>
		</g>
		<g>
			<title> (AOOJJHNM_01912)
hypothetical protein</title>
			<polygon class=" (AOOJJHNM_01912)
hypothetical protein" points="56,40 75,10 75,70" fill="rgb(255,255,255)" fill-opacity="1.0" stroke="rgb(0,0,0)" stroke-width="2"  />
			<g>
				<title>TetR_N (PF00440)
"Bacterial regulatory proteins, tetR family"</title>
				<rect class="PF00440" x="69" y="28" stroke-linejoin="round" width="4" height="24" fill="rgb(73,212,190)" stroke="rgb(58,169,152)" stroke-width="1" opacity="0.75" />
			</g>
		</g>
		<g>
			<title>msrB_2 (AOOJJHNM_01913)
Peptide methionine sulfoxide reductase MsrB</title>
			<polygon class="msrB_2 (AOOJJHNM_01913)
Peptide methionine sulfoxide reductase MsrB" points="109,25 107,25 107,10 77,40 107,70 107,55 109,55" fill="rgb(255,255,255)" fill-opacity="1.0" stroke="rgb(0,0,0)" stroke-width="2"  />
			<g>
				<title>SelR (PF01641)
"SelR domain"</title>
				<polygon class="PF01641" points="81,40 90,31 90,49" stroke-linejoin="round" width="12" height="24" fill="rgb(192,99,202)" stroke="rgb(153,79,161)" stroke-width="1" opacity="0.75" />
			</g>
			<g>
				<title>PMSR (PF01625)
"Peptide methionine sulfoxide reductase"</title>
				<polygon class="PF01625" points="93,28 93,28 108,28 108,52 93,52 93,52" stroke-linejoin="round" width="15" height="24" fill="rgb(201,74,176)" stroke="rgb(160,59,140)" stroke-width="1" opacity="0.75" />
			</g>
		</g>
		<g>
			<title> (AOOJJHNM_01914)
hypothetical protein</title>
			<polygon class=" (AOOJJHNM_01914)
hypothetical protein" points="112,40 129,10 129,70" fill="rgb(255,255,255)" fill-opacity="1.0" stroke="rgb(0,0,0)" stroke-width="2"  />
			<g>
				<title>YqfQ (PF14181)
"YqfQ-like protein"</title>
				<polygon class="PF14181" points="115,40 122,28 129,28 129,52 122,52" stroke-linejoin="round" width="17" height="24" fill="rgb(207,119,57)" stroke="rgb(165,95,45)" stroke-width="1" opacity="0.75" />
			</g>
		</g>
		<g>
			<title>ung (AOOJJHNM_01915)
Uracil-DNA glycosylase</title>
			<polygon class="ung (AOOJJHNM_01915)
Uracil-DNA glycosylase" points="132,40 155,10 155,70" fill="rgb(255,255,255)" fill-opacity="1.0" stroke="rgb(0,0,0)" stroke-width="2"  />
			<g>
				<title>UDG (PF03167)
"Uracil DNA glycosylase superfamily"</title>
				<polygon class="PF03167" points="136,40 145,28 150,28 150,52 145,52" stroke-linejoin="round" width="16" height="24" fill="rgb(64,224,60)" stroke="rgb(51,179,48)" stroke-width="1" opacity="0.75" />
			</g>
		</g>
		<g>
			<title>smc_2 (AOOJJHNM_01916)
Chromosome partition protein Smc</title>
			<polygon class="smc_2 (AOOJJHNM_01916)
Chromosome partition protein Smc" points="264,25 191,25 191,10 161,40 191,70 191,55 264,55" fill="rgb(255,255,255)" fill-opacity="1.0" stroke="rgb(0,0,0)" stroke-width="2"  />
			<g>
				<title>SbcCD_C (PF13558)
"Putative exonuclease SbcCD, C subunit"</title>
				<polygon class="PF13558" points="165,40 173,32 173,48 165,40" stroke-linejoin="round" width="8" height="24" fill="rgb(84,179,84)" stroke="rgb(67,143,67)" stroke-width="1" opacity="0.75" />
			</g>
			<g>
				<title>AAA_23 (PF13476)
"AAA domain"</title>
				<rect class="PF13476" x="240" y="28" stroke-linejoin="round" width="24" height="24" fill="rgb(57,185,214)" stroke="rgb(45,147,171)" stroke-width="1" opacity="0.75" />
			</g>
		</g>
		<g>
			<title>sbcD (AOOJJHNM_01917)
Nuclease SbcCD subunit D</title>
			<polygon class="sbcD (AOOJJHNM_01917)
Nuclease SbcCD subunit D" points="303,25 295,25 295,10 265,40 295,70 295,55 303,55" fill="rgb(255,255,255)" fill-opacity="1.0" stroke="rgb(0,0,0)" stroke-width="2"  />
			<g>
				<title>SbcD_C (PF12320)
"Type 5 capsule protein repressor C-terminal domain"</title>
				<polygon class="PF12320" points="269,40 276,33 276,47" stroke-linejoin="round" width="9" height="24" fill="rgb(182,136,65)" stroke="rgb(145,108,52)" stroke-width="1" opacity="0.75" />
			</g>
			<g>
				<title>Metallophos (PF00149)
"Calcineurin-like phosphoesterase"</title>
				<polygon class="PF00149" points="281,28 281,28 302,28 302,52 281,52 281,52" stroke-linejoin="round" width="21" height="24" fill="rgb(181,197,58)" stroke="rgb(144,157,46)" stroke-width="1" opacity="0.75" />
			</g>
		</g>
		<g>
			<title> (AOOJJHNM_01918)
hypothetical protein</title>
			<polygon class=" (AOOJJHNM_01918)
hypothetical protein" points="304,40 311,10 311,70" fill="rgb(255,255,255)" fill-opacity="1.0" stroke="rgb(0,0,0)" stroke-width="2"  />
			<g>
				<title>YozE_SAM_like (PF06855)
"YozE SAM-like fold"</title>
				<polygon class="PF06855" points="307,40 310,28 310,28 310,52 310,52" stroke-linejoin="round" width="6" height="24" fill="rgb(83,201,171)" stroke="rgb(66,160,136)" stroke-width="1" opacity="0.75" />
			</g>
		</g>
		<g>
			<title>tatC1_2 (AOOJJHNM_01919)
Sec-independent protein translocase protein TatCd</title>
			<polygon class="tatC1_2 (AOOJJHNM_01919)
Sec-independent protein translocase protein TatCd" points="317,40 341,10 341,70" fill="rgb(255,255,255)" fill-opacity="1.0" stroke="rgb(0,0,0)" stroke-width="2"  />
			<g>
				<title>TatC (PF00902)
"Sec-independent protein translocase protein (TatC)"</title>
				<polygon class="PF00902" points="321,40 331,28 340,28 340,52 331,52" stroke-linejoin="round" width="20" height="24" fill="rgb(84,193,209)" stroke="rgb(67,154,167)" stroke-width="1" opacity="0.75" />
			</g>
		</g>
		<g>
			<title>tatAd_1 (AOOJJHNM_01920)
Sec-independent protein translocase protein TatAd</title>
			<polygon class="tatAd_1 (AOOJJHNM_01920)
Sec-independent protein translocase protein TatAd" points="345,40 351,10 351,70" fill="rgb(255,255,255)" fill-opacity="1.0" stroke="rgb(0,0,0)" stroke-width="2"  />
			<g>
				<title>MttA_Hcf106 (PF02416)
"mttA/Hcf106 family"</title>
				<polygon class="PF02416" points="348,40 350,30 350,50" stroke-linejoin="round" width="5" height="24" fill="rgb(74,206,98)" stroke="rgb(59,164,78)" stroke-width="1" opacity="0.75" />
			</g>
		</g>
		<g>
			<title>tatAd_2 (AOOJJHNM_01921)
Sec-independent protein translocase protein TatAd</title>
			<polygon class="tatAd_2 (AOOJJHNM_01921)
Sec-independent protein translocase protein TatAd" points="353,40 358,10 358,70" fill="rgb(255,255,255)" fill-opacity="1.0" stroke="rgb(0,0,0)" stroke-width="2"  />
			<g>
				<title>MttA_Hcf106 (PF02416)
"mttA/Hcf106 family"</title>
				<polygon class="PF02416" points="356,40 358,28 358,28 358,52 358,52" stroke-linejoin="round" width="5" height="24" fill="rgb(74,206,98)" stroke="rgb(59,164,78)" stroke-width="1" opacity="0.75" />
			</g>
		</g>
		<g>
			<title>mobA (AOOJJHNM_01922)
Molybdenum cofactor guanylyltransferase</title>
			<polygon class="mobA (AOOJJHNM_01922)
Molybdenum cofactor guanylyltransferase" points="363,40 381,10 381,70" fill="rgb(255,255,255)" fill-opacity="1.0" stroke="rgb(0,0,0)" stroke-width="2"  />
			<g>
				<title>NTP_transf_3 (PF12804)
"MobA-like NTP transferase domain"</title>
				<polygon class="PF12804" points="367,40 374,28 381,28 381,52 374,52 367,40" stroke-linejoin="round" width="14" height="24" fill="rgb(52,209,196)" stroke="rgb(41,167,156)" stroke-width="1" opacity="0.75" />
			</g>
		</g>
		<g>
			<title> (AOOJJHNM_01923)
IS1595 family transposase ISSsu9</title>
			<polygon class=" (AOOJJHNM_01923)
IS1595 family transposase ISSsu9" points="383,40 399,10 399,70" fill="rgb(255,255,255)" fill-opacity="1.0" stroke="rgb(0,0,0)" stroke-width="2"  />
			<g>
				<title>DHFR_1 (PF00186)
"Dihydrofolate reductase"</title>
				<polygon class="PF00186" points="386,40 393,28 399,28 399,52 393,52" stroke-linejoin="round" width="16" height="24" fill="rgb(150,188,63)" stroke="rgb(119,150,50)" stroke-width="1" opacity="0.75" />
			</g>
		</g>
		<g>
			<title>thyA (AOOJJHNM_01924)
Thymidylate synthase</title>
			<polygon class="thyA (AOOJJHNM_01924)
Thymidylate synthase" points="450,25 448,25 448,10 418,40 448,70 448,55 450,55" fill="rgb(255,255,255)" fill-opacity="1.0" stroke="rgb(0,0,0)" stroke-width="2"  />
			<g>
				<title>Thymidylat_synt (PF00303)
"Thymidylate synthase"</title>
				<polygon class="PF00303" points="422,40 434,28 449,28 449,52 434,52" stroke-linejoin="round" width="31" height="24" fill="rgb(103,91,191)" stroke="rgb(82,72,152)" stroke-width="1" opacity="0.75" />
			</g>
		</g>
		<g>
			<title>yedJ (AOOJJHNM_01925)
putative protein YedJ</title>
			<polygon class="yedJ (AOOJJHNM_01925)
putative protein YedJ" points="450,40 470,10 470,70" fill="rgb(255,255,255)" fill-opacity="1.0" stroke="rgb(0,0,0)" stroke-width="2"  />
			<g>
				<title>HD (PF01966)
"HD domain"</title>
				<polygon class="PF01966" points="458,34 462,28 467,28 467,52 462,52 458,46" stroke-linejoin="round" width="9" height="24" fill="rgb(92,193,119)" stroke="rgb(73,154,95)" stroke-width="1" opacity="0.75" />
			</g>
		</g>
		<g>
			<title> (AOOJJHNM_01926)
hypothetical protein</title>
			<polygon class=" (AOOJJHNM_01926)
hypothetical protein" points="471,40 499,10 499,70" fill="rgb(255,255,255)" fill-opacity="1.0" stroke="rgb(0,0,0)" stroke-width="2"  />
			<g>
				<title>DUF72 (PF01904)
"Protein of unknown function DUF72"</title>
				<polygon class="PF01904" points="475,40 486,28 496,28 496,52 486,52" stroke-linejoin="round" width="24" height="24" fill="rgb(63,151,204)" stroke="rgb(50,120,163)" stroke-width="1" opacity="0.75" />
			</g>
		</g>
		<g>
			<title>fhs (AOOJJHNM_01927)
Formate--tetrahydrofolate ligase</title>
			<polygon class="fhs (AOOJJHNM_01927)
Formate--tetrahydrofolate ligase" points="558,25 533,25 533,10 503,40 533,70 533,55 558,55" fill="rgb(255,255,255)" fill-opacity="1.0" stroke="rgb(0,0,0)" stroke-width="2"  />
			<g>
				<title>FTHFS (PF01268)
"Formate--tetrahydrofolate ligase"</title>
				<polygon class="PF01268" points="507,40 519,28 558,28 558,52 519,52" stroke-linejoin="round" width="55" height="24" fill="rgb(215,182,81)" stroke="rgb(172,145,64)" stroke-width="1" opacity="0.75" />
			</g>
		</g>
		<g>
			<title>cspA_2 (AOOJJHNM_01928)
Cold shock protein CspA</title>
			<polygon class="cspA_2 (AOOJJHNM_01928)
Cold shock protein CspA" points="569,10 575,40 569,70" fill="rgb(255,255,255)" fill-opacity="1.0" stroke="rgb(0,0,0)" stroke-width="2"  />
			<g>
				<title>CSD (PF00313)
"'Cold-shock' DNA-binding domain"</title>
				<polygon class="PF00313" points="569,28 569,28 572,40 569,52 569,52" stroke-linejoin="round" width="6" height="24" fill="rgb(87,72,181)" stroke="rgb(69,57,144)" stroke-width="1" opacity="0.75" />
			</g>
		</g>
		<g>
			<title> (AOOJJHNM_01929)
queuosine precursor transporter</title>
			<polygon class=" (AOOJJHNM_01929)
queuosine precursor transporter" points="598,10 620,40 598,70" fill="rgb(255,255,255)" fill-opacity="1.0" stroke="rgb(0,0,0)" stroke-width="2"  />
			<g>
				<title>Vut_1 (PF02592)
"Putative vitamin uptake transporter"</title>
				<polygon class="PF02592" points="603,28 608,28 616,40 608,52 603,52" stroke-linejoin="round" width="16" height="24" fill="rgb(93,184,75)" stroke="rgb(74,147,60)" stroke-width="1" opacity="0.75" />
			</g>
		</g>
		<g>
			<title>rnhA (AOOJJHNM_01930)
14.7 kDa ribonuclease H-like protein</title>
			<polygon class="rnhA (AOOJJHNM_01930)
14.7 kDa ribonuclease H-like protein" points="622,10 635,40 622,70" fill="rgb(255,255,255)" fill-opacity="1.0" stroke="rgb(0,0,0)" stroke-width="2"  />
			<g>
				<title>RNase_H (PF00075)
"RNase H"</title>
				<polygon class="PF00075" points="622,28 626,28 632,40 626,52 622,52" stroke-linejoin="round" width="12" height="24" fill="rgb(225,86,224)" stroke="rgb(180,68,179)" stroke-width="1" opacity="0.75" />
			</g>
		</g>
		<g>
			<title> (AOOJJHNM_01931)
hypothetical protein</title>
			<polygon class=" (AOOJJHNM_01931)
hypothetical protein" points="636,40 645,10 645,70" fill="rgb(255,255,255)" fill-opacity="1.0" stroke="rgb(0,0,0)" stroke-width="2"  />
		</g>
		<g>
			<title> (AOOJJHNM_01932)
hypothetical protein</title>
			<polygon class=" (AOOJJHNM_01932)
hypothetical protein" points="650,40 655,10 655,70" fill="rgb(255,255,255)" fill-opacity="1.0" stroke="rgb(0,0,0)" stroke-width="2"  />
		</g>
		<g>
			<title> (AOOJJHNM_01933)
hypothetical protein</title>
			<polygon class=" (AOOJJHNM_01933)
hypothetical protein" points="659,40 676,10 676,70" fill="rgb(255,255,255)" fill-opacity="1.0" stroke="rgb(0,0,0)" stroke-width="2"  />
			<g>
				<title>ICMT (PF04140)
"Isoprenylcysteine carboxyl methyltransferase (ICMT) family"</title>
				<polygon class="PF04140" points="662,40 668,29 668,51" stroke-linejoin="round" width="9" height="24" fill="rgb(100,223,104)" stroke="rgb(80,178,83)" stroke-width="1" opacity="0.75" />
			</g>
		</g>
		<g>
			<title> (AOOJJHNM_01934)
Alpha-pyrone synthesis polyketide synthase-like Pks11</title>
			<polygon class=" (AOOJJHNM_01934)
Alpha-pyrone synthesis polyketide synthase-like Pks11" points="712,25 706,25 706,10 676,40 706,70 706,55 712,55" fill="rgb(255,255,255)" fill-opacity="1.0" stroke="rgb(0,0,0)" stroke-width="2"  />
			<g>
				<title>Chal_sti_synt_N (PF00195)
"Chalcone and stilbene synthases, N-terminal domain"</title>
				<polygon class="PF00195" points="691,29 692,28 711,28 711,52 692,52 691,51" stroke-linejoin="round" width="20" height="24" fill="rgb(60,181,161)" stroke="rgb(47,144,128)" stroke-width="1" opacity="0.75" />
			</g>
		</g>
		<g>
			<title>gno (AOOJJHNM_01935)
Gluconate 5-dehydrogenase</title>
			<polygon class="gno (AOOJJHNM_01935)
Gluconate 5-dehydrogenase" points="725,40 750,10 750,70" fill="rgb(255,255,255)" fill-opacity="1.0" stroke="rgb(0,0,0)" stroke-width="2"  />
			<g>
				<title>adh_short_C2 (PF13561)
"Enoyl-(Acyl carrier protein) reductase"</title>
				<polygon class="PF13561" points="729,40 739,28 748,28 748,52 739,52" stroke-linejoin="round" width="23" height="24" fill="rgb(73,205,127)" stroke="rgb(58,164,101)" stroke-width="1" opacity="0.75" />
			</g>
		</g>
		<g>
			<title> (AOOJJHNM_01936)
hypothetical protein</title>
			<polygon class=" (AOOJJHNM_01936)
hypothetical protein" points="755,10 773,40 755,70" fill="rgb(255,255,255)" fill-opacity="1.0" stroke="rgb(0,0,0)" stroke-width="2"  />
		</g>
		<g>
			<title>ypwA (AOOJJHNM_01937)
Carboxypeptidase 1</title>
			<polygon class="ypwA (AOOJJHNM_01937)
Carboxypeptidase 1" points="824,25 805,25 805,10 775,40 805,70 805,55 824,55" fill="rgb(255,255,255)" fill-opacity="1.0" stroke="rgb(0,0,0)" stroke-width="2"  />
			<g>
				<title>Peptidase_M32 (PF02074)
"Carboxypeptidase Taq (M32) metallopeptidase"</title>
				<polygon class="PF02074" points="779,40 791,28 823,28 823,52 791,52" stroke-linejoin="round" width="48" height="24" fill="rgb(213,142,93)" stroke="rgb(170,113,74)" stroke-width="1" opacity="0.75" />
			</g>
		</g>
		<g>
			<title>rlmL (AOOJJHNM_01938)
Ribosomal RNA large subunit methyltransferase L</title>
			<polygon class="rlmL (AOOJJHNM_01938)
Ribosomal RNA large subunit methyltransferase L" points="865,25 856,25 856,10 826,40 856,70 856,55 865,55" fill="rgb(255,255,255)" fill-opacity="1.0" stroke="rgb(0,0,0)" stroke-width="2"  />
			<g>
				<title>UPF0020 (PF01170)
"Putative RNA methylase family UPF0020"</title>
				<polygon class="PF01170" points="830,40 842,28 847,28 847,52 842,52" stroke-linejoin="round" width="20" height="24" fill="rgb(89,182,69)" stroke="rgb(71,145,55)" stroke-width="1" opacity="0.75" />
			</g>
			<g>
				<title>THUMP (PF02926)
"THUMP domain"</title>
				<rect class="PF02926" x="849" y="28" stroke-linejoin="round" width="14" height="24" fill="rgb(52,209,163)" stroke="rgb(41,167,130)" stroke-width="1" opacity="0.75" />
			</g>
		</g>
		<g>
			<title> (AOOJJHNM_01939)
hypothetical protein</title>
			<polygon class=" (AOOJJHNM_01939)
hypothetical protein" points="876,40 881,10 881,70" fill="rgb(255,255,255)" fill-opacity="1.0" stroke="rgb(0,0,0)" stroke-width="2"  />
		</g>
		<g>
			<title>gpsB (AOOJJHNM_01940)
Cell cycle protein GpsB</title>
			<polygon class="gpsB (AOOJJHNM_01940)
Cell cycle protein GpsB" points="885,40 895,10 895,70" fill="rgb(255,255,255)" fill-opacity="1.0" stroke="rgb(0,0,0)" stroke-width="2"  />
			<g>
				<title>DivIVA (PF05103)
"DivIVA protein"</title>
				<polygon class="PF05103" points="888,40 892,28 894,28 894,52 892,52 888,40" stroke-linejoin="round" width="6" height="24" fill="rgb(213,106,117)" stroke="rgb(170,84,93)" stroke-width="1" opacity="0.75" />
			</g>
		</g>
		<g>
			<title> (AOOJJHNM_01941)
hypothetical protein</title>
			<polygon class=" (AOOJJHNM_01941)
hypothetical protein" points="898,40 916,10 916,70" fill="rgb(255,255,255)" fill-opacity="1.0" stroke="rgb(0,0,0)" stroke-width="2"  />
			<g>
				<title>YpsA (PF06908)
"YspA SLOG family"</title>
				<polygon class="PF06908" points="902,40 910,28 915,28 915,52 910,52" stroke-linejoin="round" width="16" height="24" fill="rgb(136,100,209)" stroke="rgb(108,80,167)" stroke-width="1" opacity="0.75" />
			</g>
		</g>
		<g>
			<title> (AOOJJHNM_01942)
hypothetical protein</title>
			<polygon class=" (AOOJJHNM_01942)
hypothetical protein" points="920,40 940,10 940,70" fill="rgb(255,255,255)" fill-opacity="1.0" stroke="rgb(0,0,0)" stroke-width="2"  />
			<g>
				<title>Spore-coat_CotD (PF11122)
"Inner spore coat protein D"</title>
				<polygon class="PF11122" points="924,40 932,28 938,28 938,52 932,52" stroke-linejoin="round" width="18" height="24" fill="rgb(221,153,69)" stroke="rgb(176,122,55)" stroke-width="1" opacity="0.75" />
			</g>
		</g>
		<g>
			<title>cdd (AOOJJHNM_01943)
Cytidine deaminase</title>
			<polygon class="cdd (AOOJJHNM_01943)
Cytidine deaminase" points="950,40 963,10 963,70" fill="rgb(255,255,255)" fill-opacity="1.0" stroke="rgb(0,0,0)" stroke-width="2"  />
			<g>
				<title>dCMP_cyt_deam_1 (PF00383)
"Cytidine and deoxycytidylate deaminase zinc-binding region"</title>
				<polygon class="PF00383" points="953,40 958,28 963,28 963,52 958,52 953,40" stroke-linejoin="round" width="10" height="24" fill="rgb(91,149,216)" stroke="rgb(72,119,172)" stroke-width="1" opacity="0.75" />
			</g>
		</g>
		<g>
			<title>arpB (AOOJJHNM_01944)
Antibiotic efflux pump membrane transporter ArpB</title>
			<polygon class="arpB (AOOJJHNM_01944)
Antibiotic efflux pump membrane transporter ArpB" points="970,25 1041,25 1041,10 1071,40 1041,70 1041,55 970,55" fill="rgb(255,255,255)" fill-opacity="1.0" stroke="rgb(0,0,0)" stroke-width="2"  />
			<g>
				<title>ACR_tran (PF00873)
"AcrB/AcrD/AcrF family"</title>
				<polygon class="PF00873" points="970,28 1055,28 1067,40 1055,52 970,52" stroke-linejoin="round" width="101" height="24" fill="rgb(63,191,60)" stroke="rgb(50,152,48)" stroke-width="1" opacity="0.75" />
			</g>
		</g>
		<g>
			<title> (AOOJJHNM_01945)
hypothetical protein</title>
			<polygon class=" (AOOJJHNM_01945)
hypothetical protein" points="1073,40 1085,10 1085,70" fill="rgb(255,255,255)" fill-opacity="1.0" stroke="rgb(0,0,0)" stroke-width="2"  />
			<g>
				<title>DUF1798 (PF08807)
"Bacterial domain of unknown function (DUF1798)"</title>
				<polygon class="PF08807" points="1076,40 1081,28 1083,28 1083,52 1081,52" stroke-linejoin="round" width="10" height="24" fill="rgb(153,201,81)" stroke="rgb(122,160,64)" stroke-width="1" opacity="0.75" />
			</g>
		</g>
		<g>
			<title> (AOOJJHNM_01946)
hypothetical protein</title>
			<polygon class=" (AOOJJHNM_01946)
hypothetical protein" points="1088,40 1096,10 1096,70" fill="rgb(255,255,255)" fill-opacity="1.0" stroke="rgb(0,0,0)" stroke-width="2"  />
		</g>
		<g>
			<title> (AOOJJHNM_01947)
hypothetical protein</title>
			<polygon class=" (AOOJJHNM_01947)
hypothetical protein" points="1101,10 1104,40 1101,70" fill="rgb(255,255,255)" fill-opacity="1.0" stroke="rgb(0,0,0)" stroke-width="2"  />
		</g>
		<g>
			<title>recU (AOOJJHNM_01948)
Holliday junction resolvase RecU</title>
			<polygon class="recU (AOOJJHNM_01948)
Holliday junction resolvase RecU" points="1116,10 1135,40 1116,70" fill="rgb(255,255,255)" fill-opacity="1.0" stroke="rgb(0,0,0)" stroke-width="2"  />
			<g>
				<title>RecU (PF03838)
"Recombination protein U"</title>
				<polygon class="PF03838" points="1118,28 1124,28 1132,40 1124,52 1118,52" stroke-linejoin="round" width="16" height="24" fill="rgb(93,204,83)" stroke="rgb(74,163,66)" stroke-width="1" opacity="0.75" />
			</g>
		</g>
		<g>
			<title>ponA (AOOJJHNM_01949)
Penicillin-binding protein 1A/1B</title>
			<polygon class="ponA (AOOJJHNM_01949)
Penicillin-binding protein 1A/1B" points="1137,25 1197,25 1197,10 1227,40 1197,70 1197,55 1137,55" fill="rgb(255,255,255)" fill-opacity="1.0" stroke="rgb(0,0,0)" stroke-width="2"  />
			<g>
				<title>Transgly (PF00912)
"Transglycosylase"</title>
				<rect class="PF00912" x="1144" y="28" stroke-linejoin="round" width="17" height="24" fill="rgb(172,107,216)" stroke="rgb(137,85,172)" stroke-width="1" opacity="0.75" />
			</g>
			<g>
				<title>Transpeptidase (PF00905)
"Penicillin binding protein transpeptidase domain"</title>
				<rect class="PF00905" x="1171" y="28" stroke-linejoin="round" width="27" height="24" fill="rgb(161,226,87)" stroke="rgb(128,180,69)" stroke-width="1" opacity="0.75" />
			</g>
		</g>
		<g>
			<title>nth (AOOJJHNM_01950)
Endonuclease III</title>
			<polygon class="nth (AOOJJHNM_01950)
Endonuclease III" points="1229,40 1250,10 1250,70" fill="rgb(255,255,255)" fill-opacity="1.0" stroke="rgb(0,0,0)" stroke-width="2"  />
			<g>
				<title>EndIII_4Fe-2S (PF10576)
"Iron-sulfur binding domain of endonuclease III"</title>
				<polygon class="PF10576" points="1233,40 1231,43 1231,37" stroke-linejoin="round" width="1" height="24" fill="rgb(203,113,64)" stroke="rgb(162,90,51)" stroke-width="1" opacity="0.75" />
			</g>
			<g>
				<title>HhH-GPD (PF00730)
"HhH-GPD superfamily base excision DNA repair protein"</title>
				<polygon class="PF00730" points="1233,40 1242,28 1246,28 1246,52 1242,52 1233,40" stroke-linejoin="round" width="13" height="24" fill="rgb(190,78,115)" stroke="rgb(152,62,92)" stroke-width="1" opacity="0.75" />
			</g>
		</g>
		<g>
			<title>dnaD (AOOJJHNM_01951)
DNA replication protein DnaD</title>
			<polygon class="dnaD (AOOJJHNM_01951)
DNA replication protein DnaD" points="1251,40 1274,10 1274,70" fill="rgb(255,255,255)" fill-opacity="1.0" stroke="rgb(0,0,0)" stroke-width="2"  />
			<g>
				<title>DnaB_2 (PF07261)
"Replication initiation and membrane attachment"</title>
				<polygon class="PF07261" points="1255,40 1261,32 1261,48" stroke-linejoin="round" width="7" height="24" fill="rgb(136,193,85)" stroke="rgb(108,154,68)" stroke-width="1" opacity="0.75" />
			</g>
		</g>
		<g>
			<title>asnS (AOOJJHNM_01952)
Asparagine--tRNA ligase</title>
			<polygon class="asnS (AOOJJHNM_01952)
Asparagine--tRNA ligase" points="1320,25 1307,25 1307,10 1277,40 1307,70 1307,55 1320,55" fill="rgb(255,255,255)" fill-opacity="1.0" stroke="rgb(0,0,0)" stroke-width="2"  />
			<g>
				<title>tRNA-synt_2 (PF00152)
"tRNA synthetases class II (D, K and N)"</title>
				<polygon class="PF00152" points="1281,40 1293,28 1308,28 1308,52 1293,52" stroke-linejoin="round" width="31" height="24" fill="rgb(90,71,190)" stroke="rgb(72,56,152)" stroke-width="1" opacity="0.75" />
			</g>
			<g>
				<title>tRNA_anti-codon (PF01336)
"OB-fold nucleic acid binding domain"</title>
				<rect class="PF01336" x="1310" y="28" stroke-linejoin="round" width="7" height="24" fill="rgb(215,103,173)" stroke="rgb(172,82,138)" stroke-width="1" opacity="0.75" />
			</g>
		</g>
		<g>
			<title> (AOOJJHNM_01953)
Aspartate aminotransferase</title>
			<polygon class=" (AOOJJHNM_01953)
Aspartate aminotransferase" points="1360,25 1351,25 1351,10 1321,40 1351,70 1351,55 1360,55" fill="rgb(255,255,255)" fill-opacity="1.0" stroke="rgb(0,0,0)" stroke-width="2"  />
			<g>
				<title>Aminotran_1_2 (PF00155)
"Aminotransferase class I and II"</title>
				<polygon class="PF00155" points="1325,40 1337,28 1357,28 1357,52 1337,52" stroke-linejoin="round" width="35" height="24" fill="rgb(89,113,198)" stroke="rgb(71,90,158)" stroke-width="1" opacity="0.75" />
			</g>
		</g>
		<g>
			<title> (AOOJJHNM_01954)
hypothetical protein</title>
			<polygon class=" (AOOJJHNM_01954)
hypothetical protein" points="1361,40 1378,10 1378,70" fill="rgb(255,255,255)" fill-opacity="1.0" stroke="rgb(0,0,0)" stroke-width="2"  />
			<g>
				<title>DUF5590 (PF17881)
"Domain of unknown function (DUF5590)"</title>
				<polygon class="PF17881" points="1369,31 1371,28 1373,28 1373,52 1371,52 1369,49" stroke-linejoin="round" width="4" height="24" fill="rgb(77,212,144)" stroke="rgb(61,169,115)" stroke-width="1" opacity="0.75" />
			</g>
		</g>
	</g>
</svg>
