<svg version="1.1" baseProfile="full" xmlns="http://www.w3.org/2000/svg" width="366.3333333333333" height="80">
	<g>
		<line x1="10" y1="40.0" x2="356.3333333333333" y2="40.0" style="stroke:rgb(70,70,70); stroke-width:3 "/>
		<g>
			<title>mtlA_1 (OPNKNPOB_02303)
PTS system mannitol-specific EIICB component</title>
			<polygon class="mtlA_1 (OPNKNPOB_02303)
PTS system mannitol-specific EIICB component" points="96,25 77,25 77,10 47,40 77,70 77,55 96,55" fill="rgb(255,255,255)" fill-opacity="1.0" stroke="rgb(0,0,0)" stroke-width="2"  />
			<g>
				<title>PTS_IIB (PF02302)
"PTS system, Lactose/Cellobiose specific IIB subunit"</title>
				<polygon class="PF02302" points="51,40 55,36 55,44" stroke-linejoin="round" width="8" height="24" fill="rgb(106,212,56)" stroke="rgb(84,169,44)" stroke-width="1" opacity="0.75" />
			</g>
			<g>
				<title>PTS_EIIC (PF02378)
"Phosphotransferase system, EIIC"</title>
				<rect class="PF02378" x="67" y="28" stroke-linejoin="round" width="26" height="24" fill="rgb(73,199,212)" stroke="rgb(58,159,169)" stroke-width="1" opacity="0.75" />
			</g>
		</g>
		<g>
			<title>ectA (OPNKNPOB_02304)
L-2,4-diaminobutyric acid acetyltransferase</title>
			<polygon class="ectA (OPNKNPOB_02304)
L-2,4-diaminobutyric acid acetyltransferase" points="113,10 130,40 113,70" fill="rgb(255,255,255)" fill-opacity="1.0" stroke="rgb(0,0,0)" stroke-width="2"  />
			<g>
				<title>Acetyltransf_1 (PF00583)
"Acetyltransferase (GNAT) family"</title>
				<polygon class="PF00583" points="115,28 119,28 126,39 126,41 119,52 115,52" stroke-linejoin="round" width="11" height="24" fill="rgb(121,183,50)" stroke="rgb(96,146,39)" stroke-width="1" opacity="0.75" />
			</g>
		</g>
		<g>
			<title>ectB (OPNKNPOB_02305)
Diaminobutyrate--2-oxoglutarate transaminase</title>
			<polygon class="ectB (OPNKNPOB_02305)
Diaminobutyrate--2-oxoglutarate transaminase" points="132,25 144,25 144,10 174,40 144,70 144,55 132,55" fill="rgb(255,255,255)" fill-opacity="1.0" stroke="rgb(0,0,0)" stroke-width="2"  />
			<g>
				<title>Aminotran_3 (PF00202)
"Aminotransferase class-III"</title>
				<polygon class="PF00202" points="133,28 158,28 170,40 158,52 133,52" stroke-linejoin="round" width="39" height="24" fill="rgb(49,163,189)" stroke="rgb(39,130,151)" stroke-width="1" opacity="0.75" />
			</g>
		</g>
		<g>
			<title>ectC (OPNKNPOB_02306)
L-ectoine synthase</title>
			<polygon class="ectC (OPNKNPOB_02306)
L-ectoine synthase" points="176,10 189,40 176,70" fill="rgb(255,255,255)" fill-opacity="1.0" stroke="rgb(0,0,0)" stroke-width="2"  />
			<g>
				<title>Ectoine_synth (PF06339)
"Ectoine synthase"</title>
				<polygon class="PF06339" points="176,28 180,28 185,40 180,52 176,52" stroke-linejoin="round" width="12" height="24" fill="rgb(225,176,81)" stroke="rgb(180,140,64)" stroke-width="1" opacity="0.75" />
			</g>
		</g>
		<g>
			<title> (OPNKNPOB_02307)
hypothetical protein</title>
			<polygon class=" (OPNKNPOB_02307)
hypothetical protein" points="193,10 207,40 193,70" fill="rgb(255,255,255)" fill-opacity="1.0" stroke="rgb(0,0,0)" stroke-width="2"  />
			<g>
				<title>Glyoxalase (PF00903)
"Glyoxalase/Bleomycin resistance protein/Dioxygenase superfamily"</title>
				<polygon class="PF00903" points="193,28 198,28 203,40 198,52 193,52" stroke-linejoin="round" width="11" height="24" fill="rgb(50,162,189)" stroke="rgb(40,129,151)" stroke-width="1" opacity="0.75" />
			</g>
		</g>
		<g>
			<title> (OPNKNPOB_02308)
hypothetical protein</title>
			<polygon class=" (OPNKNPOB_02308)
hypothetical protein" points="214,40 218,10 218,70" fill="rgb(255,255,255)" fill-opacity="1.0" stroke="rgb(0,0,0)" stroke-width="2"  />
			<g>
				<title>YpzI (PF14140)
"YpzI-like protein"</title>
				<polygon class="PF14140" points="217,40 218,33 218,47" stroke-linejoin="round" width="4" height="24" fill="rgb(68,123,191)" stroke="rgb(54,98,152)" stroke-width="1" opacity="0.75" />
			</g>
		</g>
		<g>
			<title> (OPNKNPOB_02309)
hypothetical protein</title>
			<polygon class=" (OPNKNPOB_02309)
hypothetical protein" points="227,40 249,10 249,70" fill="rgb(255,255,255)" fill-opacity="1.0" stroke="rgb(0,0,0)" stroke-width="2"  />
			<g>
				<title>Diphthami_syn_2 (PF01902)
"Diphthamide synthase"</title>
				<polygon class="PF01902" points="231,40 240,28 249,28 249,52 240,52" stroke-linejoin="round" width="22" height="24" fill="rgb(96,162,208)" stroke="rgb(76,129,166)" stroke-width="1" opacity="0.75" />
			</g>
		</g>
		<g>
			<title>panS_1 (OPNKNPOB_02310)
Pantothenate precursors transporter PanS</title>
			<polygon class="panS_1 (OPNKNPOB_02310)
Pantothenate precursors transporter PanS" points="312,25 309,25 309,10 279,40 309,70 309,55 312,55" fill="rgb(255,255,255)" fill-opacity="1.0" stroke="rgb(0,0,0)" stroke-width="2"  />
			<g>
				<title>SBF (PF01758)
"Sodium Bile acid symporter family"</title>
				<polygon class="PF01758" points="289,34 295,28 307,28 307,52 295,52 289,46" stroke-linejoin="round" width="18" height="24" fill="rgb(139,96,196)" stroke="rgb(111,76,156)" stroke-width="1" opacity="0.75" />
			</g>
		</g>
	</g>
</svg>
