<svg version="1.1" baseProfile="full" xmlns="http://www.w3.org/2000/svg" width="366.3333333333333" height="80">
	<g>
		<line x1="10" y1="40.0" x2="356.3333333333333" y2="40.0" style="stroke:rgb(70,70,70); stroke-width:3 "/>
		<g>
			<title>panS_2 (FCOBMIEG_03306)
Pantothenate precursors transporter PanS</title>
			<polygon class="panS_2 (FCOBMIEG_03306)
Pantothenate precursors transporter PanS" points="53,25 56,25 56,10 86,40 56,70 56,55 53,55" fill="rgb(255,255,255)" fill-opacity="1.0" stroke="rgb(0,0,0)" stroke-width="2"  />
			<g>
				<title>SBF (PF01758)
"Sodium Bile acid symporter family"</title>
				<polygon class="PF01758" points="57,28 69,28 75,34 75,46 69,52 57,52" stroke-linejoin="round" width="18" height="24" fill="rgb(139,96,196)" stroke="rgb(111,76,156)" stroke-width="1" opacity="0.75" />
			</g>
		</g>
		<g>
			<title> (FCOBMIEG_03307)
hypothetical protein</title>
			<polygon class=" (FCOBMIEG_03307)
hypothetical protein" points="116,10 138,40 116,70" fill="rgb(255,255,255)" fill-opacity="1.0" stroke="rgb(0,0,0)" stroke-width="2"  />
			<g>
				<title>Diphthami_syn_2 (PF01902)
"Diphthamide synthase"</title>
				<polygon class="PF01902" points="116,28 125,28 134,40 125,52 116,52" stroke-linejoin="round" width="22" height="24" fill="rgb(96,162,208)" stroke="rgb(76,129,166)" stroke-width="1" opacity="0.75" />
			</g>
		</g>
		<g>
			<title> (FCOBMIEG_03308)
hypothetical protein</title>
			<polygon class=" (FCOBMIEG_03308)
hypothetical protein" points="147,10 151,40 147,70" fill="rgb(255,255,255)" fill-opacity="1.0" stroke="rgb(0,0,0)" stroke-width="2"  />
			<g>
				<title>YpzI (PF14140)
"YpzI-like protein"</title>
				<polygon class="PF14140" points="147,32 148,40 147,48" stroke-linejoin="round" width="4" height="24" fill="rgb(68,123,191)" stroke="rgb(54,98,152)" stroke-width="1" opacity="0.75" />
			</g>
		</g>
		<g>
			<title> (FCOBMIEG_03309)
hypothetical protein</title>
			<polygon class=" (FCOBMIEG_03309)
hypothetical protein" points="158,40 172,10 172,70" fill="rgb(255,255,255)" fill-opacity="1.0" stroke="rgb(0,0,0)" stroke-width="2"  />
			<g>
				<title>Glyoxalase (PF00903)
"Glyoxalase/Bleomycin resistance protein/Dioxygenase superfamily"</title>
				<polygon class="PF00903" points="161,40 167,28 171,28 171,52 167,52" stroke-linejoin="round" width="11" height="24" fill="rgb(50,162,189)" stroke="rgb(40,129,151)" stroke-width="1" opacity="0.75" />
			</g>
		</g>
		<g>
			<title>ectC (FCOBMIEG_03310)
L-ectoine synthase</title>
			<polygon class="ectC (FCOBMIEG_03310)
L-ectoine synthase" points="176,40 189,10 189,70" fill="rgb(255,255,255)" fill-opacity="1.0" stroke="rgb(0,0,0)" stroke-width="2"  />
			<g>
				<title>Ectoine_synth (PF06339)
"Ectoine synthase"</title>
				<polygon class="PF06339" points="179,40 184,28 188,28 188,52 184,52" stroke-linejoin="round" width="12" height="24" fill="rgb(225,176,81)" stroke="rgb(180,140,64)" stroke-width="1" opacity="0.75" />
			</g>
		</g>
		<g>
			<title>ectB (FCOBMIEG_03311)
Diaminobutyrate--2-oxoglutarate transaminase</title>
			<polygon class="ectB (FCOBMIEG_03311)
Diaminobutyrate--2-oxoglutarate transaminase" points="233,25 221,25 221,10 191,40 221,70 221,55 233,55" fill="rgb(255,255,255)" fill-opacity="1.0" stroke="rgb(0,0,0)" stroke-width="2"  />
			<g>
				<title>Aminotran_3 (PF00202)
"Aminotransferase class-III"</title>
				<polygon class="PF00202" points="195,40 207,28 231,28 231,52 207,52" stroke-linejoin="round" width="39" height="24" fill="rgb(49,163,189)" stroke="rgb(39,130,151)" stroke-width="1" opacity="0.75" />
			</g>
		</g>
		<g>
			<title>ectA (FCOBMIEG_03312)
L-2,4-diaminobutyric acid acetyltransferase</title>
			<polygon class="ectA (FCOBMIEG_03312)
L-2,4-diaminobutyric acid acetyltransferase" points="235,40 252,10 252,70" fill="rgb(255,255,255)" fill-opacity="1.0" stroke="rgb(0,0,0)" stroke-width="2"  />
			<g>
				<title>Acetyltransf_1 (PF00583)
"Acetyltransferase (GNAT) family"</title>
				<polygon class="PF00583" points="238,40 245,28 249,28 249,52 245,52 238,40" stroke-linejoin="round" width="11" height="24" fill="rgb(121,183,50)" stroke="rgb(96,146,39)" stroke-width="1" opacity="0.75" />
			</g>
		</g>
		<g>
			<title>mtlA_1 (FCOBMIEG_03313)
PTS system mannitol-specific EIICB component</title>
			<polygon class="mtlA_1 (FCOBMIEG_03313)
PTS system mannitol-specific EIICB component" points="270,25 289,25 289,10 319,40 289,70 289,55 270,55" fill="rgb(255,255,255)" fill-opacity="1.0" stroke="rgb(0,0,0)" stroke-width="2"  />
			<g>
				<title>PTS_EIIC (PF02378)
"Phosphotransferase system, EIIC"</title>
				<rect class="PF02378" x="272" y="28" stroke-linejoin="round" width="26" height="24" fill="rgb(73,199,212)" stroke="rgb(58,159,169)" stroke-width="1" opacity="0.75" />
			</g>
			<g>
				<title>PTS_IIB (PF02302)
"PTS system, Lactose/Cellobiose specific IIB subunit"</title>
				<polygon class="PF02302" points="310,36 314,40 310,44" stroke-linejoin="round" width="8" height="24" fill="rgb(106,212,56)" stroke="rgb(84,169,44)" stroke-width="1" opacity="0.75" />
			</g>
		</g>
	</g>
</svg>
