<svg version="1.1" baseProfile="full" xmlns="http://www.w3.org/2000/svg" width="533.7" height="80">
	<g>
		<line x1="10" y1="40.0" x2="523.7" y2="40.0" style="stroke:rgb(70,70,70); stroke-width:3 "/>
		<g>
			<title>murB (PJBLFHJD_00543)
UDP-N-acetylenolpyruvoylglucosamine reductase</title>
			<polygon class="murB (PJBLFHJD_00543)
UDP-N-acetylenolpyruvoylglucosamine reductase" points="45,25 45,25 45,10 15,40 45,70 45,55 45,55" fill="rgb(255,255,255)" fill-opacity="1.0" stroke="rgb(0,0,0)" stroke-width="2"  />
			<g>
				<title>MurB_C (PF02873)
"UDP-N-acetylenolpyruvoylglucosamine reductase, C-terminal domain"</title>
				<polygon class="PF02873" points="19,40 24,35 24,45" stroke-linejoin="round" width="9" height="24" fill="rgb(88,193,151)" stroke="rgb(70,154,120)" stroke-width="1" opacity="0.75" />
			</g>
			<g>
				<title>FAD_binding_4 (PF01565)
"FAD binding domain"</title>
				<polygon class="PF01565" points="29,30 31,28 41,28 41,52 31,52 29,50" stroke-linejoin="round" width="12" height="24" fill="rgb(226,88,136)" stroke="rgb(180,70,108)" stroke-width="1" opacity="0.75" />
			</g>
		</g>
		<g>
			<title>ilvD (PJBLFHJD_00544)
Dihydroxy-acid dehydratase</title>
			<polygon class="ilvD (PJBLFHJD_00544)
Dihydroxy-acid dehydratase" points="55,25 81,25 81,10 111,40 81,70 81,55 55,55" fill="rgb(255,255,255)" fill-opacity="1.0" stroke="rgb(0,0,0)" stroke-width="2"  />
			<g>
				<title>ILVD_EDD (PF00920)
"Dehydratase family"</title>
				<polygon class="PF00920" points="59,28 95,28 107,40 95,52 59,52" stroke-linejoin="round" width="51" height="24" fill="rgb(58,79,190)" stroke="rgb(46,63,152)" stroke-width="1" opacity="0.75" />
			</g>
		</g>
		<g>
			<title>ddc (PJBLFHJD_00545)
L-2,4-diaminobutyrate decarboxylase</title>
			<polygon class="ddc (PJBLFHJD_00545)
L-2,4-diaminobutyrate decarboxylase" points="125,25 146,25 146,10 176,40 146,70 146,55 125,55" fill="rgb(255,255,255)" fill-opacity="1.0" stroke="rgb(0,0,0)" stroke-width="2"  />
			<g>
				<title>Pyridoxal_deC (PF00282)
"Pyridoxal-dependent decarboxylase conserved domain"</title>
				<polygon class="PF00282" points="130,28 159,28 167,36 167,44 159,52 130,52" stroke-linejoin="round" width="37" height="24" fill="rgb(100,218,166)" stroke="rgb(80,174,132)" stroke-width="1" opacity="0.75" />
			</g>
		</g>
		<g>
			<title>iucA (PJBLFHJD_00546)
N(2)-citryl-N(6)-acetyl-N(6)-hydroxylysine synthase</title>
			<polygon class="iucA (PJBLFHJD_00546)
N(2)-citryl-N(6)-acetyl-N(6)-hydroxylysine synthase" points="176,25 204,25 204,10 234,40 204,70 204,55 176,55" fill="rgb(255,255,255)" fill-opacity="1.0" stroke="rgb(0,0,0)" stroke-width="2"  />
			<g>
				<title>IucA_IucC (PF04183)
"IucA / IucC family"</title>
				<rect class="PF04183" x="189" y="28" stroke-linejoin="round" width="23" height="24" fill="rgb(221,104,121)" stroke="rgb(176,83,96)" stroke-width="1" opacity="0.75" />
			</g>
			<g>
				<title>FhuF (PF06276)
"Ferric iron reductase FhuF-like transporter"</title>
				<polygon class="PF06276" points="215,28 218,28 230,40 230,40 218,52 215,52" stroke-linejoin="round" width="15" height="24" fill="rgb(76,151,221)" stroke="rgb(60,120,176)" stroke-width="1" opacity="0.75" />
			</g>
		</g>
		<g>
			<title>aacA4 (PJBLFHJD_00547)
Aminoglycoside N(6')-acetyltransferase type 1</title>
			<polygon class="aacA4 (PJBLFHJD_00547)
Aminoglycoside N(6')-acetyltransferase type 1" points="234,10 253,40 234,70" fill="rgb(255,255,255)" fill-opacity="1.0" stroke="rgb(0,0,0)" stroke-width="2"  />
			<g>
				<title>Acetyltransf_8 (PF13523)
"Acetyltransferase (GNAT) domain"</title>
				<polygon class="PF13523" points="236,28 242,28 249,40 242,52 236,52" stroke-linejoin="round" width="14" height="24" fill="rgb(106,224,203)" stroke="rgb(84,179,162)" stroke-width="1" opacity="0.75" />
			</g>
		</g>
		<g>
			<title>iucD_1 (PJBLFHJD_00548)
L-lysine N6-monooxygenase</title>
			<polygon class="iucD_1 (PJBLFHJD_00548)
L-lysine N6-monooxygenase" points="253,25 266,25 266,10 296,40 266,70 266,55 253,55" fill="rgb(255,255,255)" fill-opacity="1.0" stroke="rgb(0,0,0)" stroke-width="2"  />
			<g>
				<title>K_oxygenase (PF13434)
"L-lysine 6-monooxygenase (NADPH-requiring)"</title>
				<polygon class="PF13434" points="253,28 280,28 286,34 286,46 280,52 253,52" stroke-linejoin="round" width="33" height="24" fill="rgb(81,213,119)" stroke="rgb(64,170,95)" stroke-width="1" opacity="0.75" />
			</g>
		</g>
		<g>
			<title>iucC (PJBLFHJD_00549)
Aerobactin synthase</title>
			<polygon class="iucC (PJBLFHJD_00549)
Aerobactin synthase" points="297,25 326,25 326,10 356,40 326,70 326,55 297,55" fill="rgb(255,255,255)" fill-opacity="1.0" stroke="rgb(0,0,0)" stroke-width="2"  />
			<g>
				<title>IucA_IucC (PF04183)
"IucA / IucC family"</title>
				<rect class="PF04183" x="310" y="28" stroke-linejoin="round" width="25" height="24" fill="rgb(221,104,121)" stroke="rgb(176,83,96)" stroke-width="1" opacity="0.75" />
			</g>
			<g>
				<title>FhuF (PF06276)
"Ferric iron reductase FhuF-like transporter"</title>
				<polygon class="PF06276" points="338,28 340,28 352,40 340,52 338,52" stroke-linejoin="round" width="16" height="24" fill="rgb(76,151,221)" stroke="rgb(60,120,176)" stroke-width="1" opacity="0.75" />
			</g>
		</g>
		<g>
			<title>iolS (PJBLFHJD_00550)
Aldo-keto reductase IolS</title>
			<polygon class="iolS (PJBLFHJD_00550)
Aldo-keto reductase IolS" points="366,25 367,25 367,10 397,40 367,70 367,55 366,55" fill="rgb(255,255,255)" fill-opacity="1.0" stroke="rgb(0,0,0)" stroke-width="2"  />
			<g>
				<title>Aldo_ket_red (PF00248)
"Aldo/keto reductase family"</title>
				<polygon class="PF00248" points="367,28 381,28 393,40 381,52 367,52" stroke-linejoin="round" width="29" height="24" fill="rgb(225,205,58)" stroke="rgb(180,164,46)" stroke-width="1" opacity="0.75" />
			</g>
		</g>
		<g>
			<title> (PJBLFHJD_00551)
hypothetical protein</title>
			<polygon class=" (PJBLFHJD_00551)
hypothetical protein" points="407,10 411,40 407,70" fill="rgb(255,255,255)" fill-opacity="1.0" stroke="rgb(0,0,0)" stroke-width="2"  />
		</g>
		<g>
			<title>aceA (PJBLFHJD_00552)
Isocitrate lyase</title>
			<polygon class="aceA (PJBLFHJD_00552)
Isocitrate lyase" points="416,25 429,25 429,10 459,40 429,70 429,55 416,55" fill="rgb(255,255,255)" fill-opacity="1.0" stroke="rgb(0,0,0)" stroke-width="2"  />
			<g>
				<title>ICL (PF00463)
"Isocitrate lyase family"</title>
				<rect class="PF00463" x="416" y="28" stroke-linejoin="round" width="24" height="24" fill="rgb(209,76,110)" stroke="rgb(167,60,87)" stroke-width="1" opacity="0.75" />
			</g>
			<g>
				<title>ICL (PF00463)
"Isocitrate lyase family"</title>
				<polygon class="PF00463" points="440,28 442,28 454,40 442,52 440,52" stroke-linejoin="round" width="17" height="24" fill="rgb(209,76,110)" stroke="rgb(167,60,87)" stroke-width="1" opacity="0.75" />
			</g>
		</g>
		<g>
			<title> (PJBLFHJD_00553)
4-hydroxyphenylacetate 3-monooxygenase oxygenase component</title>
			<polygon class=" (PJBLFHJD_00553)
4-hydroxyphenylacetate 3-monooxygenase oxygenase component" points="463,25 480,25 480,10 510,40 480,70 480,55 463,55" fill="rgb(255,255,255)" fill-opacity="1.0" stroke="rgb(0,0,0)" stroke-width="2"  />
			<g>
				<title>HpaB_N (PF11794)
"4-hydroxyphenylacetate 3-hydroxylase N terminal"</title>
				<rect class="PF11794" x="463" y="28" stroke-linejoin="round" width="26" height="24" fill="rgb(122,202,60)" stroke="rgb(97,161,47)" stroke-width="1" opacity="0.75" />
			</g>
			<g>
				<title>HpaB (PF03241)
"4-hydroxyphenylacetate 3-hydroxylase C terminal"</title>
				<polygon class="PF03241" points="490,28 494,28 506,40 494,52 490,52" stroke-linejoin="round" width="19" height="24" fill="rgb(73,153,185)" stroke="rgb(58,122,148)" stroke-width="1" opacity="0.75" />
			</g>
		</g>
		<g>
			<title> (PJBLFHJD_00554)
hypothetical protein</title>
			<polygon class=" (PJBLFHJD_00554)
hypothetical protein" points="511,40 515,10 515,70" fill="rgb(255,255,255)" fill-opacity="1.0" stroke="rgb(0,0,0)" stroke-width="2"  />
		</g>
	</g>
</svg>
