<svg version="1.1" baseProfile="full" xmlns="http://www.w3.org/2000/svg" width="366.43333333333334" height="80">
	<g>
		<line x1="10" y1="40.0" x2="356.43333333333334" y2="40.0" style="stroke:rgb(70,70,70); stroke-width:3 "/>
		<g>
			<title> (MDEOCCLA_00548)
hypothetical protein</title>
			<polygon class=" (MDEOCCLA_00548)
hypothetical protein" points="52,40 63,10 63,70" fill="rgb(255,255,255)" fill-opacity="1.0" stroke="rgb(0,0,0)" stroke-width="2"  />
		</g>
		<g>
			<title> (MDEOCCLA_00549)
hypothetical protein</title>
			<polygon class=" (MDEOCCLA_00549)
hypothetical protein" points="71,10 98,40 71,70" fill="rgb(255,255,255)" fill-opacity="1.0" stroke="rgb(0,0,0)" stroke-width="2"  />
		</g>
		<g>
			<title>ectA (MDEOCCLA_00550)
L-2,4-diaminobutyric acid acetyltransferase</title>
			<polygon class="ectA (MDEOCCLA_00550)
L-2,4-diaminobutyric acid acetyltransferase" points="118,10 132,40 118,70" fill="rgb(255,255,255)" fill-opacity="1.0" stroke="rgb(0,0,0)" stroke-width="2"  />
			<g>
				<title>Acetyltransf_1 (PF00583)
"Acetyltransferase (GNAT) family"</title>
				<polygon class="PF00583" points="118,28 123,28 128,38 128,42 123,52 118,52" stroke-linejoin="round" width="10" height="24" fill="rgb(121,183,50)" stroke="rgb(96,146,39)" stroke-width="1" opacity="0.75" />
			</g>
		</g>
		<g>
			<title>ectB (MDEOCCLA_00551)
Diaminobutyrate--2-oxoglutarate transaminase</title>
			<polygon class="ectB (MDEOCCLA_00551)
Diaminobutyrate--2-oxoglutarate transaminase" points="133,25 146,25 146,10 176,40 146,70 146,55 133,55" fill="rgb(255,255,255)" fill-opacity="1.0" stroke="rgb(0,0,0)" stroke-width="2"  />
			<g>
				<title>Aminotran_3 (PF00202)
"Aminotransferase class-III"</title>
				<polygon class="PF00202" points="135,28 159,28 171,40 159,52 135,52" stroke-linejoin="round" width="39" height="24" fill="rgb(49,163,189)" stroke="rgb(39,130,151)" stroke-width="1" opacity="0.75" />
			</g>
		</g>
		<g>
			<title>ectC (MDEOCCLA_00552)
L-ectoine synthase</title>
			<polygon class="ectC (MDEOCCLA_00552)
L-ectoine synthase" points="176,10 189,40 176,70" fill="rgb(255,255,255)" fill-opacity="1.0" stroke="rgb(0,0,0)" stroke-width="2"  />
			<g>
				<title>Ectoine_synth (PF06339)
"Ectoine synthase"</title>
				<polygon class="PF06339" points="176,28 180,28 185,40 180,52 176,52" stroke-linejoin="round" width="12" height="24" fill="rgb(225,176,81)" stroke="rgb(180,140,64)" stroke-width="1" opacity="0.75" />
			</g>
		</g>
		<g>
			<title> (MDEOCCLA_00553)
hypothetical protein</title>
			<polygon class=" (MDEOCCLA_00553)
hypothetical protein" points="191,40 196,10 196,70" fill="rgb(255,255,255)" fill-opacity="1.0" stroke="rgb(0,0,0)" stroke-width="2"  />
		</g>
		<g>
			<title>carC (MDEOCCLA_00554)
Caffeyl-CoA reductase-Etf complex subunit CarC</title>
			<polygon class="carC (MDEOCCLA_00554)
Caffeyl-CoA reductase-Etf complex subunit CarC" points="214,25 223,25 223,10 253,40 223,70 223,55 214,55" fill="rgb(255,255,255)" fill-opacity="1.0" stroke="rgb(0,0,0)" stroke-width="2"  />
			<g>
				<title>Acyl-CoA_dh_N (PF02771)
"Acyl-CoA dehydrogenase, N-terminal domain"</title>
				<rect class="PF02771" x="214" y="28" stroke-linejoin="round" width="11" height="24" fill="rgb(105,135,218)" stroke="rgb(84,108,174)" stroke-width="1" opacity="0.75" />
			</g>
			<g>
				<title>Acyl-CoA_dh_M (PF02770)
"Acyl-CoA dehydrogenase, middle domain"</title>
				<rect class="PF02770" x="226" y="28" stroke-linejoin="round" width="9" height="24" fill="rgb(225,186,97)" stroke="rgb(180,148,77)" stroke-width="1" opacity="0.75" />
			</g>
			<g>
				<title>Acyl-CoA_dh_1 (PF00441)
"Acyl-CoA dehydrogenase, C-terminal domain"</title>
				<polygon class="PF00441" points="237,29 248,40 237,51" stroke-linejoin="round" width="14" height="24" fill="rgb(85,191,117)" stroke="rgb(68,152,93)" stroke-width="1" opacity="0.75" />
			</g>
		</g>
		<g>
			<title>fabG_1 (MDEOCCLA_00555)
3-oxoacyl-[acyl-carrier-protein] reductase FabG</title>
			<polygon class="fabG_1 (MDEOCCLA_00555)
3-oxoacyl-[acyl-carrier-protein] reductase FabG" points="254,10 279,40 254,70" fill="rgb(255,255,255)" fill-opacity="1.0" stroke="rgb(0,0,0)" stroke-width="2"  />
			<g>
				<title>adh_short_C2 (PF13561)
"Enoyl-(Acyl carrier protein) reductase"</title>
				<polygon class="PF13561" points="255,28 265,28 275,40 265,52 255,52" stroke-linejoin="round" width="24" height="24" fill="rgb(73,205,127)" stroke="rgb(58,164,101)" stroke-width="1" opacity="0.75" />
			</g>
		</g>
		<g>
			<title> (MDEOCCLA_00556)
hypothetical protein</title>
			<polygon class=" (MDEOCCLA_00556)
hypothetical protein" points="280,10 294,40 280,70" fill="rgb(255,255,255)" fill-opacity="1.0" stroke="rgb(0,0,0)" stroke-width="2"  />
			<g>
				<title>MaoC_dehydrat_N (PF13452)
"N-terminal half of MaoC dehydratase"</title>
				<polygon class="PF13452" points="280,28 285,28 291,40 285,52 280,52" stroke-linejoin="round" width="12" height="24" fill="rgb(215,186,64)" stroke="rgb(172,148,51)" stroke-width="1" opacity="0.75" />
			</g>
		</g>
		<g>
			<title> (MDEOCCLA_00557)
hypothetical protein</title>
			<polygon class=" (MDEOCCLA_00557)
hypothetical protein" points="295,10 309,40 295,70" fill="rgb(255,255,255)" fill-opacity="1.0" stroke="rgb(0,0,0)" stroke-width="2"  />
			<g>
				<title>MaoC_dehydratas (PF01575)
"MaoC like domain"</title>
				<polygon class="PF01575" points="295,28 299,28 305,40 299,52 295,52" stroke-linejoin="round" width="11" height="24" fill="rgb(218,129,86)" stroke="rgb(174,103,68)" stroke-width="1" opacity="0.75" />
			</g>
		</g>
		<g>
			<title>bbsG_1 (MDEOCCLA_00558)
(R)-benzylsuccinyl-CoA dehydrogenase</title>
			<polygon class="bbsG_1 (MDEOCCLA_00558)
(R)-benzylsuccinyl-CoA dehydrogenase" points="309,25 320,25 320,10 350,40 320,70 320,55 309,55" fill="rgb(255,255,255)" fill-opacity="1.0" stroke="rgb(0,0,0)" stroke-width="2"  />
			<g>
				<title>Acyl-CoA_dh_N (PF02771)
"Acyl-CoA dehydrogenase, N-terminal domain"</title>
				<rect class="PF02771" x="309" y="28" stroke-linejoin="round" width="12" height="24" fill="rgb(105,135,218)" stroke="rgb(84,108,174)" stroke-width="1" opacity="0.75" />
			</g>
			<g>
				<title>Acyl-CoA_dh_M (PF02770)
"Acyl-CoA dehydrogenase, middle domain"</title>
				<rect class="PF02770" x="322" y="28" stroke-linejoin="round" width="10" height="24" fill="rgb(225,186,97)" stroke="rgb(180,148,77)" stroke-width="1" opacity="0.75" />
			</g>
			<g>
				<title>Acyl-CoA_dh_1 (PF00441)
"Acyl-CoA dehydrogenase, C-terminal domain"</title>
				<polygon class="PF00441" points="333,28 333,28 345,40 333,52 333,52" stroke-linejoin="round" width="15" height="24" fill="rgb(85,191,117)" stroke="rgb(68,152,93)" stroke-width="1" opacity="0.75" />
			</g>
		</g>
	</g>
</svg>
