<svg version="1.1" baseProfile="full" xmlns="http://www.w3.org/2000/svg" width="714.5666666666667" height="80">
	<g>
		<line x1="10" y1="40.0" x2="704.5666666666667" y2="40.0" style="stroke:rgb(70,70,70); stroke-width:3 "/>
		<g>
			<title> (MDEOCCLA_01777)
IS110 family transposase ISHaha5</title>
			<polygon class=" (MDEOCCLA_01777)
IS110 family transposase ISHaha5" points="58,25 47,25 47,10 17,40 47,70 47,55 58,55" fill="rgb(255,255,255)" fill-opacity="1.0" stroke="rgb(0,0,0)" stroke-width="2"  />
			<g>
				<title>Transposase_20 (PF02371)
"Transposase IS116/IS110/IS902 family"</title>
				<polygon class="PF02371" points="21,40 30,31 30,49" stroke-linejoin="round" width="10" height="24" fill="rgb(104,204,65)" stroke="rgb(83,163,52)" stroke-width="1" opacity="0.75" />
			</g>
			<g>
				<title>DEDD_Tnp_IS110 (PF01548)
"Transposase"</title>
				<rect class="PF01548" x="41" y="28" stroke-linejoin="round" width="15" height="24" fill="rgb(59,200,207)" stroke="rgb(47,160,165)" stroke-width="1" opacity="0.75" />
			</g>
		</g>
		<g>
			<title>adhT_1 (MDEOCCLA_01778)
Alcohol dehydrogenase</title>
			<polygon class="adhT_1 (MDEOCCLA_01778)
Alcohol dehydrogenase" points="122,25 118,25 118,10 88,40 118,70 118,55 122,55" fill="rgb(255,255,255)" fill-opacity="1.0" stroke="rgb(0,0,0)" stroke-width="2"  />
			<g>
				<title>ADH_zinc_N_2 (PF13602)
"Zinc-binding dehydrogenase"</title>
				<polygon class="PF13602" points="92,40 100,32 100,48" stroke-linejoin="round" width="12" height="24" fill="rgb(101,131,226)" stroke="rgb(80,104,180)" stroke-width="1" opacity="0.75" />
			</g>
			<g>
				<title>ADH_N (PF08240)
"Alcohol dehydrogenase GroES-like domain"</title>
				<rect class="PF08240" x="108" y="28" stroke-linejoin="round" width="11" height="24" fill="rgb(211,65,138)" stroke="rgb(168,51,110)" stroke-width="1" opacity="0.75" />
			</g>
		</g>
		<g>
			<title> (MDEOCCLA_01779)
hypothetical protein</title>
			<polygon class=" (MDEOCCLA_01779)
hypothetical protein" points="131,10 145,40 131,70" fill="rgb(255,255,255)" fill-opacity="1.0" stroke="rgb(0,0,0)" stroke-width="2"  />
			<g>
				<title>YwpF (PF14183)
"YwpF-like protein"</title>
				<polygon class="PF14183" points="131,28 136,28 141,40 136,52 131,52" stroke-linejoin="round" width="13" height="24" fill="rgb(199,178,73)" stroke="rgb(159,142,58)" stroke-width="1" opacity="0.75" />
			</g>
		</g>
		<g>
			<title>ktrB_2 (MDEOCCLA_01780)
Ktr system potassium uptake protein B</title>
			<polygon class="ktrB_2 (MDEOCCLA_01780)
Ktr system potassium uptake protein B" points="149,25 164,25 164,10 194,40 164,70 164,55 149,55" fill="rgb(255,255,255)" fill-opacity="1.0" stroke="rgb(0,0,0)" stroke-width="2"  />
			<g>
				<title>TrkH (PF02386)
"Cation transport protein"</title>
				<polygon class="PF02386" points="150,28 178,28 190,40 178,52 150,52" stroke-linejoin="round" width="43" height="24" fill="rgb(67,179,142)" stroke="rgb(53,143,113)" stroke-width="1" opacity="0.75" />
			</g>
		</g>
		<g>
			<title> (MDEOCCLA_01781)
hypothetical protein</title>
			<polygon class=" (MDEOCCLA_01781)
hypothetical protein" points="198,40 202,10 202,70" fill="rgb(255,255,255)" fill-opacity="1.0" stroke="rgb(0,0,0)" stroke-width="2"  />
			<g>
				<title>YjcZ_2 (PF09680)
"Family of unknown function"</title>
				<polygon class="PF09680" points="201,40 200,47 200,33" stroke-linejoin="round" width="2" height="24" fill="rgb(79,203,107)" stroke="rgb(63,162,85)" stroke-width="1" opacity="0.75" />
			</g>
		</g>
		<g>
			<title> (MDEOCCLA_01782)
hypothetical protein</title>
			<polygon class=" (MDEOCCLA_01782)
hypothetical protein" points="205,40 211,10 211,70" fill="rgb(255,255,255)" fill-opacity="1.0" stroke="rgb(0,0,0)" stroke-width="2"  />
		</g>
		<g>
			<title>crtN_1 (MDEOCCLA_01783)
4,4'-diapophytoene desaturase (4,4'-diapolycopene-forming)</title>
			<polygon class="crtN_1 (MDEOCCLA_01783)
4,4'-diapophytoene desaturase (4,4'-diapolycopene-forming)" points="244,25 263,25 263,10 293,40 263,70 263,55 244,55" fill="rgb(255,255,255)" fill-opacity="1.0" stroke="rgb(0,0,0)" stroke-width="2"  />
			<g>
				<title>Amino_oxidase (PF01593)
"Flavin containing amine oxidoreductase"</title>
				<polygon class="PF01593" points="245,28 277,28 289,40 277,52 245,52" stroke-linejoin="round" width="47" height="24" fill="rgb(184,74,52)" stroke="rgb(147,59,41)" stroke-width="1" opacity="0.75" />
			</g>
		</g>
		<g>
			<title>crtNc (MDEOCCLA_01784)
4,4'-diapolycopen-4-al dehydrogenase</title>
			<polygon class="crtNc (MDEOCCLA_01784)
4,4'-diapolycopen-4-al dehydrogenase" points="293,25 312,25 312,10 342,40 312,70 312,55 293,55" fill="rgb(255,255,255)" fill-opacity="1.0" stroke="rgb(0,0,0)" stroke-width="2"  />
			<g>
				<title>Amino_oxidase (PF01593)
"Flavin containing amine oxidoreductase"</title>
				<polygon class="PF01593" points="294,28 326,28 338,40 326,52 294,52" stroke-linejoin="round" width="46" height="24" fill="rgb(184,74,52)" stroke="rgb(147,59,41)" stroke-width="1" opacity="0.75" />
			</g>
		</g>
		<g>
			<title>crtB (MDEOCCLA_01785)
15-cis-phytoene synthase</title>
			<polygon class="crtB (MDEOCCLA_01785)
15-cis-phytoene synthase" points="343,10 370,40 343,70" fill="rgb(255,255,255)" fill-opacity="1.0" stroke="rgb(0,0,0)" stroke-width="2"  />
			<g>
				<title>SQS_PSY (PF00494)
"Squalene/phytoene synthase"</title>
				<polygon class="PF00494" points="344,28 355,28 366,40 355,52 344,52" stroke-linejoin="round" width="25" height="24" fill="rgb(178,91,49)" stroke="rgb(142,72,39)" stroke-width="1" opacity="0.75" />
			</g>
		</g>
		<g>
			<title>crtNb_2 (MDEOCCLA_01786)
4,4'-diapolycopene oxygenase</title>
			<polygon class="crtNb_2 (MDEOCCLA_01786)
4,4'-diapolycopene oxygenase" points="433,25 415,25 415,10 385,40 415,70 415,55 433,55" fill="rgb(255,255,255)" fill-opacity="1.0" stroke="rgb(0,0,0)" stroke-width="2"  />
			<g>
				<title>Amino_oxidase (PF01593)
"Flavin containing amine oxidoreductase"</title>
				<polygon class="PF01593" points="389,40 401,28 432,28 432,52 401,52" stroke-linejoin="round" width="47" height="24" fill="rgb(184,74,52)" stroke="rgb(147,59,41)" stroke-width="1" opacity="0.75" />
			</g>
		</g>
		<g>
			<title>crtQ_2 (MDEOCCLA_01787)
4,4'-diaponeurosporenoate glycosyltransferase</title>
			<polygon class="crtQ_2 (MDEOCCLA_01787)
4,4'-diaponeurosporenoate glycosyltransferase" points="471,25 464,25 464,10 434,40 464,70 464,55 471,55" fill="rgb(255,255,255)" fill-opacity="1.0" stroke="rgb(0,0,0)" stroke-width="2"  />
			<g>
				<title>Glyco_tranf_2_3 (PF13641)
"Glycosyltransferase like family 2"</title>
				<polygon class="PF13641" points="444,34 450,28 467,28 467,52 450,52 444,46" stroke-linejoin="round" width="23" height="24" fill="rgb(140,74,190)" stroke="rgb(111,59,152)" stroke-width="1" opacity="0.75" />
			</g>
		</g>
		<g>
			<title> (MDEOCCLA_01788)
hypothetical protein</title>
			<polygon class=" (MDEOCCLA_01788)
hypothetical protein" points="471,40 492,10 492,70" fill="rgb(255,255,255)" fill-opacity="1.0" stroke="rgb(0,0,0)" stroke-width="2"  />
			<g>
				<title>Acyltransferase (PF01553)
"Acyltransferase"</title>
				<polygon class="PF01553" points="477,37 484,28 490,28 490,52 484,52 477,43" stroke-linejoin="round" width="13" height="24" fill="rgb(87,176,216)" stroke="rgb(69,140,172)" stroke-width="1" opacity="0.75" />
			</g>
		</g>
		<g>
			<title> (MDEOCCLA_01789)
hypothetical protein</title>
			<polygon class=" (MDEOCCLA_01789)
hypothetical protein" points="493,40 518,10 518,70" fill="rgb(255,255,255)" fill-opacity="1.0" stroke="rgb(0,0,0)" stroke-width="2"  />
			<g>
				<title>Caroten_synth (PF04240)
"Carotenoid biosynthesis protein"</title>
				<polygon class="PF04240" points="497,40 507,28 515,28 515,52 507,52" stroke-linejoin="round" width="21" height="24" fill="rgb(65,214,190)" stroke="rgb(52,171,152)" stroke-width="1" opacity="0.75" />
			</g>
		</g>
		<g>
			<title> (MDEOCCLA_01790)
hypothetical protein</title>
			<polygon class=" (MDEOCCLA_01790)
hypothetical protein" points="523,40 539,10 539,70" fill="rgb(255,255,255)" fill-opacity="1.0" stroke="rgb(0,0,0)" stroke-width="2"  />
			<g>
				<title>DoxX (PF07681)
"DoxX"</title>
				<polygon class="PF07681" points="527,38 533,28 537,28 537,52 533,52 527,42" stroke-linejoin="round" width="10" height="24" fill="rgb(93,188,216)" stroke="rgb(74,150,172)" stroke-width="1" opacity="0.75" />
			</g>
		</g>
		<g>
			<title> (MDEOCCLA_01791)
hypothetical protein</title>
			<polygon class=" (MDEOCCLA_01791)
hypothetical protein" points="557,10 564,40 557,70" fill="rgb(255,255,255)" fill-opacity="1.0" stroke="rgb(0,0,0)" stroke-width="2"  />
			<g>
				<title>DUF1659 (PF07872)
"Protein of unknown function (DUF1659)"</title>
				<polygon class="PF07872" points="557,28 557,28 561,39 561,41 557,52 557,52" stroke-linejoin="round" width="4" height="24" fill="rgb(172,48,195)" stroke="rgb(137,38,156)" stroke-width="1" opacity="0.75" />
			</g>
		</g>
		<g>
			<title> (MDEOCCLA_01792)
hypothetical protein</title>
			<polygon class=" (MDEOCCLA_01792)
hypothetical protein" points="565,10 572,40 565,70" fill="rgb(255,255,255)" fill-opacity="1.0" stroke="rgb(0,0,0)" stroke-width="2"  />
			<g>
				<title>DUF2922 (PF11148)
"Protein of unknown function (DUF2922)"</title>
				<polygon class="PF11148" points="565,28 565,28 569,40 565,52 565,52" stroke-linejoin="round" width="6" height="24" fill="rgb(196,220,80)" stroke="rgb(156,176,64)" stroke-width="1" opacity="0.75" />
			</g>
		</g>
		<g>
			<title> (MDEOCCLA_01793)
IS4 family transposase ISHaha1</title>
			<polygon class=" (MDEOCCLA_01793)
IS4 family transposase ISHaha1" points="592,25 606,25 606,10 636,40 606,70 606,55 592,55" fill="rgb(255,255,255)" fill-opacity="1.0" stroke="rgb(0,0,0)" stroke-width="2"  />
			<g>
				<title>DDE_Tnp_1 (PF01609)
"Transposase DDE domain"</title>
				<polygon class="PF01609" points="603,28 620,28 628,36 628,44 620,52 603,52" stroke-linejoin="round" width="25" height="24" fill="rgb(229,102,99)" stroke="rgb(183,81,79)" stroke-width="1" opacity="0.75" />
			</g>
		</g>
		<g>
			<title> (MDEOCCLA_01794)
hypothetical protein</title>
			<polygon class=" (MDEOCCLA_01794)
hypothetical protein" points="653,10 657,40 653,70" fill="rgb(255,255,255)" fill-opacity="1.0" stroke="rgb(0,0,0)" stroke-width="2"  />
			<g>
				<title>YvrJ (PF12841)
"YvrJ protein family"</title>
				<polygon class="PF12841" points="653,29 654,40 653,51" stroke-linejoin="round" width="3" height="24" fill="rgb(207,53,76)" stroke="rgb(165,42,60)" stroke-width="1" opacity="0.75" />
			</g>
		</g>
		<g>
			<title>sipT (MDEOCCLA_01795)
Signal peptidase I T</title>
			<polygon class="sipT (MDEOCCLA_01795)
Signal peptidase I T" points="660,40 677,10 677,70" fill="rgb(255,255,255)" fill-opacity="1.0" stroke="rgb(0,0,0)" stroke-width="2"  />
			<g>
				<title>Peptidase_S24 (PF00717)
"Peptidase S24-like"</title>
				<polygon class="PF00717" points="667,33 670,28 673,28 673,52 670,52 667,47" stroke-linejoin="round" width="6" height="24" fill="rgb(180,76,105)" stroke="rgb(144,60,83)" stroke-width="1" opacity="0.75" />
			</g>
		</g>
		<g>
			<title> (MDEOCCLA_01796)
hypothetical protein</title>
			<polygon class=" (MDEOCCLA_01796)
hypothetical protein" points="686,10 691,40 686,70" fill="rgb(255,255,255)" fill-opacity="1.0" stroke="rgb(0,0,0)" stroke-width="2"  />
			<g>
				<title>SpoOE-like (PF09388)
"Spo0E like sporulation regulatory protein"</title>
				<polygon class="PF09388" points="687,33 688,40 687,47" stroke-linejoin="round" width="4" height="24" fill="rgb(188,111,63)" stroke="rgb(150,88,50)" stroke-width="1" opacity="0.75" />
			</g>
		</g>
	</g>
</svg>
