<svg version="1.1" baseProfile="full" xmlns="http://www.w3.org/2000/svg" width="485.0" height="80">
	<g>
		<line x1="10" y1="40.0" x2="475.0" y2="40.0" style="stroke:rgb(70,70,70); stroke-width:3 "/>
		<g>
			<title> (KKANDCCO_01190)
hypothetical protein</title>
			<polygon class=" (KKANDCCO_01190)
hypothetical protein" points="28,40 44,10 44,70" fill="rgb(255,255,255)" fill-opacity="1.0" stroke="rgb(0,0,0)" stroke-width="2"  />
		</g>
		<g>
			<title> (KKANDCCO_01191)
hypothetical protein</title>
			<polygon class=" (KKANDCCO_01191)
hypothetical protein" points="46,40 61,10 61,70" fill="rgb(255,255,255)" fill-opacity="1.0" stroke="rgb(0,0,0)" stroke-width="2"  />
		</g>
		<g>
			<title> (KKANDCCO_01192)
hypothetical protein</title>
			<polygon class=" (KKANDCCO_01192)
hypothetical protein" points="71,10 92,40 71,70" fill="rgb(255,255,255)" fill-opacity="1.0" stroke="rgb(0,0,0)" stroke-width="2"  />
			<g>
				<title>EF-G-binding_N (PF07299)
"Elongation factor G-binding protein, N-terminal"</title>
				<rect class="PF07299" x="71" y="28" stroke-linejoin="round" width="8" height="24" fill="rgb(210,121,70)" stroke="rgb(168,96,56)" stroke-width="1" opacity="0.75" />
			</g>
			<g>
				<title>FBP_C (PF16571)
"FBP C-terminal treble-clef zinc-finger"</title>
				<polygon class="PF16571" points="80,28 80,28 88,40 80,52 80,52" stroke-linejoin="round" width="11" height="24" fill="rgb(216,87,207)" stroke="rgb(172,69,165)" stroke-width="1" opacity="0.75" />
			</g>
		</g>
		<g>
			<title>sbnH (KKANDCCO_01193)
2-[(L-alanin-3-ylcarbamoyl)methyl]-2- hydroxybutanedioate decarboxylase</title>
			<polygon class="sbnH (KKANDCCO_01193)
2-[(L-alanin-3-ylcarbamoyl)methyl]-2- hydroxybutanedioate decarboxylase" points="134,25 124,25 124,10 94,40 124,70 124,55 134,55" fill="rgb(255,255,255)" fill-opacity="1.0" stroke="rgb(0,0,0)" stroke-width="2"  />
			<g>
				<title>Orn_Arg_deC_N (PF02784)
"Pyridoxal-dependent decarboxylase, pyridoxal binding domain"</title>
				<polygon class="PF02784" points="106,32 110,28 130,28 130,52 110,52 106,48" stroke-linejoin="round" width="24" height="24" fill="rgb(106,204,212)" stroke="rgb(84,163,169)" stroke-width="1" opacity="0.75" />
			</g>
		</g>
		<g>
			<title>entS (KKANDCCO_01194)
Enterobactin exporter EntS</title>
			<polygon class="entS (KKANDCCO_01194)
Enterobactin exporter EntS" points="176,25 165,25 165,10 135,40 165,70 165,55 176,55" fill="rgb(255,255,255)" fill-opacity="1.0" stroke="rgb(0,0,0)" stroke-width="2"  />
			<g>
				<title>MFS_3 (PF05977)
"Transmembrane secretion effector"</title>
				<polygon class="PF05977" points="139,40 151,28 174,28 174,52 151,52" stroke-linejoin="round" width="39" height="24" fill="rgb(80,62,217)" stroke="rgb(64,49,173)" stroke-width="1" opacity="0.75" />
			</g>
		</g>
		<g>
			<title> (KKANDCCO_01195)
hypothetical protein</title>
			<polygon class=" (KKANDCCO_01195)
hypothetical protein" points="243,25 206,25 206,10 176,40 206,70 206,55 243,55" fill="rgb(255,255,255)" fill-opacity="1.0" stroke="rgb(0,0,0)" stroke-width="2"  />
			<g>
				<title>FhuF (PF06276)
"Ferric iron reductase FhuF-like transporter"</title>
				<polygon class="PF06276" points="180,40 192,28 193,28 193,52 192,52" stroke-linejoin="round" width="16" height="24" fill="rgb(76,151,221)" stroke="rgb(60,120,176)" stroke-width="1" opacity="0.75" />
			</g>
			<g>
				<title>IucA_IucC (PF04183)
"IucA / IucC family"</title>
				<rect class="PF04183" x="197" y="28" stroke-linejoin="round" width="23" height="24" fill="rgb(221,104,121)" stroke="rgb(176,83,96)" stroke-width="1" opacity="0.75" />
			</g>
		</g>
		<g>
			<title> (KKANDCCO_01196)
hypothetical protein</title>
			<polygon class=" (KKANDCCO_01196)
hypothetical protein" points="307,25 273,25 273,10 243,40 273,70 273,55 307,55" fill="rgb(255,255,255)" fill-opacity="1.0" stroke="rgb(0,0,0)" stroke-width="2"  />
			<g>
				<title>FhuF (PF06276)
"Ferric iron reductase FhuF-like transporter"</title>
				<polygon class="PF06276" points="247,40 259,28 261,28 261,52 259,52" stroke-linejoin="round" width="16" height="24" fill="rgb(76,151,221)" stroke="rgb(60,120,176)" stroke-width="1" opacity="0.75" />
			</g>
			<g>
				<title>IucA_IucC (PF04183)
"IucA / IucC family"</title>
				<rect class="PF04183" x="264" y="28" stroke-linejoin="round" width="24" height="24" fill="rgb(221,104,121)" stroke="rgb(176,83,96)" stroke-width="1" opacity="0.75" />
			</g>
		</g>
		<g>
			<title> (KKANDCCO_01197)
hypothetical protein</title>
			<polygon class=" (KKANDCCO_01197)
hypothetical protein" points="318,10 332,40 318,70" fill="rgb(255,255,255)" fill-opacity="1.0" stroke="rgb(0,0,0)" stroke-width="2"  />
			<g>
				<title>RDD (PF06271)
"RDD family"</title>
				<polygon class="PF06271" points="319,28 323,28 329,40 323,52 319,52" stroke-linejoin="round" width="12" height="24" fill="rgb(75,173,207)" stroke="rgb(60,138,165)" stroke-width="1" opacity="0.75" />
			</g>
		</g>
		<g>
			<title>azoR2 (KKANDCCO_01198)
FMN-dependent NADH-azoreductase 2</title>
			<polygon class="azoR2 (KKANDCCO_01198)
FMN-dependent NADH-azoreductase 2" points="334,40 357,10 357,70" fill="rgb(255,255,255)" fill-opacity="1.0" stroke="rgb(0,0,0)" stroke-width="2"  />
			<g>
				<title>Flavodoxin_2 (PF02525)
"Flavodoxin-like fold"</title>
				<polygon class="PF02525" points="338,40 347,28 354,28 354,52 347,52" stroke-linejoin="round" width="20" height="24" fill="rgb(159,188,70)" stroke="rgb(127,150,56)" stroke-width="1" opacity="0.75" />
			</g>
		</g>
		<g>
			<title>yfhA (KKANDCCO_01199)
putative siderophore transport system permease protein YfhA</title>
			<polygon class="yfhA (KKANDCCO_01199)
putative siderophore transport system permease protein YfhA" points="416,25 411,25 411,10 381,40 411,70 411,55 416,55" fill="rgb(255,255,255)" fill-opacity="1.0" stroke="rgb(0,0,0)" stroke-width="2"  />
			<g>
				<title>FecCD (PF01032)
"FecCD transport family"</title>
				<polygon class="PF01032" points="385,40 397,28 412,28 412,52 397,52" stroke-linejoin="round" width="31" height="24" fill="rgb(210,177,70)" stroke="rgb(168,141,56)" stroke-width="1" opacity="0.75" />
			</g>
		</g>
		<g>
			<title>yfiZ (KKANDCCO_01200)
putative siderophore transport system permease protein YfiZ</title>
			<polygon class="yfiZ (KKANDCCO_01200)
putative siderophore transport system permease protein YfiZ" points="450,25 447,25 447,10 417,40 447,70 447,55 450,55" fill="rgb(255,255,255)" fill-opacity="1.0" stroke="rgb(0,0,0)" stroke-width="2"  />
			<g>
				<title>FecCD (PF01032)
"FecCD transport family"</title>
				<polygon class="PF01032" points="421,40 433,28 448,28 448,52 433,52" stroke-linejoin="round" width="31" height="24" fill="rgb(210,177,70)" stroke="rgb(168,141,56)" stroke-width="1" opacity="0.75" />
			</g>
		</g>
	</g>
</svg>
