<svg version="1.1" baseProfile="full" xmlns="http://www.w3.org/2000/svg" width="748.0666666666667" height="80">
	<g>
		<line x1="10" y1="40.0" x2="738.0666666666667" y2="40.0" style="stroke:rgb(70,70,70); stroke-width:3 "/>
		<g>
			<title> (FGNEMNIM_00850)
hypothetical protein</title>
			<polygon class=" (FGNEMNIM_00850)
hypothetical protein" points="37,40 52,10 52,70" fill="rgb(255,255,255)" fill-opacity="1.0" stroke="rgb(0,0,0)" stroke-width="2"  />
			<g>
				<title>Cass2 (PF14526)
"Integron-associated effector binding protein"</title>
				<polygon class="PF14526" points="40,40 46,28 52,28 52,52 46,52" stroke-linejoin="round" width="15" height="24" fill="rgb(57,73,185)" stroke="rgb(45,58,148)" stroke-width="1" opacity="0.75" />
			</g>
		</g>
		<g>
			<title> (FGNEMNIM_00851)
hypothetical protein</title>
			<polygon class=" (FGNEMNIM_00851)
hypothetical protein" points="103,25 86,25 86,10 56,40 86,70 86,55 103,55" fill="rgb(255,255,255)" fill-opacity="1.0" stroke="rgb(0,0,0)" stroke-width="2"  />
			<g>
				<title>Glyco_tranf_2_3 (PF13641)
"Glycosyltransferase like family 2"</title>
				<polygon class="PF13641" points="70,30 72,28 96,28 96,52 72,52 70,50" stroke-linejoin="round" width="26" height="24" fill="rgb(140,74,190)" stroke="rgb(111,59,152)" stroke-width="1" opacity="0.75" />
			</g>
		</g>
		<g>
			<title> (FGNEMNIM_00852)
hypothetical protein</title>
			<polygon class=" (FGNEMNIM_00852)
hypothetical protein" points="138,25 133,25 133,10 103,40 133,70 133,55 138,55" fill="rgb(255,255,255)" fill-opacity="1.0" stroke="rgb(0,0,0)" stroke-width="2"  />
		</g>
		<g>
			<title> (FGNEMNIM_00853)
hypothetical protein</title>
			<polygon class=" (FGNEMNIM_00853)
hypothetical protein" points="145,40 157,10 157,70" fill="rgb(255,255,255)" fill-opacity="1.0" stroke="rgb(0,0,0)" stroke-width="2"  />
		</g>
		<g>
			<title> (FGNEMNIM_00854)
hypothetical protein</title>
			<polygon class=" (FGNEMNIM_00854)
hypothetical protein" points="165,40 193,10 193,70" fill="rgb(255,255,255)" fill-opacity="1.0" stroke="rgb(0,0,0)" stroke-width="2"  />
			<g>
				<title>Cupin_2 (PF07883)
"Cupin domain"</title>
				<polygon class="PF07883" points="169,40 174,35 174,45" stroke-linejoin="round" width="7" height="24" fill="rgb(211,192,74)" stroke="rgb(168,153,59)" stroke-width="1" opacity="0.75" />
			</g>
		</g>
		<g>
			<title> (FGNEMNIM_00855)
hypothetical protein</title>
			<polygon class=" (FGNEMNIM_00855)
hypothetical protein" points="198,40 213,10 213,70" fill="rgb(255,255,255)" fill-opacity="1.0" stroke="rgb(0,0,0)" stroke-width="2"  />
			<g>
				<title>Polyketide_cyc2 (PF10604)
"Polyketide cyclase / dehydrase and lipid transport"</title>
				<polygon class="PF10604" points="201,40 207,28 212,28 212,52 207,52" stroke-linejoin="round" width="14" height="24" fill="rgb(105,204,74)" stroke="rgb(84,163,59)" stroke-width="1" opacity="0.75" />
			</g>
		</g>
		<g>
			<title> (FGNEMNIM_00856)
hypothetical protein</title>
			<polygon class=" (FGNEMNIM_00856)
hypothetical protein" points="213,40 224,10 224,70" fill="rgb(255,255,255)" fill-opacity="1.0" stroke="rgb(0,0,0)" stroke-width="2"  />
			<g>
				<title>MerR_1 (PF13411)
"MerR HTH family regulatory protein"</title>
				<polygon class="PF13411" points="217,37 221,28 224,28 224,52 221,52 217,43" stroke-linejoin="round" width="7" height="24" fill="rgb(100,202,107)" stroke="rgb(80,161,85)" stroke-width="1" opacity="0.75" />
			</g>
		</g>
		<g>
			<title> (FGNEMNIM_00857)
hypothetical protein</title>
			<polygon class=" (FGNEMNIM_00857)
hypothetical protein" points="227,40 242,10 242,70" fill="rgb(255,255,255)" fill-opacity="1.0" stroke="rgb(0,0,0)" stroke-width="2"  />
			<g>
				<title>Cass2 (PF14526)
"Integron-associated effector binding protein"</title>
				<polygon class="PF14526" points="230,40 236,28 241,28 241,52 236,52" stroke-linejoin="round" width="14" height="24" fill="rgb(57,73,185)" stroke="rgb(45,58,148)" stroke-width="1" opacity="0.75" />
			</g>
		</g>
		<g>
			<title> (FGNEMNIM_00858)
hypothetical protein</title>
			<polygon class=" (FGNEMNIM_00858)
hypothetical protein" points="243,10 255,40 243,70" fill="rgb(255,255,255)" fill-opacity="1.0" stroke="rgb(0,0,0)" stroke-width="2"  />
			<g>
				<title>Glyoxalase (PF00903)
"Glyoxalase/Bleomycin resistance protein/Dioxygenase superfamily"</title>
				<polygon class="PF00903" points="243,28 246,28 251,40 246,52 243,52" stroke-linejoin="round" width="10" height="24" fill="rgb(50,162,189)" stroke="rgb(40,129,151)" stroke-width="1" opacity="0.75" />
			</g>
		</g>
		<g>
			<title> (FGNEMNIM_00859)
hypothetical protein</title>
			<polygon class=" (FGNEMNIM_00859)
hypothetical protein" points="265,40 280,10 280,70" fill="rgb(255,255,255)" fill-opacity="1.0" stroke="rgb(0,0,0)" stroke-width="2"  />
			<g>
				<title>Acetyltransf_1 (PF00583)
"Acetyltransferase (GNAT) family"</title>
				<polygon class="PF00583" points="268,40 274,28 278,28 278,52 274,52" stroke-linejoin="round" width="12" height="24" fill="rgb(121,183,50)" stroke="rgb(96,146,39)" stroke-width="1" opacity="0.75" />
			</g>
		</g>
		<g>
			<title> (FGNEMNIM_00860)
hypothetical protein</title>
			<polygon class=" (FGNEMNIM_00860)
hypothetical protein" points="280,40 290,10 290,70" fill="rgb(255,255,255)" fill-opacity="1.0" stroke="rgb(0,0,0)" stroke-width="2"  />
		</g>
		<g>
			<title> (FGNEMNIM_00861)
hypothetical protein</title>
			<polygon class=" (FGNEMNIM_00861)
hypothetical protein" points="291,40 297,10 297,70" fill="rgb(255,255,255)" fill-opacity="1.0" stroke="rgb(0,0,0)" stroke-width="2"  />
		</g>
		<g>
			<title> (FGNEMNIM_00862)
hypothetical protein</title>
			<polygon class=" (FGNEMNIM_00862)
hypothetical protein" points="297,40 311,10 311,70" fill="rgb(255,255,255)" fill-opacity="1.0" stroke="rgb(0,0,0)" stroke-width="2"  />
			<g>
				<title>DUF4871 (PF16167)
"Domain of unknown function (DUF4871)"</title>
				<polygon class="PF16167" points="300,40 306,28 308,28 308,52 306,52" stroke-linejoin="round" width="11" height="24" fill="rgb(198,98,115)" stroke="rgb(158,78,91)" stroke-width="1" opacity="0.75" />
			</g>
		</g>
		<g>
			<title>resA_3 (FGNEMNIM_00863)
Thiol-disulfide oxidoreductase ResA</title>
			<polygon class="resA_3 (FGNEMNIM_00863)
Thiol-disulfide oxidoreductase ResA" points="322,10 338,40 322,70" fill="rgb(255,255,255)" fill-opacity="1.0" stroke="rgb(0,0,0)" stroke-width="2"  />
			<g>
				<title>AhpC-TSA (PF00578)
"AhpC/TSA family"</title>
				<polygon class="PF00578" points="322,28 328,28 335,40 335,40 328,52 322,52" stroke-linejoin="round" width="13" height="24" fill="rgb(166,71,190)" stroke="rgb(132,56,152)" stroke-width="1" opacity="0.75" />
			</g>
		</g>
		<g>
			<title>sqhC (FGNEMNIM_00864)
Sporulenol synthase</title>
			<polygon class="sqhC (FGNEMNIM_00864)
Sporulenol synthase" points="343,25 374,25 374,10 404,40 374,70 374,55 343,55" fill="rgb(255,255,255)" fill-opacity="1.0" stroke="rgb(0,0,0)" stroke-width="2"  />
			<g>
				<title>SQHop_cyclase_N (PF13249)
"Squalene-hopene cyclase N-terminal domain"</title>
				<rect class="PF13249" x="343" y="28" stroke-linejoin="round" width="28" height="24" fill="rgb(88,190,89)" stroke="rgb(70,152,71)" stroke-width="1" opacity="0.75" />
			</g>
			<g>
				<title>SQHop_cyclase_C (PF13243)
"Squalene-hopene cyclase C-terminal domain"</title>
				<polygon class="PF13243" points="372,28 388,28 400,40 388,52 372,52" stroke-linejoin="round" width="31" height="24" fill="rgb(191,58,201)" stroke="rgb(152,46,160)" stroke-width="1" opacity="0.75" />
			</g>
		</g>
		<g>
			<title> (FGNEMNIM_00865)
hypothetical protein</title>
			<polygon class=" (FGNEMNIM_00865)
hypothetical protein" points="409,10 416,40 409,70" fill="rgb(255,255,255)" fill-opacity="1.0" stroke="rgb(0,0,0)" stroke-width="2"  />
			<g>
				<title>DUF2642 (PF10842)
"Protein of unknown function (DUF2642)"</title>
				<polygon class="PF10842" points="409,28 410,28 413,40 410,52 409,52" stroke-linejoin="round" width="6" height="24" fill="rgb(204,85,172)" stroke="rgb(163,68,137)" stroke-width="1" opacity="0.75" />
			</g>
		</g>
		<g>
			<title> (FGNEMNIM_00866)
hypothetical protein</title>
			<polygon class=" (FGNEMNIM_00866)
hypothetical protein" points="417,10 446,40 417,70" fill="rgb(255,255,255)" fill-opacity="1.0" stroke="rgb(0,0,0)" stroke-width="2"  />
			<g>
				<title>Mn_catalase (PF05067)
"Manganese containing catalase"</title>
				<polygon class="PF05067" points="417,28 430,28 442,40 430,52 417,52" stroke-linejoin="round" width="29" height="24" fill="rgb(59,189,89)" stroke="rgb(47,151,71)" stroke-width="1" opacity="0.75" />
			</g>
		</g>
		<g>
			<title> (FGNEMNIM_00867)
hypothetical protein</title>
			<polygon class=" (FGNEMNIM_00867)
hypothetical protein" points="448,40 463,10 463,70" fill="rgb(255,255,255)" fill-opacity="1.0" stroke="rgb(0,0,0)" stroke-width="2"  />
			<g>
				<title>DMT_YdcZ (PF04657)
"Putative inner membrane exporter, YdcZ"</title>
				<polygon class="PF04657" points="451,40 457,28 463,28 463,52 457,52" stroke-linejoin="round" width="13" height="24" fill="rgb(63,139,178)" stroke="rgb(50,111,142)" stroke-width="1" opacity="0.75" />
			</g>
		</g>
		<g>
			<title>yeiL (FGNEMNIM_00868)
Regulatory protein YeiL</title>
			<polygon class="yeiL (FGNEMNIM_00868)
Regulatory protein YeiL" points="464,40 487,10 487,70" fill="rgb(255,255,255)" fill-opacity="1.0" stroke="rgb(0,0,0)" stroke-width="2"  />
			<g>
				<title>HTH_Crp_2 (PF13545)
"Crp-like helix-turn-helix domain"</title>
				<polygon class="PF13545" points="468,40 471,36 471,44" stroke-linejoin="round" width="7" height="24" fill="rgb(87,137,202)" stroke="rgb(69,109,161)" stroke-width="1" opacity="0.75" />
			</g>
			<g>
				<title>cNMP_binding (PF00027)
"Cyclic nucleotide-binding domain"</title>
				<polygon class="PF00027" points="475,31 477,28 483,28 483,52 477,52 475,49" stroke-linejoin="round" width="8" height="24" fill="rgb(138,95,204)" stroke="rgb(110,76,163)" stroke-width="1" opacity="0.75" />
			</g>
		</g>
		<g>
			<title> (FGNEMNIM_00869)
hypothetical protein</title>
			<polygon class=" (FGNEMNIM_00869)
hypothetical protein" points="488,40 502,10 502,70" fill="rgb(255,255,255)" fill-opacity="1.0" stroke="rgb(0,0,0)" stroke-width="2"  />
			<g>
				<title>DMT_YdcZ (PF04657)
"Putative inner membrane exporter, YdcZ"</title>
				<polygon class="PF04657" points="491,40 497,28 501,28 501,52 497,52" stroke-linejoin="round" width="13" height="24" fill="rgb(63,139,178)" stroke="rgb(50,111,142)" stroke-width="1" opacity="0.75" />
			</g>
		</g>
		<g>
			<title>nhaP2_1 (FGNEMNIM_00870)
K(+)/H(+) antiporter NhaP2</title>
			<polygon class="nhaP2_1 (FGNEMNIM_00870)
K(+)/H(+) antiporter NhaP2" points="563,25 543,25 543,10 513,40 543,70 543,55 563,55" fill="rgb(255,255,255)" fill-opacity="1.0" stroke="rgb(0,0,0)" stroke-width="2"  />
			<g>
				<title>TrkA_C (PF02080)
"TrkA-C domain"</title>
				<polygon class="PF02080" points="517,40 520,37 520,43" stroke-linejoin="round" width="6" height="24" fill="rgb(76,186,211)" stroke="rgb(60,148,168)" stroke-width="1" opacity="0.75" />
			</g>
			<g>
				<title>Na_H_Exchanger (PF00999)
"Sodium/hydrogen exchanger family"</title>
				<polygon class="PF00999" points="524,33 529,28 562,28 562,52 529,52 524,47" stroke-linejoin="round" width="38" height="24" fill="rgb(229,67,191)" stroke="rgb(183,53,152)" stroke-width="1" opacity="0.75" />
			</g>
		</g>
		<g>
			<title>trxB_1 (FGNEMNIM_00871)
Thioredoxin reductase</title>
			<polygon class="trxB_1 (FGNEMNIM_00871)
Thioredoxin reductase" points="569,40 598,10 598,70" fill="rgb(255,255,255)" fill-opacity="1.0" stroke="rgb(0,0,0)" stroke-width="2"  />
			<g>
				<title>Pyr_redox_2 (PF07992)
"Pyridine nucleotide-disulphide oxidoreductase"</title>
				<polygon class="PF07992" points="573,40 585,28 597,28 597,52 585,52" stroke-linejoin="round" width="27" height="24" fill="rgb(83,223,167)" stroke="rgb(66,178,133)" stroke-width="1" opacity="0.75" />
			</g>
		</g>
		<g>
			<title>ybiT_2 (FGNEMNIM_00872)
putative ABC transporter ATP-binding protein YbiT</title>
			<polygon class="ybiT_2 (FGNEMNIM_00872)
putative ABC transporter ATP-binding protein YbiT" points="602,25 623,25 623,10 653,40 623,70 623,55 602,55" fill="rgb(255,255,255)" fill-opacity="1.0" stroke="rgb(0,0,0)" stroke-width="2"  />
			<g>
				<title>ABC_tran (PF00005)
"ABC transporter"</title>
				<rect class="PF00005" x="603" y="28" stroke-linejoin="round" width="17" height="24" fill="rgb(129,201,63)" stroke="rgb(103,160,50)" stroke-width="1" opacity="0.75" />
			</g>
			<g>
				<title>ABC_tran_Xtn (PF12848)
"ABC transporter"</title>
				<rect class="PF12848" x="625" y="28" stroke-linejoin="round" width="8" height="24" fill="rgb(54,177,199)" stroke="rgb(43,141,159)" stroke-width="1" opacity="0.75" />
			</g>
			<g>
				<title>ABC_tran (PF00005)
"ABC transporter"</title>
				<polygon class="PF00005" points="636,28 637,28 648,39 648,41 637,52 636,52" stroke-linejoin="round" width="12" height="24" fill="rgb(129,201,63)" stroke="rgb(103,160,50)" stroke-width="1" opacity="0.75" />
			</g>
		</g>
		<g>
			<title> (FGNEMNIM_00873)
hypothetical protein</title>
			<polygon class=" (FGNEMNIM_00873)
hypothetical protein" points="659,10 680,40 659,70" fill="rgb(255,255,255)" fill-opacity="1.0" stroke="rgb(0,0,0)" stroke-width="2"  />
		</g>
		<g>
			<title>scrB_1 (FGNEMNIM_00874)
Sucrose-6-phosphate hydrolase</title>
			<polygon class="scrB_1 (FGNEMNIM_00874)
Sucrose-6-phosphate hydrolase" points="729,25 711,25 711,10 681,40 711,70 711,55 729,55" fill="rgb(255,255,255)" fill-opacity="1.0" stroke="rgb(0,0,0)" stroke-width="2"  />
			<g>
				<title>Glyco_hydro_32C (PF08244)
"Glycosyl hydrolases family 32 C terminal"</title>
				<polygon class="PF08244" points="685,40 695,30 695,50" stroke-linejoin="round" width="14" height="24" fill="rgb(209,64,201)" stroke="rgb(167,51,160)" stroke-width="1" opacity="0.75" />
			</g>
			<g>
				<title>Glyco_hydro_32N (PF00251)
"Glycosyl hydrolases family 32 N-terminal domain"</title>
				<polygon class="PF00251" points="695,30 697,28 725,28 725,52 697,52 695,50" stroke-linejoin="round" width="30" height="24" fill="rgb(108,183,84)" stroke="rgb(86,146,67)" stroke-width="1" opacity="0.75" />
			</g>
		</g>
	</g>
</svg>
