<svg version="1.1" baseProfile="full" xmlns="http://www.w3.org/2000/svg" width="950.3666666666667" height="80">
	<g>
		<line x1="10" y1="40.0" x2="940.3666666666667" y2="40.0" style="stroke:rgb(70,70,70); stroke-width:3 "/>
		<g>
			<title> (NDIJOPKD_00661)
hypothetical protein</title>
			<polygon class=" (NDIJOPKD_00661)
hypothetical protein" points="26,40 33,10 33,70" fill="rgb(255,255,255)" fill-opacity="1.0" stroke="rgb(0,0,0)" stroke-width="2"  />
			<g>
				<title>GNAT_acetyltran (PF12746)
"GNAT acetyltransferase"</title>
				<polygon class="PF12746" points="29,40 32,28 33,28 33,52 32,52" stroke-linejoin="round" width="7" height="24" fill="rgb(199,158,93)" stroke="rgb(159,126,74)" stroke-width="1" opacity="0.75" />
			</g>
		</g>
		<g>
			<title> (NDIJOPKD_00662)
hypothetical protein</title>
			<polygon class=" (NDIJOPKD_00662)
hypothetical protein" points="39,40 53,10 53,70" fill="rgb(255,255,255)" fill-opacity="1.0" stroke="rgb(0,0,0)" stroke-width="2"  />
			<g>
				<title>GNAT_acetyltran (PF12746)
"GNAT acetyltransferase"</title>
				<polygon class="PF12746" points="42,40 48,28 51,28 51,52 48,52" stroke-linejoin="round" width="12" height="24" fill="rgb(199,158,93)" stroke="rgb(159,126,74)" stroke-width="1" opacity="0.75" />
			</g>
		</g>
		<g>
			<title> (NDIJOPKD_00663)
hypothetical protein</title>
			<polygon class=" (NDIJOPKD_00663)
hypothetical protein" points="58,40 75,10 75,70" fill="rgb(255,255,255)" fill-opacity="1.0" stroke="rgb(0,0,0)" stroke-width="2"  />
			<g>
				<title>DinB (PF05163)
"DinB family"</title>
				<polygon class="PF05163" points="61,40 68,28 75,28 75,52 68,52" stroke-linejoin="round" width="17" height="24" fill="rgb(83,139,192)" stroke="rgb(66,111,153)" stroke-width="1" opacity="0.75" />
			</g>
		</g>
		<g>
			<title>mfpA (NDIJOPKD_00664)
Pentapeptide repeat protein MfpA</title>
			<polygon class="mfpA (NDIJOPKD_00664)
Pentapeptide repeat protein MfpA" points="94,40 115,10 115,70" fill="rgb(255,255,255)" fill-opacity="1.0" stroke="rgb(0,0,0)" stroke-width="2"  />
			<g>
				<title>Pentapeptide_4 (PF13599)
"Pentapeptide repeats (9 copies)"</title>
				<polygon class="PF13599" points="98,40 105,30 105,50" stroke-linejoin="round" width="8" height="24" fill="rgb(228,182,106)" stroke="rgb(182,145,84)" stroke-width="1" opacity="0.75" />
			</g>
			<g>
				<title>Pentapeptide (PF00805)
"Pentapeptide repeats (8 copies)"</title>
				<polygon class="PF00805" points="106,29 106,28 109,28 109,52 106,52 106,51" stroke-linejoin="round" width="3" height="24" fill="rgb(186,52,164)" stroke="rgb(148,41,131)" stroke-width="1" opacity="0.75" />
			</g>
		</g>
		<g>
			<title> (NDIJOPKD_00665)
hypothetical protein</title>
			<polygon class=" (NDIJOPKD_00665)
hypothetical protein" points="123,40 131,10 131,70" fill="rgb(255,255,255)" fill-opacity="1.0" stroke="rgb(0,0,0)" stroke-width="2"  />
		</g>
		<g>
			<title> (NDIJOPKD_00666)
hypothetical protein</title>
			<polygon class=" (NDIJOPKD_00666)
hypothetical protein" points="136,40 154,10 154,70" fill="rgb(255,255,255)" fill-opacity="1.0" stroke="rgb(0,0,0)" stroke-width="2"  />
			<g>
				<title>RibD_C (PF01872)
"RibD C-terminal domain"</title>
				<polygon class="PF01872" points="140,40 147,28 154,28 154,52 147,52" stroke-linejoin="round" width="16" height="24" fill="rgb(225,80,120)" stroke="rgb(180,64,95)" stroke-width="1" opacity="0.75" />
			</g>
		</g>
		<g>
			<title> (NDIJOPKD_00667)
hypothetical protein</title>
			<polygon class=" (NDIJOPKD_00667)
hypothetical protein" points="163,40 183,10 183,70" fill="rgb(255,255,255)" fill-opacity="1.0" stroke="rgb(0,0,0)" stroke-width="2"  />
			<g>
				<title>Flavin_Reduct (PF01613)
"Flavin reductase like domain"</title>
				<polygon class="PF01613" points="167,40 175,28 181,28 181,52 175,52" stroke-linejoin="round" width="17" height="24" fill="rgb(107,197,222)" stroke="rgb(85,157,177)" stroke-width="1" opacity="0.75" />
			</g>
		</g>
		<g>
			<title> (NDIJOPKD_00668)
hypothetical protein</title>
			<polygon class=" (NDIJOPKD_00668)
hypothetical protein" points="190,10 212,40 190,70" fill="rgb(255,255,255)" fill-opacity="1.0" stroke="rgb(0,0,0)" stroke-width="2"  />
			<g>
				<title>HTH_20 (PF12840)
"Helix-turn-helix domain"</title>
				<rect class="PF12840" x="190" y="28" stroke-linejoin="round" width="6" height="24" fill="rgb(157,225,93)" stroke="rgb(125,180,74)" stroke-width="1" opacity="0.75" />
			</g>
		</g>
		<g>
			<title> (NDIJOPKD_00669)
hypothetical protein</title>
			<polygon class=" (NDIJOPKD_00669)
hypothetical protein" points="217,40 225,10 225,70" fill="rgb(255,255,255)" fill-opacity="1.0" stroke="rgb(0,0,0)" stroke-width="2"  />
		</g>
		<g>
			<title> (NDIJOPKD_00670)
hypothetical protein</title>
			<polygon class=" (NDIJOPKD_00670)
hypothetical protein" points="249,25 249,25 249,10 279,40 249,70 249,55 249,55" fill="rgb(255,255,255)" fill-opacity="1.0" stroke="rgb(0,0,0)" stroke-width="2"  />
			<g>
				<title>HTH_3 (PF01381)
"Helix-turn-helix"</title>
				<rect class="PF01381" x="250" y="28" stroke-linejoin="round" width="5" height="24" fill="rgb(105,79,202)" stroke="rgb(83,63,161)" stroke-width="1" opacity="0.75" />
			</g>
			<g>
				<title>TPR_8 (PF13181)
"Tetratricopeptide repeat"</title>
				<polygon class="PF13181" points="269,34 272,37 272,43 269,46" stroke-linejoin="round" width="3" height="24" fill="rgb(182,172,47)" stroke="rgb(145,137,37)" stroke-width="1" opacity="0.75" />
			</g>
		</g>
		<g>
			<title>allorf_0702310_0702480 (allorf_0702310_0702480)</title>
			<polygon class="allorf_0702310_0702480 (allorf_0702310_0702480)" points="288,40 293,10 293,70" fill="rgb(255,255,255)" fill-opacity="1.0" stroke="rgb(0,0,0)" stroke-width="2"  />
		</g>
		<g>
			<title> (NDIJOPKD_00671)
hypothetical protein</title>
			<polygon class=" (NDIJOPKD_00671)
hypothetical protein" points="331,25 324,25 324,10 294,40 324,70 324,55 331,55" fill="rgb(255,255,255)" fill-opacity="1.0" stroke="rgb(0,0,0)" stroke-width="2"  />
			<g>
				<title>ADH_N (PF08240)
"Alcohol dehydrogenase GroES-like domain"</title>
				<rect class="PF08240" x="318" y="28" stroke-linejoin="round" width="7" height="24" fill="rgb(211,65,138)" stroke="rgb(168,51,110)" stroke-width="1" opacity="0.75" />
			</g>
		</g>
		<g>
			<title> (NDIJOPKD_00672)
hypothetical protein</title>
			<polygon class=" (NDIJOPKD_00672)
hypothetical protein" points="436,25 373,25 373,10 343,40 373,70 373,55 436,55" fill="rgb(255,255,255)" fill-opacity="1.0" stroke="rgb(0,0,0)" stroke-width="2"  />
			<g>
				<title>LANC_like (PF05147)
"Lanthionine synthetase C-like protein"</title>
				<polygon class="PF05147" points="347,40 359,28 375,28 375,52 359,52" stroke-linejoin="round" width="30" height="24" fill="rgb(129,182,79)" stroke="rgb(103,145,63)" stroke-width="1" opacity="0.75" />
			</g>
			<g>
				<title>DUF4135 (PF13575)
"Domain of unknown function (DUF4135)"</title>
				<rect class="PF13575" x="389" y="28" stroke-linejoin="round" width="37" height="24" fill="rgb(228,84,217)" stroke="rgb(182,67,173)" stroke-width="1" opacity="0.75" />
			</g>
		</g>
		<g>
			<title>lagD (NDIJOPKD_00673)
Lactococcin-G-processing and transport ATP-binding protein LagD</title>
			<polygon class="lagD (NDIJOPKD_00673)
Lactococcin-G-processing and transport ATP-binding protein LagD" points="508,25 466,25 466,10 436,40 466,70 466,55 508,55" fill="rgb(255,255,255)" fill-opacity="1.0" stroke="rgb(0,0,0)" stroke-width="2"  />
			<g>
				<title>ABC_tran (PF00005)
"ABC transporter"</title>
				<polygon class="PF00005" points="443,37 452,28 457,28 457,52 452,52 443,43" stroke-linejoin="round" width="14" height="24" fill="rgb(129,201,63)" stroke="rgb(103,160,50)" stroke-width="1" opacity="0.75" />
			</g>
			<g>
				<title>ABC_membrane (PF00664)
"ABC transporter transmembrane region"</title>
				<rect class="PF00664" x="464" y="28" stroke-linejoin="round" width="26" height="24" fill="rgb(149,226,73)" stroke="rgb(119,180,58)" stroke-width="1" opacity="0.75" />
			</g>
			<g>
				<title>Peptidase_C39 (PF03412)
"Peptidase C39 family"</title>
				<rect class="PF03412" x="494" y="28" stroke-linejoin="round" width="13" height="24" fill="rgb(214,226,77)" stroke="rgb(171,180,61)" stroke-width="1" opacity="0.75" />
			</g>
		</g>
		<g>
			<title> (NDIJOPKD_00674)
hypothetical protein</title>
			<polygon class=" (NDIJOPKD_00674)
hypothetical protein" points="606,25 539,25 539,10 509,40 539,70 539,55 606,55" fill="rgb(255,255,255)" fill-opacity="1.0" stroke="rgb(0,0,0)" stroke-width="2"  />
			<g>
				<title>LANC_like (PF05147)
"Lanthionine synthetase C-like protein"</title>
				<polygon class="PF05147" points="513,40 525,28 543,28 543,52 525,52" stroke-linejoin="round" width="34" height="24" fill="rgb(129,182,79)" stroke="rgb(103,145,63)" stroke-width="1" opacity="0.75" />
			</g>
			<g>
				<title>DUF4135 (PF13575)
"Domain of unknown function (DUF4135)"</title>
				<rect class="PF13575" x="556" y="28" stroke-linejoin="round" width="36" height="24" fill="rgb(228,84,217)" stroke="rgb(182,67,173)" stroke-width="1" opacity="0.75" />
			</g>
		</g>
		<g>
			<title> (NDIJOPKD_00675)
hypothetical protein</title>
			<polygon class=" (NDIJOPKD_00675)
hypothetical protein" points="607,40 613,10 613,70" fill="rgb(255,255,255)" fill-opacity="1.0" stroke="rgb(0,0,0)" stroke-width="2"  />
		</g>
		<g>
			<title>ltnA1 (NDIJOPKD_00676)
Lantibiotic lacticin 3147 A1</title>
			<polygon class="ltnA1 (NDIJOPKD_00676)
Lantibiotic lacticin 3147 A1" points="615,40 621,10 621,70" fill="rgb(255,255,255)" fill-opacity="1.0" stroke="rgb(0,0,0)" stroke-width="2"  />
		</g>
		<g>
			<title> (NDIJOPKD_00677)
hypothetical protein</title>
			<polygon class=" (NDIJOPKD_00677)
hypothetical protein" points="628,10 636,40 628,70" fill="rgb(255,255,255)" fill-opacity="1.0" stroke="rgb(0,0,0)" stroke-width="2"  />
			<g>
				<title>HTH_3 (PF01381)
"Helix-turn-helix"</title>
				<polygon class="PF01381" points="629,28 629,28 632,40 629,52 629,52" stroke-linejoin="round" width="5" height="24" fill="rgb(105,79,202)" stroke="rgb(83,63,161)" stroke-width="1" opacity="0.75" />
			</g>
		</g>
		<g>
			<title> (NDIJOPKD_00678)
hypothetical protein</title>
			<polygon class=" (NDIJOPKD_00678)
hypothetical protein" points="635,10 646,40 635,70" fill="rgb(255,255,255)" fill-opacity="1.0" stroke="rgb(0,0,0)" stroke-width="2"  />
		</g>
		<g>
			<title>btuD_2 (NDIJOPKD_00679)
Vitamin B12 import ATP-binding protein BtuD</title>
			<polygon class="btuD_2 (NDIJOPKD_00679)
Vitamin B12 import ATP-binding protein BtuD" points="648,10 677,40 648,70" fill="rgb(255,255,255)" fill-opacity="1.0" stroke="rgb(0,0,0)" stroke-width="2"  />
			<g>
				<title>ABC_tran (PF00005)
"ABC transporter"</title>
				<polygon class="PF00005" points="649,28 660,28 662,29 662,51 660,52 649,52" stroke-linejoin="round" width="13" height="24" fill="rgb(129,201,63)" stroke="rgb(103,160,50)" stroke-width="1" opacity="0.75" />
			</g>
		</g>
		<g>
			<title> (NDIJOPKD_00680)
hypothetical protein</title>
			<polygon class=" (NDIJOPKD_00680)
hypothetical protein" points="676,10 700,40 676,70" fill="rgb(255,255,255)" fill-opacity="1.0" stroke="rgb(0,0,0)" stroke-width="2"  />
		</g>
		<g>
			<title>safD_1 (NDIJOPKD_00681)
Sulfoacetaldehyde dehydrogenase</title>
			<polygon class="safD_1 (NDIJOPKD_00681)
Sulfoacetaldehyde dehydrogenase" points="757,25 739,25 739,10 709,40 739,70 739,55 757,55" fill="rgb(255,255,255)" fill-opacity="1.0" stroke="rgb(0,0,0)" stroke-width="2"  />
			<g>
				<title>Aldedh (PF00171)
"Aldehyde dehydrogenase family"</title>
				<polygon class="PF00171" points="713,40 725,28 754,28 754,52 725,52" stroke-linejoin="round" width="45" height="24" fill="rgb(105,213,139)" stroke="rgb(84,170,111)" stroke-width="1" opacity="0.75" />
			</g>
		</g>
		<g>
			<title>hom_2 (NDIJOPKD_00682)
Homoserine dehydrogenase</title>
			<polygon class="hom_2 (NDIJOPKD_00682)
Homoserine dehydrogenase" points="793,25 788,25 788,10 758,40 788,70 788,55 793,55" fill="rgb(255,255,255)" fill-opacity="1.0" stroke="rgb(0,0,0)" stroke-width="2"  />
			<g>
				<title>Homoserine_dh (PF00742)
"Homoserine dehydrogenase"</title>
				<polygon class="PF00742" points="762,40 774,28 776,28 776,52 774,52" stroke-linejoin="round" width="17" height="24" fill="rgb(219,100,144)" stroke="rgb(175,79,115)" stroke-width="1" opacity="0.75" />
			</g>
			<g>
				<title>NAD_binding_3 (PF03447)
"Homoserine dehydrogenase, NAD binding domain"</title>
				<rect class="PF03447" x="777" y="28" stroke-linejoin="round" width="14" height="24" fill="rgb(89,165,190)" stroke="rgb(71,131,152)" stroke-width="1" opacity="0.75" />
			</g>
		</g>
		<g>
			<title>scmP_1 (NDIJOPKD_00683)
N-acetylcysteine deacetylase</title>
			<polygon class="scmP_1 (NDIJOPKD_00683)
N-acetylcysteine deacetylase" points="833,25 822,25 822,10 792,40 822,70 822,55 833,55" fill="rgb(255,255,255)" fill-opacity="1.0" stroke="rgb(0,0,0)" stroke-width="2"  />
			<g>
				<title>Peptidase_M20 (PF01546)
"Peptidase family M20/M25/M40"</title>
				<polygon class="PF01546" points="796,40 808,28 825,28 825,52 808,52" stroke-linejoin="round" width="31" height="24" fill="rgb(88,213,108)" stroke="rgb(70,170,86)" stroke-width="1" opacity="0.75" />
			</g>
		</g>
		<g>
			<title>mgl_2 (NDIJOPKD_00684)
L-methionine gamma-lyase</title>
			<polygon class="mgl_2 (NDIJOPKD_00684)
L-methionine gamma-lyase" points="874,25 864,25 864,10 834,40 864,70 864,55 874,55" fill="rgb(255,255,255)" fill-opacity="1.0" stroke="rgb(0,0,0)" stroke-width="2"  />
			<g>
				<title>Cys_Met_Meta_PP (PF01053)
"Cys/Met metabolism PLP-dependent enzyme"</title>
				<polygon class="PF01053" points="838,40 850,28 873,28 873,52 850,52" stroke-linejoin="round" width="38" height="24" fill="rgb(142,222,85)" stroke="rgb(113,177,67)" stroke-width="1" opacity="0.75" />
			</g>
		</g>
		<g>
			<title>doeA_1 (NDIJOPKD_00685)
Ectoine hydrolase</title>
			<polygon class="doeA_1 (NDIJOPKD_00685)
Ectoine hydrolase" points="915,25 906,25 906,10 876,40 906,70 906,55 915,55" fill="rgb(255,255,255)" fill-opacity="1.0" stroke="rgb(0,0,0)" stroke-width="2"  />
			<g>
				<title>Peptidase_M24 (PF00557)
"Metallopeptidase family M24"</title>
				<polygon class="PF00557" points="880,40 892,28 898,28 898,52 892,52" stroke-linejoin="round" width="20" height="24" fill="rgb(217,177,88)" stroke="rgb(173,141,70)" stroke-width="1" opacity="0.75" />
			</g>
			<g>
				<title>Creatinase_N (PF01321)
"Creatinase/Prolidase N-terminal domain"</title>
				<rect class="PF01321" x="900" y="28" stroke-linejoin="round" width="14" height="24" fill="rgb(125,184,70)" stroke="rgb(100,147,56)" stroke-width="1" opacity="0.75" />
			</g>
		</g>
	</g>
</svg>
