<svg version="1.1" baseProfile="full" xmlns="http://www.w3.org/2000/svg" width="970.0666666666667" height="80">
	<g>
		<line x1="10" y1="40.0" x2="960.0666666666667" y2="40.0" style="stroke:rgb(70,70,70); stroke-width:3 "/>
		<g>
			<title> (KKANDCCO_00878)
Thermophilic serine proteinase</title>
			<polygon class=" (KKANDCCO_00878)
Thermophilic serine proteinase" points="27,25 37,25 37,10 67,40 37,70 37,55 27,55" fill="rgb(255,255,255)" fill-opacity="1.0" stroke="rgb(0,0,0)" stroke-width="2"  />
			<g>
				<title>Peptidase_S8 (PF00082)
"Subtilase family"</title>
				<polygon class="PF00082" points="42,28 50,28 62,40 50,52 42,52" stroke-linejoin="round" width="24" height="24" fill="rgb(193,159,94)" stroke="rgb(154,127,75)" stroke-width="1" opacity="0.75" />
			</g>
		</g>
		<g>
			<title>dacB_1 (KKANDCCO_00879)
D-alanyl-D-alanine carboxypeptidase DacB</title>
			<polygon class="dacB_1 (KKANDCCO_00879)
D-alanyl-D-alanine carboxypeptidase DacB" points="107,25 99,25 99,10 69,40 99,70 99,55 107,55" fill="rgb(255,255,255)" fill-opacity="1.0" stroke="rgb(0,0,0)" stroke-width="2"  />
			<g>
				<title>Peptidase_S11 (PF00768)
"D-alanyl-D-alanine carboxypeptidase"</title>
				<polygon class="PF00768" points="81,32 85,28 104,28 104,52 85,52 81,48" stroke-linejoin="round" width="23" height="24" fill="rgb(227,157,83)" stroke="rgb(181,125,66)" stroke-width="1" opacity="0.75" />
			</g>
		</g>
		<g>
			<title> (KKANDCCO_00880)
hypothetical protein</title>
			<polygon class=" (KKANDCCO_00880)
hypothetical protein" points="123,10 128,40 123,70" fill="rgb(255,255,255)" fill-opacity="1.0" stroke="rgb(0,0,0)" stroke-width="2"  />
		</g>
		<g>
			<title> (KKANDCCO_00881)
hypothetical protein</title>
			<polygon class=" (KKANDCCO_00881)
hypothetical protein" points="129,10 146,40 129,70" fill="rgb(255,255,255)" fill-opacity="1.0" stroke="rgb(0,0,0)" stroke-width="2"  />
			<g>
				<title>Acetyltransf_1 (PF00583)
"Acetyltransferase (GNAT) family"</title>
				<polygon class="PF00583" points="130,28 135,28 142,40 135,52 130,52" stroke-linejoin="round" width="13" height="24" fill="rgb(121,183,50)" stroke="rgb(96,146,39)" stroke-width="1" opacity="0.75" />
			</g>
		</g>
		<g>
			<title> (KKANDCCO_00882)
hypothetical protein</title>
			<polygon class=" (KKANDCCO_00882)
hypothetical protein" points="149,10 166,40 149,70" fill="rgb(255,255,255)" fill-opacity="1.0" stroke="rgb(0,0,0)" stroke-width="2"  />
			<g>
				<title>Acetyltransf_3 (PF13302)
"Acetyltransferase (GNAT) domain"</title>
				<polygon class="PF13302" points="149,28 155,28 163,40 163,40 155,52 149,52" stroke-linejoin="round" width="14" height="24" fill="rgb(105,146,215)" stroke="rgb(84,116,172)" stroke-width="1" opacity="0.75" />
			</g>
		</g>
		<g>
			<title>adhT (KKANDCCO_00883)
Alcohol dehydrogenase</title>
			<polygon class="adhT (KKANDCCO_00883)
Alcohol dehydrogenase" points="171,25 175,25 175,10 205,40 175,70 175,55 171,55" fill="rgb(255,255,255)" fill-opacity="1.0" stroke="rgb(0,0,0)" stroke-width="2"  />
			<g>
				<title>ADH_N (PF08240)
"Alcohol dehydrogenase GroES-like domain"</title>
				<rect class="PF08240" x="173" y="28" stroke-linejoin="round" width="11" height="24" fill="rgb(211,65,138)" stroke="rgb(168,51,110)" stroke-width="1" opacity="0.75" />
			</g>
			<g>
				<title>ADH_zinc_N (PF00107)
"Zinc-binding dehydrogenase"</title>
				<polygon class="PF00107" points="189,28 189,28 201,40 201,40 189,52 189,52" stroke-linejoin="round" width="12" height="24" fill="rgb(81,108,215)" stroke="rgb(64,86,172)" stroke-width="1" opacity="0.75" />
			</g>
		</g>
		<g>
			<title> (KKANDCCO_00884)
hypothetical protein</title>
			<polygon class=" (KKANDCCO_00884)
hypothetical protein" points="224,10 252,40 224,70" fill="rgb(255,255,255)" fill-opacity="1.0" stroke="rgb(0,0,0)" stroke-width="2"  />
		</g>
		<g>
			<title>kstR2_1 (KKANDCCO_00885)
HTH-type transcriptional repressor KstR2</title>
			<polygon class="kstR2_1 (KKANDCCO_00885)
HTH-type transcriptional repressor KstR2" points="280,10 301,40 280,70" fill="rgb(255,255,255)" fill-opacity="1.0" stroke="rgb(0,0,0)" stroke-width="2"  />
			<g>
				<title>TetR_N (PF00440)
"Bacterial regulatory proteins, tetR family"</title>
				<rect class="PF00440" x="280" y="28" stroke-linejoin="round" width="4" height="24" fill="rgb(73,212,190)" stroke="rgb(58,169,152)" stroke-width="1" opacity="0.75" />
			</g>
			<g>
				<title>TetR_C_24 (PF17932)
"Tetracyclin repressor-like, C-terminal domain"</title>
				<polygon class="PF17932" points="287,28 289,28 297,40 289,52 287,52" stroke-linejoin="round" width="11" height="24" fill="rgb(165,217,107)" stroke="rgb(132,173,85)" stroke-width="1" opacity="0.75" />
			</g>
		</g>
		<g>
			<title>bcd (KKANDCCO_00886)
Acyl-CoA dehydrogenase, short-chain specific</title>
			<polygon class="bcd (KKANDCCO_00886)
Acyl-CoA dehydrogenase, short-chain specific" points="304,25 312,25 312,10 342,40 312,70 312,55 304,55" fill="rgb(255,255,255)" fill-opacity="1.0" stroke="rgb(0,0,0)" stroke-width="2"  />
			<g>
				<title>Acyl-CoA_dh_N (PF02771)
"Acyl-CoA dehydrogenase, N-terminal domain"</title>
				<rect class="PF02771" x="304" y="28" stroke-linejoin="round" width="11" height="24" fill="rgb(105,135,218)" stroke="rgb(84,108,174)" stroke-width="1" opacity="0.75" />
			</g>
			<g>
				<title>Acyl-CoA_dh_M (PF02770)
"Acyl-CoA dehydrogenase, middle domain"</title>
				<rect class="PF02770" x="316" y="28" stroke-linejoin="round" width="9" height="24" fill="rgb(225,186,97)" stroke="rgb(180,148,77)" stroke-width="1" opacity="0.75" />
			</g>
			<g>
				<title>Acyl-CoA_dh_1 (PF00441)
"Acyl-CoA dehydrogenase, C-terminal domain"</title>
				<polygon class="PF00441" points="327,30 337,40 327,50" stroke-linejoin="round" width="14" height="24" fill="rgb(85,191,117)" stroke="rgb(68,152,93)" stroke-width="1" opacity="0.75" />
			</g>
		</g>
		<g>
			<title>fadD3 (KKANDCCO_00887)
3-[(3aS,4S,7aS)-7a-methyl-1, 5-dioxo-octahydro-1H-inden-4-yl]propanoyl:CoA ligase</title>
			<polygon class="fadD3 (KKANDCCO_00887)
3-[(3aS,4S,7aS)-7a-methyl-1, 5-dioxo-octahydro-1H-inden-4-yl]propanoyl:CoA ligase" points="343,25 367,25 367,10 397,40 367,70 367,55 343,55" fill="rgb(255,255,255)" fill-opacity="1.0" stroke="rgb(0,0,0)" stroke-width="2"  />
			<g>
				<title>AMP-binding (PF00501)
"AMP-binding enzyme"</title>
				<polygon class="PF00501" points="344,28 381,28 387,34 387,46 381,52 344,52" stroke-linejoin="round" width="43" height="24" fill="rgb(60,217,223)" stroke="rgb(48,173,178)" stroke-width="1" opacity="0.75" />
			</g>
			<g>
				<title>AMP-binding_C (PF13193)
"AMP-binding enzyme C-terminal domain"</title>
				<polygon class="PF13193" points="388,35 393,40 388,45" stroke-linejoin="round" width="7" height="24" fill="rgb(182,50,118)" stroke="rgb(145,39,94)" stroke-width="1" opacity="0.75" />
			</g>
		</g>
		<g>
			<title>accC_1 (KKANDCCO_00888)
Biotin carboxylase</title>
			<polygon class="accC_1 (KKANDCCO_00888)
Biotin carboxylase" points="398,25 413,25 413,10 443,40 413,70 413,55 398,55" fill="rgb(255,255,255)" fill-opacity="1.0" stroke="rgb(0,0,0)" stroke-width="2"  />
			<g>
				<title>Biotin_carb_N (PF00289)
"Biotin carboxylase, N-terminal domain"</title>
				<rect class="PF00289" x="398" y="28" stroke-linejoin="round" width="10" height="24" fill="rgb(59,114,187)" stroke="rgb(47,91,149)" stroke-width="1" opacity="0.75" />
			</g>
			<g>
				<title>CPSase_L_D2 (PF02786)
"Carbamoyl-phosphate synthase L chain, ATP binding domain"</title>
				<polygon class="PF02786" points="409,28 426,28 429,31 429,49 426,52 409,52" stroke-linejoin="round" width="20" height="24" fill="rgb(190,97,205)" stroke="rgb(151,77,164)" stroke-width="1" opacity="0.75" />
			</g>
			<g>
				<title>Biotin_carb_C (PF02785)
"Biotin carboxylase C-terminal domain"</title>
				<polygon class="PF02785" points="431,33 438,40 431,47" stroke-linejoin="round" width="10" height="24" fill="rgb(82,186,211)" stroke="rgb(65,148,168)" stroke-width="1" opacity="0.75" />
			</g>
		</g>
		<g>
			<title>yngHB (KKANDCCO_00889)
Biotin/lipoyl attachment protein</title>
			<polygon class="yngHB (KKANDCCO_00889)
Biotin/lipoyl attachment protein" points="444,10 451,40 444,70" fill="rgb(255,255,255)" fill-opacity="1.0" stroke="rgb(0,0,0)" stroke-width="2"  />
			<g>
				<title>Biotin_lipoyl (PF00364)
"Biotin-requiring enzyme"</title>
				<polygon class="PF00364" points="444,28 444,28 448,40 444,52 444,52" stroke-linejoin="round" width="6" height="24" fill="rgb(67,214,213)" stroke="rgb(53,171,170)" stroke-width="1" opacity="0.75" />
			</g>
		</g>
		<g>
			<title>yngG (KKANDCCO_00890)
Hydroxymethylglutaryl-CoA lyase YngG</title>
			<polygon class="yngG (KKANDCCO_00890)
Hydroxymethylglutaryl-CoA lyase YngG" points="451,25 451,25 451,10 481,40 451,70 451,55 451,55" fill="rgb(255,255,255)" fill-opacity="1.0" stroke="rgb(0,0,0)" stroke-width="2"  />
			<g>
				<title>HMGL-like (PF00682)
"HMGL-like"</title>
				<polygon class="PF00682" points="451,28 465,28 477,40 465,52 451,52" stroke-linejoin="round" width="27" height="24" fill="rgb(84,228,141)" stroke="rgb(67,182,112)" stroke-width="1" opacity="0.75" />
			</g>
		</g>
		<g>
			<title>crt (KKANDCCO_00891)
Short-chain-enoyl-CoA hydratase</title>
			<polygon class="crt (KKANDCCO_00891)
Short-chain-enoyl-CoA hydratase" points="482,10 508,40 482,70" fill="rgb(255,255,255)" fill-opacity="1.0" stroke="rgb(0,0,0)" stroke-width="2"  />
			<g>
				<title>ECH_1 (PF00378)
"Enoyl-CoA hydratase/isomerase"</title>
				<polygon class="PF00378" points="482,28 494,28 504,40 494,52 482,52" stroke-linejoin="round" width="25" height="24" fill="rgb(218,72,181)" stroke="rgb(174,57,144)" stroke-width="1" opacity="0.75" />
			</g>
		</g>
		<g>
			<title>accD5 (KKANDCCO_00892)
putative propionyl-CoA carboxylase beta chain 5</title>
			<polygon class="accD5 (KKANDCCO_00892)
putative propionyl-CoA carboxylase beta chain 5" points="508,25 529,25 529,10 559,40 529,70 529,55 508,55" fill="rgb(255,255,255)" fill-opacity="1.0" stroke="rgb(0,0,0)" stroke-width="2"  />
			<g>
				<title>Carboxyl_trans (PF01039)
"Carboxyl transferase domain"</title>
				<polygon class="PF01039" points="510,28 542,28 554,40 542,52 510,52" stroke-linejoin="round" width="48" height="24" fill="rgb(180,136,60)" stroke="rgb(144,108,48)" stroke-width="1" opacity="0.75" />
			</g>
		</g>
		<g>
			<title>acsA_1 (KKANDCCO_00893)
Acetyl-coenzyme A synthetase</title>
			<polygon class="acsA_1 (KKANDCCO_00893)
Acetyl-coenzyme A synthetase" points="626,25 591,25 591,10 561,40 591,70 591,55 626,55" fill="rgb(255,255,255)" fill-opacity="1.0" stroke="rgb(0,0,0)" stroke-width="2"  />
			<g>
				<title>AMP-binding_C (PF13193)
"AMP-binding enzyme C-terminal domain"</title>
				<polygon class="PF13193" points="565,40 572,33 572,47 565,40" stroke-linejoin="round" width="7" height="24" fill="rgb(182,50,118)" stroke="rgb(145,39,94)" stroke-width="1" opacity="0.75" />
			</g>
			<g>
				<title>AMP-binding (PF00501)
"AMP-binding enzyme"</title>
				<polygon class="PF00501" points="573,32 577,28 616,28 616,52 577,52 573,48" stroke-linejoin="round" width="43" height="24" fill="rgb(60,217,223)" stroke="rgb(48,173,178)" stroke-width="1" opacity="0.75" />
			</g>
			<g>
				<title>ACAS_N (PF16177)
"Acetyl-coenzyme A synthetase N-terminus"</title>
				<rect class="PF16177" x="617" y="28" stroke-linejoin="round" width="5" height="24" fill="rgb(54,78,195)" stroke="rgb(43,62,156)" stroke-width="1" opacity="0.75" />
			</g>
		</g>
		<g>
			<title> (KKANDCCO_00894)
hypothetical protein</title>
			<polygon class=" (KKANDCCO_00894)
hypothetical protein" points="634,25 654,25 654,10 684,40 654,70 654,55 634,55" fill="rgb(255,255,255)" fill-opacity="1.0" stroke="rgb(0,0,0)" stroke-width="2"  />
			<g>
				<title>Band_7 (PF01145)
"SPFH domain / Band 7 family"</title>
				<polygon class="PF01145" points="637,28 667,28 671,32 671,48 667,52 637,52" stroke-linejoin="round" width="34" height="24" fill="rgb(218,155,102)" stroke="rgb(174,124,81)" stroke-width="1" opacity="0.75" />
			</g>
		</g>
		<g>
			<title>tadA_1 (KKANDCCO_00895)
tRNA-specific adenosine deaminase</title>
			<polygon class="tadA_1 (KKANDCCO_00895)
tRNA-specific adenosine deaminase" points="688,10 703,40 688,70" fill="rgb(255,255,255)" fill-opacity="1.0" stroke="rgb(0,0,0)" stroke-width="2"  />
			<g>
				<title>dCMP_cyt_deam_1 (PF00383)
"Cytidine and deoxycytidylate deaminase zinc-binding region"</title>
				<polygon class="PF00383" points="688,28 693,28 697,35 697,45 693,52 688,52" stroke-linejoin="round" width="9" height="24" fill="rgb(91,149,216)" stroke="rgb(72,119,172)" stroke-width="1" opacity="0.75" />
			</g>
		</g>
		<g>
			<title> (KKANDCCO_00896)
hypothetical protein</title>
			<polygon class=" (KKANDCCO_00896)
hypothetical protein" points="713,25 721,25 721,10 751,40 721,70 721,55 713,55" fill="rgb(255,255,255)" fill-opacity="1.0" stroke="rgb(0,0,0)" stroke-width="2"  />
			<g>
				<title>Epimerase (PF01370)
"NAD dependent epimerase/dehydratase family"</title>
				<polygon class="PF01370" points="713,28 735,28 741,34 741,46 735,52 713,52" stroke-linejoin="round" width="28" height="24" fill="rgb(98,102,214)" stroke="rgb(78,81,171)" stroke-width="1" opacity="0.75" />
			</g>
		</g>
		<g>
			<title>mgtA (KKANDCCO_00897)
GDP-mannose-dependent alpha-mannosyltransferase</title>
			<polygon class="mgtA (KKANDCCO_00897)
GDP-mannose-dependent alpha-mannosyltransferase" points="752,25 760,25 760,10 790,40 760,70 760,55 752,55" fill="rgb(255,255,255)" fill-opacity="1.0" stroke="rgb(0,0,0)" stroke-width="2"  />
			<g>
				<title>Glyco_transf_4 (PF13439)
"Glycosyltransferase Family 4"</title>
				<rect class="PF13439" x="753" y="28" stroke-linejoin="round" width="16" height="24" fill="rgb(162,57,186)" stroke="rgb(129,45,148)" stroke-width="1" opacity="0.75" />
			</g>
			<g>
				<title>Glycos_transf_1 (PF00534)
"Glycosyl transferases group 1"</title>
				<polygon class="PF00534" points="770,28 774,28 786,40 786,40 774,52 770,52" stroke-linejoin="round" width="16" height="24" fill="rgb(228,92,150)" stroke="rgb(182,73,119)" stroke-width="1" opacity="0.75" />
			</g>
		</g>
		<g>
			<title>cysI (KKANDCCO_00898)
Sulfite reductase [NADPH] hemoprotein beta-component</title>
			<polygon class="cysI (KKANDCCO_00898)
Sulfite reductase [NADPH] hemoprotein beta-component" points="876,25 849,25 849,10 819,40 849,70 849,55 876,55" fill="rgb(255,255,255)" fill-opacity="1.0" stroke="rgb(0,0,0)" stroke-width="2"  />
			<g>
				<title>NIR_SIR (PF01077)
"Nitrite and sulphite reductase 4Fe-4S domain"</title>
				<polygon class="PF01077" points="823,40 833,30 833,50" stroke-linejoin="round" width="13" height="24" fill="rgb(96,208,89)" stroke="rgb(76,166,71)" stroke-width="1" opacity="0.75" />
			</g>
			<g>
				<title>NIR_SIR_ferr (PF03460)
"Nitrite/Sulfite reductase ferredoxin-like half domain"</title>
				<polygon class="PF03460" points="834,29 835,28 840,28 840,52 835,52 834,51" stroke-linejoin="round" width="6" height="24" fill="rgb(51,200,158)" stroke="rgb(40,160,126)" stroke-width="1" opacity="0.75" />
			</g>
			<g>
				<title>NIR_SIR (PF01077)
"Nitrite and sulphite reductase 4Fe-4S domain"</title>
				<rect class="PF01077" x="843" y="28" stroke-linejoin="round" width="16" height="24" fill="rgb(96,208,89)" stroke="rgb(76,166,71)" stroke-width="1" opacity="0.75" />
			</g>
			<g>
				<title>NIR_SIR_ferr (PF03460)
"Nitrite/Sulfite reductase ferredoxin-like half domain"</title>
				<rect class="PF03460" x="862" y="28" stroke-linejoin="round" width="6" height="24" fill="rgb(51,200,158)" stroke="rgb(40,160,126)" stroke-width="1" opacity="0.75" />
			</g>
		</g>
		<g>
			<title>cysJ (KKANDCCO_00899)
Sulfite reductase [NADPH] flavoprotein alpha-component</title>
			<polygon class="cysJ (KKANDCCO_00899)
Sulfite reductase [NADPH] flavoprotein alpha-component" points="937,25 907,25 907,10 877,40 907,70 907,55 937,55" fill="rgb(255,255,255)" fill-opacity="1.0" stroke="rgb(0,0,0)" stroke-width="2"  />
			<g>
				<title>NAD_binding_1 (PF00175)
"Oxidoreductase NAD-binding domain"</title>
				<polygon class="PF00175" points="881,40 890,31 890,49" stroke-linejoin="round" width="10" height="24" fill="rgb(177,211,96)" stroke="rgb(141,168,76)" stroke-width="1" opacity="0.75" />
			</g>
			<g>
				<title>FAD_binding_1 (PF00667)
"FAD binding domain"</title>
				<rect class="PF00667" x="894" y="28" stroke-linejoin="round" width="19" height="24" fill="rgb(145,74,201)" stroke="rgb(116,59,160)" stroke-width="1" opacity="0.75" />
			</g>
			<g>
				<title>Flavodoxin_1 (PF00258)
"Flavodoxin"</title>
				<rect class="PF00258" x="917" y="28" stroke-linejoin="round" width="13" height="24" fill="rgb(77,169,183)" stroke="rgb(61,135,146)" stroke-width="1" opacity="0.75" />
			</g>
		</g>
	</g>
</svg>
