<svg version="1.1" baseProfile="full" xmlns="http://www.w3.org/2000/svg" width="391.3" height="80">
	<g>
		<line x1="10" y1="40.0" x2="381.3" y2="40.0" style="stroke:rgb(70,70,70); stroke-width:3 "/>
		<g>
			<title>mtlR (HAMLPNCN_01594)
Transcriptional regulator MtlR</title>
			<polygon class="mtlR (HAMLPNCN_01594)
Transcriptional regulator MtlR" points="10,25 43,25 43,10 73,40 43,70 43,55 10,55" fill="rgb(255,255,255)" fill-opacity="1.0" stroke="rgb(0,0,0)" stroke-width="2"  />
			<g>
				<title>HTH_11 (PF08279)
"HTH domain"</title>
				<rect class="PF08279" x="10" y="28" stroke-linejoin="round" width="5" height="24" fill="rgb(188,106,60)" stroke="rgb(150,84,48)" stroke-width="1" opacity="0.75" />
			</g>
			<g>
				<title>Mga (PF05043)
"Mga helix-turn-helix domain"</title>
				<rect class="PF05043" x="17" y="28" stroke-linejoin="round" width="9" height="24" fill="rgb(177,193,55)" stroke="rgb(141,154,44)" stroke-width="1" opacity="0.75" />
			</g>
			<g>
				<title>PRD (PF00874)
"PRD domain"</title>
				<rect class="PF00874" x="31" y="28" stroke-linejoin="round" width="8" height="24" fill="rgb(72,210,205)" stroke="rgb(57,168,164)" stroke-width="1" opacity="0.75" />
			</g>
			<g>
				<title>PRD (PF00874)
"PRD domain"</title>
				<rect class="PF00874" x="42" y="28" stroke-linejoin="round" width="8" height="24" fill="rgb(72,210,205)" stroke="rgb(57,168,164)" stroke-width="1" opacity="0.75" />
			</g>
			<g>
				<title>PTS_IIB (PF02302)
"PTS system, Lactose/Cellobiose specific IIB subunit"</title>
				<polygon class="PF02302" points="52,28 57,28 61,32 61,48 57,52 52,52" stroke-linejoin="round" width="9" height="24" fill="rgb(106,212,56)" stroke="rgb(84,169,44)" stroke-width="1" opacity="0.75" />
			</g>
		</g>
		<g>
			<title>mtlF (HAMLPNCN_01595)
Mannitol-specific phosphotransferase enzyme IIA component</title>
			<polygon class="mtlF (HAMLPNCN_01595)
Mannitol-specific phosphotransferase enzyme IIA component" points="84,10 98,40 84,70" fill="rgb(255,255,255)" fill-opacity="1.0" stroke="rgb(0,0,0)" stroke-width="2"  />
			<g>
				<title>PTS_EIIA_2 (PF00359)
"Phosphoenolpyruvate-dependent sugar phosphotransferase system, EIIA 2"</title>
				<polygon class="PF00359" points="84,28 89,28 95,40 89,52 84,52" stroke-linejoin="round" width="14" height="24" fill="rgb(115,83,186)" stroke="rgb(91,66,148)" stroke-width="1" opacity="0.75" />
			</g>
		</g>
		<g>
			<title>mtlD_1 (HAMLPNCN_01596)
Mannitol-1-phosphate 5-dehydrogenase</title>
			<polygon class="mtlD_1 (HAMLPNCN_01596)
Mannitol-1-phosphate 5-dehydrogenase" points="98,25 106,25 106,10 136,40 106,70 106,55 98,55" fill="rgb(255,255,255)" fill-opacity="1.0" stroke="rgb(0,0,0)" stroke-width="2"  />
			<g>
				<title>Mannitol_dh (PF01232)
"Mannitol dehydrogenase Rossmann domain"</title>
				<rect class="PF01232" x="98" y="28" stroke-linejoin="round" width="12" height="24" fill="rgb(221,155,56)" stroke="rgb(176,124,44)" stroke-width="1" opacity="0.75" />
			</g>
			<g>
				<title>Mannitol_dh_C (PF08125)
"Mannitol dehydrogenase C-terminal domain"</title>
				<polygon class="PF08125" points="112,28 119,28 131,40 119,52 112,52" stroke-linejoin="round" width="22" height="24" fill="rgb(196,64,94)" stroke="rgb(156,51,75)" stroke-width="1" opacity="0.75" />
			</g>
		</g>
		<g>
			<title> (HAMLPNCN_01597)
hypothetical protein</title>
			<polygon class=" (HAMLPNCN_01597)
hypothetical protein" points="142,40 166,10 166,70" fill="rgb(255,255,255)" fill-opacity="1.0" stroke="rgb(0,0,0)" stroke-width="2"  />
			<g>
				<title>FhuF (PF06276)
"Ferric iron reductase FhuF-like transporter"</title>
				<polygon class="PF06276" points="146,40 156,28 160,28 160,52 156,52" stroke-linejoin="round" width="15" height="24" fill="rgb(76,151,221)" stroke="rgb(60,120,176)" stroke-width="1" opacity="0.75" />
			</g>
		</g>
		<g>
			<title>sbnF (HAMLPNCN_01598)
2-[(L-alanin-3-ylcarbamoyl)methyl]-3-(2- aminoethylcarbamoyl)-2-hydroxypropanoate synthase</title>
			<polygon class="sbnF (HAMLPNCN_01598)
2-[(L-alanin-3-ylcarbamoyl)methyl]-3-(2- aminoethylcarbamoyl)-2-hydroxypropanoate synthase" points="174,25 205,25 205,10 235,40 205,70 205,55 174,55" fill="rgb(255,255,255)" fill-opacity="1.0" stroke="rgb(0,0,0)" stroke-width="2"  />
			<g>
				<title>IucA_IucC (PF04183)
"IucA / IucC family"</title>
				<rect class="PF04183" x="189" y="28" stroke-linejoin="round" width="24" height="24" fill="rgb(221,104,121)" stroke="rgb(176,83,96)" stroke-width="1" opacity="0.75" />
			</g>
			<g>
				<title>FhuF (PF06276)
"Ferric iron reductase FhuF-like transporter"</title>
				<polygon class="PF06276" points="216,28 218,28 230,40 218,52 216,52" stroke-linejoin="round" width="16" height="24" fill="rgb(76,151,221)" stroke="rgb(60,120,176)" stroke-width="1" opacity="0.75" />
			</g>
		</g>
		<g>
			<title> (HAMLPNCN_01599)
hypothetical protein</title>
			<polygon class=" (HAMLPNCN_01599)
hypothetical protein" points="273,10 298,40 273,70" fill="rgb(255,255,255)" fill-opacity="1.0" stroke="rgb(0,0,0)" stroke-width="2"  />
			<g>
				<title>FhuF (PF06276)
"Ferric iron reductase FhuF-like transporter"</title>
				<polygon class="PF06276" points="281,28 285,28 294,40 285,52 281,52" stroke-linejoin="round" width="16" height="24" fill="rgb(76,151,221)" stroke="rgb(60,120,176)" stroke-width="1" opacity="0.75" />
			</g>
		</g>
		<g>
			<title>sbnH (HAMLPNCN_01600)
2-[(L-alanin-3-ylcarbamoyl)methyl]-2- hydroxybutanedioate decarboxylase</title>
			<polygon class="sbnH (HAMLPNCN_01600)
2-[(L-alanin-3-ylcarbamoyl)methyl]-2- hydroxybutanedioate decarboxylase" points="311,25 314,25 314,10 344,40 314,70 314,55 311,55" fill="rgb(255,255,255)" fill-opacity="1.0" stroke="rgb(0,0,0)" stroke-width="2"  />
			<g>
				<title>Orn_Arg_deC_N (PF02784)
"Pyridoxal-dependent decarboxylase, pyridoxal binding domain"</title>
				<polygon class="PF02784" points="311,28 327,28 331,32 331,48 327,52 311,52" stroke-linejoin="round" width="20" height="24" fill="rgb(106,204,212)" stroke="rgb(84,163,169)" stroke-width="1" opacity="0.75" />
			</g>
		</g>
		<g>
			<title> (HAMLPNCN_01601)
hypothetical protein</title>
			<polygon class=" (HAMLPNCN_01601)
hypothetical protein" points="347,25 350,25 350,10 380,40 350,70 350,55 347,55" fill="rgb(255,255,255)" fill-opacity="1.0" stroke="rgb(0,0,0)" stroke-width="2"  />
		</g>
	</g>
</svg>
