<svg version="1.1" baseProfile="full" xmlns="http://www.w3.org/2000/svg" width="993.9333333333333" height="80">
	<g>
		<line x1="10" y1="40.0" x2="983.9333333333333" y2="40.0" style="stroke:rgb(70,70,70); stroke-width:3 "/>
		<g>
			<title>aadK (FBNBFCBO_00030)
Aminoglycoside 6-adenylyltransferase</title>
			<polygon class="aadK (FBNBFCBO_00030)
Aminoglycoside 6-adenylyltransferase" points="17,10 45,40 17,70" fill="rgb(255,255,255)" fill-opacity="1.0" stroke="rgb(0,0,0)" stroke-width="2"  />
			<g>
				<title>Adenyl_transf (PF04439)
"Streptomycin adenylyltransferase"</title>
				<polygon class="PF04439" points="17,28 29,28 40,40 29,52 17,52" stroke-linejoin="round" width="27" height="24" fill="rgb(190,95,93)" stroke="rgb(152,76,74)" stroke-width="1" opacity="0.75" />
			</g>
		</g>
		<g>
			<title> (FBNBFCBO_00031)
hypothetical protein</title>
			<polygon class=" (FBNBFCBO_00031)
hypothetical protein" points="118,25 77,25 77,10 47,40 77,70 77,55 118,55" fill="rgb(255,255,255)" fill-opacity="1.0" stroke="rgb(0,0,0)" stroke-width="2"  />
			<g>
				<title>Beta_propel (PF09826)
"Beta propeller domain"</title>
				<polygon class="PF09826" points="51,40 63,28 99,28 99,52 63,52" stroke-linejoin="round" width="51" height="24" fill="rgb(187,75,50)" stroke="rgb(149,60,39)" stroke-width="1" opacity="0.75" />
			</g>
			<g>
				<title>Big_5 (PF13205)
"Bacterial Ig-like domain"</title>
				<rect class="PF13205" x="105" y="28" stroke-linejoin="round" width="9" height="24" fill="rgb(178,197,67)" stroke="rgb(142,157,53)" stroke-width="1" opacity="0.75" />
			</g>
		</g>
		<g>
			<title> (FBNBFCBO_00032)
hypothetical protein</title>
			<polygon class=" (FBNBFCBO_00032)
hypothetical protein" points="124,10 132,40 124,70" fill="rgb(255,255,255)" fill-opacity="1.0" stroke="rgb(0,0,0)" stroke-width="2"  />
			<g>
				<title>SpoVIF (PF14069)
"Stage VI sporulation protein F"</title>
				<polygon class="PF14069" points="124,28 125,28 128,40 125,52 124,52" stroke-linejoin="round" width="7" height="24" fill="rgb(181,86,189)" stroke="rgb(144,68,151)" stroke-width="1" opacity="0.75" />
			</g>
		</g>
		<g>
			<title> (FBNBFCBO_00033)
hypothetical protein</title>
			<polygon class=" (FBNBFCBO_00033)
hypothetical protein" points="136,10 162,40 136,70" fill="rgb(255,255,255)" fill-opacity="1.0" stroke="rgb(0,0,0)" stroke-width="2"  />
			<g>
				<title>LAGLIDADG_3 (PF14528)
"LAGLIDADG-like domain"</title>
				<polygon class="PF14528" points="143,28 148,28 149,30 149,50 148,52 143,52" stroke-linejoin="round" width="6" height="24" fill="rgb(97,101,195)" stroke="rgb(77,80,156)" stroke-width="1" opacity="0.75" />
			</g>
			<g>
				<title>LAGLIDADG_3 (PF14528)
"LAGLIDADG-like domain"</title>
				<polygon class="PF14528" points="152,33 158,40 152,47" stroke-linejoin="round" width="7" height="24" fill="rgb(97,101,195)" stroke="rgb(77,80,156)" stroke-width="1" opacity="0.75" />
			</g>
		</g>
		<g>
			<title>citA_1 (FBNBFCBO_00034)
Citrate synthase 1</title>
			<polygon class="citA_1 (FBNBFCBO_00034)
Citrate synthase 1" points="167,40 178,10 178,70" fill="rgb(255,255,255)" fill-opacity="1.0" stroke="rgb(0,0,0)" stroke-width="2"  />
		</g>
		<g>
			<title>citA_2 (FBNBFCBO_00035)
Citrate synthase 1</title>
			<polygon class="citA_2 (FBNBFCBO_00035)
Citrate synthase 1" points="176,40 201,10 201,70" fill="rgb(255,255,255)" fill-opacity="1.0" stroke="rgb(0,0,0)" stroke-width="2"  />
			<g>
				<title>Citrate_synt (PF00285)
"Citrate synthase, C-terminal domain"</title>
				<polygon class="PF00285" points="180,40 190,28 200,28 200,52 190,52" stroke-linejoin="round" width="23" height="24" fill="rgb(217,199,102)" stroke="rgb(173,159,81)" stroke-width="1" opacity="0.75" />
			</g>
		</g>
		<g>
			<title>hcaR (FBNBFCBO_00036)
Hca operon transcriptional activator HcaR</title>
			<polygon class="hcaR (FBNBFCBO_00036)
Hca operon transcriptional activator HcaR" points="206,10 212,40 206,70" fill="rgb(255,255,255)" fill-opacity="1.0" stroke="rgb(0,0,0)" stroke-width="2"  />
			<g>
				<title>HTH_1 (PF00126)
"Bacterial regulatory helix-turn-helix protein, lysR family"</title>
				<polygon class="PF00126" points="206,28 206,28 209,40 206,52 206,52" stroke-linejoin="round" width="5" height="24" fill="rgb(125,227,79)" stroke="rgb(99,181,63)" stroke-width="1" opacity="0.75" />
			</g>
		</g>
		<g>
			<title> (FBNBFCBO_00037)
hypothetical protein</title>
			<polygon class=" (FBNBFCBO_00037)
hypothetical protein" points="212,10 234,40 212,70" fill="rgb(255,255,255)" fill-opacity="1.0" stroke="rgb(0,0,0)" stroke-width="2"  />
			<g>
				<title>LysR_substrate (PF03466)
"LysR substrate binding domain"</title>
				<polygon class="PF03466" points="214,28 222,28 231,40 222,52 214,52" stroke-linejoin="round" width="20" height="24" fill="rgb(55,136,195)" stroke="rgb(44,108,156)" stroke-width="1" opacity="0.75" />
			</g>
		</g>
		<g>
			<title>mgtA (FBNBFCBO_00038)
GDP-mannose-dependent alpha-mannosyltransferase</title>
			<polygon class="mgtA (FBNBFCBO_00038)
GDP-mannose-dependent alpha-mannosyltransferase" points="276,25 268,25 268,10 238,40 268,70 268,55 276,55" fill="rgb(255,255,255)" fill-opacity="1.0" stroke="rgb(0,0,0)" stroke-width="2"  />
			<g>
				<title>Glycos_transf_1 (PF00534)
"Glycosyl transferases group 1"</title>
				<polygon class="PF00534" points="242,40 254,28 257,28 257,52 254,52 242,40" stroke-linejoin="round" width="15" height="24" fill="rgb(228,92,150)" stroke="rgb(182,73,119)" stroke-width="1" opacity="0.75" />
			</g>
			<g>
				<title>Glyco_transf_4 (PF13439)
"Glycosyltransferase Family 4"</title>
				<rect class="PF13439" x="259" y="28" stroke-linejoin="round" width="16" height="24" fill="rgb(162,57,186)" stroke="rgb(129,45,148)" stroke-width="1" opacity="0.75" />
			</g>
		</g>
		<g>
			<title> (FBNBFCBO_00039)
hypothetical protein</title>
			<polygon class=" (FBNBFCBO_00039)
hypothetical protein" points="335,25 315,25 315,10 285,40 315,70 315,55 335,55" fill="rgb(255,255,255)" fill-opacity="1.0" stroke="rgb(0,0,0)" stroke-width="2"  />
			<g>
				<title>Flot (PF15975)
"Flotillin"</title>
				<polygon class="PF15975" points="291,38 301,28 301,28 301,52 301,52 291,42" stroke-linejoin="round" width="10" height="24" fill="rgb(211,172,58)" stroke="rgb(168,137,46)" stroke-width="1" opacity="0.75" />
			</g>
			<g>
				<title>Band_7 (PF01145)
"SPFH domain / Band 7 family"</title>
				<rect class="PF01145" x="311" y="28" stroke-linejoin="round" width="21" height="24" fill="rgb(218,155,102)" stroke="rgb(174,124,81)" stroke-width="1" opacity="0.75" />
			</g>
		</g>
		<g>
			<title>acsA_1 (FBNBFCBO_00040)
Acetyl-coenzyme A synthetase</title>
			<polygon class="acsA_1 (FBNBFCBO_00040)
Acetyl-coenzyme A synthetase" points="343,25 378,25 378,10 408,40 378,70 378,55 343,55" fill="rgb(255,255,255)" fill-opacity="1.0" stroke="rgb(0,0,0)" stroke-width="2"  />
			<g>
				<title>ACAS_N (PF16177)
"Acetyl-coenzyme A synthetase N-terminus"</title>
				<rect class="PF16177" x="346" y="28" stroke-linejoin="round" width="5" height="24" fill="rgb(54,78,195)" stroke="rgb(43,62,156)" stroke-width="1" opacity="0.75" />
			</g>
			<g>
				<title>AMP-binding (PF00501)
"AMP-binding enzyme"</title>
				<polygon class="PF00501" points="352,28 391,28 395,32 395,48 391,52 352,52" stroke-linejoin="round" width="43" height="24" fill="rgb(60,217,223)" stroke="rgb(48,173,178)" stroke-width="1" opacity="0.75" />
			</g>
			<g>
				<title>AMP-binding_C (PF13193)
"AMP-binding enzyme C-terminal domain"</title>
				<polygon class="PF13193" points="396,33 403,40 403,40 396,47" stroke-linejoin="round" width="7" height="24" fill="rgb(182,50,118)" stroke="rgb(145,39,94)" stroke-width="1" opacity="0.75" />
			</g>
		</g>
		<g>
			<title> (FBNBFCBO_00041)
hypothetical protein</title>
			<polygon class=" (FBNBFCBO_00041)
hypothetical protein" points="409,40 422,10 422,70" fill="rgb(255,255,255)" fill-opacity="1.0" stroke="rgb(0,0,0)" stroke-width="2"  />
			<g>
				<title>Acetyltransf_7 (PF13508)
"Acetyltransferase (GNAT) domain"</title>
				<polygon class="PF13508" points="412,40 417,28 418,28 418,52 417,52" stroke-linejoin="round" width="7" height="24" fill="rgb(183,210,60)" stroke="rgb(146,168,48)" stroke-width="1" opacity="0.75" />
			</g>
		</g>
		<g>
			<title> (FBNBFCBO_00042)
hypothetical protein</title>
			<polygon class=" (FBNBFCBO_00042)
hypothetical protein" points="427,10 432,40 427,70" fill="rgb(255,255,255)" fill-opacity="1.0" stroke="rgb(0,0,0)" stroke-width="2"  />
		</g>
		<g>
			<title>accD5 (FBNBFCBO_00043)
putative propionyl-CoA carboxylase beta chain 5</title>
			<polygon class="accD5 (FBNBFCBO_00043)
putative propionyl-CoA carboxylase beta chain 5" points="485,25 464,25 464,10 434,40 464,70 464,55 485,55" fill="rgb(255,255,255)" fill-opacity="1.0" stroke="rgb(0,0,0)" stroke-width="2"  />
			<g>
				<title>Carboxyl_trans (PF01039)
"Carboxyl transferase domain"</title>
				<polygon class="PF01039" points="438,40 450,28 482,28 482,52 450,52" stroke-linejoin="round" width="48" height="24" fill="rgb(180,136,60)" stroke="rgb(144,108,48)" stroke-width="1" opacity="0.75" />
			</g>
		</g>
		<g>
			<title>crt (FBNBFCBO_00044)
Short-chain-enoyl-CoA hydratase</title>
			<polygon class="crt (FBNBFCBO_00044)
Short-chain-enoyl-CoA hydratase" points="485,40 511,10 511,70" fill="rgb(255,255,255)" fill-opacity="1.0" stroke="rgb(0,0,0)" stroke-width="2"  />
			<g>
				<title>ECH_1 (PF00378)
"Enoyl-CoA hydratase/isomerase"</title>
				<polygon class="PF00378" points="489,40 499,28 510,28 510,52 499,52" stroke-linejoin="round" width="25" height="24" fill="rgb(218,72,181)" stroke="rgb(174,57,144)" stroke-width="1" opacity="0.75" />
			</g>
		</g>
		<g>
			<title>yngG (FBNBFCBO_00045)
Hydroxymethylglutaryl-CoA lyase YngG</title>
			<polygon class="yngG (FBNBFCBO_00045)
Hydroxymethylglutaryl-CoA lyase YngG" points="541,25 541,25 541,10 511,40 541,70 541,55 541,55" fill="rgb(255,255,255)" fill-opacity="1.0" stroke="rgb(0,0,0)" stroke-width="2"  />
			<g>
				<title>HMGL-like (PF00682)
"HMGL-like"</title>
				<polygon class="PF00682" points="515,40 527,28 540,28 540,52 527,52" stroke-linejoin="round" width="27" height="24" fill="rgb(84,228,141)" stroke="rgb(67,182,112)" stroke-width="1" opacity="0.75" />
			</g>
		</g>
		<g>
			<title>yngHB (FBNBFCBO_00046)
Biotin/lipoyl attachment protein</title>
			<polygon class="yngHB (FBNBFCBO_00046)
Biotin/lipoyl attachment protein" points="542,40 549,10 549,70" fill="rgb(255,255,255)" fill-opacity="1.0" stroke="rgb(0,0,0)" stroke-width="2"  />
			<g>
				<title>Biotin_lipoyl (PF00364)
"Biotin-requiring enzyme"</title>
				<polygon class="PF00364" points="545,40 548,28 548,28 548,52 548,52" stroke-linejoin="round" width="6" height="24" fill="rgb(67,214,213)" stroke="rgb(53,171,170)" stroke-width="1" opacity="0.75" />
			</g>
		</g>
		<g>
			<title>accC_1 (FBNBFCBO_00047)
Biotin carboxylase</title>
			<polygon class="accC_1 (FBNBFCBO_00047)
Biotin carboxylase" points="595,25 580,25 580,10 550,40 580,70 580,55 595,55" fill="rgb(255,255,255)" fill-opacity="1.0" stroke="rgb(0,0,0)" stroke-width="2"  />
			<g>
				<title>Biotin_carb_C (PF02785)
"Biotin carboxylase C-terminal domain"</title>
				<polygon class="PF02785" points="554,40 561,33 561,47" stroke-linejoin="round" width="10" height="24" fill="rgb(82,186,211)" stroke="rgb(65,148,168)" stroke-width="1" opacity="0.75" />
			</g>
			<g>
				<title>CPSase_L_D2 (PF02786)
"Carbamoyl-phosphate synthase L chain, ATP binding domain"</title>
				<polygon class="PF02786" points="562,32 566,28 582,28 582,52 566,52 562,48" stroke-linejoin="round" width="20" height="24" fill="rgb(190,97,205)" stroke="rgb(151,77,164)" stroke-width="1" opacity="0.75" />
			</g>
			<g>
				<title>Biotin_carb_N (PF00289)
"Biotin carboxylase, N-terminal domain"</title>
				<rect class="PF00289" x="584" y="28" stroke-linejoin="round" width="10" height="24" fill="rgb(59,114,187)" stroke="rgb(47,91,149)" stroke-width="1" opacity="0.75" />
			</g>
		</g>
		<g>
			<title>fadD3 (FBNBFCBO_00048)
3-[(3aS,4S,7aS)-7a-methyl-1, 5-dioxo-octahydro-1H-inden-4-yl]propanoyl:CoA ligase</title>
			<polygon class="fadD3 (FBNBFCBO_00048)
3-[(3aS,4S,7aS)-7a-methyl-1, 5-dioxo-octahydro-1H-inden-4-yl]propanoyl:CoA ligase" points="650,25 626,25 626,10 596,40 626,70 626,55 650,55" fill="rgb(255,255,255)" fill-opacity="1.0" stroke="rgb(0,0,0)" stroke-width="2"  />
			<g>
				<title>AMP-binding_C (PF13193)
"AMP-binding enzyme C-terminal domain"</title>
				<polygon class="PF13193" points="600,40 604,36 604,44" stroke-linejoin="round" width="7" height="24" fill="rgb(182,50,118)" stroke="rgb(145,39,94)" stroke-width="1" opacity="0.75" />
			</g>
			<g>
				<title>AMP-binding (PF00501)
"AMP-binding enzyme"</title>
				<polygon class="PF00501" points="606,34 612,28 649,28 649,52 612,52 606,46" stroke-linejoin="round" width="43" height="24" fill="rgb(60,217,223)" stroke="rgb(48,173,178)" stroke-width="1" opacity="0.75" />
			</g>
		</g>
		<g>
			<title>bcd (FBNBFCBO_00049)
Acyl-CoA dehydrogenase, short-chain specific</title>
			<polygon class="bcd (FBNBFCBO_00049)
Acyl-CoA dehydrogenase, short-chain specific" points="689,25 681,25 681,10 651,40 681,70 681,55 689,55" fill="rgb(255,255,255)" fill-opacity="1.0" stroke="rgb(0,0,0)" stroke-width="2"  />
			<g>
				<title>Acyl-CoA_dh_1 (PF00441)
"Acyl-CoA dehydrogenase, C-terminal domain"</title>
				<polygon class="PF00441" points="655,40 665,30 665,50" stroke-linejoin="round" width="14" height="24" fill="rgb(85,191,117)" stroke="rgb(68,152,93)" stroke-width="1" opacity="0.75" />
			</g>
			<g>
				<title>Acyl-CoA_dh_M (PF02770)
"Acyl-CoA dehydrogenase, middle domain"</title>
				<polygon class="PF02770" points="667,28 667,28 676,28 676,52 667,52 667,52" stroke-linejoin="round" width="9" height="24" fill="rgb(225,186,97)" stroke="rgb(180,148,77)" stroke-width="1" opacity="0.75" />
			</g>
			<g>
				<title>Acyl-CoA_dh_N (PF02771)
"Acyl-CoA dehydrogenase, N-terminal domain"</title>
				<rect class="PF02771" x="677" y="28" stroke-linejoin="round" width="11" height="24" fill="rgb(105,135,218)" stroke="rgb(84,108,174)" stroke-width="1" opacity="0.75" />
			</g>
		</g>
		<g>
			<title>kstR2_1 (FBNBFCBO_00050)
HTH-type transcriptional repressor KstR2</title>
			<polygon class="kstR2_1 (FBNBFCBO_00050)
HTH-type transcriptional repressor KstR2" points="691,40 712,10 712,70" fill="rgb(255,255,255)" fill-opacity="1.0" stroke="rgb(0,0,0)" stroke-width="2"  />
			<g>
				<title>TetR_C_24 (PF17932)
"Tetracyclin repressor-like, C-terminal domain"</title>
				<polygon class="PF17932" points="695,40 703,28 704,28 704,52 703,52" stroke-linejoin="round" width="11" height="24" fill="rgb(165,217,107)" stroke="rgb(132,173,85)" stroke-width="1" opacity="0.75" />
			</g>
			<g>
				<title>TetR_N (PF00440)
"Bacterial regulatory proteins, tetR family"</title>
				<rect class="PF00440" x="706" y="28" stroke-linejoin="round" width="4" height="24" fill="rgb(73,212,190)" stroke="rgb(58,169,152)" stroke-width="1" opacity="0.75" />
			</g>
		</g>
		<g>
			<title>parC (FBNBFCBO_00051)
DNA topoisomerase 4 subunit A</title>
			<polygon class="parC (FBNBFCBO_00051)
DNA topoisomerase 4 subunit A" points="799,25 747,25 747,10 717,40 747,70 747,55 799,55" fill="rgb(255,255,255)" fill-opacity="1.0" stroke="rgb(0,0,0)" stroke-width="2"  />
			<g>
				<title>DNA_gyraseA_C (PF03989)
"DNA gyrase C-terminal domain, beta-propeller"</title>
				<polygon class="PF03989" points="723,38 727,34 727,46 723,42" stroke-linejoin="round" width="4" height="24" fill="rgb(52,134,190)" stroke="rgb(41,107,152)" stroke-width="1" opacity="0.75" />
			</g>
			<g>
				<title>DNA_gyraseA_C (PF03989)
"DNA gyrase C-terminal domain, beta-propeller"</title>
				<polygon class="PF03989" points="728,33 732,29 732,51 728,47" stroke-linejoin="round" width="4" height="24" fill="rgb(52,134,190)" stroke="rgb(41,107,152)" stroke-width="1" opacity="0.75" />
			</g>
			<g>
				<title>DNA_gyraseA_C (PF03989)
"DNA gyrase C-terminal domain, beta-propeller"</title>
				<polygon class="PF03989" points="733,28 733,28 737,28 737,52 733,52 733,52" stroke-linejoin="round" width="4" height="24" fill="rgb(52,134,190)" stroke="rgb(41,107,152)" stroke-width="1" opacity="0.75" />
			</g>
			<g>
				<title>DNA_gyraseA_C (PF03989)
"DNA gyrase C-terminal domain, beta-propeller"</title>
				<rect class="PF03989" x="739" y="28" stroke-linejoin="round" width="5" height="24" fill="rgb(52,134,190)" stroke="rgb(41,107,152)" stroke-width="1" opacity="0.75" />
			</g>
			<g>
				<title>DNA_gyraseA_C (PF03989)
"DNA gyrase C-terminal domain, beta-propeller"</title>
				<rect class="PF03989" x="746" y="28" stroke-linejoin="round" width="2" height="24" fill="rgb(52,134,190)" stroke="rgb(41,107,152)" stroke-width="1" opacity="0.75" />
			</g>
			<g>
				<title>DNA_topoisoIV (PF00521)
"DNA gyrase/topoisomerase IV, subunit A"</title>
				<rect class="PF00521" x="751" y="28" stroke-linejoin="round" width="44" height="24" fill="rgb(196,204,77)" stroke="rgb(156,163,61)" stroke-width="1" opacity="0.75" />
			</g>
		</g>
		<g>
			<title>parE (FBNBFCBO_00052)
DNA topoisomerase 4 subunit B</title>
			<polygon class="parE (FBNBFCBO_00052)
DNA topoisomerase 4 subunit B" points="865,25 829,25 829,10 799,40 829,70 829,55 865,55" fill="rgb(255,255,255)" fill-opacity="1.0" stroke="rgb(0,0,0)" stroke-width="2"  />
			<g>
				<title>DNA_gyraseB_C (PF00986)
"DNA gyrase B subunit, carboxyl terminus"</title>
				<polygon class="PF00986" points="803,40 807,36 807,44" stroke-linejoin="round" width="6" height="24" fill="rgb(184,59,116)" stroke="rgb(147,47,92)" stroke-width="1" opacity="0.75" />
			</g>
			<g>
				<title>Toprim (PF01751)
"Toprim domain"</title>
				<polygon class="PF01751" points="810,33 815,28 821,28 821,52 815,52 810,47" stroke-linejoin="round" width="11" height="24" fill="rgb(95,212,145)" stroke="rgb(76,169,116)" stroke-width="1" opacity="0.75" />
			</g>
			<g>
				<title>DNA_gyraseB (PF00204)
"DNA gyrase B"</title>
				<rect class="PF00204" x="824" y="28" stroke-linejoin="round" width="17" height="24" fill="rgb(66,134,179)" stroke="rgb(52,107,143)" stroke-width="1" opacity="0.75" />
			</g>
			<g>
				<title>HATPase_c (PF02518)
"Histidine kinase-, DNA gyrase B-, and HSP90-like ATPase"</title>
				<rect class="PF02518" x="846" y="28" stroke-linejoin="round" width="14" height="24" fill="rgb(80,94,225)" stroke="rgb(64,75,180)" stroke-width="1" opacity="0.75" />
			</g>
		</g>
		<g>
			<title>yccU (FBNBFCBO_00053)
putative protein YccU</title>
			<polygon class="yccU (FBNBFCBO_00053)
putative protein YccU" points="874,40 887,10 887,70" fill="rgb(255,255,255)" fill-opacity="1.0" stroke="rgb(0,0,0)" stroke-width="2"  />
			<g>
				<title>CoA_binding_2 (PF13380)
"CoA binding domain"</title>
				<polygon class="PF13380" points="877,40 883,28 885,28 885,52 883,52" stroke-linejoin="round" width="11" height="24" fill="rgb(212,69,78)" stroke="rgb(169,55,62)" stroke-width="1" opacity="0.75" />
			</g>
		</g>
		<g>
			<title> (FBNBFCBO_00054)
hypothetical protein</title>
			<polygon class=" (FBNBFCBO_00054)
hypothetical protein" points="938,25 918,25 918,10 888,40 918,70 918,55 938,55" fill="rgb(255,255,255)" fill-opacity="1.0" stroke="rgb(0,0,0)" stroke-width="2"  />
			<g>
				<title>OpuAC (PF04069)
"Substrate binding domain of ABC-type glycine betaine transport system"</title>
				<polygon class="PF04069" points="892,40 904,28 914,28 914,52 904,52" stroke-linejoin="round" width="26" height="24" fill="rgb(81,218,80)" stroke="rgb(64,174,64)" stroke-width="1" opacity="0.75" />
			</g>
			<g>
				<title>BPD_transp_1 (PF00528)
"Binding-protein-dependent transport system inner membrane component"</title>
				<rect class="PF00528" x="917" y="28" stroke-linejoin="round" width="17" height="24" fill="rgb(77,208,225)" stroke="rgb(61,166,180)" stroke-width="1" opacity="0.75" />
			</g>
		</g>
		<g>
			<title>opuCA (FBNBFCBO_00055)
Carnitine transport ATP-binding protein OpuCA</title>
			<polygon class="opuCA (FBNBFCBO_00055)
Carnitine transport ATP-binding protein OpuCA" points="974,25 969,25 969,10 939,40 969,70 969,55 974,55" fill="rgb(255,255,255)" fill-opacity="1.0" stroke="rgb(0,0,0)" stroke-width="2"  />
			<g>
				<title>CBS (PF00571)
"CBS domain"</title>
				<polygon class="PF00571" points="943,40 945,38 945,42" stroke-linejoin="round" width="5" height="24" fill="rgb(220,56,105)" stroke="rgb(176,44,84)" stroke-width="1" opacity="0.75" />
			</g>
			<g>
				<title>ABC_tran (PF00005)
"ABC transporter"</title>
				<rect class="PF00005" x="958" y="28" stroke-linejoin="round" width="14" height="24" fill="rgb(129,201,63)" stroke="rgb(103,160,50)" stroke-width="1" opacity="0.75" />
			</g>
		</g>
	</g>
</svg>
