<svg version="1.1" baseProfile="full" xmlns="http://www.w3.org/2000/svg" width="535.6333333333333" height="80">
	<g>
		<line x1="10" y1="40.0" x2="525.6333333333333" y2="40.0" style="stroke:rgb(70,70,70); stroke-width:3 "/>
		<g>
			<title>aceA (JODBFFBH_00995)
Isocitrate lyase</title>
			<polygon class="aceA (JODBFFBH_00995)
Isocitrate lyase" points="74,25 61,25 61,10 31,40 61,70 61,55 74,55" fill="rgb(255,255,255)" fill-opacity="1.0" stroke="rgb(0,0,0)" stroke-width="2"  />
			<g>
				<title>ICL (PF00463)
"Isocitrate lyase family"</title>
				<polygon class="PF00463" points="35,40 47,28 48,28 48,52 47,52" stroke-linejoin="round" width="17" height="24" fill="rgb(209,76,110)" stroke="rgb(167,60,87)" stroke-width="1" opacity="0.75" />
			</g>
			<g>
				<title>ICL (PF00463)
"Isocitrate lyase family"</title>
				<rect class="PF00463" x="49" y="28" stroke-linejoin="round" width="24" height="24" fill="rgb(209,76,110)" stroke="rgb(167,60,87)" stroke-width="1" opacity="0.75" />
			</g>
		</g>
		<g>
			<title> (JODBFFBH_00996)
hypothetical protein</title>
			<polygon class=" (JODBFFBH_00996)
hypothetical protein" points="79,40 83,10 83,70" fill="rgb(255,255,255)" fill-opacity="1.0" stroke="rgb(0,0,0)" stroke-width="2"  />
		</g>
		<g>
			<title>iolS_1 (JODBFFBH_00997)
Aldo-keto reductase IolS</title>
			<polygon class="iolS_1 (JODBFFBH_00997)
Aldo-keto reductase IolS" points="174,25 173,25 173,10 143,40 173,70 173,55 174,55" fill="rgb(255,255,255)" fill-opacity="1.0" stroke="rgb(0,0,0)" stroke-width="2"  />
			<g>
				<title>Aldo_ket_red (PF00248)
"Aldo/keto reductase family"</title>
				<polygon class="PF00248" points="147,40 159,28 172,28 172,52 159,52" stroke-linejoin="round" width="29" height="24" fill="rgb(225,205,58)" stroke="rgb(180,164,46)" stroke-width="1" opacity="0.75" />
			</g>
		</g>
		<g>
			<title>iucC (JODBFFBH_00998)
Aerobactin synthase</title>
			<polygon class="iucC (JODBFFBH_00998)
Aerobactin synthase" points="236,25 206,25 206,10 176,40 206,70 206,55 236,55" fill="rgb(255,255,255)" fill-opacity="1.0" stroke="rgb(0,0,0)" stroke-width="2"  />
			<g>
				<title>FhuF (PF06276)
"Ferric iron reductase FhuF-like transporter"</title>
				<polygon class="PF06276" points="180,40 192,28 194,28 194,52 192,52" stroke-linejoin="round" width="16" height="24" fill="rgb(76,151,221)" stroke="rgb(60,120,176)" stroke-width="1" opacity="0.75" />
			</g>
			<g>
				<title>IucA_IucC (PF04183)
"IucA / IucC family"</title>
				<rect class="PF04183" x="196" y="28" stroke-linejoin="round" width="25" height="24" fill="rgb(221,104,121)" stroke="rgb(176,83,96)" stroke-width="1" opacity="0.75" />
			</g>
		</g>
		<g>
			<title>iucD_1 (JODBFFBH_00999)
L-lysine N6-monooxygenase</title>
			<polygon class="iucD_1 (JODBFFBH_00999)
L-lysine N6-monooxygenase" points="281,25 266,25 266,10 236,40 266,70 266,55 281,55" fill="rgb(255,255,255)" fill-opacity="1.0" stroke="rgb(0,0,0)" stroke-width="2"  />
			<g>
				<title>K_oxygenase (PF13434)
"L-lysine 6-monooxygenase (NADPH-requiring)"</title>
				<polygon class="PF13434" points="246,34 252,28 280,28 280,52 252,52 246,46" stroke-linejoin="round" width="34" height="24" fill="rgb(81,213,119)" stroke="rgb(64,170,95)" stroke-width="1" opacity="0.75" />
			</g>
		</g>
		<g>
			<title>iucB (JODBFFBH_01000)
N(6)-hydroxylysine O-acetyltransferase</title>
			<polygon class="iucB (JODBFFBH_01000)
N(6)-hydroxylysine O-acetyltransferase" points="280,40 298,10 298,70" fill="rgb(255,255,255)" fill-opacity="1.0" stroke="rgb(0,0,0)" stroke-width="2"  />
			<g>
				<title>Acetyltransf_8 (PF13523)
"Acetyltransferase (GNAT) domain"</title>
				<polygon class="PF13523" points="284,40 292,28 296,28 296,52 292,52" stroke-linejoin="round" width="14" height="24" fill="rgb(106,224,203)" stroke="rgb(84,179,162)" stroke-width="1" opacity="0.75" />
			</g>
		</g>
		<g>
			<title>iucA (JODBFFBH_01001)
N(2)-citryl-N(6)-acetyl-N(6)-hydroxylysine synthase</title>
			<polygon class="iucA (JODBFFBH_01001)
N(2)-citryl-N(6)-acetyl-N(6)-hydroxylysine synthase" points="358,25 329,25 329,10 299,40 329,70 329,55 358,55" fill="rgb(255,255,255)" fill-opacity="1.0" stroke="rgb(0,0,0)" stroke-width="2"  />
			<g>
				<title>FhuF (PF06276)
"Ferric iron reductase FhuF-like transporter"</title>
				<polygon class="PF06276" points="303,40 315,28 316,28 316,52 315,52" stroke-linejoin="round" width="15" height="24" fill="rgb(76,151,221)" stroke="rgb(60,120,176)" stroke-width="1" opacity="0.75" />
			</g>
			<g>
				<title>IucA_IucC (PF04183)
"IucA / IucC family"</title>
				<rect class="PF04183" x="320" y="28" stroke-linejoin="round" width="23" height="24" fill="rgb(221,104,121)" stroke="rgb(176,83,96)" stroke-width="1" opacity="0.75" />
			</g>
		</g>
		<g>
			<title>ddc (JODBFFBH_01002)
L-2,4-diaminobutyrate decarboxylase</title>
			<polygon class="ddc (JODBFFBH_01002)
L-2,4-diaminobutyrate decarboxylase" points="408,25 388,25 388,10 358,40 388,70 388,55 408,55" fill="rgb(255,255,255)" fill-opacity="1.0" stroke="rgb(0,0,0)" stroke-width="2"  />
			<g>
				<title>Pyridoxal_deC (PF00282)
"Pyridoxal-dependent decarboxylase conserved domain"</title>
				<polygon class="PF00282" points="365,37 374,28 402,28 402,52 374,52 365,43" stroke-linejoin="round" width="37" height="24" fill="rgb(100,218,166)" stroke="rgb(80,174,132)" stroke-width="1" opacity="0.75" />
			</g>
		</g>
		<g>
			<title>dat_1 (JODBFFBH_01003)
Diaminobutyrate--2-oxoglutarate aminotransferase</title>
			<polygon class="dat_1 (JODBFFBH_01003)
Diaminobutyrate--2-oxoglutarate aminotransferase" points="454,25 439,25 439,10 409,40 439,70 439,55 454,55" fill="rgb(255,255,255)" fill-opacity="1.0" stroke="rgb(0,0,0)" stroke-width="2"  />
			<g>
				<title>Aminotran_3 (PF00202)
"Aminotransferase class-III"</title>
				<polygon class="PF00202" points="413,40 425,28 451,28 451,52 425,52" stroke-linejoin="round" width="42" height="24" fill="rgb(49,163,189)" stroke="rgb(39,130,151)" stroke-width="1" opacity="0.75" />
			</g>
		</g>
		<g>
			<title>pspA (JODBFFBH_01004)
Phosphoserine phosphatase 1</title>
			<polygon class="pspA (JODBFFBH_01004)
Phosphoserine phosphatase 1" points="464,40 483,10 483,70" fill="rgb(255,255,255)" fill-opacity="1.0" stroke="rgb(0,0,0)" stroke-width="2"  />
			<g>
				<title>His_Phos_1 (PF00300)
"Histidine phosphatase superfamily (branch 1)"</title>
				<polygon class="PF00300" points="468,40 476,28 482,28 482,52 476,52" stroke-linejoin="round" width="18" height="24" fill="rgb(135,184,63)" stroke="rgb(107,147,50)" stroke-width="1" opacity="0.75" />
			</g>
		</g>
	</g>
</svg>
