<svg version="1.1" baseProfile="full" xmlns="http://www.w3.org/2000/svg" width="714.5666666666667" height="80">
	<g>
		<line x1="10" y1="40.0" x2="704.5666666666667" y2="40.0" style="stroke:rgb(70,70,70); stroke-width:3 "/>
		<g>
			<title>btuD_1 (APKJPGIF_00604)
Vitamin B12 import ATP-binding protein BtuD</title>
			<polygon class="btuD_1 (APKJPGIF_00604)
Vitamin B12 import ATP-binding protein BtuD" points="47,25 43,25 43,10 13,40 43,70 43,55 47,55" fill="rgb(255,255,255)" fill-opacity="1.0" stroke="rgb(0,0,0)" stroke-width="2"  />
			<g>
				<title>oligo_HPY (PF08352)
"Oligopeptide/dipeptide transporter, C-terminal region"</title>
				<polygon class="PF08352" points="17,40 23,34 23,46 17,40" stroke-linejoin="round" width="6" height="24" fill="rgb(90,183,173)" stroke="rgb(72,146,138)" stroke-width="1" opacity="0.75" />
			</g>
			<g>
				<title>ABC_tran (PF00005)
"ABC transporter"</title>
				<polygon class="PF00005" points="29,28 29,28 44,28 44,52 29,52 29,52" stroke-linejoin="round" width="15" height="24" fill="rgb(129,201,63)" stroke="rgb(103,160,50)" stroke-width="1" opacity="0.75" />
			</g>
		</g>
		<g>
			<title>ykfC (APKJPGIF_00605)
Gamma-D-glutamyl-L-lysine dipeptidyl-peptidase</title>
			<polygon class="ykfC (APKJPGIF_00605)
Gamma-D-glutamyl-L-lysine dipeptidyl-peptidase" points="78,25 77,25 77,10 47,40 77,70 77,55 78,55" fill="rgb(255,255,255)" fill-opacity="1.0" stroke="rgb(0,0,0)" stroke-width="2"  />
			<g>
				<title>NLPC_P60 (PF00877)
"NlpC/P60 family"</title>
				<polygon class="PF00877" points="51,40 58,33 58,47" stroke-linejoin="round" width="10" height="24" fill="rgb(187,86,137)" stroke="rgb(149,68,109)" stroke-width="1" opacity="0.75" />
			</g>
		</g>
		<g>
			<title>ykfB (APKJPGIF_00606)
L-Ala-D/L-Glu epimerase</title>
			<polygon class="ykfB (APKJPGIF_00606)
L-Ala-D/L-Glu epimerase" points="116,25 110,25 110,10 80,40 110,70 110,55 116,55" fill="rgb(255,255,255)" fill-opacity="1.0" stroke="rgb(0,0,0)" stroke-width="2"  />
			<g>
				<title>MR_MLE_C (PF13378)
"Enolase C-terminal domain-like"</title>
				<polygon class="PF13378" points="84,40 96,28 101,28 101,52 96,52" stroke-linejoin="round" width="21" height="24" fill="rgb(191,184,94)" stroke="rgb(152,147,75)" stroke-width="1" opacity="0.75" />
			</g>
			<g>
				<title>MR_MLE_N (PF02746)
"Mandelate racemase / muconate lactonizing enzyme, N-terminal domain"</title>
				<rect class="PF02746" x="104" y="28" stroke-linejoin="round" width="11" height="24" fill="rgb(63,73,226)" stroke="rgb(50,58,180)" stroke-width="1" opacity="0.75" />
			</g>
		</g>
		<g>
			<title>ykfA_1 (APKJPGIF_00607)
putative murein peptide carboxypeptidase</title>
			<polygon class="ykfA_1 (APKJPGIF_00607)
putative murein peptide carboxypeptidase" points="117,40 134,10 134,70" fill="rgb(255,255,255)" fill-opacity="1.0" stroke="rgb(0,0,0)" stroke-width="2"  />
			<g>
				<title>Peptidase_S66C (PF17676)
"LD-carboxypeptidase C-terminal domain"</title>
				<polygon class="PF17676" points="120,40 127,28 129,28 129,52 127,52" stroke-linejoin="round" width="11" height="24" fill="rgb(72,81,192)" stroke="rgb(57,64,153)" stroke-width="1" opacity="0.75" />
			</g>
		</g>
		<g>
			<title> (APKJPGIF_00608)
hypothetical protein</title>
			<polygon class=" (APKJPGIF_00608)
hypothetical protein" points="139,40 146,10 146,70" fill="rgb(255,255,255)" fill-opacity="1.0" stroke="rgb(0,0,0)" stroke-width="2"  />
		</g>
		<g>
			<title>dppE_1 (APKJPGIF_00609)
Dipeptide-binding protein DppE</title>
			<polygon class="dppE_1 (APKJPGIF_00609)
Dipeptide-binding protein DppE" points="202,25 178,25 178,10 148,40 178,70 178,55 202,55" fill="rgb(255,255,255)" fill-opacity="1.0" stroke="rgb(0,0,0)" stroke-width="2"  />
			<g>
				<title>SBP_bac_5 (PF00496)
"Bacterial extracellular solute-binding proteins, family 5 Middle"</title>
				<polygon class="PF00496" points="155,37 164,28 193,28 193,52 164,52 155,43" stroke-linejoin="round" width="38" height="24" fill="rgb(199,94,116)" stroke="rgb(159,75,92)" stroke-width="1" opacity="0.75" />
			</g>
		</g>
		<g>
			<title>oppD_1 (APKJPGIF_00610)
Oligopeptide transport ATP-binding protein OppD</title>
			<polygon class="oppD_1 (APKJPGIF_00610)
Oligopeptide transport ATP-binding protein OppD" points="236,25 233,25 233,10 203,40 233,70 233,55 236,55" fill="rgb(255,255,255)" fill-opacity="1.0" stroke="rgb(0,0,0)" stroke-width="2"  />
			<g>
				<title>oligo_HPY (PF08352)
"Oligopeptide/dipeptide transporter, C-terminal region"</title>
				<polygon class="PF08352" points="207,40 212,35 212,45" stroke-linejoin="round" width="6" height="24" fill="rgb(90,183,173)" stroke="rgb(72,146,138)" stroke-width="1" opacity="0.75" />
			</g>
			<g>
				<title>ABC_tran (PF00005)
"ABC transporter"</title>
				<polygon class="PF00005" points="217,30 219,28 233,28 233,52 219,52 217,50" stroke-linejoin="round" width="16" height="24" fill="rgb(129,201,63)" stroke="rgb(103,160,50)" stroke-width="1" opacity="0.75" />
			</g>
		</g>
		<g>
			<title>dppC (APKJPGIF_00611)
Dipeptide transport system permease protein DppC</title>
			<polygon class="dppC (APKJPGIF_00611)
Dipeptide transport system permease protein DppC" points="268,25 267,25 267,10 237,40 267,70 267,55 268,55" fill="rgb(255,255,255)" fill-opacity="1.0" stroke="rgb(0,0,0)" stroke-width="2"  />
			<g>
				<title>BPD_transp_1 (PF00528)
"Binding-protein-dependent transport system inner membrane component"</title>
				<polygon class="PF00528" points="241,40 253,28 255,28 255,52 253,52" stroke-linejoin="round" width="18" height="24" fill="rgb(77,208,225)" stroke="rgb(61,166,180)" stroke-width="1" opacity="0.75" />
			</g>
			<g>
				<title>OppC_N (PF12911)
"N-terminal TM domain of oligopeptide transport permease C"</title>
				<rect class="PF12911" x="259" y="28" stroke-linejoin="round" width="5" height="24" fill="rgb(167,178,88)" stroke="rgb(133,142,70)" stroke-width="1" opacity="0.75" />
			</g>
		</g>
		<g>
			<title>dppB (APKJPGIF_00612)
Dipeptide transport system permease protein DppB</title>
			<polygon class="dppB (APKJPGIF_00612)
Dipeptide transport system permease protein DppB" points="300,25 299,25 299,10 269,40 299,70 299,55 300,55" fill="rgb(255,255,255)" fill-opacity="1.0" stroke="rgb(0,0,0)" stroke-width="2"  />
			<g>
				<title>BPD_transp_1 (PF00528)
"Binding-protein-dependent transport system inner membrane component"</title>
				<polygon class="PF00528" points="273,40 285,28 288,28 288,52 285,52" stroke-linejoin="round" width="19" height="24" fill="rgb(77,208,225)" stroke="rgb(61,166,180)" stroke-width="1" opacity="0.75" />
			</g>
		</g>
		<g>
			<title>dppA (APKJPGIF_00613)
D-aminopeptidase</title>
			<polygon class="dppA (APKJPGIF_00613)
D-aminopeptidase" points="300,40 327,10 327,70" fill="rgb(255,255,255)" fill-opacity="1.0" stroke="rgb(0,0,0)" stroke-width="2"  />
			<g>
				<title>Peptidase_M55 (PF04951)
"D-aminopeptidase"</title>
				<polygon class="PF04951" points="304,40 315,28 327,28 327,52 315,52" stroke-linejoin="round" width="26" height="24" fill="rgb(94,138,195)" stroke="rgb(75,110,156)" stroke-width="1" opacity="0.75" />
			</g>
		</g>
		<g>
			<title> (APKJPGIF_00614)
hypothetical protein</title>
			<polygon class=" (APKJPGIF_00614)
hypothetical protein" points="334,40 338,10 338,70" fill="rgb(255,255,255)" fill-opacity="1.0" stroke="rgb(0,0,0)" stroke-width="2"  />
		</g>
		<g>
			<title>yisP (APKJPGIF_00615)
Putative phytoene/squalene synthase YisP</title>
			<polygon class="yisP (APKJPGIF_00615)
Putative phytoene/squalene synthase YisP" points="343,40 370,10 370,70" fill="rgb(255,255,255)" fill-opacity="1.0" stroke="rgb(0,0,0)" stroke-width="2"  />
			<g>
				<title>SQS_PSY (PF00494)
"Squalene/phytoene synthase"</title>
				<polygon class="PF00494" points="347,40 358,28 369,28 369,52 358,52" stroke-linejoin="round" width="25" height="24" fill="rgb(178,91,49)" stroke="rgb(142,72,39)" stroke-width="1" opacity="0.75" />
			</g>
		</g>
		<g>
			<title> (APKJPGIF_00616)
hypothetical protein</title>
			<polygon class=" (APKJPGIF_00616)
hypothetical protein" points="384,10 390,40 384,70" fill="rgb(255,255,255)" fill-opacity="1.0" stroke="rgb(0,0,0)" stroke-width="2"  />
		</g>
		<g>
			<title> (APKJPGIF_00617)
hypothetical protein</title>
			<polygon class=" (APKJPGIF_00617)
hypothetical protein" points="394,10 398,40 394,70" fill="rgb(255,255,255)" fill-opacity="1.0" stroke="rgb(0,0,0)" stroke-width="2"  />
			<g>
				<title>YjcZ_2 (PF09680)
"Family of unknown function"</title>
				<polygon class="PF09680" points="395,39 395,40 395,41" stroke-linejoin="round" width="2" height="24" fill="rgb(79,203,107)" stroke="rgb(63,162,85)" stroke-width="1" opacity="0.75" />
			</g>
		</g>
		<g>
			<title>ktrB_1 (APKJPGIF_00618)
Ktr system potassium uptake protein B</title>
			<polygon class="ktrB_1 (APKJPGIF_00618)
Ktr system potassium uptake protein B" points="457,25 442,25 442,10 412,40 442,70 442,55 457,55" fill="rgb(255,255,255)" fill-opacity="1.0" stroke="rgb(0,0,0)" stroke-width="2"  />
			<g>
				<title>TrkH (PF02386)
"Cation transport protein"</title>
				<polygon class="PF02386" points="416,40 428,28 456,28 456,52 428,52" stroke-linejoin="round" width="43" height="24" fill="rgb(67,179,142)" stroke="rgb(53,143,113)" stroke-width="1" opacity="0.75" />
			</g>
		</g>
		<g>
			<title> (APKJPGIF_00619)
hypothetical protein</title>
			<polygon class=" (APKJPGIF_00619)
hypothetical protein" points="463,40 477,10 477,70" fill="rgb(255,255,255)" fill-opacity="1.0" stroke="rgb(0,0,0)" stroke-width="2"  />
			<g>
				<title>YwpF (PF14183)
"YwpF-like protein"</title>
				<polygon class="PF14183" points="466,40 472,28 476,28 476,52 472,52" stroke-linejoin="round" width="13" height="24" fill="rgb(199,178,73)" stroke="rgb(159,142,58)" stroke-width="1" opacity="0.75" />
			</g>
		</g>
		<g>
			<title>moaA (APKJPGIF_00620)
GTP 3',8-cyclase</title>
			<polygon class="moaA (APKJPGIF_00620)
GTP 3',8-cyclase" points="513,25 509,25 509,10 479,40 509,70 509,55 513,55" fill="rgb(255,255,255)" fill-opacity="1.0" stroke="rgb(0,0,0)" stroke-width="2"  />
			<g>
				<title>Mob_synth_C (PF06463)
"Molybdenum Cofactor Synthesis C"</title>
				<polygon class="PF06463" points="483,40 493,30 493,50" stroke-linejoin="round" width="12" height="24" fill="rgb(149,103,225)" stroke="rgb(119,82,180)" stroke-width="1" opacity="0.75" />
			</g>
			<g>
				<title>Radical_SAM (PF04055)
"Radical SAM superfamily"</title>
				<polygon class="PF04055" points="494,29 495,28 510,28 510,52 495,52 494,51" stroke-linejoin="round" width="16" height="24" fill="rgb(149,56,222)" stroke="rgb(119,44,177)" stroke-width="1" opacity="0.75" />
			</g>
		</g>
		<g>
			<title>moeA (APKJPGIF_00621)
Molybdopterin molybdenumtransferase</title>
			<polygon class="moeA (APKJPGIF_00621)
Molybdopterin molybdenumtransferase" points="555,25 543,25 543,10 513,40 543,70 543,55 555,55" fill="rgb(255,255,255)" fill-opacity="1.0" stroke="rgb(0,0,0)" stroke-width="2"  />
			<g>
				<title>MoeA_C (PF03454)
"MoeA C-terminal region (domain IV)"</title>
				<polygon class="PF03454" points="517,40 521,36 521,44" stroke-linejoin="round" width="7" height="24" fill="rgb(59,190,161)" stroke="rgb(47,152,128)" stroke-width="1" opacity="0.75" />
			</g>
			<g>
				<title>MoCF_biosynth (PF00994)
"Probable molybdopterin binding domain"</title>
				<polygon class="PF00994" points="522,35 529,28 535,28 535,52 529,52 522,45" stroke-linejoin="round" width="13" height="24" fill="rgb(75,187,175)" stroke="rgb(60,149,139)" stroke-width="1" opacity="0.75" />
			</g>
			<g>
				<title>MoeA_N (PF03453)
"MoeA N-terminal region (domain I and II)"</title>
				<rect class="PF03453" x="537" y="28" stroke-linejoin="round" width="16" height="24" fill="rgb(93,188,107)" stroke="rgb(74,150,85)" stroke-width="1" opacity="0.75" />
			</g>
		</g>
		<g>
			<title> (APKJPGIF_00622)
hypothetical protein</title>
			<polygon class=" (APKJPGIF_00622)
hypothetical protein" points="561,40 565,10 565,70" fill="rgb(255,255,255)" fill-opacity="1.0" stroke="rgb(0,0,0)" stroke-width="2"  />
		</g>
		<g>
			<title> (APKJPGIF_00623)
hypothetical protein</title>
			<polygon class=" (APKJPGIF_00623)
hypothetical protein" points="568,40 572,10 572,70" fill="rgb(255,255,255)" fill-opacity="1.0" stroke="rgb(0,0,0)" stroke-width="2"  />
		</g>
		<g>
			<title> (APKJPGIF_00624)
hypothetical protein</title>
			<polygon class=" (APKJPGIF_00624)
hypothetical protein" points="577,40 581,10 581,70" fill="rgb(255,255,255)" fill-opacity="1.0" stroke="rgb(0,0,0)" stroke-width="2"  />
		</g>
		<g>
			<title> (APKJPGIF_00625)
hypothetical protein</title>
			<polygon class=" (APKJPGIF_00625)
hypothetical protein" points="597,40 614,10 614,70" fill="rgb(255,255,255)" fill-opacity="1.0" stroke="rgb(0,0,0)" stroke-width="2"  />
			<g>
				<title>HD (PF01966)
"HD domain"</title>
				<polygon class="PF01966" points="600,40 607,28 612,28 612,52 607,52" stroke-linejoin="round" width="14" height="24" fill="rgb(92,193,119)" stroke="rgb(73,154,95)" stroke-width="1" opacity="0.75" />
			</g>
		</g>
		<g>
			<title> (APKJPGIF_00626)
hypothetical protein</title>
			<polygon class=" (APKJPGIF_00626)
hypothetical protein" points="625,10 636,40 625,70" fill="rgb(255,255,255)" fill-opacity="1.0" stroke="rgb(0,0,0)" stroke-width="2"  />
		</g>
		<g>
			<title>mdtD (APKJPGIF_00627)
Putative multidrug resistance protein MdtD</title>
			<polygon class="mdtD (APKJPGIF_00627)
Putative multidrug resistance protein MdtD" points="685,25 669,25 669,10 639,40 669,70 669,55 685,55" fill="rgb(255,255,255)" fill-opacity="1.0" stroke="rgb(0,0,0)" stroke-width="2"  />
			<g>
				<title>MFS_1 (PF07690)
"Major Facilitator Superfamily"</title>
				<polygon class="PF07690" points="645,38 655,28 683,28 683,52 655,52 645,42" stroke-linejoin="round" width="38" height="24" fill="rgb(193,224,74)" stroke="rgb(154,179,59)" stroke-width="1" opacity="0.75" />
			</g>
		</g>
	</g>
</svg>
