<svg version="1.1" baseProfile="full" xmlns="http://www.w3.org/2000/svg" width="1389.4333333333334" height="80">
	<g>
		<line x1="10" y1="40.0" x2="1379.4333333333334" y2="40.0" style="stroke:rgb(70,70,70); stroke-width:3 "/>
		<g>
			<title> (AEOANFJI_01593)
hypothetical protein</title>
			<polygon class=" (AEOANFJI_01593)
hypothetical protein" points="17,40 23,10 23,70" fill="rgb(255,255,255)" fill-opacity="1.0" stroke="rgb(0,0,0)" stroke-width="2"  />
		</g>
		<g>
			<title>mhqD_1 (AEOANFJI_01594)
Putative hydrolase MhqD</title>
			<polygon class="mhqD_1 (AEOANFJI_01594)
Putative hydrolase MhqD" points="26,40 46,10 46,70" fill="rgb(255,255,255)" fill-opacity="1.0" stroke="rgb(0,0,0)" stroke-width="2"  />
			<g>
				<title>DLH (PF01738)
"Dienelactone hydrolase family"</title>
				<polygon class="PF01738" points="30,40 38,28 40,28 40,52 38,52" stroke-linejoin="round" width="14" height="24" fill="rgb(188,185,48)" stroke="rgb(150,147,38)" stroke-width="1" opacity="0.75" />
			</g>
		</g>
		<g>
			<title> (AEOANFJI_01595)
hypothetical protein</title>
			<polygon class=" (AEOANFJI_01595)
hypothetical protein" points="83,25 79,25 79,10 49,40 79,70 79,55 83,55" fill="rgb(255,255,255)" fill-opacity="1.0" stroke="rgb(0,0,0)" stroke-width="2"  />
			<g>
				<title>AbrB (PF05145)
"Transition state regulatory protein AbrB"</title>
				<polygon class="PF05145" points="53,40 65,28 80,28 80,52 65,52" stroke-linejoin="round" width="31" height="24" fill="rgb(95,98,223)" stroke="rgb(76,78,178)" stroke-width="1" opacity="0.75" />
			</g>
		</g>
		<g>
			<title>msrAB (AEOANFJI_01596)
Peptide methionine sulfoxide reductase MsrA/MsrB</title>
			<polygon class="msrAB (AEOANFJI_01596)
Peptide methionine sulfoxide reductase MsrA/MsrB" points="136,25 134,25 134,10 104,40 134,70 134,55 136,55" fill="rgb(255,255,255)" fill-opacity="1.0" stroke="rgb(0,0,0)" stroke-width="2"  />
			<g>
				<title>SelR (PF01641)
"SelR domain"</title>
				<polygon class="PF01641" points="108,40 117,31 117,49" stroke-linejoin="round" width="12" height="24" fill="rgb(192,99,202)" stroke="rgb(153,79,161)" stroke-width="1" opacity="0.75" />
			</g>
			<g>
				<title>PMSR (PF01625)
"Peptide methionine sulfoxide reductase"</title>
				<polygon class="PF01625" points="120,28 120,28 135,28 135,52 120,52 120,52" stroke-linejoin="round" width="15" height="24" fill="rgb(201,74,176)" stroke="rgb(160,59,140)" stroke-width="1" opacity="0.75" />
			</g>
		</g>
		<g>
			<title> (AEOANFJI_01597)
hypothetical protein</title>
			<polygon class=" (AEOANFJI_01597)
hypothetical protein" points="139,40 156,10 156,70" fill="rgb(255,255,255)" fill-opacity="1.0" stroke="rgb(0,0,0)" stroke-width="2"  />
			<g>
				<title>YqfQ (PF14181)
"YqfQ-like protein"</title>
				<polygon class="PF14181" points="142,40 149,28 156,28 156,52 149,52" stroke-linejoin="round" width="17" height="24" fill="rgb(207,119,57)" stroke="rgb(165,95,45)" stroke-width="1" opacity="0.75" />
			</g>
		</g>
		<g>
			<title>ung (AEOANFJI_01598)
Uracil-DNA glycosylase</title>
			<polygon class="ung (AEOANFJI_01598)
Uracil-DNA glycosylase" points="159,40 181,10 181,70" fill="rgb(255,255,255)" fill-opacity="1.0" stroke="rgb(0,0,0)" stroke-width="2"  />
			<g>
				<title>UDG (PF03167)
"Uracil DNA glycosylase superfamily"</title>
				<polygon class="PF03167" points="163,40 172,28 176,28 176,52 172,52" stroke-linejoin="round" width="16" height="24" fill="rgb(64,224,60)" stroke="rgb(51,179,48)" stroke-width="1" opacity="0.75" />
			</g>
		</g>
		<g>
			<title> (AEOANFJI_01599)
hypothetical protein</title>
			<polygon class=" (AEOANFJI_01599)
hypothetical protein" points="290,25 217,25 217,10 187,40 217,70 217,55 290,55" fill="rgb(255,255,255)" fill-opacity="1.0" stroke="rgb(0,0,0)" stroke-width="2"  />
			<g>
				<title>SbcCD_C (PF13558)
"Putative exonuclease SbcCD, C subunit"</title>
				<polygon class="PF13558" points="191,40 199,32 199,48 191,40" stroke-linejoin="round" width="8" height="24" fill="rgb(84,179,84)" stroke="rgb(67,143,67)" stroke-width="1" opacity="0.75" />
			</g>
			<g>
				<title>AAA_23 (PF13476)
"AAA domain"</title>
				<rect class="PF13476" x="266" y="28" stroke-linejoin="round" width="24" height="24" fill="rgb(57,185,214)" stroke="rgb(45,147,171)" stroke-width="1" opacity="0.75" />
			</g>
		</g>
		<g>
			<title>sbcD (AEOANFJI_01600)
Nuclease SbcCD subunit D</title>
			<polygon class="sbcD (AEOANFJI_01600)
Nuclease SbcCD subunit D" points="329,25 321,25 321,10 291,40 321,70 321,55 329,55" fill="rgb(255,255,255)" fill-opacity="1.0" stroke="rgb(0,0,0)" stroke-width="2"  />
			<g>
				<title>SbcD_C (PF12320)
"Type 5 capsule protein repressor C-terminal domain"</title>
				<polygon class="PF12320" points="295,40 302,33 302,47" stroke-linejoin="round" width="9" height="24" fill="rgb(182,136,65)" stroke="rgb(145,108,52)" stroke-width="1" opacity="0.75" />
			</g>
			<g>
				<title>Metallophos (PF00149)
"Calcineurin-like phosphoesterase"</title>
				<polygon class="PF00149" points="307,28 307,28 328,28 328,52 307,52 307,52" stroke-linejoin="round" width="21" height="24" fill="rgb(181,197,58)" stroke="rgb(144,157,46)" stroke-width="1" opacity="0.75" />
			</g>
		</g>
		<g>
			<title> (AEOANFJI_01601)
hypothetical protein</title>
			<polygon class=" (AEOANFJI_01601)
hypothetical protein" points="330,40 337,10 337,70" fill="rgb(255,255,255)" fill-opacity="1.0" stroke="rgb(0,0,0)" stroke-width="2"  />
			<g>
				<title>YozE_SAM_like (PF06855)
"YozE SAM-like fold"</title>
				<polygon class="PF06855" points="333,40 336,28 336,28 336,52 336,52" stroke-linejoin="round" width="6" height="24" fill="rgb(83,201,171)" stroke="rgb(66,160,136)" stroke-width="1" opacity="0.75" />
			</g>
		</g>
		<g>
			<title>tatC1_1 (AEOANFJI_01602)
Sec-independent protein translocase protein TatCd</title>
			<polygon class="tatC1_1 (AEOANFJI_01602)
Sec-independent protein translocase protein TatCd" points="342,40 367,10 367,70" fill="rgb(255,255,255)" fill-opacity="1.0" stroke="rgb(0,0,0)" stroke-width="2"  />
			<g>
				<title>TatC (PF00902)
"Sec-independent protein translocase protein (TatC)"</title>
				<polygon class="PF00902" points="346,40 356,28 365,28 365,52 356,52" stroke-linejoin="round" width="20" height="24" fill="rgb(84,193,209)" stroke="rgb(67,154,167)" stroke-width="1" opacity="0.75" />
			</g>
		</g>
		<g>
			<title>tatAd_1 (AEOANFJI_01603)
Sec-independent protein translocase protein TatAd</title>
			<polygon class="tatAd_1 (AEOANFJI_01603)
Sec-independent protein translocase protein TatAd" points="370,40 376,10 376,70" fill="rgb(255,255,255)" fill-opacity="1.0" stroke="rgb(0,0,0)" stroke-width="2"  />
			<g>
				<title>MttA_Hcf106 (PF02416)
"mttA/Hcf106 family"</title>
				<polygon class="PF02416" points="373,40 375,30 375,50" stroke-linejoin="round" width="5" height="24" fill="rgb(74,206,98)" stroke="rgb(59,164,78)" stroke-width="1" opacity="0.75" />
			</g>
		</g>
		<g>
			<title>tatAd_2 (AEOANFJI_01604)
Sec-independent protein translocase protein TatAd</title>
			<polygon class="tatAd_2 (AEOANFJI_01604)
Sec-independent protein translocase protein TatAd" points="377,40 383,10 383,70" fill="rgb(255,255,255)" fill-opacity="1.0" stroke="rgb(0,0,0)" stroke-width="2"  />
			<g>
				<title>MttA_Hcf106 (PF02416)
"mttA/Hcf106 family"</title>
				<polygon class="PF02416" points="380,40 382,31 382,49" stroke-linejoin="round" width="5" height="24" fill="rgb(74,206,98)" stroke="rgb(59,164,78)" stroke-width="1" opacity="0.75" />
			</g>
		</g>
		<g>
			<title>mobA (AEOANFJI_01605)
Molybdenum cofactor guanylyltransferase</title>
			<polygon class="mobA (AEOANFJI_01605)
Molybdenum cofactor guanylyltransferase" points="388,40 408,10 408,70" fill="rgb(255,255,255)" fill-opacity="1.0" stroke="rgb(0,0,0)" stroke-width="2"  />
			<g>
				<title>NTP_transf_3 (PF12804)
"MobA-like NTP transferase domain"</title>
				<polygon class="PF12804" points="392,40 400,28 407,28 407,52 400,52 392,40" stroke-linejoin="round" width="15" height="24" fill="rgb(52,209,196)" stroke="rgb(41,167,156)" stroke-width="1" opacity="0.75" />
			</g>
		</g>
		<g>
			<title> (AEOANFJI_01606)
IS1595 family transposase ISSsu9</title>
			<polygon class=" (AEOANFJI_01606)
IS1595 family transposase ISSsu9" points="408,40 424,10 424,70" fill="rgb(255,255,255)" fill-opacity="1.0" stroke="rgb(0,0,0)" stroke-width="2"  />
			<g>
				<title>DHFR_1 (PF00186)
"Dihydrofolate reductase"</title>
				<polygon class="PF00186" points="411,40 418,28 424,28 424,52 418,52" stroke-linejoin="round" width="16" height="24" fill="rgb(150,188,63)" stroke="rgb(119,150,50)" stroke-width="1" opacity="0.75" />
			</g>
		</g>
		<g>
			<title>thyA (AEOANFJI_01607)
Thymidylate synthase</title>
			<polygon class="thyA (AEOANFJI_01607)
Thymidylate synthase" points="458,25 456,25 456,10 426,40 456,70 456,55 458,55" fill="rgb(255,255,255)" fill-opacity="1.0" stroke="rgb(0,0,0)" stroke-width="2"  />
			<g>
				<title>Thymidylat_synt (PF00303)
"Thymidylate synthase"</title>
				<polygon class="PF00303" points="430,40 442,28 457,28 457,52 442,52" stroke-linejoin="round" width="31" height="24" fill="rgb(103,91,191)" stroke="rgb(82,72,152)" stroke-width="1" opacity="0.75" />
			</g>
		</g>
		<g>
			<title>yedJ (AEOANFJI_01608)
putative protein YedJ</title>
			<polygon class="yedJ (AEOANFJI_01608)
putative protein YedJ" points="458,40 477,10 477,70" fill="rgb(255,255,255)" fill-opacity="1.0" stroke="rgb(0,0,0)" stroke-width="2"  />
			<g>
				<title>HD (PF01966)
"HD domain"</title>
				<polygon class="PF01966" points="465,35 470,28 474,28 474,52 470,52 465,45" stroke-linejoin="round" width="9" height="24" fill="rgb(92,193,119)" stroke="rgb(73,154,95)" stroke-width="1" opacity="0.75" />
			</g>
		</g>
		<g>
			<title> (AEOANFJI_01609)
hypothetical protein</title>
			<polygon class=" (AEOANFJI_01609)
hypothetical protein" points="478,40 506,10 506,70" fill="rgb(255,255,255)" fill-opacity="1.0" stroke="rgb(0,0,0)" stroke-width="2"  />
			<g>
				<title>DUF72 (PF01904)
"Protein of unknown function DUF72"</title>
				<polygon class="PF01904" points="482,40 493,28 503,28 503,52 493,52" stroke-linejoin="round" width="24" height="24" fill="rgb(63,151,204)" stroke="rgb(50,120,163)" stroke-width="1" opacity="0.75" />
			</g>
		</g>
		<g>
			<title>fhs (AEOANFJI_01610)
Formate--tetrahydrofolate ligase</title>
			<polygon class="fhs (AEOANFJI_01610)
Formate--tetrahydrofolate ligase" points="565,25 540,25 540,10 510,40 540,70 540,55 565,55" fill="rgb(255,255,255)" fill-opacity="1.0" stroke="rgb(0,0,0)" stroke-width="2"  />
			<g>
				<title>FTHFS (PF01268)
"Formate--tetrahydrofolate ligase"</title>
				<polygon class="PF01268" points="514,40 526,28 565,28 565,52 526,52" stroke-linejoin="round" width="55" height="24" fill="rgb(215,182,81)" stroke="rgb(172,145,64)" stroke-width="1" opacity="0.75" />
			</g>
		</g>
		<g>
			<title>cspA_2 (AEOANFJI_01611)
Cold shock protein CspA</title>
			<polygon class="cspA_2 (AEOANFJI_01611)
Cold shock protein CspA" points="576,10 582,40 576,70" fill="rgb(255,255,255)" fill-opacity="1.0" stroke="rgb(0,0,0)" stroke-width="2"  />
			<g>
				<title>CSD (PF00313)
"'Cold-shock' DNA-binding domain"</title>
				<polygon class="PF00313" points="576,28 576,28 579,40 576,52 576,52" stroke-linejoin="round" width="6" height="24" fill="rgb(87,72,181)" stroke="rgb(69,57,144)" stroke-width="1" opacity="0.75" />
			</g>
		</g>
		<g>
			<title> (AEOANFJI_01612)
queuosine precursor transporter</title>
			<polygon class=" (AEOANFJI_01612)
queuosine precursor transporter" points="596,10 618,40 596,70" fill="rgb(255,255,255)" fill-opacity="1.0" stroke="rgb(0,0,0)" stroke-width="2"  />
			<g>
				<title>Vut_1 (PF02592)
"Putative vitamin uptake transporter"</title>
				<polygon class="PF02592" points="601,28 606,28 614,40 606,52 601,52" stroke-linejoin="round" width="16" height="24" fill="rgb(93,184,75)" stroke="rgb(74,147,60)" stroke-width="1" opacity="0.75" />
			</g>
		</g>
		<g>
			<title>rnhA (AEOANFJI_01613)
14.7 kDa ribonuclease H-like protein</title>
			<polygon class="rnhA (AEOANFJI_01613)
14.7 kDa ribonuclease H-like protein" points="619,10 632,40 619,70" fill="rgb(255,255,255)" fill-opacity="1.0" stroke="rgb(0,0,0)" stroke-width="2"  />
			<g>
				<title>RVT_3 (PF13456)
"Reverse transcriptase-like"</title>
				<polygon class="PF13456" points="619,28 623,28 629,40 623,52 619,52" stroke-linejoin="round" width="12" height="24" fill="rgb(198,123,86)" stroke="rgb(158,98,68)" stroke-width="1" opacity="0.75" />
			</g>
		</g>
		<g>
			<title> (AEOANFJI_01614)
hypothetical protein</title>
			<polygon class=" (AEOANFJI_01614)
hypothetical protein" points="633,40 642,10 642,70" fill="rgb(255,255,255)" fill-opacity="1.0" stroke="rgb(0,0,0)" stroke-width="2"  />
		</g>
		<g>
			<title> (AEOANFJI_01615)
hypothetical protein</title>
			<polygon class=" (AEOANFJI_01615)
hypothetical protein" points="659,40 676,10 676,70" fill="rgb(255,255,255)" fill-opacity="1.0" stroke="rgb(0,0,0)" stroke-width="2"  />
			<g>
				<title>ICMT (PF04140)
"Isoprenylcysteine carboxyl methyltransferase (ICMT) family"</title>
				<polygon class="PF04140" points="662,40 668,29 668,51" stroke-linejoin="round" width="9" height="24" fill="rgb(100,223,104)" stroke="rgb(80,178,83)" stroke-width="1" opacity="0.75" />
			</g>
		</g>
		<g>
			<title> (AEOANFJI_01616)
Alpha-pyrone synthesis polyketide synthase-like Pks11</title>
			<polygon class=" (AEOANFJI_01616)
Alpha-pyrone synthesis polyketide synthase-like Pks11" points="712,25 706,25 706,10 676,40 706,70 706,55 712,55" fill="rgb(255,255,255)" fill-opacity="1.0" stroke="rgb(0,0,0)" stroke-width="2"  />
			<g>
				<title>Chal_sti_synt_N (PF00195)
"Chalcone and stilbene synthases, N-terminal domain"</title>
				<polygon class="PF00195" points="691,29 692,28 705,28 705,52 692,52 691,51" stroke-linejoin="round" width="14" height="24" fill="rgb(60,181,161)" stroke="rgb(47,144,128)" stroke-width="1" opacity="0.75" />
			</g>
		</g>
		<g>
			<title>gno (AEOANFJI_01617)
Gluconate 5-dehydrogenase</title>
			<polygon class="gno (AEOANFJI_01617)
Gluconate 5-dehydrogenase" points="725,40 750,10 750,70" fill="rgb(255,255,255)" fill-opacity="1.0" stroke="rgb(0,0,0)" stroke-width="2"  />
			<g>
				<title>adh_short_C2 (PF13561)
"Enoyl-(Acyl carrier protein) reductase"</title>
				<polygon class="PF13561" points="729,40 739,28 748,28 748,52 739,52" stroke-linejoin="round" width="23" height="24" fill="rgb(73,205,127)" stroke="rgb(58,164,101)" stroke-width="1" opacity="0.75" />
			</g>
		</g>
		<g>
			<title> (AEOANFJI_01618)
hypothetical protein</title>
			<polygon class=" (AEOANFJI_01618)
hypothetical protein" points="755,10 773,40 755,70" fill="rgb(255,255,255)" fill-opacity="1.0" stroke="rgb(0,0,0)" stroke-width="2"  />
		</g>
		<g>
			<title>ypwA (AEOANFJI_01619)
Carboxypeptidase 1</title>
			<polygon class="ypwA (AEOANFJI_01619)
Carboxypeptidase 1" points="825,25 806,25 806,10 776,40 806,70 806,55 825,55" fill="rgb(255,255,255)" fill-opacity="1.0" stroke="rgb(0,0,0)" stroke-width="2"  />
			<g>
				<title>Peptidase_M32 (PF02074)
"Carboxypeptidase Taq (M32) metallopeptidase"</title>
				<polygon class="PF02074" points="780,40 792,28 824,28 824,52 792,52" stroke-linejoin="round" width="48" height="24" fill="rgb(213,142,93)" stroke="rgb(170,113,74)" stroke-width="1" opacity="0.75" />
			</g>
		</g>
		<g>
			<title>rlmL (AEOANFJI_01620)
Ribosomal RNA large subunit methyltransferase L</title>
			<polygon class="rlmL (AEOANFJI_01620)
Ribosomal RNA large subunit methyltransferase L" points="866,25 857,25 857,10 827,40 857,70 857,55 866,55" fill="rgb(255,255,255)" fill-opacity="1.0" stroke="rgb(0,0,0)" stroke-width="2"  />
			<g>
				<title>UPF0020 (PF01170)
"Putative RNA methylase family UPF0020"</title>
				<polygon class="PF01170" points="831,40 843,28 848,28 848,52 843,52" stroke-linejoin="round" width="20" height="24" fill="rgb(89,182,69)" stroke="rgb(71,145,55)" stroke-width="1" opacity="0.75" />
			</g>
			<g>
				<title>THUMP (PF02926)
"THUMP domain"</title>
				<rect class="PF02926" x="850" y="28" stroke-linejoin="round" width="14" height="24" fill="rgb(52,209,163)" stroke="rgb(41,167,130)" stroke-width="1" opacity="0.75" />
			</g>
		</g>
		<g>
			<title>gpsB (AEOANFJI_01621)
Cell cycle protein GpsB</title>
			<polygon class="gpsB (AEOANFJI_01621)
Cell cycle protein GpsB" points="887,40 897,10 897,70" fill="rgb(255,255,255)" fill-opacity="1.0" stroke="rgb(0,0,0)" stroke-width="2"  />
			<g>
				<title>DivIVA (PF05103)
"DivIVA protein"</title>
				<polygon class="PF05103" points="890,40 894,28 896,28 896,52 894,52 890,40" stroke-linejoin="round" width="6" height="24" fill="rgb(213,106,117)" stroke="rgb(170,84,93)" stroke-width="1" opacity="0.75" />
			</g>
		</g>
		<g>
			<title> (AEOANFJI_01622)
hypothetical protein</title>
			<polygon class=" (AEOANFJI_01622)
hypothetical protein" points="900,40 921,10 921,70" fill="rgb(255,255,255)" fill-opacity="1.0" stroke="rgb(0,0,0)" stroke-width="2"  />
			<g>
				<title>YpsA (PF06908)
"YspA SLOG family"</title>
				<polygon class="PF06908" points="904,40 913,28 917,28 917,52 913,52" stroke-linejoin="round" width="16" height="24" fill="rgb(136,100,209)" stroke="rgb(108,80,167)" stroke-width="1" opacity="0.75" />
			</g>
		</g>
		<g>
			<title> (AEOANFJI_01623)
hypothetical protein</title>
			<polygon class=" (AEOANFJI_01623)
hypothetical protein" points="922,40 941,10 941,70" fill="rgb(255,255,255)" fill-opacity="1.0" stroke="rgb(0,0,0)" stroke-width="2"  />
			<g>
				<title>Spore-coat_CotD (PF11122)
"Inner spore coat protein D"</title>
				<polygon class="PF11122" points="926,40 934,28 939,28 939,52 934,52" stroke-linejoin="round" width="17" height="24" fill="rgb(221,153,69)" stroke="rgb(176,122,55)" stroke-width="1" opacity="0.75" />
			</g>
		</g>
		<g>
			<title> (AEOANFJI_01624)
hypothetical protein</title>
			<polygon class=" (AEOANFJI_01624)
hypothetical protein" points="949,40 953,10 953,70" fill="rgb(255,255,255)" fill-opacity="1.0" stroke="rgb(0,0,0)" stroke-width="2"  />
		</g>
		<g>
			<title> (AEOANFJI_01625)
hypothetical protein</title>
			<polygon class=" (AEOANFJI_01625)
hypothetical protein" points="957,40 966,10 966,70" fill="rgb(255,255,255)" fill-opacity="1.0" stroke="rgb(0,0,0)" stroke-width="2"  />
			<g>
				<title>DDE_Tnp_1_6 (PF13751)
"Transposase DDE domain"</title>
				<polygon class="PF13751" points="960,40 964,28 965,28 965,52 964,52" stroke-linejoin="round" width="8" height="24" fill="rgb(51,201,77)" stroke="rgb(40,160,61)" stroke-width="1" opacity="0.75" />
			</g>
		</g>
		<g>
			<title> (AEOANFJI_01626)
hypothetical protein</title>
			<polygon class=" (AEOANFJI_01626)
hypothetical protein" points="969,40 974,10 974,70" fill="rgb(255,255,255)" fill-opacity="1.0" stroke="rgb(0,0,0)" stroke-width="2"  />
		</g>
		<g>
			<title>cdd (AEOANFJI_01627)
Cytidine deaminase</title>
			<polygon class="cdd (AEOANFJI_01627)
Cytidine deaminase" points="980,40 993,10 993,70" fill="rgb(255,255,255)" fill-opacity="1.0" stroke="rgb(0,0,0)" stroke-width="2"  />
			<g>
				<title>dCMP_cyt_deam_1 (PF00383)
"Cytidine and deoxycytidylate deaminase zinc-binding region"</title>
				<polygon class="PF00383" points="983,40 988,28 993,28 993,52 988,52 983,40" stroke-linejoin="round" width="10" height="24" fill="rgb(91,149,216)" stroke="rgb(72,119,172)" stroke-width="1" opacity="0.75" />
			</g>
		</g>
		<g>
			<title>ttgB (AEOANFJI_01628)
Toluene efflux pump membrane transporter TtgB</title>
			<polygon class="ttgB (AEOANFJI_01628)
Toluene efflux pump membrane transporter TtgB" points="999,25 1071,25 1071,10 1101,40 1071,70 1071,55 999,55" fill="rgb(255,255,255)" fill-opacity="1.0" stroke="rgb(0,0,0)" stroke-width="2"  />
			<g>
				<title>ACR_tran (PF00873)
"AcrB/AcrD/AcrF family"</title>
				<polygon class="PF00873" points="999,28 1084,28 1096,40 1084,52 999,52" stroke-linejoin="round" width="101" height="24" fill="rgb(63,191,60)" stroke="rgb(50,152,48)" stroke-width="1" opacity="0.75" />
			</g>
		</g>
		<g>
			<title> (AEOANFJI_01629)
hypothetical protein</title>
			<polygon class=" (AEOANFJI_01629)
hypothetical protein" points="1106,40 1117,10 1117,70" fill="rgb(255,255,255)" fill-opacity="1.0" stroke="rgb(0,0,0)" stroke-width="2"  />
			<g>
				<title>DUF1798 (PF08807)
"Bacterial domain of unknown function (DUF1798)"</title>
				<polygon class="PF08807" points="1109,40 1114,28 1116,28 1116,52 1114,52" stroke-linejoin="round" width="10" height="24" fill="rgb(153,201,81)" stroke="rgb(122,160,64)" stroke-width="1" opacity="0.75" />
			</g>
		</g>
		<g>
			<title>racA (AEOANFJI_01630)
Chromosome-anchoring protein RacA</title>
			<polygon class="racA (AEOANFJI_01630)
Chromosome-anchoring protein RacA" points="1119,40 1127,10 1127,70" fill="rgb(255,255,255)" fill-opacity="1.0" stroke="rgb(0,0,0)" stroke-width="2"  />
		</g>
		<g>
			<title> (AEOANFJI_01631)
hypothetical protein</title>
			<polygon class=" (AEOANFJI_01631)
hypothetical protein" points="1133,10 1136,40 1133,70" fill="rgb(255,255,255)" fill-opacity="1.0" stroke="rgb(0,0,0)" stroke-width="2"  />
		</g>
		<g>
			<title>recU (AEOANFJI_01632)
Holliday junction resolvase RecU</title>
			<polygon class="recU (AEOANFJI_01632)
Holliday junction resolvase RecU" points="1146,10 1165,40 1146,70" fill="rgb(255,255,255)" fill-opacity="1.0" stroke="rgb(0,0,0)" stroke-width="2"  />
			<g>
				<title>RecU (PF03838)
"Recombination protein U"</title>
				<polygon class="PF03838" points="1148,28 1154,28 1162,40 1154,52 1148,52" stroke-linejoin="round" width="16" height="24" fill="rgb(93,204,83)" stroke="rgb(74,163,66)" stroke-width="1" opacity="0.75" />
			</g>
		</g>
		<g>
			<title>ponA (AEOANFJI_01633)
Penicillin-binding protein 1A/1B</title>
			<polygon class="ponA (AEOANFJI_01633)
Penicillin-binding protein 1A/1B" points="1167,25 1225,25 1225,10 1255,40 1225,70 1225,55 1167,55" fill="rgb(255,255,255)" fill-opacity="1.0" stroke="rgb(0,0,0)" stroke-width="2"  />
			<g>
				<title>Transgly (PF00912)
"Transglycosylase"</title>
				<rect class="PF00912" x="1174" y="28" stroke-linejoin="round" width="17" height="24" fill="rgb(172,107,216)" stroke="rgb(137,85,172)" stroke-width="1" opacity="0.75" />
			</g>
			<g>
				<title>Transpeptidase (PF00905)
"Penicillin binding protein transpeptidase domain"</title>
				<rect class="PF00905" x="1201" y="28" stroke-linejoin="round" width="27" height="24" fill="rgb(161,226,87)" stroke="rgb(128,180,69)" stroke-width="1" opacity="0.75" />
			</g>
			<g>
				<title>fn3 (PF00041)
"Fibronectin type III domain"</title>
				<polygon class="PF00041" points="1234,28 1238,28 1241,31 1241,49 1238,52 1234,52" stroke-linejoin="round" width="7" height="24" fill="rgb(203,70,135)" stroke="rgb(162,56,107)" stroke-width="1" opacity="0.75" />
			</g>
		</g>
		<g>
			<title>nth (AEOANFJI_01634)
Endonuclease III</title>
			<polygon class="nth (AEOANFJI_01634)
Endonuclease III" points="1256,40 1278,10 1278,70" fill="rgb(255,255,255)" fill-opacity="1.0" stroke="rgb(0,0,0)" stroke-width="2"  />
			<g>
				<title>EndIII_4Fe-2S (PF10576)
"Iron-sulfur binding domain of endonuclease III"</title>
				<polygon class="PF10576" points="1260,40 1258,43 1258,37" stroke-linejoin="round" width="1" height="24" fill="rgb(203,113,64)" stroke="rgb(162,90,51)" stroke-width="1" opacity="0.75" />
			</g>
			<g>
				<title>HhH-GPD (PF00730)
"HhH-GPD superfamily base excision DNA repair protein"</title>
				<polygon class="PF00730" points="1260,40 1269,28 1273,28 1273,52 1269,52 1260,40" stroke-linejoin="round" width="13" height="24" fill="rgb(190,78,115)" stroke="rgb(152,62,92)" stroke-width="1" opacity="0.75" />
			</g>
		</g>
		<g>
			<title>dnaD (AEOANFJI_01635)
DNA replication protein DnaD</title>
			<polygon class="dnaD (AEOANFJI_01635)
DNA replication protein DnaD" points="1278,40 1301,10 1301,70" fill="rgb(255,255,255)" fill-opacity="1.0" stroke="rgb(0,0,0)" stroke-width="2"  />
			<g>
				<title>DnaB_2 (PF07261)
"Replication initiation and membrane attachment"</title>
				<polygon class="PF07261" points="1282,40 1288,32 1288,48" stroke-linejoin="round" width="7" height="24" fill="rgb(136,193,85)" stroke="rgb(108,154,68)" stroke-width="1" opacity="0.75" />
			</g>
		</g>
		<g>
			<title>asnS (AEOANFJI_01636)
Asparagine--tRNA ligase</title>
			<polygon class="asnS (AEOANFJI_01636)
Asparagine--tRNA ligase" points="1348,25 1335,25 1335,10 1305,40 1335,70 1335,55 1348,55" fill="rgb(255,255,255)" fill-opacity="1.0" stroke="rgb(0,0,0)" stroke-width="2"  />
			<g>
				<title>tRNA-synt_2 (PF00152)
"tRNA synthetases class II (D, K and N)"</title>
				<polygon class="PF00152" points="1309,40 1321,28 1336,28 1336,52 1321,52" stroke-linejoin="round" width="31" height="24" fill="rgb(90,71,190)" stroke="rgb(72,56,152)" stroke-width="1" opacity="0.75" />
			</g>
			<g>
				<title>tRNA_anti-codon (PF01336)
"OB-fold nucleic acid binding domain"</title>
				<rect class="PF01336" x="1338" y="28" stroke-linejoin="round" width="7" height="24" fill="rgb(215,103,173)" stroke="rgb(172,82,138)" stroke-width="1" opacity="0.75" />
			</g>
		</g>
	</g>
</svg>
