<svg version="1.1" baseProfile="full" xmlns="http://www.w3.org/2000/svg" width="366.53333333333336" height="80">
	<g>
		<line x1="10" y1="40.0" x2="356.53333333333336" y2="40.0" style="stroke:rgb(70,70,70); stroke-width:3 "/>
		<g>
			<title>mtlA (LFBLBBEA_03742)
PTS system mannitol-specific EIICB component</title>
			<polygon class="mtlA (LFBLBBEA_03742)
PTS system mannitol-specific EIICB component" points="95,25 76,25 76,10 46,40 76,70 76,55 95,55" fill="rgb(255,255,255)" fill-opacity="1.0" stroke="rgb(0,0,0)" stroke-width="2"  />
			<g>
				<title>PTS_IIB (PF02302)
"PTS system, Lactose/Cellobiose specific IIB subunit"</title>
				<polygon class="PF02302" points="50,40 54,36 54,44" stroke-linejoin="round" width="8" height="24" fill="rgb(106,212,56)" stroke="rgb(84,169,44)" stroke-width="1" opacity="0.75" />
			</g>
			<g>
				<title>PTS_EIIC (PF02378)
"Phosphotransferase system, EIIC"</title>
				<rect class="PF02378" x="66" y="28" stroke-linejoin="round" width="26" height="24" fill="rgb(73,199,212)" stroke="rgb(58,159,169)" stroke-width="1" opacity="0.75" />
			</g>
		</g>
		<g>
			<title>ectA (LFBLBBEA_03743)
L-2,4-diaminobutyric acid acetyltransferase</title>
			<polygon class="ectA (LFBLBBEA_03743)
L-2,4-diaminobutyric acid acetyltransferase" points="113,10 130,40 113,70" fill="rgb(255,255,255)" fill-opacity="1.0" stroke="rgb(0,0,0)" stroke-width="2"  />
			<g>
				<title>Acetyltransf_1 (PF00583)
"Acetyltransferase (GNAT) family"</title>
				<polygon class="PF00583" points="115,28 119,28 126,39 126,41 119,52 115,52" stroke-linejoin="round" width="11" height="24" fill="rgb(121,183,50)" stroke="rgb(96,146,39)" stroke-width="1" opacity="0.75" />
			</g>
		</g>
		<g>
			<title>ectB (LFBLBBEA_03744)
Diaminobutyrate--2-oxoglutarate transaminase</title>
			<polygon class="ectB (LFBLBBEA_03744)
Diaminobutyrate--2-oxoglutarate transaminase" points="132,25 139,25 139,10 169,40 139,70 139,55 132,55" fill="rgb(255,255,255)" fill-opacity="1.0" stroke="rgb(0,0,0)" stroke-width="2"  />
			<g>
				<title>Aminotran_3 (PF00202)
"Aminotransferase class-III"</title>
				<polygon class="PF00202" points="133,28 153,28 165,40 153,52 133,52" stroke-linejoin="round" width="35" height="24" fill="rgb(49,163,189)" stroke="rgb(39,130,151)" stroke-width="1" opacity="0.75" />
			</g>
		</g>
		<g>
			<title> (LFBLBBEA_03745)
hypothetical protein</title>
			<polygon class=" (LFBLBBEA_03745)
hypothetical protein" points="170,10 174,40 170,70" fill="rgb(255,255,255)" fill-opacity="1.0" stroke="rgb(0,0,0)" stroke-width="2"  />
		</g>
		<g>
			<title>ectC (LFBLBBEA_03746)
L-ectoine synthase</title>
			<polygon class="ectC (LFBLBBEA_03746)
L-ectoine synthase" points="176,10 189,40 176,70" fill="rgb(255,255,255)" fill-opacity="1.0" stroke="rgb(0,0,0)" stroke-width="2"  />
			<g>
				<title>Ectoine_synth (PF06339)
"Ectoine synthase"</title>
				<polygon class="PF06339" points="176,28 180,28 185,40 180,52 176,52" stroke-linejoin="round" width="12" height="24" fill="rgb(225,176,81)" stroke="rgb(180,140,64)" stroke-width="1" opacity="0.75" />
			</g>
		</g>
		<g>
			<title> (LFBLBBEA_03747)
hypothetical protein</title>
			<polygon class=" (LFBLBBEA_03747)
hypothetical protein" points="193,10 207,40 193,70" fill="rgb(255,255,255)" fill-opacity="1.0" stroke="rgb(0,0,0)" stroke-width="2"  />
			<g>
				<title>Glyoxalase (PF00903)
"Glyoxalase/Bleomycin resistance protein/Dioxygenase superfamily"</title>
				<polygon class="PF00903" points="193,28 197,28 203,40 197,52 193,52" stroke-linejoin="round" width="11" height="24" fill="rgb(50,162,189)" stroke="rgb(40,129,151)" stroke-width="1" opacity="0.75" />
			</g>
		</g>
		<g>
			<title> (LFBLBBEA_03748)
hypothetical protein</title>
			<polygon class=" (LFBLBBEA_03748)
hypothetical protein" points="207,40 210,10 210,70" fill="rgb(255,255,255)" fill-opacity="1.0" stroke="rgb(0,0,0)" stroke-width="2"  />
		</g>
		<g>
			<title> (LFBLBBEA_03749)
hypothetical protein</title>
			<polygon class=" (LFBLBBEA_03749)
hypothetical protein" points="214,40 218,10 218,70" fill="rgb(255,255,255)" fill-opacity="1.0" stroke="rgb(0,0,0)" stroke-width="2"  />
			<g>
				<title>YpzI (PF14140)
"YpzI-like protein"</title>
				<polygon class="PF14140" points="217,40 218,33 218,47" stroke-linejoin="round" width="4" height="24" fill="rgb(68,123,191)" stroke="rgb(54,98,152)" stroke-width="1" opacity="0.75" />
			</g>
		</g>
		<g>
			<title> (LFBLBBEA_03750)
hypothetical protein</title>
			<polygon class=" (LFBLBBEA_03750)
hypothetical protein" points="226,10 237,40 226,70" fill="rgb(255,255,255)" fill-opacity="1.0" stroke="rgb(0,0,0)" stroke-width="2"  />
			<g>
				<title>YrhK (PF14145)
"YrhK-like protein"</title>
				<polygon class="PF14145" points="229,28 229,28 234,40 234,40 229,52 229,52" stroke-linejoin="round" width="5" height="24" fill="rgb(102,190,225)" stroke="rgb(81,152,180)" stroke-width="1" opacity="0.75" />
			</g>
		</g>
		<g>
			<title> (LFBLBBEA_03751)
hypothetical protein</title>
			<polygon class=" (LFBLBBEA_03751)
hypothetical protein" points="238,10 259,40 238,70" fill="rgb(255,255,255)" fill-opacity="1.0" stroke="rgb(0,0,0)" stroke-width="2"  />
			<g>
				<title>DUF4396 (PF14342)
"Domain of unknown function (DUF4396)"</title>
				<polygon class="PF14342" points="245,28 247,28 256,40 247,52 245,52" stroke-linejoin="round" width="14" height="24" fill="rgb(155,209,76)" stroke="rgb(124,167,60)" stroke-width="1" opacity="0.75" />
			</g>
		</g>
		<g>
			<title> (LFBLBBEA_03752)
hypothetical protein</title>
			<polygon class=" (LFBLBBEA_03752)
hypothetical protein" points="271,40 293,10 293,70" fill="rgb(255,255,255)" fill-opacity="1.0" stroke="rgb(0,0,0)" stroke-width="2"  />
			<g>
				<title>Diphthami_syn_2 (PF01902)
"Diphthamide synthase"</title>
				<polygon class="PF01902" points="275,40 284,28 292,28 292,52 284,52" stroke-linejoin="round" width="21" height="24" fill="rgb(96,162,208)" stroke="rgb(76,129,166)" stroke-width="1" opacity="0.75" />
			</g>
		</g>
		<g>
			<title>ydbD_1 (LFBLBBEA_03753)
putative manganese catalase</title>
			<polygon class="ydbD_1 (LFBLBBEA_03753)
putative manganese catalase" points="313,40 341,10 341,70" fill="rgb(255,255,255)" fill-opacity="1.0" stroke="rgb(0,0,0)" stroke-width="2"  />
			<g>
				<title>Mn_catalase (PF05067)
"Manganese containing catalase"</title>
				<polygon class="PF05067" points="317,40 329,28 340,28 340,52 329,52" stroke-linejoin="round" width="27" height="24" fill="rgb(59,189,89)" stroke="rgb(47,151,71)" stroke-width="1" opacity="0.75" />
			</g>
		</g>
	</g>
</svg>
