<svg version="1.1" baseProfile="full" xmlns="http://www.w3.org/2000/svg" width="1389.5333333333333" height="80">
	<g>
		<line x1="10" y1="40.0" x2="1379.5333333333333" y2="40.0" style="stroke:rgb(70,70,70); stroke-width:3 "/>
		<g>
			<title> (OKCGIKJE_00643)
hypothetical protein</title>
			<polygon class=" (OKCGIKJE_00643)
hypothetical protein" points="94,10 99,40 94,70" fill="rgb(255,255,255)" fill-opacity="1.0" stroke="rgb(0,0,0)" stroke-width="2"  />
		</g>
		<g>
			<title> (OKCGIKJE_00644)
hypothetical protein</title>
			<polygon class=" (OKCGIKJE_00644)
hypothetical protein" points="98,10 115,40 98,70" fill="rgb(255,255,255)" fill-opacity="1.0" stroke="rgb(0,0,0)" stroke-width="2"  />
		</g>
		<g>
			<title> (OKCGIKJE_00645)
Aspartate aminotransferase</title>
			<polygon class=" (OKCGIKJE_00645)
Aspartate aminotransferase" points="116,25 125,25 125,10 155,40 125,70 125,55 116,55" fill="rgb(255,255,255)" fill-opacity="1.0" stroke="rgb(0,0,0)" stroke-width="2"  />
			<g>
				<title>Aminotran_1_2 (PF00155)
"Aminotransferase class I and II"</title>
				<polygon class="PF00155" points="119,28 139,28 151,40 139,52 119,52" stroke-linejoin="round" width="35" height="24" fill="rgb(89,113,198)" stroke="rgb(71,90,158)" stroke-width="1" opacity="0.75" />
			</g>
		</g>
		<g>
			<title>asnS (OKCGIKJE_00646)
Asparagine--tRNA ligase</title>
			<polygon class="asnS (OKCGIKJE_00646)
Asparagine--tRNA ligase" points="157,25 170,25 170,10 200,40 170,70 170,55 157,55" fill="rgb(255,255,255)" fill-opacity="1.0" stroke="rgb(0,0,0)" stroke-width="2"  />
			<g>
				<title>tRNA_anti-codon (PF01336)
"OB-fold nucleic acid binding domain"</title>
				<rect class="PF01336" x="158" y="28" stroke-linejoin="round" width="7" height="24" fill="rgb(215,103,173)" stroke="rgb(172,82,138)" stroke-width="1" opacity="0.75" />
			</g>
			<g>
				<title>tRNA-synt_2 (PF00152)
"tRNA synthetases class II (D, K and N)"</title>
				<polygon class="PF00152" points="167,28 183,28 195,40 183,52 167,52" stroke-linejoin="round" width="31" height="24" fill="rgb(90,71,190)" stroke="rgb(72,56,152)" stroke-width="1" opacity="0.75" />
			</g>
		</g>
		<g>
			<title>dnaD (OKCGIKJE_00647)
DNA replication protein DnaD</title>
			<polygon class="dnaD (OKCGIKJE_00647)
DNA replication protein DnaD" points="205,10 225,40 205,70" fill="rgb(255,255,255)" fill-opacity="1.0" stroke="rgb(0,0,0)" stroke-width="2"  />
			<g>
				<title>DnaB_2 (PF07261)
"Replication initiation and membrane attachment"</title>
				<polygon class="PF07261" points="215,30 222,40 222,40 215,50" stroke-linejoin="round" width="7" height="24" fill="rgb(136,193,85)" stroke="rgb(108,154,68)" stroke-width="1" opacity="0.75" />
			</g>
		</g>
		<g>
			<title>nth (OKCGIKJE_00648)
Endonuclease III</title>
			<polygon class="nth (OKCGIKJE_00648)
Endonuclease III" points="226,10 248,40 226,70" fill="rgb(255,255,255)" fill-opacity="1.0" stroke="rgb(0,0,0)" stroke-width="2"  />
			<g>
				<title>HhH-GPD (PF00730)
"HhH-GPD superfamily base excision DNA repair protein"</title>
				<polygon class="PF00730" points="229,28 235,28 242,37 242,43 235,52 229,52" stroke-linejoin="round" width="13" height="24" fill="rgb(190,78,115)" stroke="rgb(152,62,92)" stroke-width="1" opacity="0.75" />
			</g>
		</g>
		<g>
			<title>ponA (OKCGIKJE_00649)
Penicillin-binding protein 1A/1B</title>
			<polygon class="ponA (OKCGIKJE_00649)
Penicillin-binding protein 1A/1B" points="337,25 279,25 279,10 249,40 279,70 279,55 337,55" fill="rgb(255,255,255)" fill-opacity="1.0" stroke="rgb(0,0,0)" stroke-width="2"  />
			<g>
				<title>fn3 (PF00041)
"Fibronectin type III domain"</title>
				<polygon class="PF00041" points="261,32 265,28 268,28 268,52 265,52 261,48" stroke-linejoin="round" width="7" height="24" fill="rgb(203,70,135)" stroke="rgb(162,56,107)" stroke-width="1" opacity="0.75" />
			</g>
			<g>
				<title>Transpeptidase (PF00905)
"Penicillin binding protein transpeptidase domain"</title>
				<rect class="PF00905" x="275" y="28" stroke-linejoin="round" width="27" height="24" fill="rgb(161,226,87)" stroke="rgb(128,180,69)" stroke-width="1" opacity="0.75" />
			</g>
			<g>
				<title>Transgly (PF00912)
"Transglycosylase"</title>
				<rect class="PF00912" x="311" y="28" stroke-linejoin="round" width="17" height="24" fill="rgb(172,107,216)" stroke="rgb(137,85,172)" stroke-width="1" opacity="0.75" />
			</g>
		</g>
		<g>
			<title>recU_1 (OKCGIKJE_00650)
Holliday junction resolvase RecU</title>
			<polygon class="recU_1 (OKCGIKJE_00650)
Holliday junction resolvase RecU" points="338,40 357,10 357,70" fill="rgb(255,255,255)" fill-opacity="1.0" stroke="rgb(0,0,0)" stroke-width="2"  />
			<g>
				<title>RecU (PF03838)
"Recombination protein U"</title>
				<polygon class="PF03838" points="342,40 350,28 354,28 354,52 350,52" stroke-linejoin="round" width="16" height="24" fill="rgb(93,204,83)" stroke="rgb(74,163,66)" stroke-width="1" opacity="0.75" />
			</g>
		</g>
		<g>
			<title>racA (OKCGIKJE_00651)
Chromosome-anchoring protein RacA</title>
			<polygon class="racA (OKCGIKJE_00651)
Chromosome-anchoring protein RacA" points="375,10 383,40 375,70" fill="rgb(255,255,255)" fill-opacity="1.0" stroke="rgb(0,0,0)" stroke-width="2"  />
		</g>
		<g>
			<title> (OKCGIKJE_00652)
hypothetical protein</title>
			<polygon class=" (OKCGIKJE_00652)
hypothetical protein" points="385,10 397,40 385,70" fill="rgb(255,255,255)" fill-opacity="1.0" stroke="rgb(0,0,0)" stroke-width="2"  />
			<g>
				<title>DUF1798 (PF08807)
"Bacterial domain of unknown function (DUF1798)"</title>
				<polygon class="PF08807" points="385,28 388,28 394,40 388,52 385,52" stroke-linejoin="round" width="10" height="24" fill="rgb(153,201,81)" stroke="rgb(122,160,64)" stroke-width="1" opacity="0.75" />
			</g>
		</g>
		<g>
			<title>mdtC (OKCGIKJE_00653)
Multidrug resistance protein MdtC</title>
			<polygon class="mdtC (OKCGIKJE_00653)
Multidrug resistance protein MdtC" points="508,25 437,25 437,10 407,40 437,70 437,55 508,55" fill="rgb(255,255,255)" fill-opacity="1.0" stroke="rgb(0,0,0)" stroke-width="2"  />
			<g>
				<title>ACR_tran (PF00873)
"AcrB/AcrD/AcrF family"</title>
				<polygon class="PF00873" points="411,40 423,28 508,28 508,52 423,52" stroke-linejoin="round" width="101" height="24" fill="rgb(63,191,60)" stroke="rgb(50,152,48)" stroke-width="1" opacity="0.75" />
			</g>
		</g>
		<g>
			<title>cdd (OKCGIKJE_00654)
Cytidine deaminase</title>
			<polygon class="cdd (OKCGIKJE_00654)
Cytidine deaminase" points="514,10 527,40 514,70" fill="rgb(255,255,255)" fill-opacity="1.0" stroke="rgb(0,0,0)" stroke-width="2"  />
			<g>
				<title>dCMP_cyt_deam_1 (PF00383)
"Cytidine and deoxycytidylate deaminase zinc-binding region"</title>
				<polygon class="PF00383" points="514,28 518,28 524,40 524,40 518,52 514,52" stroke-linejoin="round" width="10" height="24" fill="rgb(91,149,216)" stroke="rgb(72,119,172)" stroke-width="1" opacity="0.75" />
			</g>
		</g>
		<g>
			<title> (OKCGIKJE_00655)
hypothetical protein</title>
			<polygon class=" (OKCGIKJE_00655)
hypothetical protein" points="530,10 548,40 530,70" fill="rgb(255,255,255)" fill-opacity="1.0" stroke="rgb(0,0,0)" stroke-width="2"  />
			<g>
				<title>YpsA (PF06908)
"YspA SLOG family"</title>
				<polygon class="PF06908" points="530,28 537,28 545,40 537,52 530,52" stroke-linejoin="round" width="16" height="24" fill="rgb(136,100,209)" stroke="rgb(108,80,167)" stroke-width="1" opacity="0.75" />
			</g>
		</g>
		<g>
			<title>gpsB (OKCGIKJE_00656)
Cell cycle protein GpsB</title>
			<polygon class="gpsB (OKCGIKJE_00656)
Cell cycle protein GpsB" points="553,10 563,40 553,70" fill="rgb(255,255,255)" fill-opacity="1.0" stroke="rgb(0,0,0)" stroke-width="2"  />
			<g>
				<title>DivIVA (PF05103)
"DivIVA protein"</title>
				<polygon class="PF05103" points="553,28 555,28 558,33 558,47 555,52 553,52" stroke-linejoin="round" width="5" height="24" fill="rgb(213,106,117)" stroke="rgb(170,84,93)" stroke-width="1" opacity="0.75" />
			</g>
		</g>
		<g>
			<title>rlmL (OKCGIKJE_00657)
Ribosomal RNA large subunit methyltransferase L</title>
			<polygon class="rlmL (OKCGIKJE_00657)
Ribosomal RNA large subunit methyltransferase L" points="583,25 590,25 590,10 620,40 590,70 590,55 583,55" fill="rgb(255,255,255)" fill-opacity="1.0" stroke="rgb(0,0,0)" stroke-width="2"  />
			<g>
				<title>THUMP (PF02926)
"THUMP domain"</title>
				<rect class="PF02926" x="584" y="28" stroke-linejoin="round" width="14" height="24" fill="rgb(52,209,163)" stroke="rgb(41,167,130)" stroke-width="1" opacity="0.75" />
			</g>
			<g>
				<title>UPF0020 (PF01170)
"Putative RNA methylase family UPF0020"</title>
				<polygon class="PF01170" points="599,28 604,28 616,40 604,52 599,52" stroke-linejoin="round" width="20" height="24" fill="rgb(89,182,69)" stroke="rgb(71,145,55)" stroke-width="1" opacity="0.75" />
			</g>
		</g>
		<g>
			<title>ypwA (OKCGIKJE_00658)
Carboxypeptidase 1</title>
			<polygon class="ypwA (OKCGIKJE_00658)
Carboxypeptidase 1" points="621,25 640,25 640,10 670,40 640,70 640,55 621,55" fill="rgb(255,255,255)" fill-opacity="1.0" stroke="rgb(0,0,0)" stroke-width="2"  />
			<g>
				<title>Peptidase_M32 (PF02074)
"Carboxypeptidase Taq (M32) metallopeptidase"</title>
				<polygon class="PF02074" points="621,28 654,28 666,40 654,52 621,52" stroke-linejoin="round" width="48" height="24" fill="rgb(213,142,93)" stroke="rgb(170,113,74)" stroke-width="1" opacity="0.75" />
			</g>
		</g>
		<g>
			<title> (OKCGIKJE_00659)
Alpha-pyrone synthesis polyketide synthase-like Pks11</title>
			<polygon class=" (OKCGIKJE_00659)
Alpha-pyrone synthesis polyketide synthase-like Pks11" points="676,25 682,25 682,10 712,40 682,70 682,55 676,55" fill="rgb(255,255,255)" fill-opacity="1.0" stroke="rgb(0,0,0)" stroke-width="2"  />
			<g>
				<title>Chal_sti_synt_N (PF00195)
"Chalcone and stilbene synthases, N-terminal domain"</title>
				<polygon class="PF00195" points="679,28 695,28 696,29 696,51 695,52 679,52" stroke-linejoin="round" width="17" height="24" fill="rgb(60,181,161)" stroke="rgb(47,144,128)" stroke-width="1" opacity="0.75" />
			</g>
			<g>
				<title>Chal_sti_synt_C (PF02797)
"Chalcone and stilbene synthases, C-terminal domain"</title>
				<polygon class="PF02797" points="698,31 707,40 698,49" stroke-linejoin="round" width="13" height="24" fill="rgb(139,212,63)" stroke="rgb(111,169,50)" stroke-width="1" opacity="0.75" />
			</g>
		</g>
		<g>
			<title> (OKCGIKJE_00660)
hypothetical protein</title>
			<polygon class=" (OKCGIKJE_00660)
hypothetical protein" points="712,10 728,40 712,70" fill="rgb(255,255,255)" fill-opacity="1.0" stroke="rgb(0,0,0)" stroke-width="2"  />
			<g>
				<title>ICMT (PF04140)
"Isoprenylcysteine carboxyl methyltransferase (ICMT) family"</title>
				<polygon class="PF04140" points="718,28 718,28 725,40 718,52 718,52" stroke-linejoin="round" width="9" height="24" fill="rgb(100,223,104)" stroke="rgb(80,178,83)" stroke-width="1" opacity="0.75" />
			</g>
		</g>
		<g>
			<title> (OKCGIKJE_00661)
hypothetical protein</title>
			<polygon class=" (OKCGIKJE_00661)
hypothetical protein" points="733,10 743,40 733,70" fill="rgb(255,255,255)" fill-opacity="1.0" stroke="rgb(0,0,0)" stroke-width="2"  />
		</g>
		<g>
			<title>rnhA (OKCGIKJE_00662)
14.7 kDa ribonuclease H-like protein</title>
			<polygon class="rnhA (OKCGIKJE_00662)
14.7 kDa ribonuclease H-like protein" points="746,40 758,10 758,70" fill="rgb(255,255,255)" fill-opacity="1.0" stroke="rgb(0,0,0)" stroke-width="2"  />
			<g>
				<title>RNase_H (PF00075)
"RNase H"</title>
				<polygon class="PF00075" points="749,40 754,28 758,28 758,52 754,52" stroke-linejoin="round" width="12" height="24" fill="rgb(225,86,224)" stroke="rgb(180,68,179)" stroke-width="1" opacity="0.75" />
			</g>
		</g>
		<g>
			<title>fhs (OKCGIKJE_00663)
Formate--tetrahydrofolate ligase</title>
			<polygon class="fhs (OKCGIKJE_00663)
Formate--tetrahydrofolate ligase" points="769,25 794,25 794,10 824,40 794,70 794,55 769,55" fill="rgb(255,255,255)" fill-opacity="1.0" stroke="rgb(0,0,0)" stroke-width="2"  />
			<g>
				<title>FTHFS (PF01268)
"Formate--tetrahydrofolate ligase"</title>
				<polygon class="PF01268" points="769,28 808,28 820,40 808,52 769,52" stroke-linejoin="round" width="55" height="24" fill="rgb(215,182,81)" stroke="rgb(172,145,64)" stroke-width="1" opacity="0.75" />
			</g>
		</g>
		<g>
			<title> (OKCGIKJE_00664)
hypothetical protein</title>
			<polygon class=" (OKCGIKJE_00664)
hypothetical protein" points="826,10 854,40 826,70" fill="rgb(255,255,255)" fill-opacity="1.0" stroke="rgb(0,0,0)" stroke-width="2"  />
			<g>
				<title>DUF72 (PF01904)
"Protein of unknown function DUF72"</title>
				<polygon class="PF01904" points="827,28 838,28 850,40 838,52 827,52" stroke-linejoin="round" width="24" height="24" fill="rgb(63,151,204)" stroke="rgb(50,120,163)" stroke-width="1" opacity="0.75" />
			</g>
		</g>
		<g>
			<title>yedJ (OKCGIKJE_00665)
putative protein YedJ</title>
			<polygon class="yedJ (OKCGIKJE_00665)
putative protein YedJ" points="854,10 874,40 854,70" fill="rgb(255,255,255)" fill-opacity="1.0" stroke="rgb(0,0,0)" stroke-width="2"  />
			<g>
				<title>HD (PF01966)
"HD domain"</title>
				<polygon class="PF01966" points="856,28 862,28 865,32 865,48 862,52 856,52" stroke-linejoin="round" width="9" height="24" fill="rgb(92,193,119)" stroke="rgb(73,154,95)" stroke-width="1" opacity="0.75" />
			</g>
		</g>
		<g>
			<title>thyA (OKCGIKJE_00666)
Thymidylate synthase</title>
			<polygon class="thyA (OKCGIKJE_00666)
Thymidylate synthase" points="875,25 876,25 876,10 906,40 876,70 876,55 875,55" fill="rgb(255,255,255)" fill-opacity="1.0" stroke="rgb(0,0,0)" stroke-width="2"  />
			<g>
				<title>Thymidylat_synt (PF00303)
"Thymidylate synthase"</title>
				<polygon class="PF00303" points="875,28 890,28 902,40 890,52 875,52" stroke-linejoin="round" width="31" height="24" fill="rgb(103,91,191)" stroke="rgb(82,72,152)" stroke-width="1" opacity="0.75" />
			</g>
		</g>
		<g>
			<title> (OKCGIKJE_00667)
IS1595 family transposase ISSsu9</title>
			<polygon class=" (OKCGIKJE_00667)
IS1595 family transposase ISSsu9" points="907,10 923,40 907,70" fill="rgb(255,255,255)" fill-opacity="1.0" stroke="rgb(0,0,0)" stroke-width="2"  />
			<g>
				<title>DHFR_1 (PF00186)
"Dihydrofolate reductase"</title>
				<polygon class="PF00186" points="907,28 913,28 920,40 913,52 907,52" stroke-linejoin="round" width="16" height="24" fill="rgb(150,188,63)" stroke="rgb(119,150,50)" stroke-width="1" opacity="0.75" />
			</g>
		</g>
		<g>
			<title>mobA (OKCGIKJE_00668)
putative molybdenum cofactor guanylyltransferase</title>
			<polygon class="mobA (OKCGIKJE_00668)
putative molybdenum cofactor guanylyltransferase" points="924,10 943,40 924,70" fill="rgb(255,255,255)" fill-opacity="1.0" stroke="rgb(0,0,0)" stroke-width="2"  />
			<g>
				<title>NTP_transf_3 (PF12804)
"MobA-like NTP transferase domain"</title>
				<polygon class="PF12804" points="924,28 932,28 939,39 939,41 932,52 924,52" stroke-linejoin="round" width="15" height="24" fill="rgb(52,209,196)" stroke="rgb(41,167,156)" stroke-width="1" opacity="0.75" />
			</g>
		</g>
		<g>
			<title>tatAd_1 (OKCGIKJE_00669)
Sec-independent protein translocase protein TatAd</title>
			<polygon class="tatAd_1 (OKCGIKJE_00669)
Sec-independent protein translocase protein TatAd" points="947,10 953,40 947,70" fill="rgb(255,255,255)" fill-opacity="1.0" stroke="rgb(0,0,0)" stroke-width="2"  />
			<g>
				<title>MttA_Hcf106 (PF02416)
"mttA/Hcf106 family"</title>
				<polygon class="PF02416" points="947,28 947,28 950,40 947,52 947,52" stroke-linejoin="round" width="5" height="24" fill="rgb(74,206,98)" stroke="rgb(59,164,78)" stroke-width="1" opacity="0.75" />
			</g>
		</g>
		<g>
			<title>tatA (OKCGIKJE_00670)
Sec-independent protein translocase protein TatA</title>
			<polygon class="tatA (OKCGIKJE_00670)
Sec-independent protein translocase protein TatA" points="955,10 961,40 955,70" fill="rgb(255,255,255)" fill-opacity="1.0" stroke="rgb(0,0,0)" stroke-width="2"  />
			<g>
				<title>MttA_Hcf106 (PF02416)
"mttA/Hcf106 family"</title>
				<polygon class="PF02416" points="955,28 955,28 958,40 955,52 955,52" stroke-linejoin="round" width="5" height="24" fill="rgb(74,206,98)" stroke="rgb(59,164,78)" stroke-width="1" opacity="0.75" />
			</g>
		</g>
		<g>
			<title>tatC1_1 (OKCGIKJE_00671)
Sec-independent protein translocase protein TatCd</title>
			<polygon class="tatC1_1 (OKCGIKJE_00671)
Sec-independent protein translocase protein TatCd" points="963,10 988,40 963,70" fill="rgb(255,255,255)" fill-opacity="1.0" stroke="rgb(0,0,0)" stroke-width="2"  />
			<g>
				<title>TatC (PF00902)
"Sec-independent protein translocase protein (TatC)"</title>
				<polygon class="PF00902" points="964,28 974,28 984,40 984,40 974,52 964,52" stroke-linejoin="round" width="20" height="24" fill="rgb(84,193,209)" stroke="rgb(67,154,167)" stroke-width="1" opacity="0.75" />
			</g>
		</g>
		<g>
			<title> (OKCGIKJE_00672)
hypothetical protein</title>
			<polygon class=" (OKCGIKJE_00672)
hypothetical protein" points="991,10 998,40 991,70" fill="rgb(255,255,255)" fill-opacity="1.0" stroke="rgb(0,0,0)" stroke-width="2"  />
			<g>
				<title>YozE_SAM_like (PF06855)
"YozE SAM-like fold"</title>
				<polygon class="PF06855" points="991,28 991,28 995,40 991,52 991,52" stroke-linejoin="round" width="6" height="24" fill="rgb(83,201,171)" stroke="rgb(66,160,136)" stroke-width="1" opacity="0.75" />
			</g>
		</g>
		<g>
			<title>sbcD (OKCGIKJE_00673)
Nuclease SbcCD subunit D</title>
			<polygon class="sbcD (OKCGIKJE_00673)
Nuclease SbcCD subunit D" points="1002,25 1010,25 1010,10 1040,40 1010,70 1010,55 1002,55" fill="rgb(255,255,255)" fill-opacity="1.0" stroke="rgb(0,0,0)" stroke-width="2"  />
			<g>
				<title>Metallophos (PF00149)
"Calcineurin-like phosphoesterase"</title>
				<rect class="PF00149" x="1002" y="28" stroke-linejoin="round" width="21" height="24" fill="rgb(181,197,58)" stroke="rgb(144,157,46)" stroke-width="1" opacity="0.75" />
			</g>
			<g>
				<title>SbcD_C (PF12320)
"Type 5 capsule protein repressor C-terminal domain"</title>
				<polygon class="PF12320" points="1028,33 1035,40 1028,47" stroke-linejoin="round" width="9" height="24" fill="rgb(182,136,65)" stroke="rgb(145,108,52)" stroke-width="1" opacity="0.75" />
			</g>
		</g>
		<g>
			<title> (OKCGIKJE_00674)
hypothetical protein</title>
			<polygon class=" (OKCGIKJE_00674)
hypothetical protein" points="1040,25 1113,25 1113,10 1143,40 1113,70 1113,55 1040,55" fill="rgb(255,255,255)" fill-opacity="1.0" stroke="rgb(0,0,0)" stroke-width="2"  />
			<g>
				<title>AAA_23 (PF13476)
"AAA domain"</title>
				<rect class="PF13476" x="1040" y="28" stroke-linejoin="round" width="39" height="24" fill="rgb(57,185,214)" stroke="rgb(45,147,171)" stroke-width="1" opacity="0.75" />
			</g>
			<g>
				<title>SbcCD_C (PF13558)
"Putative exonuclease SbcCD, C subunit"</title>
				<polygon class="PF13558" points="1131,32 1139,40 1139,40 1131,48" stroke-linejoin="round" width="8" height="24" fill="rgb(84,179,84)" stroke="rgb(67,143,67)" stroke-width="1" opacity="0.75" />
			</g>
		</g>
		<g>
			<title>ytmB (OKCGIKJE_00675)
putative protein YtmB</title>
			<polygon class="ytmB (OKCGIKJE_00675)
putative protein YtmB" points="1145,10 1153,40 1145,70" fill="rgb(255,255,255)" fill-opacity="1.0" stroke="rgb(0,0,0)" stroke-width="2"  />
			<g>
				<title>DUF2584 (PF10763)
"Protein of unknown function (DUF2584)"</title>
				<polygon class="PF10763" points="1145,28 1146,28 1150,40 1146,52 1145,52" stroke-linejoin="round" width="8" height="24" fill="rgb(118,211,56)" stroke="rgb(94,168,44)" stroke-width="1" opacity="0.75" />
			</g>
		</g>
		<g>
			<title>ung (OKCGIKJE_00676)
Uracil-DNA glycosylase</title>
			<polygon class="ung (OKCGIKJE_00676)
Uracil-DNA glycosylase" points="1157,10 1179,40 1157,70" fill="rgb(255,255,255)" fill-opacity="1.0" stroke="rgb(0,0,0)" stroke-width="2"  />
			<g>
				<title>UDG (PF03167)
"Uracil DNA glycosylase superfamily"</title>
				<polygon class="PF03167" points="1161,28 1167,28 1175,40 1167,52 1161,52" stroke-linejoin="round" width="16" height="24" fill="rgb(64,224,60)" stroke="rgb(51,179,48)" stroke-width="1" opacity="0.75" />
			</g>
		</g>
		<g>
			<title> (OKCGIKJE_00677)
hypothetical protein</title>
			<polygon class=" (OKCGIKJE_00677)
hypothetical protein" points="1181,10 1197,40 1181,70" fill="rgb(255,255,255)" fill-opacity="1.0" stroke="rgb(0,0,0)" stroke-width="2"  />
			<g>
				<title>YqfQ (PF14181)
"YqfQ-like protein"</title>
				<polygon class="PF14181" points="1182,28 1187,28 1194,40 1187,52 1182,52" stroke-linejoin="round" width="15" height="24" fill="rgb(207,119,57)" stroke="rgb(165,95,45)" stroke-width="1" opacity="0.75" />
			</g>
		</g>
		<g>
			<title>msrAB (OKCGIKJE_00678)
Peptide methionine sulfoxide reductase MsrA/MsrB</title>
			<polygon class="msrAB (OKCGIKJE_00678)
Peptide methionine sulfoxide reductase MsrA/MsrB" points="1201,25 1203,25 1203,10 1233,40 1203,70 1203,55 1201,55" fill="rgb(255,255,255)" fill-opacity="1.0" stroke="rgb(0,0,0)" stroke-width="2"  />
			<g>
				<title>PMSR (PF01625)
"Peptide methionine sulfoxide reductase"</title>
				<rect class="PF01625" x="1201" y="28" stroke-linejoin="round" width="15" height="24" fill="rgb(201,74,176)" stroke="rgb(160,59,140)" stroke-width="1" opacity="0.75" />
			</g>
			<g>
				<title>SelR (PF01641)
"SelR domain"</title>
				<polygon class="PF01641" points="1219,30 1229,40 1219,50" stroke-linejoin="round" width="12" height="24" fill="rgb(192,99,202)" stroke="rgb(153,79,161)" stroke-width="1" opacity="0.75" />
			</g>
		</g>
		<g>
			<title> (OKCGIKJE_00679)
hypothetical protein</title>
			<polygon class=" (OKCGIKJE_00679)
hypothetical protein" points="1242,10 1261,40 1242,70" fill="rgb(255,255,255)" fill-opacity="1.0" stroke="rgb(0,0,0)" stroke-width="2"  />
			<g>
				<title>TetR_N (PF00440)
"Bacterial regulatory proteins, tetR family"</title>
				<rect class="PF00440" x="1243" y="28" stroke-linejoin="round" width="4" height="24" fill="rgb(73,212,190)" stroke="rgb(58,169,152)" stroke-width="1" opacity="0.75" />
			</g>
		</g>
		<g>
			<title> (OKCGIKJE_00680)
hypothetical protein</title>
			<polygon class=" (OKCGIKJE_00680)
hypothetical protein" points="1261,40 1283,10 1283,70" fill="rgb(255,255,255)" fill-opacity="1.0" stroke="rgb(0,0,0)" stroke-width="2"  />
			<g>
				<title>Acetyltransf_1 (PF00583)
"Acetyltransferase (GNAT) family"</title>
				<polygon class="PF00583" points="1267,37 1274,28 1280,28 1280,52 1274,52 1267,43" stroke-linejoin="round" width="13" height="24" fill="rgb(121,183,50)" stroke="rgb(96,146,39)" stroke-width="1" opacity="0.75" />
			</g>
		</g>
		<g>
			<title>mhqD (OKCGIKJE_00681)
Putative hydrolase MhqD</title>
			<polygon class="mhqD (OKCGIKJE_00681)
Putative hydrolase MhqD" points="1288,10 1308,40 1288,70" fill="rgb(255,255,255)" fill-opacity="1.0" stroke="rgb(0,0,0)" stroke-width="2"  />
			<g>
				<title>DLH (PF01738)
"Dienelactone hydrolase family"</title>
				<polygon class="PF01738" points="1293,28 1296,28 1304,40 1296,52 1293,52" stroke-linejoin="round" width="14" height="24" fill="rgb(188,185,48)" stroke="rgb(150,147,38)" stroke-width="1" opacity="0.75" />
			</g>
		</g>
		<g>
			<title> (OKCGIKJE_00682)
hypothetical protein</title>
			<polygon class=" (OKCGIKJE_00682)
hypothetical protein" points="1310,10 1316,40 1310,70" fill="rgb(255,255,255)" fill-opacity="1.0" stroke="rgb(0,0,0)" stroke-width="2"  />
		</g>
		<g>
			<title> (OKCGIKJE_00683)
hypothetical protein</title>
			<polygon class=" (OKCGIKJE_00683)
hypothetical protein" points="1322,10 1340,40 1322,70" fill="rgb(255,255,255)" fill-opacity="1.0" stroke="rgb(0,0,0)" stroke-width="2"  />
			<g>
				<title>His_Phos_1 (PF00300)
"Histidine phosphatase superfamily (branch 1)"</title>
				<polygon class="PF00300" points="1322,28 1329,28 1336,40 1329,52 1322,52" stroke-linejoin="round" width="17" height="24" fill="rgb(135,184,63)" stroke="rgb(107,147,50)" stroke-width="1" opacity="0.75" />
			</g>
		</g>
		<g>
			<title>fdxA (OKCGIKJE_00684)
Ferredoxin 7Fe</title>
			<polygon class="fdxA (OKCGIKJE_00684)
Ferredoxin 7Fe" points="1345,10 1353,40 1345,70" fill="rgb(255,255,255)" fill-opacity="1.0" stroke="rgb(0,0,0)" stroke-width="2"  />
			<g>
				<title>Fer4 (PF00037)
"4Fe-4S binding domain"</title>
				<polygon class="PF00037" points="1348,33 1349,40 1348,47" stroke-linejoin="round" width="2" height="24" fill="rgb(226,193,80)" stroke="rgb(180,154,64)" stroke-width="1" opacity="0.75" />
			</g>
		</g>
	</g>
</svg>
