<svg version="1.1" baseProfile="full" xmlns="http://www.w3.org/2000/svg" width="738.7666666666667" height="80">
	<g>
		<line x1="10" y1="40.0" x2="728.7666666666667" y2="40.0" style="stroke:rgb(70,70,70); stroke-width:3 "/>
		<g>
			<title>yfkO (AOOJJHNM_01412)
Putative NAD(P)H nitroreductase YfkO</title>
			<polygon class="yfkO (AOOJJHNM_01412)
Putative NAD(P)H nitroreductase YfkO" points="21,40 43,10 43,70" fill="rgb(255,255,255)" fill-opacity="1.0" stroke="rgb(0,0,0)" stroke-width="2"  />
			<g>
				<title>Nitroreductase (PF00881)
"Nitroreductase family"</title>
				<polygon class="PF00881" points="25,40 34,28 41,28 41,52 34,52" stroke-linejoin="round" width="18" height="24" fill="rgb(79,118,187)" stroke="rgb(63,94,149)" stroke-width="1" opacity="0.75" />
			</g>
		</g>
		<g>
			<title> (AOOJJHNM_01413)
hypothetical protein</title>
			<polygon class=" (AOOJJHNM_01413)
hypothetical protein" points="46,40 67,10 67,70" fill="rgb(255,255,255)" fill-opacity="1.0" stroke="rgb(0,0,0)" stroke-width="2"  />
		</g>
		<g>
			<title>ybiT_1 (AOOJJHNM_01414)
putative ABC transporter ATP-binding protein YbiT</title>
			<polygon class="ybiT_1 (AOOJJHNM_01414)
putative ABC transporter ATP-binding protein YbiT" points="123,25 102,25 102,10 72,40 102,70 102,55 123,55" fill="rgb(255,255,255)" fill-opacity="1.0" stroke="rgb(0,0,0)" stroke-width="2"  />
			<g>
				<title>ABC_tran (PF00005)
"ABC transporter"</title>
				<polygon class="PF00005" points="77,39 88,28 89,28 89,52 88,52 77,41" stroke-linejoin="round" width="12" height="24" fill="rgb(129,201,63)" stroke="rgb(103,160,50)" stroke-width="1" opacity="0.75" />
			</g>
			<g>
				<title>ABC_tran_Xtn (PF12848)
"ABC transporter"</title>
				<rect class="PF12848" x="92" y="28" stroke-linejoin="round" width="8" height="24" fill="rgb(54,177,199)" stroke="rgb(43,141,159)" stroke-width="1" opacity="0.75" />
			</g>
			<g>
				<title>ABC_tran (PF00005)
"ABC transporter"</title>
				<rect class="PF00005" x="104" y="28" stroke-linejoin="round" width="17" height="24" fill="rgb(129,201,63)" stroke="rgb(103,160,50)" stroke-width="1" opacity="0.75" />
			</g>
		</g>
		<g>
			<title>trxB_2 (AOOJJHNM_01415)
Thioredoxin reductase</title>
			<polygon class="trxB_2 (AOOJJHNM_01415)
Thioredoxin reductase" points="128,10 157,40 128,70" fill="rgb(255,255,255)" fill-opacity="1.0" stroke="rgb(0,0,0)" stroke-width="2"  />
			<g>
				<title>Pyr_redox_2 (PF07992)
"Pyridine nucleotide-disulphide oxidoreductase"</title>
				<polygon class="PF07992" points="128,28 141,28 153,40 141,52 128,52" stroke-linejoin="round" width="27" height="24" fill="rgb(83,223,167)" stroke="rgb(66,178,133)" stroke-width="1" opacity="0.75" />
			</g>
		</g>
		<g>
			<title>nhaP2_1 (AOOJJHNM_01416)
K(+)/H(+) antiporter NhaP2</title>
			<polygon class="nhaP2_1 (AOOJJHNM_01416)
K(+)/H(+) antiporter NhaP2" points="163,25 183,25 183,10 213,40 183,70 183,55 163,55" fill="rgb(255,255,255)" fill-opacity="1.0" stroke="rgb(0,0,0)" stroke-width="2"  />
			<g>
				<title>Na_H_Exchanger (PF00999)
"Sodium/hydrogen exchanger family"</title>
				<polygon class="PF00999" points="164,28 197,28 202,33 202,47 197,52 164,52" stroke-linejoin="round" width="38" height="24" fill="rgb(229,67,191)" stroke="rgb(183,53,152)" stroke-width="1" opacity="0.75" />
			</g>
			<g>
				<title>TrkA_C (PF02080)
"TrkA-C domain"</title>
				<polygon class="PF02080" points="204,35 209,40 204,45" stroke-linejoin="round" width="6" height="24" fill="rgb(76,186,211)" stroke="rgb(60,148,168)" stroke-width="1" opacity="0.75" />
			</g>
		</g>
		<g>
			<title> (AOOJJHNM_01417)
hypothetical protein</title>
			<polygon class=" (AOOJJHNM_01417)
hypothetical protein" points="235,10 249,40 235,70" fill="rgb(255,255,255)" fill-opacity="1.0" stroke="rgb(0,0,0)" stroke-width="2"  />
			<g>
				<title>DMT_YdcZ (PF04657)
"Putative inner membrane exporter, YdcZ"</title>
				<polygon class="PF04657" points="235,28 240,28 245,40 240,52 235,52" stroke-linejoin="round" width="13" height="24" fill="rgb(63,139,178)" stroke="rgb(50,111,142)" stroke-width="1" opacity="0.75" />
			</g>
		</g>
		<g>
			<title>yeiL (AOOJJHNM_01418)
Regulatory protein YeiL</title>
			<polygon class="yeiL (AOOJJHNM_01418)
Regulatory protein YeiL" points="250,10 273,40 250,70" fill="rgb(255,255,255)" fill-opacity="1.0" stroke="rgb(0,0,0)" stroke-width="2"  />
			<g>
				<title>cNMP_binding (PF00027)
"Cyclic nucleotide-binding domain"</title>
				<polygon class="PF00027" points="253,28 260,28 261,30 261,50 260,52 253,52" stroke-linejoin="round" width="8" height="24" fill="rgb(138,95,204)" stroke="rgb(110,76,163)" stroke-width="1" opacity="0.75" />
			</g>
			<g>
				<title>HTH_Crp_2 (PF13545)
"Crp-like helix-turn-helix domain"</title>
				<polygon class="PF13545" points="265,35 269,40 265,45" stroke-linejoin="round" width="7" height="24" fill="rgb(87,137,202)" stroke="rgb(69,109,161)" stroke-width="1" opacity="0.75" />
			</g>
		</g>
		<g>
			<title> (AOOJJHNM_01419)
hypothetical protein</title>
			<polygon class=" (AOOJJHNM_01419)
hypothetical protein" points="274,10 289,40 274,70" fill="rgb(255,255,255)" fill-opacity="1.0" stroke="rgb(0,0,0)" stroke-width="2"  />
			<g>
				<title>DMT_YdcZ (PF04657)
"Putative inner membrane exporter, YdcZ"</title>
				<polygon class="PF04657" points="274,28 279,28 286,40 279,52 274,52" stroke-linejoin="round" width="13" height="24" fill="rgb(63,139,178)" stroke="rgb(50,111,142)" stroke-width="1" opacity="0.75" />
			</g>
		</g>
		<g>
			<title> (AOOJJHNM_01420)
hypothetical protein</title>
			<polygon class=" (AOOJJHNM_01420)
hypothetical protein" points="291,40 320,10 320,70" fill="rgb(255,255,255)" fill-opacity="1.0" stroke="rgb(0,0,0)" stroke-width="2"  />
			<g>
				<title>Mn_catalase (PF05067)
"Manganese containing catalase"</title>
				<polygon class="PF05067" points="295,40 307,28 320,28 320,52 307,52" stroke-linejoin="round" width="29" height="24" fill="rgb(59,189,89)" stroke="rgb(47,151,71)" stroke-width="1" opacity="0.75" />
			</g>
		</g>
		<g>
			<title> (AOOJJHNM_01421)
hypothetical protein</title>
			<polygon class=" (AOOJJHNM_01421)
hypothetical protein" points="321,40 328,10 328,70" fill="rgb(255,255,255)" fill-opacity="1.0" stroke="rgb(0,0,0)" stroke-width="2"  />
			<g>
				<title>DUF2642 (PF10842)
"Protein of unknown function (DUF2642)"</title>
				<polygon class="PF10842" points="324,40 327,28 327,28 327,52 327,52" stroke-linejoin="round" width="6" height="24" fill="rgb(204,85,172)" stroke="rgb(163,68,137)" stroke-width="1" opacity="0.75" />
			</g>
		</g>
		<g>
			<title>sqhC (AOOJJHNM_01422)
Sporulenol synthase</title>
			<polygon class="sqhC (AOOJJHNM_01422)
Sporulenol synthase" points="395,25 364,25 364,10 334,40 364,70 364,55 395,55" fill="rgb(255,255,255)" fill-opacity="1.0" stroke="rgb(0,0,0)" stroke-width="2"  />
			<g>
				<title>SQHop_cyclase_C (PF13243)
"Squalene-hopene cyclase C-terminal domain"</title>
				<polygon class="PF13243" points="338,40 350,28 365,28 365,52 350,52" stroke-linejoin="round" width="31" height="24" fill="rgb(191,58,201)" stroke="rgb(152,46,160)" stroke-width="1" opacity="0.75" />
			</g>
			<g>
				<title>SQHop_cyclase_N (PF13249)
"Squalene-hopene cyclase N-terminal domain"</title>
				<rect class="PF13249" x="366" y="28" stroke-linejoin="round" width="28" height="24" fill="rgb(88,190,89)" stroke="rgb(70,152,71)" stroke-width="1" opacity="0.75" />
			</g>
		</g>
		<g>
			<title>resA_1 (AOOJJHNM_01423)
Thiol-disulfide oxidoreductase ResA</title>
			<polygon class="resA_1 (AOOJJHNM_01423)
Thiol-disulfide oxidoreductase ResA" points="399,40 415,10 415,70" fill="rgb(255,255,255)" fill-opacity="1.0" stroke="rgb(0,0,0)" stroke-width="2"  />
			<g>
				<title>AhpC-TSA (PF00578)
"AhpC/TSA family"</title>
				<polygon class="PF00578" points="402,40 409,28 414,28 414,52 409,52" stroke-linejoin="round" width="13" height="24" fill="rgb(166,71,190)" stroke="rgb(132,56,152)" stroke-width="1" opacity="0.75" />
			</g>
		</g>
		<g>
			<title> (AOOJJHNM_01424)
hypothetical protein</title>
			<polygon class=" (AOOJJHNM_01424)
hypothetical protein" points="428,10 448,40 428,70" fill="rgb(255,255,255)" fill-opacity="1.0" stroke="rgb(0,0,0)" stroke-width="2"  />
		</g>
		<g>
			<title> (AOOJJHNM_01425)
hypothetical protein</title>
			<polygon class=" (AOOJJHNM_01425)
hypothetical protein" points="452,10 466,40 452,70" fill="rgb(255,255,255)" fill-opacity="1.0" stroke="rgb(0,0,0)" stroke-width="2"  />
			<g>
				<title>DUF4871 (PF16167)
"Domain of unknown function (DUF4871)"</title>
				<polygon class="PF16167" points="454,28 457,28 462,40 457,52 454,52" stroke-linejoin="round" width="11" height="24" fill="rgb(198,98,115)" stroke="rgb(158,78,91)" stroke-width="1" opacity="0.75" />
			</g>
		</g>
		<g>
			<title> (AOOJJHNM_01426)
hypothetical protein</title>
			<polygon class=" (AOOJJHNM_01426)
hypothetical protein" points="467,10 473,40 467,70" fill="rgb(255,255,255)" fill-opacity="1.0" stroke="rgb(0,0,0)" stroke-width="2"  />
		</g>
		<g>
			<title> (AOOJJHNM_01427)
hypothetical protein</title>
			<polygon class=" (AOOJJHNM_01427)
hypothetical protein" points="474,10 484,40 474,70" fill="rgb(255,255,255)" fill-opacity="1.0" stroke="rgb(0,0,0)" stroke-width="2"  />
		</g>
		<g>
			<title> (AOOJJHNM_01428)
hypothetical protein</title>
			<polygon class=" (AOOJJHNM_01428)
hypothetical protein" points="484,10 498,40 484,70" fill="rgb(255,255,255)" fill-opacity="1.0" stroke="rgb(0,0,0)" stroke-width="2"  />
			<g>
				<title>Acetyltransf_1 (PF00583)
"Acetyltransferase (GNAT) family"</title>
				<polygon class="PF00583" points="484,28 489,28 495,40 489,52 484,52" stroke-linejoin="round" width="12" height="24" fill="rgb(121,183,50)" stroke="rgb(96,146,39)" stroke-width="1" opacity="0.75" />
			</g>
		</g>
		<g>
			<title> (AOOJJHNM_01429)
hypothetical protein</title>
			<polygon class=" (AOOJJHNM_01429)
hypothetical protein" points="500,10 509,40 500,70" fill="rgb(255,255,255)" fill-opacity="1.0" stroke="rgb(0,0,0)" stroke-width="2"  />
		</g>
		<g>
			<title> (AOOJJHNM_01430)
hypothetical protein</title>
			<polygon class=" (AOOJJHNM_01430)
hypothetical protein" points="509,40 521,10 521,70" fill="rgb(255,255,255)" fill-opacity="1.0" stroke="rgb(0,0,0)" stroke-width="2"  />
			<g>
				<title>Glyoxalase (PF00903)
"Glyoxalase/Bleomycin resistance protein/Dioxygenase superfamily"</title>
				<polygon class="PF00903" points="512,40 517,28 519,28 519,52 517,52" stroke-linejoin="round" width="10" height="24" fill="rgb(50,162,189)" stroke="rgb(40,129,151)" stroke-width="1" opacity="0.75" />
			</g>
		</g>
		<g>
			<title> (AOOJJHNM_01431)
hypothetical protein</title>
			<polygon class=" (AOOJJHNM_01431)
hypothetical protein" points="523,10 538,40 523,70" fill="rgb(255,255,255)" fill-opacity="1.0" stroke="rgb(0,0,0)" stroke-width="2"  />
			<g>
				<title>GyrI-like (PF06445)
"GyrI-like small molecule binding domain"</title>
				<polygon class="PF06445" points="523,28 528,28 534,40 528,52 523,52" stroke-linejoin="round" width="14" height="24" fill="rgb(61,183,118)" stroke="rgb(48,146,94)" stroke-width="1" opacity="0.75" />
			</g>
		</g>
		<g>
			<title>bmrR (AOOJJHNM_01432)
Multidrug-efflux transporter 1 regulator</title>
			<polygon class="bmrR (AOOJJHNM_01432)
Multidrug-efflux transporter 1 regulator" points="540,10 551,40 540,70" fill="rgb(255,255,255)" fill-opacity="1.0" stroke="rgb(0,0,0)" stroke-width="2"  />
			<g>
				<title>MerR_1 (PF13411)
"MerR HTH family regulatory protein"</title>
				<polygon class="PF13411" points="540,28 543,28 547,37 547,43 543,52 540,52" stroke-linejoin="round" width="7" height="24" fill="rgb(100,202,107)" stroke="rgb(80,161,85)" stroke-width="1" opacity="0.75" />
			</g>
		</g>
		<g>
			<title> (AOOJJHNM_01433)
hypothetical protein</title>
			<polygon class=" (AOOJJHNM_01433)
hypothetical protein" points="551,10 566,40 551,70" fill="rgb(255,255,255)" fill-opacity="1.0" stroke="rgb(0,0,0)" stroke-width="2"  />
			<g>
				<title>Polyketide_cyc2 (PF10604)
"Polyketide cyclase / dehydrase and lipid transport"</title>
				<polygon class="PF10604" points="551,28 556,28 562,40 556,52 551,52" stroke-linejoin="round" width="14" height="24" fill="rgb(105,204,74)" stroke="rgb(84,163,59)" stroke-width="1" opacity="0.75" />
			</g>
		</g>
		<g>
			<title> (AOOJJHNM_01434)
hypothetical protein</title>
			<polygon class=" (AOOJJHNM_01434)
hypothetical protein" points="570,10 599,40 570,70" fill="rgb(255,255,255)" fill-opacity="1.0" stroke="rgb(0,0,0)" stroke-width="2"  />
			<g>
				<title>Cupin_2 (PF07883)
"Cupin domain"</title>
				<polygon class="PF07883" points="589,34 594,40 589,46" stroke-linejoin="round" width="7" height="24" fill="rgb(211,192,74)" stroke="rgb(168,153,59)" stroke-width="1" opacity="0.75" />
			</g>
		</g>
		<g>
			<title> (AOOJJHNM_01435)
hypothetical protein</title>
			<polygon class=" (AOOJJHNM_01435)
hypothetical protein" points="605,10 621,40 605,70" fill="rgb(255,255,255)" fill-opacity="1.0" stroke="rgb(0,0,0)" stroke-width="2"  />
			<g>
				<title>Cass2 (PF14526)
"Integron-associated effector binding protein"</title>
				<polygon class="PF14526" points="606,28 611,28 617,40 611,52 606,52" stroke-linejoin="round" width="15" height="24" fill="rgb(57,73,185)" stroke="rgb(45,58,148)" stroke-width="1" opacity="0.75" />
			</g>
		</g>
		<g>
			<title>guaC (AOOJJHNM_01436)
GMP reductase</title>
			<polygon class="guaC (AOOJJHNM_01436)
GMP reductase" points="654,25 652,25 652,10 622,40 652,70 652,55 654,55" fill="rgb(255,255,255)" fill-opacity="1.0" stroke="rgb(0,0,0)" stroke-width="2"  />
			<g>
				<title>IMPDH (PF00478)
"IMP dehydrogenase / GMP reductase domain"</title>
				<polygon class="PF00478" points="626,40 638,28 653,28 653,52 638,52" stroke-linejoin="round" width="31" height="24" fill="rgb(225,99,218)" stroke="rgb(180,79,174)" stroke-width="1" opacity="0.75" />
			</g>
		</g>
		<g>
			<title>ydaF_2 (AOOJJHNM_01437)
Putative ribosomal N-acetyltransferase YdaF</title>
			<polygon class="ydaF_2 (AOOJJHNM_01437)
Putative ribosomal N-acetyltransferase YdaF" points="659,10 677,40 659,70" fill="rgb(255,255,255)" fill-opacity="1.0" stroke="rgb(0,0,0)" stroke-width="2"  />
			<g>
				<title>Acetyltransf_3 (PF13302)
"Acetyltransferase (GNAT) domain"</title>
				<polygon class="PF13302" points="659,28 666,28 673,40 673,40 666,52 659,52" stroke-linejoin="round" width="14" height="24" fill="rgb(105,146,215)" stroke="rgb(84,116,172)" stroke-width="1" opacity="0.75" />
			</g>
		</g>
		<g>
			<title>emrY_2 (AOOJJHNM_01438)
putative multidrug resistance protein EmrY</title>
			<polygon class="emrY_2 (AOOJJHNM_01438)
putative multidrug resistance protein EmrY" points="679,25 696,25 696,10 726,40 696,70 696,55 679,55" fill="rgb(255,255,255)" fill-opacity="1.0" stroke="rgb(0,0,0)" stroke-width="2"  />
			<g>
				<title>MFS_1 (PF07690)
"Major Facilitator Superfamily"</title>
				<polygon class="PF07690" points="680,28 710,28 719,37 719,43 710,52 680,52" stroke-linejoin="round" width="39" height="24" fill="rgb(193,224,74)" stroke="rgb(154,179,59)" stroke-width="1" opacity="0.75" />
			</g>
		</g>
	</g>
</svg>
