<svg version="1.1" baseProfile="full" xmlns="http://www.w3.org/2000/svg" width="714.5666666666667" height="80">
	<g>
		<line x1="10" y1="40.0" x2="704.5666666666667" y2="40.0" style="stroke:rgb(70,70,70); stroke-width:3 "/>
		<g>
			<title> (DBLALLCB_03030)
hypothetical protein</title>
			<polygon class=" (DBLALLCB_03030)
hypothetical protein" points="10,40 16,10 16,70" fill="rgb(255,255,255)" fill-opacity="1.0" stroke="rgb(0,0,0)" stroke-width="2"  />
		</g>
		<g>
			<title> (DBLALLCB_03031)
hypothetical protein</title>
			<polygon class=" (DBLALLCB_03031)
hypothetical protein" points="18,40 31,10 31,70" fill="rgb(255,255,255)" fill-opacity="1.0" stroke="rgb(0,0,0)" stroke-width="2"  />
		</g>
		<g>
			<title> (DBLALLCB_03032)
hypothetical protein</title>
			<polygon class=" (DBLALLCB_03032)
hypothetical protein" points="34,40 57,10 57,70" fill="rgb(255,255,255)" fill-opacity="1.0" stroke="rgb(0,0,0)" stroke-width="2"  />
			<g>
				<title>DNA_alkylation (PF08713)
"DNA alkylation repair enzyme"</title>
				<polygon class="PF08713" points="38,40 47,28 55,28 55,52 47,52" stroke-linejoin="round" width="21" height="24" fill="rgb(215,156,71)" stroke="rgb(172,124,56)" stroke-width="1" opacity="0.75" />
			</g>
		</g>
		<g>
			<title> (DBLALLCB_03033)
hypothetical protein</title>
			<polygon class=" (DBLALLCB_03033)
hypothetical protein" points="57,40 86,10 86,70" fill="rgb(255,255,255)" fill-opacity="1.0" stroke="rgb(0,0,0)" stroke-width="2"  />
			<g>
				<title>Patatin (PF01734)
"Patatin-like phospholipase"</title>
				<polygon class="PF01734" points="68,33 73,28 84,28 84,52 73,52 68,47" stroke-linejoin="round" width="16" height="24" fill="rgb(200,132,98)" stroke="rgb(160,105,78)" stroke-width="1" opacity="0.75" />
			</g>
		</g>
		<g>
			<title> (DBLALLCB_03034)
hypothetical protein</title>
			<polygon class=" (DBLALLCB_03034)
hypothetical protein" points="91,40 95,10 95,70" fill="rgb(255,255,255)" fill-opacity="1.0" stroke="rgb(0,0,0)" stroke-width="2"  />
			<g>
				<title>Fur_reg_FbpB (PF13040)
"Fur-regulated basic protein B"</title>
				<polygon class="PF13040" points="94,40 94,40 94,40" stroke-linejoin="round" width="3" height="24" fill="rgb(190,83,63)" stroke="rgb(152,66,50)" stroke-width="1" opacity="0.75" />
			</g>
		</g>
		<g>
			<title>dapX_1 (DBLALLCB_03035)
putative N-acetyl-LL-diaminopimelate aminotransferase</title>
			<polygon class="dapX_1 (DBLALLCB_03035)
putative N-acetyl-LL-diaminopimelate aminotransferase" points="99,25 107,25 107,10 137,40 107,70 107,55 99,55" fill="rgb(255,255,255)" fill-opacity="1.0" stroke="rgb(0,0,0)" stroke-width="2"  />
			<g>
				<title>Aminotran_1_2 (PF00155)
"Aminotransferase class I and II"</title>
				<polygon class="PF00155" points="101,28 121,28 133,40 121,52 101,52" stroke-linejoin="round" width="34" height="24" fill="rgb(89,113,198)" stroke="rgb(71,90,158)" stroke-width="1" opacity="0.75" />
			</g>
		</g>
		<g>
			<title> (DBLALLCB_03036)
hypothetical protein</title>
			<polygon class=" (DBLALLCB_03036)
hypothetical protein" points="139,40 144,10 144,70" fill="rgb(255,255,255)" fill-opacity="1.0" stroke="rgb(0,0,0)" stroke-width="2"  />
			<g>
				<title>SpoOE-like (PF09388)
"Spo0E like sporulation regulatory protein"</title>
				<polygon class="PF09388" points="142,40 143,35 143,45" stroke-linejoin="round" width="4" height="24" fill="rgb(188,111,63)" stroke="rgb(150,88,50)" stroke-width="1" opacity="0.75" />
			</g>
		</g>
		<g>
			<title>sipT (DBLALLCB_03037)
Signal peptidase I T</title>
			<polygon class="sipT (DBLALLCB_03037)
Signal peptidase I T" points="154,10 171,40 154,70" fill="rgb(255,255,255)" fill-opacity="1.0" stroke="rgb(0,0,0)" stroke-width="2"  />
			<g>
				<title>Peptidase_S24 (PF00717)
"Peptidase S24-like"</title>
				<polygon class="PF00717" points="157,28 160,28 163,32 163,48 160,52 157,52" stroke-linejoin="round" width="6" height="24" fill="rgb(180,76,105)" stroke="rgb(144,60,83)" stroke-width="1" opacity="0.75" />
			</g>
		</g>
		<g>
			<title> (DBLALLCB_03038)
hypothetical protein</title>
			<polygon class=" (DBLALLCB_03038)
hypothetical protein" points="173,40 179,10 179,70" fill="rgb(255,255,255)" fill-opacity="1.0" stroke="rgb(0,0,0)" stroke-width="2"  />
			<g>
				<title>YvrJ (PF12841)
"YvrJ protein family"</title>
				<polygon class="PF12841" points="176,40 176,40 176,40" stroke-linejoin="round" width="3" height="24" fill="rgb(207,53,76)" stroke="rgb(165,42,60)" stroke-width="1" opacity="0.75" />
			</g>
		</g>
		<g>
			<title> (DBLALLCB_03039)
hypothetical protein</title>
			<polygon class=" (DBLALLCB_03039)
hypothetical protein" points="180,40 187,10 187,70" fill="rgb(255,255,255)" fill-opacity="1.0" stroke="rgb(0,0,0)" stroke-width="2"  />
			<g>
				<title>DUF2922 (PF11148)
"Protein of unknown function (DUF2922)"</title>
				<polygon class="PF11148" points="183,40 186,28 186,28 186,52 186,52" stroke-linejoin="round" width="6" height="24" fill="rgb(196,220,80)" stroke="rgb(156,176,64)" stroke-width="1" opacity="0.75" />
			</g>
		</g>
		<g>
			<title> (DBLALLCB_03040)
hypothetical protein</title>
			<polygon class=" (DBLALLCB_03040)
hypothetical protein" points="188,40 195,10 195,70" fill="rgb(255,255,255)" fill-opacity="1.0" stroke="rgb(0,0,0)" stroke-width="2"  />
			<g>
				<title>DUF1659 (PF07872)
"Protein of unknown function (DUF1659)"</title>
				<polygon class="PF07872" points="191,40 194,28 194,28 194,52 194,52" stroke-linejoin="round" width="4" height="24" fill="rgb(172,48,195)" stroke="rgb(137,38,156)" stroke-width="1" opacity="0.75" />
			</g>
		</g>
		<g>
			<title> (DBLALLCB_03041)
hypothetical protein</title>
			<polygon class=" (DBLALLCB_03041)
hypothetical protein" points="209,10 215,40 209,70" fill="rgb(255,255,255)" fill-opacity="1.0" stroke="rgb(0,0,0)" stroke-width="2"  />
		</g>
		<g>
			<title> (DBLALLCB_03042)
hypothetical protein</title>
			<polygon class=" (DBLALLCB_03042)
hypothetical protein" points="216,10 233,40 216,70" fill="rgb(255,255,255)" fill-opacity="1.0" stroke="rgb(0,0,0)" stroke-width="2"  />
			<g>
				<title>Caroten_synth (PF04240)
"Carotenoid biosynthesis protein"</title>
				<polygon class="PF04240" points="216,28 223,28 230,40 223,52 216,52" stroke-linejoin="round" width="16" height="24" fill="rgb(65,214,190)" stroke="rgb(52,171,152)" stroke-width="1" opacity="0.75" />
			</g>
		</g>
		<g>
			<title> (DBLALLCB_03043)
hypothetical protein</title>
			<polygon class=" (DBLALLCB_03043)
hypothetical protein" points="234,10 256,40 234,70" fill="rgb(255,255,255)" fill-opacity="1.0" stroke="rgb(0,0,0)" stroke-width="2"  />
			<g>
				<title>Acyltransferase (PF01553)
"Acyltransferase"</title>
				<polygon class="PF01553" points="236,28 243,28 249,36 249,44 243,52 236,52" stroke-linejoin="round" width="13" height="24" fill="rgb(87,176,216)" stroke="rgb(69,140,172)" stroke-width="1" opacity="0.75" />
			</g>
		</g>
		<g>
			<title> (DBLALLCB_03044)
hypothetical protein</title>
			<polygon class=" (DBLALLCB_03044)
hypothetical protein" points="256,25 262,25 262,10 292,40 262,70 262,55 256,55" fill="rgb(255,255,255)" fill-opacity="1.0" stroke="rgb(0,0,0)" stroke-width="2"  />
			<g>
				<title>Glycos_transf_2 (PF00535)
"Glycosyl transferase family 2"</title>
				<polygon class="PF00535" points="260,28 276,28 277,29 277,51 276,52 260,52" stroke-linejoin="round" width="17" height="24" fill="rgb(224,122,96)" stroke="rgb(179,97,76)" stroke-width="1" opacity="0.75" />
			</g>
		</g>
		<g>
			<title>crtNb (DBLALLCB_03045)
4,4'-diapolycopene oxygenase</title>
			<polygon class="crtNb (DBLALLCB_03045)
4,4'-diapolycopene oxygenase" points="293,25 312,25 312,10 342,40 312,70 312,55 293,55" fill="rgb(255,255,255)" fill-opacity="1.0" stroke="rgb(0,0,0)" stroke-width="2"  />
			<g>
				<title>Amino_oxidase (PF01593)
"Flavin containing amine oxidoreductase"</title>
				<polygon class="PF01593" points="294,28 325,28 337,40 325,52 294,52" stroke-linejoin="round" width="47" height="24" fill="rgb(184,74,52)" stroke="rgb(147,59,41)" stroke-width="1" opacity="0.75" />
			</g>
		</g>
		<g>
			<title>crtB (DBLALLCB_03046)
15-cis-phytoene synthase</title>
			<polygon class="crtB (DBLALLCB_03046)
15-cis-phytoene synthase" points="343,40 370,10 370,70" fill="rgb(255,255,255)" fill-opacity="1.0" stroke="rgb(0,0,0)" stroke-width="2"  />
			<g>
				<title>SQS_PSY (PF00494)
"Squalene/phytoene synthase"</title>
				<polygon class="PF00494" points="347,40 358,28 369,28 369,52 358,52" stroke-linejoin="round" width="25" height="24" fill="rgb(178,91,49)" stroke="rgb(142,72,39)" stroke-width="1" opacity="0.75" />
			</g>
		</g>
		<g>
			<title>crtNc_1 (DBLALLCB_03047)
4,4'-diapolycopen-4-al dehydrogenase</title>
			<polygon class="crtNc_1 (DBLALLCB_03047)
4,4'-diapolycopen-4-al dehydrogenase" points="371,40 391,10 391,70" fill="rgb(255,255,255)" fill-opacity="1.0" stroke="rgb(0,0,0)" stroke-width="2"  />
		</g>
		<g>
			<title>crtNc_2 (DBLALLCB_03048)
4,4'-diapolycopen-4-al dehydrogenase</title>
			<polygon class="crtNc_2 (DBLALLCB_03048)
4,4'-diapolycopen-4-al dehydrogenase" points="391,40 415,10 415,70" fill="rgb(255,255,255)" fill-opacity="1.0" stroke="rgb(0,0,0)" stroke-width="2"  />
			<g>
				<title>Amino_oxidase (PF01593)
"Flavin containing amine oxidoreductase"</title>
				<polygon class="PF01593" points="395,40 405,28 415,28 415,52 405,52" stroke-linejoin="round" width="24" height="24" fill="rgb(184,74,52)" stroke="rgb(147,59,41)" stroke-width="1" opacity="0.75" />
			</g>
		</g>
		<g>
			<title>crtN (DBLALLCB_03049)
4,4'-diapophytoene desaturase (4,4'-diapolycopene-forming)</title>
			<polygon class="crtN (DBLALLCB_03049)
4,4'-diapophytoene desaturase (4,4'-diapolycopene-forming)" points="469,25 450,25 450,10 420,40 450,70 450,55 469,55" fill="rgb(255,255,255)" fill-opacity="1.0" stroke="rgb(0,0,0)" stroke-width="2"  />
			<g>
				<title>Amino_oxidase (PF01593)
"Flavin containing amine oxidoreductase"</title>
				<polygon class="PF01593" points="424,40 436,28 468,28 468,52 436,52" stroke-linejoin="round" width="47" height="24" fill="rgb(184,74,52)" stroke="rgb(147,59,41)" stroke-width="1" opacity="0.75" />
			</g>
		</g>
		<g>
			<title> (DBLALLCB_03050)
hypothetical protein</title>
			<polygon class=" (DBLALLCB_03050)
hypothetical protein" points="475,10 484,40 475,70" fill="rgb(255,255,255)" fill-opacity="1.0" stroke="rgb(0,0,0)" stroke-width="2"  />
		</g>
		<g>
			<title> (DBLALLCB_03051)
hypothetical protein</title>
			<polygon class=" (DBLALLCB_03051)
hypothetical protein" points="487,10 491,40 487,70" fill="rgb(255,255,255)" fill-opacity="1.0" stroke="rgb(0,0,0)" stroke-width="2"  />
			<g>
				<title>YjcZ_2 (PF09680)
"Family of unknown function"</title>
				<polygon class="PF09680" points="489,41 488,40 489,39" stroke-linejoin="round" width="2" height="24" fill="rgb(79,203,107)" stroke="rgb(63,162,85)" stroke-width="1" opacity="0.75" />
			</g>
		</g>
		<g>
			<title> (DBLALLCB_03052)
hypothetical protein</title>
			<polygon class=" (DBLALLCB_03052)
hypothetical protein" points="496,40 511,10 511,70" fill="rgb(255,255,255)" fill-opacity="1.0" stroke="rgb(0,0,0)" stroke-width="2"  />
		</g>
		<g>
			<title> (DBLALLCB_03053)
hypothetical protein</title>
			<polygon class=" (DBLALLCB_03053)
hypothetical protein" points="526,40 540,10 540,70" fill="rgb(255,255,255)" fill-opacity="1.0" stroke="rgb(0,0,0)" stroke-width="2"  />
			<g>
				<title>YwpF (PF14183)
"YwpF-like protein"</title>
				<polygon class="PF14183" points="529,40 535,28 539,28 539,52 535,52" stroke-linejoin="round" width="13" height="24" fill="rgb(199,178,73)" stroke="rgb(159,142,58)" stroke-width="1" opacity="0.75" />
			</g>
		</g>
		<g>
			<title>moaA (DBLALLCB_03054)
GTP 3',8-cyclase</title>
			<polygon class="moaA (DBLALLCB_03054)
GTP 3',8-cyclase" points="552,40 577,10 577,70" fill="rgb(255,255,255)" fill-opacity="1.0" stroke="rgb(0,0,0)" stroke-width="2"  />
			<g>
				<title>Mob_synth_C (PF06463)
"Molybdenum Cofactor Synthesis C"</title>
				<polygon class="PF06463" points="556,40 558,38 558,42" stroke-linejoin="round" width="5" height="24" fill="rgb(149,103,225)" stroke="rgb(119,82,180)" stroke-width="1" opacity="0.75" />
			</g>
			<g>
				<title>Radical_SAM (PF04055)
"Radical SAM superfamily"</title>
				<polygon class="PF04055" points="558,38 566,28 574,28 574,52 566,52 558,42" stroke-linejoin="round" width="16" height="24" fill="rgb(149,56,222)" stroke="rgb(119,44,177)" stroke-width="1" opacity="0.75" />
			</g>
		</g>
		<g>
			<title>moeA (DBLALLCB_03055)
Molybdopterin molybdenumtransferase</title>
			<polygon class="moeA (DBLALLCB_03055)
Molybdopterin molybdenumtransferase" points="620,25 608,25 608,10 578,40 608,70 608,55 620,55" fill="rgb(255,255,255)" fill-opacity="1.0" stroke="rgb(0,0,0)" stroke-width="2"  />
			<g>
				<title>MoeA_C (PF03454)
"MoeA C-terminal region (domain IV)"</title>
				<polygon class="PF03454" points="582,40 586,36 586,44" stroke-linejoin="round" width="7" height="24" fill="rgb(59,190,161)" stroke="rgb(47,152,128)" stroke-width="1" opacity="0.75" />
			</g>
			<g>
				<title>MoCF_biosynth (PF00994)
"Probable molybdopterin binding domain"</title>
				<polygon class="PF00994" points="587,35 594,28 600,28 600,52 594,52 587,45" stroke-linejoin="round" width="13" height="24" fill="rgb(75,187,175)" stroke="rgb(60,149,139)" stroke-width="1" opacity="0.75" />
			</g>
			<g>
				<title>MoeA_N (PF03453)
"MoeA N-terminal region (domain I and II)"</title>
				<rect class="PF03453" x="602" y="28" stroke-linejoin="round" width="16" height="24" fill="rgb(93,188,107)" stroke="rgb(74,150,85)" stroke-width="1" opacity="0.75" />
			</g>
		</g>
		<g>
			<title>garB (DBLALLCB_03056)
Glutathione amide reductase</title>
			<polygon class="garB (DBLALLCB_03056)
Glutathione amide reductase" points="625,25 640,25 640,10 670,40 640,70 640,55 625,55" fill="rgb(255,255,255)" fill-opacity="1.0" stroke="rgb(0,0,0)" stroke-width="2"  />
			<g>
				<title>Pyr_redox_2 (PF07992)
"Pyridine nucleotide-disulphide oxidoreductase"</title>
				<polygon class="PF07992" points="625,28 653,28 656,31 656,49 653,52 625,52" stroke-linejoin="round" width="31" height="24" fill="rgb(83,223,167)" stroke="rgb(66,178,133)" stroke-width="1" opacity="0.75" />
			</g>
			<g>
				<title>Pyr_redox_dim (PF02852)
"Pyridine nucleotide-disulphide oxidoreductase, dimerisation domain"</title>
				<polygon class="PF02852" points="659,34 665,40 659,46" stroke-linejoin="round" width="10" height="24" fill="rgb(191,148,67)" stroke="rgb(152,118,53)" stroke-width="1" opacity="0.75" />
			</g>
		</g>
		<g>
			<title> (DBLALLCB_03057)
hypothetical protein</title>
			<polygon class=" (DBLALLCB_03057)
hypothetical protein" points="676,40 680,10 680,70" fill="rgb(255,255,255)" fill-opacity="1.0" stroke="rgb(0,0,0)" stroke-width="2"  />
		</g>
		<g>
			<title> (DBLALLCB_03058)
hypothetical protein</title>
			<polygon class=" (DBLALLCB_03058)
hypothetical protein" points="685,40 689,10 689,70" fill="rgb(255,255,255)" fill-opacity="1.0" stroke="rgb(0,0,0)" stroke-width="2"  />
		</g>
	</g>
</svg>
