<svg version="1.1" baseProfile="full" xmlns="http://www.w3.org/2000/svg" width="1389.4333333333334" height="80">
	<g>
		<line x1="10" y1="40.0" x2="1379.4333333333334" y2="40.0" style="stroke:rgb(70,70,70); stroke-width:3 "/>
		<g>
			<title> (HAMLPNCN_03402)
Aspartate aminotransferase</title>
			<polygon class=" (HAMLPNCN_03402)
Aspartate aminotransferase" points="25,25 34,25 34,10 64,40 34,70 34,55 25,55" fill="rgb(255,255,255)" fill-opacity="1.0" stroke="rgb(0,0,0)" stroke-width="2"  />
			<g>
				<title>Aminotran_1_2 (PF00155)
"Aminotransferase class I and II"</title>
				<polygon class="PF00155" points="28,28 48,28 60,40 48,52 28,52" stroke-linejoin="round" width="35" height="24" fill="rgb(89,113,198)" stroke="rgb(71,90,158)" stroke-width="1" opacity="0.75" />
			</g>
		</g>
		<g>
			<title>asnS (HAMLPNCN_03403)
Asparagine--tRNA ligase</title>
			<polygon class="asnS (HAMLPNCN_03403)
Asparagine--tRNA ligase" points="65,25 78,25 78,10 108,40 78,70 78,55 65,55" fill="rgb(255,255,255)" fill-opacity="1.0" stroke="rgb(0,0,0)" stroke-width="2"  />
			<g>
				<title>tRNA_anti-codon (PF01336)
"OB-fold nucleic acid binding domain"</title>
				<rect class="PF01336" x="66" y="28" stroke-linejoin="round" width="7" height="24" fill="rgb(215,103,173)" stroke="rgb(172,82,138)" stroke-width="1" opacity="0.75" />
			</g>
			<g>
				<title>tRNA-synt_2 (PF00152)
"tRNA synthetases class II (D, K and N)"</title>
				<polygon class="PF00152" points="75,28 91,28 103,40 91,52 75,52" stroke-linejoin="round" width="31" height="24" fill="rgb(90,71,190)" stroke="rgb(72,56,152)" stroke-width="1" opacity="0.75" />
			</g>
		</g>
		<g>
			<title>dnaD (HAMLPNCN_03404)
DNA replication protein DnaD</title>
			<polygon class="dnaD (HAMLPNCN_03404)
DNA replication protein DnaD" points="111,10 134,40 111,70" fill="rgb(255,255,255)" fill-opacity="1.0" stroke="rgb(0,0,0)" stroke-width="2"  />
			<g>
				<title>DnaB_2 (PF07261)
"Replication initiation and membrane attachment"</title>
				<polygon class="PF07261" points="123,31 130,40 130,40 123,49" stroke-linejoin="round" width="7" height="24" fill="rgb(136,193,85)" stroke="rgb(108,154,68)" stroke-width="1" opacity="0.75" />
			</g>
		</g>
		<g>
			<title>nth (HAMLPNCN_03405)
Endonuclease III</title>
			<polygon class="nth (HAMLPNCN_03405)
Endonuclease III" points="135,10 156,40 135,70" fill="rgb(255,255,255)" fill-opacity="1.0" stroke="rgb(0,0,0)" stroke-width="2"  />
			<g>
				<title>HhH-GPD (PF00730)
"HhH-GPD superfamily base excision DNA repair protein"</title>
				<polygon class="PF00730" points="138,28 144,28 151,38 151,42 144,52 138,52" stroke-linejoin="round" width="13" height="24" fill="rgb(190,78,115)" stroke="rgb(152,62,92)" stroke-width="1" opacity="0.75" />
			</g>
		</g>
		<g>
			<title>recU_2 (HAMLPNCN_03406)
Holliday junction resolvase RecU</title>
			<polygon class="recU_2 (HAMLPNCN_03406)
Holliday junction resolvase RecU" points="249,40 268,10 268,70" fill="rgb(255,255,255)" fill-opacity="1.0" stroke="rgb(0,0,0)" stroke-width="2"  />
			<g>
				<title>RecU (PF03838)
"Recombination protein U"</title>
				<polygon class="PF03838" points="253,40 261,28 265,28 265,52 261,52" stroke-linejoin="round" width="16" height="24" fill="rgb(93,204,83)" stroke="rgb(74,163,66)" stroke-width="1" opacity="0.75" />
			</g>
		</g>
		<g>
			<title> (HAMLPNCN_03407)
hypothetical protein</title>
			<polygon class=" (HAMLPNCN_03407)
hypothetical protein" points="281,40 284,10 284,70" fill="rgb(255,255,255)" fill-opacity="1.0" stroke="rgb(0,0,0)" stroke-width="2"  />
		</g>
		<g>
			<title> (HAMLPNCN_03408)
hypothetical protein</title>
			<polygon class=" (HAMLPNCN_03408)
hypothetical protein" points="289,10 297,40 289,70" fill="rgb(255,255,255)" fill-opacity="1.0" stroke="rgb(0,0,0)" stroke-width="2"  />
		</g>
		<g>
			<title> (HAMLPNCN_03409)
hypothetical protein</title>
			<polygon class=" (HAMLPNCN_03409)
hypothetical protein" points="299,10 311,40 299,70" fill="rgb(255,255,255)" fill-opacity="1.0" stroke="rgb(0,0,0)" stroke-width="2"  />
			<g>
				<title>DUF1798 (PF08807)
"Bacterial domain of unknown function (DUF1798)"</title>
				<polygon class="PF08807" points="300,28 303,28 308,40 303,52 300,52" stroke-linejoin="round" width="10" height="24" fill="rgb(153,201,81)" stroke="rgb(122,160,64)" stroke-width="1" opacity="0.75" />
			</g>
		</g>
		<g>
			<title>arpB (HAMLPNCN_03410)
Antibiotic efflux pump membrane transporter ArpB</title>
			<polygon class="arpB (HAMLPNCN_03410)
Antibiotic efflux pump membrane transporter ArpB" points="415,25 344,25 344,10 314,40 344,70 344,55 415,55" fill="rgb(255,255,255)" fill-opacity="1.0" stroke="rgb(0,0,0)" stroke-width="2"  />
			<g>
				<title>ACR_tran (PF00873)
"AcrB/AcrD/AcrF family"</title>
				<polygon class="PF00873" points="318,40 330,28 415,28 415,52 330,52" stroke-linejoin="round" width="101" height="24" fill="rgb(63,191,60)" stroke="rgb(50,152,48)" stroke-width="1" opacity="0.75" />
			</g>
		</g>
		<g>
			<title>cdd (HAMLPNCN_03411)
Cytidine deaminase</title>
			<polygon class="cdd (HAMLPNCN_03411)
Cytidine deaminase" points="421,10 434,40 421,70" fill="rgb(255,255,255)" fill-opacity="1.0" stroke="rgb(0,0,0)" stroke-width="2"  />
			<g>
				<title>dCMP_cyt_deam_1 (PF00383)
"Cytidine and deoxycytidylate deaminase zinc-binding region"</title>
				<polygon class="PF00383" points="421,28 425,28 431,40 431,40 425,52 421,52" stroke-linejoin="round" width="10" height="24" fill="rgb(91,149,216)" stroke="rgb(72,119,172)" stroke-width="1" opacity="0.75" />
			</g>
		</g>
		<g>
			<title> (HAMLPNCN_03412)
hypothetical protein</title>
			<polygon class=" (HAMLPNCN_03412)
hypothetical protein" points="467,10 485,40 467,70" fill="rgb(255,255,255)" fill-opacity="1.0" stroke="rgb(0,0,0)" stroke-width="2"  />
			<g>
				<title>YpsA (PF06908)
"YspA SLOG family"</title>
				<polygon class="PF06908" points="467,28 474,28 482,40 474,52 467,52" stroke-linejoin="round" width="16" height="24" fill="rgb(136,100,209)" stroke="rgb(108,80,167)" stroke-width="1" opacity="0.75" />
			</g>
		</g>
		<g>
			<title>gpsB (HAMLPNCN_03413)
Cell cycle protein GpsB</title>
			<polygon class="gpsB (HAMLPNCN_03413)
Cell cycle protein GpsB" points="489,10 499,40 489,70" fill="rgb(255,255,255)" fill-opacity="1.0" stroke="rgb(0,0,0)" stroke-width="2"  />
			<g>
				<title>DivIVA (PF05103)
"DivIVA protein"</title>
				<polygon class="PF05103" points="489,28 491,28 495,37 495,43 491,52 489,52" stroke-linejoin="round" width="6" height="24" fill="rgb(213,106,117)" stroke="rgb(170,84,93)" stroke-width="1" opacity="0.75" />
			</g>
		</g>
		<g>
			<title> (HAMLPNCN_03414)
hypothetical protein</title>
			<polygon class=" (HAMLPNCN_03414)
hypothetical protein" points="504,10 509,40 504,70" fill="rgb(255,255,255)" fill-opacity="1.0" stroke="rgb(0,0,0)" stroke-width="2"  />
		</g>
		<g>
			<title>rlmL (HAMLPNCN_03415)
Ribosomal RNA large subunit methyltransferase L</title>
			<polygon class="rlmL (HAMLPNCN_03415)
Ribosomal RNA large subunit methyltransferase L" points="519,25 528,25 528,10 558,40 528,70 528,55 519,55" fill="rgb(255,255,255)" fill-opacity="1.0" stroke="rgb(0,0,0)" stroke-width="2"  />
			<g>
				<title>THUMP (PF02926)
"THUMP domain"</title>
				<rect class="PF02926" x="520" y="28" stroke-linejoin="round" width="14" height="24" fill="rgb(52,209,163)" stroke="rgb(41,167,130)" stroke-width="1" opacity="0.75" />
			</g>
			<g>
				<title>UPF0020 (PF01170)
"Putative RNA methylase family UPF0020"</title>
				<polygon class="PF01170" points="535,28 541,28 553,40 541,52 535,52" stroke-linejoin="round" width="20" height="24" fill="rgb(89,182,69)" stroke="rgb(71,145,55)" stroke-width="1" opacity="0.75" />
			</g>
		</g>
		<g>
			<title>ypwA (HAMLPNCN_03416)
Carboxypeptidase 1</title>
			<polygon class="ypwA (HAMLPNCN_03416)
Carboxypeptidase 1" points="560,25 579,25 579,10 609,40 579,70 579,55 560,55" fill="rgb(255,255,255)" fill-opacity="1.0" stroke="rgb(0,0,0)" stroke-width="2"  />
			<g>
				<title>Peptidase_M32 (PF02074)
"Carboxypeptidase Taq (M32) metallopeptidase"</title>
				<polygon class="PF02074" points="560,28 593,28 605,40 593,52 560,52" stroke-linejoin="round" width="48" height="24" fill="rgb(213,142,93)" stroke="rgb(170,113,74)" stroke-width="1" opacity="0.75" />
			</g>
		</g>
		<g>
			<title> (HAMLPNCN_03417)
hypothetical protein</title>
			<polygon class=" (HAMLPNCN_03417)
hypothetical protein" points="611,40 629,10 629,70" fill="rgb(255,255,255)" fill-opacity="1.0" stroke="rgb(0,0,0)" stroke-width="2"  />
		</g>
		<g>
			<title>gno (HAMLPNCN_03418)
Gluconate 5-dehydrogenase</title>
			<polygon class="gno (HAMLPNCN_03418)
Gluconate 5-dehydrogenase" points="647,10 663,40 647,70" fill="rgb(255,255,255)" fill-opacity="1.0" stroke="rgb(0,0,0)" stroke-width="2"  />
			<g>
				<title>adh_short_C2 (PF13561)
"Enoyl-(Acyl carrier protein) reductase"</title>
				<polygon class="PF13561" points="647,28 653,28 659,40 653,52 647,52" stroke-linejoin="round" width="15" height="24" fill="rgb(73,205,127)" stroke="rgb(58,164,101)" stroke-width="1" opacity="0.75" />
			</g>
		</g>
		<g>
			<title>rppA (HAMLPNCN_03419)
1,3,6,8-tetrahydroxynaphthalene synthase</title>
			<polygon class="rppA (HAMLPNCN_03419)
1,3,6,8-tetrahydroxynaphthalene synthase" points="676,25 682,25 682,10 712,40 682,70 682,55 676,55" fill="rgb(255,255,255)" fill-opacity="1.0" stroke="rgb(0,0,0)" stroke-width="2"  />
			<g>
				<title>Chal_sti_synt_N (PF00195)
"Chalcone and stilbene synthases, N-terminal domain"</title>
				<polygon class="PF00195" points="676,28 695,28 696,29 696,51 695,52 676,52" stroke-linejoin="round" width="20" height="24" fill="rgb(60,181,161)" stroke="rgb(47,144,128)" stroke-width="1" opacity="0.75" />
			</g>
		</g>
		<g>
			<title> (HAMLPNCN_03420)
hypothetical protein</title>
			<polygon class=" (HAMLPNCN_03420)
hypothetical protein" points="712,10 729,40 712,70" fill="rgb(255,255,255)" fill-opacity="1.0" stroke="rgb(0,0,0)" stroke-width="2"  />
			<g>
				<title>ICMT (PF04140)
"Isoprenylcysteine carboxyl methyltransferase (ICMT) family"</title>
				<polygon class="PF04140" points="719,29 725,40 719,51" stroke-linejoin="round" width="9" height="24" fill="rgb(100,223,104)" stroke="rgb(80,178,83)" stroke-width="1" opacity="0.75" />
			</g>
		</g>
		<g>
			<title> (HAMLPNCN_03421)
hypothetical protein</title>
			<polygon class=" (HAMLPNCN_03421)
hypothetical protein" points="733,10 738,40 733,70" fill="rgb(255,255,255)" fill-opacity="1.0" stroke="rgb(0,0,0)" stroke-width="2"  />
		</g>
		<g>
			<title> (HAMLPNCN_03422)
hypothetical protein</title>
			<polygon class=" (HAMLPNCN_03422)
hypothetical protein" points="743,10 752,40 743,70" fill="rgb(255,255,255)" fill-opacity="1.0" stroke="rgb(0,0,0)" stroke-width="2"  />
		</g>
		<g>
			<title> (HAMLPNCN_03423)
queuosine precursor transporter</title>
			<polygon class=" (HAMLPNCN_03423)
queuosine precursor transporter" points="768,40 790,10 790,70" fill="rgb(255,255,255)" fill-opacity="1.0" stroke="rgb(0,0,0)" stroke-width="2"  />
			<g>
				<title>Vut_1 (PF02592)
"Putative vitamin uptake transporter"</title>
				<polygon class="PF02592" points="772,40 781,28 784,28 784,52 781,52" stroke-linejoin="round" width="16" height="24" fill="rgb(93,184,75)" stroke="rgb(74,147,60)" stroke-width="1" opacity="0.75" />
			</g>
		</g>
		<g>
			<title>cspA_1 (HAMLPNCN_03424)
Cold shock protein CspA</title>
			<polygon class="cspA_1 (HAMLPNCN_03424)
Cold shock protein CspA" points="820,40 826,10 826,70" fill="rgb(255,255,255)" fill-opacity="1.0" stroke="rgb(0,0,0)" stroke-width="2"  />
			<g>
				<title>CSD (PF00313)
"'Cold-shock' DNA-binding domain"</title>
				<polygon class="PF00313" points="823,40 826,28 826,28 826,52 826,52" stroke-linejoin="round" width="6" height="24" fill="rgb(87,72,181)" stroke="rgb(69,57,144)" stroke-width="1" opacity="0.75" />
			</g>
		</g>
		<g>
			<title>fhs (HAMLPNCN_03425)
Formate--tetrahydrofolate ligase</title>
			<polygon class="fhs (HAMLPNCN_03425)
Formate--tetrahydrofolate ligase" points="841,25 866,25 866,10 896,40 866,70 866,55 841,55" fill="rgb(255,255,255)" fill-opacity="1.0" stroke="rgb(0,0,0)" stroke-width="2"  />
			<g>
				<title>FTHFS (PF01268)
"Formate--tetrahydrofolate ligase"</title>
				<polygon class="PF01268" points="841,28 880,28 892,40 880,52 841,52" stroke-linejoin="round" width="55" height="24" fill="rgb(215,182,81)" stroke="rgb(172,145,64)" stroke-width="1" opacity="0.75" />
			</g>
		</g>
		<g>
			<title> (HAMLPNCN_03426)
hypothetical protein</title>
			<polygon class=" (HAMLPNCN_03426)
hypothetical protein" points="900,10 928,40 900,70" fill="rgb(255,255,255)" fill-opacity="1.0" stroke="rgb(0,0,0)" stroke-width="2"  />
			<g>
				<title>DUF72 (PF01904)
"Protein of unknown function DUF72"</title>
				<polygon class="PF01904" points="901,28 912,28 924,40 912,52 901,52" stroke-linejoin="round" width="24" height="24" fill="rgb(63,151,204)" stroke="rgb(50,120,163)" stroke-width="1" opacity="0.75" />
			</g>
		</g>
		<g>
			<title>yedJ (HAMLPNCN_03427)
putative protein YedJ</title>
			<polygon class="yedJ (HAMLPNCN_03427)
putative protein YedJ" points="929,10 951,40 929,70" fill="rgb(255,255,255)" fill-opacity="1.0" stroke="rgb(0,0,0)" stroke-width="2"  />
			<g>
				<title>HD (PF01966)
"HD domain"</title>
				<polygon class="PF01966" points="931,28 938,28 940,31 940,49 938,52 931,52" stroke-linejoin="round" width="9" height="24" fill="rgb(92,193,119)" stroke="rgb(73,154,95)" stroke-width="1" opacity="0.75" />
			</g>
		</g>
		<g>
			<title>thyA (HAMLPNCN_03428)
Thymidylate synthase</title>
			<polygon class="thyA (HAMLPNCN_03428)
Thymidylate synthase" points="951,25 953,25 953,10 983,40 953,70 953,55 951,55" fill="rgb(255,255,255)" fill-opacity="1.0" stroke="rgb(0,0,0)" stroke-width="2"  />
			<g>
				<title>Thymidylat_synt (PF00303)
"Thymidylate synthase"</title>
				<polygon class="PF00303" points="951,28 966,28 978,40 966,52 951,52" stroke-linejoin="round" width="31" height="24" fill="rgb(103,91,191)" stroke="rgb(82,72,152)" stroke-width="1" opacity="0.75" />
			</g>
		</g>
		<g>
			<title> (HAMLPNCN_03429)
IS1595 family transposase ISSsu9</title>
			<polygon class=" (HAMLPNCN_03429)
IS1595 family transposase ISSsu9" points="1002,10 1018,40 1002,70" fill="rgb(255,255,255)" fill-opacity="1.0" stroke="rgb(0,0,0)" stroke-width="2"  />
			<g>
				<title>DHFR_1 (PF00186)
"Dihydrofolate reductase"</title>
				<polygon class="PF00186" points="1002,28 1008,28 1015,40 1008,52 1002,52" stroke-linejoin="round" width="16" height="24" fill="rgb(150,188,63)" stroke="rgb(119,150,50)" stroke-width="1" opacity="0.75" />
			</g>
		</g>
		<g>
			<title>mobA (HAMLPNCN_03430)
Molybdenum cofactor guanylyltransferase</title>
			<polygon class="mobA (HAMLPNCN_03430)
Molybdenum cofactor guanylyltransferase" points="1020,10 1038,40 1020,70" fill="rgb(255,255,255)" fill-opacity="1.0" stroke="rgb(0,0,0)" stroke-width="2"  />
			<g>
				<title>NTP_transf_3 (PF12804)
"MobA-like NTP transferase domain"</title>
				<polygon class="PF12804" points="1020,28 1027,28 1034,39 1034,41 1027,52 1020,52" stroke-linejoin="round" width="14" height="24" fill="rgb(52,209,196)" stroke="rgb(41,167,156)" stroke-width="1" opacity="0.75" />
			</g>
		</g>
		<g>
			<title>tatAd_1 (HAMLPNCN_03431)
Sec-independent protein translocase protein TatAd</title>
			<polygon class="tatAd_1 (HAMLPNCN_03431)
Sec-independent protein translocase protein TatAd" points="1042,10 1047,40 1042,70" fill="rgb(255,255,255)" fill-opacity="1.0" stroke="rgb(0,0,0)" stroke-width="2"  />
			<g>
				<title>MttA_Hcf106 (PF02416)
"mttA/Hcf106 family"</title>
				<polygon class="PF02416" points="1042,28 1042,28 1044,40 1042,52 1042,52" stroke-linejoin="round" width="5" height="24" fill="rgb(74,206,98)" stroke="rgb(59,164,78)" stroke-width="1" opacity="0.75" />
			</g>
		</g>
		<g>
			<title>tatAd_2 (HAMLPNCN_03432)
Sec-independent protein translocase protein TatAd</title>
			<polygon class="tatAd_2 (HAMLPNCN_03432)
Sec-independent protein translocase protein TatAd" points="1050,10 1056,40 1050,70" fill="rgb(255,255,255)" fill-opacity="1.0" stroke="rgb(0,0,0)" stroke-width="2"  />
			<g>
				<title>MttA_Hcf106 (PF02416)
"mttA/Hcf106 family"</title>
				<polygon class="PF02416" points="1050,28 1050,28 1053,40 1050,52 1050,52" stroke-linejoin="round" width="5" height="24" fill="rgb(74,206,98)" stroke="rgb(59,164,78)" stroke-width="1" opacity="0.75" />
			</g>
		</g>
		<g>
			<title>tatC1 (HAMLPNCN_03433)
Sec-independent protein translocase protein TatCd</title>
			<polygon class="tatC1 (HAMLPNCN_03433)
Sec-independent protein translocase protein TatCd" points="1059,10 1084,40 1059,70" fill="rgb(255,255,255)" fill-opacity="1.0" stroke="rgb(0,0,0)" stroke-width="2"  />
			<g>
				<title>TatC (PF00902)
"Sec-independent protein translocase protein (TatC)"</title>
				<polygon class="PF00902" points="1060,28 1070,28 1080,40 1080,40 1070,52 1060,52" stroke-linejoin="round" width="20" height="24" fill="rgb(84,193,209)" stroke="rgb(67,154,167)" stroke-width="1" opacity="0.75" />
			</g>
		</g>
		<g>
			<title> (HAMLPNCN_03434)
hypothetical protein</title>
			<polygon class=" (HAMLPNCN_03434)
hypothetical protein" points="1090,10 1097,40 1090,70" fill="rgb(255,255,255)" fill-opacity="1.0" stroke="rgb(0,0,0)" stroke-width="2"  />
			<g>
				<title>YozE_SAM_like (PF06855)
"YozE SAM-like fold"</title>
				<polygon class="PF06855" points="1090,28 1090,28 1094,40 1090,52 1090,52" stroke-linejoin="round" width="6" height="24" fill="rgb(83,201,171)" stroke="rgb(66,160,136)" stroke-width="1" opacity="0.75" />
			</g>
		</g>
		<g>
			<title>sbcD (HAMLPNCN_03435)
Nuclease SbcCD subunit D</title>
			<polygon class="sbcD (HAMLPNCN_03435)
Nuclease SbcCD subunit D" points="1098,25 1106,25 1106,10 1136,40 1106,70 1106,55 1098,55" fill="rgb(255,255,255)" fill-opacity="1.0" stroke="rgb(0,0,0)" stroke-width="2"  />
			<g>
				<title>Metallophos (PF00149)
"Calcineurin-like phosphoesterase"</title>
				<rect class="PF00149" x="1098" y="28" stroke-linejoin="round" width="21" height="24" fill="rgb(181,197,58)" stroke="rgb(144,157,46)" stroke-width="1" opacity="0.75" />
			</g>
			<g>
				<title>SbcD_C (PF12320)
"Type 5 capsule protein repressor C-terminal domain"</title>
				<polygon class="PF12320" points="1124,32 1132,40 1124,48" stroke-linejoin="round" width="9" height="24" fill="rgb(182,136,65)" stroke="rgb(145,108,52)" stroke-width="1" opacity="0.75" />
			</g>
		</g>
		<g>
			<title>sbcC (HAMLPNCN_03436)
Nuclease SbcCD subunit C</title>
			<polygon class="sbcC (HAMLPNCN_03436)
Nuclease SbcCD subunit C" points="1136,25 1209,25 1209,10 1239,40 1209,70 1209,55 1136,55" fill="rgb(255,255,255)" fill-opacity="1.0" stroke="rgb(0,0,0)" stroke-width="2"  />
			<g>
				<title>AAA_23 (PF13476)
"AAA domain"</title>
				<rect class="PF13476" x="1136" y="28" stroke-linejoin="round" width="24" height="24" fill="rgb(57,185,214)" stroke="rgb(45,147,171)" stroke-width="1" opacity="0.75" />
			</g>
			<g>
				<title>SbcCD_C (PF13558)
"Putative exonuclease SbcCD, C subunit"</title>
				<polygon class="PF13558" points="1227,32 1235,40 1235,40 1227,48" stroke-linejoin="round" width="8" height="24" fill="rgb(84,179,84)" stroke="rgb(67,143,67)" stroke-width="1" opacity="0.75" />
			</g>
		</g>
		<g>
			<title>ung (HAMLPNCN_03437)
Uracil-DNA glycosylase</title>
			<polygon class="ung (HAMLPNCN_03437)
Uracil-DNA glycosylase" points="1246,10 1269,40 1246,70" fill="rgb(255,255,255)" fill-opacity="1.0" stroke="rgb(0,0,0)" stroke-width="2"  />
			<g>
				<title>UDG (PF03167)
"Uracil DNA glycosylase superfamily"</title>
				<polygon class="PF03167" points="1250,28 1256,28 1265,40 1256,52 1250,52" stroke-linejoin="round" width="16" height="24" fill="rgb(64,224,60)" stroke="rgb(51,179,48)" stroke-width="1" opacity="0.75" />
			</g>
		</g>
		<g>
			<title> (HAMLPNCN_03438)
hypothetical protein</title>
			<polygon class=" (HAMLPNCN_03438)
hypothetical protein" points="1271,10 1288,40 1271,70" fill="rgb(255,255,255)" fill-opacity="1.0" stroke="rgb(0,0,0)" stroke-width="2"  />
			<g>
				<title>YqfQ (PF14181)
"YqfQ-like protein"</title>
				<polygon class="PF14181" points="1271,28 1278,28 1285,40 1278,52 1271,52" stroke-linejoin="round" width="17" height="24" fill="rgb(207,119,57)" stroke="rgb(165,95,45)" stroke-width="1" opacity="0.75" />
			</g>
		</g>
		<g>
			<title>msrB_1 (HAMLPNCN_03439)
Peptide methionine sulfoxide reductase MsrB</title>
			<polygon class="msrB_1 (HAMLPNCN_03439)
Peptide methionine sulfoxide reductase MsrB" points="1292,25 1294,25 1294,10 1324,40 1294,70 1294,55 1292,55" fill="rgb(255,255,255)" fill-opacity="1.0" stroke="rgb(0,0,0)" stroke-width="2"  />
			<g>
				<title>PMSR (PF01625)
"Peptide methionine sulfoxide reductase"</title>
				<rect class="PF01625" x="1292" y="28" stroke-linejoin="round" width="15" height="24" fill="rgb(201,74,176)" stroke="rgb(160,59,140)" stroke-width="1" opacity="0.75" />
			</g>
			<g>
				<title>SelR (PF01641)
"SelR domain"</title>
				<polygon class="PF01641" points="1310,31 1319,40 1310,49" stroke-linejoin="round" width="12" height="24" fill="rgb(192,99,202)" stroke="rgb(153,79,161)" stroke-width="1" opacity="0.75" />
			</g>
		</g>
		<g>
			<title> (HAMLPNCN_03440)
hypothetical protein</title>
			<polygon class=" (HAMLPNCN_03440)
hypothetical protein" points="1326,10 1345,40 1326,70" fill="rgb(255,255,255)" fill-opacity="1.0" stroke="rgb(0,0,0)" stroke-width="2"  />
			<g>
				<title>TetR_N (PF00440)
"Bacterial regulatory proteins, tetR family"</title>
				<rect class="PF00440" x="1327" y="28" stroke-linejoin="round" width="4" height="24" fill="rgb(73,212,190)" stroke="rgb(58,169,152)" stroke-width="1" opacity="0.75" />
			</g>
		</g>
	</g>
</svg>
