<svg version="1.1" baseProfile="full" xmlns="http://www.w3.org/2000/svg" width="706.8" height="80">
	<g>
		<line x1="10" y1="40.0" x2="696.8" y2="40.0" style="stroke:rgb(70,70,70); stroke-width:3 "/>
		<g>
			<title> (BBLBDBLI_02531)
hypothetical protein</title>
			<polygon class=" (BBLBDBLI_02531)
hypothetical protein" points="10,10 25,40 10,70" fill="rgb(255,255,255)" fill-opacity="1.0" stroke="rgb(0,0,0)" stroke-width="2"  />
			<g>
				<title>YkyB (PF14177)
"YkyB-like protein"</title>
				<polygon class="PF14177" points="10,28 15,28 22,40 15,52 10,52" stroke-linejoin="round" width="13" height="24" fill="rgb(154,213,106)" stroke="rgb(123,170,84)" stroke-width="1" opacity="0.75" />
			</g>
		</g>
		<g>
			<title> (BBLBDBLI_02532)
hypothetical protein</title>
			<polygon class=" (BBLBDBLI_02532)
hypothetical protein" points="27,10 34,40 27,70" fill="rgb(255,255,255)" fill-opacity="1.0" stroke="rgb(0,0,0)" stroke-width="2"  />
		</g>
		<g>
			<title> (BBLBDBLI_02533)
hypothetical protein</title>
			<polygon class=" (BBLBDBLI_02533)
hypothetical protein" points="37,40 50,10 50,70" fill="rgb(255,255,255)" fill-opacity="1.0" stroke="rgb(0,0,0)" stroke-width="2"  />
		</g>
		<g>
			<title> (BBLBDBLI_02534)
hypothetical protein</title>
			<polygon class=" (BBLBDBLI_02534)
hypothetical protein" points="65,40 72,10 72,70" fill="rgb(255,255,255)" fill-opacity="1.0" stroke="rgb(0,0,0)" stroke-width="2"  />
			<g>
				<title>DNA_alkylation (PF08713)
"DNA alkylation repair enzyme"</title>
				<polygon class="PF08713" points="68,40 71,28 71,28 71,52 71,52" stroke-linejoin="round" width="6" height="24" fill="rgb(215,156,71)" stroke="rgb(172,124,56)" stroke-width="1" opacity="0.75" />
			</g>
		</g>
		<g>
			<title> (BBLBDBLI_02535)
hypothetical protein</title>
			<polygon class=" (BBLBDBLI_02535)
hypothetical protein" points="75,40 79,10 79,70" fill="rgb(255,255,255)" fill-opacity="1.0" stroke="rgb(0,0,0)" stroke-width="2"  />
			<g>
				<title>Fur_reg_FbpB (PF13040)
"Fur-regulated basic protein B"</title>
				<polygon class="PF13040" points="78,40 79,34 79,46" stroke-linejoin="round" width="3" height="24" fill="rgb(190,83,63)" stroke="rgb(152,66,50)" stroke-width="1" opacity="0.75" />
			</g>
		</g>
		<g>
			<title>dapX_2 (BBLBDBLI_02536)
putative N-acetyl-LL-diaminopimelate aminotransferase</title>
			<polygon class="dapX_2 (BBLBDBLI_02536)
putative N-acetyl-LL-diaminopimelate aminotransferase" points="84,25 92,25 92,10 122,40 92,70 92,55 84,55" fill="rgb(255,255,255)" fill-opacity="1.0" stroke="rgb(0,0,0)" stroke-width="2"  />
			<g>
				<title>Aminotran_1_2 (PF00155)
"Aminotransferase class I and II"</title>
				<polygon class="PF00155" points="86,28 106,28 118,40 106,52 86,52" stroke-linejoin="round" width="34" height="24" fill="rgb(89,113,198)" stroke="rgb(71,90,158)" stroke-width="1" opacity="0.75" />
			</g>
		</g>
		<g>
			<title>sipT (BBLBDBLI_02537)
Signal peptidase I T</title>
			<polygon class="sipT (BBLBDBLI_02537)
Signal peptidase I T" points="126,10 143,40 126,70" fill="rgb(255,255,255)" fill-opacity="1.0" stroke="rgb(0,0,0)" stroke-width="2"  />
			<g>
				<title>Peptidase_S24 (PF00717)
"Peptidase S24-like"</title>
				<polygon class="PF00717" points="129,28 132,28 135,32 135,48 132,52 129,52" stroke-linejoin="round" width="6" height="24" fill="rgb(180,76,105)" stroke="rgb(144,60,83)" stroke-width="1" opacity="0.75" />
			</g>
		</g>
		<g>
			<title> (BBLBDBLI_02538)
hypothetical protein</title>
			<polygon class=" (BBLBDBLI_02538)
hypothetical protein" points="144,40 148,10 148,70" fill="rgb(255,255,255)" fill-opacity="1.0" stroke="rgb(0,0,0)" stroke-width="2"  />
			<g>
				<title>YvrJ (PF12841)
"YvrJ protein family"</title>
				<polygon class="PF12841" points="147,40 147,40 147,40" stroke-linejoin="round" width="3" height="24" fill="rgb(207,53,76)" stroke="rgb(165,42,60)" stroke-width="1" opacity="0.75" />
			</g>
		</g>
		<g>
			<title> (BBLBDBLI_02539)
hypothetical protein</title>
			<polygon class=" (BBLBDBLI_02539)
hypothetical protein" points="151,40 158,10 158,70" fill="rgb(255,255,255)" fill-opacity="1.0" stroke="rgb(0,0,0)" stroke-width="2"  />
			<g>
				<title>DUF2922 (PF11148)
"Protein of unknown function (DUF2922)"</title>
				<polygon class="PF11148" points="154,40 157,28 157,28 157,52 157,52" stroke-linejoin="round" width="6" height="24" fill="rgb(196,220,80)" stroke="rgb(156,176,64)" stroke-width="1" opacity="0.75" />
			</g>
		</g>
		<g>
			<title> (BBLBDBLI_02540)
hypothetical protein</title>
			<polygon class=" (BBLBDBLI_02540)
hypothetical protein" points="159,40 166,10 166,70" fill="rgb(255,255,255)" fill-opacity="1.0" stroke="rgb(0,0,0)" stroke-width="2"  />
			<g>
				<title>DUF1659 (PF07872)
"Protein of unknown function (DUF1659)"</title>
				<polygon class="PF07872" points="162,40 165,28 165,28 165,52 165,52" stroke-linejoin="round" width="4" height="24" fill="rgb(172,48,195)" stroke="rgb(137,38,156)" stroke-width="1" opacity="0.75" />
			</g>
		</g>
		<g>
			<title> (BBLBDBLI_02541)
hypothetical protein</title>
			<polygon class=" (BBLBDBLI_02541)
hypothetical protein" points="183,10 199,40 183,70" fill="rgb(255,255,255)" fill-opacity="1.0" stroke="rgb(0,0,0)" stroke-width="2"  />
			<g>
				<title>DoxX (PF07681)
"DoxX"</title>
				<polygon class="PF07681" points="184,28 189,28 194,36 194,44 189,52 184,52" stroke-linejoin="round" width="10" height="24" fill="rgb(93,188,216)" stroke="rgb(74,150,172)" stroke-width="1" opacity="0.75" />
			</g>
		</g>
		<g>
			<title> (BBLBDBLI_02542)
hypothetical protein</title>
			<polygon class=" (BBLBDBLI_02542)
hypothetical protein" points="205,10 230,40 205,70" fill="rgb(255,255,255)" fill-opacity="1.0" stroke="rgb(0,0,0)" stroke-width="2"  />
			<g>
				<title>Caroten_synth (PF04240)
"Carotenoid biosynthesis protein"</title>
				<polygon class="PF04240" points="208,28 216,28 226,40 216,52 208,52" stroke-linejoin="round" width="21" height="24" fill="rgb(65,214,190)" stroke="rgb(52,171,152)" stroke-width="1" opacity="0.75" />
			</g>
		</g>
		<g>
			<title> (BBLBDBLI_02543)
hypothetical protein</title>
			<polygon class=" (BBLBDBLI_02543)
hypothetical protein" points="230,10 252,40 230,70" fill="rgb(255,255,255)" fill-opacity="1.0" stroke="rgb(0,0,0)" stroke-width="2"  />
			<g>
				<title>Acyltransferase (PF01553)
"Acyltransferase"</title>
				<polygon class="PF01553" points="231,28 239,28 245,36 245,44 239,52 231,52" stroke-linejoin="round" width="14" height="24" fill="rgb(87,176,216)" stroke="rgb(69,140,172)" stroke-width="1" opacity="0.75" />
			</g>
		</g>
		<g>
			<title> (BBLBDBLI_02544)
hypothetical protein</title>
			<polygon class=" (BBLBDBLI_02544)
hypothetical protein" points="253,25 259,25 259,10 289,40 259,70 259,55 253,55" fill="rgb(255,255,255)" fill-opacity="1.0" stroke="rgb(0,0,0)" stroke-width="2"  />
			<g>
				<title>Glycos_transf_2 (PF00535)
"Glycosyl transferase family 2"</title>
				<polygon class="PF00535" points="257,28 273,28 274,29 274,51 273,52 257,52" stroke-linejoin="round" width="17" height="24" fill="rgb(224,122,96)" stroke="rgb(179,97,76)" stroke-width="1" opacity="0.75" />
			</g>
		</g>
		<g>
			<title>crtNb_1 (BBLBDBLI_02545)
4,4'-diapolycopene oxygenase</title>
			<polygon class="crtNb_1 (BBLBDBLI_02545)
4,4'-diapolycopene oxygenase" points="290,25 309,25 309,10 339,40 309,70 309,55 290,55" fill="rgb(255,255,255)" fill-opacity="1.0" stroke="rgb(0,0,0)" stroke-width="2"  />
			<g>
				<title>Amino_oxidase (PF01593)
"Flavin containing amine oxidoreductase"</title>
				<polygon class="PF01593" points="291,28 322,28 334,40 322,52 291,52" stroke-linejoin="round" width="47" height="24" fill="rgb(184,74,52)" stroke="rgb(147,59,41)" stroke-width="1" opacity="0.75" />
			</g>
		</g>
		<g>
			<title>crtB (BBLBDBLI_02546)
15-cis-phytoene synthase</title>
			<polygon class="crtB (BBLBDBLI_02546)
15-cis-phytoene synthase" points="339,40 366,10 366,70" fill="rgb(255,255,255)" fill-opacity="1.0" stroke="rgb(0,0,0)" stroke-width="2"  />
			<g>
				<title>SQS_PSY (PF00494)
"Squalene/phytoene synthase"</title>
				<polygon class="PF00494" points="343,40 354,28 365,28 365,52 354,52" stroke-linejoin="round" width="25" height="24" fill="rgb(178,91,49)" stroke="rgb(142,72,39)" stroke-width="1" opacity="0.75" />
			</g>
		</g>
		<g>
			<title>crtNc (BBLBDBLI_02547)
4,4'-diapolycopen-4-al dehydrogenase</title>
			<polygon class="crtNc (BBLBDBLI_02547)
4,4'-diapolycopen-4-al dehydrogenase" points="415,25 397,25 397,10 367,40 397,70 397,55 415,55" fill="rgb(255,255,255)" fill-opacity="1.0" stroke="rgb(0,0,0)" stroke-width="2"  />
			<g>
				<title>Amino_oxidase (PF01593)
"Flavin containing amine oxidoreductase"</title>
				<polygon class="PF01593" points="371,40 383,28 414,28 414,52 383,52" stroke-linejoin="round" width="45" height="24" fill="rgb(184,74,52)" stroke="rgb(147,59,41)" stroke-width="1" opacity="0.75" />
			</g>
		</g>
		<g>
			<title>crtN_2 (BBLBDBLI_02548)
4,4'-diapophytoene desaturase (4,4'-diapolycopene-forming)</title>
			<polygon class="crtN_2 (BBLBDBLI_02548)
4,4'-diapophytoene desaturase (4,4'-diapolycopene-forming)" points="465,25 446,25 446,10 416,40 446,70 446,55 465,55" fill="rgb(255,255,255)" fill-opacity="1.0" stroke="rgb(0,0,0)" stroke-width="2"  />
			<g>
				<title>Amino_oxidase (PF01593)
"Flavin containing amine oxidoreductase"</title>
				<polygon class="PF01593" points="420,40 432,28 463,28 463,52 432,52" stroke-linejoin="round" width="47" height="24" fill="rgb(184,74,52)" stroke="rgb(147,59,41)" stroke-width="1" opacity="0.75" />
			</g>
		</g>
		<g>
			<title> (BBLBDBLI_02549)
hypothetical protein</title>
			<polygon class=" (BBLBDBLI_02549)
hypothetical protein" points="474,10 479,40 474,70" fill="rgb(255,255,255)" fill-opacity="1.0" stroke="rgb(0,0,0)" stroke-width="2"  />
			<g>
				<title>YjcZ_2 (PF09680)
"Family of unknown function"</title>
				<polygon class="PF09680" points="477,44 476,40 477,36" stroke-linejoin="round" width="2" height="24" fill="rgb(79,203,107)" stroke="rgb(63,162,85)" stroke-width="1" opacity="0.75" />
			</g>
		</g>
		<g>
			<title>ktrB_3 (BBLBDBLI_02550)
Ktr system potassium uptake protein B</title>
			<polygon class="ktrB_3 (BBLBDBLI_02550)
Ktr system potassium uptake protein B" points="526,25 511,25 511,10 481,40 511,70 511,55 526,55" fill="rgb(255,255,255)" fill-opacity="1.0" stroke="rgb(0,0,0)" stroke-width="2"  />
			<g>
				<title>TrkH (PF02386)
"Cation transport protein"</title>
				<polygon class="PF02386" points="485,40 497,28 525,28 525,52 497,52" stroke-linejoin="round" width="43" height="24" fill="rgb(67,179,142)" stroke="rgb(53,143,113)" stroke-width="1" opacity="0.75" />
			</g>
		</g>
		<g>
			<title> (BBLBDBLI_02551)
hypothetical protein</title>
			<polygon class=" (BBLBDBLI_02551)
hypothetical protein" points="528,40 542,10 542,70" fill="rgb(255,255,255)" fill-opacity="1.0" stroke="rgb(0,0,0)" stroke-width="2"  />
			<g>
				<title>YwpF (PF14183)
"YwpF-like protein"</title>
				<polygon class="PF14183" points="531,40 537,28 541,28 541,52 537,52" stroke-linejoin="round" width="13" height="24" fill="rgb(199,178,73)" stroke="rgb(159,142,58)" stroke-width="1" opacity="0.75" />
			</g>
		</g>
		<g>
			<title>moaA (BBLBDBLI_02552)
GTP 3',8-cyclase</title>
			<polygon class="moaA (BBLBDBLI_02552)
GTP 3',8-cyclase" points="581,25 578,25 578,10 548,40 578,70 578,55 581,55" fill="rgb(255,255,255)" fill-opacity="1.0" stroke="rgb(0,0,0)" stroke-width="2"  />
			<g>
				<title>Mob_synth_C (PF06463)
"Molybdenum Cofactor Synthesis C"</title>
				<polygon class="PF06463" points="552,40 562,30 562,50" stroke-linejoin="round" width="12" height="24" fill="rgb(149,103,225)" stroke="rgb(119,82,180)" stroke-width="1" opacity="0.75" />
			</g>
			<g>
				<title>Radical_SAM (PF04055)
"Radical SAM superfamily"</title>
				<polygon class="PF04055" points="563,29 564,28 579,28 579,52 564,52 563,51" stroke-linejoin="round" width="16" height="24" fill="rgb(149,56,222)" stroke="rgb(119,44,177)" stroke-width="1" opacity="0.75" />
			</g>
		</g>
		<g>
			<title>moeA (BBLBDBLI_02553)
Molybdopterin molybdenumtransferase</title>
			<polygon class="moeA (BBLBDBLI_02553)
Molybdopterin molybdenumtransferase" points="624,25 612,25 612,10 582,40 612,70 612,55 624,55" fill="rgb(255,255,255)" fill-opacity="1.0" stroke="rgb(0,0,0)" stroke-width="2"  />
			<g>
				<title>MoeA_C (PF03454)
"MoeA C-terminal region (domain IV)"</title>
				<polygon class="PF03454" points="586,40 590,36 590,44" stroke-linejoin="round" width="7" height="24" fill="rgb(59,190,161)" stroke="rgb(47,152,128)" stroke-width="1" opacity="0.75" />
			</g>
			<g>
				<title>MoCF_biosynth (PF00994)
"Probable molybdopterin binding domain"</title>
				<polygon class="PF00994" points="591,35 598,28 604,28 604,52 598,52 591,45" stroke-linejoin="round" width="13" height="24" fill="rgb(75,187,175)" stroke="rgb(60,149,139)" stroke-width="1" opacity="0.75" />
			</g>
			<g>
				<title>MoeA_N (PF03453)
"MoeA N-terminal region (domain I and II)"</title>
				<rect class="PF03453" x="606" y="28" stroke-linejoin="round" width="16" height="24" fill="rgb(93,188,107)" stroke="rgb(74,150,85)" stroke-width="1" opacity="0.75" />
			</g>
		</g>
		<g>
			<title> (BBLBDBLI_02554)
hypothetical protein</title>
			<polygon class=" (BBLBDBLI_02554)
hypothetical protein" points="629,40 633,10 633,70" fill="rgb(255,255,255)" fill-opacity="1.0" stroke="rgb(0,0,0)" stroke-width="2"  />
		</g>
		<g>
			<title> (BBLBDBLI_02555)
hypothetical protein</title>
			<polygon class=" (BBLBDBLI_02555)
hypothetical protein" points="636,40 653,10 653,70" fill="rgb(255,255,255)" fill-opacity="1.0" stroke="rgb(0,0,0)" stroke-width="2"  />
			<g>
				<title>HD (PF01966)
"HD domain"</title>
				<polygon class="PF01966" points="639,40 646,28 650,28 650,52 646,52" stroke-linejoin="round" width="14" height="24" fill="rgb(92,193,119)" stroke="rgb(73,154,95)" stroke-width="1" opacity="0.75" />
			</g>
		</g>
		<g>
			<title>idnO_1 (BBLBDBLI_02556)
5-keto-D-gluconate 5-reductase</title>
			<polygon class="idnO_1 (BBLBDBLI_02556)
5-keto-D-gluconate 5-reductase" points="658,10 682,40 658,70" fill="rgb(255,255,255)" fill-opacity="1.0" stroke="rgb(0,0,0)" stroke-width="2"  />
			<g>
				<title>adh_short_C2 (PF13561)
"Enoyl-(Acyl carrier protein) reductase"</title>
				<polygon class="PF13561" points="659,28 669,28 679,40 669,52 659,52" stroke-linejoin="round" width="22" height="24" fill="rgb(73,205,127)" stroke="rgb(58,164,101)" stroke-width="1" opacity="0.75" />
			</g>
		</g>
		<g>
			<title> (BBLBDBLI_02557)
hypothetical protein</title>
			<polygon class=" (BBLBDBLI_02557)
hypothetical protein" points="685,10 696,40 685,70" fill="rgb(255,255,255)" fill-opacity="1.0" stroke="rgb(0,0,0)" stroke-width="2"  />
		</g>
	</g>
</svg>
