<svg version="1.1" baseProfile="full" xmlns="http://www.w3.org/2000/svg" width="472.7" height="80">
	<g>
		<line x1="10" y1="40.0" x2="462.7" y2="40.0" style="stroke:rgb(70,70,70); stroke-width:3 "/>
		<g>
			<title> (PMCFELCE_02729)
hypothetical protein</title>
			<polygon class=" (PMCFELCE_02729)
hypothetical protein" points="28,10 56,40 28,70" fill="rgb(255,255,255)" fill-opacity="1.0" stroke="rgb(0,0,0)" stroke-width="2"  />
		</g>
		<g>
			<title>nudL (PMCFELCE_02730)
putative Nudix hydrolase NudL</title>
			<polygon class="nudL (PMCFELCE_02730)
putative Nudix hydrolase NudL" points="60,10 80,40 60,70" fill="rgb(255,255,255)" fill-opacity="1.0" stroke="rgb(0,0,0)" stroke-width="2"  />
			<g>
				<title>NUDIX (PF00293)
"NUDIX domain"</title>
				<polygon class="PF00293" points="62,28 68,28 74,36 74,44 68,52 62,52" stroke-linejoin="round" width="12" height="24" fill="rgb(92,56,187)" stroke="rgb(73,44,149)" stroke-width="1" opacity="0.75" />
			</g>
		</g>
		<g>
			<title> (PMCFELCE_02731)
hypothetical protein</title>
			<polygon class=" (PMCFELCE_02731)
hypothetical protein" points="82,40 88,10 88,70" fill="rgb(255,255,255)" fill-opacity="1.0" stroke="rgb(0,0,0)" stroke-width="2"  />
		</g>
		<g>
			<title> (PMCFELCE_02732)
hypothetical protein</title>
			<polygon class=" (PMCFELCE_02732)
hypothetical protein" points="95,25 101,25 101,10 131,40 101,70 101,55 95,55" fill="rgb(255,255,255)" fill-opacity="1.0" stroke="rgb(0,0,0)" stroke-width="2"  />
			<g>
				<title>Endonuclease_1 (PF04231)
"Endonuclease I"</title>
				<polygon class="PF04231" points="110,28 115,28 127,40 115,52 110,52" stroke-linejoin="round" width="20" height="24" fill="rgb(200,69,122)" stroke="rgb(160,55,97)" stroke-width="1" opacity="0.75" />
			</g>
		</g>
		<g>
			<title> (PMCFELCE_02733)
hypothetical protein</title>
			<polygon class=" (PMCFELCE_02733)
hypothetical protein" points="145,40 169,10 169,70" fill="rgb(255,255,255)" fill-opacity="1.0" stroke="rgb(0,0,0)" stroke-width="2"  />
		</g>
		<g>
			<title> (PMCFELCE_02734)
hypothetical protein</title>
			<polygon class=" (PMCFELCE_02734)
hypothetical protein" points="176,25 202,25 202,10 232,40 202,70 202,55 176,55" fill="rgb(255,255,255)" fill-opacity="1.0" stroke="rgb(0,0,0)" stroke-width="2"  />
			<g>
				<title>IucA_IucC (PF04183)
"IucA / IucC family"</title>
				<rect class="PF04183" x="189" y="28" stroke-linejoin="round" width="23" height="24" fill="rgb(221,104,121)" stroke="rgb(176,83,96)" stroke-width="1" opacity="0.75" />
			</g>
			<g>
				<title>FhuF (PF06276)
"Ferric iron reductase FhuF-like transporter"</title>
				<polygon class="PF06276" points="214,28 216,28 228,40 216,52 214,52" stroke-linejoin="round" width="16" height="24" fill="rgb(76,151,221)" stroke="rgb(60,120,176)" stroke-width="1" opacity="0.75" />
			</g>
		</g>
		<g>
			<title> (PMCFELCE_02735)
hypothetical protein</title>
			<polygon class=" (PMCFELCE_02735)
hypothetical protein" points="233,25 265,25 265,10 295,40 265,70 265,55 233,55" fill="rgb(255,255,255)" fill-opacity="1.0" stroke="rgb(0,0,0)" stroke-width="2"  />
			<g>
				<title>IucA_IucC (PF04183)
"IucA / IucC family"</title>
				<rect class="PF04183" x="253" y="28" stroke-linejoin="round" width="23" height="24" fill="rgb(221,104,121)" stroke="rgb(176,83,96)" stroke-width="1" opacity="0.75" />
			</g>
			<g>
				<title>FhuF (PF06276)
"Ferric iron reductase FhuF-like transporter"</title>
				<polygon class="PF06276" points="278,28 279,28 291,40 279,52 278,52" stroke-linejoin="round" width="16" height="24" fill="rgb(76,151,221)" stroke="rgb(60,120,176)" stroke-width="1" opacity="0.75" />
			</g>
		</g>
		<g>
			<title>sbnH (PMCFELCE_02736)
2-[(L-alanin-3-ylcarbamoyl)methyl]-2- hydroxybutanedioate decarboxylase</title>
			<polygon class="sbnH (PMCFELCE_02736)
2-[(L-alanin-3-ylcarbamoyl)methyl]-2- hydroxybutanedioate decarboxylase" points="296,25 304,25 304,10 334,40 304,70 304,55 296,55" fill="rgb(255,255,255)" fill-opacity="1.0" stroke="rgb(0,0,0)" stroke-width="2"  />
			<g>
				<title>Orn_Arg_deC_N (PF02784)
"Pyridoxal-dependent decarboxylase, pyridoxal binding domain"</title>
				<polygon class="PF02784" points="298,28 318,28 322,32 322,48 318,52 298,52" stroke-linejoin="round" width="24" height="24" fill="rgb(106,204,212)" stroke="rgb(84,163,169)" stroke-width="1" opacity="0.75" />
			</g>
		</g>
		<g>
			<title> (PMCFELCE_02737)
hypothetical protein</title>
			<polygon class=" (PMCFELCE_02737)
hypothetical protein" points="340,25 366,25 366,10 396,40 366,70 366,55 340,55" fill="rgb(255,255,255)" fill-opacity="1.0" stroke="rgb(0,0,0)" stroke-width="2"  />
			<g>
				<title>Peptidase_M3 (PF01432)
"Peptidase family M3"</title>
				<polygon class="PF01432" points="356,28 380,28 392,40 380,52 356,52" stroke-linejoin="round" width="38" height="24" fill="rgb(56,183,126)" stroke="rgb(44,146,100)" stroke-width="1" opacity="0.75" />
			</g>
		</g>
		<g>
			<title>nprA_2 (PMCFELCE_02738)
Transcriptional activator NprA</title>
			<polygon class="nprA_2 (PMCFELCE_02738)
Transcriptional activator NprA" points="409,25 420,25 420,10 450,40 420,70 420,55 409,55" fill="rgb(255,255,255)" fill-opacity="1.0" stroke="rgb(0,0,0)" stroke-width="2"  />
			<g>
				<title>HTH_31 (PF13560)
"Helix-turn-helix domain"</title>
				<rect class="PF13560" x="409" y="28" stroke-linejoin="round" width="6" height="24" fill="rgb(207,145,90)" stroke="rgb(165,116,72)" stroke-width="1" opacity="0.75" />
			</g>
			<g>
				<title>TPR_12 (PF13424)
"Tetratricopeptide repeat"</title>
				<rect class="PF13424" x="427" y="28" stroke-linejoin="round" width="7" height="24" fill="rgb(147,215,101)" stroke="rgb(117,172,80)" stroke-width="1" opacity="0.75" />
			</g>
		</g>
		<g>
			<title> (PMCFELCE_02739)
hypothetical protein</title>
			<polygon class=" (PMCFELCE_02739)
hypothetical protein" points="451,10 455,40 451,70" fill="rgb(255,255,255)" fill-opacity="1.0" stroke="rgb(0,0,0)" stroke-width="2"  />
		</g>
	</g>
</svg>
