<svg version="1.1" baseProfile="full" xmlns="http://www.w3.org/2000/svg" width="366.43333333333334" height="80">
	<g>
		<line x1="10" y1="40.0" x2="356.43333333333334" y2="40.0" style="stroke:rgb(70,70,70); stroke-width:3 "/>
		<g>
			<title>tatC1_3 (PDEEBABA_03429)
Sec-independent protein translocase protein TatCd</title>
			<polygon class="tatC1_3 (PDEEBABA_03429)
Sec-independent protein translocase protein TatCd" points="13,40 37,10 37,70" fill="rgb(255,255,255)" fill-opacity="1.0" stroke="rgb(0,0,0)" stroke-width="2"  />
			<g>
				<title>TatC (PF00902)
"Sec-independent protein translocase protein (TatC)"</title>
				<polygon class="PF00902" points="17,40 27,28 35,28 35,52 27,52" stroke-linejoin="round" width="20" height="24" fill="rgb(84,193,209)" stroke="rgb(67,154,167)" stroke-width="1" opacity="0.75" />
			</g>
		</g>
		<g>
			<title>tatAd_4 (PDEEBABA_03430)
Sec-independent protein translocase protein TatAd</title>
			<polygon class="tatAd_4 (PDEEBABA_03430)
Sec-independent protein translocase protein TatAd" points="40,40 47,10 47,70" fill="rgb(255,255,255)" fill-opacity="1.0" stroke="rgb(0,0,0)" stroke-width="2"  />
			<g>
				<title>MttA_Hcf106 (PF02416)
"mttA/Hcf106 family"</title>
				<polygon class="PF02416" points="43,40 46,28 47,28 47,52 46,52" stroke-linejoin="round" width="7" height="24" fill="rgb(74,206,98)" stroke="rgb(59,164,78)" stroke-width="1" opacity="0.75" />
			</g>
		</g>
		<g>
			<title> (PDEEBABA_03431)
hypothetical protein</title>
			<polygon class=" (PDEEBABA_03431)
hypothetical protein" points="110,25 86,25 86,10 56,40 86,70 86,55 110,55" fill="rgb(255,255,255)" fill-opacity="1.0" stroke="rgb(0,0,0)" stroke-width="2"  />
			<g>
				<title>DUF839 (PF05787)
"Bacterial protein of unknown function (DUF839)"</title>
				<polygon class="PF05787" points="60,40 72,28 105,28 105,52 72,52" stroke-linejoin="round" width="47" height="24" fill="rgb(62,203,65)" stroke="rgb(49,162,51)" stroke-width="1" opacity="0.75" />
			</g>
		</g>
		<g>
			<title> (PDEEBABA_03432)
Putative aldehyde dehydrogenase</title>
			<polygon class=" (PDEEBABA_03432)
Putative aldehyde dehydrogenase" points="126,25 143,25 143,10 173,40 143,70 143,55 126,55" fill="rgb(255,255,255)" fill-opacity="1.0" stroke="rgb(0,0,0)" stroke-width="2"  />
			<g>
				<title>Aldedh (PF00171)
"Aldehyde dehydrogenase family"</title>
				<polygon class="PF00171" points="127,28 157,28 169,40 157,52 127,52" stroke-linejoin="round" width="45" height="24" fill="rgb(105,213,139)" stroke="rgb(84,170,111)" stroke-width="1" opacity="0.75" />
			</g>
		</g>
		<g>
			<title>ectC (PDEEBABA_03433)
L-ectoine synthase</title>
			<polygon class="ectC (PDEEBABA_03433)
L-ectoine synthase" points="176,40 189,10 189,70" fill="rgb(255,255,255)" fill-opacity="1.0" stroke="rgb(0,0,0)" stroke-width="2"  />
			<g>
				<title>Ectoine_synth (PF06339)
"Ectoine synthase"</title>
				<polygon class="PF06339" points="179,40 184,28 188,28 188,52 184,52" stroke-linejoin="round" width="12" height="24" fill="rgb(225,176,81)" stroke="rgb(180,140,64)" stroke-width="1" opacity="0.75" />
			</g>
		</g>
		<g>
			<title>ectB (PDEEBABA_03434)
Diaminobutyrate--2-oxoglutarate transaminase</title>
			<polygon class="ectB (PDEEBABA_03434)
Diaminobutyrate--2-oxoglutarate transaminase" points="233,25 221,25 221,10 191,40 221,70 221,55 233,55" fill="rgb(255,255,255)" fill-opacity="1.0" stroke="rgb(0,0,0)" stroke-width="2"  />
			<g>
				<title>Aminotran_3 (PF00202)
"Aminotransferase class-III"</title>
				<polygon class="PF00202" points="195,40 207,28 231,28 231,52 207,52" stroke-linejoin="round" width="39" height="24" fill="rgb(49,163,189)" stroke="rgb(39,130,151)" stroke-width="1" opacity="0.75" />
			</g>
		</g>
		<g>
			<title>ectA (PDEEBABA_03435)
L-2,4-diaminobutyric acid acetyltransferase</title>
			<polygon class="ectA (PDEEBABA_03435)
L-2,4-diaminobutyric acid acetyltransferase" points="235,40 253,10 253,70" fill="rgb(255,255,255)" fill-opacity="1.0" stroke="rgb(0,0,0)" stroke-width="2"  />
			<g>
				<title>Acetyltransf_1 (PF00583)
"Acetyltransferase (GNAT) family"</title>
				<polygon class="PF00583" points="239,40 246,28 250,28 250,52 246,52 239,40" stroke-linejoin="round" width="11" height="24" fill="rgb(121,183,50)" stroke="rgb(96,146,39)" stroke-width="1" opacity="0.75" />
			</g>
		</g>
		<g>
			<title> (PDEEBABA_03436)
hypothetical protein</title>
			<polygon class=" (PDEEBABA_03436)
hypothetical protein" points="308,25 302,25 302,10 272,40 302,70 302,55 308,55" fill="rgb(255,255,255)" fill-opacity="1.0" stroke="rgb(0,0,0)" stroke-width="2"  />
			<g>
				<title>MS_channel (PF00924)
"Mechanosensitive ion channel"</title>
				<polygon class="PF00924" points="276,40 288,28 294,28 294,52 288,52" stroke-linejoin="round" width="20" height="24" fill="rgb(177,58,210)" stroke="rgb(141,46,168)" stroke-width="1" opacity="0.75" />
			</g>
		</g>
		<g>
			<title>menH_4 (PDEEBABA_03437)
2-succinyl-6-hydroxy-2, 4-cyclohexadiene-1-carboxylate synthase</title>
			<polygon class="menH_4 (PDEEBABA_03437)
2-succinyl-6-hydroxy-2, 4-cyclohexadiene-1-carboxylate synthase" points="313,25 314,25 314,10 344,40 314,70 314,55 313,55" fill="rgb(255,255,255)" fill-opacity="1.0" stroke="rgb(0,0,0)" stroke-width="2"  />
			<g>
				<title>Abhydrolase_1 (PF00561)
"alpha/beta hydrolase fold"</title>
				<rect class="PF00561" x="315" y="28" stroke-linejoin="round" width="12" height="24" fill="rgb(86,180,151)" stroke="rgb(68,144,120)" stroke-width="1" opacity="0.75" />
			</g>
		</g>
	</g>
</svg>
