<svg version="1.1" baseProfile="full" xmlns="http://www.w3.org/2000/svg" width="1389.5333333333333" height="80">
	<g>
		<line x1="10" y1="40.0" x2="1379.5333333333333" y2="40.0" style="stroke:rgb(70,70,70); stroke-width:3 "/>
		<g>
			<title>nth (ILGKOEJG_00648)
Endonuclease III</title>
			<polygon class="nth (ILGKOEJG_00648)
Endonuclease III" points="16,10 37,40 16,70" fill="rgb(255,255,255)" fill-opacity="1.0" stroke="rgb(0,0,0)" stroke-width="2"  />
			<g>
				<title>HhH-GPD (PF00730)
"HhH-GPD superfamily base excision DNA repair protein"</title>
				<polygon class="PF00730" points="19,28 25,28 32,38 32,42 25,52 19,52" stroke-linejoin="round" width="13" height="24" fill="rgb(190,78,115)" stroke="rgb(152,62,92)" stroke-width="1" opacity="0.75" />
			</g>
		</g>
		<g>
			<title> (ILGKOEJG_00649)
hypothetical protein</title>
			<polygon class=" (ILGKOEJG_00649)
hypothetical protein" points="45,40 51,10 51,70" fill="rgb(255,255,255)" fill-opacity="1.0" stroke="rgb(0,0,0)" stroke-width="2"  />
			<g>
				<title>YjcZ_2 (PF09680)
"Family of unknown function"</title>
				<polygon class="PF09680" points="48,40 47,45 47,35" stroke-linejoin="round" width="2" height="24" fill="rgb(79,203,107)" stroke="rgb(63,162,85)" stroke-width="1" opacity="0.75" />
			</g>
		</g>
		<g>
			<title>tgl (ILGKOEJG_00650)
Protein-glutamine gamma-glutamyltransferase</title>
			<polygon class="tgl (ILGKOEJG_00650)
Protein-glutamine gamma-glutamyltransferase" points="55,40 82,10 82,70" fill="rgb(255,255,255)" fill-opacity="1.0" stroke="rgb(0,0,0)" stroke-width="2"  />
		</g>
		<g>
			<title>ponA (ILGKOEJG_00651)
Penicillin-binding protein 1A/1B</title>
			<polygon class="ponA (ILGKOEJG_00651)
Penicillin-binding protein 1A/1B" points="180,25 122,25 122,10 92,40 122,70 122,55 180,55" fill="rgb(255,255,255)" fill-opacity="1.0" stroke="rgb(0,0,0)" stroke-width="2"  />
			<g>
				<title>fn3 (PF00041)
"Fibronectin type III domain"</title>
				<polygon class="PF00041" points="103,33 108,28 110,28 110,52 108,52 103,47" stroke-linejoin="round" width="7" height="24" fill="rgb(203,70,135)" stroke="rgb(162,56,107)" stroke-width="1" opacity="0.75" />
			</g>
			<g>
				<title>Transpeptidase (PF00905)
"Penicillin binding protein transpeptidase domain"</title>
				<rect class="PF00905" x="118" y="28" stroke-linejoin="round" width="27" height="24" fill="rgb(161,226,87)" stroke="rgb(128,180,69)" stroke-width="1" opacity="0.75" />
			</g>
			<g>
				<title>Transgly (PF00912)
"Transglycosylase"</title>
				<rect class="PF00912" x="154" y="28" stroke-linejoin="round" width="17" height="24" fill="rgb(172,107,216)" stroke="rgb(137,85,172)" stroke-width="1" opacity="0.75" />
			</g>
		</g>
		<g>
			<title>recU (ILGKOEJG_00652)
Holliday junction resolvase RecU</title>
			<polygon class="recU (ILGKOEJG_00652)
Holliday junction resolvase RecU" points="181,40 200,10 200,70" fill="rgb(255,255,255)" fill-opacity="1.0" stroke="rgb(0,0,0)" stroke-width="2"  />
			<g>
				<title>RecU (PF03838)
"Recombination protein U"</title>
				<polygon class="PF03838" points="185,40 193,28 197,28 197,52 193,52" stroke-linejoin="round" width="16" height="24" fill="rgb(93,204,83)" stroke="rgb(74,163,66)" stroke-width="1" opacity="0.75" />
			</g>
		</g>
		<g>
			<title> (ILGKOEJG_00653)
hypothetical protein</title>
			<polygon class=" (ILGKOEJG_00653)
hypothetical protein" points="209,40 212,10 212,70" fill="rgb(255,255,255)" fill-opacity="1.0" stroke="rgb(0,0,0)" stroke-width="2"  />
		</g>
		<g>
			<title>racA (ILGKOEJG_00654)
Chromosome-anchoring protein RacA</title>
			<polygon class="racA (ILGKOEJG_00654)
Chromosome-anchoring protein RacA" points="217,10 225,40 217,70" fill="rgb(255,255,255)" fill-opacity="1.0" stroke="rgb(0,0,0)" stroke-width="2"  />
		</g>
		<g>
			<title> (ILGKOEJG_00655)
hypothetical protein</title>
			<polygon class=" (ILGKOEJG_00655)
hypothetical protein" points="228,10 239,40 228,70" fill="rgb(255,255,255)" fill-opacity="1.0" stroke="rgb(0,0,0)" stroke-width="2"  />
			<g>
				<title>DUF1798 (PF08807)
"Bacterial domain of unknown function (DUF1798)"</title>
				<polygon class="PF08807" points="228,28 231,28 236,40 231,52 228,52" stroke-linejoin="round" width="10" height="24" fill="rgb(153,201,81)" stroke="rgb(122,160,64)" stroke-width="1" opacity="0.75" />
			</g>
		</g>
		<g>
			<title>mdtB (ILGKOEJG_00656)
Multidrug resistance protein MdtB</title>
			<polygon class="mdtB (ILGKOEJG_00656)
Multidrug resistance protein MdtB" points="345,25 274,25 274,10 244,40 274,70 274,55 345,55" fill="rgb(255,255,255)" fill-opacity="1.0" stroke="rgb(0,0,0)" stroke-width="2"  />
			<g>
				<title>ACR_tran (PF00873)
"AcrB/AcrD/AcrF family"</title>
				<polygon class="PF00873" points="248,40 260,28 344,28 344,52 260,52" stroke-linejoin="round" width="100" height="24" fill="rgb(63,191,60)" stroke="rgb(50,152,48)" stroke-width="1" opacity="0.75" />
			</g>
		</g>
		<g>
			<title>cdd (ILGKOEJG_00657)
Cytidine deaminase</title>
			<polygon class="cdd (ILGKOEJG_00657)
Cytidine deaminase" points="352,10 365,40 352,70" fill="rgb(255,255,255)" fill-opacity="1.0" stroke="rgb(0,0,0)" stroke-width="2"  />
			<g>
				<title>dCMP_cyt_deam_1 (PF00383)
"Cytidine and deoxycytidylate deaminase zinc-binding region"</title>
				<polygon class="PF00383" points="352,28 356,28 362,40 362,40 356,52 352,52" stroke-linejoin="round" width="10" height="24" fill="rgb(91,149,216)" stroke="rgb(72,119,172)" stroke-width="1" opacity="0.75" />
			</g>
		</g>
		<g>
			<title> (ILGKOEJG_00658)
hypothetical protein</title>
			<polygon class=" (ILGKOEJG_00658)
hypothetical protein" points="375,10 396,40 375,70" fill="rgb(255,255,255)" fill-opacity="1.0" stroke="rgb(0,0,0)" stroke-width="2"  />
			<g>
				<title>Spore-coat_CotD (PF11122)
"Inner spore coat protein D"</title>
				<polygon class="PF11122" points="376,28 384,28 392,40 384,52 376,52" stroke-linejoin="round" width="17" height="24" fill="rgb(221,153,69)" stroke="rgb(176,122,55)" stroke-width="1" opacity="0.75" />
			</g>
		</g>
		<g>
			<title> (ILGKOEJG_00659)
hypothetical protein</title>
			<polygon class=" (ILGKOEJG_00659)
hypothetical protein" points="401,10 419,40 401,70" fill="rgb(255,255,255)" fill-opacity="1.0" stroke="rgb(0,0,0)" stroke-width="2"  />
			<g>
				<title>YpsA (PF06908)
"YspA SLOG family"</title>
				<polygon class="PF06908" points="401,28 408,28 416,40 408,52 401,52" stroke-linejoin="round" width="16" height="24" fill="rgb(136,100,209)" stroke="rgb(108,80,167)" stroke-width="1" opacity="0.75" />
			</g>
		</g>
		<g>
			<title>gpsB (ILGKOEJG_00660)
Cell cycle protein GpsB</title>
			<polygon class="gpsB (ILGKOEJG_00660)
Cell cycle protein GpsB" points="422,10 433,40 422,70" fill="rgb(255,255,255)" fill-opacity="1.0" stroke="rgb(0,0,0)" stroke-width="2"  />
			<g>
				<title>DivIVA (PF05103)
"DivIVA protein"</title>
				<polygon class="PF05103" points="422,28 425,28 429,40 425,52 422,52" stroke-linejoin="round" width="8" height="24" fill="rgb(213,106,117)" stroke="rgb(170,84,93)" stroke-width="1" opacity="0.75" />
			</g>
		</g>
		<g>
			<title>rlmL (ILGKOEJG_00661)
Ribosomal RNA large subunit methyltransferase L</title>
			<polygon class="rlmL (ILGKOEJG_00661)
Ribosomal RNA large subunit methyltransferase L" points="453,25 461,25 461,10 491,40 461,70 461,55 453,55" fill="rgb(255,255,255)" fill-opacity="1.0" stroke="rgb(0,0,0)" stroke-width="2"  />
			<g>
				<title>THUMP (PF02926)
"THUMP domain"</title>
				<rect class="PF02926" x="454" y="28" stroke-linejoin="round" width="14" height="24" fill="rgb(52,209,163)" stroke="rgb(41,167,130)" stroke-width="1" opacity="0.75" />
			</g>
			<g>
				<title>UPF0020 (PF01170)
"Putative RNA methylase family UPF0020"</title>
				<polygon class="PF01170" points="469,28 475,28 487,40 475,52 469,52" stroke-linejoin="round" width="20" height="24" fill="rgb(89,182,69)" stroke="rgb(71,145,55)" stroke-width="1" opacity="0.75" />
			</g>
		</g>
		<g>
			<title>ypwA (ILGKOEJG_00662)
Carboxypeptidase 1</title>
			<polygon class="ypwA (ILGKOEJG_00662)
Carboxypeptidase 1" points="494,25 513,25 513,10 543,40 513,70 513,55 494,55" fill="rgb(255,255,255)" fill-opacity="1.0" stroke="rgb(0,0,0)" stroke-width="2"  />
			<g>
				<title>Peptidase_M32 (PF02074)
"Carboxypeptidase Taq (M32) metallopeptidase"</title>
				<polygon class="PF02074" points="494,28 527,28 539,40 527,52 494,52" stroke-linejoin="round" width="48" height="24" fill="rgb(213,142,93)" stroke="rgb(170,113,74)" stroke-width="1" opacity="0.75" />
			</g>
		</g>
		<g>
			<title>tcyA (ILGKOEJG_00663)
L-cystine-binding protein TcyA</title>
			<polygon class="tcyA (ILGKOEJG_00663)
L-cystine-binding protein TcyA" points="548,10 575,40 548,70" fill="rgb(255,255,255)" fill-opacity="1.0" stroke="rgb(0,0,0)" stroke-width="2"  />
			<g>
				<title>SBP_bac_3 (PF00497)
"Bacterial extracellular solute-binding proteins, family 3"</title>
				<polygon class="PF00497" points="553,28 560,28 571,40 560,52 553,52" stroke-linejoin="round" width="21" height="24" fill="rgb(186,76,141)" stroke="rgb(148,60,112)" stroke-width="1" opacity="0.75" />
			</g>
		</g>
		<g>
			<title>tcyB (ILGKOEJG_00664)
L-cystine transport system permease protein TcyB</title>
			<polygon class="tcyB (ILGKOEJG_00664)
L-cystine transport system permease protein TcyB" points="575,10 598,40 575,70" fill="rgb(255,255,255)" fill-opacity="1.0" stroke="rgb(0,0,0)" stroke-width="2"  />
			<g>
				<title>BPD_transp_1 (PF00528)
"Binding-protein-dependent transport system inner membrane component"</title>
				<polygon class="PF00528" points="579,28 585,28 594,40 585,52 579,52" stroke-linejoin="round" width="18" height="24" fill="rgb(77,208,225)" stroke="rgb(61,166,180)" stroke-width="1" opacity="0.75" />
			</g>
		</g>
		<g>
			<title>tcyC (ILGKOEJG_00665)
L-cystine import ATP-binding protein TcyC</title>
			<polygon class="tcyC (ILGKOEJG_00665)
L-cystine import ATP-binding protein TcyC" points="599,10 623,40 599,70" fill="rgb(255,255,255)" fill-opacity="1.0" stroke="rgb(0,0,0)" stroke-width="2"  />
			<g>
				<title>ABC_tran (PF00005)
"ABC transporter"</title>
				<polygon class="PF00005" points="600,28 610,28 615,35 615,45 610,52 600,52" stroke-linejoin="round" width="15" height="24" fill="rgb(129,201,63)" stroke="rgb(103,160,50)" stroke-width="1" opacity="0.75" />
			</g>
		</g>
		<g>
			<title> (ILGKOEJG_00666)
hypothetical protein</title>
			<polygon class=" (ILGKOEJG_00666)
hypothetical protein" points="625,40 643,10 643,70" fill="rgb(255,255,255)" fill-opacity="1.0" stroke="rgb(0,0,0)" stroke-width="2"  />
		</g>
		<g>
			<title>gno (ILGKOEJG_00667)
Gluconate 5-dehydrogenase</title>
			<polygon class="gno (ILGKOEJG_00667)
Gluconate 5-dehydrogenase" points="648,10 673,40 648,70" fill="rgb(255,255,255)" fill-opacity="1.0" stroke="rgb(0,0,0)" stroke-width="2"  />
			<g>
				<title>adh_short_C2 (PF13561)
"Enoyl-(Acyl carrier protein) reductase"</title>
				<polygon class="PF13561" points="649,28 659,28 669,40 659,52 649,52" stroke-linejoin="round" width="23" height="24" fill="rgb(73,205,127)" stroke="rgb(58,164,101)" stroke-width="1" opacity="0.75" />
			</g>
		</g>
		<g>
			<title> (ILGKOEJG_00668)
Alpha-pyrone synthesis polyketide synthase-like Pks11</title>
			<polygon class=" (ILGKOEJG_00668)
Alpha-pyrone synthesis polyketide synthase-like Pks11" points="676,25 682,25 682,10 712,40 682,70 682,55 676,55" fill="rgb(255,255,255)" fill-opacity="1.0" stroke="rgb(0,0,0)" stroke-width="2"  />
			<g>
				<title>Chal_sti_synt_N (PF00195)
"Chalcone and stilbene synthases, N-terminal domain"</title>
				<polygon class="PF00195" points="676,28 695,28 696,29 696,51 695,52 676,52" stroke-linejoin="round" width="20" height="24" fill="rgb(60,181,161)" stroke="rgb(47,144,128)" stroke-width="1" opacity="0.75" />
			</g>
		</g>
		<g>
			<title> (ILGKOEJG_00669)
hypothetical protein</title>
			<polygon class=" (ILGKOEJG_00669)
hypothetical protein" points="712,10 729,40 712,70" fill="rgb(255,255,255)" fill-opacity="1.0" stroke="rgb(0,0,0)" stroke-width="2"  />
			<g>
				<title>ICMT (PF04140)
"Isoprenylcysteine carboxyl methyltransferase (ICMT) family"</title>
				<polygon class="PF04140" points="719,29 725,40 719,51" stroke-linejoin="round" width="9" height="24" fill="rgb(100,223,104)" stroke="rgb(80,178,83)" stroke-width="1" opacity="0.75" />
			</g>
		</g>
		<g>
			<title> (ILGKOEJG_00670)
hypothetical protein</title>
			<polygon class=" (ILGKOEJG_00670)
hypothetical protein" points="736,10 745,40 736,70" fill="rgb(255,255,255)" fill-opacity="1.0" stroke="rgb(0,0,0)" stroke-width="2"  />
		</g>
		<g>
			<title>rnhA (ILGKOEJG_00671)
14.7 kDa ribonuclease H-like protein</title>
			<polygon class="rnhA (ILGKOEJG_00671)
14.7 kDa ribonuclease H-like protein" points="747,40 759,10 759,70" fill="rgb(255,255,255)" fill-opacity="1.0" stroke="rgb(0,0,0)" stroke-width="2"  />
			<g>
				<title>RVT_3 (PF13456)
"Reverse transcriptase-like"</title>
				<polygon class="PF13456" points="750,40 755,28 759,28 759,52 755,52" stroke-linejoin="round" width="12" height="24" fill="rgb(198,123,86)" stroke="rgb(158,98,68)" stroke-width="1" opacity="0.75" />
			</g>
		</g>
		<g>
			<title> (ILGKOEJG_00672)
queuosine precursor transporter</title>
			<polygon class=" (ILGKOEJG_00672)
queuosine precursor transporter" points="760,40 783,10 783,70" fill="rgb(255,255,255)" fill-opacity="1.0" stroke="rgb(0,0,0)" stroke-width="2"  />
			<g>
				<title>Vut_1 (PF02592)
"Putative vitamin uptake transporter"</title>
				<polygon class="PF02592" points="764,40 773,28 777,28 777,52 773,52" stroke-linejoin="round" width="16" height="24" fill="rgb(93,184,75)" stroke="rgb(74,147,60)" stroke-width="1" opacity="0.75" />
			</g>
		</g>
		<g>
			<title>cspB_1 (ILGKOEJG_00673)
Cold shock protein CspB</title>
			<polygon class="cspB_1 (ILGKOEJG_00673)
Cold shock protein CspB" points="791,40 797,10 797,70" fill="rgb(255,255,255)" fill-opacity="1.0" stroke="rgb(0,0,0)" stroke-width="2"  />
			<g>
				<title>CSD (PF00313)
"'Cold-shock' DNA-binding domain"</title>
				<polygon class="PF00313" points="794,40 797,28 797,28 797,52 797,52" stroke-linejoin="round" width="6" height="24" fill="rgb(87,72,181)" stroke="rgb(69,57,144)" stroke-width="1" opacity="0.75" />
			</g>
		</g>
		<g>
			<title>fhs (ILGKOEJG_00674)
Formate--tetrahydrofolate ligase</title>
			<polygon class="fhs (ILGKOEJG_00674)
Formate--tetrahydrofolate ligase" points="809,25 834,25 834,10 864,40 834,70 834,55 809,55" fill="rgb(255,255,255)" fill-opacity="1.0" stroke="rgb(0,0,0)" stroke-width="2"  />
			<g>
				<title>FTHFS (PF01268)
"Formate--tetrahydrofolate ligase"</title>
				<polygon class="PF01268" points="809,28 848,28 860,40 848,52 809,52" stroke-linejoin="round" width="55" height="24" fill="rgb(215,182,81)" stroke="rgb(172,145,64)" stroke-width="1" opacity="0.75" />
			</g>
		</g>
		<g>
			<title> (ILGKOEJG_00675)
hypothetical protein</title>
			<polygon class=" (ILGKOEJG_00675)
hypothetical protein" points="868,10 896,40 868,70" fill="rgb(255,255,255)" fill-opacity="1.0" stroke="rgb(0,0,0)" stroke-width="2"  />
			<g>
				<title>DUF72 (PF01904)
"Protein of unknown function DUF72"</title>
				<polygon class="PF01904" points="869,28 880,28 892,40 880,52 869,52" stroke-linejoin="round" width="24" height="24" fill="rgb(63,151,204)" stroke="rgb(50,120,163)" stroke-width="1" opacity="0.75" />
			</g>
		</g>
		<g>
			<title>yedJ (ILGKOEJG_00676)
putative protein YedJ</title>
			<polygon class="yedJ (ILGKOEJG_00676)
putative protein YedJ" points="896,10 916,40 896,70" fill="rgb(255,255,255)" fill-opacity="1.0" stroke="rgb(0,0,0)" stroke-width="2"  />
			<g>
				<title>HD (PF01966)
"HD domain"</title>
				<polygon class="PF01966" points="898,28 905,28 907,32 907,48 905,52 898,52" stroke-linejoin="round" width="9" height="24" fill="rgb(92,193,119)" stroke="rgb(73,154,95)" stroke-width="1" opacity="0.75" />
			</g>
		</g>
		<g>
			<title>thyA (ILGKOEJG_00677)
Thymidylate synthase</title>
			<polygon class="thyA (ILGKOEJG_00677)
Thymidylate synthase" points="917,25 919,25 919,10 949,40 919,70 919,55 917,55" fill="rgb(255,255,255)" fill-opacity="1.0" stroke="rgb(0,0,0)" stroke-width="2"  />
			<g>
				<title>Thymidylat_synt (PF00303)
"Thymidylate synthase"</title>
				<polygon class="PF00303" points="917,28 932,28 944,40 932,52 917,52" stroke-linejoin="round" width="31" height="24" fill="rgb(103,91,191)" stroke="rgb(82,72,152)" stroke-width="1" opacity="0.75" />
			</g>
		</g>
		<g>
			<title> (ILGKOEJG_00678)
IS1595 family transposase ISSsu9</title>
			<polygon class=" (ILGKOEJG_00678)
IS1595 family transposase ISSsu9" points="951,10 967,40 951,70" fill="rgb(255,255,255)" fill-opacity="1.0" stroke="rgb(0,0,0)" stroke-width="2"  />
			<g>
				<title>DHFR_1 (PF00186)
"Dihydrofolate reductase"</title>
				<polygon class="PF00186" points="951,28 957,28 964,40 957,52 951,52" stroke-linejoin="round" width="16" height="24" fill="rgb(150,188,63)" stroke="rgb(119,150,50)" stroke-width="1" opacity="0.75" />
			</g>
		</g>
		<g>
			<title>mobA (ILGKOEJG_00679)
Molybdenum cofactor guanylyltransferase</title>
			<polygon class="mobA (ILGKOEJG_00679)
Molybdenum cofactor guanylyltransferase" points="967,10 987,40 967,70" fill="rgb(255,255,255)" fill-opacity="1.0" stroke="rgb(0,0,0)" stroke-width="2"  />
			<g>
				<title>NTP_transf_3 (PF12804)
"MobA-like NTP transferase domain"</title>
				<polygon class="PF12804" points="967,28 975,28 982,38 982,42 975,52 967,52" stroke-linejoin="round" width="15" height="24" fill="rgb(52,209,196)" stroke="rgb(41,167,156)" stroke-width="1" opacity="0.75" />
			</g>
		</g>
		<g>
			<title>tatAd_1 (ILGKOEJG_00680)
Sec-independent protein translocase protein TatAd</title>
			<polygon class="tatAd_1 (ILGKOEJG_00680)
Sec-independent protein translocase protein TatAd" points="992,10 998,40 992,70" fill="rgb(255,255,255)" fill-opacity="1.0" stroke="rgb(0,0,0)" stroke-width="2"  />
			<g>
				<title>MttA_Hcf106 (PF02416)
"mttA/Hcf106 family"</title>
				<polygon class="PF02416" points="992,28 992,28 995,40 992,52 992,52" stroke-linejoin="round" width="5" height="24" fill="rgb(74,206,98)" stroke="rgb(59,164,78)" stroke-width="1" opacity="0.75" />
			</g>
		</g>
		<g>
			<title>tatAd_2 (ILGKOEJG_00681)
Sec-independent protein translocase protein TatAd</title>
			<polygon class="tatAd_2 (ILGKOEJG_00681)
Sec-independent protein translocase protein TatAd" points="1000,10 1006,40 1000,70" fill="rgb(255,255,255)" fill-opacity="1.0" stroke="rgb(0,0,0)" stroke-width="2"  />
			<g>
				<title>MttA_Hcf106 (PF02416)
"mttA/Hcf106 family"</title>
				<polygon class="PF02416" points="1000,28 1000,28 1003,40 1000,52 1000,52" stroke-linejoin="round" width="5" height="24" fill="rgb(74,206,98)" stroke="rgb(59,164,78)" stroke-width="1" opacity="0.75" />
			</g>
		</g>
		<g>
			<title>tatC1 (ILGKOEJG_00682)
Sec-independent protein translocase protein TatCd</title>
			<polygon class="tatC1 (ILGKOEJG_00682)
Sec-independent protein translocase protein TatCd" points="1008,10 1033,40 1008,70" fill="rgb(255,255,255)" fill-opacity="1.0" stroke="rgb(0,0,0)" stroke-width="2"  />
			<g>
				<title>TatC (PF00902)
"Sec-independent protein translocase protein (TatC)"</title>
				<polygon class="PF00902" points="1009,28 1019,28 1029,40 1029,40 1019,52 1009,52" stroke-linejoin="round" width="20" height="24" fill="rgb(84,193,209)" stroke="rgb(67,154,167)" stroke-width="1" opacity="0.75" />
			</g>
		</g>
		<g>
			<title> (ILGKOEJG_00683)
hypothetical protein</title>
			<polygon class=" (ILGKOEJG_00683)
hypothetical protein" points="1037,10 1044,40 1037,70" fill="rgb(255,255,255)" fill-opacity="1.0" stroke="rgb(0,0,0)" stroke-width="2"  />
			<g>
				<title>YozE_SAM_like (PF06855)
"YozE SAM-like fold"</title>
				<polygon class="PF06855" points="1037,28 1037,28 1041,40 1037,52 1037,52" stroke-linejoin="round" width="6" height="24" fill="rgb(83,201,171)" stroke="rgb(66,160,136)" stroke-width="1" opacity="0.75" />
			</g>
		</g>
		<g>
			<title>sbcD (ILGKOEJG_00684)
Nuclease SbcCD subunit D</title>
			<polygon class="sbcD (ILGKOEJG_00684)
Nuclease SbcCD subunit D" points="1045,25 1053,25 1053,10 1083,40 1053,70 1053,55 1045,55" fill="rgb(255,255,255)" fill-opacity="1.0" stroke="rgb(0,0,0)" stroke-width="2"  />
			<g>
				<title>Metallophos (PF00149)
"Calcineurin-like phosphoesterase"</title>
				<rect class="PF00149" x="1045" y="28" stroke-linejoin="round" width="21" height="24" fill="rgb(181,197,58)" stroke="rgb(144,157,46)" stroke-width="1" opacity="0.75" />
			</g>
			<g>
				<title>SbcD_C (PF12320)
"Type 5 capsule protein repressor C-terminal domain"</title>
				<polygon class="PF12320" points="1071,32 1079,40 1071,48" stroke-linejoin="round" width="9" height="24" fill="rgb(182,136,65)" stroke="rgb(145,108,52)" stroke-width="1" opacity="0.75" />
			</g>
		</g>
		<g>
			<title> (ILGKOEJG_00685)
hypothetical protein</title>
			<polygon class=" (ILGKOEJG_00685)
hypothetical protein" points="1084,25 1157,25 1157,10 1187,40 1157,70 1157,55 1084,55" fill="rgb(255,255,255)" fill-opacity="1.0" stroke="rgb(0,0,0)" stroke-width="2"  />
			<g>
				<title>AAA_23 (PF13476)
"AAA domain"</title>
				<rect class="PF13476" x="1084" y="28" stroke-linejoin="round" width="21" height="24" fill="rgb(57,185,214)" stroke="rgb(45,147,171)" stroke-width="1" opacity="0.75" />
			</g>
			<g>
				<title>SbcCD_C (PF13558)
"Putative exonuclease SbcCD, C subunit"</title>
				<polygon class="PF13558" points="1175,32 1183,40 1183,40 1175,48" stroke-linejoin="round" width="8" height="24" fill="rgb(84,179,84)" stroke="rgb(67,143,67)" stroke-width="1" opacity="0.75" />
			</g>
		</g>
		<g>
			<title>ung (ILGKOEJG_00686)
Uracil-DNA glycosylase</title>
			<polygon class="ung (ILGKOEJG_00686)
Uracil-DNA glycosylase" points="1193,10 1215,40 1193,70" fill="rgb(255,255,255)" fill-opacity="1.0" stroke="rgb(0,0,0)" stroke-width="2"  />
			<g>
				<title>UDG (PF03167)
"Uracil DNA glycosylase superfamily"</title>
				<polygon class="PF03167" points="1198,28 1203,28 1212,40 1203,52 1198,52" stroke-linejoin="round" width="16" height="24" fill="rgb(64,224,60)" stroke="rgb(51,179,48)" stroke-width="1" opacity="0.75" />
			</g>
		</g>
		<g>
			<title> (ILGKOEJG_00687)
hypothetical protein</title>
			<polygon class=" (ILGKOEJG_00687)
hypothetical protein" points="1218,10 1237,40 1218,70" fill="rgb(255,255,255)" fill-opacity="1.0" stroke="rgb(0,0,0)" stroke-width="2"  />
			<g>
				<title>YqfQ (PF14181)
"YqfQ-like protein"</title>
				<polygon class="PF14181" points="1221,28 1226,28 1233,40 1226,52 1221,52" stroke-linejoin="round" width="16" height="24" fill="rgb(207,119,57)" stroke="rgb(165,95,45)" stroke-width="1" opacity="0.75" />
			</g>
		</g>
		<g>
			<title>msrB_1 (ILGKOEJG_00688)
Peptide methionine sulfoxide reductase MsrB</title>
			<polygon class="msrB_1 (ILGKOEJG_00688)
Peptide methionine sulfoxide reductase MsrB" points="1240,25 1242,25 1242,10 1272,40 1242,70 1242,55 1240,55" fill="rgb(255,255,255)" fill-opacity="1.0" stroke="rgb(0,0,0)" stroke-width="2"  />
			<g>
				<title>PMSR (PF01625)
"Peptide methionine sulfoxide reductase"</title>
				<rect class="PF01625" x="1240" y="28" stroke-linejoin="round" width="15" height="24" fill="rgb(201,74,176)" stroke="rgb(160,59,140)" stroke-width="1" opacity="0.75" />
			</g>
			<g>
				<title>SelR (PF01641)
"SelR domain"</title>
				<polygon class="PF01641" points="1258,31 1267,40 1258,49" stroke-linejoin="round" width="12" height="24" fill="rgb(192,99,202)" stroke="rgb(153,79,161)" stroke-width="1" opacity="0.75" />
			</g>
		</g>
		<g>
			<title> (ILGKOEJG_00689)
hypothetical protein</title>
			<polygon class=" (ILGKOEJG_00689)
hypothetical protein" points="1279,40 1301,10 1301,70" fill="rgb(255,255,255)" fill-opacity="1.0" stroke="rgb(0,0,0)" stroke-width="2"  />
			<g>
				<title>Acetyltransf_1 (PF00583)
"Acetyltransferase (GNAT) family"</title>
				<polygon class="PF00583" points="1285,37 1292,28 1298,28 1298,52 1292,52 1285,43" stroke-linejoin="round" width="13" height="24" fill="rgb(121,183,50)" stroke="rgb(96,146,39)" stroke-width="1" opacity="0.75" />
			</g>
		</g>
		<g>
			<title> (ILGKOEJG_00690)
hypothetical protein</title>
			<polygon class=" (ILGKOEJG_00690)
hypothetical protein" points="1310,10 1337,40 1310,70" fill="rgb(255,255,255)" fill-opacity="1.0" stroke="rgb(0,0,0)" stroke-width="2"  />
			<g>
				<title>AbrB (PF05145)
"Transition state regulatory protein AbrB"</title>
				<polygon class="PF05145" points="1310,28 1321,28 1333,40 1321,52 1310,52" stroke-linejoin="round" width="27" height="24" fill="rgb(95,98,223)" stroke="rgb(76,78,178)" stroke-width="1" opacity="0.75" />
			</g>
		</g>
		<g>
			<title>mhqD (ILGKOEJG_00691)
Putative hydrolase MhqD</title>
			<polygon class="mhqD (ILGKOEJG_00691)
Putative hydrolase MhqD" points="1341,10 1361,40 1341,70" fill="rgb(255,255,255)" fill-opacity="1.0" stroke="rgb(0,0,0)" stroke-width="2"  />
			<g>
				<title>DLH (PF01738)
"Dienelactone hydrolase family"</title>
				<polygon class="PF01738" points="1345,28 1349,28 1357,40 1349,52 1345,52" stroke-linejoin="round" width="14" height="24" fill="rgb(188,185,48)" stroke="rgb(150,147,38)" stroke-width="1" opacity="0.75" />
			</g>
		</g>
		<g>
			<title> (ILGKOEJG_00692)
hypothetical protein</title>
			<polygon class=" (ILGKOEJG_00692)
hypothetical protein" points="1364,10 1370,40 1364,70" fill="rgb(255,255,255)" fill-opacity="1.0" stroke="rgb(0,0,0)" stroke-width="2"  />
		</g>
	</g>
</svg>
