<svg version="1.1" baseProfile="full" xmlns="http://www.w3.org/2000/svg" width="748.1666666666666" height="80">
	<g>
		<line x1="10" y1="40.0" x2="738.1666666666666" y2="40.0" style="stroke:rgb(70,70,70); stroke-width:3 "/>
		<g>
			<title> (GKEONEKI_03986)
hypothetical protein</title>
			<polygon class=" (GKEONEKI_03986)
hypothetical protein" points="10,10 23,40 10,70" fill="rgb(255,255,255)" fill-opacity="1.0" stroke="rgb(0,0,0)" stroke-width="2"  />
			<g>
				<title>NUDIX (PF00293)
"NUDIX domain"</title>
				<polygon class="PF00293" points="10,28 14,28 20,40 14,52 10,52" stroke-linejoin="round" width="11" height="24" fill="rgb(92,56,187)" stroke="rgb(73,44,149)" stroke-width="1" opacity="0.75" />
			</g>
		</g>
		<g>
			<title>yfkO (GKEONEKI_03987)
Putative NAD(P)H nitroreductase YfkO</title>
			<polygon class="yfkO (GKEONEKI_03987)
Putative NAD(P)H nitroreductase YfkO" points="25,40 47,10 47,70" fill="rgb(255,255,255)" fill-opacity="1.0" stroke="rgb(0,0,0)" stroke-width="2"  />
			<g>
				<title>Nitroreductase (PF00881)
"Nitroreductase family"</title>
				<polygon class="PF00881" points="29,40 38,28 45,28 45,52 38,52" stroke-linejoin="round" width="18" height="24" fill="rgb(79,118,187)" stroke="rgb(63,94,149)" stroke-width="1" opacity="0.75" />
			</g>
		</g>
		<g>
			<title> (GKEONEKI_03988)
hypothetical protein</title>
			<polygon class=" (GKEONEKI_03988)
hypothetical protein" points="50,40 71,10 71,70" fill="rgb(255,255,255)" fill-opacity="1.0" stroke="rgb(0,0,0)" stroke-width="2"  />
		</g>
		<g>
			<title>ybiT_2 (GKEONEKI_03989)
putative ABC transporter ATP-binding protein YbiT</title>
			<polygon class="ybiT_2 (GKEONEKI_03989)
putative ABC transporter ATP-binding protein YbiT" points="127,25 106,25 106,10 76,40 106,70 106,55 127,55" fill="rgb(255,255,255)" fill-opacity="1.0" stroke="rgb(0,0,0)" stroke-width="2"  />
			<g>
				<title>ABC_tran (PF00005)
"ABC transporter"</title>
				<polygon class="PF00005" points="81,39 92,28 93,28 93,52 92,52 81,41" stroke-linejoin="round" width="12" height="24" fill="rgb(129,201,63)" stroke="rgb(103,160,50)" stroke-width="1" opacity="0.75" />
			</g>
			<g>
				<title>ABC_tran_Xtn (PF12848)
"ABC transporter"</title>
				<rect class="PF12848" x="96" y="28" stroke-linejoin="round" width="8" height="24" fill="rgb(54,177,199)" stroke="rgb(43,141,159)" stroke-width="1" opacity="0.75" />
			</g>
			<g>
				<title>ABC_tran (PF00005)
"ABC transporter"</title>
				<rect class="PF00005" x="108" y="28" stroke-linejoin="round" width="17" height="24" fill="rgb(129,201,63)" stroke="rgb(103,160,50)" stroke-width="1" opacity="0.75" />
			</g>
		</g>
		<g>
			<title>trxB_3 (GKEONEKI_03990)
Thioredoxin reductase</title>
			<polygon class="trxB_3 (GKEONEKI_03990)
Thioredoxin reductase" points="131,25 131,25 131,10 161,40 131,70 131,55 131,55" fill="rgb(255,255,255)" fill-opacity="1.0" stroke="rgb(0,0,0)" stroke-width="2"  />
			<g>
				<title>Pyr_redox_2 (PF07992)
"Pyridine nucleotide-disulphide oxidoreductase"</title>
				<polygon class="PF07992" points="132,28 145,28 157,40 145,52 132,52" stroke-linejoin="round" width="27" height="24" fill="rgb(83,223,167)" stroke="rgb(66,178,133)" stroke-width="1" opacity="0.75" />
			</g>
		</g>
		<g>
			<title>nhaP2_3 (GKEONEKI_03991)
K(+)/H(+) antiporter NhaP2</title>
			<polygon class="nhaP2_3 (GKEONEKI_03991)
K(+)/H(+) antiporter NhaP2" points="167,25 187,25 187,10 217,40 187,70 187,55 167,55" fill="rgb(255,255,255)" fill-opacity="1.0" stroke="rgb(0,0,0)" stroke-width="2"  />
			<g>
				<title>Na_H_Exchanger (PF00999)
"Sodium/hydrogen exchanger family"</title>
				<polygon class="PF00999" points="168,28 201,28 206,33 206,47 201,52 168,52" stroke-linejoin="round" width="38" height="24" fill="rgb(229,67,191)" stroke="rgb(183,53,152)" stroke-width="1" opacity="0.75" />
			</g>
			<g>
				<title>TrkA_C (PF02080)
"TrkA-C domain"</title>
				<polygon class="PF02080" points="208,35 213,40 208,45" stroke-linejoin="round" width="6" height="24" fill="rgb(76,186,211)" stroke="rgb(60,148,168)" stroke-width="1" opacity="0.75" />
			</g>
		</g>
		<g>
			<title> (GKEONEKI_03992)
hypothetical protein</title>
			<polygon class=" (GKEONEKI_03992)
hypothetical protein" points="243,10 257,40 243,70" fill="rgb(255,255,255)" fill-opacity="1.0" stroke="rgb(0,0,0)" stroke-width="2"  />
			<g>
				<title>DMT_YdcZ (PF04657)
"Putative inner membrane exporter, YdcZ"</title>
				<polygon class="PF04657" points="243,28 248,28 253,40 248,52 243,52" stroke-linejoin="round" width="13" height="24" fill="rgb(63,139,178)" stroke="rgb(50,111,142)" stroke-width="1" opacity="0.75" />
			</g>
		</g>
		<g>
			<title>yeiL (GKEONEKI_03993)
Regulatory protein YeiL</title>
			<polygon class="yeiL (GKEONEKI_03993)
Regulatory protein YeiL" points="258,10 281,40 258,70" fill="rgb(255,255,255)" fill-opacity="1.0" stroke="rgb(0,0,0)" stroke-width="2"  />
			<g>
				<title>cNMP_binding (PF00027)
"Cyclic nucleotide-binding domain"</title>
				<polygon class="PF00027" points="261,28 268,28 269,30 269,50 268,52 261,52" stroke-linejoin="round" width="8" height="24" fill="rgb(138,95,204)" stroke="rgb(110,76,163)" stroke-width="1" opacity="0.75" />
			</g>
			<g>
				<title>HTH_Crp_2 (PF13545)
"Crp-like helix-turn-helix domain"</title>
				<polygon class="PF13545" points="273,35 277,40 273,45" stroke-linejoin="round" width="7" height="24" fill="rgb(87,137,202)" stroke="rgb(69,109,161)" stroke-width="1" opacity="0.75" />
			</g>
		</g>
		<g>
			<title> (GKEONEKI_03994)
hypothetical protein</title>
			<polygon class=" (GKEONEKI_03994)
hypothetical protein" points="281,10 296,40 281,70" fill="rgb(255,255,255)" fill-opacity="1.0" stroke="rgb(0,0,0)" stroke-width="2"  />
			<g>
				<title>DMT_YdcZ (PF04657)
"Putative inner membrane exporter, YdcZ"</title>
				<polygon class="PF04657" points="281,28 287,28 293,40 287,52 281,52" stroke-linejoin="round" width="13" height="24" fill="rgb(63,139,178)" stroke="rgb(50,111,142)" stroke-width="1" opacity="0.75" />
			</g>
		</g>
		<g>
			<title> (GKEONEKI_03995)
hypothetical protein</title>
			<polygon class=" (GKEONEKI_03995)
hypothetical protein" points="298,40 327,10 327,70" fill="rgb(255,255,255)" fill-opacity="1.0" stroke="rgb(0,0,0)" stroke-width="2"  />
			<g>
				<title>Mn_catalase (PF05067)
"Manganese containing catalase"</title>
				<polygon class="PF05067" points="302,40 314,28 327,28 327,52 314,52" stroke-linejoin="round" width="29" height="24" fill="rgb(59,189,89)" stroke="rgb(47,151,71)" stroke-width="1" opacity="0.75" />
			</g>
		</g>
		<g>
			<title> (GKEONEKI_03996)
hypothetical protein</title>
			<polygon class=" (GKEONEKI_03996)
hypothetical protein" points="328,40 335,10 335,70" fill="rgb(255,255,255)" fill-opacity="1.0" stroke="rgb(0,0,0)" stroke-width="2"  />
			<g>
				<title>DUF2642 (PF10842)
"Protein of unknown function (DUF2642)"</title>
				<polygon class="PF10842" points="331,40 334,28 334,28 334,52 334,52" stroke-linejoin="round" width="6" height="24" fill="rgb(204,85,172)" stroke="rgb(163,68,137)" stroke-width="1" opacity="0.75" />
			</g>
		</g>
		<g>
			<title>sqhC (GKEONEKI_03997)
Sporulenol synthase</title>
			<polygon class="sqhC (GKEONEKI_03997)
Sporulenol synthase" points="404,25 373,25 373,10 343,40 373,70 373,55 404,55" fill="rgb(255,255,255)" fill-opacity="1.0" stroke="rgb(0,0,0)" stroke-width="2"  />
			<g>
				<title>SQHop_cyclase_C (PF13243)
"Squalene-hopene cyclase C-terminal domain"</title>
				<polygon class="PF13243" points="347,40 359,28 374,28 374,52 359,52" stroke-linejoin="round" width="31" height="24" fill="rgb(191,58,201)" stroke="rgb(152,46,160)" stroke-width="1" opacity="0.75" />
			</g>
			<g>
				<title>SQHop_cyclase_N (PF13249)
"Squalene-hopene cyclase N-terminal domain"</title>
				<rect class="PF13249" x="375" y="28" stroke-linejoin="round" width="28" height="24" fill="rgb(88,190,89)" stroke="rgb(70,152,71)" stroke-width="1" opacity="0.75" />
			</g>
		</g>
		<g>
			<title>resA_6 (GKEONEKI_03998)
Thiol-disulfide oxidoreductase ResA</title>
			<polygon class="resA_6 (GKEONEKI_03998)
Thiol-disulfide oxidoreductase ResA" points="408,40 424,10 424,70" fill="rgb(255,255,255)" fill-opacity="1.0" stroke="rgb(0,0,0)" stroke-width="2"  />
			<g>
				<title>AhpC-TSA (PF00578)
"AhpC/TSA family"</title>
				<polygon class="PF00578" points="411,40 418,28 423,28 423,52 418,52" stroke-linejoin="round" width="13" height="24" fill="rgb(166,71,190)" stroke="rgb(132,56,152)" stroke-width="1" opacity="0.75" />
			</g>
		</g>
		<g>
			<title> (GKEONEKI_03999)
hypothetical protein</title>
			<polygon class=" (GKEONEKI_03999)
hypothetical protein" points="434,10 448,40 434,70" fill="rgb(255,255,255)" fill-opacity="1.0" stroke="rgb(0,0,0)" stroke-width="2"  />
			<g>
				<title>DUF4871 (PF16167)
"Domain of unknown function (DUF4871)"</title>
				<polygon class="PF16167" points="436,28 439,28 444,40 439,52 436,52" stroke-linejoin="round" width="11" height="24" fill="rgb(198,98,115)" stroke="rgb(158,78,91)" stroke-width="1" opacity="0.75" />
			</g>
		</g>
		<g>
			<title> (GKEONEKI_04000)
hypothetical protein</title>
			<polygon class=" (GKEONEKI_04000)
hypothetical protein" points="449,10 455,40 449,70" fill="rgb(255,255,255)" fill-opacity="1.0" stroke="rgb(0,0,0)" stroke-width="2"  />
		</g>
		<g>
			<title> (GKEONEKI_04001)
hypothetical protein</title>
			<polygon class=" (GKEONEKI_04001)
hypothetical protein" points="456,10 466,40 456,70" fill="rgb(255,255,255)" fill-opacity="1.0" stroke="rgb(0,0,0)" stroke-width="2"  />
		</g>
		<g>
			<title> (GKEONEKI_04002)
hypothetical protein</title>
			<polygon class=" (GKEONEKI_04002)
hypothetical protein" points="466,10 481,40 466,70" fill="rgb(255,255,255)" fill-opacity="1.0" stroke="rgb(0,0,0)" stroke-width="2"  />
			<g>
				<title>Acetyltransf_1 (PF00583)
"Acetyltransferase (GNAT) family"</title>
				<polygon class="PF00583" points="467,28 471,28 477,40 471,52 467,52" stroke-linejoin="round" width="12" height="24" fill="rgb(121,183,50)" stroke="rgb(96,146,39)" stroke-width="1" opacity="0.75" />
			</g>
		</g>
		<g>
			<title> (GKEONEKI_04003)
hypothetical protein</title>
			<polygon class=" (GKEONEKI_04003)
hypothetical protein" points="483,10 498,40 483,70" fill="rgb(255,255,255)" fill-opacity="1.0" stroke="rgb(0,0,0)" stroke-width="2"  />
			<g>
				<title>Cass2 (PF14526)
"Integron-associated effector binding protein"</title>
				<polygon class="PF14526" points="483,28 488,28 494,40 488,52 483,52" stroke-linejoin="round" width="14" height="24" fill="rgb(57,73,185)" stroke="rgb(45,58,148)" stroke-width="1" opacity="0.75" />
			</g>
		</g>
		<g>
			<title> (GKEONEKI_04004)
hypothetical protein</title>
			<polygon class=" (GKEONEKI_04004)
hypothetical protein" points="500,10 511,40 500,70" fill="rgb(255,255,255)" fill-opacity="1.0" stroke="rgb(0,0,0)" stroke-width="2"  />
			<g>
				<title>MerR_1 (PF13411)
"MerR HTH family regulatory protein"</title>
				<polygon class="PF13411" points="500,28 503,28 507,37 507,43 503,52 500,52" stroke-linejoin="round" width="7" height="24" fill="rgb(100,202,107)" stroke="rgb(80,161,85)" stroke-width="1" opacity="0.75" />
			</g>
		</g>
		<g>
			<title> (GKEONEKI_04005)
hypothetical protein</title>
			<polygon class=" (GKEONEKI_04005)
hypothetical protein" points="511,10 526,40 511,70" fill="rgb(255,255,255)" fill-opacity="1.0" stroke="rgb(0,0,0)" stroke-width="2"  />
			<g>
				<title>Polyketide_cyc2 (PF10604)
"Polyketide cyclase / dehydrase and lipid transport"</title>
				<polygon class="PF10604" points="511,28 516,28 522,40 516,52 511,52" stroke-linejoin="round" width="14" height="24" fill="rgb(105,204,74)" stroke="rgb(84,163,59)" stroke-width="1" opacity="0.75" />
			</g>
		</g>
		<g>
			<title> (GKEONEKI_04006)
hypothetical protein</title>
			<polygon class=" (GKEONEKI_04006)
hypothetical protein" points="530,10 558,40 530,70" fill="rgb(255,255,255)" fill-opacity="1.0" stroke="rgb(0,0,0)" stroke-width="2"  />
			<g>
				<title>Cupin_2 (PF07883)
"Cupin domain"</title>
				<polygon class="PF07883" points="548,34 554,40 548,46" stroke-linejoin="round" width="7" height="24" fill="rgb(211,192,74)" stroke="rgb(168,153,59)" stroke-width="1" opacity="0.75" />
			</g>
		</g>
		<g>
			<title> (GKEONEKI_04007)
hypothetical protein</title>
			<polygon class=" (GKEONEKI_04007)
hypothetical protein" points="567,10 579,40 567,70" fill="rgb(255,255,255)" fill-opacity="1.0" stroke="rgb(0,0,0)" stroke-width="2"  />
		</g>
		<g>
			<title> (GKEONEKI_04008)
hypothetical protein</title>
			<polygon class=" (GKEONEKI_04008)
hypothetical protein" points="586,25 591,25 591,10 621,40 591,70 591,55 586,55" fill="rgb(255,255,255)" fill-opacity="1.0" stroke="rgb(0,0,0)" stroke-width="2"  />
		</g>
		<g>
			<title> (GKEONEKI_04009)
hypothetical protein</title>
			<polygon class=" (GKEONEKI_04009)
hypothetical protein" points="621,25 638,25 638,10 668,40 638,70 638,55 621,55" fill="rgb(255,255,255)" fill-opacity="1.0" stroke="rgb(0,0,0)" stroke-width="2"  />
			<g>
				<title>Glyco_tranf_2_3 (PF13641)
"Glycosyltransferase like family 2"</title>
				<polygon class="PF13641" points="627,28 652,28 653,29 653,51 652,52 627,52" stroke-linejoin="round" width="26" height="24" fill="rgb(140,74,190)" stroke="rgb(111,59,152)" stroke-width="1" opacity="0.75" />
			</g>
		</g>
		<g>
			<title> (GKEONEKI_04010)
hypothetical protein</title>
			<polygon class=" (GKEONEKI_04010)
hypothetical protein" points="672,10 687,40 672,70" fill="rgb(255,255,255)" fill-opacity="1.0" stroke="rgb(0,0,0)" stroke-width="2"  />
			<g>
				<title>Cass2 (PF14526)
"Integron-associated effector binding protein"</title>
				<polygon class="PF14526" points="672,28 677,28 684,40 677,52 672,52" stroke-linejoin="round" width="15" height="24" fill="rgb(57,73,185)" stroke="rgb(45,58,148)" stroke-width="1" opacity="0.75" />
			</g>
		</g>
		<g>
			<title>guaC (GKEONEKI_04011)
GMP reductase</title>
			<polygon class="guaC (GKEONEKI_04011)
GMP reductase" points="721,25 719,25 719,10 689,40 719,70 719,55 721,55" fill="rgb(255,255,255)" fill-opacity="1.0" stroke="rgb(0,0,0)" stroke-width="2"  />
			<g>
				<title>IMPDH (PF00478)
"IMP dehydrogenase / GMP reductase domain"</title>
				<polygon class="PF00478" points="693,40 705,28 720,28 720,52 705,52" stroke-linejoin="round" width="31" height="24" fill="rgb(225,99,218)" stroke="rgb(180,79,174)" stroke-width="1" opacity="0.75" />
			</g>
		</g>
	</g>
</svg>
