<svg version="1.1" baseProfile="full" xmlns="http://www.w3.org/2000/svg" width="538.4" height="80">
	<g>
		<line x1="10" y1="40.0" x2="528.4" y2="40.0" style="stroke:rgb(70,70,70); stroke-width:3 "/>
		<g>
			<title>zupT (DBLALLCB_03877)
Zinc transporter ZupT</title>
			<polygon class="zupT (DBLALLCB_03877)
Zinc transporter ZupT" points="40,40 64,10 64,70" fill="rgb(255,255,255)" fill-opacity="1.0" stroke="rgb(0,0,0)" stroke-width="2"  />
			<g>
				<title>Zip (PF02535)
"ZIP Zinc transporter"</title>
				<polygon class="PF02535" points="44,40 54,28 55,28 55,52 54,52" stroke-linejoin="round" width="15" height="24" fill="rgb(217,215,73)" stroke="rgb(173,172,58)" stroke-width="1" opacity="0.75" />
			</g>
		</g>
		<g>
			<title> (DBLALLCB_03878)
hypothetical protein</title>
			<polygon class=" (DBLALLCB_03878)
hypothetical protein" points="69,25 124,25 124,10 154,40 124,70 124,55 69,55" fill="rgb(255,255,255)" fill-opacity="1.0" stroke="rgb(0,0,0)" stroke-width="2"  />
			<g>
				<title>CW_binding_2 (PF04122)
"Putative cell wall binding repeat 2"</title>
				<rect class="PF04122" x="125" y="28" stroke-linejoin="round" width="8" height="24" fill="rgb(60,76,198)" stroke="rgb(47,60,158)" stroke-width="1" opacity="0.75" />
			</g>
			<g>
				<title>CW_binding_2 (PF04122)
"Putative cell wall binding repeat 2"</title>
				<polygon class="PF04122" points="135,28 137,28 143,34 143,46 137,52 135,52" stroke-linejoin="round" width="8" height="24" fill="rgb(60,76,198)" stroke="rgb(47,60,158)" stroke-width="1" opacity="0.75" />
			</g>
			<g>
				<title>CW_binding_2 (PF04122)
"Putative cell wall binding repeat 2"</title>
				<polygon class="PF04122" points="144,35 149,40 144,45" stroke-linejoin="round" width="8" height="24" fill="rgb(60,76,198)" stroke="rgb(47,60,158)" stroke-width="1" opacity="0.75" />
			</g>
		</g>
		<g>
			<title> (DBLALLCB_03879)
hypothetical protein</title>
			<polygon class=" (DBLALLCB_03879)
hypothetical protein" points="156,40 166,10 166,70" fill="rgb(255,255,255)" fill-opacity="1.0" stroke="rgb(0,0,0)" stroke-width="2"  />
		</g>
		<g>
			<title>iucC (DBLALLCB_03880)
Aerobactin synthase</title>
			<polygon class="iucC (DBLALLCB_03880)
Aerobactin synthase" points="236,25 206,25 206,10 176,40 206,70 206,55 236,55" fill="rgb(255,255,255)" fill-opacity="1.0" stroke="rgb(0,0,0)" stroke-width="2"  />
			<g>
				<title>FhuF (PF06276)
"Ferric iron reductase FhuF-like transporter"</title>
				<polygon class="PF06276" points="180,40 192,28 194,28 194,52 192,52" stroke-linejoin="round" width="16" height="24" fill="rgb(76,151,221)" stroke="rgb(60,120,176)" stroke-width="1" opacity="0.75" />
			</g>
			<g>
				<title>IucA_IucC (PF04183)
"IucA / IucC family"</title>
				<rect class="PF04183" x="197" y="28" stroke-linejoin="round" width="25" height="24" fill="rgb(221,104,121)" stroke="rgb(176,83,96)" stroke-width="1" opacity="0.75" />
			</g>
		</g>
		<g>
			<title>iucD_3 (DBLALLCB_03881)
L-lysine N6-monooxygenase</title>
			<polygon class="iucD_3 (DBLALLCB_03881)
L-lysine N6-monooxygenase" points="283,25 268,25 268,10 238,40 268,70 268,55 283,55" fill="rgb(255,255,255)" fill-opacity="1.0" stroke="rgb(0,0,0)" stroke-width="2"  />
			<g>
				<title>K_oxygenase (PF13434)
"L-lysine 6-monooxygenase (NADPH-requiring)"</title>
				<polygon class="PF13434" points="248,34 254,28 282,28 282,52 254,52 248,46" stroke-linejoin="round" width="34" height="24" fill="rgb(81,213,119)" stroke="rgb(64,170,95)" stroke-width="1" opacity="0.75" />
			</g>
		</g>
		<g>
			<title>iucB (DBLALLCB_03882)
N(6)-hydroxylysine O-acetyltransferase</title>
			<polygon class="iucB (DBLALLCB_03882)
N(6)-hydroxylysine O-acetyltransferase" points="282,40 301,10 301,70" fill="rgb(255,255,255)" fill-opacity="1.0" stroke="rgb(0,0,0)" stroke-width="2"  />
			<g>
				<title>Acetyltransf_8 (PF13523)
"Acetyltransferase (GNAT) domain"</title>
				<polygon class="PF13523" points="286,40 294,28 299,28 299,52 294,52" stroke-linejoin="round" width="14" height="24" fill="rgb(106,224,203)" stroke="rgb(84,179,162)" stroke-width="1" opacity="0.75" />
			</g>
		</g>
		<g>
			<title>iucA (DBLALLCB_03883)
N(2)-citryl-N(6)-acetyl-N(6)-hydroxylysine synthase</title>
			<polygon class="iucA (DBLALLCB_03883)
N(2)-citryl-N(6)-acetyl-N(6)-hydroxylysine synthase" points="360,25 331,25 331,10 301,40 331,70 331,55 360,55" fill="rgb(255,255,255)" fill-opacity="1.0" stroke="rgb(0,0,0)" stroke-width="2"  />
			<g>
				<title>FhuF (PF06276)
"Ferric iron reductase FhuF-like transporter"</title>
				<polygon class="PF06276" points="305,40 317,28 319,28 319,52 317,52" stroke-linejoin="round" width="16" height="24" fill="rgb(76,151,221)" stroke="rgb(60,120,176)" stroke-width="1" opacity="0.75" />
			</g>
			<g>
				<title>IucA_IucC (PF04183)
"IucA / IucC family"</title>
				<rect class="PF04183" x="322" y="28" stroke-linejoin="round" width="23" height="24" fill="rgb(221,104,121)" stroke="rgb(176,83,96)" stroke-width="1" opacity="0.75" />
			</g>
		</g>
		<g>
			<title>ddc (DBLALLCB_03884)
L-2,4-diaminobutyrate decarboxylase</title>
			<polygon class="ddc (DBLALLCB_03884)
L-2,4-diaminobutyrate decarboxylase" points="411,25 391,25 391,10 361,40 391,70 391,55 411,55" fill="rgb(255,255,255)" fill-opacity="1.0" stroke="rgb(0,0,0)" stroke-width="2"  />
			<g>
				<title>Pyridoxal_deC (PF00282)
"Pyridoxal-dependent decarboxylase conserved domain"</title>
				<polygon class="PF00282" points="368,37 377,28 405,28 405,52 377,52 368,43" stroke-linejoin="round" width="37" height="24" fill="rgb(100,218,166)" stroke="rgb(80,174,132)" stroke-width="1" opacity="0.75" />
			</g>
		</g>
		<g>
			<title>mgtA_2 (DBLALLCB_03885)
GDP-mannose-dependent alpha-mannosyltransferase</title>
			<polygon class="mgtA_2 (DBLALLCB_03885)
GDP-mannose-dependent alpha-mannosyltransferase" points="432,25 440,25 440,10 470,40 440,70 440,55 432,55" fill="rgb(255,255,255)" fill-opacity="1.0" stroke="rgb(0,0,0)" stroke-width="2"  />
			<g>
				<title>Glyco_transf_4 (PF13439)
"Glycosyltransferase Family 4"</title>
				<rect class="PF13439" x="433" y="28" stroke-linejoin="round" width="16" height="24" fill="rgb(162,57,186)" stroke="rgb(129,45,148)" stroke-width="1" opacity="0.75" />
			</g>
			<g>
				<title>Glycos_transf_1 (PF00534)
"Glycosyl transferases group 1"</title>
				<polygon class="PF00534" points="450,28 453,28 465,40 453,52 450,52" stroke-linejoin="round" width="16" height="24" fill="rgb(228,92,150)" stroke="rgb(182,73,119)" stroke-width="1" opacity="0.75" />
			</g>
		</g>
		<g>
			<title>rhtB (DBLALLCB_03886)
Homoserine/homoserine lactone efflux protein</title>
			<polygon class="rhtB (DBLALLCB_03886)
Homoserine/homoserine lactone efflux protein" points="473,10 493,40 473,70" fill="rgb(255,255,255)" fill-opacity="1.0" stroke="rgb(0,0,0)" stroke-width="2"  />
			<g>
				<title>LysE (PF01810)
"LysE type translocator"</title>
				<polygon class="PF01810" points="474,28 481,28 490,40 481,52 474,52" stroke-linejoin="round" width="19" height="24" fill="rgb(198,75,167)" stroke="rgb(158,60,133)" stroke-width="1" opacity="0.75" />
			</g>
		</g>
	</g>
</svg>
