<svg version="1.1" baseProfile="full" xmlns="http://www.w3.org/2000/svg" width="1107.0" height="80">
	<g>
		<line x1="10" y1="40.0" x2="1097.0" y2="40.0" style="stroke:rgb(70,70,70); stroke-width:3 "/>
		<g>
			<title> (DLMDDBDI_02231)
hypothetical protein</title>
			<polygon class=" (DLMDDBDI_02231)
hypothetical protein" points="22,40 40,10 40,70" fill="rgb(255,255,255)" fill-opacity="1.0" stroke="rgb(0,0,0)" stroke-width="2"  />
			<g>
				<title>Peptidase_C92 (PF05708)
"Permuted papain-like amidase enzyme, YaeF/YiiX, C92 family"</title>
				<polygon class="PF05708" points="26,40 34,28 36,28 36,52 34,52" stroke-linejoin="round" width="14" height="24" fill="rgb(188,91,163)" stroke="rgb(150,72,130)" stroke-width="1" opacity="0.75" />
			</g>
		</g>
		<g>
			<title>kefB_1 (DLMDDBDI_02232)
Glutathione-regulated potassium-efflux system protein KefB</title>
			<polygon class="kefB_1 (DLMDDBDI_02232)
Glutathione-regulated potassium-efflux system protein KefB" points="50,25 52,25 52,10 82,40 52,70 52,55 50,55" fill="rgb(255,255,255)" fill-opacity="1.0" stroke="rgb(0,0,0)" stroke-width="2"  />
			<g>
				<title>Ion_trans_2 (PF07885)
"Ion channel"</title>
				<rect class="PF07885" x="51" y="28" stroke-linejoin="round" width="7" height="24" fill="rgb(72,141,189)" stroke="rgb(57,112,151)" stroke-width="1" opacity="0.75" />
			</g>
			<g>
				<title>TrkA_N (PF02254)
"TrkA-N domain"</title>
				<polygon class="PF02254" points="60,28 66,28 71,33 71,47 66,52 60,52" stroke-linejoin="round" width="11" height="24" fill="rgb(120,217,104)" stroke="rgb(96,173,83)" stroke-width="1" opacity="0.75" />
			</g>
			<g>
				<title>TrkA_C (PF02080)
"TrkA-C domain"</title>
				<polygon class="PF02080" points="75,37 78,40 75,43" stroke-linejoin="round" width="7" height="24" fill="rgb(76,186,211)" stroke="rgb(60,148,168)" stroke-width="1" opacity="0.75" />
			</g>
		</g>
		<g>
			<title> (DLMDDBDI_02233)
hypothetical protein</title>
			<polygon class=" (DLMDDBDI_02233)
hypothetical protein" points="87,10 112,40 87,70" fill="rgb(255,255,255)" fill-opacity="1.0" stroke="rgb(0,0,0)" stroke-width="2"  />
		</g>
		<g>
			<title>citA (DLMDDBDI_02234)
Citrate synthase 1</title>
			<polygon class="citA (DLMDDBDI_02234)
Citrate synthase 1" points="151,25 145,25 145,10 115,40 145,70 145,55 151,55" fill="rgb(255,255,255)" fill-opacity="1.0" stroke="rgb(0,0,0)" stroke-width="2"  />
			<g>
				<title>Citrate_synt (PF00285)
"Citrate synthase, C-terminal domain"</title>
				<polygon class="PF00285" points="119,40 131,28 149,28 149,52 131,52" stroke-linejoin="round" width="34" height="24" fill="rgb(217,199,102)" stroke="rgb(173,159,81)" stroke-width="1" opacity="0.75" />
			</g>
		</g>
		<g>
			<title>gcvA (DLMDDBDI_02235)
Glycine cleavage system transcriptional activator</title>
			<polygon class="gcvA (DLMDDBDI_02235)
Glycine cleavage system transcriptional activator" points="155,10 184,40 155,70" fill="rgb(255,255,255)" fill-opacity="1.0" stroke="rgb(0,0,0)" stroke-width="2"  />
			<g>
				<title>HTH_1 (PF00126)
"Bacterial regulatory helix-turn-helix protein, lysR family"</title>
				<rect class="PF00126" x="155" y="28" stroke-linejoin="round" width="5" height="24" fill="rgb(125,227,79)" stroke="rgb(99,181,63)" stroke-width="1" opacity="0.75" />
			</g>
			<g>
				<title>LysR_substrate (PF03466)
"LysR substrate binding domain"</title>
				<polygon class="PF03466" points="163,28 168,28 180,40 168,52 163,52" stroke-linejoin="round" width="20" height="24" fill="rgb(55,136,195)" stroke="rgb(44,108,156)" stroke-width="1" opacity="0.75" />
			</g>
		</g>
		<g>
			<title>mgtA_2 (DLMDDBDI_02236)
GDP-mannose-dependent alpha-mannosyltransferase</title>
			<polygon class="mgtA_2 (DLMDDBDI_02236)
GDP-mannose-dependent alpha-mannosyltransferase" points="230,25 222,25 222,10 192,40 222,70 222,55 230,55" fill="rgb(255,255,255)" fill-opacity="1.0" stroke="rgb(0,0,0)" stroke-width="2"  />
			<g>
				<title>Glycos_transf_1 (PF00534)
"Glycosyl transferases group 1"</title>
				<polygon class="PF00534" points="196,40 208,28 211,28 211,52 208,52" stroke-linejoin="round" width="16" height="24" fill="rgb(228,92,150)" stroke="rgb(182,73,119)" stroke-width="1" opacity="0.75" />
			</g>
			<g>
				<title>Glyco_transf_4 (PF13439)
"Glycosyltransferase Family 4"</title>
				<rect class="PF13439" x="213" y="28" stroke-linejoin="round" width="16" height="24" fill="rgb(162,57,186)" stroke="rgb(129,45,148)" stroke-width="1" opacity="0.75" />
			</g>
		</g>
		<g>
			<title> (DLMDDBDI_02237)
hypothetical protein</title>
			<polygon class=" (DLMDDBDI_02237)
hypothetical protein" points="269,25 261,25 261,10 231,40 261,70 261,55 269,55" fill="rgb(255,255,255)" fill-opacity="1.0" stroke="rgb(0,0,0)" stroke-width="2"  />
			<g>
				<title>Epimerase (PF01370)
"NAD dependent epimerase/dehydratase family"</title>
				<polygon class="PF01370" points="240,35 247,28 268,28 268,52 247,52 240,45" stroke-linejoin="round" width="28" height="24" fill="rgb(98,102,214)" stroke="rgb(78,81,171)" stroke-width="1" opacity="0.75" />
			</g>
		</g>
		<g>
			<title>fabG_6 (DLMDDBDI_02238)
3-oxoacyl-[acyl-carrier-protein] reductase FabG</title>
			<polygon class="fabG_6 (DLMDDBDI_02238)
3-oxoacyl-[acyl-carrier-protein] reductase FabG" points="278,40 305,10 305,70" fill="rgb(255,255,255)" fill-opacity="1.0" stroke="rgb(0,0,0)" stroke-width="2"  />
			<g>
				<title>adh_short (PF00106)
"short chain dehydrogenase"</title>
				<polygon class="PF00106" points="284,38 293,28 303,28 303,52 293,52 284,42" stroke-linejoin="round" width="19" height="24" fill="rgb(182,219,73)" stroke="rgb(145,175,58)" stroke-width="1" opacity="0.75" />
			</g>
		</g>
		<g>
			<title> (DLMDDBDI_02239)
putative acetyl-CoA acyltransferase</title>
			<polygon class=" (DLMDDBDI_02239)
putative acetyl-CoA acyltransferase" points="343,25 335,25 335,10 305,40 335,70 335,55 343,55" fill="rgb(255,255,255)" fill-opacity="1.0" stroke="rgb(0,0,0)" stroke-width="2"  />
			<g>
				<title>Thiolase_C (PF02803)
"Thiolase, C-terminal domain"</title>
				<polygon class="PF02803" points="309,40 317,32 317,48" stroke-linejoin="round" width="12" height="24" fill="rgb(218,187,56)" stroke="rgb(174,149,44)" stroke-width="1" opacity="0.75" />
			</g>
			<g>
				<title>Thiolase_N (PF00108)
"Thiolase, N-terminal domain"</title>
				<polygon class="PF00108" points="318,31 321,28 342,28 342,52 321,52 318,49" stroke-linejoin="round" width="24" height="24" fill="rgb(82,90,195)" stroke="rgb(65,72,156)" stroke-width="1" opacity="0.75" />
			</g>
		</g>
		<g>
			<title>yhfT (DLMDDBDI_02240)
putative acyl--CoA ligase YhfT</title>
			<polygon class="yhfT (DLMDDBDI_02240)
putative acyl--CoA ligase YhfT" points="392,25 373,25 373,10 343,40 373,70 373,55 392,55" fill="rgb(255,255,255)" fill-opacity="1.0" stroke="rgb(0,0,0)" stroke-width="2"  />
			<g>
				<title>AMP-binding_C (PF13193)
"AMP-binding enzyme C-terminal domain"</title>
				<polygon class="PF13193" points="347,40 352,35 352,45" stroke-linejoin="round" width="7" height="24" fill="rgb(182,50,118)" stroke="rgb(145,39,94)" stroke-width="1" opacity="0.75" />
			</g>
			<g>
				<title>AMP-binding (PF00501)
"AMP-binding enzyme"</title>
				<polygon class="PF00501" points="353,34 359,28 391,28 391,52 359,52 353,46" stroke-linejoin="round" width="38" height="24" fill="rgb(60,217,223)" stroke="rgb(48,173,178)" stroke-width="1" opacity="0.75" />
			</g>
		</g>
		<g>
			<title>bioY_2 (DLMDDBDI_02241)
Biotin transporter BioY</title>
			<polygon class="bioY_2 (DLMDDBDI_02241)
Biotin transporter BioY" points="395,40 414,10 414,70" fill="rgb(255,255,255)" fill-opacity="1.0" stroke="rgb(0,0,0)" stroke-width="2"  />
			<g>
				<title>BioY (PF02632)
"BioY family"</title>
				<polygon class="PF02632" points="399,40 407,28 410,28 410,52 407,52" stroke-linejoin="round" width="14" height="24" fill="rgb(209,203,81)" stroke="rgb(167,162,64)" stroke-width="1" opacity="0.75" />
			</g>
		</g>
		<g>
			<title> (DLMDDBDI_02242)
hypothetical protein</title>
			<polygon class=" (DLMDDBDI_02242)
hypothetical protein" points="470,25 449,25 449,10 419,40 449,70 449,55 470,55" fill="rgb(255,255,255)" fill-opacity="1.0" stroke="rgb(0,0,0)" stroke-width="2"  />
			<g>
				<title>Flot (PF15975)
"Flotillin"</title>
				<polygon class="PF15975" points="425,38 435,28 435,28 435,52 435,52 425,42" stroke-linejoin="round" width="10" height="24" fill="rgb(211,172,58)" stroke="rgb(168,137,46)" stroke-width="1" opacity="0.75" />
			</g>
			<g>
				<title>Band_7 (PF01145)
"SPFH domain / Band 7 family"</title>
				<rect class="PF01145" x="445" y="28" stroke-linejoin="round" width="20" height="24" fill="rgb(218,155,102)" stroke="rgb(174,124,81)" stroke-width="1" opacity="0.75" />
			</g>
		</g>
		<g>
			<title>acs (DLMDDBDI_02243)
Acetyl-coenzyme A synthetase</title>
			<polygon class="acs (DLMDDBDI_02243)
Acetyl-coenzyme A synthetase" points="479,25 514,25 514,10 544,40 514,70 514,55 479,55" fill="rgb(255,255,255)" fill-opacity="1.0" stroke="rgb(0,0,0)" stroke-width="2"  />
			<g>
				<title>ACAS_N (PF16177)
"Acetyl-coenzyme A synthetase N-terminus"</title>
				<rect class="PF16177" x="482" y="28" stroke-linejoin="round" width="5" height="24" fill="rgb(54,78,195)" stroke="rgb(43,62,156)" stroke-width="1" opacity="0.75" />
			</g>
			<g>
				<title>AMP-binding (PF00501)
"AMP-binding enzyme"</title>
				<polygon class="PF00501" points="488,28 528,28 531,31 531,49 528,52 488,52" stroke-linejoin="round" width="43" height="24" fill="rgb(60,217,223)" stroke="rgb(48,173,178)" stroke-width="1" opacity="0.75" />
			</g>
			<g>
				<title>AMP-binding_C (PF13193)
"AMP-binding enzyme C-terminal domain"</title>
				<polygon class="PF13193" points="532,32 539,39 539,41 532,48" stroke-linejoin="round" width="7" height="24" fill="rgb(182,50,118)" stroke="rgb(145,39,94)" stroke-width="1" opacity="0.75" />
			</g>
		</g>
		<g>
			<title>accD5 (DLMDDBDI_02244)
putative propionyl-CoA carboxylase beta chain 5</title>
			<polygon class="accD5 (DLMDDBDI_02244)
putative propionyl-CoA carboxylase beta chain 5" points="598,25 577,25 577,10 547,40 577,70 577,55 598,55" fill="rgb(255,255,255)" fill-opacity="1.0" stroke="rgb(0,0,0)" stroke-width="2"  />
			<g>
				<title>Carboxyl_trans (PF01039)
"Carboxyl transferase domain"</title>
				<polygon class="PF01039" points="551,40 563,28 595,28 595,52 563,52" stroke-linejoin="round" width="48" height="24" fill="rgb(180,136,60)" stroke="rgb(144,108,48)" stroke-width="1" opacity="0.75" />
			</g>
		</g>
		<g>
			<title>crt_2 (DLMDDBDI_02245)
Short-chain-enoyl-CoA hydratase</title>
			<polygon class="crt_2 (DLMDDBDI_02245)
Short-chain-enoyl-CoA hydratase" points="598,40 624,10 624,70" fill="rgb(255,255,255)" fill-opacity="1.0" stroke="rgb(0,0,0)" stroke-width="2"  />
			<g>
				<title>ECH_1 (PF00378)
"Enoyl-CoA hydratase/isomerase"</title>
				<polygon class="PF00378" points="602,40 612,28 623,28 623,52 612,52" stroke-linejoin="round" width="25" height="24" fill="rgb(218,72,181)" stroke="rgb(174,57,144)" stroke-width="1" opacity="0.75" />
			</g>
		</g>
		<g>
			<title>yngG_2 (DLMDDBDI_02246)
Hydroxymethylglutaryl-CoA lyase YngG</title>
			<polygon class="yngG_2 (DLMDDBDI_02246)
Hydroxymethylglutaryl-CoA lyase YngG" points="654,25 654,25 654,10 624,40 654,70 654,55 654,55" fill="rgb(255,255,255)" fill-opacity="1.0" stroke="rgb(0,0,0)" stroke-width="2"  />
			<g>
				<title>HMGL-like (PF00682)
"HMGL-like"</title>
				<polygon class="PF00682" points="628,40 640,28 653,28 653,52 640,52" stroke-linejoin="round" width="27" height="24" fill="rgb(84,228,141)" stroke="rgb(67,182,112)" stroke-width="1" opacity="0.75" />
			</g>
		</g>
		<g>
			<title>yngHB (DLMDDBDI_02247)
Biotin/lipoyl attachment protein</title>
			<polygon class="yngHB (DLMDDBDI_02247)
Biotin/lipoyl attachment protein" points="655,40 662,10 662,70" fill="rgb(255,255,255)" fill-opacity="1.0" stroke="rgb(0,0,0)" stroke-width="2"  />
			<g>
				<title>Biotin_lipoyl (PF00364)
"Biotin-requiring enzyme"</title>
				<polygon class="PF00364" points="658,40 661,28 661,28 661,52 661,52" stroke-linejoin="round" width="6" height="24" fill="rgb(67,214,213)" stroke="rgb(53,171,170)" stroke-width="1" opacity="0.75" />
			</g>
		</g>
		<g>
			<title>accC_4 (DLMDDBDI_02248)
Biotin carboxylase</title>
			<polygon class="accC_4 (DLMDDBDI_02248)
Biotin carboxylase" points="708,25 693,25 693,10 663,40 693,70 693,55 708,55" fill="rgb(255,255,255)" fill-opacity="1.0" stroke="rgb(0,0,0)" stroke-width="2"  />
			<g>
				<title>Biotin_carb_C (PF02785)
"Biotin carboxylase C-terminal domain"</title>
				<polygon class="PF02785" points="667,40 674,33 674,47" stroke-linejoin="round" width="10" height="24" fill="rgb(82,186,211)" stroke="rgb(65,148,168)" stroke-width="1" opacity="0.75" />
			</g>
			<g>
				<title>CPSase_L_D2 (PF02786)
"Carbamoyl-phosphate synthase L chain, ATP binding domain"</title>
				<polygon class="PF02786" points="675,32 679,28 695,28 695,52 679,52 675,48" stroke-linejoin="round" width="20" height="24" fill="rgb(190,97,205)" stroke="rgb(151,77,164)" stroke-width="1" opacity="0.75" />
			</g>
			<g>
				<title>Biotin_carb_N (PF00289)
"Biotin carboxylase, N-terminal domain"</title>
				<rect class="PF00289" x="697" y="28" stroke-linejoin="round" width="10" height="24" fill="rgb(59,114,187)" stroke="rgb(47,91,149)" stroke-width="1" opacity="0.75" />
			</g>
		</g>
		<g>
			<title>fadD3 (DLMDDBDI_02249)
3-[(3aS,4S,7aS)-7a-methyl-1, 5-dioxo-octahydro-1H-inden-4-yl]propanoyl:CoA ligase</title>
			<polygon class="fadD3 (DLMDDBDI_02249)
3-[(3aS,4S,7aS)-7a-methyl-1, 5-dioxo-octahydro-1H-inden-4-yl]propanoyl:CoA ligase" points="762,25 738,25 738,10 708,40 738,70 738,55 762,55" fill="rgb(255,255,255)" fill-opacity="1.0" stroke="rgb(0,0,0)" stroke-width="2"  />
			<g>
				<title>AMP-binding_C (PF13193)
"AMP-binding enzyme C-terminal domain"</title>
				<polygon class="PF13193" points="712,40 716,36 716,44" stroke-linejoin="round" width="7" height="24" fill="rgb(182,50,118)" stroke="rgb(145,39,94)" stroke-width="1" opacity="0.75" />
			</g>
			<g>
				<title>AMP-binding (PF00501)
"AMP-binding enzyme"</title>
				<polygon class="PF00501" points="718,34 724,28 761,28 761,52 724,52 718,46" stroke-linejoin="round" width="43" height="24" fill="rgb(60,217,223)" stroke="rgb(48,173,178)" stroke-width="1" opacity="0.75" />
			</g>
		</g>
		<g>
			<title>bcd (DLMDDBDI_02250)
Acyl-CoA dehydrogenase, short-chain specific</title>
			<polygon class="bcd (DLMDDBDI_02250)
Acyl-CoA dehydrogenase, short-chain specific" points="802,25 794,25 794,10 764,40 794,70 794,55 802,55" fill="rgb(255,255,255)" fill-opacity="1.0" stroke="rgb(0,0,0)" stroke-width="2"  />
			<g>
				<title>Acyl-CoA_dh_1 (PF00441)
"Acyl-CoA dehydrogenase, C-terminal domain"</title>
				<polygon class="PF00441" points="768,40 778,30 778,50" stroke-linejoin="round" width="14" height="24" fill="rgb(85,191,117)" stroke="rgb(68,152,93)" stroke-width="1" opacity="0.75" />
			</g>
			<g>
				<title>Acyl-CoA_dh_M (PF02770)
"Acyl-CoA dehydrogenase, middle domain"</title>
				<polygon class="PF02770" points="780,28 780,28 789,28 789,52 780,52 780,52" stroke-linejoin="round" width="9" height="24" fill="rgb(225,186,97)" stroke="rgb(180,148,77)" stroke-width="1" opacity="0.75" />
			</g>
			<g>
				<title>Acyl-CoA_dh_N (PF02771)
"Acyl-CoA dehydrogenase, N-terminal domain"</title>
				<rect class="PF02771" x="790" y="28" stroke-linejoin="round" width="11" height="24" fill="rgb(105,135,218)" stroke="rgb(84,108,174)" stroke-width="1" opacity="0.75" />
			</g>
		</g>
		<g>
			<title>kstR2_2 (DLMDDBDI_02251)
HTH-type transcriptional repressor KstR2</title>
			<polygon class="kstR2_2 (DLMDDBDI_02251)
HTH-type transcriptional repressor KstR2" points="804,40 825,10 825,70" fill="rgb(255,255,255)" fill-opacity="1.0" stroke="rgb(0,0,0)" stroke-width="2"  />
			<g>
				<title>TetR_C_24 (PF17932)
"Tetracyclin repressor-like, C-terminal domain"</title>
				<polygon class="PF17932" points="808,40 816,28 817,28 817,52 816,52" stroke-linejoin="round" width="11" height="24" fill="rgb(165,217,107)" stroke="rgb(132,173,85)" stroke-width="1" opacity="0.75" />
			</g>
			<g>
				<title>TetR_N (PF00440)
"Bacterial regulatory proteins, tetR family"</title>
				<rect class="PF00440" x="819" y="28" stroke-linejoin="round" width="4" height="24" fill="rgb(73,212,190)" stroke="rgb(58,169,152)" stroke-width="1" opacity="0.75" />
			</g>
		</g>
		<g>
			<title>parC (DLMDDBDI_02252)
DNA topoisomerase 4 subunit A</title>
			<polygon class="parC (DLMDDBDI_02252)
DNA topoisomerase 4 subunit A" points="916,25 864,25 864,10 834,40 864,70 864,55 916,55" fill="rgb(255,255,255)" fill-opacity="1.0" stroke="rgb(0,0,0)" stroke-width="2"  />
			<g>
				<title>DNA_gyraseA_C (PF03989)
"DNA gyrase C-terminal domain, beta-propeller"</title>
				<polygon class="PF03989" points="840,38 844,34 844,46 840,42" stroke-linejoin="round" width="4" height="24" fill="rgb(52,134,190)" stroke="rgb(41,107,152)" stroke-width="1" opacity="0.75" />
			</g>
			<g>
				<title>DNA_gyraseA_C (PF03989)
"DNA gyrase C-terminal domain, beta-propeller"</title>
				<polygon class="PF03989" points="846,32 850,28 850,28 850,52 850,52 846,48" stroke-linejoin="round" width="4" height="24" fill="rgb(52,134,190)" stroke="rgb(41,107,152)" stroke-width="1" opacity="0.75" />
			</g>
			<g>
				<title>DNA_gyraseA_C (PF03989)
"DNA gyrase C-terminal domain, beta-propeller"</title>
				<polygon class="PF03989" points="850,28 850,28 854,28 854,52 850,52 850,52" stroke-linejoin="round" width="4" height="24" fill="rgb(52,134,190)" stroke="rgb(41,107,152)" stroke-width="1" opacity="0.75" />
			</g>
			<g>
				<title>DNA_gyraseA_C (PF03989)
"DNA gyrase C-terminal domain, beta-propeller"</title>
				<rect class="PF03989" x="856" y="28" stroke-linejoin="round" width="5" height="24" fill="rgb(52,134,190)" stroke="rgb(41,107,152)" stroke-width="1" opacity="0.75" />
			</g>
			<g>
				<title>DNA_gyraseA_C (PF03989)
"DNA gyrase C-terminal domain, beta-propeller"</title>
				<rect class="PF03989" x="863" y="28" stroke-linejoin="round" width="2" height="24" fill="rgb(52,134,190)" stroke="rgb(41,107,152)" stroke-width="1" opacity="0.75" />
			</g>
			<g>
				<title>DNA_topoisoIV (PF00521)
"DNA gyrase/topoisomerase IV, subunit A"</title>
				<rect class="PF00521" x="868" y="28" stroke-linejoin="round" width="44" height="24" fill="rgb(196,204,77)" stroke="rgb(156,163,61)" stroke-width="1" opacity="0.75" />
			</g>
		</g>
		<g>
			<title>parE (DLMDDBDI_02253)
DNA topoisomerase 4 subunit B</title>
			<polygon class="parE (DLMDDBDI_02253)
DNA topoisomerase 4 subunit B" points="986,25 947,25 947,10 917,40 947,70 947,55 986,55" fill="rgb(255,255,255)" fill-opacity="1.0" stroke="rgb(0,0,0)" stroke-width="2"  />
			<g>
				<title>DNA_gyraseB_C (PF00986)
"DNA gyrase B subunit, carboxyl terminus"</title>
				<polygon class="PF00986" points="921,40 925,36 925,44" stroke-linejoin="round" width="6" height="24" fill="rgb(184,59,116)" stroke="rgb(147,47,92)" stroke-width="1" opacity="0.75" />
			</g>
			<g>
				<title>Toprim (PF01751)
"Toprim domain"</title>
				<polygon class="PF01751" points="928,33 933,28 939,28 939,52 933,52 928,47" stroke-linejoin="round" width="11" height="24" fill="rgb(95,212,145)" stroke="rgb(76,169,116)" stroke-width="1" opacity="0.75" />
			</g>
			<g>
				<title>DNA_gyraseB (PF00204)
"DNA gyrase B"</title>
				<rect class="PF00204" x="942" y="28" stroke-linejoin="round" width="17" height="24" fill="rgb(66,134,179)" stroke="rgb(52,107,143)" stroke-width="1" opacity="0.75" />
			</g>
			<g>
				<title>HATPase_c (PF02518)
"Histidine kinase-, DNA gyrase B-, and HSP90-like ATPase"</title>
				<rect class="PF02518" x="964" y="28" stroke-linejoin="round" width="14" height="24" fill="rgb(80,94,225)" stroke="rgb(64,75,180)" stroke-width="1" opacity="0.75" />
			</g>
		</g>
		<g>
			<title> (DLMDDBDI_02254)
hypothetical protein</title>
			<polygon class=" (DLMDDBDI_02254)
hypothetical protein" points="987,40 991,10 991,70" fill="rgb(255,255,255)" fill-opacity="1.0" stroke="rgb(0,0,0)" stroke-width="2"  />
		</g>
		<g>
			<title>yfiR (DLMDDBDI_02255)
putative HTH-type transcriptional regulator YfiR</title>
			<polygon class="yfiR (DLMDDBDI_02255)
putative HTH-type transcriptional regulator YfiR" points="991,40 1011,10 1011,70" fill="rgb(255,255,255)" fill-opacity="1.0" stroke="rgb(0,0,0)" stroke-width="2"  />
			<g>
				<title>TetR_C_17 (PF17922)
"Tetracyclin repressor-like, C-terminal domain"</title>
				<polygon class="PF17922" points="995,40 1001,31 1001,49" stroke-linejoin="round" width="8" height="24" fill="rgb(177,207,74)" stroke="rgb(141,165,59)" stroke-width="1" opacity="0.75" />
			</g>
			<g>
				<title>TetR_N (PF00440)
"Bacterial regulatory proteins, tetR family"</title>
				<rect class="PF00440" x="1005" y="28" stroke-linejoin="round" width="4" height="24" fill="rgb(73,212,190)" stroke="rgb(58,169,152)" stroke-width="1" opacity="0.75" />
			</g>
		</g>
		<g>
			<title>mdtG (DLMDDBDI_02256)
Multidrug resistance protein MdtG</title>
			<polygon class="mdtG (DLMDDBDI_02256)
Multidrug resistance protein MdtG" points="1052,25 1040,25 1040,10 1010,40 1040,70 1040,55 1052,55" fill="rgb(255,255,255)" fill-opacity="1.0" stroke="rgb(0,0,0)" stroke-width="2"  />
			<g>
				<title>MFS_1 (PF07690)
"Major Facilitator Superfamily"</title>
				<polygon class="PF07690" points="1015,39 1026,28 1050,28 1050,52 1026,52 1015,41" stroke-linejoin="round" width="35" height="24" fill="rgb(193,224,74)" stroke="rgb(154,179,59)" stroke-width="1" opacity="0.75" />
			</g>
		</g>
		<g>
			<title>yccU (DLMDDBDI_02257)
putative protein YccU</title>
			<polygon class="yccU (DLMDDBDI_02257)
putative protein YccU" points="1074,40 1087,10 1087,70" fill="rgb(255,255,255)" fill-opacity="1.0" stroke="rgb(0,0,0)" stroke-width="2"  />
			<g>
				<title>CoA_binding_2 (PF13380)
"CoA binding domain"</title>
				<polygon class="PF13380" points="1077,40 1083,28 1085,28 1085,52 1083,52" stroke-linejoin="round" width="11" height="24" fill="rgb(212,69,78)" stroke="rgb(169,55,62)" stroke-width="1" opacity="0.75" />
			</g>
		</g>
	</g>
</svg>
