<svg version="1.1" baseProfile="full" xmlns="http://www.w3.org/2000/svg" width="491.96666666666664" height="80">
	<g>
		<line x1="10" y1="40.0" x2="481.96666666666664" y2="40.0" style="stroke:rgb(70,70,70); stroke-width:3 "/>
		<g>
			<title>dkgB (CDOIENLM_00935)
2,5-diketo-D-gluconic acid reductase B</title>
			<polygon class="dkgB (CDOIENLM_00935)
2,5-diketo-D-gluconic acid reductase B" points="10,10 38,40 10,70" fill="rgb(255,255,255)" fill-opacity="1.0" stroke="rgb(0,0,0)" stroke-width="2"  />
			<g>
				<title>Aldo_ket_red (PF00248)
"Aldo/keto reductase family"</title>
				<polygon class="PF00248" points="11,28 22,28 33,40 22,52 11,52" stroke-linejoin="round" width="24" height="24" fill="rgb(225,205,58)" stroke="rgb(180,164,46)" stroke-width="1" opacity="0.75" />
			</g>
		</g>
		<g>
			<title> (CDOIENLM_00936)
hypothetical protein</title>
			<polygon class=" (CDOIENLM_00936)
hypothetical protein" points="49,10 73,40 49,70" fill="rgb(255,255,255)" fill-opacity="1.0" stroke="rgb(0,0,0)" stroke-width="2"  />
			<g>
				<title>PAS_4 (PF08448)
"PAS fold"</title>
				<rect class="PF08448" x="49" y="28" stroke-linejoin="round" width="10" height="24" fill="rgb(50,90,192)" stroke="rgb(40,71,153)" stroke-width="1" opacity="0.75" />
			</g>
		</g>
		<g>
			<title>yflH_1 (CDOIENLM_00937)
putative protein YflH</title>
			<polygon class="yflH_1 (CDOIENLM_00937)
putative protein YflH" points="76,40 86,10 86,70" fill="rgb(255,255,255)" fill-opacity="1.0" stroke="rgb(0,0,0)" stroke-width="2"  />
			<g>
				<title>DUF3243 (PF11588)
"Protein of unknown function (DUF3243)"</title>
				<polygon class="PF11588" points="79,40 83,28 83,28 83,52 83,52" stroke-linejoin="round" width="7" height="24" fill="rgb(75,214,128)" stroke="rgb(60,171,102)" stroke-width="1" opacity="0.75" />
			</g>
		</g>
		<g>
			<title> (CDOIENLM_00938)
hypothetical protein</title>
			<polygon class=" (CDOIENLM_00938)
hypothetical protein" points="92,10 98,40 92,70" fill="rgb(255,255,255)" fill-opacity="1.0" stroke="rgb(0,0,0)" stroke-width="2"  />
			<g>
				<title>YjzC (PF14168)
"YjzC-like protein"</title>
				<polygon class="PF14168" points="92,28 92,28 95,40 92,52 92,52" stroke-linejoin="round" width="5" height="24" fill="rgb(96,141,215)" stroke="rgb(76,112,172)" stroke-width="1" opacity="0.75" />
			</g>
		</g>
		<g>
			<title>lysC (CDOIENLM_00939)
Aspartokinase</title>
			<polygon class="lysC (CDOIENLM_00939)
Aspartokinase" points="141,25 131,25 131,10 101,40 131,70 131,55 141,55" fill="rgb(255,255,255)" fill-opacity="1.0" stroke="rgb(0,0,0)" stroke-width="2"  />
			<g>
				<title>AA_kinase (PF00696)
"Amino acid kinase family"</title>
				<rect class="PF00696" x="118" y="28" stroke-linejoin="round" width="22" height="24" fill="rgb(148,78,224)" stroke="rgb(118,62,179)" stroke-width="1" opacity="0.75" />
			</g>
		</g>
		<g>
			<title>iucC (CDOIENLM_00940)
Aerobactin synthase</title>
			<polygon class="iucC (CDOIENLM_00940)
Aerobactin synthase" points="202,25 172,25 172,10 142,40 172,70 172,55 202,55" fill="rgb(255,255,255)" fill-opacity="1.0" stroke="rgb(0,0,0)" stroke-width="2"  />
			<g>
				<title>FhuF (PF06276)
"Ferric iron reductase FhuF-like transporter"</title>
				<polygon class="PF06276" points="146,40 158,28 160,28 160,52 158,52" stroke-linejoin="round" width="16" height="24" fill="rgb(76,151,221)" stroke="rgb(60,120,176)" stroke-width="1" opacity="0.75" />
			</g>
			<g>
				<title>IucA_IucC (PF04183)
"IucA / IucC family"</title>
				<rect class="PF04183" x="163" y="28" stroke-linejoin="round" width="25" height="24" fill="rgb(221,104,121)" stroke="rgb(176,83,96)" stroke-width="1" opacity="0.75" />
			</g>
		</g>
		<g>
			<title>iucD_1 (CDOIENLM_00941)
L-lysine N6-monooxygenase</title>
			<polygon class="iucD_1 (CDOIENLM_00941)
L-lysine N6-monooxygenase" points="247,25 233,25 233,10 203,40 233,70 233,55 247,55" fill="rgb(255,255,255)" fill-opacity="1.0" stroke="rgb(0,0,0)" stroke-width="2"  />
			<g>
				<title>K_oxygenase (PF13434)
"L-lysine 6-monooxygenase (NADPH-requiring)"</title>
				<polygon class="PF13434" points="213,34 219,28 247,28 247,52 219,52 213,46" stroke-linejoin="round" width="34" height="24" fill="rgb(81,213,119)" stroke="rgb(64,170,95)" stroke-width="1" opacity="0.75" />
			</g>
		</g>
		<g>
			<title>iucB (CDOIENLM_00942)
N(6)-hydroxylysine O-acetyltransferase</title>
			<polygon class="iucB (CDOIENLM_00942)
N(6)-hydroxylysine O-acetyltransferase" points="247,40 266,10 266,70" fill="rgb(255,255,255)" fill-opacity="1.0" stroke="rgb(0,0,0)" stroke-width="2"  />
			<g>
				<title>Acetyltransf_8 (PF13523)
"Acetyltransferase (GNAT) domain"</title>
				<polygon class="PF13523" points="251,40 259,28 263,28 263,52 259,52" stroke-linejoin="round" width="14" height="24" fill="rgb(106,224,203)" stroke="rgb(84,179,162)" stroke-width="1" opacity="0.75" />
			</g>
		</g>
		<g>
			<title>iucA (CDOIENLM_00943)
N(2)-citryl-N(6)-acetyl-N(6)-hydroxylysine synthase</title>
			<polygon class="iucA (CDOIENLM_00943)
N(2)-citryl-N(6)-acetyl-N(6)-hydroxylysine synthase" points="324,25 296,25 296,10 266,40 296,70 296,55 324,55" fill="rgb(255,255,255)" fill-opacity="1.0" stroke="rgb(0,0,0)" stroke-width="2"  />
			<g>
				<title>FhuF (PF06276)
"Ferric iron reductase FhuF-like transporter"</title>
				<polygon class="PF06276" points="270,40 282,28 283,28 283,52 282,52" stroke-linejoin="round" width="15" height="24" fill="rgb(76,151,221)" stroke="rgb(60,120,176)" stroke-width="1" opacity="0.75" />
			</g>
			<g>
				<title>IucA_IucC (PF04183)
"IucA / IucC family"</title>
				<rect class="PF04183" x="287" y="28" stroke-linejoin="round" width="23" height="24" fill="rgb(221,104,121)" stroke="rgb(176,83,96)" stroke-width="1" opacity="0.75" />
			</g>
		</g>
		<g>
			<title>ddc (CDOIENLM_00944)
L-2,4-diaminobutyrate decarboxylase</title>
			<polygon class="ddc (CDOIENLM_00944)
L-2,4-diaminobutyrate decarboxylase" points="374,25 354,25 354,10 324,40 354,70 354,55 374,55" fill="rgb(255,255,255)" fill-opacity="1.0" stroke="rgb(0,0,0)" stroke-width="2"  />
			<g>
				<title>Pyridoxal_deC (PF00282)
"Pyridoxal-dependent decarboxylase conserved domain"</title>
				<polygon class="PF00282" points="331,37 340,28 368,28 368,52 340,52 331,43" stroke-linejoin="round" width="37" height="24" fill="rgb(100,218,166)" stroke="rgb(80,174,132)" stroke-width="1" opacity="0.75" />
			</g>
		</g>
		<g>
			<title>dat_1 (CDOIENLM_00945)
Diaminobutyrate--2-oxoglutarate aminotransferase</title>
			<polygon class="dat_1 (CDOIENLM_00945)
Diaminobutyrate--2-oxoglutarate aminotransferase" points="419,25 404,25 404,10 374,40 404,70 404,55 419,55" fill="rgb(255,255,255)" fill-opacity="1.0" stroke="rgb(0,0,0)" stroke-width="2"  />
			<g>
				<title>Aminotran_3 (PF00202)
"Aminotransferase class-III"</title>
				<polygon class="PF00202" points="378,40 390,28 416,28 416,52 390,52" stroke-linejoin="round" width="42" height="24" fill="rgb(49,163,189)" stroke="rgb(39,130,151)" stroke-width="1" opacity="0.75" />
			</g>
		</g>
		<g>
			<title>aes_1 (CDOIENLM_00946)
Acetyl esterase</title>
			<polygon class="aes_1 (CDOIENLM_00946)
Acetyl esterase" points="460,25 459,25 459,10 429,40 459,70 459,55 460,55" fill="rgb(255,255,255)" fill-opacity="1.0" stroke="rgb(0,0,0)" stroke-width="2"  />
			<g>
				<title>Abhydrolase_3 (PF07859)
"alpha/beta hydrolase fold"</title>
				<polygon class="PF07859" points="433,40 445,28 451,28 451,52 445,52" stroke-linejoin="round" width="20" height="24" fill="rgb(183,51,179)" stroke="rgb(146,40,143)" stroke-width="1" opacity="0.75" />
			</g>
		</g>
		<g>
			<title> (CDOIENLM_00947)
hypothetical protein</title>
			<polygon class=" (CDOIENLM_00947)
hypothetical protein" points="460,40 481,10 481,70" fill="rgb(255,255,255)" fill-opacity="1.0" stroke="rgb(0,0,0)" stroke-width="2"  />
			<g>
				<title>Acetyltransf_8 (PF13523)
"Acetyltransferase (GNAT) domain"</title>
				<polygon class="PF13523" points="464,40 472,28 478,28 478,52 472,52 464,40" stroke-linejoin="round" width="14" height="24" fill="rgb(106,224,203)" stroke="rgb(84,179,162)" stroke-width="1" opacity="0.75" />
			</g>
		</g>
	</g>
</svg>
