<svg version="1.1" baseProfile="full" xmlns="http://www.w3.org/2000/svg" width="366.43333333333334" height="80">
	<g>
		<line x1="10" y1="40.0" x2="356.43333333333334" y2="40.0" style="stroke:rgb(70,70,70); stroke-width:3 "/>
		<g>
			<title>mtlA_1 (PJBLFHJD_02184)
PTS system mannitol-specific EIICB component</title>
			<polygon class="mtlA_1 (PJBLFHJD_02184)
PTS system mannitol-specific EIICB component" points="93,25 75,25 75,10 45,40 75,70 75,55 93,55" fill="rgb(255,255,255)" fill-opacity="1.0" stroke="rgb(0,0,0)" stroke-width="2"  />
			<g>
				<title>PTS_IIB (PF02302)
"PTS system, Lactose/Cellobiose specific IIB subunit"</title>
				<polygon class="PF02302" points="49,40 53,36 53,44" stroke-linejoin="round" width="8" height="24" fill="rgb(106,212,56)" stroke="rgb(84,169,44)" stroke-width="1" opacity="0.75" />
			</g>
			<g>
				<title>PTS_EIIC (PF02378)
"Phosphotransferase system, EIIC"</title>
				<rect class="PF02378" x="65" y="28" stroke-linejoin="round" width="26" height="24" fill="rgb(73,199,212)" stroke="rgb(58,159,169)" stroke-width="1" opacity="0.75" />
			</g>
		</g>
		<g>
			<title>ectA (PJBLFHJD_02185)
L-2,4-diaminobutyric acid acetyltransferase</title>
			<polygon class="ectA (PJBLFHJD_02185)
L-2,4-diaminobutyric acid acetyltransferase" points="110,10 129,40 110,70" fill="rgb(255,255,255)" fill-opacity="1.0" stroke="rgb(0,0,0)" stroke-width="2"  />
			<g>
				<title>Acetyltransf_1 (PF00583)
"Acetyltransferase (GNAT) family"</title>
				<polygon class="PF00583" points="114,28 117,28 125,40 125,40 117,52 114,52" stroke-linejoin="round" width="11" height="24" fill="rgb(121,183,50)" stroke="rgb(96,146,39)" stroke-width="1" opacity="0.75" />
			</g>
		</g>
		<g>
			<title>ectB (PJBLFHJD_02186)
Diaminobutyrate--2-oxoglutarate transaminase</title>
			<polygon class="ectB (PJBLFHJD_02186)
Diaminobutyrate--2-oxoglutarate transaminase" points="130,25 142,25 142,10 172,40 142,70 142,55 130,55" fill="rgb(255,255,255)" fill-opacity="1.0" stroke="rgb(0,0,0)" stroke-width="2"  />
			<g>
				<title>Aminotran_3 (PF00202)
"Aminotransferase class-III"</title>
				<polygon class="PF00202" points="131,28 156,28 168,40 156,52 131,52" stroke-linejoin="round" width="39" height="24" fill="rgb(49,163,189)" stroke="rgb(39,130,151)" stroke-width="1" opacity="0.75" />
			</g>
		</g>
		<g>
			<title>ectC (PJBLFHJD_02187)
L-ectoine synthase</title>
			<polygon class="ectC (PJBLFHJD_02187)
L-ectoine synthase" points="176,10 189,40 176,70" fill="rgb(255,255,255)" fill-opacity="1.0" stroke="rgb(0,0,0)" stroke-width="2"  />
			<g>
				<title>Ectoine_synth (PF06339)
"Ectoine synthase"</title>
				<polygon class="PF06339" points="176,28 180,28 185,40 180,52 176,52" stroke-linejoin="round" width="12" height="24" fill="rgb(225,176,81)" stroke="rgb(180,140,64)" stroke-width="1" opacity="0.75" />
			</g>
		</g>
		<g>
			<title> (PJBLFHJD_02188)
hypothetical protein</title>
			<polygon class=" (PJBLFHJD_02188)
hypothetical protein" points="201,10 216,40 201,70" fill="rgb(255,255,255)" fill-opacity="1.0" stroke="rgb(0,0,0)" stroke-width="2"  />
			<g>
				<title>Glyoxalase (PF00903)
"Glyoxalase/Bleomycin resistance protein/Dioxygenase superfamily"</title>
				<polygon class="PF00903" points="202,28 206,28 212,40 206,52 202,52" stroke-linejoin="round" width="11" height="24" fill="rgb(50,162,189)" stroke="rgb(40,129,151)" stroke-width="1" opacity="0.75" />
			</g>
		</g>
		<g>
			<title> (PJBLFHJD_02189)
hypothetical protein</title>
			<polygon class=" (PJBLFHJD_02189)
hypothetical protein" points="216,40 219,10 219,70" fill="rgb(255,255,255)" fill-opacity="1.0" stroke="rgb(0,0,0)" stroke-width="2"  />
		</g>
		<g>
			<title> (PJBLFHJD_02190)
hypothetical protein</title>
			<polygon class=" (PJBLFHJD_02190)
hypothetical protein" points="222,40 226,10 226,70" fill="rgb(255,255,255)" fill-opacity="1.0" stroke="rgb(0,0,0)" stroke-width="2"  />
			<g>
				<title>YpzI (PF14140)
"YpzI-like protein"</title>
				<polygon class="PF14140" points="225,40 226,33 226,47" stroke-linejoin="round" width="4" height="24" fill="rgb(68,123,191)" stroke="rgb(54,98,152)" stroke-width="1" opacity="0.75" />
			</g>
		</g>
		<g>
			<title> (PJBLFHJD_02191)
hypothetical protein</title>
			<polygon class=" (PJBLFHJD_02191)
hypothetical protein" points="277,40 290,10 290,70" fill="rgb(255,255,255)" fill-opacity="1.0" stroke="rgb(0,0,0)" stroke-width="2"  />
			<g>
				<title>Glyoxalase (PF00903)
"Glyoxalase/Bleomycin resistance protein/Dioxygenase superfamily"</title>
				<polygon class="PF00903" points="280,40 285,28 289,28 289,52 285,52" stroke-linejoin="round" width="11" height="24" fill="rgb(50,162,189)" stroke="rgb(40,129,151)" stroke-width="1" opacity="0.75" />
			</g>
		</g>
		<g>
			<title>trxB_2 (PJBLFHJD_02192)
Thioredoxin reductase</title>
			<polygon class="trxB_2 (PJBLFHJD_02192)
Thioredoxin reductase" points="291,40 320,10 320,70" fill="rgb(255,255,255)" fill-opacity="1.0" stroke="rgb(0,0,0)" stroke-width="2"  />
			<g>
				<title>Pyr_redox_2 (PF07992)
"Pyridine nucleotide-disulphide oxidoreductase"</title>
				<polygon class="PF07992" points="295,40 307,28 320,28 320,52 307,52" stroke-linejoin="round" width="28" height="24" fill="rgb(83,223,167)" stroke="rgb(66,178,133)" stroke-width="1" opacity="0.75" />
			</g>
		</g>
		<g>
			<title>rhaS_2 (PJBLFHJD_02193)
HTH-type transcriptional activator RhaS</title>
			<polygon class="rhaS_2 (PJBLFHJD_02193)
HTH-type transcriptional activator RhaS" points="327,40 355,10 355,70" fill="rgb(255,255,255)" fill-opacity="1.0" stroke="rgb(0,0,0)" stroke-width="2"  />
			<g>
				<title>Cass2 (PF14526)
"Integron-associated effector binding protein"</title>
				<polygon class="PF14526" points="331,40 342,28 342,28 342,52 342,52" stroke-linejoin="round" width="15" height="24" fill="rgb(57,73,185)" stroke="rgb(45,58,148)" stroke-width="1" opacity="0.75" />
			</g>
			<g>
				<title>HTH_18 (PF12833)
"Helix-turn-helix domain"</title>
				<rect class="PF12833" x="345" y="28" stroke-linejoin="round" width="7" height="24" fill="rgb(216,58,224)" stroke="rgb(172,46,179)" stroke-width="1" opacity="0.75" />
			</g>
		</g>
	</g>
</svg>
