<svg version="1.1" baseProfile="full" xmlns="http://www.w3.org/2000/svg" width="161.26666666666668" height="80">
	<g>
		<line x1="10" y1="40.0" x2="151.26666666666668" y2="40.0" style="stroke:rgb(70,70,70); stroke-width:3 "/>
		<g>
			<title> (AHCFJJOH_04023)
queuosine precursor transporter</title>
			<polygon class=" (AHCFJJOH_04023)
queuosine precursor transporter" points="14,10 36,40 14,70" fill="rgb(255,255,255)" fill-opacity="1.0" stroke="rgb(0,0,0)" stroke-width="2"  />
			<g>
				<title>Vut_1 (PF02592)
"Putative vitamin uptake transporter"</title>
				<polygon class="PF02592" points="19,28 24,28 32,40 24,52 19,52" stroke-linejoin="round" width="16" height="24" fill="rgb(93,184,75)" stroke="rgb(74,147,60)" stroke-width="1" opacity="0.75" />
			</g>
		</g>
		<g>
			<title>rnhA (AHCFJJOH_04024)
14.7 kDa ribonuclease H-like protein</title>
			<polygon class="rnhA (AHCFJJOH_04024)
14.7 kDa ribonuclease H-like protein" points="37,10 50,40 37,70" fill="rgb(255,255,255)" fill-opacity="1.0" stroke="rgb(0,0,0)" stroke-width="2"  />
			<g>
				<title>RVT_3 (PF13456)
"Reverse transcriptase-like"</title>
				<polygon class="PF13456" points="37,28 41,28 47,40 41,52 37,52" stroke-linejoin="round" width="12" height="24" fill="rgb(198,123,86)" stroke="rgb(158,98,68)" stroke-width="1" opacity="0.75" />
			</g>
		</g>
		<g>
			<title> (AHCFJJOH_04025)
hypothetical protein</title>
			<polygon class=" (AHCFJJOH_04025)
hypothetical protein" points="51,40 61,10 61,70" fill="rgb(255,255,255)" fill-opacity="1.0" stroke="rgb(0,0,0)" stroke-width="2"  />
		</g>
		<g>
			<title> (AHCFJJOH_04026)
hypothetical protein</title>
			<polygon class=" (AHCFJJOH_04026)
hypothetical protein" points="71,40 88,10 88,70" fill="rgb(255,255,255)" fill-opacity="1.0" stroke="rgb(0,0,0)" stroke-width="2"  />
			<g>
				<title>ICMT (PF04140)
"Isoprenylcysteine carboxyl methyltransferase (ICMT) family"</title>
				<polygon class="PF04140" points="74,40 80,29 80,51" stroke-linejoin="round" width="9" height="24" fill="rgb(100,223,104)" stroke="rgb(80,178,83)" stroke-width="1" opacity="0.75" />
			</g>
		</g>
		<g>
			<title> (AHCFJJOH_04027)
Alpha-pyrone synthesis polyketide synthase-like Pks11</title>
			<polygon class=" (AHCFJJOH_04027)
Alpha-pyrone synthesis polyketide synthase-like Pks11" points="124,25 118,25 118,10 88,40 118,70 118,55 124,55" fill="rgb(255,255,255)" fill-opacity="1.0" stroke="rgb(0,0,0)" stroke-width="2"  />
			<g>
				<title>Chal_sti_synt_C (PF02797)
"Chalcone and stilbene synthases, C-terminal domain"</title>
				<polygon class="PF02797" points="92,40 101,31 101,49" stroke-linejoin="round" width="13" height="24" fill="rgb(139,212,63)" stroke="rgb(111,169,50)" stroke-width="1" opacity="0.75" />
			</g>
			<g>
				<title>Chal_sti_synt_N (PF00195)
"Chalcone and stilbene synthases, N-terminal domain"</title>
				<polygon class="PF00195" points="103,29 104,28 119,28 119,52 104,52 103,51" stroke-linejoin="round" width="16" height="24" fill="rgb(60,181,161)" stroke="rgb(47,144,128)" stroke-width="1" opacity="0.75" />
			</g>
		</g>
		<g>
			<title> (AHCFJJOH_04028)
hypothetical protein</title>
			<polygon class=" (AHCFJJOH_04028)
hypothetical protein" points="132,10 150,40 132,70" fill="rgb(255,255,255)" fill-opacity="1.0" stroke="rgb(0,0,0)" stroke-width="2"  />
		</g>
	</g>
</svg>
