<svg version="1.1" baseProfile="full" xmlns="http://www.w3.org/2000/svg" width="366.8333333333333" height="80">
	<g>
		<line x1="10" y1="40.0" x2="356.8333333333333" y2="40.0" style="stroke:rgb(70,70,70); stroke-width:3 "/>
		<g>
			<title> (HAMLPNCN_03937)
hypothetical protein</title>
			<polygon class=" (HAMLPNCN_03937)
hypothetical protein" points="48,10 56,40 48,70" fill="rgb(255,255,255)" fill-opacity="1.0" stroke="rgb(0,0,0)" stroke-width="2"  />
		</g>
		<g>
			<title> (HAMLPNCN_03938)
hypothetical protein</title>
			<polygon class=" (HAMLPNCN_03938)
hypothetical protein" points="57,10 72,40 57,70" fill="rgb(255,255,255)" fill-opacity="1.0" stroke="rgb(0,0,0)" stroke-width="2"  />
			<g>
				<title>Acetyltransf_1 (PF00583)
"Acetyltransferase (GNAT) family"</title>
				<polygon class="PF00583" points="58,28 62,28 69,40 62,52 58,52" stroke-linejoin="round" width="12" height="24" fill="rgb(121,183,50)" stroke="rgb(96,146,39)" stroke-width="1" opacity="0.75" />
			</g>
		</g>
		<g>
			<title> (HAMLPNCN_03939)
hypothetical protein</title>
			<polygon class=" (HAMLPNCN_03939)
hypothetical protein" points="94,10 112,40 94,70" fill="rgb(255,255,255)" fill-opacity="1.0" stroke="rgb(0,0,0)" stroke-width="2"  />
			<g>
				<title>MCPsignal (PF00015)
"Methyl-accepting chemotaxis protein (MCP) signalling domain"</title>
				<polygon class="PF00015" points="99,28 101,28 109,40 101,52 99,52" stroke-linejoin="round" width="12" height="24" fill="rgb(104,174,223)" stroke="rgb(83,139,178)" stroke-width="1" opacity="0.75" />
			</g>
		</g>
		<g>
			<title> (HAMLPNCN_03940)
hypothetical protein</title>
			<polygon class=" (HAMLPNCN_03940)
hypothetical protein" points="116,10 143,40 116,70" fill="rgb(255,255,255)" fill-opacity="1.0" stroke="rgb(0,0,0)" stroke-width="2"  />
			<g>
				<title>GGDEF (PF00990)
"Diguanylate cyclase, GGDEF domain"</title>
				<polygon class="PF00990" points="127,28 127,28 139,40 127,52 127,52" stroke-linejoin="round" width="15" height="24" fill="rgb(62,170,199)" stroke="rgb(49,135,159)" stroke-width="1" opacity="0.75" />
			</g>
		</g>
		<g>
			<title> (HAMLPNCN_03941)
hypothetical protein</title>
			<polygon class=" (HAMLPNCN_03941)
hypothetical protein" points="147,40 170,10 170,70" fill="rgb(255,255,255)" fill-opacity="1.0" stroke="rgb(0,0,0)" stroke-width="2"  />
			<g>
				<title>DUF2154 (PF09922)
"Cell wall-active antibiotics response 4TMS YvqF"</title>
				<polygon class="PF09922" points="151,40 157,32 157,48" stroke-linejoin="round" width="10" height="24" fill="rgb(190,73,196)" stroke="rgb(152,58,156)" stroke-width="1" opacity="0.75" />
			</g>
			<g>
				<title>Toast_rack_N (PF17115)
"N-terminal domain of toast_rack, DUF2154"</title>
				<polygon class="PF17115" points="157,32 160,28 165,28 165,52 160,52 157,48" stroke-linejoin="round" width="8" height="24" fill="rgb(194,78,58)" stroke="rgb(155,62,46)" stroke-width="1" opacity="0.75" />
			</g>
		</g>
		<g>
			<title>ectC (HAMLPNCN_03942)
L-ectoine synthase</title>
			<polygon class="ectC (HAMLPNCN_03942)
L-ectoine synthase" points="176,10 189,40 176,70" fill="rgb(255,255,255)" fill-opacity="1.0" stroke="rgb(0,0,0)" stroke-width="2"  />
			<g>
				<title>Ectoine_synth (PF06339)
"Ectoine synthase"</title>
				<polygon class="PF06339" points="176,28 180,28 186,40 180,52 176,52" stroke-linejoin="round" width="12" height="24" fill="rgb(225,176,81)" stroke="rgb(180,140,64)" stroke-width="1" opacity="0.75" />
			</g>
		</g>
		<g>
			<title> (HAMLPNCN_03943)
hypothetical protein</title>
			<polygon class=" (HAMLPNCN_03943)
hypothetical protein" points="194,10 202,40 194,70" fill="rgb(255,255,255)" fill-opacity="1.0" stroke="rgb(0,0,0)" stroke-width="2"  />
		</g>
		<g>
			<title> (HAMLPNCN_03944)
hypothetical protein</title>
			<polygon class=" (HAMLPNCN_03944)
hypothetical protein" points="203,10 218,40 203,70" fill="rgb(255,255,255)" fill-opacity="1.0" stroke="rgb(0,0,0)" stroke-width="2"  />
		</g>
		<g>
			<title> (HAMLPNCN_03945)
hypothetical protein</title>
			<polygon class=" (HAMLPNCN_03945)
hypothetical protein" points="218,10 225,40 218,70" fill="rgb(255,255,255)" fill-opacity="1.0" stroke="rgb(0,0,0)" stroke-width="2"  />
		</g>
		<g>
			<title> (HAMLPNCN_03946)
hypothetical protein</title>
			<polygon class=" (HAMLPNCN_03946)
hypothetical protein" points="226,40 245,10 245,70" fill="rgb(255,255,255)" fill-opacity="1.0" stroke="rgb(0,0,0)" stroke-width="2"  />
		</g>
		<g>
			<title> (HAMLPNCN_03947)
hypothetical protein</title>
			<polygon class=" (HAMLPNCN_03947)
hypothetical protein" points="257,25 257,25 257,10 287,40 257,70 257,55 257,55" fill="rgb(255,255,255)" fill-opacity="1.0" stroke="rgb(0,0,0)" stroke-width="2"  />
		</g>
		<g>
			<title> (HAMLPNCN_03948)
hypothetical protein</title>
			<polygon class=" (HAMLPNCN_03948)
hypothetical protein" points="294,40 297,10 297,70" fill="rgb(255,255,255)" fill-opacity="1.0" stroke="rgb(0,0,0)" stroke-width="2"  />
		</g>
		<g>
			<title> (HAMLPNCN_03949)
hypothetical protein</title>
			<polygon class=" (HAMLPNCN_03949)
hypothetical protein" points="318,10 328,40 318,70" fill="rgb(255,255,255)" fill-opacity="1.0" stroke="rgb(0,0,0)" stroke-width="2"  />
		</g>
	</g>
</svg>
