<svg version="1.1" baseProfile="full" xmlns="http://www.w3.org/2000/svg" width="818.2666666666667" height="80">
	<g>
		<line x1="10" y1="40.0" x2="808.2666666666667" y2="40.0" style="stroke:rgb(70,70,70); stroke-width:3 "/>
		<g>
			<title>arnC (GKEONEKI_01373)
Undecaprenyl-phosphate 4-deoxy-4-formamido-L-arabinose transferase</title>
			<polygon class="arnC (GKEONEKI_01373)
Undecaprenyl-phosphate 4-deoxy-4-formamido-L-arabinose transferase" points="40,25 44,25 44,10 74,40 44,70 44,55 40,55" fill="rgb(255,255,255)" fill-opacity="1.0" stroke="rgb(0,0,0)" stroke-width="2"  />
			<g>
				<title>Glycos_transf_2 (PF00535)
"Glycosyl transferase family 2"</title>
				<rect class="PF00535" x="40" y="28" stroke-linejoin="round" width="16" height="24" fill="rgb(224,122,96)" stroke="rgb(179,97,76)" stroke-width="1" opacity="0.75" />
			</g>
		</g>
		<g>
			<title> (GKEONEKI_01374)
hypothetical protein</title>
			<polygon class=" (GKEONEKI_01374)
hypothetical protein" points="75,25 83,25 83,10 113,40 83,70 83,55 75,55" fill="rgb(255,255,255)" fill-opacity="1.0" stroke="rgb(0,0,0)" stroke-width="2"  />
			<g>
				<title>PS_pyruv_trans (PF04230)
"Polysaccharide pyruvyl transferase"</title>
				<polygon class="PF04230" points="76,28 97,28 106,37 106,43 97,52 76,52" stroke-linejoin="round" width="30" height="24" fill="rgb(211,93,213)" stroke="rgb(168,74,170)" stroke-width="1" opacity="0.75" />
			</g>
		</g>
		<g>
			<title> (GKEONEKI_01375)
hypothetical protein</title>
			<polygon class=" (GKEONEKI_01375)
hypothetical protein" points="114,25 123,25 123,10 153,40 123,70 123,55 114,55" fill="rgb(255,255,255)" fill-opacity="1.0" stroke="rgb(0,0,0)" stroke-width="2"  />
			<g>
				<title>Glycos_transf_1 (PF00534)
"Glycosyl transferases group 1"</title>
				<polygon class="PF00534" points="135,28 137,28 149,40 137,52 135,52" stroke-linejoin="round" width="16" height="24" fill="rgb(228,92,150)" stroke="rgb(182,73,119)" stroke-width="1" opacity="0.75" />
			</g>
		</g>
		<g>
			<title> (GKEONEKI_01376)
hypothetical protein</title>
			<polygon class=" (GKEONEKI_01376)
hypothetical protein" points="154,25 163,25 163,10 193,40 163,70 163,55 154,55" fill="rgb(255,255,255)" fill-opacity="1.0" stroke="rgb(0,0,0)" stroke-width="2"  />
			<g>
				<title>Glycos_transf_1 (PF00534)
"Glycosyl transferases group 1"</title>
				<polygon class="PF00534" points="175,28 177,28 189,40 177,52 175,52" stroke-linejoin="round" width="16" height="24" fill="rgb(228,92,150)" stroke="rgb(182,73,119)" stroke-width="1" opacity="0.75" />
			</g>
		</g>
		<g>
			<title> (GKEONEKI_01377)
hypothetical protein</title>
			<polygon class=" (GKEONEKI_01377)
hypothetical protein" points="196,25 206,25 206,10 236,40 206,70 206,55 196,55" fill="rgb(255,255,255)" fill-opacity="1.0" stroke="rgb(0,0,0)" stroke-width="2"  />
			<g>
				<title>Glyco_hydro_88 (PF07470)
"Glycosyl Hydrolase Family 88"</title>
				<polygon class="PF07470" points="201,28 219,28 231,40 219,52 201,52" stroke-linejoin="round" width="32" height="24" fill="rgb(81,95,186)" stroke="rgb(64,76,148)" stroke-width="1" opacity="0.75" />
			</g>
		</g>
		<g>
			<title>dapH_1 (GKEONEKI_01378)
2,3,4,5-tetrahydropyridine-2,6-dicarboxylate N-acetyltransferase</title>
			<polygon class="dapH_1 (GKEONEKI_01378)
2,3,4,5-tetrahydropyridine-2,6-dicarboxylate N-acetyltransferase" points="242,10 253,40 242,70" fill="rgb(255,255,255)" fill-opacity="1.0" stroke="rgb(0,0,0)" stroke-width="2"  />
			<g>
				<title>Hexapep_2 (PF14602)
"Hexapeptide repeat of succinyl-transferase"</title>
				<polygon class="PF14602" points="244,28 245,28 247,32 247,48 245,52 244,52" stroke-linejoin="round" width="3" height="24" fill="rgb(79,205,115)" stroke="rgb(63,164,92)" stroke-width="1" opacity="0.75" />
			</g>
		</g>
		<g>
			<title> (GKEONEKI_01379)
hypothetical protein</title>
			<polygon class=" (GKEONEKI_01379)
hypothetical protein" points="255,10 284,40 255,70" fill="rgb(255,255,255)" fill-opacity="1.0" stroke="rgb(0,0,0)" stroke-width="2"  />
			<g>
				<title>Glycos_transf_2 (PF00535)
"Glycosyl transferase family 2"</title>
				<polygon class="PF00535" points="255,28 268,28 275,35 275,45 268,52 255,52" stroke-linejoin="round" width="20" height="24" fill="rgb(224,122,96)" stroke="rgb(179,97,76)" stroke-width="1" opacity="0.75" />
			</g>
		</g>
		<g>
			<title> (GKEONEKI_01380)
hypothetical protein</title>
			<polygon class=" (GKEONEKI_01380)
hypothetical protein" points="284,25 305,25 305,10 335,40 305,70 305,55 284,55" fill="rgb(255,255,255)" fill-opacity="1.0" stroke="rgb(0,0,0)" stroke-width="2"  />
			<g>
				<title>Polysacc_synt_3 (PF13440)
"Polysaccharide biosynthesis protein"</title>
				<rect class="PF13440" x="302" y="28" stroke-linejoin="round" width="15" height="24" fill="rgb(90,196,165)" stroke="rgb(72,156,132)" stroke-width="1" opacity="0.75" />
			</g>
		</g>
		<g>
			<title> (GKEONEKI_01381)
hypothetical protein</title>
			<polygon class=" (GKEONEKI_01381)
hypothetical protein" points="343,25 378,25 378,10 408,40 378,70 378,55 343,55" fill="rgb(255,255,255)" fill-opacity="1.0" stroke="rgb(0,0,0)" stroke-width="2"  />
			<g>
				<title>GATase_7 (PF13537)
"Glutamine amidotransferase domain"</title>
				<rect class="PF13537" x="348" y="28" stroke-linejoin="round" width="11" height="24" fill="rgb(200,63,57)" stroke="rgb(160,50,45)" stroke-width="1" opacity="0.75" />
			</g>
			<g>
				<title>Asn_synthase (PF00733)
"Asparagine synthase"</title>
				<polygon class="PF00733" points="367,28 391,28 401,38 401,42 391,52 367,52" stroke-linejoin="round" width="34" height="24" fill="rgb(97,201,176)" stroke="rgb(77,160,140)" stroke-width="1" opacity="0.75" />
			</g>
		</g>
		<g>
			<title> (GKEONEKI_01382)
hypothetical protein</title>
			<polygon class=" (GKEONEKI_01382)
hypothetical protein" points="408,10 412,40 408,70" fill="rgb(255,255,255)" fill-opacity="1.0" stroke="rgb(0,0,0)" stroke-width="2"  />
		</g>
		<g>
			<title> (GKEONEKI_01383)
hypothetical protein</title>
			<polygon class=" (GKEONEKI_01383)
hypothetical protein" points="416,25 417,25 417,10 447,40 417,70 417,55 416,55" fill="rgb(255,255,255)" fill-opacity="1.0" stroke="rgb(0,0,0)" stroke-width="2"  />
		</g>
		<g>
			<title> (GKEONEKI_01384)
hypothetical protein</title>
			<polygon class=" (GKEONEKI_01384)
hypothetical protein" points="447,10 456,40 447,70" fill="rgb(255,255,255)" fill-opacity="1.0" stroke="rgb(0,0,0)" stroke-width="2"  />
			<g>
				<title>PqqD (PF05402)
"Coenzyme PQQ synthesis protein D (PqqD)"</title>
				<polygon class="PF05402" points="449,28 449,28 453,40 449,52 449,52" stroke-linejoin="round" width="6" height="24" fill="rgb(124,62,188)" stroke="rgb(99,49,150)" stroke-width="1" opacity="0.75" />
			</g>
		</g>
		<g>
			<title> (GKEONEKI_01385)
hypothetical protein</title>
			<polygon class=" (GKEONEKI_01385)
hypothetical protein" points="458,10 474,40 458,70" fill="rgb(255,255,255)" fill-opacity="1.0" stroke="rgb(0,0,0)" stroke-width="2"  />
			<g>
				<title>Transglut_core3 (PF13471)
"Transglutaminase-like superfamily"</title>
				<polygon class="PF13471" points="459,28 464,28 470,39 470,41 464,52 459,52" stroke-linejoin="round" width="11" height="24" fill="rgb(63,111,179)" stroke="rgb(50,88,143)" stroke-width="1" opacity="0.75" />
			</g>
		</g>
		<g>
			<title> (GKEONEKI_01386)
hypothetical protein</title>
			<polygon class=" (GKEONEKI_01386)
hypothetical protein" points="473,25 482,25 482,10 512,40 482,70 482,55 473,55" fill="rgb(255,255,255)" fill-opacity="1.0" stroke="rgb(0,0,0)" stroke-width="2"  />
			<g>
				<title>NTP_transf_5 (PF14907)
"Uncharacterised nucleotidyltransferase"</title>
				<polygon class="PF14907" points="477,28 496,28 501,33 501,47 496,52 477,52" stroke-linejoin="round" width="24" height="24" fill="rgb(191,137,74)" stroke="rgb(152,109,59)" stroke-width="1" opacity="0.75" />
			</g>
		</g>
		<g>
			<title>hepA (GKEONEKI_01387)
Heterocyst differentiation ATP-binding protein HepA</title>
			<polygon class="hepA (GKEONEKI_01387)
Heterocyst differentiation ATP-binding protein HepA" points="513,25 542,25 542,10 572,40 542,70 542,55 513,55" fill="rgb(255,255,255)" fill-opacity="1.0" stroke="rgb(0,0,0)" stroke-width="2"  />
			<g>
				<title>ABC_membrane (PF00664)
"ABC transporter transmembrane region"</title>
				<rect class="PF00664" x="514" y="28" stroke-linejoin="round" width="28" height="24" fill="rgb(149,226,73)" stroke="rgb(119,180,58)" stroke-width="1" opacity="0.75" />
			</g>
			<g>
				<title>ABC_tran (PF00005)
"ABC transporter"</title>
				<polygon class="PF00005" points="550,28 556,28 564,36 564,44 556,52 550,52" stroke-linejoin="round" width="14" height="24" fill="rgb(129,201,63)" stroke="rgb(103,160,50)" stroke-width="1" opacity="0.75" />
			</g>
		</g>
		<g>
			<title> (GKEONEKI_01388)
hypothetical protein</title>
			<polygon class=" (GKEONEKI_01388)
hypothetical protein" points="574,10 579,40 574,70" fill="rgb(255,255,255)" fill-opacity="1.0" stroke="rgb(0,0,0)" stroke-width="2"  />
		</g>
		<g>
			<title> (GKEONEKI_01389)
hypothetical protein</title>
			<polygon class=" (GKEONEKI_01389)
hypothetical protein" points="580,10 605,40 580,70" fill="rgb(255,255,255)" fill-opacity="1.0" stroke="rgb(0,0,0)" stroke-width="2"  />
		</g>
		<g>
			<title> (GKEONEKI_01390)
hypothetical protein</title>
			<polygon class=" (GKEONEKI_01390)
hypothetical protein" points="606,10 615,40 606,70" fill="rgb(255,255,255)" fill-opacity="1.0" stroke="rgb(0,0,0)" stroke-width="2"  />
			<g>
				<title>PqqD (PF05402)
"Coenzyme PQQ synthesis protein D (PqqD)"</title>
				<polygon class="PF05402" points="607,28 607,28 611,40 607,52 607,52" stroke-linejoin="round" width="6" height="24" fill="rgb(124,62,188)" stroke="rgb(99,49,150)" stroke-width="1" opacity="0.75" />
			</g>
		</g>
		<g>
			<title> (GKEONEKI_01391)
hypothetical protein</title>
			<polygon class=" (GKEONEKI_01391)
hypothetical protein" points="615,10 630,40 615,70" fill="rgb(255,255,255)" fill-opacity="1.0" stroke="rgb(0,0,0)" stroke-width="2"  />
			<g>
				<title>Peptidase_S24 (PF00717)
"Peptidase S24-like"</title>
				<polygon class="PF00717" points="617,28 620,28 624,35 624,45 620,52 617,52" stroke-linejoin="round" width="7" height="24" fill="rgb(180,76,105)" stroke="rgb(144,60,83)" stroke-width="1" opacity="0.75" />
			</g>
		</g>
		<g>
			<title> (GKEONEKI_01392)
hypothetical protein</title>
			<polygon class=" (GKEONEKI_01392)
hypothetical protein" points="629,25 631,25 631,10 661,40 631,70 631,55 629,55" fill="rgb(255,255,255)" fill-opacity="1.0" stroke="rgb(0,0,0)" stroke-width="2"  />
			<g>
				<title>ABC_membrane (PF00664)
"ABC transporter transmembrane region"</title>
				<polygon class="PF00664" points="632,28 645,28 657,40 645,52 632,52" stroke-linejoin="round" width="27" height="24" fill="rgb(149,226,73)" stroke="rgb(119,180,58)" stroke-width="1" opacity="0.75" />
			</g>
		</g>
		<g>
			<title> (GKEONEKI_01393)
Putative multidrug export ATP-binding/permease protein</title>
			<polygon class=" (GKEONEKI_01393)
Putative multidrug export ATP-binding/permease protein" points="666,10 689,40 666,70" fill="rgb(255,255,255)" fill-opacity="1.0" stroke="rgb(0,0,0)" stroke-width="2"  />
			<g>
				<title>ABC_tran (PF00005)
"ABC transporter"</title>
				<polygon class="PF00005" points="666,28 676,28 680,33 680,47 676,52 666,52" stroke-linejoin="round" width="14" height="24" fill="rgb(129,201,63)" stroke="rgb(103,160,50)" stroke-width="1" opacity="0.75" />
			</g>
		</g>
		<g>
			<title> (GKEONEKI_01394)
hypothetical protein</title>
			<polygon class=" (GKEONEKI_01394)
hypothetical protein" points="690,25 695,25 695,10 725,40 695,70 695,55 690,55" fill="rgb(255,255,255)" fill-opacity="1.0" stroke="rgb(0,0,0)" stroke-width="2"  />
			<g>
				<title>NTP_transf_5 (PF14907)
"Uncharacterised nucleotidyltransferase"</title>
				<polygon class="PF14907" points="691,28 709,28 715,34 715,46 709,52 691,52" stroke-linejoin="round" width="24" height="24" fill="rgb(191,137,74)" stroke="rgb(152,109,59)" stroke-width="1" opacity="0.75" />
			</g>
		</g>
		<g>
			<title> (GKEONEKI_01395)
hypothetical protein</title>
			<polygon class=" (GKEONEKI_01395)
hypothetical protein" points="726,25 728,25 728,10 758,40 728,70 728,55 726,55" fill="rgb(255,255,255)" fill-opacity="1.0" stroke="rgb(0,0,0)" stroke-width="2"  />
			<g>
				<title>Metallophos (PF00149)
"Calcineurin-like phosphoesterase"</title>
				<polygon class="PF00149" points="730,28 742,28 750,36 750,44 742,52 730,52" stroke-linejoin="round" width="20" height="24" fill="rgb(181,197,58)" stroke="rgb(144,157,46)" stroke-width="1" opacity="0.75" />
			</g>
		</g>
		<g>
			<title>tagU_2 (GKEONEKI_01396)
Polyisoprenyl-teichoic acid--peptidoglycan teichoic acid transferase TagU</title>
			<polygon class="tagU_2 (GKEONEKI_01396)
Polyisoprenyl-teichoic acid--peptidoglycan teichoic acid transferase TagU" points="761,25 762,25 762,10 792,40 762,70 762,55 761,55" fill="rgb(255,255,255)" fill-opacity="1.0" stroke="rgb(0,0,0)" stroke-width="2"  />
			<g>
				<title>LytR_cpsA_psr (PF03816)
"Cell envelope-related transcriptional attenuator domain"</title>
				<polygon class="PF03816" points="769,28 776,28 783,35 783,45 776,52 769,52" stroke-linejoin="round" width="14" height="24" fill="rgb(212,80,62)" stroke="rgb(169,64,49)" stroke-width="1" opacity="0.75" />
			</g>
		</g>
	</g>
</svg>
