<svg version="1.1" baseProfile="full" xmlns="http://www.w3.org/2000/svg" width="535.8666666666667" height="80">
	<g>
		<line x1="10" y1="40.0" x2="525.8666666666667" y2="40.0" style="stroke:rgb(70,70,70); stroke-width:3 "/>
		<g>
			<title> (LDOKHMPG_02450)
hypothetical protein</title>
			<polygon class=" (LDOKHMPG_02450)
hypothetical protein" points="30,40 49,10 49,70" fill="rgb(255,255,255)" fill-opacity="1.0" stroke="rgb(0,0,0)" stroke-width="2"  />
			<g>
				<title>OmdA (PF13376)
"Bacteriocin-protection, YdeI or OmpD-Associated"</title>
				<polygon class="PF13376" points="34,40 35,38 35,42" stroke-linejoin="round" width="5" height="24" fill="rgb(212,104,109)" stroke="rgb(169,83,87)" stroke-width="1" opacity="0.75" />
			</g>
			<g>
				<title>DUF1801 (PF08818)
"Domain of unknown function (DU1801)"</title>
				<polygon class="PF08818" points="38,34 42,28 47,28 47,52 42,52 38,46" stroke-linejoin="round" width="9" height="24" fill="rgb(120,214,95)" stroke="rgb(96,171,76)" stroke-width="1" opacity="0.75" />
			</g>
		</g>
		<g>
			<title> (LDOKHMPG_02451)
hypothetical protein</title>
			<polygon class=" (LDOKHMPG_02451)
hypothetical protein" points="55,40 75,10 75,70" fill="rgb(255,255,255)" fill-opacity="1.0" stroke="rgb(0,0,0)" stroke-width="2"  />
		</g>
		<g>
			<title>tgl (LDOKHMPG_02452)
Protein-glutamine gamma-glutamyltransferase</title>
			<polygon class="tgl (LDOKHMPG_02452)
Protein-glutamine gamma-glutamyltransferase" points="81,10 109,40 81,70" fill="rgb(255,255,255)" fill-opacity="1.0" stroke="rgb(0,0,0)" stroke-width="2"  />
		</g>
		<g>
			<title> (LDOKHMPG_02453)
hypothetical protein</title>
			<polygon class=" (LDOKHMPG_02453)
hypothetical protein" points="113,10 120,40 113,70" fill="rgb(255,255,255)" fill-opacity="1.0" stroke="rgb(0,0,0)" stroke-width="2"  />
			<g>
				<title>YjcZ_2 (PF09680)
"Family of unknown function"</title>
				<polygon class="PF09680" points="117,40 117,40 117,40" stroke-linejoin="round" width="1" height="24" fill="rgb(79,203,107)" stroke="rgb(63,162,85)" stroke-width="1" opacity="0.75" />
			</g>
		</g>
		<g>
			<title>lysC (LDOKHMPG_02454)
Aspartokinase</title>
			<polygon class="lysC (LDOKHMPG_02454)
Aspartokinase" points="175,25 165,25 165,10 135,40 165,70 165,55 175,55" fill="rgb(255,255,255)" fill-opacity="1.0" stroke="rgb(0,0,0)" stroke-width="2"  />
			<g>
				<title>AA_kinase (PF00696)
"Amino acid kinase family"</title>
				<rect class="PF00696" x="152" y="28" stroke-linejoin="round" width="22" height="24" fill="rgb(148,78,224)" stroke="rgb(118,62,179)" stroke-width="1" opacity="0.75" />
			</g>
		</g>
		<g>
			<title>iucC (LDOKHMPG_02455)
Aerobactin synthase</title>
			<polygon class="iucC (LDOKHMPG_02455)
Aerobactin synthase" points="236,25 206,25 206,10 176,40 206,70 206,55 236,55" fill="rgb(255,255,255)" fill-opacity="1.0" stroke="rgb(0,0,0)" stroke-width="2"  />
			<g>
				<title>FhuF (PF06276)
"Ferric iron reductase FhuF-like transporter"</title>
				<polygon class="PF06276" points="180,40 192,28 194,28 194,52 192,52" stroke-linejoin="round" width="16" height="24" fill="rgb(76,151,221)" stroke="rgb(60,120,176)" stroke-width="1" opacity="0.75" />
			</g>
			<g>
				<title>IucA_IucC (PF04183)
"IucA / IucC family"</title>
				<rect class="PF04183" x="197" y="28" stroke-linejoin="round" width="25" height="24" fill="rgb(221,104,121)" stroke="rgb(176,83,96)" stroke-width="1" opacity="0.75" />
			</g>
		</g>
		<g>
			<title>iucD_3 (LDOKHMPG_02456)
L-lysine N6-monooxygenase</title>
			<polygon class="iucD_3 (LDOKHMPG_02456)
L-lysine N6-monooxygenase" points="281,25 267,25 267,10 237,40 267,70 267,55 281,55" fill="rgb(255,255,255)" fill-opacity="1.0" stroke="rgb(0,0,0)" stroke-width="2"  />
			<g>
				<title>K_oxygenase (PF13434)
"L-lysine 6-monooxygenase (NADPH-requiring)"</title>
				<polygon class="PF13434" points="246,35 253,28 280,28 280,52 253,52 246,45" stroke-linejoin="round" width="34" height="24" fill="rgb(81,213,119)" stroke="rgb(64,170,95)" stroke-width="1" opacity="0.75" />
			</g>
		</g>
		<g>
			<title>iucB (LDOKHMPG_02457)
N(6)-hydroxylysine O-acetyltransferase</title>
			<polygon class="iucB (LDOKHMPG_02457)
N(6)-hydroxylysine O-acetyltransferase" points="281,40 300,10 300,70" fill="rgb(255,255,255)" fill-opacity="1.0" stroke="rgb(0,0,0)" stroke-width="2"  />
			<g>
				<title>Acetyltransf_8 (PF13523)
"Acetyltransferase (GNAT) domain"</title>
				<polygon class="PF13523" points="285,40 293,28 297,28 297,52 293,52" stroke-linejoin="round" width="14" height="24" fill="rgb(106,224,203)" stroke="rgb(84,179,162)" stroke-width="1" opacity="0.75" />
			</g>
		</g>
		<g>
			<title>iucA (LDOKHMPG_02458)
N(2)-citryl-N(6)-acetyl-N(6)-hydroxylysine synthase</title>
			<polygon class="iucA (LDOKHMPG_02458)
N(2)-citryl-N(6)-acetyl-N(6)-hydroxylysine synthase" points="359,25 330,25 330,10 300,40 330,70 330,55 359,55" fill="rgb(255,255,255)" fill-opacity="1.0" stroke="rgb(0,0,0)" stroke-width="2"  />
			<g>
				<title>FhuF (PF06276)
"Ferric iron reductase FhuF-like transporter"</title>
				<polygon class="PF06276" points="304,40 316,28 317,28 317,52 316,52" stroke-linejoin="round" width="15" height="24" fill="rgb(76,151,221)" stroke="rgb(60,120,176)" stroke-width="1" opacity="0.75" />
			</g>
			<g>
				<title>IucA_IucC (PF04183)
"IucA / IucC family"</title>
				<rect class="PF04183" x="321" y="28" stroke-linejoin="round" width="23" height="24" fill="rgb(221,104,121)" stroke="rgb(176,83,96)" stroke-width="1" opacity="0.75" />
			</g>
		</g>
		<g>
			<title>ddc (LDOKHMPG_02459)
L-2,4-diaminobutyrate decarboxylase</title>
			<polygon class="ddc (LDOKHMPG_02459)
L-2,4-diaminobutyrate decarboxylase" points="409,25 389,25 389,10 359,40 389,70 389,55 409,55" fill="rgb(255,255,255)" fill-opacity="1.0" stroke="rgb(0,0,0)" stroke-width="2"  />
			<g>
				<title>Pyridoxal_deC (PF00282)
"Pyridoxal-dependent decarboxylase conserved domain"</title>
				<polygon class="PF00282" points="366,37 375,28 403,28 403,52 375,52 366,43" stroke-linejoin="round" width="37" height="24" fill="rgb(100,218,166)" stroke="rgb(80,174,132)" stroke-width="1" opacity="0.75" />
			</g>
		</g>
		<g>
			<title>dat_1 (LDOKHMPG_02460)
Diaminobutyrate--2-oxoglutarate aminotransferase</title>
			<polygon class="dat_1 (LDOKHMPG_02460)
Diaminobutyrate--2-oxoglutarate aminotransferase" points="454,25 439,25 439,10 409,40 439,70 439,55 454,55" fill="rgb(255,255,255)" fill-opacity="1.0" stroke="rgb(0,0,0)" stroke-width="2"  />
			<g>
				<title>Aminotran_3 (PF00202)
"Aminotransferase class-III"</title>
				<polygon class="PF00202" points="413,40 425,28 451,28 451,52 425,52" stroke-linejoin="round" width="42" height="24" fill="rgb(49,163,189)" stroke="rgb(39,130,151)" stroke-width="1" opacity="0.75" />
			</g>
		</g>
		<g>
			<title>citS_2 (LDOKHMPG_02461)
Citrate-sodium symporter</title>
			<polygon class="citS_2 (LDOKHMPG_02461)
Citrate-sodium symporter" points="511,25 497,25 497,10 467,40 497,70 497,55 511,55" fill="rgb(255,255,255)" fill-opacity="1.0" stroke="rgb(0,0,0)" stroke-width="2"  />
			<g>
				<title>2HCT (PF03390)
"2-hydroxycarboxylate transporter family"</title>
				<polygon class="PF03390" points="471,40 483,28 507,28 507,52 483,52" stroke-linejoin="round" width="40" height="24" fill="rgb(192,160,88)" stroke="rgb(153,128,70)" stroke-width="1" opacity="0.75" />
			</g>
		</g>
	</g>
</svg>
