<svg version="1.1" baseProfile="full" xmlns="http://www.w3.org/2000/svg" width="1389.4333333333334" height="80">
	<g>
		<line x1="10" y1="40.0" x2="1379.4333333333334" y2="40.0" style="stroke:rgb(70,70,70); stroke-width:3 "/>
		<g>
			<title> (GKEONEKI_02676)
hypothetical protein</title>
			<polygon class=" (GKEONEKI_02676)
hypothetical protein" points="60,25 56,25 56,10 26,40 56,70 56,55 60,55" fill="rgb(255,255,255)" fill-opacity="1.0" stroke="rgb(0,0,0)" stroke-width="2"  />
			<g>
				<title>AbrB (PF05145)
"Transition state regulatory protein AbrB"</title>
				<polygon class="PF05145" points="30,40 42,28 57,28 57,52 42,52" stroke-linejoin="round" width="31" height="24" fill="rgb(95,98,223)" stroke="rgb(76,78,178)" stroke-width="1" opacity="0.75" />
			</g>
		</g>
		<g>
			<title>fadR_2 (GKEONEKI_02677)
Fatty acid metabolism regulator protein</title>
			<polygon class="fadR_2 (GKEONEKI_02677)
Fatty acid metabolism regulator protein" points="63,40 82,10 82,70" fill="rgb(255,255,255)" fill-opacity="1.0" stroke="rgb(0,0,0)" stroke-width="2"  />
			<g>
				<title>TetR_N (PF00440)
"Bacterial regulatory proteins, tetR family"</title>
				<rect class="PF00440" x="76" y="28" stroke-linejoin="round" width="4" height="24" fill="rgb(73,212,190)" stroke="rgb(58,169,152)" stroke-width="1" opacity="0.75" />
			</g>
		</g>
		<g>
			<title>msrB_2 (GKEONEKI_02678)
Peptide methionine sulfoxide reductase MsrB</title>
			<polygon class="msrB_2 (GKEONEKI_02678)
Peptide methionine sulfoxide reductase MsrB" points="116,25 114,25 114,10 84,40 114,70 114,55 116,55" fill="rgb(255,255,255)" fill-opacity="1.0" stroke="rgb(0,0,0)" stroke-width="2"  />
			<g>
				<title>SelR (PF01641)
"SelR domain"</title>
				<polygon class="PF01641" points="88,40 97,31 97,49" stroke-linejoin="round" width="12" height="24" fill="rgb(192,99,202)" stroke="rgb(153,79,161)" stroke-width="1" opacity="0.75" />
			</g>
			<g>
				<title>PMSR (PF01625)
"Peptide methionine sulfoxide reductase"</title>
				<polygon class="PF01625" points="100,28 100,28 115,28 115,52 100,52 100,52" stroke-linejoin="round" width="15" height="24" fill="rgb(201,74,176)" stroke="rgb(160,59,140)" stroke-width="1" opacity="0.75" />
			</g>
		</g>
		<g>
			<title> (GKEONEKI_02679)
hypothetical protein</title>
			<polygon class=" (GKEONEKI_02679)
hypothetical protein" points="119,40 137,10 137,70" fill="rgb(255,255,255)" fill-opacity="1.0" stroke="rgb(0,0,0)" stroke-width="2"  />
			<g>
				<title>YqfQ (PF14181)
"YqfQ-like protein"</title>
				<polygon class="PF14181" points="123,40 130,28 136,28 136,52 130,52" stroke-linejoin="round" width="17" height="24" fill="rgb(207,119,57)" stroke="rgb(165,95,45)" stroke-width="1" opacity="0.75" />
			</g>
		</g>
		<g>
			<title>ung (GKEONEKI_02680)
Uracil-DNA glycosylase</title>
			<polygon class="ung (GKEONEKI_02680)
Uracil-DNA glycosylase" points="139,40 162,10 162,70" fill="rgb(255,255,255)" fill-opacity="1.0" stroke="rgb(0,0,0)" stroke-width="2"  />
			<g>
				<title>UDG (PF03167)
"Uracil DNA glycosylase superfamily"</title>
				<polygon class="PF03167" points="143,40 152,28 157,28 157,52 152,52" stroke-linejoin="round" width="16" height="24" fill="rgb(64,224,60)" stroke="rgb(51,179,48)" stroke-width="1" opacity="0.75" />
			</g>
		</g>
		<g>
			<title> (GKEONEKI_02681)
hypothetical protein</title>
			<polygon class=" (GKEONEKI_02681)
hypothetical protein" points="271,25 198,25 198,10 168,40 198,70 198,55 271,55" fill="rgb(255,255,255)" fill-opacity="1.0" stroke="rgb(0,0,0)" stroke-width="2"  />
			<g>
				<title>SbcCD_C (PF13558)
"Putative exonuclease SbcCD, C subunit"</title>
				<polygon class="PF13558" points="172,40 180,32 180,48 172,40" stroke-linejoin="round" width="8" height="24" fill="rgb(84,179,84)" stroke="rgb(67,143,67)" stroke-width="1" opacity="0.75" />
			</g>
			<g>
				<title>AAA_23 (PF13476)
"AAA domain"</title>
				<rect class="PF13476" x="247" y="28" stroke-linejoin="round" width="24" height="24" fill="rgb(57,185,214)" stroke="rgb(45,147,171)" stroke-width="1" opacity="0.75" />
			</g>
		</g>
		<g>
			<title>sbcD (GKEONEKI_02682)
Nuclease SbcCD subunit D</title>
			<polygon class="sbcD (GKEONEKI_02682)
Nuclease SbcCD subunit D" points="310,25 302,25 302,10 272,40 302,70 302,55 310,55" fill="rgb(255,255,255)" fill-opacity="1.0" stroke="rgb(0,0,0)" stroke-width="2"  />
			<g>
				<title>SbcD_C (PF12320)
"Type 5 capsule protein repressor C-terminal domain"</title>
				<polygon class="PF12320" points="276,40 283,33 283,47" stroke-linejoin="round" width="9" height="24" fill="rgb(182,136,65)" stroke="rgb(145,108,52)" stroke-width="1" opacity="0.75" />
			</g>
			<g>
				<title>Metallophos (PF00149)
"Calcineurin-like phosphoesterase"</title>
				<polygon class="PF00149" points="288,28 288,28 309,28 309,52 288,52 288,52" stroke-linejoin="round" width="21" height="24" fill="rgb(181,197,58)" stroke="rgb(144,157,46)" stroke-width="1" opacity="0.75" />
			</g>
		</g>
		<g>
			<title> (GKEONEKI_02683)
hypothetical protein</title>
			<polygon class=" (GKEONEKI_02683)
hypothetical protein" points="311,40 318,10 318,70" fill="rgb(255,255,255)" fill-opacity="1.0" stroke="rgb(0,0,0)" stroke-width="2"  />
			<g>
				<title>YozE_SAM_like (PF06855)
"YozE SAM-like fold"</title>
				<polygon class="PF06855" points="314,40 317,28 317,28 317,52 317,52" stroke-linejoin="round" width="6" height="24" fill="rgb(83,201,171)" stroke="rgb(66,160,136)" stroke-width="1" opacity="0.75" />
			</g>
		</g>
		<g>
			<title>tatC1 (GKEONEKI_02684)
Sec-independent protein translocase protein TatCd</title>
			<polygon class="tatC1 (GKEONEKI_02684)
Sec-independent protein translocase protein TatCd" points="325,40 350,10 350,70" fill="rgb(255,255,255)" fill-opacity="1.0" stroke="rgb(0,0,0)" stroke-width="2"  />
			<g>
				<title>TatC (PF00902)
"Sec-independent protein translocase protein (TatC)"</title>
				<polygon class="PF00902" points="329,40 339,28 348,28 348,52 339,52" stroke-linejoin="round" width="20" height="24" fill="rgb(84,193,209)" stroke="rgb(67,154,167)" stroke-width="1" opacity="0.75" />
			</g>
		</g>
		<g>
			<title>tatAd_1 (GKEONEKI_02685)
Sec-independent protein translocase protein TatAd</title>
			<polygon class="tatAd_1 (GKEONEKI_02685)
Sec-independent protein translocase protein TatAd" points="352,40 358,10 358,70" fill="rgb(255,255,255)" fill-opacity="1.0" stroke="rgb(0,0,0)" stroke-width="2"  />
			<g>
				<title>MttA_Hcf106 (PF02416)
"mttA/Hcf106 family"</title>
				<polygon class="PF02416" points="355,40 357,30 357,50" stroke-linejoin="round" width="5" height="24" fill="rgb(74,206,98)" stroke="rgb(59,164,78)" stroke-width="1" opacity="0.75" />
			</g>
		</g>
		<g>
			<title>tatAd_2 (GKEONEKI_02686)
Sec-independent protein translocase protein TatAd</title>
			<polygon class="tatAd_2 (GKEONEKI_02686)
Sec-independent protein translocase protein TatAd" points="360,40 365,10 365,70" fill="rgb(255,255,255)" fill-opacity="1.0" stroke="rgb(0,0,0)" stroke-width="2"  />
			<g>
				<title>MttA_Hcf106 (PF02416)
"mttA/Hcf106 family"</title>
				<polygon class="PF02416" points="363,40 365,28 365,28 365,52 365,52" stroke-linejoin="round" width="5" height="24" fill="rgb(74,206,98)" stroke="rgb(59,164,78)" stroke-width="1" opacity="0.75" />
			</g>
		</g>
		<g>
			<title>mobA (GKEONEKI_02687)
Molybdenum cofactor guanylyltransferase</title>
			<polygon class="mobA (GKEONEKI_02687)
Molybdenum cofactor guanylyltransferase" points="371,40 389,10 389,70" fill="rgb(255,255,255)" fill-opacity="1.0" stroke="rgb(0,0,0)" stroke-width="2"  />
			<g>
				<title>NTP_transf_3 (PF12804)
"MobA-like NTP transferase domain"</title>
				<polygon class="PF12804" points="375,40 382,28 389,28 389,52 382,52 375,40" stroke-linejoin="round" width="14" height="24" fill="rgb(52,209,196)" stroke="rgb(41,167,156)" stroke-width="1" opacity="0.75" />
			</g>
		</g>
		<g>
			<title> (GKEONEKI_02688)
IS1595 family transposase ISSsu9</title>
			<polygon class=" (GKEONEKI_02688)
IS1595 family transposase ISSsu9" points="391,40 407,10 407,70" fill="rgb(255,255,255)" fill-opacity="1.0" stroke="rgb(0,0,0)" stroke-width="2"  />
			<g>
				<title>DHFR_1 (PF00186)
"Dihydrofolate reductase"</title>
				<polygon class="PF00186" points="394,40 401,28 407,28 407,52 401,52" stroke-linejoin="round" width="16" height="24" fill="rgb(150,188,63)" stroke="rgb(119,150,50)" stroke-width="1" opacity="0.75" />
			</g>
		</g>
		<g>
			<title>thyA (GKEONEKI_02689)
Thymidylate synthase</title>
			<polygon class="thyA (GKEONEKI_02689)
Thymidylate synthase" points="448,25 446,25 446,10 416,40 446,70 446,55 448,55" fill="rgb(255,255,255)" fill-opacity="1.0" stroke="rgb(0,0,0)" stroke-width="2"  />
			<g>
				<title>Thymidylat_synt (PF00303)
"Thymidylate synthase"</title>
				<polygon class="PF00303" points="420,40 432,28 447,28 447,52 432,52" stroke-linejoin="round" width="31" height="24" fill="rgb(103,91,191)" stroke="rgb(82,72,152)" stroke-width="1" opacity="0.75" />
			</g>
		</g>
		<g>
			<title>yedJ (GKEONEKI_02690)
putative protein YedJ</title>
			<polygon class="yedJ (GKEONEKI_02690)
putative protein YedJ" points="448,40 468,10 468,70" fill="rgb(255,255,255)" fill-opacity="1.0" stroke="rgb(0,0,0)" stroke-width="2"  />
			<g>
				<title>HD (PF01966)
"HD domain"</title>
				<polygon class="PF01966" points="456,34 460,28 465,28 465,52 460,52 456,46" stroke-linejoin="round" width="9" height="24" fill="rgb(92,193,119)" stroke="rgb(73,154,95)" stroke-width="1" opacity="0.75" />
			</g>
		</g>
		<g>
			<title> (GKEONEKI_02691)
hypothetical protein</title>
			<polygon class=" (GKEONEKI_02691)
hypothetical protein" points="469,40 497,10 497,70" fill="rgb(255,255,255)" fill-opacity="1.0" stroke="rgb(0,0,0)" stroke-width="2"  />
			<g>
				<title>DUF72 (PF01904)
"Protein of unknown function DUF72"</title>
				<polygon class="PF01904" points="473,40 484,28 494,28 494,52 484,52" stroke-linejoin="round" width="24" height="24" fill="rgb(63,151,204)" stroke="rgb(50,120,163)" stroke-width="1" opacity="0.75" />
			</g>
		</g>
		<g>
			<title>fhs1 (GKEONEKI_02692)
Formate--tetrahydrofolate ligase 1</title>
			<polygon class="fhs1 (GKEONEKI_02692)
Formate--tetrahydrofolate ligase 1" points="556,25 531,25 531,10 501,40 531,70 531,55 556,55" fill="rgb(255,255,255)" fill-opacity="1.0" stroke="rgb(0,0,0)" stroke-width="2"  />
			<g>
				<title>FTHFS (PF01268)
"Formate--tetrahydrofolate ligase"</title>
				<polygon class="PF01268" points="505,40 517,28 556,28 556,52 517,52" stroke-linejoin="round" width="55" height="24" fill="rgb(215,182,81)" stroke="rgb(172,145,64)" stroke-width="1" opacity="0.75" />
			</g>
		</g>
		<g>
			<title> (GKEONEKI_02693)
hypothetical protein</title>
			<polygon class=" (GKEONEKI_02693)
hypothetical protein" points="557,40 560,10 560,70" fill="rgb(255,255,255)" fill-opacity="1.0" stroke="rgb(0,0,0)" stroke-width="2"  />
		</g>
		<g>
			<title>cspA_2 (GKEONEKI_02694)
Cold shock protein CspA</title>
			<polygon class="cspA_2 (GKEONEKI_02694)
Cold shock protein CspA" points="566,10 572,40 566,70" fill="rgb(255,255,255)" fill-opacity="1.0" stroke="rgb(0,0,0)" stroke-width="2"  />
			<g>
				<title>CSD (PF00313)
"'Cold-shock' DNA-binding domain"</title>
				<polygon class="PF00313" points="566,28 566,28 569,40 566,52 566,52" stroke-linejoin="round" width="6" height="24" fill="rgb(87,72,181)" stroke="rgb(69,57,144)" stroke-width="1" opacity="0.75" />
			</g>
		</g>
		<g>
			<title> (GKEONEKI_02695)
queuosine precursor transporter</title>
			<polygon class=" (GKEONEKI_02695)
queuosine precursor transporter" points="599,10 621,40 599,70" fill="rgb(255,255,255)" fill-opacity="1.0" stroke="rgb(0,0,0)" stroke-width="2"  />
			<g>
				<title>Vut_1 (PF02592)
"Putative vitamin uptake transporter"</title>
				<polygon class="PF02592" points="604,28 609,28 617,40 609,52 604,52" stroke-linejoin="round" width="16" height="24" fill="rgb(93,184,75)" stroke="rgb(74,147,60)" stroke-width="1" opacity="0.75" />
			</g>
		</g>
		<g>
			<title>rnhA (GKEONEKI_02696)
14.7 kDa ribonuclease H-like protein</title>
			<polygon class="rnhA (GKEONEKI_02696)
14.7 kDa ribonuclease H-like protein" points="622,10 635,40 622,70" fill="rgb(255,255,255)" fill-opacity="1.0" stroke="rgb(0,0,0)" stroke-width="2"  />
			<g>
				<title>RNase_H (PF00075)
"RNase H"</title>
				<polygon class="PF00075" points="622,28 626,28 632,40 626,52 622,52" stroke-linejoin="round" width="12" height="24" fill="rgb(225,86,224)" stroke="rgb(180,68,179)" stroke-width="1" opacity="0.75" />
			</g>
		</g>
		<g>
			<title> (GKEONEKI_02697)
hypothetical protein</title>
			<polygon class=" (GKEONEKI_02697)
hypothetical protein" points="636,40 645,10 645,70" fill="rgb(255,255,255)" fill-opacity="1.0" stroke="rgb(0,0,0)" stroke-width="2"  />
		</g>
		<g>
			<title> (GKEONEKI_02698)
hypothetical protein</title>
			<polygon class=" (GKEONEKI_02698)
hypothetical protein" points="659,40 676,10 676,70" fill="rgb(255,255,255)" fill-opacity="1.0" stroke="rgb(0,0,0)" stroke-width="2"  />
			<g>
				<title>ICMT (PF04140)
"Isoprenylcysteine carboxyl methyltransferase (ICMT) family"</title>
				<polygon class="PF04140" points="662,40 668,29 668,51" stroke-linejoin="round" width="9" height="24" fill="rgb(100,223,104)" stroke="rgb(80,178,83)" stroke-width="1" opacity="0.75" />
			</g>
		</g>
		<g>
			<title> (GKEONEKI_02699)
Alpha-pyrone synthesis polyketide synthase-like Pks11</title>
			<polygon class=" (GKEONEKI_02699)
Alpha-pyrone synthesis polyketide synthase-like Pks11" points="712,25 706,25 706,10 676,40 706,70 706,55 712,55" fill="rgb(255,255,255)" fill-opacity="1.0" stroke="rgb(0,0,0)" stroke-width="2"  />
			<g>
				<title>Chal_sti_synt_N (PF00195)
"Chalcone and stilbene synthases, N-terminal domain"</title>
				<polygon class="PF00195" points="691,29 692,28 708,28 708,52 692,52 691,51" stroke-linejoin="round" width="17" height="24" fill="rgb(60,181,161)" stroke="rgb(47,144,128)" stroke-width="1" opacity="0.75" />
			</g>
		</g>
		<g>
			<title>gno (GKEONEKI_02700)
Gluconate 5-dehydrogenase</title>
			<polygon class="gno (GKEONEKI_02700)
Gluconate 5-dehydrogenase" points="725,40 750,10 750,70" fill="rgb(255,255,255)" fill-opacity="1.0" stroke="rgb(0,0,0)" stroke-width="2"  />
			<g>
				<title>adh_short_C2 (PF13561)
"Enoyl-(Acyl carrier protein) reductase"</title>
				<polygon class="PF13561" points="729,40 739,28 748,28 748,52 739,52" stroke-linejoin="round" width="23" height="24" fill="rgb(73,205,127)" stroke="rgb(58,164,101)" stroke-width="1" opacity="0.75" />
			</g>
		</g>
		<g>
			<title> (GKEONEKI_02701)
hypothetical protein</title>
			<polygon class=" (GKEONEKI_02701)
hypothetical protein" points="755,10 773,40 755,70" fill="rgb(255,255,255)" fill-opacity="1.0" stroke="rgb(0,0,0)" stroke-width="2"  />
		</g>
		<g>
			<title>ypwA (GKEONEKI_02702)
Carboxypeptidase 1</title>
			<polygon class="ypwA (GKEONEKI_02702)
Carboxypeptidase 1" points="824,25 805,25 805,10 775,40 805,70 805,55 824,55" fill="rgb(255,255,255)" fill-opacity="1.0" stroke="rgb(0,0,0)" stroke-width="2"  />
			<g>
				<title>Peptidase_M32 (PF02074)
"Carboxypeptidase Taq (M32) metallopeptidase"</title>
				<polygon class="PF02074" points="779,40 791,28 823,28 823,52 791,52" stroke-linejoin="round" width="48" height="24" fill="rgb(213,142,93)" stroke="rgb(170,113,74)" stroke-width="1" opacity="0.75" />
			</g>
		</g>
		<g>
			<title>rlmL (GKEONEKI_02703)
Ribosomal RNA large subunit methyltransferase L</title>
			<polygon class="rlmL (GKEONEKI_02703)
Ribosomal RNA large subunit methyltransferase L" points="865,25 856,25 856,10 826,40 856,70 856,55 865,55" fill="rgb(255,255,255)" fill-opacity="1.0" stroke="rgb(0,0,0)" stroke-width="2"  />
			<g>
				<title>UPF0020 (PF01170)
"Putative RNA methylase family UPF0020"</title>
				<polygon class="PF01170" points="830,40 842,28 847,28 847,52 842,52" stroke-linejoin="round" width="20" height="24" fill="rgb(89,182,69)" stroke="rgb(71,145,55)" stroke-width="1" opacity="0.75" />
			</g>
			<g>
				<title>THUMP (PF02926)
"THUMP domain"</title>
				<rect class="PF02926" x="849" y="28" stroke-linejoin="round" width="14" height="24" fill="rgb(52,209,163)" stroke="rgb(41,167,130)" stroke-width="1" opacity="0.75" />
			</g>
		</g>
		<g>
			<title> (GKEONEKI_02704)
hypothetical protein</title>
			<polygon class=" (GKEONEKI_02704)
hypothetical protein" points="876,40 881,10 881,70" fill="rgb(255,255,255)" fill-opacity="1.0" stroke="rgb(0,0,0)" stroke-width="2"  />
		</g>
		<g>
			<title>gpsB (GKEONEKI_02705)
Cell cycle protein GpsB</title>
			<polygon class="gpsB (GKEONEKI_02705)
Cell cycle protein GpsB" points="885,40 895,10 895,70" fill="rgb(255,255,255)" fill-opacity="1.0" stroke="rgb(0,0,0)" stroke-width="2"  />
			<g>
				<title>DivIVA (PF05103)
"DivIVA protein"</title>
				<polygon class="PF05103" points="888,40 892,28 894,28 894,52 892,52 888,40" stroke-linejoin="round" width="6" height="24" fill="rgb(213,106,117)" stroke="rgb(170,84,93)" stroke-width="1" opacity="0.75" />
			</g>
		</g>
		<g>
			<title> (GKEONEKI_02706)
hypothetical protein</title>
			<polygon class=" (GKEONEKI_02706)
hypothetical protein" points="898,40 916,10 916,70" fill="rgb(255,255,255)" fill-opacity="1.0" stroke="rgb(0,0,0)" stroke-width="2"  />
			<g>
				<title>YpsA (PF06908)
"YspA SLOG family"</title>
				<polygon class="PF06908" points="902,40 910,28 915,28 915,52 910,52" stroke-linejoin="round" width="16" height="24" fill="rgb(136,100,209)" stroke="rgb(108,80,167)" stroke-width="1" opacity="0.75" />
			</g>
		</g>
		<g>
			<title> (GKEONEKI_02707)
hypothetical protein</title>
			<polygon class=" (GKEONEKI_02707)
hypothetical protein" points="920,40 939,10 939,70" fill="rgb(255,255,255)" fill-opacity="1.0" stroke="rgb(0,0,0)" stroke-width="2"  />
			<g>
				<title>Spore-coat_CotD (PF11122)
"Inner spore coat protein D"</title>
				<polygon class="PF11122" points="924,40 932,28 936,28 936,52 932,52" stroke-linejoin="round" width="16" height="24" fill="rgb(221,153,69)" stroke="rgb(176,122,55)" stroke-width="1" opacity="0.75" />
			</g>
		</g>
		<g>
			<title>cdd (GKEONEKI_02708)
Cytidine deaminase</title>
			<polygon class="cdd (GKEONEKI_02708)
Cytidine deaminase" points="949,40 962,10 962,70" fill="rgb(255,255,255)" fill-opacity="1.0" stroke="rgb(0,0,0)" stroke-width="2"  />
			<g>
				<title>dCMP_cyt_deam_1 (PF00383)
"Cytidine and deoxycytidylate deaminase zinc-binding region"</title>
				<polygon class="PF00383" points="952,40 957,28 962,28 962,52 957,52 952,40" stroke-linejoin="round" width="10" height="24" fill="rgb(91,149,216)" stroke="rgb(72,119,172)" stroke-width="1" opacity="0.75" />
			</g>
		</g>
		<g>
			<title>arpB (GKEONEKI_02709)
Antibiotic efflux pump membrane transporter ArpB</title>
			<polygon class="arpB (GKEONEKI_02709)
Antibiotic efflux pump membrane transporter ArpB" points="968,25 1039,25 1039,10 1069,40 1039,70 1039,55 968,55" fill="rgb(255,255,255)" fill-opacity="1.0" stroke="rgb(0,0,0)" stroke-width="2"  />
			<g>
				<title>ACR_tran (PF00873)
"AcrB/AcrD/AcrF family"</title>
				<polygon class="PF00873" points="968,28 1053,28 1065,40 1053,52 968,52" stroke-linejoin="round" width="101" height="24" fill="rgb(63,191,60)" stroke="rgb(50,152,48)" stroke-width="1" opacity="0.75" />
			</g>
		</g>
		<g>
			<title> (GKEONEKI_02710)
hypothetical protein</title>
			<polygon class=" (GKEONEKI_02710)
hypothetical protein" points="1071,40 1083,10 1083,70" fill="rgb(255,255,255)" fill-opacity="1.0" stroke="rgb(0,0,0)" stroke-width="2"  />
			<g>
				<title>DUF1798 (PF08807)
"Bacterial domain of unknown function (DUF1798)"</title>
				<polygon class="PF08807" points="1074,40 1079,28 1081,28 1081,52 1079,52" stroke-linejoin="round" width="10" height="24" fill="rgb(153,201,81)" stroke="rgb(122,160,64)" stroke-width="1" opacity="0.75" />
			</g>
		</g>
		<g>
			<title> (GKEONEKI_02711)
hypothetical protein</title>
			<polygon class=" (GKEONEKI_02711)
hypothetical protein" points="1085,40 1093,10 1093,70" fill="rgb(255,255,255)" fill-opacity="1.0" stroke="rgb(0,0,0)" stroke-width="2"  />
		</g>
		<g>
			<title> (GKEONEKI_02712)
hypothetical protein</title>
			<polygon class=" (GKEONEKI_02712)
hypothetical protein" points="1107,10 1112,40 1107,70" fill="rgb(255,255,255)" fill-opacity="1.0" stroke="rgb(0,0,0)" stroke-width="2"  />
		</g>
		<g>
			<title>recU (GKEONEKI_02713)
Holliday junction resolvase RecU</title>
			<polygon class="recU (GKEONEKI_02713)
Holliday junction resolvase RecU" points="1113,10 1132,40 1113,70" fill="rgb(255,255,255)" fill-opacity="1.0" stroke="rgb(0,0,0)" stroke-width="2"  />
			<g>
				<title>RecU (PF03838)
"Recombination protein U"</title>
				<polygon class="PF03838" points="1115,28 1121,28 1129,40 1121,52 1115,52" stroke-linejoin="round" width="16" height="24" fill="rgb(93,204,83)" stroke="rgb(74,163,66)" stroke-width="1" opacity="0.75" />
			</g>
		</g>
		<g>
			<title>ponA (GKEONEKI_02714)
Penicillin-binding protein 1A/1B</title>
			<polygon class="ponA (GKEONEKI_02714)
Penicillin-binding protein 1A/1B" points="1133,25 1191,25 1191,10 1221,40 1191,70 1191,55 1133,55" fill="rgb(255,255,255)" fill-opacity="1.0" stroke="rgb(0,0,0)" stroke-width="2"  />
			<g>
				<title>Transgly (PF00912)
"Transglycosylase"</title>
				<rect class="PF00912" x="1140" y="28" stroke-linejoin="round" width="17" height="24" fill="rgb(172,107,216)" stroke="rgb(137,85,172)" stroke-width="1" opacity="0.75" />
			</g>
			<g>
				<title>Transpeptidase (PF00905)
"Penicillin binding protein transpeptidase domain"</title>
				<rect class="PF00905" x="1167" y="28" stroke-linejoin="round" width="27" height="24" fill="rgb(161,226,87)" stroke="rgb(128,180,69)" stroke-width="1" opacity="0.75" />
			</g>
		</g>
		<g>
			<title>nth (GKEONEKI_02715)
Endonuclease III</title>
			<polygon class="nth (GKEONEKI_02715)
Endonuclease III" points="1223,40 1245,10 1245,70" fill="rgb(255,255,255)" fill-opacity="1.0" stroke="rgb(0,0,0)" stroke-width="2"  />
			<g>
				<title>EndIII_4Fe-2S (PF10576)
"Iron-sulfur binding domain of endonuclease III"</title>
				<polygon class="PF10576" points="1227,40 1225,43 1225,37" stroke-linejoin="round" width="1" height="24" fill="rgb(203,113,64)" stroke="rgb(162,90,51)" stroke-width="1" opacity="0.75" />
			</g>
			<g>
				<title>HhH-GPD (PF00730)
"HhH-GPD superfamily base excision DNA repair protein"</title>
				<polygon class="PF00730" points="1227,40 1236,28 1240,28 1240,52 1236,52 1227,40" stroke-linejoin="round" width="13" height="24" fill="rgb(190,78,115)" stroke="rgb(152,62,92)" stroke-width="1" opacity="0.75" />
			</g>
		</g>
		<g>
			<title>dnaD (GKEONEKI_02716)
DNA replication protein DnaD</title>
			<polygon class="dnaD (GKEONEKI_02716)
DNA replication protein DnaD" points="1245,40 1268,10 1268,70" fill="rgb(255,255,255)" fill-opacity="1.0" stroke="rgb(0,0,0)" stroke-width="2"  />
			<g>
				<title>DnaB_2 (PF07261)
"Replication initiation and membrane attachment"</title>
				<polygon class="PF07261" points="1249,40 1255,32 1255,48" stroke-linejoin="round" width="7" height="24" fill="rgb(136,193,85)" stroke="rgb(108,154,68)" stroke-width="1" opacity="0.75" />
			</g>
		</g>
		<g>
			<title>asnS (GKEONEKI_02717)
Asparagine--tRNA ligase</title>
			<polygon class="asnS (GKEONEKI_02717)
Asparagine--tRNA ligase" points="1315,25 1302,25 1302,10 1272,40 1302,70 1302,55 1315,55" fill="rgb(255,255,255)" fill-opacity="1.0" stroke="rgb(0,0,0)" stroke-width="2"  />
			<g>
				<title>tRNA-synt_2 (PF00152)
"tRNA synthetases class II (D, K and N)"</title>
				<polygon class="PF00152" points="1276,40 1288,28 1303,28 1303,52 1288,52" stroke-linejoin="round" width="31" height="24" fill="rgb(90,71,190)" stroke="rgb(72,56,152)" stroke-width="1" opacity="0.75" />
			</g>
			<g>
				<title>tRNA_anti-codon (PF01336)
"OB-fold nucleic acid binding domain"</title>
				<rect class="PF01336" x="1305" y="28" stroke-linejoin="round" width="7" height="24" fill="rgb(215,103,173)" stroke="rgb(172,82,138)" stroke-width="1" opacity="0.75" />
			</g>
		</g>
		<g>
			<title> (GKEONEKI_02718)
Aspartate aminotransferase</title>
			<polygon class=" (GKEONEKI_02718)
Aspartate aminotransferase" points="1354,25 1345,25 1345,10 1315,40 1345,70 1345,55 1354,55" fill="rgb(255,255,255)" fill-opacity="1.0" stroke="rgb(0,0,0)" stroke-width="2"  />
			<g>
				<title>Aminotran_1_2 (PF00155)
"Aminotransferase class I and II"</title>
				<polygon class="PF00155" points="1319,40 1331,28 1351,28 1351,52 1331,52" stroke-linejoin="round" width="35" height="24" fill="rgb(89,113,198)" stroke="rgb(71,90,158)" stroke-width="1" opacity="0.75" />
			</g>
		</g>
		<g>
			<title> (GKEONEKI_02719)
hypothetical protein</title>
			<polygon class=" (GKEONEKI_02719)
hypothetical protein" points="1355,40 1372,10 1372,70" fill="rgb(255,255,255)" fill-opacity="1.0" stroke="rgb(0,0,0)" stroke-width="2"  />
			<g>
				<title>DUF5590 (PF17881)
"Domain of unknown function (DUF5590)"</title>
				<polygon class="PF17881" points="1363,31 1365,28 1367,28 1367,52 1365,52 1363,49" stroke-linejoin="round" width="4" height="24" fill="rgb(77,212,144)" stroke="rgb(61,169,115)" stroke-width="1" opacity="0.75" />
			</g>
		</g>
		<g>
			<title> (GKEONEKI_02720)
hypothetical protein</title>
			<polygon class=" (GKEONEKI_02720)
hypothetical protein" points="1372,40 1377,10 1377,70" fill="rgb(255,255,255)" fill-opacity="1.0" stroke="rgb(0,0,0)" stroke-width="2"  />
		</g>
	</g>
</svg>
