<svg version="1.1" baseProfile="full" xmlns="http://www.w3.org/2000/svg" width="1389.5333333333333" height="80">
	<g>
		<line x1="10" y1="40.0" x2="1379.5333333333333" y2="40.0" style="stroke:rgb(70,70,70); stroke-width:3 "/>
		<g>
			<title>fdxA_2 (NDIJOPKD_03489)
Ferredoxin 7Fe</title>
			<polygon class="fdxA_2 (NDIJOPKD_03489)
Ferredoxin 7Fe" points="23,40 31,10 31,70" fill="rgb(255,255,255)" fill-opacity="1.0" stroke="rgb(0,0,0)" stroke-width="2"  />
			<g>
				<title>Fer4 (PF00037)
"4Fe-4S binding domain"</title>
				<polygon class="PF00037" points="26,40 27,36 27,44" stroke-linejoin="round" width="2" height="24" fill="rgb(226,193,80)" stroke="rgb(180,154,64)" stroke-width="1" opacity="0.75" />
			</g>
		</g>
		<g>
			<title>gpmA_2 (NDIJOPKD_03490)
2,3-bisphosphoglycerate-dependent phosphoglycerate mutase</title>
			<polygon class="gpmA_2 (NDIJOPKD_03490)
2,3-bisphosphoglycerate-dependent phosphoglycerate mutase" points="36,40 54,10 54,70" fill="rgb(255,255,255)" fill-opacity="1.0" stroke="rgb(0,0,0)" stroke-width="2"  />
			<g>
				<title>His_Phos_1 (PF00300)
"Histidine phosphatase superfamily (branch 1)"</title>
				<polygon class="PF00300" points="40,40 47,28 53,28 53,52 47,52" stroke-linejoin="round" width="17" height="24" fill="rgb(135,184,63)" stroke="rgb(107,147,50)" stroke-width="1" opacity="0.75" />
			</g>
		</g>
		<g>
			<title> (NDIJOPKD_03491)
hypothetical protein</title>
			<polygon class=" (NDIJOPKD_03491)
hypothetical protein" points="58,40 65,10 65,70" fill="rgb(255,255,255)" fill-opacity="1.0" stroke="rgb(0,0,0)" stroke-width="2"  />
		</g>
		<g>
			<title> (NDIJOPKD_03492)
hypothetical protein</title>
			<polygon class=" (NDIJOPKD_03492)
hypothetical protein" points="104,25 99,25 99,10 69,40 99,70 99,55 104,55" fill="rgb(255,255,255)" fill-opacity="1.0" stroke="rgb(0,0,0)" stroke-width="2"  />
			<g>
				<title>AbrB (PF05145)
"Transition state regulatory protein AbrB"</title>
				<polygon class="PF05145" points="73,40 85,28 101,28 101,52 85,52" stroke-linejoin="round" width="31" height="24" fill="rgb(95,98,223)" stroke="rgb(76,78,178)" stroke-width="1" opacity="0.75" />
			</g>
		</g>
		<g>
			<title>msrAB_2 (NDIJOPKD_03493)
Peptide methionine sulfoxide reductase MsrA/MsrB</title>
			<polygon class="msrAB_2 (NDIJOPKD_03493)
Peptide methionine sulfoxide reductase MsrA/MsrB" points="139,25 137,25 137,10 107,40 137,70 137,55 139,55" fill="rgb(255,255,255)" fill-opacity="1.0" stroke="rgb(0,0,0)" stroke-width="2"  />
			<g>
				<title>SelR (PF01641)
"SelR domain"</title>
				<polygon class="PF01641" points="111,40 121,30 121,50" stroke-linejoin="round" width="12" height="24" fill="rgb(192,99,202)" stroke="rgb(153,79,161)" stroke-width="1" opacity="0.75" />
			</g>
			<g>
				<title>PMSR (PF01625)
"Peptide methionine sulfoxide reductase"</title>
				<polygon class="PF01625" points="123,28 123,28 138,28 138,52 123,52 123,52" stroke-linejoin="round" width="15" height="24" fill="rgb(201,74,176)" stroke="rgb(160,59,140)" stroke-width="1" opacity="0.75" />
			</g>
		</g>
		<g>
			<title> (NDIJOPKD_03494)
hypothetical protein</title>
			<polygon class=" (NDIJOPKD_03494)
hypothetical protein" points="142,40 157,10 157,70" fill="rgb(255,255,255)" fill-opacity="1.0" stroke="rgb(0,0,0)" stroke-width="2"  />
			<g>
				<title>YqfQ (PF14181)
"YqfQ-like protein"</title>
				<polygon class="PF14181" points="145,40 151,28 155,28 155,52 151,52" stroke-linejoin="round" width="13" height="24" fill="rgb(207,119,57)" stroke="rgb(165,95,45)" stroke-width="1" opacity="0.75" />
			</g>
		</g>
		<g>
			<title>ung (NDIJOPKD_03495)
Uracil-DNA glycosylase</title>
			<polygon class="ung (NDIJOPKD_03495)
Uracil-DNA glycosylase" points="160,40 182,10 182,70" fill="rgb(255,255,255)" fill-opacity="1.0" stroke="rgb(0,0,0)" stroke-width="2"  />
			<g>
				<title>UDG (PF03167)
"Uracil DNA glycosylase superfamily"</title>
				<polygon class="PF03167" points="164,40 173,28 177,28 177,52 173,52" stroke-linejoin="round" width="16" height="24" fill="rgb(64,224,60)" stroke="rgb(51,179,48)" stroke-width="1" opacity="0.75" />
			</g>
		</g>
		<g>
			<title>ytmB (NDIJOPKD_03496)
putative protein YtmB</title>
			<polygon class="ytmB (NDIJOPKD_03496)
putative protein YtmB" points="186,40 194,10 194,70" fill="rgb(255,255,255)" fill-opacity="1.0" stroke="rgb(0,0,0)" stroke-width="2"  />
			<g>
				<title>DUF2584 (PF10763)
"Protein of unknown function (DUF2584)"</title>
				<polygon class="PF10763" points="189,40 192,28 194,28 194,52 192,52" stroke-linejoin="round" width="8" height="24" fill="rgb(118,211,56)" stroke="rgb(94,168,44)" stroke-width="1" opacity="0.75" />
			</g>
		</g>
		<g>
			<title> (NDIJOPKD_03497)
hypothetical protein</title>
			<polygon class=" (NDIJOPKD_03497)
hypothetical protein" points="299,25 226,25 226,10 196,40 226,70 226,55 299,55" fill="rgb(255,255,255)" fill-opacity="1.0" stroke="rgb(0,0,0)" stroke-width="2"  />
			<g>
				<title>SbcCD_C (PF13558)
"Putative exonuclease SbcCD, C subunit"</title>
				<polygon class="PF13558" points="200,40 209,31 209,49 200,40" stroke-linejoin="round" width="9" height="24" fill="rgb(84,179,84)" stroke="rgb(67,143,67)" stroke-width="1" opacity="0.75" />
			</g>
			<g>
				<title>AAA_23 (PF13476)
"AAA domain"</title>
				<rect class="PF13476" x="278" y="28" stroke-linejoin="round" width="21" height="24" fill="rgb(57,185,214)" stroke="rgb(45,147,171)" stroke-width="1" opacity="0.75" />
			</g>
		</g>
		<g>
			<title>sbcD (NDIJOPKD_03498)
Nuclease SbcCD subunit D</title>
			<polygon class="sbcD (NDIJOPKD_03498)
Nuclease SbcCD subunit D" points="339,25 330,25 330,10 300,40 330,70 330,55 339,55" fill="rgb(255,255,255)" fill-opacity="1.0" stroke="rgb(0,0,0)" stroke-width="2"  />
			<g>
				<title>SbcD_C (PF12320)
"Type 5 capsule protein repressor C-terminal domain"</title>
				<polygon class="PF12320" points="304,40 311,33 311,47" stroke-linejoin="round" width="9" height="24" fill="rgb(182,136,65)" stroke="rgb(145,108,52)" stroke-width="1" opacity="0.75" />
			</g>
			<g>
				<title>Metallophos (PF00149)
"Calcineurin-like phosphoesterase"</title>
				<polygon class="PF00149" points="316,28 316,28 337,28 337,52 316,52 316,52" stroke-linejoin="round" width="21" height="24" fill="rgb(181,197,58)" stroke="rgb(144,157,46)" stroke-width="1" opacity="0.75" />
			</g>
		</g>
		<g>
			<title> (NDIJOPKD_03499)
hypothetical protein</title>
			<polygon class=" (NDIJOPKD_03499)
hypothetical protein" points="342,40 349,10 349,70" fill="rgb(255,255,255)" fill-opacity="1.0" stroke="rgb(0,0,0)" stroke-width="2"  />
			<g>
				<title>YozE_SAM_like (PF06855)
"YozE SAM-like fold"</title>
				<polygon class="PF06855" points="345,40 348,28 348,28 348,52 348,52" stroke-linejoin="round" width="6" height="24" fill="rgb(83,201,171)" stroke="rgb(66,160,136)" stroke-width="1" opacity="0.75" />
			</g>
		</g>
		<g>
			<title>tatC1_3 (NDIJOPKD_03500)
Sec-independent protein translocase protein TatCd</title>
			<polygon class="tatC1_3 (NDIJOPKD_03500)
Sec-independent protein translocase protein TatCd" points="352,40 377,10 377,70" fill="rgb(255,255,255)" fill-opacity="1.0" stroke="rgb(0,0,0)" stroke-width="2"  />
			<g>
				<title>TatC (PF00902)
"Sec-independent protein translocase protein (TatC)"</title>
				<polygon class="PF00902" points="356,40 366,28 375,28 375,52 366,52" stroke-linejoin="round" width="20" height="24" fill="rgb(84,193,209)" stroke="rgb(67,154,167)" stroke-width="1" opacity="0.75" />
			</g>
		</g>
		<g>
			<title>tatAd_3 (NDIJOPKD_03501)
Sec-independent protein translocase protein TatAd</title>
			<polygon class="tatAd_3 (NDIJOPKD_03501)
Sec-independent protein translocase protein TatAd" points="380,40 386,10 386,70" fill="rgb(255,255,255)" fill-opacity="1.0" stroke="rgb(0,0,0)" stroke-width="2"  />
			<g>
				<title>MttA_Hcf106 (PF02416)
"mttA/Hcf106 family"</title>
				<polygon class="PF02416" points="383,40 385,28 385,28 385,52 385,52" stroke-linejoin="round" width="5" height="24" fill="rgb(74,206,98)" stroke="rgb(59,164,78)" stroke-width="1" opacity="0.75" />
			</g>
		</g>
		<g>
			<title>tatA (NDIJOPKD_03502)
Sec-independent protein translocase protein TatA</title>
			<polygon class="tatA (NDIJOPKD_03502)
Sec-independent protein translocase protein TatA" points="387,40 394,10 394,70" fill="rgb(255,255,255)" fill-opacity="1.0" stroke="rgb(0,0,0)" stroke-width="2"  />
			<g>
				<title>MttA_Hcf106 (PF02416)
"mttA/Hcf106 family"</title>
				<polygon class="PF02416" points="390,40 393,28 393,28 393,52 393,52" stroke-linejoin="round" width="6" height="24" fill="rgb(74,206,98)" stroke="rgb(59,164,78)" stroke-width="1" opacity="0.75" />
			</g>
		</g>
		<g>
			<title>mobA (NDIJOPKD_03503)
putative molybdenum cofactor guanylyltransferase</title>
			<polygon class="mobA (NDIJOPKD_03503)
putative molybdenum cofactor guanylyltransferase" points="399,40 419,10 419,70" fill="rgb(255,255,255)" fill-opacity="1.0" stroke="rgb(0,0,0)" stroke-width="2"  />
			<g>
				<title>NTP_transf_3 (PF12804)
"MobA-like NTP transferase domain"</title>
				<polygon class="PF12804" points="403,40 411,28 417,28 417,52 411,52" stroke-linejoin="round" width="15" height="24" fill="rgb(52,209,196)" stroke="rgb(41,167,156)" stroke-width="1" opacity="0.75" />
			</g>
		</g>
		<g>
			<title> (NDIJOPKD_03504)
IS1595 family transposase ISSsu9</title>
			<polygon class=" (NDIJOPKD_03504)
IS1595 family transposase ISSsu9" points="419,40 435,10 435,70" fill="rgb(255,255,255)" fill-opacity="1.0" stroke="rgb(0,0,0)" stroke-width="2"  />
			<g>
				<title>DHFR_1 (PF00186)
"Dihydrofolate reductase"</title>
				<polygon class="PF00186" points="422,40 429,28 435,28 435,52 429,52" stroke-linejoin="round" width="16" height="24" fill="rgb(150,188,63)" stroke="rgb(119,150,50)" stroke-width="1" opacity="0.75" />
			</g>
		</g>
		<g>
			<title>thyA (NDIJOPKD_03505)
Thymidylate synthase</title>
			<polygon class="thyA (NDIJOPKD_03505)
Thymidylate synthase" points="471,25 469,25 469,10 439,40 469,70 469,55 471,55" fill="rgb(255,255,255)" fill-opacity="1.0" stroke="rgb(0,0,0)" stroke-width="2"  />
			<g>
				<title>Thymidylat_synt (PF00303)
"Thymidylate synthase"</title>
				<polygon class="PF00303" points="443,40 455,28 470,28 470,52 455,52" stroke-linejoin="round" width="31" height="24" fill="rgb(103,91,191)" stroke="rgb(82,72,152)" stroke-width="1" opacity="0.75" />
			</g>
		</g>
		<g>
			<title>yedJ (NDIJOPKD_03506)
putative protein YedJ</title>
			<polygon class="yedJ (NDIJOPKD_03506)
putative protein YedJ" points="471,40 491,10 491,70" fill="rgb(255,255,255)" fill-opacity="1.0" stroke="rgb(0,0,0)" stroke-width="2"  />
			<g>
				<title>HD (PF01966)
"HD domain"</title>
				<polygon class="PF01966" points="478,36 483,28 487,28 487,52 483,52 478,44" stroke-linejoin="round" width="9" height="24" fill="rgb(92,193,119)" stroke="rgb(73,154,95)" stroke-width="1" opacity="0.75" />
			</g>
		</g>
		<g>
			<title> (NDIJOPKD_03507)
hypothetical protein</title>
			<polygon class=" (NDIJOPKD_03507)
hypothetical protein" points="492,40 520,10 520,70" fill="rgb(255,255,255)" fill-opacity="1.0" stroke="rgb(0,0,0)" stroke-width="2"  />
			<g>
				<title>DUF72 (PF01904)
"Protein of unknown function DUF72"</title>
				<polygon class="PF01904" points="496,40 507,28 517,28 517,52 507,52" stroke-linejoin="round" width="24" height="24" fill="rgb(63,151,204)" stroke="rgb(50,120,163)" stroke-width="1" opacity="0.75" />
			</g>
		</g>
		<g>
			<title>fhs (NDIJOPKD_03508)
Formate--tetrahydrofolate ligase</title>
			<polygon class="fhs (NDIJOPKD_03508)
Formate--tetrahydrofolate ligase" points="578,25 554,25 554,10 524,40 554,70 554,55 578,55" fill="rgb(255,255,255)" fill-opacity="1.0" stroke="rgb(0,0,0)" stroke-width="2"  />
			<g>
				<title>FTHFS (PF01268)
"Formate--tetrahydrofolate ligase"</title>
				<polygon class="PF01268" points="528,40 540,28 578,28 578,52 540,52" stroke-linejoin="round" width="54" height="24" fill="rgb(215,182,81)" stroke="rgb(172,145,64)" stroke-width="1" opacity="0.75" />
			</g>
		</g>
		<g>
			<title>cspD (NDIJOPKD_03509)
Cold shock protein CspD</title>
			<polygon class="cspD (NDIJOPKD_03509)
Cold shock protein CspD" points="590,10 596,40 590,70" fill="rgb(255,255,255)" fill-opacity="1.0" stroke="rgb(0,0,0)" stroke-width="2"  />
			<g>
				<title>CSD (PF00313)
"'Cold-shock' DNA-binding domain"</title>
				<polygon class="PF00313" points="590,28 590,28 593,40 590,52 590,52" stroke-linejoin="round" width="6" height="24" fill="rgb(87,72,181)" stroke="rgb(69,57,144)" stroke-width="1" opacity="0.75" />
			</g>
		</g>
		<g>
			<title> (NDIJOPKD_03510)
queuosine precursor transporter</title>
			<polygon class=" (NDIJOPKD_03510)
queuosine precursor transporter" points="601,10 623,40 601,70" fill="rgb(255,255,255)" fill-opacity="1.0" stroke="rgb(0,0,0)" stroke-width="2"  />
			<g>
				<title>Vut_1 (PF02592)
"Putative vitamin uptake transporter"</title>
				<polygon class="PF02592" points="606,28 611,28 620,40 611,52 606,52" stroke-linejoin="round" width="16" height="24" fill="rgb(93,184,75)" stroke="rgb(74,147,60)" stroke-width="1" opacity="0.75" />
			</g>
		</g>
		<g>
			<title>rnhA (NDIJOPKD_03511)
14.7 kDa ribonuclease H-like protein</title>
			<polygon class="rnhA (NDIJOPKD_03511)
14.7 kDa ribonuclease H-like protein" points="624,10 637,40 624,70" fill="rgb(255,255,255)" fill-opacity="1.0" stroke="rgb(0,0,0)" stroke-width="2"  />
			<g>
				<title>RVT_3 (PF13456)
"Reverse transcriptase-like"</title>
				<polygon class="PF13456" points="624,28 628,28 633,40 628,52 624,52" stroke-linejoin="round" width="12" height="24" fill="rgb(198,123,86)" stroke="rgb(158,98,68)" stroke-width="1" opacity="0.75" />
			</g>
		</g>
		<g>
			<title> (NDIJOPKD_03512)
hypothetical protein</title>
			<polygon class=" (NDIJOPKD_03512)
hypothetical protein" points="638,40 647,10 647,70" fill="rgb(255,255,255)" fill-opacity="1.0" stroke="rgb(0,0,0)" stroke-width="2"  />
		</g>
		<g>
			<title> (NDIJOPKD_03513)
hypothetical protein</title>
			<polygon class=" (NDIJOPKD_03513)
hypothetical protein" points="652,40 656,10 656,70" fill="rgb(255,255,255)" fill-opacity="1.0" stroke="rgb(0,0,0)" stroke-width="2"  />
		</g>
		<g>
			<title> (NDIJOPKD_03514)
hypothetical protein</title>
			<polygon class=" (NDIJOPKD_03514)
hypothetical protein" points="659,40 676,10 676,70" fill="rgb(255,255,255)" fill-opacity="1.0" stroke="rgb(0,0,0)" stroke-width="2"  />
			<g>
				<title>ICMT (PF04140)
"Isoprenylcysteine carboxyl methyltransferase (ICMT) family"</title>
				<polygon class="PF04140" points="662,40 668,29 668,51" stroke-linejoin="round" width="9" height="24" fill="rgb(100,223,104)" stroke="rgb(80,178,83)" stroke-width="1" opacity="0.75" />
			</g>
		</g>
		<g>
			<title>rppA (NDIJOPKD_03515)
1,3,6,8-tetrahydroxynaphthalene synthase</title>
			<polygon class="rppA (NDIJOPKD_03515)
1,3,6,8-tetrahydroxynaphthalene synthase" points="712,25 706,25 706,10 676,40 706,70 706,55 712,55" fill="rgb(255,255,255)" fill-opacity="1.0" stroke="rgb(0,0,0)" stroke-width="2"  />
			<g>
				<title>Chal_sti_synt_C (PF02797)
"Chalcone and stilbene synthases, C-terminal domain"</title>
				<polygon class="PF02797" points="680,40 689,31 689,49" stroke-linejoin="round" width="13" height="24" fill="rgb(139,212,63)" stroke="rgb(111,169,50)" stroke-width="1" opacity="0.75" />
			</g>
			<g>
				<title>Chal_sti_synt_N (PF00195)
"Chalcone and stilbene synthases, N-terminal domain"</title>
				<polygon class="PF00195" points="691,29 692,28 709,28 709,52 692,52 691,51" stroke-linejoin="round" width="18" height="24" fill="rgb(60,181,161)" stroke="rgb(47,144,128)" stroke-width="1" opacity="0.75" />
			</g>
		</g>
		<g>
			<title>gno_2 (NDIJOPKD_03516)
Gluconate 5-dehydrogenase</title>
			<polygon class="gno_2 (NDIJOPKD_03516)
Gluconate 5-dehydrogenase" points="714,40 739,10 739,70" fill="rgb(255,255,255)" fill-opacity="1.0" stroke="rgb(0,0,0)" stroke-width="2"  />
			<g>
				<title>adh_short_C2 (PF13561)
"Enoyl-(Acyl carrier protein) reductase"</title>
				<polygon class="PF13561" points="718,40 728,28 737,28 737,52 728,52" stroke-linejoin="round" width="23" height="24" fill="rgb(73,205,127)" stroke="rgb(58,164,101)" stroke-width="1" opacity="0.75" />
			</g>
		</g>
		<g>
			<title> (NDIJOPKD_03517)
hypothetical protein</title>
			<polygon class=" (NDIJOPKD_03517)
hypothetical protein" points="744,10 762,40 744,70" fill="rgb(255,255,255)" fill-opacity="1.0" stroke="rgb(0,0,0)" stroke-width="2"  />
		</g>
		<g>
			<title>ypwA (NDIJOPKD_03518)
Carboxypeptidase 1</title>
			<polygon class="ypwA (NDIJOPKD_03518)
Carboxypeptidase 1" points="812,25 793,25 793,10 763,40 793,70 793,55 812,55" fill="rgb(255,255,255)" fill-opacity="1.0" stroke="rgb(0,0,0)" stroke-width="2"  />
			<g>
				<title>Peptidase_M32 (PF02074)
"Carboxypeptidase Taq (M32) metallopeptidase"</title>
				<polygon class="PF02074" points="767,40 779,28 811,28 811,52 779,52" stroke-linejoin="round" width="48" height="24" fill="rgb(213,142,93)" stroke="rgb(170,113,74)" stroke-width="1" opacity="0.75" />
			</g>
		</g>
		<g>
			<title>rlmL (NDIJOPKD_03519)
Ribosomal RNA large subunit methyltransferase L</title>
			<polygon class="rlmL (NDIJOPKD_03519)
Ribosomal RNA large subunit methyltransferase L" points="853,25 846,25 846,10 816,40 846,70 846,55 853,55" fill="rgb(255,255,255)" fill-opacity="1.0" stroke="rgb(0,0,0)" stroke-width="2"  />
			<g>
				<title>UPF0020 (PF01170)
"Putative RNA methylase family UPF0020"</title>
				<polygon class="PF01170" points="820,40 832,28 836,28 836,52 832,52" stroke-linejoin="round" width="20" height="24" fill="rgb(89,182,69)" stroke="rgb(71,145,55)" stroke-width="1" opacity="0.75" />
			</g>
			<g>
				<title>THUMP (PF02926)
"THUMP domain"</title>
				<rect class="PF02926" x="838" y="28" stroke-linejoin="round" width="14" height="24" fill="rgb(52,209,163)" stroke="rgb(41,167,130)" stroke-width="1" opacity="0.75" />
			</g>
		</g>
		<g>
			<title>gpsB (NDIJOPKD_03520)
Cell cycle protein GpsB</title>
			<polygon class="gpsB (NDIJOPKD_03520)
Cell cycle protein GpsB" points="873,40 883,10 883,70" fill="rgb(255,255,255)" fill-opacity="1.0" stroke="rgb(0,0,0)" stroke-width="2"  />
			<g>
				<title>DivIVA (PF05103)
"DivIVA protein"</title>
				<polygon class="PF05103" points="876,40 880,28 881,28 881,52 880,52 876,40" stroke-linejoin="round" width="5" height="24" fill="rgb(213,106,117)" stroke="rgb(170,84,93)" stroke-width="1" opacity="0.75" />
			</g>
		</g>
		<g>
			<title> (NDIJOPKD_03521)
hypothetical protein</title>
			<polygon class=" (NDIJOPKD_03521)
hypothetical protein" points="887,40 905,10 905,70" fill="rgb(255,255,255)" fill-opacity="1.0" stroke="rgb(0,0,0)" stroke-width="2"  />
			<g>
				<title>YpsA (PF06908)
"YspA SLOG family"</title>
				<polygon class="PF06908" points="891,40 899,28 904,28 904,52 899,52" stroke-linejoin="round" width="16" height="24" fill="rgb(136,100,209)" stroke="rgb(108,80,167)" stroke-width="1" opacity="0.75" />
			</g>
		</g>
		<g>
			<title> (NDIJOPKD_03522)
hypothetical protein</title>
			<polygon class=" (NDIJOPKD_03522)
hypothetical protein" points="909,40 921,10 921,70" fill="rgb(255,255,255)" fill-opacity="1.0" stroke="rgb(0,0,0)" stroke-width="2"  />
			<g>
				<title>Spore-coat_CotD (PF11122)
"Inner spore coat protein D"</title>
				<polygon class="PF11122" points="912,40 917,28 919,28 919,52 917,52" stroke-linejoin="round" width="10" height="24" fill="rgb(221,153,69)" stroke="rgb(176,122,55)" stroke-width="1" opacity="0.75" />
			</g>
		</g>
		<g>
			<title>cdd (NDIJOPKD_03523)
Cytidine deaminase</title>
			<polygon class="cdd (NDIJOPKD_03523)
Cytidine deaminase" points="926,40 939,10 939,70" fill="rgb(255,255,255)" fill-opacity="1.0" stroke="rgb(0,0,0)" stroke-width="2"  />
			<g>
				<title>dCMP_cyt_deam_1 (PF00383)
"Cytidine and deoxycytidylate deaminase zinc-binding region"</title>
				<polygon class="PF00383" points="929,40 934,28 939,28 939,52 934,52 929,40" stroke-linejoin="round" width="10" height="24" fill="rgb(91,149,216)" stroke="rgb(72,119,172)" stroke-width="1" opacity="0.75" />
			</g>
		</g>
		<g>
			<title>yppE (NDIJOPKD_03524)
putative protein YppE</title>
			<polygon class="yppE (NDIJOPKD_03524)
putative protein YppE" points="942,40 953,10 953,70" fill="rgb(255,255,255)" fill-opacity="1.0" stroke="rgb(0,0,0)" stroke-width="2"  />
			<g>
				<title>DUF1798 (PF08807)
"Bacterial domain of unknown function (DUF1798)"</title>
				<polygon class="PF08807" points="945,40 950,28 952,28 952,52 950,52" stroke-linejoin="round" width="10" height="24" fill="rgb(153,201,81)" stroke="rgb(122,160,64)" stroke-width="1" opacity="0.75" />
			</g>
		</g>
		<g>
			<title> (NDIJOPKD_03525)
hypothetical protein</title>
			<polygon class=" (NDIJOPKD_03525)
hypothetical protein" points="956,40 964,10 964,70" fill="rgb(255,255,255)" fill-opacity="1.0" stroke="rgb(0,0,0)" stroke-width="2"  />
		</g>
		<g>
			<title> (NDIJOPKD_03526)
hypothetical protein</title>
			<polygon class=" (NDIJOPKD_03526)
hypothetical protein" points="973,10 976,40 973,70" fill="rgb(255,255,255)" fill-opacity="1.0" stroke="rgb(0,0,0)" stroke-width="2"  />
		</g>
		<g>
			<title>recU (NDIJOPKD_03527)
Holliday junction resolvase RecU</title>
			<polygon class="recU (NDIJOPKD_03527)
Holliday junction resolvase RecU" points="985,10 1004,40 985,70" fill="rgb(255,255,255)" fill-opacity="1.0" stroke="rgb(0,0,0)" stroke-width="2"  />
			<g>
				<title>RecU (PF03838)
"Recombination protein U"</title>
				<polygon class="PF03838" points="987,28 993,28 1001,40 993,52 987,52" stroke-linejoin="round" width="16" height="24" fill="rgb(93,204,83)" stroke="rgb(74,163,66)" stroke-width="1" opacity="0.75" />
			</g>
		</g>
		<g>
			<title>ponA (NDIJOPKD_03528)
Penicillin-binding protein 1A/1B</title>
			<polygon class="ponA (NDIJOPKD_03528)
Penicillin-binding protein 1A/1B" points="1005,25 1064,25 1064,10 1094,40 1064,70 1064,55 1005,55" fill="rgb(255,255,255)" fill-opacity="1.0" stroke="rgb(0,0,0)" stroke-width="2"  />
			<g>
				<title>Transgly (PF00912)
"Transglycosylase"</title>
				<rect class="PF00912" x="1012" y="28" stroke-linejoin="round" width="17" height="24" fill="rgb(172,107,216)" stroke="rgb(137,85,172)" stroke-width="1" opacity="0.75" />
			</g>
			<g>
				<title>Transpeptidase (PF00905)
"Penicillin binding protein transpeptidase domain"</title>
				<rect class="PF00905" x="1039" y="28" stroke-linejoin="round" width="27" height="24" fill="rgb(161,226,87)" stroke="rgb(128,180,69)" stroke-width="1" opacity="0.75" />
			</g>
		</g>
		<g>
			<title>nth (NDIJOPKD_03529)
Endonuclease III</title>
			<polygon class="nth (NDIJOPKD_03529)
Endonuclease III" points="1096,40 1118,10 1118,70" fill="rgb(255,255,255)" fill-opacity="1.0" stroke="rgb(0,0,0)" stroke-width="2"  />
			<g>
				<title>EndIII_4Fe-2S (PF10576)
"Iron-sulfur binding domain of endonuclease III"</title>
				<polygon class="PF10576" points="1100,40 1098,43 1098,37" stroke-linejoin="round" width="1" height="24" fill="rgb(203,113,64)" stroke="rgb(162,90,51)" stroke-width="1" opacity="0.75" />
			</g>
			<g>
				<title>HhH-GPD (PF00730)
"HhH-GPD superfamily base excision DNA repair protein"</title>
				<polygon class="PF00730" points="1101,39 1109,28 1114,28 1114,52 1109,52 1101,41" stroke-linejoin="round" width="13" height="24" fill="rgb(190,78,115)" stroke="rgb(152,62,92)" stroke-width="1" opacity="0.75" />
			</g>
		</g>
		<g>
			<title>dnaD (NDIJOPKD_03530)
DNA replication protein DnaD</title>
			<polygon class="dnaD (NDIJOPKD_03530)
DNA replication protein DnaD" points="1118,40 1141,10 1141,70" fill="rgb(255,255,255)" fill-opacity="1.0" stroke="rgb(0,0,0)" stroke-width="2"  />
			<g>
				<title>DnaB_2 (PF07261)
"Replication initiation and membrane attachment"</title>
				<polygon class="PF07261" points="1122,40 1128,32 1128,48" stroke-linejoin="round" width="7" height="24" fill="rgb(136,193,85)" stroke="rgb(108,154,68)" stroke-width="1" opacity="0.75" />
			</g>
		</g>
		<g>
			<title>asnS (NDIJOPKD_03531)
Asparagine--tRNA ligase</title>
			<polygon class="asnS (NDIJOPKD_03531)
Asparagine--tRNA ligase" points="1187,25 1174,25 1174,10 1144,40 1174,70 1174,55 1187,55" fill="rgb(255,255,255)" fill-opacity="1.0" stroke="rgb(0,0,0)" stroke-width="2"  />
			<g>
				<title>tRNA-synt_2 (PF00152)
"tRNA synthetases class II (D, K and N)"</title>
				<polygon class="PF00152" points="1148,40 1160,28 1175,28 1175,52 1160,52" stroke-linejoin="round" width="31" height="24" fill="rgb(90,71,190)" stroke="rgb(72,56,152)" stroke-width="1" opacity="0.75" />
			</g>
			<g>
				<title>tRNA_anti-codon (PF01336)
"OB-fold nucleic acid binding domain"</title>
				<rect class="PF01336" x="1177" y="28" stroke-linejoin="round" width="7" height="24" fill="rgb(215,103,173)" stroke="rgb(172,82,138)" stroke-width="1" opacity="0.75" />
			</g>
		</g>
		<g>
			<title> (NDIJOPKD_03532)
Aspartate aminotransferase</title>
			<polygon class=" (NDIJOPKD_03532)
Aspartate aminotransferase" points="1227,25 1218,25 1218,10 1188,40 1218,70 1218,55 1227,55" fill="rgb(255,255,255)" fill-opacity="1.0" stroke="rgb(0,0,0)" stroke-width="2"  />
			<g>
				<title>Aminotran_1_2 (PF00155)
"Aminotransferase class I and II"</title>
				<polygon class="PF00155" points="1192,40 1204,28 1224,28 1224,52 1204,52" stroke-linejoin="round" width="35" height="24" fill="rgb(89,113,198)" stroke="rgb(71,90,158)" stroke-width="1" opacity="0.75" />
			</g>
		</g>
		<g>
			<title> (NDIJOPKD_03533)
hypothetical protein</title>
			<polygon class=" (NDIJOPKD_03533)
hypothetical protein" points="1228,40 1246,10 1246,70" fill="rgb(255,255,255)" fill-opacity="1.0" stroke="rgb(0,0,0)" stroke-width="2"  />
			<g>
				<title>DUF5590 (PF17881)
"Domain of unknown function (DUF5590)"</title>
				<polygon class="PF17881" points="1236,32 1238,28 1240,28 1240,52 1238,52 1236,48" stroke-linejoin="round" width="4" height="24" fill="rgb(77,212,144)" stroke="rgb(61,169,115)" stroke-width="1" opacity="0.75" />
			</g>
		</g>
		<g>
			<title> (NDIJOPKD_03534)
hypothetical protein</title>
			<polygon class=" (NDIJOPKD_03534)
hypothetical protein" points="1244,40 1249,10 1249,70" fill="rgb(255,255,255)" fill-opacity="1.0" stroke="rgb(0,0,0)" stroke-width="2"  />
		</g>
		<g>
			<title>dinG_2 (NDIJOPKD_03535)
3'-5' exonuclease DinG</title>
			<polygon class="dinG_2 (NDIJOPKD_03535)
3'-5' exonuclease DinG" points="1352,25 1283,25 1283,10 1253,40 1283,70 1283,55 1352,55" fill="rgb(255,255,255)" fill-opacity="1.0" stroke="rgb(0,0,0)" stroke-width="2"  />
			<g>
				<title>Helicase_C_2 (PF13307)
"Helicase C-terminal domain"</title>
				<polygon class="PF13307" points="1257,40 1269,28 1270,28 1270,52 1269,52" stroke-linejoin="round" width="16" height="24" fill="rgb(70,108,178)" stroke="rgb(56,86,142)" stroke-width="1" opacity="0.75" />
			</g>
			<g>
				<title>ResIII (PF04851)
"Type III restriction enzyme, res subunit"</title>
				<rect class="PF04851" x="1295" y="28" stroke-linejoin="round" width="24" height="24" fill="rgb(51,64,189)" stroke="rgb(40,51,151)" stroke-width="1" opacity="0.75" />
			</g>
			<g>
				<title>RNase_T (PF00929)
"Exonuclease"</title>
				<rect class="PF00929" x="1329" y="28" stroke-linejoin="round" width="15" height="24" fill="rgb(201,87,120)" stroke="rgb(160,69,96)" stroke-width="1" opacity="0.75" />
			</g>
		</g>
		<g>
			<title>panD (NDIJOPKD_03536)
Aspartate 1-decarboxylase</title>
			<polygon class="panD (NDIJOPKD_03536)
Aspartate 1-decarboxylase" points="1354,40 1367,10 1367,70" fill="rgb(255,255,255)" fill-opacity="1.0" stroke="rgb(0,0,0)" stroke-width="2"  />
			<g>
				<title>Asp_decarbox (PF02261)
"Aspartate decarboxylase"</title>
				<polygon class="PF02261" points="1357,40 1362,28 1366,28 1366,52 1362,52" stroke-linejoin="round" width="11" height="24" fill="rgb(223,94,196)" stroke="rgb(178,75,156)" stroke-width="1" opacity="0.75" />
			</g>
		</g>
	</g>
</svg>
