<svg version="1.1" baseProfile="full" xmlns="http://www.w3.org/2000/svg" width="480.0" height="80">
	<g>
		<line x1="10" y1="40.0" x2="470.0" y2="40.0" style="stroke:rgb(70,70,70); stroke-width:3 "/>
		<g>
			<title>mtlR (HLOLAOLD_00249)
Transcriptional regulator MtlR</title>
			<polygon class="mtlR (HLOLAOLD_00249)
Transcriptional regulator MtlR" points="20,25 59,25 59,10 89,40 59,70 59,55 20,55" fill="rgb(255,255,255)" fill-opacity="1.0" stroke="rgb(0,0,0)" stroke-width="2"  />
			<g>
				<title>HTH_11 (PF08279)
"HTH domain"</title>
				<rect class="PF08279" x="20" y="28" stroke-linejoin="round" width="5" height="24" fill="rgb(188,106,60)" stroke="rgb(150,84,48)" stroke-width="1" opacity="0.75" />
			</g>
			<g>
				<title>Mga (PF05043)
"Mga helix-turn-helix domain"</title>
				<rect class="PF05043" x="27" y="28" stroke-linejoin="round" width="9" height="24" fill="rgb(177,193,55)" stroke="rgb(141,154,44)" stroke-width="1" opacity="0.75" />
			</g>
			<g>
				<title>PRD (PF00874)
"PRD domain"</title>
				<rect class="PF00874" x="41" y="28" stroke-linejoin="round" width="8" height="24" fill="rgb(72,210,205)" stroke="rgb(57,168,164)" stroke-width="1" opacity="0.75" />
			</g>
			<g>
				<title>PRD (PF00874)
"PRD domain"</title>
				<rect class="PF00874" x="52" y="28" stroke-linejoin="round" width="8" height="24" fill="rgb(72,210,205)" stroke="rgb(57,168,164)" stroke-width="1" opacity="0.75" />
			</g>
			<g>
				<title>PTS_IIB (PF02302)
"PTS system, Lactose/Cellobiose specific IIB subunit"</title>
				<rect class="PF02302" x="61" y="28" stroke-linejoin="round" width="7" height="24" fill="rgb(106,212,56)" stroke="rgb(84,169,44)" stroke-width="1" opacity="0.75" />
			</g>
			<g>
				<title>PTS_EIIA_2 (PF00359)
"Phosphoenolpyruvate-dependent sugar phosphotransferase system, EIIA 2"</title>
				<polygon class="PF00359" points="74,29 85,40 74,51" stroke-linejoin="round" width="14" height="24" fill="rgb(115,83,186)" stroke="rgb(91,66,148)" stroke-width="1" opacity="0.75" />
			</g>
		</g>
		<g>
			<title>mtlF (HLOLAOLD_00250)
Mannitol-specific phosphotransferase enzyme IIA component</title>
			<polygon class="mtlF (HLOLAOLD_00250)
Mannitol-specific phosphotransferase enzyme IIA component" points="90,10 104,40 90,70" fill="rgb(255,255,255)" fill-opacity="1.0" stroke="rgb(0,0,0)" stroke-width="2"  />
			<g>
				<title>PTS_EIIA_2 (PF00359)
"Phosphoenolpyruvate-dependent sugar phosphotransferase system, EIIA 2"</title>
				<polygon class="PF00359" points="90,28 95,28 101,40 95,52 90,52" stroke-linejoin="round" width="14" height="24" fill="rgb(115,83,186)" stroke="rgb(91,66,148)" stroke-width="1" opacity="0.75" />
			</g>
		</g>
		<g>
			<title>mtlD (HLOLAOLD_00251)
Mannitol-1-phosphate 5-dehydrogenase</title>
			<polygon class="mtlD (HLOLAOLD_00251)
Mannitol-1-phosphate 5-dehydrogenase" points="105,25 113,25 113,10 143,40 113,70 113,55 105,55" fill="rgb(255,255,255)" fill-opacity="1.0" stroke="rgb(0,0,0)" stroke-width="2"  />
			<g>
				<title>Mannitol_dh (PF01232)
"Mannitol dehydrogenase Rossmann domain"</title>
				<rect class="PF01232" x="105" y="28" stroke-linejoin="round" width="12" height="24" fill="rgb(221,155,56)" stroke="rgb(176,124,44)" stroke-width="1" opacity="0.75" />
			</g>
			<g>
				<title>Mannitol_dh_C (PF08125)
"Mannitol dehydrogenase C-terminal domain"</title>
				<polygon class="PF08125" points="119,28 127,28 139,40 127,52 119,52" stroke-linejoin="round" width="22" height="24" fill="rgb(196,64,94)" stroke="rgb(156,51,75)" stroke-width="1" opacity="0.75" />
			</g>
		</g>
		<g>
			<title> (HLOLAOLD_00252)
hypothetical protein</title>
			<polygon class=" (HLOLAOLD_00252)
hypothetical protein" points="145,40 169,10 169,70" fill="rgb(255,255,255)" fill-opacity="1.0" stroke="rgb(0,0,0)" stroke-width="2"  />
		</g>
		<g>
			<title>sbnF (HLOLAOLD_00253)
2-[(L-alanin-3-ylcarbamoyl)methyl]-3-(2- aminoethylcarbamoyl)-2-hydroxypropanoate synthase</title>
			<polygon class="sbnF (HLOLAOLD_00253)
2-[(L-alanin-3-ylcarbamoyl)methyl]-3-(2- aminoethylcarbamoyl)-2-hydroxypropanoate synthase" points="176,25 207,25 207,10 237,40 207,70 207,55 176,55" fill="rgb(255,255,255)" fill-opacity="1.0" stroke="rgb(0,0,0)" stroke-width="2"  />
			<g>
				<title>IucA_IucC (PF04183)
"IucA / IucC family"</title>
				<rect class="PF04183" x="191" y="28" stroke-linejoin="round" width="24" height="24" fill="rgb(221,104,121)" stroke="rgb(176,83,96)" stroke-width="1" opacity="0.75" />
			</g>
			<g>
				<title>FhuF (PF06276)
"Ferric iron reductase FhuF-like transporter"</title>
				<polygon class="PF06276" points="218,28 220,28 232,40 220,52 218,52" stroke-linejoin="round" width="16" height="24" fill="rgb(76,151,221)" stroke="rgb(60,120,176)" stroke-width="1" opacity="0.75" />
			</g>
		</g>
		<g>
			<title> (HLOLAOLD_00254)
hypothetical protein</title>
			<polygon class=" (HLOLAOLD_00254)
hypothetical protein" points="237,25 272,25 272,10 302,40 272,70 272,55 237,55" fill="rgb(255,255,255)" fill-opacity="1.0" stroke="rgb(0,0,0)" stroke-width="2"  />
			<g>
				<title>IucA_IucC (PF04183)
"IucA / IucC family"</title>
				<rect class="PF04183" x="258" y="28" stroke-linejoin="round" width="23" height="24" fill="rgb(221,104,121)" stroke="rgb(176,83,96)" stroke-width="1" opacity="0.75" />
			</g>
			<g>
				<title>FhuF (PF06276)
"Ferric iron reductase FhuF-like transporter"</title>
				<polygon class="PF06276" points="284,28 286,28 298,40 286,52 284,52" stroke-linejoin="round" width="16" height="24" fill="rgb(76,151,221)" stroke="rgb(60,120,176)" stroke-width="1" opacity="0.75" />
			</g>
		</g>
		<g>
			<title>sbnH (HLOLAOLD_00255)
2-[(L-alanin-3-ylcarbamoyl)methyl]-2- hydroxybutanedioate decarboxylase</title>
			<polygon class="sbnH (HLOLAOLD_00255)
2-[(L-alanin-3-ylcarbamoyl)methyl]-2- hydroxybutanedioate decarboxylase" points="303,25 312,25 312,10 342,40 312,70 312,55 303,55" fill="rgb(255,255,255)" fill-opacity="1.0" stroke="rgb(0,0,0)" stroke-width="2"  />
			<g>
				<title>Orn_Arg_deC_N (PF02784)
"Pyridoxal-dependent decarboxylase, pyridoxal binding domain"</title>
				<polygon class="PF02784" points="305,28 325,28 329,32 329,48 325,52 305,52" stroke-linejoin="round" width="24" height="24" fill="rgb(106,204,212)" stroke="rgb(84,163,169)" stroke-width="1" opacity="0.75" />
			</g>
		</g>
		<g>
			<title> (HLOLAOLD_00256)
hypothetical protein</title>
			<polygon class=" (HLOLAOLD_00256)
hypothetical protein" points="356,10 365,40 356,70" fill="rgb(255,255,255)" fill-opacity="1.0" stroke="rgb(0,0,0)" stroke-width="2"  />
		</g>
		<g>
			<title> (HLOLAOLD_00257)
hypothetical protein</title>
			<polygon class=" (HLOLAOLD_00257)
hypothetical protein" points="369,40 375,10 375,70" fill="rgb(255,255,255)" fill-opacity="1.0" stroke="rgb(0,0,0)" stroke-width="2"  />
		</g>
		<g>
			<title> (HLOLAOLD_00258)
hypothetical protein</title>
			<polygon class=" (HLOLAOLD_00258)
hypothetical protein" points="389,10 409,40 389,70" fill="rgb(255,255,255)" fill-opacity="1.0" stroke="rgb(0,0,0)" stroke-width="2"  />
		</g>
		<g>
			<title> (HLOLAOLD_00259)
hypothetical protein</title>
			<polygon class=" (HLOLAOLD_00259)
hypothetical protein" points="422,10 443,40 422,70" fill="rgb(255,255,255)" fill-opacity="1.0" stroke="rgb(0,0,0)" stroke-width="2"  />
			<g>
				<title>Lysozyme_like (PF13702)
"Lysozyme-like"</title>
				<polygon class="PF13702" points="427,28 431,28 439,40 431,52 427,52" stroke-linejoin="round" width="15" height="24" fill="rgb(186,63,104)" stroke="rgb(148,50,83)" stroke-width="1" opacity="0.75" />
			</g>
		</g>
		<g>
			<title> (HLOLAOLD_00260)
hypothetical protein</title>
			<polygon class=" (HLOLAOLD_00260)
hypothetical protein" points="443,10 451,40 443,70" fill="rgb(255,255,255)" fill-opacity="1.0" stroke="rgb(0,0,0)" stroke-width="2"  />
		</g>
		<g>
			<title>fosB (HLOLAOLD_00261)
Metallothiol transferase FosB</title>
			<polygon class="fosB (HLOLAOLD_00261)
Metallothiol transferase FosB" points="454,10 468,40 454,70" fill="rgb(255,255,255)" fill-opacity="1.0" stroke="rgb(0,0,0)" stroke-width="2"  />
			<g>
				<title>Glyoxalase (PF00903)
"Glyoxalase/Bleomycin resistance protein/Dioxygenase superfamily"</title>
				<polygon class="PF00903" points="454,28 458,28 464,40 458,52 454,52" stroke-linejoin="round" width="11" height="24" fill="rgb(50,162,189)" stroke="rgb(40,129,151)" stroke-width="1" opacity="0.75" />
			</g>
		</g>
	</g>
</svg>
