<svg version="1.1" baseProfile="full" xmlns="http://www.w3.org/2000/svg" width="716.5666666666667" height="80">
	<g>
		<line x1="10" y1="40.0" x2="706.5666666666667" y2="40.0" style="stroke:rgb(70,70,70); stroke-width:3 "/>
		<g>
			<title> (PDEEBABA_02170)
hypothetical protein</title>
			<polygon class=" (PDEEBABA_02170)
hypothetical protein" points="63,10 90,40 63,70" fill="rgb(255,255,255)" fill-opacity="1.0" stroke="rgb(0,0,0)" stroke-width="2"  />
			<g>
				<title>Abhydrolase_3 (PF07859)
"alpha/beta hydrolase fold"</title>
				<polygon class="PF07859" points="65,28 74,28 85,40 74,52 65,52" stroke-linejoin="round" width="21" height="24" fill="rgb(183,51,179)" stroke="rgb(146,40,143)" stroke-width="1" opacity="0.75" />
			</g>
		</g>
		<g>
			<title> (PDEEBABA_02171)
hypothetical protein</title>
			<polygon class=" (PDEEBABA_02171)
hypothetical protein" points="90,10 97,40 90,70" fill="rgb(255,255,255)" fill-opacity="1.0" stroke="rgb(0,0,0)" stroke-width="2"  />
		</g>
		<g>
			<title> (PDEEBABA_02172)
hypothetical protein</title>
			<polygon class=" (PDEEBABA_02172)
hypothetical protein" points="122,40 129,10 129,70" fill="rgb(255,255,255)" fill-opacity="1.0" stroke="rgb(0,0,0)" stroke-width="2"  />
		</g>
		<g>
			<title> (PDEEBABA_02173)
hypothetical protein</title>
			<polygon class=" (PDEEBABA_02173)
hypothetical protein" points="171,25 163,25 163,10 133,40 163,70 163,55 171,55" fill="rgb(255,255,255)" fill-opacity="1.0" stroke="rgb(0,0,0)" stroke-width="2"  />
			<g>
				<title>TraB (PF01963)
"TraB family"</title>
				<polygon class="PF01963" points="148,29 149,28 170,28 170,52 149,52 148,51" stroke-linejoin="round" width="22" height="24" fill="rgb(165,90,185)" stroke="rgb(132,72,148)" stroke-width="1" opacity="0.75" />
			</g>
		</g>
		<g>
			<title> (PDEEBABA_02174)
hypothetical protein</title>
			<polygon class=" (PDEEBABA_02174)
hypothetical protein" points="195,25 203,25 203,10 233,40 203,70 203,55 195,55" fill="rgb(255,255,255)" fill-opacity="1.0" stroke="rgb(0,0,0)" stroke-width="2"  />
			<g>
				<title>DUF4317 (PF14199)
"Domain of unknown function (DUF4317)"</title>
				<polygon class="PF14199" points="195,28 217,28 229,40 217,52 195,52" stroke-linejoin="round" width="37" height="24" fill="rgb(182,83,94)" stroke="rgb(145,66,75)" stroke-width="1" opacity="0.75" />
			</g>
		</g>
		<g>
			<title>yycN (PDEEBABA_02175)
putative N-acetyltransferase YycN</title>
			<polygon class="yycN (PDEEBABA_02175)
putative N-acetyltransferase YycN" points="263,40 278,10 278,70" fill="rgb(255,255,255)" fill-opacity="1.0" stroke="rgb(0,0,0)" stroke-width="2"  />
			<g>
				<title>Acetyltransf_1 (PF00583)
"Acetyltransferase (GNAT) family"</title>
				<polygon class="PF00583" points="266,40 272,28 276,28 276,52 272,52" stroke-linejoin="round" width="12" height="24" fill="rgb(121,183,50)" stroke="rgb(96,146,39)" stroke-width="1" opacity="0.75" />
			</g>
		</g>
		<g>
			<title>yfiT (PDEEBABA_02176)
Putative metal-dependent hydrolase YfiT</title>
			<polygon class="yfiT (PDEEBABA_02176)
Putative metal-dependent hydrolase YfiT" points="284,40 301,10 301,70" fill="rgb(255,255,255)" fill-opacity="1.0" stroke="rgb(0,0,0)" stroke-width="2"  />
			<g>
				<title>DinB_2 (PF12867)
"DinB superfamily"</title>
				<polygon class="PF12867" points="287,40 294,28 297,28 297,52 294,52" stroke-linejoin="round" width="13" height="24" fill="rgb(184,90,185)" stroke="rgb(147,72,148)" stroke-width="1" opacity="0.75" />
			</g>
		</g>
		<g>
			<title>carH (PDEEBABA_02177)
HTH-type transcriptional repressor CarH</title>
			<polygon class="carH (PDEEBABA_02177)
HTH-type transcriptional repressor CarH" points="304,40 333,10 333,70" fill="rgb(255,255,255)" fill-opacity="1.0" stroke="rgb(0,0,0)" stroke-width="2"  />
			<g>
				<title>B12-binding_2 (PF02607)
"B12 binding domain"</title>
				<polygon class="PF02607" points="316,32 320,28 323,28 323,52 320,52 316,48" stroke-linejoin="round" width="7" height="24" fill="rgb(190,55,206)" stroke="rgb(152,44,164)" stroke-width="1" opacity="0.75" />
			</g>
			<g>
				<title>MerR_1 (PF13411)
"MerR HTH family regulatory protein"</title>
				<rect class="PF13411" x="325" y="28" stroke-linejoin="round" width="7" height="24" fill="rgb(100,202,107)" stroke="rgb(80,161,85)" stroke-width="1" opacity="0.75" />
			</g>
		</g>
		<g>
			<title>crtB (PDEEBABA_02178)
15-cis-phytoene synthase</title>
			<polygon class="crtB (PDEEBABA_02178)
15-cis-phytoene synthase" points="343,10 372,40 343,70" fill="rgb(255,255,255)" fill-opacity="1.0" stroke="rgb(0,0,0)" stroke-width="2"  />
			<g>
				<title>SQS_PSY (PF00494)
"Squalene/phytoene synthase"</title>
				<polygon class="PF00494" points="344,28 356,28 368,40 356,52 344,52" stroke-linejoin="round" width="25" height="24" fill="rgb(178,91,49)" stroke="rgb(142,72,39)" stroke-width="1" opacity="0.75" />
			</g>
		</g>
		<g>
			<title>crtP_1 (PDEEBABA_02179)
4,4'-diaponeurosporene oxygenase</title>
			<polygon class="crtP_1 (PDEEBABA_02179)
4,4'-diaponeurosporene oxygenase" points="372,10 401,40 372,70" fill="rgb(255,255,255)" fill-opacity="1.0" stroke="rgb(0,0,0)" stroke-width="2"  />
			<g>
				<title>NAD_binding_8 (PF13450)
"NAD(P)-binding Rossmann-like domain"</title>
				<rect class="PF13450" x="372" y="28" stroke-linejoin="round" width="6" height="24" fill="rgb(91,180,227)" stroke="rgb(72,144,181)" stroke-width="1" opacity="0.75" />
			</g>
		</g>
		<g>
			<title>crtP_2 (PDEEBABA_02180)
4,4'-diaponeurosporene oxygenase</title>
			<polygon class="crtP_2 (PDEEBABA_02180)
4,4'-diaponeurosporene oxygenase" points="400,10 422,40 400,70" fill="rgb(255,255,255)" fill-opacity="1.0" stroke="rgb(0,0,0)" stroke-width="2"  />
		</g>
		<g>
			<title>crtNc (PDEEBABA_02181)
4,4'-diapolycopene-4,4'-dial dehydrogenase</title>
			<polygon class="crtNc (PDEEBABA_02181)
4,4'-diapolycopene-4,4'-dial dehydrogenase" points="422,25 438,25 438,10 468,40 438,70 438,55 422,55" fill="rgb(255,255,255)" fill-opacity="1.0" stroke="rgb(0,0,0)" stroke-width="2"  />
			<g>
				<title>Aldedh (PF00171)
"Aldehyde dehydrogenase family"</title>
				<polygon class="PF00171" points="423,28 452,28 464,40 452,52 423,52" stroke-linejoin="round" width="42" height="24" fill="rgb(105,213,139)" stroke="rgb(84,170,111)" stroke-width="1" opacity="0.75" />
			</g>
		</g>
		<g>
			<title> (PDEEBABA_02182)
hypothetical protein</title>
			<polygon class=" (PDEEBABA_02182)
hypothetical protein" points="470,10 485,40 470,70" fill="rgb(255,255,255)" fill-opacity="1.0" stroke="rgb(0,0,0)" stroke-width="2"  />
		</g>
		<g>
			<title>crtN (PDEEBABA_02183)
4,4'-diapophytoene desaturase (4,4'-diaponeurosporene-forming)</title>
			<polygon class="crtN (PDEEBABA_02183)
4,4'-diapophytoene desaturase (4,4'-diaponeurosporene-forming)" points="490,25 510,25 510,10 540,40 510,70 510,55 490,55" fill="rgb(255,255,255)" fill-opacity="1.0" stroke="rgb(0,0,0)" stroke-width="2"  />
			<g>
				<title>Amino_oxidase (PF01593)
"Flavin containing amine oxidoreductase"</title>
				<polygon class="PF01593" points="491,28 524,28 536,40 524,52 491,52" stroke-linejoin="round" width="48" height="24" fill="rgb(184,74,52)" stroke="rgb(147,59,41)" stroke-width="1" opacity="0.75" />
			</g>
		</g>
		<g>
			<title>crtQ (PDEEBABA_02184)
4,4'-diaponeurosporenoate glycosyltransferase</title>
			<polygon class="crtQ (PDEEBABA_02184)
4,4'-diaponeurosporenoate glycosyltransferase" points="542,25 549,25 549,10 579,40 549,70 549,55 542,55" fill="rgb(255,255,255)" fill-opacity="1.0" stroke="rgb(0,0,0)" stroke-width="2"  />
			<g>
				<title>Glycos_transf_2 (PF00535)
"Glycosyl transferase family 2"</title>
				<rect class="PF00535" x="546" y="28" stroke-linejoin="round" width="16" height="24" fill="rgb(224,122,96)" stroke="rgb(179,97,76)" stroke-width="1" opacity="0.75" />
			</g>
		</g>
		<g>
			<title> (PDEEBABA_02185)
hypothetical protein</title>
			<polygon class=" (PDEEBABA_02185)
hypothetical protein" points="581,10 603,40 581,70" fill="rgb(255,255,255)" fill-opacity="1.0" stroke="rgb(0,0,0)" stroke-width="2"  />
		</g>
		<g>
			<title> (PDEEBABA_02186)
hypothetical protein</title>
			<polygon class=" (PDEEBABA_02186)
hypothetical protein" points="603,10 616,40 603,70" fill="rgb(255,255,255)" fill-opacity="1.0" stroke="rgb(0,0,0)" stroke-width="2"  />
			<g>
				<title>Pyr_excise (PF03013)
"Pyrimidine dimer DNA glycosylase"</title>
				<polygon class="PF03013" points="603,28 607,28 613,40 607,52 603,52" stroke-linejoin="round" width="11" height="24" fill="rgb(222,160,68)" stroke="rgb(177,128,54)" stroke-width="1" opacity="0.75" />
			</g>
		</g>
		<g>
			<title> (PDEEBABA_02187)
hypothetical protein</title>
			<polygon class=" (PDEEBABA_02187)
hypothetical protein" points="621,40 627,10 627,70" fill="rgb(255,255,255)" fill-opacity="1.0" stroke="rgb(0,0,0)" stroke-width="2"  />
		</g>
		<g>
			<title> (PDEEBABA_02188)
hypothetical protein</title>
			<polygon class=" (PDEEBABA_02188)
hypothetical protein" points="628,40 634,10 634,70" fill="rgb(255,255,255)" fill-opacity="1.0" stroke="rgb(0,0,0)" stroke-width="2"  />
		</g>
		<g>
			<title> (PDEEBABA_02189)
hypothetical protein</title>
			<polygon class=" (PDEEBABA_02189)
hypothetical protein" points="643,40 647,10 647,70" fill="rgb(255,255,255)" fill-opacity="1.0" stroke="rgb(0,0,0)" stroke-width="2"  />
		</g>
		<g>
			<title> (PDEEBABA_02190)
hypothetical protein</title>
			<polygon class=" (PDEEBABA_02190)
hypothetical protein" points="660,10 667,40 660,70" fill="rgb(255,255,255)" fill-opacity="1.0" stroke="rgb(0,0,0)" stroke-width="2"  />
		</g>
		<g>
			<title> (PDEEBABA_02191)
hypothetical protein</title>
			<polygon class=" (PDEEBABA_02191)
hypothetical protein" points="667,10 678,40 667,70" fill="rgb(255,255,255)" fill-opacity="1.0" stroke="rgb(0,0,0)" stroke-width="2"  />
			<g>
				<title>Coat_F (PF07875)
"Coat F domain"</title>
				<polygon class="PF07875" points="669,28 670,28 674,40 670,52 669,52" stroke-linejoin="round" width="6" height="24" fill="rgb(69,195,217)" stroke="rgb(55,155,173)" stroke-width="1" opacity="0.75" />
			</g>
		</g>
	</g>
</svg>
