<svg version="1.1" baseProfile="full" xmlns="http://www.w3.org/2000/svg" width="714.5666666666667" height="80">
	<g>
		<line x1="10" y1="40.0" x2="704.5666666666667" y2="40.0" style="stroke:rgb(70,70,70); stroke-width:3 "/>
		<g>
			<title> (PJBLFHJD_01587)
hypothetical protein</title>
			<polygon class=" (PJBLFHJD_01587)
hypothetical protein" points="21,10 28,40 21,70" fill="rgb(255,255,255)" fill-opacity="1.0" stroke="rgb(0,0,0)" stroke-width="2"  />
		</g>
		<g>
			<title> (PJBLFHJD_01588)
hypothetical protein</title>
			<polygon class=" (PJBLFHJD_01588)
hypothetical protein" points="31,40 44,10 44,70" fill="rgb(255,255,255)" fill-opacity="1.0" stroke="rgb(0,0,0)" stroke-width="2"  />
		</g>
		<g>
			<title> (PJBLFHJD_01589)
hypothetical protein</title>
			<polygon class=" (PJBLFHJD_01589)
hypothetical protein" points="54,40 58,10 58,70" fill="rgb(255,255,255)" fill-opacity="1.0" stroke="rgb(0,0,0)" stroke-width="2"  />
			<g>
				<title>DNA_alkylation (PF08713)
"DNA alkylation repair enzyme"</title>
				<polygon class="PF08713" points="57,40 58,34 58,46" stroke-linejoin="round" width="4" height="24" fill="rgb(215,156,71)" stroke="rgb(172,124,56)" stroke-width="1" opacity="0.75" />
			</g>
		</g>
		<g>
			<title> (PJBLFHJD_01590)
hypothetical protein</title>
			<polygon class=" (PJBLFHJD_01590)
hypothetical protein" points="69,40 73,10 73,70" fill="rgb(255,255,255)" fill-opacity="1.0" stroke="rgb(0,0,0)" stroke-width="2"  />
			<g>
				<title>Fur_reg_FbpB (PF13040)
"Fur-regulated basic protein B"</title>
				<polygon class="PF13040" points="72,40 73,34 73,46" stroke-linejoin="round" width="3" height="24" fill="rgb(190,83,63)" stroke="rgb(152,66,50)" stroke-width="1" opacity="0.75" />
			</g>
		</g>
		<g>
			<title>dapX_2 (PJBLFHJD_01591)
putative N-acetyl-LL-diaminopimelate aminotransferase</title>
			<polygon class="dapX_2 (PJBLFHJD_01591)
putative N-acetyl-LL-diaminopimelate aminotransferase" points="78,25 86,25 86,10 116,40 86,70 86,55 78,55" fill="rgb(255,255,255)" fill-opacity="1.0" stroke="rgb(0,0,0)" stroke-width="2"  />
			<g>
				<title>Aminotran_1_2 (PF00155)
"Aminotransferase class I and II"</title>
				<polygon class="PF00155" points="80,28 100,28 112,40 100,52 80,52" stroke-linejoin="round" width="34" height="24" fill="rgb(89,113,198)" stroke="rgb(71,90,158)" stroke-width="1" opacity="0.75" />
			</g>
		</g>
		<g>
			<title>sipT (PJBLFHJD_01592)
Signal peptidase I T</title>
			<polygon class="sipT (PJBLFHJD_01592)
Signal peptidase I T" points="120,10 137,40 120,70" fill="rgb(255,255,255)" fill-opacity="1.0" stroke="rgb(0,0,0)" stroke-width="2"  />
			<g>
				<title>Peptidase_S24 (PF00717)
"Peptidase S24-like"</title>
				<polygon class="PF00717" points="123,28 126,28 129,32 129,48 126,52 123,52" stroke-linejoin="round" width="6" height="24" fill="rgb(180,76,105)" stroke="rgb(144,60,83)" stroke-width="1" opacity="0.75" />
			</g>
		</g>
		<g>
			<title> (PJBLFHJD_01593)
hypothetical protein</title>
			<polygon class=" (PJBLFHJD_01593)
hypothetical protein" points="138,40 142,10 142,70" fill="rgb(255,255,255)" fill-opacity="1.0" stroke="rgb(0,0,0)" stroke-width="2"  />
			<g>
				<title>YvrJ (PF12841)
"YvrJ protein family"</title>
				<polygon class="PF12841" points="141,40 141,40 141,40" stroke-linejoin="round" width="3" height="24" fill="rgb(207,53,76)" stroke="rgb(165,42,60)" stroke-width="1" opacity="0.75" />
			</g>
		</g>
		<g>
			<title> (PJBLFHJD_01594)
hypothetical protein</title>
			<polygon class=" (PJBLFHJD_01594)
hypothetical protein" points="152,40 159,10 159,70" fill="rgb(255,255,255)" fill-opacity="1.0" stroke="rgb(0,0,0)" stroke-width="2"  />
			<g>
				<title>DUF2922 (PF11148)
"Protein of unknown function (DUF2922)"</title>
				<polygon class="PF11148" points="155,40 158,28 158,28 158,52 158,52" stroke-linejoin="round" width="6" height="24" fill="rgb(196,220,80)" stroke="rgb(156,176,64)" stroke-width="1" opacity="0.75" />
			</g>
		</g>
		<g>
			<title> (PJBLFHJD_01595)
hypothetical protein</title>
			<polygon class=" (PJBLFHJD_01595)
hypothetical protein" points="160,40 167,10 167,70" fill="rgb(255,255,255)" fill-opacity="1.0" stroke="rgb(0,0,0)" stroke-width="2"  />
			<g>
				<title>DUF1659 (PF07872)
"Protein of unknown function (DUF1659)"</title>
				<polygon class="PF07872" points="163,40 166,28 166,28 166,52 166,52" stroke-linejoin="round" width="4" height="24" fill="rgb(172,48,195)" stroke="rgb(137,38,156)" stroke-width="1" opacity="0.75" />
			</g>
		</g>
		<g>
			<title> (PJBLFHJD_01596)
hypothetical protein</title>
			<polygon class=" (PJBLFHJD_01596)
hypothetical protein" points="185,10 201,40 185,70" fill="rgb(255,255,255)" fill-opacity="1.0" stroke="rgb(0,0,0)" stroke-width="2"  />
			<g>
				<title>DoxX (PF07681)
"DoxX"</title>
				<polygon class="PF07681" points="186,28 191,28 196,36 196,44 191,52 186,52" stroke-linejoin="round" width="10" height="24" fill="rgb(93,188,216)" stroke="rgb(74,150,172)" stroke-width="1" opacity="0.75" />
			</g>
		</g>
		<g>
			<title> (PJBLFHJD_01597)
hypothetical protein</title>
			<polygon class=" (PJBLFHJD_01597)
hypothetical protein" points="209,10 234,40 209,70" fill="rgb(255,255,255)" fill-opacity="1.0" stroke="rgb(0,0,0)" stroke-width="2"  />
			<g>
				<title>Caroten_synth (PF04240)
"Carotenoid biosynthesis protein"</title>
				<polygon class="PF04240" points="212,28 221,28 230,40 221,52 212,52" stroke-linejoin="round" width="21" height="24" fill="rgb(65,214,190)" stroke="rgb(52,171,152)" stroke-width="1" opacity="0.75" />
			</g>
		</g>
		<g>
			<title> (PJBLFHJD_01598)
hypothetical protein</title>
			<polygon class=" (PJBLFHJD_01598)
hypothetical protein" points="234,10 256,40 234,70" fill="rgb(255,255,255)" fill-opacity="1.0" stroke="rgb(0,0,0)" stroke-width="2"  />
			<g>
				<title>Acyltransferase (PF01553)
"Acyltransferase"</title>
				<polygon class="PF01553" points="236,28 243,28 249,36 249,44 243,52 236,52" stroke-linejoin="round" width="13" height="24" fill="rgb(87,176,216)" stroke="rgb(69,140,172)" stroke-width="1" opacity="0.75" />
			</g>
		</g>
		<g>
			<title> (PJBLFHJD_01599)
hypothetical protein</title>
			<polygon class=" (PJBLFHJD_01599)
hypothetical protein" points="257,25 263,25 263,10 293,40 263,70 263,55 257,55" fill="rgb(255,255,255)" fill-opacity="1.0" stroke="rgb(0,0,0)" stroke-width="2"  />
			<g>
				<title>Glycos_transf_2 (PF00535)
"Glycosyl transferase family 2"</title>
				<rect class="PF00535" x="261" y="28" stroke-linejoin="round" width="16" height="24" fill="rgb(224,122,96)" stroke="rgb(179,97,76)" stroke-width="1" opacity="0.75" />
			</g>
		</g>
		<g>
			<title>crtD (PJBLFHJD_01600)
1-hydroxycarotenoid 3,4-desaturase</title>
			<polygon class="crtD (PJBLFHJD_01600)
1-hydroxycarotenoid 3,4-desaturase" points="293,25 312,25 312,10 342,40 312,70 312,55 293,55" fill="rgb(255,255,255)" fill-opacity="1.0" stroke="rgb(0,0,0)" stroke-width="2"  />
			<g>
				<title>Amino_oxidase (PF01593)
"Flavin containing amine oxidoreductase"</title>
				<polygon class="PF01593" points="294,28 325,28 337,40 325,52 294,52" stroke-linejoin="round" width="47" height="24" fill="rgb(184,74,52)" stroke="rgb(147,59,41)" stroke-width="1" opacity="0.75" />
			</g>
		</g>
		<g>
			<title>crtB (PJBLFHJD_01601)
15-cis-phytoene synthase</title>
			<polygon class="crtB (PJBLFHJD_01601)
15-cis-phytoene synthase" points="343,40 370,10 370,70" fill="rgb(255,255,255)" fill-opacity="1.0" stroke="rgb(0,0,0)" stroke-width="2"  />
			<g>
				<title>SQS_PSY (PF00494)
"Squalene/phytoene synthase"</title>
				<polygon class="PF00494" points="347,40 358,28 369,28 369,52 358,52" stroke-linejoin="round" width="25" height="24" fill="rgb(178,91,49)" stroke="rgb(142,72,39)" stroke-width="1" opacity="0.75" />
			</g>
		</g>
		<g>
			<title>crtNc (PJBLFHJD_01602)
4,4'-diapolycopen-4-al dehydrogenase</title>
			<polygon class="crtNc (PJBLFHJD_01602)
4,4'-diapolycopen-4-al dehydrogenase" points="420,25 401,25 401,10 371,40 401,70 401,55 420,55" fill="rgb(255,255,255)" fill-opacity="1.0" stroke="rgb(0,0,0)" stroke-width="2"  />
			<g>
				<title>Amino_oxidase (PF01593)
"Flavin containing amine oxidoreductase"</title>
				<polygon class="PF01593" points="375,40 387,28 418,28 418,52 387,52" stroke-linejoin="round" width="46" height="24" fill="rgb(184,74,52)" stroke="rgb(147,59,41)" stroke-width="1" opacity="0.75" />
			</g>
		</g>
		<g>
			<title>crtN_1 (PJBLFHJD_01603)
4,4'-diapophytoene desaturase (4,4'-diapolycopene-forming)</title>
			<polygon class="crtN_1 (PJBLFHJD_01603)
4,4'-diapophytoene desaturase (4,4'-diapolycopene-forming)" points="469,25 450,25 450,10 420,40 450,70 450,55 469,55" fill="rgb(255,255,255)" fill-opacity="1.0" stroke="rgb(0,0,0)" stroke-width="2"  />
			<g>
				<title>Amino_oxidase (PF01593)
"Flavin containing amine oxidoreductase"</title>
				<polygon class="PF01593" points="424,40 436,28 468,28 468,52 436,52" stroke-linejoin="round" width="47" height="24" fill="rgb(184,74,52)" stroke="rgb(147,59,41)" stroke-width="1" opacity="0.75" />
			</g>
		</g>
		<g>
			<title> (PJBLFHJD_01604)
hypothetical protein</title>
			<polygon class=" (PJBLFHJD_01604)
hypothetical protein" points="478,10 483,40 478,70" fill="rgb(255,255,255)" fill-opacity="1.0" stroke="rgb(0,0,0)" stroke-width="2"  />
			<g>
				<title>YjcZ_2 (PF09680)
"Family of unknown function"</title>
				<polygon class="PF09680" points="481,44 480,40 481,36" stroke-linejoin="round" width="2" height="24" fill="rgb(79,203,107)" stroke="rgb(63,162,85)" stroke-width="1" opacity="0.75" />
			</g>
		</g>
		<g>
			<title>ktrB_3 (PJBLFHJD_01605)
Ktr system potassium uptake protein B</title>
			<polygon class="ktrB_3 (PJBLFHJD_01605)
Ktr system potassium uptake protein B" points="541,25 526,25 526,10 496,40 526,70 526,55 541,55" fill="rgb(255,255,255)" fill-opacity="1.0" stroke="rgb(0,0,0)" stroke-width="2"  />
			<g>
				<title>TrkH (PF02386)
"Cation transport protein"</title>
				<polygon class="PF02386" points="500,40 512,28 539,28 539,52 512,52" stroke-linejoin="round" width="43" height="24" fill="rgb(67,179,142)" stroke="rgb(53,143,113)" stroke-width="1" opacity="0.75" />
			</g>
		</g>
		<g>
			<title> (PJBLFHJD_01606)
hypothetical protein</title>
			<polygon class=" (PJBLFHJD_01606)
hypothetical protein" points="543,40 557,10 557,70" fill="rgb(255,255,255)" fill-opacity="1.0" stroke="rgb(0,0,0)" stroke-width="2"  />
			<g>
				<title>YwpF (PF14183)
"YwpF-like protein"</title>
				<polygon class="PF14183" points="546,40 552,28 556,28 556,52 552,52" stroke-linejoin="round" width="13" height="24" fill="rgb(199,178,73)" stroke="rgb(159,142,58)" stroke-width="1" opacity="0.75" />
			</g>
		</g>
		<g>
			<title>moaA (PJBLFHJD_01607)
GTP 3',8-cyclase</title>
			<polygon class="moaA (PJBLFHJD_01607)
GTP 3',8-cyclase" points="594,25 591,25 591,10 561,40 591,70 591,55 594,55" fill="rgb(255,255,255)" fill-opacity="1.0" stroke="rgb(0,0,0)" stroke-width="2"  />
			<g>
				<title>Mob_synth_C (PF06463)
"Molybdenum Cofactor Synthesis C"</title>
				<polygon class="PF06463" points="565,40 575,30 575,50" stroke-linejoin="round" width="12" height="24" fill="rgb(149,103,225)" stroke="rgb(119,82,180)" stroke-width="1" opacity="0.75" />
			</g>
			<g>
				<title>Radical_SAM (PF04055)
"Radical SAM superfamily"</title>
				<polygon class="PF04055" points="576,29 577,28 592,28 592,52 577,52 576,51" stroke-linejoin="round" width="16" height="24" fill="rgb(149,56,222)" stroke="rgb(119,44,177)" stroke-width="1" opacity="0.75" />
			</g>
		</g>
		<g>
			<title>moeA (PJBLFHJD_01608)
Molybdopterin molybdenumtransferase</title>
			<polygon class="moeA (PJBLFHJD_01608)
Molybdopterin molybdenumtransferase" points="637,25 625,25 625,10 595,40 625,70 625,55 637,55" fill="rgb(255,255,255)" fill-opacity="1.0" stroke="rgb(0,0,0)" stroke-width="2"  />
			<g>
				<title>MoeA_C (PF03454)
"MoeA C-terminal region (domain IV)"</title>
				<polygon class="PF03454" points="599,40 603,36 603,44" stroke-linejoin="round" width="7" height="24" fill="rgb(59,190,161)" stroke="rgb(47,152,128)" stroke-width="1" opacity="0.75" />
			</g>
			<g>
				<title>MoCF_biosynth (PF00994)
"Probable molybdopterin binding domain"</title>
				<polygon class="PF00994" points="604,35 611,28 617,28 617,52 611,52 604,45" stroke-linejoin="round" width="13" height="24" fill="rgb(75,187,175)" stroke="rgb(60,149,139)" stroke-width="1" opacity="0.75" />
			</g>
			<g>
				<title>MoeA_N (PF03453)
"MoeA N-terminal region (domain I and II)"</title>
				<rect class="PF03453" x="619" y="28" stroke-linejoin="round" width="16" height="24" fill="rgb(93,188,107)" stroke="rgb(74,150,85)" stroke-width="1" opacity="0.75" />
			</g>
		</g>
		<g>
			<title> (PJBLFHJD_01609)
hypothetical protein</title>
			<polygon class=" (PJBLFHJD_01609)
hypothetical protein" points="641,40 645,10 645,70" fill="rgb(255,255,255)" fill-opacity="1.0" stroke="rgb(0,0,0)" stroke-width="2"  />
		</g>
		<g>
			<title> (PJBLFHJD_01610)
hypothetical protein</title>
			<polygon class=" (PJBLFHJD_01610)
hypothetical protein" points="649,40 666,10 666,70" fill="rgb(255,255,255)" fill-opacity="1.0" stroke="rgb(0,0,0)" stroke-width="2"  />
			<g>
				<title>HD (PF01966)
"HD domain"</title>
				<polygon class="PF01966" points="652,40 659,28 663,28 663,52 659,52 652,40" stroke-linejoin="round" width="11" height="24" fill="rgb(92,193,119)" stroke="rgb(73,154,95)" stroke-width="1" opacity="0.75" />
			</g>
		</g>
		<g>
			<title>fabG_5 (PJBLFHJD_01611)
3-oxoacyl-[acyl-carrier-protein] reductase</title>
			<polygon class="fabG_5 (PJBLFHJD_01611)
3-oxoacyl-[acyl-carrier-protein] reductase" points="671,10 695,40 671,70" fill="rgb(255,255,255)" fill-opacity="1.0" stroke="rgb(0,0,0)" stroke-width="2"  />
			<g>
				<title>adh_short_C2 (PF13561)
"Enoyl-(Acyl carrier protein) reductase"</title>
				<polygon class="PF13561" points="672,28 682,28 692,40 682,52 672,52" stroke-linejoin="round" width="22" height="24" fill="rgb(73,205,127)" stroke="rgb(58,164,101)" stroke-width="1" opacity="0.75" />
			</g>
		</g>
	</g>
</svg>
