<svg version="1.1" baseProfile="full" xmlns="http://www.w3.org/2000/svg" width="750.1666666666666" height="80">
	<g>
		<line x1="10" y1="40.0" x2="740.1666666666666" y2="40.0" style="stroke:rgb(70,70,70); stroke-width:3 "/>
		<g>
			<title>cmtAb (AEOANFJI_00553)
p-cumate 2,3-dioxygenase system, large oxygenase component</title>
			<polygon class="cmtAb (AEOANFJI_00553)
p-cumate 2,3-dioxygenase system, large oxygenase component" points="34,25 46,25 46,10 76,40 46,70 46,55 34,55" fill="rgb(255,255,255)" fill-opacity="1.0" stroke="rgb(0,0,0)" stroke-width="2"  />
			<g>
				<title>Rieske (PF00355)
"Rieske [2Fe-2S] domain"</title>
				<rect class="PF00355" x="37" y="28" stroke-linejoin="round" width="9" height="24" fill="rgb(186,77,145)" stroke="rgb(148,61,115)" stroke-width="1" opacity="0.75" />
			</g>
			<g>
				<title>Ring_hydroxyl_A (PF00848)
"Ring hydroxylating alpha subunit (catalytic domain)"</title>
				<polygon class="PF00848" points="49,28 60,28 72,40 60,52 49,52" stroke-linejoin="round" width="25" height="24" fill="rgb(76,134,184)" stroke="rgb(60,107,147)" stroke-width="1" opacity="0.75" />
			</g>
		</g>
		<g>
			<title>cmtAc (AEOANFJI_00554)
p-cumate 2,3-dioxygenase system, small oxygenase component</title>
			<polygon class="cmtAc (AEOANFJI_00554)
p-cumate 2,3-dioxygenase system, small oxygenase component" points="76,10 92,40 76,70" fill="rgb(255,255,255)" fill-opacity="1.0" stroke="rgb(0,0,0)" stroke-width="2"  />
			<g>
				<title>Ring_hydroxyl_B (PF00866)
"Ring hydroxylating beta subunit"</title>
				<polygon class="PF00866" points="77,28 82,28 88,40 82,52 77,52" stroke-linejoin="round" width="13" height="24" fill="rgb(202,87,131)" stroke="rgb(161,69,104)" stroke-width="1" opacity="0.75" />
			</g>
		</g>
		<g>
			<title>yumC_2 (AEOANFJI_00555)
Ferredoxin--NADP reductase 2</title>
			<polygon class="yumC_2 (AEOANFJI_00555)
Ferredoxin--NADP reductase 2" points="94,25 98,25 98,10 128,40 98,70 98,55 94,55" fill="rgb(255,255,255)" fill-opacity="1.0" stroke="rgb(0,0,0)" stroke-width="2"  />
			<g>
				<title>Pyr_redox_3 (PF13738)
"Pyridine nucleotide-disulphide oxidoreductase"</title>
				<polygon class="PF13738" points="95,28 111,28 122,39 122,41 111,52 95,52" stroke-linejoin="round" width="27" height="24" fill="rgb(213,91,84)" stroke="rgb(170,72,67)" stroke-width="1" opacity="0.75" />
			</g>
		</g>
		<g>
			<title>bphC (AEOANFJI_00556)
Manganese-dependent 2,3-dihydroxybiphenyl 1,2-dioxygenase</title>
			<polygon class="bphC (AEOANFJI_00556)
Manganese-dependent 2,3-dihydroxybiphenyl 1,2-dioxygenase" points="130,25 133,25 133,10 163,40 133,70 133,55 130,55" fill="rgb(255,255,255)" fill-opacity="1.0" stroke="rgb(0,0,0)" stroke-width="2"  />
			<g>
				<title>Glyoxalase (PF00903)
"Glyoxalase/Bleomycin resistance protein/Dioxygenase superfamily"</title>
				<polygon class="PF00903" points="147,28 147,28 158,39 158,41 147,52 147,52" stroke-linejoin="round" width="11" height="24" fill="rgb(50,162,189)" stroke="rgb(40,129,151)" stroke-width="1" opacity="0.75" />
			</g>
		</g>
		<g>
			<title> (AEOANFJI_00557)
hypothetical protein</title>
			<polygon class=" (AEOANFJI_00557)
hypothetical protein" points="166,25 171,25 171,10 201,40 171,70 171,55 166,55" fill="rgb(255,255,255)" fill-opacity="1.0" stroke="rgb(0,0,0)" stroke-width="2"  />
			<g>
				<title>Amidohydro_2 (PF04909)
"Amidohydrolase"</title>
				<polygon class="PF04909" points="166,28 184,28 196,40 184,52 166,52" stroke-linejoin="round" width="32" height="24" fill="rgb(95,225,123)" stroke="rgb(76,180,98)" stroke-width="1" opacity="0.75" />
			</g>
		</g>
		<g>
			<title>fdxA_1 (AEOANFJI_00558)
Ferredoxin 7Fe</title>
			<polygon class="fdxA_1 (AEOANFJI_00558)
Ferredoxin 7Fe" points="203,10 210,40 203,70" fill="rgb(255,255,255)" fill-opacity="1.0" stroke="rgb(0,0,0)" stroke-width="2"  />
			<g>
				<title>Fer4_4 (PF12800)
"4Fe-4S binding domain"</title>
				<rect class="PF12800" x="203" y="28" stroke-linejoin="round" width="1" height="24" fill="rgb(195,55,123)" stroke="rgb(156,44,98)" stroke-width="1" opacity="0.75" />
			</g>
			<g>
				<title>Fer4 (PF00037)
"4Fe-4S binding domain"</title>
				<polygon class="PF00037" points="206,34 207,40 206,46" stroke-linejoin="round" width="2" height="24" fill="rgb(226,193,80)" stroke="rgb(180,154,64)" stroke-width="1" opacity="0.75" />
			</g>
		</g>
		<g>
			<title> (AEOANFJI_00559)
Acetaldehyde dehydrogenase</title>
			<polygon class=" (AEOANFJI_00559)
Acetaldehyde dehydrogenase" points="220,25 220,25 220,10 250,40 220,70 220,55 220,55" fill="rgb(255,255,255)" fill-opacity="1.0" stroke="rgb(0,0,0)" stroke-width="2"  />
			<g>
				<title>Semialdhyde_dh (PF01118)
"Semialdehyde dehydrogenase, NAD binding domain"</title>
				<rect class="PF01118" x="220" y="28" stroke-linejoin="round" width="11" height="24" fill="rgb(191,106,221)" stroke="rgb(152,84,176)" stroke-width="1" opacity="0.75" />
			</g>
			<g>
				<title>AcetDehyd-dimer (PF09290)
"Prokaryotic acetaldehyde dehydrogenase, dimerisation"</title>
				<polygon class="PF09290" points="233,28 233,28 245,40 233,52 233,52" stroke-linejoin="round" width="13" height="24" fill="rgb(216,81,210)" stroke="rgb(172,64,168)" stroke-width="1" opacity="0.75" />
			</g>
		</g>
		<g>
			<title>bphI (AEOANFJI_00560)
4-hydroxy-2-oxovalerate aldolase 4</title>
			<polygon class="bphI (AEOANFJI_00560)
4-hydroxy-2-oxovalerate aldolase 4" points="250,25 254,25 254,10 284,40 254,70 254,55 250,55" fill="rgb(255,255,255)" fill-opacity="1.0" stroke="rgb(0,0,0)" stroke-width="2"  />
			<g>
				<title>HMGL-like (PF00682)
"HMGL-like"</title>
				<polygon class="PF00682" points="250,28 267,28 275,36 275,44 267,52 250,52" stroke-linejoin="round" width="25" height="24" fill="rgb(84,228,141)" stroke="rgb(67,182,112)" stroke-width="1" opacity="0.75" />
			</g>
			<g>
				<title>DmpG_comm (PF07836)
"DmpG-like communication domain"</title>
				<polygon class="PF07836" points="277,38 279,40 277,42" stroke-linejoin="round" width="6" height="24" fill="rgb(87,215,135)" stroke="rgb(69,172,108)" stroke-width="1" opacity="0.75" />
			</g>
		</g>
		<g>
			<title> (AEOANFJI_00561)
hypothetical protein</title>
			<polygon class=" (AEOANFJI_00561)
hypothetical protein" points="334,25 332,25 332,10 302,40 332,70 332,55 334,55" fill="rgb(255,255,255)" fill-opacity="1.0" stroke="rgb(0,0,0)" stroke-width="2"  />
			<g>
				<title>DUF2515 (PF10720)
"Protein of unknown function (DUF2515)"</title>
				<polygon class="PF10720" points="306,40 318,28 334,28 334,52 318,52" stroke-linejoin="round" width="31" height="24" fill="rgb(66,168,216)" stroke="rgb(52,134,172)" stroke-width="1" opacity="0.75" />
			</g>
		</g>
		<g>
			<title>sqhC (AEOANFJI_00562)
Sporulenol synthase</title>
			<polygon class="sqhC (AEOANFJI_00562)
Sporulenol synthase" points="343,25 376,25 376,10 406,40 376,70 376,55 343,55" fill="rgb(255,255,255)" fill-opacity="1.0" stroke="rgb(0,0,0)" stroke-width="2"  />
			<g>
				<title>SQHop_cyclase_N (PF13249)
"Squalene-hopene cyclase N-terminal domain"</title>
				<rect class="PF13249" x="343" y="28" stroke-linejoin="round" width="29" height="24" fill="rgb(88,190,89)" stroke="rgb(70,152,71)" stroke-width="1" opacity="0.75" />
			</g>
			<g>
				<title>SQHop_cyclase_C (PF13243)
"Squalene-hopene cyclase C-terminal domain"</title>
				<polygon class="PF13243" points="373,28 390,28 402,40 390,52 373,52" stroke-linejoin="round" width="31" height="24" fill="rgb(191,58,201)" stroke="rgb(152,46,160)" stroke-width="1" opacity="0.75" />
			</g>
		</g>
		<g>
			<title> (AEOANFJI_00563)
hypothetical protein</title>
			<polygon class=" (AEOANFJI_00563)
hypothetical protein" points="415,10 437,40 415,70" fill="rgb(255,255,255)" fill-opacity="1.0" stroke="rgb(0,0,0)" stroke-width="2"  />
			<g>
				<title>DUF421 (PF04239)
"Protein of unknown function (DUF421)"</title>
				<polygon class="PF04239" points="423,28 424,28 433,40 424,52 423,52" stroke-linejoin="round" width="11" height="24" fill="rgb(165,197,85)" stroke="rgb(132,157,68)" stroke-width="1" opacity="0.75" />
			</g>
		</g>
		<g>
			<title> (AEOANFJI_00564)
hypothetical protein</title>
			<polygon class=" (AEOANFJI_00564)
hypothetical protein" points="441,10 446,40 441,70" fill="rgb(255,255,255)" fill-opacity="1.0" stroke="rgb(0,0,0)" stroke-width="2"  />
		</g>
		<g>
			<title> (AEOANFJI_00565)
hypothetical protein</title>
			<polygon class=" (AEOANFJI_00565)
hypothetical protein" points="448,10 454,40 448,70" fill="rgb(255,255,255)" fill-opacity="1.0" stroke="rgb(0,0,0)" stroke-width="2"  />
			<g>
				<title>YjzC (PF14168)
"YjzC-like protein"</title>
				<polygon class="PF14168" points="448,28 448,28 451,40 448,52 448,52" stroke-linejoin="round" width="5" height="24" fill="rgb(96,141,215)" stroke="rgb(76,112,172)" stroke-width="1" opacity="0.75" />
			</g>
		</g>
		<g>
			<title> (AEOANFJI_00566)
hypothetical protein</title>
			<polygon class=" (AEOANFJI_00566)
hypothetical protein" points="462,25 480,25 480,10 510,40 480,70 480,55 462,55" fill="rgb(255,255,255)" fill-opacity="1.0" stroke="rgb(0,0,0)" stroke-width="2"  />
			<g>
				<title>DUF2254 (PF10011)
"Predicted membrane protein (DUF2254)"</title>
				<polygon class="PF10011" points="464,28 494,28 500,34 500,46 494,52 464,52" stroke-linejoin="round" width="36" height="24" fill="rgb(78,184,171)" stroke="rgb(62,147,136)" stroke-width="1" opacity="0.75" />
			</g>
		</g>
		<g>
			<title>ppdK (AEOANFJI_00567)
Pyruvate, phosphate dikinase</title>
			<polygon class="ppdK (AEOANFJI_00567)
Pyruvate, phosphate dikinase" points="604,25 545,25 545,10 515,40 545,70 545,55 604,55" fill="rgb(255,255,255)" fill-opacity="1.0" stroke="rgb(0,0,0)" stroke-width="2"  />
			<g>
				<title>PEP-utilizers_C (PF02896)
"PEP-utilising enzyme, TIM barrel domain"</title>
				<polygon class="PF02896" points="519,40 531,28 552,28 552,52 531,52" stroke-linejoin="round" width="36" height="24" fill="rgb(65,113,188)" stroke="rgb(52,90,150)" stroke-width="1" opacity="0.75" />
			</g>
			<g>
				<title>PEP-utilizers (PF00391)
"PEP-utilising enzyme, mobile domain"</title>
				<rect class="PF00391" x="554" y="28" stroke-linejoin="round" width="8" height="24" fill="rgb(206,59,219)" stroke="rgb(164,47,175)" stroke-width="1" opacity="0.75" />
			</g>
			<g>
				<title>PPDK_N (PF01326)
"Pyruvate phosphate dikinase, PEP/pyruvate binding domain"</title>
				<rect class="PF01326" x="573" y="28" stroke-linejoin="round" width="29" height="24" fill="rgb(112,180,78)" stroke="rgb(89,144,62)" stroke-width="1" opacity="0.75" />
			</g>
		</g>
		<g>
			<title>yqfL_1 (AEOANFJI_00568)
Putative pyruvate, phosphate dikinase regulatory protein</title>
			<polygon class="yqfL_1 (AEOANFJI_00568)
Putative pyruvate, phosphate dikinase regulatory protein" points="604,40 631,10 631,70" fill="rgb(255,255,255)" fill-opacity="1.0" stroke="rgb(0,0,0)" stroke-width="2"  />
			<g>
				<title>Kinase-PPPase (PF03618)
"Kinase/pyrophosphorylase"</title>
				<polygon class="PF03618" points="608,40 619,28 630,28 630,52 619,52" stroke-linejoin="round" width="25" height="24" fill="rgb(140,226,96)" stroke="rgb(112,180,76)" stroke-width="1" opacity="0.75" />
			</g>
		</g>
		<g>
			<title>nasD_2 (AEOANFJI_00569)
Nitrite reductase [NAD(P)H]</title>
			<polygon class="nasD_2 (AEOANFJI_00569)
Nitrite reductase [NAD(P)H]" points="652,25 701,25 701,10 731,40 701,70 701,55 652,55" fill="rgb(255,255,255)" fill-opacity="1.0" stroke="rgb(0,0,0)" stroke-width="2"  />
			<g>
				<title>Pyr_redox_2 (PF07992)
"Pyridine nucleotide-disulphide oxidoreductase"</title>
				<rect class="PF07992" x="652" y="28" stroke-linejoin="round" width="29" height="24" fill="rgb(83,223,167)" stroke="rgb(66,178,133)" stroke-width="1" opacity="0.75" />
			</g>
			<g>
				<title>Rubredoxin_C (PF18267)
"Rubredoxin NAD+ reductase C-terminal domain"</title>
				<rect class="PF18267" x="683" y="28" stroke-linejoin="round" width="6" height="24" fill="rgb(130,82,207)" stroke="rgb(104,65,165)" stroke-width="1" opacity="0.75" />
			</g>
			<g>
				<title>Fer2_BFD (PF04324)
"BFD-like [2Fe-2S] binding domain"</title>
				<rect class="PF04324" x="693" y="28" stroke-linejoin="round" width="5" height="24" fill="rgb(216,103,169)" stroke="rgb(172,82,135)" stroke-width="1" opacity="0.75" />
			</g>
			<g>
				<title>Fer2_BFD (PF04324)
"BFD-like [2Fe-2S] binding domain"</title>
				<rect class="PF04324" x="699" y="28" stroke-linejoin="round" width="5" height="24" fill="rgb(216,103,169)" stroke="rgb(172,82,135)" stroke-width="1" opacity="0.75" />
			</g>
			<g>
				<title>NIR_SIR_ferr (PF03460)
"Nitrite/Sulfite reductase ferredoxin-like half domain"</title>
				<rect class="PF03460" x="706" y="28" stroke-linejoin="round" width="6" height="24" fill="rgb(51,200,158)" stroke="rgb(40,160,126)" stroke-width="1" opacity="0.75" />
			</g>
			<g>
				<title>NIR_SIR (PF01077)
"Nitrite and sulphite reductase 4Fe-4S domain"</title>
				<polygon class="PF01077" points="714,28 715,28 727,40 715,52 714,52" stroke-linejoin="round" width="14" height="24" fill="rgb(96,208,89)" stroke="rgb(76,166,71)" stroke-width="1" opacity="0.75" />
			</g>
		</g>
	</g>
</svg>
