<svg version="1.1" baseProfile="full" xmlns="http://www.w3.org/2000/svg" width="535.8666666666667" height="80">
	<g>
		<line x1="10" y1="40.0" x2="525.8666666666667" y2="40.0" style="stroke:rgb(70,70,70); stroke-width:3 "/>
		<g>
			<title>citS_2 (APKJPGIF_03353)
Citrate-sodium symporter</title>
			<polygon class="citS_2 (APKJPGIF_03353)
Citrate-sodium symporter" points="24,25 38,25 38,10 68,40 38,70 38,55 24,55" fill="rgb(255,255,255)" fill-opacity="1.0" stroke="rgb(0,0,0)" stroke-width="2"  />
			<g>
				<title>2HCT (PF03390)
"2-hydroxycarboxylate transporter family"</title>
				<polygon class="PF03390" points="27,28 52,28 64,40 52,52 27,52" stroke-linejoin="round" width="40" height="24" fill="rgb(192,160,88)" stroke="rgb(153,128,70)" stroke-width="1" opacity="0.75" />
			</g>
		</g>
		<g>
			<title>dat_2 (APKJPGIF_03354)
Diaminobutyrate--2-oxoglutarate aminotransferase</title>
			<polygon class="dat_2 (APKJPGIF_03354)
Diaminobutyrate--2-oxoglutarate aminotransferase" points="81,25 96,25 96,10 126,40 96,70 96,55 81,55" fill="rgb(255,255,255)" fill-opacity="1.0" stroke="rgb(0,0,0)" stroke-width="2"  />
			<g>
				<title>Aminotran_3 (PF00202)
"Aminotransferase class-III"</title>
				<polygon class="PF00202" points="83,28 109,28 121,40 109,52 83,52" stroke-linejoin="round" width="42" height="24" fill="rgb(49,163,189)" stroke="rgb(39,130,151)" stroke-width="1" opacity="0.75" />
			</g>
		</g>
		<g>
			<title>ddc (APKJPGIF_03355)
L-2,4-diaminobutyrate decarboxylase</title>
			<polygon class="ddc (APKJPGIF_03355)
L-2,4-diaminobutyrate decarboxylase" points="126,25 146,25 146,10 176,40 146,70 146,55 126,55" fill="rgb(255,255,255)" fill-opacity="1.0" stroke="rgb(0,0,0)" stroke-width="2"  />
			<g>
				<title>Pyridoxal_deC (PF00282)
"Pyridoxal-dependent decarboxylase conserved domain"</title>
				<polygon class="PF00282" points="131,28 160,28 168,36 168,44 160,52 131,52" stroke-linejoin="round" width="37" height="24" fill="rgb(100,218,166)" stroke="rgb(80,174,132)" stroke-width="1" opacity="0.75" />
			</g>
		</g>
		<g>
			<title>iucA (APKJPGIF_03356)
N(2)-citryl-N(6)-acetyl-N(6)-hydroxylysine synthase</title>
			<polygon class="iucA (APKJPGIF_03356)
N(2)-citryl-N(6)-acetyl-N(6)-hydroxylysine synthase" points="176,25 205,25 205,10 235,40 205,70 205,55 176,55" fill="rgb(255,255,255)" fill-opacity="1.0" stroke="rgb(0,0,0)" stroke-width="2"  />
			<g>
				<title>IucA_IucC (PF04183)
"IucA / IucC family"</title>
				<rect class="PF04183" x="190" y="28" stroke-linejoin="round" width="23" height="24" fill="rgb(221,104,121)" stroke="rgb(176,83,96)" stroke-width="1" opacity="0.75" />
			</g>
			<g>
				<title>FhuF (PF06276)
"Ferric iron reductase FhuF-like transporter"</title>
				<polygon class="PF06276" points="216,28 218,28 230,40 218,52 216,52" stroke-linejoin="round" width="15" height="24" fill="rgb(76,151,221)" stroke="rgb(60,120,176)" stroke-width="1" opacity="0.75" />
			</g>
		</g>
		<g>
			<title>iucB (APKJPGIF_03357)
N(6)-hydroxylysine O-acetyltransferase</title>
			<polygon class="iucB (APKJPGIF_03357)
N(6)-hydroxylysine O-acetyltransferase" points="235,10 254,40 235,70" fill="rgb(255,255,255)" fill-opacity="1.0" stroke="rgb(0,0,0)" stroke-width="2"  />
			<g>
				<title>Acetyltransf_8 (PF13523)
"Acetyltransferase (GNAT) domain"</title>
				<polygon class="PF13523" points="237,28 243,28 250,40 243,52 237,52" stroke-linejoin="round" width="14" height="24" fill="rgb(106,224,203)" stroke="rgb(84,179,162)" stroke-width="1" opacity="0.75" />
			</g>
		</g>
		<g>
			<title>iucD_3 (APKJPGIF_03358)
L-lysine N6-monooxygenase</title>
			<polygon class="iucD_3 (APKJPGIF_03358)
L-lysine N6-monooxygenase" points="253,25 267,25 267,10 297,40 267,70 267,55 253,55" fill="rgb(255,255,255)" fill-opacity="1.0" stroke="rgb(0,0,0)" stroke-width="2"  />
			<g>
				<title>K_oxygenase (PF13434)
"L-lysine 6-monooxygenase (NADPH-requiring)"</title>
				<polygon class="PF13434" points="253,28 280,28 287,35 287,45 280,52 253,52" stroke-linejoin="round" width="34" height="24" fill="rgb(81,213,119)" stroke="rgb(64,170,95)" stroke-width="1" opacity="0.75" />
			</g>
		</g>
		<g>
			<title>iucC (APKJPGIF_03359)
Aerobactin synthase</title>
			<polygon class="iucC (APKJPGIF_03359)
Aerobactin synthase" points="298,25 328,25 328,10 358,40 328,70 328,55 298,55" fill="rgb(255,255,255)" fill-opacity="1.0" stroke="rgb(0,0,0)" stroke-width="2"  />
			<g>
				<title>IucA_IucC (PF04183)
"IucA / IucC family"</title>
				<rect class="PF04183" x="312" y="28" stroke-linejoin="round" width="25" height="24" fill="rgb(221,104,121)" stroke="rgb(176,83,96)" stroke-width="1" opacity="0.75" />
			</g>
			<g>
				<title>FhuF (PF06276)
"Ferric iron reductase FhuF-like transporter"</title>
				<polygon class="PF06276" points="339,28 342,28 354,40 342,52 339,52" stroke-linejoin="round" width="16" height="24" fill="rgb(76,151,221)" stroke="rgb(60,120,176)" stroke-width="1" opacity="0.75" />
			</g>
		</g>
		<g>
			<title>lysC (APKJPGIF_03360)
Aspartokinase</title>
			<polygon class="lysC (APKJPGIF_03360)
Aspartokinase" points="359,25 369,25 369,10 399,40 369,70 369,55 359,55" fill="rgb(255,255,255)" fill-opacity="1.0" stroke="rgb(0,0,0)" stroke-width="2"  />
			<g>
				<title>AA_kinase (PF00696)
"Amino acid kinase family"</title>
				<rect class="PF00696" x="359" y="28" stroke-linejoin="round" width="22" height="24" fill="rgb(148,78,224)" stroke="rgb(118,62,179)" stroke-width="1" opacity="0.75" />
			</g>
		</g>
		<g>
			<title> (APKJPGIF_03361)
hypothetical protein</title>
			<polygon class=" (APKJPGIF_03361)
hypothetical protein" points="414,40 421,10 421,70" fill="rgb(255,255,255)" fill-opacity="1.0" stroke="rgb(0,0,0)" stroke-width="2"  />
			<g>
				<title>YjcZ_2 (PF09680)
"Family of unknown function"</title>
				<polygon class="PF09680" points="417,40 415,48 415,32" stroke-linejoin="round" width="1" height="24" fill="rgb(79,203,107)" stroke="rgb(63,162,85)" stroke-width="1" opacity="0.75" />
			</g>
		</g>
		<g>
			<title>tgl (APKJPGIF_03362)
Protein-glutamine gamma-glutamyltransferase</title>
			<polygon class="tgl (APKJPGIF_03362)
Protein-glutamine gamma-glutamyltransferase" points="426,40 454,10 454,70" fill="rgb(255,255,255)" fill-opacity="1.0" stroke="rgb(0,0,0)" stroke-width="2"  />
		</g>
		<g>
			<title> (APKJPGIF_03363)
hypothetical protein</title>
			<polygon class=" (APKJPGIF_03363)
hypothetical protein" points="460,10 480,40 460,70" fill="rgb(255,255,255)" fill-opacity="1.0" stroke="rgb(0,0,0)" stroke-width="2"  />
		</g>
		<g>
			<title> (APKJPGIF_03364)
hypothetical protein</title>
			<polygon class=" (APKJPGIF_03364)
hypothetical protein" points="486,10 505,40 486,70" fill="rgb(255,255,255)" fill-opacity="1.0" stroke="rgb(0,0,0)" stroke-width="2"  />
			<g>
				<title>DUF1801 (PF08818)
"Domain of unknown function (DU1801)"</title>
				<polygon class="PF08818" points="487,28 494,28 496,32 496,48 494,52 487,52" stroke-linejoin="round" width="9" height="24" fill="rgb(120,214,95)" stroke="rgb(96,171,76)" stroke-width="1" opacity="0.75" />
			</g>
			<g>
				<title>OmdA (PF13376)
"Bacteriocin-protection, YdeI or OmpD-Associated"</title>
				<polygon class="PF13376" points="498,35 501,40 498,45" stroke-linejoin="round" width="5" height="24" fill="rgb(212,104,109)" stroke="rgb(169,83,87)" stroke-width="1" opacity="0.75" />
			</g>
		</g>
	</g>
</svg>
