<svg version="1.1" baseProfile="full" xmlns="http://www.w3.org/2000/svg" width="366.1333333333333" height="80">
	<g>
		<line x1="10" y1="40.0" x2="356.1333333333333" y2="40.0" style="stroke:rgb(70,70,70); stroke-width:3 "/>
		<g>
			<title> (FHOLFIBO_02914)
hypothetical protein</title>
			<polygon class=" (FHOLFIBO_02914)
hypothetical protein" points="17,40 24,10 24,70" fill="rgb(255,255,255)" fill-opacity="1.0" stroke="rgb(0,0,0)" stroke-width="2"  />
		</g>
		<g>
			<title> (FHOLFIBO_02915)
hypothetical protein</title>
			<polygon class=" (FHOLFIBO_02915)
hypothetical protein" points="31,40 48,10 48,70" fill="rgb(255,255,255)" fill-opacity="1.0" stroke="rgb(0,0,0)" stroke-width="2"  />
			<g>
				<title>DUF420 (PF04238)
"Protein of unknown function (DUF420)"</title>
				<polygon class="PF04238" points="34,40 41,28 43,28 43,52 41,52" stroke-linejoin="round" width="12" height="24" fill="rgb(186,65,177)" stroke="rgb(148,52,141)" stroke-width="1" opacity="0.75" />
			</g>
		</g>
		<g>
			<title> (FHOLFIBO_02916)
hypothetical protein</title>
			<polygon class=" (FHOLFIBO_02916)
hypothetical protein" points="54,10 68,40 54,70" fill="rgb(255,255,255)" fill-opacity="1.0" stroke="rgb(0,0,0)" stroke-width="2"  />
			<g>
				<title>RDD (PF06271)
"RDD family"</title>
				<polygon class="PF06271" points="55,28 59,28 64,40 59,52 55,52" stroke-linejoin="round" width="11" height="24" fill="rgb(75,173,207)" stroke="rgb(60,138,165)" stroke-width="1" opacity="0.75" />
			</g>
		</g>
		<g>
			<title> (FHOLFIBO_02917)
hypothetical protein</title>
			<polygon class=" (FHOLFIBO_02917)
hypothetical protein" points="124,25 100,25 100,10 70,40 100,70 100,55 124,55" fill="rgb(255,255,255)" fill-opacity="1.0" stroke="rgb(0,0,0)" stroke-width="2"  />
			<g>
				<title>Glucosaminidase (PF01832)
"Mannosyl-glycoprotein endo-beta-N-acetylglucosaminidase"</title>
				<polygon class="PF01832" points="74,40 84,30 84,50" stroke-linejoin="round" width="12" height="24" fill="rgb(170,195,97)" stroke="rgb(136,156,77)" stroke-width="1" opacity="0.75" />
			</g>
			<g>
				<title>SPOR (PF05036)
"Sporulation related domain"</title>
				<rect class="PF05036" x="89" y="28" stroke-linejoin="round" width="7" height="24" fill="rgb(173,203,80)" stroke="rgb(138,162,64)" stroke-width="1" opacity="0.75" />
			</g>
			<g>
				<title>SPOR (PF05036)
"Sporulation related domain"</title>
				<rect class="PF05036" x="98" y="28" stroke-linejoin="round" width="7" height="24" fill="rgb(173,203,80)" stroke="rgb(138,162,64)" stroke-width="1" opacity="0.75" />
			</g>
			<g>
				<title>Amidase_3 (PF01520)
"N-acetylmuramoyl-L-alanine amidase"</title>
				<rect class="PF01520" x="107" y="28" stroke-linejoin="round" width="17" height="24" fill="rgb(174,223,57)" stroke="rgb(139,178,45)" stroke-width="1" opacity="0.75" />
			</g>
		</g>
		<g>
			<title>ykuI (FHOLFIBO_02918)
putative EAL-domain containing protein YkuI</title>
			<polygon class="ykuI (FHOLFIBO_02918)
putative EAL-domain containing protein YkuI" points="131,25 141,25 141,10 171,40 141,70 141,55 131,55" fill="rgb(255,255,255)" fill-opacity="1.0" stroke="rgb(0,0,0)" stroke-width="2"  />
			<g>
				<title>EAL (PF00563)
"EAL domain"</title>
				<rect class="PF00563" x="131" y="28" stroke-linejoin="round" width="22" height="24" fill="rgb(204,100,120)" stroke="rgb(163,80,96)" stroke-width="1" opacity="0.75" />
			</g>
			<g>
				<title>YkuI_C (PF10388)
"EAL-domain associated signalling protein domain"</title>
				<polygon class="PF10388" points="154,28 155,28 167,40 155,52 154,52" stroke-linejoin="round" width="16" height="24" fill="rgb(56,196,67)" stroke="rgb(44,156,53)" stroke-width="1" opacity="0.75" />
			</g>
		</g>
		<g>
			<title>ectC (FHOLFIBO_02919)
L-ectoine synthase</title>
			<polygon class="ectC (FHOLFIBO_02919)
L-ectoine synthase" points="176,10 188,40 176,70" fill="rgb(255,255,255)" fill-opacity="1.0" stroke="rgb(0,0,0)" stroke-width="2"  />
			<g>
				<title>Ectoine_synth (PF06339)
"Ectoine synthase"</title>
				<polygon class="PF06339" points="176,28 180,28 185,40 180,52 176,52" stroke-linejoin="round" width="12" height="24" fill="rgb(225,176,81)" stroke="rgb(180,140,64)" stroke-width="1" opacity="0.75" />
			</g>
		</g>
		<g>
			<title>ydaF_3 (FHOLFIBO_02920)
Putative ribosomal N-acetyltransferase YdaF</title>
			<polygon class="ydaF_3 (FHOLFIBO_02920)
Putative ribosomal N-acetyltransferase YdaF" points="201,10 220,40 201,70" fill="rgb(255,255,255)" fill-opacity="1.0" stroke="rgb(0,0,0)" stroke-width="2"  />
			<g>
				<title>Acetyltransf_3 (PF13302)
"Acetyltransferase (GNAT) domain"</title>
				<polygon class="PF13302" points="202,28 209,28 216,39 216,41 209,52 202,52" stroke-linejoin="round" width="14" height="24" fill="rgb(105,146,215)" stroke="rgb(84,116,172)" stroke-width="1" opacity="0.75" />
			</g>
		</g>
		<g>
			<title> (FHOLFIBO_02921)
hypothetical protein</title>
			<polygon class=" (FHOLFIBO_02921)
hypothetical protein" points="220,25 234,25 234,10 264,40 234,70 234,55 220,55" fill="rgb(255,255,255)" fill-opacity="1.0" stroke="rgb(0,0,0)" stroke-width="2"  />
		</g>
		<g>
			<title>hcxA (FHOLFIBO_02922)
Hydroxycarboxylate dehydrogenase A</title>
			<polygon class="hcxA (FHOLFIBO_02922)
Hydroxycarboxylate dehydrogenase A" points="300,25 295,25 295,10 265,40 295,70 295,55 300,55" fill="rgb(255,255,255)" fill-opacity="1.0" stroke="rgb(0,0,0)" stroke-width="2"  />
			<g>
				<title>Fe-ADH (PF00465)
"Iron-containing alcohol dehydrogenase"</title>
				<polygon class="PF00465" points="269,40 281,28 299,28 299,52 281,52" stroke-linejoin="round" width="33" height="24" fill="rgb(73,179,216)" stroke="rgb(58,143,172)" stroke-width="1" opacity="0.75" />
			</g>
		</g>
		<g>
			<title> (FHOLFIBO_02923)
hypothetical protein</title>
			<polygon class=" (FHOLFIBO_02923)
hypothetical protein" points="304,40 315,10 315,70" fill="rgb(255,255,255)" fill-opacity="1.0" stroke="rgb(0,0,0)" stroke-width="2"  />
			<g>
				<title>CMD (PF02627)
"Carboxymuconolactone decarboxylase family"</title>
				<polygon class="PF02627" points="307,40 312,28 313,28 313,52 312,52" stroke-linejoin="round" width="8" height="24" fill="rgb(58,205,164)" stroke="rgb(46,164,131)" stroke-width="1" opacity="0.75" />
			</g>
		</g>
	</g>
</svg>
