<svg version="1.1" baseProfile="full" xmlns="http://www.w3.org/2000/svg" width="713.9666666666667" height="80">
	<g>
		<line x1="10" y1="40.0" x2="703.9666666666667" y2="40.0" style="stroke:rgb(70,70,70); stroke-width:3 "/>
		<g>
			<title>dat_2 (JODBFFBH_04153)
D-alanine aminotransferase</title>
			<polygon class="dat_2 (JODBFFBH_04153)
D-alanine aminotransferase" points="25,10 54,40 25,70" fill="rgb(255,255,255)" fill-opacity="1.0" stroke="rgb(0,0,0)" stroke-width="2"  />
			<g>
				<title>Aminotran_4 (PF01063)
"Amino-transferase class IV"</title>
				<polygon class="PF01063" points="28,28 38,28 50,40 50,40 38,52 28,52" stroke-linejoin="round" width="22" height="24" fill="rgb(52,144,188)" stroke="rgb(41,115,150)" stroke-width="1" opacity="0.75" />
			</g>
		</g>
		<g>
			<title> (JODBFFBH_04154)
hypothetical protein</title>
			<polygon class=" (JODBFFBH_04154)
hypothetical protein" points="56,10 70,40 56,70" fill="rgb(255,255,255)" fill-opacity="1.0" stroke="rgb(0,0,0)" stroke-width="2"  />
		</g>
		<g>
			<title> (JODBFFBH_04155)
hypothetical protein</title>
			<polygon class=" (JODBFFBH_04155)
hypothetical protein" points="72,40 93,10 93,70" fill="rgb(255,255,255)" fill-opacity="1.0" stroke="rgb(0,0,0)" stroke-width="2"  />
		</g>
		<g>
			<title>yueD (JODBFFBH_04156)
Benzil reductase ((S)-benzoin forming)</title>
			<polygon class="yueD (JODBFFBH_04156)
Benzil reductase ((S)-benzoin forming)" points="97,10 122,40 97,70" fill="rgb(255,255,255)" fill-opacity="1.0" stroke="rgb(0,0,0)" stroke-width="2"  />
			<g>
				<title>adh_short (PF00106)
"short chain dehydrogenase"</title>
				<polygon class="PF00106" points="97,28 108,28 117,38 117,42 108,52 97,52" stroke-linejoin="round" width="20" height="24" fill="rgb(182,219,73)" stroke="rgb(145,175,58)" stroke-width="1" opacity="0.75" />
			</g>
		</g>
		<g>
			<title>mccF (JODBFFBH_04157)
Microcin C7 self-immunity protein MccF</title>
			<polygon class="mccF (JODBFFBH_04157)
Microcin C7 self-immunity protein MccF" points="156,25 154,25 154,10 124,40 154,70 154,55 156,55" fill="rgb(255,255,255)" fill-opacity="1.0" stroke="rgb(0,0,0)" stroke-width="2"  />
			<g>
				<title>Peptidase_S66C (PF17676)
"LD-carboxypeptidase C-terminal domain"</title>
				<polygon class="PF17676" points="128,40 136,32 136,48" stroke-linejoin="round" width="11" height="24" fill="rgb(72,81,192)" stroke="rgb(57,64,153)" stroke-width="1" opacity="0.75" />
			</g>
			<g>
				<title>Peptidase_S66 (PF02016)
"LD-carboxypeptidase N-terminal domain"</title>
				<rect class="PF02016" x="143" y="28" stroke-linejoin="round" width="11" height="24" fill="rgb(187,63,139)" stroke="rgb(149,50,111)" stroke-width="1" opacity="0.75" />
			</g>
		</g>
		<g>
			<title>expZ (JODBFFBH_04158)
Nucleotide-binding protein ExpZ</title>
			<polygon class="expZ (JODBFFBH_04158)
Nucleotide-binding protein ExpZ" points="169,25 191,25 191,10 221,40 191,70 191,55 169,55" fill="rgb(255,255,255)" fill-opacity="1.0" stroke="rgb(0,0,0)" stroke-width="2"  />
			<g>
				<title>ABC_tran (PF00005)
"ABC transporter"</title>
				<rect class="PF00005" x="170" y="28" stroke-linejoin="round" width="5" height="24" fill="rgb(129,201,63)" stroke="rgb(103,160,50)" stroke-width="1" opacity="0.75" />
			</g>
			<g>
				<title>ABC_tran_Xtn (PF12848)
"ABC transporter"</title>
				<rect class="PF12848" x="183" y="28" stroke-linejoin="round" width="11" height="24" fill="rgb(54,177,199)" stroke="rgb(43,141,159)" stroke-width="1" opacity="0.75" />
			</g>
			<g>
				<title>ABC_tran (PF00005)
"ABC transporter"</title>
				<polygon class="PF00005" points="197,28 205,28 209,32 209,48 205,52 197,52" stroke-linejoin="round" width="12" height="24" fill="rgb(129,201,63)" stroke="rgb(103,160,50)" stroke-width="1" opacity="0.75" />
			</g>
		</g>
		<g>
			<title> (JODBFFBH_04159)
hypothetical protein</title>
			<polygon class=" (JODBFFBH_04159)
hypothetical protein" points="223,10 234,40 223,70" fill="rgb(255,255,255)" fill-opacity="1.0" stroke="rgb(0,0,0)" stroke-width="2"  />
			<g>
				<title>Acetyltransf_3 (PF13302)
"Acetyltransferase (GNAT) domain"</title>
				<polygon class="PF13302" points="224,28 226,28 231,40 226,52 224,52" stroke-linejoin="round" width="9" height="24" fill="rgb(105,146,215)" stroke="rgb(84,116,172)" stroke-width="1" opacity="0.75" />
			</g>
		</g>
		<g>
			<title> (JODBFFBH_04160)
hypothetical protein</title>
			<polygon class=" (JODBFFBH_04160)
hypothetical protein" points="244,40 255,10 255,70" fill="rgb(255,255,255)" fill-opacity="1.0" stroke="rgb(0,0,0)" stroke-width="2"  />
		</g>
		<g>
			<title> (JODBFFBH_04161)
hypothetical protein</title>
			<polygon class=" (JODBFFBH_04161)
hypothetical protein" points="257,40 267,10 267,70" fill="rgb(255,255,255)" fill-opacity="1.0" stroke="rgb(0,0,0)" stroke-width="2"  />
		</g>
		<g>
			<title>opuD_5 (JODBFFBH_04162)
Glycine betaine transporter OpuD</title>
			<polygon class="opuD_5 (JODBFFBH_04162)
Glycine betaine transporter OpuD" points="286,25 306,25 306,10 336,40 306,70 306,55 286,55" fill="rgb(255,255,255)" fill-opacity="1.0" stroke="rgb(0,0,0)" stroke-width="2"  />
			<g>
				<title>BCCT (PF02028)
"BCCT, betaine/carnitine/choline family transporter"</title>
				<polygon class="PF02028" points="286,28 320,28 332,40 320,52 286,52" stroke-linejoin="round" width="48" height="24" fill="rgb(206,109,74)" stroke="rgb(164,87,59)" stroke-width="1" opacity="0.75" />
			</g>
		</g>
		<g>
			<title> (JODBFFBH_04163)
hypothetical protein</title>
			<polygon class=" (JODBFFBH_04163)
hypothetical protein" points="343,40 370,10 370,70" fill="rgb(255,255,255)" fill-opacity="1.0" stroke="rgb(0,0,0)" stroke-width="2"  />
			<g>
				<title>SQS_PSY (PF00494)
"Squalene/phytoene synthase"</title>
				<polygon class="PF00494" points="349,38 358,28 368,28 368,52 358,52 349,42" stroke-linejoin="round" width="19" height="24" fill="rgb(178,91,49)" stroke="rgb(142,72,39)" stroke-width="1" opacity="0.75" />
			</g>
		</g>
		<g>
			<title> (JODBFFBH_04164)
hypothetical protein</title>
			<polygon class=" (JODBFFBH_04164)
hypothetical protein" points="374,40 386,10 386,70" fill="rgb(255,255,255)" fill-opacity="1.0" stroke="rgb(0,0,0)" stroke-width="2"  />
			<g>
				<title>SET (PF00856)
"SET domain"</title>
				<polygon class="PF00856" points="377,40 381,31 381,49" stroke-linejoin="round" width="6" height="24" fill="rgb(69,182,89)" stroke="rgb(55,145,71)" stroke-width="1" opacity="0.75" />
			</g>
		</g>
		<g>
			<title> (JODBFFBH_04165)
hypothetical protein</title>
			<polygon class=" (JODBFFBH_04165)
hypothetical protein" points="432,25 424,25 424,10 394,40 424,70 424,55 432,55" fill="rgb(255,255,255)" fill-opacity="1.0" stroke="rgb(0,0,0)" stroke-width="2"  />
			<g>
				<title>DUF2515 (PF10720)
"Protein of unknown function (DUF2515)"</title>
				<polygon class="PF10720" points="398,40 410,28 428,28 428,52 410,52" stroke-linejoin="round" width="33" height="24" fill="rgb(66,168,216)" stroke="rgb(52,134,172)" stroke-width="1" opacity="0.75" />
			</g>
		</g>
		<g>
			<title>ybiT_2 (JODBFFBH_04166)
putative ABC transporter ATP-binding protein YbiT</title>
			<polygon class="ybiT_2 (JODBFFBH_04166)
putative ABC transporter ATP-binding protein YbiT" points="489,25 468,25 468,10 438,40 468,70 468,55 489,55" fill="rgb(255,255,255)" fill-opacity="1.0" stroke="rgb(0,0,0)" stroke-width="2"  />
			<g>
				<title>ABC_tran (PF00005)
"ABC transporter"</title>
				<polygon class="PF00005" points="443,39 454,28 455,28 455,52 454,52 443,41" stroke-linejoin="round" width="12" height="24" fill="rgb(129,201,63)" stroke="rgb(103,160,50)" stroke-width="1" opacity="0.75" />
			</g>
			<g>
				<title>ABC_tran_Xtn (PF12848)
"ABC transporter"</title>
				<rect class="PF12848" x="458" y="28" stroke-linejoin="round" width="8" height="24" fill="rgb(54,177,199)" stroke="rgb(43,141,159)" stroke-width="1" opacity="0.75" />
			</g>
			<g>
				<title>ABC_tran (PF00005)
"ABC transporter"</title>
				<rect class="PF00005" x="470" y="28" stroke-linejoin="round" width="17" height="24" fill="rgb(129,201,63)" stroke="rgb(103,160,50)" stroke-width="1" opacity="0.75" />
			</g>
		</g>
		<g>
			<title> (JODBFFBH_04167)
hypothetical protein</title>
			<polygon class=" (JODBFFBH_04167)
hypothetical protein" points="495,10 499,40 495,70" fill="rgb(255,255,255)" fill-opacity="1.0" stroke="rgb(0,0,0)" stroke-width="2"  />
		</g>
		<g>
			<title> (JODBFFBH_04168)
hypothetical protein</title>
			<polygon class=" (JODBFFBH_04168)
hypothetical protein" points="520,25 530,25 530,10 560,40 530,70 530,55 520,55" fill="rgb(255,255,255)" fill-opacity="1.0" stroke="rgb(0,0,0)" stroke-width="2"  />
			<g>
				<title>DUF21 (PF01595)
"Cyclin M transmembrane N-terminal domain"</title>
				<rect class="PF01595" x="520" y="28" stroke-linejoin="round" width="17" height="24" fill="rgb(76,67,187)" stroke="rgb(60,53,149)" stroke-width="1" opacity="0.75" />
			</g>
			<g>
				<title>CBS (PF00571)
"CBS domain"</title>
				<polygon class="PF00571" points="545,29 550,34 550,46 545,51" stroke-linejoin="round" width="5" height="24" fill="rgb(220,56,105)" stroke="rgb(176,44,84)" stroke-width="1" opacity="0.75" />
			</g>
			<g>
				<title>CorC_HlyC (PF03471)
"Transporter associated domain"</title>
				<polygon class="PF03471" points="553,37 556,40 553,43" stroke-linejoin="round" width="7" height="24" fill="rgb(60,114,228)" stroke="rgb(47,91,182)" stroke-width="1" opacity="0.75" />
			</g>
		</g>
		<g>
			<title> (JODBFFBH_04169)
hypothetical protein</title>
			<polygon class=" (JODBFFBH_04169)
hypothetical protein" points="569,40 579,10 579,70" fill="rgb(255,255,255)" fill-opacity="1.0" stroke="rgb(0,0,0)" stroke-width="2"  />
		</g>
		<g>
			<title> (JODBFFBH_04170)
hypothetical protein</title>
			<polygon class=" (JODBFFBH_04170)
hypothetical protein" points="610,10 613,40 610,70" fill="rgb(255,255,255)" fill-opacity="1.0" stroke="rgb(0,0,0)" stroke-width="2"  />
		</g>
		<g>
			<title>gph_4 (JODBFFBH_04171)
Phosphoglycolate phosphatase</title>
			<polygon class="gph_4 (JODBFFBH_04171)
Phosphoglycolate phosphatase" points="614,10 635,40 614,70" fill="rgb(255,255,255)" fill-opacity="1.0" stroke="rgb(0,0,0)" stroke-width="2"  />
			<g>
				<title>HAD_2 (PF13419)
"Haloacid dehalogenase-like hydrolase"</title>
				<polygon class="PF13419" points="614,28 623,28 631,40 623,52 614,52" stroke-linejoin="round" width="18" height="24" fill="rgb(60,223,188)" stroke="rgb(48,178,150)" stroke-width="1" opacity="0.75" />
			</g>
		</g>
		<g>
			<title>cntI (JODBFFBH_04172)
Pseudopaline exporter CntI</title>
			<polygon class="cntI (JODBFFBH_04172)
Pseudopaline exporter CntI" points="637,40 665,10 665,70" fill="rgb(255,255,255)" fill-opacity="1.0" stroke="rgb(0,0,0)" stroke-width="2"  />
			<g>
				<title>EamA (PF00892)
"EamA-like transporter family"</title>
				<polygon class="PF00892" points="641,40 651,30 651,50" stroke-linejoin="round" width="13" height="24" fill="rgb(105,217,77)" stroke="rgb(84,173,61)" stroke-width="1" opacity="0.75" />
			</g>
			<g>
				<title>EamA (PF00892)
"EamA-like transporter family"</title>
				<polygon class="PF00892" points="652,29 653,28 665,28 665,52 653,52 652,51" stroke-linejoin="round" width="13" height="24" fill="rgb(105,217,77)" stroke="rgb(84,173,61)" stroke-width="1" opacity="0.75" />
			</g>
		</g>
		<g>
			<title> (JODBFFBH_04173)
hypothetical protein</title>
			<polygon class=" (JODBFFBH_04173)
hypothetical protein" points="670,10 679,40 670,70" fill="rgb(255,255,255)" fill-opacity="1.0" stroke="rgb(0,0,0)" stroke-width="2"  />
		</g>
	</g>
</svg>
