<svg version="1.1" baseProfile="full" xmlns="http://www.w3.org/2000/svg" width="475.2" height="80">
	<g>
		<line x1="10" y1="40.0" x2="465.2" y2="40.0" style="stroke:rgb(70,70,70); stroke-width:3 "/>
		<g>
			<title> (LHGGBBNC_01715)
hypothetical protein</title>
			<polygon class=" (LHGGBBNC_01715)
hypothetical protein" points="54,40 60,10 60,70" fill="rgb(255,255,255)" fill-opacity="1.0" stroke="rgb(0,0,0)" stroke-width="2"  />
		</g>
		<g>
			<title> (LHGGBBNC_01716)
hypothetical protein</title>
			<polygon class=" (LHGGBBNC_01716)
hypothetical protein" points="64,40 79,10 79,70" fill="rgb(255,255,255)" fill-opacity="1.0" stroke="rgb(0,0,0)" stroke-width="2"  />
			<g>
				<title>bPH_4 (PF06713)
"Bacterial PH domain"</title>
				<polygon class="PF06713" points="67,40 72,30 72,50" stroke-linejoin="round" width="7" height="24" fill="rgb(189,64,172)" stroke="rgb(151,51,137)" stroke-width="1" opacity="0.75" />
			</g>
		</g>
		<g>
			<title>sigW_1 (LHGGBBNC_01717)
ECF RNA polymerase sigma factor SigW</title>
			<polygon class="sigW_1 (LHGGBBNC_01717)
ECF RNA polymerase sigma factor SigW" points="85,10 103,40 85,70" fill="rgb(255,255,255)" fill-opacity="1.0" stroke="rgb(0,0,0)" stroke-width="2"  />
			<g>
				<title>Sigma70_r2 (PF04542)
"Sigma-70 region 2"</title>
				<rect class="PF04542" x="86" y="28" stroke-linejoin="round" width="6" height="24" fill="rgb(184,59,197)" stroke="rgb(147,47,157)" stroke-width="1" opacity="0.75" />
			</g>
			<g>
				<title>Sigma70_r4_2 (PF08281)
"Sigma-70, region 4"</title>
				<polygon class="PF08281" points="96,35 99,40 96,45" stroke-linejoin="round" width="5" height="24" fill="rgb(222,103,144)" stroke="rgb(177,82,115)" stroke-width="1" opacity="0.75" />
			</g>
		</g>
		<g>
			<title> (LHGGBBNC_01718)
hypothetical protein</title>
			<polygon class=" (LHGGBBNC_01718)
hypothetical protein" points="103,25 110,25 110,10 140,40 110,70 110,55 103,55" fill="rgb(255,255,255)" fill-opacity="1.0" stroke="rgb(0,0,0)" stroke-width="2"  />
		</g>
		<g>
			<title> (LHGGBBNC_01719)
hypothetical protein</title>
			<polygon class=" (LHGGBBNC_01719)
hypothetical protein" points="144,40 168,10 168,70" fill="rgb(255,255,255)" fill-opacity="1.0" stroke="rgb(0,0,0)" stroke-width="2"  />
		</g>
		<g>
			<title>sbnF (LHGGBBNC_01720)
2-[(L-alanin-3-ylcarbamoyl)methyl]-3-(2- aminoethylcarbamoyl)-2-hydroxypropanoate synthase</title>
			<polygon class="sbnF (LHGGBBNC_01720)
2-[(L-alanin-3-ylcarbamoyl)methyl]-3-(2- aminoethylcarbamoyl)-2-hydroxypropanoate synthase" points="176,25 204,25 204,10 234,40 204,70 204,55 176,55" fill="rgb(255,255,255)" fill-opacity="1.0" stroke="rgb(0,0,0)" stroke-width="2"  />
			<g>
				<title>IucA_IucC (PF04183)
"IucA / IucC family"</title>
				<rect class="PF04183" x="190" y="28" stroke-linejoin="round" width="23" height="24" fill="rgb(221,104,121)" stroke="rgb(176,83,96)" stroke-width="1" opacity="0.75" />
			</g>
			<g>
				<title>FhuF (PF06276)
"Ferric iron reductase FhuF-like transporter"</title>
				<polygon class="PF06276" points="216,28 218,28 230,40 218,52 216,52" stroke-linejoin="round" width="16" height="24" fill="rgb(76,151,221)" stroke="rgb(60,120,176)" stroke-width="1" opacity="0.75" />
			</g>
		</g>
		<g>
			<title> (LHGGBBNC_01721)
hypothetical protein</title>
			<polygon class=" (LHGGBBNC_01721)
hypothetical protein" points="234,25 267,25 267,10 297,40 267,70 267,55 234,55" fill="rgb(255,255,255)" fill-opacity="1.0" stroke="rgb(0,0,0)" stroke-width="2"  />
			<g>
				<title>IucA_IucC (PF04183)
"IucA / IucC family"</title>
				<rect class="PF04183" x="254" y="28" stroke-linejoin="round" width="23" height="24" fill="rgb(221,104,121)" stroke="rgb(176,83,96)" stroke-width="1" opacity="0.75" />
			</g>
			<g>
				<title>FhuF (PF06276)
"Ferric iron reductase FhuF-like transporter"</title>
				<polygon class="PF06276" points="279,28 281,28 293,40 281,52 279,52" stroke-linejoin="round" width="16" height="24" fill="rgb(76,151,221)" stroke="rgb(60,120,176)" stroke-width="1" opacity="0.75" />
			</g>
		</g>
		<g>
			<title>sbnH (LHGGBBNC_01722)
2-[(L-alanin-3-ylcarbamoyl)methyl]-2- hydroxybutanedioate decarboxylase</title>
			<polygon class="sbnH (LHGGBBNC_01722)
2-[(L-alanin-3-ylcarbamoyl)methyl]-2- hydroxybutanedioate decarboxylase" points="299,25 308,25 308,10 338,40 308,70 308,55 299,55" fill="rgb(255,255,255)" fill-opacity="1.0" stroke="rgb(0,0,0)" stroke-width="2"  />
			<g>
				<title>Orn_Arg_deC_N (PF02784)
"Pyridoxal-dependent decarboxylase, pyridoxal binding domain"</title>
				<polygon class="PF02784" points="301,28 321,28 325,32 325,48 321,52 301,52" stroke-linejoin="round" width="24" height="24" fill="rgb(106,204,212)" stroke="rgb(84,163,169)" stroke-width="1" opacity="0.75" />
			</g>
		</g>
		<g>
			<title> (LHGGBBNC_01723)
hypothetical protein</title>
			<polygon class=" (LHGGBBNC_01723)
hypothetical protein" points="341,25 367,25 367,10 397,40 367,70 367,55 341,55" fill="rgb(255,255,255)" fill-opacity="1.0" stroke="rgb(0,0,0)" stroke-width="2"  />
			<g>
				<title>Peptidase_M3 (PF01432)
"Peptidase family M3"</title>
				<polygon class="PF01432" points="357,28 381,28 393,40 381,52 357,52" stroke-linejoin="round" width="38" height="24" fill="rgb(56,183,126)" stroke="rgb(44,146,100)" stroke-width="1" opacity="0.75" />
			</g>
		</g>
		<g>
			<title>ypbG_2 (LHGGBBNC_01724)
putative protein YpbG</title>
			<polygon class="ypbG_2 (LHGGBBNC_01724)
putative protein YpbG" points="399,10 426,40 399,70" fill="rgb(255,255,255)" fill-opacity="1.0" stroke="rgb(0,0,0)" stroke-width="2"  />
			<g>
				<title>Metallophos (PF00149)
"Calcineurin-like phosphoesterase"</title>
				<polygon class="PF00149" points="402,28 410,28 418,36 418,44 410,52 402,52" stroke-linejoin="round" width="16" height="24" fill="rgb(181,197,58)" stroke="rgb(144,157,46)" stroke-width="1" opacity="0.75" />
			</g>
		</g>
		<g>
			<title>tadA_3 (LHGGBBNC_01725)
tRNA-specific adenosine deaminase</title>
			<polygon class="tadA_3 (LHGGBBNC_01725)
tRNA-specific adenosine deaminase" points="427,10 442,40 427,70" fill="rgb(255,255,255)" fill-opacity="1.0" stroke="rgb(0,0,0)" stroke-width="2"  />
			<g>
				<title>dCMP_cyt_deam_1 (PF00383)
"Cytidine and deoxycytidylate deaminase zinc-binding region"</title>
				<polygon class="PF00383" points="427,28 432,28 437,37 437,43 432,52 427,52" stroke-linejoin="round" width="10" height="24" fill="rgb(91,149,216)" stroke="rgb(72,119,172)" stroke-width="1" opacity="0.75" />
			</g>
		</g>
	</g>
</svg>
