<svg version="1.1" baseProfile="full" xmlns="http://www.w3.org/2000/svg" width="749.7666666666667" height="80">
	<g>
		<line x1="10" y1="40.0" x2="739.7666666666667" y2="40.0" style="stroke:rgb(70,70,70); stroke-width:3 "/>
		<g>
			<title> (GLBNLCJE_01279)
hypothetical protein</title>
			<polygon class=" (GLBNLCJE_01279)
hypothetical protein" points="15,40 24,10 24,70" fill="rgb(255,255,255)" fill-opacity="1.0" stroke="rgb(0,0,0)" stroke-width="2"  />
		</g>
		<g>
			<title>mntB_1 (GLBNLCJE_01280)
Manganese transport system ATP-binding protein MntB</title>
			<polygon class="mntB_1 (GLBNLCJE_01280)
Manganese transport system ATP-binding protein MntB" points="37,10 61,40 37,70" fill="rgb(255,255,255)" fill-opacity="1.0" stroke="rgb(0,0,0)" stroke-width="2"  />
			<g>
				<title>ABC_tran (PF00005)
"ABC transporter"</title>
				<polygon class="PF00005" points="39,28 48,28 53,35 53,45 48,52 39,52" stroke-linejoin="round" width="14" height="24" fill="rgb(129,201,63)" stroke="rgb(103,160,50)" stroke-width="1" opacity="0.75" />
			</g>
		</g>
		<g>
			<title>mntB_2 (GLBNLCJE_01281)
Manganese transport system membrane protein MntB</title>
			<polygon class="mntB_2 (GLBNLCJE_01281)
Manganese transport system membrane protein MntB" points="62,10 90,40 62,70" fill="rgb(255,255,255)" fill-opacity="1.0" stroke="rgb(0,0,0)" stroke-width="2"  />
			<g>
				<title>ABC-3 (PF00950)
"ABC 3 transport family"</title>
				<polygon class="PF00950" points="62,28 74,28 86,40 74,52 62,52" stroke-linejoin="round" width="25" height="24" fill="rgb(190,102,215)" stroke="rgb(152,81,172)" stroke-width="1" opacity="0.75" />
			</g>
		</g>
		<g>
			<title>mntA (GLBNLCJE_01282)
Manganese-binding lipoprotein MntA</title>
			<polygon class="mntA (GLBNLCJE_01282)
Manganese-binding lipoprotein MntA" points="97,25 98,25 98,10 128,40 98,70 98,55 97,55" fill="rgb(255,255,255)" fill-opacity="1.0" stroke="rgb(0,0,0)" stroke-width="2"  />
			<g>
				<title>ZnuA (PF01297)
"Zinc-uptake complex component A periplasmic"</title>
				<polygon class="PF01297" points="101,28 112,28 124,40 112,52 101,52" stroke-linejoin="round" width="27" height="24" fill="rgb(78,178,130)" stroke="rgb(62,142,104)" stroke-width="1" opacity="0.75" />
			</g>
		</g>
		<g>
			<title>hchA_2 (GLBNLCJE_01283)
Protein/nucleic acid deglycase HchA</title>
			<polygon class="hchA_2 (GLBNLCJE_01283)
Protein/nucleic acid deglycase HchA" points="133,10 157,40 133,70" fill="rgb(255,255,255)" fill-opacity="1.0" stroke="rgb(0,0,0)" stroke-width="2"  />
			<g>
				<title>DJ-1_PfpI (PF01965)
"DJ-1/PfpI family"</title>
				<polygon class="PF01965" points="137,28 144,28 153,40 144,52 137,52" stroke-linejoin="round" width="19" height="24" fill="rgb(66,224,145)" stroke="rgb(52,179,116)" stroke-width="1" opacity="0.75" />
			</g>
		</g>
		<g>
			<title> (GLBNLCJE_01284)
hypothetical protein</title>
			<polygon class=" (GLBNLCJE_01284)
hypothetical protein" points="167,40 181,10 181,70" fill="rgb(255,255,255)" fill-opacity="1.0" stroke="rgb(0,0,0)" stroke-width="2"  />
			<g>
				<title>Acetyltransf_1 (PF00583)
"Acetyltransferase (GNAT) family"</title>
				<polygon class="PF00583" points="170,40 176,28 179,28 179,52 176,52" stroke-linejoin="round" width="11" height="24" fill="rgb(121,183,50)" stroke="rgb(96,146,39)" stroke-width="1" opacity="0.75" />
			</g>
		</g>
		<g>
			<title> (GLBNLCJE_01285)
hypothetical protein</title>
			<polygon class=" (GLBNLCJE_01285)
hypothetical protein" points="182,40 186,10 186,70" fill="rgb(255,255,255)" fill-opacity="1.0" stroke="rgb(0,0,0)" stroke-width="2"  />
		</g>
		<g>
			<title> (GLBNLCJE_01286)
hypothetical protein</title>
			<polygon class=" (GLBNLCJE_01286)
hypothetical protein" points="188,40 194,10 194,70" fill="rgb(255,255,255)" fill-opacity="1.0" stroke="rgb(0,0,0)" stroke-width="2"  />
		</g>
		<g>
			<title> (GLBNLCJE_01287)
hypothetical protein</title>
			<polygon class=" (GLBNLCJE_01287)
hypothetical protein" points="195,40 209,10 209,70" fill="rgb(255,255,255)" fill-opacity="1.0" stroke="rgb(0,0,0)" stroke-width="2"  />
		</g>
		<g>
			<title> (GLBNLCJE_01288)
hypothetical protein</title>
			<polygon class=" (GLBNLCJE_01288)
hypothetical protein" points="215,40 223,10 223,70" fill="rgb(255,255,255)" fill-opacity="1.0" stroke="rgb(0,0,0)" stroke-width="2"  />
			<g>
				<title>SpoVIF (PF14069)
"Stage VI sporulation protein F"</title>
				<polygon class="PF14069" points="218,40 221,28 222,28 222,52 221,52" stroke-linejoin="round" width="7" height="24" fill="rgb(181,86,189)" stroke="rgb(144,68,151)" stroke-width="1" opacity="0.75" />
			</g>
		</g>
		<g>
			<title> (GLBNLCJE_01289)
hypothetical protein</title>
			<polygon class=" (GLBNLCJE_01289)
hypothetical protein" points="227,40 255,10 255,70" fill="rgb(255,255,255)" fill-opacity="1.0" stroke="rgb(0,0,0)" stroke-width="2"  />
			<g>
				<title>DUF2268 (PF10026)
"Predicted Zn-dependent protease (DUF2268)"</title>
				<polygon class="PF10026" points="231,40 242,28 246,28 246,52 242,52" stroke-linejoin="round" width="19" height="24" fill="rgb(97,115,200)" stroke="rgb(77,91,160)" stroke-width="1" opacity="0.75" />
			</g>
		</g>
		<g>
			<title> (GLBNLCJE_01290)
hypothetical protein</title>
			<polygon class=" (GLBNLCJE_01290)
hypothetical protein" points="262,10 266,40 262,70" fill="rgb(255,255,255)" fill-opacity="1.0" stroke="rgb(0,0,0)" stroke-width="2"  />
			<g>
				<title>YjcZ_2 (PF09680)
"Family of unknown function"</title>
				<polygon class="PF09680" points="264,41 263,40 264,39" stroke-linejoin="round" width="2" height="24" fill="rgb(79,203,107)" stroke="rgb(63,162,85)" stroke-width="1" opacity="0.75" />
			</g>
		</g>
		<g>
			<title>resA_4 (GLBNLCJE_01291)
Thiol-disulfide oxidoreductase ResA</title>
			<polygon class="resA_4 (GLBNLCJE_01291)
Thiol-disulfide oxidoreductase ResA" points="279,10 295,40 279,70" fill="rgb(255,255,255)" fill-opacity="1.0" stroke="rgb(0,0,0)" stroke-width="2"  />
			<g>
				<title>AhpC-TSA (PF00578)
"AhpC/TSA family"</title>
				<polygon class="PF00578" points="279,28 285,28 292,40 292,40 285,52 279,52" stroke-linejoin="round" width="13" height="24" fill="rgb(166,71,190)" stroke="rgb(132,56,152)" stroke-width="1" opacity="0.75" />
			</g>
		</g>
		<g>
			<title>rihA_1 (GLBNLCJE_01292)
Pyrimidine-specific ribonucleoside hydrolase RihA</title>
			<polygon class="rihA_1 (GLBNLCJE_01292)
Pyrimidine-specific ribonucleoside hydrolase RihA" points="307,25 309,25 309,10 339,40 309,70 309,55 307,55" fill="rgb(255,255,255)" fill-opacity="1.0" stroke="rgb(0,0,0)" stroke-width="2"  />
			<g>
				<title>IU_nuc_hydro (PF01156)
"Inosine-uridine preferring nucleoside hydrolase"</title>
				<polygon class="PF01156" points="307,28 322,28 334,40 322,52 307,52" stroke-linejoin="round" width="29" height="24" fill="rgb(156,80,217)" stroke="rgb(124,64,173)" stroke-width="1" opacity="0.75" />
			</g>
		</g>
		<g>
			<title>sqhC (GLBNLCJE_01293)
Sporulenol synthase</title>
			<polygon class="sqhC (GLBNLCJE_01293)
Sporulenol synthase" points="343,25 376,25 376,10 406,40 376,70 376,55 343,55" fill="rgb(255,255,255)" fill-opacity="1.0" stroke="rgb(0,0,0)" stroke-width="2"  />
			<g>
				<title>SQHop_cyclase_N (PF13249)
"Squalene-hopene cyclase N-terminal domain"</title>
				<rect class="PF13249" x="343" y="28" stroke-linejoin="round" width="28" height="24" fill="rgb(88,190,89)" stroke="rgb(70,152,71)" stroke-width="1" opacity="0.75" />
			</g>
			<g>
				<title>SQHop_cyclase_C (PF13243)
"Squalene-hopene cyclase C-terminal domain"</title>
				<polygon class="PF13243" points="372,28 389,28 401,40 389,52 372,52" stroke-linejoin="round" width="31" height="24" fill="rgb(191,58,201)" stroke="rgb(152,46,160)" stroke-width="1" opacity="0.75" />
			</g>
		</g>
		<g>
			<title> (GLBNLCJE_01294)
hypothetical protein</title>
			<polygon class=" (GLBNLCJE_01294)
hypothetical protein" points="416,10 423,40 416,70" fill="rgb(255,255,255)" fill-opacity="1.0" stroke="rgb(0,0,0)" stroke-width="2"  />
			<g>
				<title>DUF2642 (PF10842)
"Protein of unknown function (DUF2642)"</title>
				<polygon class="PF10842" points="416,28 416,28 420,40 416,52 416,52" stroke-linejoin="round" width="6" height="24" fill="rgb(204,85,172)" stroke="rgb(163,68,137)" stroke-width="1" opacity="0.75" />
			</g>
		</g>
		<g>
			<title> (GLBNLCJE_01295)
hypothetical protein</title>
			<polygon class=" (GLBNLCJE_01295)
hypothetical protein" points="424,10 453,40 424,70" fill="rgb(255,255,255)" fill-opacity="1.0" stroke="rgb(0,0,0)" stroke-width="2"  />
			<g>
				<title>Mn_catalase (PF05067)
"Manganese containing catalase"</title>
				<polygon class="PF05067" points="424,28 437,28 449,40 437,52 424,52" stroke-linejoin="round" width="29" height="24" fill="rgb(59,189,89)" stroke="rgb(47,151,71)" stroke-width="1" opacity="0.75" />
			</g>
		</g>
		<g>
			<title> (GLBNLCJE_01296)
hypothetical protein</title>
			<polygon class=" (GLBNLCJE_01296)
hypothetical protein" points="461,40 477,10 477,70" fill="rgb(255,255,255)" fill-opacity="1.0" stroke="rgb(0,0,0)" stroke-width="2"  />
			<g>
				<title>DMT_YdcZ (PF04657)
"Putative inner membrane exporter, YdcZ"</title>
				<polygon class="PF04657" points="464,40 470,28 476,28 476,52 470,52" stroke-linejoin="round" width="13" height="24" fill="rgb(63,139,178)" stroke="rgb(50,111,142)" stroke-width="1" opacity="0.75" />
			</g>
		</g>
		<g>
			<title>yeiL (GLBNLCJE_01297)
Regulatory protein YeiL</title>
			<polygon class="yeiL (GLBNLCJE_01297)
Regulatory protein YeiL" points="477,40 500,10 500,70" fill="rgb(255,255,255)" fill-opacity="1.0" stroke="rgb(0,0,0)" stroke-width="2"  />
			<g>
				<title>HTH_Crp_2 (PF13545)
"Crp-like helix-turn-helix domain"</title>
				<polygon class="PF13545" points="481,40 484,36 484,44" stroke-linejoin="round" width="7" height="24" fill="rgb(87,137,202)" stroke="rgb(69,109,161)" stroke-width="1" opacity="0.75" />
			</g>
			<g>
				<title>cNMP_binding (PF00027)
"Cyclic nucleotide-binding domain"</title>
				<polygon class="PF00027" points="488,31 490,28 496,28 496,52 490,52 488,49" stroke-linejoin="round" width="8" height="24" fill="rgb(138,95,204)" stroke="rgb(110,76,163)" stroke-width="1" opacity="0.75" />
			</g>
		</g>
		<g>
			<title> (GLBNLCJE_01298)
hypothetical protein</title>
			<polygon class=" (GLBNLCJE_01298)
hypothetical protein" points="501,40 515,10 515,70" fill="rgb(255,255,255)" fill-opacity="1.0" stroke="rgb(0,0,0)" stroke-width="2"  />
			<g>
				<title>DMT_YdcZ (PF04657)
"Putative inner membrane exporter, YdcZ"</title>
				<polygon class="PF04657" points="504,40 510,28 514,28 514,52 510,52" stroke-linejoin="round" width="13" height="24" fill="rgb(63,139,178)" stroke="rgb(50,111,142)" stroke-width="1" opacity="0.75" />
			</g>
		</g>
		<g>
			<title> (GLBNLCJE_01299)
hypothetical protein</title>
			<polygon class=" (GLBNLCJE_01299)
hypothetical protein" points="549,25 547,25 547,10 517,40 547,70 547,55 549,55" fill="rgb(255,255,255)" fill-opacity="1.0" stroke="rgb(0,0,0)" stroke-width="2"  />
			<g>
				<title>AAT (PF03417)
"Acyl-coenzyme A:6-aminopenicillanic acid acyl-transferase"</title>
				<polygon class="PF03417" points="521,40 533,28 540,28 540,52 533,52" stroke-linejoin="round" width="20" height="24" fill="rgb(101,81,194)" stroke="rgb(80,64,155)" stroke-width="1" opacity="0.75" />
			</g>
		</g>
		<g>
			<title>nhaP2_2 (GLBNLCJE_01300)
K(+)/H(+) antiporter NhaP2</title>
			<polygon class="nhaP2_2 (GLBNLCJE_01300)
K(+)/H(+) antiporter NhaP2" points="608,25 588,25 588,10 558,40 588,70 588,55 608,55" fill="rgb(255,255,255)" fill-opacity="1.0" stroke="rgb(0,0,0)" stroke-width="2"  />
			<g>
				<title>TrkA_C (PF02080)
"TrkA-C domain"</title>
				<polygon class="PF02080" points="562,40 565,37 565,43" stroke-linejoin="round" width="6" height="24" fill="rgb(76,186,211)" stroke="rgb(60,148,168)" stroke-width="1" opacity="0.75" />
			</g>
			<g>
				<title>Na_H_Exchanger (PF00999)
"Sodium/hydrogen exchanger family"</title>
				<polygon class="PF00999" points="569,33 574,28 607,28 607,52 574,52 569,47" stroke-linejoin="round" width="38" height="24" fill="rgb(229,67,191)" stroke="rgb(183,53,152)" stroke-width="1" opacity="0.75" />
			</g>
		</g>
		<g>
			<title>trxB_1 (GLBNLCJE_01301)
Thioredoxin reductase</title>
			<polygon class="trxB_1 (GLBNLCJE_01301)
Thioredoxin reductase" points="641,25 641,25 641,10 611,40 641,70 641,55 641,55" fill="rgb(255,255,255)" fill-opacity="1.0" stroke="rgb(0,0,0)" stroke-width="2"  />
			<g>
				<title>Pyr_redox_2 (PF07992)
"Pyridine nucleotide-disulphide oxidoreductase"</title>
				<polygon class="PF07992" points="615,40 627,28 640,28 640,52 627,52" stroke-linejoin="round" width="28" height="24" fill="rgb(83,223,167)" stroke="rgb(66,178,133)" stroke-width="1" opacity="0.75" />
			</g>
		</g>
		<g>
			<title> (GLBNLCJE_01302)
hypothetical protein</title>
			<polygon class=" (GLBNLCJE_01302)
hypothetical protein" points="645,10 657,40 645,70" fill="rgb(255,255,255)" fill-opacity="1.0" stroke="rgb(0,0,0)" stroke-width="2"  />
		</g>
		<g>
			<title>ybiT_2 (GLBNLCJE_01303)
putative ABC transporter ATP-binding protein YbiT</title>
			<polygon class="ybiT_2 (GLBNLCJE_01303)
putative ABC transporter ATP-binding protein YbiT" points="660,25 681,25 681,10 711,40 681,70 681,55 660,55" fill="rgb(255,255,255)" fill-opacity="1.0" stroke="rgb(0,0,0)" stroke-width="2"  />
			<g>
				<title>ABC_tran (PF00005)
"ABC transporter"</title>
				<rect class="PF00005" x="661" y="28" stroke-linejoin="round" width="17" height="24" fill="rgb(129,201,63)" stroke="rgb(103,160,50)" stroke-width="1" opacity="0.75" />
			</g>
			<g>
				<title>ABC_tran_Xtn (PF12848)
"ABC transporter"</title>
				<rect class="PF12848" x="683" y="28" stroke-linejoin="round" width="8" height="24" fill="rgb(54,177,199)" stroke="rgb(43,141,159)" stroke-width="1" opacity="0.75" />
			</g>
			<g>
				<title>ABC_tran (PF00005)
"ABC transporter"</title>
				<polygon class="PF00005" points="694,28 695,28 706,39 706,41 695,52 694,52" stroke-linejoin="round" width="12" height="24" fill="rgb(129,201,63)" stroke="rgb(103,160,50)" stroke-width="1" opacity="0.75" />
			</g>
		</g>
	</g>
</svg>
