<svg version="1.1" baseProfile="full" xmlns="http://www.w3.org/2000/svg" width="749.3666666666667" height="80">
	<g>
		<line x1="10" y1="40.0" x2="739.3666666666667" y2="40.0" style="stroke:rgb(70,70,70); stroke-width:3 "/>
		<g>
			<title>ywlF_2 (LFBLBBEA_04394)
Putative sugar phosphate isomerase YwlF</title>
			<polygon class="ywlF_2 (LFBLBBEA_04394)
Putative sugar phosphate isomerase YwlF" points="31,40 44,10 44,70" fill="rgb(255,255,255)" fill-opacity="1.0" stroke="rgb(0,0,0)" stroke-width="2"  />
			<g>
				<title>LacAB_rpiB (PF02502)
"Ribose/Galactose Isomerase"</title>
				<polygon class="PF02502" points="34,40 40,28 44,28 44,52 40,52" stroke-linejoin="round" width="12" height="24" fill="rgb(93,178,74)" stroke="rgb(74,142,59)" stroke-width="1" opacity="0.75" />
			</g>
		</g>
		<g>
			<title>dhaL-2 (LFBLBBEA_04395)
PEP-dependent dihydroxyacetone kinase 2, ADP-binding subunit DhaL</title>
			<polygon class="dhaL-2 (LFBLBBEA_04395)
PEP-dependent dihydroxyacetone kinase 2, ADP-binding subunit DhaL" points="51,40 72,10 72,70" fill="rgb(255,255,255)" fill-opacity="1.0" stroke="rgb(0,0,0)" stroke-width="2"  />
			<g>
				<title>Dak2 (PF02734)
"DAK2 domain"</title>
				<polygon class="PF02734" points="55,40 64,28 69,28 69,52 64,52" stroke-linejoin="round" width="17" height="24" fill="rgb(107,200,62)" stroke="rgb(85,160,49)" stroke-width="1" opacity="0.75" />
			</g>
		</g>
		<g>
			<title>dhaK-2 (LFBLBBEA_04396)
PTS-dependent dihydroxyacetone kinase 2, dihydroxyacetone-binding subunit DhaK</title>
			<polygon class="dhaK-2 (LFBLBBEA_04396)
PTS-dependent dihydroxyacetone kinase 2, dihydroxyacetone-binding subunit DhaK" points="107,25 104,25 104,10 74,40 104,70 104,55 107,55" fill="rgb(255,255,255)" fill-opacity="1.0" stroke="rgb(0,0,0)" stroke-width="2"  />
			<g>
				<title>Dak1 (PF02733)
"Dak1 domain"</title>
				<polygon class="PF02733" points="78,40 90,28 105,28 105,52 90,52" stroke-linejoin="round" width="31" height="24" fill="rgb(110,103,210)" stroke="rgb(88,82,168)" stroke-width="1" opacity="0.75" />
			</g>
		</g>
		<g>
			<title>yoaB (LFBLBBEA_04397)
Putative transporter YoaB</title>
			<polygon class="yoaB (LFBLBBEA_04397)
Putative transporter YoaB" points="153,25 140,25 140,10 110,40 140,70 140,55 153,55" fill="rgb(255,255,255)" fill-opacity="1.0" stroke="rgb(0,0,0)" stroke-width="2"  />
			<g>
				<title>MFS_1 (PF07690)
"Major Facilitator Superfamily"</title>
				<polygon class="PF07690" points="125,29 126,28 150,28 150,52 126,52 125,51" stroke-linejoin="round" width="25" height="24" fill="rgb(193,224,74)" stroke="rgb(154,179,59)" stroke-width="1" opacity="0.75" />
			</g>
		</g>
		<g>
			<title>eltD_1 (LFBLBBEA_04398)
Erythritol/L-threitol dehydrogenase</title>
			<polygon class="eltD_1 (LFBLBBEA_04398)
Erythritol/L-threitol dehydrogenase" points="154,40 169,10 169,70" fill="rgb(255,255,255)" fill-opacity="1.0" stroke="rgb(0,0,0)" stroke-width="2"  />
			<g>
				<title>ADH_zinc_N (PF00107)
"Zinc-binding dehydrogenase"</title>
				<polygon class="PF00107" points="157,40 163,28 168,28 168,52 163,52 157,40" stroke-linejoin="round" width="11" height="24" fill="rgb(81,108,215)" stroke="rgb(64,86,172)" stroke-width="1" opacity="0.75" />
			</g>
		</g>
		<g>
			<title>eltD_2 (LFBLBBEA_04399)
Erythritol/L-threitol dehydrogenase</title>
			<polygon class="eltD_2 (LFBLBBEA_04399)
Erythritol/L-threitol dehydrogenase" points="168,40 191,10 191,70" fill="rgb(255,255,255)" fill-opacity="1.0" stroke="rgb(0,0,0)" stroke-width="2"  />
			<g>
				<title>ADH_N (PF08240)
"Alcohol dehydrogenase GroES-like domain"</title>
				<polygon class="PF08240" points="175,36 181,28 186,28 186,52 181,52 175,44" stroke-linejoin="round" width="11" height="24" fill="rgb(211,65,138)" stroke="rgb(168,51,110)" stroke-width="1" opacity="0.75" />
			</g>
		</g>
		<g>
			<title>ydjF_2 (LFBLBBEA_04400)
putative HTH-type transcriptional regulator YdjF</title>
			<polygon class="ydjF_2 (LFBLBBEA_04400)
putative HTH-type transcriptional regulator YdjF" points="201,10 225,40 201,70" fill="rgb(255,255,255)" fill-opacity="1.0" stroke="rgb(0,0,0)" stroke-width="2"  />
			<g>
				<title>HTH_DeoR (PF08220)
"DeoR-like helix-turn-helix domain"</title>
				<rect class="PF08220" x="201" y="28" stroke-linejoin="round" width="4" height="24" fill="rgb(194,214,67)" stroke="rgb(155,171,53)" stroke-width="1" opacity="0.75" />
			</g>
			<g>
				<title>DeoRC (PF00455)
"DeoR C terminal sensor domain"</title>
				<polygon class="PF00455" points="207,28 212,28 221,40 212,52 207,52" stroke-linejoin="round" width="16" height="24" fill="rgb(183,143,83)" stroke="rgb(146,114,66)" stroke-width="1" opacity="0.75" />
			</g>
		</g>
		<g>
			<title>golD (LFBLBBEA_04401)
NAD-dependent glycerol dehydrogenase</title>
			<polygon class="golD (LFBLBBEA_04401)
NAD-dependent glycerol dehydrogenase" points="228,10 253,40 228,70" fill="rgb(255,255,255)" fill-opacity="1.0" stroke="rgb(0,0,0)" stroke-width="2"  />
			<g>
				<title>adh_short_C2 (PF13561)
"Enoyl-(Acyl carrier protein) reductase"</title>
				<polygon class="PF13561" points="230,28 239,28 249,40 239,52 230,52" stroke-linejoin="round" width="23" height="24" fill="rgb(73,205,127)" stroke="rgb(58,164,101)" stroke-width="1" opacity="0.75" />
			</g>
		</g>
		<g>
			<title>dcuR (LFBLBBEA_04402)
Transcriptional regulatory protein DcuR</title>
			<polygon class="dcuR (LFBLBBEA_04402)
Transcriptional regulatory protein DcuR" points="255,40 278,10 278,70" fill="rgb(255,255,255)" fill-opacity="1.0" stroke="rgb(0,0,0)" stroke-width="2"  />
			<g>
				<title>HTH_11 (PF08279)
"HTH domain"</title>
				<polygon class="PF08279" points="259,40 261,37 261,43" stroke-linejoin="round" width="5" height="24" fill="rgb(188,106,60)" stroke="rgb(150,84,48)" stroke-width="1" opacity="0.75" />
			</g>
			<g>
				<title>Response_reg (PF00072)
"Response regulator receiver domain"</title>
				<polygon class="PF00072" points="266,31 268,28 277,28 277,52 268,52 266,49" stroke-linejoin="round" width="11" height="24" fill="rgb(100,107,203)" stroke="rgb(80,85,162)" stroke-width="1" opacity="0.75" />
			</g>
		</g>
		<g>
			<title>dcuS (LFBLBBEA_04403)
Sensor histidine kinase DcuS</title>
			<polygon class="dcuS (LFBLBBEA_04403)
Sensor histidine kinase DcuS" points="331,25 308,25 308,10 278,40 308,70 308,55 331,55" fill="rgb(255,255,255)" fill-opacity="1.0" stroke="rgb(0,0,0)" stroke-width="2"  />
			<g>
				<title>HATPase_c (PF02518)
"Histidine kinase-, DNA gyrase B-, and HSP90-like ATPase"</title>
				<polygon class="PF02518" points="282,40 288,34 288,46" stroke-linejoin="round" width="10" height="24" fill="rgb(80,94,225)" stroke="rgb(64,75,180)" stroke-width="1" opacity="0.75" />
			</g>
			<g>
				<title>SPOB_a (PF14689)
"Sensor_kinase_SpoOB-type, alpha-helical domain"</title>
				<polygon class="PF14689" points="293,29 294,28 299,28 299,52 294,52 293,51" stroke-linejoin="round" width="6" height="24" fill="rgb(215,217,87)" stroke="rgb(172,173,69)" stroke-width="1" opacity="0.75" />
			</g>
			<g>
				<title>PAS (PF00989)
"PAS fold"</title>
				<rect class="PF00989" x="300" y="28" stroke-linejoin="round" width="10" height="24" fill="rgb(205,221,64)" stroke="rgb(164,176,51)" stroke-width="1" opacity="0.75" />
			</g>
			<g>
				<title>sCache_3_2 (PF17203)
"Single cache domain 3"</title>
				<rect class="PF17203" x="314" y="28" stroke-linejoin="round" width="13" height="24" fill="rgb(209,153,67)" stroke="rgb(167,122,53)" stroke-width="1" opacity="0.75" />
			</g>
		</g>
		<g>
			<title>sqhC (LFBLBBEA_04404)
Sporulenol synthase</title>
			<polygon class="sqhC (LFBLBBEA_04404)
Sporulenol synthase" points="343,25 375,25 375,10 405,40 375,70 375,55 343,55" fill="rgb(255,255,255)" fill-opacity="1.0" stroke="rgb(0,0,0)" stroke-width="2"  />
			<g>
				<title>SQHop_cyclase_N (PF13249)
"Squalene-hopene cyclase N-terminal domain"</title>
				<rect class="PF13249" x="344" y="28" stroke-linejoin="round" width="28" height="24" fill="rgb(88,190,89)" stroke="rgb(70,152,71)" stroke-width="1" opacity="0.75" />
			</g>
			<g>
				<title>SQHop_cyclase_C (PF13243)
"Squalene-hopene cyclase C-terminal domain"</title>
				<polygon class="PF13243" points="373,28 389,28 401,40 389,52 373,52" stroke-linejoin="round" width="31" height="24" fill="rgb(191,58,201)" stroke="rgb(152,46,160)" stroke-width="1" opacity="0.75" />
			</g>
		</g>
		<g>
			<title> (LFBLBBEA_04405)
hypothetical protein</title>
			<polygon class=" (LFBLBBEA_04405)
hypothetical protein" points="410,40 428,10 428,70" fill="rgb(255,255,255)" fill-opacity="1.0" stroke="rgb(0,0,0)" stroke-width="2"  />
		</g>
		<g>
			<title>yhfK_2 (LFBLBBEA_04406)
putative sugar epimerase YhfK</title>
			<polygon class="yhfK_2 (LFBLBBEA_04406)
putative sugar epimerase YhfK" points="439,40 460,10 460,70" fill="rgb(255,255,255)" fill-opacity="1.0" stroke="rgb(0,0,0)" stroke-width="2"  />
			<g>
				<title>NAD_binding_10 (PF13460)
"NAD(P)H-binding"</title>
				<polygon class="PF13460" points="443,40 452,28 459,28 459,52 452,52" stroke-linejoin="round" width="18" height="24" fill="rgb(188,201,78)" stroke="rgb(150,160,62)" stroke-width="1" opacity="0.75" />
			</g>
		</g>
		<g>
			<title> (LFBLBBEA_04407)
hypothetical protein</title>
			<polygon class=" (LFBLBBEA_04407)
hypothetical protein" points="466,10 474,40 466,70" fill="rgb(255,255,255)" fill-opacity="1.0" stroke="rgb(0,0,0)" stroke-width="2"  />
		</g>
		<g>
			<title>dkgB (LFBLBBEA_04408)
2,5-diketo-D-gluconic acid reductase B</title>
			<polygon class="dkgB (LFBLBBEA_04408)
2,5-diketo-D-gluconic acid reductase B" points="487,40 515,10 515,70" fill="rgb(255,255,255)" fill-opacity="1.0" stroke="rgb(0,0,0)" stroke-width="2"  />
			<g>
				<title>Aldo_ket_red (PF00248)
"Aldo/keto reductase family"</title>
				<polygon class="PF00248" points="491,40 502,28 512,28 512,52 502,52" stroke-linejoin="round" width="24" height="24" fill="rgb(225,205,58)" stroke="rgb(180,164,46)" stroke-width="1" opacity="0.75" />
			</g>
		</g>
		<g>
			<title>fda (LFBLBBEA_04409)
Fructose-bisphosphate aldolase class 1</title>
			<polygon class="fda (LFBLBBEA_04409)
Fructose-bisphosphate aldolase class 1" points="525,10 554,40 525,70" fill="rgb(255,255,255)" fill-opacity="1.0" stroke="rgb(0,0,0)" stroke-width="2"  />
			<g>
				<title>Glycolytic (PF00274)
"Fructose-bisphosphate aldolase class-I"</title>
				<polygon class="PF00274" points="525,28 538,28 546,36 546,44 538,52 525,52" stroke-linejoin="round" width="21" height="24" fill="rgb(79,181,68)" stroke="rgb(63,144,54)" stroke-width="1" opacity="0.75" />
			</g>
		</g>
		<g>
			<title>nfo_2 (LFBLBBEA_04410)
putative endonuclease 4</title>
			<polygon class="nfo_2 (LFBLBBEA_04410)
putative endonuclease 4" points="556,40 584,10 584,70" fill="rgb(255,255,255)" fill-opacity="1.0" stroke="rgb(0,0,0)" stroke-width="2"  />
			<g>
				<title>AP_endonuc_2 (PF01261)
"Xylose isomerase-like TIM barrel"</title>
				<polygon class="PF01261" points="560,40 571,28 581,28 581,52 571,52 560,40" stroke-linejoin="round" width="21" height="24" fill="rgb(69,222,207)" stroke="rgb(55,177,165)" stroke-width="1" opacity="0.75" />
			</g>
		</g>
		<g>
			<title>smc_4 (LFBLBBEA_04411)
Chromosome partition protein Smc</title>
			<polygon class="smc_4 (LFBLBBEA_04411)
Chromosome partition protein Smc" points="649,25 619,25 619,10 589,40 619,70 619,55 649,55" fill="rgb(255,255,255)" fill-opacity="1.0" stroke="rgb(0,0,0)" stroke-width="2"  />
		</g>
		<g>
			<title> (LFBLBBEA_04412)
hypothetical protein</title>
			<polygon class=" (LFBLBBEA_04412)
hypothetical protein" points="650,40 658,10 658,70" fill="rgb(255,255,255)" fill-opacity="1.0" stroke="rgb(0,0,0)" stroke-width="2"  />
		</g>
		<g>
			<title>ydfJ (LFBLBBEA_04413)
Membrane protein YdfJ</title>
			<polygon class="ydfJ (LFBLBBEA_04413)
Membrane protein YdfJ" points="717,25 688,25 688,10 658,40 688,70 688,55 717,55" fill="rgb(255,255,255)" fill-opacity="1.0" stroke="rgb(0,0,0)" stroke-width="2"  />
			<g>
				<title>MMPL (PF03176)
"MMPL family"</title>
				<polygon class="PF03176" points="662,40 674,28 680,28 680,52 674,52" stroke-linejoin="round" width="22" height="24" fill="rgb(228,109,193)" stroke="rgb(182,87,154)" stroke-width="1" opacity="0.75" />
			</g>
			<g>
				<title>MMPL (PF03176)
"MMPL family"</title>
				<rect class="PF03176" x="683" y="28" stroke-linejoin="round" width="30" height="24" fill="rgb(228,109,193)" stroke="rgb(182,87,154)" stroke-width="1" opacity="0.75" />
			</g>
		</g>
	</g>
</svg>
