<svg version="1.1" baseProfile="full" xmlns="http://www.w3.org/2000/svg" width="1389.5333333333333" height="80">
	<g>
		<line x1="10" y1="40.0" x2="1379.5333333333333" y2="40.0" style="stroke:rgb(70,70,70); stroke-width:3 "/>
		<g>
			<title> (FCOBMIEG_00517)
hypothetical protein</title>
			<polygon class=" (FCOBMIEG_00517)
hypothetical protein" points="81,10 86,40 81,70" fill="rgb(255,255,255)" fill-opacity="1.0" stroke="rgb(0,0,0)" stroke-width="2"  />
		</g>
		<g>
			<title> (FCOBMIEG_00518)
hypothetical protein</title>
			<polygon class=" (FCOBMIEG_00518)
hypothetical protein" points="85,10 102,40 85,70" fill="rgb(255,255,255)" fill-opacity="1.0" stroke="rgb(0,0,0)" stroke-width="2"  />
		</g>
		<g>
			<title> (FCOBMIEG_00519)
Aspartate aminotransferase</title>
			<polygon class=" (FCOBMIEG_00519)
Aspartate aminotransferase" points="103,25 112,25 112,10 142,40 112,70 112,55 103,55" fill="rgb(255,255,255)" fill-opacity="1.0" stroke="rgb(0,0,0)" stroke-width="2"  />
			<g>
				<title>Aminotran_1_2 (PF00155)
"Aminotransferase class I and II"</title>
				<polygon class="PF00155" points="106,28 126,28 138,40 126,52 106,52" stroke-linejoin="round" width="35" height="24" fill="rgb(89,113,198)" stroke="rgb(71,90,158)" stroke-width="1" opacity="0.75" />
			</g>
		</g>
		<g>
			<title>asnS (FCOBMIEG_00520)
Asparagine--tRNA ligase</title>
			<polygon class="asnS (FCOBMIEG_00520)
Asparagine--tRNA ligase" points="144,25 157,25 157,10 187,40 157,70 157,55 144,55" fill="rgb(255,255,255)" fill-opacity="1.0" stroke="rgb(0,0,0)" stroke-width="2"  />
			<g>
				<title>tRNA_anti-codon (PF01336)
"OB-fold nucleic acid binding domain"</title>
				<rect class="PF01336" x="145" y="28" stroke-linejoin="round" width="7" height="24" fill="rgb(215,103,173)" stroke="rgb(172,82,138)" stroke-width="1" opacity="0.75" />
			</g>
			<g>
				<title>tRNA-synt_2 (PF00152)
"tRNA synthetases class II (D, K and N)"</title>
				<polygon class="PF00152" points="154,28 170,28 182,40 170,52 154,52" stroke-linejoin="round" width="31" height="24" fill="rgb(90,71,190)" stroke="rgb(72,56,152)" stroke-width="1" opacity="0.75" />
			</g>
		</g>
		<g>
			<title>dnaD (FCOBMIEG_00521)
DNA replication protein DnaD</title>
			<polygon class="dnaD (FCOBMIEG_00521)
DNA replication protein DnaD" points="189,10 212,40 189,70" fill="rgb(255,255,255)" fill-opacity="1.0" stroke="rgb(0,0,0)" stroke-width="2"  />
			<g>
				<title>DnaB_2 (PF07261)
"Replication initiation and membrane attachment"</title>
				<polygon class="PF07261" points="201,31 208,40 208,40 201,49" stroke-linejoin="round" width="7" height="24" fill="rgb(136,193,85)" stroke="rgb(108,154,68)" stroke-width="1" opacity="0.75" />
			</g>
		</g>
		<g>
			<title>nth (FCOBMIEG_00522)
Endonuclease III</title>
			<polygon class="nth (FCOBMIEG_00522)
Endonuclease III" points="213,10 235,40 213,70" fill="rgb(255,255,255)" fill-opacity="1.0" stroke="rgb(0,0,0)" stroke-width="2"  />
			<g>
				<title>HhH-GPD (PF00730)
"HhH-GPD superfamily base excision DNA repair protein"</title>
				<polygon class="PF00730" points="216,28 222,28 229,37 229,43 222,52 216,52" stroke-linejoin="round" width="13" height="24" fill="rgb(190,78,115)" stroke="rgb(152,62,92)" stroke-width="1" opacity="0.75" />
			</g>
		</g>
		<g>
			<title>ponA (FCOBMIEG_00523)
Penicillin-binding protein 1A/1B</title>
			<polygon class="ponA (FCOBMIEG_00523)
Penicillin-binding protein 1A/1B" points="324,25 266,25 266,10 236,40 266,70 266,55 324,55" fill="rgb(255,255,255)" fill-opacity="1.0" stroke="rgb(0,0,0)" stroke-width="2"  />
			<g>
				<title>fn3 (PF00041)
"Fibronectin type III domain"</title>
				<polygon class="PF00041" points="248,32 252,28 255,28 255,52 252,52 248,48" stroke-linejoin="round" width="7" height="24" fill="rgb(203,70,135)" stroke="rgb(162,56,107)" stroke-width="1" opacity="0.75" />
			</g>
			<g>
				<title>Transpeptidase (PF00905)
"Penicillin binding protein transpeptidase domain"</title>
				<rect class="PF00905" x="262" y="28" stroke-linejoin="round" width="27" height="24" fill="rgb(161,226,87)" stroke="rgb(128,180,69)" stroke-width="1" opacity="0.75" />
			</g>
			<g>
				<title>Transgly (PF00912)
"Transglycosylase"</title>
				<rect class="PF00912" x="299" y="28" stroke-linejoin="round" width="17" height="24" fill="rgb(172,107,216)" stroke="rgb(137,85,172)" stroke-width="1" opacity="0.75" />
			</g>
		</g>
		<g>
			<title>recU (FCOBMIEG_00524)
Holliday junction resolvase RecU</title>
			<polygon class="recU (FCOBMIEG_00524)
Holliday junction resolvase RecU" points="326,40 345,10 345,70" fill="rgb(255,255,255)" fill-opacity="1.0" stroke="rgb(0,0,0)" stroke-width="2"  />
			<g>
				<title>RecU (PF03838)
"Recombination protein U"</title>
				<polygon class="PF03838" points="330,40 338,28 342,28 342,52 338,52" stroke-linejoin="round" width="16" height="24" fill="rgb(93,204,83)" stroke="rgb(74,163,66)" stroke-width="1" opacity="0.75" />
			</g>
		</g>
		<g>
			<title>racA (FCOBMIEG_00525)
Chromosome-anchoring protein RacA</title>
			<polygon class="racA (FCOBMIEG_00525)
Chromosome-anchoring protein RacA" points="362,10 370,40 362,70" fill="rgb(255,255,255)" fill-opacity="1.0" stroke="rgb(0,0,0)" stroke-width="2"  />
		</g>
		<g>
			<title> (FCOBMIEG_00526)
hypothetical protein</title>
			<polygon class=" (FCOBMIEG_00526)
hypothetical protein" points="373,10 385,40 373,70" fill="rgb(255,255,255)" fill-opacity="1.0" stroke="rgb(0,0,0)" stroke-width="2"  />
			<g>
				<title>DUF1798 (PF08807)
"Bacterial domain of unknown function (DUF1798)"</title>
				<polygon class="PF08807" points="373,28 376,28 382,40 376,52 373,52" stroke-linejoin="round" width="10" height="24" fill="rgb(153,201,81)" stroke="rgb(122,160,64)" stroke-width="1" opacity="0.75" />
			</g>
		</g>
		<g>
			<title>swrC_1 (FCOBMIEG_00527)
Swarming motility protein SwrC</title>
			<polygon class="swrC_1 (FCOBMIEG_00527)
Swarming motility protein SwrC" points="487,25 415,25 415,10 385,40 415,70 415,55 487,55" fill="rgb(255,255,255)" fill-opacity="1.0" stroke="rgb(0,0,0)" stroke-width="2"  />
			<g>
				<title>ACR_tran (PF00873)
"AcrB/AcrD/AcrF family"</title>
				<polygon class="PF00873" points="389,40 401,28 487,28 487,52 401,52" stroke-linejoin="round" width="101" height="24" fill="rgb(63,191,60)" stroke="rgb(50,152,48)" stroke-width="1" opacity="0.75" />
			</g>
		</g>
		<g>
			<title>cdd (FCOBMIEG_00528)
Cytidine deaminase</title>
			<polygon class="cdd (FCOBMIEG_00528)
Cytidine deaminase" points="493,10 506,40 493,70" fill="rgb(255,255,255)" fill-opacity="1.0" stroke="rgb(0,0,0)" stroke-width="2"  />
			<g>
				<title>dCMP_cyt_deam_1 (PF00383)
"Cytidine and deoxycytidylate deaminase zinc-binding region"</title>
				<polygon class="PF00383" points="493,28 497,28 503,40 503,40 497,52 493,52" stroke-linejoin="round" width="10" height="24" fill="rgb(91,149,216)" stroke="rgb(72,119,172)" stroke-width="1" opacity="0.75" />
			</g>
		</g>
		<g>
			<title> (FCOBMIEG_00529)
hypothetical protein</title>
			<polygon class=" (FCOBMIEG_00529)
hypothetical protein" points="510,10 528,40 510,70" fill="rgb(255,255,255)" fill-opacity="1.0" stroke="rgb(0,0,0)" stroke-width="2"  />
			<g>
				<title>YpsA (PF06908)
"YspA SLOG family"</title>
				<polygon class="PF06908" points="510,28 517,28 525,40 517,52 510,52" stroke-linejoin="round" width="16" height="24" fill="rgb(136,100,209)" stroke="rgb(108,80,167)" stroke-width="1" opacity="0.75" />
			</g>
		</g>
		<g>
			<title>gpsB (FCOBMIEG_00530)
Cell cycle protein GpsB</title>
			<polygon class="gpsB (FCOBMIEG_00530)
Cell cycle protein GpsB" points="532,10 542,40 532,70" fill="rgb(255,255,255)" fill-opacity="1.0" stroke="rgb(0,0,0)" stroke-width="2"  />
			<g>
				<title>DivIVA (PF05103)
"DivIVA protein"</title>
				<polygon class="PF05103" points="532,28 534,28 538,36 538,44 534,52 532,52" stroke-linejoin="round" width="6" height="24" fill="rgb(213,106,117)" stroke="rgb(170,84,93)" stroke-width="1" opacity="0.75" />
			</g>
		</g>
		<g>
			<title>rlmL (FCOBMIEG_00531)
Ribosomal RNA large subunit methyltransferase L</title>
			<polygon class="rlmL (FCOBMIEG_00531)
Ribosomal RNA large subunit methyltransferase L" points="563,25 570,25 570,10 600,40 570,70 570,55 563,55" fill="rgb(255,255,255)" fill-opacity="1.0" stroke="rgb(0,0,0)" stroke-width="2"  />
			<g>
				<title>THUMP (PF02926)
"THUMP domain"</title>
				<rect class="PF02926" x="564" y="28" stroke-linejoin="round" width="14" height="24" fill="rgb(52,209,163)" stroke="rgb(41,167,130)" stroke-width="1" opacity="0.75" />
			</g>
			<g>
				<title>UPF0020 (PF01170)
"Putative RNA methylase family UPF0020"</title>
				<polygon class="PF01170" points="579,28 584,28 596,40 584,52 579,52" stroke-linejoin="round" width="20" height="24" fill="rgb(89,182,69)" stroke="rgb(71,145,55)" stroke-width="1" opacity="0.75" />
			</g>
		</g>
		<g>
			<title>ypwA (FCOBMIEG_00532)
Carboxypeptidase 1</title>
			<polygon class="ypwA (FCOBMIEG_00532)
Carboxypeptidase 1" points="601,25 620,25 620,10 650,40 620,70 620,55 601,55" fill="rgb(255,255,255)" fill-opacity="1.0" stroke="rgb(0,0,0)" stroke-width="2"  />
			<g>
				<title>Peptidase_M32 (PF02074)
"Carboxypeptidase Taq (M32) metallopeptidase"</title>
				<polygon class="PF02074" points="601,28 634,28 646,40 634,52 601,52" stroke-linejoin="round" width="48" height="24" fill="rgb(213,142,93)" stroke="rgb(170,113,74)" stroke-width="1" opacity="0.75" />
			</g>
		</g>
		<g>
			<title> (FCOBMIEG_00533)
hypothetical protein</title>
			<polygon class=" (FCOBMIEG_00533)
hypothetical protein" points="656,40 669,10 669,70" fill="rgb(255,255,255)" fill-opacity="1.0" stroke="rgb(0,0,0)" stroke-width="2"  />
		</g>
		<g>
			<title> (FCOBMIEG_00534)
Alpha-pyrone synthesis polyketide synthase-like Pks11</title>
			<polygon class=" (FCOBMIEG_00534)
Alpha-pyrone synthesis polyketide synthase-like Pks11" points="676,25 682,25 682,10 712,40 682,70 682,55 676,55" fill="rgb(255,255,255)" fill-opacity="1.0" stroke="rgb(0,0,0)" stroke-width="2"  />
			<g>
				<title>Chal_sti_synt_N (PF00195)
"Chalcone and stilbene synthases, N-terminal domain"</title>
				<polygon class="PF00195" points="676,28 695,28 696,29 696,51 695,52 676,52" stroke-linejoin="round" width="20" height="24" fill="rgb(60,181,161)" stroke="rgb(47,144,128)" stroke-width="1" opacity="0.75" />
			</g>
		</g>
		<g>
			<title> (FCOBMIEG_00535)
hypothetical protein</title>
			<polygon class=" (FCOBMIEG_00535)
hypothetical protein" points="712,10 728,40 712,70" fill="rgb(255,255,255)" fill-opacity="1.0" stroke="rgb(0,0,0)" stroke-width="2"  />
			<g>
				<title>ICMT (PF04140)
"Isoprenylcysteine carboxyl methyltransferase (ICMT) family"</title>
				<polygon class="PF04140" points="719,29 725,40 719,51" stroke-linejoin="round" width="9" height="24" fill="rgb(100,223,104)" stroke="rgb(80,178,83)" stroke-width="1" opacity="0.75" />
			</g>
		</g>
		<g>
			<title> (FCOBMIEG_00536)
hypothetical protein</title>
			<polygon class=" (FCOBMIEG_00536)
hypothetical protein" points="733,10 743,40 733,70" fill="rgb(255,255,255)" fill-opacity="1.0" stroke="rgb(0,0,0)" stroke-width="2"  />
		</g>
		<g>
			<title>rnhA (FCOBMIEG_00537)
14.7 kDa ribonuclease H-like protein</title>
			<polygon class="rnhA (FCOBMIEG_00537)
14.7 kDa ribonuclease H-like protein" points="744,40 756,10 756,70" fill="rgb(255,255,255)" fill-opacity="1.0" stroke="rgb(0,0,0)" stroke-width="2"  />
			<g>
				<title>RNase_H (PF00075)
"RNase H"</title>
				<polygon class="PF00075" points="747,40 752,28 756,28 756,52 752,52" stroke-linejoin="round" width="12" height="24" fill="rgb(225,86,224)" stroke="rgb(180,68,179)" stroke-width="1" opacity="0.75" />
			</g>
		</g>
		<g>
			<title> (FCOBMIEG_00538)
queuosine precursor transporter</title>
			<polygon class=" (FCOBMIEG_00538)
queuosine precursor transporter" points="757,40 779,10 779,70" fill="rgb(255,255,255)" fill-opacity="1.0" stroke="rgb(0,0,0)" stroke-width="2"  />
			<g>
				<title>Vut_1 (PF02592)
"Putative vitamin uptake transporter"</title>
				<polygon class="PF02592" points="761,40 770,28 773,28 773,52 770,52" stroke-linejoin="round" width="16" height="24" fill="rgb(93,184,75)" stroke="rgb(74,147,60)" stroke-width="1" opacity="0.75" />
			</g>
		</g>
		<g>
			<title>fhs (FCOBMIEG_00539)
Formate--tetrahydrofolate ligase</title>
			<polygon class="fhs (FCOBMIEG_00539)
Formate--tetrahydrofolate ligase" points="785,25 810,25 810,10 840,40 810,70 810,55 785,55" fill="rgb(255,255,255)" fill-opacity="1.0" stroke="rgb(0,0,0)" stroke-width="2"  />
			<g>
				<title>FTHFS (PF01268)
"Formate--tetrahydrofolate ligase"</title>
				<polygon class="PF01268" points="785,28 824,28 836,40 824,52 785,52" stroke-linejoin="round" width="55" height="24" fill="rgb(215,182,81)" stroke="rgb(172,145,64)" stroke-width="1" opacity="0.75" />
			</g>
		</g>
		<g>
			<title> (FCOBMIEG_00540)
hypothetical protein</title>
			<polygon class=" (FCOBMIEG_00540)
hypothetical protein" points="843,10 871,40 843,70" fill="rgb(255,255,255)" fill-opacity="1.0" stroke="rgb(0,0,0)" stroke-width="2"  />
			<g>
				<title>DUF72 (PF01904)
"Protein of unknown function DUF72"</title>
				<polygon class="PF01904" points="844,28 855,28 867,40 855,52 844,52" stroke-linejoin="round" width="24" height="24" fill="rgb(63,151,204)" stroke="rgb(50,120,163)" stroke-width="1" opacity="0.75" />
			</g>
		</g>
		<g>
			<title>yedJ (FCOBMIEG_00541)
putative protein YedJ</title>
			<polygon class="yedJ (FCOBMIEG_00541)
putative protein YedJ" points="872,10 892,40 872,70" fill="rgb(255,255,255)" fill-opacity="1.0" stroke="rgb(0,0,0)" stroke-width="2"  />
			<g>
				<title>HD (PF01966)
"HD domain"</title>
				<polygon class="PF01966" points="874,28 881,28 883,32 883,48 881,52 874,52" stroke-linejoin="round" width="9" height="24" fill="rgb(92,193,119)" stroke="rgb(73,154,95)" stroke-width="1" opacity="0.75" />
			</g>
		</g>
		<g>
			<title>thyA (FCOBMIEG_00542)
Thymidylate synthase</title>
			<polygon class="thyA (FCOBMIEG_00542)
Thymidylate synthase" points="892,25 893,25 893,10 923,40 893,70 893,55 892,55" fill="rgb(255,255,255)" fill-opacity="1.0" stroke="rgb(0,0,0)" stroke-width="2"  />
			<g>
				<title>Thymidylat_synt (PF00303)
"Thymidylate synthase"</title>
				<polygon class="PF00303" points="892,28 907,28 919,40 907,52 892,52" stroke-linejoin="round" width="31" height="24" fill="rgb(103,91,191)" stroke="rgb(82,72,152)" stroke-width="1" opacity="0.75" />
			</g>
		</g>
		<g>
			<title>dfrA (FCOBMIEG_00543)
Dihydrofolate reductase</title>
			<polygon class="dfrA (FCOBMIEG_00543)
Dihydrofolate reductase" points="925,10 941,40 925,70" fill="rgb(255,255,255)" fill-opacity="1.0" stroke="rgb(0,0,0)" stroke-width="2"  />
			<g>
				<title>DHFR_1 (PF00186)
"Dihydrofolate reductase"</title>
				<polygon class="PF00186" points="925,28 931,28 938,40 931,52 925,52" stroke-linejoin="round" width="16" height="24" fill="rgb(150,188,63)" stroke="rgb(119,150,50)" stroke-width="1" opacity="0.75" />
			</g>
		</g>
		<g>
			<title>mobA (FCOBMIEG_00544)
putative molybdenum cofactor guanylyltransferase</title>
			<polygon class="mobA (FCOBMIEG_00544)
putative molybdenum cofactor guanylyltransferase" points="941,10 960,40 941,70" fill="rgb(255,255,255)" fill-opacity="1.0" stroke="rgb(0,0,0)" stroke-width="2"  />
			<g>
				<title>NTP_transf_3 (PF12804)
"MobA-like NTP transferase domain"</title>
				<polygon class="PF12804" points="941,28 949,28 956,39 956,41 949,52 941,52" stroke-linejoin="round" width="15" height="24" fill="rgb(52,209,196)" stroke="rgb(41,167,156)" stroke-width="1" opacity="0.75" />
			</g>
		</g>
		<g>
			<title>tatA (FCOBMIEG_00545)
Sec-independent protein translocase protein TatA</title>
			<polygon class="tatA (FCOBMIEG_00545)
Sec-independent protein translocase protein TatA" points="965,10 972,40 965,70" fill="rgb(255,255,255)" fill-opacity="1.0" stroke="rgb(0,0,0)" stroke-width="2"  />
			<g>
				<title>MttA_Hcf106 (PF02416)
"mttA/Hcf106 family"</title>
				<polygon class="PF02416" points="965,28 965,28 969,40 965,52 965,52" stroke-linejoin="round" width="6" height="24" fill="rgb(74,206,98)" stroke="rgb(59,164,78)" stroke-width="1" opacity="0.75" />
			</g>
		</g>
		<g>
			<title>tatAd_1 (FCOBMIEG_00546)
Sec-independent protein translocase protein TatAd</title>
			<polygon class="tatAd_1 (FCOBMIEG_00546)
Sec-independent protein translocase protein TatAd" points="972,10 978,40 972,70" fill="rgb(255,255,255)" fill-opacity="1.0" stroke="rgb(0,0,0)" stroke-width="2"  />
			<g>
				<title>MttA_Hcf106 (PF02416)
"mttA/Hcf106 family"</title>
				<polygon class="PF02416" points="972,28 972,28 975,40 972,52 972,52" stroke-linejoin="round" width="5" height="24" fill="rgb(74,206,98)" stroke="rgb(59,164,78)" stroke-width="1" opacity="0.75" />
			</g>
		</g>
		<g>
			<title>tatC1_1 (FCOBMIEG_00547)
Sec-independent protein translocase protein TatCd</title>
			<polygon class="tatC1_1 (FCOBMIEG_00547)
Sec-independent protein translocase protein TatCd" points="981,10 1006,40 981,70" fill="rgb(255,255,255)" fill-opacity="1.0" stroke="rgb(0,0,0)" stroke-width="2"  />
			<g>
				<title>TatC (PF00902)
"Sec-independent protein translocase protein (TatC)"</title>
				<polygon class="PF00902" points="982,28 992,28 1002,40 1002,40 992,52 982,52" stroke-linejoin="round" width="20" height="24" fill="rgb(84,193,209)" stroke="rgb(67,154,167)" stroke-width="1" opacity="0.75" />
			</g>
		</g>
		<g>
			<title> (FCOBMIEG_00548)
hypothetical protein</title>
			<polygon class=" (FCOBMIEG_00548)
hypothetical protein" points="1009,10 1016,40 1009,70" fill="rgb(255,255,255)" fill-opacity="1.0" stroke="rgb(0,0,0)" stroke-width="2"  />
			<g>
				<title>YozE_SAM_like (PF06855)
"YozE SAM-like fold"</title>
				<polygon class="PF06855" points="1009,28 1009,28 1013,40 1009,52 1009,52" stroke-linejoin="round" width="6" height="24" fill="rgb(83,201,171)" stroke="rgb(66,160,136)" stroke-width="1" opacity="0.75" />
			</g>
		</g>
		<g>
			<title>sbcD (FCOBMIEG_00549)
Nuclease SbcCD subunit D</title>
			<polygon class="sbcD (FCOBMIEG_00549)
Nuclease SbcCD subunit D" points="1020,25 1028,25 1028,10 1058,40 1028,70 1028,55 1020,55" fill="rgb(255,255,255)" fill-opacity="1.0" stroke="rgb(0,0,0)" stroke-width="2"  />
			<g>
				<title>Metallophos (PF00149)
"Calcineurin-like phosphoesterase"</title>
				<rect class="PF00149" x="1020" y="28" stroke-linejoin="round" width="21" height="24" fill="rgb(181,197,58)" stroke="rgb(144,157,46)" stroke-width="1" opacity="0.75" />
			</g>
			<g>
				<title>SbcD_C (PF12320)
"Type 5 capsule protein repressor C-terminal domain"</title>
				<polygon class="PF12320" points="1046,32 1054,40 1046,48" stroke-linejoin="round" width="9" height="24" fill="rgb(182,136,65)" stroke="rgb(145,108,52)" stroke-width="1" opacity="0.75" />
			</g>
		</g>
		<g>
			<title>sbcC (FCOBMIEG_00550)
Nuclease SbcCD subunit C</title>
			<polygon class="sbcC (FCOBMIEG_00550)
Nuclease SbcCD subunit C" points="1059,25 1132,25 1132,10 1162,40 1132,70 1132,55 1059,55" fill="rgb(255,255,255)" fill-opacity="1.0" stroke="rgb(0,0,0)" stroke-width="2"  />
			<g>
				<title>AAA_23 (PF13476)
"AAA domain"</title>
				<rect class="PF13476" x="1059" y="28" stroke-linejoin="round" width="37" height="24" fill="rgb(57,185,214)" stroke="rgb(45,147,171)" stroke-width="1" opacity="0.75" />
			</g>
			<g>
				<title>SbcCD_C (PF13558)
"Putative exonuclease SbcCD, C subunit"</title>
				<polygon class="PF13558" points="1150,32 1158,40 1158,40 1150,48" stroke-linejoin="round" width="8" height="24" fill="rgb(84,179,84)" stroke="rgb(67,143,67)" stroke-width="1" opacity="0.75" />
			</g>
		</g>
		<g>
			<title>ytmB (FCOBMIEG_00551)
putative protein YtmB</title>
			<polygon class="ytmB (FCOBMIEG_00551)
putative protein YtmB" points="1163,10 1171,40 1163,70" fill="rgb(255,255,255)" fill-opacity="1.0" stroke="rgb(0,0,0)" stroke-width="2"  />
			<g>
				<title>DUF2584 (PF10763)
"Protein of unknown function (DUF2584)"</title>
				<polygon class="PF10763" points="1163,28 1164,28 1168,40 1164,52 1163,52" stroke-linejoin="round" width="8" height="24" fill="rgb(118,211,56)" stroke="rgb(94,168,44)" stroke-width="1" opacity="0.75" />
			</g>
		</g>
		<g>
			<title>ung (FCOBMIEG_00552)
Uracil-DNA glycosylase</title>
			<polygon class="ung (FCOBMIEG_00552)
Uracil-DNA glycosylase" points="1175,10 1197,40 1175,70" fill="rgb(255,255,255)" fill-opacity="1.0" stroke="rgb(0,0,0)" stroke-width="2"  />
			<g>
				<title>UDG (PF03167)
"Uracil DNA glycosylase superfamily"</title>
				<polygon class="PF03167" points="1180,28 1185,28 1193,40 1185,52 1180,52" stroke-linejoin="round" width="16" height="24" fill="rgb(64,224,60)" stroke="rgb(51,179,48)" stroke-width="1" opacity="0.75" />
			</g>
		</g>
		<g>
			<title> (FCOBMIEG_00553)
hypothetical protein</title>
			<polygon class=" (FCOBMIEG_00553)
hypothetical protein" points="1200,10 1217,40 1200,70" fill="rgb(255,255,255)" fill-opacity="1.0" stroke="rgb(0,0,0)" stroke-width="2"  />
			<g>
				<title>YqfQ (PF14181)
"YqfQ-like protein"</title>
				<polygon class="PF14181" points="1203,28 1207,28 1214,40 1207,52 1203,52" stroke-linejoin="round" width="14" height="24" fill="rgb(207,119,57)" stroke="rgb(165,95,45)" stroke-width="1" opacity="0.75" />
			</g>
		</g>
		<g>
			<title>msrB_2 (FCOBMIEG_00554)
Peptide methionine sulfoxide reductase MsrB</title>
			<polygon class="msrB_2 (FCOBMIEG_00554)
Peptide methionine sulfoxide reductase MsrB" points="1220,25 1222,25 1222,10 1252,40 1222,70 1222,55 1220,55" fill="rgb(255,255,255)" fill-opacity="1.0" stroke="rgb(0,0,0)" stroke-width="2"  />
			<g>
				<title>PMSR (PF01625)
"Peptide methionine sulfoxide reductase"</title>
				<rect class="PF01625" x="1220" y="28" stroke-linejoin="round" width="15" height="24" fill="rgb(201,74,176)" stroke="rgb(160,59,140)" stroke-width="1" opacity="0.75" />
			</g>
			<g>
				<title>SelR (PF01641)
"SelR domain"</title>
				<polygon class="PF01641" points="1238,31 1247,40 1238,49" stroke-linejoin="round" width="12" height="24" fill="rgb(192,99,202)" stroke="rgb(153,79,161)" stroke-width="1" opacity="0.75" />
			</g>
		</g>
		<g>
			<title>betI_1 (FCOBMIEG_00555)
HTH-type transcriptional regulator BetI</title>
			<polygon class="betI_1 (FCOBMIEG_00555)
HTH-type transcriptional regulator BetI" points="1272,10 1291,40 1272,70" fill="rgb(255,255,255)" fill-opacity="1.0" stroke="rgb(0,0,0)" stroke-width="2"  />
			<g>
				<title>TetR_N (PF00440)
"Bacterial regulatory proteins, tetR family"</title>
				<rect class="PF00440" x="1273" y="28" stroke-linejoin="round" width="4" height="24" fill="rgb(73,212,190)" stroke="rgb(58,169,152)" stroke-width="1" opacity="0.75" />
			</g>
		</g>
		<g>
			<title> (FCOBMIEG_00556)
hypothetical protein</title>
			<polygon class=" (FCOBMIEG_00556)
hypothetical protein" points="1292,40 1314,10 1314,70" fill="rgb(255,255,255)" fill-opacity="1.0" stroke="rgb(0,0,0)" stroke-width="2"  />
			<g>
				<title>Acetyltransf_1 (PF00583)
"Acetyltransferase (GNAT) family"</title>
				<polygon class="PF00583" points="1298,37 1305,28 1311,28 1311,52 1305,52 1298,43" stroke-linejoin="round" width="13" height="24" fill="rgb(121,183,50)" stroke="rgb(96,146,39)" stroke-width="1" opacity="0.75" />
			</g>
		</g>
		<g>
			<title>mhqD (FCOBMIEG_00557)
Putative hydrolase MhqD</title>
			<polygon class="mhqD (FCOBMIEG_00557)
Putative hydrolase MhqD" points="1320,10 1340,40 1320,70" fill="rgb(255,255,255)" fill-opacity="1.0" stroke="rgb(0,0,0)" stroke-width="2"  />
			<g>
				<title>DLH (PF01738)
"Dienelactone hydrolase family"</title>
				<polygon class="PF01738" points="1325,28 1328,28 1336,40 1328,52 1325,52" stroke-linejoin="round" width="14" height="24" fill="rgb(188,185,48)" stroke="rgb(150,147,38)" stroke-width="1" opacity="0.75" />
			</g>
		</g>
		<g>
			<title> (FCOBMIEG_00558)
hypothetical protein</title>
			<polygon class=" (FCOBMIEG_00558)
hypothetical protein" points="1342,10 1348,40 1342,70" fill="rgb(255,255,255)" fill-opacity="1.0" stroke="rgb(0,0,0)" stroke-width="2"  />
		</g>
		<g>
			<title> (FCOBMIEG_00559)
hypothetical protein</title>
			<polygon class=" (FCOBMIEG_00559)
hypothetical protein" points="1354,10 1372,40 1354,70" fill="rgb(255,255,255)" fill-opacity="1.0" stroke="rgb(0,0,0)" stroke-width="2"  />
			<g>
				<title>His_Phos_1 (PF00300)
"Histidine phosphatase superfamily (branch 1)"</title>
				<polygon class="PF00300" points="1354,28 1361,28 1368,40 1361,52 1354,52" stroke-linejoin="round" width="17" height="24" fill="rgb(135,184,63)" stroke="rgb(107,147,50)" stroke-width="1" opacity="0.75" />
			</g>
		</g>
	</g>
</svg>
