<svg version="1.1" baseProfile="full" xmlns="http://www.w3.org/2000/svg" width="633.9" height="80">
	<g>
		<line x1="10" y1="40.0" x2="623.9" y2="40.0" style="stroke:rgb(70,70,70); stroke-width:3 "/>
		<g>
			<title>glmU_2 (MEJGHCBM_00993)
Bifunctional protein GlmU</title>
			<polygon class="glmU_2 (MEJGHCBM_00993)
Bifunctional protein GlmU" points="10,25 34,25 34,10 64,40 34,70 34,55 10,55" fill="rgb(255,255,255)" fill-opacity="1.0" stroke="rgb(0,0,0)" stroke-width="2"  />
			<g>
				<title>NTP_transf_3 (PF12804)
"MobA-like NTP transferase domain"</title>
				<rect class="PF12804" x="10" y="28" stroke-linejoin="round" width="16" height="24" fill="rgb(52,209,196)" stroke="rgb(41,167,156)" stroke-width="1" opacity="0.75" />
			</g>
		</g>
		<g>
			<title> (MEJGHCBM_00994)
Arabinogalactan biosynthesis recruiting protein</title>
			<polygon class=" (MEJGHCBM_00994)
Arabinogalactan biosynthesis recruiting protein" points="64,10 77,40 64,70" fill="rgb(255,255,255)" fill-opacity="1.0" stroke="rgb(0,0,0)" stroke-width="2"  />
			<g>
				<title>GtrA (PF04138)
"GtrA-like protein"</title>
				<polygon class="PF04138" points="65,28 68,28 73,40 68,52 65,52" stroke-linejoin="round" width="11" height="24" fill="rgb(72,221,86)" stroke="rgb(57,176,68)" stroke-width="1" opacity="0.75" />
			</g>
		</g>
		<g>
			<title>arnC (MEJGHCBM_00995)
Undecaprenyl-phosphate 4-deoxy-4-formamido-L-arabinose transferase</title>
			<polygon class="arnC (MEJGHCBM_00995)
Undecaprenyl-phosphate 4-deoxy-4-formamido-L-arabinose transferase" points="77,10 100,40 77,70" fill="rgb(255,255,255)" fill-opacity="1.0" stroke="rgb(0,0,0)" stroke-width="2"  />
			<g>
				<title>Glycos_transf_2 (PF00535)
"Glycosyl transferase family 2"</title>
				<polygon class="PF00535" points="77,28 87,28 93,36 93,44 87,52 77,52" stroke-linejoin="round" width="16" height="24" fill="rgb(224,122,96)" stroke="rgb(179,97,76)" stroke-width="1" opacity="0.75" />
			</g>
		</g>
		<g>
			<title> (MEJGHCBM_00996)
hypothetical protein</title>
			<polygon class=" (MEJGHCBM_00996)
hypothetical protein" points="100,10 121,40 100,70" fill="rgb(255,255,255)" fill-opacity="1.0" stroke="rgb(0,0,0)" stroke-width="2"  />
		</g>
		<g>
			<title> (MEJGHCBM_00997)
hypothetical protein</title>
			<polygon class=" (MEJGHCBM_00997)
hypothetical protein" points="120,25 148,25 148,10 178,40 148,70 148,55 120,55" fill="rgb(255,255,255)" fill-opacity="1.0" stroke="rgb(0,0,0)" stroke-width="2"  />
		</g>
		<g>
			<title> (MEJGHCBM_00998)
hypothetical protein</title>
			<polygon class=" (MEJGHCBM_00998)
hypothetical protein" points="185,25 223,25 223,10 253,40 223,70 223,55 185,55" fill="rgb(255,255,255)" fill-opacity="1.0" stroke="rgb(0,0,0)" stroke-width="2"  />
		</g>
		<g>
			<title>hepA (MEJGHCBM_00999)
Heterocyst differentiation ATP-binding protein HepA</title>
			<polygon class="hepA (MEJGHCBM_00999)
Heterocyst differentiation ATP-binding protein HepA" points="266,10 280,40 266,70" fill="rgb(255,255,255)" fill-opacity="1.0" stroke="rgb(0,0,0)" stroke-width="2"  />
			<g>
				<title>ABC_tran (PF00005)
"ABC transporter"</title>
				<polygon class="PF00005" points="266,28 270,28 272,30 272,50 270,52 266,52" stroke-linejoin="round" width="6" height="24" fill="rgb(129,201,63)" stroke="rgb(103,160,50)" stroke-width="1" opacity="0.75" />
			</g>
		</g>
		<g>
			<title> (MEJGHCBM_01000)
hypothetical protein</title>
			<polygon class=" (MEJGHCBM_01000)
hypothetical protein" points="282,10 287,40 282,70" fill="rgb(255,255,255)" fill-opacity="1.0" stroke="rgb(0,0,0)" stroke-width="2"  />
		</g>
		<g>
			<title> (MEJGHCBM_01001)
hypothetical protein</title>
			<polygon class=" (MEJGHCBM_01001)
hypothetical protein" points="289,10 314,40 289,70" fill="rgb(255,255,255)" fill-opacity="1.0" stroke="rgb(0,0,0)" stroke-width="2"  />
		</g>
		<g>
			<title> (MEJGHCBM_01002)
hypothetical protein</title>
			<polygon class=" (MEJGHCBM_01002)
hypothetical protein" points="315,10 323,40 315,70" fill="rgb(255,255,255)" fill-opacity="1.0" stroke="rgb(0,0,0)" stroke-width="2"  />
			<g>
				<title>PqqD (PF05402)
"Coenzyme PQQ synthesis protein D (PqqD)"</title>
				<polygon class="PF05402" points="316,28 316,28 320,40 316,52 316,52" stroke-linejoin="round" width="6" height="24" fill="rgb(124,62,188)" stroke="rgb(99,49,150)" stroke-width="1" opacity="0.75" />
			</g>
		</g>
		<g>
			<title> (MEJGHCBM_01003)
hypothetical protein</title>
			<polygon class=" (MEJGHCBM_01003)
hypothetical protein" points="326,10 337,40 326,70" fill="rgb(255,255,255)" fill-opacity="1.0" stroke="rgb(0,0,0)" stroke-width="2"  />
		</g>
		<g>
			<title> (MEJGHCBM_01004)
Putative multidrug export ATP-binding/permease protein</title>
			<polygon class=" (MEJGHCBM_01004)
Putative multidrug export ATP-binding/permease protein" points="339,25 369,25 369,10 399,40 369,70 369,55 339,55" fill="rgb(255,255,255)" fill-opacity="1.0" stroke="rgb(0,0,0)" stroke-width="2"  />
			<g>
				<title>ABC_membrane (PF00664)
"ABC transporter transmembrane region"</title>
				<rect class="PF00664" x="342" y="28" stroke-linejoin="round" width="27" height="24" fill="rgb(149,226,73)" stroke="rgb(119,180,58)" stroke-width="1" opacity="0.75" />
			</g>
			<g>
				<title>ABC_tran (PF00005)
"ABC transporter"</title>
				<polygon class="PF00005" points="375,28 383,28 390,35 390,45 383,52 375,52" stroke-linejoin="round" width="15" height="24" fill="rgb(129,201,63)" stroke="rgb(103,160,50)" stroke-width="1" opacity="0.75" />
			</g>
		</g>
		<g>
			<title> (MEJGHCBM_01005)
hypothetical protein</title>
			<polygon class=" (MEJGHCBM_01005)
hypothetical protein" points="400,25 405,25 405,10 435,40 405,70 405,55 400,55" fill="rgb(255,255,255)" fill-opacity="1.0" stroke="rgb(0,0,0)" stroke-width="2"  />
			<g>
				<title>NTP_transf_5 (PF14907)
"Uncharacterised nucleotidyltransferase"</title>
				<polygon class="PF14907" points="401,28 419,28 425,34 425,46 419,52 401,52" stroke-linejoin="round" width="24" height="24" fill="rgb(191,137,74)" stroke="rgb(152,109,59)" stroke-width="1" opacity="0.75" />
			</g>
		</g>
		<g>
			<title> (MEJGHCBM_01006)
hypothetical protein</title>
			<polygon class=" (MEJGHCBM_01006)
hypothetical protein" points="437,25 440,25 440,10 470,40 440,70 440,55 437,55" fill="rgb(255,255,255)" fill-opacity="1.0" stroke="rgb(0,0,0)" stroke-width="2"  />
			<g>
				<title>Metallophos (PF00149)
"Calcineurin-like phosphoesterase"</title>
				<polygon class="PF00149" points="442,28 453,28 462,37 462,43 453,52 442,52" stroke-linejoin="round" width="20" height="24" fill="rgb(181,197,58)" stroke="rgb(144,157,46)" stroke-width="1" opacity="0.75" />
			</g>
		</g>
		<g>
			<title> (MEJGHCBM_01007)
hypothetical protein</title>
			<polygon class=" (MEJGHCBM_01007)
hypothetical protein" points="483,25 484,25 484,10 514,40 484,70 484,55 483,55" fill="rgb(255,255,255)" fill-opacity="1.0" stroke="rgb(0,0,0)" stroke-width="2"  />
		</g>
		<g>
			<title> (MEJGHCBM_01008)
hypothetical protein</title>
			<polygon class=" (MEJGHCBM_01008)
hypothetical protein" points="514,25 515,25 515,10 545,40 515,70 515,55 514,55" fill="rgb(255,255,255)" fill-opacity="1.0" stroke="rgb(0,0,0)" stroke-width="2"  />
			<g>
				<title>RVT_1 (PF00078)
"Reverse transcriptase (RNA-dependent DNA polymerase)"</title>
				<polygon class="PF00078" points="517,28 529,28 536,35 536,45 529,52 517,52" stroke-linejoin="round" width="19" height="24" fill="rgb(85,219,135)" stroke="rgb(68,175,108)" stroke-width="1" opacity="0.75" />
			</g>
		</g>
		<g>
			<title>idnO_2 (MEJGHCBM_01009)
5-keto-D-gluconate 5-reductase</title>
			<polygon class="idnO_2 (MEJGHCBM_01009)
5-keto-D-gluconate 5-reductase" points="564,10 590,40 564,70" fill="rgb(255,255,255)" fill-opacity="1.0" stroke="rgb(0,0,0)" stroke-width="2"  />
			<g>
				<title>adh_short (PF00106)
"short chain dehydrogenase"</title>
				<polygon class="PF00106" points="564,28 576,28 582,36 582,44 576,52 564,52" stroke-linejoin="round" width="18" height="24" fill="rgb(182,219,73)" stroke="rgb(145,175,58)" stroke-width="1" opacity="0.75" />
			</g>
		</g>
		<g>
			<title> (MEJGHCBM_01010)
hypothetical protein</title>
			<polygon class=" (MEJGHCBM_01010)
hypothetical protein" points="611,10 623,40 611,70" fill="rgb(255,255,255)" fill-opacity="1.0" stroke="rgb(0,0,0)" stroke-width="2"  />
			<g>
				<title>Cupin_2 (PF07883)
"Cupin domain"</title>
				<polygon class="PF07883" points="614,28 614,28 619,40 614,52 614,52" stroke-linejoin="round" width="8" height="24" fill="rgb(211,192,74)" stroke="rgb(168,153,59)" stroke-width="1" opacity="0.75" />
			</g>
		</g>
	</g>
</svg>
