<svg version="1.1" baseProfile="full" xmlns="http://www.w3.org/2000/svg" width="534.6333333333333" height="80">
	<g>
		<line x1="10" y1="40.0" x2="524.6333333333333" y2="40.0" style="stroke:rgb(70,70,70); stroke-width:3 "/>
		<g>
			<title>yfeW (FCCODOLJ_00571)
Putative D-alanyl-D-alanine carboxypeptidase</title>
			<polygon class="yfeW (FCCODOLJ_00571)
Putative D-alanyl-D-alanine carboxypeptidase" points="70,25 44,25 44,10 14,40 44,70 44,55 70,55" fill="rgb(255,255,255)" fill-opacity="1.0" stroke="rgb(0,0,0)" stroke-width="2"  />
			<g>
				<title>Peptidase_M6 (PF05547)
"Immune inhibitor A peptidase M6"</title>
				<polygon class="PF05547" points="18,40 26,32 26,48" stroke-linejoin="round" width="11" height="24" fill="rgb(94,186,68)" stroke="rgb(75,148,54)" stroke-width="1" opacity="0.75" />
			</g>
			<g>
				<title>Beta-lactamase (PF00144)
"Beta-lactamase"</title>
				<polygon class="PF00144" points="27,31 30,28 61,28 61,52 30,52 27,49" stroke-linejoin="round" width="34" height="24" fill="rgb(92,159,200)" stroke="rgb(73,127,160)" stroke-width="1" opacity="0.75" />
			</g>
		</g>
		<g>
			<title>dat_2 (FCCODOLJ_00572)
Diaminobutyrate--2-oxoglutarate aminotransferase</title>
			<polygon class="dat_2 (FCCODOLJ_00572)
Diaminobutyrate--2-oxoglutarate aminotransferase" points="81,25 96,25 96,10 126,40 96,70 96,55 81,55" fill="rgb(255,255,255)" fill-opacity="1.0" stroke="rgb(0,0,0)" stroke-width="2"  />
			<g>
				<title>Aminotran_3 (PF00202)
"Aminotransferase class-III"</title>
				<polygon class="PF00202" points="83,28 109,28 121,40 109,52 83,52" stroke-linejoin="round" width="42" height="24" fill="rgb(49,163,189)" stroke="rgb(39,130,151)" stroke-width="1" opacity="0.75" />
			</g>
		</g>
		<g>
			<title>ddc (FCCODOLJ_00573)
L-2,4-diaminobutyrate decarboxylase</title>
			<polygon class="ddc (FCCODOLJ_00573)
L-2,4-diaminobutyrate decarboxylase" points="126,25 146,25 146,10 176,40 146,70 146,55 126,55" fill="rgb(255,255,255)" fill-opacity="1.0" stroke="rgb(0,0,0)" stroke-width="2"  />
			<g>
				<title>Pyridoxal_deC (PF00282)
"Pyridoxal-dependent decarboxylase conserved domain"</title>
				<polygon class="PF00282" points="131,28 160,28 168,36 168,44 160,52 131,52" stroke-linejoin="round" width="37" height="24" fill="rgb(100,218,166)" stroke="rgb(80,174,132)" stroke-width="1" opacity="0.75" />
			</g>
		</g>
		<g>
			<title>iucA (FCCODOLJ_00574)
N(2)-citryl-N(6)-acetyl-N(6)-hydroxylysine synthase</title>
			<polygon class="iucA (FCCODOLJ_00574)
N(2)-citryl-N(6)-acetyl-N(6)-hydroxylysine synthase" points="176,25 203,25 203,10 233,40 203,70 203,55 176,55" fill="rgb(255,255,255)" fill-opacity="1.0" stroke="rgb(0,0,0)" stroke-width="2"  />
			<g>
				<title>IucA_IucC (PF04183)
"IucA / IucC family"</title>
				<rect class="PF04183" x="189" y="28" stroke-linejoin="round" width="23" height="24" fill="rgb(221,104,121)" stroke="rgb(176,83,96)" stroke-width="1" opacity="0.75" />
			</g>
			<g>
				<title>FhuF (PF06276)
"Ferric iron reductase FhuF-like transporter"</title>
				<polygon class="PF06276" points="215,28 217,28 229,40 217,52 215,52" stroke-linejoin="round" width="15" height="24" fill="rgb(76,151,221)" stroke="rgb(60,120,176)" stroke-width="1" opacity="0.75" />
			</g>
		</g>
		<g>
			<title>iucB (FCCODOLJ_00575)
N(6)-hydroxylysine O-acetyltransferase</title>
			<polygon class="iucB (FCCODOLJ_00575)
N(6)-hydroxylysine O-acetyltransferase" points="234,10 253,40 234,70" fill="rgb(255,255,255)" fill-opacity="1.0" stroke="rgb(0,0,0)" stroke-width="2"  />
			<g>
				<title>Acetyltransf_8 (PF13523)
"Acetyltransferase (GNAT) domain"</title>
				<polygon class="PF13523" points="236,28 242,28 249,40 242,52 236,52" stroke-linejoin="round" width="14" height="24" fill="rgb(106,224,203)" stroke="rgb(84,179,162)" stroke-width="1" opacity="0.75" />
			</g>
		</g>
		<g>
			<title>iucD_1 (FCCODOLJ_00576)
L-lysine N6-monooxygenase</title>
			<polygon class="iucD_1 (FCCODOLJ_00576)
L-lysine N6-monooxygenase" points="252,25 266,25 266,10 296,40 266,70 266,55 252,55" fill="rgb(255,255,255)" fill-opacity="1.0" stroke="rgb(0,0,0)" stroke-width="2"  />
			<g>
				<title>K_oxygenase (PF13434)
"L-lysine 6-monooxygenase (NADPH-requiring)"</title>
				<polygon class="PF13434" points="252,28 280,28 286,34 286,46 280,52 252,52" stroke-linejoin="round" width="34" height="24" fill="rgb(81,213,119)" stroke="rgb(64,170,95)" stroke-width="1" opacity="0.75" />
			</g>
		</g>
		<g>
			<title>iucC (FCCODOLJ_00577)
Aerobactin synthase</title>
			<polygon class="iucC (FCCODOLJ_00577)
Aerobactin synthase" points="297,25 327,25 327,10 357,40 327,70 327,55 297,55" fill="rgb(255,255,255)" fill-opacity="1.0" stroke="rgb(0,0,0)" stroke-width="2"  />
			<g>
				<title>IucA_IucC (PF04183)
"IucA / IucC family"</title>
				<rect class="PF04183" x="310" y="28" stroke-linejoin="round" width="25" height="24" fill="rgb(221,104,121)" stroke="rgb(176,83,96)" stroke-width="1" opacity="0.75" />
			</g>
			<g>
				<title>FhuF (PF06276)
"Ferric iron reductase FhuF-like transporter"</title>
				<polygon class="PF06276" points="338,28 340,28 352,40 340,52 338,52" stroke-linejoin="round" width="16" height="24" fill="rgb(76,151,221)" stroke="rgb(60,120,176)" stroke-width="1" opacity="0.75" />
			</g>
		</g>
		<g>
			<title>lysC_1 (FCCODOLJ_00578)
Aspartokinase</title>
			<polygon class="lysC_1 (FCCODOLJ_00578)
Aspartokinase" points="358,25 368,25 368,10 398,40 368,70 368,55 358,55" fill="rgb(255,255,255)" fill-opacity="1.0" stroke="rgb(0,0,0)" stroke-width="2"  />
			<g>
				<title>AA_kinase (PF00696)
"Amino acid kinase family"</title>
				<rect class="PF00696" x="358" y="28" stroke-linejoin="round" width="22" height="24" fill="rgb(148,78,224)" stroke="rgb(118,62,179)" stroke-width="1" opacity="0.75" />
			</g>
		</g>
		<g>
			<title> (FCCODOLJ_00579)
hypothetical protein</title>
			<polygon class=" (FCCODOLJ_00579)
hypothetical protein" points="404,10 415,40 404,70" fill="rgb(255,255,255)" fill-opacity="1.0" stroke="rgb(0,0,0)" stroke-width="2"  />
		</g>
		<g>
			<title> (FCCODOLJ_00580)
hypothetical protein</title>
			<polygon class=" (FCCODOLJ_00580)
hypothetical protein" points="416,10 424,40 416,70" fill="rgb(255,255,255)" fill-opacity="1.0" stroke="rgb(0,0,0)" stroke-width="2"  />
		</g>
		<g>
			<title> (FCCODOLJ_00581)
hypothetical protein</title>
			<polygon class=" (FCCODOLJ_00581)
hypothetical protein" points="428,10 435,40 428,70" fill="rgb(255,255,255)" fill-opacity="1.0" stroke="rgb(0,0,0)" stroke-width="2"  />
		</g>
		<g>
			<title> (FCCODOLJ_00582)
hypothetical protein</title>
			<polygon class=" (FCCODOLJ_00582)
hypothetical protein" points="444,10 455,40 444,70" fill="rgb(255,255,255)" fill-opacity="1.0" stroke="rgb(0,0,0)" stroke-width="2"  />
		</g>
		<g>
			<title> (FCCODOLJ_00583)
hypothetical protein</title>
			<polygon class=" (FCCODOLJ_00583)
hypothetical protein" points="468,10 484,40 468,70" fill="rgb(255,255,255)" fill-opacity="1.0" stroke="rgb(0,0,0)" stroke-width="2"  />
		</g>
		<g>
			<title> (FCCODOLJ_00584)
hypothetical protein</title>
			<polygon class=" (FCCODOLJ_00584)
hypothetical protein" points="485,10 499,40 485,70" fill="rgb(255,255,255)" fill-opacity="1.0" stroke="rgb(0,0,0)" stroke-width="2"  />
		</g>
		<g>
			<title> (FCCODOLJ_00585)
hypothetical protein</title>
			<polygon class=" (FCCODOLJ_00585)
hypothetical protein" points="504,40 510,10 510,70" fill="rgb(255,255,255)" fill-opacity="1.0" stroke="rgb(0,0,0)" stroke-width="2"  />
		</g>
	</g>
</svg>
