<svg version="1.1" baseProfile="full" xmlns="http://www.w3.org/2000/svg" width="1389.4333333333334" height="80">
	<g>
		<line x1="10" y1="40.0" x2="1379.4333333333334" y2="40.0" style="stroke:rgb(70,70,70); stroke-width:3 "/>
		<g>
			<title> (PMCFELCE_01618)
hypothetical protein</title>
			<polygon class=" (PMCFELCE_01618)
hypothetical protein" points="20,10 25,40 20,70" fill="rgb(255,255,255)" fill-opacity="1.0" stroke="rgb(0,0,0)" stroke-width="2"  />
		</g>
		<g>
			<title> (PMCFELCE_01619)
hypothetical protein</title>
			<polygon class=" (PMCFELCE_01619)
hypothetical protein" points="24,10 41,40 24,70" fill="rgb(255,255,255)" fill-opacity="1.0" stroke="rgb(0,0,0)" stroke-width="2"  />
			<g>
				<title>DUF5590 (PF17881)
"Domain of unknown function (DUF5590)"</title>
				<polygon class="PF17881" points="29,28 31,28 33,31 33,49 31,52 29,52" stroke-linejoin="round" width="4" height="24" fill="rgb(77,212,144)" stroke="rgb(61,169,115)" stroke-width="1" opacity="0.75" />
			</g>
		</g>
		<g>
			<title> (PMCFELCE_01620)
Aspartate aminotransferase</title>
			<polygon class=" (PMCFELCE_01620)
Aspartate aminotransferase" points="42,25 51,25 51,10 81,40 51,70 51,55 42,55" fill="rgb(255,255,255)" fill-opacity="1.0" stroke="rgb(0,0,0)" stroke-width="2"  />
			<g>
				<title>Aminotran_1_2 (PF00155)
"Aminotransferase class I and II"</title>
				<polygon class="PF00155" points="45,28 65,28 77,40 65,52 45,52" stroke-linejoin="round" width="35" height="24" fill="rgb(89,113,198)" stroke="rgb(71,90,158)" stroke-width="1" opacity="0.75" />
			</g>
		</g>
		<g>
			<title>asnS (PMCFELCE_01621)
Asparagine--tRNA ligase</title>
			<polygon class="asnS (PMCFELCE_01621)
Asparagine--tRNA ligase" points="83,25 96,25 96,10 126,40 96,70 96,55 83,55" fill="rgb(255,255,255)" fill-opacity="1.0" stroke="rgb(0,0,0)" stroke-width="2"  />
			<g>
				<title>tRNA_anti-codon (PF01336)
"OB-fold nucleic acid binding domain"</title>
				<rect class="PF01336" x="84" y="28" stroke-linejoin="round" width="7" height="24" fill="rgb(215,103,173)" stroke="rgb(172,82,138)" stroke-width="1" opacity="0.75" />
			</g>
			<g>
				<title>tRNA-synt_2 (PF00152)
"tRNA synthetases class II (D, K and N)"</title>
				<polygon class="PF00152" points="93,28 109,28 121,40 109,52 93,52" stroke-linejoin="round" width="31" height="24" fill="rgb(90,71,190)" stroke="rgb(72,56,152)" stroke-width="1" opacity="0.75" />
			</g>
		</g>
		<g>
			<title>dnaD (PMCFELCE_01622)
DNA replication protein DnaD</title>
			<polygon class="dnaD (PMCFELCE_01622)
DNA replication protein DnaD" points="129,10 151,40 129,70" fill="rgb(255,255,255)" fill-opacity="1.0" stroke="rgb(0,0,0)" stroke-width="2"  />
			<g>
				<title>DnaB_2 (PF07261)
"Replication initiation and membrane attachment"</title>
				<polygon class="PF07261" points="141,31 147,40 141,49" stroke-linejoin="round" width="7" height="24" fill="rgb(136,193,85)" stroke="rgb(108,154,68)" stroke-width="1" opacity="0.75" />
			</g>
		</g>
		<g>
			<title>nth (PMCFELCE_01623)
Endonuclease III</title>
			<polygon class="nth (PMCFELCE_01623)
Endonuclease III" points="152,10 174,40 152,70" fill="rgb(255,255,255)" fill-opacity="1.0" stroke="rgb(0,0,0)" stroke-width="2"  />
			<g>
				<title>HhH-GPD (PF00730)
"HhH-GPD superfamily base excision DNA repair protein"</title>
				<polygon class="PF00730" points="155,28 161,28 168,37 168,43 161,52 155,52" stroke-linejoin="round" width="13" height="24" fill="rgb(190,78,115)" stroke="rgb(152,62,92)" stroke-width="1" opacity="0.75" />
			</g>
		</g>
		<g>
			<title>ponA (PMCFELCE_01624)
Penicillin-binding protein 1A/1B</title>
			<polygon class="ponA (PMCFELCE_01624)
Penicillin-binding protein 1A/1B" points="262,25 205,25 205,10 175,40 205,70 205,55 262,55" fill="rgb(255,255,255)" fill-opacity="1.0" stroke="rgb(0,0,0)" stroke-width="2"  />
			<g>
				<title>Transpeptidase (PF00905)
"Penicillin binding protein transpeptidase domain"</title>
				<rect class="PF00905" x="200" y="28" stroke-linejoin="round" width="27" height="24" fill="rgb(161,226,87)" stroke="rgb(128,180,69)" stroke-width="1" opacity="0.75" />
			</g>
			<g>
				<title>Transgly (PF00912)
"Transglycosylase"</title>
				<rect class="PF00912" x="236" y="28" stroke-linejoin="round" width="17" height="24" fill="rgb(172,107,216)" stroke="rgb(137,85,172)" stroke-width="1" opacity="0.75" />
			</g>
		</g>
		<g>
			<title>recU (PMCFELCE_01625)
Holliday junction resolvase RecU</title>
			<polygon class="recU (PMCFELCE_01625)
Holliday junction resolvase RecU" points="263,40 282,10 282,70" fill="rgb(255,255,255)" fill-opacity="1.0" stroke="rgb(0,0,0)" stroke-width="2"  />
			<g>
				<title>RecU (PF03838)
"Recombination protein U"</title>
				<polygon class="PF03838" points="267,40 275,28 279,28 279,52 275,52" stroke-linejoin="round" width="16" height="24" fill="rgb(93,204,83)" stroke="rgb(74,163,66)" stroke-width="1" opacity="0.75" />
			</g>
		</g>
		<g>
			<title> (PMCFELCE_01626)
hypothetical protein</title>
			<polygon class=" (PMCFELCE_01626)
hypothetical protein" points="290,40 293,10 293,70" fill="rgb(255,255,255)" fill-opacity="1.0" stroke="rgb(0,0,0)" stroke-width="2"  />
		</g>
		<g>
			<title>racA (PMCFELCE_01627)
Chromosome-anchoring protein RacA</title>
			<polygon class="racA (PMCFELCE_01627)
Chromosome-anchoring protein RacA" points="297,10 305,40 297,70" fill="rgb(255,255,255)" fill-opacity="1.0" stroke="rgb(0,0,0)" stroke-width="2"  />
		</g>
		<g>
			<title> (PMCFELCE_01628)
hypothetical protein</title>
			<polygon class=" (PMCFELCE_01628)
hypothetical protein" points="308,10 320,40 308,70" fill="rgb(255,255,255)" fill-opacity="1.0" stroke="rgb(0,0,0)" stroke-width="2"  />
			<g>
				<title>DUF1798 (PF08807)
"Bacterial domain of unknown function (DUF1798)"</title>
				<polygon class="PF08807" points="308,28 311,28 316,40 311,52 308,52" stroke-linejoin="round" width="10" height="24" fill="rgb(153,201,81)" stroke="rgb(122,160,64)" stroke-width="1" opacity="0.75" />
			</g>
		</g>
		<g>
			<title>swrC_1 (PMCFELCE_01629)
Swarming motility protein SwrC</title>
			<polygon class="swrC_1 (PMCFELCE_01629)
Swarming motility protein SwrC" points="423,25 351,25 351,10 321,40 351,70 351,55 423,55" fill="rgb(255,255,255)" fill-opacity="1.0" stroke="rgb(0,0,0)" stroke-width="2"  />
			<g>
				<title>ACR_tran (PF00873)
"AcrB/AcrD/AcrF family"</title>
				<polygon class="PF00873" points="325,40 337,28 422,28 422,52 337,52" stroke-linejoin="round" width="101" height="24" fill="rgb(63,191,60)" stroke="rgb(50,152,48)" stroke-width="1" opacity="0.75" />
			</g>
		</g>
		<g>
			<title>cdd (PMCFELCE_01630)
Cytidine deaminase</title>
			<polygon class="cdd (PMCFELCE_01630)
Cytidine deaminase" points="429,10 442,40 429,70" fill="rgb(255,255,255)" fill-opacity="1.0" stroke="rgb(0,0,0)" stroke-width="2"  />
			<g>
				<title>dCMP_cyt_deam_1 (PF00383)
"Cytidine and deoxycytidylate deaminase zinc-binding region"</title>
				<polygon class="PF00383" points="429,28 433,28 439,40 439,40 433,52 429,52" stroke-linejoin="round" width="10" height="24" fill="rgb(91,149,216)" stroke="rgb(72,119,172)" stroke-width="1" opacity="0.75" />
			</g>
		</g>
		<g>
			<title> (PMCFELCE_01631)
hypothetical protein</title>
			<polygon class=" (PMCFELCE_01631)
hypothetical protein" points="447,10 462,40 447,70" fill="rgb(255,255,255)" fill-opacity="1.0" stroke="rgb(0,0,0)" stroke-width="2"  />
			<g>
				<title>Spore-coat_CotD (PF11122)
"Inner spore coat protein D"</title>
				<polygon class="PF11122" points="448,28 452,28 458,40 452,52 448,52" stroke-linejoin="round" width="13" height="24" fill="rgb(221,153,69)" stroke="rgb(176,122,55)" stroke-width="1" opacity="0.75" />
			</g>
		</g>
		<g>
			<title> (PMCFELCE_01632)
hypothetical protein</title>
			<polygon class=" (PMCFELCE_01632)
hypothetical protein" points="465,10 483,40 465,70" fill="rgb(255,255,255)" fill-opacity="1.0" stroke="rgb(0,0,0)" stroke-width="2"  />
			<g>
				<title>YpsA (PF06908)
"YspA SLOG family"</title>
				<polygon class="PF06908" points="465,28 472,28 480,40 472,52 465,52" stroke-linejoin="round" width="16" height="24" fill="rgb(136,100,209)" stroke="rgb(108,80,167)" stroke-width="1" opacity="0.75" />
			</g>
		</g>
		<g>
			<title>gpsB (PMCFELCE_01633)
Cell cycle protein GpsB</title>
			<polygon class="gpsB (PMCFELCE_01633)
Cell cycle protein GpsB" points="486,10 496,40 486,70" fill="rgb(255,255,255)" fill-opacity="1.0" stroke="rgb(0,0,0)" stroke-width="2"  />
			<g>
				<title>DivIVA (PF05103)
"DivIVA protein"</title>
				<polygon class="PF05103" points="486,28 488,28 492,37 492,43 488,52 486,52" stroke-linejoin="round" width="6" height="24" fill="rgb(213,106,117)" stroke="rgb(170,84,93)" stroke-width="1" opacity="0.75" />
			</g>
		</g>
		<g>
			<title>rlmL (PMCFELCE_01634)
Ribosomal RNA large subunit methyltransferase K/L</title>
			<polygon class="rlmL (PMCFELCE_01634)
Ribosomal RNA large subunit methyltransferase K/L" points="515,25 523,25 523,10 553,40 523,70 523,55 515,55" fill="rgb(255,255,255)" fill-opacity="1.0" stroke="rgb(0,0,0)" stroke-width="2"  />
			<g>
				<title>THUMP (PF02926)
"THUMP domain"</title>
				<rect class="PF02926" x="516" y="28" stroke-linejoin="round" width="14" height="24" fill="rgb(52,209,163)" stroke="rgb(41,167,130)" stroke-width="1" opacity="0.75" />
			</g>
			<g>
				<title>UPF0020 (PF01170)
"Putative RNA methylase family UPF0020"</title>
				<polygon class="PF01170" points="531,28 537,28 549,40 537,52 531,52" stroke-linejoin="round" width="20" height="24" fill="rgb(89,182,69)" stroke="rgb(71,145,55)" stroke-width="1" opacity="0.75" />
			</g>
		</g>
		<g>
			<title>ypwA (PMCFELCE_01635)
Carboxypeptidase 1</title>
			<polygon class="ypwA (PMCFELCE_01635)
Carboxypeptidase 1" points="555,25 574,25 574,10 604,40 574,70 574,55 555,55" fill="rgb(255,255,255)" fill-opacity="1.0" stroke="rgb(0,0,0)" stroke-width="2"  />
			<g>
				<title>Peptidase_M32 (PF02074)
"Carboxypeptidase Taq (M32) metallopeptidase"</title>
				<polygon class="PF02074" points="555,28 588,28 600,40 588,52 555,52" stroke-linejoin="round" width="48" height="24" fill="rgb(213,142,93)" stroke="rgb(170,113,74)" stroke-width="1" opacity="0.75" />
			</g>
		</g>
		<g>
			<title> (PMCFELCE_01636)
hypothetical protein</title>
			<polygon class=" (PMCFELCE_01636)
hypothetical protein" points="608,40 626,10 626,70" fill="rgb(255,255,255)" fill-opacity="1.0" stroke="rgb(0,0,0)" stroke-width="2"  />
		</g>
		<g>
			<title>gno (PMCFELCE_01637)
Gluconate 5-dehydrogenase</title>
			<polygon class="gno (PMCFELCE_01637)
Gluconate 5-dehydrogenase" points="630,10 655,40 630,70" fill="rgb(255,255,255)" fill-opacity="1.0" stroke="rgb(0,0,0)" stroke-width="2"  />
			<g>
				<title>adh_short_C2 (PF13561)
"Enoyl-(Acyl carrier protein) reductase"</title>
				<polygon class="PF13561" points="631,28 641,28 651,40 641,52 631,52" stroke-linejoin="round" width="23" height="24" fill="rgb(73,205,127)" stroke="rgb(58,164,101)" stroke-width="1" opacity="0.75" />
			</g>
		</g>
		<g>
			<title>cheX (PMCFELCE_01638)
CheY-P phosphatase CheX</title>
			<polygon class="cheX (PMCFELCE_01638)
CheY-P phosphatase CheX" points="657,40 672,10 672,70" fill="rgb(255,255,255)" fill-opacity="1.0" stroke="rgb(0,0,0)" stroke-width="2"  />
			<g>
				<title>CheX (PF13690)
"Chemotaxis phosphatase CheX"</title>
				<polygon class="PF13690" points="660,40 666,28 667,28 667,52 666,52" stroke-linejoin="round" width="10" height="24" fill="rgb(55,220,212)" stroke="rgb(44,176,169)" stroke-width="1" opacity="0.75" />
			</g>
		</g>
		<g>
			<title> (PMCFELCE_01639)
Alpha-pyrone synthesis polyketide synthase-like Pks11</title>
			<polygon class=" (PMCFELCE_01639)
Alpha-pyrone synthesis polyketide synthase-like Pks11" points="676,25 682,25 682,10 712,40 682,70 682,55 676,55" fill="rgb(255,255,255)" fill-opacity="1.0" stroke="rgb(0,0,0)" stroke-width="2"  />
			<g>
				<title>Chal_sti_synt_N (PF00195)
"Chalcone and stilbene synthases, N-terminal domain"</title>
				<polygon class="PF00195" points="682,28 695,28 696,29 696,51 695,52 682,52" stroke-linejoin="round" width="14" height="24" fill="rgb(60,181,161)" stroke="rgb(47,144,128)" stroke-width="1" opacity="0.75" />
			</g>
			<g>
				<title>Chal_sti_synt_C (PF02797)
"Chalcone and stilbene synthases, C-terminal domain"</title>
				<polygon class="PF02797" points="698,31 707,40 698,49" stroke-linejoin="round" width="13" height="24" fill="rgb(139,212,63)" stroke="rgb(111,169,50)" stroke-width="1" opacity="0.75" />
			</g>
		</g>
		<g>
			<title> (PMCFELCE_01640)
hypothetical protein</title>
			<polygon class=" (PMCFELCE_01640)
hypothetical protein" points="712,10 729,40 712,70" fill="rgb(255,255,255)" fill-opacity="1.0" stroke="rgb(0,0,0)" stroke-width="2"  />
			<g>
				<title>ICMT (PF04140)
"Isoprenylcysteine carboxyl methyltransferase (ICMT) family"</title>
				<polygon class="PF04140" points="719,29 725,40 719,51" stroke-linejoin="round" width="9" height="24" fill="rgb(100,223,104)" stroke="rgb(80,178,83)" stroke-width="1" opacity="0.75" />
			</g>
		</g>
		<g>
			<title> (PMCFELCE_01641)
hypothetical protein</title>
			<polygon class=" (PMCFELCE_01641)
hypothetical protein" points="732,10 737,40 732,70" fill="rgb(255,255,255)" fill-opacity="1.0" stroke="rgb(0,0,0)" stroke-width="2"  />
		</g>
		<g>
			<title> (PMCFELCE_01642)
hypothetical protein</title>
			<polygon class=" (PMCFELCE_01642)
hypothetical protein" points="742,10 751,40 742,70" fill="rgb(255,255,255)" fill-opacity="1.0" stroke="rgb(0,0,0)" stroke-width="2"  />
		</g>
		<g>
			<title>rnhA (PMCFELCE_01643)
14.7 kDa ribonuclease H-like protein</title>
			<polygon class="rnhA (PMCFELCE_01643)
14.7 kDa ribonuclease H-like protein" points="752,40 765,10 765,70" fill="rgb(255,255,255)" fill-opacity="1.0" stroke="rgb(0,0,0)" stroke-width="2"  />
			<g>
				<title>RVT_3 (PF13456)
"Reverse transcriptase-like"</title>
				<polygon class="PF13456" points="755,40 760,28 765,28 765,52 760,52" stroke-linejoin="round" width="12" height="24" fill="rgb(198,123,86)" stroke="rgb(158,98,68)" stroke-width="1" opacity="0.75" />
			</g>
		</g>
		<g>
			<title> (PMCFELCE_01644)
queuosine precursor transporter</title>
			<polygon class=" (PMCFELCE_01644)
queuosine precursor transporter" points="766,40 788,10 788,70" fill="rgb(255,255,255)" fill-opacity="1.0" stroke="rgb(0,0,0)" stroke-width="2"  />
			<g>
				<title>Vut_1 (PF02592)
"Putative vitamin uptake transporter"</title>
				<polygon class="PF02592" points="770,40 779,28 782,28 782,52 779,52" stroke-linejoin="round" width="16" height="24" fill="rgb(93,184,75)" stroke="rgb(74,147,60)" stroke-width="1" opacity="0.75" />
			</g>
		</g>
		<g>
			<title>cspB_1 (PMCFELCE_01645)
Cold shock protein CspB</title>
			<polygon class="cspB_1 (PMCFELCE_01645)
Cold shock protein CspB" points="794,40 800,10 800,70" fill="rgb(255,255,255)" fill-opacity="1.0" stroke="rgb(0,0,0)" stroke-width="2"  />
			<g>
				<title>CSD (PF00313)
"'Cold-shock' DNA-binding domain"</title>
				<polygon class="PF00313" points="797,40 800,28 800,28 800,52 800,52" stroke-linejoin="round" width="6" height="24" fill="rgb(87,72,181)" stroke="rgb(69,57,144)" stroke-width="1" opacity="0.75" />
			</g>
		</g>
		<g>
			<title>fhs (PMCFELCE_01646)
Formate--tetrahydrofolate ligase</title>
			<polygon class="fhs (PMCFELCE_01646)
Formate--tetrahydrofolate ligase" points="810,25 835,25 835,10 865,40 835,70 835,55 810,55" fill="rgb(255,255,255)" fill-opacity="1.0" stroke="rgb(0,0,0)" stroke-width="2"  />
			<g>
				<title>FTHFS (PF01268)
"Formate--tetrahydrofolate ligase"</title>
				<polygon class="PF01268" points="810,28 849,28 861,40 849,52 810,52" stroke-linejoin="round" width="55" height="24" fill="rgb(215,182,81)" stroke="rgb(172,145,64)" stroke-width="1" opacity="0.75" />
			</g>
		</g>
		<g>
			<title> (PMCFELCE_01647)
hypothetical protein</title>
			<polygon class=" (PMCFELCE_01647)
hypothetical protein" points="869,10 897,40 869,70" fill="rgb(255,255,255)" fill-opacity="1.0" stroke="rgb(0,0,0)" stroke-width="2"  />
			<g>
				<title>DUF72 (PF01904)
"Protein of unknown function DUF72"</title>
				<polygon class="PF01904" points="870,28 881,28 893,40 881,52 870,52" stroke-linejoin="round" width="24" height="24" fill="rgb(63,151,204)" stroke="rgb(50,120,163)" stroke-width="1" opacity="0.75" />
			</g>
		</g>
		<g>
			<title>yedJ (PMCFELCE_01648)
putative protein YedJ</title>
			<polygon class="yedJ (PMCFELCE_01648)
putative protein YedJ" points="898,10 917,40 898,70" fill="rgb(255,255,255)" fill-opacity="1.0" stroke="rgb(0,0,0)" stroke-width="2"  />
			<g>
				<title>HD (PF01966)
"HD domain"</title>
				<polygon class="PF01966" points="900,28 906,28 909,33 909,47 906,52 900,52" stroke-linejoin="round" width="9" height="24" fill="rgb(92,193,119)" stroke="rgb(73,154,95)" stroke-width="1" opacity="0.75" />
			</g>
		</g>
		<g>
			<title>thyA (PMCFELCE_01649)
Thymidylate synthase</title>
			<polygon class="thyA (PMCFELCE_01649)
Thymidylate synthase" points="918,25 920,25 920,10 950,40 920,70 920,55 918,55" fill="rgb(255,255,255)" fill-opacity="1.0" stroke="rgb(0,0,0)" stroke-width="2"  />
			<g>
				<title>Thymidylat_synt (PF00303)
"Thymidylate synthase"</title>
				<polygon class="PF00303" points="918,28 933,28 945,40 933,52 918,52" stroke-linejoin="round" width="31" height="24" fill="rgb(103,91,191)" stroke="rgb(82,72,152)" stroke-width="1" opacity="0.75" />
			</g>
		</g>
		<g>
			<title> (PMCFELCE_01650)
IS1595 family transposase ISSsu9</title>
			<polygon class=" (PMCFELCE_01650)
IS1595 family transposase ISSsu9" points="951,10 967,40 951,70" fill="rgb(255,255,255)" fill-opacity="1.0" stroke="rgb(0,0,0)" stroke-width="2"  />
			<g>
				<title>DHFR_1 (PF00186)
"Dihydrofolate reductase"</title>
				<polygon class="PF00186" points="951,28 957,28 964,40 957,52 951,52" stroke-linejoin="round" width="16" height="24" fill="rgb(150,188,63)" stroke="rgb(119,150,50)" stroke-width="1" opacity="0.75" />
			</g>
		</g>
		<g>
			<title>mobA (PMCFELCE_01651)
Molybdenum cofactor guanylyltransferase</title>
			<polygon class="mobA (PMCFELCE_01651)
Molybdenum cofactor guanylyltransferase" points="969,10 987,40 969,70" fill="rgb(255,255,255)" fill-opacity="1.0" stroke="rgb(0,0,0)" stroke-width="2"  />
			<g>
				<title>NTP_transf_3 (PF12804)
"MobA-like NTP transferase domain"</title>
				<polygon class="PF12804" points="969,28 976,28 983,39 983,41 976,52 969,52" stroke-linejoin="round" width="14" height="24" fill="rgb(52,209,196)" stroke="rgb(41,167,156)" stroke-width="1" opacity="0.75" />
			</g>
		</g>
		<g>
			<title>tatAd_1 (PMCFELCE_01652)
Sec-independent protein translocase protein TatAd</title>
			<polygon class="tatAd_1 (PMCFELCE_01652)
Sec-independent protein translocase protein TatAd" points="990,10 995,40 990,70" fill="rgb(255,255,255)" fill-opacity="1.0" stroke="rgb(0,0,0)" stroke-width="2"  />
			<g>
				<title>MttA_Hcf106 (PF02416)
"mttA/Hcf106 family"</title>
				<polygon class="PF02416" points="990,26 992,40 990,54" stroke-linejoin="round" width="5" height="24" fill="rgb(74,206,98)" stroke="rgb(59,164,78)" stroke-width="1" opacity="0.75" />
			</g>
		</g>
		<g>
			<title>tatAd_2 (PMCFELCE_01653)
Sec-independent protein translocase protein TatAd</title>
			<polygon class="tatAd_2 (PMCFELCE_01653)
Sec-independent protein translocase protein TatAd" points="996,10 1002,40 996,70" fill="rgb(255,255,255)" fill-opacity="1.0" stroke="rgb(0,0,0)" stroke-width="2"  />
			<g>
				<title>MttA_Hcf106 (PF02416)
"mttA/Hcf106 family"</title>
				<polygon class="PF02416" points="996,28 996,28 999,40 996,52 996,52" stroke-linejoin="round" width="5" height="24" fill="rgb(74,206,98)" stroke="rgb(59,164,78)" stroke-width="1" opacity="0.75" />
			</g>
		</g>
		<g>
			<title>tatC1 (PMCFELCE_01654)
Sec-independent protein translocase protein TatCd</title>
			<polygon class="tatC1 (PMCFELCE_01654)
Sec-independent protein translocase protein TatCd" points="1005,10 1030,40 1005,70" fill="rgb(255,255,255)" fill-opacity="1.0" stroke="rgb(0,0,0)" stroke-width="2"  />
			<g>
				<title>TatC (PF00902)
"Sec-independent protein translocase protein (TatC)"</title>
				<polygon class="PF00902" points="1006,28 1016,28 1026,40 1026,40 1016,52 1006,52" stroke-linejoin="round" width="20" height="24" fill="rgb(84,193,209)" stroke="rgb(67,154,167)" stroke-width="1" opacity="0.75" />
			</g>
		</g>
		<g>
			<title> (PMCFELCE_01655)
hypothetical protein</title>
			<polygon class=" (PMCFELCE_01655)
hypothetical protein" points="1034,10 1041,40 1034,70" fill="rgb(255,255,255)" fill-opacity="1.0" stroke="rgb(0,0,0)" stroke-width="2"  />
			<g>
				<title>YozE_SAM_like (PF06855)
"YozE SAM-like fold"</title>
				<polygon class="PF06855" points="1034,28 1034,28 1038,40 1034,52 1034,52" stroke-linejoin="round" width="6" height="24" fill="rgb(83,201,171)" stroke="rgb(66,160,136)" stroke-width="1" opacity="0.75" />
			</g>
		</g>
		<g>
			<title>sbcD (PMCFELCE_01656)
Nuclease SbcCD subunit D</title>
			<polygon class="sbcD (PMCFELCE_01656)
Nuclease SbcCD subunit D" points="1042,25 1050,25 1050,10 1080,40 1050,70 1050,55 1042,55" fill="rgb(255,255,255)" fill-opacity="1.0" stroke="rgb(0,0,0)" stroke-width="2"  />
			<g>
				<title>Metallophos (PF00149)
"Calcineurin-like phosphoesterase"</title>
				<rect class="PF00149" x="1042" y="28" stroke-linejoin="round" width="21" height="24" fill="rgb(181,197,58)" stroke="rgb(144,157,46)" stroke-width="1" opacity="0.75" />
			</g>
			<g>
				<title>SbcD_C (PF12320)
"Type 5 capsule protein repressor C-terminal domain"</title>
				<polygon class="PF12320" points="1068,32 1076,40 1068,48" stroke-linejoin="round" width="9" height="24" fill="rgb(182,136,65)" stroke="rgb(145,108,52)" stroke-width="1" opacity="0.75" />
			</g>
		</g>
		<g>
			<title> (PMCFELCE_01657)
hypothetical protein</title>
			<polygon class=" (PMCFELCE_01657)
hypothetical protein" points="1081,25 1154,25 1154,10 1184,40 1154,70 1154,55 1081,55" fill="rgb(255,255,255)" fill-opacity="1.0" stroke="rgb(0,0,0)" stroke-width="2"  />
			<g>
				<title>AAA_23 (PF13476)
"AAA domain"</title>
				<rect class="PF13476" x="1081" y="28" stroke-linejoin="round" width="42" height="24" fill="rgb(57,185,214)" stroke="rgb(45,147,171)" stroke-width="1" opacity="0.75" />
			</g>
			<g>
				<title>SbcCD_C (PF13558)
"Putative exonuclease SbcCD, C subunit"</title>
				<polygon class="PF13558" points="1171,31 1180,40 1180,40 1171,49" stroke-linejoin="round" width="9" height="24" fill="rgb(84,179,84)" stroke="rgb(67,143,67)" stroke-width="1" opacity="0.75" />
			</g>
		</g>
		<g>
			<title>ung (PMCFELCE_01658)
Uracil-DNA glycosylase</title>
			<polygon class="ung (PMCFELCE_01658)
Uracil-DNA glycosylase" points="1189,10 1211,40 1189,70" fill="rgb(255,255,255)" fill-opacity="1.0" stroke="rgb(0,0,0)" stroke-width="2"  />
			<g>
				<title>UDG (PF03167)
"Uracil DNA glycosylase superfamily"</title>
				<polygon class="PF03167" points="1194,28 1198,28 1207,40 1198,52 1194,52" stroke-linejoin="round" width="16" height="24" fill="rgb(64,224,60)" stroke="rgb(51,179,48)" stroke-width="1" opacity="0.75" />
			</g>
		</g>
		<g>
			<title> (PMCFELCE_01659)
hypothetical protein</title>
			<polygon class=" (PMCFELCE_01659)
hypothetical protein" points="1213,10 1231,40 1213,70" fill="rgb(255,255,255)" fill-opacity="1.0" stroke="rgb(0,0,0)" stroke-width="2"  />
			<g>
				<title>YqfQ (PF14181)
"YqfQ-like protein"</title>
				<polygon class="PF14181" points="1215,28 1220,28 1228,40 1220,52 1215,52" stroke-linejoin="round" width="16" height="24" fill="rgb(207,119,57)" stroke="rgb(165,95,45)" stroke-width="1" opacity="0.75" />
			</g>
		</g>
		<g>
			<title>msrB_1 (PMCFELCE_01660)
Peptide methionine sulfoxide reductase MsrB</title>
			<polygon class="msrB_1 (PMCFELCE_01660)
Peptide methionine sulfoxide reductase MsrB" points="1236,25 1238,25 1238,10 1268,40 1238,70 1238,55 1236,55" fill="rgb(255,255,255)" fill-opacity="1.0" stroke="rgb(0,0,0)" stroke-width="2"  />
			<g>
				<title>PMSR (PF01625)
"Peptide methionine sulfoxide reductase"</title>
				<rect class="PF01625" x="1236" y="28" stroke-linejoin="round" width="15" height="24" fill="rgb(201,74,176)" stroke="rgb(160,59,140)" stroke-width="1" opacity="0.75" />
			</g>
			<g>
				<title>SelR (PF01641)
"SelR domain"</title>
				<polygon class="PF01641" points="1254,31 1263,40 1254,49" stroke-linejoin="round" width="12" height="24" fill="rgb(192,99,202)" stroke="rgb(153,79,161)" stroke-width="1" opacity="0.75" />
			</g>
		</g>
		<g>
			<title> (PMCFELCE_01661)
hypothetical protein</title>
			<polygon class=" (PMCFELCE_01661)
hypothetical protein" points="1271,10 1290,40 1271,70" fill="rgb(255,255,255)" fill-opacity="1.0" stroke="rgb(0,0,0)" stroke-width="2"  />
			<g>
				<title>TetR_N (PF00440)
"Bacterial regulatory proteins, tetR family"</title>
				<rect class="PF00440" x="1272" y="28" stroke-linejoin="round" width="4" height="24" fill="rgb(73,212,190)" stroke="rgb(58,169,152)" stroke-width="1" opacity="0.75" />
			</g>
		</g>
		<g>
			<title> (PMCFELCE_01662)
hypothetical protein</title>
			<polygon class=" (PMCFELCE_01662)
hypothetical protein" points="1292,25 1296,25 1296,10 1326,40 1296,70 1296,55 1292,55" fill="rgb(255,255,255)" fill-opacity="1.0" stroke="rgb(0,0,0)" stroke-width="2"  />
			<g>
				<title>AbrB (PF05145)
"Transition state regulatory protein AbrB"</title>
				<polygon class="PF05145" points="1294,28 1309,28 1321,40 1309,52 1294,52" stroke-linejoin="round" width="30" height="24" fill="rgb(95,98,223)" stroke="rgb(76,78,178)" stroke-width="1" opacity="0.75" />
			</g>
		</g>
		<g>
			<title>mhqD (PMCFELCE_01663)
Putative hydrolase MhqD</title>
			<polygon class="mhqD (PMCFELCE_01663)
Putative hydrolase MhqD" points="1328,10 1348,40 1328,70" fill="rgb(255,255,255)" fill-opacity="1.0" stroke="rgb(0,0,0)" stroke-width="2"  />
			<g>
				<title>DLH (PF01738)
"Dienelactone hydrolase family"</title>
				<polygon class="PF01738" points="1333,28 1336,28 1344,40 1336,52 1333,52" stroke-linejoin="round" width="14" height="24" fill="rgb(188,185,48)" stroke="rgb(150,147,38)" stroke-width="1" opacity="0.75" />
			</g>
		</g>
		<g>
			<title> (PMCFELCE_01664)
hypothetical protein</title>
			<polygon class=" (PMCFELCE_01664)
hypothetical protein" points="1351,10 1357,40 1351,70" fill="rgb(255,255,255)" fill-opacity="1.0" stroke="rgb(0,0,0)" stroke-width="2"  />
		</g>
	</g>
</svg>
