<svg version="1.1" baseProfile="full" xmlns="http://www.w3.org/2000/svg" width="1096.4333333333334" height="80">
	<g>
		<line x1="10" y1="40.0" x2="1086.4333333333334" y2="40.0" style="stroke:rgb(70,70,70); stroke-width:3 "/>
		<g>
			<title> (FGNEMNIM_02401)
hypothetical protein</title>
			<polygon class=" (FGNEMNIM_02401)
hypothetical protein" points="11,40 27,10 27,70" fill="rgb(255,255,255)" fill-opacity="1.0" stroke="rgb(0,0,0)" stroke-width="2"  />
			<g>
				<title>Polyketide_cyc2 (PF10604)
"Polyketide cyclase / dehydrase and lipid transport"</title>
				<polygon class="PF10604" points="14,40 20,28 26,28 26,52 20,52" stroke-linejoin="round" width="14" height="24" fill="rgb(105,204,74)" stroke="rgb(84,163,59)" stroke-width="1" opacity="0.75" />
			</g>
		</g>
		<g>
			<title> (FGNEMNIM_02402)
hypothetical protein</title>
			<polygon class=" (FGNEMNIM_02402)
hypothetical protein" points="51,10 58,40 51,70" fill="rgb(255,255,255)" fill-opacity="1.0" stroke="rgb(0,0,0)" stroke-width="2"  />
		</g>
		<g>
			<title> (FGNEMNIM_02403)
hypothetical protein</title>
			<polygon class=" (FGNEMNIM_02403)
hypothetical protein" points="59,25 62,25 62,10 92,40 62,70 62,55 59,55" fill="rgb(255,255,255)" fill-opacity="1.0" stroke="rgb(0,0,0)" stroke-width="2"  />
			<g>
				<title>DUF3231 (PF11553)
"Protein of unknown function (DUF3231)"</title>
				<rect class="PF11553" x="59" y="28" stroke-linejoin="round" width="16" height="24" fill="rgb(179,90,188)" stroke="rgb(143,72,150)" stroke-width="1" opacity="0.75" />
			</g>
			<g>
				<title>DUF3231 (PF11553)
"Protein of unknown function (DUF3231)"</title>
				<polygon class="PF11553" points="75,28 76,28 88,40 76,52 75,52" stroke-linejoin="round" width="16" height="24" fill="rgb(179,90,188)" stroke="rgb(143,72,150)" stroke-width="1" opacity="0.75" />
			</g>
		</g>
		<g>
			<title>fpuD (FGNEMNIM_02404)
Petrobactin import ATP-binding protein FpuD</title>
			<polygon class="fpuD (FGNEMNIM_02404)
Petrobactin import ATP-binding protein FpuD" points="97,10 124,40 97,70" fill="rgb(255,255,255)" fill-opacity="1.0" stroke="rgb(0,0,0)" stroke-width="2"  />
			<g>
				<title>ABC_tran (PF00005)
"ABC transporter"</title>
				<polygon class="PF00005" points="98,28 109,28 112,31 112,49 109,52 98,52" stroke-linejoin="round" width="14" height="24" fill="rgb(129,201,63)" stroke="rgb(103,160,50)" stroke-width="1" opacity="0.75" />
			</g>
		</g>
		<g>
			<title> (FGNEMNIM_02405)
hypothetical protein</title>
			<polygon class=" (FGNEMNIM_02405)
hypothetical protein" points="129,10 144,40 129,70" fill="rgb(255,255,255)" fill-opacity="1.0" stroke="rgb(0,0,0)" stroke-width="2"  />
		</g>
		<g>
			<title> (FGNEMNIM_02406)
hypothetical protein</title>
			<polygon class=" (FGNEMNIM_02406)
hypothetical protein" points="145,25 149,25 149,10 179,40 149,70 149,55 145,55" fill="rgb(255,255,255)" fill-opacity="1.0" stroke="rgb(0,0,0)" stroke-width="2"  />
			<g>
				<title>DUF2332 (PF10094)
"Uncharacterized protein conserved in bacteria (DUF2332)"</title>
				<polygon class="PF10094" points="145,28 163,28 175,40 163,52 145,52" stroke-linejoin="round" width="33" height="24" fill="rgb(180,85,205)" stroke="rgb(144,68,164)" stroke-width="1" opacity="0.75" />
			</g>
		</g>
		<g>
			<title> (FGNEMNIM_02407)
hypothetical protein</title>
			<polygon class=" (FGNEMNIM_02407)
hypothetical protein" points="182,10 203,40 182,70" fill="rgb(255,255,255)" fill-opacity="1.0" stroke="rgb(0,0,0)" stroke-width="2"  />
			<g>
				<title>Acetyltransf_1 (PF00583)
"Acetyltransferase (GNAT) family"</title>
				<polygon class="PF00583" points="183,28 191,28 194,33 194,47 191,52 183,52" stroke-linejoin="round" width="11" height="24" fill="rgb(121,183,50)" stroke="rgb(96,146,39)" stroke-width="1" opacity="0.75" />
			</g>
		</g>
		<g>
			<title> (FGNEMNIM_02408)
hypothetical protein</title>
			<polygon class=" (FGNEMNIM_02408)
hypothetical protein" points="251,25 236,25 236,10 206,40 236,70 236,55 251,55" fill="rgb(255,255,255)" fill-opacity="1.0" stroke="rgb(0,0,0)" stroke-width="2"  />
			<g>
				<title>DUF2254 (PF10011)
"Predicted membrane protein (DUF2254)"</title>
				<polygon class="PF10011" points="212,38 222,28 248,28 248,52 222,52 212,42" stroke-linejoin="round" width="36" height="24" fill="rgb(78,184,171)" stroke="rgb(62,147,136)" stroke-width="1" opacity="0.75" />
			</g>
		</g>
		<g>
			<title> (FGNEMNIM_02409)
hypothetical protein</title>
			<polygon class=" (FGNEMNIM_02409)
hypothetical protein" points="279,25 312,25 312,10 342,40 312,70 312,55 279,55" fill="rgb(255,255,255)" fill-opacity="1.0" stroke="rgb(0,0,0)" stroke-width="2"  />
			<g>
				<title>Methyltransf_16 (PF10294)
"Lysine methyltransferase"</title>
				<rect class="PF10294" x="287" y="28" stroke-linejoin="round" width="15" height="24" fill="rgb(91,121,203)" stroke="rgb(72,96,162)" stroke-width="1" opacity="0.75" />
			</g>
		</g>
		<g>
			<title> (FGNEMNIM_02410)
hypothetical protein</title>
			<polygon class=" (FGNEMNIM_02410)
hypothetical protein" points="343,25 377,25 377,10 407,40 377,70 377,55 343,55" fill="rgb(255,255,255)" fill-opacity="1.0" stroke="rgb(0,0,0)" stroke-width="2"  />
			<g>
				<title>YcaO (PF02624)
"YcaO cyclodehydratase, ATP-ad Mg2+-binding"</title>
				<polygon class="PF02624" points="369,28 391,28 403,40 403,40 391,52 369,52" stroke-linejoin="round" width="34" height="24" fill="rgb(76,84,185)" stroke="rgb(60,67,148)" stroke-width="1" opacity="0.75" />
			</g>
		</g>
		<g>
			<title> (FGNEMNIM_02411)
hypothetical protein</title>
			<polygon class=" (FGNEMNIM_02411)
hypothetical protein" points="408,25 429,25 429,10 459,40 429,70 429,55 408,55" fill="rgb(255,255,255)" fill-opacity="1.0" stroke="rgb(0,0,0)" stroke-width="2"  />
			<g>
				<title>Nitroreductase (PF00881)
"Nitroreductase family"</title>
				<polygon class="PF00881" points="440,28 443,28 455,40 443,52 440,52" stroke-linejoin="round" width="17" height="24" fill="rgb(79,118,187)" stroke="rgb(63,94,149)" stroke-width="1" opacity="0.75" />
			</g>
		</g>
		<g>
			<title> (FGNEMNIM_02412)
hypothetical protein</title>
			<polygon class=" (FGNEMNIM_02412)
hypothetical protein" points="466,10 481,40 466,70" fill="rgb(255,255,255)" fill-opacity="1.0" stroke="rgb(0,0,0)" stroke-width="2"  />
			<g>
				<title>DinB_2 (PF12867)
"DinB superfamily"</title>
				<polygon class="PF12867" points="466,28 471,28 477,40 471,52 466,52" stroke-linejoin="round" width="13" height="24" fill="rgb(184,90,185)" stroke="rgb(147,72,148)" stroke-width="1" opacity="0.75" />
			</g>
		</g>
		<g>
			<title>pbuG_1 (FGNEMNIM_02413)
Guanine/hypoxanthine permease PbuG</title>
			<polygon class="pbuG_1 (FGNEMNIM_02413)
Guanine/hypoxanthine permease PbuG" points="498,25 511,25 511,10 541,40 511,70 511,55 498,55" fill="rgb(255,255,255)" fill-opacity="1.0" stroke="rgb(0,0,0)" stroke-width="2"  />
			<g>
				<title>Xan_ur_permease (PF00860)
"Permease family"</title>
				<polygon class="PF00860" points="499,28 524,28 536,40 536,40 524,52 499,52" stroke-linejoin="round" width="37" height="24" fill="rgb(216,88,217)" stroke="rgb(172,70,173)" stroke-width="1" opacity="0.75" />
			</g>
		</g>
		<g>
			<title> (FGNEMNIM_02414)
Peroxiredoxin</title>
			<polygon class=" (FGNEMNIM_02414)
Peroxiredoxin" points="544,40 566,10 566,70" fill="rgb(255,255,255)" fill-opacity="1.0" stroke="rgb(0,0,0)" stroke-width="2"  />
			<g>
				<title>1-cysPrx_C (PF10417)
"C-terminal domain of 1-Cys peroxiredoxin"</title>
				<polygon class="PF10417" points="548,40 548,40 548,40" stroke-linejoin="round" width="3" height="24" fill="rgb(80,189,172)" stroke="rgb(64,151,137)" stroke-width="1" opacity="0.75" />
			</g>
			<g>
				<title>AhpC-TSA (PF00578)
"AhpC/TSA family"</title>
				<polygon class="PF00578" points="551,36 557,28 564,28 564,52 557,52 551,44" stroke-linejoin="round" width="13" height="24" fill="rgb(166,71,190)" stroke="rgb(132,56,152)" stroke-width="1" opacity="0.75" />
			</g>
		</g>
		<g>
			<title> (FGNEMNIM_02415)
hypothetical protein</title>
			<polygon class=" (FGNEMNIM_02415)
hypothetical protein" points="575,10 594,40 575,70" fill="rgb(255,255,255)" fill-opacity="1.0" stroke="rgb(0,0,0)" stroke-width="2"  />
			<g>
				<title>DUF4256 (PF14066)
"Protein of unknown function (DUF4256)"</title>
				<polygon class="PF14066" points="577,28 583,28 590,40 583,52 577,52" stroke-linejoin="round" width="17" height="24" fill="rgb(55,178,73)" stroke="rgb(44,142,58)" stroke-width="1" opacity="0.75" />
			</g>
		</g>
		<g>
			<title> (FGNEMNIM_02416)
hypothetical protein</title>
			<polygon class=" (FGNEMNIM_02416)
hypothetical protein" points="626,25 626,25 626,10 596,40 626,70 626,55 626,55" fill="rgb(255,255,255)" fill-opacity="1.0" stroke="rgb(0,0,0)" stroke-width="2"  />
			<g>
				<title>VanW (PF04294)
"VanW like protein"</title>
				<polygon class="PF04294" points="600,40 610,30 610,50" stroke-linejoin="round" width="12" height="24" fill="rgb(52,93,183)" stroke="rgb(41,74,146)" stroke-width="1" opacity="0.75" />
			</g>
			<g>
				<title>PG_binding_4 (PF12229)
"Putative peptidoglycan binding domain"</title>
				<rect class="PF12229" x="615" y="28" stroke-linejoin="round" width="9" height="24" fill="rgb(140,107,215)" stroke="rgb(112,85,172)" stroke-width="1" opacity="0.75" />
			</g>
		</g>
		<g>
			<title> (FGNEMNIM_02417)
hypothetical protein</title>
			<polygon class=" (FGNEMNIM_02417)
hypothetical protein" points="631,10 646,40 631,70" fill="rgb(255,255,255)" fill-opacity="1.0" stroke="rgb(0,0,0)" stroke-width="2"  />
		</g>
		<g>
			<title> (FGNEMNIM_02418)
hypothetical protein</title>
			<polygon class=" (FGNEMNIM_02418)
hypothetical protein" points="659,10 680,40 659,70" fill="rgb(255,255,255)" fill-opacity="1.0" stroke="rgb(0,0,0)" stroke-width="2"  />
		</g>
		<g>
			<title> (FGNEMNIM_02419)
hypothetical protein</title>
			<polygon class=" (FGNEMNIM_02419)
hypothetical protein" points="684,40 708,10 708,70" fill="rgb(255,255,255)" fill-opacity="1.0" stroke="rgb(0,0,0)" stroke-width="2"  />
			<g>
				<title>Gamma_PGA_hydro (PF05908)
"Poly-gamma-glutamate hydrolase"</title>
				<polygon class="PF05908" points="688,40 698,28 704,28 704,52 698,52" stroke-linejoin="round" width="19" height="24" fill="rgb(198,222,77)" stroke="rgb(158,177,61)" stroke-width="1" opacity="0.75" />
			</g>
		</g>
		<g>
			<title>dacC (FGNEMNIM_02420)
D-alanyl-D-alanine carboxypeptidase DacC</title>
			<polygon class="dacC (FGNEMNIM_02420)
D-alanyl-D-alanine carboxypeptidase DacC" points="717,25 736,25 736,10 766,40 736,70 736,55 717,55" fill="rgb(255,255,255)" fill-opacity="1.0" stroke="rgb(0,0,0)" stroke-width="2"  />
			<g>
				<title>Peptidase_S13 (PF02113)
"D-Ala-D-Ala carboxypeptidase 3 (S13) family"</title>
				<polygon class="PF02113" points="720,28 750,28 762,40 750,52 720,52" stroke-linejoin="round" width="45" height="24" fill="rgb(222,106,76)" stroke="rgb(177,84,60)" stroke-width="1" opacity="0.75" />
			</g>
		</g>
		<g>
			<title>nhaH (FGNEMNIM_02421)
Na(+)/H(+) antiporter NhaH</title>
			<polygon class="nhaH (FGNEMNIM_02421)
Na(+)/H(+) antiporter NhaH" points="770,25 780,25 780,10 810,40 780,70 780,55 770,55" fill="rgb(255,255,255)" fill-opacity="1.0" stroke="rgb(0,0,0)" stroke-width="2"  />
			<g>
				<title>Na_H_Exchanger (PF00999)
"Sodium/hydrogen exchanger family"</title>
				<polygon class="PF00999" points="771,28 794,28 806,40 794,52 771,52" stroke-linejoin="round" width="38" height="24" fill="rgb(229,67,191)" stroke="rgb(183,53,152)" stroke-width="1" opacity="0.75" />
			</g>
		</g>
		<g>
			<title>cobB (FGNEMNIM_02422)
NAD-dependent protein deacetylase</title>
			<polygon class="cobB (FGNEMNIM_02422)
NAD-dependent protein deacetylase" points="813,40 837,10 837,70" fill="rgb(255,255,255)" fill-opacity="1.0" stroke="rgb(0,0,0)" stroke-width="2"  />
			<g>
				<title>SIR2 (PF02146)
"Sir2 family"</title>
				<polygon class="PF02146" points="818,39 827,28 835,28 835,52 827,52 818,41" stroke-linejoin="round" width="17" height="24" fill="rgb(83,217,165)" stroke="rgb(66,173,132)" stroke-width="1" opacity="0.75" />
			</g>
		</g>
		<g>
			<title>nfrA1 (FGNEMNIM_02423)
FMN reductase (NADPH)</title>
			<polygon class="nfrA1 (FGNEMNIM_02423)
FMN reductase (NADPH)" points="838,40 862,10 862,70" fill="rgb(255,255,255)" fill-opacity="1.0" stroke="rgb(0,0,0)" stroke-width="2"  />
			<g>
				<title>Nitroreductase (PF00881)
"Nitroreductase family"</title>
				<polygon class="PF00881" points="846,35 852,28 861,28 861,52 852,52 846,45" stroke-linejoin="round" width="15" height="24" fill="rgb(79,118,187)" stroke="rgb(63,94,149)" stroke-width="1" opacity="0.75" />
			</g>
		</g>
		<g>
			<title> (FGNEMNIM_02424)
hypothetical protein</title>
			<polygon class=" (FGNEMNIM_02424)
hypothetical protein" points="863,40 885,10 885,70" fill="rgb(255,255,255)" fill-opacity="1.0" stroke="rgb(0,0,0)" stroke-width="2"  />
		</g>
		<g>
			<title> (FGNEMNIM_02425)
hypothetical protein</title>
			<polygon class=" (FGNEMNIM_02425)
hypothetical protein" points="891,10 902,40 891,70" fill="rgb(255,255,255)" fill-opacity="1.0" stroke="rgb(0,0,0)" stroke-width="2"  />
		</g>
		<g>
			<title> (FGNEMNIM_02426)
hypothetical protein</title>
			<polygon class=" (FGNEMNIM_02426)
hypothetical protein" points="903,40 911,10 911,70" fill="rgb(255,255,255)" fill-opacity="1.0" stroke="rgb(0,0,0)" stroke-width="2"  />
		</g>
		<g>
			<title>drrA (FGNEMNIM_02427)
Doxorubicin resistance ATP-binding protein DrrA</title>
			<polygon class="drrA (FGNEMNIM_02427)
Doxorubicin resistance ATP-binding protein DrrA" points="924,25 926,25 926,10 956,40 926,70 926,55 924,55" fill="rgb(255,255,255)" fill-opacity="1.0" stroke="rgb(0,0,0)" stroke-width="2"  />
			<g>
				<title>ABC_tran (PF00005)
"ABC transporter"</title>
				<rect class="PF00005" x="926" y="28" stroke-linejoin="round" width="14" height="24" fill="rgb(129,201,63)" stroke="rgb(103,160,50)" stroke-width="1" opacity="0.75" />
			</g>
			<g>
				<title>DUF4162 (PF13732)
"Domain of unknown function (DUF4162)"</title>
				<polygon class="PF13732" points="946,34 952,40 946,46" stroke-linejoin="round" width="9" height="24" fill="rgb(100,223,143)" stroke="rgb(80,178,114)" stroke-width="1" opacity="0.75" />
			</g>
		</g>
		<g>
			<title>drrB (FGNEMNIM_02428)
Daunorubicin/doxorubicin resistance ABC transporter permease protein DrrB</title>
			<polygon class="drrB (FGNEMNIM_02428)
Daunorubicin/doxorubicin resistance ABC transporter permease protein DrrB" points="956,10 982,40 956,70" fill="rgb(255,255,255)" fill-opacity="1.0" stroke="rgb(0,0,0)" stroke-width="2"  />
			<g>
				<title>ABC2_membrane (PF01061)
"ABC-2 type transporter"</title>
				<polygon class="PF01061" points="956,28 968,28 977,39 977,41 968,52 956,52" stroke-linejoin="round" width="21" height="24" fill="rgb(139,217,106)" stroke="rgb(111,173,84)" stroke-width="1" opacity="0.75" />
			</g>
		</g>
		<g>
			<title>rsgA_2 (FGNEMNIM_02429)
Small ribosomal subunit biogenesis GTPase RsgA</title>
			<polygon class="rsgA_2 (FGNEMNIM_02429)
Small ribosomal subunit biogenesis GTPase RsgA" points="987,25 991,25 991,10 1021,40 991,70 991,55 987,55" fill="rgb(255,255,255)" fill-opacity="1.0" stroke="rgb(0,0,0)" stroke-width="2"  />
			<g>
				<title>RsgA_GTPase (PF03193)
"RsgA GTPase"</title>
				<polygon class="PF03193" points="995,28 1004,28 1012,36 1012,44 1004,52 995,52" stroke-linejoin="round" width="17" height="24" fill="rgb(89,182,98)" stroke="rgb(71,145,78)" stroke-width="1" opacity="0.75" />
			</g>
		</g>
		<g>
			<title>pyrD_2 (FGNEMNIM_02430)
Dihydroorotate dehydrogenase (quinone)</title>
			<polygon class="pyrD_2 (FGNEMNIM_02430)
Dihydroorotate dehydrogenase (quinone)" points="1024,25 1052,25 1052,10 1082,40 1052,70 1052,55 1024,55" fill="rgb(255,255,255)" fill-opacity="1.0" stroke="rgb(0,0,0)" stroke-width="2"  />
			<g>
				<title>DHO_dh (PF01180)
"Dihydroorotate dehydrogenase"</title>
				<rect class="PF01180" x="1046" y="28" stroke-linejoin="round" width="5" height="24" fill="rgb(127,188,80)" stroke="rgb(101,150,64)" stroke-width="1" opacity="0.75" />
			</g>
		</g>
	</g>
</svg>
