<svg version="1.1" baseProfile="full" xmlns="http://www.w3.org/2000/svg" width="1389.5333333333333" height="80">
	<g>
		<line x1="10" y1="40.0" x2="1379.5333333333333" y2="40.0" style="stroke:rgb(70,70,70); stroke-width:3 "/>
		<g>
			<title> (LFBLBBEA_02710)
hypothetical protein</title>
			<polygon class=" (LFBLBBEA_02710)
hypothetical protein" points="65,10 70,40 65,70" fill="rgb(255,255,255)" fill-opacity="1.0" stroke="rgb(0,0,0)" stroke-width="2"  />
		</g>
		<g>
			<title> (LFBLBBEA_02711)
hypothetical protein</title>
			<polygon class=" (LFBLBBEA_02711)
hypothetical protein" points="69,10 86,40 69,70" fill="rgb(255,255,255)" fill-opacity="1.0" stroke="rgb(0,0,0)" stroke-width="2"  />
			<g>
				<title>DUF5590 (PF17881)
"Domain of unknown function (DUF5590)"</title>
				<polygon class="PF17881" points="74,28 76,28 78,32 78,48 76,52 74,52" stroke-linejoin="round" width="4" height="24" fill="rgb(77,212,144)" stroke="rgb(61,169,115)" stroke-width="1" opacity="0.75" />
			</g>
		</g>
		<g>
			<title> (LFBLBBEA_02712)
Aspartate aminotransferase</title>
			<polygon class=" (LFBLBBEA_02712)
Aspartate aminotransferase" points="88,25 98,25 98,10 128,40 98,70 98,55 88,55" fill="rgb(255,255,255)" fill-opacity="1.0" stroke="rgb(0,0,0)" stroke-width="2"  />
			<g>
				<title>Aminotran_1_2 (PF00155)
"Aminotransferase class I and II"</title>
				<polygon class="PF00155" points="91,28 111,28 123,40 111,52 91,52" stroke-linejoin="round" width="35" height="24" fill="rgb(89,113,198)" stroke="rgb(71,90,158)" stroke-width="1" opacity="0.75" />
			</g>
		</g>
		<g>
			<title>asnS (LFBLBBEA_02713)
Asparagine--tRNA ligase</title>
			<polygon class="asnS (LFBLBBEA_02713)
Asparagine--tRNA ligase" points="128,25 141,25 141,10 171,40 141,70 141,55 128,55" fill="rgb(255,255,255)" fill-opacity="1.0" stroke="rgb(0,0,0)" stroke-width="2"  />
			<g>
				<title>tRNA_anti-codon (PF01336)
"OB-fold nucleic acid binding domain"</title>
				<rect class="PF01336" x="129" y="28" stroke-linejoin="round" width="7" height="24" fill="rgb(215,103,173)" stroke="rgb(172,82,138)" stroke-width="1" opacity="0.75" />
			</g>
			<g>
				<title>tRNA-synt_2 (PF00152)
"tRNA synthetases class II (D, K and N)"</title>
				<polygon class="PF00152" points="138,28 154,28 166,40 154,52 138,52" stroke-linejoin="round" width="31" height="24" fill="rgb(90,71,190)" stroke="rgb(72,56,152)" stroke-width="1" opacity="0.75" />
			</g>
		</g>
		<g>
			<title>dnaD (LFBLBBEA_02714)
DNA replication protein DnaD</title>
			<polygon class="dnaD (LFBLBBEA_02714)
DNA replication protein DnaD" points="182,10 200,40 182,70" fill="rgb(255,255,255)" fill-opacity="1.0" stroke="rgb(0,0,0)" stroke-width="2"  />
			<g>
				<title>DnaB_2 (PF07261)
"Replication initiation and membrane attachment"</title>
				<polygon class="PF07261" points="189,28 189,28 196,39 196,41 189,52 189,52" stroke-linejoin="round" width="7" height="24" fill="rgb(136,193,85)" stroke="rgb(108,154,68)" stroke-width="1" opacity="0.75" />
			</g>
		</g>
		<g>
			<title>nth (LFBLBBEA_02715)
Endonuclease III</title>
			<polygon class="nth (LFBLBBEA_02715)
Endonuclease III" points="201,10 223,40 201,70" fill="rgb(255,255,255)" fill-opacity="1.0" stroke="rgb(0,0,0)" stroke-width="2"  />
			<g>
				<title>HhH-GPD (PF00730)
"HhH-GPD superfamily base excision DNA repair protein"</title>
				<polygon class="PF00730" points="204,28 210,28 217,37 217,43 210,52 204,52" stroke-linejoin="round" width="13" height="24" fill="rgb(190,78,115)" stroke="rgb(152,62,92)" stroke-width="1" opacity="0.75" />
			</g>
		</g>
		<g>
			<title>ponA (LFBLBBEA_02716)
Penicillin-binding protein 1A/1B</title>
			<polygon class="ponA (LFBLBBEA_02716)
Penicillin-binding protein 1A/1B" points="314,25 255,25 255,10 225,40 255,70 255,55 314,55" fill="rgb(255,255,255)" fill-opacity="1.0" stroke="rgb(0,0,0)" stroke-width="2"  />
			<g>
				<title>fn3 (PF00041)
"Fibronectin type III domain"</title>
				<polygon class="PF00041" points="237,32 241,28 244,28 244,52 241,52 237,48" stroke-linejoin="round" width="7" height="24" fill="rgb(203,70,135)" stroke="rgb(162,56,107)" stroke-width="1" opacity="0.75" />
			</g>
			<g>
				<title>Transpeptidase (PF00905)
"Penicillin binding protein transpeptidase domain"</title>
				<rect class="PF00905" x="251" y="28" stroke-linejoin="round" width="28" height="24" fill="rgb(161,226,87)" stroke="rgb(128,180,69)" stroke-width="1" opacity="0.75" />
			</g>
			<g>
				<title>Transgly (PF00912)
"Transglycosylase"</title>
				<rect class="PF00912" x="288" y="28" stroke-linejoin="round" width="17" height="24" fill="rgb(172,107,216)" stroke="rgb(137,85,172)" stroke-width="1" opacity="0.75" />
			</g>
		</g>
		<g>
			<title>recU (LFBLBBEA_02717)
Holliday junction resolvase RecU</title>
			<polygon class="recU (LFBLBBEA_02717)
Holliday junction resolvase RecU" points="315,40 334,10 334,70" fill="rgb(255,255,255)" fill-opacity="1.0" stroke="rgb(0,0,0)" stroke-width="2"  />
			<g>
				<title>RecU (PF03838)
"Recombination protein U"</title>
				<polygon class="PF03838" points="319,40 327,28 331,28 331,52 327,52" stroke-linejoin="round" width="16" height="24" fill="rgb(93,204,83)" stroke="rgb(74,163,66)" stroke-width="1" opacity="0.75" />
			</g>
		</g>
		<g>
			<title>racA (LFBLBBEA_02718)
Chromosome-anchoring protein RacA</title>
			<polygon class="racA (LFBLBBEA_02718)
Chromosome-anchoring protein RacA" points="351,10 359,40 351,70" fill="rgb(255,255,255)" fill-opacity="1.0" stroke="rgb(0,0,0)" stroke-width="2"  />
		</g>
		<g>
			<title> (LFBLBBEA_02719)
hypothetical protein</title>
			<polygon class=" (LFBLBBEA_02719)
hypothetical protein" points="362,10 374,40 362,70" fill="rgb(255,255,255)" fill-opacity="1.0" stroke="rgb(0,0,0)" stroke-width="2"  />
			<g>
				<title>DUF1798 (PF08807)
"Bacterial domain of unknown function (DUF1798)"</title>
				<polygon class="PF08807" points="362,28 365,28 371,40 365,52 362,52" stroke-linejoin="round" width="10" height="24" fill="rgb(153,201,81)" stroke="rgb(122,160,64)" stroke-width="1" opacity="0.75" />
			</g>
		</g>
		<g>
			<title>mdtB (LFBLBBEA_02720)
Multidrug resistance protein MdtB</title>
			<polygon class="mdtB (LFBLBBEA_02720)
Multidrug resistance protein MdtB" points="433,25 411,25 411,10 381,40 411,70 411,55 433,55" fill="rgb(255,255,255)" fill-opacity="1.0" stroke="rgb(0,0,0)" stroke-width="2"  />
			<g>
				<title>ACR_tran (PF00873)
"AcrB/AcrD/AcrF family"</title>
				<polygon class="PF00873" points="385,40 397,28 432,28 432,52 397,52" stroke-linejoin="round" width="51" height="24" fill="rgb(63,191,60)" stroke="rgb(50,152,48)" stroke-width="1" opacity="0.75" />
			</g>
		</g>
		<g>
			<title>ttgE (LFBLBBEA_02721)
Toluene efflux pump membrane transporter TtgE</title>
			<polygon class="ttgE (LFBLBBEA_02721)
Toluene efflux pump membrane transporter TtgE" points="483,25 463,25 463,10 433,40 463,70 463,55 483,55" fill="rgb(255,255,255)" fill-opacity="1.0" stroke="rgb(0,0,0)" stroke-width="2"  />
			<g>
				<title>ACR_tran (PF00873)
"AcrB/AcrD/AcrF family"</title>
				<polygon class="PF00873" points="437,40 449,28 483,28 483,52 449,52" stroke-linejoin="round" width="50" height="24" fill="rgb(63,191,60)" stroke="rgb(50,152,48)" stroke-width="1" opacity="0.75" />
			</g>
		</g>
		<g>
			<title>cdd (LFBLBBEA_02722)
Cytidine deaminase</title>
			<polygon class="cdd (LFBLBBEA_02722)
Cytidine deaminase" points="489,10 502,40 489,70" fill="rgb(255,255,255)" fill-opacity="1.0" stroke="rgb(0,0,0)" stroke-width="2"  />
			<g>
				<title>dCMP_cyt_deam_1 (PF00383)
"Cytidine and deoxycytidylate deaminase zinc-binding region"</title>
				<polygon class="PF00383" points="489,28 493,28 498,40 493,52 489,52" stroke-linejoin="round" width="10" height="24" fill="rgb(91,149,216)" stroke="rgb(72,119,172)" stroke-width="1" opacity="0.75" />
			</g>
		</g>
		<g>
			<title> (LFBLBBEA_02723)
hypothetical protein</title>
			<polygon class=" (LFBLBBEA_02723)
hypothetical protein" points="504,10 522,40 504,70" fill="rgb(255,255,255)" fill-opacity="1.0" stroke="rgb(0,0,0)" stroke-width="2"  />
			<g>
				<title>YpsA (PF06908)
"YspA SLOG family"</title>
				<polygon class="PF06908" points="504,28 511,28 519,40 511,52 504,52" stroke-linejoin="round" width="16" height="24" fill="rgb(136,100,209)" stroke="rgb(108,80,167)" stroke-width="1" opacity="0.75" />
			</g>
		</g>
		<g>
			<title>gpsB (LFBLBBEA_02724)
Cell cycle protein GpsB</title>
			<polygon class="gpsB (LFBLBBEA_02724)
Cell cycle protein GpsB" points="527,10 537,40 527,70" fill="rgb(255,255,255)" fill-opacity="1.0" stroke="rgb(0,0,0)" stroke-width="2"  />
			<g>
				<title>DivIVA (PF05103)
"DivIVA protein"</title>
				<polygon class="PF05103" points="527,28 529,28 533,36 533,44 529,52 527,52" stroke-linejoin="round" width="6" height="24" fill="rgb(213,106,117)" stroke="rgb(170,84,93)" stroke-width="1" opacity="0.75" />
			</g>
		</g>
		<g>
			<title>rlmL_1 (LFBLBBEA_02725)
Ribosomal RNA large subunit methyltransferase L</title>
			<polygon class="rlmL_1 (LFBLBBEA_02725)
Ribosomal RNA large subunit methyltransferase L" points="557,10 577,40 557,70" fill="rgb(255,255,255)" fill-opacity="1.0" stroke="rgb(0,0,0)" stroke-width="2"  />
			<g>
				<title>THUMP (PF02926)
"THUMP domain"</title>
				<polygon class="PF02926" points="558,28 565,28 572,37 572,43 565,52 558,52" stroke-linejoin="round" width="14" height="24" fill="rgb(52,209,163)" stroke="rgb(41,167,130)" stroke-width="1" opacity="0.75" />
			</g>
		</g>
		<g>
			<title>rlmL_2 (LFBLBBEA_02726)
Ribosomal RNA large subunit methyltransferase L</title>
			<polygon class="rlmL_2 (LFBLBBEA_02726)
Ribosomal RNA large subunit methyltransferase L" points="584,10 595,40 584,70" fill="rgb(255,255,255)" fill-opacity="1.0" stroke="rgb(0,0,0)" stroke-width="2"  />
			<g>
				<title>UPF0020 (PF01170)
"Putative RNA methylase family UPF0020"</title>
				<polygon class="PF01170" points="584,28 587,28 592,40 587,52 584,52" stroke-linejoin="round" width="10" height="24" fill="rgb(89,182,69)" stroke="rgb(71,145,55)" stroke-width="1" opacity="0.75" />
			</g>
		</g>
		<g>
			<title>ypwA (LFBLBBEA_02727)
Carboxypeptidase 1</title>
			<polygon class="ypwA (LFBLBBEA_02727)
Carboxypeptidase 1" points="596,25 615,25 615,10 645,40 615,70 615,55 596,55" fill="rgb(255,255,255)" fill-opacity="1.0" stroke="rgb(0,0,0)" stroke-width="2"  />
			<g>
				<title>Peptidase_M32 (PF02074)
"Carboxypeptidase Taq (M32) metallopeptidase"</title>
				<polygon class="PF02074" points="596,28 629,28 641,40 629,52 596,52" stroke-linejoin="round" width="48" height="24" fill="rgb(213,142,93)" stroke="rgb(170,113,74)" stroke-width="1" opacity="0.75" />
			</g>
		</g>
		<g>
			<title> (LFBLBBEA_02728)
hypothetical protein</title>
			<polygon class=" (LFBLBBEA_02728)
hypothetical protein" points="652,40 669,10 669,70" fill="rgb(255,255,255)" fill-opacity="1.0" stroke="rgb(0,0,0)" stroke-width="2"  />
		</g>
		<g>
			<title> (LFBLBBEA_02729)
Alpha-pyrone synthesis polyketide synthase-like Pks11</title>
			<polygon class=" (LFBLBBEA_02729)
Alpha-pyrone synthesis polyketide synthase-like Pks11" points="676,25 682,25 682,10 712,40 682,70 682,55 676,55" fill="rgb(255,255,255)" fill-opacity="1.0" stroke="rgb(0,0,0)" stroke-width="2"  />
			<g>
				<title>Chal_sti_synt_N (PF00195)
"Chalcone and stilbene synthases, N-terminal domain"</title>
				<polygon class="PF00195" points="681,28 695,28 696,29 696,51 695,52 681,52" stroke-linejoin="round" width="15" height="24" fill="rgb(60,181,161)" stroke="rgb(47,144,128)" stroke-width="1" opacity="0.75" />
			</g>
		</g>
		<g>
			<title> (LFBLBBEA_02730)
hypothetical protein</title>
			<polygon class=" (LFBLBBEA_02730)
hypothetical protein" points="712,10 728,40 712,70" fill="rgb(255,255,255)" fill-opacity="1.0" stroke="rgb(0,0,0)" stroke-width="2"  />
			<g>
				<title>ICMT (PF04140)
"Isoprenylcysteine carboxyl methyltransferase (ICMT) family"</title>
				<polygon class="PF04140" points="719,29 725,40 719,51" stroke-linejoin="round" width="9" height="24" fill="rgb(100,223,104)" stroke="rgb(80,178,83)" stroke-width="1" opacity="0.75" />
			</g>
		</g>
		<g>
			<title> (LFBLBBEA_02731)
hypothetical protein</title>
			<polygon class=" (LFBLBBEA_02731)
hypothetical protein" points="732,10 742,40 732,70" fill="rgb(255,255,255)" fill-opacity="1.0" stroke="rgb(0,0,0)" stroke-width="2"  />
		</g>
		<g>
			<title>rnhA (LFBLBBEA_02732)
14.7 kDa ribonuclease H-like protein</title>
			<polygon class="rnhA (LFBLBBEA_02732)
14.7 kDa ribonuclease H-like protein" points="742,40 754,10 754,70" fill="rgb(255,255,255)" fill-opacity="1.0" stroke="rgb(0,0,0)" stroke-width="2"  />
			<g>
				<title>RNase_H (PF00075)
"RNase H"</title>
				<polygon class="PF00075" points="745,40 750,28 754,28 754,52 750,52" stroke-linejoin="round" width="12" height="24" fill="rgb(225,86,224)" stroke="rgb(180,68,179)" stroke-width="1" opacity="0.75" />
			</g>
		</g>
		<g>
			<title>fhs1 (LFBLBBEA_02733)
Formate--tetrahydrofolate ligase 1</title>
			<polygon class="fhs1 (LFBLBBEA_02733)
Formate--tetrahydrofolate ligase 1" points="763,25 788,25 788,10 818,40 788,70 788,55 763,55" fill="rgb(255,255,255)" fill-opacity="1.0" stroke="rgb(0,0,0)" stroke-width="2"  />
			<g>
				<title>FTHFS (PF01268)
"Formate--tetrahydrofolate ligase"</title>
				<polygon class="PF01268" points="763,28 802,28 814,40 802,52 763,52" stroke-linejoin="round" width="55" height="24" fill="rgb(215,182,81)" stroke="rgb(172,145,64)" stroke-width="1" opacity="0.75" />
			</g>
		</g>
		<g>
			<title> (LFBLBBEA_02734)
hypothetical protein</title>
			<polygon class=" (LFBLBBEA_02734)
hypothetical protein" points="819,10 847,40 819,70" fill="rgb(255,255,255)" fill-opacity="1.0" stroke="rgb(0,0,0)" stroke-width="2"  />
			<g>
				<title>DUF72 (PF01904)
"Protein of unknown function DUF72"</title>
				<polygon class="PF01904" points="820,28 831,28 843,40 831,52 820,52" stroke-linejoin="round" width="24" height="24" fill="rgb(63,151,204)" stroke="rgb(50,120,163)" stroke-width="1" opacity="0.75" />
			</g>
		</g>
		<g>
			<title>yedJ (LFBLBBEA_02735)
putative protein YedJ</title>
			<polygon class="yedJ (LFBLBBEA_02735)
putative protein YedJ" points="848,10 868,40 848,70" fill="rgb(255,255,255)" fill-opacity="1.0" stroke="rgb(0,0,0)" stroke-width="2"  />
			<g>
				<title>HD (PF01966)
"HD domain"</title>
				<polygon class="PF01966" points="850,28 856,28 859,32 859,48 856,52 850,52" stroke-linejoin="round" width="9" height="24" fill="rgb(92,193,119)" stroke="rgb(73,154,95)" stroke-width="1" opacity="0.75" />
			</g>
		</g>
		<g>
			<title>thyA (LFBLBBEA_02736)
Thymidylate synthase</title>
			<polygon class="thyA (LFBLBBEA_02736)
Thymidylate synthase" points="868,25 869,25 869,10 899,40 869,70 869,55 868,55" fill="rgb(255,255,255)" fill-opacity="1.0" stroke="rgb(0,0,0)" stroke-width="2"  />
			<g>
				<title>Thymidylat_synt (PF00303)
"Thymidylate synthase"</title>
				<polygon class="PF00303" points="868,28 883,28 895,40 883,52 868,52" stroke-linejoin="round" width="31" height="24" fill="rgb(103,91,191)" stroke="rgb(82,72,152)" stroke-width="1" opacity="0.75" />
			</g>
		</g>
		<g>
			<title> (LFBLBBEA_02737)
IS1595 family transposase ISSsu9</title>
			<polygon class=" (LFBLBBEA_02737)
IS1595 family transposase ISSsu9" points="901,10 917,40 901,70" fill="rgb(255,255,255)" fill-opacity="1.0" stroke="rgb(0,0,0)" stroke-width="2"  />
			<g>
				<title>DHFR_1 (PF00186)
"Dihydrofolate reductase"</title>
				<polygon class="PF00186" points="901,28 907,28 914,40 907,52 901,52" stroke-linejoin="round" width="16" height="24" fill="rgb(150,188,63)" stroke="rgb(119,150,50)" stroke-width="1" opacity="0.75" />
			</g>
		</g>
		<g>
			<title>mobA (LFBLBBEA_02738)
putative molybdenum cofactor guanylyltransferase</title>
			<polygon class="mobA (LFBLBBEA_02738)
putative molybdenum cofactor guanylyltransferase" points="919,10 937,40 919,70" fill="rgb(255,255,255)" fill-opacity="1.0" stroke="rgb(0,0,0)" stroke-width="2"  />
			<g>
				<title>NTP_transf_3 (PF12804)
"MobA-like NTP transferase domain"</title>
				<polygon class="PF12804" points="919,28 926,28 933,40 933,40 926,52 919,52" stroke-linejoin="round" width="14" height="24" fill="rgb(52,209,196)" stroke="rgb(41,167,156)" stroke-width="1" opacity="0.75" />
			</g>
		</g>
		<g>
			<title>tatAd_1 (LFBLBBEA_02739)
Sec-independent protein translocase protein TatAd</title>
			<polygon class="tatAd_1 (LFBLBBEA_02739)
Sec-independent protein translocase protein TatAd" points="940,10 946,40 940,70" fill="rgb(255,255,255)" fill-opacity="1.0" stroke="rgb(0,0,0)" stroke-width="2"  />
			<g>
				<title>MttA_Hcf106 (PF02416)
"mttA/Hcf106 family"</title>
				<polygon class="PF02416" points="940,28 940,28 943,40 940,52 940,52" stroke-linejoin="round" width="5" height="24" fill="rgb(74,206,98)" stroke="rgb(59,164,78)" stroke-width="1" opacity="0.75" />
			</g>
		</g>
		<g>
			<title>tatAd_2 (LFBLBBEA_02740)
Sec-independent protein translocase protein TatAd</title>
			<polygon class="tatAd_2 (LFBLBBEA_02740)
Sec-independent protein translocase protein TatAd" points="947,10 953,40 947,70" fill="rgb(255,255,255)" fill-opacity="1.0" stroke="rgb(0,0,0)" stroke-width="2"  />
			<g>
				<title>MttA_Hcf106 (PF02416)
"mttA/Hcf106 family"</title>
				<polygon class="PF02416" points="947,28 947,28 950,40 947,52 947,52" stroke-linejoin="round" width="5" height="24" fill="rgb(74,206,98)" stroke="rgb(59,164,78)" stroke-width="1" opacity="0.75" />
			</g>
		</g>
		<g>
			<title>tatC1_1 (LFBLBBEA_02741)
Sec-independent protein translocase protein TatCd</title>
			<polygon class="tatC1_1 (LFBLBBEA_02741)
Sec-independent protein translocase protein TatCd" points="956,10 981,40 956,70" fill="rgb(255,255,255)" fill-opacity="1.0" stroke="rgb(0,0,0)" stroke-width="2"  />
			<g>
				<title>TatC (PF00902)
"Sec-independent protein translocase protein (TatC)"</title>
				<polygon class="PF00902" points="957,28 967,28 977,40 977,40 967,52 957,52" stroke-linejoin="round" width="20" height="24" fill="rgb(84,193,209)" stroke="rgb(67,154,167)" stroke-width="1" opacity="0.75" />
			</g>
		</g>
		<g>
			<title> (LFBLBBEA_02742)
hypothetical protein</title>
			<polygon class=" (LFBLBBEA_02742)
hypothetical protein" points="984,10 991,40 984,70" fill="rgb(255,255,255)" fill-opacity="1.0" stroke="rgb(0,0,0)" stroke-width="2"  />
			<g>
				<title>YozE_SAM_like (PF06855)
"YozE SAM-like fold"</title>
				<polygon class="PF06855" points="984,28 984,28 988,40 984,52 984,52" stroke-linejoin="round" width="6" height="24" fill="rgb(83,201,171)" stroke="rgb(66,160,136)" stroke-width="1" opacity="0.75" />
			</g>
		</g>
		<g>
			<title>sbcD (LFBLBBEA_02743)
Nuclease SbcCD subunit D</title>
			<polygon class="sbcD (LFBLBBEA_02743)
Nuclease SbcCD subunit D" points="994,25 1002,25 1002,10 1032,40 1002,70 1002,55 994,55" fill="rgb(255,255,255)" fill-opacity="1.0" stroke="rgb(0,0,0)" stroke-width="2"  />
			<g>
				<title>Metallophos (PF00149)
"Calcineurin-like phosphoesterase"</title>
				<rect class="PF00149" x="994" y="28" stroke-linejoin="round" width="21" height="24" fill="rgb(181,197,58)" stroke="rgb(144,157,46)" stroke-width="1" opacity="0.75" />
			</g>
			<g>
				<title>SbcD_C (PF12320)
"Type 5 capsule protein repressor C-terminal domain"</title>
				<polygon class="PF12320" points="1020,32 1028,40 1020,48" stroke-linejoin="round" width="9" height="24" fill="rgb(182,136,65)" stroke="rgb(145,108,52)" stroke-width="1" opacity="0.75" />
			</g>
		</g>
		<g>
			<title>smc_1 (LFBLBBEA_02744)
Chromosome partition protein Smc</title>
			<polygon class="smc_1 (LFBLBBEA_02744)
Chromosome partition protein Smc" points="1033,25 1106,25 1106,10 1136,40 1106,70 1106,55 1033,55" fill="rgb(255,255,255)" fill-opacity="1.0" stroke="rgb(0,0,0)" stroke-width="2"  />
			<g>
				<title>AAA_23 (PF13476)
"AAA domain"</title>
				<rect class="PF13476" x="1033" y="28" stroke-linejoin="round" width="30" height="24" fill="rgb(57,185,214)" stroke="rgb(45,147,171)" stroke-width="1" opacity="0.75" />
			</g>
			<g>
				<title>SbcCD_C (PF13558)
"Putative exonuclease SbcCD, C subunit"</title>
				<polygon class="PF13558" points="1124,32 1132,40 1132,40 1124,48" stroke-linejoin="round" width="8" height="24" fill="rgb(84,179,84)" stroke="rgb(67,143,67)" stroke-width="1" opacity="0.75" />
			</g>
		</g>
		<g>
			<title>ytmB (LFBLBBEA_02745)
putative protein YtmB</title>
			<polygon class="ytmB (LFBLBBEA_02745)
putative protein YtmB" points="1137,10 1145,40 1137,70" fill="rgb(255,255,255)" fill-opacity="1.0" stroke="rgb(0,0,0)" stroke-width="2"  />
			<g>
				<title>DUF2584 (PF10763)
"Protein of unknown function (DUF2584)"</title>
				<polygon class="PF10763" points="1137,28 1138,28 1142,40 1138,52 1137,52" stroke-linejoin="round" width="8" height="24" fill="rgb(118,211,56)" stroke="rgb(94,168,44)" stroke-width="1" opacity="0.75" />
			</g>
		</g>
		<g>
			<title>ung (LFBLBBEA_02746)
Uracil-DNA glycosylase</title>
			<polygon class="ung (LFBLBBEA_02746)
Uracil-DNA glycosylase" points="1149,10 1171,40 1149,70" fill="rgb(255,255,255)" fill-opacity="1.0" stroke="rgb(0,0,0)" stroke-width="2"  />
			<g>
				<title>UDG (PF03167)
"Uracil DNA glycosylase superfamily"</title>
				<polygon class="PF03167" points="1153,28 1159,28 1167,40 1159,52 1153,52" stroke-linejoin="round" width="16" height="24" fill="rgb(64,224,60)" stroke="rgb(51,179,48)" stroke-width="1" opacity="0.75" />
			</g>
		</g>
		<g>
			<title>msrB (LFBLBBEA_02747)
Peptide methionine sulfoxide reductase MsrB</title>
			<polygon class="msrB (LFBLBBEA_02747)
Peptide methionine sulfoxide reductase MsrB" points="1174,25 1195,25 1195,10 1225,40 1195,70 1195,55 1174,55" fill="rgb(255,255,255)" fill-opacity="1.0" stroke="rgb(0,0,0)" stroke-width="2"  />
			<g>
				<title>YqfQ (PF14181)
"YqfQ-like protein"</title>
				<rect class="PF14181" x="1175" y="28" stroke-linejoin="round" width="15" height="24" fill="rgb(207,119,57)" stroke="rgb(165,95,45)" stroke-width="1" opacity="0.75" />
			</g>
			<g>
				<title>PMSR (PF01625)
"Peptide methionine sulfoxide reductase"</title>
				<rect class="PF01625" x="1194" y="28" stroke-linejoin="round" width="15" height="24" fill="rgb(201,74,176)" stroke="rgb(160,59,140)" stroke-width="1" opacity="0.75" />
			</g>
			<g>
				<title>SelR (PF01641)
"SelR domain"</title>
				<polygon class="PF01641" points="1212,31 1221,40 1212,49" stroke-linejoin="round" width="12" height="24" fill="rgb(192,99,202)" stroke="rgb(153,79,161)" stroke-width="1" opacity="0.75" />
			</g>
		</g>
		<g>
			<title> (LFBLBBEA_02748)
hypothetical protein</title>
			<polygon class=" (LFBLBBEA_02748)
hypothetical protein" points="1228,10 1247,40 1228,70" fill="rgb(255,255,255)" fill-opacity="1.0" stroke="rgb(0,0,0)" stroke-width="2"  />
			<g>
				<title>TetR_N (PF00440)
"Bacterial regulatory proteins, tetR family"</title>
				<rect class="PF00440" x="1229" y="28" stroke-linejoin="round" width="4" height="24" fill="rgb(73,212,190)" stroke="rgb(58,169,152)" stroke-width="1" opacity="0.75" />
			</g>
		</g>
		<g>
			<title>mhqD (LFBLBBEA_02749)
Putative hydrolase MhqD</title>
			<polygon class="mhqD (LFBLBBEA_02749)
Putative hydrolase MhqD" points="1253,10 1273,40 1253,70" fill="rgb(255,255,255)" fill-opacity="1.0" stroke="rgb(0,0,0)" stroke-width="2"  />
			<g>
				<title>DLH (PF01738)
"Dienelactone hydrolase family"</title>
				<polygon class="PF01738" points="1258,28 1261,28 1269,40 1261,52 1258,52" stroke-linejoin="round" width="14" height="24" fill="rgb(188,185,48)" stroke="rgb(150,147,38)" stroke-width="1" opacity="0.75" />
			</g>
		</g>
		<g>
			<title> (LFBLBBEA_02750)
hypothetical protein</title>
			<polygon class=" (LFBLBBEA_02750)
hypothetical protein" points="1275,10 1281,40 1275,70" fill="rgb(255,255,255)" fill-opacity="1.0" stroke="rgb(0,0,0)" stroke-width="2"  />
		</g>
		<g>
			<title> (LFBLBBEA_02751)
hypothetical protein</title>
			<polygon class=" (LFBLBBEA_02751)
hypothetical protein" points="1289,10 1307,40 1289,70" fill="rgb(255,255,255)" fill-opacity="1.0" stroke="rgb(0,0,0)" stroke-width="2"  />
			<g>
				<title>His_Phos_1 (PF00300)
"Histidine phosphatase superfamily (branch 1)"</title>
				<polygon class="PF00300" points="1289,28 1296,28 1303,40 1296,52 1289,52" stroke-linejoin="round" width="17" height="24" fill="rgb(135,184,63)" stroke="rgb(107,147,50)" stroke-width="1" opacity="0.75" />
			</g>
		</g>
		<g>
			<title>fdxA (LFBLBBEA_02752)
Ferredoxin 7Fe</title>
			<polygon class="fdxA (LFBLBBEA_02752)
Ferredoxin 7Fe" points="1315,10 1319,40 1315,70" fill="rgb(255,255,255)" fill-opacity="1.0" stroke="rgb(0,0,0)" stroke-width="2"  />
			<g>
				<title>Fer4 (PF00037)
"4Fe-4S binding domain"</title>
				<polygon class="PF00037" points="1315,29 1316,40 1315,51" stroke-linejoin="round" width="2" height="24" fill="rgb(226,193,80)" stroke="rgb(180,154,64)" stroke-width="1" opacity="0.75" />
			</g>
		</g>
		<g>
			<title> (LFBLBBEA_02753)
putative oxidoreductase</title>
			<polygon class=" (LFBLBBEA_02753)
putative oxidoreductase" points="1326,10 1350,40 1326,70" fill="rgb(255,255,255)" fill-opacity="1.0" stroke="rgb(0,0,0)" stroke-width="2"  />
			<g>
				<title>adh_short (PF00106)
"short chain dehydrogenase"</title>
				<polygon class="PF00106" points="1326,28 1337,28 1345,38 1345,42 1337,52 1326,52" stroke-linejoin="round" width="19" height="24" fill="rgb(182,219,73)" stroke="rgb(145,175,58)" stroke-width="1" opacity="0.75" />
			</g>
		</g>
		<g>
			<title>acyP (LFBLBBEA_02754)
Acylphosphatase</title>
			<polygon class="acyP (LFBLBBEA_02754)
Acylphosphatase" points="1352,40 1361,10 1361,70" fill="rgb(255,255,255)" fill-opacity="1.0" stroke="rgb(0,0,0)" stroke-width="2"  />
			<g>
				<title>Acylphosphatase (PF00708)
"Acylphosphatase"</title>
				<polygon class="PF00708" points="1355,40 1359,28 1360,28 1360,52 1359,52" stroke-linejoin="round" width="8" height="24" fill="rgb(79,219,111)" stroke="rgb(63,175,88)" stroke-width="1" opacity="0.75" />
			</g>
		</g>
	</g>
</svg>
