<svg version="1.1" baseProfile="full" xmlns="http://www.w3.org/2000/svg" width="671.4666666666667" height="80">
	<g>
		<line x1="10" y1="40.0" x2="661.4666666666667" y2="40.0" style="stroke:rgb(70,70,70); stroke-width:3 "/>
		<g>
			<title> (LBHMFDMM_00531)
hypothetical protein</title>
			<polygon class=" (LBHMFDMM_00531)
hypothetical protein" points="10,10 14,40 10,70" fill="rgb(255,255,255)" fill-opacity="1.0" stroke="rgb(0,0,0)" stroke-width="2"  />
		</g>
		<g>
			<title> (LBHMFDMM_00532)
hypothetical protein</title>
			<polygon class=" (LBHMFDMM_00532)
hypothetical protein" points="18,10 22,40 18,70" fill="rgb(255,255,255)" fill-opacity="1.0" stroke="rgb(0,0,0)" stroke-width="2"  />
		</g>
		<g>
			<title> (LBHMFDMM_00533)
hypothetical protein</title>
			<polygon class=" (LBHMFDMM_00533)
hypothetical protein" points="26,10 30,40 26,70" fill="rgb(255,255,255)" fill-opacity="1.0" stroke="rgb(0,0,0)" stroke-width="2"  />
		</g>
		<g>
			<title>moeA (LBHMFDMM_00534)
Molybdopterin molybdenumtransferase</title>
			<polygon class="moeA (LBHMFDMM_00534)
Molybdopterin molybdenumtransferase" points="48,25 60,25 60,10 90,40 60,70 60,55 48,55" fill="rgb(255,255,255)" fill-opacity="1.0" stroke="rgb(0,0,0)" stroke-width="2"  />
			<g>
				<title>MoeA_N (PF03453)
"MoeA N-terminal region (domain I and II)"</title>
				<rect class="PF03453" x="48" y="28" stroke-linejoin="round" width="16" height="24" fill="rgb(93,188,107)" stroke="rgb(74,150,85)" stroke-width="1" opacity="0.75" />
			</g>
			<g>
				<title>MoCF_biosynth (PF00994)
"Probable molybdopterin binding domain"</title>
				<polygon class="PF00994" points="67,28 74,28 80,34 80,46 74,52 67,52" stroke-linejoin="round" width="13" height="24" fill="rgb(75,187,175)" stroke="rgb(60,149,139)" stroke-width="1" opacity="0.75" />
			</g>
			<g>
				<title>MoeA_C (PF03454)
"MoeA C-terminal region (domain IV)"</title>
				<polygon class="PF03454" points="82,36 86,40 82,44" stroke-linejoin="round" width="7" height="24" fill="rgb(59,190,161)" stroke="rgb(47,152,128)" stroke-width="1" opacity="0.75" />
			</g>
		</g>
		<g>
			<title>moaA (LBHMFDMM_00535)
GTP 3',8-cyclase</title>
			<polygon class="moaA (LBHMFDMM_00535)
GTP 3',8-cyclase" points="95,10 124,40 95,70" fill="rgb(255,255,255)" fill-opacity="1.0" stroke="rgb(0,0,0)" stroke-width="2"  />
			<g>
				<title>Radical_SAM (PF04055)
"Radical SAM superfamily"</title>
				<polygon class="PF04055" points="95,28 108,28 109,29 109,51 108,52 95,52" stroke-linejoin="round" width="14" height="24" fill="rgb(149,56,222)" stroke="rgb(119,44,177)" stroke-width="1" opacity="0.75" />
			</g>
			<g>
				<title>Mob_synth_C (PF06463)
"Molybdenum Cofactor Synthesis C"</title>
				<polygon class="PF06463" points="109,29 120,40 109,51" stroke-linejoin="round" width="12" height="24" fill="rgb(149,103,225)" stroke="rgb(119,82,180)" stroke-width="1" opacity="0.75" />
			</g>
		</g>
		<g>
			<title> (LBHMFDMM_00536)
hypothetical protein</title>
			<polygon class=" (LBHMFDMM_00536)
hypothetical protein" points="128,10 142,40 128,70" fill="rgb(255,255,255)" fill-opacity="1.0" stroke="rgb(0,0,0)" stroke-width="2"  />
			<g>
				<title>YwpF (PF14183)
"YwpF-like protein"</title>
				<polygon class="PF14183" points="128,28 133,28 138,40 133,52 128,52" stroke-linejoin="round" width="13" height="24" fill="rgb(199,178,73)" stroke="rgb(159,142,58)" stroke-width="1" opacity="0.75" />
			</g>
		</g>
		<g>
			<title>ktrB_1 (LBHMFDMM_00537)
Ktr system potassium uptake protein B</title>
			<polygon class="ktrB_1 (LBHMFDMM_00537)
Ktr system potassium uptake protein B" points="147,25 162,25 162,10 192,40 162,70 162,55 147,55" fill="rgb(255,255,255)" fill-opacity="1.0" stroke="rgb(0,0,0)" stroke-width="2"  />
			<g>
				<title>TrkH (PF02386)
"Cation transport protein"</title>
				<polygon class="PF02386" points="147,28 176,28 188,40 176,52 147,52" stroke-linejoin="round" width="43" height="24" fill="rgb(67,179,142)" stroke="rgb(53,143,113)" stroke-width="1" opacity="0.75" />
			</g>
		</g>
		<g>
			<title> (LBHMFDMM_00538)
hypothetical protein</title>
			<polygon class=" (LBHMFDMM_00538)
hypothetical protein" points="204,40 208,10 208,70" fill="rgb(255,255,255)" fill-opacity="1.0" stroke="rgb(0,0,0)" stroke-width="2"  />
			<g>
				<title>YjcZ_2 (PF09680)
"Family of unknown function"</title>
				<polygon class="PF09680" points="207,40 206,47 206,33" stroke-linejoin="round" width="2" height="24" fill="rgb(79,203,107)" stroke="rgb(63,162,85)" stroke-width="1" opacity="0.75" />
			</g>
		</g>
		<g>
			<title> (LBHMFDMM_00539)
hypothetical protein</title>
			<polygon class=" (LBHMFDMM_00539)
hypothetical protein" points="210,40 216,10 216,70" fill="rgb(255,255,255)" fill-opacity="1.0" stroke="rgb(0,0,0)" stroke-width="2"  />
		</g>
		<g>
			<title>crtN_1 (LBHMFDMM_00540)
4,4'-diapophytoene desaturase (4,4'-diapolycopene-forming)</title>
			<polygon class="crtN_1 (LBHMFDMM_00540)
4,4'-diapophytoene desaturase (4,4'-diapolycopene-forming)" points="226,25 245,25 245,10 275,40 245,70 245,55 226,55" fill="rgb(255,255,255)" fill-opacity="1.0" stroke="rgb(0,0,0)" stroke-width="2"  />
			<g>
				<title>Amino_oxidase (PF01593)
"Flavin containing amine oxidoreductase"</title>
				<polygon class="PF01593" points="227,28 259,28 271,40 259,52 227,52" stroke-linejoin="round" width="47" height="24" fill="rgb(184,74,52)" stroke="rgb(147,59,41)" stroke-width="1" opacity="0.75" />
			</g>
		</g>
		<g>
			<title>crtNc (LBHMFDMM_00541)
4,4'-diapolycopen-4-al dehydrogenase</title>
			<polygon class="crtNc (LBHMFDMM_00541)
4,4'-diapolycopen-4-al dehydrogenase" points="275,25 294,25 294,10 324,40 294,70 294,55 275,55" fill="rgb(255,255,255)" fill-opacity="1.0" stroke="rgb(0,0,0)" stroke-width="2"  />
			<g>
				<title>Amino_oxidase (PF01593)
"Flavin containing amine oxidoreductase"</title>
				<polygon class="PF01593" points="276,28 307,28 319,40 307,52 276,52" stroke-linejoin="round" width="46" height="24" fill="rgb(184,74,52)" stroke="rgb(147,59,41)" stroke-width="1" opacity="0.75" />
			</g>
		</g>
		<g>
			<title>crtB (LBHMFDMM_00542)
15-cis-phytoene synthase</title>
			<polygon class="crtB (LBHMFDMM_00542)
15-cis-phytoene synthase" points="325,10 352,40 325,70" fill="rgb(255,255,255)" fill-opacity="1.0" stroke="rgb(0,0,0)" stroke-width="2"  />
			<g>
				<title>SQS_PSY (PF00494)
"Squalene/phytoene synthase"</title>
				<polygon class="PF00494" points="326,28 337,28 348,40 337,52 326,52" stroke-linejoin="round" width="25" height="24" fill="rgb(178,91,49)" stroke="rgb(142,72,39)" stroke-width="1" opacity="0.75" />
			</g>
		</g>
		<g>
			<title> (LBHMFDMM_00543)
hypothetical protein</title>
			<polygon class=" (LBHMFDMM_00543)
hypothetical protein" points="355,10 368,40 355,70" fill="rgb(255,255,255)" fill-opacity="1.0" stroke="rgb(0,0,0)" stroke-width="2"  />
		</g>
		<g>
			<title> (LBHMFDMM_00544)
hypothetical protein</title>
			<polygon class=" (LBHMFDMM_00544)
hypothetical protein" points="371,10 379,40 371,70" fill="rgb(255,255,255)" fill-opacity="1.0" stroke="rgb(0,0,0)" stroke-width="2"  />
		</g>
		<g>
			<title> (LBHMFDMM_00545)
hypothetical protein</title>
			<polygon class=" (LBHMFDMM_00545)
hypothetical protein" points="382,10 386,40 382,70" fill="rgb(255,255,255)" fill-opacity="1.0" stroke="rgb(0,0,0)" stroke-width="2"  />
		</g>
		<g>
			<title>tadA_1 (LBHMFDMM_00546)
tRNA-specific adenosine deaminase</title>
			<polygon class="tadA_1 (LBHMFDMM_00546)
tRNA-specific adenosine deaminase" points="390,10 404,40 390,70" fill="rgb(255,255,255)" fill-opacity="1.0" stroke="rgb(0,0,0)" stroke-width="2"  />
			<g>
				<title>dCMP_cyt_deam_1 (PF00383)
"Cytidine and deoxycytidylate deaminase zinc-binding region"</title>
				<polygon class="PF00383" points="390,28 395,28 400,38 400,42 395,52 390,52" stroke-linejoin="round" width="10" height="24" fill="rgb(91,149,216)" stroke="rgb(72,119,172)" stroke-width="1" opacity="0.75" />
			</g>
		</g>
		<g>
			<title>dppA (LBHMFDMM_00547)
D-aminopeptidase</title>
			<polygon class="dppA (LBHMFDMM_00547)
D-aminopeptidase" points="412,10 439,40 412,70" fill="rgb(255,255,255)" fill-opacity="1.0" stroke="rgb(0,0,0)" stroke-width="2"  />
			<g>
				<title>Peptidase_M55 (PF04951)
"D-aminopeptidase"</title>
				<polygon class="PF04951" points="412,28 423,28 435,40 423,52 412,52" stroke-linejoin="round" width="26" height="24" fill="rgb(94,138,195)" stroke="rgb(75,110,156)" stroke-width="1" opacity="0.75" />
			</g>
		</g>
		<g>
			<title>dppB_2 (LBHMFDMM_00548)
Dipeptide transport system permease protein DppB</title>
			<polygon class="dppB_2 (LBHMFDMM_00548)
Dipeptide transport system permease protein DppB" points="440,25 441,25 441,10 471,40 441,70 441,55 440,55" fill="rgb(255,255,255)" fill-opacity="1.0" stroke="rgb(0,0,0)" stroke-width="2"  />
			<g>
				<title>BPD_transp_1 (PF00528)
"Binding-protein-dependent transport system inner membrane component"</title>
				<polygon class="PF00528" points="451,28 454,28 466,40 454,52 451,52" stroke-linejoin="round" width="19" height="24" fill="rgb(77,208,225)" stroke="rgb(61,166,180)" stroke-width="1" opacity="0.75" />
			</g>
		</g>
		<g>
			<title>dppC (LBHMFDMM_00549)
Dipeptide transport system permease protein DppC</title>
			<polygon class="dppC (LBHMFDMM_00549)
Dipeptide transport system permease protein DppC" points="471,25 472,25 472,10 502,40 472,70 472,55 471,55" fill="rgb(255,255,255)" fill-opacity="1.0" stroke="rgb(0,0,0)" stroke-width="2"  />
			<g>
				<title>OppC_N (PF12911)
"N-terminal TM domain of oligopeptide transport permease C"</title>
				<rect class="PF12911" x="475" y="28" stroke-linejoin="round" width="5" height="24" fill="rgb(167,178,88)" stroke="rgb(133,142,70)" stroke-width="1" opacity="0.75" />
			</g>
			<g>
				<title>BPD_transp_1 (PF00528)
"Binding-protein-dependent transport system inner membrane component"</title>
				<polygon class="PF00528" points="484,28 486,28 498,40 486,52 484,52" stroke-linejoin="round" width="18" height="24" fill="rgb(77,208,225)" stroke="rgb(61,166,180)" stroke-width="1" opacity="0.75" />
			</g>
		</g>
		<g>
			<title>oppD_2 (LBHMFDMM_00550)
Oligopeptide transport ATP-binding protein OppD</title>
			<polygon class="oppD_2 (LBHMFDMM_00550)
Oligopeptide transport ATP-binding protein OppD" points="503,25 506,25 506,10 536,40 506,70 506,55 503,55" fill="rgb(255,255,255)" fill-opacity="1.0" stroke="rgb(0,0,0)" stroke-width="2"  />
			<g>
				<title>ABC_tran (PF00005)
"ABC transporter"</title>
				<polygon class="PF00005" points="505,28 520,28 521,29 521,51 520,52 505,52" stroke-linejoin="round" width="16" height="24" fill="rgb(129,201,63)" stroke="rgb(103,160,50)" stroke-width="1" opacity="0.75" />
			</g>
			<g>
				<title>oligo_HPY (PF08352)
"Oligopeptide/dipeptide transporter, C-terminal region"</title>
				<polygon class="PF08352" points="526,34 532,40 532,40 526,46" stroke-linejoin="round" width="6" height="24" fill="rgb(90,183,173)" stroke="rgb(72,146,138)" stroke-width="1" opacity="0.75" />
			</g>
		</g>
		<g>
			<title>dppE_2 (LBHMFDMM_00551)
Dipeptide-binding protein DppE</title>
			<polygon class="dppE_2 (LBHMFDMM_00551)
Dipeptide-binding protein DppE" points="537,25 561,25 561,10 591,40 561,70 561,55 537,55" fill="rgb(255,255,255)" fill-opacity="1.0" stroke="rgb(0,0,0)" stroke-width="2"  />
			<g>
				<title>SBP_bac_5 (PF00496)
"Bacterial extracellular solute-binding proteins, family 5 Middle"</title>
				<polygon class="PF00496" points="545,28 574,28 583,37 583,43 574,52 545,52" stroke-linejoin="round" width="38" height="24" fill="rgb(199,94,116)" stroke="rgb(159,75,92)" stroke-width="1" opacity="0.75" />
			</g>
		</g>
		<g>
			<title>ykfA_1 (LBHMFDMM_00552)
putative murein peptide carboxypeptidase</title>
			<polygon class="ykfA_1 (LBHMFDMM_00552)
putative murein peptide carboxypeptidase" points="593,25 593,25 593,10 623,40 593,70 593,55 593,55" fill="rgb(255,255,255)" fill-opacity="1.0" stroke="rgb(0,0,0)" stroke-width="2"  />
			<g>
				<title>Peptidase_S66 (PF02016)
"LD-carboxypeptidase N-terminal domain"</title>
				<rect class="PF02016" x="594" y="28" stroke-linejoin="round" width="11" height="24" fill="rgb(187,63,139)" stroke="rgb(149,50,111)" stroke-width="1" opacity="0.75" />
			</g>
			<g>
				<title>Peptidase_S66C (PF17676)
"LD-carboxypeptidase C-terminal domain"</title>
				<polygon class="PF17676" points="610,31 619,40 610,49" stroke-linejoin="round" width="11" height="24" fill="rgb(72,81,192)" stroke="rgb(57,64,153)" stroke-width="1" opacity="0.75" />
			</g>
		</g>
		<g>
			<title>ykfB (LBHMFDMM_00553)
L-Ala-D/L-Glu epimerase</title>
			<polygon class="ykfB (LBHMFDMM_00553)
L-Ala-D/L-Glu epimerase" points="624,25 630,25 630,10 660,40 630,70 630,55 624,55" fill="rgb(255,255,255)" fill-opacity="1.0" stroke="rgb(0,0,0)" stroke-width="2"  />
			<g>
				<title>MR_MLE_N (PF02746)
"Mandelate racemase / muconate lactonizing enzyme, N-terminal domain"</title>
				<rect class="PF02746" x="624" y="28" stroke-linejoin="round" width="12" height="24" fill="rgb(63,73,226)" stroke="rgb(50,58,180)" stroke-width="1" opacity="0.75" />
			</g>
			<g>
				<title>MR_MLE_C (PF13378)
"Enolase C-terminal domain-like"</title>
				<polygon class="PF13378" points="638,28 644,28 656,40 644,52 638,52" stroke-linejoin="round" width="21" height="24" fill="rgb(191,184,94)" stroke="rgb(152,147,75)" stroke-width="1" opacity="0.75" />
			</g>
		</g>
	</g>
</svg>
