<svg version="1.1" baseProfile="full" xmlns="http://www.w3.org/2000/svg" width="558.4" height="80">
	<g>
		<line x1="10" y1="40.0" x2="548.4" y2="40.0" style="stroke:rgb(70,70,70); stroke-width:3 "/>
		<g>
			<title>dcuR_1 (CJMCAHAL_01018)
Transcriptional regulatory protein DcuR</title>
			<polygon class="dcuR_1 (CJMCAHAL_01018)
Transcriptional regulatory protein DcuR" points="53,40 76,10 76,70" fill="rgb(255,255,255)" fill-opacity="1.0" stroke="rgb(0,0,0)" stroke-width="2"  />
			<g>
				<title>HTH_11 (PF08279)
"HTH domain"</title>
				<polygon class="PF08279" points="57,40 59,37 59,43" stroke-linejoin="round" width="5" height="24" fill="rgb(188,106,60)" stroke="rgb(150,84,48)" stroke-width="1" opacity="0.75" />
			</g>
			<g>
				<title>Response_reg (PF00072)
"Response regulator receiver domain"</title>
				<polygon class="PF00072" points="65,30 66,28 76,28 76,52 66,52 65,50" stroke-linejoin="round" width="11" height="24" fill="rgb(100,107,203)" stroke="rgb(80,85,162)" stroke-width="1" opacity="0.75" />
			</g>
		</g>
		<g>
			<title>dcuS_1 (CJMCAHAL_01019)
Sensor histidine kinase DcuS</title>
			<polygon class="dcuS_1 (CJMCAHAL_01019)
Sensor histidine kinase DcuS" points="129,25 106,25 106,10 76,40 106,70 106,55 129,55" fill="rgb(255,255,255)" fill-opacity="1.0" stroke="rgb(0,0,0)" stroke-width="2"  />
			<g>
				<title>HATPase_c (PF02518)
"Histidine kinase-, DNA gyrase B-, and HSP90-like ATPase"</title>
				<polygon class="PF02518" points="80,40 86,34 86,46" stroke-linejoin="round" width="10" height="24" fill="rgb(80,94,225)" stroke="rgb(64,75,180)" stroke-width="1" opacity="0.75" />
			</g>
			<g>
				<title>SPOB_a (PF14689)
"Sensor_kinase_SpoOB-type, alpha-helical domain"</title>
				<polygon class="PF14689" points="91,29 92,28 97,28 97,52 92,52 91,51" stroke-linejoin="round" width="6" height="24" fill="rgb(215,217,87)" stroke="rgb(172,173,69)" stroke-width="1" opacity="0.75" />
			</g>
			<g>
				<title>PAS (PF00989)
"PAS fold"</title>
				<rect class="PF00989" x="98" y="28" stroke-linejoin="round" width="10" height="24" fill="rgb(205,221,64)" stroke="rgb(164,176,51)" stroke-width="1" opacity="0.75" />
			</g>
			<g>
				<title>sCache_3_2 (PF17203)
"Single cache domain 3"</title>
				<rect class="PF17203" x="112" y="28" stroke-linejoin="round" width="13" height="24" fill="rgb(209,153,67)" stroke="rgb(167,122,53)" stroke-width="1" opacity="0.75" />
			</g>
		</g>
		<g>
			<title>lysC (CJMCAHAL_01020)
Aspartokinase</title>
			<polygon class="lysC (CJMCAHAL_01020)
Aspartokinase" points="175,25 165,25 165,10 135,40 165,70 165,55 175,55" fill="rgb(255,255,255)" fill-opacity="1.0" stroke="rgb(0,0,0)" stroke-width="2"  />
			<g>
				<title>AA_kinase (PF00696)
"Amino acid kinase family"</title>
				<rect class="PF00696" x="152" y="28" stroke-linejoin="round" width="22" height="24" fill="rgb(148,78,224)" stroke="rgb(118,62,179)" stroke-width="1" opacity="0.75" />
			</g>
		</g>
		<g>
			<title>iucC (CJMCAHAL_01021)
Aerobactin synthase</title>
			<polygon class="iucC (CJMCAHAL_01021)
Aerobactin synthase" points="236,25 206,25 206,10 176,40 206,70 206,55 236,55" fill="rgb(255,255,255)" fill-opacity="1.0" stroke="rgb(0,0,0)" stroke-width="2"  />
			<g>
				<title>FhuF (PF06276)
"Ferric iron reductase FhuF-like transporter"</title>
				<polygon class="PF06276" points="180,40 192,28 194,28 194,52 192,52" stroke-linejoin="round" width="16" height="24" fill="rgb(76,151,221)" stroke="rgb(60,120,176)" stroke-width="1" opacity="0.75" />
			</g>
			<g>
				<title>IucA_IucC (PF04183)
"IucA / IucC family"</title>
				<rect class="PF04183" x="197" y="28" stroke-linejoin="round" width="25" height="24" fill="rgb(221,104,121)" stroke="rgb(176,83,96)" stroke-width="1" opacity="0.75" />
			</g>
		</g>
		<g>
			<title>iucD_1 (CJMCAHAL_01022)
L-lysine N6-monooxygenase</title>
			<polygon class="iucD_1 (CJMCAHAL_01022)
L-lysine N6-monooxygenase" points="304,25 290,25 290,10 260,40 290,70 290,55 304,55" fill="rgb(255,255,255)" fill-opacity="1.0" stroke="rgb(0,0,0)" stroke-width="2"  />
			<g>
				<title>K_oxygenase (PF13434)
"L-lysine 6-monooxygenase (NADPH-requiring)"</title>
				<polygon class="PF13434" points="269,35 276,28 303,28 303,52 276,52 269,45" stroke-linejoin="round" width="34" height="24" fill="rgb(81,213,119)" stroke="rgb(64,170,95)" stroke-width="1" opacity="0.75" />
			</g>
		</g>
		<g>
			<title>iucB (CJMCAHAL_01023)
N(6)-hydroxylysine O-acetyltransferase</title>
			<polygon class="iucB (CJMCAHAL_01023)
N(6)-hydroxylysine O-acetyltransferase" points="303,40 322,10 322,70" fill="rgb(255,255,255)" fill-opacity="1.0" stroke="rgb(0,0,0)" stroke-width="2"  />
			<g>
				<title>Acetyltransf_8 (PF13523)
"Acetyltransferase (GNAT) domain"</title>
				<polygon class="PF13523" points="307,40 315,28 319,28 319,52 315,52" stroke-linejoin="round" width="14" height="24" fill="rgb(106,224,203)" stroke="rgb(84,179,162)" stroke-width="1" opacity="0.75" />
			</g>
		</g>
		<g>
			<title>iucA (CJMCAHAL_01024)
N(2)-citryl-N(6)-acetyl-N(6)-hydroxylysine synthase</title>
			<polygon class="iucA (CJMCAHAL_01024)
N(2)-citryl-N(6)-acetyl-N(6)-hydroxylysine synthase" points="380,25 352,25 352,10 322,40 352,70 352,55 380,55" fill="rgb(255,255,255)" fill-opacity="1.0" stroke="rgb(0,0,0)" stroke-width="2"  />
			<g>
				<title>FhuF (PF06276)
"Ferric iron reductase FhuF-like transporter"</title>
				<polygon class="PF06276" points="326,40 338,28 339,28 339,52 338,52" stroke-linejoin="round" width="15" height="24" fill="rgb(76,151,221)" stroke="rgb(60,120,176)" stroke-width="1" opacity="0.75" />
			</g>
			<g>
				<title>IucA_IucC (PF04183)
"IucA / IucC family"</title>
				<rect class="PF04183" x="343" y="28" stroke-linejoin="round" width="23" height="24" fill="rgb(221,104,121)" stroke="rgb(176,83,96)" stroke-width="1" opacity="0.75" />
			</g>
		</g>
		<g>
			<title>ddc (CJMCAHAL_01025)
L-2,4-diaminobutyrate decarboxylase</title>
			<polygon class="ddc (CJMCAHAL_01025)
L-2,4-diaminobutyrate decarboxylase" points="431,25 411,25 411,10 381,40 411,70 411,55 431,55" fill="rgb(255,255,255)" fill-opacity="1.0" stroke="rgb(0,0,0)" stroke-width="2"  />
			<g>
				<title>Pyridoxal_deC (PF00282)
"Pyridoxal-dependent decarboxylase conserved domain"</title>
				<polygon class="PF00282" points="388,37 397,28 425,28 425,52 397,52 388,43" stroke-linejoin="round" width="37" height="24" fill="rgb(100,218,166)" stroke="rgb(80,174,132)" stroke-width="1" opacity="0.75" />
			</g>
		</g>
		<g>
			<title>dat_2 (CJMCAHAL_01026)
Diaminobutyrate--2-oxoglutarate aminotransferase</title>
			<polygon class="dat_2 (CJMCAHAL_01026)
Diaminobutyrate--2-oxoglutarate aminotransferase" points="477,25 462,25 462,10 432,40 462,70 462,55 477,55" fill="rgb(255,255,255)" fill-opacity="1.0" stroke="rgb(0,0,0)" stroke-width="2"  />
			<g>
				<title>Aminotran_3 (PF00202)
"Aminotransferase class-III"</title>
				<polygon class="PF00202" points="436,40 448,28 474,28 474,52 448,52" stroke-linejoin="round" width="42" height="24" fill="rgb(49,163,189)" stroke="rgb(39,130,151)" stroke-width="1" opacity="0.75" />
			</g>
		</g>
		<g>
			<title>nlhH (CJMCAHAL_01027)
Carboxylesterase NlhH</title>
			<polygon class="nlhH (CJMCAHAL_01027)
Carboxylesterase NlhH" points="519,25 517,25 517,10 487,40 517,70 517,55 519,55" fill="rgb(255,255,255)" fill-opacity="1.0" stroke="rgb(0,0,0)" stroke-width="2"  />
			<g>
				<title>Abhydrolase_3 (PF07859)
"alpha/beta hydrolase fold"</title>
				<polygon class="PF07859" points="491,40 503,28 509,28 509,52 503,52" stroke-linejoin="round" width="20" height="24" fill="rgb(183,51,179)" stroke="rgb(146,40,143)" stroke-width="1" opacity="0.75" />
			</g>
		</g>
		<g>
			<title> (CJMCAHAL_01028)
hypothetical protein</title>
			<polygon class=" (CJMCAHAL_01028)
hypothetical protein" points="518,40 539,10 539,70" fill="rgb(255,255,255)" fill-opacity="1.0" stroke="rgb(0,0,0)" stroke-width="2"  />
			<g>
				<title>Acetyltransf_8 (PF13523)
"Acetyltransferase (GNAT) domain"</title>
				<polygon class="PF13523" points="522,40 530,28 536,28 536,52 530,52 522,40" stroke-linejoin="round" width="14" height="24" fill="rgb(106,224,203)" stroke="rgb(84,179,162)" stroke-width="1" opacity="0.75" />
			</g>
		</g>
	</g>
</svg>
