<svg version="1.1" baseProfile="full" xmlns="http://www.w3.org/2000/svg" width="262.2" height="80">
	<g>
		<line x1="10" y1="40.0" x2="252.2" y2="40.0" style="stroke:rgb(70,70,70); stroke-width:3 "/>
		<g>
			<title>hisC_1 (PLNGCNKA_03310)
Histidinol-phosphate aminotransferase</title>
			<polygon class="hisC_1 (PLNGCNKA_03310)
Histidinol-phosphate aminotransferase" points="59,25 52,25 52,10 22,40 52,70 52,55 59,55" fill="rgb(255,255,255)" fill-opacity="1.0" stroke="rgb(0,0,0)" stroke-width="2"  />
			<g>
				<title>Aminotran_1_2 (PF00155)
"Aminotransferase class I and II"</title>
				<polygon class="PF00155" points="26,40 38,28 55,28 55,52 38,52" stroke-linejoin="round" width="32" height="24" fill="rgb(89,113,198)" stroke="rgb(71,90,158)" stroke-width="1" opacity="0.75" />
			</g>
		</g>
		<g>
			<title>ectC (PLNGCNKA_03311)
L-ectoine synthase</title>
			<polygon class="ectC (PLNGCNKA_03311)
L-ectoine synthase" points="72,40 85,10 85,70" fill="rgb(255,255,255)" fill-opacity="1.0" stroke="rgb(0,0,0)" stroke-width="2"  />
			<g>
				<title>Ectoine_synth (PF06339)
"Ectoine synthase"</title>
				<polygon class="PF06339" points="75,40 80,28 84,28 84,52 80,52" stroke-linejoin="round" width="12" height="24" fill="rgb(225,176,81)" stroke="rgb(180,140,64)" stroke-width="1" opacity="0.75" />
			</g>
		</g>
		<g>
			<title>ectB (PLNGCNKA_03312)
Diaminobutyrate--2-oxoglutarate transaminase</title>
			<polygon class="ectB (PLNGCNKA_03312)
Diaminobutyrate--2-oxoglutarate transaminase" points="128,25 115,25 115,10 85,40 115,70 115,55 128,55" fill="rgb(255,255,255)" fill-opacity="1.0" stroke="rgb(0,0,0)" stroke-width="2"  />
			<g>
				<title>Aminotran_3 (PF00202)
"Aminotransferase class-III"</title>
				<polygon class="PF00202" points="89,40 101,28 125,28 125,52 101,52" stroke-linejoin="round" width="39" height="24" fill="rgb(49,163,189)" stroke="rgb(39,130,151)" stroke-width="1" opacity="0.75" />
			</g>
		</g>
		<g>
			<title>ectA (PLNGCNKA_03313)
L-2,4-diaminobutyric acid acetyltransferase</title>
			<polygon class="ectA (PLNGCNKA_03313)
L-2,4-diaminobutyric acid acetyltransferase" points="129,40 145,10 145,70" fill="rgb(255,255,255)" fill-opacity="1.0" stroke="rgb(0,0,0)" stroke-width="2"  />
			<g>
				<title>Acetyltransf_1 (PF00583)
"Acetyltransferase (GNAT) family"</title>
				<polygon class="PF00583" points="132,40 139,28 143,28 143,52 139,52 132,40" stroke-linejoin="round" width="11" height="24" fill="rgb(121,183,50)" stroke="rgb(96,146,39)" stroke-width="1" opacity="0.75" />
			</g>
		</g>
		<g>
			<title>opuD_3 (PLNGCNKA_03314)
Glycine betaine transporter OpuD</title>
			<polygon class="opuD_3 (PLNGCNKA_03314)
Glycine betaine transporter OpuD" points="163,25 183,25 183,10 213,40 183,70 183,55 163,55" fill="rgb(255,255,255)" fill-opacity="1.0" stroke="rgb(0,0,0)" stroke-width="2"  />
			<g>
				<title>BCCT (PF02028)
"BCCT, betaine/carnitine/choline family transporter"</title>
				<polygon class="PF02028" points="163,28 197,28 209,40 197,52 163,52" stroke-linejoin="round" width="48" height="24" fill="rgb(206,109,74)" stroke="rgb(164,87,59)" stroke-width="1" opacity="0.75" />
			</g>
		</g>
		<g>
			<title> (PLNGCNKA_03315)
hypothetical protein</title>
			<polygon class=" (PLNGCNKA_03315)
hypothetical protein" points="218,10 232,40 218,70" fill="rgb(255,255,255)" fill-opacity="1.0" stroke="rgb(0,0,0)" stroke-width="2"  />
		</g>
		<g>
			<title> (PLNGCNKA_03316)
Sulfurtransferase</title>
			<polygon class=" (PLNGCNKA_03316)
Sulfurtransferase" points="236,40 246,10 246,70" fill="rgb(255,255,255)" fill-opacity="1.0" stroke="rgb(0,0,0)" stroke-width="2"  />
			<g>
				<title>Rhodanese (PF00581)
"Rhodanese-like domain"</title>
				<polygon class="PF00581" points="239,40 243,28 245,28 245,52 243,52" stroke-linejoin="round" width="9" height="24" fill="rgb(145,191,76)" stroke="rgb(116,152,60)" stroke-width="1" opacity="0.75" />
			</g>
		</g>
	</g>
</svg>
