<svg version="1.1" baseProfile="full" xmlns="http://www.w3.org/2000/svg" width="1389.5333333333333" height="80">
	<g>
		<line x1="10" y1="40.0" x2="1379.5333333333333" y2="40.0" style="stroke:rgb(70,70,70); stroke-width:3 "/>
		<g>
			<title> (JODBFFBH_00088)
hypothetical protein</title>
			<polygon class=" (JODBFFBH_00088)
hypothetical protein" points="14,40 32,10 32,70" fill="rgb(255,255,255)" fill-opacity="1.0" stroke="rgb(0,0,0)" stroke-width="2"  />
			<g>
				<title>His_Phos_1 (PF00300)
"Histidine phosphatase superfamily (branch 1)"</title>
				<polygon class="PF00300" points="18,40 25,28 31,28 31,52 25,52" stroke-linejoin="round" width="17" height="24" fill="rgb(135,184,63)" stroke="rgb(107,147,50)" stroke-width="1" opacity="0.75" />
			</g>
		</g>
		<g>
			<title> (JODBFFBH_00089)
hypothetical protein</title>
			<polygon class=" (JODBFFBH_00089)
hypothetical protein" points="40,40 46,10 46,70" fill="rgb(255,255,255)" fill-opacity="1.0" stroke="rgb(0,0,0)" stroke-width="2"  />
		</g>
		<g>
			<title> (JODBFFBH_00090)
hypothetical protein</title>
			<polygon class=" (JODBFFBH_00090)
hypothetical protein" points="85,25 80,25 80,10 50,40 80,70 80,55 85,55" fill="rgb(255,255,255)" fill-opacity="1.0" stroke="rgb(0,0,0)" stroke-width="2"  />
			<g>
				<title>AbrB (PF05145)
"Transition state regulatory protein AbrB"</title>
				<polygon class="PF05145" points="54,40 66,28 82,28 82,52 66,52" stroke-linejoin="round" width="31" height="24" fill="rgb(95,98,223)" stroke="rgb(76,78,178)" stroke-width="1" opacity="0.75" />
			</g>
		</g>
		<g>
			<title>msrB_1 (JODBFFBH_00091)
Peptide methionine sulfoxide reductase MsrB</title>
			<polygon class="msrB_1 (JODBFFBH_00091)
Peptide methionine sulfoxide reductase MsrB" points="126,25 124,25 124,10 94,40 124,70 124,55 126,55" fill="rgb(255,255,255)" fill-opacity="1.0" stroke="rgb(0,0,0)" stroke-width="2"  />
			<g>
				<title>SelR (PF01641)
"SelR domain"</title>
				<polygon class="PF01641" points="98,40 107,31 107,49" stroke-linejoin="round" width="12" height="24" fill="rgb(192,99,202)" stroke="rgb(153,79,161)" stroke-width="1" opacity="0.75" />
			</g>
			<g>
				<title>PMSR (PF01625)
"Peptide methionine sulfoxide reductase"</title>
				<polygon class="PF01625" points="110,28 110,28 125,28 125,52 110,52 110,52" stroke-linejoin="round" width="15" height="24" fill="rgb(201,74,176)" stroke="rgb(160,59,140)" stroke-width="1" opacity="0.75" />
			</g>
		</g>
		<g>
			<title> (JODBFFBH_00092)
hypothetical protein</title>
			<polygon class=" (JODBFFBH_00092)
hypothetical protein" points="129,40 145,10 145,70" fill="rgb(255,255,255)" fill-opacity="1.0" stroke="rgb(0,0,0)" stroke-width="2"  />
			<g>
				<title>YqfQ (PF14181)
"YqfQ-like protein"</title>
				<polygon class="PF14181" points="132,40 139,28 143,28 143,52 139,52" stroke-linejoin="round" width="13" height="24" fill="rgb(207,119,57)" stroke="rgb(165,95,45)" stroke-width="1" opacity="0.75" />
			</g>
		</g>
		<g>
			<title>ung (JODBFFBH_00093)
Uracil-DNA glycosylase</title>
			<polygon class="ung (JODBFFBH_00093)
Uracil-DNA glycosylase" points="148,40 170,10 170,70" fill="rgb(255,255,255)" fill-opacity="1.0" stroke="rgb(0,0,0)" stroke-width="2"  />
			<g>
				<title>UDG (PF03167)
"Uracil DNA glycosylase superfamily"</title>
				<polygon class="PF03167" points="152,40 161,28 165,28 165,52 161,52" stroke-linejoin="round" width="16" height="24" fill="rgb(64,224,60)" stroke="rgb(51,179,48)" stroke-width="1" opacity="0.75" />
			</g>
		</g>
		<g>
			<title>ytmB (JODBFFBH_00094)
putative protein YtmB</title>
			<polygon class="ytmB (JODBFFBH_00094)
putative protein YtmB" points="176,40 184,10 184,70" fill="rgb(255,255,255)" fill-opacity="1.0" stroke="rgb(0,0,0)" stroke-width="2"  />
			<g>
				<title>DUF2584 (PF10763)
"Protein of unknown function (DUF2584)"</title>
				<polygon class="PF10763" points="179,40 182,28 184,28 184,52 182,52" stroke-linejoin="round" width="8" height="24" fill="rgb(118,211,56)" stroke="rgb(94,168,44)" stroke-width="1" opacity="0.75" />
			</g>
		</g>
		<g>
			<title> (JODBFFBH_00095)
hypothetical protein</title>
			<polygon class=" (JODBFFBH_00095)
hypothetical protein" points="291,25 217,25 217,10 187,40 217,70 217,55 291,55" fill="rgb(255,255,255)" fill-opacity="1.0" stroke="rgb(0,0,0)" stroke-width="2"  />
			<g>
				<title>SbcCD_C (PF13558)
"Putative exonuclease SbcCD, C subunit"</title>
				<polygon class="PF13558" points="191,40 199,32 199,48 191,40" stroke-linejoin="round" width="8" height="24" fill="rgb(84,179,84)" stroke="rgb(67,143,67)" stroke-width="1" opacity="0.75" />
			</g>
			<g>
				<title>AAA_23 (PF13476)
"AAA domain"</title>
				<rect class="PF13476" x="264" y="28" stroke-linejoin="round" width="26" height="24" fill="rgb(57,185,214)" stroke="rgb(45,147,171)" stroke-width="1" opacity="0.75" />
			</g>
		</g>
		<g>
			<title>sbcD (JODBFFBH_00096)
Nuclease SbcCD subunit D</title>
			<polygon class="sbcD (JODBFFBH_00096)
Nuclease SbcCD subunit D" points="329,25 321,25 321,10 291,40 321,70 321,55 329,55" fill="rgb(255,255,255)" fill-opacity="1.0" stroke="rgb(0,0,0)" stroke-width="2"  />
			<g>
				<title>SbcD_C (PF12320)
"Type 5 capsule protein repressor C-terminal domain"</title>
				<polygon class="PF12320" points="295,40 302,33 302,47" stroke-linejoin="round" width="9" height="24" fill="rgb(182,136,65)" stroke="rgb(145,108,52)" stroke-width="1" opacity="0.75" />
			</g>
			<g>
				<title>Metallophos (PF00149)
"Calcineurin-like phosphoesterase"</title>
				<polygon class="PF00149" points="307,28 307,28 328,28 328,52 307,52 307,52" stroke-linejoin="round" width="21" height="24" fill="rgb(181,197,58)" stroke="rgb(144,157,46)" stroke-width="1" opacity="0.75" />
			</g>
		</g>
		<g>
			<title> (JODBFFBH_00097)
hypothetical protein</title>
			<polygon class=" (JODBFFBH_00097)
hypothetical protein" points="333,40 340,10 340,70" fill="rgb(255,255,255)" fill-opacity="1.0" stroke="rgb(0,0,0)" stroke-width="2"  />
			<g>
				<title>YozE_SAM_like (PF06855)
"YozE SAM-like fold"</title>
				<polygon class="PF06855" points="336,40 339,28 339,28 339,52 339,52" stroke-linejoin="round" width="6" height="24" fill="rgb(83,201,171)" stroke="rgb(66,160,136)" stroke-width="1" opacity="0.75" />
			</g>
		</g>
		<g>
			<title>tatC1_1 (JODBFFBH_00098)
Sec-independent protein translocase protein TatCd</title>
			<polygon class="tatC1_1 (JODBFFBH_00098)
Sec-independent protein translocase protein TatCd" points="350,40 375,10 375,70" fill="rgb(255,255,255)" fill-opacity="1.0" stroke="rgb(0,0,0)" stroke-width="2"  />
			<g>
				<title>TatC (PF00902)
"Sec-independent protein translocase protein (TatC)"</title>
				<polygon class="PF00902" points="354,40 364,28 373,28 373,52 364,52" stroke-linejoin="round" width="20" height="24" fill="rgb(84,193,209)" stroke="rgb(67,154,167)" stroke-width="1" opacity="0.75" />
			</g>
		</g>
		<g>
			<title>tatAd_1 (JODBFFBH_00099)
Sec-independent protein translocase protein TatAd</title>
			<polygon class="tatAd_1 (JODBFFBH_00099)
Sec-independent protein translocase protein TatAd" points="379,40 385,10 385,70" fill="rgb(255,255,255)" fill-opacity="1.0" stroke="rgb(0,0,0)" stroke-width="2"  />
			<g>
				<title>MttA_Hcf106 (PF02416)
"mttA/Hcf106 family"</title>
				<polygon class="PF02416" points="382,40 384,28 384,28 384,52 384,52" stroke-linejoin="round" width="5" height="24" fill="rgb(74,206,98)" stroke="rgb(59,164,78)" stroke-width="1" opacity="0.75" />
			</g>
		</g>
		<g>
			<title>tatA_1 (JODBFFBH_00100)
Sec-independent protein translocase protein TatA</title>
			<polygon class="tatA_1 (JODBFFBH_00100)
Sec-independent protein translocase protein TatA" points="385,40 392,10 392,70" fill="rgb(255,255,255)" fill-opacity="1.0" stroke="rgb(0,0,0)" stroke-width="2"  />
			<g>
				<title>MttA_Hcf106 (PF02416)
"mttA/Hcf106 family"</title>
				<polygon class="PF02416" points="388,40 391,28 391,28 391,52 391,52" stroke-linejoin="round" width="6" height="24" fill="rgb(74,206,98)" stroke="rgb(59,164,78)" stroke-width="1" opacity="0.75" />
			</g>
		</g>
		<g>
			<title>mobA (JODBFFBH_00101)
putative molybdenum cofactor guanylyltransferase</title>
			<polygon class="mobA (JODBFFBH_00101)
putative molybdenum cofactor guanylyltransferase" points="397,40 417,10 417,70" fill="rgb(255,255,255)" fill-opacity="1.0" stroke="rgb(0,0,0)" stroke-width="2"  />
			<g>
				<title>NTP_transf_3 (PF12804)
"MobA-like NTP transferase domain"</title>
				<polygon class="PF12804" points="401,40 409,28 415,28 415,52 409,52" stroke-linejoin="round" width="15" height="24" fill="rgb(52,209,196)" stroke="rgb(41,167,156)" stroke-width="1" opacity="0.75" />
			</g>
		</g>
		<g>
			<title>dfrA (JODBFFBH_00102)
Dihydrofolate reductase</title>
			<polygon class="dfrA (JODBFFBH_00102)
Dihydrofolate reductase" points="418,40 434,10 434,70" fill="rgb(255,255,255)" fill-opacity="1.0" stroke="rgb(0,0,0)" stroke-width="2"  />
			<g>
				<title>DHFR_1 (PF00186)
"Dihydrofolate reductase"</title>
				<polygon class="PF00186" points="421,40 428,28 434,28 434,52 428,52" stroke-linejoin="round" width="16" height="24" fill="rgb(150,188,63)" stroke="rgb(119,150,50)" stroke-width="1" opacity="0.75" />
			</g>
		</g>
		<g>
			<title>thyA (JODBFFBH_00103)
Thymidylate synthase</title>
			<polygon class="thyA (JODBFFBH_00103)
Thymidylate synthase" points="468,25 466,25 466,10 436,40 466,70 466,55 468,55" fill="rgb(255,255,255)" fill-opacity="1.0" stroke="rgb(0,0,0)" stroke-width="2"  />
			<g>
				<title>Thymidylat_synt (PF00303)
"Thymidylate synthase"</title>
				<polygon class="PF00303" points="440,40 452,28 467,28 467,52 452,52" stroke-linejoin="round" width="31" height="24" fill="rgb(103,91,191)" stroke="rgb(82,72,152)" stroke-width="1" opacity="0.75" />
			</g>
		</g>
		<g>
			<title>yedJ (JODBFFBH_00104)
putative protein YedJ</title>
			<polygon class="yedJ (JODBFFBH_00104)
putative protein YedJ" points="469,40 488,10 488,70" fill="rgb(255,255,255)" fill-opacity="1.0" stroke="rgb(0,0,0)" stroke-width="2"  />
			<g>
				<title>HD (PF01966)
"HD domain"</title>
				<polygon class="PF01966" points="476,35 481,28 485,28 485,52 481,52 476,45" stroke-linejoin="round" width="9" height="24" fill="rgb(92,193,119)" stroke="rgb(73,154,95)" stroke-width="1" opacity="0.75" />
			</g>
		</g>
		<g>
			<title> (JODBFFBH_00105)
hypothetical protein</title>
			<polygon class=" (JODBFFBH_00105)
hypothetical protein" points="489,40 517,10 517,70" fill="rgb(255,255,255)" fill-opacity="1.0" stroke="rgb(0,0,0)" stroke-width="2"  />
			<g>
				<title>DUF72 (PF01904)
"Protein of unknown function DUF72"</title>
				<polygon class="PF01904" points="493,40 504,28 514,28 514,52 504,52" stroke-linejoin="round" width="24" height="24" fill="rgb(63,151,204)" stroke="rgb(50,120,163)" stroke-width="1" opacity="0.75" />
			</g>
		</g>
		<g>
			<title>fhs (JODBFFBH_00106)
Formate--tetrahydrofolate ligase</title>
			<polygon class="fhs (JODBFFBH_00106)
Formate--tetrahydrofolate ligase" points="577,25 552,25 552,10 522,40 552,70 552,55 577,55" fill="rgb(255,255,255)" fill-opacity="1.0" stroke="rgb(0,0,0)" stroke-width="2"  />
			<g>
				<title>FTHFS (PF01268)
"Formate--tetrahydrofolate ligase"</title>
				<polygon class="PF01268" points="526,40 538,28 577,28 577,52 538,52" stroke-linejoin="round" width="55" height="24" fill="rgb(215,182,81)" stroke="rgb(172,145,64)" stroke-width="1" opacity="0.75" />
			</g>
		</g>
		<g>
			<title>cspB_1 (JODBFFBH_00107)
Cold shock protein CspB</title>
			<polygon class="cspB_1 (JODBFFBH_00107)
Cold shock protein CspB" points="588,10 594,40 588,70" fill="rgb(255,255,255)" fill-opacity="1.0" stroke="rgb(0,0,0)" stroke-width="2"  />
			<g>
				<title>CSD (PF00313)
"'Cold-shock' DNA-binding domain"</title>
				<polygon class="PF00313" points="588,28 588,28 591,40 588,52 588,52" stroke-linejoin="round" width="6" height="24" fill="rgb(87,72,181)" stroke="rgb(69,57,144)" stroke-width="1" opacity="0.75" />
			</g>
		</g>
		<g>
			<title> (JODBFFBH_00108)
queuosine precursor transporter</title>
			<polygon class=" (JODBFFBH_00108)
queuosine precursor transporter" points="601,10 623,40 601,70" fill="rgb(255,255,255)" fill-opacity="1.0" stroke="rgb(0,0,0)" stroke-width="2"  />
			<g>
				<title>Vut_1 (PF02592)
"Putative vitamin uptake transporter"</title>
				<polygon class="PF02592" points="606,28 611,28 620,40 611,52 606,52" stroke-linejoin="round" width="16" height="24" fill="rgb(93,184,75)" stroke="rgb(74,147,60)" stroke-width="1" opacity="0.75" />
			</g>
		</g>
		<g>
			<title>rnhA (JODBFFBH_00109)
14.7 kDa ribonuclease H-like protein</title>
			<polygon class="rnhA (JODBFFBH_00109)
14.7 kDa ribonuclease H-like protein" points="624,10 636,40 624,70" fill="rgb(255,255,255)" fill-opacity="1.0" stroke="rgb(0,0,0)" stroke-width="2"  />
			<g>
				<title>RNase_H (PF00075)
"RNase H"</title>
				<polygon class="PF00075" points="624,28 628,28 633,40 628,52 624,52" stroke-linejoin="round" width="12" height="24" fill="rgb(225,86,224)" stroke="rgb(180,68,179)" stroke-width="1" opacity="0.75" />
			</g>
		</g>
		<g>
			<title> (JODBFFBH_00110)
hypothetical protein</title>
			<polygon class=" (JODBFFBH_00110)
hypothetical protein" points="643,40 647,10 647,70" fill="rgb(255,255,255)" fill-opacity="1.0" stroke="rgb(0,0,0)" stroke-width="2"  />
		</g>
		<g>
			<title> (JODBFFBH_00111)
hypothetical protein</title>
			<polygon class=" (JODBFFBH_00111)
hypothetical protein" points="651,40 656,10 656,70" fill="rgb(255,255,255)" fill-opacity="1.0" stroke="rgb(0,0,0)" stroke-width="2"  />
		</g>
		<g>
			<title> (JODBFFBH_00112)
hypothetical protein</title>
			<polygon class=" (JODBFFBH_00112)
hypothetical protein" points="659,40 676,10 676,70" fill="rgb(255,255,255)" fill-opacity="1.0" stroke="rgb(0,0,0)" stroke-width="2"  />
			<g>
				<title>ICMT (PF04140)
"Isoprenylcysteine carboxyl methyltransferase (ICMT) family"</title>
				<polygon class="PF04140" points="662,40 668,29 668,51" stroke-linejoin="round" width="9" height="24" fill="rgb(100,223,104)" stroke="rgb(80,178,83)" stroke-width="1" opacity="0.75" />
			</g>
		</g>
		<g>
			<title>rppA (JODBFFBH_00113)
1,3,6,8-tetrahydroxynaphthalene synthase</title>
			<polygon class="rppA (JODBFFBH_00113)
1,3,6,8-tetrahydroxynaphthalene synthase" points="712,25 706,25 706,10 676,40 706,70 706,55 712,55" fill="rgb(255,255,255)" fill-opacity="1.0" stroke="rgb(0,0,0)" stroke-width="2"  />
			<g>
				<title>Chal_sti_synt_C (PF02797)
"Chalcone and stilbene synthases, C-terminal domain"</title>
				<polygon class="PF02797" points="680,40 689,31 689,49" stroke-linejoin="round" width="13" height="24" fill="rgb(139,212,63)" stroke="rgb(111,169,50)" stroke-width="1" opacity="0.75" />
			</g>
			<g>
				<title>Chal_sti_synt_N (PF00195)
"Chalcone and stilbene synthases, N-terminal domain"</title>
				<polygon class="PF00195" points="691,29 692,28 711,28 711,52 692,52 691,51" stroke-linejoin="round" width="20" height="24" fill="rgb(60,181,161)" stroke="rgb(47,144,128)" stroke-width="1" opacity="0.75" />
			</g>
		</g>
		<g>
			<title>gno (JODBFFBH_00114)
Gluconate 5-dehydrogenase</title>
			<polygon class="gno (JODBFFBH_00114)
Gluconate 5-dehydrogenase" points="715,40 740,10 740,70" fill="rgb(255,255,255)" fill-opacity="1.0" stroke="rgb(0,0,0)" stroke-width="2"  />
			<g>
				<title>adh_short_C2 (PF13561)
"Enoyl-(Acyl carrier protein) reductase"</title>
				<polygon class="PF13561" points="719,40 729,28 738,28 738,52 729,52" stroke-linejoin="round" width="23" height="24" fill="rgb(73,205,127)" stroke="rgb(58,164,101)" stroke-width="1" opacity="0.75" />
			</g>
		</g>
		<g>
			<title> (JODBFFBH_00115)
hypothetical protein</title>
			<polygon class=" (JODBFFBH_00115)
hypothetical protein" points="744,10 762,40 744,70" fill="rgb(255,255,255)" fill-opacity="1.0" stroke="rgb(0,0,0)" stroke-width="2"  />
		</g>
		<g>
			<title>ypwA (JODBFFBH_00116)
Carboxypeptidase 1</title>
			<polygon class="ypwA (JODBFFBH_00116)
Carboxypeptidase 1" points="814,25 795,25 795,10 765,40 795,70 795,55 814,55" fill="rgb(255,255,255)" fill-opacity="1.0" stroke="rgb(0,0,0)" stroke-width="2"  />
			<g>
				<title>Peptidase_M32 (PF02074)
"Carboxypeptidase Taq (M32) metallopeptidase"</title>
				<polygon class="PF02074" points="769,40 781,28 813,28 813,52 781,52" stroke-linejoin="round" width="48" height="24" fill="rgb(213,142,93)" stroke="rgb(170,113,74)" stroke-width="1" opacity="0.75" />
			</g>
		</g>
		<g>
			<title>rlmL (JODBFFBH_00117)
Ribosomal RNA large subunit methyltransferase L</title>
			<polygon class="rlmL (JODBFFBH_00117)
Ribosomal RNA large subunit methyltransferase L" points="853,25 845,25 845,10 815,40 845,70 845,55 853,55" fill="rgb(255,255,255)" fill-opacity="1.0" stroke="rgb(0,0,0)" stroke-width="2"  />
			<g>
				<title>UPF0020 (PF01170)
"Putative RNA methylase family UPF0020"</title>
				<polygon class="PF01170" points="819,40 831,28 835,28 835,52 831,52" stroke-linejoin="round" width="20" height="24" fill="rgb(89,182,69)" stroke="rgb(71,145,55)" stroke-width="1" opacity="0.75" />
			</g>
			<g>
				<title>THUMP (PF02926)
"THUMP domain"</title>
				<rect class="PF02926" x="837" y="28" stroke-linejoin="round" width="14" height="24" fill="rgb(52,209,163)" stroke="rgb(41,167,130)" stroke-width="1" opacity="0.75" />
			</g>
		</g>
		<g>
			<title>gpsB (JODBFFBH_00118)
Cell cycle protein GpsB</title>
			<polygon class="gpsB (JODBFFBH_00118)
Cell cycle protein GpsB" points="872,40 882,10 882,70" fill="rgb(255,255,255)" fill-opacity="1.0" stroke="rgb(0,0,0)" stroke-width="2"  />
			<g>
				<title>DivIVA (PF05103)
"DivIVA protein"</title>
				<polygon class="PF05103" points="876,37 879,28 881,28 881,52 879,52 876,43" stroke-linejoin="round" width="5" height="24" fill="rgb(213,106,117)" stroke="rgb(170,84,93)" stroke-width="1" opacity="0.75" />
			</g>
		</g>
		<g>
			<title> (JODBFFBH_00119)
hypothetical protein</title>
			<polygon class=" (JODBFFBH_00119)
hypothetical protein" points="886,40 906,10 906,70" fill="rgb(255,255,255)" fill-opacity="1.0" stroke="rgb(0,0,0)" stroke-width="2"  />
			<g>
				<title>YpsA (PF06908)
"YspA SLOG family"</title>
				<polygon class="PF06908" points="890,40 898,28 903,28 903,52 898,52" stroke-linejoin="round" width="16" height="24" fill="rgb(136,100,209)" stroke="rgb(108,80,167)" stroke-width="1" opacity="0.75" />
			</g>
		</g>
		<g>
			<title> (JODBFFBH_00120)
hypothetical protein</title>
			<polygon class=" (JODBFFBH_00120)
hypothetical protein" points="908,40 919,10 919,70" fill="rgb(255,255,255)" fill-opacity="1.0" stroke="rgb(0,0,0)" stroke-width="2"  />
			<g>
				<title>Spore-coat_CotD (PF11122)
"Inner spore coat protein D"</title>
				<polygon class="PF11122" points="911,40 916,28 917,28 917,52 916,52" stroke-linejoin="round" width="9" height="24" fill="rgb(221,153,69)" stroke="rgb(176,122,55)" stroke-width="1" opacity="0.75" />
			</g>
		</g>
		<g>
			<title>cdd (JODBFFBH_00121)
Cytidine deaminase</title>
			<polygon class="cdd (JODBFFBH_00121)
Cytidine deaminase" points="924,40 939,10 939,70" fill="rgb(255,255,255)" fill-opacity="1.0" stroke="rgb(0,0,0)" stroke-width="2"  />
			<g>
				<title>dCMP_cyt_deam_1 (PF00383)
"Cytidine and deoxycytidylate deaminase zinc-binding region"</title>
				<polygon class="PF00383" points="927,40 933,28 937,28 937,52 933,52 927,40" stroke-linejoin="round" width="10" height="24" fill="rgb(91,149,216)" stroke="rgb(72,119,172)" stroke-width="1" opacity="0.75" />
			</g>
		</g>
		<g>
			<title> (JODBFFBH_00122)
hypothetical protein</title>
			<polygon class=" (JODBFFBH_00122)
hypothetical protein" points="942,40 954,10 954,70" fill="rgb(255,255,255)" fill-opacity="1.0" stroke="rgb(0,0,0)" stroke-width="2"  />
			<g>
				<title>DUF1798 (PF08807)
"Bacterial domain of unknown function (DUF1798)"</title>
				<polygon class="PF08807" points="945,40 950,28 952,28 952,52 950,52" stroke-linejoin="round" width="10" height="24" fill="rgb(153,201,81)" stroke="rgb(122,160,64)" stroke-width="1" opacity="0.75" />
			</g>
		</g>
		<g>
			<title> (JODBFFBH_00123)
hypothetical protein</title>
			<polygon class=" (JODBFFBH_00123)
hypothetical protein" points="956,40 965,10 965,70" fill="rgb(255,255,255)" fill-opacity="1.0" stroke="rgb(0,0,0)" stroke-width="2"  />
		</g>
		<g>
			<title> (JODBFFBH_00124)
hypothetical protein</title>
			<polygon class=" (JODBFFBH_00124)
hypothetical protein" points="970,40 975,10 975,70" fill="rgb(255,255,255)" fill-opacity="1.0" stroke="rgb(0,0,0)" stroke-width="2"  />
		</g>
		<g>
			<title>recU (JODBFFBH_00125)
Holliday junction resolvase RecU</title>
			<polygon class="recU (JODBFFBH_00125)
Holliday junction resolvase RecU" points="982,10 1001,40 982,70" fill="rgb(255,255,255)" fill-opacity="1.0" stroke="rgb(0,0,0)" stroke-width="2"  />
			<g>
				<title>RecU (PF03838)
"Recombination protein U"</title>
				<polygon class="PF03838" points="984,28 990,28 998,40 990,52 984,52" stroke-linejoin="round" width="16" height="24" fill="rgb(93,204,83)" stroke="rgb(74,163,66)" stroke-width="1" opacity="0.75" />
			</g>
		</g>
		<g>
			<title>ponA (JODBFFBH_00126)
Penicillin-binding protein 1A/1B</title>
			<polygon class="ponA (JODBFFBH_00126)
Penicillin-binding protein 1A/1B" points="1002,25 1065,25 1065,10 1095,40 1065,70 1065,55 1002,55" fill="rgb(255,255,255)" fill-opacity="1.0" stroke="rgb(0,0,0)" stroke-width="2"  />
			<g>
				<title>Transgly (PF00912)
"Transglycosylase"</title>
				<rect class="PF00912" x="1009" y="28" stroke-linejoin="round" width="17" height="24" fill="rgb(172,107,216)" stroke="rgb(137,85,172)" stroke-width="1" opacity="0.75" />
			</g>
			<g>
				<title>Transpeptidase (PF00905)
"Penicillin binding protein transpeptidase domain"</title>
				<rect class="PF00905" x="1036" y="28" stroke-linejoin="round" width="27" height="24" fill="rgb(161,226,87)" stroke="rgb(128,180,69)" stroke-width="1" opacity="0.75" />
			</g>
			<g>
				<title>fn3 (PF00041)
"Fibronectin type III domain"</title>
				<rect class="PF00041" x="1070" y="28" stroke-linejoin="round" width="7" height="24" fill="rgb(203,70,135)" stroke="rgb(162,56,107)" stroke-width="1" opacity="0.75" />
			</g>
		</g>
		<g>
			<title>nth_1 (JODBFFBH_00127)
Endonuclease III</title>
			<polygon class="nth_1 (JODBFFBH_00127)
Endonuclease III" points="1098,40 1119,10 1119,70" fill="rgb(255,255,255)" fill-opacity="1.0" stroke="rgb(0,0,0)" stroke-width="2"  />
			<g>
				<title>HhH-GPD (PF00730)
"HhH-GPD superfamily base excision DNA repair protein"</title>
				<polygon class="PF00730" points="1102,40 1111,28 1115,28 1115,52 1111,52 1102,40" stroke-linejoin="round" width="13" height="24" fill="rgb(190,78,115)" stroke="rgb(152,62,92)" stroke-width="1" opacity="0.75" />
			</g>
		</g>
		<g>
			<title>dnaD (JODBFFBH_00128)
DNA replication protein DnaD</title>
			<polygon class="dnaD (JODBFFBH_00128)
DNA replication protein DnaD" points="1120,40 1143,10 1143,70" fill="rgb(255,255,255)" fill-opacity="1.0" stroke="rgb(0,0,0)" stroke-width="2"  />
			<g>
				<title>DnaB_2 (PF07261)
"Replication initiation and membrane attachment"</title>
				<polygon class="PF07261" points="1124,40 1130,32 1130,48" stroke-linejoin="round" width="7" height="24" fill="rgb(136,193,85)" stroke="rgb(108,154,68)" stroke-width="1" opacity="0.75" />
			</g>
		</g>
		<g>
			<title>asnS (JODBFFBH_00129)
Asparagine--tRNA ligase</title>
			<polygon class="asnS (JODBFFBH_00129)
Asparagine--tRNA ligase" points="1189,25 1176,25 1176,10 1146,40 1176,70 1176,55 1189,55" fill="rgb(255,255,255)" fill-opacity="1.0" stroke="rgb(0,0,0)" stroke-width="2"  />
			<g>
				<title>tRNA-synt_2 (PF00152)
"tRNA synthetases class II (D, K and N)"</title>
				<polygon class="PF00152" points="1150,40 1162,28 1177,28 1177,52 1162,52" stroke-linejoin="round" width="31" height="24" fill="rgb(90,71,190)" stroke="rgb(72,56,152)" stroke-width="1" opacity="0.75" />
			</g>
			<g>
				<title>tRNA_anti-codon (PF01336)
"OB-fold nucleic acid binding domain"</title>
				<rect class="PF01336" x="1179" y="28" stroke-linejoin="round" width="7" height="24" fill="rgb(215,103,173)" stroke="rgb(172,82,138)" stroke-width="1" opacity="0.75" />
			</g>
		</g>
		<g>
			<title> (JODBFFBH_00130)
Aspartate aminotransferase</title>
			<polygon class=" (JODBFFBH_00130)
Aspartate aminotransferase" points="1229,25 1220,25 1220,10 1190,40 1220,70 1220,55 1229,55" fill="rgb(255,255,255)" fill-opacity="1.0" stroke="rgb(0,0,0)" stroke-width="2"  />
			<g>
				<title>Aminotran_1_2 (PF00155)
"Aminotransferase class I and II"</title>
				<polygon class="PF00155" points="1194,40 1206,28 1226,28 1226,52 1206,52" stroke-linejoin="round" width="35" height="24" fill="rgb(89,113,198)" stroke="rgb(71,90,158)" stroke-width="1" opacity="0.75" />
			</g>
		</g>
		<g>
			<title> (JODBFFBH_00131)
hypothetical protein</title>
			<polygon class=" (JODBFFBH_00131)
hypothetical protein" points="1230,40 1247,10 1247,70" fill="rgb(255,255,255)" fill-opacity="1.0" stroke="rgb(0,0,0)" stroke-width="2"  />
			<g>
				<title>DUF5590 (PF17881)
"Domain of unknown function (DUF5590)"</title>
				<polygon class="PF17881" points="1238,32 1240,28 1242,28 1242,52 1240,52 1238,48" stroke-linejoin="round" width="4" height="24" fill="rgb(77,212,144)" stroke="rgb(61,169,115)" stroke-width="1" opacity="0.75" />
			</g>
		</g>
		<g>
			<title> (JODBFFBH_00132)
hypothetical protein</title>
			<polygon class=" (JODBFFBH_00132)
hypothetical protein" points="1246,40 1251,10 1251,70" fill="rgb(255,255,255)" fill-opacity="1.0" stroke="rgb(0,0,0)" stroke-width="2"  />
		</g>
		<g>
			<title>dinG_1 (JODBFFBH_00133)
3'-5' exonuclease DinG</title>
			<polygon class="dinG_1 (JODBFFBH_00133)
3'-5' exonuclease DinG" points="1347,25 1285,25 1285,10 1255,40 1285,70 1285,55 1347,55" fill="rgb(255,255,255)" fill-opacity="1.0" stroke="rgb(0,0,0)" stroke-width="2"  />
			<g>
				<title>Helicase_C_2 (PF13307)
"Helicase C-terminal domain"</title>
				<polygon class="PF13307" points="1259,40 1271,28 1272,28 1272,52 1271,52" stroke-linejoin="round" width="16" height="24" fill="rgb(70,108,178)" stroke="rgb(56,86,142)" stroke-width="1" opacity="0.75" />
			</g>
			<g>
				<title>ResIII (PF04851)
"Type III restriction enzyme, res subunit"</title>
				<rect class="PF04851" x="1297" y="28" stroke-linejoin="round" width="24" height="24" fill="rgb(51,64,189)" stroke="rgb(40,51,151)" stroke-width="1" opacity="0.75" />
			</g>
			<g>
				<title>RNase_T (PF00929)
"Exonuclease"</title>
				<rect class="PF00929" x="1331" y="28" stroke-linejoin="round" width="15" height="24" fill="rgb(201,87,120)" stroke="rgb(160,69,96)" stroke-width="1" opacity="0.75" />
			</g>
		</g>
		<g>
			<title>panD (JODBFFBH_00134)
Aspartate 1-decarboxylase</title>
			<polygon class="panD (JODBFFBH_00134)
Aspartate 1-decarboxylase" points="1351,40 1364,10 1364,70" fill="rgb(255,255,255)" fill-opacity="1.0" stroke="rgb(0,0,0)" stroke-width="2"  />
			<g>
				<title>Asp_decarbox (PF02261)
"Aspartate decarboxylase"</title>
				<polygon class="PF02261" points="1354,40 1359,28 1363,28 1363,52 1359,52" stroke-linejoin="round" width="11" height="24" fill="rgb(223,94,196)" stroke="rgb(178,75,156)" stroke-width="1" opacity="0.75" />
			</g>
		</g>
	</g>
</svg>
