<svg version="1.1" baseProfile="full" xmlns="http://www.w3.org/2000/svg" width="437.8666666666667" height="80">
	<g>
		<line x1="10" y1="40.0" x2="427.8666666666667" y2="40.0" style="stroke:rgb(70,70,70); stroke-width:3 "/>
		<g>
			<title> (BBLDBBGM_00752)
hypothetical protein</title>
			<polygon class=" (BBLDBBGM_00752)
hypothetical protein" points="10,40 27,10 27,70" fill="rgb(255,255,255)" fill-opacity="1.0" stroke="rgb(0,0,0)" stroke-width="2"  />
		</g>
		<g>
			<title> (BBLDBBGM_00753)
IS3 family transposase ISHaha3</title>
			<polygon class=" (BBLDBBGM_00753)
IS3 family transposase ISHaha3" points="35,10 52,40 35,70" fill="rgb(255,255,255)" fill-opacity="1.0" stroke="rgb(0,0,0)" stroke-width="2"  />
			<g>
				<title>HTH_Tnp_1 (PF01527)
"Transposase"</title>
				<rect class="PF01527" x="35" y="28" stroke-linejoin="round" width="5" height="24" fill="rgb(85,212,107)" stroke="rgb(68,169,85)" stroke-width="1" opacity="0.75" />
			</g>
			<g>
				<title>HTH_28 (PF13518)
"Helix-turn-helix domain"</title>
				<polygon class="PF13518" points="41,28 41,28 46,36 46,44 41,52 41,52" stroke-linejoin="round" width="5" height="24" fill="rgb(61,197,72)" stroke="rgb(48,157,57)" stroke-width="1" opacity="0.75" />
			</g>
		</g>
		<g>
			<title> (BBLDBBGM_00754)
IS3 family transposase ISHaha3</title>
			<polygon class=" (BBLDBBGM_00754)
IS3 family transposase ISHaha3" points="52,10 79,40 52,70" fill="rgb(255,255,255)" fill-opacity="1.0" stroke="rgb(0,0,0)" stroke-width="2"  />
			<g>
				<title>HTH_21 (PF13276)
"HTH-like domain"</title>
				<rect class="PF13276" x="54" y="28" stroke-linejoin="round" width="5" height="24" fill="rgb(114,195,68)" stroke="rgb(91,156,54)" stroke-width="1" opacity="0.75" />
			</g>
			<g>
				<title>rve (PF00665)
"Integrase core domain"</title>
				<polygon class="PF00665" points="62,28 63,28 73,38 73,42 63,52 62,52" stroke-linejoin="round" width="11" height="24" fill="rgb(93,64,200)" stroke="rgb(74,51,160)" stroke-width="1" opacity="0.75" />
			</g>
		</g>
		<g>
			<title> (BBLDBBGM_00755)
hypothetical protein</title>
			<polygon class=" (BBLDBBGM_00755)
hypothetical protein" points="94,40 97,10 97,70" fill="rgb(255,255,255)" fill-opacity="1.0" stroke="rgb(0,0,0)" stroke-width="2"  />
		</g>
		<g>
			<title> (BBLDBBGM_00756)
hypothetical protein</title>
			<polygon class=" (BBLDBBGM_00756)
hypothetical protein" points="110,10 117,40 110,70" fill="rgb(255,255,255)" fill-opacity="1.0" stroke="rgb(0,0,0)" stroke-width="2"  />
		</g>
		<g>
			<title>sbnH (BBLDBBGM_00757)
2-[(L-alanin-3-ylcarbamoyl)methyl]-2- hydroxybutanedioate decarboxylase</title>
			<polygon class="sbnH (BBLDBBGM_00757)
2-[(L-alanin-3-ylcarbamoyl)methyl]-2- hydroxybutanedioate decarboxylase" points="157,25 147,25 147,10 117,40 147,70 147,55 157,55" fill="rgb(255,255,255)" fill-opacity="1.0" stroke="rgb(0,0,0)" stroke-width="2"  />
			<g>
				<title>Orn_Arg_deC_N (PF02784)
"Pyridoxal-dependent decarboxylase, pyridoxal binding domain"</title>
				<polygon class="PF02784" points="129,32 133,28 153,28 153,52 133,52 129,48" stroke-linejoin="round" width="24" height="24" fill="rgb(106,204,212)" stroke="rgb(84,163,169)" stroke-width="1" opacity="0.75" />
			</g>
		</g>
		<g>
			<title> (BBLDBBGM_00758)
hypothetical protein</title>
			<polygon class=" (BBLDBBGM_00758)
hypothetical protein" points="223,25 187,25 187,10 157,40 187,70 187,55 223,55" fill="rgb(255,255,255)" fill-opacity="1.0" stroke="rgb(0,0,0)" stroke-width="2"  />
			<g>
				<title>FhuF (PF06276)
"Ferric iron reductase FhuF-like transporter"</title>
				<polygon class="PF06276" points="161,40 173,28 174,28 174,52 173,52" stroke-linejoin="round" width="16" height="24" fill="rgb(76,151,221)" stroke="rgb(60,120,176)" stroke-width="1" opacity="0.75" />
			</g>
			<g>
				<title>IucA_IucC (PF04183)
"IucA / IucC family"</title>
				<rect class="PF04183" x="177" y="28" stroke-linejoin="round" width="23" height="24" fill="rgb(221,104,121)" stroke="rgb(176,83,96)" stroke-width="1" opacity="0.75" />
			</g>
		</g>
		<g>
			<title> (BBLDBBGM_00759)
hypothetical protein</title>
			<polygon class=" (BBLDBBGM_00759)
hypothetical protein" points="286,25 253,25 253,10 223,40 253,70 253,55 286,55" fill="rgb(255,255,255)" fill-opacity="1.0" stroke="rgb(0,0,0)" stroke-width="2"  />
			<g>
				<title>FhuF (PF06276)
"Ferric iron reductase FhuF-like transporter"</title>
				<polygon class="PF06276" points="227,40 239,28 240,28 240,52 239,52" stroke-linejoin="round" width="16" height="24" fill="rgb(76,151,221)" stroke="rgb(60,120,176)" stroke-width="1" opacity="0.75" />
			</g>
			<g>
				<title>IucA_IucC (PF04183)
"IucA / IucC family"</title>
				<rect class="PF04183" x="244" y="28" stroke-linejoin="round" width="24" height="24" fill="rgb(221,104,121)" stroke="rgb(176,83,96)" stroke-width="1" opacity="0.75" />
			</g>
		</g>
		<g>
			<title> (BBLDBBGM_00760)
hypothetical protein</title>
			<polygon class=" (BBLDBBGM_00760)
hypothetical protein" points="295,10 319,40 295,70" fill="rgb(255,255,255)" fill-opacity="1.0" stroke="rgb(0,0,0)" stroke-width="2"  />
		</g>
		<g>
			<title>azoR4 (BBLDBBGM_00761)
FMN-dependent NADH-azoreductase 4</title>
			<polygon class="azoR4 (BBLDBBGM_00761)
FMN-dependent NADH-azoreductase 4" points="326,40 346,10 346,70" fill="rgb(255,255,255)" fill-opacity="1.0" stroke="rgb(0,0,0)" stroke-width="2"  />
			<g>
				<title>Flavodoxin_2 (PF02525)
"Flavodoxin-like fold"</title>
				<polygon class="PF02525" points="330,40 338,28 346,28 346,52 338,52" stroke-linejoin="round" width="20" height="24" fill="rgb(159,188,70)" stroke="rgb(127,150,56)" stroke-width="1" opacity="0.75" />
			</g>
		</g>
		<g>
			<title> (BBLDBBGM_00762)
hypothetical protein</title>
			<polygon class=" (BBLDBBGM_00762)
hypothetical protein" points="355,10 372,40 355,70" fill="rgb(255,255,255)" fill-opacity="1.0" stroke="rgb(0,0,0)" stroke-width="2"  />
		</g>
		<g>
			<title> (BBLDBBGM_00763)
hypothetical protein</title>
			<polygon class=" (BBLDBBGM_00763)
hypothetical protein" points="376,10 382,40 376,70" fill="rgb(255,255,255)" fill-opacity="1.0" stroke="rgb(0,0,0)" stroke-width="2"  />
			<g>
				<title>YjzC (PF14168)
"YjzC-like protein"</title>
				<polygon class="PF14168" points="376,28 376,28 379,40 376,52 376,52" stroke-linejoin="round" width="5" height="24" fill="rgb(96,141,215)" stroke="rgb(76,112,172)" stroke-width="1" opacity="0.75" />
			</g>
		</g>
		<g>
			<title> (BBLDBBGM_00764)
hypothetical protein</title>
			<polygon class=" (BBLDBBGM_00764)
hypothetical protein" points="385,40 392,10 392,70" fill="rgb(255,255,255)" fill-opacity="1.0" stroke="rgb(0,0,0)" stroke-width="2"  />
		</g>
		<g>
			<title> (BBLDBBGM_00765)
hypothetical protein</title>
			<polygon class=" (BBLDBBGM_00765)
hypothetical protein" points="427,25 424,25 424,10 394,40 424,70 424,55 427,55" fill="rgb(255,255,255)" fill-opacity="1.0" stroke="rgb(0,0,0)" stroke-width="2"  />
			<g>
				<title>APH (PF01636)
"Phosphotransferase enzyme family"</title>
				<polygon class="PF01636" points="399,39 410,28 423,28 423,52 410,52 399,41" stroke-linejoin="round" width="24" height="24" fill="rgb(106,220,228)" stroke="rgb(84,176,182)" stroke-width="1" opacity="0.75" />
			</g>
		</g>
	</g>
</svg>
