<svg version="1.1" baseProfile="full" xmlns="http://www.w3.org/2000/svg" width="1389.5333333333333" height="80">
	<g>
		<line x1="10" y1="40.0" x2="1379.5333333333333" y2="40.0" style="stroke:rgb(70,70,70); stroke-width:3 "/>
		<g>
			<title>mhqD (FCCODOLJ_01050)
Putative hydrolase MhqD</title>
			<polygon class="mhqD (FCCODOLJ_01050)
Putative hydrolase MhqD" points="15,40 35,10 35,70" fill="rgb(255,255,255)" fill-opacity="1.0" stroke="rgb(0,0,0)" stroke-width="2"  />
			<g>
				<title>Abhydrolase_2 (PF02230)
"Phospholipase/Carboxylesterase"</title>
				<polygon class="PF02230" points="19,40 27,28 35,28 35,52 27,52" stroke-linejoin="round" width="20" height="24" fill="rgb(165,184,75)" stroke="rgb(132,147,60)" stroke-width="1" opacity="0.75" />
			</g>
		</g>
		<g>
			<title> (FCCODOLJ_01051)
hypothetical protein</title>
			<polygon class=" (FCCODOLJ_01051)
hypothetical protein" points="73,25 69,25 69,10 39,40 69,70 69,55 73,55" fill="rgb(255,255,255)" fill-opacity="1.0" stroke="rgb(0,0,0)" stroke-width="2"  />
			<g>
				<title>AbrB (PF05145)
"Transition state regulatory protein AbrB"</title>
				<polygon class="PF05145" points="43,40 55,28 70,28 70,52 55,52" stroke-linejoin="round" width="31" height="24" fill="rgb(95,98,223)" stroke="rgb(76,78,178)" stroke-width="1" opacity="0.75" />
			</g>
		</g>
		<g>
			<title> (FCCODOLJ_01052)
hypothetical protein</title>
			<polygon class=" (FCCODOLJ_01052)
hypothetical protein" points="75,10 97,40 75,70" fill="rgb(255,255,255)" fill-opacity="1.0" stroke="rgb(0,0,0)" stroke-width="2"  />
			<g>
				<title>Acetyltransf_1 (PF00583)
"Acetyltransferase (GNAT) family"</title>
				<polygon class="PF00583" points="77,28 84,28 90,36 90,44 84,52 77,52" stroke-linejoin="round" width="13" height="24" fill="rgb(121,183,50)" stroke="rgb(96,146,39)" stroke-width="1" opacity="0.75" />
			</g>
		</g>
		<g>
			<title> (FCCODOLJ_01053)
hypothetical protein</title>
			<polygon class=" (FCCODOLJ_01053)
hypothetical protein" points="98,40 117,10 117,70" fill="rgb(255,255,255)" fill-opacity="1.0" stroke="rgb(0,0,0)" stroke-width="2"  />
			<g>
				<title>TetR_N (PF00440)
"Bacterial regulatory proteins, tetR family"</title>
				<rect class="PF00440" x="111" y="28" stroke-linejoin="round" width="4" height="24" fill="rgb(73,212,190)" stroke="rgb(58,169,152)" stroke-width="1" opacity="0.75" />
			</g>
		</g>
		<g>
			<title>msrB (FCCODOLJ_01054)
Peptide methionine sulfoxide reductase MsrB</title>
			<polygon class="msrB (FCCODOLJ_01054)
Peptide methionine sulfoxide reductase MsrB" points="151,25 150,25 150,10 120,40 150,70 150,55 151,55" fill="rgb(255,255,255)" fill-opacity="1.0" stroke="rgb(0,0,0)" stroke-width="2"  />
			<g>
				<title>SelR (PF01641)
"SelR domain"</title>
				<polygon class="PF01641" points="124,40 132,32 132,48" stroke-linejoin="round" width="11" height="24" fill="rgb(192,99,202)" stroke="rgb(153,79,161)" stroke-width="1" opacity="0.75" />
			</g>
			<g>
				<title>PMSR (PF01625)
"Peptide methionine sulfoxide reductase"</title>
				<polygon class="PF01625" points="135,29 136,28 150,28 150,52 136,52 135,51" stroke-linejoin="round" width="15" height="24" fill="rgb(201,74,176)" stroke="rgb(160,59,140)" stroke-width="1" opacity="0.75" />
			</g>
		</g>
		<g>
			<title> (FCCODOLJ_01055)
hypothetical protein</title>
			<polygon class=" (FCCODOLJ_01055)
hypothetical protein" points="155,40 173,10 173,70" fill="rgb(255,255,255)" fill-opacity="1.0" stroke="rgb(0,0,0)" stroke-width="2"  />
			<g>
				<title>YqfQ (PF14181)
"YqfQ-like protein"</title>
				<polygon class="PF14181" points="159,40 166,28 170,28 170,52 166,52" stroke-linejoin="round" width="15" height="24" fill="rgb(207,119,57)" stroke="rgb(165,95,45)" stroke-width="1" opacity="0.75" />
			</g>
		</g>
		<g>
			<title>ung (FCCODOLJ_01056)
Uracil-DNA glycosylase</title>
			<polygon class="ung (FCCODOLJ_01056)
Uracil-DNA glycosylase" points="175,40 197,10 197,70" fill="rgb(255,255,255)" fill-opacity="1.0" stroke="rgb(0,0,0)" stroke-width="2"  />
			<g>
				<title>UDG (PF03167)
"Uracil DNA glycosylase superfamily"</title>
				<polygon class="PF03167" points="179,40 188,28 192,28 192,52 188,52" stroke-linejoin="round" width="16" height="24" fill="rgb(64,224,60)" stroke="rgb(51,179,48)" stroke-width="1" opacity="0.75" />
			</g>
		</g>
		<g>
			<title> (FCCODOLJ_01057)
hypothetical protein</title>
			<polygon class=" (FCCODOLJ_01057)
hypothetical protein" points="306,25 233,25 233,10 203,40 233,70 233,55 306,55" fill="rgb(255,255,255)" fill-opacity="1.0" stroke="rgb(0,0,0)" stroke-width="2"  />
			<g>
				<title>SbcCD_C (PF13558)
"Putative exonuclease SbcCD, C subunit"</title>
				<polygon class="PF13558" points="207,40 215,32 215,48 207,40" stroke-linejoin="round" width="8" height="24" fill="rgb(84,179,84)" stroke="rgb(67,143,67)" stroke-width="1" opacity="0.75" />
			</g>
			<g>
				<title>AAA_23 (PF13476)
"AAA domain"</title>
				<rect class="PF13476" x="285" y="28" stroke-linejoin="round" width="21" height="24" fill="rgb(57,185,214)" stroke="rgb(45,147,171)" stroke-width="1" opacity="0.75" />
			</g>
		</g>
		<g>
			<title>sbcD (FCCODOLJ_01058)
Nuclease SbcCD subunit D</title>
			<polygon class="sbcD (FCCODOLJ_01058)
Nuclease SbcCD subunit D" points="345,25 337,25 337,10 307,40 337,70 337,55 345,55" fill="rgb(255,255,255)" fill-opacity="1.0" stroke="rgb(0,0,0)" stroke-width="2"  />
			<g>
				<title>SbcD_C (PF12320)
"Type 5 capsule protein repressor C-terminal domain"</title>
				<polygon class="PF12320" points="311,40 318,33 318,47" stroke-linejoin="round" width="9" height="24" fill="rgb(182,136,65)" stroke="rgb(145,108,52)" stroke-width="1" opacity="0.75" />
			</g>
			<g>
				<title>Metallophos (PF00149)
"Calcineurin-like phosphoesterase"</title>
				<polygon class="PF00149" points="323,28 323,28 344,28 344,52 323,52 323,52" stroke-linejoin="round" width="21" height="24" fill="rgb(181,197,58)" stroke="rgb(144,157,46)" stroke-width="1" opacity="0.75" />
			</g>
		</g>
		<g>
			<title> (FCCODOLJ_01059)
hypothetical protein</title>
			<polygon class=" (FCCODOLJ_01059)
hypothetical protein" points="346,40 353,10 353,70" fill="rgb(255,255,255)" fill-opacity="1.0" stroke="rgb(0,0,0)" stroke-width="2"  />
			<g>
				<title>YozE_SAM_like (PF06855)
"YozE SAM-like fold"</title>
				<polygon class="PF06855" points="349,40 352,28 352,28 352,52 352,52" stroke-linejoin="round" width="6" height="24" fill="rgb(83,201,171)" stroke="rgb(66,160,136)" stroke-width="1" opacity="0.75" />
			</g>
		</g>
		<g>
			<title>tatC1 (FCCODOLJ_01060)
Sec-independent protein translocase protein TatCd</title>
			<polygon class="tatC1 (FCCODOLJ_01060)
Sec-independent protein translocase protein TatCd" points="358,40 383,10 383,70" fill="rgb(255,255,255)" fill-opacity="1.0" stroke="rgb(0,0,0)" stroke-width="2"  />
			<g>
				<title>TatC (PF00902)
"Sec-independent protein translocase protein (TatC)"</title>
				<polygon class="PF00902" points="362,40 372,28 381,28 381,52 372,52" stroke-linejoin="round" width="20" height="24" fill="rgb(84,193,209)" stroke="rgb(67,154,167)" stroke-width="1" opacity="0.75" />
			</g>
		</g>
		<g>
			<title>tatAd_1 (FCCODOLJ_01061)
Sec-independent protein translocase protein TatAd</title>
			<polygon class="tatAd_1 (FCCODOLJ_01061)
Sec-independent protein translocase protein TatAd" points="386,40 392,10 392,70" fill="rgb(255,255,255)" fill-opacity="1.0" stroke="rgb(0,0,0)" stroke-width="2"  />
			<g>
				<title>MttA_Hcf106 (PF02416)
"mttA/Hcf106 family"</title>
				<polygon class="PF02416" points="389,40 391,30 391,50" stroke-linejoin="round" width="5" height="24" fill="rgb(74,206,98)" stroke="rgb(59,164,78)" stroke-width="1" opacity="0.75" />
			</g>
		</g>
		<g>
			<title>tatAd_2 (FCCODOLJ_01062)
Sec-independent protein translocase protein TatAd</title>
			<polygon class="tatAd_2 (FCCODOLJ_01062)
Sec-independent protein translocase protein TatAd" points="393,40 398,10 398,70" fill="rgb(255,255,255)" fill-opacity="1.0" stroke="rgb(0,0,0)" stroke-width="2"  />
			<g>
				<title>MttA_Hcf106 (PF02416)
"mttA/Hcf106 family"</title>
				<polygon class="PF02416" points="396,40 398,28 398,28 398,52 398,52" stroke-linejoin="round" width="5" height="24" fill="rgb(74,206,98)" stroke="rgb(59,164,78)" stroke-width="1" opacity="0.75" />
			</g>
		</g>
		<g>
			<title>mobA (FCCODOLJ_01063)
Molybdenum cofactor guanylyltransferase</title>
			<polygon class="mobA (FCCODOLJ_01063)
Molybdenum cofactor guanylyltransferase" points="403,40 422,10 422,70" fill="rgb(255,255,255)" fill-opacity="1.0" stroke="rgb(0,0,0)" stroke-width="2"  />
			<g>
				<title>NTP_transf_3 (PF12804)
"MobA-like NTP transferase domain"</title>
				<polygon class="PF12804" points="407,40 415,28 421,28 421,52 415,52 407,40" stroke-linejoin="round" width="14" height="24" fill="rgb(52,209,196)" stroke="rgb(41,167,156)" stroke-width="1" opacity="0.75" />
			</g>
		</g>
		<g>
			<title> (FCCODOLJ_01064)
IS1595 family transposase ISSsu9</title>
			<polygon class=" (FCCODOLJ_01064)
IS1595 family transposase ISSsu9" points="422,40 438,10 438,70" fill="rgb(255,255,255)" fill-opacity="1.0" stroke="rgb(0,0,0)" stroke-width="2"  />
			<g>
				<title>DHFR_1 (PF00186)
"Dihydrofolate reductase"</title>
				<polygon class="PF00186" points="425,40 432,28 438,28 438,52 432,52" stroke-linejoin="round" width="16" height="24" fill="rgb(150,188,63)" stroke="rgb(119,150,50)" stroke-width="1" opacity="0.75" />
			</g>
		</g>
		<g>
			<title>thyA (FCCODOLJ_01065)
Thymidylate synthase</title>
			<polygon class="thyA (FCCODOLJ_01065)
Thymidylate synthase" points="472,25 470,25 470,10 440,40 470,70 470,55 472,55" fill="rgb(255,255,255)" fill-opacity="1.0" stroke="rgb(0,0,0)" stroke-width="2"  />
			<g>
				<title>Thymidylat_synt (PF00303)
"Thymidylate synthase"</title>
				<polygon class="PF00303" points="444,40 456,28 471,28 471,52 456,52" stroke-linejoin="round" width="31" height="24" fill="rgb(103,91,191)" stroke="rgb(82,72,152)" stroke-width="1" opacity="0.75" />
			</g>
		</g>
		<g>
			<title>yedJ (FCCODOLJ_01066)
putative protein YedJ</title>
			<polygon class="yedJ (FCCODOLJ_01066)
putative protein YedJ" points="472,40 491,10 491,70" fill="rgb(255,255,255)" fill-opacity="1.0" stroke="rgb(0,0,0)" stroke-width="2"  />
			<g>
				<title>HD (PF01966)
"HD domain"</title>
				<polygon class="PF01966" points="479,35 484,28 488,28 488,52 484,52 479,45" stroke-linejoin="round" width="9" height="24" fill="rgb(92,193,119)" stroke="rgb(73,154,95)" stroke-width="1" opacity="0.75" />
			</g>
		</g>
		<g>
			<title> (FCCODOLJ_01067)
hypothetical protein</title>
			<polygon class=" (FCCODOLJ_01067)
hypothetical protein" points="493,40 521,10 521,70" fill="rgb(255,255,255)" fill-opacity="1.0" stroke="rgb(0,0,0)" stroke-width="2"  />
			<g>
				<title>DUF72 (PF01904)
"Protein of unknown function DUF72"</title>
				<polygon class="PF01904" points="497,40 508,28 518,28 518,52 508,52" stroke-linejoin="round" width="24" height="24" fill="rgb(63,151,204)" stroke="rgb(50,120,163)" stroke-width="1" opacity="0.75" />
			</g>
		</g>
		<g>
			<title>fhs1 (FCCODOLJ_01068)
Formate--tetrahydrofolate ligase 1</title>
			<polygon class="fhs1 (FCCODOLJ_01068)
Formate--tetrahydrofolate ligase 1" points="579,25 554,25 554,10 524,40 554,70 554,55 579,55" fill="rgb(255,255,255)" fill-opacity="1.0" stroke="rgb(0,0,0)" stroke-width="2"  />
			<g>
				<title>FTHFS (PF01268)
"Formate--tetrahydrofolate ligase"</title>
				<polygon class="PF01268" points="528,40 540,28 579,28 579,52 540,52" stroke-linejoin="round" width="55" height="24" fill="rgb(215,182,81)" stroke="rgb(172,145,64)" stroke-width="1" opacity="0.75" />
			</g>
		</g>
		<g>
			<title>cspB_2 (FCCODOLJ_01069)
Cold shock protein CspB</title>
			<polygon class="cspB_2 (FCCODOLJ_01069)
Cold shock protein CspB" points="590,10 596,40 590,70" fill="rgb(255,255,255)" fill-opacity="1.0" stroke="rgb(0,0,0)" stroke-width="2"  />
			<g>
				<title>CSD (PF00313)
"'Cold-shock' DNA-binding domain"</title>
				<polygon class="PF00313" points="590,28 590,28 593,40 590,52 590,52" stroke-linejoin="round" width="6" height="24" fill="rgb(87,72,181)" stroke="rgb(69,57,144)" stroke-width="1" opacity="0.75" />
			</g>
		</g>
		<g>
			<title> (FCCODOLJ_01070)
queuosine precursor transporter</title>
			<polygon class=" (FCCODOLJ_01070)
queuosine precursor transporter" points="602,10 624,40 602,70" fill="rgb(255,255,255)" fill-opacity="1.0" stroke="rgb(0,0,0)" stroke-width="2"  />
			<g>
				<title>Vut_1 (PF02592)
"Putative vitamin uptake transporter"</title>
				<polygon class="PF02592" points="607,28 612,28 620,40 612,52 607,52" stroke-linejoin="round" width="16" height="24" fill="rgb(93,184,75)" stroke="rgb(74,147,60)" stroke-width="1" opacity="0.75" />
			</g>
		</g>
		<g>
			<title>rnhA (FCCODOLJ_01071)
14.7 kDa ribonuclease H-like protein</title>
			<polygon class="rnhA (FCCODOLJ_01071)
14.7 kDa ribonuclease H-like protein" points="625,10 638,40 625,70" fill="rgb(255,255,255)" fill-opacity="1.0" stroke="rgb(0,0,0)" stroke-width="2"  />
			<g>
				<title>RVT_3 (PF13456)
"Reverse transcriptase-like"</title>
				<polygon class="PF13456" points="625,28 629,28 635,40 629,52 625,52" stroke-linejoin="round" width="12" height="24" fill="rgb(198,123,86)" stroke="rgb(158,98,68)" stroke-width="1" opacity="0.75" />
			</g>
		</g>
		<g>
			<title> (FCCODOLJ_01072)
hypothetical protein</title>
			<polygon class=" (FCCODOLJ_01072)
hypothetical protein" points="639,40 649,10 649,70" fill="rgb(255,255,255)" fill-opacity="1.0" stroke="rgb(0,0,0)" stroke-width="2"  />
		</g>
		<g>
			<title> (FCCODOLJ_01073)
hypothetical protein</title>
			<polygon class=" (FCCODOLJ_01073)
hypothetical protein" points="659,40 676,10 676,70" fill="rgb(255,255,255)" fill-opacity="1.0" stroke="rgb(0,0,0)" stroke-width="2"  />
			<g>
				<title>ICMT (PF04140)
"Isoprenylcysteine carboxyl methyltransferase (ICMT) family"</title>
				<polygon class="PF04140" points="662,40 668,29 668,51" stroke-linejoin="round" width="9" height="24" fill="rgb(100,223,104)" stroke="rgb(80,178,83)" stroke-width="1" opacity="0.75" />
			</g>
		</g>
		<g>
			<title> (FCCODOLJ_01074)
Alpha-pyrone synthesis polyketide synthase-like Pks11</title>
			<polygon class=" (FCCODOLJ_01074)
Alpha-pyrone synthesis polyketide synthase-like Pks11" points="712,25 706,25 706,10 676,40 706,70 706,55 712,55" fill="rgb(255,255,255)" fill-opacity="1.0" stroke="rgb(0,0,0)" stroke-width="2"  />
			<g>
				<title>Chal_sti_synt_C (PF02797)
"Chalcone and stilbene synthases, C-terminal domain"</title>
				<polygon class="PF02797" points="680,40 689,31 689,49" stroke-linejoin="round" width="13" height="24" fill="rgb(139,212,63)" stroke="rgb(111,169,50)" stroke-width="1" opacity="0.75" />
			</g>
			<g>
				<title>Chal_sti_synt_N (PF00195)
"Chalcone and stilbene synthases, N-terminal domain"</title>
				<polygon class="PF00195" points="691,29 692,28 706,28 706,52 692,52 691,51" stroke-linejoin="round" width="15" height="24" fill="rgb(60,181,161)" stroke="rgb(47,144,128)" stroke-width="1" opacity="0.75" />
			</g>
		</g>
		<g>
			<title> (FCCODOLJ_01075)
hypothetical protein</title>
			<polygon class=" (FCCODOLJ_01075)
hypothetical protein" points="720,10 738,40 720,70" fill="rgb(255,255,255)" fill-opacity="1.0" stroke="rgb(0,0,0)" stroke-width="2"  />
		</g>
		<g>
			<title>ypwA (FCCODOLJ_01076)
Carboxypeptidase 1</title>
			<polygon class="ypwA (FCCODOLJ_01076)
Carboxypeptidase 1" points="788,25 769,25 769,10 739,40 769,70 769,55 788,55" fill="rgb(255,255,255)" fill-opacity="1.0" stroke="rgb(0,0,0)" stroke-width="2"  />
			<g>
				<title>Peptidase_M32 (PF02074)
"Carboxypeptidase Taq (M32) metallopeptidase"</title>
				<polygon class="PF02074" points="743,40 755,28 787,28 787,52 755,52" stroke-linejoin="round" width="48" height="24" fill="rgb(213,142,93)" stroke="rgb(170,113,74)" stroke-width="1" opacity="0.75" />
			</g>
		</g>
		<g>
			<title>rlmL (FCCODOLJ_01077)
Ribosomal RNA large subunit methyltransferase L</title>
			<polygon class="rlmL (FCCODOLJ_01077)
Ribosomal RNA large subunit methyltransferase L" points="826,25 819,25 819,10 789,40 819,70 819,55 826,55" fill="rgb(255,255,255)" fill-opacity="1.0" stroke="rgb(0,0,0)" stroke-width="2"  />
			<g>
				<title>UPF0020 (PF01170)
"Putative RNA methylase family UPF0020"</title>
				<polygon class="PF01170" points="793,40 805,28 809,28 809,52 805,52" stroke-linejoin="round" width="20" height="24" fill="rgb(89,182,69)" stroke="rgb(71,145,55)" stroke-width="1" opacity="0.75" />
			</g>
			<g>
				<title>THUMP (PF02926)
"THUMP domain"</title>
				<rect class="PF02926" x="811" y="28" stroke-linejoin="round" width="14" height="24" fill="rgb(52,209,163)" stroke="rgb(41,167,130)" stroke-width="1" opacity="0.75" />
			</g>
		</g>
		<g>
			<title>gpsB (FCCODOLJ_01078)
Cell cycle protein GpsB</title>
			<polygon class="gpsB (FCCODOLJ_01078)
Cell cycle protein GpsB" points="846,40 856,10 856,70" fill="rgb(255,255,255)" fill-opacity="1.0" stroke="rgb(0,0,0)" stroke-width="2"  />
			<g>
				<title>DivIVA (PF05103)
"DivIVA protein"</title>
				<polygon class="PF05103" points="849,40 853,28 854,28 854,52 853,52" stroke-linejoin="round" width="6" height="24" fill="rgb(213,106,117)" stroke="rgb(170,84,93)" stroke-width="1" opacity="0.75" />
			</g>
		</g>
		<g>
			<title> (FCCODOLJ_01079)
hypothetical protein</title>
			<polygon class=" (FCCODOLJ_01079)
hypothetical protein" points="859,40 877,10 877,70" fill="rgb(255,255,255)" fill-opacity="1.0" stroke="rgb(0,0,0)" stroke-width="2"  />
			<g>
				<title>YpsA (PF06908)
"YspA SLOG family"</title>
				<polygon class="PF06908" points="863,40 871,28 876,28 876,52 871,52" stroke-linejoin="round" width="16" height="24" fill="rgb(136,100,209)" stroke="rgb(108,80,167)" stroke-width="1" opacity="0.75" />
			</g>
		</g>
		<g>
			<title> (FCCODOLJ_01080)
hypothetical protein</title>
			<polygon class=" (FCCODOLJ_01080)
hypothetical protein" points="881,40 897,10 897,70" fill="rgb(255,255,255)" fill-opacity="1.0" stroke="rgb(0,0,0)" stroke-width="2"  />
			<g>
				<title>Spore-coat_CotD (PF11122)
"Inner spore coat protein D"</title>
				<polygon class="PF11122" points="885,38 891,28 895,28 895,52 891,52 885,42" stroke-linejoin="round" width="10" height="24" fill="rgb(221,153,69)" stroke="rgb(176,122,55)" stroke-width="1" opacity="0.75" />
			</g>
		</g>
		<g>
			<title>cdd (FCCODOLJ_01081)
Cytidine deaminase</title>
			<polygon class="cdd (FCCODOLJ_01081)
Cytidine deaminase" points="903,40 916,10 916,70" fill="rgb(255,255,255)" fill-opacity="1.0" stroke="rgb(0,0,0)" stroke-width="2"  />
			<g>
				<title>dCMP_cyt_deam_1 (PF00383)
"Cytidine and deoxycytidylate deaminase zinc-binding region"</title>
				<polygon class="PF00383" points="906,40 911,28 915,28 915,52 911,52" stroke-linejoin="round" width="10" height="24" fill="rgb(91,149,216)" stroke="rgb(72,119,172)" stroke-width="1" opacity="0.75" />
			</g>
		</g>
		<g>
			<title>swrC_1 (FCCODOLJ_01082)
Swarming motility protein SwrC</title>
			<polygon class="swrC_1 (FCCODOLJ_01082)
Swarming motility protein SwrC" points="922,25 994,25 994,10 1024,40 994,70 994,55 922,55" fill="rgb(255,255,255)" fill-opacity="1.0" stroke="rgb(0,0,0)" stroke-width="2"  />
			<g>
				<title>ACR_tran (PF00873)
"AcrB/AcrD/AcrF family"</title>
				<polygon class="PF00873" points="922,28 1008,28 1020,40 1008,52 922,52" stroke-linejoin="round" width="101" height="24" fill="rgb(63,191,60)" stroke="rgb(50,152,48)" stroke-width="1" opacity="0.75" />
			</g>
		</g>
		<g>
			<title> (FCCODOLJ_01083)
hypothetical protein</title>
			<polygon class=" (FCCODOLJ_01083)
hypothetical protein" points="1025,40 1036,10 1036,70" fill="rgb(255,255,255)" fill-opacity="1.0" stroke="rgb(0,0,0)" stroke-width="2"  />
			<g>
				<title>DUF1798 (PF08807)
"Bacterial domain of unknown function (DUF1798)"</title>
				<polygon class="PF08807" points="1028,40 1033,28 1035,28 1035,52 1033,52" stroke-linejoin="round" width="10" height="24" fill="rgb(153,201,81)" stroke="rgb(122,160,64)" stroke-width="1" opacity="0.75" />
			</g>
		</g>
		<g>
			<title> (FCCODOLJ_01084)
hypothetical protein</title>
			<polygon class=" (FCCODOLJ_01084)
hypothetical protein" points="1039,40 1047,10 1047,70" fill="rgb(255,255,255)" fill-opacity="1.0" stroke="rgb(0,0,0)" stroke-width="2"  />
		</g>
		<g>
			<title> (FCCODOLJ_01085)
hypothetical protein</title>
			<polygon class=" (FCCODOLJ_01085)
hypothetical protein" points="1052,10 1055,40 1052,70" fill="rgb(255,255,255)" fill-opacity="1.0" stroke="rgb(0,0,0)" stroke-width="2"  />
		</g>
		<g>
			<title>recU (FCCODOLJ_01086)
Holliday junction resolvase RecU</title>
			<polygon class="recU (FCCODOLJ_01086)
Holliday junction resolvase RecU" points="1064,10 1083,40 1064,70" fill="rgb(255,255,255)" fill-opacity="1.0" stroke="rgb(0,0,0)" stroke-width="2"  />
			<g>
				<title>RecU (PF03838)
"Recombination protein U"</title>
				<polygon class="PF03838" points="1066,28 1072,28 1080,40 1072,52 1066,52" stroke-linejoin="round" width="16" height="24" fill="rgb(93,204,83)" stroke="rgb(74,163,66)" stroke-width="1" opacity="0.75" />
			</g>
		</g>
		<g>
			<title>ponA (FCCODOLJ_01087)
Penicillin-binding protein 1A/1B</title>
			<polygon class="ponA (FCCODOLJ_01087)
Penicillin-binding protein 1A/1B" points="1085,25 1143,25 1143,10 1173,40 1143,70 1143,55 1085,55" fill="rgb(255,255,255)" fill-opacity="1.0" stroke="rgb(0,0,0)" stroke-width="2"  />
			<g>
				<title>Transgly (PF00912)
"Transglycosylase"</title>
				<rect class="PF00912" x="1092" y="28" stroke-linejoin="round" width="17" height="24" fill="rgb(172,107,216)" stroke="rgb(137,85,172)" stroke-width="1" opacity="0.75" />
			</g>
			<g>
				<title>Transpeptidase (PF00905)
"Penicillin binding protein transpeptidase domain"</title>
				<rect class="PF00905" x="1119" y="28" stroke-linejoin="round" width="27" height="24" fill="rgb(161,226,87)" stroke="rgb(128,180,69)" stroke-width="1" opacity="0.75" />
			</g>
		</g>
		<g>
			<title>nth (FCCODOLJ_01088)
Endonuclease III</title>
			<polygon class="nth (FCCODOLJ_01088)
Endonuclease III" points="1174,40 1196,10 1196,70" fill="rgb(255,255,255)" fill-opacity="1.0" stroke="rgb(0,0,0)" stroke-width="2"  />
			<g>
				<title>EndIII_4Fe-2S (PF10576)
"Iron-sulfur binding domain of endonuclease III"</title>
				<polygon class="PF10576" points="1178,40 1177,41 1177,39" stroke-linejoin="round" width="1" height="24" fill="rgb(203,113,64)" stroke="rgb(162,90,51)" stroke-width="1" opacity="0.75" />
			</g>
			<g>
				<title>HhH-GPD (PF00730)
"HhH-GPD superfamily base excision DNA repair protein"</title>
				<polygon class="PF00730" points="1179,39 1187,28 1192,28 1192,52 1187,52 1179,41" stroke-linejoin="round" width="13" height="24" fill="rgb(190,78,115)" stroke="rgb(152,62,92)" stroke-width="1" opacity="0.75" />
			</g>
		</g>
		<g>
			<title>dnaD (FCCODOLJ_01089)
DNA replication protein DnaD</title>
			<polygon class="dnaD (FCCODOLJ_01089)
DNA replication protein DnaD" points="1196,40 1219,10 1219,70" fill="rgb(255,255,255)" fill-opacity="1.0" stroke="rgb(0,0,0)" stroke-width="2"  />
			<g>
				<title>DnaB_2 (PF07261)
"Replication initiation and membrane attachment"</title>
				<polygon class="PF07261" points="1200,40 1206,32 1206,48" stroke-linejoin="round" width="7" height="24" fill="rgb(136,193,85)" stroke="rgb(108,154,68)" stroke-width="1" opacity="0.75" />
			</g>
		</g>
		<g>
			<title>asnS (FCCODOLJ_01090)
Asparagine--tRNA ligase</title>
			<polygon class="asnS (FCCODOLJ_01090)
Asparagine--tRNA ligase" points="1266,25 1253,25 1253,10 1223,40 1253,70 1253,55 1266,55" fill="rgb(255,255,255)" fill-opacity="1.0" stroke="rgb(0,0,0)" stroke-width="2"  />
			<g>
				<title>tRNA-synt_2 (PF00152)
"tRNA synthetases class II (D, K and N)"</title>
				<polygon class="PF00152" points="1227,40 1239,28 1254,28 1254,52 1239,52" stroke-linejoin="round" width="31" height="24" fill="rgb(90,71,190)" stroke="rgb(72,56,152)" stroke-width="1" opacity="0.75" />
			</g>
			<g>
				<title>tRNA_anti-codon (PF01336)
"OB-fold nucleic acid binding domain"</title>
				<rect class="PF01336" x="1256" y="28" stroke-linejoin="round" width="7" height="24" fill="rgb(215,103,173)" stroke="rgb(172,82,138)" stroke-width="1" opacity="0.75" />
			</g>
		</g>
		<g>
			<title> (FCCODOLJ_01091)
Aspartate aminotransferase</title>
			<polygon class=" (FCCODOLJ_01091)
Aspartate aminotransferase" points="1306,25 1297,25 1297,10 1267,40 1297,70 1297,55 1306,55" fill="rgb(255,255,255)" fill-opacity="1.0" stroke="rgb(0,0,0)" stroke-width="2"  />
			<g>
				<title>Aminotran_1_2 (PF00155)
"Aminotransferase class I and II"</title>
				<polygon class="PF00155" points="1271,40 1283,28 1303,28 1303,52 1283,52" stroke-linejoin="round" width="35" height="24" fill="rgb(89,113,198)" stroke="rgb(71,90,158)" stroke-width="1" opacity="0.75" />
			</g>
		</g>
		<g>
			<title> (FCCODOLJ_01092)
hypothetical protein</title>
			<polygon class=" (FCCODOLJ_01092)
hypothetical protein" points="1307,40 1324,10 1324,70" fill="rgb(255,255,255)" fill-opacity="1.0" stroke="rgb(0,0,0)" stroke-width="2"  />
			<g>
				<title>DUF5590 (PF17881)
"Domain of unknown function (DUF5590)"</title>
				<polygon class="PF17881" points="1315,32 1317,28 1319,28 1319,52 1317,52 1315,48" stroke-linejoin="round" width="4" height="24" fill="rgb(77,212,144)" stroke="rgb(61,169,115)" stroke-width="1" opacity="0.75" />
			</g>
		</g>
		<g>
			<title> (FCCODOLJ_01093)
hypothetical protein</title>
			<polygon class=" (FCCODOLJ_01093)
hypothetical protein" points="1323,40 1328,10 1328,70" fill="rgb(255,255,255)" fill-opacity="1.0" stroke="rgb(0,0,0)" stroke-width="2"  />
		</g>
	</g>
</svg>
