<svg version="1.1" baseProfile="full" xmlns="http://www.w3.org/2000/svg" width="472.0" height="80">
	<g>
		<line x1="10" y1="40.0" x2="462.0" y2="40.0" style="stroke:rgb(70,70,70); stroke-width:3 "/>
		<g>
			<title> (FBNBFCBO_03220)
putative HTH-type transcriptional regulator</title>
			<polygon class=" (FBNBFCBO_03220)
putative HTH-type transcriptional regulator" points="37,10 49,40 37,70" fill="rgb(255,255,255)" fill-opacity="1.0" stroke="rgb(0,0,0)" stroke-width="2"  />
			<g>
				<title>MerR_1 (PF13411)
"MerR HTH family regulatory protein"</title>
				<polygon class="PF13411" points="37,28 40,28 43,33 43,47 40,52 37,52" stroke-linejoin="round" width="6" height="24" fill="rgb(100,202,107)" stroke="rgb(80,161,85)" stroke-width="1" opacity="0.75" />
			</g>
		</g>
		<g>
			<title>ypbG_2 (FBNBFCBO_03221)
putative protein YpbG</title>
			<polygon class="ypbG_2 (FBNBFCBO_03221)
putative protein YpbG" points="50,40 77,10 77,70" fill="rgb(255,255,255)" fill-opacity="1.0" stroke="rgb(0,0,0)" stroke-width="2"  />
			<g>
				<title>Metallophos (PF00149)
"Calcineurin-like phosphoesterase"</title>
				<polygon class="PF00149" points="56,38 65,28 72,28 72,52 65,52 56,42" stroke-linejoin="round" width="16" height="24" fill="rgb(181,197,58)" stroke="rgb(144,157,46)" stroke-width="1" opacity="0.75" />
			</g>
		</g>
		<g>
			<title> (FBNBFCBO_03222)
hypothetical protein</title>
			<polygon class=" (FBNBFCBO_03222)
hypothetical protein" points="133,25 107,25 107,10 77,40 107,70 107,55 133,55" fill="rgb(255,255,255)" fill-opacity="1.0" stroke="rgb(0,0,0)" stroke-width="2"  />
			<g>
				<title>Peptidase_M3 (PF01432)
"Peptidase family M3"</title>
				<polygon class="PF01432" points="81,40 93,28 116,28 116,52 93,52" stroke-linejoin="round" width="38" height="24" fill="rgb(56,183,126)" stroke="rgb(44,146,100)" stroke-width="1" opacity="0.75" />
			</g>
		</g>
		<g>
			<title>sbnH (FBNBFCBO_03223)
2-[(L-alanin-3-ylcarbamoyl)methyl]-2- hydroxybutanedioate decarboxylase</title>
			<polygon class="sbnH (FBNBFCBO_03223)
2-[(L-alanin-3-ylcarbamoyl)methyl]-2- hydroxybutanedioate decarboxylase" points="176,25 167,25 167,10 137,40 167,70 167,55 176,55" fill="rgb(255,255,255)" fill-opacity="1.0" stroke="rgb(0,0,0)" stroke-width="2"  />
			<g>
				<title>Orn_Arg_deC_N (PF02784)
"Pyridoxal-dependent decarboxylase, pyridoxal binding domain"</title>
				<polygon class="PF02784" points="149,32 153,28 173,28 173,52 153,52 149,48" stroke-linejoin="round" width="24" height="24" fill="rgb(106,204,212)" stroke="rgb(84,163,169)" stroke-width="1" opacity="0.75" />
			</g>
		</g>
		<g>
			<title> (FBNBFCBO_03224)
hypothetical protein</title>
			<polygon class=" (FBNBFCBO_03224)
hypothetical protein" points="238,25 206,25 206,10 176,40 206,70 206,55 238,55" fill="rgb(255,255,255)" fill-opacity="1.0" stroke="rgb(0,0,0)" stroke-width="2"  />
			<g>
				<title>FhuF (PF06276)
"Ferric iron reductase FhuF-like transporter"</title>
				<polygon class="PF06276" points="180,40 192,28 193,28 193,52 192,52" stroke-linejoin="round" width="16" height="24" fill="rgb(76,151,221)" stroke="rgb(60,120,176)" stroke-width="1" opacity="0.75" />
			</g>
			<g>
				<title>IucA_IucC (PF04183)
"IucA / IucC family"</title>
				<rect class="PF04183" x="195" y="28" stroke-linejoin="round" width="23" height="24" fill="rgb(221,104,121)" stroke="rgb(176,83,96)" stroke-width="1" opacity="0.75" />
			</g>
		</g>
		<g>
			<title>sbnF (FBNBFCBO_03225)
2-[(L-alanin-3-ylcarbamoyl)methyl]-3-(2- aminoethylcarbamoyl)-2-hydroxypropanoate synthase</title>
			<polygon class="sbnF (FBNBFCBO_03225)
2-[(L-alanin-3-ylcarbamoyl)methyl]-3-(2- aminoethylcarbamoyl)-2-hydroxypropanoate synthase" points="294,25 268,25 268,10 238,40 268,70 268,55 294,55" fill="rgb(255,255,255)" fill-opacity="1.0" stroke="rgb(0,0,0)" stroke-width="2"  />
			<g>
				<title>FhuF (PF06276)
"Ferric iron reductase FhuF-like transporter"</title>
				<polygon class="PF06276" points="242,40 254,28 255,28 255,52 254,52" stroke-linejoin="round" width="16" height="24" fill="rgb(76,151,221)" stroke="rgb(60,120,176)" stroke-width="1" opacity="0.75" />
			</g>
			<g>
				<title>IucA_IucC (PF04183)
"IucA / IucC family"</title>
				<rect class="PF04183" x="258" y="28" stroke-linejoin="round" width="23" height="24" fill="rgb(221,104,121)" stroke="rgb(176,83,96)" stroke-width="1" opacity="0.75" />
			</g>
		</g>
		<g>
			<title> (FBNBFCBO_03226)
hypothetical protein</title>
			<polygon class=" (FBNBFCBO_03226)
hypothetical protein" points="313,10 337,40 313,70" fill="rgb(255,255,255)" fill-opacity="1.0" stroke="rgb(0,0,0)" stroke-width="2"  />
		</g>
		<g>
			<title>mshD_3 (FBNBFCBO_03227)
Mycothiol acetyltransferase</title>
			<polygon class="mshD_3 (FBNBFCBO_03227)
Mycothiol acetyltransferase" points="340,40 367,10 367,70" fill="rgb(255,255,255)" fill-opacity="1.0" stroke="rgb(0,0,0)" stroke-width="2"  />
			<g>
				<title>Acetyltransf_7 (PF13508)
"Acetyltransferase (GNAT) domain"</title>
				<polygon class="PF13508" points="344,40 349,35 349,45" stroke-linejoin="round" width="8" height="24" fill="rgb(183,210,60)" stroke="rgb(146,168,48)" stroke-width="1" opacity="0.75" />
			</g>
			<g>
				<title>Acetyltransf_10 (PF13673)
"Acetyltransferase (GNAT) domain"</title>
				<polygon class="PF13673" points="354,29 355,28 366,28 366,52 355,52 354,51" stroke-linejoin="round" width="12" height="24" fill="rgb(88,180,95)" stroke="rgb(70,144,76)" stroke-width="1" opacity="0.75" />
			</g>
		</g>
		<g>
			<title> (FBNBFCBO_03228)
hypothetical protein</title>
			<polygon class=" (FBNBFCBO_03228)
hypothetical protein" points="369,40 378,10 378,70" fill="rgb(255,255,255)" fill-opacity="1.0" stroke="rgb(0,0,0)" stroke-width="2"  />
		</g>
		<g>
			<title> (FBNBFCBO_03229)
hypothetical protein</title>
			<polygon class=" (FBNBFCBO_03229)
hypothetical protein" points="421,25 414,25 414,10 384,40 414,70 414,55 421,55" fill="rgb(255,255,255)" fill-opacity="1.0" stroke="rgb(0,0,0)" stroke-width="2"  />
			<g>
				<title>Endonuclease_1 (PF04231)
"Endonuclease I"</title>
				<polygon class="PF04231" points="388,40 400,28 404,28 404,52 400,52" stroke-linejoin="round" width="20" height="24" fill="rgb(200,69,122)" stroke="rgb(160,55,97)" stroke-width="1" opacity="0.75" />
			</g>
		</g>
		<g>
			<title> (FBNBFCBO_03230)
hypothetical protein</title>
			<polygon class=" (FBNBFCBO_03230)
hypothetical protein" points="427,40 441,10 441,70" fill="rgb(255,255,255)" fill-opacity="1.0" stroke="rgb(0,0,0)" stroke-width="2"  />
			<g>
				<title>Glyoxalase (PF00903)
"Glyoxalase/Bleomycin resistance protein/Dioxygenase superfamily"</title>
				<polygon class="PF00903" points="430,40 436,28 440,28 440,52 436,52" stroke-linejoin="round" width="12" height="24" fill="rgb(50,162,189)" stroke="rgb(40,129,151)" stroke-width="1" opacity="0.75" />
			</g>
		</g>
	</g>
</svg>
