<svg version="1.1" baseProfile="full" xmlns="http://www.w3.org/2000/svg" width="803.6" height="80">
	<g>
		<line x1="10" y1="40.0" x2="793.6" y2="40.0" style="stroke:rgb(70,70,70); stroke-width:3 "/>
		<g>
			<title>acyII (IBGHNMIF_00359)
Penicillin acylase 2 proenzyme</title>
			<polygon class="acyII (IBGHNMIF_00359)
Penicillin acylase 2 proenzyme" points="31,25 79,25 79,10 109,40 79,70 79,55 31,55" fill="rgb(255,255,255)" fill-opacity="1.0" stroke="rgb(0,0,0)" stroke-width="2"  />
			<g>
				<title>Penicil_amidase (PF01804)
"Penicillin amidase"</title>
				<polygon class="PF01804" points="37,28 93,28 105,40 93,52 37,52" stroke-linejoin="round" width="71" height="24" fill="rgb(62,133,186)" stroke="rgb(49,106,148)" stroke-width="1" opacity="0.75" />
			</g>
		</g>
		<g>
			<title> (IBGHNMIF_00360)
hypothetical protein</title>
			<polygon class=" (IBGHNMIF_00360)
hypothetical protein" points="109,40 126,10 126,70" fill="rgb(255,255,255)" fill-opacity="1.0" stroke="rgb(0,0,0)" stroke-width="2"  />
			<g>
				<title>Polyketide_cyc2 (PF10604)
"Polyketide cyclase / dehydrase and lipid transport"</title>
				<polygon class="PF10604" points="112,40 119,28 124,28 124,52 119,52" stroke-linejoin="round" width="14" height="24" fill="rgb(105,204,74)" stroke="rgb(84,163,59)" stroke-width="1" opacity="0.75" />
			</g>
		</g>
		<g>
			<title> (IBGHNMIF_00361)
hypothetical protein</title>
			<polygon class=" (IBGHNMIF_00361)
hypothetical protein" points="151,10 158,40 151,70" fill="rgb(255,255,255)" fill-opacity="1.0" stroke="rgb(0,0,0)" stroke-width="2"  />
		</g>
		<g>
			<title>fpuD (IBGHNMIF_00362)
Petrobactin import ATP-binding protein FpuD</title>
			<polygon class="fpuD (IBGHNMIF_00362)
Petrobactin import ATP-binding protein FpuD" points="164,10 191,40 164,70" fill="rgb(255,255,255)" fill-opacity="1.0" stroke="rgb(0,0,0)" stroke-width="2"  />
			<g>
				<title>ABC_tran (PF00005)
"ABC transporter"</title>
				<polygon class="PF00005" points="165,28 176,28 179,31 179,49 176,52 165,52" stroke-linejoin="round" width="14" height="24" fill="rgb(129,201,63)" stroke="rgb(103,160,50)" stroke-width="1" opacity="0.75" />
			</g>
		</g>
		<g>
			<title> (IBGHNMIF_00363)
hypothetical protein</title>
			<polygon class=" (IBGHNMIF_00363)
hypothetical protein" points="197,25 201,25 201,10 231,40 201,70 201,55 197,55" fill="rgb(255,255,255)" fill-opacity="1.0" stroke="rgb(0,0,0)" stroke-width="2"  />
			<g>
				<title>DUF2332 (PF10094)
"Uncharacterized protein conserved in bacteria (DUF2332)"</title>
				<polygon class="PF10094" points="197,28 215,28 227,40 215,52 197,52" stroke-linejoin="round" width="33" height="24" fill="rgb(180,85,205)" stroke="rgb(144,68,164)" stroke-width="1" opacity="0.75" />
			</g>
		</g>
		<g>
			<title> (IBGHNMIF_00364)
hypothetical protein</title>
			<polygon class=" (IBGHNMIF_00364)
hypothetical protein" points="232,10 257,40 232,70" fill="rgb(255,255,255)" fill-opacity="1.0" stroke="rgb(0,0,0)" stroke-width="2"  />
			<g>
				<title>APH (PF01636)
"Phosphotransferase enzyme family"</title>
				<polygon class="PF01636" points="232,28 243,28 253,40 253,40 243,52 232,52" stroke-linejoin="round" width="21" height="24" fill="rgb(106,220,228)" stroke="rgb(84,176,182)" stroke-width="1" opacity="0.75" />
			</g>
		</g>
		<g>
			<title> (IBGHNMIF_00365)
hypothetical protein</title>
			<polygon class=" (IBGHNMIF_00365)
hypothetical protein" points="267,10 276,40 267,70" fill="rgb(255,255,255)" fill-opacity="1.0" stroke="rgb(0,0,0)" stroke-width="2"  />
		</g>
		<g>
			<title> (IBGHNMIF_00366)
hypothetical protein</title>
			<polygon class=" (IBGHNMIF_00366)
hypothetical protein" points="279,25 313,25 313,10 343,40 313,70 313,55 279,55" fill="rgb(255,255,255)" fill-opacity="1.0" stroke="rgb(0,0,0)" stroke-width="2"  />
			<g>
				<title>Methyltransf_16 (PF10294)
"Lysine methyltransferase"</title>
				<rect class="PF10294" x="287" y="28" stroke-linejoin="round" width="15" height="24" fill="rgb(91,121,203)" stroke="rgb(72,96,162)" stroke-width="1" opacity="0.75" />
			</g>
		</g>
		<g>
			<title> (IBGHNMIF_00367)
hypothetical protein</title>
			<polygon class=" (IBGHNMIF_00367)
hypothetical protein" points="343,25 377,25 377,10 407,40 377,70 377,55 343,55" fill="rgb(255,255,255)" fill-opacity="1.0" stroke="rgb(0,0,0)" stroke-width="2"  />
			<g>
				<title>YcaO (PF02624)
"YcaO cyclodehydratase, ATP-ad Mg2+-binding"</title>
				<polygon class="PF02624" points="369,28 391,28 403,40 403,40 391,52 369,52" stroke-linejoin="round" width="34" height="24" fill="rgb(76,84,185)" stroke="rgb(60,67,148)" stroke-width="1" opacity="0.75" />
			</g>
		</g>
		<g>
			<title> (IBGHNMIF_00368)
hypothetical protein</title>
			<polygon class=" (IBGHNMIF_00368)
hypothetical protein" points="408,25 429,25 429,10 459,40 429,70 429,55 408,55" fill="rgb(255,255,255)" fill-opacity="1.0" stroke="rgb(0,0,0)" stroke-width="2"  />
			<g>
				<title>Nitroreductase (PF00881)
"Nitroreductase family"</title>
				<polygon class="PF00881" points="440,28 443,28 455,40 443,52 440,52" stroke-linejoin="round" width="17" height="24" fill="rgb(79,118,187)" stroke="rgb(63,94,149)" stroke-width="1" opacity="0.75" />
			</g>
		</g>
		<g>
			<title> (IBGHNMIF_00369)
hypothetical protein</title>
			<polygon class=" (IBGHNMIF_00369)
hypothetical protein" points="466,10 481,40 466,70" fill="rgb(255,255,255)" fill-opacity="1.0" stroke="rgb(0,0,0)" stroke-width="2"  />
			<g>
				<title>DinB_2 (PF12867)
"DinB superfamily"</title>
				<polygon class="PF12867" points="466,28 471,28 478,40 471,52 466,52" stroke-linejoin="round" width="13" height="24" fill="rgb(184,90,185)" stroke="rgb(147,72,148)" stroke-width="1" opacity="0.75" />
			</g>
		</g>
		<g>
			<title>fdhA (IBGHNMIF_00370)
Glutathione-independent formaldehyde dehydrogenase</title>
			<polygon class="fdhA (IBGHNMIF_00370)
Glutathione-independent formaldehyde dehydrogenase" points="527,25 517,25 517,10 487,40 517,70 517,55 527,55" fill="rgb(255,255,255)" fill-opacity="1.0" stroke="rgb(0,0,0)" stroke-width="2"  />
			<g>
				<title>ADH_zinc_N (PF00107)
"Zinc-binding dehydrogenase"</title>
				<polygon class="PF00107" points="499,32 503,28 506,28 506,52 503,52 499,48" stroke-linejoin="round" width="7" height="24" fill="rgb(81,108,215)" stroke="rgb(64,86,172)" stroke-width="1" opacity="0.75" />
			</g>
			<g>
				<title>ADH_N (PF08240)
"Alcohol dehydrogenase GroES-like domain"</title>
				<rect class="PF08240" x="511" y="28" stroke-linejoin="round" width="11" height="24" fill="rgb(211,65,138)" stroke="rgb(168,51,110)" stroke-width="1" opacity="0.75" />
			</g>
		</g>
		<g>
			<title>yfcJ_1 (IBGHNMIF_00371)
putative MFS-type transporter YfcJ</title>
			<polygon class="yfcJ_1 (IBGHNMIF_00371)
putative MFS-type transporter YfcJ" points="574,25 564,25 564,10 534,40 564,70 564,55 574,55" fill="rgb(255,255,255)" fill-opacity="1.0" stroke="rgb(0,0,0)" stroke-width="2"  />
			<g>
				<title>MFS_1 (PF07690)
"Major Facilitator Superfamily"</title>
				<polygon class="PF07690" points="538,40 550,28 551,28 551,52 550,52" stroke-linejoin="round" width="17" height="24" fill="rgb(193,224,74)" stroke="rgb(154,179,59)" stroke-width="1" opacity="0.75" />
			</g>
			<g>
				<title>MFS_1 (PF07690)
"Major Facilitator Superfamily"</title>
				<rect class="PF07690" x="551" y="28" stroke-linejoin="round" width="22" height="24" fill="rgb(193,224,74)" stroke="rgb(154,179,59)" stroke-width="1" opacity="0.75" />
			</g>
		</g>
		<g>
			<title>glpE_1 (IBGHNMIF_00372)
Thiosulfate sulfurtransferase GlpE</title>
			<polygon class="glpE_1 (IBGHNMIF_00372)
Thiosulfate sulfurtransferase GlpE" points="598,40 620,10 620,70" fill="rgb(255,255,255)" fill-opacity="1.0" stroke="rgb(0,0,0)" stroke-width="2"  />
			<g>
				<title>Rhodanese (PF00581)
"Rhodanese-like domain"</title>
				<polygon class="PF00581" points="602,40 607,33 607,47" stroke-linejoin="round" width="9" height="24" fill="rgb(145,191,76)" stroke="rgb(116,152,60)" stroke-width="1" opacity="0.75" />
			</g>
			<g>
				<title>HTH_5 (PF01022)
"Bacterial regulatory protein, arsR family"</title>
				<rect class="PF01022" x="613" y="28" stroke-linejoin="round" width="4" height="24" fill="rgb(95,208,123)" stroke="rgb(76,166,98)" stroke-width="1" opacity="0.75" />
			</g>
		</g>
		<g>
			<title>rfnT (IBGHNMIF_00373)
Riboflavin transporter RfnT</title>
			<polygon class="rfnT (IBGHNMIF_00373)
Riboflavin transporter RfnT" points="629,25 640,25 640,10 670,40 640,70 640,55 629,55" fill="rgb(255,255,255)" fill-opacity="1.0" stroke="rgb(0,0,0)" stroke-width="2"  />
			<g>
				<title>MFS_1 (PF07690)
"Major Facilitator Superfamily"</title>
				<polygon class="PF07690" points="631,28 654,28 656,30 656,50 654,52 631,52" stroke-linejoin="round" width="25" height="24" fill="rgb(193,224,74)" stroke="rgb(154,179,59)" stroke-width="1" opacity="0.75" />
			</g>
		</g>
		<g>
			<title> (IBGHNMIF_00374)
hypothetical protein</title>
			<polygon class=" (IBGHNMIF_00374)
hypothetical protein" points="673,40 698,10 698,70" fill="rgb(255,255,255)" fill-opacity="1.0" stroke="rgb(0,0,0)" stroke-width="2"  />
			<g>
				<title>Lactamase_B_2 (PF12706)
"Beta-lactamase superfamily domain"</title>
				<polygon class="PF12706" points="677,40 687,28 695,28 695,52 687,52" stroke-linejoin="round" width="19" height="24" fill="rgb(62,169,197)" stroke="rgb(49,135,157)" stroke-width="1" opacity="0.75" />
			</g>
		</g>
		<g>
			<title>lrpC (IBGHNMIF_00375)
HTH-type transcriptional regulator LrpC</title>
			<polygon class="lrpC (IBGHNMIF_00375)
HTH-type transcriptional regulator LrpC" points="702,10 716,40 702,70" fill="rgb(255,255,255)" fill-opacity="1.0" stroke="rgb(0,0,0)" stroke-width="2"  />
			<g>
				<title>HTH_24 (PF13412)
"Winged helix-turn-helix DNA-binding"</title>
				<rect class="PF13412" x="702" y="28" stroke-linejoin="round" width="4" height="24" fill="rgb(222,79,68)" stroke="rgb(177,63,54)" stroke-width="1" opacity="0.75" />
			</g>
			<g>
				<title>AsnC_trans_reg (PF01037)
"Lrp/AsnC ligand binding domain"</title>
				<polygon class="PF01037" points="707,28 712,40 707,52" stroke-linejoin="round" width="8" height="24" fill="rgb(134,72,182)" stroke="rgb(107,57,145)" stroke-width="1" opacity="0.75" />
			</g>
		</g>
		<g>
			<title> (IBGHNMIF_00376)
hypothetical protein</title>
			<polygon class=" (IBGHNMIF_00376)
hypothetical protein" points="722,10 750,40 722,70" fill="rgb(255,255,255)" fill-opacity="1.0" stroke="rgb(0,0,0)" stroke-width="2"  />
			<g>
				<title>STAS (PF01740)
"STAS domain"</title>
				<polygon class="PF01740" points="738,32 746,40 738,48" stroke-linejoin="round" width="10" height="24" fill="rgb(219,58,116)" stroke="rgb(175,46,92)" stroke-width="1" opacity="0.75" />
			</g>
		</g>
		<g>
			<title> (IBGHNMIF_00377)
hypothetical protein</title>
			<polygon class=" (IBGHNMIF_00377)
hypothetical protein" points="755,25 758,25 758,10 788,40 758,70 758,55 755,55" fill="rgb(255,255,255)" fill-opacity="1.0" stroke="rgb(0,0,0)" stroke-width="2"  />
			<g>
				<title>DUF3231 (PF11553)
"Protein of unknown function (DUF3231)"</title>
				<rect class="PF11553" x="755" y="28" stroke-linejoin="round" width="15" height="24" fill="rgb(179,90,188)" stroke="rgb(143,72,150)" stroke-width="1" opacity="0.75" />
			</g>
			<g>
				<title>DUF3231 (PF11553)
"Protein of unknown function (DUF3231)"</title>
				<polygon class="PF11553" points="772,28 772,28 784,40 772,52 772,52" stroke-linejoin="round" width="16" height="24" fill="rgb(179,90,188)" stroke="rgb(143,72,150)" stroke-width="1" opacity="0.75" />
			</g>
		</g>
	</g>
</svg>
