<svg version="1.1" baseProfile="full" xmlns="http://www.w3.org/2000/svg" width="485.0" height="80">
	<g>
		<line x1="10" y1="40.0" x2="475.0" y2="40.0" style="stroke:rgb(70,70,70); stroke-width:3 "/>
		<g>
			<title>yfiY (ILGKOEJG_00460)
putative siderophore-binding lipoprotein YfiY</title>
			<polygon class="yfiY (ILGKOEJG_00460)
putative siderophore-binding lipoprotein YfiY" points="46,25 44,25 44,10 14,40 44,70 44,55 46,55" fill="rgb(255,255,255)" fill-opacity="1.0" stroke="rgb(0,0,0)" stroke-width="2"  />
			<g>
				<title>Peripla_BP_2 (PF01497)
"Periplasmic binding protein"</title>
				<polygon class="PF01497" points="18,40 30,28 39,28 39,52 30,52" stroke-linejoin="round" width="23" height="24" fill="rgb(183,226,104)" stroke="rgb(146,180,83)" stroke-width="1" opacity="0.75" />
			</g>
		</g>
		<g>
			<title>yfiZ (ILGKOEJG_00461)
putative siderophore transport system permease protein YfiZ</title>
			<polygon class="yfiZ (ILGKOEJG_00461)
putative siderophore transport system permease protein YfiZ" points="53,25 56,25 56,10 86,40 56,70 56,55 53,55" fill="rgb(255,255,255)" fill-opacity="1.0" stroke="rgb(0,0,0)" stroke-width="2"  />
			<g>
				<title>FecCD (PF01032)
"FecCD transport family"</title>
				<polygon class="PF01032" points="54,28 70,28 82,40 70,52 54,52" stroke-linejoin="round" width="31" height="24" fill="rgb(210,177,70)" stroke="rgb(168,141,56)" stroke-width="1" opacity="0.75" />
			</g>
		</g>
		<g>
			<title>yfhA (ILGKOEJG_00462)
putative siderophore transport system permease protein YfhA</title>
			<polygon class="yfhA (ILGKOEJG_00462)
putative siderophore transport system permease protein YfhA" points="86,25 91,25 91,10 121,40 91,70 91,55 86,55" fill="rgb(255,255,255)" fill-opacity="1.0" stroke="rgb(0,0,0)" stroke-width="2"  />
			<g>
				<title>FecCD (PF01032)
"FecCD transport family"</title>
				<polygon class="PF01032" points="89,28 105,28 117,40 105,52 89,52" stroke-linejoin="round" width="31" height="24" fill="rgb(210,177,70)" stroke="rgb(168,141,56)" stroke-width="1" opacity="0.75" />
			</g>
		</g>
		<g>
			<title>azoR2 (ILGKOEJG_00463)
FMN-dependent NADH-azoreductase 2</title>
			<polygon class="azoR2 (ILGKOEJG_00463)
FMN-dependent NADH-azoreductase 2" points="129,10 150,40 129,70" fill="rgb(255,255,255)" fill-opacity="1.0" stroke="rgb(0,0,0)" stroke-width="2"  />
			<g>
				<title>Flavodoxin_2 (PF02525)
"Flavodoxin-like fold"</title>
				<polygon class="PF02525" points="129,28 138,28 146,40 138,52 129,52" stroke-linejoin="round" width="20" height="24" fill="rgb(159,188,70)" stroke="rgb(127,150,56)" stroke-width="1" opacity="0.75" />
			</g>
		</g>
		<g>
			<title> (ILGKOEJG_00464)
hypothetical protein</title>
			<polygon class=" (ILGKOEJG_00464)
hypothetical protein" points="151,40 165,10 165,70" fill="rgb(255,255,255)" fill-opacity="1.0" stroke="rgb(0,0,0)" stroke-width="2"  />
			<g>
				<title>RDD (PF06271)
"RDD family"</title>
				<polygon class="PF06271" points="154,40 160,28 164,28 164,52 160,52" stroke-linejoin="round" width="12" height="24" fill="rgb(75,173,207)" stroke="rgb(60,138,165)" stroke-width="1" opacity="0.75" />
			</g>
		</g>
		<g>
			<title> (ILGKOEJG_00465)
hypothetical protein</title>
			<polygon class=" (ILGKOEJG_00465)
hypothetical protein" points="176,25 210,25 210,10 240,40 210,70 210,55 176,55" fill="rgb(255,255,255)" fill-opacity="1.0" stroke="rgb(0,0,0)" stroke-width="2"  />
			<g>
				<title>IucA_IucC (PF04183)
"IucA / IucC family"</title>
				<rect class="PF04183" x="194" y="28" stroke-linejoin="round" width="24" height="24" fill="rgb(221,104,121)" stroke="rgb(176,83,96)" stroke-width="1" opacity="0.75" />
			</g>
			<g>
				<title>FhuF (PF06276)
"Ferric iron reductase FhuF-like transporter"</title>
				<polygon class="PF06276" points="222,28 224,28 236,40 224,52 222,52" stroke-linejoin="round" width="16" height="24" fill="rgb(76,151,221)" stroke="rgb(60,120,176)" stroke-width="1" opacity="0.75" />
			</g>
		</g>
		<g>
			<title> (ILGKOEJG_00466)
hypothetical protein</title>
			<polygon class=" (ILGKOEJG_00466)
hypothetical protein" points="241,25 278,25 278,10 308,40 278,70 278,55 241,55" fill="rgb(255,255,255)" fill-opacity="1.0" stroke="rgb(0,0,0)" stroke-width="2"  />
			<g>
				<title>IucA_IucC (PF04183)
"IucA / IucC family"</title>
				<rect class="PF04183" x="263" y="28" stroke-linejoin="round" width="23" height="24" fill="rgb(221,104,121)" stroke="rgb(176,83,96)" stroke-width="1" opacity="0.75" />
			</g>
			<g>
				<title>FhuF (PF06276)
"Ferric iron reductase FhuF-like transporter"</title>
				<polygon class="PF06276" points="289,28 291,28 303,40 291,52 289,52" stroke-linejoin="round" width="16" height="24" fill="rgb(76,151,221)" stroke="rgb(60,120,176)" stroke-width="1" opacity="0.75" />
			</g>
		</g>
		<g>
			<title>entS_1 (ILGKOEJG_00467)
Enterobactin exporter EntS</title>
			<polygon class="entS_1 (ILGKOEJG_00467)
Enterobactin exporter EntS" points="308,25 319,25 319,10 349,40 319,70 319,55 308,55" fill="rgb(255,255,255)" fill-opacity="1.0" stroke="rgb(0,0,0)" stroke-width="2"  />
			<g>
				<title>MFS_3 (PF05977)
"Transmembrane secretion effector"</title>
				<polygon class="PF05977" points="309,28 332,28 344,40 332,52 309,52" stroke-linejoin="round" width="39" height="24" fill="rgb(80,62,217)" stroke="rgb(64,49,173)" stroke-width="1" opacity="0.75" />
			</g>
		</g>
		<g>
			<title>sbnH (ILGKOEJG_00468)
2-[(L-alanin-3-ylcarbamoyl)methyl]-2- hydroxybutanedioate decarboxylase</title>
			<polygon class="sbnH (ILGKOEJG_00468)
2-[(L-alanin-3-ylcarbamoyl)methyl]-2- hydroxybutanedioate decarboxylase" points="349,25 360,25 360,10 390,40 360,70 360,55 349,55" fill="rgb(255,255,255)" fill-opacity="1.0" stroke="rgb(0,0,0)" stroke-width="2"  />
			<g>
				<title>Orn_Arg_deC_N (PF02784)
"Pyridoxal-dependent decarboxylase, pyridoxal binding domain"</title>
				<polygon class="PF02784" points="352,28 373,28 376,31 376,49 373,52 352,52" stroke-linejoin="round" width="24" height="24" fill="rgb(106,204,212)" stroke="rgb(84,163,169)" stroke-width="1" opacity="0.75" />
			</g>
		</g>
		<g>
			<title> (ILGKOEJG_00469)
hypothetical protein</title>
			<polygon class=" (ILGKOEJG_00469)
hypothetical protein" points="391,40 412,10 412,70" fill="rgb(255,255,255)" fill-opacity="1.0" stroke="rgb(0,0,0)" stroke-width="2"  />
			<g>
				<title>FBP_C (PF16571)
"FBP C-terminal treble-clef zinc-finger"</title>
				<polygon class="PF16571" points="395,40 402,30 402,50" stroke-linejoin="round" width="11" height="24" fill="rgb(216,87,207)" stroke="rgb(172,69,165)" stroke-width="1" opacity="0.75" />
			</g>
			<g>
				<title>EF-G-binding_N (PF07299)
"Elongation factor G-binding protein, N-terminal"</title>
				<polygon class="PF07299" points="403,29 403,28 411,28 411,52 403,52 403,51" stroke-linejoin="round" width="8" height="24" fill="rgb(210,121,70)" stroke="rgb(168,96,56)" stroke-width="1" opacity="0.75" />
			</g>
		</g>
		<g>
			<title> (ILGKOEJG_00470)
hypothetical protein</title>
			<polygon class=" (ILGKOEJG_00470)
hypothetical protein" points="416,10 421,40 416,70" fill="rgb(255,255,255)" fill-opacity="1.0" stroke="rgb(0,0,0)" stroke-width="2"  />
		</g>
		<g>
			<title> (ILGKOEJG_00471)
hypothetical protein</title>
			<polygon class=" (ILGKOEJG_00471)
hypothetical protein" points="421,10 436,40 421,70" fill="rgb(255,255,255)" fill-opacity="1.0" stroke="rgb(0,0,0)" stroke-width="2"  />
		</g>
		<g>
			<title> (ILGKOEJG_00472)
hypothetical protein</title>
			<polygon class=" (ILGKOEJG_00472)
hypothetical protein" points="438,10 454,40 438,70" fill="rgb(255,255,255)" fill-opacity="1.0" stroke="rgb(0,0,0)" stroke-width="2"  />
		</g>
	</g>
</svg>
