<svg version="1.1" baseProfile="full" xmlns="http://www.w3.org/2000/svg" width="475.7" height="80">
	<g>
		<line x1="10" y1="40.0" x2="465.7" y2="40.0" style="stroke:rgb(70,70,70); stroke-width:3 "/>
		<g>
			<title>COQ3 (AHCFJJOH_02793)
Ubiquinone biosynthesis O-methyltransferase, mitochondrial</title>
			<polygon class="COQ3 (AHCFJJOH_02793)
Ubiquinone biosynthesis O-methyltransferase, mitochondrial" points="23,10 44,40 23,70" fill="rgb(255,255,255)" fill-opacity="1.0" stroke="rgb(0,0,0)" stroke-width="2"  />
			<g>
				<title>Methyltransf_11 (PF08241)
"Methyltransferase domain"</title>
				<polygon class="PF08241" points="27,28 32,28 36,33 36,47 32,52 27,52" stroke-linejoin="round" width="9" height="24" fill="rgb(106,219,159)" stroke="rgb(84,175,127)" stroke-width="1" opacity="0.75" />
			</g>
		</g>
		<g>
			<title>yqjY (AHCFJJOH_02794)
putative protein YqjY</title>
			<polygon class="yqjY (AHCFJJOH_02794)
putative protein YqjY" points="45,10 61,40 45,70" fill="rgb(255,255,255)" fill-opacity="1.0" stroke="rgb(0,0,0)" stroke-width="2"  />
			<g>
				<title>Acetyltransf_1 (PF00583)
"Acetyltransferase (GNAT) family"</title>
				<polygon class="PF00583" points="46,28 51,28 57,38 57,42 51,52 46,52" stroke-linejoin="round" width="11" height="24" fill="rgb(121,183,50)" stroke="rgb(96,146,39)" stroke-width="1" opacity="0.75" />
			</g>
		</g>
		<g>
			<title> (AHCFJJOH_02795)
hypothetical protein</title>
			<polygon class=" (AHCFJJOH_02795)
hypothetical protein" points="62,40 77,10 77,70" fill="rgb(255,255,255)" fill-opacity="1.0" stroke="rgb(0,0,0)" stroke-width="2"  />
			<g>
				<title>DMT_YdcZ (PF04657)
"Putative inner membrane exporter, YdcZ"</title>
				<polygon class="PF04657" points="65,40 71,28 76,28 76,52 71,52" stroke-linejoin="round" width="13" height="24" fill="rgb(63,139,178)" stroke="rgb(50,111,142)" stroke-width="1" opacity="0.75" />
			</g>
		</g>
		<g>
			<title> (AHCFJJOH_02796)
hypothetical protein</title>
			<polygon class=" (AHCFJJOH_02796)
hypothetical protein" points="78,40 92,10 92,70" fill="rgb(255,255,255)" fill-opacity="1.0" stroke="rgb(0,0,0)" stroke-width="2"  />
			<g>
				<title>DMT_YdcZ (PF04657)
"Putative inner membrane exporter, YdcZ"</title>
				<polygon class="PF04657" points="81,40 87,28 91,28 91,52 87,52" stroke-linejoin="round" width="13" height="24" fill="rgb(63,139,178)" stroke="rgb(50,111,142)" stroke-width="1" opacity="0.75" />
			</g>
		</g>
		<g>
			<title>arsR1 (AHCFJJOH_02797)
Arsenic resistance transcriptional regulator ArsR1</title>
			<polygon class="arsR1 (AHCFJJOH_02797)
Arsenic resistance transcriptional regulator ArsR1" points="94,40 104,10 104,70" fill="rgb(255,255,255)" fill-opacity="1.0" stroke="rgb(0,0,0)" stroke-width="2"  />
			<g>
				<title>HTH_20 (PF12840)
"Helix-turn-helix domain"</title>
				<polygon class="PF12840" points="97,40 101,28 103,28 103,52 101,52" stroke-linejoin="round" width="7" height="24" fill="rgb(157,225,93)" stroke="rgb(125,180,74)" stroke-width="1" opacity="0.75" />
			</g>
		</g>
		<g>
			<title> (AHCFJJOH_02798)
hypothetical protein</title>
			<polygon class=" (AHCFJJOH_02798)
hypothetical protein" points="110,10 121,40 110,70" fill="rgb(255,255,255)" fill-opacity="1.0" stroke="rgb(0,0,0)" stroke-width="2"  />
		</g>
		<g>
			<title> (AHCFJJOH_02799)
hypothetical protein</title>
			<polygon class=" (AHCFJJOH_02799)
hypothetical protein" points="123,10 130,40 123,70" fill="rgb(255,255,255)" fill-opacity="1.0" stroke="rgb(0,0,0)" stroke-width="2"  />
		</g>
		<g>
			<title> (AHCFJJOH_02800)
hypothetical protein</title>
			<polygon class=" (AHCFJJOH_02800)
hypothetical protein" points="133,40 139,10 139,70" fill="rgb(255,255,255)" fill-opacity="1.0" stroke="rgb(0,0,0)" stroke-width="2"  />
			<g>
				<title>YjzC (PF14168)
"YjzC-like protein"</title>
				<polygon class="PF14168" points="136,40 138,28 138,28 138,52 138,52" stroke-linejoin="round" width="5" height="24" fill="rgb(96,141,215)" stroke="rgb(76,112,172)" stroke-width="1" opacity="0.75" />
			</g>
		</g>
		<g>
			<title> (AHCFJJOH_02801)
hypothetical protein</title>
			<polygon class=" (AHCFJJOH_02801)
hypothetical protein" points="144,40 168,10 168,70" fill="rgb(255,255,255)" fill-opacity="1.0" stroke="rgb(0,0,0)" stroke-width="2"  />
			<g>
				<title>FhuF (PF06276)
"Ferric iron reductase FhuF-like transporter"</title>
				<polygon class="PF06276" points="148,40 158,28 162,28 162,52 158,52" stroke-linejoin="round" width="15" height="24" fill="rgb(76,151,221)" stroke="rgb(60,120,176)" stroke-width="1" opacity="0.75" />
			</g>
		</g>
		<g>
			<title>sbnF (AHCFJJOH_02802)
2-[(L-alanin-3-ylcarbamoyl)methyl]-3-(2- aminoethylcarbamoyl)-2-hydroxypropanoate synthase</title>
			<polygon class="sbnF (AHCFJJOH_02802)
2-[(L-alanin-3-ylcarbamoyl)methyl]-3-(2- aminoethylcarbamoyl)-2-hydroxypropanoate synthase" points="176,25 205,25 205,10 235,40 205,70 205,55 176,55" fill="rgb(255,255,255)" fill-opacity="1.0" stroke="rgb(0,0,0)" stroke-width="2"  />
			<g>
				<title>IucA_IucC (PF04183)
"IucA / IucC family"</title>
				<rect class="PF04183" x="190" y="28" stroke-linejoin="round" width="24" height="24" fill="rgb(221,104,121)" stroke="rgb(176,83,96)" stroke-width="1" opacity="0.75" />
			</g>
			<g>
				<title>FhuF (PF06276)
"Ferric iron reductase FhuF-like transporter"</title>
				<polygon class="PF06276" points="217,28 218,28 230,40 218,52 217,52" stroke-linejoin="round" width="16" height="24" fill="rgb(76,151,221)" stroke="rgb(60,120,176)" stroke-width="1" opacity="0.75" />
			</g>
		</g>
		<g>
			<title> (AHCFJJOH_02803)
hypothetical protein</title>
			<polygon class=" (AHCFJJOH_02803)
hypothetical protein" points="235,25 268,25 268,10 298,40 268,70 268,55 235,55" fill="rgb(255,255,255)" fill-opacity="1.0" stroke="rgb(0,0,0)" stroke-width="2"  />
			<g>
				<title>IucA_IucC (PF04183)
"IucA / IucC family"</title>
				<rect class="PF04183" x="255" y="28" stroke-linejoin="round" width="23" height="24" fill="rgb(221,104,121)" stroke="rgb(176,83,96)" stroke-width="1" opacity="0.75" />
			</g>
			<g>
				<title>FhuF (PF06276)
"Ferric iron reductase FhuF-like transporter"</title>
				<polygon class="PF06276" points="280,28 282,28 294,40 282,52 280,52" stroke-linejoin="round" width="16" height="24" fill="rgb(76,151,221)" stroke="rgb(60,120,176)" stroke-width="1" opacity="0.75" />
			</g>
		</g>
		<g>
			<title>sbnH (AHCFJJOH_02804)
2-[(L-alanin-3-ylcarbamoyl)methyl]-2- hydroxybutanedioate decarboxylase</title>
			<polygon class="sbnH (AHCFJJOH_02804)
2-[(L-alanin-3-ylcarbamoyl)methyl]-2- hydroxybutanedioate decarboxylase" points="299,25 309,25 309,10 339,40 309,70 309,55 299,55" fill="rgb(255,255,255)" fill-opacity="1.0" stroke="rgb(0,0,0)" stroke-width="2"  />
			<g>
				<title>Orn_Arg_deC_N (PF02784)
"Pyridoxal-dependent decarboxylase, pyridoxal binding domain"</title>
				<polygon class="PF02784" points="301,28 323,28 325,30 325,50 323,52 301,52" stroke-linejoin="round" width="24" height="24" fill="rgb(106,204,212)" stroke="rgb(84,163,169)" stroke-width="1" opacity="0.75" />
			</g>
		</g>
		<g>
			<title> (AHCFJJOH_02805)
hypothetical protein</title>
			<polygon class=" (AHCFJJOH_02805)
hypothetical protein" points="336,40 362,10 362,70" fill="rgb(255,255,255)" fill-opacity="1.0" stroke="rgb(0,0,0)" stroke-width="2"  />
		</g>
		<g>
			<title> (AHCFJJOH_02806)
hypothetical protein</title>
			<polygon class=" (AHCFJJOH_02806)
hypothetical protein" points="365,10 382,40 365,70" fill="rgb(255,255,255)" fill-opacity="1.0" stroke="rgb(0,0,0)" stroke-width="2"  />
		</g>
		<g>
			<title> (AHCFJJOH_02807)
hypothetical protein</title>
			<polygon class=" (AHCFJJOH_02807)
hypothetical protein" points="388,10 393,40 388,70" fill="rgb(255,255,255)" fill-opacity="1.0" stroke="rgb(0,0,0)" stroke-width="2"  />
		</g>
		<g>
			<title> (AHCFJJOH_02808)
hypothetical protein</title>
			<polygon class=" (AHCFJJOH_02808)
hypothetical protein" points="394,10 409,40 394,70" fill="rgb(255,255,255)" fill-opacity="1.0" stroke="rgb(0,0,0)" stroke-width="2"  />
			<g>
				<title>Acetyltransf_10 (PF13673)
"Acetyltransferase (GNAT) domain"</title>
				<polygon class="PF13673" points="394,28 399,28 405,40 399,52 394,52" stroke-linejoin="round" width="14" height="24" fill="rgb(88,180,95)" stroke="rgb(70,144,76)" stroke-width="1" opacity="0.75" />
			</g>
		</g>
		<g>
			<title> (AHCFJJOH_02809)
hypothetical protein</title>
			<polygon class=" (AHCFJJOH_02809)
hypothetical protein" points="412,10 437,40 412,70" fill="rgb(255,255,255)" fill-opacity="1.0" stroke="rgb(0,0,0)" stroke-width="2"  />
			<g>
				<title>Methyltransf_11 (PF08241)
"Methyltransferase domain"</title>
				<polygon class="PF08241" points="418,28 423,28 427,33 427,47 423,52 418,52" stroke-linejoin="round" width="9" height="24" fill="rgb(106,219,159)" stroke="rgb(84,175,127)" stroke-width="1" opacity="0.75" />
			</g>
		</g>
		<g>
			<title> (AHCFJJOH_02810)
hypothetical protein</title>
			<polygon class=" (AHCFJJOH_02810)
hypothetical protein" points="443,10 450,40 443,70" fill="rgb(255,255,255)" fill-opacity="1.0" stroke="rgb(0,0,0)" stroke-width="2"  />
		</g>
	</g>
</svg>
