<svg version="1.1" baseProfile="full" xmlns="http://www.w3.org/2000/svg" width="750.0666666666667" height="80">
	<g>
		<line x1="10" y1="40.0" x2="740.0666666666667" y2="40.0" style="stroke:rgb(70,70,70); stroke-width:3 "/>
		<g>
			<title> (BBLDBBGM_01703)
hypothetical protein</title>
			<polygon class=" (BBLDBBGM_01703)
hypothetical protein" points="26,40 47,10 47,70" fill="rgb(255,255,255)" fill-opacity="1.0" stroke="rgb(0,0,0)" stroke-width="2"  />
			<g>
				<title>2OG-FeII_Oxy_3 (PF13640)
"2OG-Fe(II) oxygenase superfamily"</title>
				<polygon class="PF13640" points="30,40 35,33 35,47" stroke-linejoin="round" width="9" height="24" fill="rgb(163,67,223)" stroke="rgb(130,53,178)" stroke-width="1" opacity="0.75" />
			</g>
		</g>
		<g>
			<title> (BBLDBBGM_01704)
hypothetical protein</title>
			<polygon class=" (BBLDBBGM_01704)
hypothetical protein" points="59,40 71,10 71,70" fill="rgb(255,255,255)" fill-opacity="1.0" stroke="rgb(0,0,0)" stroke-width="2"  />
		</g>
		<g>
			<title> (BBLDBBGM_01705)
hypothetical protein</title>
			<polygon class=" (BBLDBBGM_01705)
hypothetical protein" points="72,40 89,10 89,70" fill="rgb(255,255,255)" fill-opacity="1.0" stroke="rgb(0,0,0)" stroke-width="2"  />
			<g>
				<title>4HBT (PF03061)
"Thioesterase superfamily"</title>
				<polygon class="PF03061" points="79,33 82,28 86,28 86,52 82,52 79,47" stroke-linejoin="round" width="7" height="24" fill="rgb(143,103,215)" stroke="rgb(114,82,172)" stroke-width="1" opacity="0.75" />
			</g>
		</g>
		<g>
			<title>cynR (BBLDBBGM_01706)
HTH-type transcriptional regulator CynR</title>
			<polygon class="cynR (BBLDBBGM_01706)
HTH-type transcriptional regulator CynR" points="96,40 125,10 125,70" fill="rgb(255,255,255)" fill-opacity="1.0" stroke="rgb(0,0,0)" stroke-width="2"  />
			<g>
				<title>LysR_substrate (PF03466)
"LysR substrate binding domain"</title>
				<polygon class="PF03466" points="100,40 112,28 116,28 116,52 112,52" stroke-linejoin="round" width="20" height="24" fill="rgb(55,136,195)" stroke="rgb(44,108,156)" stroke-width="1" opacity="0.75" />
			</g>
			<g>
				<title>HTH_1 (PF00126)
"Bacterial regulatory helix-turn-helix protein, lysR family"</title>
				<rect class="PF00126" x="119" y="28" stroke-linejoin="round" width="5" height="24" fill="rgb(125,227,79)" stroke="rgb(99,181,63)" stroke-width="1" opacity="0.75" />
			</g>
		</g>
		<g>
			<title> (BBLDBBGM_01707)
hypothetical protein</title>
			<polygon class=" (BBLDBBGM_01707)
hypothetical protein" points="133,40 154,10 154,70" fill="rgb(255,255,255)" fill-opacity="1.0" stroke="rgb(0,0,0)" stroke-width="2"  />
		</g>
		<g>
			<title>yfhA (BBLDBBGM_01708)
putative siderophore transport system permease protein YfhA</title>
			<polygon class="yfhA (BBLDBBGM_01708)
putative siderophore transport system permease protein YfhA" points="188,25 184,25 184,10 154,40 184,70 184,55 188,55" fill="rgb(255,255,255)" fill-opacity="1.0" stroke="rgb(0,0,0)" stroke-width="2"  />
			<g>
				<title>FecCD (PF01032)
"FecCD transport family"</title>
				<polygon class="PF01032" points="158,40 170,28 185,28 185,52 170,52" stroke-linejoin="round" width="31" height="24" fill="rgb(210,177,70)" stroke="rgb(168,141,56)" stroke-width="1" opacity="0.75" />
			</g>
		</g>
		<g>
			<title>yfiZ (BBLDBBGM_01709)
putative siderophore transport system permease protein YfiZ</title>
			<polygon class="yfiZ (BBLDBBGM_01709)
putative siderophore transport system permease protein YfiZ" points="222,25 219,25 219,10 189,40 219,70 219,55 222,55" fill="rgb(255,255,255)" fill-opacity="1.0" stroke="rgb(0,0,0)" stroke-width="2"  />
			<g>
				<title>FecCD (PF01032)
"FecCD transport family"</title>
				<polygon class="PF01032" points="193,40 205,28 220,28 220,52 205,52" stroke-linejoin="round" width="31" height="24" fill="rgb(210,177,70)" stroke="rgb(168,141,56)" stroke-width="1" opacity="0.75" />
			</g>
		</g>
		<g>
			<title>yfiY_1 (BBLDBBGM_01710)
putative siderophore-binding lipoprotein YfiY</title>
			<polygon class="yfiY_1 (BBLDBBGM_01710)
putative siderophore-binding lipoprotein YfiY" points="258,25 255,25 255,10 225,40 255,70 255,55 258,55" fill="rgb(255,255,255)" fill-opacity="1.0" stroke="rgb(0,0,0)" stroke-width="2"  />
			<g>
				<title>Peripla_BP_2 (PF01497)
"Periplasmic binding protein"</title>
				<polygon class="PF01497" points="229,40 241,28 250,28 250,52 241,52" stroke-linejoin="round" width="23" height="24" fill="rgb(183,226,104)" stroke="rgb(146,180,83)" stroke-width="1" opacity="0.75" />
			</g>
		</g>
		<g>
			<title>ydjP (BBLDBBGM_01711)
AB hydrolase superfamily protein YdjP</title>
			<polygon class="ydjP (BBLDBBGM_01711)
AB hydrolase superfamily protein YdjP" points="266,10 293,40 266,70" fill="rgb(255,255,255)" fill-opacity="1.0" stroke="rgb(0,0,0)" stroke-width="2"  />
			<g>
				<title>Abhydrolase_1 (PF00561)
"alpha/beta hydrolase fold"</title>
				<polygon class="PF00561" points="268,28 277,28 287,38 287,42 277,52 268,52" stroke-linejoin="round" width="19" height="24" fill="rgb(86,180,151)" stroke="rgb(68,144,120)" stroke-width="1" opacity="0.75" />
			</g>
		</g>
		<g>
			<title> (BBLDBBGM_01712)
Ferredoxin--NADP reductase</title>
			<polygon class=" (BBLDBBGM_01712)
Ferredoxin--NADP reductase" points="333,25 329,25 329,10 299,40 329,70 329,55 333,55" fill="rgb(255,255,255)" fill-opacity="1.0" stroke="rgb(0,0,0)" stroke-width="2"  />
			<g>
				<title>Pyr_redox_2 (PF07992)
"Pyridine nucleotide-disulphide oxidoreductase"</title>
				<polygon class="PF07992" points="303,40 315,28 333,28 333,52 315,52 303,40" stroke-linejoin="round" width="30" height="24" fill="rgb(83,223,167)" stroke="rgb(66,178,133)" stroke-width="1" opacity="0.75" />
			</g>
		</g>
		<g>
			<title>sqhC (BBLDBBGM_01713)
Sporulenol synthase</title>
			<polygon class="sqhC (BBLDBBGM_01713)
Sporulenol synthase" points="406,25 373,25 373,10 343,40 373,70 373,55 406,55" fill="rgb(255,255,255)" fill-opacity="1.0" stroke="rgb(0,0,0)" stroke-width="2"  />
			<g>
				<title>SQHop_cyclase_C (PF13243)
"Squalene-hopene cyclase C-terminal domain"</title>
				<polygon class="PF13243" points="347,40 359,28 374,28 374,52 359,52" stroke-linejoin="round" width="31" height="24" fill="rgb(191,58,201)" stroke="rgb(152,46,160)" stroke-width="1" opacity="0.75" />
			</g>
			<g>
				<title>SQHop_cyclase_N (PF13249)
"Squalene-hopene cyclase N-terminal domain"</title>
				<rect class="PF13249" x="376" y="28" stroke-linejoin="round" width="28" height="24" fill="rgb(88,190,89)" stroke="rgb(70,152,71)" stroke-width="1" opacity="0.75" />
			</g>
		</g>
		<g>
			<title> (BBLDBBGM_01714)
hypothetical protein</title>
			<polygon class=" (BBLDBBGM_01714)
hypothetical protein" points="410,25 417,25 417,10 447,40 417,70 417,55 410,55" fill="rgb(255,255,255)" fill-opacity="1.0" stroke="rgb(0,0,0)" stroke-width="2"  />
			<g>
				<title>DUF2515 (PF10720)
"Protein of unknown function (DUF2515)"</title>
				<polygon class="PF10720" points="413,28 430,28 442,40 430,52 413,52" stroke-linejoin="round" width="33" height="24" fill="rgb(66,168,216)" stroke="rgb(52,134,172)" stroke-width="1" opacity="0.75" />
			</g>
		</g>
		<g>
			<title> (BBLDBBGM_01715)
hypothetical protein</title>
			<polygon class=" (BBLDBBGM_01715)
hypothetical protein" points="463,25 480,25 480,10 510,40 480,70 480,55 463,55" fill="rgb(255,255,255)" fill-opacity="1.0" stroke="rgb(0,0,0)" stroke-width="2"  />
		</g>
		<g>
			<title>rlmCD_2 (BBLDBBGM_01716)
23S rRNA (uracil-C(5))-methyltransferase RlmCD</title>
			<polygon class="rlmCD_2 (BBLDBBGM_01716)
23S rRNA (uracil-C(5))-methyltransferase RlmCD" points="573,25 555,25 555,10 525,40 555,70 555,55 573,55" fill="rgb(255,255,255)" fill-opacity="1.0" stroke="rgb(0,0,0)" stroke-width="2"  />
			<g>
				<title>tRNA_U5-meth_tr (PF05958)
"tRNA (Uracil-5-)-methyltransferase"</title>
				<polygon class="PF05958" points="529,40 541,28 561,28 561,52 541,52" stroke-linejoin="round" width="36" height="24" fill="rgb(187,48,82)" stroke="rgb(149,38,65)" stroke-width="1" opacity="0.75" />
			</g>
		</g>
		<g>
			<title>rhaR_1 (BBLDBBGM_01717)
HTH-type transcriptional activator RhaR</title>
			<polygon class="rhaR_1 (BBLDBBGM_01717)
HTH-type transcriptional activator RhaR" points="577,40 602,10 602,70" fill="rgb(255,255,255)" fill-opacity="1.0" stroke="rgb(0,0,0)" stroke-width="2"  />
			<g>
				<title>HTH_18 (PF12833)
"Helix-turn-helix domain"</title>
				<polygon class="PF12833" points="581,40 584,36 584,44" stroke-linejoin="round" width="7" height="24" fill="rgb(216,58,224)" stroke="rgb(172,46,179)" stroke-width="1" opacity="0.75" />
			</g>
			<g>
				<title>AraC_binding (PF02311)
"AraC-like ligand binding domain"</title>
				<polygon class="PF02311" points="589,30 591,28 600,28 600,52 591,52 589,50" stroke-linejoin="round" width="11" height="24" fill="rgb(81,203,213)" stroke="rgb(64,162,170)" stroke-width="1" opacity="0.75" />
			</g>
		</g>
		<g>
			<title> (BBLDBBGM_01718)
hypothetical protein</title>
			<polygon class=" (BBLDBBGM_01718)
hypothetical protein" points="608,25 642,25 642,10 672,40 642,70 642,55 608,55" fill="rgb(255,255,255)" fill-opacity="1.0" stroke="rgb(0,0,0)" stroke-width="2"  />
			<g>
				<title>DUF1565 (PF07602)
"Protein of unknown function (DUF1565)"</title>
				<rect class="PF07602" x="608" y="28" stroke-linejoin="round" width="4" height="24" fill="rgb(99,224,185)" stroke="rgb(79,179,147)" stroke-width="1" opacity="0.75" />
			</g>
			<g>
				<title>Beta_helix (PF13229)
"Right handed beta helix region"</title>
				<rect class="PF13229" x="631" y="28" stroke-linejoin="round" width="24" height="24" fill="rgb(197,72,157)" stroke="rgb(157,57,125)" stroke-width="1" opacity="0.75" />
			</g>
		</g>
		<g>
			<title> (BBLDBBGM_01719)
hypothetical protein</title>
			<polygon class=" (BBLDBBGM_01719)
hypothetical protein" points="677,40 687,10 687,70" fill="rgb(255,255,255)" fill-opacity="1.0" stroke="rgb(0,0,0)" stroke-width="2"  />
		</g>
		<g>
			<title> (BBLDBBGM_01720)
hypothetical protein</title>
			<polygon class=" (BBLDBBGM_01720)
hypothetical protein" points="693,10 699,40 693,70" fill="rgb(255,255,255)" fill-opacity="1.0" stroke="rgb(0,0,0)" stroke-width="2"  />
		</g>
		<g>
			<title> (BBLDBBGM_01721)
hypothetical protein</title>
			<polygon class=" (BBLDBBGM_01721)
hypothetical protein" points="711,10 719,40 711,70" fill="rgb(255,255,255)" fill-opacity="1.0" stroke="rgb(0,0,0)" stroke-width="2"  />
		</g>
	</g>
</svg>
