<svg version="1.1" baseProfile="full" xmlns="http://www.w3.org/2000/svg" width="483.03333333333336" height="80">
	<g>
		<line x1="10" y1="40.0" x2="473.03333333333336" y2="40.0" style="stroke:rgb(70,70,70); stroke-width:3 "/>
		<g>
			<title> (MDEOCCLA_03842)
hypothetical protein</title>
			<polygon class=" (MDEOCCLA_03842)
hypothetical protein" points="39,25 56,25 56,10 86,40 56,70 56,55 39,55" fill="rgb(255,255,255)" fill-opacity="1.0" stroke="rgb(0,0,0)" stroke-width="2"  />
			<g>
				<title>Na_H_antiporter (PF03553)
"Na+/H+ antiporter family"</title>
				<polygon class="PF03553" points="54,28 69,28 81,40 69,52 54,52" stroke-linejoin="round" width="31" height="24" fill="rgb(115,72,216)" stroke="rgb(91,57,172)" stroke-width="1" opacity="0.75" />
			</g>
		</g>
		<g>
			<title> (MDEOCCLA_03843)
hypothetical protein</title>
			<polygon class=" (MDEOCCLA_03843)
hypothetical protein" points="113,40 130,10 130,70" fill="rgb(255,255,255)" fill-opacity="1.0" stroke="rgb(0,0,0)" stroke-width="2"  />
			<g>
				<title>RDD (PF06271)
"RDD family"</title>
				<polygon class="PF06271" points="116,40 123,28 130,28 130,52 123,52" stroke-linejoin="round" width="16" height="24" fill="rgb(75,173,207)" stroke="rgb(60,138,165)" stroke-width="1" opacity="0.75" />
			</g>
		</g>
		<g>
			<title>sbnH (MDEOCCLA_03844)
2-[(L-alanin-3-ylcarbamoyl)methyl]-2- hydroxybutanedioate decarboxylase</title>
			<polygon class="sbnH (MDEOCCLA_03844)
2-[(L-alanin-3-ylcarbamoyl)methyl]-2- hydroxybutanedioate decarboxylase" points="175,25 165,25 165,10 135,40 165,70 165,55 175,55" fill="rgb(255,255,255)" fill-opacity="1.0" stroke="rgb(0,0,0)" stroke-width="2"  />
			<g>
				<title>Orn_Arg_deC_N (PF02784)
"Pyridoxal-dependent decarboxylase, pyridoxal binding domain"</title>
				<polygon class="PF02784" points="147,32 151,28 171,28 171,52 151,52 147,48" stroke-linejoin="round" width="24" height="24" fill="rgb(106,204,212)" stroke="rgb(84,163,169)" stroke-width="1" opacity="0.75" />
			</g>
		</g>
		<g>
			<title> (MDEOCCLA_03845)
hypothetical protein</title>
			<polygon class=" (MDEOCCLA_03845)
hypothetical protein" points="242,25 206,25 206,10 176,40 206,70 206,55 242,55" fill="rgb(255,255,255)" fill-opacity="1.0" stroke="rgb(0,0,0)" stroke-width="2"  />
			<g>
				<title>FhuF (PF06276)
"Ferric iron reductase FhuF-like transporter"</title>
				<polygon class="PF06276" points="180,40 192,28 193,28 193,52 192,52" stroke-linejoin="round" width="16" height="24" fill="rgb(76,151,221)" stroke="rgb(60,120,176)" stroke-width="1" opacity="0.75" />
			</g>
			<g>
				<title>IucA_IucC (PF04183)
"IucA / IucC family"</title>
				<rect class="PF04183" x="196" y="28" stroke-linejoin="round" width="23" height="24" fill="rgb(221,104,121)" stroke="rgb(176,83,96)" stroke-width="1" opacity="0.75" />
			</g>
		</g>
		<g>
			<title>sbnF (MDEOCCLA_03846)
2-[(L-alanin-3-ylcarbamoyl)methyl]-3-(2- aminoethylcarbamoyl)-2-hydroxypropanoate synthase</title>
			<polygon class="sbnF (MDEOCCLA_03846)
2-[(L-alanin-3-ylcarbamoyl)methyl]-3-(2- aminoethylcarbamoyl)-2-hydroxypropanoate synthase" points="306,25 273,25 273,10 243,40 273,70 273,55 306,55" fill="rgb(255,255,255)" fill-opacity="1.0" stroke="rgb(0,0,0)" stroke-width="2"  />
			<g>
				<title>FhuF (PF06276)
"Ferric iron reductase FhuF-like transporter"</title>
				<polygon class="PF06276" points="247,40 259,28 260,28 260,52 259,52" stroke-linejoin="round" width="16" height="24" fill="rgb(76,151,221)" stroke="rgb(60,120,176)" stroke-width="1" opacity="0.75" />
			</g>
			<g>
				<title>IucA_IucC (PF04183)
"IucA / IucC family"</title>
				<rect class="PF04183" x="264" y="28" stroke-linejoin="round" width="24" height="24" fill="rgb(221,104,121)" stroke="rgb(176,83,96)" stroke-width="1" opacity="0.75" />
			</g>
		</g>
		<g>
			<title> (MDEOCCLA_03847)
hypothetical protein</title>
			<polygon class=" (MDEOCCLA_03847)
hypothetical protein" points="315,10 339,40 315,70" fill="rgb(255,255,255)" fill-opacity="1.0" stroke="rgb(0,0,0)" stroke-width="2"  />
			<g>
				<title>FhuF (PF06276)
"Ferric iron reductase FhuF-like transporter"</title>
				<polygon class="PF06276" points="320,28 326,28 335,39 335,41 326,52 320,52" stroke-linejoin="round" width="15" height="24" fill="rgb(76,151,221)" stroke="rgb(60,120,176)" stroke-width="1" opacity="0.75" />
			</g>
		</g>
		<g>
			<title> (MDEOCCLA_03848)
hypothetical protein</title>
			<polygon class=" (MDEOCCLA_03848)
hypothetical protein" points="376,40 392,10 392,70" fill="rgb(255,255,255)" fill-opacity="1.0" stroke="rgb(0,0,0)" stroke-width="2"  />
			<g>
				<title>GyrI-like (PF06445)
"GyrI-like small molecule binding domain"</title>
				<polygon class="PF06445" points="379,40 385,28 391,28 391,52 385,52" stroke-linejoin="round" width="15" height="24" fill="rgb(61,183,118)" stroke="rgb(48,146,94)" stroke-width="1" opacity="0.75" />
			</g>
		</g>
		<g>
			<title>argF (MDEOCCLA_03849)
Ornithine carbamoyltransferase</title>
			<polygon class="argF (MDEOCCLA_03849)
Ornithine carbamoyltransferase" points="430,25 429,25 429,10 399,40 429,70 429,55 430,55" fill="rgb(255,255,255)" fill-opacity="1.0" stroke="rgb(0,0,0)" stroke-width="2"  />
			<g>
				<title>OTCace (PF00185)
"Aspartate/ornithine carbamoyltransferase, Asp/Orn binding domain"</title>
				<polygon class="PF00185" points="403,40 414,29 414,51" stroke-linejoin="round" width="15" height="24" fill="rgb(215,107,106)" stroke="rgb(172,85,84)" stroke-width="1" opacity="0.75" />
			</g>
			<g>
				<title>OTCace_N (PF02729)
"Aspartate/ornithine carbamoyltransferase, carbamoyl-P binding domain"</title>
				<polygon class="PF02729" points="415,28 415,28 428,28 428,52 415,52 415,52" stroke-linejoin="round" width="13" height="24" fill="rgb(223,74,58)" stroke="rgb(178,59,46)" stroke-width="1" opacity="0.75" />
			</g>
		</g>
	</g>
</svg>
