<svg version="1.1" baseProfile="full" xmlns="http://www.w3.org/2000/svg" width="363.93333333333334" height="80">
	<g>
		<line x1="10" y1="40.0" x2="353.93333333333334" y2="40.0" style="stroke:rgb(70,70,70); stroke-width:3 "/>
		<g>
			<title> (OKCGIKJE_01818)
Fluoroquinolones export ATP-binding protein</title>
			<polygon class=" (OKCGIKJE_01818)
Fluoroquinolones export ATP-binding protein" points="17,10 45,40 17,70" fill="rgb(255,255,255)" fill-opacity="1.0" stroke="rgb(0,0,0)" stroke-width="2"  />
			<g>
				<title>ABC_tran (PF00005)
"ABC transporter"</title>
				<polygon class="PF00005" points="19,28 29,28 33,32 33,48 29,52 19,52" stroke-linejoin="round" width="14" height="24" fill="rgb(129,201,63)" stroke="rgb(103,160,50)" stroke-width="1" opacity="0.75" />
			</g>
		</g>
		<g>
			<title> (OKCGIKJE_01819)
hypothetical protein</title>
			<polygon class=" (OKCGIKJE_01819)
hypothetical protein" points="46,10 69,40 46,70" fill="rgb(255,255,255)" fill-opacity="1.0" stroke="rgb(0,0,0)" stroke-width="2"  />
			<g>
				<title>ABC2_membrane_3 (PF12698)
"ABC-2 family transporter protein"</title>
				<polygon class="PF12698" points="46,28 56,28 65,40 56,52 46,52" stroke-linejoin="round" width="22" height="24" fill="rgb(151,189,55)" stroke="rgb(120,151,44)" stroke-width="1" opacity="0.75" />
			</g>
		</g>
		<g>
			<title> (OKCGIKJE_01820)
hypothetical protein</title>
			<polygon class=" (OKCGIKJE_01820)
hypothetical protein" points="95,40 99,10 99,70" fill="rgb(255,255,255)" fill-opacity="1.0" stroke="rgb(0,0,0)" stroke-width="2"  />
		</g>
		<g>
			<title> (OKCGIKJE_01821)
hypothetical protein</title>
			<polygon class=" (OKCGIKJE_01821)
hypothetical protein" points="134,25 133,25 133,10 103,40 133,70 133,55 134,55" fill="rgb(255,255,255)" fill-opacity="1.0" stroke="rgb(0,0,0)" stroke-width="2"  />
			<g>
				<title>ABC2_membrane_4 (PF12730)
"ABC-2 family transporter protein"</title>
				<polygon class="PF12730" points="109,38 119,28 125,28 125,52 119,52 109,42" stroke-linejoin="round" width="16" height="24" fill="rgb(203,161,59)" stroke="rgb(162,128,47)" stroke-width="1" opacity="0.75" />
			</g>
		</g>
		<g>
			<title>btuD_2 (OKCGIKJE_01822)
Vitamin B12 import ATP-binding protein BtuD</title>
			<polygon class="btuD_2 (OKCGIKJE_01822)
Vitamin B12 import ATP-binding protein BtuD" points="164,25 163,25 163,10 133,40 163,70 163,55 164,55" fill="rgb(255,255,255)" fill-opacity="1.0" stroke="rgb(0,0,0)" stroke-width="2"  />
			<g>
				<title>ABC_tran (PF00005)
"ABC transporter"</title>
				<polygon class="PF00005" points="148,29 149,28 162,28 162,52 149,52 148,51" stroke-linejoin="round" width="14" height="24" fill="rgb(129,201,63)" stroke="rgb(103,160,50)" stroke-width="1" opacity="0.75" />
			</g>
		</g>
		<g>
			<title> (OKCGIKJE_01823)
hypothetical protein</title>
			<polygon class=" (OKCGIKJE_01823)
hypothetical protein" points="176,10 186,40 176,70" fill="rgb(255,255,255)" fill-opacity="1.0" stroke="rgb(0,0,0)" stroke-width="2"  />
			<g>
				<title>Bacteriocin_IId (PF09221)
"Bacteriocin class IId cyclical uberolysin-like"</title>
				<polygon class="PF09221" points="179,28 183,40 179,52" stroke-linejoin="round" width="6" height="24" fill="rgb(200,220,70)" stroke="rgb(160,176,56)" stroke-width="1" opacity="0.75" />
			</g>
		</g>
		<g>
			<title> (OKCGIKJE_01824)
hypothetical protein</title>
			<polygon class=" (OKCGIKJE_01824)
hypothetical protein" points="189,25 217,25 217,10 247,40 217,70 217,55 189,55" fill="rgb(255,255,255)" fill-opacity="1.0" stroke="rgb(0,0,0)" stroke-width="2"  />
		</g>
		<g>
			<title> (OKCGIKJE_01825)
hypothetical protein</title>
			<polygon class=" (OKCGIKJE_01825)
hypothetical protein" points="246,10 263,40 246,70" fill="rgb(255,255,255)" fill-opacity="1.0" stroke="rgb(0,0,0)" stroke-width="2"  />
			<g>
				<title>SpoIIM (PF01944)
"Stage II sporulation protein M"</title>
				<polygon class="PF01944" points="248,28 253,28 260,40 253,52 248,52" stroke-linejoin="round" width="15" height="24" fill="rgb(96,132,207)" stroke="rgb(76,105,165)" stroke-width="1" opacity="0.75" />
			</g>
		</g>
		<g>
			<title> (OKCGIKJE_01826)
hypothetical protein</title>
			<polygon class=" (OKCGIKJE_01826)
hypothetical protein" points="265,10 282,40 265,70" fill="rgb(255,255,255)" fill-opacity="1.0" stroke="rgb(0,0,0)" stroke-width="2"  />
		</g>
		<g>
			<title>opuCA (OKCGIKJE_01827)
Glycine betaine/carnitine/choline transport ATP-binding protein OpuCA</title>
			<polygon class="opuCA (OKCGIKJE_01827)
Glycine betaine/carnitine/choline transport ATP-binding protein OpuCA" points="283,10 307,40 283,70" fill="rgb(255,255,255)" fill-opacity="1.0" stroke="rgb(0,0,0)" stroke-width="2"  />
			<g>
				<title>ABC_tran (PF00005)
"ABC transporter"</title>
				<polygon class="PF00005" points="285,28 293,28 299,35 299,45 293,52 285,52" stroke-linejoin="round" width="14" height="24" fill="rgb(129,201,63)" stroke="rgb(103,160,50)" stroke-width="1" opacity="0.75" />
			</g>
		</g>
		<g>
			<title> (OKCGIKJE_01828)
hypothetical protein</title>
			<polygon class=" (OKCGIKJE_01828)
hypothetical protein" points="327,40 334,10 334,70" fill="rgb(255,255,255)" fill-opacity="1.0" stroke="rgb(0,0,0)" stroke-width="2"  />
		</g>
	</g>
</svg>
