<svg version="1.1" baseProfile="full" xmlns="http://www.w3.org/2000/svg" width="663.1666666666666" height="80">
	<g>
		<line x1="10" y1="40.0" x2="653.1666666666666" y2="40.0" style="stroke:rgb(70,70,70); stroke-width:3 "/>
		<g>
			<title> (BEMODAKJ_00828)
hypothetical protein</title>
			<polygon class=" (BEMODAKJ_00828)
hypothetical protein" points="10,10 14,40 10,70" fill="rgb(255,255,255)" fill-opacity="1.0" stroke="rgb(0,0,0)" stroke-width="2"  />
		</g>
		<g>
			<title> (BEMODAKJ_00829)
hypothetical protein</title>
			<polygon class=" (BEMODAKJ_00829)
hypothetical protein" points="18,10 22,40 18,70" fill="rgb(255,255,255)" fill-opacity="1.0" stroke="rgb(0,0,0)" stroke-width="2"  />
		</g>
		<g>
			<title> (BEMODAKJ_00830)
hypothetical protein</title>
			<polygon class=" (BEMODAKJ_00830)
hypothetical protein" points="27,10 31,40 27,70" fill="rgb(255,255,255)" fill-opacity="1.0" stroke="rgb(0,0,0)" stroke-width="2"  />
		</g>
		<g>
			<title>moeA (BEMODAKJ_00831)
Molybdopterin molybdenumtransferase</title>
			<polygon class="moeA (BEMODAKJ_00831)
Molybdopterin molybdenumtransferase" points="45,25 57,25 57,10 87,40 57,70 57,55 45,55" fill="rgb(255,255,255)" fill-opacity="1.0" stroke="rgb(0,0,0)" stroke-width="2"  />
			<g>
				<title>MoeA_N (PF03453)
"MoeA N-terminal region (domain I and II)"</title>
				<rect class="PF03453" x="45" y="28" stroke-linejoin="round" width="16" height="24" fill="rgb(93,188,107)" stroke="rgb(74,150,85)" stroke-width="1" opacity="0.75" />
			</g>
			<g>
				<title>MoCF_biosynth (PF00994)
"Probable molybdopterin binding domain"</title>
				<polygon class="PF00994" points="64,28 71,28 77,34 77,46 71,52 64,52" stroke-linejoin="round" width="13" height="24" fill="rgb(75,187,175)" stroke="rgb(60,149,139)" stroke-width="1" opacity="0.75" />
			</g>
			<g>
				<title>MoeA_C (PF03454)
"MoeA C-terminal region (domain IV)"</title>
				<polygon class="PF03454" points="79,36 83,40 79,44" stroke-linejoin="round" width="7" height="24" fill="rgb(59,190,161)" stroke="rgb(47,152,128)" stroke-width="1" opacity="0.75" />
			</g>
		</g>
		<g>
			<title>moaA (BEMODAKJ_00832)
GTP 3',8-cyclase</title>
			<polygon class="moaA (BEMODAKJ_00832)
GTP 3',8-cyclase" points="90,25 90,25 90,10 120,40 90,70 90,55 90,55" fill="rgb(255,255,255)" fill-opacity="1.0" stroke="rgb(0,0,0)" stroke-width="2"  />
			<g>
				<title>Radical_SAM (PF04055)
"Radical SAM superfamily"</title>
				<rect class="PF04055" x="90" y="28" stroke-linejoin="round" width="14" height="24" fill="rgb(149,56,222)" stroke="rgb(119,44,177)" stroke-width="1" opacity="0.75" />
			</g>
			<g>
				<title>Mob_synth_C (PF06463)
"Molybdenum Cofactor Synthesis C"</title>
				<polygon class="PF06463" points="105,29 116,40 105,51" stroke-linejoin="round" width="12" height="24" fill="rgb(149,103,225)" stroke="rgb(119,82,180)" stroke-width="1" opacity="0.75" />
			</g>
		</g>
		<g>
			<title> (BEMODAKJ_00833)
hypothetical protein</title>
			<polygon class=" (BEMODAKJ_00833)
hypothetical protein" points="124,10 138,40 124,70" fill="rgb(255,255,255)" fill-opacity="1.0" stroke="rgb(0,0,0)" stroke-width="2"  />
			<g>
				<title>YwpF (PF14183)
"YwpF-like protein"</title>
				<polygon class="PF14183" points="124,28 129,28 134,40 129,52 124,52" stroke-linejoin="round" width="13" height="24" fill="rgb(199,178,73)" stroke="rgb(159,142,58)" stroke-width="1" opacity="0.75" />
			</g>
		</g>
		<g>
			<title>ktrB_1 (BEMODAKJ_00834)
Ktr system potassium uptake protein B</title>
			<polygon class="ktrB_1 (BEMODAKJ_00834)
Ktr system potassium uptake protein B" points="144,25 159,25 159,10 189,40 159,70 159,55 144,55" fill="rgb(255,255,255)" fill-opacity="1.0" stroke="rgb(0,0,0)" stroke-width="2"  />
			<g>
				<title>TrkH (PF02386)
"Cation transport protein"</title>
				<polygon class="PF02386" points="144,28 173,28 185,40 173,52 144,52" stroke-linejoin="round" width="43" height="24" fill="rgb(67,179,142)" stroke="rgb(53,143,113)" stroke-width="1" opacity="0.75" />
			</g>
		</g>
		<g>
			<title> (BEMODAKJ_00835)
hypothetical protein</title>
			<polygon class=" (BEMODAKJ_00835)
hypothetical protein" points="195,40 199,10 199,70" fill="rgb(255,255,255)" fill-opacity="1.0" stroke="rgb(0,0,0)" stroke-width="2"  />
			<g>
				<title>YjcZ_2 (PF09680)
"Family of unknown function"</title>
				<polygon class="PF09680" points="198,40 197,47 197,33" stroke-linejoin="round" width="2" height="24" fill="rgb(79,203,107)" stroke="rgb(63,162,85)" stroke-width="1" opacity="0.75" />
			</g>
		</g>
		<g>
			<title> (BEMODAKJ_00836)
hypothetical protein</title>
			<polygon class=" (BEMODAKJ_00836)
hypothetical protein" points="202,40 208,10 208,70" fill="rgb(255,255,255)" fill-opacity="1.0" stroke="rgb(0,0,0)" stroke-width="2"  />
		</g>
		<g>
			<title>crtN_1 (BEMODAKJ_00837)
4,4'-diapophytoene desaturase (4,4'-diapolycopene-forming)</title>
			<polygon class="crtN_1 (BEMODAKJ_00837)
4,4'-diapophytoene desaturase (4,4'-diapolycopene-forming)" points="217,25 236,25 236,10 266,40 236,70 236,55 217,55" fill="rgb(255,255,255)" fill-opacity="1.0" stroke="rgb(0,0,0)" stroke-width="2"  />
			<g>
				<title>Amino_oxidase (PF01593)
"Flavin containing amine oxidoreductase"</title>
				<polygon class="PF01593" points="218,28 250,28 262,40 250,52 218,52" stroke-linejoin="round" width="47" height="24" fill="rgb(184,74,52)" stroke="rgb(147,59,41)" stroke-width="1" opacity="0.75" />
			</g>
		</g>
		<g>
			<title>crtNc (BEMODAKJ_00838)
4,4'-diapolycopen-4-al dehydrogenase</title>
			<polygon class="crtNc (BEMODAKJ_00838)
4,4'-diapolycopen-4-al dehydrogenase" points="267,25 286,25 286,10 316,40 286,70 286,55 267,55" fill="rgb(255,255,255)" fill-opacity="1.0" stroke="rgb(0,0,0)" stroke-width="2"  />
			<g>
				<title>Amino_oxidase (PF01593)
"Flavin containing amine oxidoreductase"</title>
				<polygon class="PF01593" points="268,28 299,28 311,40 299,52 268,52" stroke-linejoin="round" width="46" height="24" fill="rgb(184,74,52)" stroke="rgb(147,59,41)" stroke-width="1" opacity="0.75" />
			</g>
		</g>
		<g>
			<title>crtB (BEMODAKJ_00839)
15-cis-phytoene synthase</title>
			<polygon class="crtB (BEMODAKJ_00839)
15-cis-phytoene synthase" points="316,10 343,40 316,70" fill="rgb(255,255,255)" fill-opacity="1.0" stroke="rgb(0,0,0)" stroke-width="2"  />
			<g>
				<title>SQS_PSY (PF00494)
"Squalene/phytoene synthase"</title>
				<polygon class="PF00494" points="317,28 328,28 339,40 328,52 317,52" stroke-linejoin="round" width="25" height="24" fill="rgb(178,91,49)" stroke="rgb(142,72,39)" stroke-width="1" opacity="0.75" />
			</g>
		</g>
		<g>
			<title> (BEMODAKJ_00840)
hypothetical protein</title>
			<polygon class=" (BEMODAKJ_00840)
hypothetical protein" points="346,10 359,40 346,70" fill="rgb(255,255,255)" fill-opacity="1.0" stroke="rgb(0,0,0)" stroke-width="2"  />
		</g>
		<g>
			<title> (BEMODAKJ_00841)
hypothetical protein</title>
			<polygon class=" (BEMODAKJ_00841)
hypothetical protein" points="362,10 370,40 362,70" fill="rgb(255,255,255)" fill-opacity="1.0" stroke="rgb(0,0,0)" stroke-width="2"  />
		</g>
		<g>
			<title> (BEMODAKJ_00842)
hypothetical protein</title>
			<polygon class=" (BEMODAKJ_00842)
hypothetical protein" points="373,10 377,40 373,70" fill="rgb(255,255,255)" fill-opacity="1.0" stroke="rgb(0,0,0)" stroke-width="2"  />
		</g>
		<g>
			<title>tadA_1 (BEMODAKJ_00843)
tRNA-specific adenosine deaminase</title>
			<polygon class="tadA_1 (BEMODAKJ_00843)
tRNA-specific adenosine deaminase" points="382,10 396,40 382,70" fill="rgb(255,255,255)" fill-opacity="1.0" stroke="rgb(0,0,0)" stroke-width="2"  />
			<g>
				<title>dCMP_cyt_deam_1 (PF00383)
"Cytidine and deoxycytidylate deaminase zinc-binding region"</title>
				<polygon class="PF00383" points="382,28 387,28 392,38 392,42 387,52 382,52" stroke-linejoin="round" width="10" height="24" fill="rgb(91,149,216)" stroke="rgb(72,119,172)" stroke-width="1" opacity="0.75" />
			</g>
		</g>
		<g>
			<title>dppA (BEMODAKJ_00844)
D-aminopeptidase</title>
			<polygon class="dppA (BEMODAKJ_00844)
D-aminopeptidase" points="403,10 430,40 403,70" fill="rgb(255,255,255)" fill-opacity="1.0" stroke="rgb(0,0,0)" stroke-width="2"  />
			<g>
				<title>Peptidase_M55 (PF04951)
"D-aminopeptidase"</title>
				<polygon class="PF04951" points="403,28 414,28 426,40 414,52 403,52" stroke-linejoin="round" width="26" height="24" fill="rgb(94,138,195)" stroke="rgb(75,110,156)" stroke-width="1" opacity="0.75" />
			</g>
		</g>
		<g>
			<title>dppB_2 (BEMODAKJ_00845)
Dipeptide transport system permease protein DppB</title>
			<polygon class="dppB_2 (BEMODAKJ_00845)
Dipeptide transport system permease protein DppB" points="431,25 432,25 432,10 462,40 432,70 432,55 431,55" fill="rgb(255,255,255)" fill-opacity="1.0" stroke="rgb(0,0,0)" stroke-width="2"  />
			<g>
				<title>BPD_transp_1 (PF00528)
"Binding-protein-dependent transport system inner membrane component"</title>
				<polygon class="PF00528" points="442,28 445,28 457,40 445,52 442,52" stroke-linejoin="round" width="19" height="24" fill="rgb(77,208,225)" stroke="rgb(61,166,180)" stroke-width="1" opacity="0.75" />
			</g>
		</g>
		<g>
			<title>dppC (BEMODAKJ_00846)
Dipeptide transport system permease protein DppC</title>
			<polygon class="dppC (BEMODAKJ_00846)
Dipeptide transport system permease protein DppC" points="463,25 464,25 464,10 494,40 464,70 464,55 463,55" fill="rgb(255,255,255)" fill-opacity="1.0" stroke="rgb(0,0,0)" stroke-width="2"  />
			<g>
				<title>OppC_N (PF12911)
"N-terminal TM domain of oligopeptide transport permease C"</title>
				<rect class="PF12911" x="467" y="28" stroke-linejoin="round" width="5" height="24" fill="rgb(167,178,88)" stroke="rgb(133,142,70)" stroke-width="1" opacity="0.75" />
			</g>
			<g>
				<title>BPD_transp_1 (PF00528)
"Binding-protein-dependent transport system inner membrane component"</title>
				<polygon class="PF00528" points="476,28 478,28 490,40 478,52 476,52" stroke-linejoin="round" width="18" height="24" fill="rgb(77,208,225)" stroke="rgb(61,166,180)" stroke-width="1" opacity="0.75" />
			</g>
		</g>
		<g>
			<title>oppD_2 (BEMODAKJ_00847)
Oligopeptide transport ATP-binding protein OppD</title>
			<polygon class="oppD_2 (BEMODAKJ_00847)
Oligopeptide transport ATP-binding protein OppD" points="495,25 498,25 498,10 528,40 498,70 498,55 495,55" fill="rgb(255,255,255)" fill-opacity="1.0" stroke="rgb(0,0,0)" stroke-width="2"  />
			<g>
				<title>ABC_tran (PF00005)
"ABC transporter"</title>
				<polygon class="PF00005" points="497,28 512,28 513,29 513,51 512,52 497,52" stroke-linejoin="round" width="16" height="24" fill="rgb(129,201,63)" stroke="rgb(103,160,50)" stroke-width="1" opacity="0.75" />
			</g>
			<g>
				<title>oligo_HPY (PF08352)
"Oligopeptide/dipeptide transporter, C-terminal region"</title>
				<polygon class="PF08352" points="518,34 524,40 524,40 518,46" stroke-linejoin="round" width="6" height="24" fill="rgb(90,183,173)" stroke="rgb(72,146,138)" stroke-width="1" opacity="0.75" />
			</g>
		</g>
		<g>
			<title>dppE_2 (BEMODAKJ_00848)
Dipeptide-binding protein DppE</title>
			<polygon class="dppE_2 (BEMODAKJ_00848)
Dipeptide-binding protein DppE" points="529,25 553,25 553,10 583,40 553,70 553,55 529,55" fill="rgb(255,255,255)" fill-opacity="1.0" stroke="rgb(0,0,0)" stroke-width="2"  />
			<g>
				<title>SBP_bac_5 (PF00496)
"Bacterial extracellular solute-binding proteins, family 5 Middle"</title>
				<polygon class="PF00496" points="537,28 566,28 575,37 575,43 566,52 537,52" stroke-linejoin="round" width="38" height="24" fill="rgb(199,94,116)" stroke="rgb(159,75,92)" stroke-width="1" opacity="0.75" />
			</g>
		</g>
		<g>
			<title>ykfA_2 (BEMODAKJ_00849)
putative murein peptide carboxypeptidase</title>
			<polygon class="ykfA_2 (BEMODAKJ_00849)
putative murein peptide carboxypeptidase" points="585,25 585,25 585,10 615,40 585,70 585,55 585,55" fill="rgb(255,255,255)" fill-opacity="1.0" stroke="rgb(0,0,0)" stroke-width="2"  />
			<g>
				<title>Peptidase_S66 (PF02016)
"LD-carboxypeptidase N-terminal domain"</title>
				<rect class="PF02016" x="586" y="28" stroke-linejoin="round" width="11" height="24" fill="rgb(187,63,139)" stroke="rgb(149,50,111)" stroke-width="1" opacity="0.75" />
			</g>
			<g>
				<title>Peptidase_S66C (PF17676)
"LD-carboxypeptidase C-terminal domain"</title>
				<polygon class="PF17676" points="602,31 611,40 602,49" stroke-linejoin="round" width="11" height="24" fill="rgb(72,81,192)" stroke="rgb(57,64,153)" stroke-width="1" opacity="0.75" />
			</g>
		</g>
		<g>
			<title>ykfB (BEMODAKJ_00850)
L-Ala-D/L-Glu epimerase</title>
			<polygon class="ykfB (BEMODAKJ_00850)
L-Ala-D/L-Glu epimerase" points="616,25 622,25 622,10 652,40 622,70 622,55 616,55" fill="rgb(255,255,255)" fill-opacity="1.0" stroke="rgb(0,0,0)" stroke-width="2"  />
			<g>
				<title>MR_MLE_N (PF02746)
"Mandelate racemase / muconate lactonizing enzyme, N-terminal domain"</title>
				<rect class="PF02746" x="616" y="28" stroke-linejoin="round" width="12" height="24" fill="rgb(63,73,226)" stroke="rgb(50,58,180)" stroke-width="1" opacity="0.75" />
			</g>
			<g>
				<title>MR_MLE_C (PF13378)
"Enolase C-terminal domain-like"</title>
				<polygon class="PF13378" points="630,28 636,28 648,40 636,52 630,52" stroke-linejoin="round" width="21" height="24" fill="rgb(191,184,94)" stroke="rgb(152,147,75)" stroke-width="1" opacity="0.75" />
			</g>
		</g>
	</g>
</svg>
