<svg version="1.1" baseProfile="full" xmlns="http://www.w3.org/2000/svg" width="804.3333333333334" height="80">
	<g>
		<line x1="10" y1="40.0" x2="794.3333333333334" y2="40.0" style="stroke:rgb(70,70,70); stroke-width:3 "/>
		<g>
			<title>cysJ (JDCNNPMD_02471)
Sulfite reductase [NADPH] flavoprotein alpha-component</title>
			<polygon class="cysJ (JDCNNPMD_02471)
Sulfite reductase [NADPH] flavoprotein alpha-component" points="106,25 76,25 76,10 46,40 76,70 76,55 106,55" fill="rgb(255,255,255)" fill-opacity="1.0" stroke="rgb(0,0,0)" stroke-width="2"  />
			<g>
				<title>NAD_binding_1 (PF00175)
"Oxidoreductase NAD-binding domain"</title>
				<polygon class="PF00175" points="50,40 59,31 59,49" stroke-linejoin="round" width="10" height="24" fill="rgb(177,211,96)" stroke="rgb(141,168,76)" stroke-width="1" opacity="0.75" />
			</g>
			<g>
				<title>FAD_binding_1 (PF00667)
"FAD binding domain"</title>
				<rect class="PF00667" x="63" y="28" stroke-linejoin="round" width="19" height="24" fill="rgb(145,74,201)" stroke="rgb(116,59,160)" stroke-width="1" opacity="0.75" />
			</g>
			<g>
				<title>Flavodoxin_1 (PF00258)
"Flavodoxin"</title>
				<rect class="PF00258" x="86" y="28" stroke-linejoin="round" width="13" height="24" fill="rgb(77,169,183)" stroke="rgb(61,135,146)" stroke-width="1" opacity="0.75" />
			</g>
		</g>
		<g>
			<title> (JDCNNPMD_02472)
hypothetical protein</title>
			<polygon class=" (JDCNNPMD_02472)
hypothetical protein" points="108,40 134,10 134,70" fill="rgb(255,255,255)" fill-opacity="1.0" stroke="rgb(0,0,0)" stroke-width="2"  />
			<g>
				<title>HEM4 (PF02602)
"Uroporphyrinogen-III synthase HemD"</title>
				<polygon class="PF02602" points="112,40 123,28 132,28 132,52 123,52" stroke-linejoin="round" width="23" height="24" fill="rgb(191,152,50)" stroke="rgb(152,121,39)" stroke-width="1" opacity="0.75" />
			</g>
		</g>
		<g>
			<title>sirC (JDCNNPMD_02473)
Precorrin-2 dehydrogenase</title>
			<polygon class="sirC (JDCNNPMD_02473)
Precorrin-2 dehydrogenase" points="135,40 156,10 156,70" fill="rgb(255,255,255)" fill-opacity="1.0" stroke="rgb(0,0,0)" stroke-width="2"  />
			<g>
				<title>Sirohm_synth_M (PF14824)
"Sirohaem biosynthesis protein central"</title>
				<polygon class="PF14824" points="141,37 143,34 143,46 141,43" stroke-linejoin="round" width="2" height="24" fill="rgb(204,86,153)" stroke="rgb(163,68,122)" stroke-width="1" opacity="0.75" />
			</g>
			<g>
				<title>NAD_binding_7 (PF13241)
"Putative NAD(P)-binding"</title>
				<polygon class="PF13241" points="144,33 147,28 154,28 154,52 147,52 144,47" stroke-linejoin="round" width="10" height="24" fill="rgb(229,162,111)" stroke="rgb(183,129,88)" stroke-width="1" opacity="0.75" />
			</g>
		</g>
		<g>
			<title>sirB (JDCNNPMD_02474)
Sirohydrochlorin ferrochelatase</title>
			<polygon class="sirB (JDCNNPMD_02474)
Sirohydrochlorin ferrochelatase" points="156,40 181,10 181,70" fill="rgb(255,255,255)" fill-opacity="1.0" stroke="rgb(0,0,0)" stroke-width="2"  />
			<g>
				<title>CbiX (PF01903)
"CbiX"</title>
				<polygon class="PF01903" points="160,40 167,32 167,48" stroke-linejoin="round" width="10" height="24" fill="rgb(93,58,208)" stroke="rgb(74,46,166)" stroke-width="1" opacity="0.75" />
			</g>
			<g>
				<title>CbiX (PF01903)
"CbiX"</title>
				<polygon class="PF01903" points="169,29 170,28 179,28 179,52 170,52 169,51" stroke-linejoin="round" width="10" height="24" fill="rgb(93,58,208)" stroke="rgb(74,46,166)" stroke-width="1" opacity="0.75" />
			</g>
		</g>
		<g>
			<title>sumT (JDCNNPMD_02475)
Uroporphyrinogen-III C-methyltransferase</title>
			<polygon class="sumT (JDCNNPMD_02475)
Uroporphyrinogen-III C-methyltransferase" points="182,40 207,10 207,70" fill="rgb(255,255,255)" fill-opacity="1.0" stroke="rgb(0,0,0)" stroke-width="2"  />
			<g>
				<title>TP_methylase (PF00590)
"Tetrapyrrole (Corrin/Porphyrin) Methylases"</title>
				<polygon class="PF00590" points="186,40 196,28 207,28 207,52 196,52 186,40" stroke-linejoin="round" width="21" height="24" fill="rgb(124,218,92)" stroke="rgb(99,174,73)" stroke-width="1" opacity="0.75" />
			</g>
		</g>
		<g>
			<title>cysC (JDCNNPMD_02476)
putative adenylyl-sulfate kinase</title>
			<polygon class="cysC (JDCNNPMD_02476)
putative adenylyl-sulfate kinase" points="208,40 228,10 228,70" fill="rgb(255,255,255)" fill-opacity="1.0" stroke="rgb(0,0,0)" stroke-width="2"  />
			<g>
				<title>APS_kinase (PF01583)
"Adenylylsulphate kinase"</title>
				<polygon class="PF01583" points="212,40 220,28 225,28 225,52 220,52" stroke-linejoin="round" width="15" height="24" fill="rgb(48,131,188)" stroke="rgb(38,104,150)" stroke-width="1" opacity="0.75" />
			</g>
		</g>
		<g>
			<title>sat (JDCNNPMD_02477)
Sulfate adenylyltransferase</title>
			<polygon class="sat (JDCNNPMD_02477)
Sulfate adenylyltransferase" points="266,25 258,25 258,10 228,40 258,70 258,55 266,55" fill="rgb(255,255,255)" fill-opacity="1.0" stroke="rgb(0,0,0)" stroke-width="2"  />
			<g>
				<title>ATP-sulfurylase (PF01747)
"ATP-sulfurylase"</title>
				<polygon class="PF01747" points="232,40 244,28 250,28 250,52 244,52" stroke-linejoin="round" width="21" height="24" fill="rgb(77,108,187)" stroke="rgb(61,86,149)" stroke-width="1" opacity="0.75" />
			</g>
			<g>
				<title>PUA_2 (PF14306)
"PUA-like domain"</title>
				<rect class="PF14306" x="250" y="28" stroke-linejoin="round" width="15" height="24" fill="rgb(216,166,86)" stroke="rgb(172,132,68)" stroke-width="1" opacity="0.75" />
			</g>
		</g>
		<g>
			<title>cysH (JDCNNPMD_02478)
Phosphoadenosine phosphosulfate reductase</title>
			<polygon class="cysH (JDCNNPMD_02478)
Phosphoadenosine phosphosulfate reductase" points="267,40 291,10 291,70" fill="rgb(255,255,255)" fill-opacity="1.0" stroke="rgb(0,0,0)" stroke-width="2"  />
			<g>
				<title>PAPS_reduct (PF01507)
"Phosphoadenosine phosphosulfate reductase family"</title>
				<polygon class="PF01507" points="271,40 281,28 287,28 287,52 281,52" stroke-linejoin="round" width="17" height="24" fill="rgb(87,190,105)" stroke="rgb(69,152,83)" stroke-width="1" opacity="0.75" />
			</g>
		</g>
		<g>
			<title> (JDCNNPMD_02479)
hypothetical protein</title>
			<polygon class=" (JDCNNPMD_02479)
hypothetical protein" points="313,10 342,40 313,70" fill="rgb(255,255,255)" fill-opacity="1.0" stroke="rgb(0,0,0)" stroke-width="2"  />
			<g>
				<title>TauE (PF01925)
"Sulfite exporter TauE/SafE"</title>
				<polygon class="PF01925" points="313,28 326,28 337,39 337,41 326,52 313,52" stroke-linejoin="round" width="24" height="24" fill="rgb(105,203,95)" stroke="rgb(84,162,76)" stroke-width="1" opacity="0.75" />
			</g>
		</g>
		<g>
			<title> (JDCNNPMD_02480)
hypothetical protein</title>
			<polygon class=" (JDCNNPMD_02480)
hypothetical protein" points="395,25 373,25 373,10 343,40 373,70 373,55 395,55" fill="rgb(255,255,255)" fill-opacity="1.0" stroke="rgb(0,0,0)" stroke-width="2"  />
			<g>
				<title>Nitroreductase (PF00881)
"Nitroreductase family"</title>
				<polygon class="PF00881" points="347,40 359,28 361,28 361,52 359,52" stroke-linejoin="round" width="17" height="24" fill="rgb(79,118,187)" stroke="rgb(63,94,149)" stroke-width="1" opacity="0.75" />
			</g>
			<g>
				<title>Nitroreductase (PF00881)
"Nitroreductase family"</title>
				<rect class="PF00881" x="371" y="28" stroke-linejoin="round" width="15" height="24" fill="rgb(79,118,187)" stroke="rgb(63,94,149)" stroke-width="1" opacity="0.75" />
			</g>
		</g>
		<g>
			<title> (JDCNNPMD_02481)
hypothetical protein</title>
			<polygon class=" (JDCNNPMD_02481)
hypothetical protein" points="460,25 426,25 426,10 396,40 426,70 426,55 460,55" fill="rgb(255,255,255)" fill-opacity="1.0" stroke="rgb(0,0,0)" stroke-width="2"  />
			<g>
				<title>YcaO (PF02624)
"YcaO cyclodehydratase, ATP-ad Mg2+-binding"</title>
				<polygon class="PF02624" points="400,40 412,28 434,28 434,52 412,52 400,40" stroke-linejoin="round" width="34" height="24" fill="rgb(76,84,185)" stroke="rgb(60,67,148)" stroke-width="1" opacity="0.75" />
			</g>
		</g>
		<g>
			<title> (JDCNNPMD_02482)
hypothetical protein</title>
			<polygon class=" (JDCNNPMD_02482)
hypothetical protein" points="522,25 490,25 490,10 460,40 490,70 490,55 522,55" fill="rgb(255,255,255)" fill-opacity="1.0" stroke="rgb(0,0,0)" stroke-width="2"  />
		</g>
		<g>
			<title> (JDCNNPMD_02483)
hypothetical protein</title>
			<polygon class=" (JDCNNPMD_02483)
hypothetical protein" points="526,40 533,10 533,70" fill="rgb(255,255,255)" fill-opacity="1.0" stroke="rgb(0,0,0)" stroke-width="2"  />
		</g>
		<g>
			<title>cwlS (JDCNNPMD_02484)
D-gamma-glutamyl-meso-diaminopimelic acid endopeptidase CwlS</title>
			<polygon class="cwlS (JDCNNPMD_02484)
D-gamma-glutamyl-meso-diaminopimelic acid endopeptidase CwlS" points="555,10 571,40 555,70" fill="rgb(255,255,255)" fill-opacity="1.0" stroke="rgb(0,0,0)" stroke-width="2"  />
			<g>
				<title>NLPC_P60 (PF00877)
"NlpC/P60 family"</title>
				<polygon class="PF00877" points="560,28 561,28 567,40 561,52 560,52" stroke-linejoin="round" width="10" height="24" fill="rgb(187,86,137)" stroke="rgb(149,68,109)" stroke-width="1" opacity="0.75" />
			</g>
		</g>
		<g>
			<title> (JDCNNPMD_02485)
hypothetical protein</title>
			<polygon class=" (JDCNNPMD_02485)
hypothetical protein" points="604,25 604,25 604,10 574,40 604,70 604,55 604,55" fill="rgb(255,255,255)" fill-opacity="1.0" stroke="rgb(0,0,0)" stroke-width="2"  />
			<g>
				<title>DUF4097 (PF13349)
"Putative adhesin"</title>
				<polygon class="PF13349" points="578,40 590,28 599,28 599,52 590,52" stroke-linejoin="round" width="25" height="24" fill="rgb(173,193,81)" stroke="rgb(138,154,64)" stroke-width="1" opacity="0.75" />
			</g>
		</g>
		<g>
			<title> (JDCNNPMD_02486)
hypothetical protein</title>
			<polygon class=" (JDCNNPMD_02486)
hypothetical protein" points="611,40 637,10 637,70" fill="rgb(255,255,255)" fill-opacity="1.0" stroke="rgb(0,0,0)" stroke-width="2"  />
			<g>
				<title>Gmad2 (PF10648)
"Immunoglobulin-like domain of bacterial spore germination"</title>
				<polygon class="PF10648" points="615,40 620,34 620,46" stroke-linejoin="round" width="8" height="24" fill="rgb(182,88,195)" stroke="rgb(145,70,156)" stroke-width="1" opacity="0.75" />
			</g>
			<g>
				<title>LysM (PF01476)
"LysM domain"</title>
				<polygon class="PF01476" points="621,33 625,29 625,51 621,47" stroke-linejoin="round" width="4" height="24" fill="rgb(200,86,203)" stroke="rgb(160,68,162)" stroke-width="1" opacity="0.75" />
			</g>
			<g>
				<title>LysM (PF01476)
"LysM domain"</title>
				<polygon class="PF01476" points="626,28 626,28 630,28 630,52 626,52 626,52" stroke-linejoin="round" width="4" height="24" fill="rgb(200,86,203)" stroke="rgb(160,68,162)" stroke-width="1" opacity="0.75" />
			</g>
			<g>
				<title>LysM (PF01476)
"LysM domain"</title>
				<rect class="PF01476" x="631" y="28" stroke-linejoin="round" width="4" height="24" fill="rgb(200,86,203)" stroke="rgb(160,68,162)" stroke-width="1" opacity="0.75" />
			</g>
		</g>
		<g>
			<title>mtnX (JDCNNPMD_02487)
2-hydroxy-3-keto-5-methylthiopentenyl-1- phosphate phosphatase</title>
			<polygon class="mtnX (JDCNNPMD_02487)
2-hydroxy-3-keto-5-methylthiopentenyl-1- phosphate phosphatase" points="645,10 666,40 645,70" fill="rgb(255,255,255)" fill-opacity="1.0" stroke="rgb(0,0,0)" stroke-width="2"  />
			<g>
				<title>HAD (PF12710)
"haloacid dehalogenase-like hydrolase"</title>
				<polygon class="PF12710" points="645,28 654,28 661,38 661,42 654,52 645,52" stroke-linejoin="round" width="16" height="24" fill="rgb(181,59,119)" stroke="rgb(144,47,95)" stroke-width="1" opacity="0.75" />
			</g>
		</g>
		<g>
			<title> (JDCNNPMD_02488)
hypothetical protein</title>
			<polygon class=" (JDCNNPMD_02488)
hypothetical protein" points="667,25 672,25 672,10 702,40 672,70 672,55 667,55" fill="rgb(255,255,255)" fill-opacity="1.0" stroke="rgb(0,0,0)" stroke-width="2"  />
			<g>
				<title>Fe-ADH_2 (PF13685)
"Iron-containing alcohol dehydrogenase"</title>
				<polygon class="PF13685" points="668,28 685,28 693,36 693,44 685,52 668,52" stroke-linejoin="round" width="25" height="24" fill="rgb(57,214,170)" stroke="rgb(45,171,136)" stroke-width="1" opacity="0.75" />
			</g>
		</g>
		<g>
			<title>sspH_2 (JDCNNPMD_02489)
Small, acid-soluble spore protein H</title>
			<polygon class="sspH_2 (JDCNNPMD_02489)
Small, acid-soluble spore protein H" points="705,10 711,40 705,70" fill="rgb(255,255,255)" fill-opacity="1.0" stroke="rgb(0,0,0)" stroke-width="2"  />
			<g>
				<title>SspH (PF08141)
"Small acid-soluble spore protein H family"</title>
				<polygon class="PF08141" points="705,28 705,28 708,40 705,52 705,52" stroke-linejoin="round" width="5" height="24" fill="rgb(51,180,135)" stroke="rgb(40,144,108)" stroke-width="1" opacity="0.75" />
			</g>
		</g>
		<g>
			<title> (JDCNNPMD_02490)
hypothetical protein</title>
			<polygon class=" (JDCNNPMD_02490)
hypothetical protein" points="714,40 739,10 739,70" fill="rgb(255,255,255)" fill-opacity="1.0" stroke="rgb(0,0,0)" stroke-width="2"  />
			<g>
				<title>Intg_mem_TP0381 (PF09529)
"Integral membrane protein (intg_mem_TP0381)"</title>
				<polygon class="PF09529" points="718,40 728,28 737,28 737,52 728,52" stroke-linejoin="round" width="21" height="24" fill="rgb(205,205,98)" stroke="rgb(164,164,78)" stroke-width="1" opacity="0.75" />
			</g>
		</g>
		<g>
			<title> (JDCNNPMD_02491)
hypothetical protein</title>
			<polygon class=" (JDCNNPMD_02491)
hypothetical protein" points="744,10 753,40 744,70" fill="rgb(255,255,255)" fill-opacity="1.0" stroke="rgb(0,0,0)" stroke-width="2"  />
		</g>
		<g>
			<title> (JDCNNPMD_02492)
hypothetical protein</title>
			<polygon class=" (JDCNNPMD_02492)
hypothetical protein" points="756,10 775,40 756,70" fill="rgb(255,255,255)" fill-opacity="1.0" stroke="rgb(0,0,0)" stroke-width="2"  />
			<g>
				<title>DUF45 (PF01863)
"Protein of unknown function DUF45"</title>
				<polygon class="PF01863" points="758,28 764,28 771,40 764,52 758,52" stroke-linejoin="round" width="16" height="24" fill="rgb(89,185,141)" stroke="rgb(71,148,112)" stroke-width="1" opacity="0.75" />
			</g>
		</g>
	</g>
</svg>
