<svg version="1.1" baseProfile="full" xmlns="http://www.w3.org/2000/svg" width="536.1666666666666" height="80">
	<g>
		<line x1="10" y1="40.0" x2="526.1666666666666" y2="40.0" style="stroke:rgb(70,70,70); stroke-width:3 "/>
		<g>
			<title> (PPJPJCPL_00806)
hypothetical protein</title>
			<polygon class=" (PPJPJCPL_00806)
hypothetical protein" points="26,10 30,40 26,70" fill="rgb(255,255,255)" fill-opacity="1.0" stroke="rgb(0,0,0)" stroke-width="2"  />
		</g>
		<g>
			<title> (PPJPJCPL_00807)
4-hydroxyphenylacetate 3-monooxygenase oxygenase component</title>
			<polygon class=" (PPJPJCPL_00807)
4-hydroxyphenylacetate 3-monooxygenase oxygenase component" points="79,25 61,25 61,10 31,40 61,70 61,55 79,55" fill="rgb(255,255,255)" fill-opacity="1.0" stroke="rgb(0,0,0)" stroke-width="2"  />
			<g>
				<title>HpaB (PF03241)
"4-hydroxyphenylacetate 3-hydroxylase C terminal"</title>
				<polygon class="PF03241" points="35,40 47,28 50,28 50,52 47,52" stroke-linejoin="round" width="19" height="24" fill="rgb(73,153,185)" stroke="rgb(58,122,148)" stroke-width="1" opacity="0.75" />
			</g>
			<g>
				<title>HpaB_N (PF11794)
"4-hydroxyphenylacetate 3-hydroxylase N terminal"</title>
				<rect class="PF11794" x="52" y="28" stroke-linejoin="round" width="26" height="24" fill="rgb(122,202,60)" stroke="rgb(97,161,47)" stroke-width="1" opacity="0.75" />
			</g>
		</g>
		<g>
			<title>aceA (PPJPJCPL_00808)
Isocitrate lyase</title>
			<polygon class="aceA (PPJPJCPL_00808)
Isocitrate lyase" points="126,25 113,25 113,10 83,40 113,70 113,55 126,55" fill="rgb(255,255,255)" fill-opacity="1.0" stroke="rgb(0,0,0)" stroke-width="2"  />
			<g>
				<title>ICL (PF00463)
"Isocitrate lyase family"</title>
				<polygon class="PF00463" points="87,40 99,28 100,28 100,52 99,52" stroke-linejoin="round" width="17" height="24" fill="rgb(209,76,110)" stroke="rgb(167,60,87)" stroke-width="1" opacity="0.75" />
			</g>
			<g>
				<title>ICL (PF00463)
"Isocitrate lyase family"</title>
				<rect class="PF00463" x="101" y="28" stroke-linejoin="round" width="24" height="24" fill="rgb(209,76,110)" stroke="rgb(167,60,87)" stroke-width="1" opacity="0.75" />
			</g>
		</g>
		<g>
			<title> (PPJPJCPL_00809)
hypothetical protein</title>
			<polygon class=" (PPJPJCPL_00809)
hypothetical protein" points="132,40 136,10 136,70" fill="rgb(255,255,255)" fill-opacity="1.0" stroke="rgb(0,0,0)" stroke-width="2"  />
		</g>
		<g>
			<title>iolS (PPJPJCPL_00810)
Aldo-keto reductase IolS</title>
			<polygon class="iolS (PPJPJCPL_00810)
Aldo-keto reductase IolS" points="174,25 173,25 173,10 143,40 173,70 173,55 174,55" fill="rgb(255,255,255)" fill-opacity="1.0" stroke="rgb(0,0,0)" stroke-width="2"  />
			<g>
				<title>Aldo_ket_red (PF00248)
"Aldo/keto reductase family"</title>
				<polygon class="PF00248" points="147,40 159,28 172,28 172,52 159,52" stroke-linejoin="round" width="29" height="24" fill="rgb(225,205,58)" stroke="rgb(180,164,46)" stroke-width="1" opacity="0.75" />
			</g>
		</g>
		<g>
			<title>iucC (PPJPJCPL_00811)
Aerobactin synthase</title>
			<polygon class="iucC (PPJPJCPL_00811)
Aerobactin synthase" points="236,25 206,25 206,10 176,40 206,70 206,55 236,55" fill="rgb(255,255,255)" fill-opacity="1.0" stroke="rgb(0,0,0)" stroke-width="2"  />
			<g>
				<title>FhuF (PF06276)
"Ferric iron reductase FhuF-like transporter"</title>
				<polygon class="PF06276" points="180,40 192,28 194,28 194,52 192,52" stroke-linejoin="round" width="16" height="24" fill="rgb(76,151,221)" stroke="rgb(60,120,176)" stroke-width="1" opacity="0.75" />
			</g>
			<g>
				<title>IucA_IucC (PF04183)
"IucA / IucC family"</title>
				<rect class="PF04183" x="196" y="28" stroke-linejoin="round" width="25" height="24" fill="rgb(221,104,121)" stroke="rgb(176,83,96)" stroke-width="1" opacity="0.75" />
			</g>
		</g>
		<g>
			<title>iucD_1 (PPJPJCPL_00812)
L-lysine N6-monooxygenase</title>
			<polygon class="iucD_1 (PPJPJCPL_00812)
L-lysine N6-monooxygenase" points="281,25 266,25 266,10 236,40 266,70 266,55 281,55" fill="rgb(255,255,255)" fill-opacity="1.0" stroke="rgb(0,0,0)" stroke-width="2"  />
			<g>
				<title>K_oxygenase (PF13434)
"L-lysine 6-monooxygenase (NADPH-requiring)"</title>
				<polygon class="PF13434" points="246,34 252,28 280,28 280,52 252,52 246,46" stroke-linejoin="round" width="34" height="24" fill="rgb(81,213,119)" stroke="rgb(64,170,95)" stroke-width="1" opacity="0.75" />
			</g>
		</g>
		<g>
			<title>iucB (PPJPJCPL_00813)
N(6)-hydroxylysine O-acetyltransferase</title>
			<polygon class="iucB (PPJPJCPL_00813)
N(6)-hydroxylysine O-acetyltransferase" points="280,40 298,10 298,70" fill="rgb(255,255,255)" fill-opacity="1.0" stroke="rgb(0,0,0)" stroke-width="2"  />
			<g>
				<title>Acetyltransf_8 (PF13523)
"Acetyltransferase (GNAT) domain"</title>
				<polygon class="PF13523" points="284,40 292,28 296,28 296,52 292,52" stroke-linejoin="round" width="14" height="24" fill="rgb(106,224,203)" stroke="rgb(84,179,162)" stroke-width="1" opacity="0.75" />
			</g>
		</g>
		<g>
			<title>iucA (PPJPJCPL_00814)
N(2)-citryl-N(6)-acetyl-N(6)-hydroxylysine synthase</title>
			<polygon class="iucA (PPJPJCPL_00814)
N(2)-citryl-N(6)-acetyl-N(6)-hydroxylysine synthase" points="359,25 329,25 329,10 299,40 329,70 329,55 359,55" fill="rgb(255,255,255)" fill-opacity="1.0" stroke="rgb(0,0,0)" stroke-width="2"  />
			<g>
				<title>FhuF (PF06276)
"Ferric iron reductase FhuF-like transporter"</title>
				<polygon class="PF06276" points="303,40 315,28 317,28 317,52 315,52" stroke-linejoin="round" width="16" height="24" fill="rgb(76,151,221)" stroke="rgb(60,120,176)" stroke-width="1" opacity="0.75" />
			</g>
			<g>
				<title>IucA_IucC (PF04183)
"IucA / IucC family"</title>
				<rect class="PF04183" x="320" y="28" stroke-linejoin="round" width="23" height="24" fill="rgb(221,104,121)" stroke="rgb(176,83,96)" stroke-width="1" opacity="0.75" />
			</g>
		</g>
		<g>
			<title>ddc (PPJPJCPL_00815)
L-2,4-diaminobutyrate decarboxylase</title>
			<polygon class="ddc (PPJPJCPL_00815)
L-2,4-diaminobutyrate decarboxylase" points="410,25 389,25 389,10 359,40 389,70 389,55 410,55" fill="rgb(255,255,255)" fill-opacity="1.0" stroke="rgb(0,0,0)" stroke-width="2"  />
			<g>
				<title>Pyridoxal_deC (PF00282)
"Pyridoxal-dependent decarboxylase conserved domain"</title>
				<polygon class="PF00282" points="366,37 375,28 403,28 403,52 375,52 366,43" stroke-linejoin="round" width="37" height="24" fill="rgb(100,218,166)" stroke="rgb(80,174,132)" stroke-width="1" opacity="0.75" />
			</g>
		</g>
		<g>
			<title>dat_1 (PPJPJCPL_00816)
Diaminobutyrate--2-oxoglutarate aminotransferase</title>
			<polygon class="dat_1 (PPJPJCPL_00816)
Diaminobutyrate--2-oxoglutarate aminotransferase" points="455,25 440,25 440,10 410,40 440,70 440,55 455,55" fill="rgb(255,255,255)" fill-opacity="1.0" stroke="rgb(0,0,0)" stroke-width="2"  />
			<g>
				<title>Aminotran_3 (PF00202)
"Aminotransferase class-III"</title>
				<polygon class="PF00202" points="414,40 426,28 452,28 452,52 426,52" stroke-linejoin="round" width="42" height="24" fill="rgb(49,163,189)" stroke="rgb(39,130,151)" stroke-width="1" opacity="0.75" />
			</g>
		</g>
		<g>
			<title>pspA (PPJPJCPL_00817)
Phosphoserine phosphatase 1</title>
			<polygon class="pspA (PPJPJCPL_00817)
Phosphoserine phosphatase 1" points="465,40 484,10 484,70" fill="rgb(255,255,255)" fill-opacity="1.0" stroke="rgb(0,0,0)" stroke-width="2"  />
			<g>
				<title>His_Phos_1 (PF00300)
"Histidine phosphatase superfamily (branch 1)"</title>
				<polygon class="PF00300" points="469,40 477,28 483,28 483,52 477,52" stroke-linejoin="round" width="18" height="24" fill="rgb(135,184,63)" stroke="rgb(107,147,50)" stroke-width="1" opacity="0.75" />
			</g>
		</g>
	</g>
</svg>
