<svg version="1.1" baseProfile="full" xmlns="http://www.w3.org/2000/svg" width="366.43333333333334" height="80">
	<g>
		<line x1="10" y1="40.0" x2="356.43333333333334" y2="40.0" style="stroke:rgb(70,70,70); stroke-width:3 "/>
		<g>
			<title> (JODBFFBH_01801)
hypothetical protein</title>
			<polygon class=" (JODBFFBH_01801)
hypothetical protein" points="24,40 41,10 41,70" fill="rgb(255,255,255)" fill-opacity="1.0" stroke="rgb(0,0,0)" stroke-width="2"  />
			<g>
				<title>DUF664 (PF04978)
"Protein of unknown function (DUF664)"</title>
				<polygon class="PF04978" points="27,40 34,28 39,28 39,52 34,52" stroke-linejoin="round" width="15" height="24" fill="rgb(102,82,189)" stroke="rgb(81,65,151)" stroke-width="1" opacity="0.75" />
			</g>
		</g>
		<g>
			<title> (JODBFFBH_01802)
hypothetical protein</title>
			<polygon class=" (JODBFFBH_01802)
hypothetical protein" points="43,40 54,10 54,70" fill="rgb(255,255,255)" fill-opacity="1.0" stroke="rgb(0,0,0)" stroke-width="2"  />
		</g>
		<g>
			<title> (JODBFFBH_01803)
hypothetical protein</title>
			<polygon class=" (JODBFFBH_01803)
hypothetical protein" points="58,40 83,10 83,70" fill="rgb(255,255,255)" fill-opacity="1.0" stroke="rgb(0,0,0)" stroke-width="2"  />
		</g>
		<g>
			<title> (JODBFFBH_01804)
hypothetical protein</title>
			<polygon class=" (JODBFFBH_01804)
hypothetical protein" points="88,40 91,10 91,70" fill="rgb(255,255,255)" fill-opacity="1.0" stroke="rgb(0,0,0)" stroke-width="2"  />
		</g>
		<g>
			<title>ectA (JODBFFBH_01805)
L-2,4-diaminobutyric acid acetyltransferase</title>
			<polygon class="ectA (JODBFFBH_01805)
L-2,4-diaminobutyric acid acetyltransferase" points="113,10 131,40 113,70" fill="rgb(255,255,255)" fill-opacity="1.0" stroke="rgb(0,0,0)" stroke-width="2"  />
			<g>
				<title>Acetyltransf_1 (PF00583)
"Acetyltransferase (GNAT) family"</title>
				<polygon class="PF00583" points="115,28 120,28 126,38 126,42 120,52 115,52" stroke-linejoin="round" width="11" height="24" fill="rgb(121,183,50)" stroke="rgb(96,146,39)" stroke-width="1" opacity="0.75" />
			</g>
		</g>
		<g>
			<title>ectB (JODBFFBH_01806)
Diaminobutyrate--2-oxoglutarate transaminase</title>
			<polygon class="ectB (JODBFFBH_01806)
Diaminobutyrate--2-oxoglutarate transaminase" points="132,25 144,25 144,10 174,40 144,70 144,55 132,55" fill="rgb(255,255,255)" fill-opacity="1.0" stroke="rgb(0,0,0)" stroke-width="2"  />
			<g>
				<title>Aminotran_3 (PF00202)
"Aminotransferase class-III"</title>
				<polygon class="PF00202" points="133,28 158,28 170,40 158,52 133,52" stroke-linejoin="round" width="39" height="24" fill="rgb(49,163,189)" stroke="rgb(39,130,151)" stroke-width="1" opacity="0.75" />
			</g>
		</g>
		<g>
			<title>ectC (JODBFFBH_01807)
L-ectoine synthase</title>
			<polygon class="ectC (JODBFFBH_01807)
L-ectoine synthase" points="176,10 189,40 176,70" fill="rgb(255,255,255)" fill-opacity="1.0" stroke="rgb(0,0,0)" stroke-width="2"  />
			<g>
				<title>Ectoine_synth (PF06339)
"Ectoine synthase"</title>
				<polygon class="PF06339" points="176,28 180,28 185,40 180,52 176,52" stroke-linejoin="round" width="12" height="24" fill="rgb(225,176,81)" stroke="rgb(180,140,64)" stroke-width="1" opacity="0.75" />
			</g>
		</g>
		<g>
			<title> (JODBFFBH_01808)
Putative aldehyde dehydrogenase</title>
			<polygon class=" (JODBFFBH_01808)
Putative aldehyde dehydrogenase" points="239,25 222,25 222,10 192,40 222,70 222,55 239,55" fill="rgb(255,255,255)" fill-opacity="1.0" stroke="rgb(0,0,0)" stroke-width="2"  />
			<g>
				<title>Aldedh (PF00171)
"Aldehyde dehydrogenase family"</title>
				<polygon class="PF00171" points="196,40 208,28 237,28 237,52 208,52" stroke-linejoin="round" width="45" height="24" fill="rgb(105,213,139)" stroke="rgb(84,170,111)" stroke-width="1" opacity="0.75" />
			</g>
		</g>
		<g>
			<title> (JODBFFBH_01809)
hypothetical protein</title>
			<polygon class=" (JODBFFBH_01809)
hypothetical protein" points="244,40 259,10 259,70" fill="rgb(255,255,255)" fill-opacity="1.0" stroke="rgb(0,0,0)" stroke-width="2"  />
			<g>
				<title>Acetyltransf_10 (PF13673)
"Acetyltransferase (GNAT) domain"</title>
				<polygon class="PF13673" points="247,40 253,28 256,28 256,52 253,52" stroke-linejoin="round" width="12" height="24" fill="rgb(88,180,95)" stroke="rgb(70,144,76)" stroke-width="1" opacity="0.75" />
			</g>
		</g>
		<g>
			<title>tatA_2 (JODBFFBH_01810)
Sec-independent protein translocase protein TatA</title>
			<polygon class="tatA_2 (JODBFFBH_01810)
Sec-independent protein translocase protein TatA" points="269,10 276,40 269,70" fill="rgb(255,255,255)" fill-opacity="1.0" stroke="rgb(0,0,0)" stroke-width="2"  />
			<g>
				<title>MttA_Hcf106 (PF02416)
"mttA/Hcf106 family"</title>
				<polygon class="PF02416" points="269,28 269,28 273,40 269,52 269,52" stroke-linejoin="round" width="6" height="24" fill="rgb(74,206,98)" stroke="rgb(59,164,78)" stroke-width="1" opacity="0.75" />
			</g>
		</g>
		<g>
			<title>tatC1_2 (JODBFFBH_01811)
Sec-independent protein translocase protein TatCd</title>
			<polygon class="tatC1_2 (JODBFFBH_01811)
Sec-independent protein translocase protein TatCd" points="279,10 303,40 279,70" fill="rgb(255,255,255)" fill-opacity="1.0" stroke="rgb(0,0,0)" stroke-width="2"  />
			<g>
				<title>TatC (PF00902)
"Sec-independent protein translocase protein (TatC)"</title>
				<polygon class="PF00902" points="280,28 289,28 299,40 289,52 280,52" stroke-linejoin="round" width="20" height="24" fill="rgb(84,193,209)" stroke="rgb(67,154,167)" stroke-width="1" opacity="0.75" />
			</g>
		</g>
		<g>
			<title>mhqA_1 (JODBFFBH_01812)
Putative ring-cleaving dioxygenase MhqA</title>
			<polygon class="mhqA_1 (JODBFFBH_01812)
Putative ring-cleaving dioxygenase MhqA" points="327,40 335,10 335,70" fill="rgb(255,255,255)" fill-opacity="1.0" stroke="rgb(0,0,0)" stroke-width="2"  />
		</g>
	</g>
</svg>
