<svg version="1.1" baseProfile="full" xmlns="http://www.w3.org/2000/svg" width="366.23333333333335" height="80">
	<g>
		<line x1="10" y1="40.0" x2="356.23333333333335" y2="40.0" style="stroke:rgb(70,70,70); stroke-width:3 "/>
		<g>
			<title>ykuI (PPIKFOGO_00030)
putative EAL-domain containing protein YkuI</title>
			<polygon class="ykuI (PPIKFOGO_00030)
putative EAL-domain containing protein YkuI" points="48,25 58,25 58,10 88,40 58,70 58,55 48,55" fill="rgb(255,255,255)" fill-opacity="1.0" stroke="rgb(0,0,0)" stroke-width="2"  />
			<g>
				<title>EAL (PF00563)
"EAL domain"</title>
				<rect class="PF00563" x="48" y="28" stroke-linejoin="round" width="22" height="24" fill="rgb(204,100,120)" stroke="rgb(163,80,96)" stroke-width="1" opacity="0.75" />
			</g>
			<g>
				<title>YkuI_C (PF10388)
"EAL-domain associated signalling protein domain"</title>
				<polygon class="PF10388" points="71,28 72,28 84,40 72,52 71,52" stroke-linejoin="round" width="16" height="24" fill="rgb(56,196,67)" stroke="rgb(44,156,53)" stroke-width="1" opacity="0.75" />
			</g>
		</g>
		<g>
			<title> (PPIKFOGO_00031)
hypothetical protein</title>
			<polygon class=" (PPIKFOGO_00031)
hypothetical protein" points="93,10 101,40 93,70" fill="rgb(255,255,255)" fill-opacity="1.0" stroke="rgb(0,0,0)" stroke-width="2"  />
		</g>
		<g>
			<title> (PPIKFOGO_00032)
hypothetical protein</title>
			<polygon class=" (PPIKFOGO_00032)
hypothetical protein" points="103,10 118,40 103,70" fill="rgb(255,255,255)" fill-opacity="1.0" stroke="rgb(0,0,0)" stroke-width="2"  />
			<g>
				<title>Acetyltransf_1 (PF00583)
"Acetyltransferase (GNAT) family"</title>
				<polygon class="PF00583" points="104,28 108,28 115,40 108,52 104,52" stroke-linejoin="round" width="12" height="24" fill="rgb(121,183,50)" stroke="rgb(96,146,39)" stroke-width="1" opacity="0.75" />
			</g>
		</g>
		<g>
			<title> (PPIKFOGO_00033)
hypothetical protein</title>
			<polygon class=" (PPIKFOGO_00033)
hypothetical protein" points="126,10 153,40 126,70" fill="rgb(255,255,255)" fill-opacity="1.0" stroke="rgb(0,0,0)" stroke-width="2"  />
			<g>
				<title>GGDEF (PF00990)
"Diguanylate cyclase, GGDEF domain"</title>
				<polygon class="PF00990" points="137,28 137,28 149,40 137,52 137,52" stroke-linejoin="round" width="15" height="24" fill="rgb(62,170,199)" stroke="rgb(49,135,159)" stroke-width="1" opacity="0.75" />
			</g>
		</g>
		<g>
			<title> (PPIKFOGO_00034)
hypothetical protein</title>
			<polygon class=" (PPIKFOGO_00034)
hypothetical protein" points="158,10 164,40 158,70" fill="rgb(255,255,255)" fill-opacity="1.0" stroke="rgb(0,0,0)" stroke-width="2"  />
		</g>
		<g>
			<title>ectC (PPIKFOGO_00035)
L-ectoine synthase</title>
			<polygon class="ectC (PPIKFOGO_00035)
L-ectoine synthase" points="176,10 188,40 176,70" fill="rgb(255,255,255)" fill-opacity="1.0" stroke="rgb(0,0,0)" stroke-width="2"  />
			<g>
				<title>Ectoine_synth (PF06339)
"Ectoine synthase"</title>
				<polygon class="PF06339" points="176,28 180,28 185,40 180,52 176,52" stroke-linejoin="round" width="12" height="24" fill="rgb(225,176,81)" stroke="rgb(180,140,64)" stroke-width="1" opacity="0.75" />
			</g>
		</g>
		<g>
			<title> (PPIKFOGO_00036)
hypothetical protein</title>
			<polygon class=" (PPIKFOGO_00036)
hypothetical protein" points="192,10 200,40 192,70" fill="rgb(255,255,255)" fill-opacity="1.0" stroke="rgb(0,0,0)" stroke-width="2"  />
		</g>
		<g>
			<title> (PPIKFOGO_00037)
hypothetical protein</title>
			<polygon class=" (PPIKFOGO_00037)
hypothetical protein" points="204,10 212,40 204,70" fill="rgb(255,255,255)" fill-opacity="1.0" stroke="rgb(0,0,0)" stroke-width="2"  />
		</g>
		<g>
			<title> (PPIKFOGO_00038)
hypothetical protein</title>
			<polygon class=" (PPIKFOGO_00038)
hypothetical protein" points="213,10 228,40 213,70" fill="rgb(255,255,255)" fill-opacity="1.0" stroke="rgb(0,0,0)" stroke-width="2"  />
		</g>
		<g>
			<title> (PPIKFOGO_00039)
hypothetical protein</title>
			<polygon class=" (PPIKFOGO_00039)
hypothetical protein" points="239,25 239,25 239,10 269,40 239,70 239,55 239,55" fill="rgb(255,255,255)" fill-opacity="1.0" stroke="rgb(0,0,0)" stroke-width="2"  />
		</g>
		<g>
			<title> (PPIKFOGO_00040)
hypothetical protein</title>
			<polygon class=" (PPIKFOGO_00040)
hypothetical protein" points="269,10 287,40 269,70" fill="rgb(255,255,255)" fill-opacity="1.0" stroke="rgb(0,0,0)" stroke-width="2"  />
		</g>
		<g>
			<title> (PPIKFOGO_00041)
hypothetical protein</title>
			<polygon class=" (PPIKFOGO_00041)
hypothetical protein" points="289,40 299,10 299,70" fill="rgb(255,255,255)" fill-opacity="1.0" stroke="rgb(0,0,0)" stroke-width="2"  />
		</g>
	</g>
</svg>
