<svg version="1.1" baseProfile="full" xmlns="http://www.w3.org/2000/svg" width="714.5666666666667" height="80">
	<g>
		<line x1="10" y1="40.0" x2="704.5666666666667" y2="40.0" style="stroke:rgb(70,70,70); stroke-width:3 "/>
		<g>
			<title> (CKNNHCHG_03013)
hypothetical protein</title>
			<polygon class=" (CKNNHCHG_03013)
hypothetical protein" points="58,40 69,10 69,70" fill="rgb(255,255,255)" fill-opacity="1.0" stroke="rgb(0,0,0)" stroke-width="2"  />
		</g>
		<g>
			<title> (CKNNHCHG_03014)
hypothetical protein</title>
			<polygon class=" (CKNNHCHG_03014)
hypothetical protein" points="81,10 98,40 81,70" fill="rgb(255,255,255)" fill-opacity="1.0" stroke="rgb(0,0,0)" stroke-width="2"  />
			<g>
				<title>HD (PF01966)
"HD domain"</title>
				<polygon class="PF01966" points="83,28 88,28 95,40 88,52 83,52" stroke-linejoin="round" width="13" height="24" fill="rgb(92,193,119)" stroke="rgb(73,154,95)" stroke-width="1" opacity="0.75" />
			</g>
		</g>
		<g>
			<title> (CKNNHCHG_03015)
hypothetical protein</title>
			<polygon class=" (CKNNHCHG_03015)
hypothetical protein" points="116,10 120,40 116,70" fill="rgb(255,255,255)" fill-opacity="1.0" stroke="rgb(0,0,0)" stroke-width="2"  />
		</g>
		<g>
			<title> (CKNNHCHG_03016)
hypothetical protein</title>
			<polygon class=" (CKNNHCHG_03016)
hypothetical protein" points="124,10 128,40 124,70" fill="rgb(255,255,255)" fill-opacity="1.0" stroke="rgb(0,0,0)" stroke-width="2"  />
		</g>
		<g>
			<title> (CKNNHCHG_03017)
hypothetical protein</title>
			<polygon class=" (CKNNHCHG_03017)
hypothetical protein" points="141,10 155,40 141,70" fill="rgb(255,255,255)" fill-opacity="1.0" stroke="rgb(0,0,0)" stroke-width="2"  />
			<g>
				<title>YwpF (PF14183)
"YwpF-like protein"</title>
				<polygon class="PF14183" points="141,28 146,28 151,40 146,52 141,52" stroke-linejoin="round" width="13" height="24" fill="rgb(199,178,73)" stroke="rgb(159,142,58)" stroke-width="1" opacity="0.75" />
			</g>
		</g>
		<g>
			<title>ktrB_2 (CKNNHCHG_03018)
Ktr system potassium uptake protein B</title>
			<polygon class="ktrB_2 (CKNNHCHG_03018)
Ktr system potassium uptake protein B" points="161,25 176,25 176,10 206,40 176,70 176,55 161,55" fill="rgb(255,255,255)" fill-opacity="1.0" stroke="rgb(0,0,0)" stroke-width="2"  />
			<g>
				<title>TrkH (PF02386)
"Cation transport protein"</title>
				<polygon class="PF02386" points="161,28 190,28 202,40 190,52 161,52" stroke-linejoin="round" width="43" height="24" fill="rgb(67,179,142)" stroke="rgb(53,143,113)" stroke-width="1" opacity="0.75" />
			</g>
		</g>
		<g>
			<title> (CKNNHCHG_03019)
hypothetical protein</title>
			<polygon class=" (CKNNHCHG_03019)
hypothetical protein" points="222,40 226,10 226,70" fill="rgb(255,255,255)" fill-opacity="1.0" stroke="rgb(0,0,0)" stroke-width="2"  />
			<g>
				<title>YjcZ_2 (PF09680)
"Family of unknown function"</title>
				<polygon class="PF09680" points="225,40 224,47 224,33" stroke-linejoin="round" width="2" height="24" fill="rgb(79,203,107)" stroke="rgb(63,162,85)" stroke-width="1" opacity="0.75" />
			</g>
		</g>
		<g>
			<title> (CKNNHCHG_03020)
hypothetical protein</title>
			<polygon class=" (CKNNHCHG_03020)
hypothetical protein" points="228,40 234,10 234,70" fill="rgb(255,255,255)" fill-opacity="1.0" stroke="rgb(0,0,0)" stroke-width="2"  />
		</g>
		<g>
			<title> (CKNNHCHG_03021)
hypothetical protein</title>
			<polygon class=" (CKNNHCHG_03021)
hypothetical protein" points="238,10 254,40 238,70" fill="rgb(255,255,255)" fill-opacity="1.0" stroke="rgb(0,0,0)" stroke-width="2"  />
		</g>
		<g>
			<title>crtN (CKNNHCHG_03022)
4,4'-diapophytoene desaturase (4,4'-diapolycopene-forming)</title>
			<polygon class="crtN (CKNNHCHG_03022)
4,4'-diapophytoene desaturase (4,4'-diapolycopene-forming)" points="253,25 263,25 263,10 293,40 263,70 263,55 253,55" fill="rgb(255,255,255)" fill-opacity="1.0" stroke="rgb(0,0,0)" stroke-width="2"  />
			<g>
				<title>Amino_oxidase (PF01593)
"Flavin containing amine oxidoreductase"</title>
				<polygon class="PF01593" points="254,28 277,28 289,40 277,52 254,52" stroke-linejoin="round" width="38" height="24" fill="rgb(184,74,52)" stroke="rgb(147,59,41)" stroke-width="1" opacity="0.75" />
			</g>
		</g>
		<g>
			<title>crtNc (CKNNHCHG_03023)
4,4'-diapolycopen-4-al dehydrogenase</title>
			<polygon class="crtNc (CKNNHCHG_03023)
4,4'-diapolycopen-4-al dehydrogenase" points="294,25 313,25 313,10 343,40 313,70 313,55 294,55" fill="rgb(255,255,255)" fill-opacity="1.0" stroke="rgb(0,0,0)" stroke-width="2"  />
			<g>
				<title>Amino_oxidase (PF01593)
"Flavin containing amine oxidoreductase"</title>
				<polygon class="PF01593" points="295,28 326,28 338,40 326,52 295,52" stroke-linejoin="round" width="46" height="24" fill="rgb(184,74,52)" stroke="rgb(147,59,41)" stroke-width="1" opacity="0.75" />
			</g>
		</g>
		<g>
			<title>crtB (CKNNHCHG_03024)
15-cis-phytoene synthase</title>
			<polygon class="crtB (CKNNHCHG_03024)
15-cis-phytoene synthase" points="343,10 370,40 343,70" fill="rgb(255,255,255)" fill-opacity="1.0" stroke="rgb(0,0,0)" stroke-width="2"  />
			<g>
				<title>SQS_PSY (PF00494)
"Squalene/phytoene synthase"</title>
				<polygon class="PF00494" points="344,28 355,28 366,40 355,52 344,52" stroke-linejoin="round" width="25" height="24" fill="rgb(178,91,49)" stroke="rgb(142,72,39)" stroke-width="1" opacity="0.75" />
			</g>
		</g>
		<g>
			<title> (CKNNHCHG_03025)
hypothetical protein</title>
			<polygon class=" (CKNNHCHG_03025)
hypothetical protein" points="374,10 378,40 374,70" fill="rgb(255,255,255)" fill-opacity="1.0" stroke="rgb(0,0,0)" stroke-width="2"  />
		</g>
		<g>
			<title> (CKNNHCHG_03026)
hypothetical protein</title>
			<polygon class=" (CKNNHCHG_03026)
hypothetical protein" points="383,40 387,10 387,70" fill="rgb(255,255,255)" fill-opacity="1.0" stroke="rgb(0,0,0)" stroke-width="2"  />
		</g>
		<g>
			<title>crtNb_1 (CKNNHCHG_03027)
4,4'-diapolycopene oxygenase</title>
			<polygon class="crtNb_1 (CKNNHCHG_03027)
4,4'-diapolycopene oxygenase" points="440,25 421,25 421,10 391,40 421,70 421,55 440,55" fill="rgb(255,255,255)" fill-opacity="1.0" stroke="rgb(0,0,0)" stroke-width="2"  />
			<g>
				<title>Amino_oxidase (PF01593)
"Flavin containing amine oxidoreductase"</title>
				<polygon class="PF01593" points="395,40 407,28 438,28 438,52 407,52" stroke-linejoin="round" width="47" height="24" fill="rgb(184,74,52)" stroke="rgb(147,59,41)" stroke-width="1" opacity="0.75" />
			</g>
		</g>
		<g>
			<title> (CKNNHCHG_03028)
hypothetical protein</title>
			<polygon class=" (CKNNHCHG_03028)
hypothetical protein" points="477,25 470,25 470,10 440,40 470,70 470,55 477,55" fill="rgb(255,255,255)" fill-opacity="1.0" stroke="rgb(0,0,0)" stroke-width="2"  />
			<g>
				<title>Glyco_tranf_2_3 (PF13641)
"Glycosyltransferase like family 2"</title>
				<polygon class="PF13641" points="450,34 456,28 473,28 473,52 456,52 450,46" stroke-linejoin="round" width="23" height="24" fill="rgb(140,74,190)" stroke="rgb(111,59,152)" stroke-width="1" opacity="0.75" />
			</g>
		</g>
		<g>
			<title> (CKNNHCHG_03029)
hypothetical protein</title>
			<polygon class=" (CKNNHCHG_03029)
hypothetical protein" points="477,40 499,10 499,70" fill="rgb(255,255,255)" fill-opacity="1.0" stroke="rgb(0,0,0)" stroke-width="2"  />
			<g>
				<title>Acyltransferase (PF01553)
"Acyltransferase"</title>
				<polygon class="PF01553" points="483,37 490,28 496,28 496,52 490,52 483,43" stroke-linejoin="round" width="13" height="24" fill="rgb(87,176,216)" stroke="rgb(69,140,172)" stroke-width="1" opacity="0.75" />
			</g>
		</g>
		<g>
			<title> (CKNNHCHG_03030)
hypothetical protein</title>
			<polygon class=" (CKNNHCHG_03030)
hypothetical protein" points="499,40 524,10 524,70" fill="rgb(255,255,255)" fill-opacity="1.0" stroke="rgb(0,0,0)" stroke-width="2"  />
			<g>
				<title>Caroten_synth (PF04240)
"Carotenoid biosynthesis protein"</title>
				<polygon class="PF04240" points="503,40 513,28 521,28 521,52 513,52" stroke-linejoin="round" width="21" height="24" fill="rgb(65,214,190)" stroke="rgb(52,171,152)" stroke-width="1" opacity="0.75" />
			</g>
		</g>
		<g>
			<title> (CKNNHCHG_03031)
hypothetical protein</title>
			<polygon class=" (CKNNHCHG_03031)
hypothetical protein" points="535,40 552,10 552,70" fill="rgb(255,255,255)" fill-opacity="1.0" stroke="rgb(0,0,0)" stroke-width="2"  />
			<g>
				<title>DoxX (PF07681)
"DoxX"</title>
				<polygon class="PF07681" points="540,36 545,28 550,28 550,52 545,52 540,44" stroke-linejoin="round" width="10" height="24" fill="rgb(93,188,216)" stroke="rgb(74,150,172)" stroke-width="1" opacity="0.75" />
			</g>
		</g>
		<g>
			<title> (CKNNHCHG_03032)
hypothetical protein</title>
			<polygon class=" (CKNNHCHG_03032)
hypothetical protein" points="568,40 579,10 579,70" fill="rgb(255,255,255)" fill-opacity="1.0" stroke="rgb(0,0,0)" stroke-width="2"  />
		</g>
		<g>
			<title> (CKNNHCHG_03033)
hypothetical protein</title>
			<polygon class=" (CKNNHCHG_03033)
hypothetical protein" points="604,10 611,40 604,70" fill="rgb(255,255,255)" fill-opacity="1.0" stroke="rgb(0,0,0)" stroke-width="2"  />
			<g>
				<title>DUF1659 (PF07872)
"Protein of unknown function (DUF1659)"</title>
				<polygon class="PF07872" points="604,28 604,28 608,39 608,41 604,52 604,52" stroke-linejoin="round" width="4" height="24" fill="rgb(172,48,195)" stroke="rgb(137,38,156)" stroke-width="1" opacity="0.75" />
			</g>
		</g>
		<g>
			<title> (CKNNHCHG_03034)
hypothetical protein</title>
			<polygon class=" (CKNNHCHG_03034)
hypothetical protein" points="612,10 619,40 612,70" fill="rgb(255,255,255)" fill-opacity="1.0" stroke="rgb(0,0,0)" stroke-width="2"  />
			<g>
				<title>DUF2922 (PF11148)
"Protein of unknown function (DUF2922)"</title>
				<polygon class="PF11148" points="612,28 612,28 616,40 612,52 612,52" stroke-linejoin="round" width="6" height="24" fill="rgb(196,220,80)" stroke="rgb(156,176,64)" stroke-width="1" opacity="0.75" />
			</g>
		</g>
		<g>
			<title> (CKNNHCHG_03035)
hypothetical protein</title>
			<polygon class=" (CKNNHCHG_03035)
hypothetical protein" points="623,10 627,40 623,70" fill="rgb(255,255,255)" fill-opacity="1.0" stroke="rgb(0,0,0)" stroke-width="2"  />
			<g>
				<title>YvrJ (PF12841)
"YvrJ protein family"</title>
				<polygon class="PF12841" points="623,30 624,40 623,50" stroke-linejoin="round" width="3" height="24" fill="rgb(207,53,76)" stroke="rgb(165,42,60)" stroke-width="1" opacity="0.75" />
			</g>
		</g>
		<g>
			<title>sipT (CKNNHCHG_03036)
Signal peptidase I T</title>
			<polygon class="sipT (CKNNHCHG_03036)
Signal peptidase I T" points="630,40 647,10 647,70" fill="rgb(255,255,255)" fill-opacity="1.0" stroke="rgb(0,0,0)" stroke-width="2"  />
			<g>
				<title>Peptidase_S24 (PF00717)
"Peptidase S24-like"</title>
				<polygon class="PF00717" points="637,33 640,28 643,28 643,52 640,52 637,47" stroke-linejoin="round" width="6" height="24" fill="rgb(180,76,105)" stroke="rgb(144,60,83)" stroke-width="1" opacity="0.75" />
			</g>
		</g>
		<g>
			<title> (CKNNHCHG_03037)
hypothetical protein</title>
			<polygon class=" (CKNNHCHG_03037)
hypothetical protein" points="657,10 662,40 657,70" fill="rgb(255,255,255)" fill-opacity="1.0" stroke="rgb(0,0,0)" stroke-width="2"  />
			<g>
				<title>SpoOE-like (PF09388)
"Spo0E like sporulation regulatory protein"</title>
				<polygon class="PF09388" points="658,32 659,40 658,48" stroke-linejoin="round" width="4" height="24" fill="rgb(188,111,63)" stroke="rgb(150,88,50)" stroke-width="1" opacity="0.75" />
			</g>
		</g>
	</g>
</svg>
