<svg version="1.1" baseProfile="full" xmlns="http://www.w3.org/2000/svg" width="366.23333333333335" height="80">
	<g>
		<line x1="10" y1="40.0" x2="356.23333333333335" y2="40.0" style="stroke:rgb(70,70,70); stroke-width:3 "/>
		<g>
			<title> (FGNEMNIM_00599)
hypothetical protein</title>
			<polygon class=" (FGNEMNIM_00599)
hypothetical protein" points="40,10 50,40 40,70" fill="rgb(255,255,255)" fill-opacity="1.0" stroke="rgb(0,0,0)" stroke-width="2"  />
		</g>
		<g>
			<title> (FGNEMNIM_00600)
hypothetical protein</title>
			<polygon class=" (FGNEMNIM_00600)
hypothetical protein" points="51,40 69,10 69,70" fill="rgb(255,255,255)" fill-opacity="1.0" stroke="rgb(0,0,0)" stroke-width="2"  />
		</g>
		<g>
			<title> (FGNEMNIM_00601)
hypothetical protein</title>
			<polygon class=" (FGNEMNIM_00601)
hypothetical protein" points="100,25 100,25 100,10 70,40 100,70 100,55 100,55" fill="rgb(255,255,255)" fill-opacity="1.0" stroke="rgb(0,0,0)" stroke-width="2"  />
		</g>
		<g>
			<title> (FGNEMNIM_00602)
hypothetical protein</title>
			<polygon class=" (FGNEMNIM_00602)
hypothetical protein" points="111,10 130,40 111,70" fill="rgb(255,255,255)" fill-opacity="1.0" stroke="rgb(0,0,0)" stroke-width="2"  />
		</g>
		<g>
			<title> (FGNEMNIM_00603)
hypothetical protein</title>
			<polygon class=" (FGNEMNIM_00603)
hypothetical protein" points="131,40 138,10 138,70" fill="rgb(255,255,255)" fill-opacity="1.0" stroke="rgb(0,0,0)" stroke-width="2"  />
		</g>
		<g>
			<title> (FGNEMNIM_00604)
hypothetical protein</title>
			<polygon class=" (FGNEMNIM_00604)
hypothetical protein" points="138,40 153,10 153,70" fill="rgb(255,255,255)" fill-opacity="1.0" stroke="rgb(0,0,0)" stroke-width="2"  />
		</g>
		<g>
			<title> (FGNEMNIM_00605)
hypothetical protein</title>
			<polygon class=" (FGNEMNIM_00605)
hypothetical protein" points="165,40 173,10 173,70" fill="rgb(255,255,255)" fill-opacity="1.0" stroke="rgb(0,0,0)" stroke-width="2"  />
		</g>
		<g>
			<title>ectC (FGNEMNIM_00606)
L-ectoine synthase</title>
			<polygon class="ectC (FGNEMNIM_00606)
L-ectoine synthase" points="176,40 188,10 188,70" fill="rgb(255,255,255)" fill-opacity="1.0" stroke="rgb(0,0,0)" stroke-width="2"  />
			<g>
				<title>Ectoine_synth (PF06339)
"Ectoine synthase"</title>
				<polygon class="PF06339" points="179,40 184,28 188,28 188,52 184,52" stroke-linejoin="round" width="12" height="24" fill="rgb(225,176,81)" stroke="rgb(180,140,64)" stroke-width="1" opacity="0.75" />
			</g>
		</g>
		<g>
			<title> (FGNEMNIM_00607)
hypothetical protein</title>
			<polygon class=" (FGNEMNIM_00607)
hypothetical protein" points="195,10 218,40 195,70" fill="rgb(255,255,255)" fill-opacity="1.0" stroke="rgb(0,0,0)" stroke-width="2"  />
			<g>
				<title>Toast_rack_N (PF17115)
"N-terminal domain of toast_rack, DUF2154"</title>
				<polygon class="PF17115" points="198,28 205,28 206,30 206,50 205,52 198,52" stroke-linejoin="round" width="8" height="24" fill="rgb(194,78,58)" stroke="rgb(155,62,46)" stroke-width="1" opacity="0.75" />
			</g>
			<g>
				<title>DUF2154 (PF09922)
"Cell wall-active antibiotics response 4TMS YvqF"</title>
				<polygon class="PF09922" points="206,30 214,40 206,50" stroke-linejoin="round" width="11" height="24" fill="rgb(190,73,196)" stroke="rgb(152,58,156)" stroke-width="1" opacity="0.75" />
			</g>
		</g>
		<g>
			<title> (FGNEMNIM_00608)
hypothetical protein</title>
			<polygon class=" (FGNEMNIM_00608)
hypothetical protein" points="220,40 247,10 247,70" fill="rgb(255,255,255)" fill-opacity="1.0" stroke="rgb(0,0,0)" stroke-width="2"  />
			<g>
				<title>GGDEF (PF00990)
"Diguanylate cyclase, GGDEF domain"</title>
				<polygon class="PF00990" points="224,40 235,28 235,28 235,52 235,52" stroke-linejoin="round" width="15" height="24" fill="rgb(62,170,199)" stroke="rgb(49,135,159)" stroke-width="1" opacity="0.75" />
			</g>
		</g>
		<g>
			<title>bdlA (FGNEMNIM_00609)
Biofilm dispersion protein BdlA</title>
			<polygon class="bdlA (FGNEMNIM_00609)
Biofilm dispersion protein BdlA" points="281,25 281,25 281,10 251,40 281,70 281,55 281,55" fill="rgb(255,255,255)" fill-opacity="1.0" stroke="rgb(0,0,0)" stroke-width="2"  />
			<g>
				<title>MCPsignal (PF00015)
"Methyl-accepting chemotaxis protein (MCP) signalling domain"</title>
				<polygon class="PF00015" points="255,40 267,28 267,28 267,52 267,52" stroke-linejoin="round" width="16" height="24" fill="rgb(104,174,223)" stroke="rgb(83,139,178)" stroke-width="1" opacity="0.75" />
			</g>
			<g>
				<title>PAS_4 (PF08448)
"PAS fold"</title>
				<rect class="PF08448" x="268" y="28" stroke-linejoin="round" width="11" height="24" fill="rgb(50,90,192)" stroke="rgb(40,71,153)" stroke-width="1" opacity="0.75" />
			</g>
		</g>
		<g>
			<title> (FGNEMNIM_00610)
hypothetical protein</title>
			<polygon class=" (FGNEMNIM_00610)
hypothetical protein" points="287,40 302,10 302,70" fill="rgb(255,255,255)" fill-opacity="1.0" stroke="rgb(0,0,0)" stroke-width="2"  />
			<g>
				<title>Acetyltransf_1 (PF00583)
"Acetyltransferase (GNAT) family"</title>
				<polygon class="PF00583" points="290,40 296,28 301,28 301,52 296,52" stroke-linejoin="round" width="12" height="24" fill="rgb(121,183,50)" stroke="rgb(96,146,39)" stroke-width="1" opacity="0.75" />
			</g>
		</g>
		<g>
			<title>ykuI (FGNEMNIM_00611)
putative EAL-domain containing protein YkuI</title>
			<polygon class="ykuI (FGNEMNIM_00611)
putative EAL-domain containing protein YkuI" points="344,25 334,25 334,10 304,40 334,70 334,55 344,55" fill="rgb(255,255,255)" fill-opacity="1.0" stroke="rgb(0,0,0)" stroke-width="2"  />
			<g>
				<title>YkuI_C (PF10388)
"EAL-domain associated signalling protein domain"</title>
				<polygon class="PF10388" points="308,40 320,28 320,28 320,52 320,52" stroke-linejoin="round" width="16" height="24" fill="rgb(56,196,67)" stroke="rgb(44,156,53)" stroke-width="1" opacity="0.75" />
			</g>
			<g>
				<title>EAL (PF00563)
"EAL domain"</title>
				<rect class="PF00563" x="321" y="28" stroke-linejoin="round" width="22" height="24" fill="rgb(204,100,120)" stroke="rgb(163,80,96)" stroke-width="1" opacity="0.75" />
			</g>
		</g>
	</g>
</svg>
