<svg version="1.1" baseProfile="full" xmlns="http://www.w3.org/2000/svg" width="366.93333333333334" height="80">
	<g>
		<line x1="10" y1="40.0" x2="356.93333333333334" y2="40.0" style="stroke:rgb(70,70,70); stroke-width:3 "/>
		<g>
			<title> (HLOLAOLD_01195)
hypothetical protein</title>
			<polygon class=" (HLOLAOLD_01195)
hypothetical protein" points="33,10 44,40 33,70" fill="rgb(255,255,255)" fill-opacity="1.0" stroke="rgb(0,0,0)" stroke-width="2"  />
			<g>
				<title>CMD (PF02627)
"Carboxymuconolactone decarboxylase family"</title>
				<polygon class="PF02627" points="35,28 36,28 41,40 36,52 35,52" stroke-linejoin="round" width="8" height="24" fill="rgb(58,205,164)" stroke="rgb(46,164,131)" stroke-width="1" opacity="0.75" />
			</g>
		</g>
		<g>
			<title>hcxA (HLOLAOLD_01196)
Hydroxycarboxylate dehydrogenase A</title>
			<polygon class="hcxA (HLOLAOLD_01196)
Hydroxycarboxylate dehydrogenase A" points="48,25 53,25 53,10 83,40 53,70 53,55 48,55" fill="rgb(255,255,255)" fill-opacity="1.0" stroke="rgb(0,0,0)" stroke-width="2"  />
			<g>
				<title>Fe-ADH (PF00465)
"Iron-containing alcohol dehydrogenase"</title>
				<polygon class="PF00465" points="49,28 67,28 79,40 67,52 49,52" stroke-linejoin="round" width="33" height="24" fill="rgb(73,179,216)" stroke="rgb(58,143,172)" stroke-width="1" opacity="0.75" />
			</g>
		</g>
		<g>
			<title> (HLOLAOLD_01197)
hypothetical protein</title>
			<polygon class=" (HLOLAOLD_01197)
hypothetical protein" points="135,25 121,25 121,10 91,40 121,70 121,55 135,55" fill="rgb(255,255,255)" fill-opacity="1.0" stroke="rgb(0,0,0)" stroke-width="2"  />
		</g>
		<g>
			<title>ydaF_2 (HLOLAOLD_01198)
Putative ribosomal N-acetyltransferase YdaF</title>
			<polygon class="ydaF_2 (HLOLAOLD_01198)
Putative ribosomal N-acetyltransferase YdaF" points="135,40 154,10 154,70" fill="rgb(255,255,255)" fill-opacity="1.0" stroke="rgb(0,0,0)" stroke-width="2"  />
			<g>
				<title>Acetyltransf_3 (PF13302)
"Acetyltransferase (GNAT) domain"</title>
				<polygon class="PF13302" points="139,40 147,28 152,28 152,52 147,52" stroke-linejoin="round" width="14" height="24" fill="rgb(105,146,215)" stroke="rgb(84,116,172)" stroke-width="1" opacity="0.75" />
			</g>
		</g>
		<g>
			<title> (HLOLAOLD_01199)
hypothetical protein</title>
			<polygon class=" (HLOLAOLD_01199)
hypothetical protein" points="159,40 174,10 174,70" fill="rgb(255,255,255)" fill-opacity="1.0" stroke="rgb(0,0,0)" stroke-width="2"  />
		</g>
		<g>
			<title>ectC (HLOLAOLD_01200)
L-ectoine synthase</title>
			<polygon class="ectC (HLOLAOLD_01200)
L-ectoine synthase" points="176,40 189,10 189,70" fill="rgb(255,255,255)" fill-opacity="1.0" stroke="rgb(0,0,0)" stroke-width="2"  />
			<g>
				<title>Ectoine_synth (PF06339)
"Ectoine synthase"</title>
				<polygon class="PF06339" points="179,40 184,28 188,28 188,52 184,52" stroke-linejoin="round" width="12" height="24" fill="rgb(225,176,81)" stroke="rgb(180,140,64)" stroke-width="1" opacity="0.75" />
			</g>
		</g>
		<g>
			<title>ykuI (HLOLAOLD_01201)
putative EAL-domain containing protein YkuI</title>
			<polygon class="ykuI (HLOLAOLD_01201)
putative EAL-domain containing protein YkuI" points="235,25 225,25 225,10 195,40 225,70 225,55 235,55" fill="rgb(255,255,255)" fill-opacity="1.0" stroke="rgb(0,0,0)" stroke-width="2"  />
			<g>
				<title>YkuI_C (PF10388)
"EAL-domain associated signalling protein domain"</title>
				<polygon class="PF10388" points="199,40 211,28 211,28 211,52 211,52" stroke-linejoin="round" width="16" height="24" fill="rgb(56,196,67)" stroke="rgb(44,156,53)" stroke-width="1" opacity="0.75" />
			</g>
			<g>
				<title>EAL (PF00563)
"EAL domain"</title>
				<rect class="PF00563" x="212" y="28" stroke-linejoin="round" width="22" height="24" fill="rgb(204,100,120)" stroke="rgb(163,80,96)" stroke-width="1" opacity="0.75" />
			</g>
		</g>
		<g>
			<title>ftsN (HLOLAOLD_01202)
Cell division protein FtsN</title>
			<polygon class="ftsN (HLOLAOLD_01202)
Cell division protein FtsN" points="240,25 265,25 265,10 295,40 265,70 265,55 240,55" fill="rgb(255,255,255)" fill-opacity="1.0" stroke="rgb(0,0,0)" stroke-width="2"  />
			<g>
				<title>Amidase_3 (PF01520)
"N-acetylmuramoyl-L-alanine amidase"</title>
				<rect class="PF01520" x="240" y="28" stroke-linejoin="round" width="17" height="24" fill="rgb(174,223,57)" stroke="rgb(139,178,45)" stroke-width="1" opacity="0.75" />
			</g>
			<g>
				<title>SPOR (PF05036)
"Sporulation related domain"</title>
				<rect class="PF05036" x="259" y="28" stroke-linejoin="round" width="7" height="24" fill="rgb(173,203,80)" stroke="rgb(138,162,64)" stroke-width="1" opacity="0.75" />
			</g>
			<g>
				<title>SPOR (PF05036)
"Sporulation related domain"</title>
				<rect class="PF05036" x="267" y="28" stroke-linejoin="round" width="7" height="24" fill="rgb(173,203,80)" stroke="rgb(138,162,64)" stroke-width="1" opacity="0.75" />
			</g>
			<g>
				<title>Glucosaminidase (PF01832)
"Mannosyl-glycoprotein endo-beta-N-acetylglucosaminidase"</title>
				<polygon class="PF01832" points="280,29 291,40 280,51" stroke-linejoin="round" width="12" height="24" fill="rgb(170,195,97)" stroke="rgb(136,156,77)" stroke-width="1" opacity="0.75" />
			</g>
		</g>
		<g>
			<title> (HLOLAOLD_01203)
hypothetical protein</title>
			<polygon class=" (HLOLAOLD_01203)
hypothetical protein" points="297,40 311,10 311,70" fill="rgb(255,255,255)" fill-opacity="1.0" stroke="rgb(0,0,0)" stroke-width="2"  />
			<g>
				<title>RDD (PF06271)
"RDD family"</title>
				<polygon class="PF06271" points="300,40 306,28 309,28 309,52 306,52" stroke-linejoin="round" width="11" height="24" fill="rgb(75,173,207)" stroke="rgb(60,138,165)" stroke-width="1" opacity="0.75" />
			</g>
		</g>
		<g>
			<title> (HLOLAOLD_01204)
hypothetical protein</title>
			<polygon class=" (HLOLAOLD_01204)
hypothetical protein" points="316,10 335,40 316,70" fill="rgb(255,255,255)" fill-opacity="1.0" stroke="rgb(0,0,0)" stroke-width="2"  />
			<g>
				<title>DUF420 (PF04238)
"Protein of unknown function (DUF420)"</title>
				<polygon class="PF04238" points="322,28 324,28 332,40 324,52 322,52" stroke-linejoin="round" width="12" height="24" fill="rgb(186,65,177)" stroke="rgb(148,52,141)" stroke-width="1" opacity="0.75" />
			</g>
		</g>
		<g>
			<title> (HLOLAOLD_01205)
hypothetical protein</title>
			<polygon class=" (HLOLAOLD_01205)
hypothetical protein" points="342,10 349,40 342,70" fill="rgb(255,255,255)" fill-opacity="1.0" stroke="rgb(0,0,0)" stroke-width="2"  />
		</g>
	</g>
</svg>
