<svg version="1.1" baseProfile="full" xmlns="http://www.w3.org/2000/svg" width="970.1" height="80">
	<g>
		<line x1="10" y1="40.0" x2="960.1" y2="40.0" style="stroke:rgb(70,70,70); stroke-width:3 "/>
		<g>
			<title> (PPJPJCPL_00003)
hypothetical protein</title>
			<polygon class=" (PPJPJCPL_00003)
hypothetical protein" points="16,25 36,25 36,10 66,40 36,70 36,55 16,55" fill="rgb(255,255,255)" fill-opacity="1.0" stroke="rgb(0,0,0)" stroke-width="2"  />
			<g>
				<title>BPD_transp_1 (PF00528)
"Binding-protein-dependent transport system inner membrane component"</title>
				<rect class="PF00528" x="19" y="28" stroke-linejoin="round" width="17" height="24" fill="rgb(77,208,225)" stroke="rgb(61,166,180)" stroke-width="1" opacity="0.75" />
			</g>
			<g>
				<title>OpuAC (PF04069)
"Substrate binding domain of ABC-type glycine betaine transport system"</title>
				<polygon class="PF04069" points="39,28 50,28 62,40 50,52 39,52" stroke-linejoin="round" width="26" height="24" fill="rgb(81,218,80)" stroke="rgb(64,174,64)" stroke-width="1" opacity="0.75" />
			</g>
		</g>
		<g>
			<title>yccU (PPJPJCPL_00004)
putative protein YccU</title>
			<polygon class="yccU (PPJPJCPL_00004)
putative protein YccU" points="68,10 81,40 68,70" fill="rgb(255,255,255)" fill-opacity="1.0" stroke="rgb(0,0,0)" stroke-width="2"  />
			<g>
				<title>CoA_binding_2 (PF13380)
"CoA binding domain"</title>
				<polygon class="PF13380" points="69,28 72,28 78,40 72,52 69,52" stroke-linejoin="round" width="11" height="24" fill="rgb(212,69,78)" stroke="rgb(169,55,62)" stroke-width="1" opacity="0.75" />
			</g>
		</g>
		<g>
			<title>parE (PPJPJCPL_00005)
DNA topoisomerase 4 subunit B</title>
			<polygon class="parE (PPJPJCPL_00005)
DNA topoisomerase 4 subunit B" points="91,25 126,25 126,10 156,40 126,70 126,55 91,55" fill="rgb(255,255,255)" fill-opacity="1.0" stroke="rgb(0,0,0)" stroke-width="2"  />
			<g>
				<title>HATPase_c (PF02518)
"Histidine kinase-, DNA gyrase B-, and HSP90-like ATPase"</title>
				<rect class="PF02518" x="94" y="28" stroke-linejoin="round" width="14" height="24" fill="rgb(80,94,225)" stroke="rgb(64,75,180)" stroke-width="1" opacity="0.75" />
			</g>
			<g>
				<title>DNA_gyraseB (PF00204)
"DNA gyrase B"</title>
				<rect class="PF00204" x="113" y="28" stroke-linejoin="round" width="17" height="24" fill="rgb(66,134,179)" stroke="rgb(52,107,143)" stroke-width="1" opacity="0.75" />
			</g>
			<g>
				<title>Toprim (PF01751)
"Toprim domain"</title>
				<polygon class="PF01751" points="133,28 139,28 144,33 144,47 139,52 133,52" stroke-linejoin="round" width="11" height="24" fill="rgb(95,212,145)" stroke="rgb(76,169,116)" stroke-width="1" opacity="0.75" />
			</g>
			<g>
				<title>DNA_gyraseB_C (PF00986)
"DNA gyrase B subunit, carboxyl terminus"</title>
				<polygon class="PF00986" points="147,36 151,40 147,44" stroke-linejoin="round" width="6" height="24" fill="rgb(184,59,116)" stroke="rgb(147,47,92)" stroke-width="1" opacity="0.75" />
			</g>
		</g>
		<g>
			<title>parC (PPJPJCPL_00006)
DNA topoisomerase 4 subunit A</title>
			<polygon class="parC (PPJPJCPL_00006)
DNA topoisomerase 4 subunit A" points="156,25 207,25 207,10 237,40 207,70 207,55 156,55" fill="rgb(255,255,255)" fill-opacity="1.0" stroke="rgb(0,0,0)" stroke-width="2"  />
			<g>
				<title>DNA_topoisoIV (PF00521)
"DNA gyrase/topoisomerase IV, subunit A"</title>
				<rect class="PF00521" x="159" y="28" stroke-linejoin="round" width="44" height="24" fill="rgb(196,204,77)" stroke="rgb(156,163,61)" stroke-width="1" opacity="0.75" />
			</g>
			<g>
				<title>DNA_gyraseA_C (PF03989)
"DNA gyrase C-terminal domain, beta-propeller"</title>
				<rect class="PF03989" x="206" y="28" stroke-linejoin="round" width="3" height="24" fill="rgb(52,134,190)" stroke="rgb(41,107,152)" stroke-width="1" opacity="0.75" />
			</g>
			<g>
				<title>DNA_gyraseA_C (PF03989)
"DNA gyrase C-terminal domain, beta-propeller"</title>
				<rect class="PF03989" x="210" y="28" stroke-linejoin="round" width="5" height="24" fill="rgb(52,134,190)" stroke="rgb(41,107,152)" stroke-width="1" opacity="0.75" />
			</g>
			<g>
				<title>DNA_gyraseA_C (PF03989)
"DNA gyrase C-terminal domain, beta-propeller"</title>
				<rect class="PF03989" x="216" y="28" stroke-linejoin="round" width="4" height="24" fill="rgb(52,134,190)" stroke="rgb(41,107,152)" stroke-width="1" opacity="0.75" />
			</g>
			<g>
				<title>DNA_gyraseA_C (PF03989)
"DNA gyrase C-terminal domain, beta-propeller"</title>
				<polygon class="PF03989" points="221,28 221,28 225,32 225,48 221,52 221,52" stroke-linejoin="round" width="4" height="24" fill="rgb(52,134,190)" stroke="rgb(41,107,152)" stroke-width="1" opacity="0.75" />
			</g>
			<g>
				<title>DNA_gyraseA_C (PF03989)
"DNA gyrase C-terminal domain, beta-propeller"</title>
				<polygon class="PF03989" points="226,33 230,37 230,43 226,47" stroke-linejoin="round" width="4" height="24" fill="rgb(52,134,190)" stroke="rgb(41,107,152)" stroke-width="1" opacity="0.75" />
			</g>
		</g>
		<g>
			<title> (PPJPJCPL_00007)
IS1182 family transposase ISOih1</title>
			<polygon class=" (PPJPJCPL_00007)
IS1182 family transposase ISOih1" points="243,10 264,40 243,70" fill="rgb(255,255,255)" fill-opacity="1.0" stroke="rgb(0,0,0)" stroke-width="2"  />
			<g>
				<title>DUF772 (PF05598)
"Transposase domain (DUF772)"</title>
				<polygon class="PF05598" points="248,28 252,28 255,32 255,48 252,52 248,52" stroke-linejoin="round" width="7" height="24" fill="rgb(221,202,107)" stroke="rgb(176,161,85)" stroke-width="1" opacity="0.75" />
			</g>
		</g>
		<g>
			<title> (PPJPJCPL_00008)
hypothetical protein</title>
			<polygon class=" (PPJPJCPL_00008)
hypothetical protein" points="264,10 269,40 264,70" fill="rgb(255,255,255)" fill-opacity="1.0" stroke="rgb(0,0,0)" stroke-width="2"  />
			<g>
				<title>DDE_Tnp_1_6 (PF13751)
"Transposase DDE domain"</title>
				<polygon class="PF13751" points="264,27 266,40 264,53" stroke-linejoin="round" width="4" height="24" fill="rgb(51,201,77)" stroke="rgb(40,160,61)" stroke-width="1" opacity="0.75" />
			</g>
		</g>
		<g>
			<title>kstR2_1 (PPJPJCPL_00009)
HTH-type transcriptional repressor KstR2</title>
			<polygon class="kstR2_1 (PPJPJCPL_00009)
HTH-type transcriptional repressor KstR2" points="281,10 302,40 281,70" fill="rgb(255,255,255)" fill-opacity="1.0" stroke="rgb(0,0,0)" stroke-width="2"  />
			<g>
				<title>TetR_N (PF00440)
"Bacterial regulatory proteins, tetR family"</title>
				<rect class="PF00440" x="281" y="28" stroke-linejoin="round" width="4" height="24" fill="rgb(73,212,190)" stroke="rgb(58,169,152)" stroke-width="1" opacity="0.75" />
			</g>
			<g>
				<title>TetR_C_24 (PF17932)
"Tetracyclin repressor-like, C-terminal domain"</title>
				<polygon class="PF17932" points="288,28 290,28 298,40 290,52 288,52" stroke-linejoin="round" width="11" height="24" fill="rgb(165,217,107)" stroke="rgb(132,173,85)" stroke-width="1" opacity="0.75" />
			</g>
		</g>
		<g>
			<title>bcd_1 (PPJPJCPL_00010)
Acyl-CoA dehydrogenase, short-chain specific</title>
			<polygon class="bcd_1 (PPJPJCPL_00010)
Acyl-CoA dehydrogenase, short-chain specific" points="304,25 312,25 312,10 342,40 312,70 312,55 304,55" fill="rgb(255,255,255)" fill-opacity="1.0" stroke="rgb(0,0,0)" stroke-width="2"  />
			<g>
				<title>Acyl-CoA_dh_N (PF02771)
"Acyl-CoA dehydrogenase, N-terminal domain"</title>
				<rect class="PF02771" x="304" y="28" stroke-linejoin="round" width="11" height="24" fill="rgb(105,135,218)" stroke="rgb(84,108,174)" stroke-width="1" opacity="0.75" />
			</g>
			<g>
				<title>Acyl-CoA_dh_M (PF02770)
"Acyl-CoA dehydrogenase, middle domain"</title>
				<rect class="PF02770" x="316" y="28" stroke-linejoin="round" width="9" height="24" fill="rgb(225,186,97)" stroke="rgb(180,148,77)" stroke-width="1" opacity="0.75" />
			</g>
			<g>
				<title>Acyl-CoA_dh_1 (PF00441)
"Acyl-CoA dehydrogenase, C-terminal domain"</title>
				<polygon class="PF00441" points="327,30 337,40 327,50" stroke-linejoin="round" width="14" height="24" fill="rgb(85,191,117)" stroke="rgb(68,152,93)" stroke-width="1" opacity="0.75" />
			</g>
		</g>
		<g>
			<title>fadD3_1 (PPJPJCPL_00011)
3-[(3aS,4S,7aS)-7a-methyl-1, 5-dioxo-octahydro-1H-inden-4-yl]propanoyl:CoA ligase</title>
			<polygon class="fadD3_1 (PPJPJCPL_00011)
3-[(3aS,4S,7aS)-7a-methyl-1, 5-dioxo-octahydro-1H-inden-4-yl]propanoyl:CoA ligase" points="343,25 367,25 367,10 397,40 367,70 367,55 343,55" fill="rgb(255,255,255)" fill-opacity="1.0" stroke="rgb(0,0,0)" stroke-width="2"  />
			<g>
				<title>AMP-binding (PF00501)
"AMP-binding enzyme"</title>
				<polygon class="PF00501" points="344,28 381,28 387,34 387,46 381,52 344,52" stroke-linejoin="round" width="43" height="24" fill="rgb(60,217,223)" stroke="rgb(48,173,178)" stroke-width="1" opacity="0.75" />
			</g>
			<g>
				<title>AMP-binding_C (PF13193)
"AMP-binding enzyme C-terminal domain"</title>
				<polygon class="PF13193" points="388,35 393,40 388,45" stroke-linejoin="round" width="7" height="24" fill="rgb(182,50,118)" stroke="rgb(145,39,94)" stroke-width="1" opacity="0.75" />
			</g>
		</g>
		<g>
			<title>accA1 (PPJPJCPL_00012)
Acetyl-/propionyl-coenzyme A carboxylase alpha chain</title>
			<polygon class="accA1 (PPJPJCPL_00012)
Acetyl-/propionyl-coenzyme A carboxylase alpha chain" points="398,25 413,25 413,10 443,40 413,70 413,55 398,55" fill="rgb(255,255,255)" fill-opacity="1.0" stroke="rgb(0,0,0)" stroke-width="2"  />
			<g>
				<title>Biotin_carb_N (PF00289)
"Biotin carboxylase, N-terminal domain"</title>
				<rect class="PF00289" x="398" y="28" stroke-linejoin="round" width="10" height="24" fill="rgb(59,114,187)" stroke="rgb(47,91,149)" stroke-width="1" opacity="0.75" />
			</g>
			<g>
				<title>CPSase_L_D2 (PF02786)
"Carbamoyl-phosphate synthase L chain, ATP binding domain"</title>
				<polygon class="PF02786" points="409,28 426,28 429,31 429,49 426,52 409,52" stroke-linejoin="round" width="20" height="24" fill="rgb(190,97,205)" stroke="rgb(151,77,164)" stroke-width="1" opacity="0.75" />
			</g>
			<g>
				<title>Biotin_carb_C (PF02785)
"Biotin carboxylase C-terminal domain"</title>
				<polygon class="PF02785" points="431,33 438,40 431,47" stroke-linejoin="round" width="10" height="24" fill="rgb(82,186,211)" stroke="rgb(65,148,168)" stroke-width="1" opacity="0.75" />
			</g>
		</g>
		<g>
			<title>yngHB (PPJPJCPL_00013)
Biotin/lipoyl attachment protein</title>
			<polygon class="yngHB (PPJPJCPL_00013)
Biotin/lipoyl attachment protein" points="444,10 451,40 444,70" fill="rgb(255,255,255)" fill-opacity="1.0" stroke="rgb(0,0,0)" stroke-width="2"  />
			<g>
				<title>Biotin_lipoyl (PF00364)
"Biotin-requiring enzyme"</title>
				<polygon class="PF00364" points="444,28 444,28 448,40 444,52 444,52" stroke-linejoin="round" width="6" height="24" fill="rgb(67,214,213)" stroke="rgb(53,171,170)" stroke-width="1" opacity="0.75" />
			</g>
		</g>
		<g>
			<title>yngG_1 (PPJPJCPL_00014)
Hydroxymethylglutaryl-CoA lyase YngG</title>
			<polygon class="yngG_1 (PPJPJCPL_00014)
Hydroxymethylglutaryl-CoA lyase YngG" points="451,10 480,40 451,70" fill="rgb(255,255,255)" fill-opacity="1.0" stroke="rgb(0,0,0)" stroke-width="2"  />
			<g>
				<title>HMGL-like (PF00682)
"HMGL-like"</title>
				<polygon class="PF00682" points="451,28 464,28 476,40 464,52 451,52" stroke-linejoin="round" width="27" height="24" fill="rgb(84,228,141)" stroke="rgb(67,182,112)" stroke-width="1" opacity="0.75" />
			</g>
		</g>
		<g>
			<title>crt_1 (PPJPJCPL_00015)
Short-chain-enoyl-CoA hydratase</title>
			<polygon class="crt_1 (PPJPJCPL_00015)
Short-chain-enoyl-CoA hydratase" points="482,10 508,40 482,70" fill="rgb(255,255,255)" fill-opacity="1.0" stroke="rgb(0,0,0)" stroke-width="2"  />
			<g>
				<title>ECH_1 (PF00378)
"Enoyl-CoA hydratase/isomerase"</title>
				<polygon class="PF00378" points="483,28 494,28 504,40 494,52 483,52" stroke-linejoin="round" width="24" height="24" fill="rgb(218,72,181)" stroke="rgb(174,57,144)" stroke-width="1" opacity="0.75" />
			</g>
		</g>
		<g>
			<title> (PPJPJCPL_00016)
Methylmalonyl-CoA carboxyltransferase 12S subunit</title>
			<polygon class=" (PPJPJCPL_00016)
Methylmalonyl-CoA carboxyltransferase 12S subunit" points="509,25 529,25 529,10 559,40 529,70 529,55 509,55" fill="rgb(255,255,255)" fill-opacity="1.0" stroke="rgb(0,0,0)" stroke-width="2"  />
			<g>
				<title>Carboxyl_trans (PF01039)
"Carboxyl transferase domain"</title>
				<polygon class="PF01039" points="511,28 543,28 555,40 543,52 511,52" stroke-linejoin="round" width="48" height="24" fill="rgb(180,136,60)" stroke="rgb(144,108,48)" stroke-width="1" opacity="0.75" />
			</g>
		</g>
		<g>
			<title>acsA_1 (PPJPJCPL_00017)
Acetyl-coenzyme A synthetase</title>
			<polygon class="acsA_1 (PPJPJCPL_00017)
Acetyl-coenzyme A synthetase" points="626,25 591,25 591,10 561,40 591,70 591,55 626,55" fill="rgb(255,255,255)" fill-opacity="1.0" stroke="rgb(0,0,0)" stroke-width="2"  />
			<g>
				<title>AMP-binding_C (PF13193)
"AMP-binding enzyme C-terminal domain"</title>
				<polygon class="PF13193" points="565,40 572,33 572,47 565,40" stroke-linejoin="round" width="7" height="24" fill="rgb(182,50,118)" stroke="rgb(145,39,94)" stroke-width="1" opacity="0.75" />
			</g>
			<g>
				<title>AMP-binding (PF00501)
"AMP-binding enzyme"</title>
				<polygon class="PF00501" points="573,32 577,28 616,28 616,52 577,52 573,48" stroke-linejoin="round" width="43" height="24" fill="rgb(60,217,223)" stroke="rgb(48,173,178)" stroke-width="1" opacity="0.75" />
			</g>
			<g>
				<title>ACAS_N (PF16177)
"Acetyl-coenzyme A synthetase N-terminus"</title>
				<rect class="PF16177" x="617" y="28" stroke-linejoin="round" width="5" height="24" fill="rgb(54,78,195)" stroke="rgb(43,62,156)" stroke-width="1" opacity="0.75" />
			</g>
		</g>
		<g>
			<title> (PPJPJCPL_00018)
hypothetical protein</title>
			<polygon class=" (PPJPJCPL_00018)
hypothetical protein" points="637,25 645,25 645,10 675,40 645,70 645,55 637,55" fill="rgb(255,255,255)" fill-opacity="1.0" stroke="rgb(0,0,0)" stroke-width="2"  />
			<g>
				<title>Epimerase (PF01370)
"NAD dependent epimerase/dehydratase family"</title>
				<polygon class="PF01370" points="637,28 659,28 665,34 665,46 659,52 637,52" stroke-linejoin="round" width="28" height="24" fill="rgb(98,102,214)" stroke="rgb(78,81,171)" stroke-width="1" opacity="0.75" />
			</g>
		</g>
		<g>
			<title>mgtA (PPJPJCPL_00019)
GDP-mannose-dependent alpha-mannosyltransferase</title>
			<polygon class="mgtA (PPJPJCPL_00019)
GDP-mannose-dependent alpha-mannosyltransferase" points="676,25 684,25 684,10 714,40 684,70 684,55 676,55" fill="rgb(255,255,255)" fill-opacity="1.0" stroke="rgb(0,0,0)" stroke-width="2"  />
			<g>
				<title>Glyco_transf_4 (PF13439)
"Glycosyltransferase Family 4"</title>
				<rect class="PF13439" x="677" y="28" stroke-linejoin="round" width="16" height="24" fill="rgb(162,57,186)" stroke="rgb(129,45,148)" stroke-width="1" opacity="0.75" />
			</g>
			<g>
				<title>Glycos_transf_1 (PF00534)
"Glycosyl transferases group 1"</title>
				<polygon class="PF00534" points="694,28 698,28 710,40 710,40 698,52 694,52" stroke-linejoin="round" width="16" height="24" fill="rgb(228,92,150)" stroke="rgb(182,73,119)" stroke-width="1" opacity="0.75" />
			</g>
		</g>
		<g>
			<title> (PPJPJCPL_00020)
Cytochrome P450 107B1</title>
			<polygon class=" (PPJPJCPL_00020)
Cytochrome P450 107B1" points="726,25 736,25 736,10 766,40 736,70 736,55 726,55" fill="rgb(255,255,255)" fill-opacity="1.0" stroke="rgb(0,0,0)" stroke-width="2"  />
			<g>
				<title>p450 (PF00067)
"Cytochrome P450"</title>
				<polygon class="PF00067" points="727,28 750,28 762,40 750,52 727,52" stroke-linejoin="round" width="38" height="24" fill="rgb(85,216,107)" stroke="rgb(68,172,85)" stroke-width="1" opacity="0.75" />
			</g>
		</g>
		<g>
			<title> (PPJPJCPL_00021)
hypothetical protein</title>
			<polygon class=" (PPJPJCPL_00021)
hypothetical protein" points="769,40 782,10 782,70" fill="rgb(255,255,255)" fill-opacity="1.0" stroke="rgb(0,0,0)" stroke-width="2"  />
			<g>
				<title>DUF2512 (PF10710)
"Protein of unknown function (DUF2512)"</title>
				<polygon class="PF10710" points="772,40 777,28 781,28 781,52 777,52" stroke-linejoin="round" width="12" height="24" fill="rgb(204,93,140)" stroke="rgb(163,74,112)" stroke-width="1" opacity="0.75" />
			</g>
		</g>
		<g>
			<title> (PPJPJCPL_00022)
hypothetical protein</title>
			<polygon class=" (PPJPJCPL_00022)
hypothetical protein" points="789,10 796,40 789,70" fill="rgb(255,255,255)" fill-opacity="1.0" stroke="rgb(0,0,0)" stroke-width="2"  />
		</g>
		<g>
			<title> (PPJPJCPL_00023)
hypothetical protein</title>
			<polygon class=" (PPJPJCPL_00023)
hypothetical protein" points="806,25 806,25 806,10 836,40 806,70 806,55 806,55" fill="rgb(255,255,255)" fill-opacity="1.0" stroke="rgb(0,0,0)" stroke-width="2"  />
			<g>
				<title>Endonuclease_1 (PF04231)
"Endonuclease I"</title>
				<polygon class="PF04231" points="812,28 819,28 831,40 819,52 812,52" stroke-linejoin="round" width="23" height="24" fill="rgb(200,69,122)" stroke="rgb(160,55,97)" stroke-width="1" opacity="0.75" />
			</g>
		</g>
		<g>
			<title> (PPJPJCPL_00024)
hypothetical protein</title>
			<polygon class=" (PPJPJCPL_00024)
hypothetical protein" points="840,10 861,40 840,70" fill="rgb(255,255,255)" fill-opacity="1.0" stroke="rgb(0,0,0)" stroke-width="2"  />
			<g>
				<title>DUF3889 (PF13028)
"Protein of unknown function (DUF3889)"</title>
				<polygon class="PF13028" points="852,32 857,40 852,48" stroke-linejoin="round" width="8" height="24" fill="rgb(102,93,195)" stroke="rgb(81,74,156)" stroke-width="1" opacity="0.75" />
			</g>
		</g>
		<g>
			<title>tlp (PPJPJCPL_00025)
Small, acid-soluble spore protein Tlp</title>
			<polygon class="tlp (PPJPJCPL_00025)
Small, acid-soluble spore protein Tlp" points="864,40 871,10 871,70" fill="rgb(255,255,255)" fill-opacity="1.0" stroke="rgb(0,0,0)" stroke-width="2"  />
		</g>
		<g>
			<title> (PPJPJCPL_00026)
hypothetical protein</title>
			<polygon class=" (PPJPJCPL_00026)
hypothetical protein" points="876,10 888,40 876,70" fill="rgb(255,255,255)" fill-opacity="1.0" stroke="rgb(0,0,0)" stroke-width="2"  />
			<g>
				<title>zf-CHY (PF05495)
"CHY zinc finger"</title>
				<polygon class="PF05495" points="877,28 879,28 884,40 879,52 877,52" stroke-linejoin="round" width="8" height="24" fill="rgb(126,74,211)" stroke="rgb(100,59,168)" stroke-width="1" opacity="0.75" />
			</g>
		</g>
		<g>
			<title> (PPJPJCPL_00027)
hypothetical protein</title>
			<polygon class=" (PPJPJCPL_00027)
hypothetical protein" points="891,10 918,40 891,70" fill="rgb(255,255,255)" fill-opacity="1.0" stroke="rgb(0,0,0)" stroke-width="2"  />
			<g>
				<title>Sigma70_r2 (PF04542)
"Sigma-70 region 2"</title>
				<rect class="PF04542" x="892" y="28" stroke-linejoin="round" width="6" height="24" fill="rgb(184,59,197)" stroke="rgb(147,47,157)" stroke-width="1" opacity="0.75" />
			</g>
			<g>
				<title>Sigma70_r4_2 (PF08281)
"Sigma-70, region 4"</title>
				<polygon class="PF08281" points="901,28 902,28 906,31 906,49 902,52 901,52" stroke-linejoin="round" width="5" height="24" fill="rgb(222,103,144)" stroke="rgb(177,82,115)" stroke-width="1" opacity="0.75" />
			</g>
		</g>
		<g>
			<title>clpP_1 (PPJPJCPL_00028)
ATP-dependent Clp protease proteolytic subunit</title>
			<polygon class="clpP_1 (PPJPJCPL_00028)
ATP-dependent Clp protease proteolytic subunit" points="919,10 938,40 919,70" fill="rgb(255,255,255)" fill-opacity="1.0" stroke="rgb(0,0,0)" stroke-width="2"  />
			<g>
				<title>CLP_protease (PF00574)
"Clp protease"</title>
				<polygon class="PF00574" points="920,28 927,28 935,40 927,52 920,52" stroke-linejoin="round" width="18" height="24" fill="rgb(196,111,59)" stroke="rgb(156,88,47)" stroke-width="1" opacity="0.75" />
			</g>
		</g>
	</g>
</svg>
