<svg version="1.1" baseProfile="full" xmlns="http://www.w3.org/2000/svg" width="113.26666666666667" height="80">
	<g>
		<line x1="10" y1="40.0" x2="103.26666666666667" y2="40.0" style="stroke:rgb(70,70,70); stroke-width:3 "/>
		<g>
			<title> (PLNGCNKA_02002)
Alpha-pyrone synthesis polyketide synthase-like Pks11</title>
			<polygon class=" (PLNGCNKA_02002)
Alpha-pyrone synthesis polyketide synthase-like Pks11" points="22,25 28,25 28,10 58,40 28,70 28,55 22,55" fill="rgb(255,255,255)" fill-opacity="1.0" stroke="rgb(0,0,0)" stroke-width="2"  />
			<g>
				<title>Chal_sti_synt_N (PF00195)
"Chalcone and stilbene synthases, N-terminal domain"</title>
				<polygon class="PF00195" points="27,28 41,28 42,29 42,51 41,52 27,52" stroke-linejoin="round" width="15" height="24" fill="rgb(60,181,161)" stroke="rgb(47,144,128)" stroke-width="1" opacity="0.75" />
			</g>
			<g>
				<title>Chal_sti_synt_C (PF02797)
"Chalcone and stilbene synthases, C-terminal domain"</title>
				<polygon class="PF02797" points="44,31 53,40 44,49" stroke-linejoin="round" width="13" height="24" fill="rgb(139,212,63)" stroke="rgb(111,169,50)" stroke-width="1" opacity="0.75" />
			</g>
		</g>
		<g>
			<title> (PLNGCNKA_02003)
hypothetical protein</title>
			<polygon class=" (PLNGCNKA_02003)
hypothetical protein" points="59,10 76,40 59,70" fill="rgb(255,255,255)" fill-opacity="1.0" stroke="rgb(0,0,0)" stroke-width="2"  />
			<g>
				<title>ICMT (PF04140)
"Isoprenylcysteine carboxyl methyltransferase (ICMT) family"</title>
				<polygon class="PF04140" points="66,29 72,40 66,51" stroke-linejoin="round" width="9" height="24" fill="rgb(100,223,104)" stroke="rgb(80,178,83)" stroke-width="1" opacity="0.75" />
			</g>
		</g>
		<g>
			<title> (PLNGCNKA_02004)
hypothetical protein</title>
			<polygon class=" (PLNGCNKA_02004)
hypothetical protein" points="79,10 84,40 79,70" fill="rgb(255,255,255)" fill-opacity="1.0" stroke="rgb(0,0,0)" stroke-width="2"  />
		</g>
		<g>
			<title> (PLNGCNKA_02005)
hypothetical protein</title>
			<polygon class=" (PLNGCNKA_02005)
hypothetical protein" points="90,10 99,40 90,70" fill="rgb(255,255,255)" fill-opacity="1.0" stroke="rgb(0,0,0)" stroke-width="2"  />
		</g>
	</g>
</svg>
