<svg version="1.1" baseProfile="full" xmlns="http://www.w3.org/2000/svg" width="972.3333333333334" height="80">
	<g>
		<line x1="10" y1="40.0" x2="962.3333333333334" y2="40.0" style="stroke:rgb(70,70,70); stroke-width:3 "/>
		<g>
			<title>fpuA_2 (HAMLPNCN_03466)
Petrobactin-binding protein FpuA</title>
			<polygon class="fpuA_2 (HAMLPNCN_03466)
Petrobactin-binding protein FpuA" points="16,25 18,25 18,10 48,40 18,70 18,55 16,55" fill="rgb(255,255,255)" fill-opacity="1.0" stroke="rgb(0,0,0)" stroke-width="2"  />
			<g>
				<title>Peripla_BP_2 (PF01497)
"Periplasmic binding protein"</title>
				<polygon class="PF01497" points="21,28 32,28 44,40 32,52 21,52" stroke-linejoin="round" width="24" height="24" fill="rgb(183,226,104)" stroke="rgb(146,180,83)" stroke-width="1" opacity="0.75" />
			</g>
		</g>
		<g>
			<title> (HAMLPNCN_03467)
hypothetical protein</title>
			<polygon class=" (HAMLPNCN_03467)
hypothetical protein" points="50,40 58,10 58,70" fill="rgb(255,255,255)" fill-opacity="1.0" stroke="rgb(0,0,0)" stroke-width="2"  />
		</g>
		<g>
			<title> (HAMLPNCN_03468)
hypothetical protein</title>
			<polygon class=" (HAMLPNCN_03468)
hypothetical protein" points="74,40 77,10 77,70" fill="rgb(255,255,255)" fill-opacity="1.0" stroke="rgb(0,0,0)" stroke-width="2"  />
		</g>
		<g>
			<title>dinG_4 (HAMLPNCN_03469)
3'-5' exonuclease DinG</title>
			<polygon class="dinG_4 (HAMLPNCN_03469)
3'-5' exonuclease DinG" points="83,25 84,25 84,10 114,40 84,70 84,55 83,55" fill="rgb(255,255,255)" fill-opacity="1.0" stroke="rgb(0,0,0)" stroke-width="2"  />
			<g>
				<title>RNase_T (PF00929)
"Exonuclease"</title>
				<polygon class="PF00929" points="83,28 97,28 98,29 98,51 97,52 83,52" stroke-linejoin="round" width="15" height="24" fill="rgb(201,87,120)" stroke="rgb(160,69,96)" stroke-width="1" opacity="0.75" />
			</g>
			<g>
				<title>BRCT (PF00533)
"BRCA1 C Terminus (BRCT) domain"</title>
				<polygon class="PF00533" points="104,35 109,40 104,45" stroke-linejoin="round" width="8" height="24" fill="rgb(69,217,144)" stroke="rgb(55,173,115)" stroke-width="1" opacity="0.75" />
			</g>
		</g>
		<g>
			<title> (HAMLPNCN_03470)
hypothetical protein</title>
			<polygon class=" (HAMLPNCN_03470)
hypothetical protein" points="114,40 132,10 132,70" fill="rgb(255,255,255)" fill-opacity="1.0" stroke="rgb(0,0,0)" stroke-width="2"  />
			<g>
				<title>Peptidase_C92 (PF05708)
"Permuted papain-like amidase enzyme, YaeF/YiiX, C92 family"</title>
				<polygon class="PF05708" points="117,40 124,28 127,28 127,52 124,52" stroke-linejoin="round" width="13" height="24" fill="rgb(188,91,163)" stroke="rgb(150,72,130)" stroke-width="1" opacity="0.75" />
			</g>
		</g>
		<g>
			<title> (HAMLPNCN_03471)
hypothetical protein</title>
			<polygon class=" (HAMLPNCN_03471)
hypothetical protein" points="137,25 139,25 139,10 169,40 139,70 139,55 137,55" fill="rgb(255,255,255)" fill-opacity="1.0" stroke="rgb(0,0,0)" stroke-width="2"  />
			<g>
				<title>LAGLIDADG_3 (PF14528)
"LAGLIDADG-like domain"</title>
				<polygon class="PF14528" points="153,28 153,28 160,35 160,45 153,52 153,52" stroke-linejoin="round" width="7" height="24" fill="rgb(97,101,195)" stroke="rgb(77,80,156)" stroke-width="1" opacity="0.75" />
			</g>
		</g>
		<g>
			<title>mgtA_2 (HAMLPNCN_03472)
GDP-mannose-dependent alpha-mannosyltransferase</title>
			<polygon class="mgtA_2 (HAMLPNCN_03472)
GDP-mannose-dependent alpha-mannosyltransferase" points="237,25 229,25 229,10 199,40 229,70 229,55 237,55" fill="rgb(255,255,255)" fill-opacity="1.0" stroke="rgb(0,0,0)" stroke-width="2"  />
			<g>
				<title>Glycos_transf_1 (PF00534)
"Glycosyl transferases group 1"</title>
				<polygon class="PF00534" points="203,40 215,28 219,28 219,52 215,52 203,40" stroke-linejoin="round" width="16" height="24" fill="rgb(228,92,150)" stroke="rgb(182,73,119)" stroke-width="1" opacity="0.75" />
			</g>
			<g>
				<title>Glyco_transf_4 (PF13439)
"Glycosyltransferase Family 4"</title>
				<rect class="PF13439" x="220" y="28" stroke-linejoin="round" width="16" height="24" fill="rgb(162,57,186)" stroke="rgb(129,45,148)" stroke-width="1" opacity="0.75" />
			</g>
		</g>
		<g>
			<title> (HAMLPNCN_03473)
hypothetical protein</title>
			<polygon class=" (HAMLPNCN_03473)
hypothetical protein" points="276,25 268,25 268,10 238,40 268,70 268,55 276,55" fill="rgb(255,255,255)" fill-opacity="1.0" stroke="rgb(0,0,0)" stroke-width="2"  />
			<g>
				<title>Epimerase (PF01370)
"NAD dependent epimerase/dehydratase family"</title>
				<polygon class="PF01370" points="247,35 254,28 275,28 275,52 254,52 247,45" stroke-linejoin="round" width="28" height="24" fill="rgb(98,102,214)" stroke="rgb(78,81,171)" stroke-width="1" opacity="0.75" />
			</g>
		</g>
		<g>
			<title> (HAMLPNCN_03474)
hypothetical protein</title>
			<polygon class=" (HAMLPNCN_03474)
hypothetical protein" points="335,25 316,25 316,10 286,40 316,70 316,55 335,55" fill="rgb(255,255,255)" fill-opacity="1.0" stroke="rgb(0,0,0)" stroke-width="2"  />
			<g>
				<title>Flot (PF15975)
"Flotillin"</title>
				<polygon class="PF15975" points="290,40 302,28 302,28 302,52 302,52" stroke-linejoin="round" width="13" height="24" fill="rgb(211,172,58)" stroke="rgb(168,137,46)" stroke-width="1" opacity="0.75" />
			</g>
			<g>
				<title>Band_7 (PF01145)
"SPFH domain / Band 7 family"</title>
				<rect class="PF01145" x="307" y="28" stroke-linejoin="round" width="24" height="24" fill="rgb(218,155,102)" stroke="rgb(174,124,81)" stroke-width="1" opacity="0.75" />
			</g>
		</g>
		<g>
			<title>acs (HAMLPNCN_03475)
Acetyl-coenzyme A synthetase</title>
			<polygon class="acs (HAMLPNCN_03475)
Acetyl-coenzyme A synthetase" points="343,25 378,25 378,10 408,40 378,70 378,55 343,55" fill="rgb(255,255,255)" fill-opacity="1.0" stroke="rgb(0,0,0)" stroke-width="2"  />
			<g>
				<title>ACAS_N (PF16177)
"Acetyl-coenzyme A synthetase N-terminus"</title>
				<rect class="PF16177" x="346" y="28" stroke-linejoin="round" width="5" height="24" fill="rgb(54,78,195)" stroke="rgb(43,62,156)" stroke-width="1" opacity="0.75" />
			</g>
			<g>
				<title>AMP-binding (PF00501)
"AMP-binding enzyme"</title>
				<polygon class="PF00501" points="352,28 391,28 395,32 395,48 391,52 352,52" stroke-linejoin="round" width="43" height="24" fill="rgb(60,217,223)" stroke="rgb(48,173,178)" stroke-width="1" opacity="0.75" />
			</g>
			<g>
				<title>AMP-binding_C (PF13193)
"AMP-binding enzyme C-terminal domain"</title>
				<polygon class="PF13193" points="396,33 403,40 403,40 396,47" stroke-linejoin="round" width="7" height="24" fill="rgb(182,50,118)" stroke="rgb(145,39,94)" stroke-width="1" opacity="0.75" />
			</g>
		</g>
		<g>
			<title>accD5 (HAMLPNCN_03476)
putative propionyl-CoA carboxylase beta chain 5</title>
			<polygon class="accD5 (HAMLPNCN_03476)
putative propionyl-CoA carboxylase beta chain 5" points="463,25 442,25 442,10 412,40 442,70 442,55 463,55" fill="rgb(255,255,255)" fill-opacity="1.0" stroke="rgb(0,0,0)" stroke-width="2"  />
			<g>
				<title>Carboxyl_trans (PF01039)
"Carboxyl transferase domain"</title>
				<polygon class="PF01039" points="416,40 428,28 460,28 460,52 428,52" stroke-linejoin="round" width="48" height="24" fill="rgb(180,136,60)" stroke="rgb(144,108,48)" stroke-width="1" opacity="0.75" />
			</g>
		</g>
		<g>
			<title>crt (HAMLPNCN_03477)
Short-chain-enoyl-CoA hydratase</title>
			<polygon class="crt (HAMLPNCN_03477)
Short-chain-enoyl-CoA hydratase" points="464,40 490,10 490,70" fill="rgb(255,255,255)" fill-opacity="1.0" stroke="rgb(0,0,0)" stroke-width="2"  />
			<g>
				<title>ECH_1 (PF00378)
"Enoyl-CoA hydratase/isomerase"</title>
				<polygon class="PF00378" points="468,40 478,28 489,28 489,52 478,52" stroke-linejoin="round" width="25" height="24" fill="rgb(218,72,181)" stroke="rgb(174,57,144)" stroke-width="1" opacity="0.75" />
			</g>
		</g>
		<g>
			<title>yngG (HAMLPNCN_03478)
Hydroxymethylglutaryl-CoA lyase YngG</title>
			<polygon class="yngG (HAMLPNCN_03478)
Hydroxymethylglutaryl-CoA lyase YngG" points="520,25 520,25 520,10 490,40 520,70 520,55 520,55" fill="rgb(255,255,255)" fill-opacity="1.0" stroke="rgb(0,0,0)" stroke-width="2"  />
			<g>
				<title>HMGL-like (PF00682)
"HMGL-like"</title>
				<polygon class="PF00682" points="494,40 506,28 519,28 519,52 506,52" stroke-linejoin="round" width="27" height="24" fill="rgb(84,228,141)" stroke="rgb(67,182,112)" stroke-width="1" opacity="0.75" />
			</g>
		</g>
		<g>
			<title>yngHB (HAMLPNCN_03479)
Biotin/lipoyl attachment protein</title>
			<polygon class="yngHB (HAMLPNCN_03479)
Biotin/lipoyl attachment protein" points="521,40 528,10 528,70" fill="rgb(255,255,255)" fill-opacity="1.0" stroke="rgb(0,0,0)" stroke-width="2"  />
			<g>
				<title>Biotin_lipoyl (PF00364)
"Biotin-requiring enzyme"</title>
				<polygon class="PF00364" points="524,40 527,28 527,28 527,52 527,52" stroke-linejoin="round" width="6" height="24" fill="rgb(67,214,213)" stroke="rgb(53,171,170)" stroke-width="1" opacity="0.75" />
			</g>
		</g>
		<g>
			<title>accC_2 (HAMLPNCN_03480)
Biotin carboxylase</title>
			<polygon class="accC_2 (HAMLPNCN_03480)
Biotin carboxylase" points="573,25 558,25 558,10 528,40 558,70 558,55 573,55" fill="rgb(255,255,255)" fill-opacity="1.0" stroke="rgb(0,0,0)" stroke-width="2"  />
			<g>
				<title>Biotin_carb_C (PF02785)
"Biotin carboxylase C-terminal domain"</title>
				<polygon class="PF02785" points="532,40 539,33 539,47" stroke-linejoin="round" width="10" height="24" fill="rgb(82,186,211)" stroke="rgb(65,148,168)" stroke-width="1" opacity="0.75" />
			</g>
			<g>
				<title>CPSase_L_D2 (PF02786)
"Carbamoyl-phosphate synthase L chain, ATP binding domain"</title>
				<polygon class="PF02786" points="540,32 544,28 560,28 560,52 544,52 540,48" stroke-linejoin="round" width="20" height="24" fill="rgb(190,97,205)" stroke="rgb(151,77,164)" stroke-width="1" opacity="0.75" />
			</g>
			<g>
				<title>Biotin_carb_N (PF00289)
"Biotin carboxylase, N-terminal domain"</title>
				<rect class="PF00289" x="562" y="28" stroke-linejoin="round" width="10" height="24" fill="rgb(59,114,187)" stroke="rgb(47,91,149)" stroke-width="1" opacity="0.75" />
			</g>
		</g>
		<g>
			<title>fadD3 (HAMLPNCN_03481)
3-[(3aS,4S,7aS)-7a-methyl-1, 5-dioxo-octahydro-1H-inden-4-yl]propanoyl:CoA ligase</title>
			<polygon class="fadD3 (HAMLPNCN_03481)
3-[(3aS,4S,7aS)-7a-methyl-1, 5-dioxo-octahydro-1H-inden-4-yl]propanoyl:CoA ligase" points="628,25 604,25 604,10 574,40 604,70 604,55 628,55" fill="rgb(255,255,255)" fill-opacity="1.0" stroke="rgb(0,0,0)" stroke-width="2"  />
			<g>
				<title>AMP-binding_C (PF13193)
"AMP-binding enzyme C-terminal domain"</title>
				<polygon class="PF13193" points="578,40 582,36 582,44" stroke-linejoin="round" width="7" height="24" fill="rgb(182,50,118)" stroke="rgb(145,39,94)" stroke-width="1" opacity="0.75" />
			</g>
			<g>
				<title>AMP-binding (PF00501)
"AMP-binding enzyme"</title>
				<polygon class="PF00501" points="584,34 590,28 627,28 627,52 590,52 584,46" stroke-linejoin="round" width="43" height="24" fill="rgb(60,217,223)" stroke="rgb(48,173,178)" stroke-width="1" opacity="0.75" />
			</g>
		</g>
		<g>
			<title>acrC (HAMLPNCN_03482)
Acryloyl-CoA reductase (NADH)</title>
			<polygon class="acrC (HAMLPNCN_03482)
Acryloyl-CoA reductase (NADH)" points="629,40 637,10 637,70" fill="rgb(255,255,255)" fill-opacity="1.0" stroke="rgb(0,0,0)" stroke-width="2"  />
			<g>
				<title>Acyl-CoA_dh_1 (PF00441)
"Acyl-CoA dehydrogenase, C-terminal domain"</title>
				<polygon class="PF00441" points="632,40 635,28 637,28 637,52 635,52" stroke-linejoin="round" width="8" height="24" fill="rgb(85,191,117)" stroke="rgb(68,152,93)" stroke-width="1" opacity="0.75" />
			</g>
		</g>
		<g>
			<title>bcd_2 (HAMLPNCN_03483)
Acyl-CoA dehydrogenase, short-chain specific</title>
			<polygon class="bcd_2 (HAMLPNCN_03483)
Acyl-CoA dehydrogenase, short-chain specific" points="668,25 668,25 668,10 638,40 668,70 668,55 668,55" fill="rgb(255,255,255)" fill-opacity="1.0" stroke="rgb(0,0,0)" stroke-width="2"  />
			<g>
				<title>Acyl-CoA_dh_1 (PF00441)
"Acyl-CoA dehydrogenase, C-terminal domain"</title>
				<polygon class="PF00441" points="642,40 645,37 645,43" stroke-linejoin="round" width="6" height="24" fill="rgb(85,191,117)" stroke="rgb(68,152,93)" stroke-width="1" opacity="0.75" />
			</g>
			<g>
				<title>Acyl-CoA_dh_M (PF02770)
"Acyl-CoA dehydrogenase, middle domain"</title>
				<polygon class="PF02770" points="647,35 654,28 656,28 656,52 654,52 647,45" stroke-linejoin="round" width="9" height="24" fill="rgb(225,186,97)" stroke="rgb(180,148,77)" stroke-width="1" opacity="0.75" />
			</g>
			<g>
				<title>Acyl-CoA_dh_N (PF02771)
"Acyl-CoA dehydrogenase, N-terminal domain"</title>
				<rect class="PF02771" x="657" y="28" stroke-linejoin="round" width="11" height="24" fill="rgb(105,135,218)" stroke="rgb(84,108,174)" stroke-width="1" opacity="0.75" />
			</g>
		</g>
		<g>
			<title>kstR2_2 (HAMLPNCN_03484)
HTH-type transcriptional repressor KstR2</title>
			<polygon class="kstR2_2 (HAMLPNCN_03484)
HTH-type transcriptional repressor KstR2" points="671,40 692,10 692,70" fill="rgb(255,255,255)" fill-opacity="1.0" stroke="rgb(0,0,0)" stroke-width="2"  />
			<g>
				<title>TetR_C_24 (PF17932)
"Tetracyclin repressor-like, C-terminal domain"</title>
				<polygon class="PF17932" points="675,40 683,28 684,28 684,52 683,52" stroke-linejoin="round" width="11" height="24" fill="rgb(165,217,107)" stroke="rgb(132,173,85)" stroke-width="1" opacity="0.75" />
			</g>
			<g>
				<title>TetR_N (PF00440)
"Bacterial regulatory proteins, tetR family"</title>
				<rect class="PF00440" x="686" y="28" stroke-linejoin="round" width="4" height="24" fill="rgb(73,212,190)" stroke="rgb(58,169,152)" stroke-width="1" opacity="0.75" />
			</g>
		</g>
		<g>
			<title>parC (HAMLPNCN_03485)
DNA topoisomerase 4 subunit A</title>
			<polygon class="parC (HAMLPNCN_03485)
DNA topoisomerase 4 subunit A" points="782,25 731,25 731,10 701,40 731,70 731,55 782,55" fill="rgb(255,255,255)" fill-opacity="1.0" stroke="rgb(0,0,0)" stroke-width="2"  />
			<g>
				<title>DNA_gyraseA_C (PF03989)
"DNA gyrase C-terminal domain, beta-propeller"</title>
				<polygon class="PF03989" points="707,38 711,34 711,46 707,42" stroke-linejoin="round" width="4" height="24" fill="rgb(52,134,190)" stroke="rgb(41,107,152)" stroke-width="1" opacity="0.75" />
			</g>
			<g>
				<title>DNA_gyraseA_C (PF03989)
"DNA gyrase C-terminal domain, beta-propeller"</title>
				<polygon class="PF03989" points="712,33 716,29 716,51 712,47" stroke-linejoin="round" width="4" height="24" fill="rgb(52,134,190)" stroke="rgb(41,107,152)" stroke-width="1" opacity="0.75" />
			</g>
			<g>
				<title>DNA_gyraseA_C (PF03989)
"DNA gyrase C-terminal domain, beta-propeller"</title>
				<polygon class="PF03989" points="717,28 717,28 721,28 721,52 717,52 717,52" stroke-linejoin="round" width="4" height="24" fill="rgb(52,134,190)" stroke="rgb(41,107,152)" stroke-width="1" opacity="0.75" />
			</g>
			<g>
				<title>DNA_gyraseA_C (PF03989)
"DNA gyrase C-terminal domain, beta-propeller"</title>
				<rect class="PF03989" x="723" y="28" stroke-linejoin="round" width="5" height="24" fill="rgb(52,134,190)" stroke="rgb(41,107,152)" stroke-width="1" opacity="0.75" />
			</g>
			<g>
				<title>DNA_gyraseA_C (PF03989)
"DNA gyrase C-terminal domain, beta-propeller"</title>
				<rect class="PF03989" x="728" y="28" stroke-linejoin="round" width="4" height="24" fill="rgb(52,134,190)" stroke="rgb(41,107,152)" stroke-width="1" opacity="0.75" />
			</g>
			<g>
				<title>DNA_topoisoIV (PF00521)
"DNA gyrase/topoisomerase IV, subunit A"</title>
				<rect class="PF00521" x="735" y="28" stroke-linejoin="round" width="44" height="24" fill="rgb(196,204,77)" stroke="rgb(156,163,61)" stroke-width="1" opacity="0.75" />
			</g>
		</g>
		<g>
			<title>parE (HAMLPNCN_03486)
DNA topoisomerase 4 subunit B</title>
			<polygon class="parE (HAMLPNCN_03486)
DNA topoisomerase 4 subunit B" points="849,25 814,25 814,10 784,40 814,70 814,55 849,55" fill="rgb(255,255,255)" fill-opacity="1.0" stroke="rgb(0,0,0)" stroke-width="2"  />
			<g>
				<title>DNA_gyraseB_C (PF00986)
"DNA gyrase B subunit, carboxyl terminus"</title>
				<polygon class="PF00986" points="788,40 792,36 792,44" stroke-linejoin="round" width="6" height="24" fill="rgb(184,59,116)" stroke="rgb(147,47,92)" stroke-width="1" opacity="0.75" />
			</g>
			<g>
				<title>Toprim (PF01751)
"Toprim domain"</title>
				<polygon class="PF01751" points="795,33 800,28 806,28 806,52 800,52 795,47" stroke-linejoin="round" width="11" height="24" fill="rgb(95,212,145)" stroke="rgb(76,169,116)" stroke-width="1" opacity="0.75" />
			</g>
			<g>
				<title>DNA_gyraseB (PF00204)
"DNA gyrase B"</title>
				<rect class="PF00204" x="809" y="28" stroke-linejoin="round" width="17" height="24" fill="rgb(66,134,179)" stroke="rgb(52,107,143)" stroke-width="1" opacity="0.75" />
			</g>
			<g>
				<title>HATPase_c (PF02518)
"Histidine kinase-, DNA gyrase B-, and HSP90-like ATPase"</title>
				<rect class="PF02518" x="831" y="28" stroke-linejoin="round" width="14" height="24" fill="rgb(80,94,225)" stroke="rgb(64,75,180)" stroke-width="1" opacity="0.75" />
			</g>
		</g>
		<g>
			<title>yccU (HAMLPNCN_03487)
putative protein YccU</title>
			<polygon class="yccU (HAMLPNCN_03487)
putative protein YccU" points="864,40 877,10 877,70" fill="rgb(255,255,255)" fill-opacity="1.0" stroke="rgb(0,0,0)" stroke-width="2"  />
			<g>
				<title>CoA_binding_2 (PF13380)
"CoA binding domain"</title>
				<polygon class="PF13380" points="867,40 873,28 875,28 875,52 873,52" stroke-linejoin="round" width="11" height="24" fill="rgb(212,69,78)" stroke="rgb(169,55,62)" stroke-width="1" opacity="0.75" />
			</g>
		</g>
		<g>
			<title> (HAMLPNCN_03488)
hypothetical protein</title>
			<polygon class=" (HAMLPNCN_03488)
hypothetical protein" points="907,10 923,40 907,70" fill="rgb(255,255,255)" fill-opacity="1.0" stroke="rgb(0,0,0)" stroke-width="2"  />
		</g>
	</g>
</svg>
