<svg version="1.1" baseProfile="full" xmlns="http://www.w3.org/2000/svg" width="272.8666666666667" height="80">
	<g>
		<line x1="10" y1="40.0" x2="262.8666666666667" y2="40.0" style="stroke:rgb(70,70,70); stroke-width:3 "/>
		<g>
			<title> (PLNGCNKA_01166)
hypothetical protein</title>
			<polygon class=" (PLNGCNKA_01166)
hypothetical protein" points="64,25 59,25 59,10 29,40 59,70 59,55 64,55" fill="rgb(255,255,255)" fill-opacity="1.0" stroke="rgb(0,0,0)" stroke-width="2"  />
			<g>
				<title>NTP_transf_5 (PF14907)
"Uncharacterised nucleotidyltransferase"</title>
				<polygon class="PF14907" points="38,35 45,28 62,28 62,52 45,52 38,45" stroke-linejoin="round" width="24" height="24" fill="rgb(191,137,74)" stroke="rgb(152,109,59)" stroke-width="1" opacity="0.75" />
			</g>
		</g>
		<g>
			<title> (PLNGCNKA_01167)
Putative multidrug export ATP-binding/permease protein</title>
			<polygon class=" (PLNGCNKA_01167)
Putative multidrug export ATP-binding/permease protein" points="126,25 96,25 96,10 66,40 96,70 96,55 126,55" fill="rgb(255,255,255)" fill-opacity="1.0" stroke="rgb(0,0,0)" stroke-width="2"  />
			<g>
				<title>ABC_tran (PF00005)
"ABC transporter"</title>
				<polygon class="PF00005" points="74,36 82,28 88,28 88,52 82,52 74,44" stroke-linejoin="round" width="14" height="24" fill="rgb(129,201,63)" stroke="rgb(103,160,50)" stroke-width="1" opacity="0.75" />
			</g>
			<g>
				<title>ABC_membrane (PF00664)
"ABC transporter transmembrane region"</title>
				<rect class="PF00664" x="95" y="28" stroke-linejoin="round" width="27" height="24" fill="rgb(149,226,73)" stroke="rgb(119,180,58)" stroke-width="1" opacity="0.75" />
			</g>
		</g>
		<g>
			<title> (PLNGCNKA_01168)
hypothetical protein</title>
			<polygon class=" (PLNGCNKA_01168)
hypothetical protein" points="127,40 142,10 142,70" fill="rgb(255,255,255)" fill-opacity="1.0" stroke="rgb(0,0,0)" stroke-width="2"  />
		</g>
		<g>
			<title> (PLNGCNKA_01169)
hypothetical protein</title>
			<polygon class=" (PLNGCNKA_01169)
hypothetical protein" points="141,40 149,10 149,70" fill="rgb(255,255,255)" fill-opacity="1.0" stroke="rgb(0,0,0)" stroke-width="2"  />
			<g>
				<title>PqqD (PF05402)
"Coenzyme PQQ synthesis protein D (PqqD)"</title>
				<polygon class="PF05402" points="144,40 147,30 147,50" stroke-linejoin="round" width="6" height="24" fill="rgb(124,62,188)" stroke="rgb(99,49,150)" stroke-width="1" opacity="0.75" />
			</g>
		</g>
		<g>
			<title> (PLNGCNKA_01170)
hypothetical protein</title>
			<polygon class=" (PLNGCNKA_01170)
hypothetical protein" points="150,40 175,10 175,70" fill="rgb(255,255,255)" fill-opacity="1.0" stroke="rgb(0,0,0)" stroke-width="2"  />
		</g>
		<g>
			<title> (PLNGCNKA_01171)
hypothetical protein</title>
			<polygon class=" (PLNGCNKA_01171)
hypothetical protein" points="178,40 183,10 183,70" fill="rgb(255,255,255)" fill-opacity="1.0" stroke="rgb(0,0,0)" stroke-width="2"  />
		</g>
		<g>
			<title>btuD_1 (PLNGCNKA_01172)
Vitamin B12 import ATP-binding protein BtuD</title>
			<polygon class="btuD_1 (PLNGCNKA_01172)
Vitamin B12 import ATP-binding protein BtuD" points="245,25 216,25 216,10 186,40 216,70 216,55 245,55" fill="rgb(255,255,255)" fill-opacity="1.0" stroke="rgb(0,0,0)" stroke-width="2"  />
			<g>
				<title>ABC_tran (PF00005)
"ABC transporter"</title>
				<polygon class="PF00005" points="193,37 202,28 207,28 207,52 202,52 193,43" stroke-linejoin="round" width="14" height="24" fill="rgb(129,201,63)" stroke="rgb(103,160,50)" stroke-width="1" opacity="0.75" />
			</g>
			<g>
				<title>ABC_membrane (PF00664)
"ABC transporter transmembrane region"</title>
				<rect class="PF00664" x="215" y="28" stroke-linejoin="round" width="27" height="24" fill="rgb(149,226,73)" stroke="rgb(119,180,58)" stroke-width="1" opacity="0.75" />
			</g>
		</g>
		<g>
			<title> (PLNGCNKA_01173)
hypothetical protein</title>
			<polygon class=" (PLNGCNKA_01173)
hypothetical protein" points="246,40 260,10 260,70" fill="rgb(255,255,255)" fill-opacity="1.0" stroke="rgb(0,0,0)" stroke-width="2"  />
		</g>
	</g>
</svg>
