<svg version="1.1" baseProfile="full" xmlns="http://www.w3.org/2000/svg" width="748.4666666666667" height="80">
	<g>
		<line x1="10" y1="40.0" x2="738.4666666666667" y2="40.0" style="stroke:rgb(70,70,70); stroke-width:3 "/>
		<g>
			<title>nprE (FHOLFIBO_01975)
Bacillolysin</title>
			<polygon class="nprE (FHOLFIBO_01975)
Bacillolysin" points="66,25 44,25 44,10 14,40 44,70 44,55 66,55" fill="rgb(255,255,255)" fill-opacity="1.0" stroke="rgb(0,0,0)" stroke-width="2"  />
			<g>
				<title>Peptidase_M4_C (PF02868)
"Thermolysin metallopeptidase, alpha-helical domain"</title>
				<polygon class="PF02868" points="18,40 28,30 28,50" stroke-linejoin="round" width="14" height="24" fill="rgb(184,92,211)" stroke="rgb(147,73,168)" stroke-width="1" opacity="0.75" />
			</g>
			<g>
				<title>Peptidase_M4 (PF01447)
"Thermolysin metallopeptidase, catalytic domain"</title>
				<polygon class="PF01447" points="29,29 30,28 43,28 43,52 30,52 29,51" stroke-linejoin="round" width="14" height="24" fill="rgb(71,102,203)" stroke="rgb(56,81,162)" stroke-width="1" opacity="0.75" />
			</g>
			<g>
				<title>PepSY (PF03413)
"Peptidase propeptide and YPEB domain"</title>
				<rect class="PF03413" x="45" y="28" stroke-linejoin="round" width="6" height="24" fill="rgb(127,66,203)" stroke="rgb(101,52,162)" stroke-width="1" opacity="0.75" />
			</g>
			<g>
				<title>FTP (PF07504)
"Fungalysin/Thermolysin Propeptide Motif"</title>
				<rect class="PF07504" x="54" y="28" stroke-linejoin="round" width="5" height="24" fill="rgb(225,91,194)" stroke="rgb(180,72,155)" stroke-width="1" opacity="0.75" />
			</g>
		</g>
		<g>
			<title>cadA (FHOLFIBO_01976)
Cadmium-transporting ATPase</title>
			<polygon class="cadA (FHOLFIBO_01976)
Cadmium-transporting ATPase" points="167,25 113,25 113,10 83,40 113,70 113,55 167,55" fill="rgb(255,255,255)" fill-opacity="1.0" stroke="rgb(0,0,0)" stroke-width="2"  />
			<g>
				<title>Hydrolase (PF00702)
"haloacid dehalogenase-like hydrolase"</title>
				<polygon class="PF00702" points="92,35 99,28 113,28 113,52 99,52 92,45" stroke-linejoin="round" width="21" height="24" fill="rgb(68,220,102)" stroke="rgb(54,176,81)" stroke-width="1" opacity="0.75" />
			</g>
			<g>
				<title>E1-E2_ATPase (PF00122)
"E1-E2 ATPase"</title>
				<rect class="PF00122" x="115" y="28" stroke-linejoin="round" width="18" height="24" fill="rgb(149,204,70)" stroke="rgb(119,163,56)" stroke-width="1" opacity="0.75" />
			</g>
			<g>
				<title>HMA (PF00403)
"Heavy-metal-associated domain"</title>
				<rect class="PF00403" x="146" y="28" stroke-linejoin="round" width="5" height="24" fill="rgb(91,198,182)" stroke="rgb(72,158,145)" stroke-width="1" opacity="0.75" />
			</g>
			<g>
				<title>HMA (PF00403)
"Heavy-metal-associated domain"</title>
				<rect class="PF00403" x="153" y="28" stroke-linejoin="round" width="6" height="24" fill="rgb(91,198,182)" stroke="rgb(72,158,145)" stroke-width="1" opacity="0.75" />
			</g>
		</g>
		<g>
			<title>cadC (FHOLFIBO_01977)
Cadmium resistance transcriptional regulatory protein CadC</title>
			<polygon class="cadC (FHOLFIBO_01977)
Cadmium resistance transcriptional regulatory protein CadC" points="168,40 180,10 180,70" fill="rgb(255,255,255)" fill-opacity="1.0" stroke="rgb(0,0,0)" stroke-width="2"  />
			<g>
				<title>HTH_5 (PF01022)
"Bacterial regulatory protein, arsR family"</title>
				<polygon class="PF01022" points="171,40 175,30 175,50 171,40" stroke-linejoin="round" width="4" height="24" fill="rgb(95,208,123)" stroke="rgb(76,166,98)" stroke-width="1" opacity="0.75" />
			</g>
		</g>
		<g>
			<title> (FHOLFIBO_01978)
hypothetical protein</title>
			<polygon class=" (FHOLFIBO_01978)
hypothetical protein" points="185,40 199,10 199,70" fill="rgb(255,255,255)" fill-opacity="1.0" stroke="rgb(0,0,0)" stroke-width="2"  />
			<g>
				<title>Acetyltransf_1 (PF00583)
"Acetyltransferase (GNAT) family"</title>
				<polygon class="PF00583" points="188,40 194,28 198,28 198,52 194,52" stroke-linejoin="round" width="12" height="24" fill="rgb(121,183,50)" stroke="rgb(96,146,39)" stroke-width="1" opacity="0.75" />
			</g>
		</g>
		<g>
			<title> (FHOLFIBO_01979)
hypothetical protein</title>
			<polygon class=" (FHOLFIBO_01979)
hypothetical protein" points="207,40 215,10 215,70" fill="rgb(255,255,255)" fill-opacity="1.0" stroke="rgb(0,0,0)" stroke-width="2"  />
			<g>
				<title>SpoVIF (PF14069)
"Stage VI sporulation protein F"</title>
				<polygon class="PF14069" points="210,40 213,28 214,28 214,52 213,52" stroke-linejoin="round" width="7" height="24" fill="rgb(181,86,189)" stroke="rgb(144,68,151)" stroke-width="1" opacity="0.75" />
			</g>
		</g>
		<g>
			<title> (FHOLFIBO_01980)
hypothetical protein</title>
			<polygon class=" (FHOLFIBO_01980)
hypothetical protein" points="219,40 247,10 247,70" fill="rgb(255,255,255)" fill-opacity="1.0" stroke="rgb(0,0,0)" stroke-width="2"  />
			<g>
				<title>DUF2268 (PF10026)
"Predicted Zn-dependent protease (DUF2268)"</title>
				<polygon class="PF10026" points="223,40 234,28 238,28 238,52 234,52" stroke-linejoin="round" width="19" height="24" fill="rgb(97,115,200)" stroke="rgb(77,91,160)" stroke-width="1" opacity="0.75" />
			</g>
		</g>
		<g>
			<title> (FHOLFIBO_01981)
hypothetical protein</title>
			<polygon class=" (FHOLFIBO_01981)
hypothetical protein" points="252,10 257,40 252,70" fill="rgb(255,255,255)" fill-opacity="1.0" stroke="rgb(0,0,0)" stroke-width="2"  />
			<g>
				<title>YjcZ_2 (PF09680)
"Family of unknown function"</title>
				<polygon class="PF09680" points="253,35 253,40 253,45" stroke-linejoin="round" width="3" height="24" fill="rgb(79,203,107)" stroke="rgb(63,162,85)" stroke-width="1" opacity="0.75" />
			</g>
		</g>
		<g>
			<title>resA_2 (FHOLFIBO_01982)
Thiol-disulfide oxidoreductase ResA</title>
			<polygon class="resA_2 (FHOLFIBO_01982)
Thiol-disulfide oxidoreductase ResA" points="261,10 277,40 261,70" fill="rgb(255,255,255)" fill-opacity="1.0" stroke="rgb(0,0,0)" stroke-width="2"  />
			<g>
				<title>AhpC-TSA (PF00578)
"AhpC/TSA family"</title>
				<polygon class="PF00578" points="261,28 267,28 274,40 274,40 267,52 261,52" stroke-linejoin="round" width="13" height="24" fill="rgb(166,71,190)" stroke="rgb(132,56,152)" stroke-width="1" opacity="0.75" />
			</g>
		</g>
		<g>
			<title> (FHOLFIBO_01983)
hypothetical protein</title>
			<polygon class=" (FHOLFIBO_01983)
hypothetical protein" points="283,40 308,10 308,70" fill="rgb(255,255,255)" fill-opacity="1.0" stroke="rgb(0,0,0)" stroke-width="2"  />
			<g>
				<title>AAA_21 (PF13304)
"AAA domain, putative AbiEii toxin, Type IV TA system"</title>
				<polygon class="PF13304" points="287,40 293,33 293,47 287,40" stroke-linejoin="round" width="6" height="24" fill="rgb(215,121,101)" stroke="rgb(172,96,80)" stroke-width="1" opacity="0.75" />
			</g>
			<g>
				<title>AAA_23 (PF13476)
"AAA domain"</title>
				<polygon class="PF13476" points="295,31 297,28 305,28 305,52 297,52 295,49" stroke-linejoin="round" width="10" height="24" fill="rgb(57,185,214)" stroke="rgb(45,147,171)" stroke-width="1" opacity="0.75" />
			</g>
		</g>
		<g>
			<title>rihA_1 (FHOLFIBO_01984)
Pyrimidine-specific ribonucleoside hydrolase RihA</title>
			<polygon class="rihA_1 (FHOLFIBO_01984)
Pyrimidine-specific ribonucleoside hydrolase RihA" points="311,25 313,25 313,10 343,40 313,70 313,55 311,55" fill="rgb(255,255,255)" fill-opacity="1.0" stroke="rgb(0,0,0)" stroke-width="2"  />
			<g>
				<title>IU_nuc_hydro (PF01156)
"Inosine-uridine preferring nucleoside hydrolase"</title>
				<polygon class="PF01156" points="311,28 326,28 338,40 326,52 311,52" stroke-linejoin="round" width="29" height="24" fill="rgb(156,80,217)" stroke="rgb(124,64,173)" stroke-width="1" opacity="0.75" />
			</g>
		</g>
		<g>
			<title>sqhC (FHOLFIBO_01985)
Sporulenol synthase</title>
			<polygon class="sqhC (FHOLFIBO_01985)
Sporulenol synthase" points="343,25 374,25 374,10 404,40 374,70 374,55 343,55" fill="rgb(255,255,255)" fill-opacity="1.0" stroke="rgb(0,0,0)" stroke-width="2"  />
			<g>
				<title>SQHop_cyclase_N (PF13249)
"Squalene-hopene cyclase N-terminal domain"</title>
				<rect class="PF13249" x="343" y="28" stroke-linejoin="round" width="28" height="24" fill="rgb(88,190,89)" stroke="rgb(70,152,71)" stroke-width="1" opacity="0.75" />
			</g>
			<g>
				<title>SQHop_cyclase_C (PF13243)
"Squalene-hopene cyclase C-terminal domain"</title>
				<polygon class="PF13243" points="372,28 388,28 400,40 388,52 372,52" stroke-linejoin="round" width="31" height="24" fill="rgb(191,58,201)" stroke="rgb(152,46,160)" stroke-width="1" opacity="0.75" />
			</g>
		</g>
		<g>
			<title> (FHOLFIBO_01986)
hypothetical protein</title>
			<polygon class=" (FHOLFIBO_01986)
hypothetical protein" points="405,40 420,10 420,70" fill="rgb(255,255,255)" fill-opacity="1.0" stroke="rgb(0,0,0)" stroke-width="2"  />
			<g>
				<title>DMT_YdcZ (PF04657)
"Putative inner membrane exporter, YdcZ"</title>
				<polygon class="PF04657" points="408,40 414,28 420,28 420,52 414,52" stroke-linejoin="round" width="13" height="24" fill="rgb(63,139,178)" stroke="rgb(50,111,142)" stroke-width="1" opacity="0.75" />
			</g>
		</g>
		<g>
			<title>yeiL (FHOLFIBO_01987)
Regulatory protein YeiL</title>
			<polygon class="yeiL (FHOLFIBO_01987)
Regulatory protein YeiL" points="421,40 444,10 444,70" fill="rgb(255,255,255)" fill-opacity="1.0" stroke="rgb(0,0,0)" stroke-width="2"  />
			<g>
				<title>HTH_Crp_2 (PF13545)
"Crp-like helix-turn-helix domain"</title>
				<polygon class="PF13545" points="425,40 428,36 428,44" stroke-linejoin="round" width="7" height="24" fill="rgb(87,137,202)" stroke="rgb(69,109,161)" stroke-width="1" opacity="0.75" />
			</g>
			<g>
				<title>cNMP_binding (PF00027)
"Cyclic nucleotide-binding domain"</title>
				<polygon class="PF00027" points="432,31 434,28 440,28 440,52 434,52 432,49" stroke-linejoin="round" width="8" height="24" fill="rgb(138,95,204)" stroke="rgb(110,76,163)" stroke-width="1" opacity="0.75" />
			</g>
		</g>
		<g>
			<title> (FHOLFIBO_01988)
hypothetical protein</title>
			<polygon class=" (FHOLFIBO_01988)
hypothetical protein" points="445,40 459,10 459,70" fill="rgb(255,255,255)" fill-opacity="1.0" stroke="rgb(0,0,0)" stroke-width="2"  />
			<g>
				<title>DMT_YdcZ (PF04657)
"Putative inner membrane exporter, YdcZ"</title>
				<polygon class="PF04657" points="448,40 454,28 458,28 458,52 454,52" stroke-linejoin="round" width="13" height="24" fill="rgb(63,139,178)" stroke="rgb(50,111,142)" stroke-width="1" opacity="0.75" />
			</g>
		</g>
		<g>
			<title>nhaP2_3 (FHOLFIBO_01989)
K(+)/H(+) antiporter NhaP2</title>
			<polygon class="nhaP2_3 (FHOLFIBO_01989)
K(+)/H(+) antiporter NhaP2" points="513,25 493,25 493,10 463,40 493,70 493,55 513,55" fill="rgb(255,255,255)" fill-opacity="1.0" stroke="rgb(0,0,0)" stroke-width="2"  />
			<g>
				<title>TrkA_C (PF02080)
"TrkA-C domain"</title>
				<polygon class="PF02080" points="467,40 471,36 471,44" stroke-linejoin="round" width="6" height="24" fill="rgb(76,186,211)" stroke="rgb(60,148,168)" stroke-width="1" opacity="0.75" />
			</g>
			<g>
				<title>Na_H_Exchanger (PF00999)
"Sodium/hydrogen exchanger family"</title>
				<polygon class="PF00999" points="474,33 479,28 512,28 512,52 479,52 474,47" stroke-linejoin="round" width="38" height="24" fill="rgb(229,67,191)" stroke="rgb(183,53,152)" stroke-width="1" opacity="0.75" />
			</g>
		</g>
		<g>
			<title>trxB_3 (FHOLFIBO_01990)
Thioredoxin reductase</title>
			<polygon class="trxB_3 (FHOLFIBO_01990)
Thioredoxin reductase" points="547,25 547,25 547,10 517,40 547,70 547,55 547,55" fill="rgb(255,255,255)" fill-opacity="1.0" stroke="rgb(0,0,0)" stroke-width="2"  />
			<g>
				<title>Pyr_redox_2 (PF07992)
"Pyridine nucleotide-disulphide oxidoreductase"</title>
				<polygon class="PF07992" points="521,40 533,28 546,28 546,52 533,52" stroke-linejoin="round" width="28" height="24" fill="rgb(83,223,167)" stroke="rgb(66,178,133)" stroke-width="1" opacity="0.75" />
			</g>
		</g>
		<g>
			<title>ybiT_1 (FHOLFIBO_01991)
putative ABC transporter ATP-binding protein YbiT</title>
			<polygon class="ybiT_1 (FHOLFIBO_01991)
putative ABC transporter ATP-binding protein YbiT" points="551,25 573,25 573,10 603,40 573,70 573,55 551,55" fill="rgb(255,255,255)" fill-opacity="1.0" stroke="rgb(0,0,0)" stroke-width="2"  />
			<g>
				<title>ABC_tran (PF00005)
"ABC transporter"</title>
				<rect class="PF00005" x="553" y="28" stroke-linejoin="round" width="17" height="24" fill="rgb(129,201,63)" stroke="rgb(103,160,50)" stroke-width="1" opacity="0.75" />
			</g>
			<g>
				<title>ABC_tran_Xtn (PF12848)
"ABC transporter"</title>
				<rect class="PF12848" x="574" y="28" stroke-linejoin="round" width="8" height="24" fill="rgb(54,177,199)" stroke="rgb(43,141,159)" stroke-width="1" opacity="0.75" />
			</g>
			<g>
				<title>ABC_tran (PF00005)
"ABC transporter"</title>
				<polygon class="PF00005" points="585,28 587,28 597,38 597,42 587,52 585,52" stroke-linejoin="round" width="12" height="24" fill="rgb(129,201,63)" stroke="rgb(103,160,50)" stroke-width="1" opacity="0.75" />
			</g>
		</g>
		<g>
			<title> (FHOLFIBO_01992)
hypothetical protein</title>
			<polygon class=" (FHOLFIBO_01992)
hypothetical protein" points="615,10 636,40 615,70" fill="rgb(255,255,255)" fill-opacity="1.0" stroke="rgb(0,0,0)" stroke-width="2"  />
		</g>
		<g>
			<title> (FHOLFIBO_01993)
hypothetical protein</title>
			<polygon class=" (FHOLFIBO_01993)
hypothetical protein" points="657,40 670,10 670,70" fill="rgb(255,255,255)" fill-opacity="1.0" stroke="rgb(0,0,0)" stroke-width="2"  />
			<g>
				<title>NUDIX (PF00293)
"NUDIX domain"</title>
				<polygon class="PF00293" points="660,40 665,28 669,28 669,52 665,52" stroke-linejoin="round" width="11" height="24" fill="rgb(92,56,187)" stroke="rgb(73,44,149)" stroke-width="1" opacity="0.75" />
			</g>
		</g>
		<g>
			<title>pnoA (FHOLFIBO_01994)
Nitronate monooxygenase</title>
			<polygon class="pnoA (FHOLFIBO_01994)
Nitronate monooxygenase" points="708,25 703,25 703,10 673,40 703,70 703,55 708,55" fill="rgb(255,255,255)" fill-opacity="1.0" stroke="rgb(0,0,0)" stroke-width="2"  />
			<g>
				<title>NMO (PF03060)
"Nitronate monooxygenase"</title>
				<polygon class="PF03060" points="677,40 689,28 708,28 708,52 689,52" stroke-linejoin="round" width="34" height="24" fill="rgb(100,193,226)" stroke="rgb(80,154,180)" stroke-width="1" opacity="0.75" />
			</g>
		</g>
		<g>
			<title> (FHOLFIBO_01995)
hypothetical protein</title>
			<polygon class=" (FHOLFIBO_01995)
hypothetical protein" points="710,40 721,10 721,70" fill="rgb(255,255,255)" fill-opacity="1.0" stroke="rgb(0,0,0)" stroke-width="2"  />
			<g>
				<title>Glyoxalase (PF00903)
"Glyoxalase/Bleomycin resistance protein/Dioxygenase superfamily"</title>
				<polygon class="PF00903" points="713,40 718,28 720,28 720,52 718,52" stroke-linejoin="round" width="10" height="24" fill="rgb(50,162,189)" stroke="rgb(40,129,151)" stroke-width="1" opacity="0.75" />
			</g>
		</g>
	</g>
</svg>
