<svg version="1.1" baseProfile="full" xmlns="http://www.w3.org/2000/svg" width="671.9" height="80">
	<g>
		<line x1="10" y1="40.0" x2="661.9" y2="40.0" style="stroke:rgb(70,70,70); stroke-width:3 "/>
		<g>
			<title> (PPJPJCPL_01326)
IS21 family transposase IS643</title>
			<polygon class=" (PPJPJCPL_01326)
IS21 family transposase IS643" points="10,10 35,40 10,70" fill="rgb(255,255,255)" fill-opacity="1.0" stroke="rgb(0,0,0)" stroke-width="2"  />
			<g>
				<title>IstB_IS21 (PF01695)
"IstB-like ATP binding protein"</title>
				<polygon class="PF01695" points="15,28 21,28 31,40 21,52 15,52" stroke-linejoin="round" width="17" height="24" fill="rgb(205,68,192)" stroke="rgb(164,54,153)" stroke-width="1" opacity="0.75" />
			</g>
		</g>
		<g>
			<title>opuD_1 (PPJPJCPL_01327)
Glycine betaine transporter OpuD</title>
			<polygon class="opuD_1 (PPJPJCPL_01327)
Glycine betaine transporter OpuD" points="87,25 66,25 66,10 36,40 66,70 66,55 87,55" fill="rgb(255,255,255)" fill-opacity="1.0" stroke="rgb(0,0,0)" stroke-width="2"  />
			<g>
				<title>BCCT (PF02028)
"BCCT, betaine/carnitine/choline family transporter"</title>
				<polygon class="PF02028" points="40,40 52,28 86,28 86,52 52,52" stroke-linejoin="round" width="48" height="24" fill="rgb(206,109,74)" stroke="rgb(164,87,59)" stroke-width="1" opacity="0.75" />
			</g>
		</g>
		<g>
			<title> (PPJPJCPL_01328)
hypothetical protein</title>
			<polygon class=" (PPJPJCPL_01328)
hypothetical protein" points="100,40 111,10 111,70" fill="rgb(255,255,255)" fill-opacity="1.0" stroke="rgb(0,0,0)" stroke-width="2"  />
			<g>
				<title>DUF2200 (PF09966)
"Uncharacterized protein conserved in bacteria (DUF2200)"</title>
				<polygon class="PF09966" points="103,40 108,28 111,28 111,52 108,52" stroke-linejoin="round" width="11" height="24" fill="rgb(80,75,207)" stroke="rgb(64,60,165)" stroke-width="1" opacity="0.75" />
			</g>
		</g>
		<g>
			<title>COQ5_2 (PPJPJCPL_01329)
2-methoxy-6-polyprenyl-1,4-benzoquinol methylase, mitochondrial</title>
			<polygon class="COQ5_2 (PPJPJCPL_01329)
2-methoxy-6-polyprenyl-1,4-benzoquinol methylase, mitochondrial" points="116,40 135,10 135,70" fill="rgb(255,255,255)" fill-opacity="1.0" stroke="rgb(0,0,0)" stroke-width="2"  />
			<g>
				<title>Methyltransf_31 (PF13847)
"Methyltransferase domain"</title>
				<polygon class="PF13847" points="120,40 128,28 132,28 132,52 128,52" stroke-linejoin="round" width="15" height="24" fill="rgb(214,74,181)" stroke="rgb(171,59,144)" stroke-width="1" opacity="0.75" />
			</g>
		</g>
		<g>
			<title>yycN_2 (PPJPJCPL_01330)
putative N-acetyltransferase YycN</title>
			<polygon class="yycN_2 (PPJPJCPL_01330)
putative N-acetyltransferase YycN" points="138,40 153,10 153,70" fill="rgb(255,255,255)" fill-opacity="1.0" stroke="rgb(0,0,0)" stroke-width="2"  />
			<g>
				<title>Acetyltransf_1 (PF00583)
"Acetyltransferase (GNAT) family"</title>
				<polygon class="PF00583" points="141,40 147,28 151,28 151,52 147,52" stroke-linejoin="round" width="12" height="24" fill="rgb(121,183,50)" stroke="rgb(96,146,39)" stroke-width="1" opacity="0.75" />
			</g>
		</g>
		<g>
			<title> (PPJPJCPL_01331)
hypothetical protein</title>
			<polygon class=" (PPJPJCPL_01331)
hypothetical protein" points="154,40 166,10 166,70" fill="rgb(255,255,255)" fill-opacity="1.0" stroke="rgb(0,0,0)" stroke-width="2"  />
			<g>
				<title>DUF3784 (PF12650)
"Domain of unknown function (DUF3784)"</title>
				<polygon class="PF12650" points="157,40 162,28 163,28 163,52 162,52" stroke-linejoin="round" width="9" height="24" fill="rgb(56,214,126)" stroke="rgb(44,171,100)" stroke-width="1" opacity="0.75" />
			</g>
		</g>
		<g>
			<title> (PPJPJCPL_01332)
hypothetical protein</title>
			<polygon class=" (PPJPJCPL_01332)
hypothetical protein" points="199,25 197,25 197,10 167,40 197,70 197,55 199,55" fill="rgb(255,255,255)" fill-opacity="1.0" stroke="rgb(0,0,0)" stroke-width="2"  />
			<g>
				<title>DUF2268 (PF10026)
"Predicted Zn-dependent protease (DUF2268)"</title>
				<polygon class="PF10026" points="171,40 183,28 186,28 186,52 183,52" stroke-linejoin="round" width="18" height="24" fill="rgb(97,115,200)" stroke="rgb(77,91,160)" stroke-width="1" opacity="0.75" />
			</g>
		</g>
		<g>
			<title> (PPJPJCPL_01333)
hypothetical protein</title>
			<polygon class=" (PPJPJCPL_01333)
hypothetical protein" points="205,40 212,10 212,70" fill="rgb(255,255,255)" fill-opacity="1.0" stroke="rgb(0,0,0)" stroke-width="2"  />
		</g>
		<g>
			<title> (PPJPJCPL_01334)
hypothetical protein</title>
			<polygon class=" (PPJPJCPL_01334)
hypothetical protein" points="224,40 231,10 231,70" fill="rgb(255,255,255)" fill-opacity="1.0" stroke="rgb(0,0,0)" stroke-width="2"  />
			<g>
				<title>Acetyltransf_3 (PF13302)
"Acetyltransferase (GNAT) domain"</title>
				<polygon class="PF13302" points="227,40 230,28 231,28 231,52 230,52" stroke-linejoin="round" width="7" height="24" fill="rgb(105,146,215)" stroke="rgb(84,116,172)" stroke-width="1" opacity="0.75" />
			</g>
		</g>
		<g>
			<title>bltD (PPJPJCPL_01335)
Spermine/spermidine acetyltransferase</title>
			<polygon class="bltD (PPJPJCPL_01335)
Spermine/spermidine acetyltransferase" points="241,40 256,10 256,70" fill="rgb(255,255,255)" fill-opacity="1.0" stroke="rgb(0,0,0)" stroke-width="2"  />
			<g>
				<title>Acetyltransf_1 (PF00583)
"Acetyltransferase (GNAT) family"</title>
				<polygon class="PF00583" points="244,40 250,28 255,28 255,52 250,52" stroke-linejoin="round" width="12" height="24" fill="rgb(121,183,50)" stroke="rgb(96,146,39)" stroke-width="1" opacity="0.75" />
			</g>
		</g>
		<g>
			<title>carH (PPJPJCPL_01336)
HTH-type transcriptional repressor CarH</title>
			<polygon class="carH (PPJPJCPL_01336)
HTH-type transcriptional repressor CarH" points="263,40 292,10 292,70" fill="rgb(255,255,255)" fill-opacity="1.0" stroke="rgb(0,0,0)" stroke-width="2"  />
			<g>
				<title>MerR_1 (PF13411)
"MerR HTH family regulatory protein"</title>
				<rect class="PF13411" x="284" y="28" stroke-linejoin="round" width="6" height="24" fill="rgb(100,202,107)" stroke="rgb(80,161,85)" stroke-width="1" opacity="0.75" />
			</g>
		</g>
		<g>
			<title>crtB (PPJPJCPL_01337)
15-cis-phytoene synthase</title>
			<polygon class="crtB (PPJPJCPL_01337)
15-cis-phytoene synthase" points="302,10 331,40 302,70" fill="rgb(255,255,255)" fill-opacity="1.0" stroke="rgb(0,0,0)" stroke-width="2"  />
			<g>
				<title>SQS_PSY (PF00494)
"Squalene/phytoene synthase"</title>
				<polygon class="PF00494" points="303,28 315,28 327,40 315,52 303,52" stroke-linejoin="round" width="25" height="24" fill="rgb(178,91,49)" stroke="rgb(142,72,39)" stroke-width="1" opacity="0.75" />
			</g>
		</g>
		<g>
			<title>crtP (PPJPJCPL_01338)
4,4'-diaponeurosporene oxygenase</title>
			<polygon class="crtP (PPJPJCPL_01338)
4,4'-diaponeurosporene oxygenase" points="331,25 350,25 350,10 380,40 350,70 350,55 331,55" fill="rgb(255,255,255)" fill-opacity="1.0" stroke="rgb(0,0,0)" stroke-width="2"  />
			<g>
				<title>Amino_oxidase (PF01593)
"Flavin containing amine oxidoreductase"</title>
				<polygon class="PF01593" points="332,28 364,28 376,40 364,52 332,52" stroke-linejoin="round" width="47" height="24" fill="rgb(184,74,52)" stroke="rgb(147,59,41)" stroke-width="1" opacity="0.75" />
			</g>
		</g>
		<g>
			<title>crtNc (PPJPJCPL_01339)
4,4'-diapolycopene-4,4'-dial dehydrogenase</title>
			<polygon class="crtNc (PPJPJCPL_01339)
4,4'-diapolycopene-4,4'-dial dehydrogenase" points="380,25 397,25 397,10 427,40 397,70 397,55 380,55" fill="rgb(255,255,255)" fill-opacity="1.0" stroke="rgb(0,0,0)" stroke-width="2"  />
			<g>
				<title>Aldedh (PF00171)
"Aldehyde dehydrogenase family"</title>
				<polygon class="PF00171" points="381,28 411,28 423,40 423,40 411,52 381,52" stroke-linejoin="round" width="42" height="24" fill="rgb(105,213,139)" stroke="rgb(84,170,111)" stroke-width="1" opacity="0.75" />
			</g>
		</g>
		<g>
			<title> (PPJPJCPL_01340)
hypothetical protein</title>
			<polygon class=" (PPJPJCPL_01340)
hypothetical protein" points="429,10 444,40 429,70" fill="rgb(255,255,255)" fill-opacity="1.0" stroke="rgb(0,0,0)" stroke-width="2"  />
		</g>
		<g>
			<title>crtN (PPJPJCPL_01341)
4,4'-diapophytoene desaturase (4,4'-diaponeurosporene-forming)</title>
			<polygon class="crtN (PPJPJCPL_01341)
4,4'-diapophytoene desaturase (4,4'-diaponeurosporene-forming)" points="448,25 468,25 468,10 498,40 468,70 468,55 448,55" fill="rgb(255,255,255)" fill-opacity="1.0" stroke="rgb(0,0,0)" stroke-width="2"  />
			<g>
				<title>Amino_oxidase (PF01593)
"Flavin containing amine oxidoreductase"</title>
				<polygon class="PF01593" points="449,28 482,28 494,40 482,52 449,52" stroke-linejoin="round" width="48" height="24" fill="rgb(184,74,52)" stroke="rgb(147,59,41)" stroke-width="1" opacity="0.75" />
			</g>
		</g>
		<g>
			<title>crtQ (PPJPJCPL_01342)
4,4'-diaponeurosporenoate glycosyltransferase</title>
			<polygon class="crtQ (PPJPJCPL_01342)
4,4'-diaponeurosporenoate glycosyltransferase" points="501,25 508,25 508,10 538,40 508,70 508,55 501,55" fill="rgb(255,255,255)" fill-opacity="1.0" stroke="rgb(0,0,0)" stroke-width="2"  />
			<g>
				<title>Glycos_transf_2 (PF00535)
"Glycosyl transferase family 2"</title>
				<rect class="PF00535" x="505" y="28" stroke-linejoin="round" width="15" height="24" fill="rgb(224,122,96)" stroke="rgb(179,97,76)" stroke-width="1" opacity="0.75" />
			</g>
		</g>
		<g>
			<title> (PPJPJCPL_01343)
hypothetical protein</title>
			<polygon class=" (PPJPJCPL_01343)
hypothetical protein" points="540,10 561,40 540,70" fill="rgb(255,255,255)" fill-opacity="1.0" stroke="rgb(0,0,0)" stroke-width="2"  />
		</g>
		<g>
			<title> (PPJPJCPL_01344)
hypothetical protein</title>
			<polygon class=" (PPJPJCPL_01344)
hypothetical protein" points="562,10 575,40 562,70" fill="rgb(255,255,255)" fill-opacity="1.0" stroke="rgb(0,0,0)" stroke-width="2"  />
			<g>
				<title>Pyr_excise (PF03013)
"Pyrimidine dimer DNA glycosylase"</title>
				<polygon class="PF03013" points="562,28 566,28 572,40 566,52 562,52" stroke-linejoin="round" width="11" height="24" fill="rgb(222,160,68)" stroke="rgb(177,128,54)" stroke-width="1" opacity="0.75" />
			</g>
		</g>
		<g>
			<title> (PPJPJCPL_01345)
hypothetical protein</title>
			<polygon class=" (PPJPJCPL_01345)
hypothetical protein" points="578,40 592,10 592,70" fill="rgb(255,255,255)" fill-opacity="1.0" stroke="rgb(0,0,0)" stroke-width="2"  />
		</g>
		<g>
			<title> (PPJPJCPL_01346)
hypothetical protein</title>
			<polygon class=" (PPJPJCPL_01346)
hypothetical protein" points="600,40 604,10 604,70" fill="rgb(255,255,255)" fill-opacity="1.0" stroke="rgb(0,0,0)" stroke-width="2"  />
		</g>
		<g>
			<title>splB (PPJPJCPL_01347)
Spore photoproduct lyase</title>
			<polygon class="splB (PPJPJCPL_01347)
Spore photoproduct lyase" points="640,25 636,25 636,10 606,40 636,70 636,55 640,55" fill="rgb(255,255,255)" fill-opacity="1.0" stroke="rgb(0,0,0)" stroke-width="2"  />
		</g>
		<g>
			<title> (PPJPJCPL_01348)
hypothetical protein</title>
			<polygon class=" (PPJPJCPL_01348)
hypothetical protein" points="640,40 648,10 648,70" fill="rgb(255,255,255)" fill-opacity="1.0" stroke="rgb(0,0,0)" stroke-width="2"  />
			<g>
				<title>SplA (PF11132)
"Transcriptional regulator protein (SplA)"</title>
				<polygon class="PF11132" points="643,40 646,28 647,28 647,52 646,52" stroke-linejoin="round" width="7" height="24" fill="rgb(161,205,68)" stroke="rgb(128,164,54)" stroke-width="1" opacity="0.75" />
			</g>
		</g>
		<g>
			<title> (PPJPJCPL_01349)
hypothetical protein</title>
			<polygon class=" (PPJPJCPL_01349)
hypothetical protein" points="652,40 661,10 661,70" fill="rgb(255,255,255)" fill-opacity="1.0" stroke="rgb(0,0,0)" stroke-width="2"  />
		</g>
	</g>
</svg>
