<svg version="1.1" baseProfile="full" xmlns="http://www.w3.org/2000/svg" width="748.0666666666667" height="80">
	<g>
		<line x1="10" y1="40.0" x2="738.0666666666667" y2="40.0" style="stroke:rgb(70,70,70); stroke-width:3 "/>
		<g>
			<title> (CDOIENLM_00524)
hypothetical protein</title>
			<polygon class=" (CDOIENLM_00524)
hypothetical protein" points="16,10 29,40 16,70" fill="rgb(255,255,255)" fill-opacity="1.0" stroke="rgb(0,0,0)" stroke-width="2"  />
			<g>
				<title>NUDIX (PF00293)
"NUDIX domain"</title>
				<polygon class="PF00293" points="16,28 20,28 26,40 20,52 16,52" stroke-linejoin="round" width="11" height="24" fill="rgb(92,56,187)" stroke="rgb(73,44,149)" stroke-width="1" opacity="0.75" />
			</g>
		</g>
		<g>
			<title>yfkO (CDOIENLM_00525)
Putative NAD(P)H nitroreductase YfkO</title>
			<polygon class="yfkO (CDOIENLM_00525)
Putative NAD(P)H nitroreductase YfkO" points="31,40 53,10 53,70" fill="rgb(255,255,255)" fill-opacity="1.0" stroke="rgb(0,0,0)" stroke-width="2"  />
			<g>
				<title>Nitroreductase (PF00881)
"Nitroreductase family"</title>
				<polygon class="PF00881" points="35,40 44,28 51,28 51,52 44,52" stroke-linejoin="round" width="18" height="24" fill="rgb(79,118,187)" stroke="rgb(63,94,149)" stroke-width="1" opacity="0.75" />
			</g>
		</g>
		<g>
			<title> (CDOIENLM_00526)
hypothetical protein</title>
			<polygon class=" (CDOIENLM_00526)
hypothetical protein" points="58,40 79,10 79,70" fill="rgb(255,255,255)" fill-opacity="1.0" stroke="rgb(0,0,0)" stroke-width="2"  />
		</g>
		<g>
			<title>ybiT_1 (CDOIENLM_00527)
putative ABC transporter ATP-binding protein YbiT</title>
			<polygon class="ybiT_1 (CDOIENLM_00527)
putative ABC transporter ATP-binding protein YbiT" points="135,25 114,25 114,10 84,40 114,70 114,55 135,55" fill="rgb(255,255,255)" fill-opacity="1.0" stroke="rgb(0,0,0)" stroke-width="2"  />
			<g>
				<title>ABC_tran (PF00005)
"ABC transporter"</title>
				<polygon class="PF00005" points="89,39 100,28 101,28 101,52 100,52 89,41" stroke-linejoin="round" width="12" height="24" fill="rgb(129,201,63)" stroke="rgb(103,160,50)" stroke-width="1" opacity="0.75" />
			</g>
			<g>
				<title>ABC_tran_Xtn (PF12848)
"ABC transporter"</title>
				<rect class="PF12848" x="104" y="28" stroke-linejoin="round" width="8" height="24" fill="rgb(54,177,199)" stroke="rgb(43,141,159)" stroke-width="1" opacity="0.75" />
			</g>
			<g>
				<title>ABC_tran (PF00005)
"ABC transporter"</title>
				<rect class="PF00005" x="116" y="28" stroke-linejoin="round" width="17" height="24" fill="rgb(129,201,63)" stroke="rgb(103,160,50)" stroke-width="1" opacity="0.75" />
			</g>
		</g>
		<g>
			<title>trxB_1 (CDOIENLM_00528)
Thioredoxin reductase</title>
			<polygon class="trxB_1 (CDOIENLM_00528)
Thioredoxin reductase" points="139,10 168,40 139,70" fill="rgb(255,255,255)" fill-opacity="1.0" stroke="rgb(0,0,0)" stroke-width="2"  />
			<g>
				<title>Pyr_redox_2 (PF07992)
"Pyridine nucleotide-disulphide oxidoreductase"</title>
				<polygon class="PF07992" points="139,28 152,28 164,40 152,52 139,52" stroke-linejoin="round" width="27" height="24" fill="rgb(83,223,167)" stroke="rgb(66,178,133)" stroke-width="1" opacity="0.75" />
			</g>
		</g>
		<g>
			<title>nhaP2_1 (CDOIENLM_00529)
K(+)/H(+) antiporter NhaP2</title>
			<polygon class="nhaP2_1 (CDOIENLM_00529)
K(+)/H(+) antiporter NhaP2" points="175,25 195,25 195,10 225,40 195,70 195,55 175,55" fill="rgb(255,255,255)" fill-opacity="1.0" stroke="rgb(0,0,0)" stroke-width="2"  />
			<g>
				<title>Na_H_Exchanger (PF00999)
"Sodium/hydrogen exchanger family"</title>
				<polygon class="PF00999" points="176,28 209,28 214,33 214,47 209,52 176,52" stroke-linejoin="round" width="38" height="24" fill="rgb(229,67,191)" stroke="rgb(183,53,152)" stroke-width="1" opacity="0.75" />
			</g>
			<g>
				<title>TrkA_C (PF02080)
"TrkA-C domain"</title>
				<polygon class="PF02080" points="216,35 221,40 216,45" stroke-linejoin="round" width="6" height="24" fill="rgb(76,186,211)" stroke="rgb(60,148,168)" stroke-width="1" opacity="0.75" />
			</g>
		</g>
		<g>
			<title> (CDOIENLM_00530)
hypothetical protein</title>
			<polygon class=" (CDOIENLM_00530)
hypothetical protein" points="228,40 235,10 235,70" fill="rgb(255,255,255)" fill-opacity="1.0" stroke="rgb(0,0,0)" stroke-width="2"  />
		</g>
		<g>
			<title> (CDOIENLM_00531)
hypothetical protein</title>
			<polygon class=" (CDOIENLM_00531)
hypothetical protein" points="242,10 256,40 242,70" fill="rgb(255,255,255)" fill-opacity="1.0" stroke="rgb(0,0,0)" stroke-width="2"  />
			<g>
				<title>DMT_YdcZ (PF04657)
"Putative inner membrane exporter, YdcZ"</title>
				<polygon class="PF04657" points="242,28 247,28 252,40 247,52 242,52" stroke-linejoin="round" width="13" height="24" fill="rgb(63,139,178)" stroke="rgb(50,111,142)" stroke-width="1" opacity="0.75" />
			</g>
		</g>
		<g>
			<title>yeiL (CDOIENLM_00532)
Regulatory protein YeiL</title>
			<polygon class="yeiL (CDOIENLM_00532)
Regulatory protein YeiL" points="257,10 280,40 257,70" fill="rgb(255,255,255)" fill-opacity="1.0" stroke="rgb(0,0,0)" stroke-width="2"  />
			<g>
				<title>cNMP_binding (PF00027)
"Cyclic nucleotide-binding domain"</title>
				<polygon class="PF00027" points="260,28 267,28 268,30 268,50 267,52 260,52" stroke-linejoin="round" width="8" height="24" fill="rgb(138,95,204)" stroke="rgb(110,76,163)" stroke-width="1" opacity="0.75" />
			</g>
			<g>
				<title>HTH_Crp_2 (PF13545)
"Crp-like helix-turn-helix domain"</title>
				<polygon class="PF13545" points="272,35 276,40 272,45" stroke-linejoin="round" width="7" height="24" fill="rgb(87,137,202)" stroke="rgb(69,109,161)" stroke-width="1" opacity="0.75" />
			</g>
		</g>
		<g>
			<title> (CDOIENLM_00533)
hypothetical protein</title>
			<polygon class=" (CDOIENLM_00533)
hypothetical protein" points="280,10 295,40 280,70" fill="rgb(255,255,255)" fill-opacity="1.0" stroke="rgb(0,0,0)" stroke-width="2"  />
			<g>
				<title>DMT_YdcZ (PF04657)
"Putative inner membrane exporter, YdcZ"</title>
				<polygon class="PF04657" points="280,28 286,28 292,40 286,52 280,52" stroke-linejoin="round" width="13" height="24" fill="rgb(63,139,178)" stroke="rgb(50,111,142)" stroke-width="1" opacity="0.75" />
			</g>
		</g>
		<g>
			<title> (CDOIENLM_00534)
hypothetical protein</title>
			<polygon class=" (CDOIENLM_00534)
hypothetical protein" points="297,40 326,10 326,70" fill="rgb(255,255,255)" fill-opacity="1.0" stroke="rgb(0,0,0)" stroke-width="2"  />
			<g>
				<title>Mn_catalase (PF05067)
"Manganese containing catalase"</title>
				<polygon class="PF05067" points="301,40 313,28 326,28 326,52 313,52" stroke-linejoin="round" width="29" height="24" fill="rgb(59,189,89)" stroke="rgb(47,151,71)" stroke-width="1" opacity="0.75" />
			</g>
		</g>
		<g>
			<title> (CDOIENLM_00535)
hypothetical protein</title>
			<polygon class=" (CDOIENLM_00535)
hypothetical protein" points="327,40 334,10 334,70" fill="rgb(255,255,255)" fill-opacity="1.0" stroke="rgb(0,0,0)" stroke-width="2"  />
			<g>
				<title>DUF2642 (PF10842)
"Protein of unknown function (DUF2642)"</title>
				<polygon class="PF10842" points="330,40 333,28 333,28 333,52 333,52" stroke-linejoin="round" width="6" height="24" fill="rgb(204,85,172)" stroke="rgb(163,68,137)" stroke-width="1" opacity="0.75" />
			</g>
		</g>
		<g>
			<title>sqhC (CDOIENLM_00536)
Sporulenol synthase</title>
			<polygon class="sqhC (CDOIENLM_00536)
Sporulenol synthase" points="404,25 373,25 373,10 343,40 373,70 373,55 404,55" fill="rgb(255,255,255)" fill-opacity="1.0" stroke="rgb(0,0,0)" stroke-width="2"  />
			<g>
				<title>SQHop_cyclase_C (PF13243)
"Squalene-hopene cyclase C-terminal domain"</title>
				<polygon class="PF13243" points="347,40 359,28 374,28 374,52 359,52" stroke-linejoin="round" width="31" height="24" fill="rgb(191,58,201)" stroke="rgb(152,46,160)" stroke-width="1" opacity="0.75" />
			</g>
			<g>
				<title>SQHop_cyclase_N (PF13249)
"Squalene-hopene cyclase N-terminal domain"</title>
				<rect class="PF13249" x="375" y="28" stroke-linejoin="round" width="28" height="24" fill="rgb(88,190,89)" stroke="rgb(70,152,71)" stroke-width="1" opacity="0.75" />
			</g>
		</g>
		<g>
			<title>resA_1 (CDOIENLM_00537)
Thiol-disulfide oxidoreductase ResA</title>
			<polygon class="resA_1 (CDOIENLM_00537)
Thiol-disulfide oxidoreductase ResA" points="408,40 424,10 424,70" fill="rgb(255,255,255)" fill-opacity="1.0" stroke="rgb(0,0,0)" stroke-width="2"  />
			<g>
				<title>AhpC-TSA (PF00578)
"AhpC/TSA family"</title>
				<polygon class="PF00578" points="411,40 418,28 423,28 423,52 418,52" stroke-linejoin="round" width="13" height="24" fill="rgb(166,71,190)" stroke="rgb(132,56,152)" stroke-width="1" opacity="0.75" />
			</g>
		</g>
		<g>
			<title> (CDOIENLM_00538)
hypothetical protein</title>
			<polygon class=" (CDOIENLM_00538)
hypothetical protein" points="434,10 454,40 434,70" fill="rgb(255,255,255)" fill-opacity="1.0" stroke="rgb(0,0,0)" stroke-width="2"  />
		</g>
		<g>
			<title> (CDOIENLM_00539)
hypothetical protein</title>
			<polygon class=" (CDOIENLM_00539)
hypothetical protein" points="456,10 470,40 456,70" fill="rgb(255,255,255)" fill-opacity="1.0" stroke="rgb(0,0,0)" stroke-width="2"  />
		</g>
		<g>
			<title> (CDOIENLM_00540)
hypothetical protein</title>
			<polygon class=" (CDOIENLM_00540)
hypothetical protein" points="471,10 477,40 471,70" fill="rgb(255,255,255)" fill-opacity="1.0" stroke="rgb(0,0,0)" stroke-width="2"  />
		</g>
		<g>
			<title> (CDOIENLM_00541)
hypothetical protein</title>
			<polygon class=" (CDOIENLM_00541)
hypothetical protein" points="478,10 488,40 478,70" fill="rgb(255,255,255)" fill-opacity="1.0" stroke="rgb(0,0,0)" stroke-width="2"  />
		</g>
		<g>
			<title> (CDOIENLM_00542)
hypothetical protein</title>
			<polygon class=" (CDOIENLM_00542)
hypothetical protein" points="488,10 502,40 488,70" fill="rgb(255,255,255)" fill-opacity="1.0" stroke="rgb(0,0,0)" stroke-width="2"  />
			<g>
				<title>Acetyltransf_1 (PF00583)
"Acetyltransferase (GNAT) family"</title>
				<polygon class="PF00583" points="488,28 493,28 499,40 493,52 488,52" stroke-linejoin="round" width="12" height="24" fill="rgb(121,183,50)" stroke="rgb(96,146,39)" stroke-width="1" opacity="0.75" />
			</g>
		</g>
		<g>
			<title> (CDOIENLM_00543)
hypothetical protein</title>
			<polygon class=" (CDOIENLM_00543)
hypothetical protein" points="508,40 520,10 520,70" fill="rgb(255,255,255)" fill-opacity="1.0" stroke="rgb(0,0,0)" stroke-width="2"  />
			<g>
				<title>Glyoxalase (PF00903)
"Glyoxalase/Bleomycin resistance protein/Dioxygenase superfamily"</title>
				<polygon class="PF00903" points="511,40 516,28 518,28 518,52 516,52" stroke-linejoin="round" width="10" height="24" fill="rgb(50,162,189)" stroke="rgb(40,129,151)" stroke-width="1" opacity="0.75" />
			</g>
		</g>
		<g>
			<title>bmrR (CDOIENLM_00544)
Multidrug-efflux transporter 1 regulator</title>
			<polygon class="bmrR (CDOIENLM_00544)
Multidrug-efflux transporter 1 regulator" points="528,10 539,40 528,70" fill="rgb(255,255,255)" fill-opacity="1.0" stroke="rgb(0,0,0)" stroke-width="2"  />
			<g>
				<title>MerR_1 (PF13411)
"MerR HTH family regulatory protein"</title>
				<polygon class="PF13411" points="528,28 531,28 535,37 535,43 531,52 528,52" stroke-linejoin="round" width="7" height="24" fill="rgb(100,202,107)" stroke="rgb(80,161,85)" stroke-width="1" opacity="0.75" />
			</g>
		</g>
		<g>
			<title> (CDOIENLM_00545)
hypothetical protein</title>
			<polygon class=" (CDOIENLM_00545)
hypothetical protein" points="540,10 555,40 540,70" fill="rgb(255,255,255)" fill-opacity="1.0" stroke="rgb(0,0,0)" stroke-width="2"  />
			<g>
				<title>Polyketide_cyc2 (PF10604)
"Polyketide cyclase / dehydrase and lipid transport"</title>
				<polygon class="PF10604" points="540,28 545,28 551,40 545,52 540,52" stroke-linejoin="round" width="14" height="24" fill="rgb(105,204,74)" stroke="rgb(84,163,59)" stroke-width="1" opacity="0.75" />
			</g>
		</g>
		<g>
			<title> (CDOIENLM_00546)
hypothetical protein</title>
			<polygon class=" (CDOIENLM_00546)
hypothetical protein" points="559,10 588,40 559,70" fill="rgb(255,255,255)" fill-opacity="1.0" stroke="rgb(0,0,0)" stroke-width="2"  />
			<g>
				<title>Cupin_2 (PF07883)
"Cupin domain"</title>
				<polygon class="PF07883" points="578,34 584,40 578,46" stroke-linejoin="round" width="7" height="24" fill="rgb(211,192,74)" stroke="rgb(168,153,59)" stroke-width="1" opacity="0.75" />
			</g>
		</g>
		<g>
			<title> (CDOIENLM_00547)
hypothetical protein</title>
			<polygon class=" (CDOIENLM_00547)
hypothetical protein" points="596,10 608,40 596,70" fill="rgb(255,255,255)" fill-opacity="1.0" stroke="rgb(0,0,0)" stroke-width="2"  />
		</g>
		<g>
			<title> (CDOIENLM_00548)
hypothetical protein</title>
			<polygon class=" (CDOIENLM_00548)
hypothetical protein" points="616,25 621,25 621,10 651,40 621,70 621,55 616,55" fill="rgb(255,255,255)" fill-opacity="1.0" stroke="rgb(0,0,0)" stroke-width="2"  />
		</g>
		<g>
			<title> (CDOIENLM_00549)
hypothetical protein</title>
			<polygon class=" (CDOIENLM_00549)
hypothetical protein" points="651,25 668,25 668,10 698,40 668,70 668,55 651,55" fill="rgb(255,255,255)" fill-opacity="1.0" stroke="rgb(0,0,0)" stroke-width="2"  />
			<g>
				<title>Glyco_tranf_2_3 (PF13641)
"Glycosyltransferase like family 2"</title>
				<polygon class="PF13641" points="657,28 682,28 683,29 683,51 682,52 657,52" stroke-linejoin="round" width="26" height="24" fill="rgb(140,74,190)" stroke="rgb(111,59,152)" stroke-width="1" opacity="0.75" />
			</g>
		</g>
		<g>
			<title> (CDOIENLM_00550)
hypothetical protein</title>
			<polygon class=" (CDOIENLM_00550)
hypothetical protein" points="701,10 716,40 701,70" fill="rgb(255,255,255)" fill-opacity="1.0" stroke="rgb(0,0,0)" stroke-width="2"  />
			<g>
				<title>Cass2 (PF14526)
"Integron-associated effector binding protein"</title>
				<polygon class="PF14526" points="701,28 706,28 713,40 706,52 701,52" stroke-linejoin="round" width="15" height="24" fill="rgb(57,73,185)" stroke="rgb(45,58,148)" stroke-width="1" opacity="0.75" />
			</g>
		</g>
	</g>
</svg>
