<svg version="1.1" baseProfile="full" xmlns="http://www.w3.org/2000/svg" width="536.2333333333333" height="80">
	<g>
		<line x1="10" y1="40.0" x2="526.2333333333333" y2="40.0" style="stroke:rgb(70,70,70); stroke-width:3 "/>
		<g>
			<title> (CKNNHCHG_00479)
hypothetical protein</title>
			<polygon class=" (CKNNHCHG_00479)
hypothetical protein" points="58,10 78,40 58,70" fill="rgb(255,255,255)" fill-opacity="1.0" stroke="rgb(0,0,0)" stroke-width="2"  />
			<g>
				<title>DUF421 (PF04239)
"Protein of unknown function (DUF421)"</title>
				<polygon class="PF04239" points="66,28 66,28 74,40 66,52 66,52" stroke-linejoin="round" width="11" height="24" fill="rgb(165,197,85)" stroke="rgb(132,157,68)" stroke-width="1" opacity="0.75" />
			</g>
		</g>
		<g>
			<title>dus (CKNNHCHG_00480)
putative tRNA-dihydrouridine synthase</title>
			<polygon class="dus (CKNNHCHG_00480)
putative tRNA-dihydrouridine synthase" points="94,25 100,25 100,10 130,40 100,70 100,55 94,55" fill="rgb(255,255,255)" fill-opacity="1.0" stroke="rgb(0,0,0)" stroke-width="2"  />
			<g>
				<title>Dus (PF01207)
"Dihydrouridine synthase (Dus)"</title>
				<polygon class="PF01207" points="98,28 113,28 125,40 113,52 98,52" stroke-linejoin="round" width="30" height="24" fill="rgb(178,84,152)" stroke="rgb(142,67,121)" stroke-width="1" opacity="0.75" />
			</g>
		</g>
		<g>
			<title>lysC (CKNNHCHG_00481)
Aspartokinase</title>
			<polygon class="lysC (CKNNHCHG_00481)
Aspartokinase" points="175,25 165,25 165,10 135,40 165,70 165,55 175,55" fill="rgb(255,255,255)" fill-opacity="1.0" stroke="rgb(0,0,0)" stroke-width="2"  />
			<g>
				<title>AA_kinase (PF00696)
"Amino acid kinase family"</title>
				<rect class="PF00696" x="152" y="28" stroke-linejoin="round" width="22" height="24" fill="rgb(148,78,224)" stroke="rgb(118,62,179)" stroke-width="1" opacity="0.75" />
			</g>
		</g>
		<g>
			<title>iucC (CKNNHCHG_00482)
Aerobactin synthase</title>
			<polygon class="iucC (CKNNHCHG_00482)
Aerobactin synthase" points="237,25 206,25 206,10 176,40 206,70 206,55 237,55" fill="rgb(255,255,255)" fill-opacity="1.0" stroke="rgb(0,0,0)" stroke-width="2"  />
			<g>
				<title>FhuF (PF06276)
"Ferric iron reductase FhuF-like transporter"</title>
				<polygon class="PF06276" points="180,40 192,28 194,28 194,52 192,52" stroke-linejoin="round" width="16" height="24" fill="rgb(76,151,221)" stroke="rgb(60,120,176)" stroke-width="1" opacity="0.75" />
			</g>
			<g>
				<title>IucA_IucC (PF04183)
"IucA / IucC family"</title>
				<rect class="PF04183" x="197" y="28" stroke-linejoin="round" width="25" height="24" fill="rgb(221,104,121)" stroke="rgb(176,83,96)" stroke-width="1" opacity="0.75" />
			</g>
		</g>
		<g>
			<title>iucD_1 (CKNNHCHG_00483)
L-lysine N6-monooxygenase</title>
			<polygon class="iucD_1 (CKNNHCHG_00483)
L-lysine N6-monooxygenase" points="281,25 267,25 267,10 237,40 267,70 267,55 281,55" fill="rgb(255,255,255)" fill-opacity="1.0" stroke="rgb(0,0,0)" stroke-width="2"  />
			<g>
				<title>K_oxygenase (PF13434)
"L-lysine 6-monooxygenase (NADPH-requiring)"</title>
				<polygon class="PF13434" points="247,34 253,28 281,28 281,52 253,52 247,46" stroke-linejoin="round" width="34" height="24" fill="rgb(81,213,119)" stroke="rgb(64,170,95)" stroke-width="1" opacity="0.75" />
			</g>
		</g>
		<g>
			<title>iucB (CKNNHCHG_00484)
N(6)-hydroxylysine O-acetyltransferase</title>
			<polygon class="iucB (CKNNHCHG_00484)
N(6)-hydroxylysine O-acetyltransferase" points="281,40 300,10 300,70" fill="rgb(255,255,255)" fill-opacity="1.0" stroke="rgb(0,0,0)" stroke-width="2"  />
			<g>
				<title>Acetyltransf_8 (PF13523)
"Acetyltransferase (GNAT) domain"</title>
				<polygon class="PF13523" points="285,40 293,28 297,28 297,52 293,52" stroke-linejoin="round" width="14" height="24" fill="rgb(106,224,203)" stroke="rgb(84,179,162)" stroke-width="1" opacity="0.75" />
			</g>
		</g>
		<g>
			<title>iucA (CKNNHCHG_00485)
N(2)-citryl-N(6)-acetyl-N(6)-hydroxylysine synthase</title>
			<polygon class="iucA (CKNNHCHG_00485)
N(2)-citryl-N(6)-acetyl-N(6)-hydroxylysine synthase" points="359,25 330,25 330,10 300,40 330,70 330,55 359,55" fill="rgb(255,255,255)" fill-opacity="1.0" stroke="rgb(0,0,0)" stroke-width="2"  />
			<g>
				<title>FhuF (PF06276)
"Ferric iron reductase FhuF-like transporter"</title>
				<polygon class="PF06276" points="304,40 316,28 317,28 317,52 316,52" stroke-linejoin="round" width="15" height="24" fill="rgb(76,151,221)" stroke="rgb(60,120,176)" stroke-width="1" opacity="0.75" />
			</g>
			<g>
				<title>IucA_IucC (PF04183)
"IucA / IucC family"</title>
				<rect class="PF04183" x="321" y="28" stroke-linejoin="round" width="23" height="24" fill="rgb(221,104,121)" stroke="rgb(176,83,96)" stroke-width="1" opacity="0.75" />
			</g>
		</g>
		<g>
			<title>ddc (CKNNHCHG_00486)
L-2,4-diaminobutyrate decarboxylase</title>
			<polygon class="ddc (CKNNHCHG_00486)
L-2,4-diaminobutyrate decarboxylase" points="409,25 389,25 389,10 359,40 389,70 389,55 409,55" fill="rgb(255,255,255)" fill-opacity="1.0" stroke="rgb(0,0,0)" stroke-width="2"  />
			<g>
				<title>Pyridoxal_deC (PF00282)
"Pyridoxal-dependent decarboxylase conserved domain"</title>
				<polygon class="PF00282" points="366,37 375,28 403,28 403,52 375,52 366,43" stroke-linejoin="round" width="37" height="24" fill="rgb(100,218,166)" stroke="rgb(80,174,132)" stroke-width="1" opacity="0.75" />
			</g>
		</g>
		<g>
			<title>dat_1 (CKNNHCHG_00487)
Diaminobutyrate--2-oxoglutarate aminotransferase</title>
			<polygon class="dat_1 (CKNNHCHG_00487)
Diaminobutyrate--2-oxoglutarate aminotransferase" points="454,25 439,25 439,10 409,40 439,70 439,55 454,55" fill="rgb(255,255,255)" fill-opacity="1.0" stroke="rgb(0,0,0)" stroke-width="2"  />
			<g>
				<title>Aminotran_3 (PF00202)
"Aminotransferase class-III"</title>
				<polygon class="PF00202" points="413,40 425,28 451,28 451,52 425,52" stroke-linejoin="round" width="42" height="24" fill="rgb(49,163,189)" stroke="rgb(39,130,151)" stroke-width="1" opacity="0.75" />
			</g>
		</g>
		<g>
			<title>rlmH (CKNNHCHG_00488)
Ribosomal RNA large subunit methyltransferase H</title>
			<polygon class="rlmH (CKNNHCHG_00488)
Ribosomal RNA large subunit methyltransferase H" points="478,40 494,10 494,70" fill="rgb(255,255,255)" fill-opacity="1.0" stroke="rgb(0,0,0)" stroke-width="2"  />
			<g>
				<title>SPOUT_MTase (PF02590)
"Predicted SPOUT methyltransferase"</title>
				<polygon class="PF02590" points="481,40 487,28 493,28 493,52 487,52" stroke-linejoin="round" width="15" height="24" fill="rgb(187,85,81)" stroke="rgb(149,67,64)" stroke-width="1" opacity="0.75" />
			</g>
		</g>
	</g>
</svg>
