<svg version="1.1" baseProfile="full" xmlns="http://www.w3.org/2000/svg" width="1389.5333333333333" height="80">
	<g>
		<line x1="10" y1="40.0" x2="1379.5333333333333" y2="40.0" style="stroke:rgb(70,70,70); stroke-width:3 "/>
		<g>
			<title> (PDEEBABA_00591)
hypothetical protein</title>
			<polygon class=" (PDEEBABA_00591)
hypothetical protein" points="73,10 78,40 73,70" fill="rgb(255,255,255)" fill-opacity="1.0" stroke="rgb(0,0,0)" stroke-width="2"  />
		</g>
		<g>
			<title> (PDEEBABA_00592)
hypothetical protein</title>
			<polygon class=" (PDEEBABA_00592)
hypothetical protein" points="78,10 96,40 78,70" fill="rgb(255,255,255)" fill-opacity="1.0" stroke="rgb(0,0,0)" stroke-width="2"  />
			<g>
				<title>DUF5590 (PF17881)
"Domain of unknown function (DUF5590)"</title>
				<polygon class="PF17881" points="83,28 85,28 87,31 87,49 85,52 83,52" stroke-linejoin="round" width="4" height="24" fill="rgb(77,212,144)" stroke="rgb(61,169,115)" stroke-width="1" opacity="0.75" />
			</g>
		</g>
		<g>
			<title> (PDEEBABA_00593)
Aspartate aminotransferase</title>
			<polygon class=" (PDEEBABA_00593)
Aspartate aminotransferase" points="96,25 105,25 105,10 135,40 105,70 105,55 96,55" fill="rgb(255,255,255)" fill-opacity="1.0" stroke="rgb(0,0,0)" stroke-width="2"  />
			<g>
				<title>Aminotran_1_2 (PF00155)
"Aminotransferase class I and II"</title>
				<polygon class="PF00155" points="99,28 119,28 131,40 119,52 99,52" stroke-linejoin="round" width="35" height="24" fill="rgb(89,113,198)" stroke="rgb(71,90,158)" stroke-width="1" opacity="0.75" />
			</g>
		</g>
		<g>
			<title>asnS (PDEEBABA_00594)
Asparagine--tRNA ligase</title>
			<polygon class="asnS (PDEEBABA_00594)
Asparagine--tRNA ligase" points="136,25 149,25 149,10 179,40 149,70 149,55 136,55" fill="rgb(255,255,255)" fill-opacity="1.0" stroke="rgb(0,0,0)" stroke-width="2"  />
			<g>
				<title>tRNA_anti-codon (PF01336)
"OB-fold nucleic acid binding domain"</title>
				<rect class="PF01336" x="137" y="28" stroke-linejoin="round" width="7" height="24" fill="rgb(215,103,173)" stroke="rgb(172,82,138)" stroke-width="1" opacity="0.75" />
			</g>
			<g>
				<title>tRNA-synt_2 (PF00152)
"tRNA synthetases class II (D, K and N)"</title>
				<polygon class="PF00152" points="146,28 162,28 174,40 162,52 146,52" stroke-linejoin="round" width="31" height="24" fill="rgb(90,71,190)" stroke="rgb(72,56,152)" stroke-width="1" opacity="0.75" />
			</g>
		</g>
		<g>
			<title>dnaD (PDEEBABA_00595)
DNA replication protein DnaD</title>
			<polygon class="dnaD (PDEEBABA_00595)
DNA replication protein DnaD" points="182,10 205,40 182,70" fill="rgb(255,255,255)" fill-opacity="1.0" stroke="rgb(0,0,0)" stroke-width="2"  />
			<g>
				<title>DnaB_2 (PF07261)
"Replication initiation and membrane attachment"</title>
				<polygon class="PF07261" points="194,31 201,40 201,40 194,49" stroke-linejoin="round" width="7" height="24" fill="rgb(136,193,85)" stroke="rgb(108,154,68)" stroke-width="1" opacity="0.75" />
			</g>
		</g>
		<g>
			<title>nth_1 (PDEEBABA_00596)
Endonuclease III</title>
			<polygon class="nth_1 (PDEEBABA_00596)
Endonuclease III" points="206,10 227,40 206,70" fill="rgb(255,255,255)" fill-opacity="1.0" stroke="rgb(0,0,0)" stroke-width="2"  />
			<g>
				<title>HhH-GPD (PF00730)
"HhH-GPD superfamily base excision DNA repair protein"</title>
				<polygon class="PF00730" points="209,28 215,28 222,38 222,42 215,52 209,52" stroke-linejoin="round" width="13" height="24" fill="rgb(190,78,115)" stroke="rgb(152,62,92)" stroke-width="1" opacity="0.75" />
			</g>
		</g>
		<g>
			<title>ponA (PDEEBABA_00597)
Penicillin-binding protein 1A/1B</title>
			<polygon class="ponA (PDEEBABA_00597)
Penicillin-binding protein 1A/1B" points="319,25 259,25 259,10 229,40 259,70 259,55 319,55" fill="rgb(255,255,255)" fill-opacity="1.0" stroke="rgb(0,0,0)" stroke-width="2"  />
			<g>
				<title>fn3 (PF00041)
"Fibronectin type III domain"</title>
				<polygon class="PF00041" points="242,31 245,28 249,28 249,52 245,52 242,49" stroke-linejoin="round" width="7" height="24" fill="rgb(203,70,135)" stroke="rgb(162,56,107)" stroke-width="1" opacity="0.75" />
			</g>
			<g>
				<title>Transpeptidase (PF00905)
"Penicillin binding protein transpeptidase domain"</title>
				<rect class="PF00905" x="257" y="28" stroke-linejoin="round" width="27" height="24" fill="rgb(161,226,87)" stroke="rgb(128,180,69)" stroke-width="1" opacity="0.75" />
			</g>
			<g>
				<title>Transgly (PF00912)
"Transglycosylase"</title>
				<rect class="PF00912" x="293" y="28" stroke-linejoin="round" width="17" height="24" fill="rgb(172,107,216)" stroke="rgb(137,85,172)" stroke-width="1" opacity="0.75" />
			</g>
		</g>
		<g>
			<title>recU (PDEEBABA_00598)
Holliday junction resolvase RecU</title>
			<polygon class="recU (PDEEBABA_00598)
Holliday junction resolvase RecU" points="320,40 339,10 339,70" fill="rgb(255,255,255)" fill-opacity="1.0" stroke="rgb(0,0,0)" stroke-width="2"  />
			<g>
				<title>RecU (PF03838)
"Recombination protein U"</title>
				<polygon class="PF03838" points="324,40 332,28 336,28 336,52 332,52" stroke-linejoin="round" width="16" height="24" fill="rgb(93,204,83)" stroke="rgb(74,163,66)" stroke-width="1" opacity="0.75" />
			</g>
		</g>
		<g>
			<title> (PDEEBABA_00599)
hypothetical protein</title>
			<polygon class=" (PDEEBABA_00599)
hypothetical protein" points="349,40 352,10 352,70" fill="rgb(255,255,255)" fill-opacity="1.0" stroke="rgb(0,0,0)" stroke-width="2"  />
		</g>
		<g>
			<title>racA (PDEEBABA_00600)
Chromosome-anchoring protein RacA</title>
			<polygon class="racA (PDEEBABA_00600)
Chromosome-anchoring protein RacA" points="357,10 366,40 357,70" fill="rgb(255,255,255)" fill-opacity="1.0" stroke="rgb(0,0,0)" stroke-width="2"  />
		</g>
		<g>
			<title> (PDEEBABA_00601)
hypothetical protein</title>
			<polygon class=" (PDEEBABA_00601)
hypothetical protein" points="368,10 379,40 368,70" fill="rgb(255,255,255)" fill-opacity="1.0" stroke="rgb(0,0,0)" stroke-width="2"  />
			<g>
				<title>DUF1798 (PF08807)
"Bacterial domain of unknown function (DUF1798)"</title>
				<polygon class="PF08807" points="368,28 371,28 376,40 371,52 368,52" stroke-linejoin="round" width="10" height="24" fill="rgb(153,201,81)" stroke="rgb(122,160,64)" stroke-width="1" opacity="0.75" />
			</g>
		</g>
		<g>
			<title>cdd (PDEEBABA_00602)
Cytidine deaminase</title>
			<polygon class="cdd (PDEEBABA_00602)
Cytidine deaminase" points="382,10 397,40 382,70" fill="rgb(255,255,255)" fill-opacity="1.0" stroke="rgb(0,0,0)" stroke-width="2"  />
			<g>
				<title>dCMP_cyt_deam_1 (PF00383)
"Cytidine and deoxycytidylate deaminase zinc-binding region"</title>
				<polygon class="PF00383" points="384,28 388,28 394,40 394,40 388,52 384,52" stroke-linejoin="round" width="10" height="24" fill="rgb(91,149,216)" stroke="rgb(72,119,172)" stroke-width="1" opacity="0.75" />
			</g>
		</g>
		<g>
			<title> (PDEEBABA_00603)
IS1182 family transposase IS663</title>
			<polygon class=" (PDEEBABA_00603)
IS1182 family transposase IS663" points="454,25 429,25 429,10 399,40 429,70 429,55 454,55" fill="rgb(255,255,255)" fill-opacity="1.0" stroke="rgb(0,0,0)" stroke-width="2"  />
			<g>
				<title>DDE_Tnp_1_6 (PF13751)
"Transposase DDE domain"</title>
				<polygon class="PF13751" points="403,40 414,29 414,51" stroke-linejoin="round" width="12" height="24" fill="rgb(51,201,77)" stroke="rgb(40,160,61)" stroke-width="1" opacity="0.75" />
			</g>
			<g>
				<title>DUF772 (PF05598)
"Transposase domain (DUF772)"</title>
				<rect class="PF05598" x="442" y="28" stroke-linejoin="round" width="7" height="24" fill="rgb(221,202,107)" stroke="rgb(176,161,85)" stroke-width="1" opacity="0.75" />
			</g>
		</g>
		<g>
			<title> (PDEEBABA_00604)
hypothetical protein</title>
			<polygon class=" (PDEEBABA_00604)
hypothetical protein" points="464,10 475,40 464,70" fill="rgb(255,255,255)" fill-opacity="1.0" stroke="rgb(0,0,0)" stroke-width="2"  />
			<g>
				<title>Spore-coat_CotD (PF11122)
"Inner spore coat protein D"</title>
				<polygon class="PF11122" points="465,28 467,28 472,40 467,52 465,52" stroke-linejoin="round" width="9" height="24" fill="rgb(221,153,69)" stroke="rgb(176,122,55)" stroke-width="1" opacity="0.75" />
			</g>
		</g>
		<g>
			<title> (PDEEBABA_00605)
hypothetical protein</title>
			<polygon class=" (PDEEBABA_00605)
hypothetical protein" points="479,10 497,40 479,70" fill="rgb(255,255,255)" fill-opacity="1.0" stroke="rgb(0,0,0)" stroke-width="2"  />
			<g>
				<title>YpsA (PF06908)
"YspA SLOG family"</title>
				<polygon class="PF06908" points="479,28 486,28 494,40 486,52 479,52" stroke-linejoin="round" width="16" height="24" fill="rgb(136,100,209)" stroke="rgb(108,80,167)" stroke-width="1" opacity="0.75" />
			</g>
		</g>
		<g>
			<title>gpsB (PDEEBABA_00606)
Cell cycle protein GpsB</title>
			<polygon class="gpsB (PDEEBABA_00606)
Cell cycle protein GpsB" points="500,10 510,40 500,70" fill="rgb(255,255,255)" fill-opacity="1.0" stroke="rgb(0,0,0)" stroke-width="2"  />
			<g>
				<title>DivIVA (PF05103)
"DivIVA protein"</title>
				<polygon class="PF05103" points="500,28 502,28 506,36 506,44 502,52 500,52" stroke-linejoin="round" width="6" height="24" fill="rgb(213,106,117)" stroke="rgb(170,84,93)" stroke-width="1" opacity="0.75" />
			</g>
		</g>
		<g>
			<title>rlmL (PDEEBABA_00607)
Ribosomal RNA large subunit methyltransferase L</title>
			<polygon class="rlmL (PDEEBABA_00607)
Ribosomal RNA large subunit methyltransferase L" points="536,25 544,25 544,10 574,40 544,70 544,55 536,55" fill="rgb(255,255,255)" fill-opacity="1.0" stroke="rgb(0,0,0)" stroke-width="2"  />
			<g>
				<title>THUMP (PF02926)
"THUMP domain"</title>
				<rect class="PF02926" x="537" y="28" stroke-linejoin="round" width="14" height="24" fill="rgb(52,209,163)" stroke="rgb(41,167,130)" stroke-width="1" opacity="0.75" />
			</g>
			<g>
				<title>UPF0020 (PF01170)
"Putative RNA methylase family UPF0020"</title>
				<polygon class="PF01170" points="552,28 557,28 569,40 557,52 552,52" stroke-linejoin="round" width="20" height="24" fill="rgb(89,182,69)" stroke="rgb(71,145,55)" stroke-width="1" opacity="0.75" />
			</g>
		</g>
		<g>
			<title>ypwA (PDEEBABA_00608)
Carboxypeptidase 1</title>
			<polygon class="ypwA (PDEEBABA_00608)
Carboxypeptidase 1" points="574,25 593,25 593,10 623,40 593,70 593,55 574,55" fill="rgb(255,255,255)" fill-opacity="1.0" stroke="rgb(0,0,0)" stroke-width="2"  />
			<g>
				<title>Peptidase_M32 (PF02074)
"Carboxypeptidase Taq (M32) metallopeptidase"</title>
				<polygon class="PF02074" points="574,28 607,28 619,40 607,52 574,52" stroke-linejoin="round" width="48" height="24" fill="rgb(213,142,93)" stroke="rgb(170,113,74)" stroke-width="1" opacity="0.75" />
			</g>
		</g>
		<g>
			<title> (PDEEBABA_00609)
hypothetical protein</title>
			<polygon class=" (PDEEBABA_00609)
hypothetical protein" points="626,40 644,10 644,70" fill="rgb(255,255,255)" fill-opacity="1.0" stroke="rgb(0,0,0)" stroke-width="2"  />
		</g>
		<g>
			<title>gno (PDEEBABA_00610)
Gluconate 5-dehydrogenase</title>
			<polygon class="gno (PDEEBABA_00610)
Gluconate 5-dehydrogenase" points="648,10 673,40 648,70" fill="rgb(255,255,255)" fill-opacity="1.0" stroke="rgb(0,0,0)" stroke-width="2"  />
			<g>
				<title>adh_short_C2 (PF13561)
"Enoyl-(Acyl carrier protein) reductase"</title>
				<polygon class="PF13561" points="649,28 659,28 669,40 659,52 649,52" stroke-linejoin="round" width="23" height="24" fill="rgb(73,205,127)" stroke="rgb(58,164,101)" stroke-width="1" opacity="0.75" />
			</g>
		</g>
		<g>
			<title>rppA (PDEEBABA_00611)
1,3,6,8-tetrahydroxynaphthalene synthase</title>
			<polygon class="rppA (PDEEBABA_00611)
1,3,6,8-tetrahydroxynaphthalene synthase" points="676,25 682,25 682,10 712,40 682,70 682,55 676,55" fill="rgb(255,255,255)" fill-opacity="1.0" stroke="rgb(0,0,0)" stroke-width="2"  />
			<g>
				<title>Chal_sti_synt_N (PF00195)
"Chalcone and stilbene synthases, N-terminal domain"</title>
				<polygon class="PF00195" points="676,28 695,28 696,29 696,51 695,52 676,52" stroke-linejoin="round" width="20" height="24" fill="rgb(60,181,161)" stroke="rgb(47,144,128)" stroke-width="1" opacity="0.75" />
			</g>
			<g>
				<title>Chal_sti_synt_C (PF02797)
"Chalcone and stilbene synthases, C-terminal domain"</title>
				<polygon class="PF02797" points="698,31 707,40 698,49" stroke-linejoin="round" width="13" height="24" fill="rgb(139,212,63)" stroke="rgb(111,169,50)" stroke-width="1" opacity="0.75" />
			</g>
		</g>
		<g>
			<title> (PDEEBABA_00612)
hypothetical protein</title>
			<polygon class=" (PDEEBABA_00612)
hypothetical protein" points="712,10 728,40 712,70" fill="rgb(255,255,255)" fill-opacity="1.0" stroke="rgb(0,0,0)" stroke-width="2"  />
			<g>
				<title>ICMT (PF04140)
"Isoprenylcysteine carboxyl methyltransferase (ICMT) family"</title>
				<polygon class="PF04140" points="719,29 725,40 719,51" stroke-linejoin="round" width="9" height="24" fill="rgb(100,223,104)" stroke="rgb(80,178,83)" stroke-width="1" opacity="0.75" />
			</g>
		</g>
		<g>
			<title> (PDEEBABA_00613)
hypothetical protein</title>
			<polygon class=" (PDEEBABA_00613)
hypothetical protein" points="732,10 736,40 732,70" fill="rgb(255,255,255)" fill-opacity="1.0" stroke="rgb(0,0,0)" stroke-width="2"  />
		</g>
		<g>
			<title> (PDEEBABA_00614)
hypothetical protein</title>
			<polygon class=" (PDEEBABA_00614)
hypothetical protein" points="741,10 751,40 741,70" fill="rgb(255,255,255)" fill-opacity="1.0" stroke="rgb(0,0,0)" stroke-width="2"  />
		</g>
		<g>
			<title>rnhA (PDEEBABA_00615)
14.7 kDa ribonuclease H-like protein</title>
			<polygon class="rnhA (PDEEBABA_00615)
14.7 kDa ribonuclease H-like protein" points="752,40 764,10 764,70" fill="rgb(255,255,255)" fill-opacity="1.0" stroke="rgb(0,0,0)" stroke-width="2"  />
			<g>
				<title>RNase_H (PF00075)
"RNase H"</title>
				<polygon class="PF00075" points="755,40 760,28 764,28 764,52 760,52" stroke-linejoin="round" width="12" height="24" fill="rgb(225,86,224)" stroke="rgb(180,68,179)" stroke-width="1" opacity="0.75" />
			</g>
		</g>
		<g>
			<title>cspB_1 (PDEEBABA_00616)
Cold shock protein CspB</title>
			<polygon class="cspB_1 (PDEEBABA_00616)
Cold shock protein CspB" points="774,40 780,10 780,70" fill="rgb(255,255,255)" fill-opacity="1.0" stroke="rgb(0,0,0)" stroke-width="2"  />
			<g>
				<title>CSD (PF00313)
"'Cold-shock' DNA-binding domain"</title>
				<polygon class="PF00313" points="777,40 780,28 780,28 780,52 780,52" stroke-linejoin="round" width="6" height="24" fill="rgb(87,72,181)" stroke="rgb(69,57,144)" stroke-width="1" opacity="0.75" />
			</g>
		</g>
		<g>
			<title>fhs (PDEEBABA_00617)
Formate--tetrahydrofolate ligase</title>
			<polygon class="fhs (PDEEBABA_00617)
Formate--tetrahydrofolate ligase" points="791,25 816,25 816,10 846,40 816,70 816,55 791,55" fill="rgb(255,255,255)" fill-opacity="1.0" stroke="rgb(0,0,0)" stroke-width="2"  />
			<g>
				<title>FTHFS (PF01268)
"Formate--tetrahydrofolate ligase"</title>
				<polygon class="PF01268" points="791,28 830,28 842,40 830,52 791,52" stroke-linejoin="round" width="55" height="24" fill="rgb(215,182,81)" stroke="rgb(172,145,64)" stroke-width="1" opacity="0.75" />
			</g>
		</g>
		<g>
			<title> (PDEEBABA_00618)
hypothetical protein</title>
			<polygon class=" (PDEEBABA_00618)
hypothetical protein" points="851,10 879,40 851,70" fill="rgb(255,255,255)" fill-opacity="1.0" stroke="rgb(0,0,0)" stroke-width="2"  />
			<g>
				<title>DUF72 (PF01904)
"Protein of unknown function DUF72"</title>
				<polygon class="PF01904" points="852,28 863,28 875,40 863,52 852,52" stroke-linejoin="round" width="24" height="24" fill="rgb(63,151,204)" stroke="rgb(50,120,163)" stroke-width="1" opacity="0.75" />
			</g>
		</g>
		<g>
			<title>yedJ (PDEEBABA_00619)
putative protein YedJ</title>
			<polygon class="yedJ (PDEEBABA_00619)
putative protein YedJ" points="880,10 899,40 880,70" fill="rgb(255,255,255)" fill-opacity="1.0" stroke="rgb(0,0,0)" stroke-width="2"  />
			<g>
				<title>HD (PF01966)
"HD domain"</title>
				<polygon class="PF01966" points="882,28 888,28 891,33 891,47 888,52 882,52" stroke-linejoin="round" width="9" height="24" fill="rgb(92,193,119)" stroke="rgb(73,154,95)" stroke-width="1" opacity="0.75" />
			</g>
		</g>
		<g>
			<title>thyA (PDEEBABA_00620)
Thymidylate synthase</title>
			<polygon class="thyA (PDEEBABA_00620)
Thymidylate synthase" points="899,25 902,25 902,10 932,40 902,70 902,55 899,55" fill="rgb(255,255,255)" fill-opacity="1.0" stroke="rgb(0,0,0)" stroke-width="2"  />
			<g>
				<title>Thymidylat_synt (PF00303)
"Thymidylate synthase"</title>
				<polygon class="PF00303" points="901,28 916,28 928,40 916,52 901,52" stroke-linejoin="round" width="31" height="24" fill="rgb(103,91,191)" stroke="rgb(82,72,152)" stroke-width="1" opacity="0.75" />
			</g>
		</g>
		<g>
			<title> (PDEEBABA_00621)
IS1595 family transposase ISSsu9</title>
			<polygon class=" (PDEEBABA_00621)
IS1595 family transposase ISSsu9" points="938,10 954,40 938,70" fill="rgb(255,255,255)" fill-opacity="1.0" stroke="rgb(0,0,0)" stroke-width="2"  />
			<g>
				<title>DHFR_1 (PF00186)
"Dihydrofolate reductase"</title>
				<polygon class="PF00186" points="938,28 944,28 951,40 944,52 938,52" stroke-linejoin="round" width="16" height="24" fill="rgb(150,188,63)" stroke="rgb(119,150,50)" stroke-width="1" opacity="0.75" />
			</g>
		</g>
		<g>
			<title>mobA (PDEEBABA_00622)
Molybdenum cofactor guanylyltransferase</title>
			<polygon class="mobA (PDEEBABA_00622)
Molybdenum cofactor guanylyltransferase" points="955,10 969,40 955,70" fill="rgb(255,255,255)" fill-opacity="1.0" stroke="rgb(0,0,0)" stroke-width="2"  />
			<g>
				<title>NTP_transf_3 (PF12804)
"MobA-like NTP transferase domain"</title>
				<polygon class="PF12804" points="955,28 960,28 966,40 960,52 955,52" stroke-linejoin="round" width="13" height="24" fill="rgb(52,209,196)" stroke="rgb(41,167,156)" stroke-width="1" opacity="0.75" />
			</g>
		</g>
		<g>
			<title>tatAd_1 (PDEEBABA_00623)
Sec-independent protein translocase protein TatAd</title>
			<polygon class="tatAd_1 (PDEEBABA_00623)
Sec-independent protein translocase protein TatAd" points="980,10 987,40 980,70" fill="rgb(255,255,255)" fill-opacity="1.0" stroke="rgb(0,0,0)" stroke-width="2"  />
			<g>
				<title>MttA_Hcf106 (PF02416)
"mttA/Hcf106 family"</title>
				<polygon class="PF02416" points="980,28 980,28 984,40 980,52 980,52" stroke-linejoin="round" width="6" height="24" fill="rgb(74,206,98)" stroke="rgb(59,164,78)" stroke-width="1" opacity="0.75" />
			</g>
		</g>
		<g>
			<title>tatAd_2 (PDEEBABA_00624)
Sec-independent protein translocase protein TatAd</title>
			<polygon class="tatAd_2 (PDEEBABA_00624)
Sec-independent protein translocase protein TatAd" points="988,10 994,40 988,70" fill="rgb(255,255,255)" fill-opacity="1.0" stroke="rgb(0,0,0)" stroke-width="2"  />
			<g>
				<title>MttA_Hcf106 (PF02416)
"mttA/Hcf106 family"</title>
				<polygon class="PF02416" points="988,28 988,28 991,40 988,52 988,52" stroke-linejoin="round" width="5" height="24" fill="rgb(74,206,98)" stroke="rgb(59,164,78)" stroke-width="1" opacity="0.75" />
			</g>
		</g>
		<g>
			<title>tatC1_1 (PDEEBABA_00625)
Sec-independent protein translocase protein TatCd</title>
			<polygon class="tatC1_1 (PDEEBABA_00625)
Sec-independent protein translocase protein TatCd" points="997,10 1022,40 997,70" fill="rgb(255,255,255)" fill-opacity="1.0" stroke="rgb(0,0,0)" stroke-width="2"  />
			<g>
				<title>TatC (PF00902)
"Sec-independent protein translocase protein (TatC)"</title>
				<polygon class="PF00902" points="998,28 1008,28 1018,40 1018,40 1008,52 998,52" stroke-linejoin="round" width="20" height="24" fill="rgb(84,193,209)" stroke="rgb(67,154,167)" stroke-width="1" opacity="0.75" />
			</g>
		</g>
		<g>
			<title> (PDEEBABA_00626)
hypothetical protein</title>
			<polygon class=" (PDEEBABA_00626)
hypothetical protein" points="1026,10 1033,40 1026,70" fill="rgb(255,255,255)" fill-opacity="1.0" stroke="rgb(0,0,0)" stroke-width="2"  />
			<g>
				<title>YozE_SAM_like (PF06855)
"YozE SAM-like fold"</title>
				<polygon class="PF06855" points="1026,28 1026,28 1030,40 1026,52 1026,52" stroke-linejoin="round" width="6" height="24" fill="rgb(83,201,171)" stroke="rgb(66,160,136)" stroke-width="1" opacity="0.75" />
			</g>
		</g>
		<g>
			<title>sbcD (PDEEBABA_00627)
Nuclease SbcCD subunit D</title>
			<polygon class="sbcD (PDEEBABA_00627)
Nuclease SbcCD subunit D" points="1037,25 1045,25 1045,10 1075,40 1045,70 1045,55 1037,55" fill="rgb(255,255,255)" fill-opacity="1.0" stroke="rgb(0,0,0)" stroke-width="2"  />
			<g>
				<title>Metallophos (PF00149)
"Calcineurin-like phosphoesterase"</title>
				<rect class="PF00149" x="1037" y="28" stroke-linejoin="round" width="21" height="24" fill="rgb(181,197,58)" stroke="rgb(144,157,46)" stroke-width="1" opacity="0.75" />
			</g>
			<g>
				<title>SbcD_C (PF12320)
"Type 5 capsule protein repressor C-terminal domain"</title>
				<polygon class="PF12320" points="1063,32 1071,40 1063,48" stroke-linejoin="round" width="9" height="24" fill="rgb(182,136,65)" stroke="rgb(145,108,52)" stroke-width="1" opacity="0.75" />
			</g>
		</g>
		<g>
			<title> (PDEEBABA_00628)
hypothetical protein</title>
			<polygon class=" (PDEEBABA_00628)
hypothetical protein" points="1075,25 1149,25 1149,10 1179,40 1149,70 1149,55 1075,55" fill="rgb(255,255,255)" fill-opacity="1.0" stroke="rgb(0,0,0)" stroke-width="2"  />
			<g>
				<title>AAA_23 (PF13476)
"AAA domain"</title>
				<rect class="PF13476" x="1075" y="28" stroke-linejoin="round" width="35" height="24" fill="rgb(57,185,214)" stroke="rgb(45,147,171)" stroke-width="1" opacity="0.75" />
			</g>
			<g>
				<title>SbcCD_C (PF13558)
"Putative exonuclease SbcCD, C subunit"</title>
				<polygon class="PF13558" points="1166,32 1174,40 1174,40 1166,48" stroke-linejoin="round" width="8" height="24" fill="rgb(84,179,84)" stroke="rgb(67,143,67)" stroke-width="1" opacity="0.75" />
			</g>
		</g>
		<g>
			<title>ytmB (PDEEBABA_00629)
putative protein YtmB</title>
			<polygon class="ytmB (PDEEBABA_00629)
putative protein YtmB" points="1182,10 1190,40 1182,70" fill="rgb(255,255,255)" fill-opacity="1.0" stroke="rgb(0,0,0)" stroke-width="2"  />
			<g>
				<title>DUF2584 (PF10763)
"Protein of unknown function (DUF2584)"</title>
				<polygon class="PF10763" points="1182,28 1183,28 1187,40 1183,52 1182,52" stroke-linejoin="round" width="8" height="24" fill="rgb(118,211,56)" stroke="rgb(94,168,44)" stroke-width="1" opacity="0.75" />
			</g>
		</g>
		<g>
			<title>ung (PDEEBABA_00630)
Uracil-DNA glycosylase</title>
			<polygon class="ung (PDEEBABA_00630)
Uracil-DNA glycosylase" points="1194,10 1216,40 1194,70" fill="rgb(255,255,255)" fill-opacity="1.0" stroke="rgb(0,0,0)" stroke-width="2"  />
			<g>
				<title>UDG (PF03167)
"Uracil DNA glycosylase superfamily"</title>
				<polygon class="PF03167" points="1198,28 1204,28 1213,40 1204,52 1198,52" stroke-linejoin="round" width="16" height="24" fill="rgb(64,224,60)" stroke="rgb(51,179,48)" stroke-width="1" opacity="0.75" />
			</g>
		</g>
		<g>
			<title> (PDEEBABA_00631)
hypothetical protein</title>
			<polygon class=" (PDEEBABA_00631)
hypothetical protein" points="1219,10 1235,40 1219,70" fill="rgb(255,255,255)" fill-opacity="1.0" stroke="rgb(0,0,0)" stroke-width="2"  />
			<g>
				<title>YqfQ (PF14181)
"YqfQ-like protein"</title>
				<polygon class="PF14181" points="1220,28 1225,28 1232,40 1225,52 1220,52" stroke-linejoin="round" width="14" height="24" fill="rgb(207,119,57)" stroke="rgb(165,95,45)" stroke-width="1" opacity="0.75" />
			</g>
		</g>
		<g>
			<title>msrB_1 (PDEEBABA_00632)
Peptide methionine sulfoxide reductase MsrB</title>
			<polygon class="msrB_1 (PDEEBABA_00632)
Peptide methionine sulfoxide reductase MsrB" points="1238,25 1240,25 1240,10 1270,40 1240,70 1240,55 1238,55" fill="rgb(255,255,255)" fill-opacity="1.0" stroke="rgb(0,0,0)" stroke-width="2"  />
			<g>
				<title>PMSR (PF01625)
"Peptide methionine sulfoxide reductase"</title>
				<rect class="PF01625" x="1238" y="28" stroke-linejoin="round" width="15" height="24" fill="rgb(201,74,176)" stroke="rgb(160,59,140)" stroke-width="1" opacity="0.75" />
			</g>
			<g>
				<title>SelR (PF01641)
"SelR domain"</title>
				<polygon class="PF01641" points="1256,31 1265,40 1256,49" stroke-linejoin="round" width="12" height="24" fill="rgb(192,99,202)" stroke="rgb(153,79,161)" stroke-width="1" opacity="0.75" />
			</g>
		</g>
		<g>
			<title> (PDEEBABA_00633)
hypothetical protein</title>
			<polygon class=" (PDEEBABA_00633)
hypothetical protein" points="1276,25 1281,25 1281,10 1311,40 1281,70 1281,55 1276,55" fill="rgb(255,255,255)" fill-opacity="1.0" stroke="rgb(0,0,0)" stroke-width="2"  />
			<g>
				<title>AbrB (PF05145)
"Transition state regulatory protein AbrB"</title>
				<polygon class="PF05145" points="1276,28 1294,28 1306,40 1294,52 1276,52" stroke-linejoin="round" width="33" height="24" fill="rgb(95,98,223)" stroke="rgb(76,78,178)" stroke-width="1" opacity="0.75" />
			</g>
		</g>
		<g>
			<title> (PDEEBABA_00634)
hypothetical protein</title>
			<polygon class=" (PDEEBABA_00634)
hypothetical protein" points="1314,10 1321,40 1314,70" fill="rgb(255,255,255)" fill-opacity="1.0" stroke="rgb(0,0,0)" stroke-width="2"  />
		</g>
		<g>
			<title>cobC (PDEEBABA_00635)
Adenosylcobalamin/alpha-ribazole phosphatase</title>
			<polygon class="cobC (PDEEBABA_00635)
Adenosylcobalamin/alpha-ribazole phosphatase" points="1337,10 1355,40 1337,70" fill="rgb(255,255,255)" fill-opacity="1.0" stroke="rgb(0,0,0)" stroke-width="2"  />
			<g>
				<title>His_Phos_1 (PF00300)
"Histidine phosphatase superfamily (branch 1)"</title>
				<polygon class="PF00300" points="1337,28 1344,28 1351,40 1344,52 1337,52" stroke-linejoin="round" width="17" height="24" fill="rgb(135,184,63)" stroke="rgb(107,147,50)" stroke-width="1" opacity="0.75" />
			</g>
		</g>
		<g>
			<title>fdxA (PDEEBABA_00636)
Ferredoxin 7Fe</title>
			<polygon class="fdxA (PDEEBABA_00636)
Ferredoxin 7Fe" points="1360,10 1368,40 1360,70" fill="rgb(255,255,255)" fill-opacity="1.0" stroke="rgb(0,0,0)" stroke-width="2"  />
			<g>
				<title>Fer4 (PF00037)
"4Fe-4S binding domain"</title>
				<polygon class="PF00037" points="1363,33 1364,40 1363,47" stroke-linejoin="round" width="2" height="24" fill="rgb(226,193,80)" stroke="rgb(180,154,64)" stroke-width="1" opacity="0.75" />
			</g>
		</g>
	</g>
</svg>
