<svg version="1.1" baseProfile="full" xmlns="http://www.w3.org/2000/svg" width="714.4666666666667" height="80">
	<g>
		<line x1="10" y1="40.0" x2="704.4666666666667" y2="40.0" style="stroke:rgb(70,70,70); stroke-width:3 "/>
		<g>
			<title> (JDCNNPMD_03601)
hypothetical protein</title>
			<polygon class=" (JDCNNPMD_03601)
hypothetical protein" points="28,40 32,10 32,70" fill="rgb(255,255,255)" fill-opacity="1.0" stroke="rgb(0,0,0)" stroke-width="2"  />
			<g>
				<title>Fur_reg_FbpB (PF13040)
"Fur-regulated basic protein B"</title>
				<polygon class="PF13040" points="31,40 31,40 31,40" stroke-linejoin="round" width="3" height="24" fill="rgb(190,83,63)" stroke="rgb(152,66,50)" stroke-width="1" opacity="0.75" />
			</g>
		</g>
		<g>
			<title>dapX_2 (JDCNNPMD_03602)
putative N-acetyl-LL-diaminopimelate aminotransferase</title>
			<polygon class="dapX_2 (JDCNNPMD_03602)
putative N-acetyl-LL-diaminopimelate aminotransferase" points="37,25 45,25 45,10 75,40 45,70 45,55 37,55" fill="rgb(255,255,255)" fill-opacity="1.0" stroke="rgb(0,0,0)" stroke-width="2"  />
			<g>
				<title>Aminotran_1_2 (PF00155)
"Aminotransferase class I and II"</title>
				<polygon class="PF00155" points="39,28 59,28 71,40 59,52 39,52" stroke-linejoin="round" width="34" height="24" fill="rgb(89,113,198)" stroke="rgb(71,90,158)" stroke-width="1" opacity="0.75" />
			</g>
		</g>
		<g>
			<title> (JDCNNPMD_03603)
hypothetical protein</title>
			<polygon class=" (JDCNNPMD_03603)
hypothetical protein" points="76,40 81,10 81,70" fill="rgb(255,255,255)" fill-opacity="1.0" stroke="rgb(0,0,0)" stroke-width="2"  />
			<g>
				<title>SpoOE-like (PF09388)
"Spo0E like sporulation regulatory protein"</title>
				<polygon class="PF09388" points="79,40 80,35 80,45" stroke-linejoin="round" width="4" height="24" fill="rgb(188,111,63)" stroke="rgb(150,88,50)" stroke-width="1" opacity="0.75" />
			</g>
		</g>
		<g>
			<title>sipT (JDCNNPMD_03604)
Signal peptidase I T</title>
			<polygon class="sipT (JDCNNPMD_03604)
Signal peptidase I T" points="91,10 108,40 91,70" fill="rgb(255,255,255)" fill-opacity="1.0" stroke="rgb(0,0,0)" stroke-width="2"  />
			<g>
				<title>Peptidase_S24 (PF00717)
"Peptidase S24-like"</title>
				<polygon class="PF00717" points="94,28 97,28 100,32 100,48 97,52 94,52" stroke-linejoin="round" width="6" height="24" fill="rgb(180,76,105)" stroke="rgb(144,60,83)" stroke-width="1" opacity="0.75" />
			</g>
		</g>
		<g>
			<title> (JDCNNPMD_03605)
hypothetical protein</title>
			<polygon class=" (JDCNNPMD_03605)
hypothetical protein" points="110,40 114,10 114,70" fill="rgb(255,255,255)" fill-opacity="1.0" stroke="rgb(0,0,0)" stroke-width="2"  />
			<g>
				<title>YvrJ (PF12841)
"YvrJ protein family"</title>
				<polygon class="PF12841" points="113,40 113,40 113,40" stroke-linejoin="round" width="3" height="24" fill="rgb(207,53,76)" stroke="rgb(165,42,60)" stroke-width="1" opacity="0.75" />
			</g>
		</g>
		<g>
			<title> (JDCNNPMD_03606)
hypothetical protein</title>
			<polygon class=" (JDCNNPMD_03606)
hypothetical protein" points="147,40 154,10 154,70" fill="rgb(255,255,255)" fill-opacity="1.0" stroke="rgb(0,0,0)" stroke-width="2"  />
			<g>
				<title>DUF2922 (PF11148)
"Protein of unknown function (DUF2922)"</title>
				<polygon class="PF11148" points="150,40 153,28 153,28 153,52 153,52" stroke-linejoin="round" width="6" height="24" fill="rgb(196,220,80)" stroke="rgb(156,176,64)" stroke-width="1" opacity="0.75" />
			</g>
		</g>
		<g>
			<title> (JDCNNPMD_03607)
hypothetical protein</title>
			<polygon class=" (JDCNNPMD_03607)
hypothetical protein" points="155,40 162,10 162,70" fill="rgb(255,255,255)" fill-opacity="1.0" stroke="rgb(0,0,0)" stroke-width="2"  />
			<g>
				<title>DUF1659 (PF07872)
"Protein of unknown function (DUF1659)"</title>
				<polygon class="PF07872" points="158,40 161,28 161,28 161,52 161,52" stroke-linejoin="round" width="4" height="24" fill="rgb(172,48,195)" stroke="rgb(137,38,156)" stroke-width="1" opacity="0.75" />
			</g>
		</g>
		<g>
			<title> (JDCNNPMD_03608)
hypothetical protein</title>
			<polygon class=" (JDCNNPMD_03608)
hypothetical protein" points="179,10 195,40 179,70" fill="rgb(255,255,255)" fill-opacity="1.0" stroke="rgb(0,0,0)" stroke-width="2"  />
			<g>
				<title>DoxX (PF07681)
"DoxX"</title>
				<polygon class="PF07681" points="180,28 185,28 190,36 190,44 185,52 180,52" stroke-linejoin="round" width="10" height="24" fill="rgb(93,188,216)" stroke="rgb(74,150,172)" stroke-width="1" opacity="0.75" />
			</g>
		</g>
		<g>
			<title> (JDCNNPMD_03609)
hypothetical protein</title>
			<polygon class=" (JDCNNPMD_03609)
hypothetical protein" points="201,10 226,40 201,70" fill="rgb(255,255,255)" fill-opacity="1.0" stroke="rgb(0,0,0)" stroke-width="2"  />
			<g>
				<title>Caroten_synth (PF04240)
"Carotenoid biosynthesis protein"</title>
				<polygon class="PF04240" points="204,28 212,28 222,40 212,52 204,52" stroke-linejoin="round" width="20" height="24" fill="rgb(65,214,190)" stroke="rgb(52,171,152)" stroke-width="1" opacity="0.75" />
			</g>
		</g>
		<g>
			<title> (JDCNNPMD_03610)
hypothetical protein</title>
			<polygon class=" (JDCNNPMD_03610)
hypothetical protein" points="226,10 247,40 226,70" fill="rgb(255,255,255)" fill-opacity="1.0" stroke="rgb(0,0,0)" stroke-width="2"  />
			<g>
				<title>Acyltransferase (PF01553)
"Acyltransferase"</title>
				<polygon class="PF01553" points="228,28 235,28 241,36 241,44 235,52 228,52" stroke-linejoin="round" width="13" height="24" fill="rgb(87,176,216)" stroke="rgb(69,140,172)" stroke-width="1" opacity="0.75" />
			</g>
		</g>
		<g>
			<title> (JDCNNPMD_03611)
hypothetical protein</title>
			<polygon class=" (JDCNNPMD_03611)
hypothetical protein" points="248,25 255,25 255,10 285,40 255,70 255,55 248,55" fill="rgb(255,255,255)" fill-opacity="1.0" stroke="rgb(0,0,0)" stroke-width="2"  />
			<g>
				<title>Glyco_tranf_2_3 (PF13641)
"Glycosyltransferase like family 2"</title>
				<polygon class="PF13641" points="251,28 268,28 274,34 274,46 268,52 251,52" stroke-linejoin="round" width="23" height="24" fill="rgb(140,74,190)" stroke="rgb(111,59,152)" stroke-width="1" opacity="0.75" />
			</g>
		</g>
		<g>
			<title>crtNb_2 (JDCNNPMD_03612)
4,4'-diapolycopene oxygenase</title>
			<polygon class="crtNb_2 (JDCNNPMD_03612)
4,4'-diapolycopene oxygenase" points="285,25 303,25 303,10 333,40 303,70 303,55 285,55" fill="rgb(255,255,255)" fill-opacity="1.0" stroke="rgb(0,0,0)" stroke-width="2"  />
			<g>
				<title>Amino_oxidase (PF01593)
"Flavin containing amine oxidoreductase"</title>
				<polygon class="PF01593" points="286,28 317,28 329,40 317,52 286,52" stroke-linejoin="round" width="47" height="24" fill="rgb(184,74,52)" stroke="rgb(147,59,41)" stroke-width="1" opacity="0.75" />
			</g>
		</g>
		<g>
			<title>crtB (JDCNNPMD_03613)
15-cis-phytoene synthase</title>
			<polygon class="crtB (JDCNNPMD_03613)
15-cis-phytoene synthase" points="343,40 370,10 370,70" fill="rgb(255,255,255)" fill-opacity="1.0" stroke="rgb(0,0,0)" stroke-width="2"  />
			<g>
				<title>SQS_PSY (PF00494)
"Squalene/phytoene synthase"</title>
				<polygon class="PF00494" points="347,40 358,28 369,28 369,52 358,52" stroke-linejoin="round" width="25" height="24" fill="rgb(178,91,49)" stroke="rgb(142,72,39)" stroke-width="1" opacity="0.75" />
			</g>
		</g>
		<g>
			<title>crtNc (JDCNNPMD_03614)
4,4'-diapolycopen-4-al dehydrogenase</title>
			<polygon class="crtNc (JDCNNPMD_03614)
4,4'-diapolycopen-4-al dehydrogenase" points="420,25 401,25 401,10 371,40 401,70 401,55 420,55" fill="rgb(255,255,255)" fill-opacity="1.0" stroke="rgb(0,0,0)" stroke-width="2"  />
			<g>
				<title>Amino_oxidase (PF01593)
"Flavin containing amine oxidoreductase"</title>
				<polygon class="PF01593" points="375,40 387,28 418,28 418,52 387,52" stroke-linejoin="round" width="46" height="24" fill="rgb(184,74,52)" stroke="rgb(147,59,41)" stroke-width="1" opacity="0.75" />
			</g>
		</g>
		<g>
			<title>crtN_3 (JDCNNPMD_03615)
4,4'-diapophytoene desaturase (4,4'-diapolycopene-forming)</title>
			<polygon class="crtN_3 (JDCNNPMD_03615)
4,4'-diapophytoene desaturase (4,4'-diapolycopene-forming)" points="469,25 450,25 450,10 420,40 450,70 450,55 469,55" fill="rgb(255,255,255)" fill-opacity="1.0" stroke="rgb(0,0,0)" stroke-width="2"  />
			<g>
				<title>Amino_oxidase (PF01593)
"Flavin containing amine oxidoreductase"</title>
				<polygon class="PF01593" points="424,40 436,28 468,28 468,52 436,52" stroke-linejoin="round" width="47" height="24" fill="rgb(184,74,52)" stroke="rgb(147,59,41)" stroke-width="1" opacity="0.75" />
			</g>
		</g>
		<g>
			<title> (JDCNNPMD_03616)
hypothetical protein</title>
			<polygon class=" (JDCNNPMD_03616)
hypothetical protein" points="479,10 485,40 479,70" fill="rgb(255,255,255)" fill-opacity="1.0" stroke="rgb(0,0,0)" stroke-width="2"  />
		</g>
		<g>
			<title> (JDCNNPMD_03617)
hypothetical protein</title>
			<polygon class=" (JDCNNPMD_03617)
hypothetical protein" points="488,10 492,40 488,70" fill="rgb(255,255,255)" fill-opacity="1.0" stroke="rgb(0,0,0)" stroke-width="2"  />
			<g>
				<title>YjcZ_2 (PF09680)
"Family of unknown function"</title>
				<polygon class="PF09680" points="489,38 489,40 489,42" stroke-linejoin="round" width="2" height="24" fill="rgb(79,203,107)" stroke="rgb(63,162,85)" stroke-width="1" opacity="0.75" />
			</g>
		</g>
		<g>
			<title>ktrB_3 (JDCNNPMD_03618)
Ktr system potassium uptake protein B</title>
			<polygon class="ktrB_3 (JDCNNPMD_03618)
Ktr system potassium uptake protein B" points="541,25 526,25 526,10 496,40 526,70 526,55 541,55" fill="rgb(255,255,255)" fill-opacity="1.0" stroke="rgb(0,0,0)" stroke-width="2"  />
			<g>
				<title>TrkH (PF02386)
"Cation transport protein"</title>
				<polygon class="PF02386" points="500,40 512,28 540,28 540,52 512,52" stroke-linejoin="round" width="43" height="24" fill="rgb(67,179,142)" stroke="rgb(53,143,113)" stroke-width="1" opacity="0.75" />
			</g>
		</g>
		<g>
			<title> (JDCNNPMD_03619)
hypothetical protein</title>
			<polygon class=" (JDCNNPMD_03619)
hypothetical protein" points="546,40 560,10 560,70" fill="rgb(255,255,255)" fill-opacity="1.0" stroke="rgb(0,0,0)" stroke-width="2"  />
			<g>
				<title>YwpF (PF14183)
"YwpF-like protein"</title>
				<polygon class="PF14183" points="549,40 555,28 559,28 559,52 555,52" stroke-linejoin="round" width="13" height="24" fill="rgb(199,178,73)" stroke="rgb(159,142,58)" stroke-width="1" opacity="0.75" />
			</g>
		</g>
		<g>
			<title> (JDCNNPMD_03620)
Alcohol dehydrogenase</title>
			<polygon class=" (JDCNNPMD_03620)
Alcohol dehydrogenase" points="568,25 572,25 572,10 602,40 572,70 572,55 568,55" fill="rgb(255,255,255)" fill-opacity="1.0" stroke="rgb(0,0,0)" stroke-width="2"  />
			<g>
				<title>ADH_N (PF08240)
"Alcohol dehydrogenase GroES-like domain"</title>
				<rect class="PF08240" x="570" y="28" stroke-linejoin="round" width="11" height="24" fill="rgb(211,65,138)" stroke="rgb(168,51,110)" stroke-width="1" opacity="0.75" />
			</g>
			<g>
				<title>ADH_zinc_N_2 (PF13602)
"Zinc-binding dehydrogenase"</title>
				<polygon class="PF13602" points="589,31 598,40 589,49" stroke-linejoin="round" width="12" height="24" fill="rgb(101,131,226)" stroke="rgb(80,104,180)" stroke-width="1" opacity="0.75" />
			</g>
		</g>
		<g>
			<title>moaA (JDCNNPMD_03621)
GTP 3',8-cyclase</title>
			<polygon class="moaA (JDCNNPMD_03621)
GTP 3',8-cyclase" points="655,25 652,25 652,10 622,40 652,70 652,55 655,55" fill="rgb(255,255,255)" fill-opacity="1.0" stroke="rgb(0,0,0)" stroke-width="2"  />
			<g>
				<title>Mob_synth_C (PF06463)
"Molybdenum Cofactor Synthesis C"</title>
				<polygon class="PF06463" points="626,40 636,30 636,50" stroke-linejoin="round" width="12" height="24" fill="rgb(149,103,225)" stroke="rgb(119,82,180)" stroke-width="1" opacity="0.75" />
			</g>
			<g>
				<title>Radical_SAM (PF04055)
"Radical SAM superfamily"</title>
				<polygon class="PF04055" points="637,29 638,28 653,28 653,52 638,52 637,51" stroke-linejoin="round" width="16" height="24" fill="rgb(149,56,222)" stroke="rgb(119,44,177)" stroke-width="1" opacity="0.75" />
			</g>
		</g>
		<g>
			<title>moeA (JDCNNPMD_03622)
Molybdopterin molybdenumtransferase</title>
			<polygon class="moeA (JDCNNPMD_03622)
Molybdopterin molybdenumtransferase" points="699,25 687,25 687,10 657,40 687,70 687,55 699,55" fill="rgb(255,255,255)" fill-opacity="1.0" stroke="rgb(0,0,0)" stroke-width="2"  />
			<g>
				<title>MoeA_C (PF03454)
"MoeA C-terminal region (domain IV)"</title>
				<polygon class="PF03454" points="661,40 665,36 665,44" stroke-linejoin="round" width="7" height="24" fill="rgb(59,190,161)" stroke="rgb(47,152,128)" stroke-width="1" opacity="0.75" />
			</g>
			<g>
				<title>MoCF_biosynth (PF00994)
"Probable molybdopterin binding domain"</title>
				<polygon class="PF00994" points="666,35 673,28 679,28 679,52 673,52 666,45" stroke-linejoin="round" width="13" height="24" fill="rgb(75,187,175)" stroke="rgb(60,149,139)" stroke-width="1" opacity="0.75" />
			</g>
			<g>
				<title>MoeA_N (PF03453)
"MoeA N-terminal region (domain I and II)"</title>
				<rect class="PF03453" x="681" y="28" stroke-linejoin="round" width="16" height="24" fill="rgb(93,188,107)" stroke="rgb(74,150,85)" stroke-width="1" opacity="0.75" />
			</g>
		</g>
	</g>
</svg>
