<svg version="1.1" baseProfile="full" xmlns="http://www.w3.org/2000/svg" width="471.2" height="80">
	<g>
		<line x1="10" y1="40.0" x2="461.2" y2="40.0" style="stroke:rgb(70,70,70); stroke-width:3 "/>
		<g>
			<title> (PLNGCNKA_00547)
hypothetical protein</title>
			<polygon class=" (PLNGCNKA_00547)
hypothetical protein" points="89,25 89,25 89,10 59,40 89,70 89,55 89,55" fill="rgb(255,255,255)" fill-opacity="1.0" stroke="rgb(0,0,0)" stroke-width="2"  />
			<g>
				<title>Rubrerythrin (PF02915)
"Rubrerythrin"</title>
				<polygon class="PF02915" points="67,36 75,28 79,28 79,52 75,52 67,44" stroke-linejoin="round" width="12" height="24" fill="rgb(214,77,220)" stroke="rgb(171,61,176)" stroke-width="1" opacity="0.75" />
			</g>
		</g>
		<g>
			<title> (PLNGCNKA_00548)
hypothetical protein</title>
			<polygon class=" (PLNGCNKA_00548)
hypothetical protein" points="102,40 110,10 110,70" fill="rgb(255,255,255)" fill-opacity="1.0" stroke="rgb(0,0,0)" stroke-width="2"  />
		</g>
		<g>
			<title> (PLNGCNKA_00549)
hypothetical protein</title>
			<polygon class=" (PLNGCNKA_00549)
hypothetical protein" points="128,40 153,10 153,70" fill="rgb(255,255,255)" fill-opacity="1.0" stroke="rgb(0,0,0)" stroke-width="2"  />
			<g>
				<title>Methyltransf_11 (PF08241)
"Methyltransferase domain"</title>
				<polygon class="PF08241" points="137,34 142,28 146,28 146,52 142,52 137,46" stroke-linejoin="round" width="9" height="24" fill="rgb(106,219,159)" stroke="rgb(84,175,127)" stroke-width="1" opacity="0.75" />
			</g>
		</g>
		<g>
			<title> (PLNGCNKA_00550)
hypothetical protein</title>
			<polygon class=" (PLNGCNKA_00550)
hypothetical protein" points="163,25 165,25 165,10 195,40 165,70 165,55 163,55" fill="rgb(255,255,255)" fill-opacity="1.0" stroke="rgb(0,0,0)" stroke-width="2"  />
			<g>
				<title>Na_Ca_ex (PF01699)
"Sodium/calcium exchanger protein"</title>
				<rect class="PF01699" x="163" y="28" stroke-linejoin="round" width="15" height="24" fill="rgb(64,189,136)" stroke="rgb(51,151,108)" stroke-width="1" opacity="0.75" />
			</g>
			<g>
				<title>Na_Ca_ex (PF01699)
"Sodium/calcium exchanger protein"</title>
				<polygon class="PF01699" points="179,29 190,40 179,51" stroke-linejoin="round" width="15" height="24" fill="rgb(64,189,136)" stroke="rgb(51,151,108)" stroke-width="1" opacity="0.75" />
			</g>
		</g>
		<g>
			<title> (PLNGCNKA_00551)
D-alanyl-D-alanine carboxypeptidase</title>
			<polygon class=" (PLNGCNKA_00551)
D-alanyl-D-alanine carboxypeptidase" points="232,25 228,25 228,10 198,40 228,70 228,55 232,55" fill="rgb(255,255,255)" fill-opacity="1.0" stroke="rgb(0,0,0)" stroke-width="2"  />
			<g>
				<title>Beta-lactamase (PF00144)
"Beta-lactamase"</title>
				<polygon class="PF00144" points="202,40 214,28 231,28 231,52 214,52" stroke-linejoin="round" width="32" height="24" fill="rgb(92,159,200)" stroke="rgb(73,127,160)" stroke-width="1" opacity="0.75" />
			</g>
		</g>
		<g>
			<title> (PLNGCNKA_00552)
hypothetical protein</title>
			<polygon class=" (PLNGCNKA_00552)
hypothetical protein" points="234,40 260,10 260,70" fill="rgb(255,255,255)" fill-opacity="1.0" stroke="rgb(0,0,0)" stroke-width="2"  />
			<g>
				<title>PAS_4 (PF08448)
"PAS fold"</title>
				<polygon class="PF08448" points="246,31 249,28 256,28 256,52 249,52 246,49" stroke-linejoin="round" width="10" height="24" fill="rgb(50,90,192)" stroke="rgb(40,71,153)" stroke-width="1" opacity="0.75" />
			</g>
		</g>
		<g>
			<title>sqhC (PLNGCNKA_00553)
Sporulenol synthase</title>
			<polygon class="sqhC (PLNGCNKA_00553)
Sporulenol synthase" points="327,25 294,25 294,10 264,40 294,70 294,55 327,55" fill="rgb(255,255,255)" fill-opacity="1.0" stroke="rgb(0,0,0)" stroke-width="2"  />
			<g>
				<title>SQHop_cyclase_C (PF13243)
"Squalene-hopene cyclase C-terminal domain"</title>
				<polygon class="PF13243" points="268,40 280,28 295,28 295,52 280,52" stroke-linejoin="round" width="31" height="24" fill="rgb(191,58,201)" stroke="rgb(152,46,160)" stroke-width="1" opacity="0.75" />
			</g>
			<g>
				<title>SQHop_cyclase_N (PF13249)
"Squalene-hopene cyclase N-terminal domain"</title>
				<rect class="PF13249" x="297" y="28" stroke-linejoin="round" width="29" height="24" fill="rgb(88,190,89)" stroke="rgb(70,152,71)" stroke-width="1" opacity="0.75" />
			</g>
		</g>
		<g>
			<title> (PLNGCNKA_00554)
hypothetical protein</title>
			<polygon class=" (PLNGCNKA_00554)
hypothetical protein" points="330,25 337,25 337,10 367,40 337,70 337,55 330,55" fill="rgb(255,255,255)" fill-opacity="1.0" stroke="rgb(0,0,0)" stroke-width="2"  />
			<g>
				<title>DUF2515 (PF10720)
"Protein of unknown function (DUF2515)"</title>
				<polygon class="PF10720" points="333,28 350,28 362,40 350,52 333,52" stroke-linejoin="round" width="33" height="24" fill="rgb(66,168,216)" stroke="rgb(52,134,172)" stroke-width="1" opacity="0.75" />
			</g>
		</g>
		<g>
			<title> (PLNGCNKA_00555)
hypothetical protein</title>
			<polygon class=" (PLNGCNKA_00555)
hypothetical protein" points="370,40 377,10 377,70" fill="rgb(255,255,255)" fill-opacity="1.0" stroke="rgb(0,0,0)" stroke-width="2"  />
			<g>
				<title>DUF3886 (PF13025)
"Protein of unknown function (DUF3886)"</title>
				<polygon class="PF13025" points="373,40 376,28 376,28 376,52 376,52" stroke-linejoin="round" width="6" height="24" fill="rgb(218,105,228)" stroke="rgb(174,84,182)" stroke-width="1" opacity="0.75" />
			</g>
		</g>
		<g>
			<title> (PLNGCNKA_00556)
hypothetical protein</title>
			<polygon class=" (PLNGCNKA_00556)
hypothetical protein" points="377,40 388,10 388,70" fill="rgb(255,255,255)" fill-opacity="1.0" stroke="rgb(0,0,0)" stroke-width="2"  />
			<g>
				<title>Fe-S_biosyn (PF01521)
"Iron-sulphur cluster biosynthesis"</title>
				<polygon class="PF01521" points="380,40 384,28 387,28 387,52 384,52" stroke-linejoin="round" width="10" height="24" fill="rgb(179,60,127)" stroke="rgb(143,47,101)" stroke-width="1" opacity="0.75" />
			</g>
		</g>
		<g>
			<title> (PLNGCNKA_00557)
putative oxidoreductase</title>
			<polygon class=" (PLNGCNKA_00557)
putative oxidoreductase" points="392,40 418,10 418,70" fill="rgb(255,255,255)" fill-opacity="1.0" stroke="rgb(0,0,0)" stroke-width="2"  />
			<g>
				<title>adh_short (PF00106)
"short chain dehydrogenase"</title>
				<polygon class="PF00106" points="398,38 407,28 417,28 417,52 407,52 398,42" stroke-linejoin="round" width="19" height="24" fill="rgb(182,219,73)" stroke="rgb(145,175,58)" stroke-width="1" opacity="0.75" />
			</g>
		</g>
		<g>
			<title>gloB_1 (PLNGCNKA_00558)
Hydroxyacylglutathione hydrolase</title>
			<polygon class="gloB_1 (PLNGCNKA_00558)
Hydroxyacylglutathione hydrolase" points="451,25 449,25 449,10 419,40 449,70 449,55 451,55" fill="rgb(255,255,255)" fill-opacity="1.0" stroke="rgb(0,0,0)" stroke-width="2"  />
			<g>
				<title>Lactamase_B (PF00753)
"Metallo-beta-lactamase superfamily"</title>
				<polygon class="PF00753" points="427,36 435,28 448,28 448,52 435,52 427,44" stroke-linejoin="round" width="21" height="24" fill="rgb(206,198,96)" stroke="rgb(164,158,76)" stroke-width="1" opacity="0.75" />
			</g>
		</g>
	</g>
</svg>
