<svg version="1.1" baseProfile="full" xmlns="http://www.w3.org/2000/svg" width="715.5333333333333" height="80">
	<g>
		<line x1="10" y1="40.0" x2="705.5333333333333" y2="40.0" style="stroke:rgb(70,70,70); stroke-width:3 "/>
		<g>
			<title> (FNGGOAEL_00720)
hypothetical protein</title>
			<polygon class=" (FNGGOAEL_00720)
hypothetical protein" points="10,10 23,40 10,70" fill="rgb(255,255,255)" fill-opacity="1.0" stroke="rgb(0,0,0)" stroke-width="2"  />
			<g>
				<title>NUDIX (PF00293)
"NUDIX domain"</title>
				<polygon class="PF00293" points="10,28 14,28 20,40 14,52 10,52" stroke-linejoin="round" width="11" height="24" fill="rgb(92,56,187)" stroke="rgb(73,44,149)" stroke-width="1" opacity="0.75" />
			</g>
		</g>
		<g>
			<title>yfkO (FNGGOAEL_00721)
Putative NAD(P)H nitroreductase YfkO</title>
			<polygon class="yfkO (FNGGOAEL_00721)
Putative NAD(P)H nitroreductase YfkO" points="25,40 44,10 44,70" fill="rgb(255,255,255)" fill-opacity="1.0" stroke="rgb(0,0,0)" stroke-width="2"  />
			<g>
				<title>Nitroreductase (PF00881)
"Nitroreductase family"</title>
				<polygon class="PF00881" points="29,40 37,28 44,28 44,52 37,52" stroke-linejoin="round" width="17" height="24" fill="rgb(79,118,187)" stroke="rgb(63,94,149)" stroke-width="1" opacity="0.75" />
			</g>
		</g>
		<g>
			<title> (FNGGOAEL_00722)
hypothetical protein</title>
			<polygon class=" (FNGGOAEL_00722)
hypothetical protein" points="48,40 69,10 69,70" fill="rgb(255,255,255)" fill-opacity="1.0" stroke="rgb(0,0,0)" stroke-width="2"  />
		</g>
		<g>
			<title>ybiT_1 (FNGGOAEL_00723)
putative ABC transporter ATP-binding protein YbiT</title>
			<polygon class="ybiT_1 (FNGGOAEL_00723)
putative ABC transporter ATP-binding protein YbiT" points="125,25 104,25 104,10 74,40 104,70 104,55 125,55" fill="rgb(255,255,255)" fill-opacity="1.0" stroke="rgb(0,0,0)" stroke-width="2"  />
			<g>
				<title>ABC_tran (PF00005)
"ABC transporter"</title>
				<polygon class="PF00005" points="79,39 90,28 91,28 91,52 90,52 79,41" stroke-linejoin="round" width="12" height="24" fill="rgb(129,201,63)" stroke="rgb(103,160,50)" stroke-width="1" opacity="0.75" />
			</g>
			<g>
				<title>ABC_tran_Xtn (PF12848)
"ABC transporter"</title>
				<rect class="PF12848" x="94" y="28" stroke-linejoin="round" width="8" height="24" fill="rgb(54,177,199)" stroke="rgb(43,141,159)" stroke-width="1" opacity="0.75" />
			</g>
			<g>
				<title>ABC_tran (PF00005)
"ABC transporter"</title>
				<rect class="PF00005" x="106" y="28" stroke-linejoin="round" width="17" height="24" fill="rgb(129,201,63)" stroke="rgb(103,160,50)" stroke-width="1" opacity="0.75" />
			</g>
		</g>
		<g>
			<title>trxB_2 (FNGGOAEL_00724)
Thioredoxin reductase</title>
			<polygon class="trxB_2 (FNGGOAEL_00724)
Thioredoxin reductase" points="130,10 159,40 130,70" fill="rgb(255,255,255)" fill-opacity="1.0" stroke="rgb(0,0,0)" stroke-width="2"  />
			<g>
				<title>Pyr_redox_2 (PF07992)
"Pyridine nucleotide-disulphide oxidoreductase"</title>
				<polygon class="PF07992" points="130,28 143,28 155,40 143,52 130,52" stroke-linejoin="round" width="27" height="24" fill="rgb(83,223,167)" stroke="rgb(66,178,133)" stroke-width="1" opacity="0.75" />
			</g>
		</g>
		<g>
			<title>nhaP2_1 (FNGGOAEL_00725)
K(+)/H(+) antiporter NhaP2</title>
			<polygon class="nhaP2_1 (FNGGOAEL_00725)
K(+)/H(+) antiporter NhaP2" points="165,25 185,25 185,10 215,40 185,70 185,55 165,55" fill="rgb(255,255,255)" fill-opacity="1.0" stroke="rgb(0,0,0)" stroke-width="2"  />
			<g>
				<title>Na_H_Exchanger (PF00999)
"Sodium/hydrogen exchanger family"</title>
				<polygon class="PF00999" points="166,28 199,28 204,33 204,47 199,52 166,52" stroke-linejoin="round" width="38" height="24" fill="rgb(229,67,191)" stroke="rgb(183,53,152)" stroke-width="1" opacity="0.75" />
			</g>
			<g>
				<title>TrkA_C (PF02080)
"TrkA-C domain"</title>
				<polygon class="PF02080" points="206,35 211,40 206,45" stroke-linejoin="round" width="6" height="24" fill="rgb(76,186,211)" stroke="rgb(60,148,168)" stroke-width="1" opacity="0.75" />
			</g>
		</g>
		<g>
			<title> (FNGGOAEL_00726)
hypothetical protein</title>
			<polygon class=" (FNGGOAEL_00726)
hypothetical protein" points="239,10 253,40 239,70" fill="rgb(255,255,255)" fill-opacity="1.0" stroke="rgb(0,0,0)" stroke-width="2"  />
			<g>
				<title>DMT_YdcZ (PF04657)
"Putative inner membrane exporter, YdcZ"</title>
				<polygon class="PF04657" points="239,28 244,28 249,40 244,52 239,52" stroke-linejoin="round" width="13" height="24" fill="rgb(63,139,178)" stroke="rgb(50,111,142)" stroke-width="1" opacity="0.75" />
			</g>
		</g>
		<g>
			<title>yeiL (FNGGOAEL_00727)
Regulatory protein YeiL</title>
			<polygon class="yeiL (FNGGOAEL_00727)
Regulatory protein YeiL" points="253,10 276,40 253,70" fill="rgb(255,255,255)" fill-opacity="1.0" stroke="rgb(0,0,0)" stroke-width="2"  />
			<g>
				<title>cNMP_binding (PF00027)
"Cyclic nucleotide-binding domain"</title>
				<polygon class="PF00027" points="256,28 263,28 264,30 264,50 263,52 256,52" stroke-linejoin="round" width="8" height="24" fill="rgb(138,95,204)" stroke="rgb(110,76,163)" stroke-width="1" opacity="0.75" />
			</g>
			<g>
				<title>HTH_Crp_2 (PF13545)
"Crp-like helix-turn-helix domain"</title>
				<polygon class="PF13545" points="268,35 272,40 268,45" stroke-linejoin="round" width="7" height="24" fill="rgb(87,137,202)" stroke="rgb(69,109,161)" stroke-width="1" opacity="0.75" />
			</g>
		</g>
		<g>
			<title> (FNGGOAEL_00728)
hypothetical protein</title>
			<polygon class=" (FNGGOAEL_00728)
hypothetical protein" points="277,10 292,40 277,70" fill="rgb(255,255,255)" fill-opacity="1.0" stroke="rgb(0,0,0)" stroke-width="2"  />
			<g>
				<title>DMT_YdcZ (PF04657)
"Putative inner membrane exporter, YdcZ"</title>
				<polygon class="PF04657" points="277,28 283,28 289,40 283,52 277,52" stroke-linejoin="round" width="13" height="24" fill="rgb(63,139,178)" stroke="rgb(50,111,142)" stroke-width="1" opacity="0.75" />
			</g>
		</g>
		<g>
			<title> (FNGGOAEL_00729)
hypothetical protein</title>
			<polygon class=" (FNGGOAEL_00729)
hypothetical protein" points="294,40 323,10 323,70" fill="rgb(255,255,255)" fill-opacity="1.0" stroke="rgb(0,0,0)" stroke-width="2"  />
			<g>
				<title>Mn_catalase (PF05067)
"Manganese containing catalase"</title>
				<polygon class="PF05067" points="298,40 310,28 323,28 323,52 310,52" stroke-linejoin="round" width="29" height="24" fill="rgb(59,189,89)" stroke="rgb(47,151,71)" stroke-width="1" opacity="0.75" />
			</g>
		</g>
		<g>
			<title> (FNGGOAEL_00730)
hypothetical protein</title>
			<polygon class=" (FNGGOAEL_00730)
hypothetical protein" points="324,40 331,10 331,70" fill="rgb(255,255,255)" fill-opacity="1.0" stroke="rgb(0,0,0)" stroke-width="2"  />
			<g>
				<title>DUF2642 (PF10842)
"Protein of unknown function (DUF2642)"</title>
				<polygon class="PF10842" points="327,40 330,28 330,28 330,52 330,52" stroke-linejoin="round" width="6" height="24" fill="rgb(204,85,172)" stroke="rgb(163,68,137)" stroke-width="1" opacity="0.75" />
			</g>
		</g>
		<g>
			<title>sqhC (FNGGOAEL_00731)
Sporulenol synthase</title>
			<polygon class="sqhC (FNGGOAEL_00731)
Sporulenol synthase" points="401,25 370,25 370,10 340,40 370,70 370,55 401,55" fill="rgb(255,255,255)" fill-opacity="1.0" stroke="rgb(0,0,0)" stroke-width="2"  />
			<g>
				<title>SQHop_cyclase_C (PF13243)
"Squalene-hopene cyclase C-terminal domain"</title>
				<polygon class="PF13243" points="344,40 356,28 371,28 371,52 356,52" stroke-linejoin="round" width="31" height="24" fill="rgb(191,58,201)" stroke="rgb(152,46,160)" stroke-width="1" opacity="0.75" />
			</g>
			<g>
				<title>SQHop_cyclase_N (PF13249)
"Squalene-hopene cyclase N-terminal domain"</title>
				<rect class="PF13249" x="372" y="28" stroke-linejoin="round" width="28" height="24" fill="rgb(88,190,89)" stroke="rgb(70,152,71)" stroke-width="1" opacity="0.75" />
			</g>
		</g>
		<g>
			<title>resA_1 (FNGGOAEL_00732)
Thiol-disulfide oxidoreductase ResA</title>
			<polygon class="resA_1 (FNGGOAEL_00732)
Thiol-disulfide oxidoreductase ResA" points="405,40 421,10 421,70" fill="rgb(255,255,255)" fill-opacity="1.0" stroke="rgb(0,0,0)" stroke-width="2"  />
			<g>
				<title>AhpC-TSA (PF00578)
"AhpC/TSA family"</title>
				<polygon class="PF00578" points="408,40 415,28 420,28 420,52 415,52" stroke-linejoin="round" width="13" height="24" fill="rgb(166,71,190)" stroke="rgb(132,56,152)" stroke-width="1" opacity="0.75" />
			</g>
		</g>
		<g>
			<title> (FNGGOAEL_00733)
hypothetical protein</title>
			<polygon class=" (FNGGOAEL_00733)
hypothetical protein" points="434,10 444,40 434,70" fill="rgb(255,255,255)" fill-opacity="1.0" stroke="rgb(0,0,0)" stroke-width="2"  />
		</g>
		<g>
			<title> (FNGGOAEL_00734)
hypothetical protein</title>
			<polygon class=" (FNGGOAEL_00734)
hypothetical protein" points="442,10 449,40 442,70" fill="rgb(255,255,255)" fill-opacity="1.0" stroke="rgb(0,0,0)" stroke-width="2"  />
		</g>
		<g>
			<title> (FNGGOAEL_00735)
hypothetical protein</title>
			<polygon class=" (FNGGOAEL_00735)
hypothetical protein" points="453,10 467,40 453,70" fill="rgb(255,255,255)" fill-opacity="1.0" stroke="rgb(0,0,0)" stroke-width="2"  />
			<g>
				<title>DUF4871 (PF16167)
"Domain of unknown function (DUF4871)"</title>
				<polygon class="PF16167" points="455,28 458,28 463,40 458,52 455,52" stroke-linejoin="round" width="11" height="24" fill="rgb(198,98,115)" stroke="rgb(158,78,91)" stroke-width="1" opacity="0.75" />
			</g>
		</g>
		<g>
			<title> (FNGGOAEL_00736)
hypothetical protein</title>
			<polygon class=" (FNGGOAEL_00736)
hypothetical protein" points="474,10 484,40 474,70" fill="rgb(255,255,255)" fill-opacity="1.0" stroke="rgb(0,0,0)" stroke-width="2"  />
		</g>
		<g>
			<title> (FNGGOAEL_00737)
hypothetical protein</title>
			<polygon class=" (FNGGOAEL_00737)
hypothetical protein" points="485,10 499,40 485,70" fill="rgb(255,255,255)" fill-opacity="1.0" stroke="rgb(0,0,0)" stroke-width="2"  />
			<g>
				<title>Acetyltransf_1 (PF00583)
"Acetyltransferase (GNAT) family"</title>
				<polygon class="PF00583" points="485,28 490,28 496,40 490,52 485,52" stroke-linejoin="round" width="12" height="24" fill="rgb(121,183,50)" stroke="rgb(96,146,39)" stroke-width="1" opacity="0.75" />
			</g>
		</g>
		<g>
			<title> (FNGGOAEL_00738)
hypothetical protein</title>
			<polygon class=" (FNGGOAEL_00738)
hypothetical protein" points="508,40 520,10 520,70" fill="rgb(255,255,255)" fill-opacity="1.0" stroke="rgb(0,0,0)" stroke-width="2"  />
			<g>
				<title>Glyoxalase (PF00903)
"Glyoxalase/Bleomycin resistance protein/Dioxygenase superfamily"</title>
				<polygon class="PF00903" points="511,40 516,28 518,28 518,52 516,52" stroke-linejoin="round" width="10" height="24" fill="rgb(50,162,189)" stroke="rgb(40,129,151)" stroke-width="1" opacity="0.75" />
			</g>
		</g>
		<g>
			<title> (FNGGOAEL_00739)
hypothetical protein</title>
			<polygon class=" (FNGGOAEL_00739)
hypothetical protein" points="522,10 537,40 522,70" fill="rgb(255,255,255)" fill-opacity="1.0" stroke="rgb(0,0,0)" stroke-width="2"  />
			<g>
				<title>GyrI-like (PF06445)
"GyrI-like small molecule binding domain"</title>
				<polygon class="PF06445" points="522,28 527,28 533,40 527,52 522,52" stroke-linejoin="round" width="14" height="24" fill="rgb(61,183,118)" stroke="rgb(48,146,94)" stroke-width="1" opacity="0.75" />
			</g>
		</g>
		<g>
			<title>bmrR_2 (FNGGOAEL_00740)
Multidrug-efflux transporter 1 regulator</title>
			<polygon class="bmrR_2 (FNGGOAEL_00740)
Multidrug-efflux transporter 1 regulator" points="538,10 549,40 538,70" fill="rgb(255,255,255)" fill-opacity="1.0" stroke="rgb(0,0,0)" stroke-width="2"  />
			<g>
				<title>MerR_1 (PF13411)
"MerR HTH family regulatory protein"</title>
				<polygon class="PF13411" points="538,28 541,28 545,37 545,43 541,52 538,52" stroke-linejoin="round" width="7" height="24" fill="rgb(100,202,107)" stroke="rgb(80,161,85)" stroke-width="1" opacity="0.75" />
			</g>
		</g>
		<g>
			<title> (FNGGOAEL_00741)
hypothetical protein</title>
			<polygon class=" (FNGGOAEL_00741)
hypothetical protein" points="550,10 565,40 550,70" fill="rgb(255,255,255)" fill-opacity="1.0" stroke="rgb(0,0,0)" stroke-width="2"  />
			<g>
				<title>Polyketide_cyc2 (PF10604)
"Polyketide cyclase / dehydrase and lipid transport"</title>
				<polygon class="PF10604" points="550,28 555,28 561,40 555,52 550,52" stroke-linejoin="round" width="14" height="24" fill="rgb(105,204,74)" stroke="rgb(84,163,59)" stroke-width="1" opacity="0.75" />
			</g>
		</g>
		<g>
			<title> (FNGGOAEL_00742)
hypothetical protein</title>
			<polygon class=" (FNGGOAEL_00742)
hypothetical protein" points="569,10 597,40 569,70" fill="rgb(255,255,255)" fill-opacity="1.0" stroke="rgb(0,0,0)" stroke-width="2"  />
			<g>
				<title>Cupin_2 (PF07883)
"Cupin domain"</title>
				<polygon class="PF07883" points="587,34 593,40 587,46" stroke-linejoin="round" width="7" height="24" fill="rgb(211,192,74)" stroke="rgb(168,153,59)" stroke-width="1" opacity="0.75" />
			</g>
		</g>
		<g>
			<title> (FNGGOAEL_00743)
hypothetical protein</title>
			<polygon class=" (FNGGOAEL_00743)
hypothetical protein" points="604,25 609,25 609,10 639,40 609,70 609,55 604,55" fill="rgb(255,255,255)" fill-opacity="1.0" stroke="rgb(0,0,0)" stroke-width="2"  />
		</g>
		<g>
			<title> (FNGGOAEL_00744)
hypothetical protein</title>
			<polygon class=" (FNGGOAEL_00744)
hypothetical protein" points="638,25 655,25 655,10 685,40 655,70 655,55 638,55" fill="rgb(255,255,255)" fill-opacity="1.0" stroke="rgb(0,0,0)" stroke-width="2"  />
			<g>
				<title>Glyco_tranf_2_3 (PF13641)
"Glycosyltransferase like family 2"</title>
				<polygon class="PF13641" points="644,28 669,28 670,29 670,51 669,52 644,52" stroke-linejoin="round" width="26" height="24" fill="rgb(140,74,190)" stroke="rgb(111,59,152)" stroke-width="1" opacity="0.75" />
			</g>
		</g>
		<g>
			<title> (FNGGOAEL_00745)
hypothetical protein</title>
			<polygon class=" (FNGGOAEL_00745)
hypothetical protein" points="689,10 704,40 689,70" fill="rgb(255,255,255)" fill-opacity="1.0" stroke="rgb(0,0,0)" stroke-width="2"  />
			<g>
				<title>Cass2 (PF14526)
"Integron-associated effector binding protein"</title>
				<polygon class="PF14526" points="689,28 694,28 701,40 694,52 689,52" stroke-linejoin="round" width="15" height="24" fill="rgb(57,73,185)" stroke="rgb(45,58,148)" stroke-width="1" opacity="0.75" />
			</g>
		</g>
	</g>
</svg>
