<svg version="1.1" baseProfile="full" xmlns="http://www.w3.org/2000/svg" width="972.1" height="80">
	<g>
		<line x1="10" y1="40.0" x2="962.1" y2="40.0" style="stroke:rgb(70,70,70); stroke-width:3 "/>
		<g>
			<title>msrB (PPIKFOGO_00266)
Peptide methionine sulfoxide reductase MsrB</title>
			<polygon class="msrB (PPIKFOGO_00266)
Peptide methionine sulfoxide reductase MsrB" points="30,10 49,40 30,70" fill="rgb(255,255,255)" fill-opacity="1.0" stroke="rgb(0,0,0)" stroke-width="2"  />
			<g>
				<title>SelR (PF01641)
"SelR domain"</title>
				<polygon class="PF01641" points="35,28 38,28 45,40 38,52 35,52" stroke-linejoin="round" width="11" height="24" fill="rgb(192,99,202)" stroke="rgb(153,79,161)" stroke-width="1" opacity="0.75" />
			</g>
		</g>
		<g>
			<title>ydjA (PPIKFOGO_00267)
Putative NAD(P)H nitroreductase YdjA</title>
			<polygon class="ydjA (PPIKFOGO_00267)
Putative NAD(P)H nitroreductase YdjA" points="62,10 80,40 62,70" fill="rgb(255,255,255)" fill-opacity="1.0" stroke="rgb(0,0,0)" stroke-width="2"  />
			<g>
				<title>Nitroreductase (PF00881)
"Nitroreductase family"</title>
				<polygon class="PF00881" points="63,28 69,28 76,40 69,52 63,52" stroke-linejoin="round" width="15" height="24" fill="rgb(79,118,187)" stroke="rgb(63,94,149)" stroke-width="1" opacity="0.75" />
			</g>
		</g>
		<g>
			<title> (PPIKFOGO_00268)
hypothetical protein</title>
			<polygon class=" (PPIKFOGO_00268)
hypothetical protein" points="82,40 85,10 85,70" fill="rgb(255,255,255)" fill-opacity="1.0" stroke="rgb(0,0,0)" stroke-width="2"  />
		</g>
		<g>
			<title>dinG_2 (PPIKFOGO_00269)
3'-5' exonuclease DinG</title>
			<polygon class="dinG_2 (PPIKFOGO_00269)
3'-5' exonuclease DinG" points="90,25 91,25 91,10 121,40 91,70 91,55 90,55" fill="rgb(255,255,255)" fill-opacity="1.0" stroke="rgb(0,0,0)" stroke-width="2"  />
			<g>
				<title>RNase_T (PF00929)
"Exonuclease"</title>
				<polygon class="PF00929" points="90,28 104,28 105,29 105,51 104,52 90,52" stroke-linejoin="round" width="15" height="24" fill="rgb(201,87,120)" stroke="rgb(160,69,96)" stroke-width="1" opacity="0.75" />
			</g>
			<g>
				<title>BRCT (PF00533)
"BRCA1 C Terminus (BRCT) domain"</title>
				<polygon class="PF00533" points="111,35 116,40 111,45" stroke-linejoin="round" width="9" height="24" fill="rgb(69,217,144)" stroke="rgb(55,173,115)" stroke-width="1" opacity="0.75" />
			</g>
		</g>
		<g>
			<title> (PPIKFOGO_00270)
hypothetical protein</title>
			<polygon class=" (PPIKFOGO_00270)
hypothetical protein" points="122,40 140,10 140,70" fill="rgb(255,255,255)" fill-opacity="1.0" stroke="rgb(0,0,0)" stroke-width="2"  />
			<g>
				<title>Peptidase_C92 (PF05708)
"Permuted papain-like amidase enzyme, YaeF/YiiX, C92 family"</title>
				<polygon class="PF05708" points="125,40 132,28 135,28 135,52 132,52" stroke-linejoin="round" width="13" height="24" fill="rgb(188,91,163)" stroke="rgb(150,72,130)" stroke-width="1" opacity="0.75" />
			</g>
		</g>
		<g>
			<title> (PPIKFOGO_00271)
hypothetical protein</title>
			<polygon class=" (PPIKFOGO_00271)
hypothetical protein" points="144,10 148,40 144,70" fill="rgb(255,255,255)" fill-opacity="1.0" stroke="rgb(0,0,0)" stroke-width="2"  />
		</g>
		<g>
			<title> (PPIKFOGO_00272)
hypothetical protein</title>
			<polygon class=" (PPIKFOGO_00272)
hypothetical protein" points="153,10 166,40 153,70" fill="rgb(255,255,255)" fill-opacity="1.0" stroke="rgb(0,0,0)" stroke-width="2"  />
			<g>
				<title>LAGLIDADG_3 (PF14528)
"LAGLIDADG-like domain"</title>
				<polygon class="PF14528" points="160,34 162,40 160,46" stroke-linejoin="round" width="5" height="24" fill="rgb(97,101,195)" stroke="rgb(77,80,156)" stroke-width="1" opacity="0.75" />
			</g>
		</g>
		<g>
			<title> (PPIKFOGO_00273)
hypothetical protein</title>
			<polygon class=" (PPIKFOGO_00273)
hypothetical protein" points="184,40 190,10 190,70" fill="rgb(255,255,255)" fill-opacity="1.0" stroke="rgb(0,0,0)" stroke-width="2"  />
		</g>
		<g>
			<title>mgtA_2 (PPIKFOGO_00274)
GDP-mannose-dependent alpha-mannosyltransferase</title>
			<polygon class="mgtA_2 (PPIKFOGO_00274)
GDP-mannose-dependent alpha-mannosyltransferase" points="237,25 229,25 229,10 199,40 229,70 229,55 237,55" fill="rgb(255,255,255)" fill-opacity="1.0" stroke="rgb(0,0,0)" stroke-width="2"  />
			<g>
				<title>Glycos_transf_1 (PF00534)
"Glycosyl transferases group 1"</title>
				<polygon class="PF00534" points="203,40 215,28 218,28 218,52 215,52" stroke-linejoin="round" width="16" height="24" fill="rgb(228,92,150)" stroke="rgb(182,73,119)" stroke-width="1" opacity="0.75" />
			</g>
			<g>
				<title>Glyco_transf_4 (PF13439)
"Glycosyltransferase Family 4"</title>
				<rect class="PF13439" x="220" y="28" stroke-linejoin="round" width="16" height="24" fill="rgb(162,57,186)" stroke="rgb(129,45,148)" stroke-width="1" opacity="0.75" />
			</g>
		</g>
		<g>
			<title> (PPIKFOGO_00275)
hypothetical protein</title>
			<polygon class=" (PPIKFOGO_00275)
hypothetical protein" points="276,25 268,25 268,10 238,40 268,70 268,55 276,55" fill="rgb(255,255,255)" fill-opacity="1.0" stroke="rgb(0,0,0)" stroke-width="2"  />
			<g>
				<title>Epimerase (PF01370)
"NAD dependent epimerase/dehydratase family"</title>
				<polygon class="PF01370" points="247,35 254,28 275,28 275,52 254,52 247,45" stroke-linejoin="round" width="28" height="24" fill="rgb(98,102,214)" stroke="rgb(78,81,171)" stroke-width="1" opacity="0.75" />
			</g>
		</g>
		<g>
			<title> (PPIKFOGO_00276)
hypothetical protein</title>
			<polygon class=" (PPIKFOGO_00276)
hypothetical protein" points="335,25 316,25 316,10 286,40 316,70 316,55 335,55" fill="rgb(255,255,255)" fill-opacity="1.0" stroke="rgb(0,0,0)" stroke-width="2"  />
			<g>
				<title>Flot (PF15975)
"Flotillin"</title>
				<polygon class="PF15975" points="290,40 302,28 302,28 302,52 302,52" stroke-linejoin="round" width="13" height="24" fill="rgb(211,172,58)" stroke="rgb(168,137,46)" stroke-width="1" opacity="0.75" />
			</g>
			<g>
				<title>Band_7 (PF01145)
"SPFH domain / Band 7 family"</title>
				<rect class="PF01145" x="311" y="28" stroke-linejoin="round" width="20" height="24" fill="rgb(218,155,102)" stroke="rgb(174,124,81)" stroke-width="1" opacity="0.75" />
			</g>
		</g>
		<g>
			<title>acs (PPIKFOGO_00277)
Acetyl-coenzyme A synthetase</title>
			<polygon class="acs (PPIKFOGO_00277)
Acetyl-coenzyme A synthetase" points="343,25 378,25 378,10 408,40 378,70 378,55 343,55" fill="rgb(255,255,255)" fill-opacity="1.0" stroke="rgb(0,0,0)" stroke-width="2"  />
			<g>
				<title>ACAS_N (PF16177)
"Acetyl-coenzyme A synthetase N-terminus"</title>
				<rect class="PF16177" x="346" y="28" stroke-linejoin="round" width="5" height="24" fill="rgb(54,78,195)" stroke="rgb(43,62,156)" stroke-width="1" opacity="0.75" />
			</g>
			<g>
				<title>AMP-binding (PF00501)
"AMP-binding enzyme"</title>
				<polygon class="PF00501" points="352,28 391,28 395,32 395,48 391,52 352,52" stroke-linejoin="round" width="43" height="24" fill="rgb(60,217,223)" stroke="rgb(48,173,178)" stroke-width="1" opacity="0.75" />
			</g>
			<g>
				<title>AMP-binding_C (PF13193)
"AMP-binding enzyme C-terminal domain"</title>
				<polygon class="PF13193" points="396,33 403,40 403,40 396,47" stroke-linejoin="round" width="7" height="24" fill="rgb(182,50,118)" stroke="rgb(145,39,94)" stroke-width="1" opacity="0.75" />
			</g>
		</g>
		<g>
			<title>accD5 (PPIKFOGO_00278)
putative propionyl-CoA carboxylase beta chain 5</title>
			<polygon class="accD5 (PPIKFOGO_00278)
putative propionyl-CoA carboxylase beta chain 5" points="463,25 442,25 442,10 412,40 442,70 442,55 463,55" fill="rgb(255,255,255)" fill-opacity="1.0" stroke="rgb(0,0,0)" stroke-width="2"  />
			<g>
				<title>Carboxyl_trans (PF01039)
"Carboxyl transferase domain"</title>
				<polygon class="PF01039" points="416,40 428,28 460,28 460,52 428,52" stroke-linejoin="round" width="48" height="24" fill="rgb(180,136,60)" stroke="rgb(144,108,48)" stroke-width="1" opacity="0.75" />
			</g>
		</g>
		<g>
			<title>crt (PPIKFOGO_00279)
Short-chain-enoyl-CoA hydratase</title>
			<polygon class="crt (PPIKFOGO_00279)
Short-chain-enoyl-CoA hydratase" points="463,40 489,10 489,70" fill="rgb(255,255,255)" fill-opacity="1.0" stroke="rgb(0,0,0)" stroke-width="2"  />
			<g>
				<title>ECH_1 (PF00378)
"Enoyl-CoA hydratase/isomerase"</title>
				<polygon class="PF00378" points="467,40 477,28 488,28 488,52 477,52" stroke-linejoin="round" width="25" height="24" fill="rgb(218,72,181)" stroke="rgb(174,57,144)" stroke-width="1" opacity="0.75" />
			</g>
		</g>
		<g>
			<title>yngG (PPIKFOGO_00280)
Hydroxymethylglutaryl-CoA lyase YngG</title>
			<polygon class="yngG (PPIKFOGO_00280)
Hydroxymethylglutaryl-CoA lyase YngG" points="520,25 520,25 520,10 490,40 520,70 520,55 520,55" fill="rgb(255,255,255)" fill-opacity="1.0" stroke="rgb(0,0,0)" stroke-width="2"  />
			<g>
				<title>HMGL-like (PF00682)
"HMGL-like"</title>
				<polygon class="PF00682" points="494,40 506,28 519,28 519,52 506,52" stroke-linejoin="round" width="27" height="24" fill="rgb(84,228,141)" stroke="rgb(67,182,112)" stroke-width="1" opacity="0.75" />
			</g>
		</g>
		<g>
			<title>yngHB (PPIKFOGO_00281)
Biotin/lipoyl attachment protein</title>
			<polygon class="yngHB (PPIKFOGO_00281)
Biotin/lipoyl attachment protein" points="520,40 527,10 527,70" fill="rgb(255,255,255)" fill-opacity="1.0" stroke="rgb(0,0,0)" stroke-width="2"  />
			<g>
				<title>Biotin_lipoyl (PF00364)
"Biotin-requiring enzyme"</title>
				<polygon class="PF00364" points="523,40 526,28 526,28 526,52 526,52" stroke-linejoin="round" width="6" height="24" fill="rgb(67,214,213)" stroke="rgb(53,171,170)" stroke-width="1" opacity="0.75" />
			</g>
		</g>
		<g>
			<title>accC_1 (PPIKFOGO_00282)
Biotin carboxylase</title>
			<polygon class="accC_1 (PPIKFOGO_00282)
Biotin carboxylase" points="573,25 558,25 558,10 528,40 558,70 558,55 573,55" fill="rgb(255,255,255)" fill-opacity="1.0" stroke="rgb(0,0,0)" stroke-width="2"  />
			<g>
				<title>Biotin_carb_C (PF02785)
"Biotin carboxylase C-terminal domain"</title>
				<polygon class="PF02785" points="532,40 539,33 539,47" stroke-linejoin="round" width="10" height="24" fill="rgb(82,186,211)" stroke="rgb(65,148,168)" stroke-width="1" opacity="0.75" />
			</g>
			<g>
				<title>CPSase_L_D2 (PF02786)
"Carbamoyl-phosphate synthase L chain, ATP binding domain"</title>
				<polygon class="PF02786" points="540,32 544,28 560,28 560,52 544,52 540,48" stroke-linejoin="round" width="20" height="24" fill="rgb(190,97,205)" stroke="rgb(151,77,164)" stroke-width="1" opacity="0.75" />
			</g>
			<g>
				<title>Biotin_carb_N (PF00289)
"Biotin carboxylase, N-terminal domain"</title>
				<rect class="PF00289" x="562" y="28" stroke-linejoin="round" width="10" height="24" fill="rgb(59,114,187)" stroke="rgb(47,91,149)" stroke-width="1" opacity="0.75" />
			</g>
		</g>
		<g>
			<title>fadD3 (PPIKFOGO_00283)
3-[(3aS,4S,7aS)-7a-methyl-1, 5-dioxo-octahydro-1H-inden-4-yl]propanoyl:CoA ligase</title>
			<polygon class="fadD3 (PPIKFOGO_00283)
3-[(3aS,4S,7aS)-7a-methyl-1, 5-dioxo-octahydro-1H-inden-4-yl]propanoyl:CoA ligase" points="628,25 604,25 604,10 574,40 604,70 604,55 628,55" fill="rgb(255,255,255)" fill-opacity="1.0" stroke="rgb(0,0,0)" stroke-width="2"  />
			<g>
				<title>AMP-binding_C (PF13193)
"AMP-binding enzyme C-terminal domain"</title>
				<polygon class="PF13193" points="578,40 582,36 582,44" stroke-linejoin="round" width="7" height="24" fill="rgb(182,50,118)" stroke="rgb(145,39,94)" stroke-width="1" opacity="0.75" />
			</g>
			<g>
				<title>AMP-binding (PF00501)
"AMP-binding enzyme"</title>
				<polygon class="PF00501" points="584,34 590,28 627,28 627,52 590,52 584,46" stroke-linejoin="round" width="43" height="24" fill="rgb(60,217,223)" stroke="rgb(48,173,178)" stroke-width="1" opacity="0.75" />
			</g>
		</g>
		<g>
			<title>bcd_1 (PPIKFOGO_00284)
Acyl-CoA dehydrogenase, short-chain specific</title>
			<polygon class="bcd_1 (PPIKFOGO_00284)
Acyl-CoA dehydrogenase, short-chain specific" points="667,25 659,25 659,10 629,40 659,70 659,55 667,55" fill="rgb(255,255,255)" fill-opacity="1.0" stroke="rgb(0,0,0)" stroke-width="2"  />
			<g>
				<title>Acyl-CoA_dh_1 (PF00441)
"Acyl-CoA dehydrogenase, C-terminal domain"</title>
				<polygon class="PF00441" points="633,40 643,30 643,50" stroke-linejoin="round" width="14" height="24" fill="rgb(85,191,117)" stroke="rgb(68,152,93)" stroke-width="1" opacity="0.75" />
			</g>
			<g>
				<title>Acyl-CoA_dh_M (PF02770)
"Acyl-CoA dehydrogenase, middle domain"</title>
				<polygon class="PF02770" points="645,28 645,28 654,28 654,52 645,52 645,52" stroke-linejoin="round" width="9" height="24" fill="rgb(225,186,97)" stroke="rgb(180,148,77)" stroke-width="1" opacity="0.75" />
			</g>
			<g>
				<title>Acyl-CoA_dh_N (PF02771)
"Acyl-CoA dehydrogenase, N-terminal domain"</title>
				<rect class="PF02771" x="655" y="28" stroke-linejoin="round" width="11" height="24" fill="rgb(105,135,218)" stroke="rgb(84,108,174)" stroke-width="1" opacity="0.75" />
			</g>
		</g>
		<g>
			<title>kstR2_1 (PPIKFOGO_00285)
HTH-type transcriptional repressor KstR2</title>
			<polygon class="kstR2_1 (PPIKFOGO_00285)
HTH-type transcriptional repressor KstR2" points="669,40 690,10 690,70" fill="rgb(255,255,255)" fill-opacity="1.0" stroke="rgb(0,0,0)" stroke-width="2"  />
			<g>
				<title>TetR_C_24 (PF17932)
"Tetracyclin repressor-like, C-terminal domain"</title>
				<polygon class="PF17932" points="673,40 681,28 682,28 682,52 681,52" stroke-linejoin="round" width="11" height="24" fill="rgb(165,217,107)" stroke="rgb(132,173,85)" stroke-width="1" opacity="0.75" />
			</g>
			<g>
				<title>TetR_N (PF00440)
"Bacterial regulatory proteins, tetR family"</title>
				<rect class="PF00440" x="684" y="28" stroke-linejoin="round" width="4" height="24" fill="rgb(73,212,190)" stroke="rgb(58,169,152)" stroke-width="1" opacity="0.75" />
			</g>
		</g>
		<g>
			<title>parC (PPIKFOGO_00286)
DNA topoisomerase 4 subunit A</title>
			<polygon class="parC (PPIKFOGO_00286)
DNA topoisomerase 4 subunit A" points="779,25 728,25 728,10 698,40 728,70 728,55 779,55" fill="rgb(255,255,255)" fill-opacity="1.0" stroke="rgb(0,0,0)" stroke-width="2"  />
			<g>
				<title>DNA_gyraseA_C (PF03989)
"DNA gyrase C-terminal domain, beta-propeller"</title>
				<polygon class="PF03989" points="704,38 708,34 708,46 704,42" stroke-linejoin="round" width="4" height="24" fill="rgb(52,134,190)" stroke="rgb(41,107,152)" stroke-width="1" opacity="0.75" />
			</g>
			<g>
				<title>DNA_gyraseA_C (PF03989)
"DNA gyrase C-terminal domain, beta-propeller"</title>
				<polygon class="PF03989" points="709,33 713,29 713,51 709,47" stroke-linejoin="round" width="4" height="24" fill="rgb(52,134,190)" stroke="rgb(41,107,152)" stroke-width="1" opacity="0.75" />
			</g>
			<g>
				<title>DNA_gyraseA_C (PF03989)
"DNA gyrase C-terminal domain, beta-propeller"</title>
				<polygon class="PF03989" points="714,28 714,28 718,28 718,52 714,52 714,52" stroke-linejoin="round" width="4" height="24" fill="rgb(52,134,190)" stroke="rgb(41,107,152)" stroke-width="1" opacity="0.75" />
			</g>
			<g>
				<title>DNA_gyraseA_C (PF03989)
"DNA gyrase C-terminal domain, beta-propeller"</title>
				<rect class="PF03989" x="720" y="28" stroke-linejoin="round" width="5" height="24" fill="rgb(52,134,190)" stroke="rgb(41,107,152)" stroke-width="1" opacity="0.75" />
			</g>
			<g>
				<title>DNA_gyraseA_C (PF03989)
"DNA gyrase C-terminal domain, beta-propeller"</title>
				<rect class="PF03989" x="725" y="28" stroke-linejoin="round" width="4" height="24" fill="rgb(52,134,190)" stroke="rgb(41,107,152)" stroke-width="1" opacity="0.75" />
			</g>
			<g>
				<title>DNA_topoisoIV (PF00521)
"DNA gyrase/topoisomerase IV, subunit A"</title>
				<rect class="PF00521" x="732" y="28" stroke-linejoin="round" width="44" height="24" fill="rgb(196,204,77)" stroke="rgb(156,163,61)" stroke-width="1" opacity="0.75" />
			</g>
		</g>
		<g>
			<title>parE (PPIKFOGO_00287)
DNA topoisomerase 4 subunit B</title>
			<polygon class="parE (PPIKFOGO_00287)
DNA topoisomerase 4 subunit B" points="845,25 810,25 810,10 780,40 810,70 810,55 845,55" fill="rgb(255,255,255)" fill-opacity="1.0" stroke="rgb(0,0,0)" stroke-width="2"  />
			<g>
				<title>DNA_gyraseB_C (PF00986)
"DNA gyrase B subunit, carboxyl terminus"</title>
				<polygon class="PF00986" points="784,40 788,36 788,44" stroke-linejoin="round" width="6" height="24" fill="rgb(184,59,116)" stroke="rgb(147,47,92)" stroke-width="1" opacity="0.75" />
			</g>
			<g>
				<title>Toprim (PF01751)
"Toprim domain"</title>
				<polygon class="PF01751" points="791,33 796,28 802,28 802,52 796,52 791,47" stroke-linejoin="round" width="11" height="24" fill="rgb(95,212,145)" stroke="rgb(76,169,116)" stroke-width="1" opacity="0.75" />
			</g>
			<g>
				<title>DNA_gyraseB (PF00204)
"DNA gyrase B"</title>
				<rect class="PF00204" x="805" y="28" stroke-linejoin="round" width="17" height="24" fill="rgb(66,134,179)" stroke="rgb(52,107,143)" stroke-width="1" opacity="0.75" />
			</g>
			<g>
				<title>HATPase_c (PF02518)
"Histidine kinase-, DNA gyrase B-, and HSP90-like ATPase"</title>
				<rect class="PF02518" x="827" y="28" stroke-linejoin="round" width="14" height="24" fill="rgb(80,94,225)" stroke="rgb(64,75,180)" stroke-width="1" opacity="0.75" />
			</g>
		</g>
		<g>
			<title>yccU (PPIKFOGO_00288)
putative protein YccU</title>
			<polygon class="yccU (PPIKFOGO_00288)
putative protein YccU" points="861,40 874,10 874,70" fill="rgb(255,255,255)" fill-opacity="1.0" stroke="rgb(0,0,0)" stroke-width="2"  />
			<g>
				<title>CoA_binding_2 (PF13380)
"CoA binding domain"</title>
				<polygon class="PF13380" points="864,40 870,28 872,28 872,52 870,52" stroke-linejoin="round" width="11" height="24" fill="rgb(212,69,78)" stroke="rgb(169,55,62)" stroke-width="1" opacity="0.75" />
			</g>
		</g>
		<g>
			<title> (PPIKFOGO_00289)
hypothetical protein</title>
			<polygon class=" (PPIKFOGO_00289)
hypothetical protein" points="925,25 905,25 905,10 875,40 905,70 905,55 925,55" fill="rgb(255,255,255)" fill-opacity="1.0" stroke="rgb(0,0,0)" stroke-width="2"  />
			<g>
				<title>OpuAC (PF04069)
"Substrate binding domain of ABC-type glycine betaine transport system"</title>
				<polygon class="PF04069" points="879,40 891,28 901,28 901,52 891,52" stroke-linejoin="round" width="26" height="24" fill="rgb(81,218,80)" stroke="rgb(64,174,64)" stroke-width="1" opacity="0.75" />
			</g>
			<g>
				<title>BPD_transp_1 (PF00528)
"Binding-protein-dependent transport system inner membrane component"</title>
				<rect class="PF00528" x="905" y="28" stroke-linejoin="round" width="17" height="24" fill="rgb(77,208,225)" stroke="rgb(61,166,180)" stroke-width="1" opacity="0.75" />
			</g>
		</g>
		<g>
			<title>opuCA (PPIKFOGO_00290)
Carnitine transport ATP-binding protein OpuCA</title>
			<polygon class="opuCA (PPIKFOGO_00290)
Carnitine transport ATP-binding protein OpuCA" points="961,25 956,25 956,10 926,40 956,70 956,55 961,55" fill="rgb(255,255,255)" fill-opacity="1.0" stroke="rgb(0,0,0)" stroke-width="2"  />
			<g>
				<title>CBS (PF00571)
"CBS domain"</title>
				<polygon class="PF00571" points="930,40 932,38 932,42" stroke-linejoin="round" width="5" height="24" fill="rgb(220,56,105)" stroke="rgb(176,44,84)" stroke-width="1" opacity="0.75" />
			</g>
			<g>
				<title>ABC_tran (PF00005)
"ABC transporter"</title>
				<rect class="PF00005" x="945" y="28" stroke-linejoin="round" width="14" height="24" fill="rgb(129,201,63)" stroke="rgb(103,160,50)" stroke-width="1" opacity="0.75" />
			</g>
		</g>
	</g>
</svg>
