<svg version="1.1" baseProfile="full" xmlns="http://www.w3.org/2000/svg" width="622.2" height="80">
	<g>
		<line x1="10" y1="40.0" x2="612.2" y2="40.0" style="stroke:rgb(70,70,70); stroke-width:3 "/>
		<g>
			<title>adhT_2 (CJMCAHAL_03865)
Alcohol dehydrogenase</title>
			<polygon class="adhT_2 (CJMCAHAL_03865)
Alcohol dehydrogenase" points="52,25 48,25 48,10 18,40 48,70 48,55 52,55" fill="rgb(255,255,255)" fill-opacity="1.0" stroke="rgb(0,0,0)" stroke-width="2"  />
			<g>
				<title>ADH_zinc_N_2 (PF13602)
"Zinc-binding dehydrogenase"</title>
				<polygon class="PF13602" points="22,40 30,32 30,48" stroke-linejoin="round" width="12" height="24" fill="rgb(101,131,226)" stroke="rgb(80,104,180)" stroke-width="1" opacity="0.75" />
			</g>
			<g>
				<title>ADH_N (PF08240)
"Alcohol dehydrogenase GroES-like domain"</title>
				<rect class="PF08240" x="38" y="28" stroke-linejoin="round" width="11" height="24" fill="rgb(211,65,138)" stroke="rgb(168,51,110)" stroke-width="1" opacity="0.75" />
			</g>
		</g>
		<g>
			<title> (CJMCAHAL_03866)
hypothetical protein</title>
			<polygon class=" (CJMCAHAL_03866)
hypothetical protein" points="61,10 75,40 61,70" fill="rgb(255,255,255)" fill-opacity="1.0" stroke="rgb(0,0,0)" stroke-width="2"  />
			<g>
				<title>YwpF (PF14183)
"YwpF-like protein"</title>
				<polygon class="PF14183" points="61,28 66,28 71,40 66,52 61,52" stroke-linejoin="round" width="13" height="24" fill="rgb(199,178,73)" stroke="rgb(159,142,58)" stroke-width="1" opacity="0.75" />
			</g>
		</g>
		<g>
			<title>ktrB_4 (CJMCAHAL_03867)
Ktr system potassium uptake protein B</title>
			<polygon class="ktrB_4 (CJMCAHAL_03867)
Ktr system potassium uptake protein B" points="80,25 95,25 95,10 125,40 95,70 95,55 80,55" fill="rgb(255,255,255)" fill-opacity="1.0" stroke="rgb(0,0,0)" stroke-width="2"  />
			<g>
				<title>TrkH (PF02386)
"Cation transport protein"</title>
				<polygon class="PF02386" points="81,28 109,28 121,40 109,52 81,52" stroke-linejoin="round" width="42" height="24" fill="rgb(67,179,142)" stroke="rgb(53,143,113)" stroke-width="1" opacity="0.75" />
			</g>
		</g>
		<g>
			<title> (CJMCAHAL_03868)
hypothetical protein</title>
			<polygon class=" (CJMCAHAL_03868)
hypothetical protein" points="128,40 132,10 132,70" fill="rgb(255,255,255)" fill-opacity="1.0" stroke="rgb(0,0,0)" stroke-width="2"  />
			<g>
				<title>YjcZ_2 (PF09680)
"Family of unknown function"</title>
				<polygon class="PF09680" points="131,40 130,47 130,33" stroke-linejoin="round" width="2" height="24" fill="rgb(79,203,107)" stroke="rgb(63,162,85)" stroke-width="1" opacity="0.75" />
			</g>
		</g>
		<g>
			<title> (CJMCAHAL_03869)
hypothetical protein</title>
			<polygon class=" (CJMCAHAL_03869)
hypothetical protein" points="135,40 141,10 141,70" fill="rgb(255,255,255)" fill-opacity="1.0" stroke="rgb(0,0,0)" stroke-width="2"  />
		</g>
		<g>
			<title>crtN_3 (CJMCAHAL_03870)
4,4'-diapophytoene desaturase (4,4'-diapolycopene-forming)</title>
			<polygon class="crtN_3 (CJMCAHAL_03870)
4,4'-diapophytoene desaturase (4,4'-diapolycopene-forming)" points="152,25 171,25 171,10 201,40 171,70 171,55 152,55" fill="rgb(255,255,255)" fill-opacity="1.0" stroke="rgb(0,0,0)" stroke-width="2"  />
			<g>
				<title>Amino_oxidase (PF01593)
"Flavin containing amine oxidoreductase"</title>
				<polygon class="PF01593" points="153,28 185,28 197,40 185,52 153,52" stroke-linejoin="round" width="47" height="24" fill="rgb(184,74,52)" stroke="rgb(147,59,41)" stroke-width="1" opacity="0.75" />
			</g>
		</g>
		<g>
			<title>crtNc (CJMCAHAL_03871)
4,4'-diapolycopen-4-al dehydrogenase</title>
			<polygon class="crtNc (CJMCAHAL_03871)
4,4'-diapolycopen-4-al dehydrogenase" points="201,25 220,25 220,10 250,40 220,70 220,55 201,55" fill="rgb(255,255,255)" fill-opacity="1.0" stroke="rgb(0,0,0)" stroke-width="2"  />
			<g>
				<title>Amino_oxidase (PF01593)
"Flavin containing amine oxidoreductase"</title>
				<polygon class="PF01593" points="202,28 234,28 246,40 234,52 202,52" stroke-linejoin="round" width="46" height="24" fill="rgb(184,74,52)" stroke="rgb(147,59,41)" stroke-width="1" opacity="0.75" />
			</g>
		</g>
		<g>
			<title>crtB (CJMCAHAL_03872)
15-cis-phytoene synthase</title>
			<polygon class="crtB (CJMCAHAL_03872)
15-cis-phytoene synthase" points="250,10 277,40 250,70" fill="rgb(255,255,255)" fill-opacity="1.0" stroke="rgb(0,0,0)" stroke-width="2"  />
			<g>
				<title>SQS_PSY (PF00494)
"Squalene/phytoene synthase"</title>
				<polygon class="PF00494" points="251,28 262,28 273,40 262,52 251,52" stroke-linejoin="round" width="25" height="24" fill="rgb(178,91,49)" stroke="rgb(142,72,39)" stroke-width="1" opacity="0.75" />
			</g>
		</g>
		<g>
			<title>crtNb_1 (CJMCAHAL_03873)
4,4'-diapolycopene oxygenase</title>
			<polygon class="crtNb_1 (CJMCAHAL_03873)
4,4'-diapolycopene oxygenase" points="336,25 318,25 318,10 288,40 318,70 318,55 336,55" fill="rgb(255,255,255)" fill-opacity="1.0" stroke="rgb(0,0,0)" stroke-width="2"  />
			<g>
				<title>Amino_oxidase (PF01593)
"Flavin containing amine oxidoreductase"</title>
				<polygon class="PF01593" points="292,40 304,28 335,28 335,52 304,52" stroke-linejoin="round" width="47" height="24" fill="rgb(184,74,52)" stroke="rgb(147,59,41)" stroke-width="1" opacity="0.75" />
			</g>
		</g>
		<g>
			<title> (CJMCAHAL_03874)
hypothetical protein</title>
			<polygon class=" (CJMCAHAL_03874)
hypothetical protein" points="367,25 366,25 366,10 336,40 366,70 366,55 367,55" fill="rgb(255,255,255)" fill-opacity="1.0" stroke="rgb(0,0,0)" stroke-width="2"  />
			<g>
				<title>Glyco_transf_21 (PF13506)
"Glycosyl transferase family 21"</title>
				<polygon class="PF13506" points="346,34 352,28 363,28 363,52 352,52 346,46" stroke-linejoin="round" width="17" height="24" fill="rgb(174,185,57)" stroke="rgb(139,148,45)" stroke-width="1" opacity="0.75" />
			</g>
		</g>
		<g>
			<title> (CJMCAHAL_03875)
hypothetical protein</title>
			<polygon class=" (CJMCAHAL_03875)
hypothetical protein" points="374,40 395,10 395,70" fill="rgb(255,255,255)" fill-opacity="1.0" stroke="rgb(0,0,0)" stroke-width="2"  />
			<g>
				<title>Acyltransferase (PF01553)
"Acyltransferase"</title>
				<polygon class="PF01553" points="380,37 387,28 393,28 393,52 387,52 380,43" stroke-linejoin="round" width="13" height="24" fill="rgb(87,176,216)" stroke="rgb(69,140,172)" stroke-width="1" opacity="0.75" />
			</g>
		</g>
		<g>
			<title> (CJMCAHAL_03876)
hypothetical protein</title>
			<polygon class=" (CJMCAHAL_03876)
hypothetical protein" points="395,40 420,10 420,70" fill="rgb(255,255,255)" fill-opacity="1.0" stroke="rgb(0,0,0)" stroke-width="2"  />
			<g>
				<title>Caroten_synth (PF04240)
"Carotenoid biosynthesis protein"</title>
				<polygon class="PF04240" points="399,40 409,28 416,28 416,52 409,52" stroke-linejoin="round" width="20" height="24" fill="rgb(65,214,190)" stroke="rgb(52,171,152)" stroke-width="1" opacity="0.75" />
			</g>
		</g>
		<g>
			<title> (CJMCAHAL_03877)
hypothetical protein</title>
			<polygon class=" (CJMCAHAL_03877)
hypothetical protein" points="426,40 442,10 442,70" fill="rgb(255,255,255)" fill-opacity="1.0" stroke="rgb(0,0,0)" stroke-width="2"  />
			<g>
				<title>DoxX (PF07681)
"DoxX"</title>
				<polygon class="PF07681" points="430,38 436,28 440,28 440,52 436,52 430,42" stroke-linejoin="round" width="10" height="24" fill="rgb(93,188,216)" stroke="rgb(74,150,172)" stroke-width="1" opacity="0.75" />
			</g>
		</g>
		<g>
			<title> (CJMCAHAL_03878)
hypothetical protein</title>
			<polygon class=" (CJMCAHAL_03878)
hypothetical protein" points="459,10 466,40 459,70" fill="rgb(255,255,255)" fill-opacity="1.0" stroke="rgb(0,0,0)" stroke-width="2"  />
			<g>
				<title>DUF1659 (PF07872)
"Protein of unknown function (DUF1659)"</title>
				<polygon class="PF07872" points="459,28 459,28 463,39 463,41 459,52 459,52" stroke-linejoin="round" width="4" height="24" fill="rgb(172,48,195)" stroke="rgb(137,38,156)" stroke-width="1" opacity="0.75" />
			</g>
		</g>
		<g>
			<title> (CJMCAHAL_03879)
hypothetical protein</title>
			<polygon class=" (CJMCAHAL_03879)
hypothetical protein" points="468,10 475,40 468,70" fill="rgb(255,255,255)" fill-opacity="1.0" stroke="rgb(0,0,0)" stroke-width="2"  />
			<g>
				<title>DUF2922 (PF11148)
"Protein of unknown function (DUF2922)"</title>
				<polygon class="PF11148" points="468,28 468,28 472,40 468,52 468,52" stroke-linejoin="round" width="6" height="24" fill="rgb(196,220,80)" stroke="rgb(156,176,64)" stroke-width="1" opacity="0.75" />
			</g>
		</g>
		<g>
			<title> (CJMCAHAL_03880)
hypothetical protein</title>
			<polygon class=" (CJMCAHAL_03880)
hypothetical protein" points="491,10 499,40 491,70" fill="rgb(255,255,255)" fill-opacity="1.0" stroke="rgb(0,0,0)" stroke-width="2"  />
			<g>
				<title>YvrJ (PF12841)
"YvrJ protein family"</title>
				<polygon class="PF12841" points="494,33 495,40 494,47" stroke-linejoin="round" width="3" height="24" fill="rgb(207,53,76)" stroke="rgb(165,42,60)" stroke-width="1" opacity="0.75" />
			</g>
		</g>
		<g>
			<title>sipT (CJMCAHAL_03881)
Signal peptidase I T</title>
			<polygon class="sipT (CJMCAHAL_03881)
Signal peptidase I T" points="500,40 517,10 517,70" fill="rgb(255,255,255)" fill-opacity="1.0" stroke="rgb(0,0,0)" stroke-width="2"  />
			<g>
				<title>Peptidase_S24 (PF00717)
"Peptidase S24-like"</title>
				<polygon class="PF00717" points="507,33 510,28 513,28 513,52 510,52 507,47" stroke-linejoin="round" width="6" height="24" fill="rgb(180,76,105)" stroke="rgb(144,60,83)" stroke-width="1" opacity="0.75" />
			</g>
		</g>
		<g>
			<title> (CJMCAHAL_03882)
hypothetical protein</title>
			<polygon class=" (CJMCAHAL_03882)
hypothetical protein" points="527,10 532,40 527,70" fill="rgb(255,255,255)" fill-opacity="1.0" stroke="rgb(0,0,0)" stroke-width="2"  />
			<g>
				<title>SpoOE-like (PF09388)
"Spo0E like sporulation regulatory protein"</title>
				<polygon class="PF09388" points="528,33 529,40 528,47" stroke-linejoin="round" width="4" height="24" fill="rgb(188,111,63)" stroke="rgb(150,88,50)" stroke-width="1" opacity="0.75" />
			</g>
		</g>
		<g>
			<title>dapX_2 (CJMCAHAL_03883)
putative N-acetyl-LL-diaminopimelate aminotransferase</title>
			<polygon class="dapX_2 (CJMCAHAL_03883)
putative N-acetyl-LL-diaminopimelate aminotransferase" points="571,25 563,25 563,10 533,40 563,70 563,55 571,55" fill="rgb(255,255,255)" fill-opacity="1.0" stroke="rgb(0,0,0)" stroke-width="2"  />
			<g>
				<title>Aminotran_1_2 (PF00155)
"Aminotransferase class I and II"</title>
				<polygon class="PF00155" points="537,40 549,28 567,28 567,52 549,52" stroke-linejoin="round" width="34" height="24" fill="rgb(89,113,198)" stroke="rgb(71,90,158)" stroke-width="1" opacity="0.75" />
			</g>
		</g>
		<g>
			<title> (CJMCAHAL_03884)
hypothetical protein</title>
			<polygon class=" (CJMCAHAL_03884)
hypothetical protein" points="575,10 579,40 575,70" fill="rgb(255,255,255)" fill-opacity="1.0" stroke="rgb(0,0,0)" stroke-width="2"  />
			<g>
				<title>Fur_reg_FbpB (PF13040)
"Fur-regulated basic protein B"</title>
				<polygon class="PF13040" points="575,29 576,40 575,51" stroke-linejoin="round" width="3" height="24" fill="rgb(190,83,63)" stroke="rgb(152,66,50)" stroke-width="1" opacity="0.75" />
			</g>
		</g>
	</g>
</svg>
