<svg version="1.1" baseProfile="full" xmlns="http://www.w3.org/2000/svg" width="536.6" height="80">
	<g>
		<line x1="10" y1="40.0" x2="526.6" y2="40.0" style="stroke:rgb(70,70,70); stroke-width:3 "/>
		<g>
			<title> (HAMLPNCN_01711)
hypothetical protein</title>
			<polygon class=" (HAMLPNCN_01711)
hypothetical protein" points="18,10 39,40 18,70" fill="rgb(255,255,255)" fill-opacity="1.0" stroke="rgb(0,0,0)" stroke-width="2"  />
			<g>
				<title>Acetyltransf_8 (PF13523)
"Acetyltransferase (GNAT) domain"</title>
				<polygon class="PF13523" points="20,28 27,28 34,38 34,42 27,52 20,52" stroke-linejoin="round" width="14" height="24" fill="rgb(106,224,203)" stroke="rgb(84,179,162)" stroke-width="1" opacity="0.75" />
			</g>
		</g>
		<g>
			<title>aes_2 (HAMLPNCN_01712)
Acetyl esterase</title>
			<polygon class="aes_2 (HAMLPNCN_01712)
Acetyl esterase" points="39,25 40,25 40,10 70,40 40,70 40,55 39,55" fill="rgb(255,255,255)" fill-opacity="1.0" stroke="rgb(0,0,0)" stroke-width="2"  />
			<g>
				<title>Abhydrolase_3 (PF07859)
"alpha/beta hydrolase fold"</title>
				<polygon class="PF07859" points="47,28 54,28 66,40 54,52 47,52" stroke-linejoin="round" width="20" height="24" fill="rgb(183,51,179)" stroke="rgb(146,40,143)" stroke-width="1" opacity="0.75" />
			</g>
		</g>
		<g>
			<title>dat_1 (HAMLPNCN_01713)
Diaminobutyrate--2-oxoglutarate aminotransferase</title>
			<polygon class="dat_1 (HAMLPNCN_01713)
Diaminobutyrate--2-oxoglutarate aminotransferase" points="81,25 96,25 96,10 126,40 96,70 96,55 81,55" fill="rgb(255,255,255)" fill-opacity="1.0" stroke="rgb(0,0,0)" stroke-width="2"  />
			<g>
				<title>Aminotran_3 (PF00202)
"Aminotransferase class-III"</title>
				<polygon class="PF00202" points="83,28 109,28 121,40 109,52 83,52" stroke-linejoin="round" width="42" height="24" fill="rgb(49,163,189)" stroke="rgb(39,130,151)" stroke-width="1" opacity="0.75" />
			</g>
		</g>
		<g>
			<title>ddc (HAMLPNCN_01714)
L-2,4-diaminobutyrate decarboxylase</title>
			<polygon class="ddc (HAMLPNCN_01714)
L-2,4-diaminobutyrate decarboxylase" points="126,25 146,25 146,10 176,40 146,70 146,55 126,55" fill="rgb(255,255,255)" fill-opacity="1.0" stroke="rgb(0,0,0)" stroke-width="2"  />
			<g>
				<title>Pyridoxal_deC (PF00282)
"Pyridoxal-dependent decarboxylase conserved domain"</title>
				<polygon class="PF00282" points="132,28 160,28 169,37 169,43 160,52 132,52" stroke-linejoin="round" width="37" height="24" fill="rgb(100,218,166)" stroke="rgb(80,174,132)" stroke-width="1" opacity="0.75" />
			</g>
		</g>
		<g>
			<title>iucA_1 (HAMLPNCN_01715)
N(2)-citryl-N(6)-acetyl-N(6)-hydroxylysine synthase</title>
			<polygon class="iucA_1 (HAMLPNCN_01715)
N(2)-citryl-N(6)-acetyl-N(6)-hydroxylysine synthase" points="176,10 201,40 176,70" fill="rgb(255,255,255)" fill-opacity="1.0" stroke="rgb(0,0,0)" stroke-width="2"  />
			<g>
				<title>IucA_IucC (PF04183)
"IucA / IucC family"</title>
				<polygon class="PF04183" points="190,32 197,40 190,48" stroke-linejoin="round" width="8" height="24" fill="rgb(221,104,121)" stroke="rgb(176,83,96)" stroke-width="1" opacity="0.75" />
			</g>
		</g>
		<g>
			<title>iucA_2 (HAMLPNCN_01716)
N(2)-citryl-N(6)-acetyl-N(6)-hydroxylysine synthase</title>
			<polygon class="iucA_2 (HAMLPNCN_01716)
N(2)-citryl-N(6)-acetyl-N(6)-hydroxylysine synthase" points="201,25 205,25 205,10 235,40 205,70 205,55 201,55" fill="rgb(255,255,255)" fill-opacity="1.0" stroke="rgb(0,0,0)" stroke-width="2"  />
			<g>
				<title>IucA_IucC (PF04183)
"IucA / IucC family"</title>
				<rect class="PF04183" x="201" y="28" stroke-linejoin="round" width="13" height="24" fill="rgb(221,104,121)" stroke="rgb(176,83,96)" stroke-width="1" opacity="0.75" />
			</g>
			<g>
				<title>FhuF (PF06276)
"Ferric iron reductase FhuF-like transporter"</title>
				<polygon class="PF06276" points="217,28 219,28 231,40 219,52 217,52" stroke-linejoin="round" width="15" height="24" fill="rgb(76,151,221)" stroke="rgb(60,120,176)" stroke-width="1" opacity="0.75" />
			</g>
		</g>
		<g>
			<title>iucB (HAMLPNCN_01717)
N(6)-hydroxylysine O-acetyltransferase</title>
			<polygon class="iucB (HAMLPNCN_01717)
N(6)-hydroxylysine O-acetyltransferase" points="235,10 254,40 235,70" fill="rgb(255,255,255)" fill-opacity="1.0" stroke="rgb(0,0,0)" stroke-width="2"  />
			<g>
				<title>Acetyltransf_8 (PF13523)
"Acetyltransferase (GNAT) domain"</title>
				<polygon class="PF13523" points="237,28 243,28 250,40 243,52 237,52" stroke-linejoin="round" width="14" height="24" fill="rgb(106,224,203)" stroke="rgb(84,179,162)" stroke-width="1" opacity="0.75" />
			</g>
		</g>
		<g>
			<title>iucD_1 (HAMLPNCN_01718)
L-lysine N6-monooxygenase</title>
			<polygon class="iucD_1 (HAMLPNCN_01718)
L-lysine N6-monooxygenase" points="254,25 268,25 268,10 298,40 268,70 268,55 254,55" fill="rgb(255,255,255)" fill-opacity="1.0" stroke="rgb(0,0,0)" stroke-width="2"  />
			<g>
				<title>K_oxygenase (PF13434)
"L-lysine 6-monooxygenase (NADPH-requiring)"</title>
				<polygon class="PF13434" points="254,28 282,28 288,34 288,46 282,52 254,52" stroke-linejoin="round" width="34" height="24" fill="rgb(81,213,119)" stroke="rgb(64,170,95)" stroke-width="1" opacity="0.75" />
			</g>
		</g>
		<g>
			<title>iucC (HAMLPNCN_01719)
Aerobactin synthase</title>
			<polygon class="iucC (HAMLPNCN_01719)
Aerobactin synthase" points="297,25 329,25 329,10 359,40 329,70 329,55 297,55" fill="rgb(255,255,255)" fill-opacity="1.0" stroke="rgb(0,0,0)" stroke-width="2"  />
			<g>
				<title>IucA_IucC (PF04183)
"IucA / IucC family"</title>
				<rect class="PF04183" x="313" y="28" stroke-linejoin="round" width="25" height="24" fill="rgb(221,104,121)" stroke="rgb(176,83,96)" stroke-width="1" opacity="0.75" />
			</g>
			<g>
				<title>FhuF (PF06276)
"Ferric iron reductase FhuF-like transporter"</title>
				<polygon class="PF06276" points="340,28 343,28 355,40 343,52 340,52" stroke-linejoin="round" width="16" height="24" fill="rgb(76,151,221)" stroke="rgb(60,120,176)" stroke-width="1" opacity="0.75" />
			</g>
		</g>
		<g>
			<title>lysC (HAMLPNCN_01720)
Aspartokinase</title>
			<polygon class="lysC (HAMLPNCN_01720)
Aspartokinase" points="368,25 370,25 370,10 400,40 370,70 370,55 368,55" fill="rgb(255,255,255)" fill-opacity="1.0" stroke="rgb(0,0,0)" stroke-width="2"  />
			<g>
				<title>AA_kinase (PF00696)
"Amino acid kinase family"</title>
				<rect class="PF00696" x="368" y="28" stroke-linejoin="round" width="15" height="24" fill="rgb(148,78,224)" stroke="rgb(118,62,179)" stroke-width="1" opacity="0.75" />
			</g>
		</g>
		<g>
			<title> (HAMLPNCN_01721)
hypothetical protein</title>
			<polygon class=" (HAMLPNCN_01721)
hypothetical protein" points="406,25 414,25 414,10 444,40 414,70 414,55 406,55" fill="rgb(255,255,255)" fill-opacity="1.0" stroke="rgb(0,0,0)" stroke-width="2"  />
			<g>
				<title>DUF2817 (PF10994)
"Protein of unknown function (DUF2817)"</title>
				<polygon class="PF10994" points="407,28 428,28 440,40 428,52 407,52" stroke-linejoin="round" width="35" height="24" fill="rgb(64,206,144)" stroke="rgb(51,164,115)" stroke-width="1" opacity="0.75" />
			</g>
		</g>
		<g>
			<title> (HAMLPNCN_01722)
hypothetical protein</title>
			<polygon class=" (HAMLPNCN_01722)
hypothetical protein" points="445,10 457,40 445,70" fill="rgb(255,255,255)" fill-opacity="1.0" stroke="rgb(0,0,0)" stroke-width="2"  />
			<g>
				<title>DUF3243 (PF11588)
"Protein of unknown function (DUF3243)"</title>
				<polygon class="PF11588" points="449,28 449,28 454,40 449,52 449,52" stroke-linejoin="round" width="7" height="24" fill="rgb(75,214,128)" stroke="rgb(60,171,102)" stroke-width="1" opacity="0.75" />
			</g>
		</g>
		<g>
			<title> (HAMLPNCN_01723)
hypothetical protein</title>
			<polygon class=" (HAMLPNCN_01723)
hypothetical protein" points="461,40 466,10 466,70" fill="rgb(255,255,255)" fill-opacity="1.0" stroke="rgb(0,0,0)" stroke-width="2"  />
		</g>
		<g>
			<title> (HAMLPNCN_01724)
hypothetical protein</title>
			<polygon class=" (HAMLPNCN_01724)
hypothetical protein" points="471,10 478,40 471,70" fill="rgb(255,255,255)" fill-opacity="1.0" stroke="rgb(0,0,0)" stroke-width="2"  />
			<g>
				<title>HTH_3 (PF01381)
"Helix-turn-helix"</title>
				<polygon class="PF01381" points="471,28 471,28 475,40 471,52 471,52" stroke-linejoin="round" width="5" height="24" fill="rgb(105,79,202)" stroke="rgb(83,63,161)" stroke-width="1" opacity="0.75" />
			</g>
		</g>
		<g>
			<title> (HAMLPNCN_01725)
hypothetical protein</title>
			<polygon class=" (HAMLPNCN_01725)
hypothetical protein" points="477,10 491,40 477,70" fill="rgb(255,255,255)" fill-opacity="1.0" stroke="rgb(0,0,0)" stroke-width="2"  />
		</g>
		<g>
			<title>ydbD_1 (HAMLPNCN_01726)
putative manganese catalase</title>
			<polygon class="ydbD_1 (HAMLPNCN_01726)
putative manganese catalase" points="496,40 520,10 520,70" fill="rgb(255,255,255)" fill-opacity="1.0" stroke="rgb(0,0,0)" stroke-width="2"  />
			<g>
				<title>Mn_catalase (PF05067)
"Manganese containing catalase"</title>
				<polygon class="PF05067" points="500,40 510,28 520,28 520,52 510,52" stroke-linejoin="round" width="24" height="24" fill="rgb(59,189,89)" stroke="rgb(47,151,71)" stroke-width="1" opacity="0.75" />
			</g>
		</g>
	</g>
</svg>
