<svg version="1.1" baseProfile="full" xmlns="http://www.w3.org/2000/svg" width="286.8666666666667" height="80">
	<g>
		<line x1="10" y1="40.0" x2="276.8666666666667" y2="40.0" style="stroke:rgb(70,70,70); stroke-width:3 "/>
		<g>
			<title> (PLNGCNKA_01319)
hypothetical protein</title>
			<polygon class=" (PLNGCNKA_01319)
hypothetical protein" points="90,25 55,25 55,10 25,40 55,70 55,55 90,55" fill="rgb(255,255,255)" fill-opacity="1.0" stroke="rgb(0,0,0)" stroke-width="2"  />
			<g>
				<title>YcaO (PF02624)
"YcaO cyclodehydratase, ATP-ad Mg2+-binding"</title>
				<polygon class="PF02624" points="29,40 41,28 63,28 63,52 41,52 29,40" stroke-linejoin="round" width="34" height="24" fill="rgb(76,84,185)" stroke="rgb(60,67,148)" stroke-width="1" opacity="0.75" />
			</g>
		</g>
		<g>
			<title> (PLNGCNKA_01320)
hypothetical protein</title>
			<polygon class=" (PLNGCNKA_01320)
hypothetical protein" points="154,25 120,25 120,10 90,40 120,70 120,55 154,55" fill="rgb(255,255,255)" fill-opacity="1.0" stroke="rgb(0,0,0)" stroke-width="2"  />
		</g>
		<g>
			<title> (PLNGCNKA_01321)
hypothetical protein</title>
			<polygon class=" (PLNGCNKA_01321)
hypothetical protein" points="157,40 164,10 164,70" fill="rgb(255,255,255)" fill-opacity="1.0" stroke="rgb(0,0,0)" stroke-width="2"  />
		</g>
		<g>
			<title> (PLNGCNKA_01322)
hypothetical protein</title>
			<polygon class=" (PLNGCNKA_01322)
hypothetical protein" points="211,25 206,25 206,10 176,40 206,70 206,55 211,55" fill="rgb(255,255,255)" fill-opacity="1.0" stroke="rgb(0,0,0)" stroke-width="2"  />
			<g>
				<title>PS_pyruv_trans (PF04230)
"Polysaccharide pyruvyl transferase"</title>
				<polygon class="PF04230" points="182,38 192,28 209,28 209,52 192,52 182,42" stroke-linejoin="round" width="27" height="24" fill="rgb(211,93,213)" stroke="rgb(168,74,170)" stroke-width="1" opacity="0.75" />
			</g>
		</g>
		<g>
			<title>murJ_2 (PLNGCNKA_01323)
Lipid II flippase MurJ</title>
			<polygon class="murJ_2 (PLNGCNKA_01323)
Lipid II flippase MurJ" points="263,25 242,25 242,10 212,40 242,70 242,55 263,55" fill="rgb(255,255,255)" fill-opacity="1.0" stroke="rgb(0,0,0)" stroke-width="2"  />
			<g>
				<title>Polysacc_synt_C (PF14667)
"Polysaccharide biosynthesis C-terminal domain"</title>
				<polygon class="PF14667" points="216,40 227,29 227,51" stroke-linejoin="round" width="14" height="24" fill="rgb(222,92,150)" stroke="rgb(177,73,120)" stroke-width="1" opacity="0.75" />
			</g>
			<g>
				<title>Polysacc_synt (PF01943)
"Polysaccharide biosynthesis protein"</title>
				<rect class="PF01943" x="233" y="28" stroke-linejoin="round" width="30" height="24" fill="rgb(71,213,101)" stroke="rgb(56,170,80)" stroke-width="1" opacity="0.75" />
			</g>
		</g>
		<g>
			<title>tagA_1 (PLNGCNKA_01324)
N-acetylglucosaminyldiphosphoundecaprenol N-acetyl-beta-D-mannosaminyltransferase</title>
			<polygon class="tagA_1 (PLNGCNKA_01324)
N-acetylglucosaminyldiphosphoundecaprenol N-acetyl-beta-D-mannosaminyltransferase" points="264,40 273,10 273,70" fill="rgb(255,255,255)" fill-opacity="1.0" stroke="rgb(0,0,0)" stroke-width="2"  />
			<g>
				<title>Glyco_tran_WecB (PF03808)
"Glycosyl transferase WecB/TagA/CpsF family"</title>
				<polygon class="PF03808" points="267,40 271,28 272,28 272,52 271,52" stroke-linejoin="round" width="7" height="24" fill="rgb(83,144,229)" stroke="rgb(66,115,183)" stroke-width="1" opacity="0.75" />
			</g>
		</g>
	</g>
</svg>
