<svg version="1.1" baseProfile="full" xmlns="http://www.w3.org/2000/svg" width="589.7666666666667" height="80">
	<g>
		<line x1="10" y1="40.0" x2="579.7666666666667" y2="40.0" style="stroke:rgb(70,70,70); stroke-width:3 "/>
		<g>
			<title>acyII (HAMLPNCN_01943)
Penicillin acylase 2 proenzyme</title>
			<polygon class="acyII (HAMLPNCN_01943)
Penicillin acylase 2 proenzyme" points="28,25 76,25 76,10 106,40 76,70 76,55 28,55" fill="rgb(255,255,255)" fill-opacity="1.0" stroke="rgb(0,0,0)" stroke-width="2"  />
			<g>
				<title>Penicil_amidase (PF01804)
"Penicillin amidase"</title>
				<polygon class="PF01804" points="34,28 90,28 102,40 90,52 34,52" stroke-linejoin="round" width="71" height="24" fill="rgb(62,133,186)" stroke="rgb(49,106,148)" stroke-width="1" opacity="0.75" />
			</g>
		</g>
		<g>
			<title> (HAMLPNCN_01944)
hypothetical protein</title>
			<polygon class=" (HAMLPNCN_01944)
hypothetical protein" points="106,40 122,10 122,70" fill="rgb(255,255,255)" fill-opacity="1.0" stroke="rgb(0,0,0)" stroke-width="2"  />
			<g>
				<title>Polyketide_cyc2 (PF10604)
"Polyketide cyclase / dehydrase and lipid transport"</title>
				<polygon class="PF10604" points="109,40 116,28 121,28 121,52 116,52" stroke-linejoin="round" width="14" height="24" fill="rgb(105,204,74)" stroke="rgb(84,163,59)" stroke-width="1" opacity="0.75" />
			</g>
		</g>
		<g>
			<title> (HAMLPNCN_01945)
hypothetical protein</title>
			<polygon class=" (HAMLPNCN_01945)
hypothetical protein" points="150,10 157,40 150,70" fill="rgb(255,255,255)" fill-opacity="1.0" stroke="rgb(0,0,0)" stroke-width="2"  />
		</g>
		<g>
			<title>fpuD (HAMLPNCN_01946)
Petrobactin import ATP-binding protein FpuD</title>
			<polygon class="fpuD (HAMLPNCN_01946)
Petrobactin import ATP-binding protein FpuD" points="163,10 190,40 163,70" fill="rgb(255,255,255)" fill-opacity="1.0" stroke="rgb(0,0,0)" stroke-width="2"  />
			<g>
				<title>ABC_tran (PF00005)
"ABC transporter"</title>
				<polygon class="PF00005" points="164,28 174,28 178,31 178,49 174,52 164,52" stroke-linejoin="round" width="14" height="24" fill="rgb(129,201,63)" stroke="rgb(103,160,50)" stroke-width="1" opacity="0.75" />
			</g>
		</g>
		<g>
			<title> (HAMLPNCN_01947)
hypothetical protein</title>
			<polygon class=" (HAMLPNCN_01947)
hypothetical protein" points="195,25 199,25 199,10 229,40 199,70 199,55 195,55" fill="rgb(255,255,255)" fill-opacity="1.0" stroke="rgb(0,0,0)" stroke-width="2"  />
			<g>
				<title>DUF2332 (PF10094)
"Uncharacterized protein conserved in bacteria (DUF2332)"</title>
				<polygon class="PF10094" points="195,28 213,28 225,40 213,52 195,52" stroke-linejoin="round" width="33" height="24" fill="rgb(180,85,205)" stroke="rgb(144,68,164)" stroke-width="1" opacity="0.75" />
			</g>
		</g>
		<g>
			<title> (HAMLPNCN_01948)
hypothetical protein</title>
			<polygon class=" (HAMLPNCN_01948)
hypothetical protein" points="231,10 256,40 231,70" fill="rgb(255,255,255)" fill-opacity="1.0" stroke="rgb(0,0,0)" stroke-width="2"  />
			<g>
				<title>APH (PF01636)
"Phosphotransferase enzyme family"</title>
				<polygon class="PF01636" points="231,28 242,28 252,40 252,40 242,52 231,52" stroke-linejoin="round" width="21" height="24" fill="rgb(106,220,228)" stroke="rgb(84,176,182)" stroke-width="1" opacity="0.75" />
			</g>
		</g>
		<g>
			<title> (HAMLPNCN_01949)
hypothetical protein</title>
			<polygon class=" (HAMLPNCN_01949)
hypothetical protein" points="262,10 271,40 262,70" fill="rgb(255,255,255)" fill-opacity="1.0" stroke="rgb(0,0,0)" stroke-width="2"  />
		</g>
		<g>
			<title> (HAMLPNCN_01950)
hypothetical protein</title>
			<polygon class=" (HAMLPNCN_01950)
hypothetical protein" points="321,10 343,40 321,70" fill="rgb(255,255,255)" fill-opacity="1.0" stroke="rgb(0,0,0)" stroke-width="2"  />
		</g>
		<g>
			<title> (HAMLPNCN_01951)
hypothetical protein</title>
			<polygon class=" (HAMLPNCN_01951)
hypothetical protein" points="343,25 377,25 377,10 407,40 377,70 377,55 343,55" fill="rgb(255,255,255)" fill-opacity="1.0" stroke="rgb(0,0,0)" stroke-width="2"  />
			<g>
				<title>YcaO (PF02624)
"YcaO cyclodehydratase, ATP-ad Mg2+-binding"</title>
				<polygon class="PF02624" points="369,28 391,28 403,40 403,40 391,52 369,52" stroke-linejoin="round" width="34" height="24" fill="rgb(76,84,185)" stroke="rgb(60,67,148)" stroke-width="1" opacity="0.75" />
			</g>
		</g>
		<g>
			<title> (HAMLPNCN_01952)
hypothetical protein</title>
			<polygon class=" (HAMLPNCN_01952)
hypothetical protein" points="408,25 429,25 429,10 459,40 429,70 429,55 408,55" fill="rgb(255,255,255)" fill-opacity="1.0" stroke="rgb(0,0,0)" stroke-width="2"  />
			<g>
				<title>Nitroreductase (PF00881)
"Nitroreductase family"</title>
				<polygon class="PF00881" points="441,28 443,28 455,40 443,52 441,52" stroke-linejoin="round" width="16" height="24" fill="rgb(79,118,187)" stroke="rgb(63,94,149)" stroke-width="1" opacity="0.75" />
			</g>
		</g>
		<g>
			<title> (HAMLPNCN_01953)
hypothetical protein</title>
			<polygon class=" (HAMLPNCN_01953)
hypothetical protein" points="466,10 481,40 466,70" fill="rgb(255,255,255)" fill-opacity="1.0" stroke="rgb(0,0,0)" stroke-width="2"  />
			<g>
				<title>DinB_2 (PF12867)
"DinB superfamily"</title>
				<polygon class="PF12867" points="466,28 471,28 477,40 471,52 466,52" stroke-linejoin="round" width="13" height="24" fill="rgb(184,90,185)" stroke="rgb(147,72,148)" stroke-width="1" opacity="0.75" />
			</g>
		</g>
		<g>
			<title>fdhA (HAMLPNCN_01954)
Glutathione-independent formaldehyde dehydrogenase</title>
			<polygon class="fdhA (HAMLPNCN_01954)
Glutathione-independent formaldehyde dehydrogenase" points="526,25 516,25 516,10 486,40 516,70 516,55 526,55" fill="rgb(255,255,255)" fill-opacity="1.0" stroke="rgb(0,0,0)" stroke-width="2"  />
			<g>
				<title>ADH_zinc_N (PF00107)
"Zinc-binding dehydrogenase"</title>
				<polygon class="PF00107" points="498,32 502,28 505,28 505,52 502,52 498,48" stroke-linejoin="round" width="7" height="24" fill="rgb(81,108,215)" stroke="rgb(64,86,172)" stroke-width="1" opacity="0.75" />
			</g>
			<g>
				<title>ADH_N (PF08240)
"Alcohol dehydrogenase GroES-like domain"</title>
				<rect class="PF08240" x="510" y="28" stroke-linejoin="round" width="11" height="24" fill="rgb(211,65,138)" stroke="rgb(168,51,110)" stroke-width="1" opacity="0.75" />
			</g>
		</g>
		<g>
			<title>yfcJ (HAMLPNCN_01955)
putative MFS-type transporter YfcJ</title>
			<polygon class="yfcJ (HAMLPNCN_01955)
putative MFS-type transporter YfcJ" points="573,25 563,25 563,10 533,40 563,70 563,55 573,55" fill="rgb(255,255,255)" fill-opacity="1.0" stroke="rgb(0,0,0)" stroke-width="2"  />
			<g>
				<title>MFS_1 (PF07690)
"Major Facilitator Superfamily"</title>
				<polygon class="PF07690" points="537,40 549,28 550,28 550,52 549,52" stroke-linejoin="round" width="17" height="24" fill="rgb(193,224,74)" stroke="rgb(154,179,59)" stroke-width="1" opacity="0.75" />
			</g>
			<g>
				<title>MFS_1 (PF07690)
"Major Facilitator Superfamily"</title>
				<rect class="PF07690" x="550" y="28" stroke-linejoin="round" width="22" height="24" fill="rgb(193,224,74)" stroke="rgb(154,179,59)" stroke-width="1" opacity="0.75" />
			</g>
		</g>
	</g>
</svg>
