<svg version="1.1" baseProfile="full" xmlns="http://www.w3.org/2000/svg" width="970.8" height="80">
	<g>
		<line x1="10" y1="40.0" x2="960.8" y2="40.0" style="stroke:rgb(70,70,70); stroke-width:3 "/>
		<g>
			<title>opuCA_1 (JODBFFBH_00022)
Carnitine transport ATP-binding protein OpuCA</title>
			<polygon class="opuCA_1 (JODBFFBH_00022)
Carnitine transport ATP-binding protein OpuCA" points="13,25 18,25 18,10 48,40 18,70 18,55 13,55" fill="rgb(255,255,255)" fill-opacity="1.0" stroke="rgb(0,0,0)" stroke-width="2"  />
			<g>
				<title>ABC_tran (PF00005)
"ABC transporter"</title>
				<rect class="PF00005" x="14" y="28" stroke-linejoin="round" width="14" height="24" fill="rgb(129,201,63)" stroke="rgb(103,160,50)" stroke-width="1" opacity="0.75" />
			</g>
		</g>
		<g>
			<title>opuBB (JODBFFBH_00023)
Choline transport system permease protein OpuBB</title>
			<polygon class="opuBB (JODBFFBH_00023)
Choline transport system permease protein OpuBB" points="49,10 73,40 49,70" fill="rgb(255,255,255)" fill-opacity="1.0" stroke="rgb(0,0,0)" stroke-width="2"  />
			<g>
				<title>BPD_transp_1 (PF00528)
"Binding-protein-dependent transport system inner membrane component"</title>
				<polygon class="PF00528" points="52,28 59,28 69,40 69,40 59,52 52,52" stroke-linejoin="round" width="17" height="24" fill="rgb(77,208,225)" stroke="rgb(61,166,180)" stroke-width="1" opacity="0.75" />
			</g>
		</g>
		<g>
			<title>opuCC_1 (JODBFFBH_00024)
Carnitine transport binding protein OpuCC</title>
			<polygon class="opuCC_1 (JODBFFBH_00024)
Carnitine transport binding protein OpuCC" points="74,10 99,40 74,70" fill="rgb(255,255,255)" fill-opacity="1.0" stroke="rgb(0,0,0)" stroke-width="2"  />
			<g>
				<title>OpuAC (PF04069)
"Substrate binding domain of ABC-type glycine betaine transport system"</title>
				<polygon class="PF04069" points="74,28 85,28 95,40 85,52 74,52" stroke-linejoin="round" width="24" height="24" fill="rgb(81,218,80)" stroke="rgb(64,174,64)" stroke-width="1" opacity="0.75" />
			</g>
		</g>
		<g>
			<title>yccU (JODBFFBH_00025)
putative protein YccU</title>
			<polygon class="yccU (JODBFFBH_00025)
putative protein YccU" points="100,10 113,40 100,70" fill="rgb(255,255,255)" fill-opacity="1.0" stroke="rgb(0,0,0)" stroke-width="2"  />
			<g>
				<title>CoA_binding_2 (PF13380)
"CoA binding domain"</title>
				<polygon class="PF13380" points="101,28 104,28 110,40 104,52 101,52" stroke-linejoin="round" width="11" height="24" fill="rgb(212,69,78)" stroke="rgb(169,55,62)" stroke-width="1" opacity="0.75" />
			</g>
		</g>
		<g>
			<title>parE (JODBFFBH_00026)
DNA topoisomerase 4 subunit B</title>
			<polygon class="parE (JODBFFBH_00026)
DNA topoisomerase 4 subunit B" points="120,25 155,25 155,10 185,40 155,70 155,55 120,55" fill="rgb(255,255,255)" fill-opacity="1.0" stroke="rgb(0,0,0)" stroke-width="2"  />
			<g>
				<title>HATPase_c (PF02518)
"Histidine kinase-, DNA gyrase B-, and HSP90-like ATPase"</title>
				<rect class="PF02518" x="123" y="28" stroke-linejoin="round" width="14" height="24" fill="rgb(80,94,225)" stroke="rgb(64,75,180)" stroke-width="1" opacity="0.75" />
			</g>
			<g>
				<title>DNA_gyraseB (PF00204)
"DNA gyrase B"</title>
				<rect class="PF00204" x="142" y="28" stroke-linejoin="round" width="17" height="24" fill="rgb(66,134,179)" stroke="rgb(52,107,143)" stroke-width="1" opacity="0.75" />
			</g>
			<g>
				<title>Toprim (PF01751)
"Toprim domain"</title>
				<polygon class="PF01751" points="162,28 168,28 173,33 173,47 168,52 162,52" stroke-linejoin="round" width="11" height="24" fill="rgb(95,212,145)" stroke="rgb(76,169,116)" stroke-width="1" opacity="0.75" />
			</g>
			<g>
				<title>DNA_gyraseB_C (PF00986)
"DNA gyrase B subunit, carboxyl terminus"</title>
				<polygon class="PF00986" points="176,36 180,40 176,44" stroke-linejoin="round" width="6" height="24" fill="rgb(184,59,116)" stroke="rgb(147,47,92)" stroke-width="1" opacity="0.75" />
			</g>
		</g>
		<g>
			<title>parC (JODBFFBH_00027)
DNA topoisomerase 4 subunit A</title>
			<polygon class="parC (JODBFFBH_00027)
DNA topoisomerase 4 subunit A" points="186,25 237,25 237,10 267,40 237,70 237,55 186,55" fill="rgb(255,255,255)" fill-opacity="1.0" stroke="rgb(0,0,0)" stroke-width="2"  />
			<g>
				<title>DNA_topoisoIV (PF00521)
"DNA gyrase/topoisomerase IV, subunit A"</title>
				<rect class="PF00521" x="189" y="28" stroke-linejoin="round" width="44" height="24" fill="rgb(196,204,77)" stroke="rgb(156,163,61)" stroke-width="1" opacity="0.75" />
			</g>
			<g>
				<title>DNA_gyraseA_C (PF03989)
"DNA gyrase C-terminal domain, beta-propeller"</title>
				<rect class="PF03989" x="236" y="28" stroke-linejoin="round" width="3" height="24" fill="rgb(52,134,190)" stroke="rgb(41,107,152)" stroke-width="1" opacity="0.75" />
			</g>
			<g>
				<title>DNA_gyraseA_C (PF03989)
"DNA gyrase C-terminal domain, beta-propeller"</title>
				<rect class="PF03989" x="240" y="28" stroke-linejoin="round" width="5" height="24" fill="rgb(52,134,190)" stroke="rgb(41,107,152)" stroke-width="1" opacity="0.75" />
			</g>
			<g>
				<title>DNA_gyraseA_C (PF03989)
"DNA gyrase C-terminal domain, beta-propeller"</title>
				<rect class="PF03989" x="246" y="28" stroke-linejoin="round" width="4" height="24" fill="rgb(52,134,190)" stroke="rgb(41,107,152)" stroke-width="1" opacity="0.75" />
			</g>
			<g>
				<title>DNA_gyraseA_C (PF03989)
"DNA gyrase C-terminal domain, beta-propeller"</title>
				<polygon class="PF03989" points="251,28 251,28 255,32 255,48 251,52 251,52" stroke-linejoin="round" width="4" height="24" fill="rgb(52,134,190)" stroke="rgb(41,107,152)" stroke-width="1" opacity="0.75" />
			</g>
			<g>
				<title>DNA_gyraseA_C (PF03989)
"DNA gyrase C-terminal domain, beta-propeller"</title>
				<polygon class="PF03989" points="256,33 260,37 260,43 256,47" stroke-linejoin="round" width="4" height="24" fill="rgb(52,134,190)" stroke="rgb(41,107,152)" stroke-width="1" opacity="0.75" />
			</g>
		</g>
		<g>
			<title>kstR2_1 (JODBFFBH_00028)
HTH-type transcriptional repressor KstR2</title>
			<polygon class="kstR2_1 (JODBFFBH_00028)
HTH-type transcriptional repressor KstR2" points="281,10 301,40 281,70" fill="rgb(255,255,255)" fill-opacity="1.0" stroke="rgb(0,0,0)" stroke-width="2"  />
			<g>
				<title>TetR_N (PF00440)
"Bacterial regulatory proteins, tetR family"</title>
				<rect class="PF00440" x="281" y="28" stroke-linejoin="round" width="4" height="24" fill="rgb(73,212,190)" stroke="rgb(58,169,152)" stroke-width="1" opacity="0.75" />
			</g>
			<g>
				<title>TetR_C_24 (PF17932)
"Tetracyclin repressor-like, C-terminal domain"</title>
				<polygon class="PF17932" points="288,28 290,28 298,40 290,52 288,52" stroke-linejoin="round" width="11" height="24" fill="rgb(165,217,107)" stroke="rgb(132,173,85)" stroke-width="1" opacity="0.75" />
			</g>
		</g>
		<g>
			<title>bcd (JODBFFBH_00029)
Acyl-CoA dehydrogenase, short-chain specific</title>
			<polygon class="bcd (JODBFFBH_00029)
Acyl-CoA dehydrogenase, short-chain specific" points="304,25 312,25 312,10 342,40 312,70 312,55 304,55" fill="rgb(255,255,255)" fill-opacity="1.0" stroke="rgb(0,0,0)" stroke-width="2"  />
			<g>
				<title>Acyl-CoA_dh_N (PF02771)
"Acyl-CoA dehydrogenase, N-terminal domain"</title>
				<rect class="PF02771" x="304" y="28" stroke-linejoin="round" width="11" height="24" fill="rgb(105,135,218)" stroke="rgb(84,108,174)" stroke-width="1" opacity="0.75" />
			</g>
			<g>
				<title>Acyl-CoA_dh_M (PF02770)
"Acyl-CoA dehydrogenase, middle domain"</title>
				<rect class="PF02770" x="316" y="28" stroke-linejoin="round" width="9" height="24" fill="rgb(225,186,97)" stroke="rgb(180,148,77)" stroke-width="1" opacity="0.75" />
			</g>
			<g>
				<title>Acyl-CoA_dh_1 (PF00441)
"Acyl-CoA dehydrogenase, C-terminal domain"</title>
				<polygon class="PF00441" points="327,30 337,40 327,50" stroke-linejoin="round" width="14" height="24" fill="rgb(85,191,117)" stroke="rgb(68,152,93)" stroke-width="1" opacity="0.75" />
			</g>
		</g>
		<g>
			<title>fadD3 (JODBFFBH_00030)
3-[(3aS,4S,7aS)-7a-methyl-1, 5-dioxo-octahydro-1H-inden-4-yl]propanoyl:CoA ligase</title>
			<polygon class="fadD3 (JODBFFBH_00030)
3-[(3aS,4S,7aS)-7a-methyl-1, 5-dioxo-octahydro-1H-inden-4-yl]propanoyl:CoA ligase" points="343,25 367,25 367,10 397,40 367,70 367,55 343,55" fill="rgb(255,255,255)" fill-opacity="1.0" stroke="rgb(0,0,0)" stroke-width="2"  />
			<g>
				<title>AMP-binding (PF00501)
"AMP-binding enzyme"</title>
				<polygon class="PF00501" points="344,28 381,28 387,34 387,46 381,52 344,52" stroke-linejoin="round" width="43" height="24" fill="rgb(60,217,223)" stroke="rgb(48,173,178)" stroke-width="1" opacity="0.75" />
			</g>
			<g>
				<title>AMP-binding_C (PF13193)
"AMP-binding enzyme C-terminal domain"</title>
				<polygon class="PF13193" points="388,35 393,40 388,45" stroke-linejoin="round" width="7" height="24" fill="rgb(182,50,118)" stroke="rgb(145,39,94)" stroke-width="1" opacity="0.75" />
			</g>
		</g>
		<g>
			<title>accC_1 (JODBFFBH_00031)
Biotin carboxylase</title>
			<polygon class="accC_1 (JODBFFBH_00031)
Biotin carboxylase" points="398,25 413,25 413,10 443,40 413,70 413,55 398,55" fill="rgb(255,255,255)" fill-opacity="1.0" stroke="rgb(0,0,0)" stroke-width="2"  />
			<g>
				<title>Biotin_carb_N (PF00289)
"Biotin carboxylase, N-terminal domain"</title>
				<rect class="PF00289" x="398" y="28" stroke-linejoin="round" width="10" height="24" fill="rgb(59,114,187)" stroke="rgb(47,91,149)" stroke-width="1" opacity="0.75" />
			</g>
			<g>
				<title>CPSase_L_D2 (PF02786)
"Carbamoyl-phosphate synthase L chain, ATP binding domain"</title>
				<polygon class="PF02786" points="409,28 426,28 429,31 429,49 426,52 409,52" stroke-linejoin="round" width="20" height="24" fill="rgb(190,97,205)" stroke="rgb(151,77,164)" stroke-width="1" opacity="0.75" />
			</g>
			<g>
				<title>Biotin_carb_C (PF02785)
"Biotin carboxylase C-terminal domain"</title>
				<polygon class="PF02785" points="431,33 438,40 431,47" stroke-linejoin="round" width="10" height="24" fill="rgb(82,186,211)" stroke="rgb(65,148,168)" stroke-width="1" opacity="0.75" />
			</g>
		</g>
		<g>
			<title>yngHB (JODBFFBH_00032)
Biotin/lipoyl attachment protein</title>
			<polygon class="yngHB (JODBFFBH_00032)
Biotin/lipoyl attachment protein" points="444,10 451,40 444,70" fill="rgb(255,255,255)" fill-opacity="1.0" stroke="rgb(0,0,0)" stroke-width="2"  />
			<g>
				<title>Biotin_lipoyl (PF00364)
"Biotin-requiring enzyme"</title>
				<polygon class="PF00364" points="444,28 444,28 448,40 444,52 444,52" stroke-linejoin="round" width="6" height="24" fill="rgb(67,214,213)" stroke="rgb(53,171,170)" stroke-width="1" opacity="0.75" />
			</g>
		</g>
		<g>
			<title>yngG_1 (JODBFFBH_00033)
Hydroxymethylglutaryl-CoA lyase YngG</title>
			<polygon class="yngG_1 (JODBFFBH_00033)
Hydroxymethylglutaryl-CoA lyase YngG" points="451,25 451,25 451,10 481,40 451,70 451,55 451,55" fill="rgb(255,255,255)" fill-opacity="1.0" stroke="rgb(0,0,0)" stroke-width="2"  />
			<g>
				<title>HMGL-like (PF00682)
"HMGL-like"</title>
				<polygon class="PF00682" points="451,28 464,28 476,40 464,52 451,52" stroke-linejoin="round" width="27" height="24" fill="rgb(84,228,141)" stroke="rgb(67,182,112)" stroke-width="1" opacity="0.75" />
			</g>
		</g>
		<g>
			<title>crt_1 (JODBFFBH_00034)
Short-chain-enoyl-CoA hydratase</title>
			<polygon class="crt_1 (JODBFFBH_00034)
Short-chain-enoyl-CoA hydratase" points="482,10 508,40 482,70" fill="rgb(255,255,255)" fill-opacity="1.0" stroke="rgb(0,0,0)" stroke-width="2"  />
			<g>
				<title>ECH_1 (PF00378)
"Enoyl-CoA hydratase/isomerase"</title>
				<polygon class="PF00378" points="482,28 494,28 504,40 494,52 482,52" stroke-linejoin="round" width="25" height="24" fill="rgb(218,72,181)" stroke="rgb(174,57,144)" stroke-width="1" opacity="0.75" />
			</g>
		</g>
		<g>
			<title> (JODBFFBH_00035)
Methylmalonyl-CoA carboxyltransferase 12S subunit</title>
			<polygon class=" (JODBFFBH_00035)
Methylmalonyl-CoA carboxyltransferase 12S subunit" points="509,25 529,25 529,10 559,40 529,70 529,55 509,55" fill="rgb(255,255,255)" fill-opacity="1.0" stroke="rgb(0,0,0)" stroke-width="2"  />
			<g>
				<title>Carboxyl_trans (PF01039)
"Carboxyl transferase domain"</title>
				<polygon class="PF01039" points="511,28 543,28 555,40 543,52 511,52" stroke-linejoin="round" width="48" height="24" fill="rgb(180,136,60)" stroke="rgb(144,108,48)" stroke-width="1" opacity="0.75" />
			</g>
		</g>
		<g>
			<title>acsA_1 (JODBFFBH_00036)
Acetyl-coenzyme A synthetase</title>
			<polygon class="acsA_1 (JODBFFBH_00036)
Acetyl-coenzyme A synthetase" points="627,25 592,25 592,10 562,40 592,70 592,55 627,55" fill="rgb(255,255,255)" fill-opacity="1.0" stroke="rgb(0,0,0)" stroke-width="2"  />
			<g>
				<title>AMP-binding_C (PF13193)
"AMP-binding enzyme C-terminal domain"</title>
				<polygon class="PF13193" points="566,40 573,33 573,47 566,40" stroke-linejoin="round" width="7" height="24" fill="rgb(182,50,118)" stroke="rgb(145,39,94)" stroke-width="1" opacity="0.75" />
			</g>
			<g>
				<title>AMP-binding (PF00501)
"AMP-binding enzyme"</title>
				<polygon class="PF00501" points="574,32 578,28 617,28 617,52 578,52 574,48" stroke-linejoin="round" width="43" height="24" fill="rgb(60,217,223)" stroke="rgb(48,173,178)" stroke-width="1" opacity="0.75" />
			</g>
			<g>
				<title>ACAS_N (PF16177)
"Acetyl-coenzyme A synthetase N-terminus"</title>
				<rect class="PF16177" x="618" y="28" stroke-linejoin="round" width="5" height="24" fill="rgb(54,78,195)" stroke="rgb(43,62,156)" stroke-width="1" opacity="0.75" />
			</g>
		</g>
		<g>
			<title> (JODBFFBH_00037)
hypothetical protein</title>
			<polygon class=" (JODBFFBH_00037)
hypothetical protein" points="638,25 646,25 646,10 676,40 646,70 646,55 638,55" fill="rgb(255,255,255)" fill-opacity="1.0" stroke="rgb(0,0,0)" stroke-width="2"  />
			<g>
				<title>Epimerase (PF01370)
"NAD dependent epimerase/dehydratase family"</title>
				<polygon class="PF01370" points="638,28 660,28 666,34 666,46 660,52 638,52" stroke-linejoin="round" width="28" height="24" fill="rgb(98,102,214)" stroke="rgb(78,81,171)" stroke-width="1" opacity="0.75" />
			</g>
		</g>
		<g>
			<title>mgtA (JODBFFBH_00038)
GDP-mannose-dependent alpha-mannosyltransferase</title>
			<polygon class="mgtA (JODBFFBH_00038)
GDP-mannose-dependent alpha-mannosyltransferase" points="677,25 685,25 685,10 715,40 685,70 685,55 677,55" fill="rgb(255,255,255)" fill-opacity="1.0" stroke="rgb(0,0,0)" stroke-width="2"  />
			<g>
				<title>Glyco_transf_4 (PF13439)
"Glycosyltransferase Family 4"</title>
				<rect class="PF13439" x="678" y="28" stroke-linejoin="round" width="16" height="24" fill="rgb(162,57,186)" stroke="rgb(129,45,148)" stroke-width="1" opacity="0.75" />
			</g>
			<g>
				<title>Glycos_transf_1 (PF00534)
"Glycosyl transferases group 1"</title>
				<polygon class="PF00534" points="695,28 699,28 710,39 710,41 699,52 695,52" stroke-linejoin="round" width="15" height="24" fill="rgb(228,92,150)" stroke="rgb(182,73,119)" stroke-width="1" opacity="0.75" />
			</g>
		</g>
		<g>
			<title>pksS_1 (JODBFFBH_00039)
Polyketide biosynthesis cytochrome P450 PksS</title>
			<polygon class="pksS_1 (JODBFFBH_00039)
Polyketide biosynthesis cytochrome P450 PksS" points="736,25 746,25 746,10 776,40 746,70 746,55 736,55" fill="rgb(255,255,255)" fill-opacity="1.0" stroke="rgb(0,0,0)" stroke-width="2"  />
			<g>
				<title>p450 (PF00067)
"Cytochrome P450"</title>
				<polygon class="PF00067" points="736,28 760,28 772,40 760,52 736,52" stroke-linejoin="round" width="39" height="24" fill="rgb(85,216,107)" stroke="rgb(68,172,85)" stroke-width="1" opacity="0.75" />
			</g>
		</g>
		<g>
			<title> (JODBFFBH_00040)
hypothetical protein</title>
			<polygon class=" (JODBFFBH_00040)
hypothetical protein" points="797,10 825,40 797,70" fill="rgb(255,255,255)" fill-opacity="1.0" stroke="rgb(0,0,0)" stroke-width="2"  />
			<g>
				<title>Endonuclease_1 (PF04231)
"Endonuclease I"</title>
				<polygon class="PF04231" points="803,28 809,28 820,40 809,52 803,52" stroke-linejoin="round" width="21" height="24" fill="rgb(200,69,122)" stroke="rgb(160,55,97)" stroke-width="1" opacity="0.75" />
			</g>
		</g>
		<g>
			<title> (JODBFFBH_00041)
hypothetical protein</title>
			<polygon class=" (JODBFFBH_00041)
hypothetical protein" points="831,10 857,40 831,70" fill="rgb(255,255,255)" fill-opacity="1.0" stroke="rgb(0,0,0)" stroke-width="2"  />
			<g>
				<title>Methyltransf_11 (PF08241)
"Methyltransferase domain"</title>
				<polygon class="PF08241" points="837,28 843,28 846,32 846,48 843,52 837,52" stroke-linejoin="round" width="9" height="24" fill="rgb(106,219,159)" stroke="rgb(84,175,127)" stroke-width="1" opacity="0.75" />
			</g>
		</g>
		<g>
			<title> (JODBFFBH_00042)
hypothetical protein</title>
			<polygon class=" (JODBFFBH_00042)
hypothetical protein" points="862,10 883,40 862,70" fill="rgb(255,255,255)" fill-opacity="1.0" stroke="rgb(0,0,0)" stroke-width="2"  />
			<g>
				<title>DUF3889 (PF13028)
"Protein of unknown function (DUF3889)"</title>
				<polygon class="PF13028" points="874,32 880,40 874,48" stroke-linejoin="round" width="8" height="24" fill="rgb(102,93,195)" stroke="rgb(81,74,156)" stroke-width="1" opacity="0.75" />
			</g>
		</g>
		<g>
			<title>ydaD_1 (JODBFFBH_00043)
General stress protein 39</title>
			<polygon class="ydaD_1 (JODBFFBH_00043)
General stress protein 39" points="900,25 901,25 901,10 931,40 901,70 901,55 900,55" fill="rgb(255,255,255)" fill-opacity="1.0" stroke="rgb(0,0,0)" stroke-width="2"  />
			<g>
				<title>adh_short_C2 (PF13561)
"Enoyl-(Acyl carrier protein) reductase"</title>
				<polygon class="PF13561" points="907,28 914,28 926,40 914,52 907,52" stroke-linejoin="round" width="23" height="24" fill="rgb(73,205,127)" stroke="rgb(58,164,101)" stroke-width="1" opacity="0.75" />
			</g>
		</g>
		<g>
			<title>tlp (JODBFFBH_00044)
Small, acid-soluble spore protein Tlp</title>
			<polygon class="tlp (JODBFFBH_00044)
Small, acid-soluble spore protein Tlp" points="935,40 942,10 942,70" fill="rgb(255,255,255)" fill-opacity="1.0" stroke="rgb(0,0,0)" stroke-width="2"  />
		</g>
		<g>
			<title> (JODBFFBH_00045)
hypothetical protein</title>
			<polygon class=" (JODBFFBH_00045)
hypothetical protein" points="948,10 959,40 948,70" fill="rgb(255,255,255)" fill-opacity="1.0" stroke="rgb(0,0,0)" stroke-width="2"  />
			<g>
				<title>zf-CHY (PF05495)
"CHY zinc finger"</title>
				<polygon class="PF05495" points="949,28 951,28 955,40 951,52 949,52" stroke-linejoin="round" width="7" height="24" fill="rgb(126,74,211)" stroke="rgb(100,59,168)" stroke-width="1" opacity="0.75" />
			</g>
		</g>
	</g>
</svg>
