<svg version="1.1" baseProfile="full" xmlns="http://www.w3.org/2000/svg" width="366.43333333333334" height="80">
	<g>
		<line x1="10" y1="40.0" x2="356.43333333333334" y2="40.0" style="stroke:rgb(70,70,70); stroke-width:3 "/>
		<g>
			<title> (BBLDBBGM_04024)
hypothetical protein</title>
			<polygon class=" (BBLDBBGM_04024)
hypothetical protein" points="12,10 33,40 12,70" fill="rgb(255,255,255)" fill-opacity="1.0" stroke="rgb(0,0,0)" stroke-width="2"  />
			<g>
				<title>Glycolipid_bind (PF06475)
"Putative glycolipid-binding"</title>
				<polygon class="PF06475" points="12,28 21,28 29,40 29,40 21,52 12,52" stroke-linejoin="round" width="17" height="24" fill="rgb(188,87,104)" stroke="rgb(150,69,83)" stroke-width="1" opacity="0.75" />
			</g>
		</g>
		<g>
			<title> (BBLDBBGM_04025)
hypothetical protein</title>
			<polygon class=" (BBLDBBGM_04025)
hypothetical protein" points="38,10 55,40 38,70" fill="rgb(255,255,255)" fill-opacity="1.0" stroke="rgb(0,0,0)" stroke-width="2"  />
			<g>
				<title>DUF664 (PF04978)
"Protein of unknown function (DUF664)"</title>
				<polygon class="PF04978" points="39,28 45,28 52,40 45,52 39,52" stroke-linejoin="round" width="15" height="24" fill="rgb(102,82,189)" stroke="rgb(81,65,151)" stroke-width="1" opacity="0.75" />
			</g>
		</g>
		<g>
			<title>sttH (BBLDBBGM_04026)
Streptothricin hydrolase</title>
			<polygon class="sttH (BBLDBBGM_04026)
Streptothricin hydrolase" points="60,10 77,40 60,70" fill="rgb(255,255,255)" fill-opacity="1.0" stroke="rgb(0,0,0)" stroke-width="2"  />
			<g>
				<title>Isochorismatase (PF00857)
"Isochorismatase family"</title>
				<polygon class="PF00857" points="60,28 66,28 74,40 66,52 60,52" stroke-linejoin="round" width="16" height="24" fill="rgb(144,224,70)" stroke="rgb(115,179,56)" stroke-width="1" opacity="0.75" />
			</g>
		</g>
		<g>
			<title> (BBLDBBGM_04027)
hypothetical protein</title>
			<polygon class=" (BBLDBBGM_04027)
hypothetical protein" points="81,10 95,40 81,70" fill="rgb(255,255,255)" fill-opacity="1.0" stroke="rgb(0,0,0)" stroke-width="2"  />
			<g>
				<title>Acetyltransf_10 (PF13673)
"Acetyltransferase (GNAT) domain"</title>
				<polygon class="PF13673" points="81,28 86,28 92,40 86,52 81,52" stroke-linejoin="round" width="12" height="24" fill="rgb(88,180,95)" stroke="rgb(70,144,76)" stroke-width="1" opacity="0.75" />
			</g>
		</g>
		<g>
			<title>ectA (BBLDBBGM_04028)
L-2,4-diaminobutyric acid acetyltransferase</title>
			<polygon class="ectA (BBLDBBGM_04028)
L-2,4-diaminobutyric acid acetyltransferase" points="118,10 132,40 118,70" fill="rgb(255,255,255)" fill-opacity="1.0" stroke="rgb(0,0,0)" stroke-width="2"  />
			<g>
				<title>Acetyltransf_1 (PF00583)
"Acetyltransferase (GNAT) family"</title>
				<polygon class="PF00583" points="118,28 123,28 128,38 128,42 123,52 118,52" stroke-linejoin="round" width="10" height="24" fill="rgb(121,183,50)" stroke="rgb(96,146,39)" stroke-width="1" opacity="0.75" />
			</g>
		</g>
		<g>
			<title>ectB (BBLDBBGM_04029)
Diaminobutyrate--2-oxoglutarate transaminase</title>
			<polygon class="ectB (BBLDBBGM_04029)
Diaminobutyrate--2-oxoglutarate transaminase" points="133,25 146,25 146,10 176,40 146,70 146,55 133,55" fill="rgb(255,255,255)" fill-opacity="1.0" stroke="rgb(0,0,0)" stroke-width="2"  />
			<g>
				<title>Aminotran_3 (PF00202)
"Aminotransferase class-III"</title>
				<polygon class="PF00202" points="134,28 159,28 171,40 159,52 134,52" stroke-linejoin="round" width="39" height="24" fill="rgb(49,163,189)" stroke="rgb(39,130,151)" stroke-width="1" opacity="0.75" />
			</g>
		</g>
		<g>
			<title>ectC (BBLDBBGM_04030)
L-ectoine synthase</title>
			<polygon class="ectC (BBLDBBGM_04030)
L-ectoine synthase" points="176,10 189,40 176,70" fill="rgb(255,255,255)" fill-opacity="1.0" stroke="rgb(0,0,0)" stroke-width="2"  />
			<g>
				<title>Ectoine_synth (PF06339)
"Ectoine synthase"</title>
				<polygon class="PF06339" points="176,28 180,28 185,40 180,52 176,52" stroke-linejoin="round" width="12" height="24" fill="rgb(225,176,81)" stroke="rgb(180,140,64)" stroke-width="1" opacity="0.75" />
			</g>
		</g>
		<g>
			<title> (BBLDBBGM_04031)
hypothetical protein</title>
			<polygon class=" (BBLDBBGM_04031)
hypothetical protein" points="199,10 208,40 199,70" fill="rgb(255,255,255)" fill-opacity="1.0" stroke="rgb(0,0,0)" stroke-width="2"  />
		</g>
		<g>
			<title> (BBLDBBGM_04032)
hypothetical protein</title>
			<polygon class=" (BBLDBBGM_04032)
hypothetical protein" points="211,10 217,40 211,70" fill="rgb(255,255,255)" fill-opacity="1.0" stroke="rgb(0,0,0)" stroke-width="2"  />
		</g>
		<g>
			<title> (BBLDBBGM_04033)
hypothetical protein</title>
			<polygon class=" (BBLDBBGM_04033)
hypothetical protein" points="221,40 242,10 242,70" fill="rgb(255,255,255)" fill-opacity="1.0" stroke="rgb(0,0,0)" stroke-width="2"  />
			<g>
				<title>Cupin_1 (PF00190)
"Cupin"</title>
				<polygon class="PF00190" points="226,39 233,28 238,28 238,52 233,52 226,41" stroke-linejoin="round" width="12" height="24" fill="rgb(180,66,175)" stroke="rgb(144,52,139)" stroke-width="1" opacity="0.75" />
			</g>
		</g>
		<g>
			<title> (BBLDBBGM_04034)
hypothetical protein</title>
			<polygon class=" (BBLDBBGM_04034)
hypothetical protein" points="248,10 253,40 248,70" fill="rgb(255,255,255)" fill-opacity="1.0" stroke="rgb(0,0,0)" stroke-width="2"  />
		</g>
		<g>
			<title>rhaR_4 (BBLDBBGM_04035)
HTH-type transcriptional activator RhaR</title>
			<polygon class="rhaR_4 (BBLDBBGM_04035)
HTH-type transcriptional activator RhaR" points="257,10 286,40 257,70" fill="rgb(255,255,255)" fill-opacity="1.0" stroke="rgb(0,0,0)" stroke-width="2"  />
			<g>
				<title>HTH_18 (PF12833)
"Helix-turn-helix domain"</title>
				<rect class="PF12833" x="259" y="28" stroke-linejoin="round" width="7" height="24" fill="rgb(216,58,224)" stroke="rgb(172,46,179)" stroke-width="1" opacity="0.75" />
			</g>
			<g>
				<title>GyrI-like (PF06445)
"GyrI-like small molecule binding domain"</title>
				<polygon class="PF06445" points="269,28 269,28 281,40 269,52 269,52" stroke-linejoin="round" width="16" height="24" fill="rgb(61,183,118)" stroke="rgb(48,146,94)" stroke-width="1" opacity="0.75" />
			</g>
		</g>
		<g>
			<title> (BBLDBBGM_04036)
hypothetical protein</title>
			<polygon class=" (BBLDBBGM_04036)
hypothetical protein" points="321,25 318,25 318,10 288,40 318,70 318,55 321,55" fill="rgb(255,255,255)" fill-opacity="1.0" stroke="rgb(0,0,0)" stroke-width="2"  />
			<g>
				<title>Bac_luciferase (PF00296)
"Luciferase-like monooxygenase"</title>
				<polygon class="PF00296" points="292,40 304,28 320,28 320,52 304,52" stroke-linejoin="round" width="29" height="24" fill="rgb(180,112,78)" stroke="rgb(144,89,62)" stroke-width="1" opacity="0.75" />
			</g>
		</g>
		<g>
			<title> (BBLDBBGM_04037)
hypothetical protein</title>
			<polygon class=" (BBLDBBGM_04037)
hypothetical protein" points="326,10 343,40 326,70" fill="rgb(255,255,255)" fill-opacity="1.0" stroke="rgb(0,0,0)" stroke-width="2"  />
		</g>
	</g>
</svg>
