<svg version="1.1" baseProfile="full" xmlns="http://www.w3.org/2000/svg" width="527.9333333333334" height="80">
	<g>
		<line x1="10" y1="40.0" x2="517.9333333333334" y2="40.0" style="stroke:rgb(70,70,70); stroke-width:3 "/>
		<g>
			<title> (GKEONEKI_00575)
hypothetical protein</title>
			<polygon class=" (GKEONEKI_00575)
hypothetical protein" points="22,40 39,10 39,70" fill="rgb(255,255,255)" fill-opacity="1.0" stroke="rgb(0,0,0)" stroke-width="2"  />
		</g>
		<g>
			<title>soj_1 (GKEONEKI_00576)
Sporulation initiation inhibitor protein Soj</title>
			<polygon class="soj_1 (GKEONEKI_00576)
Sporulation initiation inhibitor protein Soj" points="39,40 65,10 65,70" fill="rgb(255,255,255)" fill-opacity="1.0" stroke="rgb(0,0,0)" stroke-width="2"  />
			<g>
				<title>AAA_31 (PF13614)
"AAA domain"</title>
				<polygon class="PF13614" points="47,36 54,28 65,28 65,52 54,52 47,44" stroke-linejoin="round" width="18" height="24" fill="rgb(144,187,62)" stroke="rgb(115,149,49)" stroke-width="1" opacity="0.75" />
			</g>
		</g>
		<g>
			<title> (GKEONEKI_00577)
hypothetical protein</title>
			<polygon class=" (GKEONEKI_00577)
hypothetical protein" points="74,40 81,10 81,70" fill="rgb(255,255,255)" fill-opacity="1.0" stroke="rgb(0,0,0)" stroke-width="2"  />
		</g>
		<g>
			<title> (GKEONEKI_00578)
hypothetical protein</title>
			<polygon class=" (GKEONEKI_00578)
hypothetical protein" points="100,40 107,10 107,70" fill="rgb(255,255,255)" fill-opacity="1.0" stroke="rgb(0,0,0)" stroke-width="2"  />
			<g>
				<title>GerE (PF00196)
"Bacterial regulatory proteins, luxR family"</title>
				<polygon class="PF00196" points="103,40 106,28 106,28 106,52 106,52" stroke-linejoin="round" width="5" height="24" fill="rgb(219,94,82)" stroke="rgb(175,75,65)" stroke-width="1" opacity="0.75" />
			</g>
		</g>
		<g>
			<title> (GKEONEKI_00579)
hypothetical protein</title>
			<polygon class=" (GKEONEKI_00579)
hypothetical protein" points="115,25 127,25 127,10 157,40 127,70 127,55 115,55" fill="rgb(255,255,255)" fill-opacity="1.0" stroke="rgb(0,0,0)" stroke-width="2"  />
			<g>
				<title>SPOB_a (PF14689)
"Sensor_kinase_SpoOB-type, alpha-helical domain"</title>
				<polygon class="PF14689" points="137,28 141,28 143,30 143,50 141,52 137,52" stroke-linejoin="round" width="6" height="24" fill="rgb(215,217,87)" stroke="rgb(172,173,69)" stroke-width="1" opacity="0.75" />
			</g>
			<g>
				<title>HATPase_c_5 (PF14501)
"GHKL domain"</title>
				<polygon class="PF14501" points="146,33 153,40 146,47" stroke-linejoin="round" width="10" height="24" fill="rgb(137,71,210)" stroke="rgb(109,56,168)" stroke-width="1" opacity="0.75" />
			</g>
		</g>
		<g>
			<title>agrB (GKEONEKI_00580)
Accessory gene regulator protein B</title>
			<polygon class="agrB (GKEONEKI_00580)
Accessory gene regulator protein B" points="158,10 179,40 158,70" fill="rgb(255,255,255)" fill-opacity="1.0" stroke="rgb(0,0,0)" stroke-width="2"  />
			<g>
				<title>AgrB (PF04647)
"Accessory gene regulator B"</title>
				<polygon class="PF04647" points="159,28 167,28 175,40 167,52 159,52" stroke-linejoin="round" width="17" height="24" fill="rgb(181,182,61)" stroke="rgb(144,145,48)" stroke-width="1" opacity="0.75" />
			</g>
		</g>
		<g>
			<title> (GKEONEKI_00581)
hypothetical protein</title>
			<polygon class=" (GKEONEKI_00581)
hypothetical protein" points="179,10 183,40 179,70" fill="rgb(255,255,255)" fill-opacity="1.0" stroke="rgb(0,0,0)" stroke-width="2"  />
		</g>
		<g>
			<title>ypdB_2 (GKEONEKI_00582)
Transcriptional regulatory protein YpdB</title>
			<polygon class="ypdB_2 (GKEONEKI_00582)
Transcriptional regulatory protein YpdB" points="184,10 208,40 184,70" fill="rgb(255,255,255)" fill-opacity="1.0" stroke="rgb(0,0,0)" stroke-width="2"  />
			<g>
				<title>Response_reg (PF00072)
"Response regulator receiver domain"</title>
				<polygon class="PF00072" points="185,28 195,28 196,30 196,50 195,52 185,52" stroke-linejoin="round" width="11" height="24" fill="rgb(100,107,203)" stroke="rgb(80,85,162)" stroke-width="1" opacity="0.75" />
			</g>
			<g>
				<title>LytTR (PF04397)
"LytTr DNA-binding domain"</title>
				<polygon class="PF04397" points="198,33 204,40 198,47" stroke-linejoin="round" width="9" height="24" fill="rgb(207,76,174)" stroke="rgb(165,60,139)" stroke-width="1" opacity="0.75" />
			</g>
		</g>
		<g>
			<title> (GKEONEKI_00583)
hypothetical protein</title>
			<polygon class=" (GKEONEKI_00583)
hypothetical protein" points="257,25 240,25 240,10 210,40 240,70 240,55 257,55" fill="rgb(255,255,255)" fill-opacity="1.0" stroke="rgb(0,0,0)" stroke-width="2"  />
		</g>
		<g>
			<title>skfE (GKEONEKI_00584)
SkfA peptide export ATP-binding protein SkfE</title>
			<polygon class="skfE (GKEONEKI_00584)
SkfA peptide export ATP-binding protein SkfE" points="257,40 279,10 279,70" fill="rgb(255,255,255)" fill-opacity="1.0" stroke="rgb(0,0,0)" stroke-width="2"  />
			<g>
				<title>ABC_tran (PF00005)
"ABC transporter"</title>
				<polygon class="PF00005" points="263,37 270,28 277,28 277,52 270,52 263,43" stroke-linejoin="round" width="14" height="24" fill="rgb(129,201,63)" stroke="rgb(103,160,50)" stroke-width="1" opacity="0.75" />
			</g>
		</g>
		<g>
			<title> (GKEONEKI_00585)
hypothetical protein</title>
			<polygon class=" (GKEONEKI_00585)
hypothetical protein" points="281,40 287,10 287,70" fill="rgb(255,255,255)" fill-opacity="1.0" stroke="rgb(0,0,0)" stroke-width="2"  />
		</g>
		<g>
			<title> (GKEONEKI_00586)
hypothetical protein</title>
			<polygon class=" (GKEONEKI_00586)
hypothetical protein" points="296,10 302,40 296,70" fill="rgb(255,255,255)" fill-opacity="1.0" stroke="rgb(0,0,0)" stroke-width="2"  />
		</g>
		<g>
			<title>bcrA_1 (GKEONEKI_00587)
Bacitracin transport ATP-binding protein BcrA</title>
			<polygon class="bcrA_1 (GKEONEKI_00587)
Bacitracin transport ATP-binding protein BcrA" points="337,25 337,25 337,10 307,40 337,70 337,55 337,55" fill="rgb(255,255,255)" fill-opacity="1.0" stroke="rgb(0,0,0)" stroke-width="2"  />
			<g>
				<title>DUF4162 (PF13732)
"Domain of unknown function (DUF4162)"</title>
				<polygon class="PF13732" points="311,40 316,35 316,45" stroke-linejoin="round" width="9" height="24" fill="rgb(100,223,143)" stroke="rgb(80,178,114)" stroke-width="1" opacity="0.75" />
			</g>
			<g>
				<title>ABC_tran (PF00005)
"ABC transporter"</title>
				<polygon class="PF00005" points="321,30 323,28 334,28 334,52 323,52 321,50" stroke-linejoin="round" width="13" height="24" fill="rgb(129,201,63)" stroke="rgb(103,160,50)" stroke-width="1" opacity="0.75" />
			</g>
		</g>
		<g>
			<title> (GKEONEKI_00588)
hypothetical protein</title>
			<polygon class=" (GKEONEKI_00588)
hypothetical protein" points="338,40 360,10 360,70" fill="rgb(255,255,255)" fill-opacity="1.0" stroke="rgb(0,0,0)" stroke-width="2"  />
			<g>
				<title>ABC2_membrane_2 (PF12679)
"ABC-2 family transporter protein"</title>
				<polygon class="PF12679" points="342,40 351,28 360,28 360,52 351,52" stroke-linejoin="round" width="22" height="24" fill="rgb(70,194,214)" stroke="rgb(56,155,171)" stroke-width="1" opacity="0.75" />
			</g>
		</g>
		<g>
			<title>phoP_2 (GKEONEKI_00589)
Alkaline phosphatase synthesis transcriptional regulatory protein PhoP</title>
			<polygon class="phoP_2 (GKEONEKI_00589)
Alkaline phosphatase synthesis transcriptional regulatory protein PhoP" points="364,10 388,40 364,70" fill="rgb(255,255,255)" fill-opacity="1.0" stroke="rgb(0,0,0)" stroke-width="2"  />
			<g>
				<title>Response_reg (PF00072)
"Response regulator receiver domain"</title>
				<polygon class="PF00072" points="365,28 374,28 376,30 376,50 374,52 365,52" stroke-linejoin="round" width="11" height="24" fill="rgb(100,107,203)" stroke="rgb(80,85,162)" stroke-width="1" opacity="0.75" />
			</g>
			<g>
				<title>Trans_reg_C (PF00486)
"Transcriptional regulatory protein, C terminal"</title>
				<polygon class="PF00486" points="379,34 384,40 379,46" stroke-linejoin="round" width="7" height="24" fill="rgb(204,153,57)" stroke="rgb(163,122,45)" stroke-width="1" opacity="0.75" />
			</g>
		</g>
		<g>
			<title>sasA_1 (GKEONEKI_00590)
Adaptive-response sensory-kinase SasA</title>
			<polygon class="sasA_1 (GKEONEKI_00590)
Adaptive-response sensory-kinase SasA" points="389,25 415,25 415,10 445,40 415,70 415,55 389,55" fill="rgb(255,255,255)" fill-opacity="1.0" stroke="rgb(0,0,0)" stroke-width="2"  />
			<g>
				<title>HisKA (PF00512)
"His Kinase A (phospho-acceptor) domain"</title>
				<rect class="PF00512" x="422" y="28" stroke-linejoin="round" width="6" height="24" fill="rgb(193,125,62)" stroke="rgb(154,100,49)" stroke-width="1" opacity="0.75" />
			</g>
			<g>
				<title>HATPase_c (PF02518)
"Histidine kinase-, DNA gyrase B-, and HSP90-like ATPase"</title>
				<polygon class="PF02518" points="434,33 441,40 434,47" stroke-linejoin="round" width="11" height="24" fill="rgb(80,94,225)" stroke="rgb(64,75,180)" stroke-width="1" opacity="0.75" />
			</g>
		</g>
		<g>
			<title> (GKEONEKI_00591)
hypothetical protein</title>
			<polygon class=" (GKEONEKI_00591)
hypothetical protein" points="457,25 460,25 460,10 490,40 460,70 460,55 457,55" fill="rgb(255,255,255)" fill-opacity="1.0" stroke="rgb(0,0,0)" stroke-width="2"  />
			<g>
				<title>Endonuclea_NS_2 (PF13930)
"DNA/RNA non-specific endonuclease"</title>
				<polygon class="PF13930" points="468,28 473,28 480,35 480,45 473,52 468,52" stroke-linejoin="round" width="12" height="24" fill="rgb(201,64,141)" stroke="rgb(160,51,112)" stroke-width="1" opacity="0.75" />
			</g>
		</g>
	</g>
</svg>
