<svg version="1.1" baseProfile="full" xmlns="http://www.w3.org/2000/svg" width="366.3333333333333" height="80">
	<g>
		<line x1="10" y1="40.0" x2="356.3333333333333" y2="40.0" style="stroke:rgb(70,70,70); stroke-width:3 "/>
		<g>
			<title>mtlA (OKCGIKJE_03735)
PTS system mannitol-specific EIICB component</title>
			<polygon class="mtlA (OKCGIKJE_03735)
PTS system mannitol-specific EIICB component" points="95,25 76,25 76,10 46,40 76,70 76,55 95,55" fill="rgb(255,255,255)" fill-opacity="1.0" stroke="rgb(0,0,0)" stroke-width="2"  />
			<g>
				<title>PTS_IIB (PF02302)
"PTS system, Lactose/Cellobiose specific IIB subunit"</title>
				<polygon class="PF02302" points="50,40 54,36 54,44" stroke-linejoin="round" width="8" height="24" fill="rgb(106,212,56)" stroke="rgb(84,169,44)" stroke-width="1" opacity="0.75" />
			</g>
			<g>
				<title>PTS_EIIC (PF02378)
"Phosphotransferase system, EIIC"</title>
				<rect class="PF02378" x="66" y="28" stroke-linejoin="round" width="26" height="24" fill="rgb(73,199,212)" stroke="rgb(58,159,169)" stroke-width="1" opacity="0.75" />
			</g>
		</g>
		<g>
			<title>ectA (OKCGIKJE_03736)
L-2,4-diaminobutyric acid acetyltransferase</title>
			<polygon class="ectA (OKCGIKJE_03736)
L-2,4-diaminobutyric acid acetyltransferase" points="113,10 130,40 113,70" fill="rgb(255,255,255)" fill-opacity="1.0" stroke="rgb(0,0,0)" stroke-width="2"  />
			<g>
				<title>Acetyltransf_1 (PF00583)
"Acetyltransferase (GNAT) family"</title>
				<polygon class="PF00583" points="115,28 119,28 126,39 126,41 119,52 115,52" stroke-linejoin="round" width="11" height="24" fill="rgb(121,183,50)" stroke="rgb(96,146,39)" stroke-width="1" opacity="0.75" />
			</g>
		</g>
		<g>
			<title>ectB (OKCGIKJE_03737)
Diaminobutyrate--2-oxoglutarate transaminase</title>
			<polygon class="ectB (OKCGIKJE_03737)
Diaminobutyrate--2-oxoglutarate transaminase" points="132,25 144,25 144,10 174,40 144,70 144,55 132,55" fill="rgb(255,255,255)" fill-opacity="1.0" stroke="rgb(0,0,0)" stroke-width="2"  />
			<g>
				<title>Aminotran_3 (PF00202)
"Aminotransferase class-III"</title>
				<polygon class="PF00202" points="133,28 158,28 170,40 158,52 133,52" stroke-linejoin="round" width="39" height="24" fill="rgb(49,163,189)" stroke="rgb(39,130,151)" stroke-width="1" opacity="0.75" />
			</g>
		</g>
		<g>
			<title>ectC (OKCGIKJE_03738)
L-ectoine synthase</title>
			<polygon class="ectC (OKCGIKJE_03738)
L-ectoine synthase" points="176,10 189,40 176,70" fill="rgb(255,255,255)" fill-opacity="1.0" stroke="rgb(0,0,0)" stroke-width="2"  />
			<g>
				<title>Ectoine_synth (PF06339)
"Ectoine synthase"</title>
				<polygon class="PF06339" points="176,28 180,28 185,40 180,52 176,52" stroke-linejoin="round" width="12" height="24" fill="rgb(225,176,81)" stroke="rgb(180,140,64)" stroke-width="1" opacity="0.75" />
			</g>
		</g>
		<g>
			<title> (OKCGIKJE_03739)
hypothetical protein</title>
			<polygon class=" (OKCGIKJE_03739)
hypothetical protein" points="192,10 197,40 192,70" fill="rgb(255,255,255)" fill-opacity="1.0" stroke="rgb(0,0,0)" stroke-width="2"  />
		</g>
		<g>
			<title> (OKCGIKJE_03740)
hypothetical protein</title>
			<polygon class=" (OKCGIKJE_03740)
hypothetical protein" points="206,40 209,10 209,70" fill="rgb(255,255,255)" fill-opacity="1.0" stroke="rgb(0,0,0)" stroke-width="2"  />
		</g>
		<g>
			<title> (OKCGIKJE_03741)
hypothetical protein</title>
			<polygon class=" (OKCGIKJE_03741)
hypothetical protein" points="213,40 217,10 217,70" fill="rgb(255,255,255)" fill-opacity="1.0" stroke="rgb(0,0,0)" stroke-width="2"  />
			<g>
				<title>YpzI (PF14140)
"YpzI-like protein"</title>
				<polygon class="PF14140" points="216,40 217,33 217,47" stroke-linejoin="round" width="4" height="24" fill="rgb(68,123,191)" stroke="rgb(54,98,152)" stroke-width="1" opacity="0.75" />
			</g>
		</g>
		<g>
			<title>hisS_2 (OKCGIKJE_03742)
Histidine--tRNA ligase</title>
			<polygon class="hisS_2 (OKCGIKJE_03742)
Histidine--tRNA ligase" points="263,25 251,25 251,10 221,40 251,70 251,55 263,55" fill="rgb(255,255,255)" fill-opacity="1.0" stroke="rgb(0,0,0)" stroke-width="2"  />
			<g>
				<title>HGTP_anticodon (PF03129)
"Anticodon binding domain"</title>
				<polygon class="PF03129" points="225,40 228,37 228,43" stroke-linejoin="round" width="7" height="24" fill="rgb(115,202,95)" stroke="rgb(92,161,76)" stroke-width="1" opacity="0.75" />
			</g>
			<g>
				<title>tRNA-synt_His (PF13393)
"Histidyl-tRNA synthetase"</title>
				<polygon class="PF13393" points="231,34 237,28 262,28 262,52 237,52 231,46" stroke-linejoin="round" width="31" height="24" fill="rgb(106,63,202)" stroke="rgb(84,50,161)" stroke-width="1" opacity="0.75" />
			</g>
		</g>
		<g>
			<title> (OKCGIKJE_03743)
hypothetical protein</title>
			<polygon class=" (OKCGIKJE_03743)
hypothetical protein" points="273,40 294,10 294,70" fill="rgb(255,255,255)" fill-opacity="1.0" stroke="rgb(0,0,0)" stroke-width="2"  />
			<g>
				<title>Diphthami_syn_2 (PF01902)
"Diphthamide synthase"</title>
				<polygon class="PF01902" points="277,40 286,28 294,28 294,52 286,52" stroke-linejoin="round" width="21" height="24" fill="rgb(96,162,208)" stroke="rgb(76,129,166)" stroke-width="1" opacity="0.75" />
			</g>
		</g>
	</g>
</svg>
