<svg version="1.1" baseProfile="full" xmlns="http://www.w3.org/2000/svg" width="979.4333333333333" height="80">
	<g>
		<line x1="10" y1="40.0" x2="969.4333333333333" y2="40.0" style="stroke:rgb(70,70,70); stroke-width:3 "/>
		<g>
			<title>btuD_1 (FLEGEENC_01987)
Vitamin B12 import ATP-binding protein BtuD</title>
			<polygon class="btuD_1 (FLEGEENC_01987)
Vitamin B12 import ATP-binding protein BtuD" points="22,25 27,25 27,10 57,40 27,70 27,55 22,55" fill="rgb(255,255,255)" fill-opacity="1.0" stroke="rgb(0,0,0)" stroke-width="2"  />
			<g>
				<title>ABC_tran (PF00005)
"ABC transporter"</title>
				<rect class="PF00005" x="23" y="28" stroke-linejoin="round" width="14" height="24" fill="rgb(129,201,63)" stroke="rgb(103,160,50)" stroke-width="1" opacity="0.75" />
			</g>
		</g>
		<g>
			<title> (FLEGEENC_01988)
hypothetical protein</title>
			<polygon class=" (FLEGEENC_01988)
hypothetical protein" points="58,25 78,25 78,10 108,40 78,70 78,55 58,55" fill="rgb(255,255,255)" fill-opacity="1.0" stroke="rgb(0,0,0)" stroke-width="2"  />
			<g>
				<title>BPD_transp_1 (PF00528)
"Binding-protein-dependent transport system inner membrane component"</title>
				<rect class="PF00528" x="61" y="28" stroke-linejoin="round" width="17" height="24" fill="rgb(77,208,225)" stroke="rgb(61,166,180)" stroke-width="1" opacity="0.75" />
			</g>
			<g>
				<title>OpuAC (PF04069)
"Substrate binding domain of ABC-type glycine betaine transport system"</title>
				<polygon class="PF04069" points="81,28 92,28 104,40 92,52 81,52" stroke-linejoin="round" width="26" height="24" fill="rgb(81,218,80)" stroke="rgb(64,174,64)" stroke-width="1" opacity="0.75" />
			</g>
		</g>
		<g>
			<title>yccU (FLEGEENC_01989)
putative protein YccU</title>
			<polygon class="yccU (FLEGEENC_01989)
putative protein YccU" points="109,10 122,40 109,70" fill="rgb(255,255,255)" fill-opacity="1.0" stroke="rgb(0,0,0)" stroke-width="2"  />
			<g>
				<title>CoA_binding_2 (PF13380)
"CoA binding domain"</title>
				<polygon class="PF13380" points="110,28 113,28 119,40 113,52 110,52" stroke-linejoin="round" width="11" height="24" fill="rgb(212,69,78)" stroke="rgb(169,55,62)" stroke-width="1" opacity="0.75" />
			</g>
		</g>
		<g>
			<title>parE (FLEGEENC_01990)
DNA topoisomerase 4 subunit B</title>
			<polygon class="parE (FLEGEENC_01990)
DNA topoisomerase 4 subunit B" points="129,25 164,25 164,10 194,40 164,70 164,55 129,55" fill="rgb(255,255,255)" fill-opacity="1.0" stroke="rgb(0,0,0)" stroke-width="2"  />
			<g>
				<title>HATPase_c (PF02518)
"Histidine kinase-, DNA gyrase B-, and HSP90-like ATPase"</title>
				<rect class="PF02518" x="132" y="28" stroke-linejoin="round" width="14" height="24" fill="rgb(80,94,225)" stroke="rgb(64,75,180)" stroke-width="1" opacity="0.75" />
			</g>
			<g>
				<title>DNA_gyraseB (PF00204)
"DNA gyrase B"</title>
				<rect class="PF00204" x="151" y="28" stroke-linejoin="round" width="17" height="24" fill="rgb(66,134,179)" stroke="rgb(52,107,143)" stroke-width="1" opacity="0.75" />
			</g>
			<g>
				<title>Toprim (PF01751)
"Toprim domain"</title>
				<polygon class="PF01751" points="171,28 177,28 182,33 182,47 177,52 171,52" stroke-linejoin="round" width="11" height="24" fill="rgb(95,212,145)" stroke="rgb(76,169,116)" stroke-width="1" opacity="0.75" />
			</g>
			<g>
				<title>DNA_gyraseB_C (PF00986)
"DNA gyrase B subunit, carboxyl terminus"</title>
				<polygon class="PF00986" points="185,36 189,40 185,44" stroke-linejoin="round" width="6" height="24" fill="rgb(184,59,116)" stroke="rgb(147,47,92)" stroke-width="1" opacity="0.75" />
			</g>
		</g>
		<g>
			<title>parC (FLEGEENC_01991)
DNA topoisomerase 4 subunit A</title>
			<polygon class="parC (FLEGEENC_01991)
DNA topoisomerase 4 subunit A" points="195,25 246,25 246,10 276,40 246,70 246,55 195,55" fill="rgb(255,255,255)" fill-opacity="1.0" stroke="rgb(0,0,0)" stroke-width="2"  />
			<g>
				<title>DNA_topoisoIV (PF00521)
"DNA gyrase/topoisomerase IV, subunit A"</title>
				<rect class="PF00521" x="198" y="28" stroke-linejoin="round" width="44" height="24" fill="rgb(196,204,77)" stroke="rgb(156,163,61)" stroke-width="1" opacity="0.75" />
			</g>
			<g>
				<title>DNA_gyraseA_C (PF03989)
"DNA gyrase C-terminal domain, beta-propeller"</title>
				<rect class="PF03989" x="245" y="28" stroke-linejoin="round" width="3" height="24" fill="rgb(52,134,190)" stroke="rgb(41,107,152)" stroke-width="1" opacity="0.75" />
			</g>
			<g>
				<title>DNA_gyraseA_C (PF03989)
"DNA gyrase C-terminal domain, beta-propeller"</title>
				<rect class="PF03989" x="249" y="28" stroke-linejoin="round" width="5" height="24" fill="rgb(52,134,190)" stroke="rgb(41,107,152)" stroke-width="1" opacity="0.75" />
			</g>
			<g>
				<title>DNA_gyraseA_C (PF03989)
"DNA gyrase C-terminal domain, beta-propeller"</title>
				<rect class="PF03989" x="255" y="28" stroke-linejoin="round" width="4" height="24" fill="rgb(52,134,190)" stroke="rgb(41,107,152)" stroke-width="1" opacity="0.75" />
			</g>
			<g>
				<title>DNA_gyraseA_C (PF03989)
"DNA gyrase C-terminal domain, beta-propeller"</title>
				<polygon class="PF03989" points="260,28 260,28 264,32 264,48 260,52 260,52" stroke-linejoin="round" width="4" height="24" fill="rgb(52,134,190)" stroke="rgb(41,107,152)" stroke-width="1" opacity="0.75" />
			</g>
			<g>
				<title>DNA_gyraseA_C (PF03989)
"DNA gyrase C-terminal domain, beta-propeller"</title>
				<polygon class="PF03989" points="265,33 269,37 269,43 265,47" stroke-linejoin="round" width="4" height="24" fill="rgb(52,134,190)" stroke="rgb(41,107,152)" stroke-width="1" opacity="0.75" />
			</g>
		</g>
		<g>
			<title>kstR2_2 (FLEGEENC_01992)
HTH-type transcriptional repressor KstR2</title>
			<polygon class="kstR2_2 (FLEGEENC_01992)
HTH-type transcriptional repressor KstR2" points="281,10 302,40 281,70" fill="rgb(255,255,255)" fill-opacity="1.0" stroke="rgb(0,0,0)" stroke-width="2"  />
			<g>
				<title>TetR_N (PF00440)
"Bacterial regulatory proteins, tetR family"</title>
				<rect class="PF00440" x="281" y="28" stroke-linejoin="round" width="4" height="24" fill="rgb(73,212,190)" stroke="rgb(58,169,152)" stroke-width="1" opacity="0.75" />
			</g>
			<g>
				<title>TetR_C_24 (PF17932)
"Tetracyclin repressor-like, C-terminal domain"</title>
				<polygon class="PF17932" points="288,28 290,28 298,40 290,52 288,52" stroke-linejoin="round" width="11" height="24" fill="rgb(165,217,107)" stroke="rgb(132,173,85)" stroke-width="1" opacity="0.75" />
			</g>
		</g>
		<g>
			<title>bcd_1 (FLEGEENC_01993)
Acyl-CoA dehydrogenase, short-chain specific</title>
			<polygon class="bcd_1 (FLEGEENC_01993)
Acyl-CoA dehydrogenase, short-chain specific" points="304,25 312,25 312,10 342,40 312,70 312,55 304,55" fill="rgb(255,255,255)" fill-opacity="1.0" stroke="rgb(0,0,0)" stroke-width="2"  />
			<g>
				<title>Acyl-CoA_dh_N (PF02771)
"Acyl-CoA dehydrogenase, N-terminal domain"</title>
				<rect class="PF02771" x="304" y="28" stroke-linejoin="round" width="11" height="24" fill="rgb(105,135,218)" stroke="rgb(84,108,174)" stroke-width="1" opacity="0.75" />
			</g>
			<g>
				<title>Acyl-CoA_dh_M (PF02770)
"Acyl-CoA dehydrogenase, middle domain"</title>
				<rect class="PF02770" x="316" y="28" stroke-linejoin="round" width="9" height="24" fill="rgb(225,186,97)" stroke="rgb(180,148,77)" stroke-width="1" opacity="0.75" />
			</g>
			<g>
				<title>Acyl-CoA_dh_1 (PF00441)
"Acyl-CoA dehydrogenase, C-terminal domain"</title>
				<polygon class="PF00441" points="327,30 337,40 327,50" stroke-linejoin="round" width="14" height="24" fill="rgb(85,191,117)" stroke="rgb(68,152,93)" stroke-width="1" opacity="0.75" />
			</g>
		</g>
		<g>
			<title>fadD3 (FLEGEENC_01994)
3-[(3aS,4S,7aS)-7a-methyl-1, 5-dioxo-octahydro-1H-inden-4-yl]propanoyl:CoA ligase</title>
			<polygon class="fadD3 (FLEGEENC_01994)
3-[(3aS,4S,7aS)-7a-methyl-1, 5-dioxo-octahydro-1H-inden-4-yl]propanoyl:CoA ligase" points="343,25 368,25 368,10 398,40 368,70 368,55 343,55" fill="rgb(255,255,255)" fill-opacity="1.0" stroke="rgb(0,0,0)" stroke-width="2"  />
			<g>
				<title>AMP-binding (PF00501)
"AMP-binding enzyme"</title>
				<polygon class="PF00501" points="344,28 381,28 387,34 387,46 381,52 344,52" stroke-linejoin="round" width="43" height="24" fill="rgb(60,217,223)" stroke="rgb(48,173,178)" stroke-width="1" opacity="0.75" />
			</g>
			<g>
				<title>AMP-binding_C (PF13193)
"AMP-binding enzyme C-terminal domain"</title>
				<polygon class="PF13193" points="388,35 393,40 388,45" stroke-linejoin="round" width="7" height="24" fill="rgb(182,50,118)" stroke="rgb(145,39,94)" stroke-width="1" opacity="0.75" />
			</g>
		</g>
		<g>
			<title>accC_1 (FLEGEENC_01995)
Biotin carboxylase</title>
			<polygon class="accC_1 (FLEGEENC_01995)
Biotin carboxylase" points="398,25 413,25 413,10 443,40 413,70 413,55 398,55" fill="rgb(255,255,255)" fill-opacity="1.0" stroke="rgb(0,0,0)" stroke-width="2"  />
			<g>
				<title>Biotin_carb_N (PF00289)
"Biotin carboxylase, N-terminal domain"</title>
				<rect class="PF00289" x="398" y="28" stroke-linejoin="round" width="10" height="24" fill="rgb(59,114,187)" stroke="rgb(47,91,149)" stroke-width="1" opacity="0.75" />
			</g>
			<g>
				<title>CPSase_L_D2 (PF02786)
"Carbamoyl-phosphate synthase L chain, ATP binding domain"</title>
				<polygon class="PF02786" points="409,28 426,28 429,31 429,49 426,52 409,52" stroke-linejoin="round" width="20" height="24" fill="rgb(190,97,205)" stroke="rgb(151,77,164)" stroke-width="1" opacity="0.75" />
			</g>
			<g>
				<title>Biotin_carb_C (PF02785)
"Biotin carboxylase C-terminal domain"</title>
				<polygon class="PF02785" points="431,33 438,40 431,47" stroke-linejoin="round" width="10" height="24" fill="rgb(82,186,211)" stroke="rgb(65,148,168)" stroke-width="1" opacity="0.75" />
			</g>
		</g>
		<g>
			<title>yngHB (FLEGEENC_01996)
Biotin/lipoyl attachment protein</title>
			<polygon class="yngHB (FLEGEENC_01996)
Biotin/lipoyl attachment protein" points="444,10 451,40 444,70" fill="rgb(255,255,255)" fill-opacity="1.0" stroke="rgb(0,0,0)" stroke-width="2"  />
			<g>
				<title>Biotin_lipoyl (PF00364)
"Biotin-requiring enzyme"</title>
				<polygon class="PF00364" points="444,28 444,28 448,40 444,52 444,52" stroke-linejoin="round" width="6" height="24" fill="rgb(67,214,213)" stroke="rgb(53,171,170)" stroke-width="1" opacity="0.75" />
			</g>
		</g>
		<g>
			<title>yngG_2 (FLEGEENC_01997)
Hydroxymethylglutaryl-CoA lyase YngG</title>
			<polygon class="yngG_2 (FLEGEENC_01997)
Hydroxymethylglutaryl-CoA lyase YngG" points="451,25 451,25 451,10 481,40 451,70 451,55 451,55" fill="rgb(255,255,255)" fill-opacity="1.0" stroke="rgb(0,0,0)" stroke-width="2"  />
			<g>
				<title>HMGL-like (PF00682)
"HMGL-like"</title>
				<polygon class="PF00682" points="451,28 465,28 477,40 465,52 451,52" stroke-linejoin="round" width="27" height="24" fill="rgb(84,228,141)" stroke="rgb(67,182,112)" stroke-width="1" opacity="0.75" />
			</g>
		</g>
		<g>
			<title>crt_1 (FLEGEENC_01998)
Short-chain-enoyl-CoA hydratase</title>
			<polygon class="crt_1 (FLEGEENC_01998)
Short-chain-enoyl-CoA hydratase" points="482,10 507,40 482,70" fill="rgb(255,255,255)" fill-opacity="1.0" stroke="rgb(0,0,0)" stroke-width="2"  />
			<g>
				<title>ECH_1 (PF00378)
"Enoyl-CoA hydratase/isomerase"</title>
				<polygon class="PF00378" points="482,28 494,28 503,40 494,52 482,52" stroke-linejoin="round" width="25" height="24" fill="rgb(218,72,181)" stroke="rgb(174,57,144)" stroke-width="1" opacity="0.75" />
			</g>
		</g>
		<g>
			<title>accD5 (FLEGEENC_01999)
putative propionyl-CoA carboxylase beta chain 5</title>
			<polygon class="accD5 (FLEGEENC_01999)
putative propionyl-CoA carboxylase beta chain 5" points="508,25 528,25 528,10 558,40 528,70 528,55 508,55" fill="rgb(255,255,255)" fill-opacity="1.0" stroke="rgb(0,0,0)" stroke-width="2"  />
			<g>
				<title>Carboxyl_trans (PF01039)
"Carboxyl transferase domain"</title>
				<polygon class="PF01039" points="510,28 542,28 554,40 542,52 510,52" stroke-linejoin="round" width="48" height="24" fill="rgb(180,136,60)" stroke="rgb(144,108,48)" stroke-width="1" opacity="0.75" />
			</g>
		</g>
		<g>
			<title> (FLEGEENC_02000)
hypothetical protein</title>
			<polygon class=" (FLEGEENC_02000)
hypothetical protein" points="565,10 570,40 565,70" fill="rgb(255,255,255)" fill-opacity="1.0" stroke="rgb(0,0,0)" stroke-width="2"  />
		</g>
		<g>
			<title>acs (FLEGEENC_02001)
Acetyl-coenzyme A synthetase</title>
			<polygon class="acs (FLEGEENC_02001)
Acetyl-coenzyme A synthetase" points="635,25 600,25 600,10 570,40 600,70 600,55 635,55" fill="rgb(255,255,255)" fill-opacity="1.0" stroke="rgb(0,0,0)" stroke-width="2"  />
			<g>
				<title>AMP-binding_C (PF13193)
"AMP-binding enzyme C-terminal domain"</title>
				<polygon class="PF13193" points="574,40 581,33 581,47 574,40" stroke-linejoin="round" width="7" height="24" fill="rgb(182,50,118)" stroke="rgb(145,39,94)" stroke-width="1" opacity="0.75" />
			</g>
			<g>
				<title>AMP-binding (PF00501)
"AMP-binding enzyme"</title>
				<polygon class="PF00501" points="582,32 586,28 625,28 625,52 586,52 582,48" stroke-linejoin="round" width="43" height="24" fill="rgb(60,217,223)" stroke="rgb(48,173,178)" stroke-width="1" opacity="0.75" />
			</g>
			<g>
				<title>ACAS_N (PF16177)
"Acetyl-coenzyme A synthetase N-terminus"</title>
				<rect class="PF16177" x="626" y="28" stroke-linejoin="round" width="5" height="24" fill="rgb(54,78,195)" stroke="rgb(43,62,156)" stroke-width="1" opacity="0.75" />
			</g>
		</g>
		<g>
			<title> (FLEGEENC_02002)
hypothetical protein</title>
			<polygon class=" (FLEGEENC_02002)
hypothetical protein" points="646,25 654,25 654,10 684,40 654,70 654,55 646,55" fill="rgb(255,255,255)" fill-opacity="1.0" stroke="rgb(0,0,0)" stroke-width="2"  />
			<g>
				<title>Epimerase (PF01370)
"NAD dependent epimerase/dehydratase family"</title>
				<polygon class="PF01370" points="646,28 668,28 674,34 674,46 668,52 646,52" stroke-linejoin="round" width="28" height="24" fill="rgb(98,102,214)" stroke="rgb(78,81,171)" stroke-width="1" opacity="0.75" />
			</g>
		</g>
		<g>
			<title>mgtA (FLEGEENC_02003)
GDP-mannose-dependent alpha-mannosyltransferase</title>
			<polygon class="mgtA (FLEGEENC_02003)
GDP-mannose-dependent alpha-mannosyltransferase" points="685,25 694,25 694,10 724,40 694,70 694,55 685,55" fill="rgb(255,255,255)" fill-opacity="1.0" stroke="rgb(0,0,0)" stroke-width="2"  />
			<g>
				<title>Glyco_transf_4 (PF13439)
"Glycosyltransferase Family 4"</title>
				<rect class="PF13439" x="686" y="28" stroke-linejoin="round" width="16" height="24" fill="rgb(162,57,186)" stroke="rgb(129,45,148)" stroke-width="1" opacity="0.75" />
			</g>
			<g>
				<title>Glycos_transf_1 (PF00534)
"Glycosyl transferases group 1"</title>
				<polygon class="PF00534" points="703,28 707,28 719,40 719,40 707,52 703,52" stroke-linejoin="round" width="16" height="24" fill="rgb(228,92,150)" stroke="rgb(182,73,119)" stroke-width="1" opacity="0.75" />
			</g>
		</g>
		<g>
			<title> (FLEGEENC_02004)
hypothetical protein</title>
			<polygon class=" (FLEGEENC_02004)
hypothetical protein" points="739,10 757,40 739,70" fill="rgb(255,255,255)" fill-opacity="1.0" stroke="rgb(0,0,0)" stroke-width="2"  />
		</g>
		<g>
			<title>ymfD (FLEGEENC_02005)
Bacillibactin exporter</title>
			<polygon class="ymfD (FLEGEENC_02005)
Bacillibactin exporter" points="799,25 788,25 788,10 758,40 788,70 788,55 799,55" fill="rgb(255,255,255)" fill-opacity="1.0" stroke="rgb(0,0,0)" stroke-width="2"  />
			<g>
				<title>MFS_1 (PF07690)
"Major Facilitator Superfamily"</title>
				<polygon class="PF07690" points="762,40 774,28 796,28 796,52 774,52 762,40" stroke-linejoin="round" width="34" height="24" fill="rgb(193,224,74)" stroke="rgb(154,179,59)" stroke-width="1" opacity="0.75" />
			</g>
		</g>
		<g>
			<title>cvfB (FLEGEENC_02006)
Conserved virulence factor B</title>
			<polygon class="cvfB (FLEGEENC_02006)
Conserved virulence factor B" points="803,40 832,10 832,70" fill="rgb(255,255,255)" fill-opacity="1.0" stroke="rgb(0,0,0)" stroke-width="2"  />
			<g>
				<title>CvfB_WH (PF17783)
"CvfB-like winged helix domain"</title>
				<polygon class="PF17783" points="807,40 808,39 808,41" stroke-linejoin="round" width="5" height="24" fill="rgb(199,98,56)" stroke="rgb(159,78,44)" stroke-width="1" opacity="0.75" />
			</g>
			<g>
				<title>S1_2 (PF13509)
"S1 domain"</title>
				<rect class="PF13509" x="825" y="28" stroke-linejoin="round" width="6" height="24" fill="rgb(62,185,141)" stroke="rgb(49,148,112)" stroke-width="1" opacity="0.75" />
			</g>
		</g>
		<g>
			<title> (FLEGEENC_02007)
hypothetical protein</title>
			<polygon class=" (FLEGEENC_02007)
hypothetical protein" points="866,25 862,25 862,10 832,40 862,70 862,55 866,55" fill="rgb(255,255,255)" fill-opacity="1.0" stroke="rgb(0,0,0)" stroke-width="2"  />
			<g>
				<title>Bac_luciferase (PF00296)
"Luciferase-like monooxygenase"</title>
				<polygon class="PF00296" points="836,40 848,28 865,28 865,52 848,52" stroke-linejoin="round" width="30" height="24" fill="rgb(180,112,78)" stroke="rgb(144,89,62)" stroke-width="1" opacity="0.75" />
			</g>
		</g>
		<g>
			<title> (FLEGEENC_02008)
hypothetical protein</title>
			<polygon class=" (FLEGEENC_02008)
hypothetical protein" points="867,40 879,10 879,70" fill="rgb(255,255,255)" fill-opacity="1.0" stroke="rgb(0,0,0)" stroke-width="2"  />
			<g>
				<title>RTP (PF02334)
"Replication terminator protein"</title>
				<polygon class="PF02334" points="870,40 875,28 878,28 878,52 875,52" stroke-linejoin="round" width="11" height="24" fill="rgb(170,189,64)" stroke="rgb(136,151,51)" stroke-width="1" opacity="0.75" />
			</g>
		</g>
		<g>
			<title>yocH_2 (FLEGEENC_02009)
Cell wall-binding protein YocH</title>
			<polygon class="yocH_2 (FLEGEENC_02009)
Cell wall-binding protein YocH" points="907,40 935,10 935,70" fill="rgb(255,255,255)" fill-opacity="1.0" stroke="rgb(0,0,0)" stroke-width="2"  />
			<g>
				<title>3D (PF06725)
"3D domain"</title>
				<polygon class="PF06725" points="911,40 913,38 913,42" stroke-linejoin="round" width="6" height="24" fill="rgb(78,200,107)" stroke="rgb(62,160,85)" stroke-width="1" opacity="0.75" />
			</g>
			<g>
				<title>LysM (PF01476)
"LysM domain"</title>
				<rect class="PF01476" x="923" y="28" stroke-linejoin="round" width="4" height="24" fill="rgb(200,86,203)" stroke="rgb(160,68,162)" stroke-width="1" opacity="0.75" />
			</g>
			<g>
				<title>LysM (PF01476)
"LysM domain"</title>
				<rect class="PF01476" x="928" y="28" stroke-linejoin="round" width="4" height="24" fill="rgb(200,86,203)" stroke="rgb(160,68,162)" stroke-width="1" opacity="0.75" />
			</g>
		</g>
	</g>
</svg>
