<svg version="1.1" baseProfile="full" xmlns="http://www.w3.org/2000/svg" width="970.0333333333333" height="80">
	<g>
		<line x1="10" y1="40.0" x2="960.0333333333333" y2="40.0" style="stroke:rgb(70,70,70); stroke-width:3 "/>
		<g>
			<title>btuD_4 (MEJGHCBM_02161)
Vitamin B12 import ATP-binding protein BtuD</title>
			<polygon class="btuD_4 (MEJGHCBM_02161)
Vitamin B12 import ATP-binding protein BtuD" points="21,25 26,25 26,10 56,40 26,70 26,55 21,55" fill="rgb(255,255,255)" fill-opacity="1.0" stroke="rgb(0,0,0)" stroke-width="2"  />
			<g>
				<title>ABC_tran (PF00005)
"ABC transporter"</title>
				<rect class="PF00005" x="22" y="28" stroke-linejoin="round" width="14" height="24" fill="rgb(129,201,63)" stroke="rgb(103,160,50)" stroke-width="1" opacity="0.75" />
			</g>
		</g>
		<g>
			<title> (MEJGHCBM_02162)
hypothetical protein</title>
			<polygon class=" (MEJGHCBM_02162)
hypothetical protein" points="57,25 77,25 77,10 107,40 77,70 77,55 57,55" fill="rgb(255,255,255)" fill-opacity="1.0" stroke="rgb(0,0,0)" stroke-width="2"  />
			<g>
				<title>BPD_transp_1 (PF00528)
"Binding-protein-dependent transport system inner membrane component"</title>
				<rect class="PF00528" x="60" y="28" stroke-linejoin="round" width="17" height="24" fill="rgb(77,208,225)" stroke="rgb(61,166,180)" stroke-width="1" opacity="0.75" />
			</g>
			<g>
				<title>OpuAC (PF04069)
"Substrate binding domain of ABC-type glycine betaine transport system"</title>
				<polygon class="PF04069" points="80,28 91,28 103,40 91,52 80,52" stroke-linejoin="round" width="26" height="24" fill="rgb(81,218,80)" stroke="rgb(64,174,64)" stroke-width="1" opacity="0.75" />
			</g>
		</g>
		<g>
			<title>yccU (MEJGHCBM_02163)
putative protein YccU</title>
			<polygon class="yccU (MEJGHCBM_02163)
putative protein YccU" points="108,10 121,40 108,70" fill="rgb(255,255,255)" fill-opacity="1.0" stroke="rgb(0,0,0)" stroke-width="2"  />
			<g>
				<title>CoA_binding_2 (PF13380)
"CoA binding domain"</title>
				<polygon class="PF13380" points="109,28 112,28 118,40 112,52 109,52" stroke-linejoin="round" width="11" height="24" fill="rgb(212,69,78)" stroke="rgb(169,55,62)" stroke-width="1" opacity="0.75" />
			</g>
		</g>
		<g>
			<title>parE (MEJGHCBM_02164)
DNA topoisomerase 4 subunit B</title>
			<polygon class="parE (MEJGHCBM_02164)
DNA topoisomerase 4 subunit B" points="128,25 163,25 163,10 193,40 163,70 163,55 128,55" fill="rgb(255,255,255)" fill-opacity="1.0" stroke="rgb(0,0,0)" stroke-width="2"  />
			<g>
				<title>HATPase_c (PF02518)
"Histidine kinase-, DNA gyrase B-, and HSP90-like ATPase"</title>
				<rect class="PF02518" x="131" y="28" stroke-linejoin="round" width="14" height="24" fill="rgb(80,94,225)" stroke="rgb(64,75,180)" stroke-width="1" opacity="0.75" />
			</g>
			<g>
				<title>DNA_gyraseB (PF00204)
"DNA gyrase B"</title>
				<rect class="PF00204" x="150" y="28" stroke-linejoin="round" width="17" height="24" fill="rgb(66,134,179)" stroke="rgb(52,107,143)" stroke-width="1" opacity="0.75" />
			</g>
			<g>
				<title>Toprim (PF01751)
"Toprim domain"</title>
				<polygon class="PF01751" points="170,28 176,28 181,33 181,47 176,52 170,52" stroke-linejoin="round" width="11" height="24" fill="rgb(95,212,145)" stroke="rgb(76,169,116)" stroke-width="1" opacity="0.75" />
			</g>
			<g>
				<title>DNA_gyraseB_C (PF00986)
"DNA gyrase B subunit, carboxyl terminus"</title>
				<polygon class="PF00986" points="184,36 188,40 184,44" stroke-linejoin="round" width="6" height="24" fill="rgb(184,59,116)" stroke="rgb(147,47,92)" stroke-width="1" opacity="0.75" />
			</g>
		</g>
		<g>
			<title>parC (MEJGHCBM_02165)
DNA topoisomerase 4 subunit A</title>
			<polygon class="parC (MEJGHCBM_02165)
DNA topoisomerase 4 subunit A" points="194,25 246,25 246,10 276,40 246,70 246,55 194,55" fill="rgb(255,255,255)" fill-opacity="1.0" stroke="rgb(0,0,0)" stroke-width="2"  />
			<g>
				<title>DNA_topoisoIV (PF00521)
"DNA gyrase/topoisomerase IV, subunit A"</title>
				<rect class="PF00521" x="197" y="28" stroke-linejoin="round" width="44" height="24" fill="rgb(196,204,77)" stroke="rgb(156,163,61)" stroke-width="1" opacity="0.75" />
			</g>
			<g>
				<title>DNA_gyraseA_C (PF03989)
"DNA gyrase C-terminal domain, beta-propeller"</title>
				<rect class="PF03989" x="244" y="28" stroke-linejoin="round" width="2" height="24" fill="rgb(52,134,190)" stroke="rgb(41,107,152)" stroke-width="1" opacity="0.75" />
			</g>
			<g>
				<title>DNA_gyraseA_C (PF03989)
"DNA gyrase C-terminal domain, beta-propeller"</title>
				<rect class="PF03989" x="248" y="28" stroke-linejoin="round" width="5" height="24" fill="rgb(52,134,190)" stroke="rgb(41,107,152)" stroke-width="1" opacity="0.75" />
			</g>
			<g>
				<title>DNA_gyraseA_C (PF03989)
"DNA gyrase C-terminal domain, beta-propeller"</title>
				<rect class="PF03989" x="254" y="28" stroke-linejoin="round" width="4" height="24" fill="rgb(52,134,190)" stroke="rgb(41,107,152)" stroke-width="1" opacity="0.75" />
			</g>
			<g>
				<title>DNA_gyraseA_C (PF03989)
"DNA gyrase C-terminal domain, beta-propeller"</title>
				<polygon class="PF03989" points="259,28 259,28 263,32 263,48 259,52 259,52" stroke-linejoin="round" width="4" height="24" fill="rgb(52,134,190)" stroke="rgb(41,107,152)" stroke-width="1" opacity="0.75" />
			</g>
			<g>
				<title>DNA_gyraseA_C (PF03989)
"DNA gyrase C-terminal domain, beta-propeller"</title>
				<polygon class="PF03989" points="264,33 268,37 268,43 264,47" stroke-linejoin="round" width="4" height="24" fill="rgb(52,134,190)" stroke="rgb(41,107,152)" stroke-width="1" opacity="0.75" />
			</g>
		</g>
		<g>
			<title>kstR2_2 (MEJGHCBM_02166)
HTH-type transcriptional repressor KstR2</title>
			<polygon class="kstR2_2 (MEJGHCBM_02166)
HTH-type transcriptional repressor KstR2" points="280,10 301,40 280,70" fill="rgb(255,255,255)" fill-opacity="1.0" stroke="rgb(0,0,0)" stroke-width="2"  />
			<g>
				<title>TetR_N (PF00440)
"Bacterial regulatory proteins, tetR family"</title>
				<rect class="PF00440" x="280" y="28" stroke-linejoin="round" width="4" height="24" fill="rgb(73,212,190)" stroke="rgb(58,169,152)" stroke-width="1" opacity="0.75" />
			</g>
			<g>
				<title>TetR_C_24 (PF17932)
"Tetracyclin repressor-like, C-terminal domain"</title>
				<polygon class="PF17932" points="287,28 289,28 297,40 289,52 287,52" stroke-linejoin="round" width="11" height="24" fill="rgb(165,217,107)" stroke="rgb(132,173,85)" stroke-width="1" opacity="0.75" />
			</g>
		</g>
		<g>
			<title>bcd (MEJGHCBM_02167)
Acyl-CoA dehydrogenase, short-chain specific</title>
			<polygon class="bcd (MEJGHCBM_02167)
Acyl-CoA dehydrogenase, short-chain specific" points="304,25 312,25 312,10 342,40 312,70 312,55 304,55" fill="rgb(255,255,255)" fill-opacity="1.0" stroke="rgb(0,0,0)" stroke-width="2"  />
			<g>
				<title>Acyl-CoA_dh_N (PF02771)
"Acyl-CoA dehydrogenase, N-terminal domain"</title>
				<rect class="PF02771" x="304" y="28" stroke-linejoin="round" width="11" height="24" fill="rgb(105,135,218)" stroke="rgb(84,108,174)" stroke-width="1" opacity="0.75" />
			</g>
			<g>
				<title>Acyl-CoA_dh_M (PF02770)
"Acyl-CoA dehydrogenase, middle domain"</title>
				<rect class="PF02770" x="316" y="28" stroke-linejoin="round" width="9" height="24" fill="rgb(225,186,97)" stroke="rgb(180,148,77)" stroke-width="1" opacity="0.75" />
			</g>
			<g>
				<title>Acyl-CoA_dh_1 (PF00441)
"Acyl-CoA dehydrogenase, C-terminal domain"</title>
				<polygon class="PF00441" points="327,30 337,40 327,50" stroke-linejoin="round" width="14" height="24" fill="rgb(85,191,117)" stroke="rgb(68,152,93)" stroke-width="1" opacity="0.75" />
			</g>
		</g>
		<g>
			<title>fadD3 (MEJGHCBM_02168)
3-[(3aS,4S,7aS)-7a-methyl-1, 5-dioxo-octahydro-1H-inden-4-yl]propanoyl:CoA ligase</title>
			<polygon class="fadD3 (MEJGHCBM_02168)
3-[(3aS,4S,7aS)-7a-methyl-1, 5-dioxo-octahydro-1H-inden-4-yl]propanoyl:CoA ligase" points="343,25 367,25 367,10 397,40 367,70 367,55 343,55" fill="rgb(255,255,255)" fill-opacity="1.0" stroke="rgb(0,0,0)" stroke-width="2"  />
			<g>
				<title>AMP-binding (PF00501)
"AMP-binding enzyme"</title>
				<polygon class="PF00501" points="344,28 381,28 387,34 387,46 381,52 344,52" stroke-linejoin="round" width="43" height="24" fill="rgb(60,217,223)" stroke="rgb(48,173,178)" stroke-width="1" opacity="0.75" />
			</g>
			<g>
				<title>AMP-binding_C (PF13193)
"AMP-binding enzyme C-terminal domain"</title>
				<polygon class="PF13193" points="388,35 393,40 388,45" stroke-linejoin="round" width="7" height="24" fill="rgb(182,50,118)" stroke="rgb(145,39,94)" stroke-width="1" opacity="0.75" />
			</g>
		</g>
		<g>
			<title>accC_1 (MEJGHCBM_02169)
Biotin carboxylase</title>
			<polygon class="accC_1 (MEJGHCBM_02169)
Biotin carboxylase" points="398,25 413,25 413,10 443,40 413,70 413,55 398,55" fill="rgb(255,255,255)" fill-opacity="1.0" stroke="rgb(0,0,0)" stroke-width="2"  />
			<g>
				<title>Biotin_carb_N (PF00289)
"Biotin carboxylase, N-terminal domain"</title>
				<rect class="PF00289" x="398" y="28" stroke-linejoin="round" width="10" height="24" fill="rgb(59,114,187)" stroke="rgb(47,91,149)" stroke-width="1" opacity="0.75" />
			</g>
			<g>
				<title>CPSase_L_D2 (PF02786)
"Carbamoyl-phosphate synthase L chain, ATP binding domain"</title>
				<polygon class="PF02786" points="409,28 427,28 429,30 429,50 427,52 409,52" stroke-linejoin="round" width="20" height="24" fill="rgb(190,97,205)" stroke="rgb(151,77,164)" stroke-width="1" opacity="0.75" />
			</g>
			<g>
				<title>Biotin_carb_C (PF02785)
"Biotin carboxylase C-terminal domain"</title>
				<polygon class="PF02785" points="431,32 439,40 431,48" stroke-linejoin="round" width="10" height="24" fill="rgb(82,186,211)" stroke="rgb(65,148,168)" stroke-width="1" opacity="0.75" />
			</g>
		</g>
		<g>
			<title>yngHB (MEJGHCBM_02170)
Biotin/lipoyl attachment protein</title>
			<polygon class="yngHB (MEJGHCBM_02170)
Biotin/lipoyl attachment protein" points="444,10 451,40 444,70" fill="rgb(255,255,255)" fill-opacity="1.0" stroke="rgb(0,0,0)" stroke-width="2"  />
			<g>
				<title>Biotin_lipoyl (PF00364)
"Biotin-requiring enzyme"</title>
				<polygon class="PF00364" points="444,28 444,28 448,40 444,52 444,52" stroke-linejoin="round" width="6" height="24" fill="rgb(67,214,213)" stroke="rgb(53,171,170)" stroke-width="1" opacity="0.75" />
			</g>
		</g>
		<g>
			<title>yngG (MEJGHCBM_02171)
Hydroxymethylglutaryl-CoA lyase YngG</title>
			<polygon class="yngG (MEJGHCBM_02171)
Hydroxymethylglutaryl-CoA lyase YngG" points="451,25 451,25 451,10 481,40 451,70 451,55 451,55" fill="rgb(255,255,255)" fill-opacity="1.0" stroke="rgb(0,0,0)" stroke-width="2"  />
			<g>
				<title>HMGL-like (PF00682)
"HMGL-like"</title>
				<polygon class="PF00682" points="451,28 464,28 476,40 464,52 451,52" stroke-linejoin="round" width="27" height="24" fill="rgb(84,228,141)" stroke="rgb(67,182,112)" stroke-width="1" opacity="0.75" />
			</g>
		</g>
		<g>
			<title>crt (MEJGHCBM_02172)
Short-chain-enoyl-CoA hydratase</title>
			<polygon class="crt (MEJGHCBM_02172)
Short-chain-enoyl-CoA hydratase" points="482,10 508,40 482,70" fill="rgb(255,255,255)" fill-opacity="1.0" stroke="rgb(0,0,0)" stroke-width="2"  />
			<g>
				<title>ECH_1 (PF00378)
"Enoyl-CoA hydratase/isomerase"</title>
				<polygon class="PF00378" points="482,28 494,28 504,40 494,52 482,52" stroke-linejoin="round" width="25" height="24" fill="rgb(218,72,181)" stroke="rgb(174,57,144)" stroke-width="1" opacity="0.75" />
			</g>
		</g>
		<g>
			<title>accD5 (MEJGHCBM_02173)
putative propionyl-CoA carboxylase beta chain 5</title>
			<polygon class="accD5 (MEJGHCBM_02173)
putative propionyl-CoA carboxylase beta chain 5" points="508,25 529,25 529,10 559,40 529,70 529,55 508,55" fill="rgb(255,255,255)" fill-opacity="1.0" stroke="rgb(0,0,0)" stroke-width="2"  />
			<g>
				<title>Carboxyl_trans (PF01039)
"Carboxyl transferase domain"</title>
				<polygon class="PF01039" points="510,28 542,28 554,40 542,52 510,52" stroke-linejoin="round" width="48" height="24" fill="rgb(180,136,60)" stroke="rgb(144,108,48)" stroke-width="1" opacity="0.75" />
			</g>
		</g>
		<g>
			<title>acs (MEJGHCBM_02174)
Acetyl-coenzyme A synthetase</title>
			<polygon class="acs (MEJGHCBM_02174)
Acetyl-coenzyme A synthetase" points="626,25 591,25 591,10 561,40 591,70 591,55 626,55" fill="rgb(255,255,255)" fill-opacity="1.0" stroke="rgb(0,0,0)" stroke-width="2"  />
			<g>
				<title>AMP-binding_C (PF13193)
"AMP-binding enzyme C-terminal domain"</title>
				<polygon class="PF13193" points="565,40 572,33 572,47 565,40" stroke-linejoin="round" width="7" height="24" fill="rgb(182,50,118)" stroke="rgb(145,39,94)" stroke-width="1" opacity="0.75" />
			</g>
			<g>
				<title>AMP-binding (PF00501)
"AMP-binding enzyme"</title>
				<polygon class="PF00501" points="573,32 577,28 616,28 616,52 577,52 573,48" stroke-linejoin="round" width="43" height="24" fill="rgb(60,217,223)" stroke="rgb(48,173,178)" stroke-width="1" opacity="0.75" />
			</g>
			<g>
				<title>ACAS_N (PF16177)
"Acetyl-coenzyme A synthetase N-terminus"</title>
				<rect class="PF16177" x="617" y="28" stroke-linejoin="round" width="5" height="24" fill="rgb(54,78,195)" stroke="rgb(43,62,156)" stroke-width="1" opacity="0.75" />
			</g>
		</g>
		<g>
			<title> (MEJGHCBM_02175)
hypothetical protein</title>
			<polygon class=" (MEJGHCBM_02175)
hypothetical protein" points="641,25 649,25 649,10 679,40 649,70 649,55 641,55" fill="rgb(255,255,255)" fill-opacity="1.0" stroke="rgb(0,0,0)" stroke-width="2"  />
			<g>
				<title>Epimerase (PF01370)
"NAD dependent epimerase/dehydratase family"</title>
				<polygon class="PF01370" points="641,28 663,28 669,34 669,46 663,52 641,52" stroke-linejoin="round" width="28" height="24" fill="rgb(98,102,214)" stroke="rgb(78,81,171)" stroke-width="1" opacity="0.75" />
			</g>
		</g>
		<g>
			<title>mgtA_1 (MEJGHCBM_02176)
GDP-mannose-dependent alpha-mannosyltransferase</title>
			<polygon class="mgtA_1 (MEJGHCBM_02176)
GDP-mannose-dependent alpha-mannosyltransferase" points="680,25 688,25 688,10 718,40 688,70 688,55 680,55" fill="rgb(255,255,255)" fill-opacity="1.0" stroke="rgb(0,0,0)" stroke-width="2"  />
			<g>
				<title>Glyco_transf_4 (PF13439)
"Glycosyltransferase Family 4"</title>
				<rect class="PF13439" x="681" y="28" stroke-linejoin="round" width="16" height="24" fill="rgb(162,57,186)" stroke="rgb(129,45,148)" stroke-width="1" opacity="0.75" />
			</g>
			<g>
				<title>Glycos_transf_1 (PF00534)
"Glycosyl transferases group 1"</title>
				<polygon class="PF00534" points="698,28 702,28 714,40 714,40 702,52 698,52" stroke-linejoin="round" width="16" height="24" fill="rgb(228,92,150)" stroke="rgb(182,73,119)" stroke-width="1" opacity="0.75" />
			</g>
		</g>
		<g>
			<title> (MEJGHCBM_02177)
hypothetical protein</title>
			<polygon class=" (MEJGHCBM_02177)
hypothetical protein" points="783,10 799,40 783,70" fill="rgb(255,255,255)" fill-opacity="1.0" stroke="rgb(0,0,0)" stroke-width="2"  />
			<g>
				<title>Peptidase_M50 (PF02163)
"Peptidase family M50"</title>
				<polygon class="PF02163" points="784,28 789,28 795,40 789,52 784,52" stroke-linejoin="round" width="12" height="24" fill="rgb(105,96,203)" stroke="rgb(83,76,162)" stroke-width="1" opacity="0.75" />
			</g>
		</g>
		<g>
			<title>aadK (MEJGHCBM_02178)
Aminoglycoside 6-adenylyltransferase</title>
			<polygon class="aadK (MEJGHCBM_02178)
Aminoglycoside 6-adenylyltransferase" points="799,40 828,10 828,70" fill="rgb(255,255,255)" fill-opacity="1.0" stroke="rgb(0,0,0)" stroke-width="2"  />
			<g>
				<title>Adenyl_transf (PF04439)
"Streptomycin adenylyltransferase"</title>
				<polygon class="PF04439" points="803,40 815,28 827,28 827,52 815,52" stroke-linejoin="round" width="27" height="24" fill="rgb(190,95,93)" stroke="rgb(152,76,74)" stroke-width="1" opacity="0.75" />
			</g>
		</g>
		<g>
			<title> (MEJGHCBM_02179)
hypothetical protein</title>
			<polygon class=" (MEJGHCBM_02179)
hypothetical protein" points="831,10 849,40 831,70" fill="rgb(255,255,255)" fill-opacity="1.0" stroke="rgb(0,0,0)" stroke-width="2"  />
		</g>
		<g>
			<title>dinG_1 (MEJGHCBM_02180)
3'-5' exonuclease DinG</title>
			<polygon class="dinG_1 (MEJGHCBM_02180)
3'-5' exonuclease DinG" points="881,25 881,25 881,10 851,40 881,70 881,55 881,55" fill="rgb(255,255,255)" fill-opacity="1.0" stroke="rgb(0,0,0)" stroke-width="2"  />
			<g>
				<title>BRCT (PF00533)
"BRCA1 C Terminus (BRCT) domain"</title>
				<polygon class="PF00533" points="855,40 860,35 860,45" stroke-linejoin="round" width="9" height="24" fill="rgb(69,217,144)" stroke="rgb(55,173,115)" stroke-width="1" opacity="0.75" />
			</g>
			<g>
				<title>RNase_T (PF00929)
"Exonuclease"</title>
				<polygon class="PF00929" points="865,30 867,28 880,28 880,52 867,52 865,50" stroke-linejoin="round" width="15" height="24" fill="rgb(201,87,120)" stroke="rgb(160,69,96)" stroke-width="1" opacity="0.75" />
			</g>
		</g>
		<g>
			<title> (MEJGHCBM_02181)
hypothetical protein</title>
			<polygon class=" (MEJGHCBM_02181)
hypothetical protein" points="889,40 909,10 909,70" fill="rgb(255,255,255)" fill-opacity="1.0" stroke="rgb(0,0,0)" stroke-width="2"  />
			<g>
				<title>Nitroreductase (PF00881)
"Nitroreductase family"</title>
				<polygon class="PF00881" points="893,40 901,28 906,28 906,52 901,52" stroke-linejoin="round" width="15" height="24" fill="rgb(79,118,187)" stroke="rgb(63,94,149)" stroke-width="1" opacity="0.75" />
			</g>
		</g>
		<g>
			<title>yycN (MEJGHCBM_02182)
putative N-acetyltransferase YycN</title>
			<polygon class="yycN (MEJGHCBM_02182)
putative N-acetyltransferase YycN" points="910,40 925,10 925,70" fill="rgb(255,255,255)" fill-opacity="1.0" stroke="rgb(0,0,0)" stroke-width="2"  />
			<g>
				<title>Acetyltransf_1 (PF00583)
"Acetyltransferase (GNAT) family"</title>
				<polygon class="PF00583" points="913,40 919,28 923,28 923,52 919,52" stroke-linejoin="round" width="12" height="24" fill="rgb(121,183,50)" stroke="rgb(96,146,39)" stroke-width="1" opacity="0.75" />
			</g>
		</g>
		<g>
			<title>yycE (MEJGHCBM_02183)
putative protein YycE</title>
			<polygon class="yycE (MEJGHCBM_02183)
putative protein YycE" points="927,40 940,10 940,70" fill="rgb(255,255,255)" fill-opacity="1.0" stroke="rgb(0,0,0)" stroke-width="2"  />
			<g>
				<title>Glyoxalase (PF00903)
"Glyoxalase/Bleomycin resistance protein/Dioxygenase superfamily"</title>
				<polygon class="PF00903" points="930,40 935,28 938,28 938,52 935,52" stroke-linejoin="round" width="11" height="24" fill="rgb(50,162,189)" stroke="rgb(40,129,151)" stroke-width="1" opacity="0.75" />
			</g>
		</g>
		<g>
			<title> (MEJGHCBM_02184)
hypothetical protein</title>
			<polygon class=" (MEJGHCBM_02184)
hypothetical protein" points="939,40 943,10 943,70" fill="rgb(255,255,255)" fill-opacity="1.0" stroke="rgb(0,0,0)" stroke-width="2"  />
		</g>
	</g>
</svg>
