<svg version="1.1" baseProfile="full" xmlns="http://www.w3.org/2000/svg" width="533.8333333333334" height="80">
	<g>
		<line x1="10" y1="40.0" x2="523.8333333333334" y2="40.0" style="stroke:rgb(70,70,70); stroke-width:3 "/>
		<g>
			<title>murB (BBLBDBLI_01555)
UDP-N-acetylenolpyruvoylglucosamine reductase</title>
			<polygon class="murB (BBLBDBLI_01555)
UDP-N-acetylenolpyruvoylglucosamine reductase" points="46,25 46,25 46,10 16,40 46,70 46,55 46,55" fill="rgb(255,255,255)" fill-opacity="1.0" stroke="rgb(0,0,0)" stroke-width="2"  />
			<g>
				<title>MurB_C (PF02873)
"UDP-N-acetylenolpyruvoylglucosamine reductase, C-terminal domain"</title>
				<polygon class="PF02873" points="20,40 25,35 25,45" stroke-linejoin="round" width="9" height="24" fill="rgb(88,193,151)" stroke="rgb(70,154,120)" stroke-width="1" opacity="0.75" />
			</g>
			<g>
				<title>FAD_binding_4 (PF01565)
"FAD binding domain"</title>
				<polygon class="PF01565" points="30,30 32,28 42,28 42,52 32,52 30,50" stroke-linejoin="round" width="12" height="24" fill="rgb(226,88,136)" stroke="rgb(180,70,108)" stroke-width="1" opacity="0.75" />
			</g>
		</g>
		<g>
			<title>ilvD_1 (BBLBDBLI_01556)
Dihydroxy-acid dehydratase</title>
			<polygon class="ilvD_1 (BBLBDBLI_01556)
Dihydroxy-acid dehydratase" points="55,25 81,25 81,10 111,40 81,70 81,55 55,55" fill="rgb(255,255,255)" fill-opacity="1.0" stroke="rgb(0,0,0)" stroke-width="2"  />
			<g>
				<title>ILVD_EDD (PF00920)
"Dehydratase family"</title>
				<polygon class="PF00920" points="59,28 95,28 107,40 95,52 59,52" stroke-linejoin="round" width="51" height="24" fill="rgb(58,79,190)" stroke="rgb(46,63,152)" stroke-width="1" opacity="0.75" />
			</g>
		</g>
		<g>
			<title>ddc (BBLBDBLI_01557)
L-2,4-diaminobutyrate decarboxylase</title>
			<polygon class="ddc (BBLBDBLI_01557)
L-2,4-diaminobutyrate decarboxylase" points="125,25 146,25 146,10 176,40 146,70 146,55 125,55" fill="rgb(255,255,255)" fill-opacity="1.0" stroke="rgb(0,0,0)" stroke-width="2"  />
			<g>
				<title>Pyridoxal_deC (PF00282)
"Pyridoxal-dependent decarboxylase conserved domain"</title>
				<polygon class="PF00282" points="131,28 160,28 168,36 168,44 160,52 131,52" stroke-linejoin="round" width="37" height="24" fill="rgb(100,218,166)" stroke="rgb(80,174,132)" stroke-width="1" opacity="0.75" />
			</g>
		</g>
		<g>
			<title>iucA (BBLBDBLI_01558)
N(2)-citryl-N(6)-acetyl-N(6)-hydroxylysine synthase</title>
			<polygon class="iucA (BBLBDBLI_01558)
N(2)-citryl-N(6)-acetyl-N(6)-hydroxylysine synthase" points="176,25 204,25 204,10 234,40 204,70 204,55 176,55" fill="rgb(255,255,255)" fill-opacity="1.0" stroke="rgb(0,0,0)" stroke-width="2"  />
			<g>
				<title>IucA_IucC (PF04183)
"IucA / IucC family"</title>
				<rect class="PF04183" x="189" y="28" stroke-linejoin="round" width="23" height="24" fill="rgb(221,104,121)" stroke="rgb(176,83,96)" stroke-width="1" opacity="0.75" />
			</g>
			<g>
				<title>FhuF (PF06276)
"Ferric iron reductase FhuF-like transporter"</title>
				<polygon class="PF06276" points="216,28 218,28 230,40 218,52 216,52" stroke-linejoin="round" width="15" height="24" fill="rgb(76,151,221)" stroke="rgb(60,120,176)" stroke-width="1" opacity="0.75" />
			</g>
		</g>
		<g>
			<title>aacA4 (BBLBDBLI_01559)
Aminoglycoside N(6')-acetyltransferase type 1</title>
			<polygon class="aacA4 (BBLBDBLI_01559)
Aminoglycoside N(6')-acetyltransferase type 1" points="234,10 253,40 234,70" fill="rgb(255,255,255)" fill-opacity="1.0" stroke="rgb(0,0,0)" stroke-width="2"  />
			<g>
				<title>Acetyltransf_8 (PF13523)
"Acetyltransferase (GNAT) domain"</title>
				<polygon class="PF13523" points="236,28 242,28 249,40 242,52 236,52" stroke-linejoin="round" width="14" height="24" fill="rgb(106,224,203)" stroke="rgb(84,179,162)" stroke-width="1" opacity="0.75" />
			</g>
		</g>
		<g>
			<title>iucD_3 (BBLBDBLI_01560)
L-lysine N6-monooxygenase</title>
			<polygon class="iucD_3 (BBLBDBLI_01560)
L-lysine N6-monooxygenase" points="253,25 267,25 267,10 297,40 267,70 267,55 253,55" fill="rgb(255,255,255)" fill-opacity="1.0" stroke="rgb(0,0,0)" stroke-width="2"  />
			<g>
				<title>K_oxygenase (PF13434)
"L-lysine 6-monooxygenase (NADPH-requiring)"</title>
				<polygon class="PF13434" points="253,28 281,28 286,33 286,47 281,52 253,52" stroke-linejoin="round" width="33" height="24" fill="rgb(81,213,119)" stroke="rgb(64,170,95)" stroke-width="1" opacity="0.75" />
			</g>
		</g>
		<g>
			<title>iucC (BBLBDBLI_01561)
Aerobactin synthase</title>
			<polygon class="iucC (BBLBDBLI_01561)
Aerobactin synthase" points="297,25 326,25 326,10 356,40 326,70 326,55 297,55" fill="rgb(255,255,255)" fill-opacity="1.0" stroke="rgb(0,0,0)" stroke-width="2"  />
			<g>
				<title>IucA_IucC (PF04183)
"IucA / IucC family"</title>
				<rect class="PF04183" x="310" y="28" stroke-linejoin="round" width="25" height="24" fill="rgb(221,104,121)" stroke="rgb(176,83,96)" stroke-width="1" opacity="0.75" />
			</g>
			<g>
				<title>FhuF (PF06276)
"Ferric iron reductase FhuF-like transporter"</title>
				<polygon class="PF06276" points="338,28 340,28 352,40 340,52 338,52" stroke-linejoin="round" width="16" height="24" fill="rgb(76,151,221)" stroke="rgb(60,120,176)" stroke-width="1" opacity="0.75" />
			</g>
		</g>
		<g>
			<title>iolS (BBLBDBLI_01562)
Aldo-keto reductase IolS</title>
			<polygon class="iolS (BBLBDBLI_01562)
Aldo-keto reductase IolS" points="361,25 362,25 362,10 392,40 362,70 362,55 361,55" fill="rgb(255,255,255)" fill-opacity="1.0" stroke="rgb(0,0,0)" stroke-width="2"  />
			<g>
				<title>Aldo_ket_red (PF00248)
"Aldo/keto reductase family"</title>
				<polygon class="PF00248" points="362,28 376,28 388,40 376,52 362,52" stroke-linejoin="round" width="29" height="24" fill="rgb(225,205,58)" stroke="rgb(180,164,46)" stroke-width="1" opacity="0.75" />
			</g>
		</g>
		<g>
			<title> (BBLBDBLI_01563)
hypothetical protein</title>
			<polygon class=" (BBLBDBLI_01563)
hypothetical protein" points="401,10 405,40 401,70" fill="rgb(255,255,255)" fill-opacity="1.0" stroke="rgb(0,0,0)" stroke-width="2"  />
		</g>
		<g>
			<title>aceA (BBLBDBLI_01564)
Isocitrate lyase</title>
			<polygon class="aceA (BBLBDBLI_01564)
Isocitrate lyase" points="410,25 423,25 423,10 453,40 423,70 423,55 410,55" fill="rgb(255,255,255)" fill-opacity="1.0" stroke="rgb(0,0,0)" stroke-width="2"  />
			<g>
				<title>ICL (PF00463)
"Isocitrate lyase family"</title>
				<rect class="PF00463" x="410" y="28" stroke-linejoin="round" width="24" height="24" fill="rgb(209,76,110)" stroke="rgb(167,60,87)" stroke-width="1" opacity="0.75" />
			</g>
			<g>
				<title>ICL (PF00463)
"Isocitrate lyase family"</title>
				<polygon class="PF00463" points="434,28 436,28 448,40 436,52 434,52" stroke-linejoin="round" width="17" height="24" fill="rgb(209,76,110)" stroke="rgb(167,60,87)" stroke-width="1" opacity="0.75" />
			</g>
		</g>
		<g>
			<title> (BBLBDBLI_01565)
4-hydroxyphenylacetate 3-monooxygenase oxygenase component</title>
			<polygon class=" (BBLBDBLI_01565)
4-hydroxyphenylacetate 3-monooxygenase oxygenase component" points="455,25 475,25 475,10 505,40 475,70 475,55 455,55" fill="rgb(255,255,255)" fill-opacity="1.0" stroke="rgb(0,0,0)" stroke-width="2"  />
			<g>
				<title>HpaB_N (PF11794)
"4-hydroxyphenylacetate 3-hydroxylase N terminal"</title>
				<rect class="PF11794" x="457" y="28" stroke-linejoin="round" width="26" height="24" fill="rgb(122,202,60)" stroke="rgb(97,161,47)" stroke-width="1" opacity="0.75" />
			</g>
			<g>
				<title>HpaB (PF03241)
"4-hydroxyphenylacetate 3-hydroxylase C terminal"</title>
				<polygon class="PF03241" points="485,28 489,28 501,40 489,52 485,52" stroke-linejoin="round" width="19" height="24" fill="rgb(73,153,185)" stroke="rgb(58,122,148)" stroke-width="1" opacity="0.75" />
			</g>
		</g>
		<g>
			<title> (BBLBDBLI_01566)
hypothetical protein</title>
			<polygon class=" (BBLBDBLI_01566)
hypothetical protein" points="506,40 510,10 510,70" fill="rgb(255,255,255)" fill-opacity="1.0" stroke="rgb(0,0,0)" stroke-width="2"  />
		</g>
		<g>
			<title> (BBLBDBLI_01567)
hypothetical protein</title>
			<polygon class=" (BBLBDBLI_01567)
hypothetical protein" points="514,10 521,40 514,70" fill="rgb(255,255,255)" fill-opacity="1.0" stroke="rgb(0,0,0)" stroke-width="2"  />
			<g>
				<title>DUF4025 (PF13217)
"Protein of unknown function (DUF4025)"</title>
				<polygon class="PF13217" points="514,28 514,28 517,40 514,52 514,52" stroke-linejoin="round" width="4" height="24" fill="rgb(99,208,72)" stroke="rgb(79,166,57)" stroke-width="1" opacity="0.75" />
			</g>
		</g>
	</g>
</svg>
