<svg version="1.1" baseProfile="full" xmlns="http://www.w3.org/2000/svg" width="686.9666666666667" height="80">
	<g>
		<line x1="10" y1="40.0" x2="676.9666666666667" y2="40.0" style="stroke:rgb(70,70,70); stroke-width:3 "/>
		<g>
			<title> (HLOLAOLD_00611)
hypothetical protein</title>
			<polygon class=" (HLOLAOLD_00611)
hypothetical protein" points="10,10 14,40 10,70" fill="rgb(255,255,255)" fill-opacity="1.0" stroke="rgb(0,0,0)" stroke-width="2"  />
		</g>
		<g>
			<title> (HLOLAOLD_00612)
hypothetical protein</title>
			<polygon class=" (HLOLAOLD_00612)
hypothetical protein" points="18,10 22,40 18,70" fill="rgb(255,255,255)" fill-opacity="1.0" stroke="rgb(0,0,0)" stroke-width="2"  />
		</g>
		<g>
			<title> (HLOLAOLD_00613)
hypothetical protein</title>
			<polygon class=" (HLOLAOLD_00613)
hypothetical protein" points="26,10 30,40 26,70" fill="rgb(255,255,255)" fill-opacity="1.0" stroke="rgb(0,0,0)" stroke-width="2"  />
		</g>
		<g>
			<title> (HLOLAOLD_00614)
hypothetical protein</title>
			<polygon class=" (HLOLAOLD_00614)
hypothetical protein" points="38,10 45,40 38,70" fill="rgb(255,255,255)" fill-opacity="1.0" stroke="rgb(0,0,0)" stroke-width="2"  />
		</g>
		<g>
			<title>moeA (HLOLAOLD_00615)
Molybdopterin molybdenumtransferase</title>
			<polygon class="moeA (HLOLAOLD_00615)
Molybdopterin molybdenumtransferase" points="64,25 76,25 76,10 106,40 76,70 76,55 64,55" fill="rgb(255,255,255)" fill-opacity="1.0" stroke="rgb(0,0,0)" stroke-width="2"  />
			<g>
				<title>MoeA_N (PF03453)
"MoeA N-terminal region (domain I and II)"</title>
				<rect class="PF03453" x="64" y="28" stroke-linejoin="round" width="16" height="24" fill="rgb(93,188,107)" stroke="rgb(74,150,85)" stroke-width="1" opacity="0.75" />
			</g>
			<g>
				<title>MoCF_biosynth (PF00994)
"Probable molybdopterin binding domain"</title>
				<polygon class="PF00994" points="83,28 90,28 96,34 96,46 90,52 83,52" stroke-linejoin="round" width="13" height="24" fill="rgb(75,187,175)" stroke="rgb(60,149,139)" stroke-width="1" opacity="0.75" />
			</g>
			<g>
				<title>MoeA_C (PF03454)
"MoeA C-terminal region (domain IV)"</title>
				<polygon class="PF03454" points="98,36 102,40 98,44" stroke-linejoin="round" width="7" height="24" fill="rgb(59,190,161)" stroke="rgb(47,152,128)" stroke-width="1" opacity="0.75" />
			</g>
		</g>
		<g>
			<title>moaA (HLOLAOLD_00616)
GTP 3',8-cyclase</title>
			<polygon class="moaA (HLOLAOLD_00616)
GTP 3',8-cyclase" points="111,10 140,40 111,70" fill="rgb(255,255,255)" fill-opacity="1.0" stroke="rgb(0,0,0)" stroke-width="2"  />
			<g>
				<title>Radical_SAM (PF04055)
"Radical SAM superfamily"</title>
				<polygon class="PF04055" points="111,28 124,28 125,29 125,51 124,52 111,52" stroke-linejoin="round" width="14" height="24" fill="rgb(149,56,222)" stroke="rgb(119,44,177)" stroke-width="1" opacity="0.75" />
			</g>
			<g>
				<title>Mob_synth_C (PF06463)
"Molybdenum Cofactor Synthesis C"</title>
				<polygon class="PF06463" points="125,29 136,40 125,51" stroke-linejoin="round" width="12" height="24" fill="rgb(149,103,225)" stroke="rgb(119,82,180)" stroke-width="1" opacity="0.75" />
			</g>
		</g>
		<g>
			<title> (HLOLAOLD_00617)
hypothetical protein</title>
			<polygon class=" (HLOLAOLD_00617)
hypothetical protein" points="143,10 157,40 143,70" fill="rgb(255,255,255)" fill-opacity="1.0" stroke="rgb(0,0,0)" stroke-width="2"  />
			<g>
				<title>YwpF (PF14183)
"YwpF-like protein"</title>
				<polygon class="PF14183" points="143,28 148,28 153,40 148,52 143,52" stroke-linejoin="round" width="13" height="24" fill="rgb(199,178,73)" stroke="rgb(159,142,58)" stroke-width="1" opacity="0.75" />
			</g>
		</g>
		<g>
			<title>ktrB_1 (HLOLAOLD_00618)
Ktr system potassium uptake protein B</title>
			<polygon class="ktrB_1 (HLOLAOLD_00618)
Ktr system potassium uptake protein B" points="163,25 178,25 178,10 208,40 178,70 178,55 163,55" fill="rgb(255,255,255)" fill-opacity="1.0" stroke="rgb(0,0,0)" stroke-width="2"  />
			<g>
				<title>TrkH (PF02386)
"Cation transport protein"</title>
				<polygon class="PF02386" points="163,28 192,28 204,40 192,52 163,52" stroke-linejoin="round" width="43" height="24" fill="rgb(67,179,142)" stroke="rgb(53,143,113)" stroke-width="1" opacity="0.75" />
			</g>
		</g>
		<g>
			<title> (HLOLAOLD_00619)
hypothetical protein</title>
			<polygon class=" (HLOLAOLD_00619)
hypothetical protein" points="219,40 223,10 223,70" fill="rgb(255,255,255)" fill-opacity="1.0" stroke="rgb(0,0,0)" stroke-width="2"  />
			<g>
				<title>YjcZ_2 (PF09680)
"Family of unknown function"</title>
				<polygon class="PF09680" points="222,40 221,47 221,33" stroke-linejoin="round" width="2" height="24" fill="rgb(79,203,107)" stroke="rgb(63,162,85)" stroke-width="1" opacity="0.75" />
			</g>
		</g>
		<g>
			<title> (HLOLAOLD_00620)
hypothetical protein</title>
			<polygon class=" (HLOLAOLD_00620)
hypothetical protein" points="226,40 232,10 232,70" fill="rgb(255,255,255)" fill-opacity="1.0" stroke="rgb(0,0,0)" stroke-width="2"  />
		</g>
		<g>
			<title>crtN_1 (HLOLAOLD_00621)
4,4'-diapophytoene desaturase (4,4'-diapolycopene-forming)</title>
			<polygon class="crtN_1 (HLOLAOLD_00621)
4,4'-diapophytoene desaturase (4,4'-diapolycopene-forming)" points="242,25 261,25 261,10 291,40 261,70 261,55 242,55" fill="rgb(255,255,255)" fill-opacity="1.0" stroke="rgb(0,0,0)" stroke-width="2"  />
			<g>
				<title>Amino_oxidase (PF01593)
"Flavin containing amine oxidoreductase"</title>
				<polygon class="PF01593" points="243,28 275,28 287,40 275,52 243,52" stroke-linejoin="round" width="47" height="24" fill="rgb(184,74,52)" stroke="rgb(147,59,41)" stroke-width="1" opacity="0.75" />
			</g>
		</g>
		<g>
			<title>crtNc (HLOLAOLD_00622)
4,4'-diapolycopen-4-al dehydrogenase</title>
			<polygon class="crtNc (HLOLAOLD_00622)
4,4'-diapolycopen-4-al dehydrogenase" points="291,25 310,25 310,10 340,40 310,70 310,55 291,55" fill="rgb(255,255,255)" fill-opacity="1.0" stroke="rgb(0,0,0)" stroke-width="2"  />
			<g>
				<title>Amino_oxidase (PF01593)
"Flavin containing amine oxidoreductase"</title>
				<polygon class="PF01593" points="292,28 323,28 335,40 323,52 292,52" stroke-linejoin="round" width="46" height="24" fill="rgb(184,74,52)" stroke="rgb(147,59,41)" stroke-width="1" opacity="0.75" />
			</g>
		</g>
		<g>
			<title>crtB (HLOLAOLD_00623)
15-cis-phytoene synthase</title>
			<polygon class="crtB (HLOLAOLD_00623)
15-cis-phytoene synthase" points="340,10 367,40 340,70" fill="rgb(255,255,255)" fill-opacity="1.0" stroke="rgb(0,0,0)" stroke-width="2"  />
			<g>
				<title>SQS_PSY (PF00494)
"Squalene/phytoene synthase"</title>
				<polygon class="PF00494" points="341,28 352,28 363,40 352,52 341,52" stroke-linejoin="round" width="25" height="24" fill="rgb(178,91,49)" stroke="rgb(142,72,39)" stroke-width="1" opacity="0.75" />
			</g>
		</g>
		<g>
			<title> (HLOLAOLD_00624)
hypothetical protein</title>
			<polygon class=" (HLOLAOLD_00624)
hypothetical protein" points="370,10 383,40 370,70" fill="rgb(255,255,255)" fill-opacity="1.0" stroke="rgb(0,0,0)" stroke-width="2"  />
		</g>
		<g>
			<title> (HLOLAOLD_00625)
hypothetical protein</title>
			<polygon class=" (HLOLAOLD_00625)
hypothetical protein" points="386,10 394,40 386,70" fill="rgb(255,255,255)" fill-opacity="1.0" stroke="rgb(0,0,0)" stroke-width="2"  />
		</g>
		<g>
			<title> (HLOLAOLD_00626)
hypothetical protein</title>
			<polygon class=" (HLOLAOLD_00626)
hypothetical protein" points="398,10 402,40 398,70" fill="rgb(255,255,255)" fill-opacity="1.0" stroke="rgb(0,0,0)" stroke-width="2"  />
		</g>
		<g>
			<title>tadA_1 (HLOLAOLD_00627)
tRNA-specific adenosine deaminase</title>
			<polygon class="tadA_1 (HLOLAOLD_00627)
tRNA-specific adenosine deaminase" points="406,10 420,40 406,70" fill="rgb(255,255,255)" fill-opacity="1.0" stroke="rgb(0,0,0)" stroke-width="2"  />
			<g>
				<title>dCMP_cyt_deam_1 (PF00383)
"Cytidine and deoxycytidylate deaminase zinc-binding region"</title>
				<polygon class="PF00383" points="406,28 411,28 416,38 416,42 411,52 406,52" stroke-linejoin="round" width="10" height="24" fill="rgb(91,149,216)" stroke="rgb(72,119,172)" stroke-width="1" opacity="0.75" />
			</g>
		</g>
		<g>
			<title>dppA (HLOLAOLD_00628)
D-aminopeptidase</title>
			<polygon class="dppA (HLOLAOLD_00628)
D-aminopeptidase" points="427,10 454,40 427,70" fill="rgb(255,255,255)" fill-opacity="1.0" stroke="rgb(0,0,0)" stroke-width="2"  />
			<g>
				<title>Peptidase_M55 (PF04951)
"D-aminopeptidase"</title>
				<polygon class="PF04951" points="427,28 438,28 450,40 438,52 427,52" stroke-linejoin="round" width="26" height="24" fill="rgb(94,138,195)" stroke="rgb(75,110,156)" stroke-width="1" opacity="0.75" />
			</g>
		</g>
		<g>
			<title>dppB_2 (HLOLAOLD_00629)
Dipeptide transport system permease protein DppB</title>
			<polygon class="dppB_2 (HLOLAOLD_00629)
Dipeptide transport system permease protein DppB" points="455,25 456,25 456,10 486,40 456,70 456,55 455,55" fill="rgb(255,255,255)" fill-opacity="1.0" stroke="rgb(0,0,0)" stroke-width="2"  />
			<g>
				<title>BPD_transp_1 (PF00528)
"Binding-protein-dependent transport system inner membrane component"</title>
				<polygon class="PF00528" points="466,28 469,28 481,40 469,52 466,52" stroke-linejoin="round" width="19" height="24" fill="rgb(77,208,225)" stroke="rgb(61,166,180)" stroke-width="1" opacity="0.75" />
			</g>
		</g>
		<g>
			<title>dppC (HLOLAOLD_00630)
Dipeptide transport system permease protein DppC</title>
			<polygon class="dppC (HLOLAOLD_00630)
Dipeptide transport system permease protein DppC" points="486,25 487,25 487,10 517,40 487,70 487,55 486,55" fill="rgb(255,255,255)" fill-opacity="1.0" stroke="rgb(0,0,0)" stroke-width="2"  />
			<g>
				<title>OppC_N (PF12911)
"N-terminal TM domain of oligopeptide transport permease C"</title>
				<rect class="PF12911" x="490" y="28" stroke-linejoin="round" width="5" height="24" fill="rgb(167,178,88)" stroke="rgb(133,142,70)" stroke-width="1" opacity="0.75" />
			</g>
			<g>
				<title>BPD_transp_1 (PF00528)
"Binding-protein-dependent transport system inner membrane component"</title>
				<polygon class="PF00528" points="499,28 501,28 513,40 501,52 499,52" stroke-linejoin="round" width="18" height="24" fill="rgb(77,208,225)" stroke="rgb(61,166,180)" stroke-width="1" opacity="0.75" />
			</g>
		</g>
		<g>
			<title>oppD_2 (HLOLAOLD_00631)
Oligopeptide transport ATP-binding protein OppD</title>
			<polygon class="oppD_2 (HLOLAOLD_00631)
Oligopeptide transport ATP-binding protein OppD" points="518,25 521,25 521,10 551,40 521,70 521,55 518,55" fill="rgb(255,255,255)" fill-opacity="1.0" stroke="rgb(0,0,0)" stroke-width="2"  />
			<g>
				<title>ABC_tran (PF00005)
"ABC transporter"</title>
				<polygon class="PF00005" points="520,28 535,28 536,29 536,51 535,52 520,52" stroke-linejoin="round" width="16" height="24" fill="rgb(129,201,63)" stroke="rgb(103,160,50)" stroke-width="1" opacity="0.75" />
			</g>
			<g>
				<title>oligo_HPY (PF08352)
"Oligopeptide/dipeptide transporter, C-terminal region"</title>
				<polygon class="PF08352" points="541,34 547,40 547,40 541,46" stroke-linejoin="round" width="6" height="24" fill="rgb(90,183,173)" stroke="rgb(72,146,138)" stroke-width="1" opacity="0.75" />
			</g>
		</g>
		<g>
			<title>dppE_2 (HLOLAOLD_00632)
Dipeptide-binding protein DppE</title>
			<polygon class="dppE_2 (HLOLAOLD_00632)
Dipeptide-binding protein DppE" points="553,25 577,25 577,10 607,40 577,70 577,55 553,55" fill="rgb(255,255,255)" fill-opacity="1.0" stroke="rgb(0,0,0)" stroke-width="2"  />
			<g>
				<title>SBP_bac_5 (PF00496)
"Bacterial extracellular solute-binding proteins, family 5 Middle"</title>
				<polygon class="PF00496" points="561,28 590,28 599,37 599,43 590,52 561,52" stroke-linejoin="round" width="38" height="24" fill="rgb(199,94,116)" stroke="rgb(159,75,92)" stroke-width="1" opacity="0.75" />
			</g>
		</g>
		<g>
			<title>ykfA (HLOLAOLD_00633)
putative murein peptide carboxypeptidase</title>
			<polygon class="ykfA (HLOLAOLD_00633)
putative murein peptide carboxypeptidase" points="609,25 609,25 609,10 639,40 609,70 609,55 609,55" fill="rgb(255,255,255)" fill-opacity="1.0" stroke="rgb(0,0,0)" stroke-width="2"  />
			<g>
				<title>Peptidase_S66 (PF02016)
"LD-carboxypeptidase N-terminal domain"</title>
				<rect class="PF02016" x="610" y="28" stroke-linejoin="round" width="11" height="24" fill="rgb(187,63,139)" stroke="rgb(149,50,111)" stroke-width="1" opacity="0.75" />
			</g>
			<g>
				<title>Peptidase_S66C (PF17676)
"LD-carboxypeptidase C-terminal domain"</title>
				<polygon class="PF17676" points="626,31 635,40 626,49" stroke-linejoin="round" width="11" height="24" fill="rgb(72,81,192)" stroke="rgb(57,64,153)" stroke-width="1" opacity="0.75" />
			</g>
		</g>
		<g>
			<title>ykfB (HLOLAOLD_00634)
L-Ala-D/L-Glu epimerase</title>
			<polygon class="ykfB (HLOLAOLD_00634)
L-Ala-D/L-Glu epimerase" points="640,25 646,25 646,10 676,40 646,70 646,55 640,55" fill="rgb(255,255,255)" fill-opacity="1.0" stroke="rgb(0,0,0)" stroke-width="2"  />
			<g>
				<title>MR_MLE_N (PF02746)
"Mandelate racemase / muconate lactonizing enzyme, N-terminal domain"</title>
				<rect class="PF02746" x="640" y="28" stroke-linejoin="round" width="12" height="24" fill="rgb(63,73,226)" stroke="rgb(50,58,180)" stroke-width="1" opacity="0.75" />
			</g>
			<g>
				<title>MR_MLE_C (PF13378)
"Enolase C-terminal domain-like"</title>
				<polygon class="PF13378" points="654,28 660,28 672,40 660,52 654,52" stroke-linejoin="round" width="21" height="24" fill="rgb(191,184,94)" stroke="rgb(152,147,75)" stroke-width="1" opacity="0.75" />
			</g>
		</g>
	</g>
</svg>
