<svg version="1.1" baseProfile="full" xmlns="http://www.w3.org/2000/svg" width="714.5666666666667" height="80">
	<g>
		<line x1="10" y1="40.0" x2="704.5666666666667" y2="40.0" style="stroke:rgb(70,70,70); stroke-width:3 "/>
		<g>
			<title> (FCOBMIEG_00892)
hypothetical protein</title>
			<polygon class=" (FCOBMIEG_00892)
hypothetical protein" points="15,40 19,10 19,70" fill="rgb(255,255,255)" fill-opacity="1.0" stroke="rgb(0,0,0)" stroke-width="2"  />
			<g>
				<title>Fur_reg_FbpB (PF13040)
"Fur-regulated basic protein B"</title>
				<polygon class="PF13040" points="18,40 19,34 19,46" stroke-linejoin="round" width="3" height="24" fill="rgb(190,83,63)" stroke="rgb(152,66,50)" stroke-width="1" opacity="0.75" />
			</g>
		</g>
		<g>
			<title>dapX_1 (FCOBMIEG_00893)
putative N-acetyl-LL-diaminopimelate aminotransferase</title>
			<polygon class="dapX_1 (FCOBMIEG_00893)
putative N-acetyl-LL-diaminopimelate aminotransferase" points="24,25 32,25 32,10 62,40 32,70 32,55 24,55" fill="rgb(255,255,255)" fill-opacity="1.0" stroke="rgb(0,0,0)" stroke-width="2"  />
			<g>
				<title>Aminotran_1_2 (PF00155)
"Aminotransferase class I and II"</title>
				<polygon class="PF00155" points="26,28 46,28 58,40 46,52 26,52" stroke-linejoin="round" width="34" height="24" fill="rgb(89,113,198)" stroke="rgb(71,90,158)" stroke-width="1" opacity="0.75" />
			</g>
		</g>
		<g>
			<title>sipT (FCOBMIEG_00894)
Signal peptidase I T</title>
			<polygon class="sipT (FCOBMIEG_00894)
Signal peptidase I T" points="66,10 83,40 66,70" fill="rgb(255,255,255)" fill-opacity="1.0" stroke="rgb(0,0,0)" stroke-width="2"  />
			<g>
				<title>Peptidase_S24 (PF00717)
"Peptidase S24-like"</title>
				<polygon class="PF00717" points="69,28 72,28 76,34 76,46 72,52 69,52" stroke-linejoin="round" width="7" height="24" fill="rgb(180,76,105)" stroke="rgb(144,60,83)" stroke-width="1" opacity="0.75" />
			</g>
		</g>
		<g>
			<title> (FCOBMIEG_00895)
hypothetical protein</title>
			<polygon class=" (FCOBMIEG_00895)
hypothetical protein" points="91,40 98,10 98,70" fill="rgb(255,255,255)" fill-opacity="1.0" stroke="rgb(0,0,0)" stroke-width="2"  />
			<g>
				<title>DUF2922 (PF11148)
"Protein of unknown function (DUF2922)"</title>
				<polygon class="PF11148" points="94,40 97,28 97,28 97,52 97,52" stroke-linejoin="round" width="6" height="24" fill="rgb(196,220,80)" stroke="rgb(156,176,64)" stroke-width="1" opacity="0.75" />
			</g>
		</g>
		<g>
			<title> (FCOBMIEG_00896)
hypothetical protein</title>
			<polygon class=" (FCOBMIEG_00896)
hypothetical protein" points="99,40 106,10 106,70" fill="rgb(255,255,255)" fill-opacity="1.0" stroke="rgb(0,0,0)" stroke-width="2"  />
			<g>
				<title>DUF1659 (PF07872)
"Protein of unknown function (DUF1659)"</title>
				<polygon class="PF07872" points="102,40 105,28 105,28 105,52 105,52" stroke-linejoin="round" width="4" height="24" fill="rgb(172,48,195)" stroke="rgb(137,38,156)" stroke-width="1" opacity="0.75" />
			</g>
		</g>
		<g>
			<title> (FCOBMIEG_00897)
hypothetical protein</title>
			<polygon class=" (FCOBMIEG_00897)
hypothetical protein" points="131,10 147,40 131,70" fill="rgb(255,255,255)" fill-opacity="1.0" stroke="rgb(0,0,0)" stroke-width="2"  />
			<g>
				<title>DoxX (PF07681)
"DoxX"</title>
				<polygon class="PF07681" points="132,28 137,28 142,37 142,43 137,52 132,52" stroke-linejoin="round" width="10" height="24" fill="rgb(93,188,216)" stroke="rgb(74,150,172)" stroke-width="1" opacity="0.75" />
			</g>
		</g>
		<g>
			<title> (FCOBMIEG_00898)
hypothetical protein</title>
			<polygon class=" (FCOBMIEG_00898)
hypothetical protein" points="204,25 187,25 187,10 157,40 187,70 187,55 204,55" fill="rgb(255,255,255)" fill-opacity="1.0" stroke="rgb(0,0,0)" stroke-width="2"  />
			<g>
				<title>GGDEF (PF00990)
"Diguanylate cyclase, GGDEF domain"</title>
				<polygon class="PF00990" points="161,40 164,37 164,43" stroke-linejoin="round" width="7" height="24" fill="rgb(62,170,199)" stroke="rgb(49,135,159)" stroke-width="1" opacity="0.75" />
			</g>
			<g>
				<title>PAS_3 (PF08447)
"PAS fold"</title>
				<polygon class="PF08447" points="166,35 173,28 174,28 174,52 173,52 166,45" stroke-linejoin="round" width="8" height="24" fill="rgb(222,97,193)" stroke="rgb(177,77,154)" stroke-width="1" opacity="0.75" />
			</g>
			<g>
				<title>PAS_9 (PF13426)
"PAS domain"</title>
				<rect class="PF13426" x="178" y="28" stroke-linejoin="round" width="10" height="24" fill="rgb(182,140,74)" stroke="rgb(145,112,59)" stroke-width="1" opacity="0.75" />
			</g>
		</g>
		<g>
			<title> (FCOBMIEG_00899)
hypothetical protein</title>
			<polygon class=" (FCOBMIEG_00899)
hypothetical protein" points="209,10 234,40 209,70" fill="rgb(255,255,255)" fill-opacity="1.0" stroke="rgb(0,0,0)" stroke-width="2"  />
			<g>
				<title>Caroten_synth (PF04240)
"Carotenoid biosynthesis protein"</title>
				<polygon class="PF04240" points="212,28 220,28 230,40 220,52 212,52" stroke-linejoin="round" width="20" height="24" fill="rgb(65,214,190)" stroke="rgb(52,171,152)" stroke-width="1" opacity="0.75" />
			</g>
		</g>
		<g>
			<title> (FCOBMIEG_00900)
hypothetical protein</title>
			<polygon class=" (FCOBMIEG_00900)
hypothetical protein" points="234,10 256,40 234,70" fill="rgb(255,255,255)" fill-opacity="1.0" stroke="rgb(0,0,0)" stroke-width="2"  />
			<g>
				<title>Acyltransferase (PF01553)
"Acyltransferase"</title>
				<polygon class="PF01553" points="236,28 243,28 249,36 249,44 243,52 236,52" stroke-linejoin="round" width="13" height="24" fill="rgb(87,176,216)" stroke="rgb(69,140,172)" stroke-width="1" opacity="0.75" />
			</g>
		</g>
		<g>
			<title> (FCOBMIEG_00901)
hypothetical protein</title>
			<polygon class=" (FCOBMIEG_00901)
hypothetical protein" points="257,25 263,25 263,10 293,40 263,70 263,55 257,55" fill="rgb(255,255,255)" fill-opacity="1.0" stroke="rgb(0,0,0)" stroke-width="2"  />
			<g>
				<title>Glyco_tranf_2_3 (PF13641)
"Glycosyltransferase like family 2"</title>
				<polygon class="PF13641" points="260,28 277,28 283,34 283,46 277,52 260,52" stroke-linejoin="round" width="23" height="24" fill="rgb(140,74,190)" stroke="rgb(111,59,152)" stroke-width="1" opacity="0.75" />
			</g>
		</g>
		<g>
			<title>crtNb_1 (FCOBMIEG_00902)
4,4'-diapolycopene oxygenase</title>
			<polygon class="crtNb_1 (FCOBMIEG_00902)
4,4'-diapolycopene oxygenase" points="293,25 312,25 312,10 342,40 312,70 312,55 293,55" fill="rgb(255,255,255)" fill-opacity="1.0" stroke="rgb(0,0,0)" stroke-width="2"  />
			<g>
				<title>Amino_oxidase (PF01593)
"Flavin containing amine oxidoreductase"</title>
				<polygon class="PF01593" points="294,28 325,28 337,40 325,52 294,52" stroke-linejoin="round" width="47" height="24" fill="rgb(184,74,52)" stroke="rgb(147,59,41)" stroke-width="1" opacity="0.75" />
			</g>
		</g>
		<g>
			<title>yisP (FCOBMIEG_00903)
Putative phytoene/squalene synthase YisP</title>
			<polygon class="yisP (FCOBMIEG_00903)
Putative phytoene/squalene synthase YisP" points="343,40 370,10 370,70" fill="rgb(255,255,255)" fill-opacity="1.0" stroke="rgb(0,0,0)" stroke-width="2"  />
			<g>
				<title>SQS_PSY (PF00494)
"Squalene/phytoene synthase"</title>
				<polygon class="PF00494" points="347,40 358,28 369,28 369,52 358,52" stroke-linejoin="round" width="25" height="24" fill="rgb(178,91,49)" stroke="rgb(142,72,39)" stroke-width="1" opacity="0.75" />
			</g>
		</g>
		<g>
			<title>crtNc (FCOBMIEG_00904)
4,4'-diapolycopen-4-al dehydrogenase</title>
			<polygon class="crtNc (FCOBMIEG_00904)
4,4'-diapolycopen-4-al dehydrogenase" points="420,25 401,25 401,10 371,40 401,70 401,55 420,55" fill="rgb(255,255,255)" fill-opacity="1.0" stroke="rgb(0,0,0)" stroke-width="2"  />
			<g>
				<title>Amino_oxidase (PF01593)
"Flavin containing amine oxidoreductase"</title>
				<polygon class="PF01593" points="375,40 387,28 419,28 419,52 387,52" stroke-linejoin="round" width="46" height="24" fill="rgb(184,74,52)" stroke="rgb(147,59,41)" stroke-width="1" opacity="0.75" />
			</g>
		</g>
		<g>
			<title>crtN_1 (FCOBMIEG_00905)
4,4'-diapophytoene desaturase (4,4'-diapolycopene-forming)</title>
			<polygon class="crtN_1 (FCOBMIEG_00905)
4,4'-diapophytoene desaturase (4,4'-diapolycopene-forming)" points="469,25 450,25 450,10 420,40 450,70 450,55 469,55" fill="rgb(255,255,255)" fill-opacity="1.0" stroke="rgb(0,0,0)" stroke-width="2"  />
			<g>
				<title>Amino_oxidase (PF01593)
"Flavin containing amine oxidoreductase"</title>
				<polygon class="PF01593" points="424,40 436,28 468,28 468,52 436,52" stroke-linejoin="round" width="47" height="24" fill="rgb(184,74,52)" stroke="rgb(147,59,41)" stroke-width="1" opacity="0.75" />
			</g>
		</g>
		<g>
			<title> (FCOBMIEG_00906)
hypothetical protein</title>
			<polygon class=" (FCOBMIEG_00906)
hypothetical protein" points="476,10 482,40 476,70" fill="rgb(255,255,255)" fill-opacity="1.0" stroke="rgb(0,0,0)" stroke-width="2"  />
		</g>
		<g>
			<title> (FCOBMIEG_00907)
hypothetical protein</title>
			<polygon class=" (FCOBMIEG_00907)
hypothetical protein" points="486,10 491,40 486,70" fill="rgb(255,255,255)" fill-opacity="1.0" stroke="rgb(0,0,0)" stroke-width="2"  />
			<g>
				<title>YjcZ_2 (PF09680)
"Family of unknown function"</title>
				<polygon class="PF09680" points="488,40 488,40 488,40" stroke-linejoin="round" width="2" height="24" fill="rgb(79,203,107)" stroke="rgb(63,162,85)" stroke-width="1" opacity="0.75" />
			</g>
		</g>
		<g>
			<title>ktrB_1 (FCOBMIEG_00908)
Ktr system potassium uptake protein B</title>
			<polygon class="ktrB_1 (FCOBMIEG_00908)
Ktr system potassium uptake protein B" points="537,25 522,25 522,10 492,40 522,70 522,55 537,55" fill="rgb(255,255,255)" fill-opacity="1.0" stroke="rgb(0,0,0)" stroke-width="2"  />
			<g>
				<title>TrkH (PF02386)
"Cation transport protein"</title>
				<polygon class="PF02386" points="496,40 508,28 535,28 535,52 508,52" stroke-linejoin="round" width="42" height="24" fill="rgb(67,179,142)" stroke="rgb(53,143,113)" stroke-width="1" opacity="0.75" />
			</g>
		</g>
		<g>
			<title> (FCOBMIEG_00909)
hypothetical protein</title>
			<polygon class=" (FCOBMIEG_00909)
hypothetical protein" points="539,40 553,10 553,70" fill="rgb(255,255,255)" fill-opacity="1.0" stroke="rgb(0,0,0)" stroke-width="2"  />
			<g>
				<title>YwpF (PF14183)
"YwpF-like protein"</title>
				<polygon class="PF14183" points="542,40 548,28 552,28 552,52 548,52" stroke-linejoin="round" width="13" height="24" fill="rgb(199,178,73)" stroke="rgb(159,142,58)" stroke-width="1" opacity="0.75" />
			</g>
		</g>
		<g>
			<title>ktrB_2 (FCOBMIEG_00910)
Ktr system potassium uptake protein B</title>
			<polygon class="ktrB_2 (FCOBMIEG_00910)
Ktr system potassium uptake protein B" points="605,25 590,25 590,10 560,40 590,70 590,55 605,55" fill="rgb(255,255,255)" fill-opacity="1.0" stroke="rgb(0,0,0)" stroke-width="2"  />
			<g>
				<title>TrkH (PF02386)
"Cation transport protein"</title>
				<polygon class="PF02386" points="564,40 576,28 605,28 605,52 576,52" stroke-linejoin="round" width="44" height="24" fill="rgb(67,179,142)" stroke="rgb(53,143,113)" stroke-width="1" opacity="0.75" />
			</g>
		</g>
		<g>
			<title>moaA (FCOBMIEG_00911)
GTP 3',8-cyclase</title>
			<polygon class="moaA (FCOBMIEG_00911)
GTP 3',8-cyclase" points="649,25 646,25 646,10 616,40 646,70 646,55 649,55" fill="rgb(255,255,255)" fill-opacity="1.0" stroke="rgb(0,0,0)" stroke-width="2"  />
			<g>
				<title>Mob_synth_C (PF06463)
"Molybdenum Cofactor Synthesis C"</title>
				<polygon class="PF06463" points="620,40 630,30 630,50" stroke-linejoin="round" width="12" height="24" fill="rgb(149,103,225)" stroke="rgb(119,82,180)" stroke-width="1" opacity="0.75" />
			</g>
			<g>
				<title>Radical_SAM (PF04055)
"Radical SAM superfamily"</title>
				<polygon class="PF04055" points="631,29 632,28 647,28 647,52 632,52 631,51" stroke-linejoin="round" width="16" height="24" fill="rgb(149,56,222)" stroke="rgb(119,44,177)" stroke-width="1" opacity="0.75" />
			</g>
		</g>
		<g>
			<title>moeA (FCOBMIEG_00912)
Molybdopterin molybdenumtransferase</title>
			<polygon class="moeA (FCOBMIEG_00912)
Molybdopterin molybdenumtransferase" points="692,25 680,25 680,10 650,40 680,70 680,55 692,55" fill="rgb(255,255,255)" fill-opacity="1.0" stroke="rgb(0,0,0)" stroke-width="2"  />
			<g>
				<title>MoeA_C (PF03454)
"MoeA C-terminal region (domain IV)"</title>
				<polygon class="PF03454" points="654,40 658,36 658,44" stroke-linejoin="round" width="7" height="24" fill="rgb(59,190,161)" stroke="rgb(47,152,128)" stroke-width="1" opacity="0.75" />
			</g>
			<g>
				<title>MoCF_biosynth (PF00994)
"Probable molybdopterin binding domain"</title>
				<polygon class="PF00994" points="659,35 666,28 672,28 672,52 666,52 659,45" stroke-linejoin="round" width="13" height="24" fill="rgb(75,187,175)" stroke="rgb(60,149,139)" stroke-width="1" opacity="0.75" />
			</g>
			<g>
				<title>MoeA_N (PF03453)
"MoeA N-terminal region (domain I and II)"</title>
				<rect class="PF03453" x="674" y="28" stroke-linejoin="round" width="16" height="24" fill="rgb(93,188,107)" stroke="rgb(74,150,85)" stroke-width="1" opacity="0.75" />
			</g>
		</g>
		<g>
			<title> (FCOBMIEG_00913)
hypothetical protein</title>
			<polygon class=" (FCOBMIEG_00913)
hypothetical protein" points="696,40 700,10 700,70" fill="rgb(255,255,255)" fill-opacity="1.0" stroke="rgb(0,0,0)" stroke-width="2"  />
		</g>
	</g>
</svg>
