<svg version="1.1" baseProfile="full" xmlns="http://www.w3.org/2000/svg" width="556.1" height="80">
	<g>
		<line x1="10" y1="40.0" x2="546.1" y2="40.0" style="stroke:rgb(70,70,70); stroke-width:3 "/>
		<g>
			<title>ppdK_2 (LMCNIFEI_00772)
Pyruvate, phosphate dikinase</title>
			<polygon class="ppdK_2 (LMCNIFEI_00772)
Pyruvate, phosphate dikinase" points="29,25 88,25 88,10 118,40 88,70 88,55 29,55" fill="rgb(255,255,255)" fill-opacity="1.0" stroke="rgb(0,0,0)" stroke-width="2"  />
			<g>
				<title>PPDK_N (PF01326)
"Pyruvate phosphate dikinase, PEP/pyruvate binding domain"</title>
				<rect class="PF01326" x="30" y="28" stroke-linejoin="round" width="28" height="24" fill="rgb(112,180,78)" stroke="rgb(89,144,62)" stroke-width="1" opacity="0.75" />
			</g>
			<g>
				<title>PEP-utilizers (PF00391)
"PEP-utilising enzyme, mobile domain"</title>
				<rect class="PF00391" x="70" y="28" stroke-linejoin="round" width="8" height="24" fill="rgb(206,59,219)" stroke="rgb(164,47,175)" stroke-width="1" opacity="0.75" />
			</g>
			<g>
				<title>PEP-utilizers_C (PF02896)
"PEP-utilising enzyme, TIM barrel domain"</title>
				<polygon class="PF02896" points="80,28 101,28 113,40 101,52 80,52" stroke-linejoin="round" width="36" height="24" fill="rgb(65,113,188)" stroke="rgb(52,90,150)" stroke-width="1" opacity="0.75" />
			</g>
		</g>
		<g>
			<title> (LMCNIFEI_00773)
hypothetical protein</title>
			<polygon class=" (LMCNIFEI_00773)
hypothetical protein" points="158,25 154,25 154,10 124,40 154,70 154,55 158,55" fill="rgb(255,255,255)" fill-opacity="1.0" stroke="rgb(0,0,0)" stroke-width="2"  />
			<g>
				<title>Amidase_3 (PF01520)
"N-acetylmuramoyl-L-alanine amidase"</title>
				<polygon class="PF01520" points="128,40 140,28 140,28 140,52 140,52" stroke-linejoin="round" width="16" height="24" fill="rgb(174,223,57)" stroke="rgb(139,178,45)" stroke-width="1" opacity="0.75" />
			</g>
			<g>
				<title>SH3_3 (PF08239)
"Bacterial SH3 domain"</title>
				<rect class="PF08239" x="149" y="28" stroke-linejoin="round" width="5" height="24" fill="rgb(109,88,194)" stroke="rgb(87,70,155)" stroke-width="1" opacity="0.75" />
			</g>
		</g>
		<g>
			<title>iucC (LMCNIFEI_00774)
Aerobactin synthase</title>
			<polygon class="iucC (LMCNIFEI_00774)
Aerobactin synthase" points="236,25 206,25 206,10 176,40 206,70 206,55 236,55" fill="rgb(255,255,255)" fill-opacity="1.0" stroke="rgb(0,0,0)" stroke-width="2"  />
			<g>
				<title>FhuF (PF06276)
"Ferric iron reductase FhuF-like transporter"</title>
				<polygon class="PF06276" points="180,40 192,28 194,28 194,52 192,52" stroke-linejoin="round" width="16" height="24" fill="rgb(76,151,221)" stroke="rgb(60,120,176)" stroke-width="1" opacity="0.75" />
			</g>
			<g>
				<title>IucA_IucC (PF04183)
"IucA / IucC family"</title>
				<rect class="PF04183" x="197" y="28" stroke-linejoin="round" width="25" height="24" fill="rgb(221,104,121)" stroke="rgb(176,83,96)" stroke-width="1" opacity="0.75" />
			</g>
		</g>
		<g>
			<title>iucD_2 (LMCNIFEI_00775)
L-lysine N6-monooxygenase</title>
			<polygon class="iucD_2 (LMCNIFEI_00775)
L-lysine N6-monooxygenase" points="301,25 287,25 287,10 257,40 287,70 287,55 301,55" fill="rgb(255,255,255)" fill-opacity="1.0" stroke="rgb(0,0,0)" stroke-width="2"  />
			<g>
				<title>K_oxygenase (PF13434)
"L-lysine 6-monooxygenase (NADPH-requiring)"</title>
				<polygon class="PF13434" points="266,35 273,28 300,28 300,52 273,52 266,45" stroke-linejoin="round" width="34" height="24" fill="rgb(81,213,119)" stroke="rgb(64,170,95)" stroke-width="1" opacity="0.75" />
			</g>
		</g>
		<g>
			<title>iucB (LMCNIFEI_00776)
N(6)-hydroxylysine O-acetyltransferase</title>
			<polygon class="iucB (LMCNIFEI_00776)
N(6)-hydroxylysine O-acetyltransferase" points="301,40 320,10 320,70" fill="rgb(255,255,255)" fill-opacity="1.0" stroke="rgb(0,0,0)" stroke-width="2"  />
			<g>
				<title>Acetyltransf_8 (PF13523)
"Acetyltransferase (GNAT) domain"</title>
				<polygon class="PF13523" points="305,40 313,28 317,28 317,52 313,52" stroke-linejoin="round" width="14" height="24" fill="rgb(106,224,203)" stroke="rgb(84,179,162)" stroke-width="1" opacity="0.75" />
			</g>
		</g>
		<g>
			<title>iucA (LMCNIFEI_00777)
N(2)-citryl-N(6)-acetyl-N(6)-hydroxylysine synthase</title>
			<polygon class="iucA (LMCNIFEI_00777)
N(2)-citryl-N(6)-acetyl-N(6)-hydroxylysine synthase" points="378,25 350,25 350,10 320,40 350,70 350,55 378,55" fill="rgb(255,255,255)" fill-opacity="1.0" stroke="rgb(0,0,0)" stroke-width="2"  />
			<g>
				<title>FhuF (PF06276)
"Ferric iron reductase FhuF-like transporter"</title>
				<polygon class="PF06276" points="324,40 336,28 337,28 337,52 336,52" stroke-linejoin="round" width="15" height="24" fill="rgb(76,151,221)" stroke="rgb(60,120,176)" stroke-width="1" opacity="0.75" />
			</g>
			<g>
				<title>IucA_IucC (PF04183)
"IucA / IucC family"</title>
				<rect class="PF04183" x="341" y="28" stroke-linejoin="round" width="23" height="24" fill="rgb(221,104,121)" stroke="rgb(176,83,96)" stroke-width="1" opacity="0.75" />
			</g>
		</g>
		<g>
			<title>ddc (LMCNIFEI_00778)
L-2,4-diaminobutyrate decarboxylase</title>
			<polygon class="ddc (LMCNIFEI_00778)
L-2,4-diaminobutyrate decarboxylase" points="429,25 409,25 409,10 379,40 409,70 409,55 429,55" fill="rgb(255,255,255)" fill-opacity="1.0" stroke="rgb(0,0,0)" stroke-width="2"  />
			<g>
				<title>Pyridoxal_deC (PF00282)
"Pyridoxal-dependent decarboxylase conserved domain"</title>
				<polygon class="PF00282" points="386,37 395,28 423,28 423,52 395,52 386,43" stroke-linejoin="round" width="37" height="24" fill="rgb(100,218,166)" stroke="rgb(80,174,132)" stroke-width="1" opacity="0.75" />
			</g>
		</g>
		<g>
			<title>dat_2 (LMCNIFEI_00779)
Diaminobutyrate--2-oxoglutarate aminotransferase</title>
			<polygon class="dat_2 (LMCNIFEI_00779)
Diaminobutyrate--2-oxoglutarate aminotransferase" points="474,25 459,25 459,10 429,40 459,70 459,55 474,55" fill="rgb(255,255,255)" fill-opacity="1.0" stroke="rgb(0,0,0)" stroke-width="2"  />
			<g>
				<title>Aminotran_3 (PF00202)
"Aminotransferase class-III"</title>
				<polygon class="PF00202" points="433,40 445,28 471,28 471,52 445,52" stroke-linejoin="round" width="42" height="24" fill="rgb(49,163,189)" stroke="rgb(39,130,151)" stroke-width="1" opacity="0.75" />
			</g>
		</g>
		<g>
			<title>nlhH (LMCNIFEI_00780)
Carboxylesterase NlhH</title>
			<polygon class="nlhH (LMCNIFEI_00780)
Carboxylesterase NlhH" points="517,25 515,25 515,10 485,40 515,70 515,55 517,55" fill="rgb(255,255,255)" fill-opacity="1.0" stroke="rgb(0,0,0)" stroke-width="2"  />
			<g>
				<title>Abhydrolase_3 (PF07859)
"alpha/beta hydrolase fold"</title>
				<polygon class="PF07859" points="489,40 501,28 507,28 507,52 501,52" stroke-linejoin="round" width="20" height="24" fill="rgb(183,51,179)" stroke="rgb(146,40,143)" stroke-width="1" opacity="0.75" />
			</g>
		</g>
		<g>
			<title> (LMCNIFEI_00781)
hypothetical protein</title>
			<polygon class=" (LMCNIFEI_00781)
hypothetical protein" points="517,40 538,10 538,70" fill="rgb(255,255,255)" fill-opacity="1.0" stroke="rgb(0,0,0)" stroke-width="2"  />
			<g>
				<title>Acetyltransf_8 (PF13523)
"Acetyltransferase (GNAT) domain"</title>
				<polygon class="PF13523" points="521,40 529,28 535,28 535,52 529,52 521,40" stroke-linejoin="round" width="14" height="24" fill="rgb(106,224,203)" stroke="rgb(84,179,162)" stroke-width="1" opacity="0.75" />
			</g>
		</g>
	</g>
</svg>
