<svg version="1.1" baseProfile="full" xmlns="http://www.w3.org/2000/svg" width="366.23333333333335" height="80">
	<g>
		<line x1="10" y1="40.0" x2="356.23333333333335" y2="40.0" style="stroke:rgb(70,70,70); stroke-width:3 "/>
		<g>
			<title> (LECGHDDD_01360)
hypothetical protein</title>
			<polygon class=" (LECGHDDD_01360)
hypothetical protein" points="49,10 59,40 49,70" fill="rgb(255,255,255)" fill-opacity="1.0" stroke="rgb(0,0,0)" stroke-width="2"  />
		</g>
		<g>
			<title> (LECGHDDD_01361)
hypothetical protein</title>
			<polygon class=" (LECGHDDD_01361)
hypothetical protein" points="60,40 78,10 78,70" fill="rgb(255,255,255)" fill-opacity="1.0" stroke="rgb(0,0,0)" stroke-width="2"  />
		</g>
		<g>
			<title> (LECGHDDD_01362)
hypothetical protein</title>
			<polygon class=" (LECGHDDD_01362)
hypothetical protein" points="109,25 109,25 109,10 79,40 109,70 109,55 109,55" fill="rgb(255,255,255)" fill-opacity="1.0" stroke="rgb(0,0,0)" stroke-width="2"  />
		</g>
		<g>
			<title> (LECGHDDD_01363)
hypothetical protein</title>
			<polygon class=" (LECGHDDD_01363)
hypothetical protein" points="115,10 125,40 115,70" fill="rgb(255,255,255)" fill-opacity="1.0" stroke="rgb(0,0,0)" stroke-width="2"  />
		</g>
		<g>
			<title> (LECGHDDD_01364)
hypothetical protein</title>
			<polygon class=" (LECGHDDD_01364)
hypothetical protein" points="138,40 153,10 153,70" fill="rgb(255,255,255)" fill-opacity="1.0" stroke="rgb(0,0,0)" stroke-width="2"  />
		</g>
		<g>
			<title> (LECGHDDD_01365)
hypothetical protein</title>
			<polygon class=" (LECGHDDD_01365)
hypothetical protein" points="154,40 161,10 161,70" fill="rgb(255,255,255)" fill-opacity="1.0" stroke="rgb(0,0,0)" stroke-width="2"  />
		</g>
		<g>
			<title> (LECGHDDD_01366)
hypothetical protein</title>
			<polygon class=" (LECGHDDD_01366)
hypothetical protein" points="165,40 173,10 173,70" fill="rgb(255,255,255)" fill-opacity="1.0" stroke="rgb(0,0,0)" stroke-width="2"  />
		</g>
		<g>
			<title>ectC (LECGHDDD_01367)
L-ectoine synthase</title>
			<polygon class="ectC (LECGHDDD_01367)
L-ectoine synthase" points="176,40 188,10 188,70" fill="rgb(255,255,255)" fill-opacity="1.0" stroke="rgb(0,0,0)" stroke-width="2"  />
			<g>
				<title>Ectoine_synth (PF06339)
"Ectoine synthase"</title>
				<polygon class="PF06339" points="179,40 184,28 188,28 188,52 184,52" stroke-linejoin="round" width="12" height="24" fill="rgb(225,176,81)" stroke="rgb(180,140,64)" stroke-width="1" opacity="0.75" />
			</g>
		</g>
		<g>
			<title> (LECGHDDD_01368)
hypothetical protein</title>
			<polygon class=" (LECGHDDD_01368)
hypothetical protein" points="195,10 218,40 195,70" fill="rgb(255,255,255)" fill-opacity="1.0" stroke="rgb(0,0,0)" stroke-width="2"  />
			<g>
				<title>Toast_rack_N (PF17115)
"N-terminal domain of toast_rack, DUF2154"</title>
				<polygon class="PF17115" points="198,28 205,28 206,30 206,50 205,52 198,52" stroke-linejoin="round" width="8" height="24" fill="rgb(194,78,58)" stroke="rgb(155,62,46)" stroke-width="1" opacity="0.75" />
			</g>
			<g>
				<title>DUF2154 (PF09922)
"Cell wall-active antibiotics response 4TMS YvqF"</title>
				<polygon class="PF09922" points="207,31 214,40 207,49" stroke-linejoin="round" width="10" height="24" fill="rgb(190,73,196)" stroke="rgb(152,58,156)" stroke-width="1" opacity="0.75" />
			</g>
		</g>
		<g>
			<title> (LECGHDDD_01369)
hypothetical protein</title>
			<polygon class=" (LECGHDDD_01369)
hypothetical protein" points="222,40 249,10 249,70" fill="rgb(255,255,255)" fill-opacity="1.0" stroke="rgb(0,0,0)" stroke-width="2"  />
			<g>
				<title>GGDEF (PF00990)
"Diguanylate cyclase, GGDEF domain"</title>
				<polygon class="PF00990" points="226,40 237,28 237,28 237,52 237,52" stroke-linejoin="round" width="15" height="24" fill="rgb(62,170,199)" stroke="rgb(49,135,159)" stroke-width="1" opacity="0.75" />
			</g>
		</g>
		<g>
			<title>bdlA (LECGHDDD_01370)
Biofilm dispersion protein BdlA</title>
			<polygon class="bdlA (LECGHDDD_01370)
Biofilm dispersion protein BdlA" points="284,25 284,25 284,10 254,40 284,70 284,55 284,55" fill="rgb(255,255,255)" fill-opacity="1.0" stroke="rgb(0,0,0)" stroke-width="2"  />
			<g>
				<title>MCPsignal (PF00015)
"Methyl-accepting chemotaxis protein (MCP) signalling domain"</title>
				<polygon class="PF00015" points="258,40 270,28 270,28 270,52 270,52" stroke-linejoin="round" width="16" height="24" fill="rgb(104,174,223)" stroke="rgb(83,139,178)" stroke-width="1" opacity="0.75" />
			</g>
			<g>
				<title>PAS_4 (PF08448)
"PAS fold"</title>
				<rect class="PF08448" x="271" y="28" stroke-linejoin="round" width="11" height="24" fill="rgb(50,90,192)" stroke="rgb(40,71,153)" stroke-width="1" opacity="0.75" />
			</g>
		</g>
		<g>
			<title> (LECGHDDD_01371)
hypothetical protein</title>
			<polygon class=" (LECGHDDD_01371)
hypothetical protein" points="289,40 304,10 304,70" fill="rgb(255,255,255)" fill-opacity="1.0" stroke="rgb(0,0,0)" stroke-width="2"  />
			<g>
				<title>Acetyltransf_1 (PF00583)
"Acetyltransferase (GNAT) family"</title>
				<polygon class="PF00583" points="292,40 298,28 303,28 303,52 298,52" stroke-linejoin="round" width="12" height="24" fill="rgb(121,183,50)" stroke="rgb(96,146,39)" stroke-width="1" opacity="0.75" />
			</g>
		</g>
		<g>
			<title> (LECGHDDD_01372)
hypothetical protein</title>
			<polygon class=" (LECGHDDD_01372)
hypothetical protein" points="305,40 313,10 313,70" fill="rgb(255,255,255)" fill-opacity="1.0" stroke="rgb(0,0,0)" stroke-width="2"  />
		</g>
	</g>
</svg>
