<svg version="1.1" baseProfile="full" xmlns="http://www.w3.org/2000/svg" width="366.53333333333336" height="80">
	<g>
		<line x1="10" y1="40.0" x2="356.53333333333336" y2="40.0" style="stroke:rgb(70,70,70); stroke-width:3 "/>
		<g>
			<title> (APKJPGIF_03476)
26 kDa periplasmic immunogenic protein</title>
			<polygon class=" (APKJPGIF_03476)
26 kDa periplasmic immunogenic protein" points="51,10 73,40 51,70" fill="rgb(255,255,255)" fill-opacity="1.0" stroke="rgb(0,0,0)" stroke-width="2"  />
			<g>
				<title>SIMPL (PF04402)
"Protein of unknown function (DUF541)"</title>
				<polygon class="PF04402" points="52,28 60,28 69,40 60,52 52,52" stroke-linejoin="round" width="19" height="24" fill="rgb(88,209,165)" stroke="rgb(70,167,132)" stroke-width="1" opacity="0.75" />
			</g>
		</g>
		<g>
			<title>zupT_2 (APKJPGIF_03477)
Zinc transporter ZupT</title>
			<polygon class="zupT_2 (APKJPGIF_03477)
Zinc transporter ZupT" points="81,10 107,40 81,70" fill="rgb(255,255,255)" fill-opacity="1.0" stroke="rgb(0,0,0)" stroke-width="2"  />
			<g>
				<title>Zip (PF02535)
"ZIP Zinc transporter"</title>
				<polygon class="PF02535" points="90,28 92,28 103,40 92,52 90,52" stroke-linejoin="round" width="16" height="24" fill="rgb(217,215,73)" stroke="rgb(173,172,58)" stroke-width="1" opacity="0.75" />
			</g>
		</g>
		<g>
			<title> (APKJPGIF_03478)
hypothetical protein</title>
			<polygon class=" (APKJPGIF_03478)
hypothetical protein" points="121,10 133,40 121,70" fill="rgb(255,255,255)" fill-opacity="1.0" stroke="rgb(0,0,0)" stroke-width="2"  />
			<g>
				<title>PadR (PF03551)
"Transcriptional regulator PadR-like family"</title>
				<polygon class="PF03551" points="123,28 124,28 129,40 124,52 123,52" stroke-linejoin="round" width="7" height="24" fill="rgb(210,176,95)" stroke="rgb(168,140,76)" stroke-width="1" opacity="0.75" />
			</g>
		</g>
		<g>
			<title> (APKJPGIF_03479)
hypothetical protein</title>
			<polygon class=" (APKJPGIF_03479)
hypothetical protein" points="132,25 135,25 135,10 165,40 135,70 135,55 132,55" fill="rgb(255,255,255)" fill-opacity="1.0" stroke="rgb(0,0,0)" stroke-width="2"  />
		</g>
		<g>
			<title>ectC (APKJPGIF_03480)
L-ectoine synthase</title>
			<polygon class="ectC (APKJPGIF_03480)
L-ectoine synthase" points="176,40 189,10 189,70" fill="rgb(255,255,255)" fill-opacity="1.0" stroke="rgb(0,0,0)" stroke-width="2"  />
			<g>
				<title>Ectoine_synth (PF06339)
"Ectoine synthase"</title>
				<polygon class="PF06339" points="179,40 184,28 188,28 188,52 184,52" stroke-linejoin="round" width="12" height="24" fill="rgb(225,176,81)" stroke="rgb(180,140,64)" stroke-width="1" opacity="0.75" />
			</g>
		</g>
		<g>
			<title>ectB (APKJPGIF_03481)
Diaminobutyrate--2-oxoglutarate transaminase</title>
			<polygon class="ectB (APKJPGIF_03481)
Diaminobutyrate--2-oxoglutarate transaminase" points="232,25 219,25 219,10 189,40 219,70 219,55 232,55" fill="rgb(255,255,255)" fill-opacity="1.0" stroke="rgb(0,0,0)" stroke-width="2"  />
			<g>
				<title>Aminotran_3 (PF00202)
"Aminotransferase class-III"</title>
				<polygon class="PF00202" points="193,40 205,28 229,28 229,52 205,52" stroke-linejoin="round" width="39" height="24" fill="rgb(49,163,189)" stroke="rgb(39,130,151)" stroke-width="1" opacity="0.75" />
			</g>
		</g>
		<g>
			<title>ectA (APKJPGIF_03482)
L-2,4-diaminobutyric acid acetyltransferase</title>
			<polygon class="ectA (APKJPGIF_03482)
L-2,4-diaminobutyric acid acetyltransferase" points="233,40 243,10 243,70" fill="rgb(255,255,255)" fill-opacity="1.0" stroke="rgb(0,0,0)" stroke-width="2"  />
			<g>
				<title>Acetyltransf_1 (PF00583)
"Acetyltransferase (GNAT) family"</title>
				<polygon class="PF00583" points="236,40 240,28 242,28 242,52 240,52 236,40" stroke-linejoin="round" width="6" height="24" fill="rgb(121,183,50)" stroke="rgb(96,146,39)" stroke-width="1" opacity="0.75" />
			</g>
		</g>
		<g>
			<title> (APKJPGIF_03483)
hypothetical protein</title>
			<polygon class=" (APKJPGIF_03483)
hypothetical protein" points="296,10 312,40 296,70" fill="rgb(255,255,255)" fill-opacity="1.0" stroke="rgb(0,0,0)" stroke-width="2"  />
			<g>
				<title>DUF4825 (PF16107)
"Domain of unknown function (DUF4825)"</title>
				<polygon class="PF16107" points="299,28 302,28 308,39 308,41 302,52 299,52" stroke-linejoin="round" width="9" height="24" fill="rgb(214,80,184)" stroke="rgb(171,64,147)" stroke-width="1" opacity="0.75" />
			</g>
		</g>
	</g>
</svg>
