<svg version="1.1" baseProfile="full" xmlns="http://www.w3.org/2000/svg" width="714.5666666666667" height="80">
	<g>
		<line x1="10" y1="40.0" x2="704.5666666666667" y2="40.0" style="stroke:rgb(70,70,70); stroke-width:3 "/>
		<g>
			<title>ykfC (HAMLPNCN_04103)
Gamma-D-glutamyl-L-lysine dipeptidyl-peptidase</title>
			<polygon class="ykfC (HAMLPNCN_04103)
Gamma-D-glutamyl-L-lysine dipeptidyl-peptidase" points="62,25 61,25 61,10 31,40 61,70 61,55 62,55" fill="rgb(255,255,255)" fill-opacity="1.0" stroke="rgb(0,0,0)" stroke-width="2"  />
			<g>
				<title>NLPC_P60 (PF00877)
"NlpC/P60 family"</title>
				<polygon class="PF00877" points="35,40 42,33 42,47" stroke-linejoin="round" width="10" height="24" fill="rgb(187,86,137)" stroke="rgb(149,68,109)" stroke-width="1" opacity="0.75" />
			</g>
		</g>
		<g>
			<title>ykfB (HAMLPNCN_04104)
L-Ala-D/L-Glu epimerase</title>
			<polygon class="ykfB (HAMLPNCN_04104)
L-Ala-D/L-Glu epimerase" points="99,25 93,25 93,10 63,40 93,70 93,55 99,55" fill="rgb(255,255,255)" fill-opacity="1.0" stroke="rgb(0,0,0)" stroke-width="2"  />
			<g>
				<title>MR_MLE_C (PF13378)
"Enolase C-terminal domain-like"</title>
				<polygon class="PF13378" points="67,40 79,28 84,28 84,52 79,52" stroke-linejoin="round" width="21" height="24" fill="rgb(191,184,94)" stroke="rgb(152,147,75)" stroke-width="1" opacity="0.75" />
			</g>
			<g>
				<title>MR_MLE_N (PF02746)
"Mandelate racemase / muconate lactonizing enzyme, N-terminal domain"</title>
				<rect class="PF02746" x="87" y="28" stroke-linejoin="round" width="12" height="24" fill="rgb(63,73,226)" stroke="rgb(50,58,180)" stroke-width="1" opacity="0.75" />
			</g>
		</g>
		<g>
			<title>ykfA_2 (HAMLPNCN_04105)
putative murein peptide carboxypeptidase</title>
			<polygon class="ykfA_2 (HAMLPNCN_04105)
putative murein peptide carboxypeptidase" points="130,25 130,25 130,10 100,40 130,70 130,55 130,55" fill="rgb(255,255,255)" fill-opacity="1.0" stroke="rgb(0,0,0)" stroke-width="2"  />
			<g>
				<title>Peptidase_S66C (PF17676)
"LD-carboxypeptidase C-terminal domain"</title>
				<polygon class="PF17676" points="104,40 112,32 112,48" stroke-linejoin="round" width="11" height="24" fill="rgb(72,81,192)" stroke="rgb(57,64,153)" stroke-width="1" opacity="0.75" />
			</g>
			<g>
				<title>Peptidase_S66 (PF02016)
"LD-carboxypeptidase N-terminal domain"</title>
				<rect class="PF02016" x="117" y="28" stroke-linejoin="round" width="11" height="24" fill="rgb(187,63,139)" stroke="rgb(149,50,111)" stroke-width="1" opacity="0.75" />
			</g>
		</g>
		<g>
			<title>dppE_3 (HAMLPNCN_04106)
Dipeptide-binding protein DppE</title>
			<polygon class="dppE_3 (HAMLPNCN_04106)
Dipeptide-binding protein DppE" points="187,25 163,25 163,10 133,40 163,70 163,55 187,55" fill="rgb(255,255,255)" fill-opacity="1.0" stroke="rgb(0,0,0)" stroke-width="2"  />
			<g>
				<title>SBP_bac_5 (PF00496)
"Bacterial extracellular solute-binding proteins, family 5 Middle"</title>
				<polygon class="PF00496" points="140,37 149,28 178,28 178,52 149,52 140,43" stroke-linejoin="round" width="38" height="24" fill="rgb(199,94,116)" stroke="rgb(159,75,92)" stroke-width="1" opacity="0.75" />
			</g>
		</g>
		<g>
			<title>oppD_2 (HAMLPNCN_04107)
Oligopeptide transport ATP-binding protein OppD</title>
			<polygon class="oppD_2 (HAMLPNCN_04107)
Oligopeptide transport ATP-binding protein OppD" points="221,25 218,25 218,10 188,40 218,70 218,55 221,55" fill="rgb(255,255,255)" fill-opacity="1.0" stroke="rgb(0,0,0)" stroke-width="2"  />
			<g>
				<title>oligo_HPY (PF08352)
"Oligopeptide/dipeptide transporter, C-terminal region"</title>
				<polygon class="PF08352" points="192,40 197,35 197,45" stroke-linejoin="round" width="6" height="24" fill="rgb(90,183,173)" stroke="rgb(72,146,138)" stroke-width="1" opacity="0.75" />
			</g>
			<g>
				<title>ABC_tran (PF00005)
"ABC transporter"</title>
				<polygon class="PF00005" points="202,30 204,28 218,28 218,52 204,52 202,50" stroke-linejoin="round" width="16" height="24" fill="rgb(129,201,63)" stroke="rgb(103,160,50)" stroke-width="1" opacity="0.75" />
			</g>
		</g>
		<g>
			<title>dppC (HAMLPNCN_04108)
Dipeptide transport system permease protein DppC</title>
			<polygon class="dppC (HAMLPNCN_04108)
Dipeptide transport system permease protein DppC" points="253,25 252,25 252,10 222,40 252,70 252,55 253,55" fill="rgb(255,255,255)" fill-opacity="1.0" stroke="rgb(0,0,0)" stroke-width="2"  />
			<g>
				<title>BPD_transp_1 (PF00528)
"Binding-protein-dependent transport system inner membrane component"</title>
				<polygon class="PF00528" points="226,40 238,28 240,28 240,52 238,52" stroke-linejoin="round" width="18" height="24" fill="rgb(77,208,225)" stroke="rgb(61,166,180)" stroke-width="1" opacity="0.75" />
			</g>
			<g>
				<title>OppC_N (PF12911)
"N-terminal TM domain of oligopeptide transport permease C"</title>
				<rect class="PF12911" x="244" y="28" stroke-linejoin="round" width="5" height="24" fill="rgb(167,178,88)" stroke="rgb(133,142,70)" stroke-width="1" opacity="0.75" />
			</g>
		</g>
		<g>
			<title>dppB (HAMLPNCN_04109)
Dipeptide transport system permease protein DppB</title>
			<polygon class="dppB (HAMLPNCN_04109)
Dipeptide transport system permease protein DppB" points="284,25 283,25 283,10 253,40 283,70 283,55 284,55" fill="rgb(255,255,255)" fill-opacity="1.0" stroke="rgb(0,0,0)" stroke-width="2"  />
			<g>
				<title>BPD_transp_1 (PF00528)
"Binding-protein-dependent transport system inner membrane component"</title>
				<polygon class="PF00528" points="257,40 269,28 272,28 272,52 269,52" stroke-linejoin="round" width="19" height="24" fill="rgb(77,208,225)" stroke="rgb(61,166,180)" stroke-width="1" opacity="0.75" />
			</g>
		</g>
		<g>
			<title>dppA (HAMLPNCN_04110)
D-aminopeptidase</title>
			<polygon class="dppA (HAMLPNCN_04110)
D-aminopeptidase" points="285,40 312,10 312,70" fill="rgb(255,255,255)" fill-opacity="1.0" stroke="rgb(0,0,0)" stroke-width="2"  />
			<g>
				<title>Peptidase_M55 (PF04951)
"D-aminopeptidase"</title>
				<polygon class="PF04951" points="289,40 300,28 312,28 312,52 300,52" stroke-linejoin="round" width="26" height="24" fill="rgb(94,138,195)" stroke="rgb(75,110,156)" stroke-width="1" opacity="0.75" />
			</g>
		</g>
		<g>
			<title> (HAMLPNCN_04111)
hypothetical protein</title>
			<polygon class=" (HAMLPNCN_04111)
hypothetical protein" points="319,40 323,10 323,70" fill="rgb(255,255,255)" fill-opacity="1.0" stroke="rgb(0,0,0)" stroke-width="2"  />
		</g>
		<g>
			<title> (HAMLPNCN_04112)
hypothetical protein</title>
			<polygon class=" (HAMLPNCN_04112)
hypothetical protein" points="328,40 332,10 332,70" fill="rgb(255,255,255)" fill-opacity="1.0" stroke="rgb(0,0,0)" stroke-width="2"  />
		</g>
		<g>
			<title>yisP (HAMLPNCN_04113)
Putative phytoene/squalene synthase YisP</title>
			<polygon class="yisP (HAMLPNCN_04113)
Putative phytoene/squalene synthase YisP" points="343,40 370,10 370,70" fill="rgb(255,255,255)" fill-opacity="1.0" stroke="rgb(0,0,0)" stroke-width="2"  />
			<g>
				<title>SQS_PSY (PF00494)
"Squalene/phytoene synthase"</title>
				<polygon class="PF00494" points="347,40 358,28 369,28 369,52 358,52" stroke-linejoin="round" width="25" height="24" fill="rgb(178,91,49)" stroke="rgb(142,72,39)" stroke-width="1" opacity="0.75" />
			</g>
		</g>
		<g>
			<title>crtNc (HAMLPNCN_04114)
4,4'-diapolycopen-4-al dehydrogenase</title>
			<polygon class="crtNc (HAMLPNCN_04114)
4,4'-diapolycopen-4-al dehydrogenase" points="420,25 401,25 401,10 371,40 401,70 401,55 420,55" fill="rgb(255,255,255)" fill-opacity="1.0" stroke="rgb(0,0,0)" stroke-width="2"  />
			<g>
				<title>Amino_oxidase (PF01593)
"Flavin containing amine oxidoreductase"</title>
				<polygon class="PF01593" points="375,40 387,28 418,28 418,52 387,52" stroke-linejoin="round" width="46" height="24" fill="rgb(184,74,52)" stroke="rgb(147,59,41)" stroke-width="1" opacity="0.75" />
			</g>
		</g>
		<g>
			<title>crtN_2 (HAMLPNCN_04115)
4,4'-diapophytoene desaturase (4,4'-diapolycopene-forming)</title>
			<polygon class="crtN_2 (HAMLPNCN_04115)
4,4'-diapophytoene desaturase (4,4'-diapolycopene-forming)" points="473,25 450,25 450,10 420,40 450,70 450,55 473,55" fill="rgb(255,255,255)" fill-opacity="1.0" stroke="rgb(0,0,0)" stroke-width="2"  />
			<g>
				<title>Amino_oxidase (PF01593)
"Flavin containing amine oxidoreductase"</title>
				<polygon class="PF01593" points="424,40 436,28 468,28 468,52 436,52" stroke-linejoin="round" width="47" height="24" fill="rgb(184,74,52)" stroke="rgb(147,59,41)" stroke-width="1" opacity="0.75" />
			</g>
		</g>
		<g>
			<title> (HAMLPNCN_04116)
hypothetical protein</title>
			<polygon class=" (HAMLPNCN_04116)
hypothetical protein" points="478,10 485,40 478,70" fill="rgb(255,255,255)" fill-opacity="1.0" stroke="rgb(0,0,0)" stroke-width="2"  />
		</g>
		<g>
			<title> (HAMLPNCN_04117)
hypothetical protein</title>
			<polygon class=" (HAMLPNCN_04117)
hypothetical protein" points="488,10 492,40 488,70" fill="rgb(255,255,255)" fill-opacity="1.0" stroke="rgb(0,0,0)" stroke-width="2"  />
			<g>
				<title>YjcZ_2 (PF09680)
"Family of unknown function"</title>
				<polygon class="PF09680" points="489,39 489,40 489,41" stroke-linejoin="round" width="2" height="24" fill="rgb(79,203,107)" stroke="rgb(63,162,85)" stroke-width="1" opacity="0.75" />
			</g>
		</g>
		<g>
			<title> (HAMLPNCN_04118)
putative signaling protein</title>
			<polygon class=" (HAMLPNCN_04118)
putative signaling protein" points="499,40 513,10 513,70" fill="rgb(255,255,255)" fill-opacity="1.0" stroke="rgb(0,0,0)" stroke-width="2"  />
			<g>
				<title>EAL (PF00563)
"EAL domain"</title>
				<polygon class="PF00563" points="502,40 508,28 512,28 512,52 508,52" stroke-linejoin="round" width="12" height="24" fill="rgb(204,100,120)" stroke="rgb(163,80,96)" stroke-width="1" opacity="0.75" />
			</g>
		</g>
		<g>
			<title> (HAMLPNCN_04119)
hypothetical protein</title>
			<polygon class=" (HAMLPNCN_04119)
hypothetical protein" points="533,10 544,40 533,70" fill="rgb(255,255,255)" fill-opacity="1.0" stroke="rgb(0,0,0)" stroke-width="2"  />
		</g>
		<g>
			<title> (HAMLPNCN_04120)
hypothetical protein</title>
			<polygon class=" (HAMLPNCN_04120)
hypothetical protein" points="545,10 553,40 545,70" fill="rgb(255,255,255)" fill-opacity="1.0" stroke="rgb(0,0,0)" stroke-width="2"  />
		</g>
		<g>
			<title>ktrB_3 (HAMLPNCN_04121)
Ktr system potassium uptake protein B</title>
			<polygon class="ktrB_3 (HAMLPNCN_04121)
Ktr system potassium uptake protein B" points="611,25 596,25 596,10 566,40 596,70 596,55 611,55" fill="rgb(255,255,255)" fill-opacity="1.0" stroke="rgb(0,0,0)" stroke-width="2"  />
			<g>
				<title>TrkH (PF02386)
"Cation transport protein"</title>
				<polygon class="PF02386" points="570,40 582,28 610,28 610,52 582,52" stroke-linejoin="round" width="43" height="24" fill="rgb(67,179,142)" stroke="rgb(53,143,113)" stroke-width="1" opacity="0.75" />
			</g>
		</g>
		<g>
			<title> (HAMLPNCN_04122)
hypothetical protein</title>
			<polygon class=" (HAMLPNCN_04122)
hypothetical protein" points="617,40 631,10 631,70" fill="rgb(255,255,255)" fill-opacity="1.0" stroke="rgb(0,0,0)" stroke-width="2"  />
			<g>
				<title>YwpF (PF14183)
"YwpF-like protein"</title>
				<polygon class="PF14183" points="620,40 626,28 630,28 630,52 626,52" stroke-linejoin="round" width="13" height="24" fill="rgb(199,178,73)" stroke="rgb(159,142,58)" stroke-width="1" opacity="0.75" />
			</g>
		</g>
		<g>
			<title>moaA (HAMLPNCN_04123)
GTP 3',8-cyclase</title>
			<polygon class="moaA (HAMLPNCN_04123)
GTP 3',8-cyclase" points="668,25 664,25 664,10 634,40 664,70 664,55 668,55" fill="rgb(255,255,255)" fill-opacity="1.0" stroke="rgb(0,0,0)" stroke-width="2"  />
			<g>
				<title>Mob_synth_C (PF06463)
"Molybdenum Cofactor Synthesis C"</title>
				<polygon class="PF06463" points="638,40 648,30 648,50" stroke-linejoin="round" width="12" height="24" fill="rgb(149,103,225)" stroke="rgb(119,82,180)" stroke-width="1" opacity="0.75" />
			</g>
			<g>
				<title>Radical_SAM (PF04055)
"Radical SAM superfamily"</title>
				<polygon class="PF04055" points="649,29 650,28 665,28 665,52 650,52 649,51" stroke-linejoin="round" width="16" height="24" fill="rgb(149,56,222)" stroke="rgb(119,44,177)" stroke-width="1" opacity="0.75" />
			</g>
		</g>
	</g>
</svg>
