<svg version="1.1" baseProfile="full" xmlns="http://www.w3.org/2000/svg" width="515.5333333333333" height="80">
	<g>
		<line x1="10" y1="40.0" x2="505.53333333333336" y2="40.0" style="stroke:rgb(70,70,70); stroke-width:3 "/>
		<g>
			<title>yfeW (BEMODAKJ_00378)
Putative D-alanyl-D-alanine carboxypeptidase</title>
			<polygon class="yfeW (BEMODAKJ_00378)
Putative D-alanyl-D-alanine carboxypeptidase" points="66,25 40,25 40,10 10,40 40,70 40,55 66,55" fill="rgb(255,255,255)" fill-opacity="1.0" stroke="rgb(0,0,0)" stroke-width="2"  />
			<g>
				<title>Peptidase_M6 (PF05547)
"Immune inhibitor A peptidase M6"</title>
				<polygon class="PF05547" points="14,40 23,31 23,49" stroke-linejoin="round" width="12" height="24" fill="rgb(94,186,68)" stroke="rgb(75,148,54)" stroke-width="1" opacity="0.75" />
			</g>
			<g>
				<title>Beta-lactamase (PF00144)
"Beta-lactamase"</title>
				<polygon class="PF00144" points="23,31 26,28 57,28 57,52 26,52 23,49" stroke-linejoin="round" width="34" height="24" fill="rgb(92,159,200)" stroke="rgb(73,127,160)" stroke-width="1" opacity="0.75" />
			</g>
		</g>
		<g>
			<title>dat_2 (BEMODAKJ_00379)
Diaminobutyrate--2-oxoglutarate aminotransferase</title>
			<polygon class="dat_2 (BEMODAKJ_00379)
Diaminobutyrate--2-oxoglutarate aminotransferase" points="76,25 91,25 91,10 121,40 91,70 91,55 76,55" fill="rgb(255,255,255)" fill-opacity="1.0" stroke="rgb(0,0,0)" stroke-width="2"  />
			<g>
				<title>Aminotran_3 (PF00202)
"Aminotransferase class-III"</title>
				<polygon class="PF00202" points="78,28 105,28 117,40 105,52 78,52" stroke-linejoin="round" width="42" height="24" fill="rgb(49,163,189)" stroke="rgb(39,130,151)" stroke-width="1" opacity="0.75" />
			</g>
		</g>
		<g>
			<title>ddc (BEMODAKJ_00380)
L-2,4-diaminobutyrate decarboxylase</title>
			<polygon class="ddc (BEMODAKJ_00380)
L-2,4-diaminobutyrate decarboxylase" points="122,25 142,25 142,10 172,40 142,70 142,55 122,55" fill="rgb(255,255,255)" fill-opacity="1.0" stroke="rgb(0,0,0)" stroke-width="2"  />
			<g>
				<title>Pyridoxal_deC (PF00282)
"Pyridoxal-dependent decarboxylase conserved domain"</title>
				<polygon class="PF00282" points="127,28 156,28 164,36 164,44 156,52 127,52" stroke-linejoin="round" width="37" height="24" fill="rgb(100,218,166)" stroke="rgb(80,174,132)" stroke-width="1" opacity="0.75" />
			</g>
		</g>
		<g>
			<title>iucA (BEMODAKJ_00381)
N(2)-citryl-N(6)-acetyl-N(6)-hydroxylysine synthase</title>
			<polygon class="iucA (BEMODAKJ_00381)
N(2)-citryl-N(6)-acetyl-N(6)-hydroxylysine synthase" points="173,25 200,25 200,10 230,40 200,70 200,55 173,55" fill="rgb(255,255,255)" fill-opacity="1.0" stroke="rgb(0,0,0)" stroke-width="2"  />
			<g>
				<title>IucA_IucC (PF04183)
"IucA / IucC family"</title>
				<rect class="PF04183" x="186" y="28" stroke-linejoin="round" width="23" height="24" fill="rgb(221,104,121)" stroke="rgb(176,83,96)" stroke-width="1" opacity="0.75" />
			</g>
			<g>
				<title>FhuF (PF06276)
"Ferric iron reductase FhuF-like transporter"</title>
				<polygon class="PF06276" points="212,28 214,28 226,40 214,52 212,52" stroke-linejoin="round" width="15" height="24" fill="rgb(76,151,221)" stroke="rgb(60,120,176)" stroke-width="1" opacity="0.75" />
			</g>
		</g>
		<g>
			<title>iucB (BEMODAKJ_00382)
N(6)-hydroxylysine O-acetyltransferase</title>
			<polygon class="iucB (BEMODAKJ_00382)
N(6)-hydroxylysine O-acetyltransferase" points="230,10 249,40 230,70" fill="rgb(255,255,255)" fill-opacity="1.0" stroke="rgb(0,0,0)" stroke-width="2"  />
			<g>
				<title>Acetyltransf_8 (PF13523)
"Acetyltransferase (GNAT) domain"</title>
				<polygon class="PF13523" points="232,28 238,28 245,40 238,52 232,52" stroke-linejoin="round" width="14" height="24" fill="rgb(106,224,203)" stroke="rgb(84,179,162)" stroke-width="1" opacity="0.75" />
			</g>
		</g>
		<g>
			<title>iucD_1 (BEMODAKJ_00383)
L-lysine N6-monooxygenase</title>
			<polygon class="iucD_1 (BEMODAKJ_00383)
L-lysine N6-monooxygenase" points="249,25 263,25 263,10 293,40 263,70 263,55 249,55" fill="rgb(255,255,255)" fill-opacity="1.0" stroke="rgb(0,0,0)" stroke-width="2"  />
			<g>
				<title>K_oxygenase (PF13434)
"L-lysine 6-monooxygenase (NADPH-requiring)"</title>
				<polygon class="PF13434" points="249,28 277,28 282,33 282,47 277,52 249,52" stroke-linejoin="round" width="33" height="24" fill="rgb(81,213,119)" stroke="rgb(64,170,95)" stroke-width="1" opacity="0.75" />
			</g>
		</g>
		<g>
			<title>iucC (BEMODAKJ_00384)
Aerobactin synthase</title>
			<polygon class="iucC (BEMODAKJ_00384)
Aerobactin synthase" points="293,25 323,25 323,10 353,40 323,70 323,55 293,55" fill="rgb(255,255,255)" fill-opacity="1.0" stroke="rgb(0,0,0)" stroke-width="2"  />
			<g>
				<title>IucA_IucC (PF04183)
"IucA / IucC family"</title>
				<rect class="PF04183" x="307" y="28" stroke-linejoin="round" width="25" height="24" fill="rgb(221,104,121)" stroke="rgb(176,83,96)" stroke-width="1" opacity="0.75" />
			</g>
			<g>
				<title>FhuF (PF06276)
"Ferric iron reductase FhuF-like transporter"</title>
				<polygon class="PF06276" points="334,28 337,28 349,40 337,52 334,52" stroke-linejoin="round" width="16" height="24" fill="rgb(76,151,221)" stroke="rgb(60,120,176)" stroke-width="1" opacity="0.75" />
			</g>
		</g>
		<g>
			<title>pyrH_1 (BEMODAKJ_00385)
Uridylate kinase</title>
			<polygon class="pyrH_1 (BEMODAKJ_00385)
Uridylate kinase" points="354,25 363,25 363,10 393,40 363,70 363,55 354,55" fill="rgb(255,255,255)" fill-opacity="1.0" stroke="rgb(0,0,0)" stroke-width="2"  />
			<g>
				<title>AA_kinase (PF00696)
"Amino acid kinase family"</title>
				<rect class="PF00696" x="354" y="28" stroke-linejoin="round" width="22" height="24" fill="rgb(148,78,224)" stroke="rgb(118,62,179)" stroke-width="1" opacity="0.75" />
			</g>
		</g>
		<g>
			<title> (BEMODAKJ_00386)
hypothetical protein</title>
			<polygon class=" (BEMODAKJ_00386)
hypothetical protein" points="395,40 419,10 419,70" fill="rgb(255,255,255)" fill-opacity="1.0" stroke="rgb(0,0,0)" stroke-width="2"  />
			<g>
				<title>Excalibur (PF05901)
"Excalibur calcium-binding domain"</title>
				<polygon class="PF05901" points="399,40 399,40 399,40" stroke-linejoin="round" width="4" height="24" fill="rgb(111,191,63)" stroke="rgb(88,152,50)" stroke-width="1" opacity="0.75" />
			</g>
			<g>
				<title>SNase (PF00565)
"Staphylococcal nuclease homologue"</title>
				<polygon class="PF00565" points="402,36 409,28 412,28 412,52 409,52 402,44" stroke-linejoin="round" width="10" height="24" fill="rgb(119,223,110)" stroke="rgb(95,178,88)" stroke-width="1" opacity="0.75" />
			</g>
		</g>
		<g>
			<title> (BEMODAKJ_00387)
hypothetical protein</title>
			<polygon class=" (BEMODAKJ_00387)
hypothetical protein" points="424,40 449,10 449,70" fill="rgb(255,255,255)" fill-opacity="1.0" stroke="rgb(0,0,0)" stroke-width="2"  />
			<g>
				<title>Ion_trans_2 (PF07885)
"Ion channel"</title>
				<polygon class="PF07885" points="429,39 436,30 436,50 429,41" stroke-linejoin="round" width="7" height="24" fill="rgb(72,141,189)" stroke="rgb(57,112,151)" stroke-width="1" opacity="0.75" />
			</g>
		</g>
		<g>
			<title>fdxA_1 (BEMODAKJ_00388)
Ferredoxin 7Fe</title>
			<polygon class="fdxA_1 (BEMODAKJ_00388)
Ferredoxin 7Fe" points="453,10 460,40 453,70" fill="rgb(255,255,255)" fill-opacity="1.0" stroke="rgb(0,0,0)" stroke-width="2"  />
			<g>
				<title>Fer4 (PF00037)
"4Fe-4S binding domain"</title>
				<polygon class="PF00037" points="456,34 457,40 456,46" stroke-linejoin="round" width="2" height="24" fill="rgb(226,193,80)" stroke="rgb(180,154,64)" stroke-width="1" opacity="0.75" />
			</g>
		</g>
		<g>
			<title> (BEMODAKJ_00389)
hypothetical protein</title>
			<polygon class=" (BEMODAKJ_00389)
hypothetical protein" points="464,10 470,40 464,70" fill="rgb(255,255,255)" fill-opacity="1.0" stroke="rgb(0,0,0)" stroke-width="2"  />
		</g>
		<g>
			<title> (BEMODAKJ_00390)
hypothetical protein</title>
			<polygon class=" (BEMODAKJ_00390)
hypothetical protein" points="479,40 482,10 482,70" fill="rgb(255,255,255)" fill-opacity="1.0" stroke="rgb(0,0,0)" stroke-width="2"  />
			<g>
				<title>YjcZ_2 (PF09680)
"Family of unknown function"</title>
				<polygon class="PF09680" points="482,40 481,48 481,32" stroke-linejoin="round" width="2" height="24" fill="rgb(79,203,107)" stroke="rgb(63,162,85)" stroke-width="1" opacity="0.75" />
			</g>
		</g>
		<g>
			<title>fmnP_1 (BEMODAKJ_00391)
Riboflavin transporter FmnP</title>
			<polygon class="fmnP_1 (BEMODAKJ_00391)
Riboflavin transporter FmnP" points="494,40 504,10 504,70" fill="rgb(255,255,255)" fill-opacity="1.0" stroke="rgb(0,0,0)" stroke-width="2"  />
			<g>
				<title>ECF_trnsprt (PF12822)
"ECF transporter, substrate-specific component"</title>
				<polygon class="PF12822" points="497,40 501,28 504,28 504,52 501,52" stroke-linejoin="round" width="10" height="24" fill="rgb(174,181,77)" stroke="rgb(139,144,61)" stroke-width="1" opacity="0.75" />
			</g>
		</g>
	</g>
</svg>
