<svg version="1.1" baseProfile="full" xmlns="http://www.w3.org/2000/svg" width="533.9333333333333" height="80">
	<g>
		<line x1="10" y1="40.0" x2="523.9333333333333" y2="40.0" style="stroke:rgb(70,70,70); stroke-width:3 "/>
		<g>
			<title>ilvD (OPNKNPOB_03414)
Dihydroxy-acid dehydratase</title>
			<polygon class="ilvD (OPNKNPOB_03414)
Dihydroxy-acid dehydratase" points="13,25 39,25 39,10 69,40 39,70 39,55 13,55" fill="rgb(255,255,255)" fill-opacity="1.0" stroke="rgb(0,0,0)" stroke-width="2"  />
			<g>
				<title>ILVD_EDD (PF00920)
"Dehydratase family"</title>
				<polygon class="PF00920" points="16,28 53,28 65,40 53,52 16,52" stroke-linejoin="round" width="51" height="24" fill="rgb(58,79,190)" stroke="rgb(46,63,152)" stroke-width="1" opacity="0.75" />
			</g>
		</g>
		<g>
			<title>dat_2 (OPNKNPOB_03415)
Diaminobutyrate--2-oxoglutarate aminotransferase</title>
			<polygon class="dat_2 (OPNKNPOB_03415)
Diaminobutyrate--2-oxoglutarate aminotransferase" points="80,25 95,25 95,10 125,40 95,70 95,55 80,55" fill="rgb(255,255,255)" fill-opacity="1.0" stroke="rgb(0,0,0)" stroke-width="2"  />
			<g>
				<title>Aminotran_3 (PF00202)
"Aminotransferase class-III"</title>
				<polygon class="PF00202" points="82,28 109,28 121,40 109,52 82,52" stroke-linejoin="round" width="42" height="24" fill="rgb(49,163,189)" stroke="rgb(39,130,151)" stroke-width="1" opacity="0.75" />
			</g>
		</g>
		<g>
			<title>ddc (OPNKNPOB_03416)
L-2,4-diaminobutyrate decarboxylase</title>
			<polygon class="ddc (OPNKNPOB_03416)
L-2,4-diaminobutyrate decarboxylase" points="125,25 146,25 146,10 176,40 146,70 146,55 125,55" fill="rgb(255,255,255)" fill-opacity="1.0" stroke="rgb(0,0,0)" stroke-width="2"  />
			<g>
				<title>Pyridoxal_deC (PF00282)
"Pyridoxal-dependent decarboxylase conserved domain"</title>
				<polygon class="PF00282" points="131,28 159,28 168,37 168,43 159,52 131,52" stroke-linejoin="round" width="37" height="24" fill="rgb(100,218,166)" stroke="rgb(80,174,132)" stroke-width="1" opacity="0.75" />
			</g>
		</g>
		<g>
			<title>iucA (OPNKNPOB_03417)
N(2)-citryl-N(6)-acetyl-N(6)-hydroxylysine synthase</title>
			<polygon class="iucA (OPNKNPOB_03417)
N(2)-citryl-N(6)-acetyl-N(6)-hydroxylysine synthase" points="176,25 204,25 204,10 234,40 204,70 204,55 176,55" fill="rgb(255,255,255)" fill-opacity="1.0" stroke="rgb(0,0,0)" stroke-width="2"  />
			<g>
				<title>IucA_IucC (PF04183)
"IucA / IucC family"</title>
				<rect class="PF04183" x="190" y="28" stroke-linejoin="round" width="23" height="24" fill="rgb(221,104,121)" stroke="rgb(176,83,96)" stroke-width="1" opacity="0.75" />
			</g>
			<g>
				<title>FhuF (PF06276)
"Ferric iron reductase FhuF-like transporter"</title>
				<polygon class="PF06276" points="216,28 218,28 230,40 218,52 216,52" stroke-linejoin="round" width="15" height="24" fill="rgb(76,151,221)" stroke="rgb(60,120,176)" stroke-width="1" opacity="0.75" />
			</g>
		</g>
		<g>
			<title>aacA4 (OPNKNPOB_03418)
Aminoglycoside N(6')-acetyltransferase type 1</title>
			<polygon class="aacA4 (OPNKNPOB_03418)
Aminoglycoside N(6')-acetyltransferase type 1" points="235,10 254,40 235,70" fill="rgb(255,255,255)" fill-opacity="1.0" stroke="rgb(0,0,0)" stroke-width="2"  />
			<g>
				<title>Acetyltransf_8 (PF13523)
"Acetyltransferase (GNAT) domain"</title>
				<polygon class="PF13523" points="237,28 242,28 250,40 242,52 237,52" stroke-linejoin="round" width="14" height="24" fill="rgb(106,224,203)" stroke="rgb(84,179,162)" stroke-width="1" opacity="0.75" />
			</g>
		</g>
		<g>
			<title>iucD_3 (OPNKNPOB_03419)
L-lysine N6-monooxygenase</title>
			<polygon class="iucD_3 (OPNKNPOB_03419)
L-lysine N6-monooxygenase" points="253,25 267,25 267,10 297,40 267,70 267,55 253,55" fill="rgb(255,255,255)" fill-opacity="1.0" stroke="rgb(0,0,0)" stroke-width="2"  />
			<g>
				<title>K_oxygenase (PF13434)
"L-lysine 6-monooxygenase (NADPH-requiring)"</title>
				<polygon class="PF13434" points="253,28 281,28 286,33 286,47 281,52 253,52" stroke-linejoin="round" width="33" height="24" fill="rgb(81,213,119)" stroke="rgb(64,170,95)" stroke-width="1" opacity="0.75" />
			</g>
		</g>
		<g>
			<title>iucC (OPNKNPOB_03420)
Aerobactin synthase</title>
			<polygon class="iucC (OPNKNPOB_03420)
Aerobactin synthase" points="297,25 326,25 326,10 356,40 326,70 326,55 297,55" fill="rgb(255,255,255)" fill-opacity="1.0" stroke="rgb(0,0,0)" stroke-width="2"  />
			<g>
				<title>IucA_IucC (PF04183)
"IucA / IucC family"</title>
				<rect class="PF04183" x="311" y="28" stroke-linejoin="round" width="25" height="24" fill="rgb(221,104,121)" stroke="rgb(176,83,96)" stroke-width="1" opacity="0.75" />
			</g>
			<g>
				<title>FhuF (PF06276)
"Ferric iron reductase FhuF-like transporter"</title>
				<polygon class="PF06276" points="338,28 340,28 352,40 340,52 338,52" stroke-linejoin="round" width="16" height="24" fill="rgb(76,151,221)" stroke="rgb(60,120,176)" stroke-width="1" opacity="0.75" />
			</g>
		</g>
		<g>
			<title>pspA (OPNKNPOB_03421)
Phosphoserine phosphatase 1</title>
			<polygon class="pspA (OPNKNPOB_03421)
Phosphoserine phosphatase 1" points="359,10 378,40 359,70" fill="rgb(255,255,255)" fill-opacity="1.0" stroke="rgb(0,0,0)" stroke-width="2"  />
			<g>
				<title>His_Phos_1 (PF00300)
"Histidine phosphatase superfamily (branch 1)"</title>
				<polygon class="PF00300" points="359,28 366,28 374,40 366,52 359,52" stroke-linejoin="round" width="18" height="24" fill="rgb(135,184,63)" stroke="rgb(107,147,50)" stroke-width="1" opacity="0.75" />
			</g>
		</g>
		<g>
			<title> (OPNKNPOB_03422)
hypothetical protein</title>
			<polygon class=" (OPNKNPOB_03422)
hypothetical protein" points="385,10 389,40 385,70" fill="rgb(255,255,255)" fill-opacity="1.0" stroke="rgb(0,0,0)" stroke-width="2"  />
		</g>
		<g>
			<title> (OPNKNPOB_03423)
hypothetical protein</title>
			<polygon class=" (OPNKNPOB_03423)
hypothetical protein" points="391,10 395,40 391,70" fill="rgb(255,255,255)" fill-opacity="1.0" stroke="rgb(0,0,0)" stroke-width="2"  />
		</g>
		<g>
			<title>aceA (OPNKNPOB_03424)
Isocitrate lyase</title>
			<polygon class="aceA (OPNKNPOB_03424)
Isocitrate lyase" points="406,25 419,25 419,10 449,40 419,70 419,55 406,55" fill="rgb(255,255,255)" fill-opacity="1.0" stroke="rgb(0,0,0)" stroke-width="2"  />
			<g>
				<title>ICL (PF00463)
"Isocitrate lyase family"</title>
				<rect class="PF00463" x="406" y="28" stroke-linejoin="round" width="24" height="24" fill="rgb(209,76,110)" stroke="rgb(167,60,87)" stroke-width="1" opacity="0.75" />
			</g>
			<g>
				<title>ICL (PF00463)
"Isocitrate lyase family"</title>
				<polygon class="PF00463" points="430,28 432,28 444,40 432,52 430,52" stroke-linejoin="round" width="17" height="24" fill="rgb(209,76,110)" stroke="rgb(167,60,87)" stroke-width="1" opacity="0.75" />
			</g>
		</g>
		<g>
			<title> (OPNKNPOB_03425)
4-hydroxyphenylacetate 3-monooxygenase oxygenase component</title>
			<polygon class=" (OPNKNPOB_03425)
4-hydroxyphenylacetate 3-monooxygenase oxygenase component" points="452,25 470,25 470,10 500,40 470,70 470,55 452,55" fill="rgb(255,255,255)" fill-opacity="1.0" stroke="rgb(0,0,0)" stroke-width="2"  />
			<g>
				<title>HpaB_N (PF11794)
"4-hydroxyphenylacetate 3-hydroxylase N terminal"</title>
				<rect class="PF11794" x="452" y="28" stroke-linejoin="round" width="26" height="24" fill="rgb(122,202,60)" stroke="rgb(97,161,47)" stroke-width="1" opacity="0.75" />
			</g>
			<g>
				<title>HpaB (PF03241)
"4-hydroxyphenylacetate 3-hydroxylase C terminal"</title>
				<polygon class="PF03241" points="479,28 483,28 495,40 483,52 479,52" stroke-linejoin="round" width="19" height="24" fill="rgb(73,153,185)" stroke="rgb(58,122,148)" stroke-width="1" opacity="0.75" />
			</g>
		</g>
		<g>
			<title> (OPNKNPOB_03426)
hypothetical protein</title>
			<polygon class=" (OPNKNPOB_03426)
hypothetical protein" points="501,40 505,10 505,70" fill="rgb(255,255,255)" fill-opacity="1.0" stroke="rgb(0,0,0)" stroke-width="2"  />
		</g>
		<g>
			<title> (OPNKNPOB_03427)
hypothetical protein</title>
			<polygon class=" (OPNKNPOB_03427)
hypothetical protein" points="515,10 522,40 515,70" fill="rgb(255,255,255)" fill-opacity="1.0" stroke="rgb(0,0,0)" stroke-width="2"  />
			<g>
				<title>DUF4025 (PF13217)
"Protein of unknown function (DUF4025)"</title>
				<polygon class="PF13217" points="515,28 515,28 519,40 519,40 515,52 515,52" stroke-linejoin="round" width="4" height="24" fill="rgb(99,208,72)" stroke="rgb(79,166,57)" stroke-width="1" opacity="0.75" />
			</g>
		</g>
	</g>
</svg>
