<svg version="1.1" baseProfile="full" xmlns="http://www.w3.org/2000/svg" width="749.9666666666667" height="80">
	<g>
		<line x1="10" y1="40.0" x2="739.9666666666667" y2="40.0" style="stroke:rgb(70,70,70); stroke-width:3 "/>
		<g>
			<title> (JDCNNPMD_00486)
hypothetical protein</title>
			<polygon class=" (JDCNNPMD_00486)
hypothetical protein" points="17,40 29,10 29,70" fill="rgb(255,255,255)" fill-opacity="1.0" stroke="rgb(0,0,0)" stroke-width="2"  />
		</g>
		<g>
			<title>ykuD (JDCNNPMD_00487)
Putative L,D-transpeptidase YkuD</title>
			<polygon class="ykuD (JDCNNPMD_00487)
Putative L,D-transpeptidase YkuD" points="32,10 48,40 32,70" fill="rgb(255,255,255)" fill-opacity="1.0" stroke="rgb(0,0,0)" stroke-width="2"  />
			<g>
				<title>LysM (PF01476)
"LysM domain"</title>
				<rect class="PF01476" x="32" y="28" stroke-linejoin="round" width="4" height="24" fill="rgb(200,86,203)" stroke="rgb(160,68,162)" stroke-width="1" opacity="0.75" />
			</g>
			<g>
				<title>YkuD (PF03734)
"L,D-transpeptidase catalytic domain"</title>
				<polygon class="PF03734" points="37,28 38,28 45,40 38,52 37,52" stroke-linejoin="round" width="10" height="24" fill="rgb(112,183,75)" stroke="rgb(89,146,60)" stroke-width="1" opacity="0.75" />
			</g>
		</g>
		<g>
			<title> (JDCNNPMD_00488)
hypothetical protein</title>
			<polygon class=" (JDCNNPMD_00488)
hypothetical protein" points="52,40 73,10 73,70" fill="rgb(255,255,255)" fill-opacity="1.0" stroke="rgb(0,0,0)" stroke-width="2"  />
			<g>
				<title>RVT_3 (PF13456)
"Reverse transcriptase-like"</title>
				<polygon class="PF13456" points="56,40 65,28 65,28 65,52 65,52" stroke-linejoin="round" width="12" height="24" fill="rgb(198,123,86)" stroke="rgb(158,98,68)" stroke-width="1" opacity="0.75" />
			</g>
		</g>
		<g>
			<title> (JDCNNPMD_00489)
hypothetical protein</title>
			<polygon class=" (JDCNNPMD_00489)
hypothetical protein" points="136,25 132,25 132,10 102,40 132,70 132,55 136,55" fill="rgb(255,255,255)" fill-opacity="1.0" stroke="rgb(0,0,0)" stroke-width="2"  />
			<g>
				<title>Bac_luciferase (PF00296)
"Luciferase-like monooxygenase"</title>
				<polygon class="PF00296" points="106,40 118,28 134,28 134,52 118,52" stroke-linejoin="round" width="30" height="24" fill="rgb(180,112,78)" stroke="rgb(144,89,62)" stroke-width="1" opacity="0.75" />
			</g>
		</g>
		<g>
			<title>ectD (JDCNNPMD_00490)
Ectoine dioxygenase</title>
			<polygon class="ectD (JDCNNPMD_00490)
Ectoine dioxygenase" points="147,10 176,40 147,70" fill="rgb(255,255,255)" fill-opacity="1.0" stroke="rgb(0,0,0)" stroke-width="2"  />
			<g>
				<title>PhyH (PF05721)
"Phytanoyl-CoA dioxygenase (PhyH)"</title>
				<polygon class="PF05721" points="151,28 160,28 172,40 172,40 160,52 151,52" stroke-linejoin="round" width="21" height="24" fill="rgb(72,132,214)" stroke="rgb(57,105,171)" stroke-width="1" opacity="0.75" />
			</g>
		</g>
		<g>
			<title> (JDCNNPMD_00491)
hypothetical protein</title>
			<polygon class=" (JDCNNPMD_00491)
hypothetical protein" points="182,40 195,10 195,70" fill="rgb(255,255,255)" fill-opacity="1.0" stroke="rgb(0,0,0)" stroke-width="2"  />
		</g>
		<g>
			<title>ybiT_2 (JDCNNPMD_00492)
putative ABC transporter ATP-binding protein YbiT</title>
			<polygon class="ybiT_2 (JDCNNPMD_00492)
putative ABC transporter ATP-binding protein YbiT" points="198,25 220,25 220,10 250,40 220,70 220,55 198,55" fill="rgb(255,255,255)" fill-opacity="1.0" stroke="rgb(0,0,0)" stroke-width="2"  />
			<g>
				<title>ABC_tran (PF00005)
"ABC transporter"</title>
				<rect class="PF00005" x="200" y="28" stroke-linejoin="round" width="17" height="24" fill="rgb(129,201,63)" stroke="rgb(103,160,50)" stroke-width="1" opacity="0.75" />
			</g>
			<g>
				<title>ABC_tran_Xtn (PF12848)
"ABC transporter"</title>
				<rect class="PF12848" x="221" y="28" stroke-linejoin="round" width="8" height="24" fill="rgb(54,177,199)" stroke="rgb(43,141,159)" stroke-width="1" opacity="0.75" />
			</g>
			<g>
				<title>ABC_tran (PF00005)
"ABC transporter"</title>
				<polygon class="PF00005" points="232,28 233,28 244,39 244,41 233,52 232,52" stroke-linejoin="round" width="12" height="24" fill="rgb(129,201,63)" stroke="rgb(103,160,50)" stroke-width="1" opacity="0.75" />
			</g>
		</g>
		<g>
			<title>mshD_1 (JDCNNPMD_00493)
Mycothiol acetyltransferase</title>
			<polygon class="mshD_1 (JDCNNPMD_00493)
Mycothiol acetyltransferase" points="282,25 282,25 282,10 252,40 282,70 282,55 282,55" fill="rgb(255,255,255)" fill-opacity="1.0" stroke="rgb(0,0,0)" stroke-width="2"  />
			<g>
				<title>Acetyltransf_1 (PF00583)
"Acetyltransferase (GNAT) family"</title>
				<polygon class="PF00583" points="256,40 264,32 264,48" stroke-linejoin="round" width="11" height="24" fill="rgb(121,183,50)" stroke="rgb(96,146,39)" stroke-width="1" opacity="0.75" />
			</g>
		</g>
		<g>
			<title> (JDCNNPMD_00494)
hypothetical protein</title>
			<polygon class=" (JDCNNPMD_00494)
hypothetical protein" points="292,40 318,10 318,70" fill="rgb(255,255,255)" fill-opacity="1.0" stroke="rgb(0,0,0)" stroke-width="2"  />
			<g>
				<title>Caa3_CtaG (PF09678)
"Cytochrome c oxidase caa3 assembly factor (Caa3_CtaG)"</title>
				<polygon class="PF09678" points="296,40 306,28 314,28 314,52 306,52" stroke-linejoin="round" width="22" height="24" fill="rgb(121,77,200)" stroke="rgb(96,61,160)" stroke-width="1" opacity="0.75" />
			</g>
		</g>
		<g>
			<title> (JDCNNPMD_00495)
hypothetical protein</title>
			<polygon class=" (JDCNNPMD_00495)
hypothetical protein" points="318,40 334,10 334,70" fill="rgb(255,255,255)" fill-opacity="1.0" stroke="rgb(0,0,0)" stroke-width="2"  />
			<g>
				<title>DUF2243 (PF10002)
"Predicted membrane protein (DUF2243)"</title>
				<polygon class="PF10002" points="321,40 328,28 332,28 332,52 328,52" stroke-linejoin="round" width="13" height="24" fill="rgb(104,195,94)" stroke="rgb(83,156,75)" stroke-width="1" opacity="0.75" />
			</g>
		</g>
		<g>
			<title>sqhC (JDCNNPMD_00496)
Sporulenol synthase</title>
			<polygon class="sqhC (JDCNNPMD_00496)
Sporulenol synthase" points="406,25 373,25 373,10 343,40 373,70 373,55 406,55" fill="rgb(255,255,255)" fill-opacity="1.0" stroke="rgb(0,0,0)" stroke-width="2"  />
			<g>
				<title>SQHop_cyclase_C (PF13243)
"Squalene-hopene cyclase C-terminal domain"</title>
				<polygon class="PF13243" points="347,40 359,28 374,28 374,52 359,52" stroke-linejoin="round" width="31" height="24" fill="rgb(191,58,201)" stroke="rgb(152,46,160)" stroke-width="1" opacity="0.75" />
			</g>
			<g>
				<title>SQHop_cyclase_N (PF13249)
"Squalene-hopene cyclase N-terminal domain"</title>
				<rect class="PF13249" x="376" y="28" stroke-linejoin="round" width="29" height="24" fill="rgb(88,190,89)" stroke="rgb(70,152,71)" stroke-width="1" opacity="0.75" />
			</g>
		</g>
		<g>
			<title> (JDCNNPMD_00497)
hypothetical protein</title>
			<polygon class=" (JDCNNPMD_00497)
hypothetical protein" points="409,25 416,25 416,10 446,40 416,70 416,55 409,55" fill="rgb(255,255,255)" fill-opacity="1.0" stroke="rgb(0,0,0)" stroke-width="2"  />
			<g>
				<title>DUF2515 (PF10720)
"Protein of unknown function (DUF2515)"</title>
				<polygon class="PF10720" points="412,28 430,28 442,40 430,52 412,52" stroke-linejoin="round" width="33" height="24" fill="rgb(66,168,216)" stroke="rgb(52,134,172)" stroke-width="1" opacity="0.75" />
			</g>
		</g>
		<g>
			<title> (JDCNNPMD_00498)
hypothetical protein</title>
			<polygon class=" (JDCNNPMD_00498)
hypothetical protein" points="452,40 465,10 465,70" fill="rgb(255,255,255)" fill-opacity="1.0" stroke="rgb(0,0,0)" stroke-width="2"  />
			<g>
				<title>Glyoxalase (PF00903)
"Glyoxalase/Bleomycin resistance protein/Dioxygenase superfamily"</title>
				<polygon class="PF00903" points="455,40 461,28 464,28 464,52 461,52" stroke-linejoin="round" width="11" height="24" fill="rgb(50,162,189)" stroke="rgb(40,129,151)" stroke-width="1" opacity="0.75" />
			</g>
		</g>
		<g>
			<title> (JDCNNPMD_00499)
hypothetical protein</title>
			<polygon class=" (JDCNNPMD_00499)
hypothetical protein" points="469,40 479,10 479,70" fill="rgb(255,255,255)" fill-opacity="1.0" stroke="rgb(0,0,0)" stroke-width="2"  />
		</g>
		<g>
			<title> (JDCNNPMD_00500)
hypothetical protein</title>
			<polygon class=" (JDCNNPMD_00500)
hypothetical protein" points="525,25 521,25 521,10 491,40 521,70 521,55 525,55" fill="rgb(255,255,255)" fill-opacity="1.0" stroke="rgb(0,0,0)" stroke-width="2"  />
			<g>
				<title>ThiF (PF00899)
"ThiF family"</title>
				<polygon class="PF00899" points="501,34 507,28 524,28 524,52 507,52 501,46" stroke-linejoin="round" width="23" height="24" fill="rgb(82,50,180)" stroke="rgb(65,39,144)" stroke-width="1" opacity="0.75" />
			</g>
		</g>
		<g>
			<title>thiG (JDCNNPMD_00501)
Thiazole synthase</title>
			<polygon class="thiG (JDCNNPMD_00501)
Thiazole synthase" points="525,40 550,10 550,70" fill="rgb(255,255,255)" fill-opacity="1.0" stroke="rgb(0,0,0)" stroke-width="2"  />
			<g>
				<title>ThiG (PF05690)
"Thiazole biosynthesis protein ThiG"</title>
				<polygon class="PF05690" points="529,40 539,28 549,28 549,52 539,52" stroke-linejoin="round" width="24" height="24" fill="rgb(215,60,203)" stroke="rgb(172,47,162)" stroke-width="1" opacity="0.75" />
			</g>
		</g>
		<g>
			<title>thiS (JDCNNPMD_00502)
Sulfur carrier protein ThiS</title>
			<polygon class="thiS (JDCNNPMD_00502)
Sulfur carrier protein ThiS" points="551,40 557,10 557,70" fill="rgb(255,255,255)" fill-opacity="1.0" stroke="rgb(0,0,0)" stroke-width="2"  />
			<g>
				<title>ThiS (PF02597)
"ThiS family"</title>
				<polygon class="PF02597" points="554,40 557,28 557,28 557,52 557,52" stroke-linejoin="round" width="6" height="24" fill="rgb(73,117,196)" stroke="rgb(58,93,156)" stroke-width="1" opacity="0.75" />
			</g>
		</g>
		<g>
			<title>thiO_1 (JDCNNPMD_00503)
Glycine oxidase</title>
			<polygon class="thiO_1 (JDCNNPMD_00503)
Glycine oxidase" points="595,25 588,25 588,10 558,40 588,70 588,55 595,55" fill="rgb(255,255,255)" fill-opacity="1.0" stroke="rgb(0,0,0)" stroke-width="2"  />
			<g>
				<title>DAO (PF01266)
"FAD dependent oxidoreductase"</title>
				<polygon class="PF01266" points="562,40 574,28 594,28 594,52 574,52" stroke-linejoin="round" width="34" height="24" fill="rgb(123,179,59)" stroke="rgb(98,143,47)" stroke-width="1" opacity="0.75" />
			</g>
		</g>
		<g>
			<title>tenI (JDCNNPMD_00504)
Thiazole tautomerase</title>
			<polygon class="tenI (JDCNNPMD_00504)
Thiazole tautomerase" points="595,40 615,10 615,70" fill="rgb(255,255,255)" fill-opacity="1.0" stroke="rgb(0,0,0)" stroke-width="2"  />
			<g>
				<title>TMP-TENI (PF02581)
"Thiamine monophosphate synthase"</title>
				<polygon class="PF02581" points="599,40 607,28 614,28 614,52 607,52" stroke-linejoin="round" width="17" height="24" fill="rgb(198,51,163)" stroke="rgb(158,40,130)" stroke-width="1" opacity="0.75" />
			</g>
		</g>
		<g>
			<title> (JDCNNPMD_00505)
hypothetical protein</title>
			<polygon class=" (JDCNNPMD_00505)
hypothetical protein" points="632,25 634,25 634,10 664,40 634,70 634,55 632,55" fill="rgb(255,255,255)" fill-opacity="1.0" stroke="rgb(0,0,0)" stroke-width="2"  />
			<g>
				<title>Na_Ca_ex (PF01699)
"Sodium/calcium exchanger protein"</title>
				<rect class="PF01699" x="632" y="28" stroke-linejoin="round" width="15" height="24" fill="rgb(64,189,136)" stroke="rgb(51,151,108)" stroke-width="1" opacity="0.75" />
			</g>
			<g>
				<title>Na_Ca_ex (PF01699)
"Sodium/calcium exchanger protein"</title>
				<polygon class="PF01699" points="649,30 659,40 649,50" stroke-linejoin="round" width="15" height="24" fill="rgb(64,189,136)" stroke="rgb(51,151,108)" stroke-width="1" opacity="0.75" />
			</g>
		</g>
		<g>
			<title> (JDCNNPMD_00506)
hypothetical protein</title>
			<polygon class=" (JDCNNPMD_00506)
hypothetical protein" points="667,40 674,10 674,70" fill="rgb(255,255,255)" fill-opacity="1.0" stroke="rgb(0,0,0)" stroke-width="2"  />
			<g>
				<title>DUF3886 (PF13025)
"Protein of unknown function (DUF3886)"</title>
				<polygon class="PF13025" points="670,40 673,28 673,28 673,52 673,52" stroke-linejoin="round" width="6" height="24" fill="rgb(218,105,228)" stroke="rgb(174,84,182)" stroke-width="1" opacity="0.75" />
			</g>
		</g>
		<g>
			<title> (JDCNNPMD_00507)
hypothetical protein</title>
			<polygon class=" (JDCNNPMD_00507)
hypothetical protein" points="674,40 685,10 685,70" fill="rgb(255,255,255)" fill-opacity="1.0" stroke="rgb(0,0,0)" stroke-width="2"  />
			<g>
				<title>Fe-S_biosyn (PF01521)
"Iron-sulphur cluster biosynthesis"</title>
				<polygon class="PF01521" points="677,40 681,28 684,28 684,52 681,52" stroke-linejoin="round" width="10" height="24" fill="rgb(179,60,127)" stroke="rgb(143,47,101)" stroke-width="1" opacity="0.75" />
			</g>
		</g>
	</g>
</svg>
