<svg version="1.1" baseProfile="full" xmlns="http://www.w3.org/2000/svg" width="694.4666666666667" height="80">
	<g>
		<line x1="10" y1="40.0" x2="684.4666666666667" y2="40.0" style="stroke:rgb(70,70,70); stroke-width:3 "/>
		<g>
			<title> (GLBNLCJE_00634)
hypothetical protein</title>
			<polygon class=" (GLBNLCJE_00634)
hypothetical protein" points="10,10 27,40 10,70" fill="rgb(255,255,255)" fill-opacity="1.0" stroke="rgb(0,0,0)" stroke-width="2"  />
			<g>
				<title>HD (PF01966)
"HD domain"</title>
				<polygon class="PF01966" points="12,28 17,28 24,40 17,52 12,52" stroke-linejoin="round" width="14" height="24" fill="rgb(92,193,119)" stroke="rgb(73,154,95)" stroke-width="1" opacity="0.75" />
			</g>
		</g>
		<g>
			<title> (GLBNLCJE_00635)
hypothetical protein</title>
			<polygon class=" (GLBNLCJE_00635)
hypothetical protein" points="48,10 52,40 48,70" fill="rgb(255,255,255)" fill-opacity="1.0" stroke="rgb(0,0,0)" stroke-width="2"  />
		</g>
		<g>
			<title> (GLBNLCJE_00636)
hypothetical protein</title>
			<polygon class=" (GLBNLCJE_00636)
hypothetical protein" points="56,10 60,40 56,70" fill="rgb(255,255,255)" fill-opacity="1.0" stroke="rgb(0,0,0)" stroke-width="2"  />
		</g>
		<g>
			<title>moeA (GLBNLCJE_00637)
Molybdopterin molybdenumtransferase</title>
			<polygon class="moeA (GLBNLCJE_00637)
Molybdopterin molybdenumtransferase" points="68,25 80,25 80,10 110,40 80,70 80,55 68,55" fill="rgb(255,255,255)" fill-opacity="1.0" stroke="rgb(0,0,0)" stroke-width="2"  />
			<g>
				<title>MoeA_N (PF03453)
"MoeA N-terminal region (domain I and II)"</title>
				<rect class="PF03453" x="69" y="28" stroke-linejoin="round" width="16" height="24" fill="rgb(93,188,107)" stroke="rgb(74,150,85)" stroke-width="1" opacity="0.75" />
			</g>
			<g>
				<title>MoCF_biosynth (PF00994)
"Probable molybdopterin binding domain"</title>
				<polygon class="PF00994" points="87,28 94,28 100,34 100,46 94,52 87,52" stroke-linejoin="round" width="13" height="24" fill="rgb(75,187,175)" stroke="rgb(60,149,139)" stroke-width="1" opacity="0.75" />
			</g>
			<g>
				<title>MoeA_C (PF03454)
"MoeA C-terminal region (domain IV)"</title>
				<polygon class="PF03454" points="102,36 106,40 102,44" stroke-linejoin="round" width="7" height="24" fill="rgb(59,190,161)" stroke="rgb(47,152,128)" stroke-width="1" opacity="0.75" />
			</g>
		</g>
		<g>
			<title>moaA (GLBNLCJE_00638)
GTP 3',8-cyclase</title>
			<polygon class="moaA (GLBNLCJE_00638)
GTP 3',8-cyclase" points="109,25 114,25 114,10 144,40 114,70 114,55 109,55" fill="rgb(255,255,255)" fill-opacity="1.0" stroke="rgb(0,0,0)" stroke-width="2"  />
			<g>
				<title>Radical_SAM (PF04055)
"Radical SAM superfamily"</title>
				<rect class="PF04055" x="112" y="28" stroke-linejoin="round" width="16" height="24" fill="rgb(149,56,222)" stroke="rgb(119,44,177)" stroke-width="1" opacity="0.75" />
			</g>
			<g>
				<title>Mob_synth_C (PF06463)
"Molybdenum Cofactor Synthesis C"</title>
				<polygon class="PF06463" points="129,29 140,40 129,51" stroke-linejoin="round" width="12" height="24" fill="rgb(149,103,225)" stroke="rgb(119,82,180)" stroke-width="1" opacity="0.75" />
			</g>
		</g>
		<g>
			<title> (GLBNLCJE_00639)
hypothetical protein</title>
			<polygon class=" (GLBNLCJE_00639)
hypothetical protein" points="148,10 162,40 148,70" fill="rgb(255,255,255)" fill-opacity="1.0" stroke="rgb(0,0,0)" stroke-width="2"  />
			<g>
				<title>YwpF (PF14183)
"YwpF-like protein"</title>
				<polygon class="PF14183" points="148,28 153,28 158,40 153,52 148,52" stroke-linejoin="round" width="13" height="24" fill="rgb(199,178,73)" stroke="rgb(159,142,58)" stroke-width="1" opacity="0.75" />
			</g>
		</g>
		<g>
			<title>ktrB_1 (GLBNLCJE_00640)
Ktr system potassium uptake protein B</title>
			<polygon class="ktrB_1 (GLBNLCJE_00640)
Ktr system potassium uptake protein B" points="167,25 182,25 182,10 212,40 182,70 182,55 167,55" fill="rgb(255,255,255)" fill-opacity="1.0" stroke="rgb(0,0,0)" stroke-width="2"  />
			<g>
				<title>TrkH (PF02386)
"Cation transport protein"</title>
				<polygon class="PF02386" points="168,28 196,28 208,40 196,52 168,52" stroke-linejoin="round" width="42" height="24" fill="rgb(67,179,142)" stroke="rgb(53,143,113)" stroke-width="1" opacity="0.75" />
			</g>
		</g>
		<g>
			<title> (GLBNLCJE_00641)
hypothetical protein</title>
			<polygon class=" (GLBNLCJE_00641)
hypothetical protein" points="229,40 235,10 235,70" fill="rgb(255,255,255)" fill-opacity="1.0" stroke="rgb(0,0,0)" stroke-width="2"  />
		</g>
		<g>
			<title>crtN_1 (GLBNLCJE_00642)
4,4'-diapophytoene desaturase (4,4'-diapolycopene-forming)</title>
			<polygon class="crtN_1 (GLBNLCJE_00642)
4,4'-diapophytoene desaturase (4,4'-diapolycopene-forming)" points="244,25 263,25 263,10 293,40 263,70 263,55 244,55" fill="rgb(255,255,255)" fill-opacity="1.0" stroke="rgb(0,0,0)" stroke-width="2"  />
			<g>
				<title>Amino_oxidase (PF01593)
"Flavin containing amine oxidoreductase"</title>
				<polygon class="PF01593" points="245,28 277,28 289,40 277,52 245,52" stroke-linejoin="round" width="47" height="24" fill="rgb(184,74,52)" stroke="rgb(147,59,41)" stroke-width="1" opacity="0.75" />
			</g>
		</g>
		<g>
			<title>crtNc (GLBNLCJE_00643)
4,4'-diapolycopen-4-al dehydrogenase</title>
			<polygon class="crtNc (GLBNLCJE_00643)
4,4'-diapolycopen-4-al dehydrogenase" points="293,25 312,25 312,10 342,40 312,70 312,55 293,55" fill="rgb(255,255,255)" fill-opacity="1.0" stroke="rgb(0,0,0)" stroke-width="2"  />
			<g>
				<title>Amino_oxidase (PF01593)
"Flavin containing amine oxidoreductase"</title>
				<polygon class="PF01593" points="294,28 325,28 337,40 325,52 294,52" stroke-linejoin="round" width="46" height="24" fill="rgb(184,74,52)" stroke="rgb(147,59,41)" stroke-width="1" opacity="0.75" />
			</g>
		</g>
		<g>
			<title>crtB (GLBNLCJE_00644)
15-cis-phytoene synthase</title>
			<polygon class="crtB (GLBNLCJE_00644)
15-cis-phytoene synthase" points="343,10 370,40 343,70" fill="rgb(255,255,255)" fill-opacity="1.0" stroke="rgb(0,0,0)" stroke-width="2"  />
			<g>
				<title>SQS_PSY (PF00494)
"Squalene/phytoene synthase"</title>
				<polygon class="PF00494" points="344,28 355,28 366,40 355,52 344,52" stroke-linejoin="round" width="25" height="24" fill="rgb(178,91,49)" stroke="rgb(142,72,39)" stroke-width="1" opacity="0.75" />
			</g>
		</g>
		<g>
			<title> (GLBNLCJE_00645)
hypothetical protein</title>
			<polygon class=" (GLBNLCJE_00645)
hypothetical protein" points="386,10 395,40 386,70" fill="rgb(255,255,255)" fill-opacity="1.0" stroke="rgb(0,0,0)" stroke-width="2"  />
		</g>
		<g>
			<title> (GLBNLCJE_00646)
hypothetical protein</title>
			<polygon class=" (GLBNLCJE_00646)
hypothetical protein" points="398,10 402,40 398,70" fill="rgb(255,255,255)" fill-opacity="1.0" stroke="rgb(0,0,0)" stroke-width="2"  />
		</g>
		<g>
			<title> (GLBNLCJE_00647)
hypothetical protein</title>
			<polygon class=" (GLBNLCJE_00647)
hypothetical protein" points="407,10 425,40 407,70" fill="rgb(255,255,255)" fill-opacity="1.0" stroke="rgb(0,0,0)" stroke-width="2"  />
		</g>
		<g>
			<title>tadA_1 (GLBNLCJE_00648)
tRNA-specific adenosine deaminase</title>
			<polygon class="tadA_1 (GLBNLCJE_00648)
tRNA-specific adenosine deaminase" points="428,10 442,40 428,70" fill="rgb(255,255,255)" fill-opacity="1.0" stroke="rgb(0,0,0)" stroke-width="2"  />
			<g>
				<title>dCMP_cyt_deam_1 (PF00383)
"Cytidine and deoxycytidylate deaminase zinc-binding region"</title>
				<polygon class="PF00383" points="428,28 433,28 438,38 438,42 433,52 428,52" stroke-linejoin="round" width="10" height="24" fill="rgb(91,149,216)" stroke="rgb(72,119,172)" stroke-width="1" opacity="0.75" />
			</g>
		</g>
		<g>
			<title>murE_1 (GLBNLCJE_00649)
UDP-N-acetylmuramoyl-L-alanyl-D-glutamate--2, 6-diaminopimelate ligase</title>
			<polygon class="murE_1 (GLBNLCJE_00649)
UDP-N-acetylmuramoyl-L-alanyl-D-glutamate--2, 6-diaminopimelate ligase" points="449,25 469,25 469,10 499,40 469,70 469,55 449,55" fill="rgb(255,255,255)" fill-opacity="1.0" stroke="rgb(0,0,0)" stroke-width="2"  />
			<g>
				<title>Mur_ligase (PF01225)
"Mur ligase family, catalytic domain"</title>
				<rect class="PF01225" x="451" y="28" stroke-linejoin="round" width="7" height="24" fill="rgb(64,188,155)" stroke="rgb(51,150,124)" stroke-width="1" opacity="0.75" />
			</g>
			<g>
				<title>Mur_ligase_M (PF08245)
"Mur ligase middle domain"</title>
				<rect class="PF08245" x="460" y="28" stroke-linejoin="round" width="20" height="24" fill="rgb(57,133,195)" stroke="rgb(45,106,156)" stroke-width="1" opacity="0.75" />
			</g>
			<g>
				<title>Mur_ligase_C (PF02875)
"Mur ligase family, glutamate ligase domain"</title>
				<polygon class="PF02875" points="482,28 482,28 490,36 490,44 482,52 482,52" stroke-linejoin="round" width="8" height="24" fill="rgb(197,75,168)" stroke="rgb(157,60,134)" stroke-width="1" opacity="0.75" />
			</g>
		</g>
		<g>
			<title> (GLBNLCJE_00650)
hypothetical protein</title>
			<polygon class=" (GLBNLCJE_00650)
hypothetical protein" points="507,10 514,40 507,70" fill="rgb(255,255,255)" fill-opacity="1.0" stroke="rgb(0,0,0)" stroke-width="2"  />
		</g>
		<g>
			<title> (GLBNLCJE_00651)
hypothetical protein</title>
			<polygon class=" (GLBNLCJE_00651)
hypothetical protein" points="517,10 533,40 517,70" fill="rgb(255,255,255)" fill-opacity="1.0" stroke="rgb(0,0,0)" stroke-width="2"  />
			<g>
				<title>Cass2 (PF14526)
"Integron-associated effector binding protein"</title>
				<polygon class="PF14526" points="518,28 523,28 529,40 523,52 518,52" stroke-linejoin="round" width="14" height="24" fill="rgb(57,73,185)" stroke="rgb(45,58,148)" stroke-width="1" opacity="0.75" />
			</g>
		</g>
		<g>
			<title> (GLBNLCJE_00652)
hypothetical protein</title>
			<polygon class=" (GLBNLCJE_00652)
hypothetical protein" points="539,10 553,40 539,70" fill="rgb(255,255,255)" fill-opacity="1.0" stroke="rgb(0,0,0)" stroke-width="2"  />
		</g>
		<g>
			<title> (GLBNLCJE_00653)
hypothetical protein</title>
			<polygon class=" (GLBNLCJE_00653)
hypothetical protein" points="563,40 569,10 569,70" fill="rgb(255,255,255)" fill-opacity="1.0" stroke="rgb(0,0,0)" stroke-width="2"  />
		</g>
		<g>
			<title>crtNb_1 (GLBNLCJE_00654)
4,4'-diapolycopene oxygenase</title>
			<polygon class="crtNb_1 (GLBNLCJE_00654)
4,4'-diapolycopene oxygenase" points="624,25 605,25 605,10 575,40 605,70 605,55 624,55" fill="rgb(255,255,255)" fill-opacity="1.0" stroke="rgb(0,0,0)" stroke-width="2"  />
			<g>
				<title>Amino_oxidase (PF01593)
"Flavin containing amine oxidoreductase"</title>
				<polygon class="PF01593" points="579,40 591,28 622,28 622,52 591,52" stroke-linejoin="round" width="47" height="24" fill="rgb(184,74,52)" stroke="rgb(147,59,41)" stroke-width="1" opacity="0.75" />
			</g>
		</g>
		<g>
			<title> (GLBNLCJE_00655)
hypothetical protein</title>
			<polygon class=" (GLBNLCJE_00655)
hypothetical protein" points="661,25 654,25 654,10 624,40 654,70 654,55 661,55" fill="rgb(255,255,255)" fill-opacity="1.0" stroke="rgb(0,0,0)" stroke-width="2"  />
			<g>
				<title>Glycos_transf_2 (PF00535)
"Glycosyl transferase family 2"</title>
				<polygon class="PF00535" points="639,29 640,28 656,28 656,52 640,52 639,51" stroke-linejoin="round" width="17" height="24" fill="rgb(224,122,96)" stroke="rgb(179,97,76)" stroke-width="1" opacity="0.75" />
			</g>
		</g>
		<g>
			<title> (GLBNLCJE_00656)
hypothetical protein</title>
			<polygon class=" (GLBNLCJE_00656)
hypothetical protein" points="661,40 683,10 683,70" fill="rgb(255,255,255)" fill-opacity="1.0" stroke="rgb(0,0,0)" stroke-width="2"  />
			<g>
				<title>Acyltransferase (PF01553)
"Acyltransferase"</title>
				<polygon class="PF01553" points="668,36 674,28 683,28 683,52 674,52 668,44" stroke-linejoin="round" width="15" height="24" fill="rgb(87,176,216)" stroke="rgb(69,140,172)" stroke-width="1" opacity="0.75" />
			</g>
		</g>
	</g>
</svg>
