<svg version="1.1" baseProfile="full" xmlns="http://www.w3.org/2000/svg" width="695.5666666666667" height="80">
	<g>
		<line x1="10" y1="40.0" x2="685.5666666666667" y2="40.0" style="stroke:rgb(70,70,70); stroke-width:3 "/>
		<g>
			<title>hldD (JDCNNPMD_00993)
ADP-L-glycero-D-manno-heptose-6-epimerase</title>
			<polygon class="hldD (JDCNNPMD_00993)
ADP-L-glycero-D-manno-heptose-6-epimerase" points="68,25 64,25 64,10 34,40 64,70 64,55 68,55" fill="rgb(255,255,255)" fill-opacity="1.0" stroke="rgb(0,0,0)" stroke-width="2"  />
			<g>
				<title>NAD_binding_4 (PF07993)
"Male sterility protein"</title>
				<polygon class="PF07993" points="44,34 50,28 67,28 67,52 50,52 44,46" stroke-linejoin="round" width="23" height="24" fill="rgb(100,212,204)" stroke="rgb(80,169,163)" stroke-width="1" opacity="0.75" />
			</g>
		</g>
		<g>
			<title> (JDCNNPMD_00994)
Long-chain-fatty-acid--CoA ligase</title>
			<polygon class=" (JDCNNPMD_00994)
Long-chain-fatty-acid--CoA ligase" points="127,25 105,25 105,10 75,40 105,70 105,55 127,55" fill="rgb(255,255,255)" fill-opacity="1.0" stroke="rgb(0,0,0)" stroke-width="2"  />
			<g>
				<title>AMP-binding_C (PF13193)
"AMP-binding enzyme C-terminal domain"</title>
				<polygon class="PF13193" points="79,40 84,35 84,45" stroke-linejoin="round" width="7" height="24" fill="rgb(182,50,118)" stroke="rgb(145,39,94)" stroke-width="1" opacity="0.75" />
			</g>
			<g>
				<title>AMP-binding (PF00501)
"AMP-binding enzyme"</title>
				<polygon class="PF00501" points="85,34 91,28 126,28 126,52 91,52 85,46" stroke-linejoin="round" width="41" height="24" fill="rgb(60,217,223)" stroke="rgb(48,173,178)" stroke-width="1" opacity="0.75" />
			</g>
		</g>
		<g>
			<title> (JDCNNPMD_00995)
hypothetical protein</title>
			<polygon class=" (JDCNNPMD_00995)
hypothetical protein" points="132,40 144,10 144,70" fill="rgb(255,255,255)" fill-opacity="1.0" stroke="rgb(0,0,0)" stroke-width="2"  />
			<g>
				<title>Cupin_2 (PF07883)
"Cupin domain"</title>
				<polygon class="PF07883" points="135,40 140,28 140,28 140,52 140,52" stroke-linejoin="round" width="6" height="24" fill="rgb(211,192,74)" stroke="rgb(168,153,59)" stroke-width="1" opacity="0.75" />
			</g>
		</g>
		<g>
			<title> (JDCNNPMD_00996)
hypothetical protein</title>
			<polygon class=" (JDCNNPMD_00996)
hypothetical protein" points="151,10 160,40 151,70" fill="rgb(255,255,255)" fill-opacity="1.0" stroke="rgb(0,0,0)" stroke-width="2"  />
		</g>
		<g>
			<title>idnO (JDCNNPMD_00997)
5-keto-D-gluconate 5-reductase</title>
			<polygon class="idnO (JDCNNPMD_00997)
5-keto-D-gluconate 5-reductase" points="164,40 190,10 190,70" fill="rgb(255,255,255)" fill-opacity="1.0" stroke="rgb(0,0,0)" stroke-width="2"  />
			<g>
				<title>adh_short (PF00106)
"short chain dehydrogenase"</title>
				<polygon class="PF00106" points="171,37 178,28 189,28 189,52 178,52 171,43" stroke-linejoin="round" width="18" height="24" fill="rgb(182,219,73)" stroke="rgb(145,175,58)" stroke-width="1" opacity="0.75" />
			</g>
		</g>
		<g>
			<title> (JDCNNPMD_00998)
hypothetical protein</title>
			<polygon class=" (JDCNNPMD_00998)
hypothetical protein" points="230,25 227,25 227,10 197,40 227,70 227,55 230,55" fill="rgb(255,255,255)" fill-opacity="1.0" stroke="rgb(0,0,0)" stroke-width="2"  />
			<g>
				<title>Metallophos (PF00149)
"Calcineurin-like phosphoesterase"</title>
				<polygon class="PF00149" points="204,37 213,28 224,28 224,52 213,52 204,43" stroke-linejoin="round" width="20" height="24" fill="rgb(181,197,58)" stroke="rgb(144,157,46)" stroke-width="1" opacity="0.75" />
			</g>
		</g>
		<g>
			<title> (JDCNNPMD_00999)
hypothetical protein</title>
			<polygon class=" (JDCNNPMD_00999)
hypothetical protein" points="267,25 261,25 261,10 231,40 261,70 261,55 267,55" fill="rgb(255,255,255)" fill-opacity="1.0" stroke="rgb(0,0,0)" stroke-width="2"  />
			<g>
				<title>NTP_transf_5 (PF14907)
"Uncharacterised nucleotidyltransferase"</title>
				<polygon class="PF14907" points="240,35 247,28 264,28 264,52 247,52 240,45" stroke-linejoin="round" width="24" height="24" fill="rgb(191,137,74)" stroke="rgb(152,109,59)" stroke-width="1" opacity="0.75" />
			</g>
		</g>
		<g>
			<title> (JDCNNPMD_01000)
Putative multidrug export ATP-binding/permease protein</title>
			<polygon class=" (JDCNNPMD_01000)
Putative multidrug export ATP-binding/permease protein" points="328,25 298,25 298,10 268,40 298,70 298,55 328,55" fill="rgb(255,255,255)" fill-opacity="1.0" stroke="rgb(0,0,0)" stroke-width="2"  />
			<g>
				<title>ABC_tran (PF00005)
"ABC transporter"</title>
				<polygon class="PF00005" points="276,36 284,28 291,28 291,52 284,52 276,44" stroke-linejoin="round" width="15" height="24" fill="rgb(129,201,63)" stroke="rgb(103,160,50)" stroke-width="1" opacity="0.75" />
			</g>
			<g>
				<title>ABC_membrane (PF00664)
"ABC transporter transmembrane region"</title>
				<rect class="PF00664" x="297" y="28" stroke-linejoin="round" width="27" height="24" fill="rgb(149,226,73)" stroke="rgb(119,180,58)" stroke-width="1" opacity="0.75" />
			</g>
		</g>
		<g>
			<title> (JDCNNPMD_01001)
hypothetical protein</title>
			<polygon class=" (JDCNNPMD_01001)
hypothetical protein" points="328,40 342,10 342,70" fill="rgb(255,255,255)" fill-opacity="1.0" stroke="rgb(0,0,0)" stroke-width="2"  />
		</g>
		<g>
			<title> (JDCNNPMD_01002)
hypothetical protein</title>
			<polygon class=" (JDCNNPMD_01002)
hypothetical protein" points="343,40 351,10 351,70" fill="rgb(255,255,255)" fill-opacity="1.0" stroke="rgb(0,0,0)" stroke-width="2"  />
			<g>
				<title>PqqD (PF05402)
"Coenzyme PQQ synthesis protein D (PqqD)"</title>
				<polygon class="PF05402" points="346,40 349,30 349,50" stroke-linejoin="round" width="6" height="24" fill="rgb(124,62,188)" stroke="rgb(99,49,150)" stroke-width="1" opacity="0.75" />
			</g>
		</g>
		<g>
			<title> (JDCNNPMD_01003)
hypothetical protein</title>
			<polygon class=" (JDCNNPMD_01003)
hypothetical protein" points="352,40 377,10 377,70" fill="rgb(255,255,255)" fill-opacity="1.0" stroke="rgb(0,0,0)" stroke-width="2"  />
		</g>
		<g>
			<title> (JDCNNPMD_01004)
hypothetical protein</title>
			<polygon class=" (JDCNNPMD_01004)
hypothetical protein" points="379,40 384,10 384,70" fill="rgb(255,255,255)" fill-opacity="1.0" stroke="rgb(0,0,0)" stroke-width="2"  />
		</g>
		<g>
			<title>hepA (JDCNNPMD_01005)
Heterocyst differentiation ATP-binding protein HepA</title>
			<polygon class="hepA (JDCNNPMD_01005)
Heterocyst differentiation ATP-binding protein HepA" points="387,40 401,10 401,70" fill="rgb(255,255,255)" fill-opacity="1.0" stroke="rgb(0,0,0)" stroke-width="2"  />
			<g>
				<title>ABC_tran (PF00005)
"ABC transporter"</title>
				<polygon class="PF00005" points="394,31 396,28 399,28 399,52 396,52 394,49" stroke-linejoin="round" width="5" height="24" fill="rgb(129,201,63)" stroke="rgb(103,160,50)" stroke-width="1" opacity="0.75" />
			</g>
		</g>
		<g>
			<title> (JDCNNPMD_01006)
hypothetical protein</title>
			<polygon class=" (JDCNNPMD_01006)
hypothetical protein" points="487,25 449,25 449,10 419,40 449,70 449,55 487,55" fill="rgb(255,255,255)" fill-opacity="1.0" stroke="rgb(0,0,0)" stroke-width="2"  />
		</g>
		<g>
			<title> (JDCNNPMD_01007)
hypothetical protein</title>
			<polygon class=" (JDCNNPMD_01007)
hypothetical protein" points="553,25 525,25 525,10 495,40 525,70 525,55 553,55" fill="rgb(255,255,255)" fill-opacity="1.0" stroke="rgb(0,0,0)" stroke-width="2"  />
		</g>
		<g>
			<title> (JDCNNPMD_01008)
hypothetical protein</title>
			<polygon class=" (JDCNNPMD_01008)
hypothetical protein" points="552,40 573,10 573,70" fill="rgb(255,255,255)" fill-opacity="1.0" stroke="rgb(0,0,0)" stroke-width="2"  />
		</g>
		<g>
			<title>arnC (JDCNNPMD_01009)
Undecaprenyl-phosphate 4-deoxy-4-formamido-L-arabinose transferase</title>
			<polygon class="arnC (JDCNNPMD_01009)
Undecaprenyl-phosphate 4-deoxy-4-formamido-L-arabinose transferase" points="573,40 596,10 596,70" fill="rgb(255,255,255)" fill-opacity="1.0" stroke="rgb(0,0,0)" stroke-width="2"  />
			<g>
				<title>Glycos_transf_2 (PF00535)
"Glycosyl transferase family 2"</title>
				<polygon class="PF00535" points="579,37 586,28 595,28 595,52 586,52 579,43" stroke-linejoin="round" width="16" height="24" fill="rgb(224,122,96)" stroke="rgb(179,97,76)" stroke-width="1" opacity="0.75" />
			</g>
		</g>
		<g>
			<title> (JDCNNPMD_01010)
Arabinogalactan biosynthesis recruiting protein</title>
			<polygon class=" (JDCNNPMD_01010)
Arabinogalactan biosynthesis recruiting protein" points="597,40 610,10 610,70" fill="rgb(255,255,255)" fill-opacity="1.0" stroke="rgb(0,0,0)" stroke-width="2"  />
			<g>
				<title>GtrA (PF04138)
"GtrA-like protein"</title>
				<polygon class="PF04138" points="600,40 605,28 608,28 608,52 605,52" stroke-linejoin="round" width="11" height="24" fill="rgb(72,221,86)" stroke="rgb(57,176,68)" stroke-width="1" opacity="0.75" />
			</g>
		</g>
		<g>
			<title>glmU_1 (JDCNNPMD_01011)
Bifunctional protein GlmU</title>
			<polygon class="glmU_1 (JDCNNPMD_01011)
Bifunctional protein GlmU" points="663,25 639,25 639,10 609,40 639,70 639,55 663,55" fill="rgb(255,255,255)" fill-opacity="1.0" stroke="rgb(0,0,0)" stroke-width="2"  />
			<g>
				<title>NTP_transf_3 (PF12804)
"MobA-like NTP transferase domain"</title>
				<rect class="PF12804" x="647" y="28" stroke-linejoin="round" width="16" height="24" fill="rgb(52,209,196)" stroke="rgb(41,167,156)" stroke-width="1" opacity="0.75" />
			</g>
		</g>
	</g>
</svg>
