<svg version="1.1" baseProfile="full" xmlns="http://www.w3.org/2000/svg" width="793.2666666666667" height="80">
	<g>
		<line x1="10" y1="40.0" x2="783.2666666666667" y2="40.0" style="stroke:rgb(70,70,70); stroke-width:3 "/>
		<g>
			<title> (PPJPJCPL_01984)
hypothetical protein</title>
			<polygon class=" (PPJPJCPL_01984)
hypothetical protein" points="37,40 46,10 46,70" fill="rgb(255,255,255)" fill-opacity="1.0" stroke="rgb(0,0,0)" stroke-width="2"  />
			<g>
				<title>DUF5344 (PF17279)
"Family of unknown function (DUF5344)"</title>
				<polygon class="PF17279" points="40,40 44,28 45,28 45,52 44,52" stroke-linejoin="round" width="8" height="24" fill="rgb(198,207,96)" stroke="rgb(158,165,76)" stroke-width="1" opacity="0.75" />
			</g>
		</g>
		<g>
			<title> (PPJPJCPL_01985)
hypothetical protein</title>
			<polygon class=" (PPJPJCPL_01985)
hypothetical protein" points="46,40 58,10 58,70" fill="rgb(255,255,255)" fill-opacity="1.0" stroke="rgb(0,0,0)" stroke-width="2"  />
			<g>
				<title>DUF5082 (PF16888)
"Domain of unknown function (DUF5082)"</title>
				<polygon class="PF16888" points="49,40 54,28 58,28 58,52 54,52" stroke-linejoin="round" width="12" height="24" fill="rgb(90,217,137)" stroke="rgb(72,173,109)" stroke-width="1" opacity="0.75" />
			</g>
		</g>
		<g>
			<title>abrB_2 (PPJPJCPL_01986)
Transition state regulatory protein AbrB</title>
			<polygon class="abrB_2 (PPJPJCPL_01986)
Transition state regulatory protein AbrB" points="90,40 99,10 99,70" fill="rgb(255,255,255)" fill-opacity="1.0" stroke="rgb(0,0,0)" stroke-width="2"  />
			<g>
				<title>AbrB_C (PF18277)
"AbrB C-terminal domain"</title>
				<polygon class="PF18277" points="93,40 93,40 93,40" stroke-linejoin="round" width="3" height="24" fill="rgb(74,218,84)" stroke="rgb(59,174,67)" stroke-width="1" opacity="0.75" />
			</g>
			<g>
				<title>MazE_antitoxin (PF04014)
"Antidote-toxin recognition MazE, bacterial antitoxin"</title>
				<polygon class="PF04014" points="94,37 97,28 98,28 98,52 97,52 94,43" stroke-linejoin="round" width="4" height="24" fill="rgb(226,108,170)" stroke="rgb(180,86,136)" stroke-width="1" opacity="0.75" />
			</g>
		</g>
		<g>
			<title> (PPJPJCPL_01987)
hypothetical protein</title>
			<polygon class=" (PPJPJCPL_01987)
hypothetical protein" points="147,25 132,25 132,10 102,40 132,70 132,55 147,55" fill="rgb(255,255,255)" fill-opacity="1.0" stroke="rgb(0,0,0)" stroke-width="2"  />
			<g>
				<title>FtsX (PF02687)
"FtsX-like permease family"</title>
				<rect class="PF02687" x="129" y="28" stroke-linejoin="round" width="9" height="24" fill="rgb(126,55,214)" stroke="rgb(100,44,171)" stroke-width="1" opacity="0.75" />
			</g>
		</g>
		<g>
			<title> (PPJPJCPL_01988)
hypothetical protein</title>
			<polygon class=" (PPJPJCPL_01988)
hypothetical protein" points="148,40 172,10 172,70" fill="rgb(255,255,255)" fill-opacity="1.0" stroke="rgb(0,0,0)" stroke-width="2"  />
			<g>
				<title>ABC2_membrane_4 (PF12730)
"ABC-2 family transporter protein"</title>
				<polygon class="PF12730" points="153,39 162,28 171,28 171,52 162,52 153,41" stroke-linejoin="round" width="18" height="24" fill="rgb(203,161,59)" stroke="rgb(162,128,47)" stroke-width="1" opacity="0.75" />
			</g>
		</g>
		<g>
			<title> (PPJPJCPL_01989)
hypothetical protein</title>
			<polygon class=" (PPJPJCPL_01989)
hypothetical protein" points="173,40 197,10 197,70" fill="rgb(255,255,255)" fill-opacity="1.0" stroke="rgb(0,0,0)" stroke-width="2"  />
			<g>
				<title>ABC2_membrane_4 (PF12730)
"ABC-2 family transporter protein"</title>
				<polygon class="PF12730" points="178,39 187,28 196,28 196,52 187,52 178,41" stroke-linejoin="round" width="18" height="24" fill="rgb(203,161,59)" stroke="rgb(162,128,47)" stroke-width="1" opacity="0.75" />
			</g>
		</g>
		<g>
			<title>bcrA_2 (PPJPJCPL_01990)
Bacitracin transport ATP-binding protein BcrA</title>
			<polygon class="bcrA_2 (PPJPJCPL_01990)
Bacitracin transport ATP-binding protein BcrA" points="228,25 228,25 228,10 198,40 228,70 228,55 228,55" fill="rgb(255,255,255)" fill-opacity="1.0" stroke="rgb(0,0,0)" stroke-width="2"  />
			<g>
				<title>ABC_tran (PF00005)
"ABC transporter"</title>
				<polygon class="PF00005" points="212,30 214,28 226,28 226,52 214,52 212,50" stroke-linejoin="round" width="14" height="24" fill="rgb(129,201,63)" stroke="rgb(103,160,50)" stroke-width="1" opacity="0.75" />
			</g>
		</g>
		<g>
			<title>allorf_1971735_1971869 (allorf_1971735_1971869)</title>
			<polygon class="allorf_1971735_1971869 (allorf_1971735_1971869)" points="229,10 233,40 229,70" fill="rgb(255,255,255)" fill-opacity="1.0" stroke="rgb(0,0,0)" stroke-width="2"  />
		</g>
		<g>
			<title>graR (PPJPJCPL_01991)
Response regulator protein GraR</title>
			<polygon class="graR (PPJPJCPL_01991)
Response regulator protein GraR" points="238,10 261,40 238,70" fill="rgb(255,255,255)" fill-opacity="1.0" stroke="rgb(0,0,0)" stroke-width="2"  />
			<g>
				<title>Response_reg (PF00072)
"Response regulator receiver domain"</title>
				<rect class="PF00072" x="238" y="28" stroke-linejoin="round" width="10" height="24" fill="rgb(100,107,203)" stroke="rgb(80,85,162)" stroke-width="1" opacity="0.75" />
			</g>
			<g>
				<title>Trans_reg_C (PF00486)
"Transcriptional regulatory protein, C terminal"</title>
				<polygon class="PF00486" points="252,33 257,40 252,47" stroke-linejoin="round" width="7" height="24" fill="rgb(204,153,57)" stroke="rgb(163,122,45)" stroke-width="1" opacity="0.75" />
			</g>
		</g>
		<g>
			<title>graS (PPJPJCPL_01992)
Sensor histidine kinase GraS</title>
			<polygon class="graS (PPJPJCPL_01992)
Sensor histidine kinase GraS" points="261,25 263,25 263,10 293,40 263,70 263,55 261,55" fill="rgb(255,255,255)" fill-opacity="1.0" stroke="rgb(0,0,0)" stroke-width="2"  />
			<g>
				<title>HATPase_c (PF02518)
"Histidine kinase-, DNA gyrase B-, and HSP90-like ATPase"</title>
				<polygon class="PF02518" points="282,33 289,40 282,47" stroke-linejoin="round" width="11" height="24" fill="rgb(80,94,225)" stroke="rgb(64,75,180)" stroke-width="1" opacity="0.75" />
			</g>
		</g>
		<g>
			<title>yxdL (PPJPJCPL_01993)
ABC transporter ATP-binding protein YxdL</title>
			<polygon class="yxdL (PPJPJCPL_01993)
ABC transporter ATP-binding protein YxdL" points="297,10 322,40 297,70" fill="rgb(255,255,255)" fill-opacity="1.0" stroke="rgb(0,0,0)" stroke-width="2"  />
			<g>
				<title>ABC_tran (PF00005)
"ABC transporter"</title>
				<polygon class="PF00005" points="299,28 308,28 313,34 313,46 308,52 299,52" stroke-linejoin="round" width="14" height="24" fill="rgb(129,201,63)" stroke="rgb(103,160,50)" stroke-width="1" opacity="0.75" />
			</g>
		</g>
		<g>
			<title>salA_1 (PPJPJCPL_01994)
Lantibiotic salivaricin-A</title>
			<polygon class="salA_1 (PPJPJCPL_01994)
Lantibiotic salivaricin-A" points="334,10 338,40 334,70" fill="rgb(255,255,255)" fill-opacity="1.0" stroke="rgb(0,0,0)" stroke-width="2"  />
			<g>
				<title>L_biotic_typeA (PF04604)
"Type-A lantibiotic"</title>
				<polygon class="PF04604" points="334,31 335,40 334,49" stroke-linejoin="round" width="4" height="24" fill="rgb(206,129,75)" stroke="rgb(164,103,60)" stroke-width="1" opacity="0.75" />
			</g>
		</g>
		<g>
			<title> (PPJPJCPL_01995)
hypothetical protein</title>
			<polygon class=" (PPJPJCPL_01995)
hypothetical protein" points="343,25 419,25 419,10 449,40 419,70 419,55 343,55" fill="rgb(255,255,255)" fill-opacity="1.0" stroke="rgb(0,0,0)" stroke-width="2"  />
			<g>
				<title>DUF4135 (PF13575)
"Domain of unknown function (DUF4135)"</title>
				<rect class="PF13575" x="364" y="28" stroke-linejoin="round" width="37" height="24" fill="rgb(228,84,217)" stroke="rgb(182,67,173)" stroke-width="1" opacity="0.75" />
			</g>
			<g>
				<title>LANC_like (PF05147)
"Lanthionine synthetase C-like protein"</title>
				<polygon class="PF05147" points="413,28 433,28 445,40 433,52 413,52" stroke-linejoin="round" width="35" height="24" fill="rgb(129,182,79)" stroke="rgb(103,145,63)" stroke-width="1" opacity="0.75" />
			</g>
		</g>
		<g>
			<title>hlyB (PPJPJCPL_01996)
Alpha-hemolysin translocation ATP-binding protein HlyB</title>
			<polygon class="hlyB (PPJPJCPL_01996)
Alpha-hemolysin translocation ATP-binding protein HlyB" points="449,25 491,25 491,10 521,40 491,70 491,55 449,55" fill="rgb(255,255,255)" fill-opacity="1.0" stroke="rgb(0,0,0)" stroke-width="2"  />
			<g>
				<title>Peptidase_C39 (PF03412)
"Peptidase C39 family"</title>
				<rect class="PF03412" x="449" y="28" stroke-linejoin="round" width="13" height="24" fill="rgb(214,226,77)" stroke="rgb(171,180,61)" stroke-width="1" opacity="0.75" />
			</g>
			<g>
				<title>ABC_membrane (PF00664)
"ABC transporter transmembrane region"</title>
				<rect class="PF00664" x="465" y="28" stroke-linejoin="round" width="27" height="24" fill="rgb(149,226,73)" stroke="rgb(119,180,58)" stroke-width="1" opacity="0.75" />
			</g>
			<g>
				<title>ABC_tran (PF00005)
"ABC transporter"</title>
				<polygon class="PF00005" points="498,28 504,28 512,36 512,44 504,52 498,52" stroke-linejoin="round" width="14" height="24" fill="rgb(129,201,63)" stroke="rgb(103,160,50)" stroke-width="1" opacity="0.75" />
			</g>
		</g>
		<g>
			<title> (PPJPJCPL_01997)
hypothetical protein</title>
			<polygon class=" (PPJPJCPL_01997)
hypothetical protein" points="521,10 538,40 521,70" fill="rgb(255,255,255)" fill-opacity="1.0" stroke="rgb(0,0,0)" stroke-width="2"  />
			<g>
				<title>AhpC-TSA (PF00578)
"AhpC/TSA family"</title>
				<polygon class="PF00578" points="525,28 527,28 534,40 527,52 525,52" stroke-linejoin="round" width="12" height="24" fill="rgb(166,71,190)" stroke="rgb(132,56,152)" stroke-width="1" opacity="0.75" />
			</g>
		</g>
		<g>
			<title> (PPJPJCPL_01998)
hypothetical protein</title>
			<polygon class=" (PPJPJCPL_01998)
hypothetical protein" points="539,10 553,40 539,70" fill="rgb(255,255,255)" fill-opacity="1.0" stroke="rgb(0,0,0)" stroke-width="2"  />
			<g>
				<title>VKOR (PF07884)
"Vitamin K epoxide reductase family"</title>
				<polygon class="PF07884" points="539,28 543,28 549,40 543,52 539,52" stroke-linejoin="round" width="11" height="24" fill="rgb(178,50,183)" stroke="rgb(142,39,146)" stroke-width="1" opacity="0.75" />
			</g>
		</g>
		<g>
			<title>allorf_1981565_1981708 (allorf_1981565_1981708)</title>
			<polygon class="allorf_1981565_1981708 (allorf_1981565_1981708)" points="557,10 561,40 557,70" fill="rgb(255,255,255)" fill-opacity="1.0" stroke="rgb(0,0,0)" stroke-width="2"  />
		</g>
		<g>
			<title>dapA_1 (PPJPJCPL_01999)
4-hydroxy-tetrahydrodipicolinate synthase</title>
			<polygon class="dapA_1 (PPJPJCPL_01999)
4-hydroxy-tetrahydrodipicolinate synthase" points="579,10 608,40 579,70" fill="rgb(255,255,255)" fill-opacity="1.0" stroke="rgb(0,0,0)" stroke-width="2"  />
			<g>
				<title>DHDPS (PF00701)
"Dihydrodipicolinate synthetase family"</title>
				<polygon class="PF00701" points="579,28 592,28 604,40 592,52 579,52" stroke-linejoin="round" width="28" height="24" fill="rgb(80,204,82)" stroke="rgb(64,163,65)" stroke-width="1" opacity="0.75" />
			</g>
		</g>
		<g>
			<title> (PPJPJCPL_02000)
hypothetical protein</title>
			<polygon class=" (PPJPJCPL_02000)
hypothetical protein" points="615,10 630,40 615,70" fill="rgb(255,255,255)" fill-opacity="1.0" stroke="rgb(0,0,0)" stroke-width="2"  />
			<g>
				<title>DUF212 (PF02681)
"Divergent PAP2 family"</title>
				<polygon class="PF02681" points="615,28 620,28 627,40 620,52 615,52" stroke-linejoin="round" width="14" height="24" fill="rgb(215,62,131)" stroke="rgb(172,49,104)" stroke-width="1" opacity="0.75" />
			</g>
		</g>
		<g>
			<title>fdhD (PPJPJCPL_02001)
Sulfur carrier protein FdhD</title>
			<polygon class="fdhD (PPJPJCPL_02001)
Sulfur carrier protein FdhD" points="633,10 659,40 633,70" fill="rgb(255,255,255)" fill-opacity="1.0" stroke="rgb(0,0,0)" stroke-width="2"  />
			<g>
				<title>FdhD-NarQ (PF02634)
"FdhD/NarQ family"</title>
				<polygon class="PF02634" points="635,28 644,28 655,40 644,52 635,52" stroke-linejoin="round" width="23" height="24" fill="rgb(94,203,116)" stroke="rgb(75,162,92)" stroke-width="1" opacity="0.75" />
			</g>
		</g>
		<g>
			<title> (PPJPJCPL_02002)
hypothetical protein</title>
			<polygon class=" (PPJPJCPL_02002)
hypothetical protein" points="662,40 671,10 671,70" fill="rgb(255,255,255)" fill-opacity="1.0" stroke="rgb(0,0,0)" stroke-width="2"  />
		</g>
		<g>
			<title> (PPJPJCPL_02003)
hypothetical protein</title>
			<polygon class=" (PPJPJCPL_02003)
hypothetical protein" points="677,10 693,40 677,70" fill="rgb(255,255,255)" fill-opacity="1.0" stroke="rgb(0,0,0)" stroke-width="2"  />
			<g>
				<title>CarD_CdnL_TRCF (PF02559)
"CarD-like/TRCF domain"</title>
				<polygon class="PF02559" points="677,28 683,28 687,35 687,45 683,52 677,52" stroke-linejoin="round" width="10" height="24" fill="rgb(216,93,82)" stroke="rgb(172,74,65)" stroke-width="1" opacity="0.75" />
			</g>
		</g>
		<g>
			<title> (PPJPJCPL_02004)
hypothetical protein</title>
			<polygon class=" (PPJPJCPL_02004)
hypothetical protein" points="696,40 710,10 710,70" fill="rgb(255,255,255)" fill-opacity="1.0" stroke="rgb(0,0,0)" stroke-width="2"  />
			<g>
				<title>HTH_27 (PF13463)
"Winged helix DNA-binding domain"</title>
				<polygon class="PF13463" points="700,38 705,28 706,28 706,52 705,52 700,42" stroke-linejoin="round" width="6" height="24" fill="rgb(130,111,228)" stroke="rgb(103,88,182)" stroke-width="1" opacity="0.75" />
			</g>
		</g>
		<g>
			<title>dus (PPJPJCPL_02005)
putative tRNA-dihydrouridine synthase</title>
			<polygon class="dus (PPJPJCPL_02005)
putative tRNA-dihydrouridine synthase" points="722,25 725,25 725,10 755,40 725,70 725,55 722,55" fill="rgb(255,255,255)" fill-opacity="1.0" stroke="rgb(0,0,0)" stroke-width="2"  />
			<g>
				<title>Dus (PF01207)
"Dihydrouridine synthase (Dus)"</title>
				<polygon class="PF01207" points="723,28 739,28 751,40 739,52 723,52" stroke-linejoin="round" width="30" height="24" fill="rgb(178,84,152)" stroke="rgb(142,67,121)" stroke-width="1" opacity="0.75" />
			</g>
		</g>
		<g>
			<title>allorf_1987537_1987602 (allorf_1987537_1987602)</title>
			<polygon class="allorf_1987537_1987602 (allorf_1987537_1987602)" points="756,10 758,40 756,70" fill="rgb(255,255,255)" fill-opacity="1.0" stroke="rgb(0,0,0)" stroke-width="2"  />
		</g>
	</g>
</svg>
