<svg version="1.1" baseProfile="full" xmlns="http://www.w3.org/2000/svg" width="714.5666666666667" height="80">
	<g>
		<line x1="10" y1="40.0" x2="704.5666666666667" y2="40.0" style="stroke:rgb(70,70,70); stroke-width:3 "/>
		<g>
			<title>dapX (ILGKOEJG_01271)
putative N-acetyl-LL-diaminopimelate aminotransferase</title>
			<polygon class="dapX (ILGKOEJG_01271)
putative N-acetyl-LL-diaminopimelate aminotransferase" points="29,25 37,25 37,10 67,40 37,70 37,55 29,55" fill="rgb(255,255,255)" fill-opacity="1.0" stroke="rgb(0,0,0)" stroke-width="2"  />
			<g>
				<title>Aminotran_1_2 (PF00155)
"Aminotransferase class I and II"</title>
				<polygon class="PF00155" points="31,28 51,28 63,40 51,52 31,52" stroke-linejoin="round" width="34" height="24" fill="rgb(89,113,198)" stroke="rgb(71,90,158)" stroke-width="1" opacity="0.75" />
			</g>
		</g>
		<g>
			<title> (ILGKOEJG_01272)
hypothetical protein</title>
			<polygon class=" (ILGKOEJG_01272)
hypothetical protein" points="69,10 75,40 69,70" fill="rgb(255,255,255)" fill-opacity="1.0" stroke="rgb(0,0,0)" stroke-width="2"  />
			<g>
				<title>PspC (PF04024)
"PspC domain"</title>
				<polygon class="PF04024" points="69,28 69,28 72,40 69,52 69,52" stroke-linejoin="round" width="5" height="24" fill="rgb(81,158,180)" stroke="rgb(64,126,144)" stroke-width="1" opacity="0.75" />
			</g>
		</g>
		<g>
			<title> (ILGKOEJG_01273)
hypothetical protein</title>
			<polygon class=" (ILGKOEJG_01273)
hypothetical protein" points="89,40 95,10 95,70" fill="rgb(255,255,255)" fill-opacity="1.0" stroke="rgb(0,0,0)" stroke-width="2"  />
		</g>
		<g>
			<title> (ILGKOEJG_01274)
hypothetical protein</title>
			<polygon class=" (ILGKOEJG_01274)
hypothetical protein" points="99,40 115,10 115,70" fill="rgb(255,255,255)" fill-opacity="1.0" stroke="rgb(0,0,0)" stroke-width="2"  />
			<g>
				<title>Sm_multidrug_ex (PF06695)
"Putative small multi-drug export protein"</title>
				<polygon class="PF06695" points="102,40 109,28 112,28 112,52 109,52" stroke-linejoin="round" width="12" height="24" fill="rgb(222,144,67)" stroke="rgb(177,115,53)" stroke-width="1" opacity="0.75" />
			</g>
		</g>
		<g>
			<title> (ILGKOEJG_01275)
hypothetical protein</title>
			<polygon class=" (ILGKOEJG_01275)
hypothetical protein" points="124,40 129,10 129,70" fill="rgb(255,255,255)" fill-opacity="1.0" stroke="rgb(0,0,0)" stroke-width="2"  />
			<g>
				<title>SpoOE-like (PF09388)
"Spo0E like sporulation regulatory protein"</title>
				<polygon class="PF09388" points="127,40 128,34 128,46" stroke-linejoin="round" width="4" height="24" fill="rgb(188,111,63)" stroke="rgb(150,88,50)" stroke-width="1" opacity="0.75" />
			</g>
		</g>
		<g>
			<title>sipT (ILGKOEJG_01276)
Signal peptidase I T</title>
			<polygon class="sipT (ILGKOEJG_01276)
Signal peptidase I T" points="139,10 156,40 139,70" fill="rgb(255,255,255)" fill-opacity="1.0" stroke="rgb(0,0,0)" stroke-width="2"  />
			<g>
				<title>Peptidase_S24 (PF00717)
"Peptidase S24-like"</title>
				<polygon class="PF00717" points="142,28 145,28 148,32 148,48 145,52 142,52" stroke-linejoin="round" width="6" height="24" fill="rgb(180,76,105)" stroke="rgb(144,60,83)" stroke-width="1" opacity="0.75" />
			</g>
		</g>
		<g>
			<title> (ILGKOEJG_01277)
hypothetical protein</title>
			<polygon class=" (ILGKOEJG_01277)
hypothetical protein" points="160,40 164,10 164,70" fill="rgb(255,255,255)" fill-opacity="1.0" stroke="rgb(0,0,0)" stroke-width="2"  />
			<g>
				<title>YvrJ (PF12841)
"YvrJ protein family"</title>
				<polygon class="PF12841" points="163,40 163,40 163,40" stroke-linejoin="round" width="3" height="24" fill="rgb(207,53,76)" stroke="rgb(165,42,60)" stroke-width="1" opacity="0.75" />
			</g>
		</g>
		<g>
			<title> (ILGKOEJG_01278)
hypothetical protein</title>
			<polygon class=" (ILGKOEJG_01278)
hypothetical protein" points="167,40 174,10 174,70" fill="rgb(255,255,255)" fill-opacity="1.0" stroke="rgb(0,0,0)" stroke-width="2"  />
			<g>
				<title>DUF2922 (PF11148)
"Protein of unknown function (DUF2922)"</title>
				<polygon class="PF11148" points="170,40 173,28 173,28 173,52 173,52" stroke-linejoin="round" width="6" height="24" fill="rgb(196,220,80)" stroke="rgb(156,176,64)" stroke-width="1" opacity="0.75" />
			</g>
		</g>
		<g>
			<title> (ILGKOEJG_01279)
hypothetical protein</title>
			<polygon class=" (ILGKOEJG_01279)
hypothetical protein" points="175,40 182,10 182,70" fill="rgb(255,255,255)" fill-opacity="1.0" stroke="rgb(0,0,0)" stroke-width="2"  />
			<g>
				<title>DUF1659 (PF07872)
"Protein of unknown function (DUF1659)"</title>
				<polygon class="PF07872" points="178,40 181,28 181,28 181,52 181,52" stroke-linejoin="round" width="4" height="24" fill="rgb(172,48,195)" stroke="rgb(137,38,156)" stroke-width="1" opacity="0.75" />
			</g>
		</g>
		<g>
			<title> (ILGKOEJG_01280)
hypothetical protein</title>
			<polygon class=" (ILGKOEJG_01280)
hypothetical protein" points="201,10 226,40 201,70" fill="rgb(255,255,255)" fill-opacity="1.0" stroke="rgb(0,0,0)" stroke-width="2"  />
			<g>
				<title>Caroten_synth (PF04240)
"Carotenoid biosynthesis protein"</title>
				<polygon class="PF04240" points="204,28 212,28 222,40 212,52 204,52" stroke-linejoin="round" width="20" height="24" fill="rgb(65,214,190)" stroke="rgb(52,171,152)" stroke-width="1" opacity="0.75" />
			</g>
		</g>
		<g>
			<title> (ILGKOEJG_01281)
hypothetical protein</title>
			<polygon class=" (ILGKOEJG_01281)
hypothetical protein" points="226,10 248,40 226,70" fill="rgb(255,255,255)" fill-opacity="1.0" stroke="rgb(0,0,0)" stroke-width="2"  />
			<g>
				<title>Acyltransferase (PF01553)
"Acyltransferase"</title>
				<polygon class="PF01553" points="228,28 235,28 241,36 241,44 235,52 228,52" stroke-linejoin="round" width="13" height="24" fill="rgb(87,176,216)" stroke="rgb(69,140,172)" stroke-width="1" opacity="0.75" />
			</g>
		</g>
		<g>
			<title> (ILGKOEJG_01282)
hypothetical protein</title>
			<polygon class=" (ILGKOEJG_01282)
hypothetical protein" points="252,25 259,25 259,10 289,40 259,70 259,55 252,55" fill="rgb(255,255,255)" fill-opacity="1.0" stroke="rgb(0,0,0)" stroke-width="2"  />
			<g>
				<title>Glycos_transf_2 (PF00535)
"Glycosyl transferase family 2"</title>
				<polygon class="PF00535" points="256,28 272,28 273,29 273,51 272,52 256,52" stroke-linejoin="round" width="17" height="24" fill="rgb(224,122,96)" stroke="rgb(179,97,76)" stroke-width="1" opacity="0.75" />
			</g>
		</g>
		<g>
			<title>crtNb_1 (ILGKOEJG_01283)
4,4'-diapolycopene oxygenase</title>
			<polygon class="crtNb_1 (ILGKOEJG_01283)
4,4'-diapolycopene oxygenase" points="289,25 308,25 308,10 338,40 308,70 308,55 289,55" fill="rgb(255,255,255)" fill-opacity="1.0" stroke="rgb(0,0,0)" stroke-width="2"  />
			<g>
				<title>Amino_oxidase (PF01593)
"Flavin containing amine oxidoreductase"</title>
				<polygon class="PF01593" points="290,28 321,28 333,40 321,52 290,52" stroke-linejoin="round" width="47" height="24" fill="rgb(184,74,52)" stroke="rgb(147,59,41)" stroke-width="1" opacity="0.75" />
			</g>
		</g>
		<g>
			<title>crtB (ILGKOEJG_01284)
15-cis-phytoene synthase</title>
			<polygon class="crtB (ILGKOEJG_01284)
15-cis-phytoene synthase" points="343,40 370,10 370,70" fill="rgb(255,255,255)" fill-opacity="1.0" stroke="rgb(0,0,0)" stroke-width="2"  />
			<g>
				<title>SQS_PSY (PF00494)
"Squalene/phytoene synthase"</title>
				<polygon class="PF00494" points="347,40 358,28 369,28 369,52 358,52" stroke-linejoin="round" width="25" height="24" fill="rgb(178,91,49)" stroke="rgb(142,72,39)" stroke-width="1" opacity="0.75" />
			</g>
		</g>
		<g>
			<title>crtNc (ILGKOEJG_01285)
4,4'-diapolycopen-4-al dehydrogenase</title>
			<polygon class="crtNc (ILGKOEJG_01285)
4,4'-diapolycopen-4-al dehydrogenase" points="420,25 401,25 401,10 371,40 401,70 401,55 420,55" fill="rgb(255,255,255)" fill-opacity="1.0" stroke="rgb(0,0,0)" stroke-width="2"  />
			<g>
				<title>Amino_oxidase (PF01593)
"Flavin containing amine oxidoreductase"</title>
				<polygon class="PF01593" points="375,40 387,28 418,28 418,52 387,52" stroke-linejoin="round" width="46" height="24" fill="rgb(184,74,52)" stroke="rgb(147,59,41)" stroke-width="1" opacity="0.75" />
			</g>
		</g>
		<g>
			<title>crtN (ILGKOEJG_01286)
4,4'-diapophytoene desaturase (4,4'-diapolycopene-forming)</title>
			<polygon class="crtN (ILGKOEJG_01286)
4,4'-diapophytoene desaturase (4,4'-diapolycopene-forming)" points="470,25 450,25 450,10 420,40 450,70 450,55 470,55" fill="rgb(255,255,255)" fill-opacity="1.0" stroke="rgb(0,0,0)" stroke-width="2"  />
			<g>
				<title>Amino_oxidase (PF01593)
"Flavin containing amine oxidoreductase"</title>
				<polygon class="PF01593" points="424,40 436,28 468,28 468,52 436,52" stroke-linejoin="round" width="47" height="24" fill="rgb(184,74,52)" stroke="rgb(147,59,41)" stroke-width="1" opacity="0.75" />
			</g>
		</g>
		<g>
			<title> (ILGKOEJG_01287)
hypothetical protein</title>
			<polygon class=" (ILGKOEJG_01287)
hypothetical protein" points="477,10 483,40 477,70" fill="rgb(255,255,255)" fill-opacity="1.0" stroke="rgb(0,0,0)" stroke-width="2"  />
		</g>
		<g>
			<title> (ILGKOEJG_01288)
hypothetical protein</title>
			<polygon class=" (ILGKOEJG_01288)
hypothetical protein" points="487,10 491,40 487,70" fill="rgb(255,255,255)" fill-opacity="1.0" stroke="rgb(0,0,0)" stroke-width="2"  />
			<g>
				<title>YjcZ_2 (PF09680)
"Family of unknown function"</title>
				<polygon class="PF09680" points="488,39 488,40 488,41" stroke-linejoin="round" width="2" height="24" fill="rgb(79,203,107)" stroke="rgb(63,162,85)" stroke-width="1" opacity="0.75" />
			</g>
		</g>
		<g>
			<title> (ILGKOEJG_01289)
hypothetical protein</title>
			<polygon class=" (ILGKOEJG_01289)
hypothetical protein" points="560,25 525,25 525,10 495,40 525,70 525,55 560,55" fill="rgb(255,255,255)" fill-opacity="1.0" stroke="rgb(0,0,0)" stroke-width="2"  />
			<g>
				<title>EAL (PF00563)
"EAL domain"</title>
				<polygon class="PF00563" points="499,40 511,28 519,28 519,52 511,52" stroke-linejoin="round" width="23" height="24" fill="rgb(204,100,120)" stroke="rgb(163,80,96)" stroke-width="1" opacity="0.75" />
			</g>
			<g>
				<title>GGDEF (PF00990)
"Diguanylate cyclase, GGDEF domain"</title>
				<rect class="PF00990" x="522" y="28" stroke-linejoin="round" width="15" height="24" fill="rgb(62,170,199)" stroke="rgb(49,135,159)" stroke-width="1" opacity="0.75" />
			</g>
			<g>
				<title>PAS_9 (PF13426)
"PAS domain"</title>
				<rect class="PF13426" x="538" y="28" stroke-linejoin="round" width="9" height="24" fill="rgb(182,140,74)" stroke="rgb(145,112,59)" stroke-width="1" opacity="0.75" />
			</g>
		</g>
		<g>
			<title>ktrB_1 (ILGKOEJG_01290)
Ktr system potassium uptake protein B</title>
			<polygon class="ktrB_1 (ILGKOEJG_01290)
Ktr system potassium uptake protein B" points="607,25 592,25 592,10 562,40 592,70 592,55 607,55" fill="rgb(255,255,255)" fill-opacity="1.0" stroke="rgb(0,0,0)" stroke-width="2"  />
			<g>
				<title>TrkH (PF02386)
"Cation transport protein"</title>
				<polygon class="PF02386" points="566,40 578,28 605,28 605,52 578,52" stroke-linejoin="round" width="43" height="24" fill="rgb(67,179,142)" stroke="rgb(53,143,113)" stroke-width="1" opacity="0.75" />
			</g>
		</g>
		<g>
			<title> (ILGKOEJG_01291)
hypothetical protein</title>
			<polygon class=" (ILGKOEJG_01291)
hypothetical protein" points="612,40 626,10 626,70" fill="rgb(255,255,255)" fill-opacity="1.0" stroke="rgb(0,0,0)" stroke-width="2"  />
			<g>
				<title>YwpF (PF14183)
"YwpF-like protein"</title>
				<polygon class="PF14183" points="615,40 621,28 625,28 625,52 621,52" stroke-linejoin="round" width="13" height="24" fill="rgb(199,178,73)" stroke="rgb(159,142,58)" stroke-width="1" opacity="0.75" />
			</g>
		</g>
		<g>
			<title>moaA (ILGKOEJG_01292)
GTP 3',8-cyclase</title>
			<polygon class="moaA (ILGKOEJG_01292)
GTP 3',8-cyclase" points="663,25 660,25 660,10 630,40 660,70 660,55 663,55" fill="rgb(255,255,255)" fill-opacity="1.0" stroke="rgb(0,0,0)" stroke-width="2"  />
			<g>
				<title>Mob_synth_C (PF06463)
"Molybdenum Cofactor Synthesis C"</title>
				<polygon class="PF06463" points="634,40 644,30 644,50" stroke-linejoin="round" width="12" height="24" fill="rgb(149,103,225)" stroke="rgb(119,82,180)" stroke-width="1" opacity="0.75" />
			</g>
			<g>
				<title>Radical_SAM (PF04055)
"Radical SAM superfamily"</title>
				<polygon class="PF04055" points="645,29 646,28 661,28 661,52 646,52 645,51" stroke-linejoin="round" width="16" height="24" fill="rgb(149,56,222)" stroke="rgb(119,44,177)" stroke-width="1" opacity="0.75" />
			</g>
		</g>
	</g>
</svg>
