<svg version="1.1" baseProfile="full" xmlns="http://www.w3.org/2000/svg" width="366.3333333333333" height="80">
	<g>
		<line x1="10" y1="40.0" x2="356.3333333333333" y2="40.0" style="stroke:rgb(70,70,70); stroke-width:3 "/>
		<g>
			<title> (LMCNIFEI_00040)
hypothetical protein</title>
			<polygon class=" (LMCNIFEI_00040)
hypothetical protein" points="62,10 84,40 62,70" fill="rgb(255,255,255)" fill-opacity="1.0" stroke="rgb(0,0,0)" stroke-width="2"  />
			<g>
				<title>Diphthami_syn_2 (PF01902)
"Diphthamide synthase"</title>
				<polygon class="PF01902" points="62,28 71,28 80,40 71,52 62,52" stroke-linejoin="round" width="22" height="24" fill="rgb(96,162,208)" stroke="rgb(76,129,166)" stroke-width="1" opacity="0.75" />
			</g>
		</g>
		<g>
			<title>hisS_1 (LMCNIFEI_00041)
Histidine--tRNA ligase</title>
			<polygon class="hisS_1 (LMCNIFEI_00041)
Histidine--tRNA ligase" points="93,25 105,25 105,10 135,40 105,70 105,55 93,55" fill="rgb(255,255,255)" fill-opacity="1.0" stroke="rgb(0,0,0)" stroke-width="2"  />
			<g>
				<title>tRNA-synt_His (PF13393)
"Histidyl-tRNA synthetase"</title>
				<polygon class="PF13393" points="94,28 119,28 125,34 125,46 119,52 94,52" stroke-linejoin="round" width="31" height="24" fill="rgb(106,63,202)" stroke="rgb(84,50,161)" stroke-width="1" opacity="0.75" />
			</g>
			<g>
				<title>HGTP_anticodon (PF03129)
"Anticodon binding domain"</title>
				<polygon class="PF03129" points="127,36 131,40 127,44" stroke-linejoin="round" width="7" height="24" fill="rgb(115,202,95)" stroke="rgb(92,161,76)" stroke-width="1" opacity="0.75" />
			</g>
		</g>
		<g>
			<title> (LMCNIFEI_00042)
hypothetical protein</title>
			<polygon class=" (LMCNIFEI_00042)
hypothetical protein" points="140,10 144,40 140,70" fill="rgb(255,255,255)" fill-opacity="1.0" stroke="rgb(0,0,0)" stroke-width="2"  />
			<g>
				<title>YpzI (PF14140)
"YpzI-like protein"</title>
				<polygon class="PF14140" points="140,32 141,40 140,48" stroke-linejoin="round" width="4" height="24" fill="rgb(68,123,191)" stroke="rgb(54,98,152)" stroke-width="1" opacity="0.75" />
			</g>
		</g>
		<g>
			<title> (LMCNIFEI_00043)
hypothetical protein</title>
			<polygon class=" (LMCNIFEI_00043)
hypothetical protein" points="147,10 150,40 147,70" fill="rgb(255,255,255)" fill-opacity="1.0" stroke="rgb(0,0,0)" stroke-width="2"  />
		</g>
		<g>
			<title> (LMCNIFEI_00044)
hypothetical protein</title>
			<polygon class=" (LMCNIFEI_00044)
hypothetical protein" points="152,40 161,10 161,70" fill="rgb(255,255,255)" fill-opacity="1.0" stroke="rgb(0,0,0)" stroke-width="2"  />
			<g>
				<title>DUF3949 (PF13133)
"Protein of unknown function (DUF3949)"</title>
				<polygon class="PF13133" points="155,40 158,30 158,50" stroke-linejoin="round" width="5" height="24" fill="rgb(182,146,68)" stroke="rgb(145,116,54)" stroke-width="1" opacity="0.75" />
			</g>
		</g>
		<g>
			<title>ectC (LMCNIFEI_00045)
L-ectoine synthase</title>
			<polygon class="ectC (LMCNIFEI_00045)
L-ectoine synthase" points="176,40 189,10 189,70" fill="rgb(255,255,255)" fill-opacity="1.0" stroke="rgb(0,0,0)" stroke-width="2"  />
			<g>
				<title>Ectoine_synth (PF06339)
"Ectoine synthase"</title>
				<polygon class="PF06339" points="179,40 184,28 188,28 188,52 184,52" stroke-linejoin="round" width="12" height="24" fill="rgb(225,176,81)" stroke="rgb(180,140,64)" stroke-width="1" opacity="0.75" />
			</g>
		</g>
		<g>
			<title>ectB (LMCNIFEI_00046)
Diaminobutyrate--2-oxoglutarate transaminase</title>
			<polygon class="ectB (LMCNIFEI_00046)
Diaminobutyrate--2-oxoglutarate transaminase" points="233,25 221,25 221,10 191,40 221,70 221,55 233,55" fill="rgb(255,255,255)" fill-opacity="1.0" stroke="rgb(0,0,0)" stroke-width="2"  />
			<g>
				<title>Aminotran_3 (PF00202)
"Aminotransferase class-III"</title>
				<polygon class="PF00202" points="195,40 207,28 231,28 231,52 207,52" stroke-linejoin="round" width="39" height="24" fill="rgb(49,163,189)" stroke="rgb(39,130,151)" stroke-width="1" opacity="0.75" />
			</g>
		</g>
		<g>
			<title>ectA (LMCNIFEI_00047)
L-2,4-diaminobutyric acid acetyltransferase</title>
			<polygon class="ectA (LMCNIFEI_00047)
L-2,4-diaminobutyric acid acetyltransferase" points="235,40 252,10 252,70" fill="rgb(255,255,255)" fill-opacity="1.0" stroke="rgb(0,0,0)" stroke-width="2"  />
			<g>
				<title>Acetyltransf_1 (PF00583)
"Acetyltransferase (GNAT) family"</title>
				<polygon class="PF00583" points="238,40 245,28 249,28 249,52 245,52 238,40" stroke-linejoin="round" width="11" height="24" fill="rgb(121,183,50)" stroke="rgb(96,146,39)" stroke-width="1" opacity="0.75" />
			</g>
		</g>
		<g>
			<title>mtlA (LMCNIFEI_00048)
PTS system mannitol-specific EIICB component</title>
			<polygon class="mtlA (LMCNIFEI_00048)
PTS system mannitol-specific EIICB component" points="269,25 288,25 288,10 318,40 288,70 288,55 269,55" fill="rgb(255,255,255)" fill-opacity="1.0" stroke="rgb(0,0,0)" stroke-width="2"  />
			<g>
				<title>PTS_EIIC (PF02378)
"Phosphotransferase system, EIIC"</title>
				<rect class="PF02378" x="271" y="28" stroke-linejoin="round" width="26" height="24" fill="rgb(73,199,212)" stroke="rgb(58,159,169)" stroke-width="1" opacity="0.75" />
			</g>
			<g>
				<title>PTS_IIB (PF02302)
"PTS system, Lactose/Cellobiose specific IIB subunit"</title>
				<polygon class="PF02302" points="309,35 314,40 309,45" stroke-linejoin="round" width="8" height="24" fill="rgb(106,212,56)" stroke="rgb(84,169,44)" stroke-width="1" opacity="0.75" />
			</g>
		</g>
	</g>
</svg>
