<svg version="1.1" baseProfile="full" xmlns="http://www.w3.org/2000/svg" width="383.23333333333335" height="80">
	<g>
		<line x1="10" y1="40.0" x2="373.23333333333335" y2="40.0" style="stroke:rgb(70,70,70); stroke-width:3 "/>
		<g>
			<title> (BBLDBBGM_02363)
hypothetical protein</title>
			<polygon class=" (BBLDBBGM_02363)
hypothetical protein" points="38,40 43,10 43,70" fill="rgb(255,255,255)" fill-opacity="1.0" stroke="rgb(0,0,0)" stroke-width="2"  />
		</g>
		<g>
			<title> (BBLDBBGM_02364)
hypothetical protein</title>
			<polygon class=" (BBLDBBGM_02364)
hypothetical protein" points="44,40 55,10 55,70" fill="rgb(255,255,255)" fill-opacity="1.0" stroke="rgb(0,0,0)" stroke-width="2"  />
		</g>
		<g>
			<title> (BBLDBBGM_02365)
hypothetical protein</title>
			<polygon class=" (BBLDBBGM_02365)
hypothetical protein" points="56,40 69,10 69,70" fill="rgb(255,255,255)" fill-opacity="1.0" stroke="rgb(0,0,0)" stroke-width="2"  />
		</g>
		<g>
			<title> (BBLDBBGM_02366)
hypothetical protein</title>
			<polygon class=" (BBLDBBGM_02366)
hypothetical protein" points="103,25 100,25 100,10 70,40 100,70 100,55 103,55" fill="rgb(255,255,255)" fill-opacity="1.0" stroke="rgb(0,0,0)" stroke-width="2"  />
			<g>
				<title>DUF3383 (PF11863)
"Protein of unknown function (DUF3383)"</title>
				<polygon class="PF11863" points="74,40 86,28 95,28 95,52 86,52" stroke-linejoin="round" width="25" height="24" fill="rgb(222,93,221)" stroke="rgb(177,74,176)" stroke-width="1" opacity="0.75" />
			</g>
		</g>
		<g>
			<title> (BBLDBBGM_02367)
hypothetical protein</title>
			<polygon class=" (BBLDBBGM_02367)
hypothetical protein" points="104,40 120,10 120,70" fill="rgb(255,255,255)" fill-opacity="1.0" stroke="rgb(0,0,0)" stroke-width="2"  />
		</g>
		<g>
			<title> (BBLDBBGM_02368)
hypothetical protein</title>
			<polygon class=" (BBLDBBGM_02368)
hypothetical protein" points="120,40 132,10 132,70" fill="rgb(255,255,255)" fill-opacity="1.0" stroke="rgb(0,0,0)" stroke-width="2"  />
		</g>
		<g>
			<title> (BBLDBBGM_02369)
hypothetical protein</title>
			<polygon class=" (BBLDBBGM_02369)
hypothetical protein" points="133,40 153,10 153,70" fill="rgb(255,255,255)" fill-opacity="1.0" stroke="rgb(0,0,0)" stroke-width="2"  />
		</g>
		<g>
			<title> (BBLDBBGM_02370)
hypothetical protein</title>
			<polygon class=" (BBLDBBGM_02370)
hypothetical protein" points="153,40 164,10 164,70" fill="rgb(255,255,255)" fill-opacity="1.0" stroke="rgb(0,0,0)" stroke-width="2"  />
			<g>
				<title>DUF4054 (PF13262)
"Protein of unknown function (DUF4054)"</title>
				<polygon class="PF13262" points="156,40 161,28 163,28 163,52 161,52" stroke-linejoin="round" width="9" height="24" fill="rgb(120,92,192)" stroke="rgb(96,73,153)" stroke-width="1" opacity="0.75" />
			</g>
		</g>
		<g>
			<title> (BBLDBBGM_02371)
hypothetical protein</title>
			<polygon class=" (BBLDBBGM_02371)
hypothetical protein" points="165,40 176,10 176,70" fill="rgb(255,255,255)" fill-opacity="1.0" stroke="rgb(0,0,0)" stroke-width="2"  />
		</g>
		<g>
			<title> (BBLDBBGM_02372)
hypothetical protein</title>
			<polygon class=" (BBLDBBGM_02372)
hypothetical protein" points="176,40 205,10 205,70" fill="rgb(255,255,255)" fill-opacity="1.0" stroke="rgb(0,0,0)" stroke-width="2"  />
			<g>
				<title>DUF2184 (PF09950)
"Uncharacterized protein conserved in bacteria (DUF2184)"</title>
				<polygon class="PF09950" points="180,40 192,28 200,28 200,52 192,52" stroke-linejoin="round" width="24" height="24" fill="rgb(102,213,131)" stroke="rgb(81,170,104)" stroke-width="1" opacity="0.75" />
			</g>
		</g>
		<g>
			<title> (BBLDBBGM_02373)
hypothetical protein</title>
			<polygon class=" (BBLDBBGM_02373)
hypothetical protein" points="207,40 222,10 222,70" fill="rgb(255,255,255)" fill-opacity="1.0" stroke="rgb(0,0,0)" stroke-width="2"  />
		</g>
		<g>
			<title> (BBLDBBGM_02374)
hypothetical protein</title>
			<polygon class=" (BBLDBBGM_02374)
hypothetical protein" points="260,25 253,25 253,10 223,40 253,70 253,55 260,55" fill="rgb(255,255,255)" fill-opacity="1.0" stroke="rgb(0,0,0)" stroke-width="2"  />
			<g>
				<title>DUF2213 (PF09979)
"Uncharacterized protein conserved in bacteria (DUF2213)"</title>
				<rect class="PF09979" x="242" y="28" stroke-linejoin="round" width="15" height="24" fill="rgb(134,56,191)" stroke="rgb(107,44,152)" stroke-width="1" opacity="0.75" />
			</g>
		</g>
		<g>
			<title> (BBLDBBGM_02375)
hypothetical protein</title>
			<polygon class=" (BBLDBBGM_02375)
hypothetical protein" points="262,40 288,10 288,70" fill="rgb(255,255,255)" fill-opacity="1.0" stroke="rgb(0,0,0)" stroke-width="2"  />
			<g>
				<title>Phage_Mu_F (PF04233)
"Phage Mu protein F like protein"</title>
				<polygon class="PF04233" points="266,40 273,32 273,48" stroke-linejoin="round" width="11" height="24" fill="rgb(190,165,64)" stroke="rgb(152,132,51)" stroke-width="1" opacity="0.75" />
			</g>
		</g>
		<g>
			<title> (BBLDBBGM_02376)
hypothetical protein</title>
			<polygon class=" (BBLDBBGM_02376)
hypothetical protein" points="331,25 318,25 318,10 288,40 318,70 318,55 331,55" fill="rgb(255,255,255)" fill-opacity="1.0" stroke="rgb(0,0,0)" stroke-width="2"  />
			<g>
				<title>DUF1073 (PF06381)
"Protein of unknown function (DUF1073)"</title>
				<polygon class="PF06381" points="293,39 304,28 327,28 327,52 304,52 293,41" stroke-linejoin="round" width="34" height="24" fill="rgb(133,57,184)" stroke="rgb(106,45,147)" stroke-width="1" opacity="0.75" />
			</g>
		</g>
	</g>
</svg>
