<svg version="1.1" baseProfile="full" xmlns="http://www.w3.org/2000/svg" width="807.1666666666666" height="80">
	<g>
		<line x1="10" y1="40.0" x2="797.1666666666666" y2="40.0" style="stroke:rgb(70,70,70); stroke-width:3 "/>
		<g>
			<title> (CDOIENLM_02204)
Aspartate aminotransferase</title>
			<polygon class=" (CDOIENLM_02204)
Aspartate aminotransferase" points="18,25 27,25 27,10 57,40 27,70 27,55 18,55" fill="rgb(255,255,255)" fill-opacity="1.0" stroke="rgb(0,0,0)" stroke-width="2"  />
			<g>
				<title>Aminotran_1_2 (PF00155)
"Aminotransferase class I and II"</title>
				<polygon class="PF00155" points="21,28 41,28 53,40 41,52 21,52" stroke-linejoin="round" width="35" height="24" fill="rgb(89,113,198)" stroke="rgb(71,90,158)" stroke-width="1" opacity="0.75" />
			</g>
		</g>
		<g>
			<title>asnS (CDOIENLM_02205)
Asparagine--tRNA ligase</title>
			<polygon class="asnS (CDOIENLM_02205)
Asparagine--tRNA ligase" points="58,25 71,25 71,10 101,40 71,70 71,55 58,55" fill="rgb(255,255,255)" fill-opacity="1.0" stroke="rgb(0,0,0)" stroke-width="2"  />
			<g>
				<title>tRNA_anti-codon (PF01336)
"OB-fold nucleic acid binding domain"</title>
				<rect class="PF01336" x="59" y="28" stroke-linejoin="round" width="7" height="24" fill="rgb(215,103,173)" stroke="rgb(172,82,138)" stroke-width="1" opacity="0.75" />
			</g>
			<g>
				<title>tRNA-synt_2 (PF00152)
"tRNA synthetases class II (D, K and N)"</title>
				<polygon class="PF00152" points="68,28 84,28 96,40 84,52 68,52" stroke-linejoin="round" width="31" height="24" fill="rgb(90,71,190)" stroke="rgb(72,56,152)" stroke-width="1" opacity="0.75" />
			</g>
		</g>
		<g>
			<title>dnaD (CDOIENLM_02206)
DNA replication protein DnaD</title>
			<polygon class="dnaD (CDOIENLM_02206)
DNA replication protein DnaD" points="104,10 127,40 104,70" fill="rgb(255,255,255)" fill-opacity="1.0" stroke="rgb(0,0,0)" stroke-width="2"  />
			<g>
				<title>DnaB_2 (PF07261)
"Replication initiation and membrane attachment"</title>
				<polygon class="PF07261" points="116,31 123,40 123,40 116,49" stroke-linejoin="round" width="7" height="24" fill="rgb(136,193,85)" stroke="rgb(108,154,68)" stroke-width="1" opacity="0.75" />
			</g>
		</g>
		<g>
			<title>nth (CDOIENLM_02207)
Endonuclease III</title>
			<polygon class="nth (CDOIENLM_02207)
Endonuclease III" points="127,10 149,40 127,70" fill="rgb(255,255,255)" fill-opacity="1.0" stroke="rgb(0,0,0)" stroke-width="2"  />
			<g>
				<title>HhH-GPD (PF00730)
"HhH-GPD superfamily base excision DNA repair protein"</title>
				<polygon class="PF00730" points="130,28 136,28 143,37 143,43 136,52 130,52" stroke-linejoin="round" width="13" height="24" fill="rgb(190,78,115)" stroke="rgb(152,62,92)" stroke-width="1" opacity="0.75" />
			</g>
			<g>
				<title>EndIII_4Fe-2S (PF10576)
"Iron-sulfur binding domain of endonuclease III"</title>
				<polygon class="PF10576" points="145,40 145,40 145,40" stroke-linejoin="round" width="1" height="24" fill="rgb(203,113,64)" stroke="rgb(162,90,51)" stroke-width="1" opacity="0.75" />
			</g>
		</g>
		<g>
			<title>ponA (CDOIENLM_02208)
Penicillin-binding protein 1A/1B</title>
			<polygon class="ponA (CDOIENLM_02208)
Penicillin-binding protein 1A/1B" points="238,25 181,25 181,10 151,40 181,70 181,55 238,55" fill="rgb(255,255,255)" fill-opacity="1.0" stroke="rgb(0,0,0)" stroke-width="2"  />
			<g>
				<title>Transpeptidase (PF00905)
"Penicillin binding protein transpeptidase domain"</title>
				<rect class="PF00905" x="176" y="28" stroke-linejoin="round" width="27" height="24" fill="rgb(161,226,87)" stroke="rgb(128,180,69)" stroke-width="1" opacity="0.75" />
			</g>
			<g>
				<title>Transgly (PF00912)
"Transglycosylase"</title>
				<rect class="PF00912" x="212" y="28" stroke-linejoin="round" width="17" height="24" fill="rgb(172,107,216)" stroke="rgb(137,85,172)" stroke-width="1" opacity="0.75" />
			</g>
		</g>
		<g>
			<title>recU (CDOIENLM_02209)
Holliday junction resolvase RecU</title>
			<polygon class="recU (CDOIENLM_02209)
Holliday junction resolvase RecU" points="239,40 258,10 258,70" fill="rgb(255,255,255)" fill-opacity="1.0" stroke="rgb(0,0,0)" stroke-width="2"  />
			<g>
				<title>RecU (PF03838)
"Recombination protein U"</title>
				<polygon class="PF03838" points="243,40 251,28 255,28 255,52 251,52" stroke-linejoin="round" width="16" height="24" fill="rgb(93,204,83)" stroke="rgb(74,163,66)" stroke-width="1" opacity="0.75" />
			</g>
		</g>
		<g>
			<title> (CDOIENLM_02210)
hypothetical protein</title>
			<polygon class=" (CDOIENLM_02210)
hypothetical protein" points="270,40 273,10 273,70" fill="rgb(255,255,255)" fill-opacity="1.0" stroke="rgb(0,0,0)" stroke-width="2"  />
		</g>
		<g>
			<title>racA (CDOIENLM_02211)
Chromosome-anchoring protein RacA</title>
			<polygon class="racA (CDOIENLM_02211)
Chromosome-anchoring protein RacA" points="278,10 286,40 278,70" fill="rgb(255,255,255)" fill-opacity="1.0" stroke="rgb(0,0,0)" stroke-width="2"  />
		</g>
		<g>
			<title> (CDOIENLM_02212)
hypothetical protein</title>
			<polygon class=" (CDOIENLM_02212)
hypothetical protein" points="288,10 300,40 288,70" fill="rgb(255,255,255)" fill-opacity="1.0" stroke="rgb(0,0,0)" stroke-width="2"  />
			<g>
				<title>DUF1798 (PF08807)
"Bacterial domain of unknown function (DUF1798)"</title>
				<polygon class="PF08807" points="289,28 292,28 297,40 292,52 289,52" stroke-linejoin="round" width="10" height="24" fill="rgb(153,201,81)" stroke="rgb(122,160,64)" stroke-width="1" opacity="0.75" />
			</g>
		</g>
		<g>
			<title>arpB (CDOIENLM_02213)
Antibiotic efflux pump membrane transporter ArpB</title>
			<polygon class="arpB (CDOIENLM_02213)
Antibiotic efflux pump membrane transporter ArpB" points="412,25 341,25 341,10 311,40 341,70 341,55 412,55" fill="rgb(255,255,255)" fill-opacity="1.0" stroke="rgb(0,0,0)" stroke-width="2"  />
			<g>
				<title>ACR_tran (PF00873)
"AcrB/AcrD/AcrF family"</title>
				<polygon class="PF00873" points="315,40 327,28 412,28 412,52 327,52" stroke-linejoin="round" width="101" height="24" fill="rgb(63,191,60)" stroke="rgb(50,152,48)" stroke-width="1" opacity="0.75" />
			</g>
		</g>
		<g>
			<title>cdd (CDOIENLM_02214)
Cytidine deaminase</title>
			<polygon class="cdd (CDOIENLM_02214)
Cytidine deaminase" points="418,10 431,40 418,70" fill="rgb(255,255,255)" fill-opacity="1.0" stroke="rgb(0,0,0)" stroke-width="2"  />
			<g>
				<title>dCMP_cyt_deam_1 (PF00383)
"Cytidine and deoxycytidylate deaminase zinc-binding region"</title>
				<polygon class="PF00383" points="418,28 422,28 428,40 428,40 422,52 418,52" stroke-linejoin="round" width="10" height="24" fill="rgb(91,149,216)" stroke="rgb(72,119,172)" stroke-width="1" opacity="0.75" />
			</g>
		</g>
		<g>
			<title> (CDOIENLM_02215)
hypothetical protein</title>
			<polygon class=" (CDOIENLM_02215)
hypothetical protein" points="439,10 459,40 439,70" fill="rgb(255,255,255)" fill-opacity="1.0" stroke="rgb(0,0,0)" stroke-width="2"  />
			<g>
				<title>Spore-coat_CotD (PF11122)
"Inner spore coat protein D"</title>
				<polygon class="PF11122" points="441,28 447,28 456,40 447,52 441,52" stroke-linejoin="round" width="18" height="24" fill="rgb(221,153,69)" stroke="rgb(176,122,55)" stroke-width="1" opacity="0.75" />
			</g>
		</g>
		<g>
			<title> (CDOIENLM_02216)
hypothetical protein</title>
			<polygon class=" (CDOIENLM_02216)
hypothetical protein" points="463,10 481,40 463,70" fill="rgb(255,255,255)" fill-opacity="1.0" stroke="rgb(0,0,0)" stroke-width="2"  />
			<g>
				<title>YpsA (PF06908)
"YspA SLOG family"</title>
				<polygon class="PF06908" points="463,28 470,28 478,40 470,52 463,52" stroke-linejoin="round" width="16" height="24" fill="rgb(136,100,209)" stroke="rgb(108,80,167)" stroke-width="1" opacity="0.75" />
			</g>
		</g>
		<g>
			<title>gpsB (CDOIENLM_02217)
Cell cycle protein GpsB</title>
			<polygon class="gpsB (CDOIENLM_02217)
Cell cycle protein GpsB" points="484,10 494,40 484,70" fill="rgb(255,255,255)" fill-opacity="1.0" stroke="rgb(0,0,0)" stroke-width="2"  />
			<g>
				<title>DivIVA (PF05103)
"DivIVA protein"</title>
				<polygon class="PF05103" points="484,28 486,28 490,37 490,43 486,52 484,52" stroke-linejoin="round" width="6" height="24" fill="rgb(213,106,117)" stroke="rgb(170,84,93)" stroke-width="1" opacity="0.75" />
			</g>
		</g>
		<g>
			<title> (CDOIENLM_02218)
hypothetical protein</title>
			<polygon class=" (CDOIENLM_02218)
hypothetical protein" points="499,10 504,40 499,70" fill="rgb(255,255,255)" fill-opacity="1.0" stroke="rgb(0,0,0)" stroke-width="2"  />
		</g>
		<g>
			<title>rlmL (CDOIENLM_02219)
Ribosomal RNA large subunit methyltransferase L</title>
			<polygon class="rlmL (CDOIENLM_02219)
Ribosomal RNA large subunit methyltransferase L" points="515,25 524,25 524,10 554,40 524,70 524,55 515,55" fill="rgb(255,255,255)" fill-opacity="1.0" stroke="rgb(0,0,0)" stroke-width="2"  />
			<g>
				<title>THUMP (PF02926)
"THUMP domain"</title>
				<rect class="PF02926" x="516" y="28" stroke-linejoin="round" width="14" height="24" fill="rgb(52,209,163)" stroke="rgb(41,167,130)" stroke-width="1" opacity="0.75" />
			</g>
			<g>
				<title>UPF0020 (PF01170)
"Putative RNA methylase family UPF0020"</title>
				<polygon class="PF01170" points="531,28 537,28 549,40 537,52 531,52" stroke-linejoin="round" width="20" height="24" fill="rgb(89,182,69)" stroke="rgb(71,145,55)" stroke-width="1" opacity="0.75" />
			</g>
		</g>
		<g>
			<title>ypwA (CDOIENLM_02220)
Carboxypeptidase 1</title>
			<polygon class="ypwA (CDOIENLM_02220)
Carboxypeptidase 1" points="555,25 574,25 574,10 604,40 574,70 574,55 555,55" fill="rgb(255,255,255)" fill-opacity="1.0" stroke="rgb(0,0,0)" stroke-width="2"  />
			<g>
				<title>Peptidase_M32 (PF02074)
"Carboxypeptidase Taq (M32) metallopeptidase"</title>
				<polygon class="PF02074" points="555,28 588,28 600,40 588,52 555,52" stroke-linejoin="round" width="48" height="24" fill="rgb(213,142,93)" stroke="rgb(170,113,74)" stroke-width="1" opacity="0.75" />
			</g>
		</g>
		<g>
			<title> (CDOIENLM_02221)
hypothetical protein</title>
			<polygon class=" (CDOIENLM_02221)
hypothetical protein" points="607,40 625,10 625,70" fill="rgb(255,255,255)" fill-opacity="1.0" stroke="rgb(0,0,0)" stroke-width="2"  />
		</g>
		<g>
			<title>gno (CDOIENLM_02222)
Gluconate 5-dehydrogenase</title>
			<polygon class="gno (CDOIENLM_02222)
Gluconate 5-dehydrogenase" points="629,10 654,40 629,70" fill="rgb(255,255,255)" fill-opacity="1.0" stroke="rgb(0,0,0)" stroke-width="2"  />
			<g>
				<title>adh_short_C2 (PF13561)
"Enoyl-(Acyl carrier protein) reductase"</title>
				<polygon class="PF13561" points="630,28 640,28 650,40 640,52 630,52" stroke-linejoin="round" width="23" height="24" fill="rgb(73,205,127)" stroke="rgb(58,164,101)" stroke-width="1" opacity="0.75" />
			</g>
		</g>
		<g>
			<title> (CDOIENLM_02223)
hypothetical protein</title>
			<polygon class=" (CDOIENLM_02223)
hypothetical protein" points="657,40 672,10 672,70" fill="rgb(255,255,255)" fill-opacity="1.0" stroke="rgb(0,0,0)" stroke-width="2"  />
			<g>
				<title>CheX (PF13690)
"Chemotaxis phosphatase CheX"</title>
				<polygon class="PF13690" points="660,40 666,28 667,28 667,52 666,52" stroke-linejoin="round" width="9" height="24" fill="rgb(55,220,212)" stroke="rgb(44,176,169)" stroke-width="1" opacity="0.75" />
			</g>
		</g>
		<g>
			<title> (CDOIENLM_02224)
Alpha-pyrone synthesis polyketide synthase-like Pks11</title>
			<polygon class=" (CDOIENLM_02224)
Alpha-pyrone synthesis polyketide synthase-like Pks11" points="676,25 682,25 682,10 712,40 682,70 682,55 676,55" fill="rgb(255,255,255)" fill-opacity="1.0" stroke="rgb(0,0,0)" stroke-width="2"  />
			<g>
				<title>Chal_sti_synt_N (PF00195)
"Chalcone and stilbene synthases, N-terminal domain"</title>
				<polygon class="PF00195" points="676,28 695,28 696,29 696,51 695,52 676,52" stroke-linejoin="round" width="20" height="24" fill="rgb(60,181,161)" stroke="rgb(47,144,128)" stroke-width="1" opacity="0.75" />
			</g>
		</g>
		<g>
			<title> (CDOIENLM_02225)
hypothetical protein</title>
			<polygon class=" (CDOIENLM_02225)
hypothetical protein" points="712,10 729,40 712,70" fill="rgb(255,255,255)" fill-opacity="1.0" stroke="rgb(0,0,0)" stroke-width="2"  />
			<g>
				<title>ICMT (PF04140)
"Isoprenylcysteine carboxyl methyltransferase (ICMT) family"</title>
				<polygon class="PF04140" points="719,29 725,40 719,51" stroke-linejoin="round" width="9" height="24" fill="rgb(100,223,104)" stroke="rgb(80,178,83)" stroke-width="1" opacity="0.75" />
			</g>
		</g>
		<g>
			<title> (CDOIENLM_02226)
hypothetical protein</title>
			<polygon class=" (CDOIENLM_02226)
hypothetical protein" points="732,10 737,40 732,70" fill="rgb(255,255,255)" fill-opacity="1.0" stroke="rgb(0,0,0)" stroke-width="2"  />
		</g>
		<g>
			<title> (CDOIENLM_02227)
hypothetical protein</title>
			<polygon class=" (CDOIENLM_02227)
hypothetical protein" points="743,10 752,40 743,70" fill="rgb(255,255,255)" fill-opacity="1.0" stroke="rgb(0,0,0)" stroke-width="2"  />
		</g>
		<g>
			<title>rnhA (CDOIENLM_02228)
14.7 kDa ribonuclease H-like protein</title>
			<polygon class="rnhA (CDOIENLM_02228)
14.7 kDa ribonuclease H-like protein" points="753,40 766,10 766,70" fill="rgb(255,255,255)" fill-opacity="1.0" stroke="rgb(0,0,0)" stroke-width="2"  />
			<g>
				<title>RVT_3 (PF13456)
"Reverse transcriptase-like"</title>
				<polygon class="PF13456" points="756,40 761,28 766,28 766,52 761,52" stroke-linejoin="round" width="12" height="24" fill="rgb(198,123,86)" stroke="rgb(158,98,68)" stroke-width="1" opacity="0.75" />
			</g>
		</g>
		<g>
			<title> (CDOIENLM_02229)
queuosine precursor transporter</title>
			<polygon class=" (CDOIENLM_02229)
queuosine precursor transporter" points="767,40 789,10 789,70" fill="rgb(255,255,255)" fill-opacity="1.0" stroke="rgb(0,0,0)" stroke-width="2"  />
			<g>
				<title>Vut_1 (PF02592)
"Putative vitamin uptake transporter"</title>
				<polygon class="PF02592" points="771,40 780,28 783,28 783,52 780,52" stroke-linejoin="round" width="16" height="24" fill="rgb(93,184,75)" stroke="rgb(74,147,60)" stroke-width="1" opacity="0.75" />
			</g>
		</g>
	</g>
</svg>
