<svg version="1.1" baseProfile="full" xmlns="http://www.w3.org/2000/svg" width="1389.5333333333333" height="80">
	<g>
		<line x1="10" y1="40.0" x2="1379.5333333333333" y2="40.0" style="stroke:rgb(70,70,70); stroke-width:3 "/>
		<g>
			<title>dinG_3 (DBLALLCB_02481)
3'-5' exonuclease DinG</title>
			<polygon class="dinG_3 (DBLALLCB_02481)
3'-5' exonuclease DinG" points="18,25 81,25 81,10 111,40 81,70 81,55 18,55" fill="rgb(255,255,255)" fill-opacity="1.0" stroke="rgb(0,0,0)" stroke-width="2"  />
			<g>
				<title>RNase_T (PF00929)
"Exonuclease"</title>
				<rect class="PF00929" x="18" y="28" stroke-linejoin="round" width="15" height="24" fill="rgb(201,87,120)" stroke="rgb(160,69,96)" stroke-width="1" opacity="0.75" />
			</g>
			<g>
				<title>ResIII (PF04851)
"Type III restriction enzyme, res subunit"</title>
				<rect class="PF04851" x="43" y="28" stroke-linejoin="round" width="24" height="24" fill="rgb(51,64,189)" stroke="rgb(40,51,151)" stroke-width="1" opacity="0.75" />
			</g>
			<g>
				<title>Helicase_C_2 (PF13307)
"Helicase C-terminal domain"</title>
				<polygon class="PF13307" points="92,28 94,28 106,40 94,52 92,52" stroke-linejoin="round" width="16" height="24" fill="rgb(70,108,178)" stroke="rgb(56,86,142)" stroke-width="1" opacity="0.75" />
			</g>
		</g>
		<g>
			<title> (DBLALLCB_02482)
hypothetical protein</title>
			<polygon class=" (DBLALLCB_02482)
hypothetical protein" points="115,10 120,40 115,70" fill="rgb(255,255,255)" fill-opacity="1.0" stroke="rgb(0,0,0)" stroke-width="2"  />
		</g>
		<g>
			<title> (DBLALLCB_02483)
hypothetical protein</title>
			<polygon class=" (DBLALLCB_02483)
hypothetical protein" points="120,10 137,40 120,70" fill="rgb(255,255,255)" fill-opacity="1.0" stroke="rgb(0,0,0)" stroke-width="2"  />
			<g>
				<title>DUF5590 (PF17881)
"Domain of unknown function (DUF5590)"</title>
				<polygon class="PF17881" points="125,28 127,28 129,31 129,49 127,52 125,52" stroke-linejoin="round" width="4" height="24" fill="rgb(77,212,144)" stroke="rgb(61,169,115)" stroke-width="1" opacity="0.75" />
			</g>
		</g>
		<g>
			<title> (DBLALLCB_02484)
Aspartate aminotransferase</title>
			<polygon class=" (DBLALLCB_02484)
Aspartate aminotransferase" points="138,25 147,25 147,10 177,40 147,70 147,55 138,55" fill="rgb(255,255,255)" fill-opacity="1.0" stroke="rgb(0,0,0)" stroke-width="2"  />
			<g>
				<title>Aminotran_1_2 (PF00155)
"Aminotransferase class I and II"</title>
				<polygon class="PF00155" points="141,28 161,28 173,40 161,52 141,52" stroke-linejoin="round" width="35" height="24" fill="rgb(89,113,198)" stroke="rgb(71,90,158)" stroke-width="1" opacity="0.75" />
			</g>
		</g>
		<g>
			<title>asnS (DBLALLCB_02485)
Asparagine--tRNA ligase</title>
			<polygon class="asnS (DBLALLCB_02485)
Asparagine--tRNA ligase" points="178,25 191,25 191,10 221,40 191,70 191,55 178,55" fill="rgb(255,255,255)" fill-opacity="1.0" stroke="rgb(0,0,0)" stroke-width="2"  />
			<g>
				<title>tRNA_anti-codon (PF01336)
"OB-fold nucleic acid binding domain"</title>
				<rect class="PF01336" x="179" y="28" stroke-linejoin="round" width="7" height="24" fill="rgb(215,103,173)" stroke="rgb(172,82,138)" stroke-width="1" opacity="0.75" />
			</g>
			<g>
				<title>tRNA-synt_2 (PF00152)
"tRNA synthetases class II (D, K and N)"</title>
				<polygon class="PF00152" points="188,28 204,28 216,40 204,52 188,52" stroke-linejoin="round" width="31" height="24" fill="rgb(90,71,190)" stroke="rgb(72,56,152)" stroke-width="1" opacity="0.75" />
			</g>
		</g>
		<g>
			<title>dnaD (DBLALLCB_02486)
DNA replication protein DnaD</title>
			<polygon class="dnaD (DBLALLCB_02486)
DNA replication protein DnaD" points="225,10 247,40 225,70" fill="rgb(255,255,255)" fill-opacity="1.0" stroke="rgb(0,0,0)" stroke-width="2"  />
			<g>
				<title>DnaB_2 (PF07261)
"Replication initiation and membrane attachment"</title>
				<polygon class="PF07261" points="237,31 244,40 244,40 237,49" stroke-linejoin="round" width="7" height="24" fill="rgb(136,193,85)" stroke="rgb(108,154,68)" stroke-width="1" opacity="0.75" />
			</g>
		</g>
		<g>
			<title>nth (DBLALLCB_02487)
Endonuclease III</title>
			<polygon class="nth (DBLALLCB_02487)
Endonuclease III" points="249,10 271,40 249,70" fill="rgb(255,255,255)" fill-opacity="1.0" stroke="rgb(0,0,0)" stroke-width="2"  />
			<g>
				<title>HhH-GPD (PF00730)
"HhH-GPD superfamily base excision DNA repair protein"</title>
				<polygon class="PF00730" points="252,28 258,28 265,37 265,43 258,52 252,52" stroke-linejoin="round" width="13" height="24" fill="rgb(190,78,115)" stroke="rgb(152,62,92)" stroke-width="1" opacity="0.75" />
			</g>
		</g>
		<g>
			<title>ponA (DBLALLCB_02488)
Penicillin-binding protein 1A/1B</title>
			<polygon class="ponA (DBLALLCB_02488)
Penicillin-binding protein 1A/1B" points="360,25 303,25 303,10 273,40 303,70 303,55 360,55" fill="rgb(255,255,255)" fill-opacity="1.0" stroke="rgb(0,0,0)" stroke-width="2"  />
			<g>
				<title>fn3 (PF00041)
"Fibronectin type III domain"</title>
				<polygon class="PF00041" points="284,33 289,28 291,28 291,52 289,52 284,47" stroke-linejoin="round" width="7" height="24" fill="rgb(203,70,135)" stroke="rgb(162,56,107)" stroke-width="1" opacity="0.75" />
			</g>
			<g>
				<title>Transpeptidase (PF00905)
"Penicillin binding protein transpeptidase domain"</title>
				<rect class="PF00905" x="298" y="28" stroke-linejoin="round" width="27" height="24" fill="rgb(161,226,87)" stroke="rgb(128,180,69)" stroke-width="1" opacity="0.75" />
			</g>
			<g>
				<title>Transgly (PF00912)
"Transglycosylase"</title>
				<rect class="PF00912" x="334" y="28" stroke-linejoin="round" width="17" height="24" fill="rgb(172,107,216)" stroke="rgb(137,85,172)" stroke-width="1" opacity="0.75" />
			</g>
		</g>
		<g>
			<title>recU (DBLALLCB_02489)
Holliday junction resolvase RecU</title>
			<polygon class="recU (DBLALLCB_02489)
Holliday junction resolvase RecU" points="360,40 379,10 379,70" fill="rgb(255,255,255)" fill-opacity="1.0" stroke="rgb(0,0,0)" stroke-width="2"  />
			<g>
				<title>RecU (PF03838)
"Recombination protein U"</title>
				<polygon class="PF03838" points="364,40 372,28 376,28 376,52 372,52" stroke-linejoin="round" width="16" height="24" fill="rgb(93,204,83)" stroke="rgb(74,163,66)" stroke-width="1" opacity="0.75" />
			</g>
		</g>
		<g>
			<title> (DBLALLCB_02490)
hypothetical protein</title>
			<polygon class=" (DBLALLCB_02490)
hypothetical protein" points="389,40 392,10 392,70" fill="rgb(255,255,255)" fill-opacity="1.0" stroke="rgb(0,0,0)" stroke-width="2"  />
		</g>
		<g>
			<title>racA (DBLALLCB_02491)
Chromosome-anchoring protein RacA</title>
			<polygon class="racA (DBLALLCB_02491)
Chromosome-anchoring protein RacA" points="397,10 405,40 397,70" fill="rgb(255,255,255)" fill-opacity="1.0" stroke="rgb(0,0,0)" stroke-width="2"  />
		</g>
		<g>
			<title> (DBLALLCB_02492)
hypothetical protein</title>
			<polygon class=" (DBLALLCB_02492)
hypothetical protein" points="408,10 420,40 408,70" fill="rgb(255,255,255)" fill-opacity="1.0" stroke="rgb(0,0,0)" stroke-width="2"  />
			<g>
				<title>DUF1798 (PF08807)
"Bacterial domain of unknown function (DUF1798)"</title>
				<polygon class="PF08807" points="408,28 411,28 416,40 411,52 408,52" stroke-linejoin="round" width="10" height="24" fill="rgb(153,201,81)" stroke="rgb(122,160,64)" stroke-width="1" opacity="0.75" />
			</g>
		</g>
		<g>
			<title>cdd (DBLALLCB_02493)
Cytidine deaminase</title>
			<polygon class="cdd (DBLALLCB_02493)
Cytidine deaminase" points="424,10 437,40 424,70" fill="rgb(255,255,255)" fill-opacity="1.0" stroke="rgb(0,0,0)" stroke-width="2"  />
			<g>
				<title>dCMP_cyt_deam_1 (PF00383)
"Cytidine and deoxycytidylate deaminase zinc-binding region"</title>
				<polygon class="PF00383" points="424,28 428,28 434,40 434,40 428,52 424,52" stroke-linejoin="round" width="10" height="24" fill="rgb(91,149,216)" stroke="rgb(72,119,172)" stroke-width="1" opacity="0.75" />
			</g>
		</g>
		<g>
			<title> (DBLALLCB_02494)
hypothetical protein</title>
			<polygon class=" (DBLALLCB_02494)
hypothetical protein" points="446,10 461,40 446,70" fill="rgb(255,255,255)" fill-opacity="1.0" stroke="rgb(0,0,0)" stroke-width="2"  />
			<g>
				<title>Spore-coat_CotD (PF11122)
"Inner spore coat protein D"</title>
				<polygon class="PF11122" points="447,28 451,28 458,40 451,52 447,52" stroke-linejoin="round" width="13" height="24" fill="rgb(221,153,69)" stroke="rgb(176,122,55)" stroke-width="1" opacity="0.75" />
			</g>
		</g>
		<g>
			<title> (DBLALLCB_02495)
hypothetical protein</title>
			<polygon class=" (DBLALLCB_02495)
hypothetical protein" points="462,10 484,40 462,70" fill="rgb(255,255,255)" fill-opacity="1.0" stroke="rgb(0,0,0)" stroke-width="2"  />
			<g>
				<title>YpsA (PF06908)
"YspA SLOG family"</title>
				<polygon class="PF06908" points="466,28 471,28 480,40 471,52 466,52" stroke-linejoin="round" width="16" height="24" fill="rgb(136,100,209)" stroke="rgb(108,80,167)" stroke-width="1" opacity="0.75" />
			</g>
		</g>
		<g>
			<title>gpsB (DBLALLCB_02496)
Cell cycle protein GpsB</title>
			<polygon class="gpsB (DBLALLCB_02496)
Cell cycle protein GpsB" points="488,10 498,40 488,70" fill="rgb(255,255,255)" fill-opacity="1.0" stroke="rgb(0,0,0)" stroke-width="2"  />
			<g>
				<title>DivIVA (PF05103)
"DivIVA protein"</title>
				<polygon class="PF05103" points="488,28 490,28 494,37 494,43 490,52 488,52" stroke-linejoin="round" width="6" height="24" fill="rgb(213,106,117)" stroke="rgb(170,84,93)" stroke-width="1" opacity="0.75" />
			</g>
		</g>
		<g>
			<title>rlmL (DBLALLCB_02497)
Ribosomal RNA large subunit methyltransferase K/L</title>
			<polygon class="rlmL (DBLALLCB_02497)
Ribosomal RNA large subunit methyltransferase K/L" points="517,25 524,25 524,10 554,40 524,70 524,55 517,55" fill="rgb(255,255,255)" fill-opacity="1.0" stroke="rgb(0,0,0)" stroke-width="2"  />
			<g>
				<title>THUMP (PF02926)
"THUMP domain"</title>
				<rect class="PF02926" x="518" y="28" stroke-linejoin="round" width="14" height="24" fill="rgb(52,209,163)" stroke="rgb(41,167,130)" stroke-width="1" opacity="0.75" />
			</g>
			<g>
				<title>UPF0020 (PF01170)
"Putative RNA methylase family UPF0020"</title>
				<polygon class="PF01170" points="533,28 538,28 550,40 538,52 533,52" stroke-linejoin="round" width="20" height="24" fill="rgb(89,182,69)" stroke="rgb(71,145,55)" stroke-width="1" opacity="0.75" />
			</g>
		</g>
		<g>
			<title>ypwA (DBLALLCB_02498)
Carboxypeptidase 1</title>
			<polygon class="ypwA (DBLALLCB_02498)
Carboxypeptidase 1" points="556,25 575,25 575,10 605,40 575,70 575,55 556,55" fill="rgb(255,255,255)" fill-opacity="1.0" stroke="rgb(0,0,0)" stroke-width="2"  />
			<g>
				<title>Peptidase_M32 (PF02074)
"Carboxypeptidase Taq (M32) metallopeptidase"</title>
				<polygon class="PF02074" points="556,28 589,28 601,40 589,52 556,52" stroke-linejoin="round" width="48" height="24" fill="rgb(213,142,93)" stroke="rgb(170,113,74)" stroke-width="1" opacity="0.75" />
			</g>
		</g>
		<g>
			<title> (DBLALLCB_02499)
hypothetical protein</title>
			<polygon class=" (DBLALLCB_02499)
hypothetical protein" points="608,40 626,10 626,70" fill="rgb(255,255,255)" fill-opacity="1.0" stroke="rgb(0,0,0)" stroke-width="2"  />
		</g>
		<g>
			<title>gno (DBLALLCB_02500)
Gluconate 5-dehydrogenase</title>
			<polygon class="gno (DBLALLCB_02500)
Gluconate 5-dehydrogenase" points="630,10 655,40 630,70" fill="rgb(255,255,255)" fill-opacity="1.0" stroke="rgb(0,0,0)" stroke-width="2"  />
			<g>
				<title>adh_short_C2 (PF13561)
"Enoyl-(Acyl carrier protein) reductase"</title>
				<polygon class="PF13561" points="631,28 641,28 651,40 641,52 631,52" stroke-linejoin="round" width="23" height="24" fill="rgb(73,205,127)" stroke="rgb(58,164,101)" stroke-width="1" opacity="0.75" />
			</g>
		</g>
		<g>
			<title> (DBLALLCB_02501)
hypothetical protein</title>
			<polygon class=" (DBLALLCB_02501)
hypothetical protein" points="657,40 672,10 672,70" fill="rgb(255,255,255)" fill-opacity="1.0" stroke="rgb(0,0,0)" stroke-width="2"  />
			<g>
				<title>CheX (PF13690)
"Chemotaxis phosphatase CheX"</title>
				<polygon class="PF13690" points="660,40 666,28 667,28 667,52 666,52" stroke-linejoin="round" width="10" height="24" fill="rgb(55,220,212)" stroke="rgb(44,176,169)" stroke-width="1" opacity="0.75" />
			</g>
		</g>
		<g>
			<title> (DBLALLCB_02502)
Alpha-pyrone synthesis polyketide synthase-like Pks11</title>
			<polygon class=" (DBLALLCB_02502)
Alpha-pyrone synthesis polyketide synthase-like Pks11" points="676,25 682,25 682,10 712,40 682,70 682,55 676,55" fill="rgb(255,255,255)" fill-opacity="1.0" stroke="rgb(0,0,0)" stroke-width="2"  />
			<g>
				<title>Chal_sti_synt_N (PF00195)
"Chalcone and stilbene synthases, N-terminal domain"</title>
				<polygon class="PF00195" points="676,28 695,28 696,29 696,51 695,52 676,52" stroke-linejoin="round" width="20" height="24" fill="rgb(60,181,161)" stroke="rgb(47,144,128)" stroke-width="1" opacity="0.75" />
			</g>
			<g>
				<title>Chal_sti_synt_C (PF02797)
"Chalcone and stilbene synthases, C-terminal domain"</title>
				<polygon class="PF02797" points="698,31 707,40 698,49" stroke-linejoin="round" width="13" height="24" fill="rgb(139,212,63)" stroke="rgb(111,169,50)" stroke-width="1" opacity="0.75" />
			</g>
		</g>
		<g>
			<title> (DBLALLCB_02503)
hypothetical protein</title>
			<polygon class=" (DBLALLCB_02503)
hypothetical protein" points="712,10 729,40 712,70" fill="rgb(255,255,255)" fill-opacity="1.0" stroke="rgb(0,0,0)" stroke-width="2"  />
			<g>
				<title>ICMT (PF04140)
"Isoprenylcysteine carboxyl methyltransferase (ICMT) family"</title>
				<polygon class="PF04140" points="719,29 725,40 719,51" stroke-linejoin="round" width="9" height="24" fill="rgb(100,223,104)" stroke="rgb(80,178,83)" stroke-width="1" opacity="0.75" />
			</g>
		</g>
		<g>
			<title> (DBLALLCB_02504)
hypothetical protein</title>
			<polygon class=" (DBLALLCB_02504)
hypothetical protein" points="732,10 737,40 732,70" fill="rgb(255,255,255)" fill-opacity="1.0" stroke="rgb(0,0,0)" stroke-width="2"  />
		</g>
		<g>
			<title> (DBLALLCB_02505)
hypothetical protein</title>
			<polygon class=" (DBLALLCB_02505)
hypothetical protein" points="742,10 752,40 742,70" fill="rgb(255,255,255)" fill-opacity="1.0" stroke="rgb(0,0,0)" stroke-width="2"  />
		</g>
		<g>
			<title>rnhA (DBLALLCB_02506)
14.7 kDa ribonuclease H-like protein</title>
			<polygon class="rnhA (DBLALLCB_02506)
14.7 kDa ribonuclease H-like protein" points="752,40 765,10 765,70" fill="rgb(255,255,255)" fill-opacity="1.0" stroke="rgb(0,0,0)" stroke-width="2"  />
			<g>
				<title>RVT_3 (PF13456)
"Reverse transcriptase-like"</title>
				<polygon class="PF13456" points="755,40 760,28 764,28 764,52 760,52" stroke-linejoin="round" width="12" height="24" fill="rgb(198,123,86)" stroke="rgb(158,98,68)" stroke-width="1" opacity="0.75" />
			</g>
		</g>
		<g>
			<title>cspA_1 (DBLALLCB_02507)
Cold shock protein CspA</title>
			<polygon class="cspA_1 (DBLALLCB_02507)
Cold shock protein CspA" points="772,40 778,10 778,70" fill="rgb(255,255,255)" fill-opacity="1.0" stroke="rgb(0,0,0)" stroke-width="2"  />
			<g>
				<title>CSD (PF00313)
"'Cold-shock' DNA-binding domain"</title>
				<polygon class="PF00313" points="775,40 778,28 778,28 778,52 778,52" stroke-linejoin="round" width="6" height="24" fill="rgb(87,72,181)" stroke="rgb(69,57,144)" stroke-width="1" opacity="0.75" />
			</g>
		</g>
		<g>
			<title>gloB_3 (DBLALLCB_02508)
Hydroxyacylglutathione hydrolase</title>
			<polygon class="gloB_3 (DBLALLCB_02508)
Hydroxyacylglutathione hydrolase" points="789,25 790,25 790,10 820,40 790,70 790,55 789,55" fill="rgb(255,255,255)" fill-opacity="1.0" stroke="rgb(0,0,0)" stroke-width="2"  />
			<g>
				<title>Lactamase_B (PF00753)
"Metallo-beta-lactamase superfamily"</title>
				<polygon class="PF00753" points="791,28 804,28 811,35 811,45 804,52 791,52" stroke-linejoin="round" width="20" height="24" fill="rgb(206,198,96)" stroke="rgb(164,158,76)" stroke-width="1" opacity="0.75" />
			</g>
		</g>
		<g>
			<title>kefB_1 (DBLALLCB_02509)
Glutathione-regulated potassium-efflux system protein KefB</title>
			<polygon class="kefB_1 (DBLALLCB_02509)
Glutathione-regulated potassium-efflux system protein KefB" points="882,25 851,25 851,10 821,40 851,70 851,55 882,55" fill="rgb(255,255,255)" fill-opacity="1.0" stroke="rgb(0,0,0)" stroke-width="2"  />
			<g>
				<title>TrkA_C (PF02080)
"TrkA-C domain"</title>
				<polygon class="PF02080" points="825,40 827,38 827,42" stroke-linejoin="round" width="6" height="24" fill="rgb(76,186,211)" stroke="rgb(60,148,168)" stroke-width="1" opacity="0.75" />
			</g>
			<g>
				<title>TrkA_N (PF02254)
"TrkA-N domain"</title>
				<polygon class="PF02254" points="831,34 837,28 842,28 842,52 837,52 831,46" stroke-linejoin="round" width="11" height="24" fill="rgb(120,217,104)" stroke="rgb(96,173,83)" stroke-width="1" opacity="0.75" />
			</g>
			<g>
				<title>Na_H_Exchanger (PF00999)
"Sodium/hydrogen exchanger family"</title>
				<rect class="PF00999" x="843" y="28" stroke-linejoin="round" width="37" height="24" fill="rgb(229,67,191)" stroke="rgb(183,53,152)" stroke-width="1" opacity="0.75" />
			</g>
		</g>
		<g>
			<title> (DBLALLCB_02510)
hypothetical protein</title>
			<polygon class=" (DBLALLCB_02510)
hypothetical protein" points="882,40 888,10 888,70" fill="rgb(255,255,255)" fill-opacity="1.0" stroke="rgb(0,0,0)" stroke-width="2"  />
		</g>
		<g>
			<title>ppc (DBLALLCB_02511)
Phosphoenolpyruvate carboxylase</title>
			<polygon class="ppc (DBLALLCB_02511)
Phosphoenolpyruvate carboxylase" points="988,25 922,25 922,10 892,40 922,70 922,55 988,55" fill="rgb(255,255,255)" fill-opacity="1.0" stroke="rgb(0,0,0)" stroke-width="2"  />
			<g>
				<title>PEPcase (PF00311)
"Phosphoenolpyruvate carboxylase"</title>
				<polygon class="PF00311" points="896,40 908,28 969,28 969,52 908,52" stroke-linejoin="round" width="77" height="24" fill="rgb(124,203,60)" stroke="rgb(99,162,47)" stroke-width="1" opacity="0.75" />
			</g>
		</g>
		<g>
			<title> (DBLALLCB_02512)
hypothetical protein</title>
			<polygon class=" (DBLALLCB_02512)
hypothetical protein" points="992,10 1012,40 992,70" fill="rgb(255,255,255)" fill-opacity="1.0" stroke="rgb(0,0,0)" stroke-width="2"  />
			<g>
				<title>YpjP (PF14005)
"YpjP-like protein"</title>
				<polygon class="PF14005" points="998,28 1000,28 1008,40 1000,52 998,52" stroke-linejoin="round" width="13" height="24" fill="rgb(224,70,142)" stroke="rgb(179,56,113)" stroke-width="1" opacity="0.75" />
			</g>
		</g>
		<g>
			<title> (DBLALLCB_02513)
hypothetical protein</title>
			<polygon class=" (DBLALLCB_02513)
hypothetical protein" points="1016,25 1021,25 1021,10 1051,40 1021,70 1021,55 1016,55" fill="rgb(255,255,255)" fill-opacity="1.0" stroke="rgb(0,0,0)" stroke-width="2"  />
			<g>
				<title>Peptidase_M19 (PF01244)
"Membrane dipeptidase (Peptidase family M19)"</title>
				<polygon class="PF01244" points="1016,28 1034,28 1046,40 1034,52 1016,52" stroke-linejoin="round" width="34" height="24" fill="rgb(178,227,92)" stroke="rgb(142,181,73)" stroke-width="1" opacity="0.75" />
			</g>
		</g>
		<g>
			<title>ydgH (DBLALLCB_02514)
Putative membrane protein YdgH</title>
			<polygon class="ydgH (DBLALLCB_02514)
Putative membrane protein YdgH" points="1141,25 1083,25 1083,10 1053,40 1083,70 1083,55 1141,55" fill="rgb(255,255,255)" fill-opacity="1.0" stroke="rgb(0,0,0)" stroke-width="2"  />
			<g>
				<title>MMPL (PF03176)
"MMPL family"</title>
				<polygon class="PF03176" points="1057,40 1069,28 1087,28 1087,52 1069,52" stroke-linejoin="round" width="34" height="24" fill="rgb(228,109,193)" stroke="rgb(182,87,154)" stroke-width="1" opacity="0.75" />
			</g>
			<g>
				<title>MMPL (PF03176)
"MMPL family"</title>
				<rect class="PF03176" x="1105" y="28" stroke-linejoin="round" width="32" height="24" fill="rgb(228,109,193)" stroke="rgb(182,87,154)" stroke-width="1" opacity="0.75" />
			</g>
		</g>
		<g>
			<title> (DBLALLCB_02515)
hypothetical protein</title>
			<polygon class=" (DBLALLCB_02515)
hypothetical protein" points="1141,40 1157,10 1157,70" fill="rgb(255,255,255)" fill-opacity="1.0" stroke="rgb(0,0,0)" stroke-width="2"  />
			<g>
				<title>MarR_2 (PF12802)
"MarR family"</title>
				<polygon class="PF12802" points="1146,36 1150,28 1151,28 1151,52 1150,52 1146,44" stroke-linejoin="round" width="5" height="24" fill="rgb(46,89,185)" stroke="rgb(36,71,148)" stroke-width="1" opacity="0.75" />
			</g>
		</g>
		<g>
			<title> (DBLALLCB_02516)
hypothetical protein</title>
			<polygon class=" (DBLALLCB_02516)
hypothetical protein" points="1163,10 1167,40 1163,70" fill="rgb(255,255,255)" fill-opacity="1.0" stroke="rgb(0,0,0)" stroke-width="2"  />
			<g>
				<title>YpzI (PF14140)
"YpzI-like protein"</title>
				<polygon class="PF14140" points="1163,31 1164,40 1163,49" stroke-linejoin="round" width="4" height="24" fill="rgb(68,123,191)" stroke="rgb(54,98,152)" stroke-width="1" opacity="0.75" />
			</g>
		</g>
		<g>
			<title>fhs (DBLALLCB_02517)
Formate--tetrahydrofolate ligase</title>
			<polygon class="fhs (DBLALLCB_02517)
Formate--tetrahydrofolate ligase" points="1181,25 1206,25 1206,10 1236,40 1206,70 1206,55 1181,55" fill="rgb(255,255,255)" fill-opacity="1.0" stroke="rgb(0,0,0)" stroke-width="2"  />
			<g>
				<title>FTHFS (PF01268)
"Formate--tetrahydrofolate ligase"</title>
				<polygon class="PF01268" points="1181,28 1220,28 1232,40 1220,52 1181,52" stroke-linejoin="round" width="55" height="24" fill="rgb(215,182,81)" stroke="rgb(172,145,64)" stroke-width="1" opacity="0.75" />
			</g>
		</g>
		<g>
			<title> (DBLALLCB_02518)
hypothetical protein</title>
			<polygon class=" (DBLALLCB_02518)
hypothetical protein" points="1240,10 1269,40 1240,70" fill="rgb(255,255,255)" fill-opacity="1.0" stroke="rgb(0,0,0)" stroke-width="2"  />
			<g>
				<title>DUF72 (PF01904)
"Protein of unknown function DUF72"</title>
				<polygon class="PF01904" points="1241,28 1252,28 1264,40 1252,52 1241,52" stroke-linejoin="round" width="24" height="24" fill="rgb(63,151,204)" stroke="rgb(50,120,163)" stroke-width="1" opacity="0.75" />
			</g>
		</g>
		<g>
			<title>yedJ (DBLALLCB_02519)
putative protein YedJ</title>
			<polygon class="yedJ (DBLALLCB_02519)
putative protein YedJ" points="1268,10 1288,40 1268,70" fill="rgb(255,255,255)" fill-opacity="1.0" stroke="rgb(0,0,0)" stroke-width="2"  />
			<g>
				<title>HD (PF01966)
"HD domain"</title>
				<polygon class="PF01966" points="1270,28 1276,28 1279,32 1279,48 1276,52 1270,52" stroke-linejoin="round" width="9" height="24" fill="rgb(92,193,119)" stroke="rgb(73,154,95)" stroke-width="1" opacity="0.75" />
			</g>
		</g>
		<g>
			<title>thyA (DBLALLCB_02520)
Thymidylate synthase</title>
			<polygon class="thyA (DBLALLCB_02520)
Thymidylate synthase" points="1290,25 1292,25 1292,10 1322,40 1292,70 1292,55 1290,55" fill="rgb(255,255,255)" fill-opacity="1.0" stroke="rgb(0,0,0)" stroke-width="2"  />
			<g>
				<title>Thymidylat_synt (PF00303)
"Thymidylate synthase"</title>
				<polygon class="PF00303" points="1290,28 1305,28 1317,40 1305,52 1290,52" stroke-linejoin="round" width="31" height="24" fill="rgb(103,91,191)" stroke="rgb(82,72,152)" stroke-width="1" opacity="0.75" />
			</g>
		</g>
		<g>
			<title> (DBLALLCB_02521)
IS1595 family transposase ISSsu9</title>
			<polygon class=" (DBLALLCB_02521)
IS1595 family transposase ISSsu9" points="1322,10 1338,40 1322,70" fill="rgb(255,255,255)" fill-opacity="1.0" stroke="rgb(0,0,0)" stroke-width="2"  />
			<g>
				<title>DHFR_1 (PF00186)
"Dihydrofolate reductase"</title>
				<polygon class="PF00186" points="1322,28 1328,28 1335,40 1328,52 1322,52" stroke-linejoin="round" width="16" height="24" fill="rgb(150,188,63)" stroke="rgb(119,150,50)" stroke-width="1" opacity="0.75" />
			</g>
		</g>
		<g>
			<title>mobA (DBLALLCB_02522)
Molybdenum cofactor guanylyltransferase</title>
			<polygon class="mobA (DBLALLCB_02522)
Molybdenum cofactor guanylyltransferase" points="1339,10 1358,40 1339,70" fill="rgb(255,255,255)" fill-opacity="1.0" stroke="rgb(0,0,0)" stroke-width="2"  />
			<g>
				<title>NTP_transf_3 (PF12804)
"MobA-like NTP transferase domain"</title>
				<polygon class="PF12804" points="1339,28 1347,28 1353,38 1353,42 1347,52 1339,52" stroke-linejoin="round" width="14" height="24" fill="rgb(52,209,196)" stroke="rgb(41,167,156)" stroke-width="1" opacity="0.75" />
			</g>
		</g>
		<g>
			<title>tatAd_1 (DBLALLCB_02523)
Sec-independent protein translocase protein TatAd</title>
			<polygon class="tatAd_1 (DBLALLCB_02523)
Sec-independent protein translocase protein TatAd" points="1362,10 1369,40 1362,70" fill="rgb(255,255,255)" fill-opacity="1.0" stroke="rgb(0,0,0)" stroke-width="2"  />
			<g>
				<title>MttA_Hcf106 (PF02416)
"mttA/Hcf106 family"</title>
				<polygon class="PF02416" points="1362,28 1362,28 1366,40 1362,52 1362,52" stroke-linejoin="round" width="6" height="24" fill="rgb(74,206,98)" stroke="rgb(59,164,78)" stroke-width="1" opacity="0.75" />
			</g>
		</g>
		<g>
			<title>tatAd_2 (DBLALLCB_02524)
Sec-independent protein translocase protein TatAd</title>
			<polygon class="tatAd_2 (DBLALLCB_02524)
Sec-independent protein translocase protein TatAd" points="1370,10 1376,40 1370,70" fill="rgb(255,255,255)" fill-opacity="1.0" stroke="rgb(0,0,0)" stroke-width="2"  />
			<g>
				<title>MttA_Hcf106 (PF02416)
"mttA/Hcf106 family"</title>
				<polygon class="PF02416" points="1370,28 1370,28 1373,40 1370,52 1370,52" stroke-linejoin="round" width="5" height="24" fill="rgb(74,206,98)" stroke="rgb(59,164,78)" stroke-width="1" opacity="0.75" />
			</g>
		</g>
	</g>
</svg>
