<svg version="1.1" baseProfile="full" xmlns="http://www.w3.org/2000/svg" width="1526.3333333333333" height="80">
	<g>
		<line x1="10" y1="40.0" x2="1516.3333333333333" y2="40.0" style="stroke:rgb(70,70,70); stroke-width:3 "/>
		<g>
			<title>ldh (DBLALLCB_02305)
Leucine dehydrogenase</title>
			<polygon class="ldh (DBLALLCB_02305)
Leucine dehydrogenase" points="30,25 36,25 36,10 66,40 36,70 36,55 30,55" fill="rgb(255,255,255)" fill-opacity="1.0" stroke="rgb(0,0,0)" stroke-width="2"  />
			<g>
				<title>ELFV_dehydrog_N (PF02812)
"Glu/Leu/Phe/Val dehydrogenase, dimerisation domain"</title>
				<rect class="PF02812" x="31" y="28" stroke-linejoin="round" width="11" height="24" fill="rgb(157,52,200)" stroke="rgb(125,41,160)" stroke-width="1" opacity="0.75" />
			</g>
			<g>
				<title>ELFV_dehydrog (PF00208)
"Glutamate/Leucine/Phenylalanine/Valine dehydrogenase"</title>
				<rect class="PF00208" x="44" y="28" stroke-linejoin="round" width="6" height="24" fill="rgb(181,160,45)" stroke="rgb(144,128,36)" stroke-width="1" opacity="0.75" />
			</g>
			<g>
				<title>ELFV_dehydrog (PF00208)
"Glutamate/Leucine/Phenylalanine/Valine dehydrogenase"</title>
				<polygon class="PF00208" points="49,28 50,28 62,40 50,52 49,52" stroke-linejoin="round" width="15" height="24" fill="rgb(181,160,45)" stroke="rgb(144,128,36)" stroke-width="1" opacity="0.75" />
			</g>
		</g>
		<g>
			<title>buk2 (DBLALLCB_02306)
Butyrate kinase 2</title>
			<polygon class="buk2 (DBLALLCB_02306)
Butyrate kinase 2" points="67,25 73,25 73,10 103,40 73,70 73,55 67,55" fill="rgb(255,255,255)" fill-opacity="1.0" stroke="rgb(0,0,0)" stroke-width="2"  />
			<g>
				<title>Acetate_kinase (PF00871)
"Acetokinase family"</title>
				<polygon class="PF00871" points="67,28 87,28 99,40 87,52 67,52" stroke-linejoin="round" width="34" height="24" fill="rgb(71,79,223)" stroke="rgb(56,63,178)" stroke-width="1" opacity="0.75" />
			</g>
		</g>
		<g>
			<title>pdhD_1 (DBLALLCB_02307)
Dihydrolipoyl dehydrogenase</title>
			<polygon class="pdhD_1 (DBLALLCB_02307)
Dihydrolipoyl dehydrogenase" points="104,25 121,25 121,10 151,40 121,70 121,55 104,55" fill="rgb(255,255,255)" fill-opacity="1.0" stroke="rgb(0,0,0)" stroke-width="2"  />
			<g>
				<title>Pyr_redox_2 (PF07992)
"Pyridine nucleotide-disulphide oxidoreductase"</title>
				<polygon class="PF07992" points="104,28 135,28 136,29 136,51 135,52 104,52" stroke-linejoin="round" width="32" height="24" fill="rgb(83,223,167)" stroke="rgb(66,178,133)" stroke-width="1" opacity="0.75" />
			</g>
			<g>
				<title>Pyr_redox_dim (PF02852)
"Pyridine nucleotide-disulphide oxidoreductase, dimerisation domain"</title>
				<polygon class="PF02852" points="139,32 147,40 139,48" stroke-linejoin="round" width="10" height="24" fill="rgb(191,148,67)" stroke="rgb(152,118,53)" stroke-width="1" opacity="0.75" />
			</g>
		</g>
		<g>
			<title>bfmBAA (DBLALLCB_02308)
2-oxoisovalerate dehydrogenase subunit alpha</title>
			<polygon class="bfmBAA (DBLALLCB_02308)
2-oxoisovalerate dehydrogenase subunit alpha" points="152,25 155,25 155,10 185,40 155,70 155,55 152,55" fill="rgb(255,255,255)" fill-opacity="1.0" stroke="rgb(0,0,0)" stroke-width="2"  />
			<g>
				<title>E1_dh (PF00676)
"Dehydrogenase E1 component"</title>
				<polygon class="PF00676" points="154,28 168,28 180,40 168,52 154,52" stroke-linejoin="round" width="30" height="24" fill="rgb(180,115,48)" stroke="rgb(144,92,38)" stroke-width="1" opacity="0.75" />
			</g>
		</g>
		<g>
			<title>bfmBAB (DBLALLCB_02309)
2-oxoisovalerate dehydrogenase subunit beta</title>
			<polygon class="bfmBAB (DBLALLCB_02309)
2-oxoisovalerate dehydrogenase subunit beta" points="186,25 188,25 188,10 218,40 188,70 188,55 186,55" fill="rgb(255,255,255)" fill-opacity="1.0" stroke="rgb(0,0,0)" stroke-width="2"  />
			<g>
				<title>Transket_pyr (PF02779)
"Transketolase, pyrimidine binding domain"</title>
				<polygon class="PF02779" points="186,28 202,28 203,29 203,51 202,52 186,52" stroke-linejoin="round" width="17" height="24" fill="rgb(189,186,84)" stroke="rgb(151,148,67)" stroke-width="1" opacity="0.75" />
			</g>
			<g>
				<title>Transketolase_C (PF02780)
"Transketolase, C-terminal domain"</title>
				<polygon class="PF02780" points="205,31 214,40 205,49" stroke-linejoin="round" width="12" height="24" fill="rgb(76,206,101)" stroke="rgb(60,164,80)" stroke-width="1" opacity="0.75" />
			</g>
		</g>
		<g>
			<title>pdhC_2 (DBLALLCB_02310)
Dihydrolipoyllysine-residue acetyltransferase component of pyruvate dehydrogenase complex</title>
			<polygon class="pdhC_2 (DBLALLCB_02310)
Dihydrolipoyllysine-residue acetyltransferase component of pyruvate dehydrogenase complex" points="219,25 232,25 232,10 262,40 232,70 232,55 219,55" fill="rgb(255,255,255)" fill-opacity="1.0" stroke="rgb(0,0,0)" stroke-width="2"  />
			<g>
				<title>Biotin_lipoyl (PF00364)
"Biotin-requiring enzyme"</title>
				<rect class="PF00364" x="219" y="28" stroke-linejoin="round" width="7" height="24" fill="rgb(67,214,213)" stroke="rgb(53,171,170)" stroke-width="1" opacity="0.75" />
			</g>
			<g>
				<title>E3_binding (PF02817)
"e3 binding domain"</title>
				<rect class="PF02817" x="231" y="28" stroke-linejoin="round" width="3" height="24" fill="rgb(217,136,99)" stroke="rgb(173,108,79)" stroke-width="1" opacity="0.75" />
			</g>
			<g>
				<title>2-oxoacid_dh (PF00198)
"2-oxoacid dehydrogenases acyltransferase (catalytic domain)"</title>
				<polygon class="PF00198" points="239,28 246,28 258,40 246,52 239,52" stroke-linejoin="round" width="22" height="24" fill="rgb(204,74,202)" stroke="rgb(163,59,161)" stroke-width="1" opacity="0.75" />
			</g>
		</g>
		<g>
			<title>garR_2 (DBLALLCB_02311)
2-hydroxy-3-oxopropionate reductase</title>
			<polygon class="garR_2 (DBLALLCB_02311)
2-hydroxy-3-oxopropionate reductase" points="266,40 295,10 295,70" fill="rgb(255,255,255)" fill-opacity="1.0" stroke="rgb(0,0,0)" stroke-width="2"  />
			<g>
				<title>NAD_binding_11 (PF14833)
"NAD-binding of NADP-dependent 3-hydroxyisobutyrate dehydrogenase"</title>
				<polygon class="PF14833" points="270,40 278,32 278,48" stroke-linejoin="round" width="12" height="24" fill="rgb(141,199,89)" stroke="rgb(112,159,71)" stroke-width="1" opacity="0.75" />
			</g>
			<g>
				<title>NAD_binding_2 (PF03446)
"NAD binding domain of 6-phosphogluconate dehydrogenase"</title>
				<polygon class="PF03446" points="279,31 282,28 294,28 294,52 282,52 279,49" stroke-linejoin="round" width="15" height="24" fill="rgb(205,164,98)" stroke="rgb(164,131,78)" stroke-width="1" opacity="0.75" />
			</g>
		</g>
		<g>
			<title>yokD_2 (DBLALLCB_02312)
SPbeta prophage-derived aminoglycoside N(3')-acetyltransferase-like protein YokD</title>
			<polygon class="yokD_2 (DBLALLCB_02312)
SPbeta prophage-derived aminoglycoside N(3')-acetyltransferase-like protein YokD" points="300,10 326,40 300,70" fill="rgb(255,255,255)" fill-opacity="1.0" stroke="rgb(0,0,0)" stroke-width="2"  />
			<g>
				<title>Antibiotic_NAT (PF02522)
"Aminoglycoside 3-N-acetyltransferase"</title>
				<polygon class="PF02522" points="303,28 311,28 322,40 311,52 303,52" stroke-linejoin="round" width="22" height="24" fill="rgb(93,59,220)" stroke="rgb(74,47,176)" stroke-width="1" opacity="0.75" />
			</g>
		</g>
		<g>
			<title> (DBLALLCB_02313)
hypothetical protein</title>
			<polygon class=" (DBLALLCB_02313)
hypothetical protein" points="328,10 348,40 328,70" fill="rgb(255,255,255)" fill-opacity="1.0" stroke="rgb(0,0,0)" stroke-width="2"  />
			<g>
				<title>Zn_dep_PLPC (PF00882)
"Zinc dependent phospholipase C"</title>
				<polygon class="PF00882" points="328,28 336,28 343,37 343,43 336,52 328,52" stroke-linejoin="round" width="15" height="24" fill="rgb(180,84,205)" stroke="rgb(144,67,164)" stroke-width="1" opacity="0.75" />
			</g>
		</g>
		<g>
			<title>besA (DBLALLCB_02314)
Ferri-bacillibactin esterase BesA</title>
			<polygon class="besA (DBLALLCB_02314)
Ferri-bacillibactin esterase BesA" points="350,40 377,10 377,70" fill="rgb(255,255,255)" fill-opacity="1.0" stroke="rgb(0,0,0)" stroke-width="2"  />
			<g>
				<title>Esterase (PF00756)
"Putative esterase"</title>
				<polygon class="PF00756" points="354,40 365,28 374,28 374,52 365,52" stroke-linejoin="round" width="23" height="24" fill="rgb(217,132,77)" stroke="rgb(173,105,61)" stroke-width="1" opacity="0.75" />
			</g>
		</g>
		<g>
			<title>yusV_3 (DBLALLCB_02315)
putative siderophore transport system ATP-binding protein YusV</title>
			<polygon class="yusV_3 (DBLALLCB_02315)
putative siderophore transport system ATP-binding protein YusV" points="377,40 404,10 404,70" fill="rgb(255,255,255)" fill-opacity="1.0" stroke="rgb(0,0,0)" stroke-width="2"  />
			<g>
				<title>ABC_tran (PF00005)
"ABC transporter"</title>
				<polygon class="PF00005" points="387,34 392,28 401,28 401,52 392,52 387,46" stroke-linejoin="round" width="14" height="24" fill="rgb(129,201,63)" stroke="rgb(103,160,50)" stroke-width="1" opacity="0.75" />
			</g>
		</g>
		<g>
			<title>feuC_3 (DBLALLCB_02316)
Iron-uptake system permease protein FeuC</title>
			<polygon class="feuC_3 (DBLALLCB_02316)
Iron-uptake system permease protein FeuC" points="439,25 435,25 435,10 405,40 435,70 435,55 439,55" fill="rgb(255,255,255)" fill-opacity="1.0" stroke="rgb(0,0,0)" stroke-width="2"  />
			<g>
				<title>FecCD (PF01032)
"FecCD transport family"</title>
				<polygon class="PF01032" points="409,40 421,28 437,28 437,52 421,52" stroke-linejoin="round" width="32" height="24" fill="rgb(210,177,70)" stroke="rgb(168,141,56)" stroke-width="1" opacity="0.75" />
			</g>
		</g>
		<g>
			<title>feuB_2 (DBLALLCB_02317)
Iron-uptake system permease protein FeuB</title>
			<polygon class="feuB_2 (DBLALLCB_02317)
Iron-uptake system permease protein FeuB" points="472,25 469,25 469,10 439,40 469,70 469,55 472,55" fill="rgb(255,255,255)" fill-opacity="1.0" stroke="rgb(0,0,0)" stroke-width="2"  />
			<g>
				<title>FecCD (PF01032)
"FecCD transport family"</title>
				<polygon class="PF01032" points="443,40 455,28 470,28 470,52 455,52" stroke-linejoin="round" width="31" height="24" fill="rgb(210,177,70)" stroke="rgb(168,141,56)" stroke-width="1" opacity="0.75" />
			</g>
		</g>
		<g>
			<title>feuA (DBLALLCB_02318)
Iron-uptake system-binding protein</title>
			<polygon class="feuA (DBLALLCB_02318)
Iron-uptake system-binding protein" points="506,25 503,25 503,10 473,40 503,70 503,55 506,55" fill="rgb(255,255,255)" fill-opacity="1.0" stroke="rgb(0,0,0)" stroke-width="2"  />
			<g>
				<title>Peripla_BP_2 (PF01497)
"Periplasmic binding protein"</title>
				<polygon class="PF01497" points="477,40 489,28 498,28 498,52 489,52" stroke-linejoin="round" width="23" height="24" fill="rgb(183,226,104)" stroke="rgb(146,180,83)" stroke-width="1" opacity="0.75" />
			</g>
		</g>
		<g>
			<title>dhbA (DBLALLCB_02319)
2,3-dihydro-2,3-dihydroxybenzoate dehydrogenase</title>
			<polygon class="dhbA (DBLALLCB_02319)
2,3-dihydro-2,3-dihydroxybenzoate dehydrogenase" points="521,10 547,40 521,70" fill="rgb(255,255,255)" fill-opacity="1.0" stroke="rgb(0,0,0)" stroke-width="2"  />
			<g>
				<title>adh_short_C2 (PF13561)
"Enoyl-(Acyl carrier protein) reductase"</title>
				<polygon class="PF13561" points="522,28 533,28 543,40 533,52 522,52" stroke-linejoin="round" width="24" height="24" fill="rgb(73,205,127)" stroke="rgb(58,164,101)" stroke-width="1" opacity="0.75" />
			</g>
		</g>
		<g>
			<title>dhbC (DBLALLCB_02320)
Isochorismate synthase DhbC</title>
			<polygon class="dhbC (DBLALLCB_02320)
Isochorismate synthase DhbC" points="549,25 559,25 559,10 589,40 559,70 559,55 549,55" fill="rgb(255,255,255)" fill-opacity="1.0" stroke="rgb(0,0,0)" stroke-width="2"  />
			<g>
				<title>Chorismate_bind (PF00425)
"chorismate binding enzyme"</title>
				<polygon class="PF00425" points="561,28 573,28 585,40 573,52 561,52" stroke-linejoin="round" width="26" height="24" fill="rgb(188,116,88)" stroke="rgb(150,92,70)" stroke-width="1" opacity="0.75" />
			</g>
		</g>
		<g>
			<title>dhbE (DBLALLCB_02321)
2,3-dihydroxybenzoate-AMP ligase</title>
			<polygon class="dhbE (DBLALLCB_02321)
2,3-dihydroxybenzoate-AMP ligase" points="590,25 614,25 614,10 644,40 614,70 614,55 590,55" fill="rgb(255,255,255)" fill-opacity="1.0" stroke="rgb(0,0,0)" stroke-width="2"  />
			<g>
				<title>AMP-binding (PF00501)
"AMP-binding enzyme"</title>
				<polygon class="PF00501" points="593,28 628,28 633,33 633,47 628,52 593,52" stroke-linejoin="round" width="40" height="24" fill="rgb(60,217,223)" stroke="rgb(48,173,178)" stroke-width="1" opacity="0.75" />
			</g>
			<g>
				<title>AMP-binding_C (PF13193)
"AMP-binding enzyme C-terminal domain"</title>
				<polygon class="PF13193" points="634,34 640,40 634,46" stroke-linejoin="round" width="7" height="24" fill="rgb(182,50,118)" stroke="rgb(145,39,94)" stroke-width="1" opacity="0.75" />
			</g>
		</g>
		<g>
			<title>dhbB_1 (DBLALLCB_02322)
Isochorismatase</title>
			<polygon class="dhbB_1 (DBLALLCB_02322)
Isochorismatase" points="645,25 645,25 645,10 675,40 645,70 645,55 645,55" fill="rgb(255,255,255)" fill-opacity="1.0" stroke="rgb(0,0,0)" stroke-width="2"  />
			<g>
				<title>Isochorismatase (PF00857)
"Isochorismatase family"</title>
				<polygon class="PF00857" points="648,28 658,28 665,35 665,45 658,52 648,52" stroke-linejoin="round" width="17" height="24" fill="rgb(144,224,70)" stroke="rgb(115,179,56)" stroke-width="1" opacity="0.75" />
			</g>
			<g>
				<title>PP-binding (PF00550)
"Phosphopantetheine attachment site"</title>
				<polygon class="PF00550" points="667,37 670,40 667,43" stroke-linejoin="round" width="6" height="24" fill="rgb(103,191,88)" stroke="rgb(82,152,70)" stroke-width="1" opacity="0.75" />
			</g>
		</g>
		<g>
			<title>dhbF_1 (DBLALLCB_02323)
Dimodular nonribosomal peptide synthase</title>
			<polygon class="dhbF_1 (DBLALLCB_02323)
Dimodular nonribosomal peptide synthase" points="676,25 819,25 819,10 849,40 819,70 819,55 676,55" fill="rgb(255,255,255)" fill-opacity="1.0" stroke="rgb(0,0,0)" stroke-width="2"  />
			<g>
				<title>Condensation (PF00668)
"Condensation domain"</title>
				<rect class="PF00668" x="676" y="28" stroke-linejoin="round" width="44" height="24" fill="rgb(224,184,98)" stroke="rgb(179,147,78)" stroke-width="1" opacity="0.75" />
			</g>
			<g>
				<title>AMP-binding (PF00501)
"AMP-binding enzyme"</title>
				<rect class="PF00501" x="722" y="28" stroke-linejoin="round" width="39" height="24" fill="rgb(60,217,223)" stroke="rgb(48,173,178)" stroke-width="1" opacity="0.75" />
			</g>
			<g>
				<title>AMP-binding_C (PF13193)
"AMP-binding enzyme C-terminal domain"</title>
				<rect class="PF13193" x="762" y="28" stroke-linejoin="round" width="7" height="24" fill="rgb(182,50,118)" stroke="rgb(145,39,94)" stroke-width="1" opacity="0.75" />
			</g>
			<g>
				<title>PP-binding (PF00550)
"Phosphopantetheine attachment site"</title>
				<rect class="PF00550" x="773" y="28" stroke-linejoin="round" width="6" height="24" fill="rgb(103,191,88)" stroke="rgb(82,152,70)" stroke-width="1" opacity="0.75" />
			</g>
			<g>
				<title>Condensation (PF00668)
"Condensation domain"</title>
				<rect class="PF00668" x="780" y="28" stroke-linejoin="round" width="45" height="24" fill="rgb(224,184,98)" stroke="rgb(179,147,78)" stroke-width="1" opacity="0.75" />
			</g>
			<g>
				<title>AMP-binding (PF00501)
"AMP-binding enzyme"</title>
				<polygon class="PF00501" points="828,28 832,28 844,40 832,52 828,52" stroke-linejoin="round" width="20" height="24" fill="rgb(60,217,223)" stroke="rgb(48,173,178)" stroke-width="1" opacity="0.75" />
			</g>
		</g>
		<g>
			<title>dhbF_2 (DBLALLCB_02324)
Dimodular nonribosomal peptide synthase</title>
			<polygon class="dhbF_2 (DBLALLCB_02324)
Dimodular nonribosomal peptide synthase" points="848,10 863,40 848,70" fill="rgb(255,255,255)" fill-opacity="1.0" stroke="rgb(0,0,0)" stroke-width="2"  />
			<g>
				<title>AMP-binding (PF00501)
"AMP-binding enzyme"</title>
				<polygon class="PF00501" points="848,28 853,28 859,40 853,52 848,52" stroke-linejoin="round" width="14" height="24" fill="rgb(60,217,223)" stroke="rgb(48,173,178)" stroke-width="1" opacity="0.75" />
			</g>
		</g>
		<g>
			<title>dhbF_3 (DBLALLCB_02325)
Dimodular nonribosomal peptide synthase</title>
			<polygon class="dhbF_3 (DBLALLCB_02325)
Dimodular nonribosomal peptide synthase" points="866,10 883,40 866,70" fill="rgb(255,255,255)" fill-opacity="1.0" stroke="rgb(0,0,0)" stroke-width="2"  />
			<g>
				<title>AMP-binding (PF00501)
"AMP-binding enzyme"</title>
				<rect class="PF00501" x="866" y="28" stroke-linejoin="round" width="2" height="24" fill="rgb(60,217,223)" stroke="rgb(48,173,178)" stroke-width="1" opacity="0.75" />
			</g>
			<g>
				<title>AMP-binding_C (PF13193)
"AMP-binding enzyme C-terminal domain"</title>
				<polygon class="PF13193" points="869,28 872,28 876,34 876,46 872,52 869,52" stroke-linejoin="round" width="7" height="24" fill="rgb(182,50,118)" stroke="rgb(145,39,94)" stroke-width="1" opacity="0.75" />
			</g>
		</g>
		<g>
			<title>dhbF_4 (DBLALLCB_02326)
Dimodular nonribosomal peptide synthase</title>
			<polygon class="dhbF_4 (DBLALLCB_02326)
Dimodular nonribosomal peptide synthase" points="893,10 913,40 893,70" fill="rgb(255,255,255)" fill-opacity="1.0" stroke="rgb(0,0,0)" stroke-width="2"  />
			<g>
				<title>Thioesterase (PF00975)
"Thioesterase domain"</title>
				<polygon class="PF00975" points="893,28 901,28 910,40 901,52 893,52" stroke-linejoin="round" width="20" height="24" fill="rgb(207,80,138)" stroke="rgb(165,63,110)" stroke-width="1" opacity="0.75" />
			</g>
		</g>
		<g>
			<title>mbtH (DBLALLCB_02327)
Protein MbtH</title>
			<polygon class="mbtH (DBLALLCB_02327)
Protein MbtH" points="914,10 921,40 914,70" fill="rgb(255,255,255)" fill-opacity="1.0" stroke="rgb(0,0,0)" stroke-width="2"  />
			<g>
				<title>MbtH (PF03621)
"MbtH-like protein"</title>
				<polygon class="PF03621" points="914,28 914,28 918,40 914,52 914,52" stroke-linejoin="round" width="5" height="24" fill="rgb(212,165,97)" stroke="rgb(169,132,77)" stroke-width="1" opacity="0.75" />
			</g>
		</g>
		<g>
			<title>hsrA (DBLALLCB_02328)
putative transport protein HsrA</title>
			<polygon class="hsrA (DBLALLCB_02328)
putative transport protein HsrA" points="922,25 938,25 938,10 968,40 938,70 938,55 922,55" fill="rgb(255,255,255)" fill-opacity="1.0" stroke="rgb(0,0,0)" stroke-width="2"  />
			<g>
				<title>MFS_1 (PF07690)
"Major Facilitator Superfamily"</title>
				<polygon class="PF07690" points="923,28 952,28 962,38 962,42 952,52 923,52" stroke-linejoin="round" width="39" height="24" fill="rgb(193,224,74)" stroke="rgb(154,179,59)" stroke-width="1" opacity="0.75" />
			</g>
		</g>
		<g>
			<title>sfp (DBLALLCB_02329)
4'-phosphopantetheinyl transferase Sfp</title>
			<polygon class="sfp (DBLALLCB_02329)
4'-phosphopantetheinyl transferase Sfp" points="969,10 993,40 969,70" fill="rgb(255,255,255)" fill-opacity="1.0" stroke="rgb(0,0,0)" stroke-width="2"  />
			<g>
				<title>ACPS (PF01648)
"4'-phosphopantetheinyl transferase superfamily"</title>
				<polygon class="PF01648" points="979,28 979,28 989,40 989,40 979,52 979,52" stroke-linejoin="round" width="10" height="24" fill="rgb(85,184,135)" stroke="rgb(68,147,108)" stroke-width="1" opacity="0.75" />
			</g>
		</g>
		<g>
			<title>hmoA (DBLALLCB_02330)
Heme-degrading monooxygenase HmoA</title>
			<polygon class="hmoA (DBLALLCB_02330)
Heme-degrading monooxygenase HmoA" points="993,10 1004,40 993,70" fill="rgb(255,255,255)" fill-opacity="1.0" stroke="rgb(0,0,0)" stroke-width="2"  />
			<g>
				<title>ABM (PF03992)
"Antibiotic biosynthesis monooxygenase"</title>
				<polygon class="PF03992" points="993,28 996,28 1000,38 1000,42 996,52 993,52" stroke-linejoin="round" width="7" height="24" fill="rgb(193,84,127)" stroke="rgb(154,67,101)" stroke-width="1" opacity="0.75" />
			</g>
		</g>
		<g>
			<title>kdsA (DBLALLCB_02331)
2-dehydro-3-deoxyphosphooctonate aldolase</title>
			<polygon class="kdsA (DBLALLCB_02331)
2-dehydro-3-deoxyphosphooctonate aldolase" points="1005,25 1009,25 1009,10 1039,40 1009,70 1009,55 1005,55" fill="rgb(255,255,255)" fill-opacity="1.0" stroke="rgb(0,0,0)" stroke-width="2"  />
			<g>
				<title>DAHP_synth_1 (PF00793)
"DAHP synthetase I family"</title>
				<polygon class="PF00793" points="1012,28 1023,28 1035,40 1023,52 1012,52" stroke-linejoin="round" width="25" height="24" fill="rgb(223,103,208)" stroke="rgb(178,82,166)" stroke-width="1" opacity="0.75" />
			</g>
		</g>
		<g>
			<title>mhqA_2 (DBLALLCB_02332)
Putative ring-cleaving dioxygenase MhqA</title>
			<polygon class="mhqA_2 (DBLALLCB_02332)
Putative ring-cleaving dioxygenase MhqA" points="1077,25 1075,25 1075,10 1045,40 1075,70 1075,55 1077,55" fill="rgb(255,255,255)" fill-opacity="1.0" stroke="rgb(0,0,0)" stroke-width="2"  />
			<g>
				<title>Glyoxalase (PF00903)
"Glyoxalase/Bleomycin resistance protein/Dioxygenase superfamily"</title>
				<polygon class="PF00903" points="1049,40 1061,28 1061,28 1061,52 1061,52 1049,40" stroke-linejoin="round" width="12" height="24" fill="rgb(50,162,189)" stroke="rgb(40,129,151)" stroke-width="1" opacity="0.75" />
			</g>
			<g>
				<title>Glyoxalase (PF00903)
"Glyoxalase/Bleomycin resistance protein/Dioxygenase superfamily"</title>
				<rect class="PF00903" x="1065" y="28" stroke-linejoin="round" width="12" height="24" fill="rgb(50,162,189)" stroke="rgb(40,129,151)" stroke-width="1" opacity="0.75" />
			</g>
		</g>
		<g>
			<title> (DBLALLCB_02333)
hypothetical protein</title>
			<polygon class=" (DBLALLCB_02333)
hypothetical protein" points="1082,10 1091,40 1082,70" fill="rgb(255,255,255)" fill-opacity="1.0" stroke="rgb(0,0,0)" stroke-width="2"  />
			<g>
				<title>His_Phos_1 (PF00300)
"Histidine phosphatase superfamily (branch 1)"</title>
				<polygon class="PF00300" points="1082,28 1083,28 1087,40 1083,52 1082,52" stroke-linejoin="round" width="7" height="24" fill="rgb(135,184,63)" stroke="rgb(107,147,50)" stroke-width="1" opacity="0.75" />
			</g>
		</g>
		<g>
			<title> (DBLALLCB_02334)
hypothetical protein</title>
			<polygon class=" (DBLALLCB_02334)
hypothetical protein" points="1102,10 1120,40 1102,70" fill="rgb(255,255,255)" fill-opacity="1.0" stroke="rgb(0,0,0)" stroke-width="2"  />
			<g>
				<title>His_Phos_1 (PF00300)
"Histidine phosphatase superfamily (branch 1)"</title>
				<polygon class="PF00300" points="1102,28 1109,28 1116,40 1109,52 1102,52" stroke-linejoin="round" width="17" height="24" fill="rgb(135,184,63)" stroke="rgb(107,147,50)" stroke-width="1" opacity="0.75" />
			</g>
		</g>
		<g>
			<title> (DBLALLCB_02335)
hypothetical protein</title>
			<polygon class=" (DBLALLCB_02335)
hypothetical protein" points="1121,40 1134,10 1134,70" fill="rgb(255,255,255)" fill-opacity="1.0" stroke="rgb(0,0,0)" stroke-width="2"  />
			<g>
				<title>DUF393 (PF04134)
"Protein of unknown function, DUF393"</title>
				<polygon class="PF04134" points="1124,40 1129,28 1132,28 1132,52 1129,52" stroke-linejoin="round" width="10" height="24" fill="rgb(151,216,64)" stroke="rgb(120,172,51)" stroke-width="1" opacity="0.75" />
			</g>
		</g>
		<g>
			<title> (DBLALLCB_02336)
hypothetical protein</title>
			<polygon class=" (DBLALLCB_02336)
hypothetical protein" points="1138,10 1156,40 1138,70" fill="rgb(255,255,255)" fill-opacity="1.0" stroke="rgb(0,0,0)" stroke-width="2"  />
			<g>
				<title>2_5_RNA_ligase2 (PF13563)
"2'-5' RNA ligase superfamily"</title>
				<polygon class="PF13563" points="1139,28 1145,28 1152,40 1145,52 1139,52" stroke-linejoin="round" width="15" height="24" fill="rgb(67,81,196)" stroke="rgb(53,64,156)" stroke-width="1" opacity="0.75" />
			</g>
		</g>
		<g>
			<title>sigY (DBLALLCB_02337)
RNA polymerase sigma factor SigY</title>
			<polygon class="sigY (DBLALLCB_02337)
RNA polymerase sigma factor SigY" points="1161,10 1179,40 1161,70" fill="rgb(255,255,255)" fill-opacity="1.0" stroke="rgb(0,0,0)" stroke-width="2"  />
			<g>
				<title>Sigma70_r2 (PF04542)
"Sigma-70 region 2"</title>
				<polygon class="PF04542" points="1163,28 1168,28 1169,30 1169,50 1168,52 1163,52" stroke-linejoin="round" width="6" height="24" fill="rgb(184,59,197)" stroke="rgb(147,47,157)" stroke-width="1" opacity="0.75" />
			</g>
			<g>
				<title>Sigma70_r4_2 (PF08281)
"Sigma-70, region 4"</title>
				<polygon class="PF08281" points="1173,36 1175,40 1173,44" stroke-linejoin="round" width="4" height="24" fill="rgb(222,103,144)" stroke="rgb(177,82,115)" stroke-width="1" opacity="0.75" />
			</g>
		</g>
		<g>
			<title>yxlC (DBLALLCB_02338)
putative protein YxlC</title>
			<polygon class="yxlC (DBLALLCB_02338)
putative protein YxlC" points="1179,10 1189,40 1179,70" fill="rgb(255,255,255)" fill-opacity="1.0" stroke="rgb(0,0,0)" stroke-width="2"  />
			<g>
				<title>DUF5345 (PF17280)
"Family of unknown function (DUF5345)"</title>
				<polygon class="PF17280" points="1180,28 1181,28 1186,40 1181,52 1180,52" stroke-linejoin="round" width="7" height="24" fill="rgb(131,210,63)" stroke="rgb(104,168,50)" stroke-width="1" opacity="0.75" />
			</g>
		</g>
		<g>
			<title>yxlD (DBLALLCB_02339)
Negative regulatory protein YxlD</title>
			<polygon class="yxlD (DBLALLCB_02339)
Negative regulatory protein YxlD" points="1190,10 1197,40 1190,70" fill="rgb(255,255,255)" fill-opacity="1.0" stroke="rgb(0,0,0)" stroke-width="2"  />
		</g>
		<g>
			<title>yflN_1 (DBLALLCB_02340)
putative metallo-hydrolase YflN</title>
			<polygon class="yflN_1 (DBLALLCB_02340)
putative metallo-hydrolase YflN" points="1205,10 1227,40 1205,70" fill="rgb(255,255,255)" fill-opacity="1.0" stroke="rgb(0,0,0)" stroke-width="2"  />
			<g>
				<title>Lactamase_B (PF00753)
"Metallo-beta-lactamase superfamily"</title>
				<polygon class="PF00753" points="1206,28 1214,28 1223,40 1214,52 1206,52" stroke-linejoin="round" width="20" height="24" fill="rgb(206,198,96)" stroke="rgb(164,158,76)" stroke-width="1" opacity="0.75" />
			</g>
		</g>
		<g>
			<title>pnoA (DBLALLCB_02341)
Nitronate monooxygenase</title>
			<polygon class="pnoA (DBLALLCB_02341)
Nitronate monooxygenase" points="1236,25 1241,25 1241,10 1271,40 1241,70 1241,55 1236,55" fill="rgb(255,255,255)" fill-opacity="1.0" stroke="rgb(0,0,0)" stroke-width="2"  />
			<g>
				<title>NMO (PF03060)
"Nitronate monooxygenase"</title>
				<polygon class="PF03060" points="1236,28 1255,28 1267,40 1255,52 1236,52" stroke-linejoin="round" width="34" height="24" fill="rgb(100,193,226)" stroke="rgb(80,154,180)" stroke-width="1" opacity="0.75" />
			</g>
		</g>
		<g>
			<title> (DBLALLCB_02342)
hypothetical protein</title>
			<polygon class=" (DBLALLCB_02342)
hypothetical protein" points="1276,10 1290,40 1276,70" fill="rgb(255,255,255)" fill-opacity="1.0" stroke="rgb(0,0,0)" stroke-width="2"  />
			<g>
				<title>Disulph_isomer (PF06491)
"Disulphide isomerase"</title>
				<polygon class="PF06491" points="1276,28 1281,28 1287,40 1281,52 1276,52" stroke-linejoin="round" width="13" height="24" fill="rgb(78,209,89)" stroke="rgb(62,167,71)" stroke-width="1" opacity="0.75" />
			</g>
		</g>
		<g>
			<title> (DBLALLCB_02343)
hypothetical protein</title>
			<polygon class=" (DBLALLCB_02343)
hypothetical protein" points="1293,25 1294,25 1294,10 1324,40 1294,70 1294,55 1293,55" fill="rgb(255,255,255)" fill-opacity="1.0" stroke="rgb(0,0,0)" stroke-width="2"  />
			<g>
				<title>ArAE_1 (PF06081)
"Aromatic acid exporter family member 1"</title>
				<rect class="PF06081" x="1293" y="28" stroke-linejoin="round" width="14" height="24" fill="rgb(199,50,137)" stroke="rgb(159,40,109)" stroke-width="1" opacity="0.75" />
			</g>
			<g>
				<title>ArAE_1_C (PF11728)
"Putative aromatic acid exporter C-terminal domain"</title>
				<polygon class="PF11728" points="1307,28 1308,28 1320,40 1308,52 1307,52" stroke-linejoin="round" width="16" height="24" fill="rgb(206,77,110)" stroke="rgb(164,61,87)" stroke-width="1" opacity="0.75" />
			</g>
		</g>
		<g>
			<title> (DBLALLCB_02344)
hypothetical protein</title>
			<polygon class=" (DBLALLCB_02344)
hypothetical protein" points="1326,10 1343,40 1326,70" fill="rgb(255,255,255)" fill-opacity="1.0" stroke="rgb(0,0,0)" stroke-width="2"  />
			<g>
				<title>YkuD (PF03734)
"L,D-transpeptidase catalytic domain"</title>
				<polygon class="PF03734" points="1328,28 1332,28 1339,40 1332,52 1328,52" stroke-linejoin="round" width="12" height="24" fill="rgb(112,183,75)" stroke="rgb(89,146,60)" stroke-width="1" opacity="0.75" />
			</g>
		</g>
		<g>
			<title>bhbA (DBLALLCB_02345)
Methylmalonyl-CoA mutase</title>
			<polygon class="bhbA (DBLALLCB_02345)
Methylmalonyl-CoA mutase" points="1359,25 1384,25 1384,10 1414,40 1384,70 1384,55 1359,55" fill="rgb(255,255,255)" fill-opacity="1.0" stroke="rgb(0,0,0)" stroke-width="2"  />
			<g>
				<title>MM_CoA_mutase (PF01642)
"Methylmalonyl-CoA mutase"</title>
				<polygon class="PF01642" points="1362,28 1397,28 1409,40 1397,52 1362,52" stroke-linejoin="round" width="51" height="24" fill="rgb(67,86,223)" stroke="rgb(53,68,178)" stroke-width="1" opacity="0.75" />
			</g>
		</g>
		<g>
			<title>icmF_2 (DBLALLCB_02346)
Fused isobutyryl-CoA mutase</title>
			<polygon class="icmF_2 (DBLALLCB_02346)
Fused isobutyryl-CoA mutase" points="1415,10 1442,40 1415,70" fill="rgb(255,255,255)" fill-opacity="1.0" stroke="rgb(0,0,0)" stroke-width="2"  />
			<g>
				<title>B12-binding (PF02310)
"B12 binding domain"</title>
				<rect class="PF02310" x="1415" y="28" stroke-linejoin="round" width="11" height="24" fill="rgb(145,190,60)" stroke="rgb(115,152,48)" stroke-width="1" opacity="0.75" />
			</g>
			<g>
				<title>Glyoxalase_4 (PF13669)
"Glyoxalase/Bleomycin resistance protein/Dioxygenase superfamily"</title>
				<polygon class="PF13669" points="1429,30 1438,40 1429,50" stroke-linejoin="round" width="11" height="24" fill="rgb(66,183,136)" stroke="rgb(52,146,108)" stroke-width="1" opacity="0.75" />
			</g>
		</g>
		<g>
			<title>pccB (DBLALLCB_02347)
Propionyl-CoA carboxylase beta chain</title>
			<polygon class="pccB (DBLALLCB_02347)
Propionyl-CoA carboxylase beta chain" points="1442,25 1463,25 1463,10 1493,40 1463,70 1463,55 1442,55" fill="rgb(255,255,255)" fill-opacity="1.0" stroke="rgb(0,0,0)" stroke-width="2"  />
			<g>
				<title>Carboxyl_trans (PF01039)
"Carboxyl transferase domain"</title>
				<polygon class="PF01039" points="1444,28 1477,28 1489,40 1477,52 1444,52" stroke-linejoin="round" width="48" height="24" fill="rgb(180,136,60)" stroke="rgb(144,108,48)" stroke-width="1" opacity="0.75" />
			</g>
		</g>
	</g>
</svg>
